G04 #@! TF.GenerationSoftware,KiCad,Pcbnew,(5.1.5)-3*
G04 #@! TF.CreationDate,2020-06-11T14:27:07+02:00*
G04 #@! TF.ProjectId,Power_module_v0,506f7765-725f-46d6-9f64-756c655f7630,rev?*
G04 #@! TF.SameCoordinates,Original*
G04 #@! TF.FileFunction,Soldermask,Bot*
G04 #@! TF.FilePolarity,Negative*
%FSLAX46Y46*%
G04 Gerber Fmt 4.6, Leading zero omitted, Abs format (unit mm)*
G04 Created by KiCad (PCBNEW (5.1.5)-3) date 2020-06-11 14:27:07*
%MOMM*%
%LPD*%
G04 APERTURE LIST*
%ADD10C,0.100000*%
G04 APERTURE END LIST*
D10*
G36*
X107831220Y-105586245D02*
G01*
X107968071Y-105627759D01*
X107968074Y-105627760D01*
X108094193Y-105695172D01*
X108204743Y-105785898D01*
X108295468Y-105896446D01*
X108362880Y-106022565D01*
X108362880Y-106022566D01*
X108362881Y-106022568D01*
X108404395Y-106159419D01*
X108414900Y-106266081D01*
X108414900Y-106687398D01*
X108404395Y-106794060D01*
X108373683Y-106895304D01*
X108362880Y-106930916D01*
X108295468Y-107057034D01*
X108204743Y-107167583D01*
X108094194Y-107258308D01*
X107968075Y-107325720D01*
X107968072Y-107325721D01*
X107831221Y-107367235D01*
X107688900Y-107381252D01*
X107546580Y-107367235D01*
X107409729Y-107325721D01*
X107409726Y-107325720D01*
X107283607Y-107258308D01*
X107173058Y-107167583D01*
X107082332Y-107057034D01*
X107014920Y-106930915D01*
X107014919Y-106930912D01*
X106973405Y-106794061D01*
X106962900Y-106687399D01*
X106962900Y-106266082D01*
X106973405Y-106159420D01*
X107014919Y-106022569D01*
X107014920Y-106022566D01*
X107082332Y-105896447D01*
X107173058Y-105785897D01*
X107283606Y-105695172D01*
X107409725Y-105627760D01*
X107409728Y-105627759D01*
X107546579Y-105586245D01*
X107688900Y-105572228D01*
X107831220Y-105586245D01*
G37*
G36*
X114831220Y-105586245D02*
G01*
X114968071Y-105627759D01*
X114968074Y-105627760D01*
X115094193Y-105695172D01*
X115204743Y-105785898D01*
X115295468Y-105896446D01*
X115362880Y-106022565D01*
X115362880Y-106022566D01*
X115362881Y-106022568D01*
X115404395Y-106159419D01*
X115414900Y-106266081D01*
X115414900Y-106687398D01*
X115404395Y-106794060D01*
X115373683Y-106895304D01*
X115362880Y-106930916D01*
X115295468Y-107057034D01*
X115204743Y-107167583D01*
X115094194Y-107258308D01*
X114968075Y-107325720D01*
X114968072Y-107325721D01*
X114831221Y-107367235D01*
X114688900Y-107381252D01*
X114546580Y-107367235D01*
X114409729Y-107325721D01*
X114409726Y-107325720D01*
X114283607Y-107258308D01*
X114173058Y-107167583D01*
X114082332Y-107057034D01*
X114014920Y-106930915D01*
X114014919Y-106930912D01*
X113973405Y-106794061D01*
X113962900Y-106687399D01*
X113962900Y-106266082D01*
X113973405Y-106159420D01*
X114014919Y-106022569D01*
X114014920Y-106022566D01*
X114082332Y-105896447D01*
X114173058Y-105785897D01*
X114283606Y-105695172D01*
X114409725Y-105627760D01*
X114409728Y-105627759D01*
X114546579Y-105586245D01*
X114688900Y-105572228D01*
X114831220Y-105586245D01*
G37*
G36*
X133914000Y-106067000D02*
G01*
X131262000Y-106067000D01*
X131262000Y-104405000D01*
X133914000Y-104405000D01*
X133914000Y-106067000D01*
G37*
G36*
X130255674Y-104298465D02*
G01*
X130293367Y-104309899D01*
X130328103Y-104328466D01*
X130358548Y-104353452D01*
X130383534Y-104383897D01*
X130402101Y-104418633D01*
X130413535Y-104456326D01*
X130418000Y-104501661D01*
X130418000Y-105338339D01*
X130413535Y-105383674D01*
X130402101Y-105421367D01*
X130383534Y-105456103D01*
X130358548Y-105486548D01*
X130328103Y-105511534D01*
X130293367Y-105530101D01*
X130255674Y-105541535D01*
X130210339Y-105546000D01*
X129123661Y-105546000D01*
X129078326Y-105541535D01*
X129040633Y-105530101D01*
X129005897Y-105511534D01*
X128975452Y-105486548D01*
X128950466Y-105456103D01*
X128931899Y-105421367D01*
X128920465Y-105383674D01*
X128916000Y-105338339D01*
X128916000Y-104501661D01*
X128920465Y-104456326D01*
X128931899Y-104418633D01*
X128950466Y-104383897D01*
X128975452Y-104353452D01*
X129005897Y-104328466D01*
X129040633Y-104309899D01*
X129078326Y-104298465D01*
X129123661Y-104294000D01*
X130210339Y-104294000D01*
X130255674Y-104298465D01*
G37*
G36*
X136224674Y-104171465D02*
G01*
X136262367Y-104182899D01*
X136297103Y-104201466D01*
X136327548Y-104226452D01*
X136352534Y-104256897D01*
X136371101Y-104291633D01*
X136382535Y-104329326D01*
X136387000Y-104374661D01*
X136387000Y-105211339D01*
X136382535Y-105256674D01*
X136371101Y-105294367D01*
X136352534Y-105329103D01*
X136327548Y-105359548D01*
X136297103Y-105384534D01*
X136262367Y-105403101D01*
X136224674Y-105414535D01*
X136179339Y-105419000D01*
X135092661Y-105419000D01*
X135047326Y-105414535D01*
X135009633Y-105403101D01*
X134974897Y-105384534D01*
X134944452Y-105359548D01*
X134919466Y-105329103D01*
X134900899Y-105294367D01*
X134889465Y-105256674D01*
X134885000Y-105211339D01*
X134885000Y-104374661D01*
X134889465Y-104329326D01*
X134900899Y-104291633D01*
X134919466Y-104256897D01*
X134944452Y-104226452D01*
X134974897Y-104201466D01*
X135009633Y-104182899D01*
X135047326Y-104171465D01*
X135092661Y-104167000D01*
X136179339Y-104167000D01*
X136224674Y-104171465D01*
G37*
G36*
X138256674Y-104153465D02*
G01*
X138294367Y-104164899D01*
X138329103Y-104183466D01*
X138359548Y-104208452D01*
X138384534Y-104238897D01*
X138403101Y-104273633D01*
X138414535Y-104311326D01*
X138419000Y-104356661D01*
X138419000Y-105193339D01*
X138414535Y-105238674D01*
X138403101Y-105276367D01*
X138384534Y-105311103D01*
X138359548Y-105341548D01*
X138329103Y-105366534D01*
X138294367Y-105385101D01*
X138256674Y-105396535D01*
X138211339Y-105401000D01*
X137124661Y-105401000D01*
X137079326Y-105396535D01*
X137041633Y-105385101D01*
X137006897Y-105366534D01*
X136976452Y-105341548D01*
X136951466Y-105311103D01*
X136932899Y-105276367D01*
X136921465Y-105238674D01*
X136917000Y-105193339D01*
X136917000Y-104356661D01*
X136921465Y-104311326D01*
X136932899Y-104273633D01*
X136951466Y-104238897D01*
X136976452Y-104208452D01*
X137006897Y-104183466D01*
X137041633Y-104164899D01*
X137079326Y-104153465D01*
X137124661Y-104149000D01*
X138211339Y-104149000D01*
X138256674Y-104153465D01*
G37*
G36*
X113726717Y-102684436D02*
G01*
X113840004Y-102718802D01*
X113944411Y-102774609D01*
X113944413Y-102774610D01*
X113944412Y-102774610D01*
X114035927Y-102849713D01*
X114099611Y-102927312D01*
X114111031Y-102941228D01*
X114166838Y-103045635D01*
X114201204Y-103158922D01*
X114209900Y-103247221D01*
X114209900Y-103706258D01*
X114201204Y-103794558D01*
X114166838Y-103907845D01*
X114111031Y-104012252D01*
X114035927Y-104103767D01*
X113944412Y-104178871D01*
X113840005Y-104234678D01*
X113726718Y-104269044D01*
X113608900Y-104280647D01*
X113491083Y-104269044D01*
X113377796Y-104234678D01*
X113273389Y-104178871D01*
X113181874Y-104103767D01*
X113106769Y-104012252D01*
X113050962Y-103907845D01*
X113016596Y-103794558D01*
X113007900Y-103706259D01*
X113007900Y-103247222D01*
X113016596Y-103158923D01*
X113050962Y-103045636D01*
X113106769Y-102941229D01*
X113120238Y-102924817D01*
X113181873Y-102849713D01*
X113273387Y-102774610D01*
X113273386Y-102774610D01*
X113273388Y-102774609D01*
X113377795Y-102718802D01*
X113491082Y-102684436D01*
X113608900Y-102672833D01*
X113726717Y-102684436D01*
G37*
G36*
X108886717Y-102684436D02*
G01*
X109000004Y-102718802D01*
X109104411Y-102774609D01*
X109104413Y-102774610D01*
X109104412Y-102774610D01*
X109195927Y-102849713D01*
X109259611Y-102927312D01*
X109271031Y-102941228D01*
X109326838Y-103045635D01*
X109361204Y-103158922D01*
X109369900Y-103247221D01*
X109369900Y-103706258D01*
X109361204Y-103794558D01*
X109326838Y-103907845D01*
X109271031Y-104012252D01*
X109195927Y-104103767D01*
X109104412Y-104178871D01*
X109000005Y-104234678D01*
X108886718Y-104269044D01*
X108768900Y-104280647D01*
X108651083Y-104269044D01*
X108537796Y-104234678D01*
X108433389Y-104178871D01*
X108341874Y-104103767D01*
X108266769Y-104012252D01*
X108210962Y-103907845D01*
X108176596Y-103794558D01*
X108167900Y-103706259D01*
X108167900Y-103247222D01*
X108176596Y-103158923D01*
X108210962Y-103045636D01*
X108266769Y-102941229D01*
X108280238Y-102924817D01*
X108341873Y-102849713D01*
X108433387Y-102774610D01*
X108433386Y-102774610D01*
X108433388Y-102774609D01*
X108537795Y-102718802D01*
X108651082Y-102684436D01*
X108768900Y-102672833D01*
X108886717Y-102684436D01*
G37*
G36*
X123322280Y-103963420D02*
G01*
X121696280Y-103963420D01*
X121696280Y-99861420D01*
X123322280Y-99861420D01*
X123322280Y-103963420D01*
G37*
G36*
X125862280Y-103963420D02*
G01*
X124236280Y-103963420D01*
X124236280Y-99861420D01*
X125862280Y-99861420D01*
X125862280Y-103963420D01*
G37*
G36*
X120782280Y-103963420D02*
G01*
X119156280Y-103963420D01*
X119156280Y-99861420D01*
X120782280Y-99861420D01*
X120782280Y-103963420D01*
G37*
G36*
X130255674Y-102248465D02*
G01*
X130293367Y-102259899D01*
X130328103Y-102278466D01*
X130358548Y-102303452D01*
X130383534Y-102333897D01*
X130402101Y-102368633D01*
X130413535Y-102406326D01*
X130418000Y-102451661D01*
X130418000Y-103288339D01*
X130413535Y-103333674D01*
X130402101Y-103371367D01*
X130383534Y-103406103D01*
X130358548Y-103436548D01*
X130328103Y-103461534D01*
X130293367Y-103480101D01*
X130255674Y-103491535D01*
X130210339Y-103496000D01*
X129123661Y-103496000D01*
X129078326Y-103491535D01*
X129040633Y-103480101D01*
X129005897Y-103461534D01*
X128975452Y-103436548D01*
X128950466Y-103406103D01*
X128931899Y-103371367D01*
X128920465Y-103333674D01*
X128916000Y-103288339D01*
X128916000Y-102451661D01*
X128920465Y-102406326D01*
X128931899Y-102368633D01*
X128950466Y-102333897D01*
X128975452Y-102303452D01*
X129005897Y-102278466D01*
X129040633Y-102259899D01*
X129078326Y-102248465D01*
X129123661Y-102244000D01*
X130210339Y-102244000D01*
X130255674Y-102248465D01*
G37*
G36*
X136224674Y-102121465D02*
G01*
X136262367Y-102132899D01*
X136297103Y-102151466D01*
X136327548Y-102176452D01*
X136352534Y-102206897D01*
X136371101Y-102241633D01*
X136382535Y-102279326D01*
X136387000Y-102324661D01*
X136387000Y-103161339D01*
X136382535Y-103206674D01*
X136371101Y-103244367D01*
X136352534Y-103279103D01*
X136327548Y-103309548D01*
X136297103Y-103334534D01*
X136262367Y-103353101D01*
X136224674Y-103364535D01*
X136179339Y-103369000D01*
X135092661Y-103369000D01*
X135047326Y-103364535D01*
X135009633Y-103353101D01*
X134974897Y-103334534D01*
X134944452Y-103309548D01*
X134919466Y-103279103D01*
X134900899Y-103244367D01*
X134889465Y-103206674D01*
X134885000Y-103161339D01*
X134885000Y-102324661D01*
X134889465Y-102279326D01*
X134900899Y-102241633D01*
X134919466Y-102206897D01*
X134944452Y-102176452D01*
X134974897Y-102151466D01*
X135009633Y-102132899D01*
X135047326Y-102121465D01*
X135092661Y-102117000D01*
X136179339Y-102117000D01*
X136224674Y-102121465D01*
G37*
G36*
X133914000Y-103367000D02*
G01*
X131262000Y-103367000D01*
X131262000Y-101705000D01*
X133914000Y-101705000D01*
X133914000Y-103367000D01*
G37*
G36*
X138256674Y-102103465D02*
G01*
X138294367Y-102114899D01*
X138329103Y-102133466D01*
X138359548Y-102158452D01*
X138384534Y-102188897D01*
X138403101Y-102223633D01*
X138414535Y-102261326D01*
X138419000Y-102306661D01*
X138419000Y-103143339D01*
X138414535Y-103188674D01*
X138403101Y-103226367D01*
X138384534Y-103261103D01*
X138359548Y-103291548D01*
X138329103Y-103316534D01*
X138294367Y-103335101D01*
X138256674Y-103346535D01*
X138211339Y-103351000D01*
X137124661Y-103351000D01*
X137079326Y-103346535D01*
X137041633Y-103335101D01*
X137006897Y-103316534D01*
X136976452Y-103291548D01*
X136951466Y-103261103D01*
X136932899Y-103226367D01*
X136921465Y-103188674D01*
X136917000Y-103143339D01*
X136917000Y-102306661D01*
X136921465Y-102261326D01*
X136932899Y-102223633D01*
X136951466Y-102188897D01*
X136976452Y-102158452D01*
X137006897Y-102133466D01*
X137041633Y-102114899D01*
X137079326Y-102103465D01*
X137124661Y-102099000D01*
X138211339Y-102099000D01*
X138256674Y-102103465D01*
G37*
G36*
X131146674Y-99202465D02*
G01*
X131184367Y-99213899D01*
X131219103Y-99232466D01*
X131249548Y-99257452D01*
X131274534Y-99287897D01*
X131293101Y-99322633D01*
X131304535Y-99360326D01*
X131309000Y-99405661D01*
X131309000Y-100492339D01*
X131304535Y-100537674D01*
X131293101Y-100575367D01*
X131274534Y-100610103D01*
X131249548Y-100640548D01*
X131219103Y-100665534D01*
X131184367Y-100684101D01*
X131146674Y-100695535D01*
X131101339Y-100700000D01*
X130264661Y-100700000D01*
X130219326Y-100695535D01*
X130181633Y-100684101D01*
X130146897Y-100665534D01*
X130116452Y-100640548D01*
X130091466Y-100610103D01*
X130072899Y-100575367D01*
X130061465Y-100537674D01*
X130057000Y-100492339D01*
X130057000Y-99405661D01*
X130061465Y-99360326D01*
X130072899Y-99322633D01*
X130091466Y-99287897D01*
X130116452Y-99257452D01*
X130146897Y-99232466D01*
X130181633Y-99213899D01*
X130219326Y-99202465D01*
X130264661Y-99198000D01*
X131101339Y-99198000D01*
X131146674Y-99202465D01*
G37*
G36*
X133196674Y-99202465D02*
G01*
X133234367Y-99213899D01*
X133269103Y-99232466D01*
X133299548Y-99257452D01*
X133324534Y-99287897D01*
X133343101Y-99322633D01*
X133354535Y-99360326D01*
X133359000Y-99405661D01*
X133359000Y-100492339D01*
X133354535Y-100537674D01*
X133343101Y-100575367D01*
X133324534Y-100610103D01*
X133299548Y-100640548D01*
X133269103Y-100665534D01*
X133234367Y-100684101D01*
X133196674Y-100695535D01*
X133151339Y-100700000D01*
X132314661Y-100700000D01*
X132269326Y-100695535D01*
X132231633Y-100684101D01*
X132196897Y-100665534D01*
X132166452Y-100640548D01*
X132141466Y-100610103D01*
X132122899Y-100575367D01*
X132111465Y-100537674D01*
X132107000Y-100492339D01*
X132107000Y-99405661D01*
X132111465Y-99360326D01*
X132122899Y-99322633D01*
X132141466Y-99287897D01*
X132166452Y-99257452D01*
X132196897Y-99232466D01*
X132231633Y-99213899D01*
X132269326Y-99202465D01*
X132314661Y-99198000D01*
X133151339Y-99198000D01*
X133196674Y-99202465D01*
G37*
G36*
X112613674Y-98821465D02*
G01*
X112651367Y-98832899D01*
X112686103Y-98851466D01*
X112716548Y-98876452D01*
X112741534Y-98906897D01*
X112760101Y-98941633D01*
X112771535Y-98979326D01*
X112776000Y-99024661D01*
X112776000Y-100111339D01*
X112771535Y-100156674D01*
X112760101Y-100194367D01*
X112741534Y-100229103D01*
X112716548Y-100259548D01*
X112686103Y-100284534D01*
X112651367Y-100303101D01*
X112613674Y-100314535D01*
X112568339Y-100319000D01*
X111731661Y-100319000D01*
X111686326Y-100314535D01*
X111648633Y-100303101D01*
X111613897Y-100284534D01*
X111583452Y-100259548D01*
X111558466Y-100229103D01*
X111539899Y-100194367D01*
X111528465Y-100156674D01*
X111524000Y-100111339D01*
X111524000Y-99024661D01*
X111528465Y-98979326D01*
X111539899Y-98941633D01*
X111558466Y-98906897D01*
X111583452Y-98876452D01*
X111613897Y-98851466D01*
X111648633Y-98832899D01*
X111686326Y-98821465D01*
X111731661Y-98817000D01*
X112568339Y-98817000D01*
X112613674Y-98821465D01*
G37*
G36*
X110563674Y-98821465D02*
G01*
X110601367Y-98832899D01*
X110636103Y-98851466D01*
X110666548Y-98876452D01*
X110691534Y-98906897D01*
X110710101Y-98941633D01*
X110721535Y-98979326D01*
X110726000Y-99024661D01*
X110726000Y-100111339D01*
X110721535Y-100156674D01*
X110710101Y-100194367D01*
X110691534Y-100229103D01*
X110666548Y-100259548D01*
X110636103Y-100284534D01*
X110601367Y-100303101D01*
X110563674Y-100314535D01*
X110518339Y-100319000D01*
X109681661Y-100319000D01*
X109636326Y-100314535D01*
X109598633Y-100303101D01*
X109563897Y-100284534D01*
X109533452Y-100259548D01*
X109508466Y-100229103D01*
X109489899Y-100194367D01*
X109478465Y-100156674D01*
X109474000Y-100111339D01*
X109474000Y-99024661D01*
X109478465Y-98979326D01*
X109489899Y-98941633D01*
X109508466Y-98906897D01*
X109533452Y-98876452D01*
X109563897Y-98851466D01*
X109598633Y-98832899D01*
X109636326Y-98821465D01*
X109681661Y-98817000D01*
X110518339Y-98817000D01*
X110563674Y-98821465D01*
G37*
G36*
X108803674Y-98821465D02*
G01*
X108841367Y-98832899D01*
X108876103Y-98851466D01*
X108906548Y-98876452D01*
X108931534Y-98906897D01*
X108950101Y-98941633D01*
X108961535Y-98979326D01*
X108966000Y-99024661D01*
X108966000Y-100111339D01*
X108961535Y-100156674D01*
X108950101Y-100194367D01*
X108931534Y-100229103D01*
X108906548Y-100259548D01*
X108876103Y-100284534D01*
X108841367Y-100303101D01*
X108803674Y-100314535D01*
X108758339Y-100319000D01*
X107921661Y-100319000D01*
X107876326Y-100314535D01*
X107838633Y-100303101D01*
X107803897Y-100284534D01*
X107773452Y-100259548D01*
X107748466Y-100229103D01*
X107729899Y-100194367D01*
X107718465Y-100156674D01*
X107714000Y-100111339D01*
X107714000Y-99024661D01*
X107718465Y-98979326D01*
X107729899Y-98941633D01*
X107748466Y-98906897D01*
X107773452Y-98876452D01*
X107803897Y-98851466D01*
X107838633Y-98832899D01*
X107876326Y-98821465D01*
X107921661Y-98817000D01*
X108758339Y-98817000D01*
X108803674Y-98821465D01*
G37*
G36*
X106753674Y-98821465D02*
G01*
X106791367Y-98832899D01*
X106826103Y-98851466D01*
X106856548Y-98876452D01*
X106881534Y-98906897D01*
X106900101Y-98941633D01*
X106911535Y-98979326D01*
X106916000Y-99024661D01*
X106916000Y-100111339D01*
X106911535Y-100156674D01*
X106900101Y-100194367D01*
X106881534Y-100229103D01*
X106856548Y-100259548D01*
X106826103Y-100284534D01*
X106791367Y-100303101D01*
X106753674Y-100314535D01*
X106708339Y-100319000D01*
X105871661Y-100319000D01*
X105826326Y-100314535D01*
X105788633Y-100303101D01*
X105753897Y-100284534D01*
X105723452Y-100259548D01*
X105698466Y-100229103D01*
X105679899Y-100194367D01*
X105668465Y-100156674D01*
X105664000Y-100111339D01*
X105664000Y-99024661D01*
X105668465Y-98979326D01*
X105679899Y-98941633D01*
X105698466Y-98906897D01*
X105723452Y-98876452D01*
X105753897Y-98851466D01*
X105788633Y-98832899D01*
X105826326Y-98821465D01*
X105871661Y-98817000D01*
X106708339Y-98817000D01*
X106753674Y-98821465D01*
G37*
G36*
X141288674Y-98313465D02*
G01*
X141326367Y-98324899D01*
X141361103Y-98343466D01*
X141391548Y-98368452D01*
X141416534Y-98398897D01*
X141435101Y-98433633D01*
X141446535Y-98471326D01*
X141451000Y-98516661D01*
X141451000Y-99603339D01*
X141446535Y-99648674D01*
X141435101Y-99686367D01*
X141416534Y-99721103D01*
X141391548Y-99751548D01*
X141361103Y-99776534D01*
X141326367Y-99795101D01*
X141288674Y-99806535D01*
X141243339Y-99811000D01*
X140406661Y-99811000D01*
X140361326Y-99806535D01*
X140323633Y-99795101D01*
X140288897Y-99776534D01*
X140258452Y-99751548D01*
X140233466Y-99721103D01*
X140214899Y-99686367D01*
X140203465Y-99648674D01*
X140199000Y-99603339D01*
X140199000Y-98516661D01*
X140203465Y-98471326D01*
X140214899Y-98433633D01*
X140233466Y-98398897D01*
X140258452Y-98368452D01*
X140288897Y-98343466D01*
X140323633Y-98324899D01*
X140361326Y-98313465D01*
X140406661Y-98309000D01*
X141243339Y-98309000D01*
X141288674Y-98313465D01*
G37*
G36*
X143338674Y-98313465D02*
G01*
X143376367Y-98324899D01*
X143411103Y-98343466D01*
X143441548Y-98368452D01*
X143466534Y-98398897D01*
X143485101Y-98433633D01*
X143496535Y-98471326D01*
X143501000Y-98516661D01*
X143501000Y-99603339D01*
X143496535Y-99648674D01*
X143485101Y-99686367D01*
X143466534Y-99721103D01*
X143441548Y-99751548D01*
X143411103Y-99776534D01*
X143376367Y-99795101D01*
X143338674Y-99806535D01*
X143293339Y-99811000D01*
X142456661Y-99811000D01*
X142411326Y-99806535D01*
X142373633Y-99795101D01*
X142338897Y-99776534D01*
X142308452Y-99751548D01*
X142283466Y-99721103D01*
X142264899Y-99686367D01*
X142253465Y-99648674D01*
X142249000Y-99603339D01*
X142249000Y-98516661D01*
X142253465Y-98471326D01*
X142264899Y-98433633D01*
X142283466Y-98398897D01*
X142308452Y-98368452D01*
X142338897Y-98343466D01*
X142373633Y-98324899D01*
X142411326Y-98313465D01*
X142456661Y-98309000D01*
X143293339Y-98309000D01*
X143338674Y-98313465D01*
G37*
G36*
X138385674Y-97424465D02*
G01*
X138423367Y-97435899D01*
X138458103Y-97454466D01*
X138488548Y-97479452D01*
X138513534Y-97509897D01*
X138532101Y-97544633D01*
X138543535Y-97582326D01*
X138548000Y-97627661D01*
X138548000Y-98714339D01*
X138543535Y-98759674D01*
X138532101Y-98797367D01*
X138513534Y-98832103D01*
X138488548Y-98862548D01*
X138458103Y-98887534D01*
X138423367Y-98906101D01*
X138385674Y-98917535D01*
X138340339Y-98922000D01*
X137503661Y-98922000D01*
X137458326Y-98917535D01*
X137420633Y-98906101D01*
X137385897Y-98887534D01*
X137355452Y-98862548D01*
X137330466Y-98832103D01*
X137311899Y-98797367D01*
X137300465Y-98759674D01*
X137296000Y-98714339D01*
X137296000Y-97627661D01*
X137300465Y-97582326D01*
X137311899Y-97544633D01*
X137330466Y-97509897D01*
X137355452Y-97479452D01*
X137385897Y-97454466D01*
X137420633Y-97435899D01*
X137458326Y-97424465D01*
X137503661Y-97420000D01*
X138340339Y-97420000D01*
X138385674Y-97424465D01*
G37*
G36*
X136335674Y-97424465D02*
G01*
X136373367Y-97435899D01*
X136408103Y-97454466D01*
X136438548Y-97479452D01*
X136463534Y-97509897D01*
X136482101Y-97544633D01*
X136493535Y-97582326D01*
X136498000Y-97627661D01*
X136498000Y-98714339D01*
X136493535Y-98759674D01*
X136482101Y-98797367D01*
X136463534Y-98832103D01*
X136438548Y-98862548D01*
X136408103Y-98887534D01*
X136373367Y-98906101D01*
X136335674Y-98917535D01*
X136290339Y-98922000D01*
X135453661Y-98922000D01*
X135408326Y-98917535D01*
X135370633Y-98906101D01*
X135335897Y-98887534D01*
X135305452Y-98862548D01*
X135280466Y-98832103D01*
X135261899Y-98797367D01*
X135250465Y-98759674D01*
X135246000Y-98714339D01*
X135246000Y-97627661D01*
X135250465Y-97582326D01*
X135261899Y-97544633D01*
X135280466Y-97509897D01*
X135305452Y-97479452D01*
X135335897Y-97454466D01*
X135370633Y-97435899D01*
X135408326Y-97424465D01*
X135453661Y-97420000D01*
X136290339Y-97420000D01*
X136335674Y-97424465D01*
G37*
G36*
X131128674Y-97170465D02*
G01*
X131166367Y-97181899D01*
X131201103Y-97200466D01*
X131231548Y-97225452D01*
X131256534Y-97255897D01*
X131275101Y-97290633D01*
X131286535Y-97328326D01*
X131291000Y-97373661D01*
X131291000Y-98460339D01*
X131286535Y-98505674D01*
X131275101Y-98543367D01*
X131256534Y-98578103D01*
X131231548Y-98608548D01*
X131201103Y-98633534D01*
X131166367Y-98652101D01*
X131128674Y-98663535D01*
X131083339Y-98668000D01*
X130246661Y-98668000D01*
X130201326Y-98663535D01*
X130163633Y-98652101D01*
X130128897Y-98633534D01*
X130098452Y-98608548D01*
X130073466Y-98578103D01*
X130054899Y-98543367D01*
X130043465Y-98505674D01*
X130039000Y-98460339D01*
X130039000Y-97373661D01*
X130043465Y-97328326D01*
X130054899Y-97290633D01*
X130073466Y-97255897D01*
X130098452Y-97225452D01*
X130128897Y-97200466D01*
X130163633Y-97181899D01*
X130201326Y-97170465D01*
X130246661Y-97166000D01*
X131083339Y-97166000D01*
X131128674Y-97170465D01*
G37*
G36*
X133178674Y-97170465D02*
G01*
X133216367Y-97181899D01*
X133251103Y-97200466D01*
X133281548Y-97225452D01*
X133306534Y-97255897D01*
X133325101Y-97290633D01*
X133336535Y-97328326D01*
X133341000Y-97373661D01*
X133341000Y-98460339D01*
X133336535Y-98505674D01*
X133325101Y-98543367D01*
X133306534Y-98578103D01*
X133281548Y-98608548D01*
X133251103Y-98633534D01*
X133216367Y-98652101D01*
X133178674Y-98663535D01*
X133133339Y-98668000D01*
X132296661Y-98668000D01*
X132251326Y-98663535D01*
X132213633Y-98652101D01*
X132178897Y-98633534D01*
X132148452Y-98608548D01*
X132123466Y-98578103D01*
X132104899Y-98543367D01*
X132093465Y-98505674D01*
X132089000Y-98460339D01*
X132089000Y-97373661D01*
X132093465Y-97328326D01*
X132104899Y-97290633D01*
X132123466Y-97255897D01*
X132148452Y-97225452D01*
X132178897Y-97200466D01*
X132213633Y-97181899D01*
X132251326Y-97170465D01*
X132296661Y-97166000D01*
X133133339Y-97166000D01*
X133178674Y-97170465D01*
G37*
G36*
X120212000Y-98455000D02*
G01*
X117610000Y-98455000D01*
X117610000Y-92053000D01*
X120212000Y-92053000D01*
X120212000Y-98455000D01*
G37*
G36*
X127412000Y-98455000D02*
G01*
X124810000Y-98455000D01*
X124810000Y-92053000D01*
X127412000Y-92053000D01*
X127412000Y-98455000D01*
G37*
G36*
X102950674Y-96932465D02*
G01*
X102988367Y-96943899D01*
X103023103Y-96962466D01*
X103053548Y-96987452D01*
X103078534Y-97017897D01*
X103097101Y-97052633D01*
X103108535Y-97090326D01*
X103113000Y-97135661D01*
X103113000Y-97972339D01*
X103108535Y-98017674D01*
X103097101Y-98055367D01*
X103078534Y-98090103D01*
X103053548Y-98120548D01*
X103023103Y-98145534D01*
X102988367Y-98164101D01*
X102950674Y-98175535D01*
X102905339Y-98180000D01*
X101818661Y-98180000D01*
X101773326Y-98175535D01*
X101735633Y-98164101D01*
X101700897Y-98145534D01*
X101670452Y-98120548D01*
X101645466Y-98090103D01*
X101626899Y-98055367D01*
X101615465Y-98017674D01*
X101611000Y-97972339D01*
X101611000Y-97135661D01*
X101615465Y-97090326D01*
X101626899Y-97052633D01*
X101645466Y-97017897D01*
X101670452Y-96987452D01*
X101700897Y-96962466D01*
X101735633Y-96943899D01*
X101773326Y-96932465D01*
X101818661Y-96928000D01*
X102905339Y-96928000D01*
X102950674Y-96932465D01*
G37*
G36*
X114888674Y-96923465D02*
G01*
X114926367Y-96934899D01*
X114961103Y-96953466D01*
X114991548Y-96978452D01*
X115016534Y-97008897D01*
X115035101Y-97043633D01*
X115046535Y-97081326D01*
X115051000Y-97126661D01*
X115051000Y-97963339D01*
X115046535Y-98008674D01*
X115035101Y-98046367D01*
X115016534Y-98081103D01*
X114991548Y-98111548D01*
X114961103Y-98136534D01*
X114926367Y-98155101D01*
X114888674Y-98166535D01*
X114843339Y-98171000D01*
X113756661Y-98171000D01*
X113711326Y-98166535D01*
X113673633Y-98155101D01*
X113638897Y-98136534D01*
X113608452Y-98111548D01*
X113583466Y-98081103D01*
X113564899Y-98046367D01*
X113553465Y-98008674D01*
X113549000Y-97963339D01*
X113549000Y-97126661D01*
X113553465Y-97081326D01*
X113564899Y-97043633D01*
X113583466Y-97008897D01*
X113608452Y-96978452D01*
X113638897Y-96953466D01*
X113673633Y-96934899D01*
X113711326Y-96923465D01*
X113756661Y-96919000D01*
X114843339Y-96919000D01*
X114888674Y-96923465D01*
G37*
G36*
X104982674Y-96914465D02*
G01*
X105020367Y-96925899D01*
X105055103Y-96944466D01*
X105085548Y-96969452D01*
X105110534Y-96999897D01*
X105129101Y-97034633D01*
X105140535Y-97072326D01*
X105145000Y-97117661D01*
X105145000Y-97954339D01*
X105140535Y-97999674D01*
X105129101Y-98037367D01*
X105110534Y-98072103D01*
X105085548Y-98102548D01*
X105055103Y-98127534D01*
X105020367Y-98146101D01*
X104982674Y-98157535D01*
X104937339Y-98162000D01*
X103850661Y-98162000D01*
X103805326Y-98157535D01*
X103767633Y-98146101D01*
X103732897Y-98127534D01*
X103702452Y-98102548D01*
X103677466Y-98072103D01*
X103658899Y-98037367D01*
X103647465Y-97999674D01*
X103643000Y-97954339D01*
X103643000Y-97117661D01*
X103647465Y-97072326D01*
X103658899Y-97034633D01*
X103677466Y-96999897D01*
X103702452Y-96969452D01*
X103732897Y-96944466D01*
X103767633Y-96925899D01*
X103805326Y-96914465D01*
X103850661Y-96910000D01*
X104937339Y-96910000D01*
X104982674Y-96914465D01*
G37*
G36*
X112856674Y-96914465D02*
G01*
X112894367Y-96925899D01*
X112929103Y-96944466D01*
X112959548Y-96969452D01*
X112984534Y-96999897D01*
X113003101Y-97034633D01*
X113014535Y-97072326D01*
X113019000Y-97117661D01*
X113019000Y-97954339D01*
X113014535Y-97999674D01*
X113003101Y-98037367D01*
X112984534Y-98072103D01*
X112959548Y-98102548D01*
X112929103Y-98127534D01*
X112894367Y-98146101D01*
X112856674Y-98157535D01*
X112811339Y-98162000D01*
X111724661Y-98162000D01*
X111679326Y-98157535D01*
X111641633Y-98146101D01*
X111606897Y-98127534D01*
X111576452Y-98102548D01*
X111551466Y-98072103D01*
X111532899Y-98037367D01*
X111521465Y-97999674D01*
X111517000Y-97954339D01*
X111517000Y-97117661D01*
X111521465Y-97072326D01*
X111532899Y-97034633D01*
X111551466Y-96999897D01*
X111576452Y-96969452D01*
X111606897Y-96944466D01*
X111641633Y-96925899D01*
X111679326Y-96914465D01*
X111724661Y-96910000D01*
X112811339Y-96910000D01*
X112856674Y-96914465D01*
G37*
G36*
X110824674Y-96914465D02*
G01*
X110862367Y-96925899D01*
X110897103Y-96944466D01*
X110927548Y-96969452D01*
X110952534Y-96999897D01*
X110971101Y-97034633D01*
X110982535Y-97072326D01*
X110987000Y-97117661D01*
X110987000Y-97954339D01*
X110982535Y-97999674D01*
X110971101Y-98037367D01*
X110952534Y-98072103D01*
X110927548Y-98102548D01*
X110897103Y-98127534D01*
X110862367Y-98146101D01*
X110824674Y-98157535D01*
X110779339Y-98162000D01*
X109692661Y-98162000D01*
X109647326Y-98157535D01*
X109609633Y-98146101D01*
X109574897Y-98127534D01*
X109544452Y-98102548D01*
X109519466Y-98072103D01*
X109500899Y-98037367D01*
X109489465Y-97999674D01*
X109485000Y-97954339D01*
X109485000Y-97117661D01*
X109489465Y-97072326D01*
X109500899Y-97034633D01*
X109519466Y-96999897D01*
X109544452Y-96969452D01*
X109574897Y-96944466D01*
X109609633Y-96925899D01*
X109647326Y-96914465D01*
X109692661Y-96910000D01*
X110779339Y-96910000D01*
X110824674Y-96914465D01*
G37*
G36*
X141288674Y-96281465D02*
G01*
X141326367Y-96292899D01*
X141361103Y-96311466D01*
X141391548Y-96336452D01*
X141416534Y-96366897D01*
X141435101Y-96401633D01*
X141446535Y-96439326D01*
X141451000Y-96484661D01*
X141451000Y-97571339D01*
X141446535Y-97616674D01*
X141435101Y-97654367D01*
X141416534Y-97689103D01*
X141391548Y-97719548D01*
X141361103Y-97744534D01*
X141326367Y-97763101D01*
X141288674Y-97774535D01*
X141243339Y-97779000D01*
X140406661Y-97779000D01*
X140361326Y-97774535D01*
X140323633Y-97763101D01*
X140288897Y-97744534D01*
X140258452Y-97719548D01*
X140233466Y-97689103D01*
X140214899Y-97654367D01*
X140203465Y-97616674D01*
X140199000Y-97571339D01*
X140199000Y-96484661D01*
X140203465Y-96439326D01*
X140214899Y-96401633D01*
X140233466Y-96366897D01*
X140258452Y-96336452D01*
X140288897Y-96311466D01*
X140323633Y-96292899D01*
X140361326Y-96281465D01*
X140406661Y-96277000D01*
X141243339Y-96277000D01*
X141288674Y-96281465D01*
G37*
G36*
X143338674Y-96281465D02*
G01*
X143376367Y-96292899D01*
X143411103Y-96311466D01*
X143441548Y-96336452D01*
X143466534Y-96366897D01*
X143485101Y-96401633D01*
X143496535Y-96439326D01*
X143501000Y-96484661D01*
X143501000Y-97571339D01*
X143496535Y-97616674D01*
X143485101Y-97654367D01*
X143466534Y-97689103D01*
X143441548Y-97719548D01*
X143411103Y-97744534D01*
X143376367Y-97763101D01*
X143338674Y-97774535D01*
X143293339Y-97779000D01*
X142456661Y-97779000D01*
X142411326Y-97774535D01*
X142373633Y-97763101D01*
X142338897Y-97744534D01*
X142308452Y-97719548D01*
X142283466Y-97689103D01*
X142264899Y-97654367D01*
X142253465Y-97616674D01*
X142249000Y-97571339D01*
X142249000Y-96484661D01*
X142253465Y-96439326D01*
X142264899Y-96401633D01*
X142283466Y-96366897D01*
X142308452Y-96336452D01*
X142338897Y-96311466D01*
X142373633Y-96292899D01*
X142411326Y-96281465D01*
X142456661Y-96277000D01*
X143293339Y-96277000D01*
X143338674Y-96281465D01*
G37*
G36*
X106616000Y-95721001D02*
G01*
X106618402Y-95745387D01*
X106625515Y-95768836D01*
X106637066Y-95790447D01*
X106652611Y-95809389D01*
X106671553Y-95824934D01*
X106693164Y-95836485D01*
X106716613Y-95843598D01*
X106740999Y-95846000D01*
X107889001Y-95846000D01*
X107913387Y-95843598D01*
X107936836Y-95836485D01*
X107958447Y-95824934D01*
X107977389Y-95809389D01*
X107992934Y-95790447D01*
X108004485Y-95768836D01*
X108011598Y-95745387D01*
X108014000Y-95721001D01*
X108014000Y-95696000D01*
X108616000Y-95696000D01*
X108616000Y-97598000D01*
X108014000Y-97598000D01*
X108014000Y-97572999D01*
X108011598Y-97548613D01*
X108004485Y-97525164D01*
X107992934Y-97503553D01*
X107977389Y-97484611D01*
X107958447Y-97469066D01*
X107936836Y-97457515D01*
X107913387Y-97450402D01*
X107889001Y-97448000D01*
X106740999Y-97448000D01*
X106716613Y-97450402D01*
X106693164Y-97457515D01*
X106671553Y-97469066D01*
X106652611Y-97484611D01*
X106637066Y-97503553D01*
X106625515Y-97525164D01*
X106618402Y-97548613D01*
X106616000Y-97572999D01*
X106616000Y-97598000D01*
X106014000Y-97598000D01*
X106014000Y-95696000D01*
X106616000Y-95696000D01*
X106616000Y-95721001D01*
G37*
G36*
X136835000Y-96816000D02*
G01*
X135133000Y-96816000D01*
X135133000Y-92414000D01*
X136835000Y-92414000D01*
X136835000Y-96816000D01*
G37*
G36*
X139535000Y-96816000D02*
G01*
X137833000Y-96816000D01*
X137833000Y-92414000D01*
X139535000Y-92414000D01*
X139535000Y-96816000D01*
G37*
G36*
X131180000Y-96195000D02*
G01*
X129518000Y-96195000D01*
X129518000Y-93543000D01*
X131180000Y-93543000D01*
X131180000Y-96195000D01*
G37*
G36*
X133880000Y-96195000D02*
G01*
X132218000Y-96195000D01*
X132218000Y-93543000D01*
X133880000Y-93543000D01*
X133880000Y-96195000D01*
G37*
G36*
X102950674Y-94882465D02*
G01*
X102988367Y-94893899D01*
X103023103Y-94912466D01*
X103053548Y-94937452D01*
X103078534Y-94967897D01*
X103097101Y-95002633D01*
X103108535Y-95040326D01*
X103113000Y-95085661D01*
X103113000Y-95922339D01*
X103108535Y-95967674D01*
X103097101Y-96005367D01*
X103078534Y-96040103D01*
X103053548Y-96070548D01*
X103023103Y-96095534D01*
X102988367Y-96114101D01*
X102950674Y-96125535D01*
X102905339Y-96130000D01*
X101818661Y-96130000D01*
X101773326Y-96125535D01*
X101735633Y-96114101D01*
X101700897Y-96095534D01*
X101670452Y-96070548D01*
X101645466Y-96040103D01*
X101626899Y-96005367D01*
X101615465Y-95967674D01*
X101611000Y-95922339D01*
X101611000Y-95085661D01*
X101615465Y-95040326D01*
X101626899Y-95002633D01*
X101645466Y-94967897D01*
X101670452Y-94937452D01*
X101700897Y-94912466D01*
X101735633Y-94893899D01*
X101773326Y-94882465D01*
X101818661Y-94878000D01*
X102905339Y-94878000D01*
X102950674Y-94882465D01*
G37*
G36*
X114888674Y-94873465D02*
G01*
X114926367Y-94884899D01*
X114961103Y-94903466D01*
X114991548Y-94928452D01*
X115016534Y-94958897D01*
X115035101Y-94993633D01*
X115046535Y-95031326D01*
X115051000Y-95076661D01*
X115051000Y-95913339D01*
X115046535Y-95958674D01*
X115035101Y-95996367D01*
X115016534Y-96031103D01*
X114991548Y-96061548D01*
X114961103Y-96086534D01*
X114926367Y-96105101D01*
X114888674Y-96116535D01*
X114843339Y-96121000D01*
X113756661Y-96121000D01*
X113711326Y-96116535D01*
X113673633Y-96105101D01*
X113638897Y-96086534D01*
X113608452Y-96061548D01*
X113583466Y-96031103D01*
X113564899Y-95996367D01*
X113553465Y-95958674D01*
X113549000Y-95913339D01*
X113549000Y-95076661D01*
X113553465Y-95031326D01*
X113564899Y-94993633D01*
X113583466Y-94958897D01*
X113608452Y-94928452D01*
X113638897Y-94903466D01*
X113673633Y-94884899D01*
X113711326Y-94873465D01*
X113756661Y-94869000D01*
X114843339Y-94869000D01*
X114888674Y-94873465D01*
G37*
G36*
X112856674Y-94864465D02*
G01*
X112894367Y-94875899D01*
X112929103Y-94894466D01*
X112959548Y-94919452D01*
X112984534Y-94949897D01*
X113003101Y-94984633D01*
X113014535Y-95022326D01*
X113019000Y-95067661D01*
X113019000Y-95904339D01*
X113014535Y-95949674D01*
X113003101Y-95987367D01*
X112984534Y-96022103D01*
X112959548Y-96052548D01*
X112929103Y-96077534D01*
X112894367Y-96096101D01*
X112856674Y-96107535D01*
X112811339Y-96112000D01*
X111724661Y-96112000D01*
X111679326Y-96107535D01*
X111641633Y-96096101D01*
X111606897Y-96077534D01*
X111576452Y-96052548D01*
X111551466Y-96022103D01*
X111532899Y-95987367D01*
X111521465Y-95949674D01*
X111517000Y-95904339D01*
X111517000Y-95067661D01*
X111521465Y-95022326D01*
X111532899Y-94984633D01*
X111551466Y-94949897D01*
X111576452Y-94919452D01*
X111606897Y-94894466D01*
X111641633Y-94875899D01*
X111679326Y-94864465D01*
X111724661Y-94860000D01*
X112811339Y-94860000D01*
X112856674Y-94864465D01*
G37*
G36*
X104982674Y-94864465D02*
G01*
X105020367Y-94875899D01*
X105055103Y-94894466D01*
X105085548Y-94919452D01*
X105110534Y-94949897D01*
X105129101Y-94984633D01*
X105140535Y-95022326D01*
X105145000Y-95067661D01*
X105145000Y-95904339D01*
X105140535Y-95949674D01*
X105129101Y-95987367D01*
X105110534Y-96022103D01*
X105085548Y-96052548D01*
X105055103Y-96077534D01*
X105020367Y-96096101D01*
X104982674Y-96107535D01*
X104937339Y-96112000D01*
X103850661Y-96112000D01*
X103805326Y-96107535D01*
X103767633Y-96096101D01*
X103732897Y-96077534D01*
X103702452Y-96052548D01*
X103677466Y-96022103D01*
X103658899Y-95987367D01*
X103647465Y-95949674D01*
X103643000Y-95904339D01*
X103643000Y-95067661D01*
X103647465Y-95022326D01*
X103658899Y-94984633D01*
X103677466Y-94949897D01*
X103702452Y-94919452D01*
X103732897Y-94894466D01*
X103767633Y-94875899D01*
X103805326Y-94864465D01*
X103850661Y-94860000D01*
X104937339Y-94860000D01*
X104982674Y-94864465D01*
G37*
G36*
X110824674Y-94864465D02*
G01*
X110862367Y-94875899D01*
X110897103Y-94894466D01*
X110927548Y-94919452D01*
X110952534Y-94949897D01*
X110971101Y-94984633D01*
X110982535Y-95022326D01*
X110987000Y-95067661D01*
X110987000Y-95904339D01*
X110982535Y-95949674D01*
X110971101Y-95987367D01*
X110952534Y-96022103D01*
X110927548Y-96052548D01*
X110897103Y-96077534D01*
X110862367Y-96096101D01*
X110824674Y-96107535D01*
X110779339Y-96112000D01*
X109692661Y-96112000D01*
X109647326Y-96107535D01*
X109609633Y-96096101D01*
X109574897Y-96077534D01*
X109544452Y-96052548D01*
X109519466Y-96022103D01*
X109500899Y-95987367D01*
X109489465Y-95949674D01*
X109485000Y-95904339D01*
X109485000Y-95067661D01*
X109489465Y-95022326D01*
X109500899Y-94984633D01*
X109519466Y-94949897D01*
X109544452Y-94919452D01*
X109574897Y-94894466D01*
X109609633Y-94875899D01*
X109647326Y-94864465D01*
X109692661Y-94860000D01*
X110779339Y-94860000D01*
X110824674Y-94864465D01*
G37*
G36*
X145495674Y-93993465D02*
G01*
X145533367Y-94004899D01*
X145568103Y-94023466D01*
X145598548Y-94048452D01*
X145623534Y-94078897D01*
X145642101Y-94113633D01*
X145653535Y-94151326D01*
X145658000Y-94196661D01*
X145658000Y-95033339D01*
X145653535Y-95078674D01*
X145642101Y-95116367D01*
X145623534Y-95151103D01*
X145598548Y-95181548D01*
X145568103Y-95206534D01*
X145533367Y-95225101D01*
X145495674Y-95236535D01*
X145450339Y-95241000D01*
X144363661Y-95241000D01*
X144318326Y-95236535D01*
X144280633Y-95225101D01*
X144245897Y-95206534D01*
X144215452Y-95181548D01*
X144190466Y-95151103D01*
X144171899Y-95116367D01*
X144160465Y-95078674D01*
X144156000Y-95033339D01*
X144156000Y-94196661D01*
X144160465Y-94151326D01*
X144171899Y-94113633D01*
X144190466Y-94078897D01*
X144215452Y-94048452D01*
X144245897Y-94023466D01*
X144280633Y-94004899D01*
X144318326Y-93993465D01*
X144363661Y-93989000D01*
X145450339Y-93989000D01*
X145495674Y-93993465D01*
G37*
G36*
X143510000Y-95207000D02*
G01*
X140208000Y-95207000D01*
X140208000Y-94105000D01*
X143510000Y-94105000D01*
X143510000Y-95207000D01*
G37*
G36*
X145495674Y-91943465D02*
G01*
X145533367Y-91954899D01*
X145568103Y-91973466D01*
X145598548Y-91998452D01*
X145623534Y-92028897D01*
X145642101Y-92063633D01*
X145653535Y-92101326D01*
X145658000Y-92146661D01*
X145658000Y-92983339D01*
X145653535Y-93028674D01*
X145642101Y-93066367D01*
X145623534Y-93101103D01*
X145598548Y-93131548D01*
X145568103Y-93156534D01*
X145533367Y-93175101D01*
X145495674Y-93186535D01*
X145450339Y-93191000D01*
X144363661Y-93191000D01*
X144318326Y-93186535D01*
X144280633Y-93175101D01*
X144245897Y-93156534D01*
X144215452Y-93131548D01*
X144190466Y-93101103D01*
X144171899Y-93066367D01*
X144160465Y-93028674D01*
X144156000Y-92983339D01*
X144156000Y-92146661D01*
X144160465Y-92101326D01*
X144171899Y-92063633D01*
X144190466Y-92028897D01*
X144215452Y-91998452D01*
X144245897Y-91973466D01*
X144280633Y-91954899D01*
X144318326Y-91943465D01*
X144363661Y-91939000D01*
X145450339Y-91939000D01*
X145495674Y-91943465D01*
G37*
G36*
X109937674Y-91582465D02*
G01*
X109975367Y-91593899D01*
X110010103Y-91612466D01*
X110040548Y-91637452D01*
X110065534Y-91667897D01*
X110084101Y-91702633D01*
X110095535Y-91740326D01*
X110100000Y-91785661D01*
X110100000Y-92872339D01*
X110095535Y-92917674D01*
X110084101Y-92955367D01*
X110065534Y-92990103D01*
X110040548Y-93020548D01*
X110010103Y-93045534D01*
X109975367Y-93064101D01*
X109937674Y-93075535D01*
X109892339Y-93080000D01*
X109055661Y-93080000D01*
X109010326Y-93075535D01*
X108972633Y-93064101D01*
X108937897Y-93045534D01*
X108907452Y-93020548D01*
X108882466Y-92990103D01*
X108863899Y-92955367D01*
X108852465Y-92917674D01*
X108848000Y-92872339D01*
X108848000Y-91785661D01*
X108852465Y-91740326D01*
X108863899Y-91702633D01*
X108882466Y-91667897D01*
X108907452Y-91637452D01*
X108937897Y-91612466D01*
X108972633Y-91593899D01*
X109010326Y-91582465D01*
X109055661Y-91578000D01*
X109892339Y-91578000D01*
X109937674Y-91582465D01*
G37*
G36*
X107887674Y-91582465D02*
G01*
X107925367Y-91593899D01*
X107960103Y-91612466D01*
X107990548Y-91637452D01*
X108015534Y-91667897D01*
X108034101Y-91702633D01*
X108045535Y-91740326D01*
X108050000Y-91785661D01*
X108050000Y-92872339D01*
X108045535Y-92917674D01*
X108034101Y-92955367D01*
X108015534Y-92990103D01*
X107990548Y-93020548D01*
X107960103Y-93045534D01*
X107925367Y-93064101D01*
X107887674Y-93075535D01*
X107842339Y-93080000D01*
X107005661Y-93080000D01*
X106960326Y-93075535D01*
X106922633Y-93064101D01*
X106887897Y-93045534D01*
X106857452Y-93020548D01*
X106832466Y-92990103D01*
X106813899Y-92955367D01*
X106802465Y-92917674D01*
X106798000Y-92872339D01*
X106798000Y-91785661D01*
X106802465Y-91740326D01*
X106813899Y-91702633D01*
X106832466Y-91667897D01*
X106857452Y-91637452D01*
X106887897Y-91612466D01*
X106922633Y-91593899D01*
X106960326Y-91582465D01*
X107005661Y-91578000D01*
X107842339Y-91578000D01*
X107887674Y-91582465D01*
G37*
G36*
X143510000Y-93007000D02*
G01*
X140208000Y-93007000D01*
X140208000Y-91905000D01*
X143510000Y-91905000D01*
X143510000Y-93007000D01*
G37*
G36*
X133187674Y-91201465D02*
G01*
X133225367Y-91212899D01*
X133260103Y-91231466D01*
X133290548Y-91256452D01*
X133315534Y-91286897D01*
X133334101Y-91321633D01*
X133345535Y-91359326D01*
X133350000Y-91404661D01*
X133350000Y-92491339D01*
X133345535Y-92536674D01*
X133334101Y-92574367D01*
X133315534Y-92609103D01*
X133290548Y-92639548D01*
X133260103Y-92664534D01*
X133225367Y-92683101D01*
X133187674Y-92694535D01*
X133142339Y-92699000D01*
X132305661Y-92699000D01*
X132260326Y-92694535D01*
X132222633Y-92683101D01*
X132187897Y-92664534D01*
X132157452Y-92639548D01*
X132132466Y-92609103D01*
X132113899Y-92574367D01*
X132102465Y-92536674D01*
X132098000Y-92491339D01*
X132098000Y-91404661D01*
X132102465Y-91359326D01*
X132113899Y-91321633D01*
X132132466Y-91286897D01*
X132157452Y-91256452D01*
X132187897Y-91231466D01*
X132222633Y-91212899D01*
X132260326Y-91201465D01*
X132305661Y-91197000D01*
X133142339Y-91197000D01*
X133187674Y-91201465D01*
G37*
G36*
X131137674Y-91201465D02*
G01*
X131175367Y-91212899D01*
X131210103Y-91231466D01*
X131240548Y-91256452D01*
X131265534Y-91286897D01*
X131284101Y-91321633D01*
X131295535Y-91359326D01*
X131300000Y-91404661D01*
X131300000Y-92491339D01*
X131295535Y-92536674D01*
X131284101Y-92574367D01*
X131265534Y-92609103D01*
X131240548Y-92639548D01*
X131210103Y-92664534D01*
X131175367Y-92683101D01*
X131137674Y-92694535D01*
X131092339Y-92699000D01*
X130255661Y-92699000D01*
X130210326Y-92694535D01*
X130172633Y-92683101D01*
X130137897Y-92664534D01*
X130107452Y-92639548D01*
X130082466Y-92609103D01*
X130063899Y-92574367D01*
X130052465Y-92536674D01*
X130048000Y-92491339D01*
X130048000Y-91404661D01*
X130052465Y-91359326D01*
X130063899Y-91321633D01*
X130082466Y-91286897D01*
X130107452Y-91256452D01*
X130137897Y-91231466D01*
X130172633Y-91212899D01*
X130210326Y-91201465D01*
X130255661Y-91197000D01*
X131092339Y-91197000D01*
X131137674Y-91201465D01*
G37*
G36*
X124034674Y-89550465D02*
G01*
X124072367Y-89561899D01*
X124107103Y-89580466D01*
X124137548Y-89605452D01*
X124162534Y-89635897D01*
X124181101Y-89670633D01*
X124192535Y-89708326D01*
X124197000Y-89753661D01*
X124197000Y-90840339D01*
X124192535Y-90885674D01*
X124181101Y-90923367D01*
X124162534Y-90958103D01*
X124137548Y-90988548D01*
X124107103Y-91013534D01*
X124072367Y-91032101D01*
X124034674Y-91043535D01*
X123989339Y-91048000D01*
X123152661Y-91048000D01*
X123107326Y-91043535D01*
X123069633Y-91032101D01*
X123034897Y-91013534D01*
X123004452Y-90988548D01*
X122979466Y-90958103D01*
X122960899Y-90923367D01*
X122949465Y-90885674D01*
X122945000Y-90840339D01*
X122945000Y-89753661D01*
X122949465Y-89708326D01*
X122960899Y-89670633D01*
X122979466Y-89635897D01*
X123004452Y-89605452D01*
X123034897Y-89580466D01*
X123069633Y-89561899D01*
X123107326Y-89550465D01*
X123152661Y-89546000D01*
X123989339Y-89546000D01*
X124034674Y-89550465D01*
G37*
G36*
X121984674Y-89550465D02*
G01*
X122022367Y-89561899D01*
X122057103Y-89580466D01*
X122087548Y-89605452D01*
X122112534Y-89635897D01*
X122131101Y-89670633D01*
X122142535Y-89708326D01*
X122147000Y-89753661D01*
X122147000Y-90840339D01*
X122142535Y-90885674D01*
X122131101Y-90923367D01*
X122112534Y-90958103D01*
X122087548Y-90988548D01*
X122057103Y-91013534D01*
X122022367Y-91032101D01*
X121984674Y-91043535D01*
X121939339Y-91048000D01*
X121102661Y-91048000D01*
X121057326Y-91043535D01*
X121019633Y-91032101D01*
X120984897Y-91013534D01*
X120954452Y-90988548D01*
X120929466Y-90958103D01*
X120910899Y-90923367D01*
X120899465Y-90885674D01*
X120895000Y-90840339D01*
X120895000Y-89753661D01*
X120899465Y-89708326D01*
X120910899Y-89670633D01*
X120929466Y-89635897D01*
X120954452Y-89605452D01*
X120984897Y-89580466D01*
X121019633Y-89561899D01*
X121057326Y-89550465D01*
X121102661Y-89546000D01*
X121939339Y-89546000D01*
X121984674Y-89550465D01*
G37*
G36*
X110639000Y-90734000D02*
G01*
X108977000Y-90734000D01*
X108977000Y-89982000D01*
X110639000Y-89982000D01*
X110639000Y-90734000D01*
G37*
G36*
X107939000Y-90734000D02*
G01*
X106277000Y-90734000D01*
X106277000Y-88082000D01*
X107939000Y-88082000D01*
X107939000Y-90734000D01*
G37*
G36*
X112530199Y-88222954D02*
G01*
X112542450Y-88223556D01*
X112560869Y-88223556D01*
X112583149Y-88225750D01*
X112667233Y-88242476D01*
X112688660Y-88248976D01*
X112767858Y-88281780D01*
X112773303Y-88284691D01*
X112773309Y-88284693D01*
X112782169Y-88289429D01*
X112782173Y-88289432D01*
X112787614Y-88292340D01*
X112858899Y-88339971D01*
X112876204Y-88354172D01*
X112936828Y-88414796D01*
X112951029Y-88432101D01*
X112998660Y-88503386D01*
X113001568Y-88508827D01*
X113001571Y-88508831D01*
X113006307Y-88517691D01*
X113006309Y-88517697D01*
X113009220Y-88523142D01*
X113042024Y-88602340D01*
X113048524Y-88623767D01*
X113065250Y-88707851D01*
X113067444Y-88730131D01*
X113067444Y-88748550D01*
X113068046Y-88760801D01*
X113069852Y-88779139D01*
X113069852Y-89266860D01*
X113068263Y-89282999D01*
X113065348Y-89292608D01*
X113060610Y-89301472D01*
X113054237Y-89309237D01*
X113041794Y-89319448D01*
X113031425Y-89326378D01*
X113014098Y-89343705D01*
X113000485Y-89364080D01*
X112991109Y-89386720D01*
X112986329Y-89410753D01*
X112986330Y-89435257D01*
X112991112Y-89459290D01*
X113000490Y-89481929D01*
X113014105Y-89502302D01*
X113031432Y-89519629D01*
X113041802Y-89526558D01*
X113054237Y-89536763D01*
X113060610Y-89544528D01*
X113065348Y-89553392D01*
X113068263Y-89563001D01*
X113069852Y-89579140D01*
X113069852Y-90066862D01*
X113068046Y-90085199D01*
X113067444Y-90097450D01*
X113067444Y-90115869D01*
X113065250Y-90138149D01*
X113048524Y-90222233D01*
X113042024Y-90243660D01*
X113009220Y-90322858D01*
X113006309Y-90328303D01*
X113006307Y-90328309D01*
X113001571Y-90337169D01*
X113001568Y-90337173D01*
X112998660Y-90342614D01*
X112951029Y-90413899D01*
X112936828Y-90431204D01*
X112876204Y-90491828D01*
X112858899Y-90506029D01*
X112787614Y-90553660D01*
X112782173Y-90556568D01*
X112782169Y-90556571D01*
X112773309Y-90561307D01*
X112773303Y-90561309D01*
X112767858Y-90564220D01*
X112688660Y-90597024D01*
X112667233Y-90603524D01*
X112583149Y-90620250D01*
X112560869Y-90622444D01*
X112542450Y-90622444D01*
X112530199Y-90623046D01*
X112511862Y-90624852D01*
X112024138Y-90624852D01*
X112005801Y-90623046D01*
X111993550Y-90622444D01*
X111975131Y-90622444D01*
X111952851Y-90620250D01*
X111868767Y-90603524D01*
X111847340Y-90597024D01*
X111768142Y-90564220D01*
X111762697Y-90561309D01*
X111762691Y-90561307D01*
X111753831Y-90556571D01*
X111753827Y-90556568D01*
X111748386Y-90553660D01*
X111677101Y-90506029D01*
X111659796Y-90491828D01*
X111599172Y-90431204D01*
X111584971Y-90413899D01*
X111537340Y-90342614D01*
X111534432Y-90337173D01*
X111534429Y-90337169D01*
X111529693Y-90328309D01*
X111529691Y-90328303D01*
X111526780Y-90322858D01*
X111493976Y-90243660D01*
X111487476Y-90222233D01*
X111470750Y-90138149D01*
X111468556Y-90115869D01*
X111468556Y-90097450D01*
X111467954Y-90085199D01*
X111466148Y-90066862D01*
X111466148Y-89579140D01*
X111467737Y-89563001D01*
X111470652Y-89553392D01*
X111475390Y-89544528D01*
X111481763Y-89536763D01*
X111494206Y-89526552D01*
X111504575Y-89519622D01*
X111521902Y-89502295D01*
X111535515Y-89481920D01*
X111544891Y-89459280D01*
X111549671Y-89435247D01*
X111549670Y-89410743D01*
X111544888Y-89386710D01*
X111535510Y-89364071D01*
X111521895Y-89343698D01*
X111504568Y-89326371D01*
X111494198Y-89319442D01*
X111481763Y-89309237D01*
X111475390Y-89301472D01*
X111470652Y-89292608D01*
X111467737Y-89282999D01*
X111466148Y-89266860D01*
X111466148Y-88779139D01*
X111467954Y-88760801D01*
X111468556Y-88748550D01*
X111468556Y-88730131D01*
X111470750Y-88707851D01*
X111487476Y-88623767D01*
X111493976Y-88602340D01*
X111526780Y-88523142D01*
X111529691Y-88517697D01*
X111529693Y-88517691D01*
X111534429Y-88508831D01*
X111534432Y-88508827D01*
X111537340Y-88503386D01*
X111584971Y-88432101D01*
X111599172Y-88414796D01*
X111659796Y-88354172D01*
X111677101Y-88339971D01*
X111748386Y-88292340D01*
X111753827Y-88289432D01*
X111753831Y-88289429D01*
X111762691Y-88284693D01*
X111762697Y-88284691D01*
X111768142Y-88281780D01*
X111847340Y-88248976D01*
X111868767Y-88242476D01*
X111952851Y-88225750D01*
X111975131Y-88223556D01*
X111993550Y-88223556D01*
X112005801Y-88222954D01*
X112024139Y-88221148D01*
X112511861Y-88221148D01*
X112530199Y-88222954D01*
G37*
G36*
X104783199Y-88192954D02*
G01*
X104795450Y-88193556D01*
X104813869Y-88193556D01*
X104836149Y-88195750D01*
X104920233Y-88212476D01*
X104941660Y-88218976D01*
X105020858Y-88251780D01*
X105026303Y-88254691D01*
X105026309Y-88254693D01*
X105035169Y-88259429D01*
X105035173Y-88259432D01*
X105040614Y-88262340D01*
X105111899Y-88309971D01*
X105129204Y-88324172D01*
X105189828Y-88384796D01*
X105204029Y-88402101D01*
X105251660Y-88473386D01*
X105254568Y-88478827D01*
X105254571Y-88478831D01*
X105259307Y-88487691D01*
X105259309Y-88487697D01*
X105262220Y-88493142D01*
X105295024Y-88572340D01*
X105301524Y-88593767D01*
X105318250Y-88677851D01*
X105320444Y-88700131D01*
X105320444Y-88718550D01*
X105321046Y-88730801D01*
X105322852Y-88749139D01*
X105322852Y-89236860D01*
X105321263Y-89252999D01*
X105318348Y-89262608D01*
X105313610Y-89271472D01*
X105307237Y-89279237D01*
X105294794Y-89289448D01*
X105284425Y-89296378D01*
X105267098Y-89313705D01*
X105253485Y-89334080D01*
X105244109Y-89356720D01*
X105239329Y-89380753D01*
X105239330Y-89405257D01*
X105244112Y-89429290D01*
X105253490Y-89451929D01*
X105267105Y-89472302D01*
X105284432Y-89489629D01*
X105294802Y-89496558D01*
X105307237Y-89506763D01*
X105313610Y-89514528D01*
X105318348Y-89523392D01*
X105321263Y-89533001D01*
X105322852Y-89549140D01*
X105322852Y-90036862D01*
X105321046Y-90055199D01*
X105320444Y-90067450D01*
X105320444Y-90085869D01*
X105318250Y-90108149D01*
X105301524Y-90192233D01*
X105295024Y-90213660D01*
X105262220Y-90292858D01*
X105259309Y-90298303D01*
X105259307Y-90298309D01*
X105254571Y-90307169D01*
X105254568Y-90307173D01*
X105251660Y-90312614D01*
X105204029Y-90383899D01*
X105189828Y-90401204D01*
X105129204Y-90461828D01*
X105111899Y-90476029D01*
X105040614Y-90523660D01*
X105035173Y-90526568D01*
X105035169Y-90526571D01*
X105026309Y-90531307D01*
X105026303Y-90531309D01*
X105020858Y-90534220D01*
X104941660Y-90567024D01*
X104920233Y-90573524D01*
X104836149Y-90590250D01*
X104813869Y-90592444D01*
X104795450Y-90592444D01*
X104783199Y-90593046D01*
X104764862Y-90594852D01*
X104277138Y-90594852D01*
X104258801Y-90593046D01*
X104246550Y-90592444D01*
X104228131Y-90592444D01*
X104205851Y-90590250D01*
X104121767Y-90573524D01*
X104100340Y-90567024D01*
X104021142Y-90534220D01*
X104015697Y-90531309D01*
X104015691Y-90531307D01*
X104006831Y-90526571D01*
X104006827Y-90526568D01*
X104001386Y-90523660D01*
X103930101Y-90476029D01*
X103912796Y-90461828D01*
X103852172Y-90401204D01*
X103837971Y-90383899D01*
X103790340Y-90312614D01*
X103787432Y-90307173D01*
X103787429Y-90307169D01*
X103782693Y-90298309D01*
X103782691Y-90298303D01*
X103779780Y-90292858D01*
X103746976Y-90213660D01*
X103740476Y-90192233D01*
X103723750Y-90108149D01*
X103721556Y-90085869D01*
X103721556Y-90067450D01*
X103720954Y-90055199D01*
X103719148Y-90036862D01*
X103719148Y-89549140D01*
X103720737Y-89533001D01*
X103723652Y-89523392D01*
X103728390Y-89514528D01*
X103734763Y-89506763D01*
X103747206Y-89496552D01*
X103757575Y-89489622D01*
X103774902Y-89472295D01*
X103788515Y-89451920D01*
X103797891Y-89429280D01*
X103802671Y-89405247D01*
X103802670Y-89380743D01*
X103797888Y-89356710D01*
X103788510Y-89334071D01*
X103774895Y-89313698D01*
X103757568Y-89296371D01*
X103747198Y-89289442D01*
X103734763Y-89279237D01*
X103728390Y-89271472D01*
X103723652Y-89262608D01*
X103720737Y-89252999D01*
X103719148Y-89236860D01*
X103719148Y-88749139D01*
X103720954Y-88730801D01*
X103721556Y-88718550D01*
X103721556Y-88700131D01*
X103723750Y-88677851D01*
X103740476Y-88593767D01*
X103746976Y-88572340D01*
X103779780Y-88493142D01*
X103782691Y-88487697D01*
X103782693Y-88487691D01*
X103787429Y-88478831D01*
X103787432Y-88478827D01*
X103790340Y-88473386D01*
X103837971Y-88402101D01*
X103852172Y-88384796D01*
X103912796Y-88324172D01*
X103930101Y-88309971D01*
X104001386Y-88262340D01*
X104006827Y-88259432D01*
X104006831Y-88259429D01*
X104015691Y-88254693D01*
X104015697Y-88254691D01*
X104021142Y-88251780D01*
X104100340Y-88218976D01*
X104121767Y-88212476D01*
X104205851Y-88195750D01*
X104228131Y-88193556D01*
X104246550Y-88193556D01*
X104258801Y-88192954D01*
X104277139Y-88191148D01*
X104764861Y-88191148D01*
X104783199Y-88192954D01*
G37*
G36*
X136315355Y-86217083D02*
G01*
X136320029Y-86218501D01*
X136324330Y-86220800D01*
X136330702Y-86226029D01*
X136351076Y-86239643D01*
X136373715Y-86249020D01*
X136397749Y-86253800D01*
X136422253Y-86253800D01*
X136446286Y-86249019D01*
X136468925Y-86239642D01*
X136489298Y-86226029D01*
X136495670Y-86220800D01*
X136499971Y-86218501D01*
X136504645Y-86217083D01*
X136515641Y-86216000D01*
X136804359Y-86216000D01*
X136815355Y-86217083D01*
X136820029Y-86218501D01*
X136824330Y-86220800D01*
X136830702Y-86226029D01*
X136851076Y-86239643D01*
X136873715Y-86249020D01*
X136897749Y-86253800D01*
X136922253Y-86253800D01*
X136946286Y-86249019D01*
X136968925Y-86239642D01*
X136989298Y-86226029D01*
X136995670Y-86220800D01*
X136999971Y-86218501D01*
X137004645Y-86217083D01*
X137015641Y-86216000D01*
X137304359Y-86216000D01*
X137315355Y-86217083D01*
X137320029Y-86218501D01*
X137324330Y-86220800D01*
X137330702Y-86226029D01*
X137351076Y-86239643D01*
X137373715Y-86249020D01*
X137397749Y-86253800D01*
X137422253Y-86253800D01*
X137446286Y-86249019D01*
X137468925Y-86239642D01*
X137489298Y-86226029D01*
X137495670Y-86220800D01*
X137499971Y-86218501D01*
X137504645Y-86217083D01*
X137515641Y-86216000D01*
X137804359Y-86216000D01*
X137815355Y-86217083D01*
X137820029Y-86218501D01*
X137824330Y-86220800D01*
X137830702Y-86226029D01*
X137851076Y-86239643D01*
X137873715Y-86249020D01*
X137897749Y-86253800D01*
X137922253Y-86253800D01*
X137946286Y-86249019D01*
X137968925Y-86239642D01*
X137989298Y-86226029D01*
X137995670Y-86220800D01*
X137999971Y-86218501D01*
X138004645Y-86217083D01*
X138015641Y-86216000D01*
X138304359Y-86216000D01*
X138315355Y-86217083D01*
X138320029Y-86218501D01*
X138324331Y-86220800D01*
X138328104Y-86223896D01*
X138331200Y-86227669D01*
X138333499Y-86231971D01*
X138334917Y-86236645D01*
X138336000Y-86247641D01*
X138336000Y-87091001D01*
X138338402Y-87115387D01*
X138345515Y-87138836D01*
X138357066Y-87160447D01*
X138372611Y-87179389D01*
X138391553Y-87194934D01*
X138413164Y-87206485D01*
X138436613Y-87213598D01*
X138460999Y-87216000D01*
X139304359Y-87216000D01*
X139315355Y-87217083D01*
X139320029Y-87218501D01*
X139324331Y-87220800D01*
X139328104Y-87223896D01*
X139331200Y-87227669D01*
X139333499Y-87231971D01*
X139334917Y-87236645D01*
X139336000Y-87247641D01*
X139336000Y-87536359D01*
X139334917Y-87547355D01*
X139333499Y-87552029D01*
X139331200Y-87556330D01*
X139325971Y-87562702D01*
X139312357Y-87583076D01*
X139302980Y-87605715D01*
X139298200Y-87629749D01*
X139298200Y-87654253D01*
X139302981Y-87678286D01*
X139312358Y-87700925D01*
X139325971Y-87721298D01*
X139331200Y-87727670D01*
X139333499Y-87731971D01*
X139334917Y-87736645D01*
X139336000Y-87747641D01*
X139336000Y-88036359D01*
X139334917Y-88047355D01*
X139333499Y-88052029D01*
X139331200Y-88056330D01*
X139325971Y-88062702D01*
X139312357Y-88083076D01*
X139302980Y-88105715D01*
X139298200Y-88129749D01*
X139298200Y-88154253D01*
X139302981Y-88178286D01*
X139312358Y-88200925D01*
X139325971Y-88221298D01*
X139331200Y-88227670D01*
X139333499Y-88231971D01*
X139334917Y-88236645D01*
X139336000Y-88247641D01*
X139336000Y-88536359D01*
X139334917Y-88547355D01*
X139333499Y-88552029D01*
X139331200Y-88556330D01*
X139325971Y-88562702D01*
X139312357Y-88583076D01*
X139302980Y-88605715D01*
X139298200Y-88629749D01*
X139298200Y-88654253D01*
X139302981Y-88678286D01*
X139312358Y-88700925D01*
X139325971Y-88721298D01*
X139331200Y-88727670D01*
X139333499Y-88731971D01*
X139334917Y-88736645D01*
X139336000Y-88747641D01*
X139336000Y-89036359D01*
X139334917Y-89047355D01*
X139333499Y-89052029D01*
X139331200Y-89056330D01*
X139325971Y-89062702D01*
X139312357Y-89083076D01*
X139302980Y-89105715D01*
X139298200Y-89129749D01*
X139298200Y-89154253D01*
X139302981Y-89178286D01*
X139312358Y-89200925D01*
X139325971Y-89221298D01*
X139331200Y-89227670D01*
X139333499Y-89231971D01*
X139334917Y-89236645D01*
X139336000Y-89247641D01*
X139336000Y-89536359D01*
X139334917Y-89547355D01*
X139333499Y-89552029D01*
X139331200Y-89556331D01*
X139328104Y-89560104D01*
X139324331Y-89563200D01*
X139320029Y-89565499D01*
X139315355Y-89566917D01*
X139304359Y-89568000D01*
X138460999Y-89568000D01*
X138436613Y-89570402D01*
X138413164Y-89577515D01*
X138391553Y-89589066D01*
X138372611Y-89604611D01*
X138357066Y-89623553D01*
X138345515Y-89645164D01*
X138338402Y-89668613D01*
X138336000Y-89692999D01*
X138336000Y-90536359D01*
X138334917Y-90547355D01*
X138333499Y-90552029D01*
X138331200Y-90556331D01*
X138328104Y-90560104D01*
X138324331Y-90563200D01*
X138320029Y-90565499D01*
X138315355Y-90566917D01*
X138304359Y-90568000D01*
X138015641Y-90568000D01*
X138004645Y-90566917D01*
X137999971Y-90565499D01*
X137995670Y-90563200D01*
X137989298Y-90557971D01*
X137968924Y-90544357D01*
X137946285Y-90534980D01*
X137922251Y-90530200D01*
X137897747Y-90530200D01*
X137873714Y-90534981D01*
X137851075Y-90544358D01*
X137830702Y-90557971D01*
X137824330Y-90563200D01*
X137820029Y-90565499D01*
X137815355Y-90566917D01*
X137804359Y-90568000D01*
X137515641Y-90568000D01*
X137504645Y-90566917D01*
X137499971Y-90565499D01*
X137495670Y-90563200D01*
X137489298Y-90557971D01*
X137468924Y-90544357D01*
X137446285Y-90534980D01*
X137422251Y-90530200D01*
X137397747Y-90530200D01*
X137373714Y-90534981D01*
X137351075Y-90544358D01*
X137330702Y-90557971D01*
X137324330Y-90563200D01*
X137320029Y-90565499D01*
X137315355Y-90566917D01*
X137304359Y-90568000D01*
X137015641Y-90568000D01*
X137004645Y-90566917D01*
X136999971Y-90565499D01*
X136995670Y-90563200D01*
X136989298Y-90557971D01*
X136968924Y-90544357D01*
X136946285Y-90534980D01*
X136922251Y-90530200D01*
X136897747Y-90530200D01*
X136873714Y-90534981D01*
X136851075Y-90544358D01*
X136830702Y-90557971D01*
X136824330Y-90563200D01*
X136820029Y-90565499D01*
X136815355Y-90566917D01*
X136804359Y-90568000D01*
X136515641Y-90568000D01*
X136504645Y-90566917D01*
X136499971Y-90565499D01*
X136495670Y-90563200D01*
X136489298Y-90557971D01*
X136468924Y-90544357D01*
X136446285Y-90534980D01*
X136422251Y-90530200D01*
X136397747Y-90530200D01*
X136373714Y-90534981D01*
X136351075Y-90544358D01*
X136330702Y-90557971D01*
X136324330Y-90563200D01*
X136320029Y-90565499D01*
X136315355Y-90566917D01*
X136304359Y-90568000D01*
X136015641Y-90568000D01*
X136004645Y-90566917D01*
X135999971Y-90565499D01*
X135995669Y-90563200D01*
X135991896Y-90560104D01*
X135988800Y-90556331D01*
X135986501Y-90552029D01*
X135985083Y-90547355D01*
X135984000Y-90536359D01*
X135984000Y-89692999D01*
X135981598Y-89668613D01*
X135974485Y-89645164D01*
X135962934Y-89623553D01*
X135947389Y-89604611D01*
X135928447Y-89589066D01*
X135906836Y-89577515D01*
X135883387Y-89570402D01*
X135859001Y-89568000D01*
X135015641Y-89568000D01*
X135004645Y-89566917D01*
X134999971Y-89565499D01*
X134995669Y-89563200D01*
X134991896Y-89560104D01*
X134988800Y-89556331D01*
X134986501Y-89552029D01*
X134985083Y-89547355D01*
X134984000Y-89536359D01*
X134984000Y-89247641D01*
X134985083Y-89236645D01*
X134986501Y-89231971D01*
X134988800Y-89227670D01*
X134994029Y-89221298D01*
X135007643Y-89200924D01*
X135017020Y-89178285D01*
X135021800Y-89154251D01*
X135021800Y-89129747D01*
X135017019Y-89105714D01*
X135007642Y-89083075D01*
X134994029Y-89062702D01*
X134988800Y-89056330D01*
X134986501Y-89052029D01*
X134985083Y-89047355D01*
X134984000Y-89036359D01*
X134984000Y-88747641D01*
X134985083Y-88736645D01*
X134986501Y-88731971D01*
X134988800Y-88727670D01*
X134994029Y-88721298D01*
X135007643Y-88700924D01*
X135017020Y-88678285D01*
X135021800Y-88654251D01*
X135021800Y-88629747D01*
X135017019Y-88605714D01*
X135007642Y-88583075D01*
X134994029Y-88562702D01*
X134988800Y-88556330D01*
X134986501Y-88552029D01*
X134985083Y-88547355D01*
X134984000Y-88536359D01*
X134984000Y-88247641D01*
X134985083Y-88236645D01*
X134986501Y-88231971D01*
X134988800Y-88227670D01*
X134994029Y-88221298D01*
X135007643Y-88200924D01*
X135017020Y-88178285D01*
X135021800Y-88154251D01*
X135021800Y-88129747D01*
X135017019Y-88105714D01*
X135007642Y-88083075D01*
X134994029Y-88062702D01*
X134988800Y-88056330D01*
X134986501Y-88052029D01*
X134985083Y-88047355D01*
X134984000Y-88036359D01*
X134984000Y-87747641D01*
X134985083Y-87736645D01*
X134986501Y-87731971D01*
X134988800Y-87727670D01*
X134994029Y-87721298D01*
X135007643Y-87700924D01*
X135017020Y-87678285D01*
X135021800Y-87654251D01*
X135021800Y-87629747D01*
X135017019Y-87605714D01*
X135007642Y-87583075D01*
X134994029Y-87562702D01*
X134988800Y-87556330D01*
X134986501Y-87552029D01*
X134985083Y-87547355D01*
X134984000Y-87536359D01*
X134984000Y-87247641D01*
X134985083Y-87236645D01*
X134986501Y-87231971D01*
X134988800Y-87227669D01*
X134991896Y-87223896D01*
X134995669Y-87220800D01*
X134999971Y-87218501D01*
X135004645Y-87217083D01*
X135015641Y-87216000D01*
X135859001Y-87216000D01*
X135883387Y-87213598D01*
X135906836Y-87206485D01*
X135928447Y-87194934D01*
X135947389Y-87179389D01*
X135962934Y-87160447D01*
X135974485Y-87138836D01*
X135981598Y-87115387D01*
X135984000Y-87091001D01*
X135984000Y-86247641D01*
X135985083Y-86236645D01*
X135986501Y-86231971D01*
X135988800Y-86227669D01*
X135991896Y-86223896D01*
X135995669Y-86220800D01*
X135999971Y-86218501D01*
X136004645Y-86217083D01*
X136015641Y-86216000D01*
X136304359Y-86216000D01*
X136315355Y-86217083D01*
G37*
G36*
X133938674Y-89312465D02*
G01*
X133976367Y-89323899D01*
X134011103Y-89342466D01*
X134041548Y-89367452D01*
X134066534Y-89397897D01*
X134085101Y-89432633D01*
X134096535Y-89470326D01*
X134101000Y-89515661D01*
X134101000Y-90352339D01*
X134096535Y-90397674D01*
X134085101Y-90435367D01*
X134066534Y-90470103D01*
X134041548Y-90500548D01*
X134011103Y-90525534D01*
X133976367Y-90544101D01*
X133938674Y-90555535D01*
X133893339Y-90560000D01*
X132806661Y-90560000D01*
X132761326Y-90555535D01*
X132723633Y-90544101D01*
X132688897Y-90525534D01*
X132658452Y-90500548D01*
X132633466Y-90470103D01*
X132614899Y-90435367D01*
X132603465Y-90397674D01*
X132599000Y-90352339D01*
X132599000Y-89515661D01*
X132603465Y-89470326D01*
X132614899Y-89432633D01*
X132633466Y-89397897D01*
X132658452Y-89367452D01*
X132688897Y-89342466D01*
X132723633Y-89323899D01*
X132761326Y-89312465D01*
X132806661Y-89308000D01*
X133893339Y-89308000D01*
X133938674Y-89312465D01*
G37*
G36*
X129874674Y-89303465D02*
G01*
X129912367Y-89314899D01*
X129947103Y-89333466D01*
X129977548Y-89358452D01*
X130002534Y-89388897D01*
X130021101Y-89423633D01*
X130032535Y-89461326D01*
X130037000Y-89506661D01*
X130037000Y-90343339D01*
X130032535Y-90388674D01*
X130021101Y-90426367D01*
X130002534Y-90461103D01*
X129977548Y-90491548D01*
X129947103Y-90516534D01*
X129912367Y-90535101D01*
X129874674Y-90546535D01*
X129829339Y-90551000D01*
X128742661Y-90551000D01*
X128697326Y-90546535D01*
X128659633Y-90535101D01*
X128624897Y-90516534D01*
X128594452Y-90491548D01*
X128569466Y-90461103D01*
X128550899Y-90426367D01*
X128539465Y-90388674D01*
X128535000Y-90343339D01*
X128535000Y-89506661D01*
X128539465Y-89461326D01*
X128550899Y-89423633D01*
X128569466Y-89388897D01*
X128594452Y-89358452D01*
X128624897Y-89333466D01*
X128659633Y-89314899D01*
X128697326Y-89303465D01*
X128742661Y-89299000D01*
X129829339Y-89299000D01*
X129874674Y-89303465D01*
G37*
G36*
X131906674Y-89294465D02*
G01*
X131944367Y-89305899D01*
X131979103Y-89324466D01*
X132009548Y-89349452D01*
X132034534Y-89379897D01*
X132053101Y-89414633D01*
X132064535Y-89452326D01*
X132069000Y-89497661D01*
X132069000Y-90334339D01*
X132064535Y-90379674D01*
X132053101Y-90417367D01*
X132034534Y-90452103D01*
X132009548Y-90482548D01*
X131979103Y-90507534D01*
X131944367Y-90526101D01*
X131906674Y-90537535D01*
X131861339Y-90542000D01*
X130774661Y-90542000D01*
X130729326Y-90537535D01*
X130691633Y-90526101D01*
X130656897Y-90507534D01*
X130626452Y-90482548D01*
X130601466Y-90452103D01*
X130582899Y-90417367D01*
X130571465Y-90379674D01*
X130567000Y-90334339D01*
X130567000Y-89497661D01*
X130571465Y-89452326D01*
X130582899Y-89414633D01*
X130601466Y-89379897D01*
X130626452Y-89349452D01*
X130656897Y-89324466D01*
X130691633Y-89305899D01*
X130729326Y-89294465D01*
X130774661Y-89290000D01*
X131861339Y-89290000D01*
X131906674Y-89294465D01*
G37*
G36*
X144860674Y-88677465D02*
G01*
X144898367Y-88688899D01*
X144933103Y-88707466D01*
X144963548Y-88732452D01*
X144988534Y-88762897D01*
X145007101Y-88797633D01*
X145018535Y-88835326D01*
X145023000Y-88880661D01*
X145023000Y-89717339D01*
X145018535Y-89762674D01*
X145007101Y-89800367D01*
X144988534Y-89835103D01*
X144963548Y-89865548D01*
X144933103Y-89890534D01*
X144898367Y-89909101D01*
X144860674Y-89920535D01*
X144815339Y-89925000D01*
X143728661Y-89925000D01*
X143683326Y-89920535D01*
X143645633Y-89909101D01*
X143610897Y-89890534D01*
X143580452Y-89865548D01*
X143555466Y-89835103D01*
X143536899Y-89800367D01*
X143525465Y-89762674D01*
X143521000Y-89717339D01*
X143521000Y-88880661D01*
X143525465Y-88835326D01*
X143536899Y-88797633D01*
X143555466Y-88762897D01*
X143580452Y-88732452D01*
X143610897Y-88707466D01*
X143645633Y-88688899D01*
X143683326Y-88677465D01*
X143728661Y-88673000D01*
X144815339Y-88673000D01*
X144860674Y-88677465D01*
G37*
G36*
X142828674Y-88659465D02*
G01*
X142866367Y-88670899D01*
X142901103Y-88689466D01*
X142931548Y-88714452D01*
X142956534Y-88744897D01*
X142975101Y-88779633D01*
X142986535Y-88817326D01*
X142991000Y-88862661D01*
X142991000Y-89699339D01*
X142986535Y-89744674D01*
X142975101Y-89782367D01*
X142956534Y-89817103D01*
X142931548Y-89847548D01*
X142901103Y-89872534D01*
X142866367Y-89891101D01*
X142828674Y-89902535D01*
X142783339Y-89907000D01*
X141696661Y-89907000D01*
X141651326Y-89902535D01*
X141613633Y-89891101D01*
X141578897Y-89872534D01*
X141548452Y-89847548D01*
X141523466Y-89817103D01*
X141504899Y-89782367D01*
X141493465Y-89744674D01*
X141489000Y-89699339D01*
X141489000Y-88862661D01*
X141493465Y-88817326D01*
X141504899Y-88779633D01*
X141523466Y-88744897D01*
X141548452Y-88714452D01*
X141578897Y-88689466D01*
X141613633Y-88670899D01*
X141651326Y-88659465D01*
X141696661Y-88655000D01*
X142783339Y-88655000D01*
X142828674Y-88659465D01*
G37*
G36*
X121993674Y-87518465D02*
G01*
X122031367Y-87529899D01*
X122066103Y-87548466D01*
X122096548Y-87573452D01*
X122121534Y-87603897D01*
X122140101Y-87638633D01*
X122151535Y-87676326D01*
X122156000Y-87721661D01*
X122156000Y-88808339D01*
X122151535Y-88853674D01*
X122140101Y-88891367D01*
X122121534Y-88926103D01*
X122096548Y-88956548D01*
X122066103Y-88981534D01*
X122031367Y-89000101D01*
X121993674Y-89011535D01*
X121948339Y-89016000D01*
X121111661Y-89016000D01*
X121066326Y-89011535D01*
X121028633Y-89000101D01*
X120993897Y-88981534D01*
X120963452Y-88956548D01*
X120938466Y-88926103D01*
X120919899Y-88891367D01*
X120908465Y-88853674D01*
X120904000Y-88808339D01*
X120904000Y-87721661D01*
X120908465Y-87676326D01*
X120919899Y-87638633D01*
X120938466Y-87603897D01*
X120963452Y-87573452D01*
X120993897Y-87548466D01*
X121028633Y-87529899D01*
X121066326Y-87518465D01*
X121111661Y-87514000D01*
X121948339Y-87514000D01*
X121993674Y-87518465D01*
G37*
G36*
X124043674Y-87518465D02*
G01*
X124081367Y-87529899D01*
X124116103Y-87548466D01*
X124146548Y-87573452D01*
X124171534Y-87603897D01*
X124190101Y-87638633D01*
X124201535Y-87676326D01*
X124206000Y-87721661D01*
X124206000Y-88808339D01*
X124201535Y-88853674D01*
X124190101Y-88891367D01*
X124171534Y-88926103D01*
X124146548Y-88956548D01*
X124116103Y-88981534D01*
X124081367Y-89000101D01*
X124043674Y-89011535D01*
X123998339Y-89016000D01*
X123161661Y-89016000D01*
X123116326Y-89011535D01*
X123078633Y-89000101D01*
X123043897Y-88981534D01*
X123013452Y-88956548D01*
X122988466Y-88926103D01*
X122969899Y-88891367D01*
X122958465Y-88853674D01*
X122954000Y-88808339D01*
X122954000Y-87721661D01*
X122958465Y-87676326D01*
X122969899Y-87638633D01*
X122988466Y-87603897D01*
X123013452Y-87573452D01*
X123043897Y-87548466D01*
X123078633Y-87529899D01*
X123116326Y-87518465D01*
X123161661Y-87514000D01*
X123998339Y-87514000D01*
X124043674Y-87518465D01*
G37*
G36*
X110639000Y-88834000D02*
G01*
X108977000Y-88834000D01*
X108977000Y-88082000D01*
X110639000Y-88082000D01*
X110639000Y-88834000D01*
G37*
G36*
X133938674Y-87262465D02*
G01*
X133976367Y-87273899D01*
X134011103Y-87292466D01*
X134041548Y-87317452D01*
X134066534Y-87347897D01*
X134085101Y-87382633D01*
X134096535Y-87420326D01*
X134101000Y-87465661D01*
X134101000Y-88302339D01*
X134096535Y-88347674D01*
X134085101Y-88385367D01*
X134066534Y-88420103D01*
X134041548Y-88450548D01*
X134011103Y-88475534D01*
X133976367Y-88494101D01*
X133938674Y-88505535D01*
X133893339Y-88510000D01*
X132806661Y-88510000D01*
X132761326Y-88505535D01*
X132723633Y-88494101D01*
X132688897Y-88475534D01*
X132658452Y-88450548D01*
X132633466Y-88420103D01*
X132614899Y-88385367D01*
X132603465Y-88347674D01*
X132599000Y-88302339D01*
X132599000Y-87465661D01*
X132603465Y-87420326D01*
X132614899Y-87382633D01*
X132633466Y-87347897D01*
X132658452Y-87317452D01*
X132688897Y-87292466D01*
X132723633Y-87273899D01*
X132761326Y-87262465D01*
X132806661Y-87258000D01*
X133893339Y-87258000D01*
X133938674Y-87262465D01*
G37*
G36*
X129874674Y-87253465D02*
G01*
X129912367Y-87264899D01*
X129947103Y-87283466D01*
X129977548Y-87308452D01*
X130002534Y-87338897D01*
X130021101Y-87373633D01*
X130032535Y-87411326D01*
X130037000Y-87456661D01*
X130037000Y-88293339D01*
X130032535Y-88338674D01*
X130021101Y-88376367D01*
X130002534Y-88411103D01*
X129977548Y-88441548D01*
X129947103Y-88466534D01*
X129912367Y-88485101D01*
X129874674Y-88496535D01*
X129829339Y-88501000D01*
X128742661Y-88501000D01*
X128697326Y-88496535D01*
X128659633Y-88485101D01*
X128624897Y-88466534D01*
X128594452Y-88441548D01*
X128569466Y-88411103D01*
X128550899Y-88376367D01*
X128539465Y-88338674D01*
X128535000Y-88293339D01*
X128535000Y-87456661D01*
X128539465Y-87411326D01*
X128550899Y-87373633D01*
X128569466Y-87338897D01*
X128594452Y-87308452D01*
X128624897Y-87283466D01*
X128659633Y-87264899D01*
X128697326Y-87253465D01*
X128742661Y-87249000D01*
X129829339Y-87249000D01*
X129874674Y-87253465D01*
G37*
G36*
X131906674Y-87244465D02*
G01*
X131944367Y-87255899D01*
X131979103Y-87274466D01*
X132009548Y-87299452D01*
X132034534Y-87329897D01*
X132053101Y-87364633D01*
X132064535Y-87402326D01*
X132069000Y-87447661D01*
X132069000Y-88284339D01*
X132064535Y-88329674D01*
X132053101Y-88367367D01*
X132034534Y-88402103D01*
X132009548Y-88432548D01*
X131979103Y-88457534D01*
X131944367Y-88476101D01*
X131906674Y-88487535D01*
X131861339Y-88492000D01*
X130774661Y-88492000D01*
X130729326Y-88487535D01*
X130691633Y-88476101D01*
X130656897Y-88457534D01*
X130626452Y-88432548D01*
X130601466Y-88402103D01*
X130582899Y-88367367D01*
X130571465Y-88329674D01*
X130567000Y-88284339D01*
X130567000Y-87447661D01*
X130571465Y-87402326D01*
X130582899Y-87364633D01*
X130601466Y-87329897D01*
X130626452Y-87299452D01*
X130656897Y-87274466D01*
X130691633Y-87255899D01*
X130729326Y-87244465D01*
X130774661Y-87240000D01*
X131861339Y-87240000D01*
X131906674Y-87244465D01*
G37*
G36*
X144860674Y-86627465D02*
G01*
X144898367Y-86638899D01*
X144933103Y-86657466D01*
X144963548Y-86682452D01*
X144988534Y-86712897D01*
X145007101Y-86747633D01*
X145018535Y-86785326D01*
X145023000Y-86830661D01*
X145023000Y-87667339D01*
X145018535Y-87712674D01*
X145007101Y-87750367D01*
X144988534Y-87785103D01*
X144963548Y-87815548D01*
X144933103Y-87840534D01*
X144898367Y-87859101D01*
X144860674Y-87870535D01*
X144815339Y-87875000D01*
X143728661Y-87875000D01*
X143683326Y-87870535D01*
X143645633Y-87859101D01*
X143610897Y-87840534D01*
X143580452Y-87815548D01*
X143555466Y-87785103D01*
X143536899Y-87750367D01*
X143525465Y-87712674D01*
X143521000Y-87667339D01*
X143521000Y-86830661D01*
X143525465Y-86785326D01*
X143536899Y-86747633D01*
X143555466Y-86712897D01*
X143580452Y-86682452D01*
X143610897Y-86657466D01*
X143645633Y-86638899D01*
X143683326Y-86627465D01*
X143728661Y-86623000D01*
X144815339Y-86623000D01*
X144860674Y-86627465D01*
G37*
G36*
X142828674Y-86609465D02*
G01*
X142866367Y-86620899D01*
X142901103Y-86639466D01*
X142931548Y-86664452D01*
X142956534Y-86694897D01*
X142975101Y-86729633D01*
X142986535Y-86767326D01*
X142991000Y-86812661D01*
X142991000Y-87649339D01*
X142986535Y-87694674D01*
X142975101Y-87732367D01*
X142956534Y-87767103D01*
X142931548Y-87797548D01*
X142901103Y-87822534D01*
X142866367Y-87841101D01*
X142828674Y-87852535D01*
X142783339Y-87857000D01*
X141696661Y-87857000D01*
X141651326Y-87852535D01*
X141613633Y-87841101D01*
X141578897Y-87822534D01*
X141548452Y-87797548D01*
X141523466Y-87767103D01*
X141504899Y-87732367D01*
X141493465Y-87694674D01*
X141489000Y-87649339D01*
X141489000Y-86812661D01*
X141493465Y-86767326D01*
X141504899Y-86729633D01*
X141523466Y-86694897D01*
X141548452Y-86664452D01*
X141578897Y-86639466D01*
X141613633Y-86620899D01*
X141651326Y-86609465D01*
X141696661Y-86605000D01*
X142783339Y-86605000D01*
X142828674Y-86609465D01*
G37*
G36*
X107905674Y-85740465D02*
G01*
X107943367Y-85751899D01*
X107978103Y-85770466D01*
X108008548Y-85795452D01*
X108033534Y-85825897D01*
X108052101Y-85860633D01*
X108063535Y-85898326D01*
X108068000Y-85943661D01*
X108068000Y-87030339D01*
X108063535Y-87075674D01*
X108052101Y-87113367D01*
X108033534Y-87148103D01*
X108008548Y-87178548D01*
X107978103Y-87203534D01*
X107943367Y-87222101D01*
X107905674Y-87233535D01*
X107860339Y-87238000D01*
X107023661Y-87238000D01*
X106978326Y-87233535D01*
X106940633Y-87222101D01*
X106905897Y-87203534D01*
X106875452Y-87178548D01*
X106850466Y-87148103D01*
X106831899Y-87113367D01*
X106820465Y-87075674D01*
X106816000Y-87030339D01*
X106816000Y-85943661D01*
X106820465Y-85898326D01*
X106831899Y-85860633D01*
X106850466Y-85825897D01*
X106875452Y-85795452D01*
X106905897Y-85770466D01*
X106940633Y-85751899D01*
X106978326Y-85740465D01*
X107023661Y-85736000D01*
X107860339Y-85736000D01*
X107905674Y-85740465D01*
G37*
G36*
X109955674Y-85740465D02*
G01*
X109993367Y-85751899D01*
X110028103Y-85770466D01*
X110058548Y-85795452D01*
X110083534Y-85825897D01*
X110102101Y-85860633D01*
X110113535Y-85898326D01*
X110118000Y-85943661D01*
X110118000Y-87030339D01*
X110113535Y-87075674D01*
X110102101Y-87113367D01*
X110083534Y-87148103D01*
X110058548Y-87178548D01*
X110028103Y-87203534D01*
X109993367Y-87222101D01*
X109955674Y-87233535D01*
X109910339Y-87238000D01*
X109073661Y-87238000D01*
X109028326Y-87233535D01*
X108990633Y-87222101D01*
X108955897Y-87203534D01*
X108925452Y-87178548D01*
X108900466Y-87148103D01*
X108881899Y-87113367D01*
X108870465Y-87075674D01*
X108866000Y-87030339D01*
X108866000Y-85943661D01*
X108870465Y-85898326D01*
X108881899Y-85860633D01*
X108900466Y-85825897D01*
X108925452Y-85795452D01*
X108955897Y-85770466D01*
X108990633Y-85751899D01*
X109028326Y-85740465D01*
X109073661Y-85736000D01*
X109910339Y-85736000D01*
X109955674Y-85740465D01*
G37*
G36*
X133051674Y-85232465D02*
G01*
X133089367Y-85243899D01*
X133124103Y-85262466D01*
X133154548Y-85287452D01*
X133179534Y-85317897D01*
X133198101Y-85352633D01*
X133209535Y-85390326D01*
X133214000Y-85435661D01*
X133214000Y-86522339D01*
X133209535Y-86567674D01*
X133198101Y-86605367D01*
X133179534Y-86640103D01*
X133154548Y-86670548D01*
X133124103Y-86695534D01*
X133089367Y-86714101D01*
X133051674Y-86725535D01*
X133006339Y-86730000D01*
X132169661Y-86730000D01*
X132124326Y-86725535D01*
X132086633Y-86714101D01*
X132051897Y-86695534D01*
X132021452Y-86670548D01*
X131996466Y-86640103D01*
X131977899Y-86605367D01*
X131966465Y-86567674D01*
X131962000Y-86522339D01*
X131962000Y-85435661D01*
X131966465Y-85390326D01*
X131977899Y-85352633D01*
X131996466Y-85317897D01*
X132021452Y-85287452D01*
X132051897Y-85262466D01*
X132086633Y-85243899D01*
X132124326Y-85232465D01*
X132169661Y-85228000D01*
X133006339Y-85228000D01*
X133051674Y-85232465D01*
G37*
G36*
X131001674Y-85232465D02*
G01*
X131039367Y-85243899D01*
X131074103Y-85262466D01*
X131104548Y-85287452D01*
X131129534Y-85317897D01*
X131148101Y-85352633D01*
X131159535Y-85390326D01*
X131164000Y-85435661D01*
X131164000Y-86522339D01*
X131159535Y-86567674D01*
X131148101Y-86605367D01*
X131129534Y-86640103D01*
X131104548Y-86670548D01*
X131074103Y-86695534D01*
X131039367Y-86714101D01*
X131001674Y-86725535D01*
X130956339Y-86730000D01*
X130119661Y-86730000D01*
X130074326Y-86725535D01*
X130036633Y-86714101D01*
X130001897Y-86695534D01*
X129971452Y-86670548D01*
X129946466Y-86640103D01*
X129927899Y-86605367D01*
X129916465Y-86567674D01*
X129912000Y-86522339D01*
X129912000Y-85435661D01*
X129916465Y-85390326D01*
X129927899Y-85352633D01*
X129946466Y-85317897D01*
X129971452Y-85287452D01*
X130001897Y-85262466D01*
X130036633Y-85243899D01*
X130074326Y-85232465D01*
X130119661Y-85228000D01*
X130956339Y-85228000D01*
X131001674Y-85232465D01*
G37*
G36*
X121932000Y-85864000D02*
G01*
X120130000Y-85864000D01*
X120130000Y-84062000D01*
X121932000Y-84062000D01*
X121932000Y-85864000D01*
G37*
G36*
X123673954Y-84064827D02*
G01*
X123833812Y-84096624D01*
X123997784Y-84164544D01*
X124145354Y-84263147D01*
X124270853Y-84388646D01*
X124369456Y-84536216D01*
X124437376Y-84700188D01*
X124472000Y-84874259D01*
X124472000Y-85051741D01*
X124437376Y-85225812D01*
X124369456Y-85389784D01*
X124270853Y-85537354D01*
X124145354Y-85662853D01*
X123997784Y-85761456D01*
X123833812Y-85829376D01*
X123695124Y-85856962D01*
X123659742Y-85864000D01*
X123482258Y-85864000D01*
X123446876Y-85856962D01*
X123308188Y-85829376D01*
X123144216Y-85761456D01*
X122996646Y-85662853D01*
X122871147Y-85537354D01*
X122772544Y-85389784D01*
X122704624Y-85225812D01*
X122670000Y-85051741D01*
X122670000Y-84874259D01*
X122704624Y-84700188D01*
X122772544Y-84536216D01*
X122871147Y-84388646D01*
X122996646Y-84263147D01*
X123144216Y-84164544D01*
X123308188Y-84096624D01*
X123468046Y-84064827D01*
X123482258Y-84062000D01*
X123659742Y-84062000D01*
X123673954Y-84064827D01*
G37*
G36*
X101104000Y-85229000D02*
G01*
X99302000Y-85229000D01*
X99302000Y-83427000D01*
X101104000Y-83427000D01*
X101104000Y-85229000D01*
G37*
G36*
X104220674Y-83842465D02*
G01*
X104258367Y-83853899D01*
X104293103Y-83872466D01*
X104323548Y-83897452D01*
X104348534Y-83927897D01*
X104367101Y-83962633D01*
X104378535Y-84000326D01*
X104383000Y-84045661D01*
X104383000Y-84882339D01*
X104378535Y-84927674D01*
X104367101Y-84965367D01*
X104348534Y-85000103D01*
X104323548Y-85030548D01*
X104293103Y-85055534D01*
X104258367Y-85074101D01*
X104220674Y-85085535D01*
X104175339Y-85090000D01*
X103088661Y-85090000D01*
X103043326Y-85085535D01*
X103005633Y-85074101D01*
X102970897Y-85055534D01*
X102940452Y-85030548D01*
X102915466Y-85000103D01*
X102896899Y-84965367D01*
X102885465Y-84927674D01*
X102881000Y-84882339D01*
X102881000Y-84045661D01*
X102885465Y-84000326D01*
X102896899Y-83962633D01*
X102915466Y-83927897D01*
X102940452Y-83897452D01*
X102970897Y-83872466D01*
X103005633Y-83853899D01*
X103043326Y-83842465D01*
X103088661Y-83838000D01*
X104175339Y-83838000D01*
X104220674Y-83842465D01*
G37*
G36*
X150227512Y-83050927D02*
G01*
X150376812Y-83080624D01*
X150540784Y-83148544D01*
X150688354Y-83247147D01*
X150813853Y-83372646D01*
X150912456Y-83520216D01*
X150980376Y-83684188D01*
X151010073Y-83833488D01*
X151011859Y-83842465D01*
X151015000Y-83858259D01*
X151015000Y-84035741D01*
X150980376Y-84209812D01*
X150912456Y-84373784D01*
X150813853Y-84521354D01*
X150688354Y-84646853D01*
X150540784Y-84745456D01*
X150376812Y-84813376D01*
X150227512Y-84843073D01*
X150202742Y-84848000D01*
X150025258Y-84848000D01*
X150000488Y-84843073D01*
X149851188Y-84813376D01*
X149687216Y-84745456D01*
X149539646Y-84646853D01*
X149414147Y-84521354D01*
X149315544Y-84373784D01*
X149247624Y-84209812D01*
X149213000Y-84035741D01*
X149213000Y-83858259D01*
X149216142Y-83842465D01*
X149217927Y-83833488D01*
X149247624Y-83684188D01*
X149315544Y-83520216D01*
X149414147Y-83372646D01*
X149539646Y-83247147D01*
X149687216Y-83148544D01*
X149851188Y-83080624D01*
X150000488Y-83050927D01*
X150025258Y-83046000D01*
X150202742Y-83046000D01*
X150227512Y-83050927D01*
G37*
G36*
X133303674Y-83089465D02*
G01*
X133341367Y-83100899D01*
X133376103Y-83119466D01*
X133406548Y-83144452D01*
X133431534Y-83174897D01*
X133450101Y-83209633D01*
X133461535Y-83247326D01*
X133466000Y-83292661D01*
X133466000Y-84129339D01*
X133461535Y-84174674D01*
X133450101Y-84212367D01*
X133431534Y-84247103D01*
X133406548Y-84277548D01*
X133376103Y-84302534D01*
X133341367Y-84321101D01*
X133303674Y-84332535D01*
X133258339Y-84337000D01*
X132171661Y-84337000D01*
X132126326Y-84332535D01*
X132088633Y-84321101D01*
X132053897Y-84302534D01*
X132023452Y-84277548D01*
X131998466Y-84247103D01*
X131979899Y-84212367D01*
X131968465Y-84174674D01*
X131964000Y-84129339D01*
X131964000Y-83292661D01*
X131968465Y-83247326D01*
X131979899Y-83209633D01*
X131998466Y-83174897D01*
X132023452Y-83144452D01*
X132053897Y-83119466D01*
X132088633Y-83100899D01*
X132126326Y-83089465D01*
X132171661Y-83085000D01*
X133258339Y-83085000D01*
X133303674Y-83089465D01*
G37*
G36*
X131271674Y-83089465D02*
G01*
X131309367Y-83100899D01*
X131344103Y-83119466D01*
X131374548Y-83144452D01*
X131399534Y-83174897D01*
X131418101Y-83209633D01*
X131429535Y-83247326D01*
X131434000Y-83292661D01*
X131434000Y-84129339D01*
X131429535Y-84174674D01*
X131418101Y-84212367D01*
X131399534Y-84247103D01*
X131374548Y-84277548D01*
X131344103Y-84302534D01*
X131309367Y-84321101D01*
X131271674Y-84332535D01*
X131226339Y-84337000D01*
X130139661Y-84337000D01*
X130094326Y-84332535D01*
X130056633Y-84321101D01*
X130021897Y-84302534D01*
X129991452Y-84277548D01*
X129966466Y-84247103D01*
X129947899Y-84212367D01*
X129936465Y-84174674D01*
X129932000Y-84129339D01*
X129932000Y-83292661D01*
X129936465Y-83247326D01*
X129947899Y-83209633D01*
X129966466Y-83174897D01*
X129991452Y-83144452D01*
X130021897Y-83119466D01*
X130056633Y-83100899D01*
X130094326Y-83089465D01*
X130139661Y-83085000D01*
X131226339Y-83085000D01*
X131271674Y-83089465D01*
G37*
G36*
X137875674Y-83080465D02*
G01*
X137913367Y-83091899D01*
X137948103Y-83110466D01*
X137978548Y-83135452D01*
X138003534Y-83165897D01*
X138022101Y-83200633D01*
X138033535Y-83238326D01*
X138038000Y-83283661D01*
X138038000Y-84120339D01*
X138033535Y-84165674D01*
X138022101Y-84203367D01*
X138003534Y-84238103D01*
X137978548Y-84268548D01*
X137948103Y-84293534D01*
X137913367Y-84312101D01*
X137875674Y-84323535D01*
X137830339Y-84328000D01*
X136743661Y-84328000D01*
X136698326Y-84323535D01*
X136660633Y-84312101D01*
X136625897Y-84293534D01*
X136595452Y-84268548D01*
X136570466Y-84238103D01*
X136551899Y-84203367D01*
X136540465Y-84165674D01*
X136536000Y-84120339D01*
X136536000Y-83283661D01*
X136540465Y-83238326D01*
X136551899Y-83200633D01*
X136570466Y-83165897D01*
X136595452Y-83135452D01*
X136625897Y-83110466D01*
X136660633Y-83091899D01*
X136698326Y-83080465D01*
X136743661Y-83076000D01*
X137830339Y-83076000D01*
X137875674Y-83080465D01*
G37*
G36*
X139907674Y-83071465D02*
G01*
X139945367Y-83082899D01*
X139980103Y-83101466D01*
X140010548Y-83126452D01*
X140035534Y-83156897D01*
X140054101Y-83191633D01*
X140065535Y-83229326D01*
X140070000Y-83274661D01*
X140070000Y-84111339D01*
X140065535Y-84156674D01*
X140054101Y-84194367D01*
X140035534Y-84229103D01*
X140010548Y-84259548D01*
X139980103Y-84284534D01*
X139945367Y-84303101D01*
X139907674Y-84314535D01*
X139862339Y-84319000D01*
X138775661Y-84319000D01*
X138730326Y-84314535D01*
X138692633Y-84303101D01*
X138657897Y-84284534D01*
X138627452Y-84259548D01*
X138602466Y-84229103D01*
X138583899Y-84194367D01*
X138572465Y-84156674D01*
X138568000Y-84111339D01*
X138568000Y-83274661D01*
X138572465Y-83229326D01*
X138583899Y-83191633D01*
X138602466Y-83156897D01*
X138627452Y-83126452D01*
X138657897Y-83101466D01*
X138692633Y-83082899D01*
X138730326Y-83071465D01*
X138775661Y-83067000D01*
X139862339Y-83067000D01*
X139907674Y-83071465D01*
G37*
G36*
X135843674Y-83071465D02*
G01*
X135881367Y-83082899D01*
X135916103Y-83101466D01*
X135946548Y-83126452D01*
X135971534Y-83156897D01*
X135990101Y-83191633D01*
X136001535Y-83229326D01*
X136006000Y-83274661D01*
X136006000Y-84111339D01*
X136001535Y-84156674D01*
X135990101Y-84194367D01*
X135971534Y-84229103D01*
X135946548Y-84259548D01*
X135916103Y-84284534D01*
X135881367Y-84303101D01*
X135843674Y-84314535D01*
X135798339Y-84319000D01*
X134711661Y-84319000D01*
X134666326Y-84314535D01*
X134628633Y-84303101D01*
X134593897Y-84284534D01*
X134563452Y-84259548D01*
X134538466Y-84229103D01*
X134519899Y-84194367D01*
X134508465Y-84156674D01*
X134504000Y-84111339D01*
X134504000Y-83274661D01*
X134508465Y-83229326D01*
X134519899Y-83191633D01*
X134538466Y-83156897D01*
X134563452Y-83126452D01*
X134593897Y-83101466D01*
X134628633Y-83082899D01*
X134666326Y-83071465D01*
X134711661Y-83067000D01*
X135798339Y-83067000D01*
X135843674Y-83071465D01*
G37*
G36*
X104220674Y-81792465D02*
G01*
X104258367Y-81803899D01*
X104293103Y-81822466D01*
X104323548Y-81847452D01*
X104348534Y-81877897D01*
X104367101Y-81912633D01*
X104378535Y-81950326D01*
X104383000Y-81995661D01*
X104383000Y-82832339D01*
X104378535Y-82877674D01*
X104367101Y-82915367D01*
X104348534Y-82950103D01*
X104323548Y-82980548D01*
X104293103Y-83005534D01*
X104258367Y-83024101D01*
X104220674Y-83035535D01*
X104175339Y-83040000D01*
X103088661Y-83040000D01*
X103043326Y-83035535D01*
X103005633Y-83024101D01*
X102970897Y-83005534D01*
X102940452Y-82980548D01*
X102915466Y-82950103D01*
X102896899Y-82915367D01*
X102885465Y-82877674D01*
X102881000Y-82832339D01*
X102881000Y-81995661D01*
X102885465Y-81950326D01*
X102896899Y-81912633D01*
X102915466Y-81877897D01*
X102940452Y-81847452D01*
X102970897Y-81822466D01*
X103005633Y-81803899D01*
X103043326Y-81792465D01*
X103088661Y-81788000D01*
X104175339Y-81788000D01*
X104220674Y-81792465D01*
G37*
G36*
X100316512Y-80891927D02*
G01*
X100465812Y-80921624D01*
X100629784Y-80989544D01*
X100777354Y-81088147D01*
X100902853Y-81213646D01*
X101001456Y-81361216D01*
X101069376Y-81525188D01*
X101104000Y-81699259D01*
X101104000Y-81876741D01*
X101069376Y-82050812D01*
X101001456Y-82214784D01*
X100902853Y-82362354D01*
X100777354Y-82487853D01*
X100629784Y-82586456D01*
X100465812Y-82654376D01*
X100316512Y-82684073D01*
X100291742Y-82689000D01*
X100114258Y-82689000D01*
X100089488Y-82684073D01*
X99940188Y-82654376D01*
X99776216Y-82586456D01*
X99628646Y-82487853D01*
X99503147Y-82362354D01*
X99404544Y-82214784D01*
X99336624Y-82050812D01*
X99302000Y-81876741D01*
X99302000Y-81699259D01*
X99336624Y-81525188D01*
X99404544Y-81361216D01*
X99503147Y-81213646D01*
X99628646Y-81088147D01*
X99776216Y-80989544D01*
X99940188Y-80921624D01*
X100089488Y-80891927D01*
X100114258Y-80887000D01*
X100291742Y-80887000D01*
X100316512Y-80891927D01*
G37*
G36*
X151015000Y-82308000D02*
G01*
X149213000Y-82308000D01*
X149213000Y-80506000D01*
X151015000Y-80506000D01*
X151015000Y-82308000D01*
G37*
G36*
X133303674Y-81039465D02*
G01*
X133341367Y-81050899D01*
X133376103Y-81069466D01*
X133406548Y-81094452D01*
X133431534Y-81124897D01*
X133450101Y-81159633D01*
X133461535Y-81197326D01*
X133466000Y-81242661D01*
X133466000Y-82079339D01*
X133461535Y-82124674D01*
X133450101Y-82162367D01*
X133431534Y-82197103D01*
X133406548Y-82227548D01*
X133376103Y-82252534D01*
X133341367Y-82271101D01*
X133303674Y-82282535D01*
X133258339Y-82287000D01*
X132171661Y-82287000D01*
X132126326Y-82282535D01*
X132088633Y-82271101D01*
X132053897Y-82252534D01*
X132023452Y-82227548D01*
X131998466Y-82197103D01*
X131979899Y-82162367D01*
X131968465Y-82124674D01*
X131964000Y-82079339D01*
X131964000Y-81242661D01*
X131968465Y-81197326D01*
X131979899Y-81159633D01*
X131998466Y-81124897D01*
X132023452Y-81094452D01*
X132053897Y-81069466D01*
X132088633Y-81050899D01*
X132126326Y-81039465D01*
X132171661Y-81035000D01*
X133258339Y-81035000D01*
X133303674Y-81039465D01*
G37*
G36*
X131271674Y-81039465D02*
G01*
X131309367Y-81050899D01*
X131344103Y-81069466D01*
X131374548Y-81094452D01*
X131399534Y-81124897D01*
X131418101Y-81159633D01*
X131429535Y-81197326D01*
X131434000Y-81242661D01*
X131434000Y-82079339D01*
X131429535Y-82124674D01*
X131418101Y-82162367D01*
X131399534Y-82197103D01*
X131374548Y-82227548D01*
X131344103Y-82252534D01*
X131309367Y-82271101D01*
X131271674Y-82282535D01*
X131226339Y-82287000D01*
X130139661Y-82287000D01*
X130094326Y-82282535D01*
X130056633Y-82271101D01*
X130021897Y-82252534D01*
X129991452Y-82227548D01*
X129966466Y-82197103D01*
X129947899Y-82162367D01*
X129936465Y-82124674D01*
X129932000Y-82079339D01*
X129932000Y-81242661D01*
X129936465Y-81197326D01*
X129947899Y-81159633D01*
X129966466Y-81124897D01*
X129991452Y-81094452D01*
X130021897Y-81069466D01*
X130056633Y-81050899D01*
X130094326Y-81039465D01*
X130139661Y-81035000D01*
X131226339Y-81035000D01*
X131271674Y-81039465D01*
G37*
G36*
X137875674Y-81030465D02*
G01*
X137913367Y-81041899D01*
X137948103Y-81060466D01*
X137978548Y-81085452D01*
X138003534Y-81115897D01*
X138022101Y-81150633D01*
X138033535Y-81188326D01*
X138038000Y-81233661D01*
X138038000Y-82070339D01*
X138033535Y-82115674D01*
X138022101Y-82153367D01*
X138003534Y-82188103D01*
X137978548Y-82218548D01*
X137948103Y-82243534D01*
X137913367Y-82262101D01*
X137875674Y-82273535D01*
X137830339Y-82278000D01*
X136743661Y-82278000D01*
X136698326Y-82273535D01*
X136660633Y-82262101D01*
X136625897Y-82243534D01*
X136595452Y-82218548D01*
X136570466Y-82188103D01*
X136551899Y-82153367D01*
X136540465Y-82115674D01*
X136536000Y-82070339D01*
X136536000Y-81233661D01*
X136540465Y-81188326D01*
X136551899Y-81150633D01*
X136570466Y-81115897D01*
X136595452Y-81085452D01*
X136625897Y-81060466D01*
X136660633Y-81041899D01*
X136698326Y-81030465D01*
X136743661Y-81026000D01*
X137830339Y-81026000D01*
X137875674Y-81030465D01*
G37*
G36*
X139907674Y-81021465D02*
G01*
X139945367Y-81032899D01*
X139980103Y-81051466D01*
X140010548Y-81076452D01*
X140035534Y-81106897D01*
X140054101Y-81141633D01*
X140065535Y-81179326D01*
X140070000Y-81224661D01*
X140070000Y-82061339D01*
X140065535Y-82106674D01*
X140054101Y-82144367D01*
X140035534Y-82179103D01*
X140010548Y-82209548D01*
X139980103Y-82234534D01*
X139945367Y-82253101D01*
X139907674Y-82264535D01*
X139862339Y-82269000D01*
X138775661Y-82269000D01*
X138730326Y-82264535D01*
X138692633Y-82253101D01*
X138657897Y-82234534D01*
X138627452Y-82209548D01*
X138602466Y-82179103D01*
X138583899Y-82144367D01*
X138572465Y-82106674D01*
X138568000Y-82061339D01*
X138568000Y-81224661D01*
X138572465Y-81179326D01*
X138583899Y-81141633D01*
X138602466Y-81106897D01*
X138627452Y-81076452D01*
X138657897Y-81051466D01*
X138692633Y-81032899D01*
X138730326Y-81021465D01*
X138775661Y-81017000D01*
X139862339Y-81017000D01*
X139907674Y-81021465D01*
G37*
G36*
X135843674Y-81021465D02*
G01*
X135881367Y-81032899D01*
X135916103Y-81051466D01*
X135946548Y-81076452D01*
X135971534Y-81106897D01*
X135990101Y-81141633D01*
X136001535Y-81179326D01*
X136006000Y-81224661D01*
X136006000Y-82061339D01*
X136001535Y-82106674D01*
X135990101Y-82144367D01*
X135971534Y-82179103D01*
X135946548Y-82209548D01*
X135916103Y-82234534D01*
X135881367Y-82253101D01*
X135843674Y-82264535D01*
X135798339Y-82269000D01*
X134711661Y-82269000D01*
X134666326Y-82264535D01*
X134628633Y-82253101D01*
X134593897Y-82234534D01*
X134563452Y-82209548D01*
X134538466Y-82179103D01*
X134519899Y-82144367D01*
X134508465Y-82106674D01*
X134504000Y-82061339D01*
X134504000Y-81224661D01*
X134508465Y-81179326D01*
X134519899Y-81141633D01*
X134538466Y-81106897D01*
X134563452Y-81076452D01*
X134593897Y-81051466D01*
X134628633Y-81032899D01*
X134666326Y-81021465D01*
X134711661Y-81017000D01*
X135798339Y-81017000D01*
X135843674Y-81021465D01*
G37*
G36*
X100316512Y-78351927D02*
G01*
X100465812Y-78381624D01*
X100629784Y-78449544D01*
X100777354Y-78548147D01*
X100902853Y-78673646D01*
X101001456Y-78821216D01*
X101069376Y-78985188D01*
X101104000Y-79159259D01*
X101104000Y-79336741D01*
X101069376Y-79510812D01*
X101001456Y-79674784D01*
X100902853Y-79822354D01*
X100777354Y-79947853D01*
X100629784Y-80046456D01*
X100465812Y-80114376D01*
X100316512Y-80144073D01*
X100291742Y-80149000D01*
X100114258Y-80149000D01*
X100089488Y-80144073D01*
X99940188Y-80114376D01*
X99776216Y-80046456D01*
X99628646Y-79947853D01*
X99503147Y-79822354D01*
X99404544Y-79674784D01*
X99336624Y-79510812D01*
X99302000Y-79336741D01*
X99302000Y-79159259D01*
X99336624Y-78985188D01*
X99404544Y-78821216D01*
X99503147Y-78673646D01*
X99628646Y-78548147D01*
X99776216Y-78449544D01*
X99940188Y-78381624D01*
X100089488Y-78351927D01*
X100114258Y-78347000D01*
X100291742Y-78347000D01*
X100316512Y-78351927D01*
G37*
G36*
X100316512Y-75811927D02*
G01*
X100465812Y-75841624D01*
X100629784Y-75909544D01*
X100777354Y-76008147D01*
X100902853Y-76133646D01*
X101001456Y-76281216D01*
X101069376Y-76445188D01*
X101104000Y-76619259D01*
X101104000Y-76796741D01*
X101069376Y-76970812D01*
X101001456Y-77134784D01*
X100902853Y-77282354D01*
X100777354Y-77407853D01*
X100629784Y-77506456D01*
X100465812Y-77574376D01*
X100316512Y-77604073D01*
X100291742Y-77609000D01*
X100114258Y-77609000D01*
X100089488Y-77604073D01*
X99940188Y-77574376D01*
X99776216Y-77506456D01*
X99628646Y-77407853D01*
X99503147Y-77282354D01*
X99404544Y-77134784D01*
X99336624Y-76970812D01*
X99302000Y-76796741D01*
X99302000Y-76619259D01*
X99336624Y-76445188D01*
X99404544Y-76281216D01*
X99503147Y-76133646D01*
X99628646Y-76008147D01*
X99776216Y-75909544D01*
X99940188Y-75841624D01*
X100089488Y-75811927D01*
X100114258Y-75807000D01*
X100291742Y-75807000D01*
X100316512Y-75811927D01*
G37*
G36*
X100316512Y-73271927D02*
G01*
X100465812Y-73301624D01*
X100629784Y-73369544D01*
X100777354Y-73468147D01*
X100902853Y-73593646D01*
X101001456Y-73741216D01*
X101069376Y-73905188D01*
X101104000Y-74079259D01*
X101104000Y-74256741D01*
X101069376Y-74430812D01*
X101001456Y-74594784D01*
X100902853Y-74742354D01*
X100777354Y-74867853D01*
X100629784Y-74966456D01*
X100465812Y-75034376D01*
X100316512Y-75064073D01*
X100291742Y-75069000D01*
X100114258Y-75069000D01*
X100089488Y-75064073D01*
X99940188Y-75034376D01*
X99776216Y-74966456D01*
X99628646Y-74867853D01*
X99503147Y-74742354D01*
X99404544Y-74594784D01*
X99336624Y-74430812D01*
X99302000Y-74256741D01*
X99302000Y-74079259D01*
X99336624Y-73905188D01*
X99404544Y-73741216D01*
X99503147Y-73593646D01*
X99628646Y-73468147D01*
X99776216Y-73369544D01*
X99940188Y-73301624D01*
X100089488Y-73271927D01*
X100114258Y-73267000D01*
X100291742Y-73267000D01*
X100316512Y-73271927D01*
G37*
G36*
X100316512Y-70731927D02*
G01*
X100465812Y-70761624D01*
X100629784Y-70829544D01*
X100777354Y-70928147D01*
X100902853Y-71053646D01*
X101001456Y-71201216D01*
X101069376Y-71365188D01*
X101104000Y-71539259D01*
X101104000Y-71716741D01*
X101069376Y-71890812D01*
X101001456Y-72054784D01*
X100902853Y-72202354D01*
X100777354Y-72327853D01*
X100629784Y-72426456D01*
X100465812Y-72494376D01*
X100316512Y-72524073D01*
X100291742Y-72529000D01*
X100114258Y-72529000D01*
X100089488Y-72524073D01*
X99940188Y-72494376D01*
X99776216Y-72426456D01*
X99628646Y-72327853D01*
X99503147Y-72202354D01*
X99404544Y-72054784D01*
X99336624Y-71890812D01*
X99302000Y-71716741D01*
X99302000Y-71539259D01*
X99336624Y-71365188D01*
X99404544Y-71201216D01*
X99503147Y-71053646D01*
X99628646Y-70928147D01*
X99776216Y-70829544D01*
X99940188Y-70761624D01*
X100089488Y-70731927D01*
X100114258Y-70727000D01*
X100291742Y-70727000D01*
X100316512Y-70731927D01*
G37*
M02*
