G04 #@! TF.GenerationSoftware,KiCad,Pcbnew,(5.1.5)-3*
G04 #@! TF.CreationDate,2020-06-11T14:27:07+02:00*
G04 #@! TF.ProjectId,Power_module_v0,506f7765-725f-46d6-9f64-756c655f7630,rev?*
G04 #@! TF.SameCoordinates,Original*
G04 #@! TF.FileFunction,Legend,Bot*
G04 #@! TF.FilePolarity,Positive*
%FSLAX46Y46*%
G04 Gerber Fmt 4.6, Leading zero omitted, Abs format (unit mm)*
G04 Created by KiCad (PCBNEW (5.1.5)-3) date 2020-06-11 14:27:07*
%MOMM*%
%LPD*%
G04 APERTURE LIST*
%ADD10C,0.125000*%
%ADD11C,0.120000*%
%ADD12C,0.150000*%
G04 APERTURE END LIST*
D10*
X147982666Y-81482380D02*
X147911238Y-81506190D01*
X147792190Y-81506190D01*
X147744571Y-81482380D01*
X147720761Y-81458571D01*
X147696952Y-81410952D01*
X147696952Y-81363333D01*
X147720761Y-81315714D01*
X147744571Y-81291904D01*
X147792190Y-81268095D01*
X147887428Y-81244285D01*
X147935047Y-81220476D01*
X147958857Y-81196666D01*
X147982666Y-81149047D01*
X147982666Y-81101428D01*
X147958857Y-81053809D01*
X147935047Y-81030000D01*
X147887428Y-81006190D01*
X147768380Y-81006190D01*
X147696952Y-81030000D01*
X147387428Y-81006190D02*
X147292190Y-81006190D01*
X147244571Y-81030000D01*
X147196952Y-81077619D01*
X147173142Y-81172857D01*
X147173142Y-81339523D01*
X147196952Y-81434761D01*
X147244571Y-81482380D01*
X147292190Y-81506190D01*
X147387428Y-81506190D01*
X147435047Y-81482380D01*
X147482666Y-81434761D01*
X147506476Y-81339523D01*
X147506476Y-81172857D01*
X147482666Y-81077619D01*
X147435047Y-81030000D01*
X147387428Y-81006190D01*
X146720761Y-81506190D02*
X146958857Y-81506190D01*
X146958857Y-81006190D01*
X146554095Y-81315714D02*
X146173142Y-81315714D01*
X146363619Y-81506190D02*
X146363619Y-81125238D01*
X147573952Y-83824000D02*
X147621571Y-83800190D01*
X147693000Y-83800190D01*
X147764428Y-83824000D01*
X147812047Y-83871619D01*
X147835857Y-83919238D01*
X147859666Y-84014476D01*
X147859666Y-84085904D01*
X147835857Y-84181142D01*
X147812047Y-84228761D01*
X147764428Y-84276380D01*
X147693000Y-84300190D01*
X147645380Y-84300190D01*
X147573952Y-84276380D01*
X147550142Y-84252571D01*
X147550142Y-84085904D01*
X147645380Y-84085904D01*
X147335857Y-84300190D02*
X147335857Y-83800190D01*
X147050142Y-84300190D01*
X147050142Y-83800190D01*
X146812047Y-84300190D02*
X146812047Y-83800190D01*
X146693000Y-83800190D01*
X146621571Y-83824000D01*
X146573952Y-83871619D01*
X146550142Y-83919238D01*
X146526333Y-84014476D01*
X146526333Y-84085904D01*
X146550142Y-84181142D01*
X146573952Y-84228761D01*
X146621571Y-84276380D01*
X146693000Y-84300190D01*
X146812047Y-84300190D01*
X123824952Y-82300000D02*
X123872571Y-82276190D01*
X123944000Y-82276190D01*
X124015428Y-82300000D01*
X124063047Y-82347619D01*
X124086857Y-82395238D01*
X124110666Y-82490476D01*
X124110666Y-82561904D01*
X124086857Y-82657142D01*
X124063047Y-82704761D01*
X124015428Y-82752380D01*
X123944000Y-82776190D01*
X123896380Y-82776190D01*
X123824952Y-82752380D01*
X123801142Y-82728571D01*
X123801142Y-82561904D01*
X123896380Y-82561904D01*
X123586857Y-82776190D02*
X123586857Y-82276190D01*
X123301142Y-82776190D01*
X123301142Y-82276190D01*
X123063047Y-82776190D02*
X123063047Y-82276190D01*
X122944000Y-82276190D01*
X122872571Y-82300000D01*
X122824952Y-82347619D01*
X122801142Y-82395238D01*
X122777333Y-82490476D01*
X122777333Y-82561904D01*
X122801142Y-82657142D01*
X122824952Y-82704761D01*
X122872571Y-82752380D01*
X122944000Y-82776190D01*
X123063047Y-82776190D01*
X121455571Y-82514285D02*
X121384142Y-82538095D01*
X121360333Y-82561904D01*
X121336523Y-82609523D01*
X121336523Y-82680952D01*
X121360333Y-82728571D01*
X121384142Y-82752380D01*
X121431761Y-82776190D01*
X121622238Y-82776190D01*
X121622238Y-82276190D01*
X121455571Y-82276190D01*
X121407952Y-82300000D01*
X121384142Y-82323809D01*
X121360333Y-82371428D01*
X121360333Y-82419047D01*
X121384142Y-82466666D01*
X121407952Y-82490476D01*
X121455571Y-82514285D01*
X121622238Y-82514285D01*
X121146047Y-82633333D02*
X120907952Y-82633333D01*
X121193666Y-82776190D02*
X121027000Y-82276190D01*
X120860333Y-82776190D01*
X120765095Y-82276190D02*
X120479380Y-82276190D01*
X120622238Y-82776190D02*
X120622238Y-82276190D01*
X120312714Y-82585714D02*
X119931761Y-82585714D01*
X120122238Y-82776190D02*
X120122238Y-82395238D01*
D11*
X93472000Y-84074000D02*
X93472000Y-83947000D01*
X93472000Y-84709000D02*
X93472000Y-84074000D01*
X94107000Y-84328000D02*
X93472000Y-84709000D01*
X93472000Y-83947000D02*
X94107000Y-84328000D01*
D10*
X125575142Y-99389380D02*
X125503714Y-99413190D01*
X125384666Y-99413190D01*
X125337047Y-99389380D01*
X125313238Y-99365571D01*
X125289428Y-99317952D01*
X125289428Y-99270333D01*
X125313238Y-99222714D01*
X125337047Y-99198904D01*
X125384666Y-99175095D01*
X125479904Y-99151285D01*
X125527523Y-99127476D01*
X125551333Y-99103666D01*
X125575142Y-99056047D01*
X125575142Y-99008428D01*
X125551333Y-98960809D01*
X125527523Y-98937000D01*
X125479904Y-98913190D01*
X125360857Y-98913190D01*
X125289428Y-98937000D01*
X125075142Y-99413190D02*
X125075142Y-98913190D01*
X124956095Y-98913190D01*
X124884666Y-98937000D01*
X124837047Y-98984619D01*
X124813238Y-99032238D01*
X124789428Y-99127476D01*
X124789428Y-99198904D01*
X124813238Y-99294142D01*
X124837047Y-99341761D01*
X124884666Y-99389380D01*
X124956095Y-99413190D01*
X125075142Y-99413190D01*
X124598952Y-99270333D02*
X124360857Y-99270333D01*
X124646571Y-99413190D02*
X124479904Y-98913190D01*
X124313238Y-99413190D01*
X123023238Y-99389380D02*
X122951809Y-99413190D01*
X122832761Y-99413190D01*
X122785142Y-99389380D01*
X122761333Y-99365571D01*
X122737523Y-99317952D01*
X122737523Y-99270333D01*
X122761333Y-99222714D01*
X122785142Y-99198904D01*
X122832761Y-99175095D01*
X122928000Y-99151285D01*
X122975619Y-99127476D01*
X122999428Y-99103666D01*
X123023238Y-99056047D01*
X123023238Y-99008428D01*
X122999428Y-98960809D01*
X122975619Y-98937000D01*
X122928000Y-98913190D01*
X122808952Y-98913190D01*
X122737523Y-98937000D01*
X122237523Y-99365571D02*
X122261333Y-99389380D01*
X122332761Y-99413190D01*
X122380380Y-99413190D01*
X122451809Y-99389380D01*
X122499428Y-99341761D01*
X122523238Y-99294142D01*
X122547047Y-99198904D01*
X122547047Y-99127476D01*
X122523238Y-99032238D01*
X122499428Y-98984619D01*
X122451809Y-98937000D01*
X122380380Y-98913190D01*
X122332761Y-98913190D01*
X122261333Y-98937000D01*
X122237523Y-98960809D01*
X121785142Y-99413190D02*
X122023238Y-99413190D01*
X122023238Y-98913190D01*
X120836428Y-98913190D02*
X120669761Y-99413190D01*
X120503095Y-98913190D01*
X120169761Y-99151285D02*
X120098333Y-99175095D01*
X120074523Y-99198904D01*
X120050714Y-99246523D01*
X120050714Y-99317952D01*
X120074523Y-99365571D01*
X120098333Y-99389380D01*
X120145952Y-99413190D01*
X120336428Y-99413190D01*
X120336428Y-98913190D01*
X120169761Y-98913190D01*
X120122142Y-98937000D01*
X120098333Y-98960809D01*
X120074523Y-99008428D01*
X120074523Y-99056047D01*
X120098333Y-99103666D01*
X120122142Y-99127476D01*
X120169761Y-99151285D01*
X120336428Y-99151285D01*
X119860238Y-99270333D02*
X119622142Y-99270333D01*
X119907857Y-99413190D02*
X119741190Y-98913190D01*
X119574523Y-99413190D01*
X119479285Y-98913190D02*
X119193571Y-98913190D01*
X119336428Y-99413190D02*
X119336428Y-98913190D01*
D12*
X127472247Y-61244219D02*
X127424628Y-61196600D01*
X127329390Y-61148980D01*
X127091295Y-61148980D01*
X126996057Y-61196600D01*
X126948438Y-61244219D01*
X126900819Y-61339457D01*
X126900819Y-61434695D01*
X126948438Y-61577552D01*
X127519866Y-62148980D01*
X126900819Y-62148980D01*
X126043676Y-61482314D02*
X126043676Y-62148980D01*
X126281771Y-61101361D02*
X126519866Y-61815647D01*
X125900819Y-61815647D01*
X125519866Y-62053742D02*
X125472247Y-62101361D01*
X125519866Y-62148980D01*
X125567485Y-62101361D01*
X125519866Y-62053742D01*
X125519866Y-62148980D01*
X124567485Y-61148980D02*
X125043676Y-61148980D01*
X125091295Y-61625171D01*
X125043676Y-61577552D01*
X124948438Y-61529933D01*
X124710342Y-61529933D01*
X124615104Y-61577552D01*
X124567485Y-61625171D01*
X124519866Y-61720409D01*
X124519866Y-61958504D01*
X124567485Y-62053742D01*
X124615104Y-62101361D01*
X124710342Y-62148980D01*
X124948438Y-62148980D01*
X125043676Y-62101361D01*
X125091295Y-62053742D01*
X124186533Y-62148980D02*
X123662723Y-61482314D01*
X124186533Y-61482314D02*
X123662723Y-62148980D01*
X123329390Y-61244219D02*
X123281771Y-61196600D01*
X123186533Y-61148980D01*
X122948438Y-61148980D01*
X122853200Y-61196600D01*
X122805580Y-61244219D01*
X122757961Y-61339457D01*
X122757961Y-61434695D01*
X122805580Y-61577552D01*
X123377009Y-62148980D01*
X122757961Y-62148980D01*
X122424628Y-61148980D02*
X121805580Y-61148980D01*
X122138914Y-61529933D01*
X121996057Y-61529933D01*
X121900819Y-61577552D01*
X121853200Y-61625171D01*
X121805580Y-61720409D01*
X121805580Y-61958504D01*
X121853200Y-62053742D01*
X121900819Y-62101361D01*
X121996057Y-62148980D01*
X122281771Y-62148980D01*
X122377009Y-62101361D01*
X122424628Y-62053742D01*
X121377009Y-62053742D02*
X121329390Y-62101361D01*
X121377009Y-62148980D01*
X121424628Y-62101361D01*
X121377009Y-62053742D01*
X121377009Y-62148980D01*
X120424628Y-61148980D02*
X120900819Y-61148980D01*
X120948438Y-61625171D01*
X120900819Y-61577552D01*
X120805580Y-61529933D01*
X120567485Y-61529933D01*
X120472247Y-61577552D01*
X120424628Y-61625171D01*
X120377009Y-61720409D01*
X120377009Y-61958504D01*
X120424628Y-62053742D01*
X120472247Y-62101361D01*
X120567485Y-62148980D01*
X120805580Y-62148980D01*
X120900819Y-62101361D01*
X120948438Y-62053742D01*
X119186533Y-62148980D02*
X119186533Y-61148980D01*
X119186533Y-61529933D02*
X119091295Y-61482314D01*
X118900819Y-61482314D01*
X118805580Y-61529933D01*
X118757961Y-61577552D01*
X118710342Y-61672790D01*
X118710342Y-61958504D01*
X118757961Y-62053742D01*
X118805580Y-62101361D01*
X118900819Y-62148980D01*
X119091295Y-62148980D01*
X119186533Y-62101361D01*
X117853200Y-62148980D02*
X117853200Y-61625171D01*
X117900819Y-61529933D01*
X117996057Y-61482314D01*
X118186533Y-61482314D01*
X118281771Y-61529933D01*
X117853200Y-62101361D02*
X117948438Y-62148980D01*
X118186533Y-62148980D01*
X118281771Y-62101361D01*
X118329390Y-62006123D01*
X118329390Y-61910885D01*
X118281771Y-61815647D01*
X118186533Y-61768028D01*
X117948438Y-61768028D01*
X117853200Y-61720409D01*
X117519866Y-61482314D02*
X117138914Y-61482314D01*
X117377009Y-61148980D02*
X117377009Y-62006123D01*
X117329390Y-62101361D01*
X117234152Y-62148980D01*
X117138914Y-62148980D01*
X116948438Y-61482314D02*
X116567485Y-61482314D01*
X116805580Y-61148980D02*
X116805580Y-62006123D01*
X116757961Y-62101361D01*
X116662723Y-62148980D01*
X116567485Y-62148980D01*
X115853200Y-62101361D02*
X115948438Y-62148980D01*
X116138914Y-62148980D01*
X116234152Y-62101361D01*
X116281771Y-62006123D01*
X116281771Y-61625171D01*
X116234152Y-61529933D01*
X116138914Y-61482314D01*
X115948438Y-61482314D01*
X115853200Y-61529933D01*
X115805580Y-61625171D01*
X115805580Y-61720409D01*
X116281771Y-61815647D01*
X115377009Y-62148980D02*
X115377009Y-61482314D01*
X115377009Y-61672790D02*
X115329390Y-61577552D01*
X115281771Y-61529933D01*
X115186533Y-61482314D01*
X115091295Y-61482314D01*
X114757961Y-62148980D02*
X114757961Y-61482314D01*
X114757961Y-61148980D02*
X114805580Y-61196600D01*
X114757961Y-61244219D01*
X114710342Y-61196600D01*
X114757961Y-61148980D01*
X114757961Y-61244219D01*
X114281771Y-61482314D02*
X114281771Y-62339457D01*
X114329390Y-62434695D01*
X114424628Y-62482314D01*
X114472247Y-62482314D01*
X114281771Y-61148980D02*
X114329390Y-61196600D01*
X114281771Y-61244219D01*
X114234152Y-61196600D01*
X114281771Y-61148980D01*
X114281771Y-61244219D01*
D11*
X110416400Y-50033000D02*
X110416400Y-73533000D01*
X134916400Y-50033000D02*
X110416400Y-50033000D01*
X134916400Y-73533000D02*
X134916400Y-50033000D01*
X110416400Y-73533000D02*
X134916400Y-73533000D01*
X107053748Y-98858000D02*
X107576252Y-98858000D01*
X107053748Y-100278000D02*
X107576252Y-100278000D01*
X108205748Y-87197000D02*
X108728252Y-87197000D01*
X108205748Y-85777000D02*
X108728252Y-85777000D01*
X108710252Y-91619000D02*
X108187748Y-91619000D01*
X108710252Y-93039000D02*
X108187748Y-93039000D01*
X110863748Y-100278000D02*
X111386252Y-100278000D01*
X110863748Y-98858000D02*
X111386252Y-98858000D01*
X131960252Y-92658000D02*
X131437748Y-92658000D01*
X131960252Y-91238000D02*
X131437748Y-91238000D01*
X128957000Y-103633748D02*
X128957000Y-104156252D01*
X130377000Y-103633748D02*
X130377000Y-104156252D01*
X122293748Y-87555000D02*
X122816252Y-87555000D01*
X122293748Y-88975000D02*
X122816252Y-88975000D01*
X122284748Y-89587000D02*
X122807252Y-89587000D01*
X122284748Y-91007000D02*
X122807252Y-91007000D01*
X128576000Y-89161252D02*
X128576000Y-88638748D01*
X129996000Y-89161252D02*
X129996000Y-88638748D01*
X136635748Y-98881000D02*
X137158252Y-98881000D01*
X136635748Y-97461000D02*
X137158252Y-97461000D01*
X144197000Y-93328748D02*
X144197000Y-93851252D01*
X145617000Y-93328748D02*
X145617000Y-93851252D01*
X134060000Y-88647748D02*
X134060000Y-89170252D01*
X132640000Y-88647748D02*
X132640000Y-89170252D01*
X132028000Y-89152252D02*
X132028000Y-88629748D01*
X130608000Y-89152252D02*
X130608000Y-88629748D01*
X105521000Y-88693000D02*
G75*
G03X104821000Y-87993000I-700000J0D01*
G01*
X104221000Y-87993000D02*
G75*
G03X103521000Y-88693000I0J-700000D01*
G01*
X103521000Y-90093000D02*
G75*
G03X104221000Y-90793000I700000J0D01*
G01*
X104821000Y-90793000D02*
G75*
G03X105521000Y-90093000I0J700000D01*
G01*
X104221000Y-90793000D02*
X104821000Y-90793000D01*
X103521000Y-88693000D02*
X103521000Y-90093000D01*
X104821000Y-87993000D02*
X104221000Y-87993000D01*
X105521000Y-90093000D02*
X105521000Y-88693000D01*
X111268000Y-88723000D02*
X111268000Y-90123000D01*
X111968000Y-90823000D02*
X112568000Y-90823000D01*
X113268000Y-90123000D02*
X113268000Y-88723000D01*
X112568000Y-88023000D02*
X111968000Y-88023000D01*
X111968000Y-88023000D02*
G75*
G03X111268000Y-88723000I0J-700000D01*
G01*
X113268000Y-88723000D02*
G75*
G03X112568000Y-88023000I-700000J0D01*
G01*
X112568000Y-90823000D02*
G75*
G03X113268000Y-90123000I0J700000D01*
G01*
X111268000Y-90123000D02*
G75*
G03X111968000Y-90823000I700000J0D01*
G01*
X131824252Y-85269000D02*
X131301748Y-85269000D01*
X131824252Y-86689000D02*
X131301748Y-86689000D01*
X103684000Y-96772252D02*
X103684000Y-96249748D01*
X105104000Y-96772252D02*
X105104000Y-96249748D01*
X103072000Y-96790252D02*
X103072000Y-96267748D01*
X101652000Y-96790252D02*
X101652000Y-96267748D01*
X110946000Y-96249748D02*
X110946000Y-96772252D01*
X109526000Y-96249748D02*
X109526000Y-96772252D01*
X111558000Y-96249748D02*
X111558000Y-96772252D01*
X112978000Y-96249748D02*
X112978000Y-96772252D01*
X115010000Y-96781252D02*
X115010000Y-96258748D01*
X113590000Y-96781252D02*
X113590000Y-96258748D01*
X131428748Y-98627000D02*
X131951252Y-98627000D01*
X131428748Y-97207000D02*
X131951252Y-97207000D01*
X131969252Y-100659000D02*
X131446748Y-100659000D01*
X131969252Y-99239000D02*
X131446748Y-99239000D01*
X134926000Y-104029252D02*
X134926000Y-103506748D01*
X136346000Y-104029252D02*
X136346000Y-103506748D01*
X136958000Y-103488748D02*
X136958000Y-104011252D01*
X138378000Y-103488748D02*
X138378000Y-104011252D01*
X104342000Y-83177748D02*
X104342000Y-83700252D01*
X102922000Y-83177748D02*
X102922000Y-83700252D01*
X141588748Y-96318000D02*
X142111252Y-96318000D01*
X141588748Y-97738000D02*
X142111252Y-97738000D01*
X141588748Y-99770000D02*
X142111252Y-99770000D01*
X141588748Y-98350000D02*
X142111252Y-98350000D01*
X135965000Y-82406748D02*
X135965000Y-82929252D01*
X134545000Y-82406748D02*
X134545000Y-82929252D01*
X137997000Y-82938252D02*
X137997000Y-82415748D01*
X136577000Y-82938252D02*
X136577000Y-82415748D01*
X140029000Y-82406748D02*
X140029000Y-82929252D01*
X138609000Y-82406748D02*
X138609000Y-82929252D01*
X144982000Y-88535252D02*
X144982000Y-88012748D01*
X143562000Y-88535252D02*
X143562000Y-88012748D01*
X142950000Y-87994748D02*
X142950000Y-88517252D01*
X141530000Y-87994748D02*
X141530000Y-88517252D01*
X129973000Y-82947252D02*
X129973000Y-82424748D01*
X131393000Y-82947252D02*
X131393000Y-82424748D01*
X132005000Y-82424748D02*
X132005000Y-82947252D01*
X133425000Y-82424748D02*
X133425000Y-82947252D01*
X130799000Y-93259000D02*
X132599000Y-93259000D01*
X132599000Y-96479000D02*
X129649000Y-96479000D01*
X134198000Y-102986000D02*
X134198000Y-105936000D01*
X130978000Y-104786000D02*
X130978000Y-102986000D01*
X106898223Y-97706080D02*
G75*
G03X106898223Y-97706080I-52363J0D01*
G01*
X138545000Y-90252000D02*
X139020000Y-90252000D01*
X139020000Y-90252000D02*
X139020000Y-89777000D01*
X135775000Y-86532000D02*
X135300000Y-86532000D01*
X135300000Y-86532000D02*
X135300000Y-87007000D01*
X138545000Y-86532000D02*
X139020000Y-86532000D01*
X139020000Y-86532000D02*
X139020000Y-87007000D01*
X135775000Y-90252000D02*
X135300000Y-90252000D01*
X107558000Y-87798000D02*
X109358000Y-87798000D01*
X109358000Y-91018000D02*
X106908000Y-91018000D01*
X124841000Y-91694000D02*
X120396000Y-91694000D01*
X120396000Y-91694000D02*
X120396000Y-98679000D01*
X120396000Y-98679000D02*
X124841000Y-98679000D01*
X124841000Y-98679000D02*
X124841000Y-91694000D01*
X124587000Y-92075000D02*
G75*
G03X124587000Y-92075000I-254000J0D01*
G01*
D10*
X107398333Y-101143571D02*
X107422142Y-101167380D01*
X107493571Y-101191190D01*
X107541190Y-101191190D01*
X107612619Y-101167380D01*
X107660238Y-101119761D01*
X107684047Y-101072142D01*
X107707857Y-100976904D01*
X107707857Y-100905476D01*
X107684047Y-100810238D01*
X107660238Y-100762619D01*
X107612619Y-100715000D01*
X107541190Y-100691190D01*
X107493571Y-100691190D01*
X107422142Y-100715000D01*
X107398333Y-100738809D01*
X106922142Y-101191190D02*
X107207857Y-101191190D01*
X107065000Y-101191190D02*
X107065000Y-100691190D01*
X107112619Y-100762619D01*
X107160238Y-100810238D01*
X107207857Y-100834047D01*
X108550333Y-85268571D02*
X108574142Y-85292380D01*
X108645571Y-85316190D01*
X108693190Y-85316190D01*
X108764619Y-85292380D01*
X108812238Y-85244761D01*
X108836047Y-85197142D01*
X108859857Y-85101904D01*
X108859857Y-85030476D01*
X108836047Y-84935238D01*
X108812238Y-84887619D01*
X108764619Y-84840000D01*
X108693190Y-84816190D01*
X108645571Y-84816190D01*
X108574142Y-84840000D01*
X108550333Y-84863809D01*
X108359857Y-84863809D02*
X108336047Y-84840000D01*
X108288428Y-84816190D01*
X108169380Y-84816190D01*
X108121761Y-84840000D01*
X108097952Y-84863809D01*
X108074142Y-84911428D01*
X108074142Y-84959047D01*
X108097952Y-85030476D01*
X108383666Y-85316190D01*
X108074142Y-85316190D01*
X110954333Y-92634571D02*
X110978142Y-92658380D01*
X111049571Y-92682190D01*
X111097190Y-92682190D01*
X111168619Y-92658380D01*
X111216238Y-92610761D01*
X111240047Y-92563142D01*
X111263857Y-92467904D01*
X111263857Y-92396476D01*
X111240047Y-92301238D01*
X111216238Y-92253619D01*
X111168619Y-92206000D01*
X111097190Y-92182190D01*
X111049571Y-92182190D01*
X110978142Y-92206000D01*
X110954333Y-92229809D01*
X110787666Y-92182190D02*
X110478142Y-92182190D01*
X110644809Y-92372666D01*
X110573380Y-92372666D01*
X110525761Y-92396476D01*
X110501952Y-92420285D01*
X110478142Y-92467904D01*
X110478142Y-92586952D01*
X110501952Y-92634571D01*
X110525761Y-92658380D01*
X110573380Y-92682190D01*
X110716238Y-92682190D01*
X110763857Y-92658380D01*
X110787666Y-92634571D01*
X111208333Y-101143571D02*
X111232142Y-101167380D01*
X111303571Y-101191190D01*
X111351190Y-101191190D01*
X111422619Y-101167380D01*
X111470238Y-101119761D01*
X111494047Y-101072142D01*
X111517857Y-100976904D01*
X111517857Y-100905476D01*
X111494047Y-100810238D01*
X111470238Y-100762619D01*
X111422619Y-100715000D01*
X111351190Y-100691190D01*
X111303571Y-100691190D01*
X111232142Y-100715000D01*
X111208333Y-100738809D01*
X110779761Y-100857857D02*
X110779761Y-101191190D01*
X110898809Y-100667380D02*
X111017857Y-101024523D01*
X110708333Y-101024523D01*
X134195333Y-92126571D02*
X134219142Y-92150380D01*
X134290571Y-92174190D01*
X134338190Y-92174190D01*
X134409619Y-92150380D01*
X134457238Y-92102761D01*
X134481047Y-92055142D01*
X134504857Y-91959904D01*
X134504857Y-91888476D01*
X134481047Y-91793238D01*
X134457238Y-91745619D01*
X134409619Y-91698000D01*
X134338190Y-91674190D01*
X134290571Y-91674190D01*
X134219142Y-91698000D01*
X134195333Y-91721809D01*
X133742952Y-91674190D02*
X133981047Y-91674190D01*
X134004857Y-91912285D01*
X133981047Y-91888476D01*
X133933428Y-91864666D01*
X133814380Y-91864666D01*
X133766761Y-91888476D01*
X133742952Y-91912285D01*
X133719142Y-91959904D01*
X133719142Y-92078952D01*
X133742952Y-92126571D01*
X133766761Y-92150380D01*
X133814380Y-92174190D01*
X133933428Y-92174190D01*
X133981047Y-92150380D01*
X134004857Y-92126571D01*
X129623333Y-106350571D02*
X129647142Y-106374380D01*
X129718571Y-106398190D01*
X129766190Y-106398190D01*
X129837619Y-106374380D01*
X129885238Y-106326761D01*
X129909047Y-106279142D01*
X129932857Y-106183904D01*
X129932857Y-106112476D01*
X129909047Y-106017238D01*
X129885238Y-105969619D01*
X129837619Y-105922000D01*
X129766190Y-105898190D01*
X129718571Y-105898190D01*
X129647142Y-105922000D01*
X129623333Y-105945809D01*
X129194761Y-105898190D02*
X129290000Y-105898190D01*
X129337619Y-105922000D01*
X129361428Y-105945809D01*
X129409047Y-106017238D01*
X129432857Y-106112476D01*
X129432857Y-106302952D01*
X129409047Y-106350571D01*
X129385238Y-106374380D01*
X129337619Y-106398190D01*
X129242380Y-106398190D01*
X129194761Y-106374380D01*
X129170952Y-106350571D01*
X129147142Y-106302952D01*
X129147142Y-106183904D01*
X129170952Y-106136285D01*
X129194761Y-106112476D01*
X129242380Y-106088666D01*
X129337619Y-106088666D01*
X129385238Y-106112476D01*
X129409047Y-106136285D01*
X129432857Y-106183904D01*
X120225333Y-88443571D02*
X120249142Y-88467380D01*
X120320571Y-88491190D01*
X120368190Y-88491190D01*
X120439619Y-88467380D01*
X120487238Y-88419761D01*
X120511047Y-88372142D01*
X120534857Y-88276904D01*
X120534857Y-88205476D01*
X120511047Y-88110238D01*
X120487238Y-88062619D01*
X120439619Y-88015000D01*
X120368190Y-87991190D01*
X120320571Y-87991190D01*
X120249142Y-88015000D01*
X120225333Y-88038809D01*
X120058666Y-87991190D02*
X119725333Y-87991190D01*
X119939619Y-88491190D01*
X120225333Y-90475571D02*
X120249142Y-90499380D01*
X120320571Y-90523190D01*
X120368190Y-90523190D01*
X120439619Y-90499380D01*
X120487238Y-90451761D01*
X120511047Y-90404142D01*
X120534857Y-90308904D01*
X120534857Y-90237476D01*
X120511047Y-90142238D01*
X120487238Y-90094619D01*
X120439619Y-90047000D01*
X120368190Y-90023190D01*
X120320571Y-90023190D01*
X120249142Y-90047000D01*
X120225333Y-90070809D01*
X119939619Y-90237476D02*
X119987238Y-90213666D01*
X120011047Y-90189857D01*
X120034857Y-90142238D01*
X120034857Y-90118428D01*
X120011047Y-90070809D01*
X119987238Y-90047000D01*
X119939619Y-90023190D01*
X119844380Y-90023190D01*
X119796761Y-90047000D01*
X119772952Y-90070809D01*
X119749142Y-90118428D01*
X119749142Y-90142238D01*
X119772952Y-90189857D01*
X119796761Y-90213666D01*
X119844380Y-90237476D01*
X119939619Y-90237476D01*
X119987238Y-90261285D01*
X120011047Y-90285095D01*
X120034857Y-90332714D01*
X120034857Y-90427952D01*
X120011047Y-90475571D01*
X119987238Y-90499380D01*
X119939619Y-90523190D01*
X119844380Y-90523190D01*
X119796761Y-90499380D01*
X119772952Y-90475571D01*
X119749142Y-90427952D01*
X119749142Y-90332714D01*
X119772952Y-90285095D01*
X119796761Y-90261285D01*
X119844380Y-90237476D01*
X126416571Y-88102380D02*
X126440380Y-88078571D01*
X126464190Y-88007142D01*
X126464190Y-87959523D01*
X126440380Y-87888095D01*
X126392761Y-87840476D01*
X126345142Y-87816666D01*
X126249904Y-87792857D01*
X126178476Y-87792857D01*
X126083238Y-87816666D01*
X126035619Y-87840476D01*
X125988000Y-87888095D01*
X125964190Y-87959523D01*
X125964190Y-88007142D01*
X125988000Y-88078571D01*
X126011809Y-88102380D01*
X126202285Y-88483333D02*
X126226095Y-88554761D01*
X126249904Y-88578571D01*
X126297523Y-88602380D01*
X126368952Y-88602380D01*
X126416571Y-88578571D01*
X126440380Y-88554761D01*
X126464190Y-88507142D01*
X126464190Y-88316666D01*
X125964190Y-88316666D01*
X125964190Y-88483333D01*
X125988000Y-88530952D01*
X126011809Y-88554761D01*
X126059428Y-88578571D01*
X126107047Y-88578571D01*
X126154666Y-88554761D01*
X126178476Y-88530952D01*
X126202285Y-88483333D01*
X126202285Y-88316666D01*
X126226095Y-88911904D02*
X126464190Y-88911904D01*
X125964190Y-88745238D02*
X126226095Y-88911904D01*
X125964190Y-89078571D01*
X126464190Y-89245238D02*
X125964190Y-89245238D01*
X125964190Y-89435714D01*
X125988000Y-89483333D01*
X126011809Y-89507142D01*
X126059428Y-89530952D01*
X126130857Y-89530952D01*
X126178476Y-89507142D01*
X126202285Y-89483333D01*
X126226095Y-89435714D01*
X126226095Y-89245238D01*
X126464190Y-90007142D02*
X126464190Y-89721428D01*
X126464190Y-89864285D02*
X125964190Y-89864285D01*
X126035619Y-89816666D01*
X126083238Y-89769047D01*
X126107047Y-89721428D01*
X137361285Y-99999571D02*
X137385095Y-100023380D01*
X137456523Y-100047190D01*
X137504142Y-100047190D01*
X137575571Y-100023380D01*
X137623190Y-99975761D01*
X137647000Y-99928142D01*
X137670809Y-99832904D01*
X137670809Y-99761476D01*
X137647000Y-99666238D01*
X137623190Y-99618619D01*
X137575571Y-99571000D01*
X137504142Y-99547190D01*
X137456523Y-99547190D01*
X137385095Y-99571000D01*
X137361285Y-99594809D01*
X137147000Y-100047190D02*
X137147000Y-99547190D01*
X136908904Y-100047190D02*
X136908904Y-99547190D01*
X136623190Y-100047190D01*
X136623190Y-99547190D01*
X136123190Y-100047190D02*
X136408904Y-100047190D01*
X136266047Y-100047190D02*
X136266047Y-99547190D01*
X136313666Y-99618619D01*
X136361285Y-99666238D01*
X136408904Y-99690047D01*
X145704619Y-91364571D02*
X145728428Y-91388380D01*
X145799857Y-91412190D01*
X145847476Y-91412190D01*
X145918904Y-91388380D01*
X145966523Y-91340761D01*
X145990333Y-91293142D01*
X146014142Y-91197904D01*
X146014142Y-91126476D01*
X145990333Y-91031238D01*
X145966523Y-90983619D01*
X145918904Y-90936000D01*
X145847476Y-90912190D01*
X145799857Y-90912190D01*
X145728428Y-90936000D01*
X145704619Y-90959809D01*
X145395095Y-90912190D02*
X145299857Y-90912190D01*
X145252238Y-90936000D01*
X145204619Y-90983619D01*
X145180809Y-91078857D01*
X145180809Y-91245523D01*
X145204619Y-91340761D01*
X145252238Y-91388380D01*
X145299857Y-91412190D01*
X145395095Y-91412190D01*
X145442714Y-91388380D01*
X145490333Y-91340761D01*
X145514142Y-91245523D01*
X145514142Y-91078857D01*
X145490333Y-90983619D01*
X145442714Y-90936000D01*
X145395095Y-90912190D01*
X144966523Y-90912190D02*
X144966523Y-91316952D01*
X144942714Y-91364571D01*
X144918904Y-91388380D01*
X144871285Y-91412190D01*
X144776047Y-91412190D01*
X144728428Y-91388380D01*
X144704619Y-91364571D01*
X144680809Y-91316952D01*
X144680809Y-90912190D01*
X144514142Y-90912190D02*
X144228428Y-90912190D01*
X144371285Y-91412190D02*
X144371285Y-90912190D01*
X143799857Y-91412190D02*
X144085571Y-91412190D01*
X143942714Y-91412190D02*
X143942714Y-90912190D01*
X143990333Y-90983619D01*
X144037952Y-91031238D01*
X144085571Y-91055047D01*
X127940571Y-88126190D02*
X127964380Y-88102380D01*
X127988190Y-88030952D01*
X127988190Y-87983333D01*
X127964380Y-87911904D01*
X127916761Y-87864285D01*
X127869142Y-87840476D01*
X127773904Y-87816666D01*
X127702476Y-87816666D01*
X127607238Y-87840476D01*
X127559619Y-87864285D01*
X127512000Y-87911904D01*
X127488190Y-87983333D01*
X127488190Y-88030952D01*
X127512000Y-88102380D01*
X127535809Y-88126190D01*
X127988190Y-88626190D02*
X127750095Y-88459523D01*
X127988190Y-88340476D02*
X127488190Y-88340476D01*
X127488190Y-88530952D01*
X127512000Y-88578571D01*
X127535809Y-88602380D01*
X127583428Y-88626190D01*
X127654857Y-88626190D01*
X127702476Y-88602380D01*
X127726285Y-88578571D01*
X127750095Y-88530952D01*
X127750095Y-88340476D01*
X127726285Y-88840476D02*
X127726285Y-89007142D01*
X127988190Y-89078571D02*
X127988190Y-88840476D01*
X127488190Y-88840476D01*
X127488190Y-89078571D01*
X127726285Y-89459523D02*
X127726285Y-89292857D01*
X127988190Y-89292857D02*
X127488190Y-89292857D01*
X127488190Y-89530952D01*
X127988190Y-89983333D02*
X127988190Y-89697619D01*
X127988190Y-89840476D02*
X127488190Y-89840476D01*
X127559619Y-89792857D01*
X127607238Y-89745238D01*
X127631047Y-89697619D01*
X127178571Y-88130190D02*
X127202380Y-88106380D01*
X127226190Y-88034952D01*
X127226190Y-87987333D01*
X127202380Y-87915904D01*
X127154761Y-87868285D01*
X127107142Y-87844476D01*
X127011904Y-87820666D01*
X126940476Y-87820666D01*
X126845238Y-87844476D01*
X126797619Y-87868285D01*
X126750000Y-87915904D01*
X126726190Y-87987333D01*
X126726190Y-88034952D01*
X126750000Y-88106380D01*
X126773809Y-88130190D01*
X127202380Y-88320666D02*
X127226190Y-88392095D01*
X127226190Y-88511142D01*
X127202380Y-88558761D01*
X127178571Y-88582571D01*
X127130952Y-88606380D01*
X127083333Y-88606380D01*
X127035714Y-88582571D01*
X127011904Y-88558761D01*
X126988095Y-88511142D01*
X126964285Y-88415904D01*
X126940476Y-88368285D01*
X126916666Y-88344476D01*
X126869047Y-88320666D01*
X126821428Y-88320666D01*
X126773809Y-88344476D01*
X126750000Y-88368285D01*
X126726190Y-88415904D01*
X126726190Y-88534952D01*
X126750000Y-88606380D01*
X126726190Y-88749238D02*
X126726190Y-89034952D01*
X127226190Y-88892095D02*
X126726190Y-88892095D01*
X126726190Y-89296857D02*
X126726190Y-89392095D01*
X126750000Y-89439714D01*
X126797619Y-89487333D01*
X126892857Y-89511142D01*
X127059523Y-89511142D01*
X127154761Y-89487333D01*
X127202380Y-89439714D01*
X127226190Y-89392095D01*
X127226190Y-89296857D01*
X127202380Y-89249238D01*
X127154761Y-89201619D01*
X127059523Y-89177809D01*
X126892857Y-89177809D01*
X126797619Y-89201619D01*
X126750000Y-89249238D01*
X126726190Y-89296857D01*
X127226190Y-90011142D02*
X126988095Y-89844476D01*
X127226190Y-89725428D02*
X126726190Y-89725428D01*
X126726190Y-89915904D01*
X126750000Y-89963523D01*
X126773809Y-89987333D01*
X126821428Y-90011142D01*
X126892857Y-90011142D01*
X126940476Y-89987333D01*
X126964285Y-89963523D01*
X126988095Y-89915904D01*
X126988095Y-89725428D01*
X127226190Y-90487333D02*
X127226190Y-90201619D01*
X127226190Y-90344476D02*
X126726190Y-90344476D01*
X126797619Y-90296857D01*
X126845238Y-90249238D01*
X126869047Y-90201619D01*
X104937666Y-91293190D02*
X104937666Y-91650333D01*
X104961476Y-91721761D01*
X105009095Y-91769380D01*
X105080523Y-91793190D01*
X105128142Y-91793190D01*
X104699571Y-91793190D02*
X104699571Y-91293190D01*
X104509095Y-91293190D01*
X104461476Y-91317000D01*
X104437666Y-91340809D01*
X104413857Y-91388428D01*
X104413857Y-91459857D01*
X104437666Y-91507476D01*
X104461476Y-91531285D01*
X104509095Y-91555095D01*
X104699571Y-91555095D01*
X103937666Y-91793190D02*
X104223380Y-91793190D01*
X104080523Y-91793190D02*
X104080523Y-91293190D01*
X104128142Y-91364619D01*
X104175761Y-91412238D01*
X104223380Y-91436047D01*
X112811666Y-91293190D02*
X112811666Y-91650333D01*
X112835476Y-91721761D01*
X112883095Y-91769380D01*
X112954523Y-91793190D01*
X113002142Y-91793190D01*
X112573571Y-91793190D02*
X112573571Y-91293190D01*
X112383095Y-91293190D01*
X112335476Y-91317000D01*
X112311666Y-91340809D01*
X112287857Y-91388428D01*
X112287857Y-91459857D01*
X112311666Y-91507476D01*
X112335476Y-91531285D01*
X112383095Y-91555095D01*
X112573571Y-91555095D01*
X112097380Y-91340809D02*
X112073571Y-91317000D01*
X112025952Y-91293190D01*
X111906904Y-91293190D01*
X111859285Y-91317000D01*
X111835476Y-91340809D01*
X111811666Y-91388428D01*
X111811666Y-91436047D01*
X111835476Y-91507476D01*
X112121190Y-91793190D01*
X111811666Y-91793190D01*
X138894333Y-92047190D02*
X139132428Y-92047190D01*
X139132428Y-91547190D01*
X138465761Y-92047190D02*
X138751476Y-92047190D01*
X138608619Y-92047190D02*
X138608619Y-91547190D01*
X138656238Y-91618619D01*
X138703857Y-91666238D01*
X138751476Y-91690047D01*
X142831333Y-91539190D02*
X143069428Y-91539190D01*
X143069428Y-91039190D01*
X142688476Y-91086809D02*
X142664666Y-91063000D01*
X142617047Y-91039190D01*
X142498000Y-91039190D01*
X142450380Y-91063000D01*
X142426571Y-91086809D01*
X142402761Y-91134428D01*
X142402761Y-91182047D01*
X142426571Y-91253476D01*
X142712285Y-91539190D01*
X142402761Y-91539190D01*
X129242333Y-86205190D02*
X129409000Y-85967095D01*
X129528047Y-86205190D02*
X129528047Y-85705190D01*
X129337571Y-85705190D01*
X129289952Y-85729000D01*
X129266142Y-85752809D01*
X129242333Y-85800428D01*
X129242333Y-85871857D01*
X129266142Y-85919476D01*
X129289952Y-85943285D01*
X129337571Y-85967095D01*
X129528047Y-85967095D01*
X128766142Y-86205190D02*
X129051857Y-86205190D01*
X128909000Y-86205190D02*
X128909000Y-85705190D01*
X128956619Y-85776619D01*
X129004238Y-85824238D01*
X129051857Y-85848047D01*
X104477333Y-94460190D02*
X104644000Y-94222095D01*
X104763047Y-94460190D02*
X104763047Y-93960190D01*
X104572571Y-93960190D01*
X104524952Y-93984000D01*
X104501142Y-94007809D01*
X104477333Y-94055428D01*
X104477333Y-94126857D01*
X104501142Y-94174476D01*
X104524952Y-94198285D01*
X104572571Y-94222095D01*
X104763047Y-94222095D01*
X104286857Y-94007809D02*
X104263047Y-93984000D01*
X104215428Y-93960190D01*
X104096380Y-93960190D01*
X104048761Y-93984000D01*
X104024952Y-94007809D01*
X104001142Y-94055428D01*
X104001142Y-94103047D01*
X104024952Y-94174476D01*
X104310666Y-94460190D01*
X104001142Y-94460190D01*
X102572333Y-94460190D02*
X102739000Y-94222095D01*
X102858047Y-94460190D02*
X102858047Y-93960190D01*
X102667571Y-93960190D01*
X102619952Y-93984000D01*
X102596142Y-94007809D01*
X102572333Y-94055428D01*
X102572333Y-94126857D01*
X102596142Y-94174476D01*
X102619952Y-94198285D01*
X102667571Y-94222095D01*
X102858047Y-94222095D01*
X102405666Y-93960190D02*
X102096142Y-93960190D01*
X102262809Y-94150666D01*
X102191380Y-94150666D01*
X102143761Y-94174476D01*
X102119952Y-94198285D01*
X102096142Y-94245904D01*
X102096142Y-94364952D01*
X102119952Y-94412571D01*
X102143761Y-94436380D01*
X102191380Y-94460190D01*
X102334238Y-94460190D01*
X102381857Y-94436380D01*
X102405666Y-94412571D01*
X110319333Y-94460190D02*
X110486000Y-94222095D01*
X110605047Y-94460190D02*
X110605047Y-93960190D01*
X110414571Y-93960190D01*
X110366952Y-93984000D01*
X110343142Y-94007809D01*
X110319333Y-94055428D01*
X110319333Y-94126857D01*
X110343142Y-94174476D01*
X110366952Y-94198285D01*
X110414571Y-94222095D01*
X110605047Y-94222095D01*
X109890761Y-94126857D02*
X109890761Y-94460190D01*
X110009809Y-93936380D02*
X110128857Y-94293523D01*
X109819333Y-94293523D01*
X112351333Y-94460190D02*
X112518000Y-94222095D01*
X112637047Y-94460190D02*
X112637047Y-93960190D01*
X112446571Y-93960190D01*
X112398952Y-93984000D01*
X112375142Y-94007809D01*
X112351333Y-94055428D01*
X112351333Y-94126857D01*
X112375142Y-94174476D01*
X112398952Y-94198285D01*
X112446571Y-94222095D01*
X112637047Y-94222095D01*
X111898952Y-93960190D02*
X112137047Y-93960190D01*
X112160857Y-94198285D01*
X112137047Y-94174476D01*
X112089428Y-94150666D01*
X111970380Y-94150666D01*
X111922761Y-94174476D01*
X111898952Y-94198285D01*
X111875142Y-94245904D01*
X111875142Y-94364952D01*
X111898952Y-94412571D01*
X111922761Y-94436380D01*
X111970380Y-94460190D01*
X112089428Y-94460190D01*
X112137047Y-94436380D01*
X112160857Y-94412571D01*
X114383333Y-94460190D02*
X114550000Y-94222095D01*
X114669047Y-94460190D02*
X114669047Y-93960190D01*
X114478571Y-93960190D01*
X114430952Y-93984000D01*
X114407142Y-94007809D01*
X114383333Y-94055428D01*
X114383333Y-94126857D01*
X114407142Y-94174476D01*
X114430952Y-94198285D01*
X114478571Y-94222095D01*
X114669047Y-94222095D01*
X113954761Y-93960190D02*
X114050000Y-93960190D01*
X114097619Y-93984000D01*
X114121428Y-94007809D01*
X114169047Y-94079238D01*
X114192857Y-94174476D01*
X114192857Y-94364952D01*
X114169047Y-94412571D01*
X114145238Y-94436380D01*
X114097619Y-94460190D01*
X114002380Y-94460190D01*
X113954761Y-94436380D01*
X113930952Y-94412571D01*
X113907142Y-94364952D01*
X113907142Y-94245904D01*
X113930952Y-94198285D01*
X113954761Y-94174476D01*
X114002380Y-94150666D01*
X114097619Y-94150666D01*
X114145238Y-94174476D01*
X114169047Y-94198285D01*
X114192857Y-94245904D01*
X129369333Y-98143190D02*
X129536000Y-97905095D01*
X129655047Y-98143190D02*
X129655047Y-97643190D01*
X129464571Y-97643190D01*
X129416952Y-97667000D01*
X129393142Y-97690809D01*
X129369333Y-97738428D01*
X129369333Y-97809857D01*
X129393142Y-97857476D01*
X129416952Y-97881285D01*
X129464571Y-97905095D01*
X129655047Y-97905095D01*
X129202666Y-97643190D02*
X128869333Y-97643190D01*
X129083619Y-98143190D01*
X129369333Y-100175190D02*
X129536000Y-99937095D01*
X129655047Y-100175190D02*
X129655047Y-99675190D01*
X129464571Y-99675190D01*
X129416952Y-99699000D01*
X129393142Y-99722809D01*
X129369333Y-99770428D01*
X129369333Y-99841857D01*
X129393142Y-99889476D01*
X129416952Y-99913285D01*
X129464571Y-99937095D01*
X129655047Y-99937095D01*
X129083619Y-99889476D02*
X129131238Y-99865666D01*
X129155047Y-99841857D01*
X129178857Y-99794238D01*
X129178857Y-99770428D01*
X129155047Y-99722809D01*
X129131238Y-99699000D01*
X129083619Y-99675190D01*
X128988380Y-99675190D01*
X128940761Y-99699000D01*
X128916952Y-99722809D01*
X128893142Y-99770428D01*
X128893142Y-99794238D01*
X128916952Y-99841857D01*
X128940761Y-99865666D01*
X128988380Y-99889476D01*
X129083619Y-99889476D01*
X129131238Y-99913285D01*
X129155047Y-99937095D01*
X129178857Y-99984714D01*
X129178857Y-100079952D01*
X129155047Y-100127571D01*
X129131238Y-100151380D01*
X129083619Y-100175190D01*
X128988380Y-100175190D01*
X128940761Y-100151380D01*
X128916952Y-100127571D01*
X128893142Y-100079952D01*
X128893142Y-99984714D01*
X128916952Y-99937095D01*
X128940761Y-99913285D01*
X128988380Y-99889476D01*
X135846333Y-106271190D02*
X136013000Y-106033095D01*
X136132047Y-106271190D02*
X136132047Y-105771190D01*
X135941571Y-105771190D01*
X135893952Y-105795000D01*
X135870142Y-105818809D01*
X135846333Y-105866428D01*
X135846333Y-105937857D01*
X135870142Y-105985476D01*
X135893952Y-106009285D01*
X135941571Y-106033095D01*
X136132047Y-106033095D01*
X135608238Y-106271190D02*
X135513000Y-106271190D01*
X135465380Y-106247380D01*
X135441571Y-106223571D01*
X135393952Y-106152142D01*
X135370142Y-106056904D01*
X135370142Y-105866428D01*
X135393952Y-105818809D01*
X135417761Y-105795000D01*
X135465380Y-105771190D01*
X135560619Y-105771190D01*
X135608238Y-105795000D01*
X135632047Y-105818809D01*
X135655857Y-105866428D01*
X135655857Y-105985476D01*
X135632047Y-106033095D01*
X135608238Y-106056904D01*
X135560619Y-106080714D01*
X135465380Y-106080714D01*
X135417761Y-106056904D01*
X135393952Y-106033095D01*
X135370142Y-105985476D01*
X137862428Y-106271190D02*
X138029095Y-106033095D01*
X138148142Y-106271190D02*
X138148142Y-105771190D01*
X137957666Y-105771190D01*
X137910047Y-105795000D01*
X137886238Y-105818809D01*
X137862428Y-105866428D01*
X137862428Y-105937857D01*
X137886238Y-105985476D01*
X137910047Y-106009285D01*
X137957666Y-106033095D01*
X138148142Y-106033095D01*
X137386238Y-106271190D02*
X137671952Y-106271190D01*
X137529095Y-106271190D02*
X137529095Y-105771190D01*
X137576714Y-105842619D01*
X137624333Y-105890238D01*
X137671952Y-105914047D01*
X137076714Y-105771190D02*
X137029095Y-105771190D01*
X136981476Y-105795000D01*
X136957666Y-105818809D01*
X136933857Y-105866428D01*
X136910047Y-105961666D01*
X136910047Y-106080714D01*
X136933857Y-106175952D01*
X136957666Y-106223571D01*
X136981476Y-106247380D01*
X137029095Y-106271190D01*
X137076714Y-106271190D01*
X137124333Y-106247380D01*
X137148142Y-106223571D01*
X137171952Y-106175952D01*
X137195761Y-106080714D01*
X137195761Y-105961666D01*
X137171952Y-105866428D01*
X137148142Y-105818809D01*
X137124333Y-105795000D01*
X137076714Y-105771190D01*
X103953428Y-81252190D02*
X104120095Y-81014095D01*
X104239142Y-81252190D02*
X104239142Y-80752190D01*
X104048666Y-80752190D01*
X104001047Y-80776000D01*
X103977238Y-80799809D01*
X103953428Y-80847428D01*
X103953428Y-80918857D01*
X103977238Y-80966476D01*
X104001047Y-80990285D01*
X104048666Y-81014095D01*
X104239142Y-81014095D01*
X103477238Y-81252190D02*
X103762952Y-81252190D01*
X103620095Y-81252190D02*
X103620095Y-80752190D01*
X103667714Y-80823619D01*
X103715333Y-80871238D01*
X103762952Y-80895047D01*
X103001047Y-81252190D02*
X103286761Y-81252190D01*
X103143904Y-81252190D02*
X103143904Y-80752190D01*
X103191523Y-80823619D01*
X103239142Y-80871238D01*
X103286761Y-80895047D01*
X144847428Y-97127190D02*
X145014095Y-96889095D01*
X145133142Y-97127190D02*
X145133142Y-96627190D01*
X144942666Y-96627190D01*
X144895047Y-96651000D01*
X144871238Y-96674809D01*
X144847428Y-96722428D01*
X144847428Y-96793857D01*
X144871238Y-96841476D01*
X144895047Y-96865285D01*
X144942666Y-96889095D01*
X145133142Y-96889095D01*
X144371238Y-97127190D02*
X144656952Y-97127190D01*
X144514095Y-97127190D02*
X144514095Y-96627190D01*
X144561714Y-96698619D01*
X144609333Y-96746238D01*
X144656952Y-96770047D01*
X144180761Y-96674809D02*
X144156952Y-96651000D01*
X144109333Y-96627190D01*
X143990285Y-96627190D01*
X143942666Y-96651000D01*
X143918857Y-96674809D01*
X143895047Y-96722428D01*
X143895047Y-96770047D01*
X143918857Y-96841476D01*
X144204571Y-97127190D01*
X143895047Y-97127190D01*
X142171428Y-100936190D02*
X142338095Y-100698095D01*
X142457142Y-100936190D02*
X142457142Y-100436190D01*
X142266666Y-100436190D01*
X142219047Y-100460000D01*
X142195238Y-100483809D01*
X142171428Y-100531428D01*
X142171428Y-100602857D01*
X142195238Y-100650476D01*
X142219047Y-100674285D01*
X142266666Y-100698095D01*
X142457142Y-100698095D01*
X141695238Y-100936190D02*
X141980952Y-100936190D01*
X141838095Y-100936190D02*
X141838095Y-100436190D01*
X141885714Y-100507619D01*
X141933333Y-100555238D01*
X141980952Y-100579047D01*
X141528571Y-100436190D02*
X141219047Y-100436190D01*
X141385714Y-100626666D01*
X141314285Y-100626666D01*
X141266666Y-100650476D01*
X141242857Y-100674285D01*
X141219047Y-100721904D01*
X141219047Y-100840952D01*
X141242857Y-100888571D01*
X141266666Y-100912380D01*
X141314285Y-100936190D01*
X141457142Y-100936190D01*
X141504761Y-100912380D01*
X141528571Y-100888571D01*
X135850238Y-80617190D02*
X136016904Y-80379095D01*
X136135952Y-80617190D02*
X136135952Y-80117190D01*
X135945476Y-80117190D01*
X135897857Y-80141000D01*
X135874047Y-80164809D01*
X135850238Y-80212428D01*
X135850238Y-80283857D01*
X135874047Y-80331476D01*
X135897857Y-80355285D01*
X135945476Y-80379095D01*
X136135952Y-80379095D01*
X135540714Y-80117190D02*
X135445476Y-80117190D01*
X135397857Y-80141000D01*
X135350238Y-80188619D01*
X135326428Y-80283857D01*
X135326428Y-80450523D01*
X135350238Y-80545761D01*
X135397857Y-80593380D01*
X135445476Y-80617190D01*
X135540714Y-80617190D01*
X135588333Y-80593380D01*
X135635952Y-80545761D01*
X135659761Y-80450523D01*
X135659761Y-80283857D01*
X135635952Y-80188619D01*
X135588333Y-80141000D01*
X135540714Y-80117190D01*
X135112142Y-80617190D02*
X135112142Y-80117190D01*
X134826428Y-80617190D02*
X135040714Y-80331476D01*
X134826428Y-80117190D02*
X135112142Y-80402904D01*
X134350238Y-80617190D02*
X134635952Y-80617190D01*
X134493095Y-80617190D02*
X134493095Y-80117190D01*
X134540714Y-80188619D01*
X134588333Y-80236238D01*
X134635952Y-80260047D01*
X137882238Y-80617190D02*
X138048904Y-80379095D01*
X138167952Y-80617190D02*
X138167952Y-80117190D01*
X137977476Y-80117190D01*
X137929857Y-80141000D01*
X137906047Y-80164809D01*
X137882238Y-80212428D01*
X137882238Y-80283857D01*
X137906047Y-80331476D01*
X137929857Y-80355285D01*
X137977476Y-80379095D01*
X138167952Y-80379095D01*
X137572714Y-80117190D02*
X137477476Y-80117190D01*
X137429857Y-80141000D01*
X137382238Y-80188619D01*
X137358428Y-80283857D01*
X137358428Y-80450523D01*
X137382238Y-80545761D01*
X137429857Y-80593380D01*
X137477476Y-80617190D01*
X137572714Y-80617190D01*
X137620333Y-80593380D01*
X137667952Y-80545761D01*
X137691761Y-80450523D01*
X137691761Y-80283857D01*
X137667952Y-80188619D01*
X137620333Y-80141000D01*
X137572714Y-80117190D01*
X137144142Y-80617190D02*
X137144142Y-80117190D01*
X136858428Y-80617190D02*
X137072714Y-80331476D01*
X136858428Y-80117190D02*
X137144142Y-80402904D01*
X136667952Y-80164809D02*
X136644142Y-80141000D01*
X136596523Y-80117190D01*
X136477476Y-80117190D01*
X136429857Y-80141000D01*
X136406047Y-80164809D01*
X136382238Y-80212428D01*
X136382238Y-80260047D01*
X136406047Y-80331476D01*
X136691761Y-80617190D01*
X136382238Y-80617190D01*
X139914238Y-80617190D02*
X140080904Y-80379095D01*
X140199952Y-80617190D02*
X140199952Y-80117190D01*
X140009476Y-80117190D01*
X139961857Y-80141000D01*
X139938047Y-80164809D01*
X139914238Y-80212428D01*
X139914238Y-80283857D01*
X139938047Y-80331476D01*
X139961857Y-80355285D01*
X140009476Y-80379095D01*
X140199952Y-80379095D01*
X139604714Y-80117190D02*
X139509476Y-80117190D01*
X139461857Y-80141000D01*
X139414238Y-80188619D01*
X139390428Y-80283857D01*
X139390428Y-80450523D01*
X139414238Y-80545761D01*
X139461857Y-80593380D01*
X139509476Y-80617190D01*
X139604714Y-80617190D01*
X139652333Y-80593380D01*
X139699952Y-80545761D01*
X139723761Y-80450523D01*
X139723761Y-80283857D01*
X139699952Y-80188619D01*
X139652333Y-80141000D01*
X139604714Y-80117190D01*
X139176142Y-80617190D02*
X139176142Y-80117190D01*
X138890428Y-80617190D02*
X139104714Y-80331476D01*
X138890428Y-80117190D02*
X139176142Y-80402904D01*
X138723761Y-80117190D02*
X138414238Y-80117190D01*
X138580904Y-80307666D01*
X138509476Y-80307666D01*
X138461857Y-80331476D01*
X138438047Y-80355285D01*
X138414238Y-80402904D01*
X138414238Y-80521952D01*
X138438047Y-80569571D01*
X138461857Y-80593380D01*
X138509476Y-80617190D01*
X138652333Y-80617190D01*
X138699952Y-80593380D01*
X138723761Y-80569571D01*
X145704619Y-86205190D02*
X145871285Y-85967095D01*
X145990333Y-86205190D02*
X145990333Y-85705190D01*
X145799857Y-85705190D01*
X145752238Y-85729000D01*
X145728428Y-85752809D01*
X145704619Y-85800428D01*
X145704619Y-85871857D01*
X145728428Y-85919476D01*
X145752238Y-85943285D01*
X145799857Y-85967095D01*
X145990333Y-85967095D01*
X145395095Y-85705190D02*
X145299857Y-85705190D01*
X145252238Y-85729000D01*
X145204619Y-85776619D01*
X145180809Y-85871857D01*
X145180809Y-86038523D01*
X145204619Y-86133761D01*
X145252238Y-86181380D01*
X145299857Y-86205190D01*
X145395095Y-86205190D01*
X145442714Y-86181380D01*
X145490333Y-86133761D01*
X145514142Y-86038523D01*
X145514142Y-85871857D01*
X145490333Y-85776619D01*
X145442714Y-85729000D01*
X145395095Y-85705190D01*
X144966523Y-85705190D02*
X144966523Y-86109952D01*
X144942714Y-86157571D01*
X144918904Y-86181380D01*
X144871285Y-86205190D01*
X144776047Y-86205190D01*
X144728428Y-86181380D01*
X144704619Y-86157571D01*
X144680809Y-86109952D01*
X144680809Y-85705190D01*
X144514142Y-85705190D02*
X144228428Y-85705190D01*
X144371285Y-86205190D02*
X144371285Y-85705190D01*
X143799857Y-86205190D02*
X144085571Y-86205190D01*
X143942714Y-86205190D02*
X143942714Y-85705190D01*
X143990333Y-85776619D01*
X144037952Y-85824238D01*
X144085571Y-85848047D01*
X142529619Y-86205190D02*
X142696285Y-85967095D01*
X142815333Y-86205190D02*
X142815333Y-85705190D01*
X142624857Y-85705190D01*
X142577238Y-85729000D01*
X142553428Y-85752809D01*
X142529619Y-85800428D01*
X142529619Y-85871857D01*
X142553428Y-85919476D01*
X142577238Y-85943285D01*
X142624857Y-85967095D01*
X142815333Y-85967095D01*
X142220095Y-85705190D02*
X142124857Y-85705190D01*
X142077238Y-85729000D01*
X142029619Y-85776619D01*
X142005809Y-85871857D01*
X142005809Y-86038523D01*
X142029619Y-86133761D01*
X142077238Y-86181380D01*
X142124857Y-86205190D01*
X142220095Y-86205190D01*
X142267714Y-86181380D01*
X142315333Y-86133761D01*
X142339142Y-86038523D01*
X142339142Y-85871857D01*
X142315333Y-85776619D01*
X142267714Y-85729000D01*
X142220095Y-85705190D01*
X141791523Y-85705190D02*
X141791523Y-86109952D01*
X141767714Y-86157571D01*
X141743904Y-86181380D01*
X141696285Y-86205190D01*
X141601047Y-86205190D01*
X141553428Y-86181380D01*
X141529619Y-86157571D01*
X141505809Y-86109952D01*
X141505809Y-85705190D01*
X141339142Y-85705190D02*
X141053428Y-85705190D01*
X141196285Y-86205190D02*
X141196285Y-85705190D01*
X140910571Y-85752809D02*
X140886761Y-85729000D01*
X140839142Y-85705190D01*
X140720095Y-85705190D01*
X140672476Y-85729000D01*
X140648666Y-85752809D01*
X140624857Y-85800428D01*
X140624857Y-85848047D01*
X140648666Y-85919476D01*
X140934380Y-86205190D01*
X140624857Y-86205190D01*
X131242523Y-80617190D02*
X131409190Y-80379095D01*
X131528238Y-80617190D02*
X131528238Y-80117190D01*
X131337761Y-80117190D01*
X131290142Y-80141000D01*
X131266333Y-80164809D01*
X131242523Y-80212428D01*
X131242523Y-80283857D01*
X131266333Y-80331476D01*
X131290142Y-80355285D01*
X131337761Y-80379095D01*
X131528238Y-80379095D01*
X130933000Y-80117190D02*
X130837761Y-80117190D01*
X130790142Y-80141000D01*
X130742523Y-80188619D01*
X130718714Y-80283857D01*
X130718714Y-80450523D01*
X130742523Y-80545761D01*
X130790142Y-80593380D01*
X130837761Y-80617190D01*
X130933000Y-80617190D01*
X130980619Y-80593380D01*
X131028238Y-80545761D01*
X131052047Y-80450523D01*
X131052047Y-80283857D01*
X131028238Y-80188619D01*
X130980619Y-80141000D01*
X130933000Y-80117190D01*
X130575857Y-80117190D02*
X130409190Y-80617190D01*
X130242523Y-80117190D01*
X129813952Y-80617190D02*
X130099666Y-80617190D01*
X129956809Y-80617190D02*
X129956809Y-80117190D01*
X130004428Y-80188619D01*
X130052047Y-80236238D01*
X130099666Y-80260047D01*
X133274523Y-80617190D02*
X133441190Y-80379095D01*
X133560238Y-80617190D02*
X133560238Y-80117190D01*
X133369761Y-80117190D01*
X133322142Y-80141000D01*
X133298333Y-80164809D01*
X133274523Y-80212428D01*
X133274523Y-80283857D01*
X133298333Y-80331476D01*
X133322142Y-80355285D01*
X133369761Y-80379095D01*
X133560238Y-80379095D01*
X132965000Y-80117190D02*
X132869761Y-80117190D01*
X132822142Y-80141000D01*
X132774523Y-80188619D01*
X132750714Y-80283857D01*
X132750714Y-80450523D01*
X132774523Y-80545761D01*
X132822142Y-80593380D01*
X132869761Y-80617190D01*
X132965000Y-80617190D01*
X133012619Y-80593380D01*
X133060238Y-80545761D01*
X133084047Y-80450523D01*
X133084047Y-80283857D01*
X133060238Y-80188619D01*
X133012619Y-80141000D01*
X132965000Y-80117190D01*
X132607857Y-80117190D02*
X132441190Y-80617190D01*
X132274523Y-80117190D01*
X132131666Y-80164809D02*
X132107857Y-80141000D01*
X132060238Y-80117190D01*
X131941190Y-80117190D01*
X131893571Y-80141000D01*
X131869761Y-80164809D01*
X131845952Y-80212428D01*
X131845952Y-80260047D01*
X131869761Y-80331476D01*
X132155476Y-80617190D01*
X131845952Y-80617190D01*
X129031952Y-95071380D02*
X128960523Y-95095190D01*
X128841476Y-95095190D01*
X128793857Y-95071380D01*
X128770047Y-95047571D01*
X128746238Y-94999952D01*
X128746238Y-94952333D01*
X128770047Y-94904714D01*
X128793857Y-94880904D01*
X128841476Y-94857095D01*
X128936714Y-94833285D01*
X128984333Y-94809476D01*
X129008142Y-94785666D01*
X129031952Y-94738047D01*
X129031952Y-94690428D01*
X129008142Y-94642809D01*
X128984333Y-94619000D01*
X128936714Y-94595190D01*
X128817666Y-94595190D01*
X128746238Y-94619000D01*
X128270047Y-95095190D02*
X128555761Y-95095190D01*
X128412904Y-95095190D02*
X128412904Y-94595190D01*
X128460523Y-94666619D01*
X128508142Y-94714238D01*
X128555761Y-94738047D01*
X132968952Y-107009380D02*
X132897523Y-107033190D01*
X132778476Y-107033190D01*
X132730857Y-107009380D01*
X132707047Y-106985571D01*
X132683238Y-106937952D01*
X132683238Y-106890333D01*
X132707047Y-106842714D01*
X132730857Y-106818904D01*
X132778476Y-106795095D01*
X132873714Y-106771285D01*
X132921333Y-106747476D01*
X132945142Y-106723666D01*
X132968952Y-106676047D01*
X132968952Y-106628428D01*
X132945142Y-106580809D01*
X132921333Y-106557000D01*
X132873714Y-106533190D01*
X132754666Y-106533190D01*
X132683238Y-106557000D01*
X132492761Y-106580809D02*
X132468952Y-106557000D01*
X132421333Y-106533190D01*
X132302285Y-106533190D01*
X132254666Y-106557000D01*
X132230857Y-106580809D01*
X132207047Y-106628428D01*
X132207047Y-106676047D01*
X132230857Y-106747476D01*
X132516571Y-107033190D01*
X132207047Y-107033190D01*
X107695952Y-94976190D02*
X107695952Y-95380952D01*
X107672142Y-95428571D01*
X107648333Y-95452380D01*
X107600714Y-95476190D01*
X107505476Y-95476190D01*
X107457857Y-95452380D01*
X107434047Y-95428571D01*
X107410238Y-95380952D01*
X107410238Y-94976190D01*
X106910238Y-95476190D02*
X107195952Y-95476190D01*
X107053095Y-95476190D02*
X107053095Y-94976190D01*
X107100714Y-95047619D01*
X107148333Y-95095238D01*
X107195952Y-95119047D01*
X136651952Y-85324190D02*
X136651952Y-85728952D01*
X136628142Y-85776571D01*
X136604333Y-85800380D01*
X136556714Y-85824190D01*
X136461476Y-85824190D01*
X136413857Y-85800380D01*
X136390047Y-85776571D01*
X136366238Y-85728952D01*
X136366238Y-85324190D01*
X136151952Y-85371809D02*
X136128142Y-85348000D01*
X136080523Y-85324190D01*
X135961476Y-85324190D01*
X135913857Y-85348000D01*
X135890047Y-85371809D01*
X135866238Y-85419428D01*
X135866238Y-85467047D01*
X135890047Y-85538476D01*
X136175761Y-85824190D01*
X135866238Y-85824190D01*
X106298952Y-86975190D02*
X106298952Y-87379952D01*
X106275142Y-87427571D01*
X106251333Y-87451380D01*
X106203714Y-87475190D01*
X106108476Y-87475190D01*
X106060857Y-87451380D01*
X106037047Y-87427571D01*
X106013238Y-87379952D01*
X106013238Y-86975190D01*
X105822761Y-86975190D02*
X105513238Y-86975190D01*
X105679904Y-87165666D01*
X105608476Y-87165666D01*
X105560857Y-87189476D01*
X105537047Y-87213285D01*
X105513238Y-87260904D01*
X105513238Y-87379952D01*
X105537047Y-87427571D01*
X105560857Y-87451380D01*
X105608476Y-87475190D01*
X105751333Y-87475190D01*
X105798952Y-87451380D01*
X105822761Y-87427571D01*
X122935952Y-91928190D02*
X122935952Y-92332952D01*
X122912142Y-92380571D01*
X122888333Y-92404380D01*
X122840714Y-92428190D01*
X122745476Y-92428190D01*
X122697857Y-92404380D01*
X122674047Y-92380571D01*
X122650238Y-92332952D01*
X122650238Y-91928190D01*
X122197857Y-92094857D02*
X122197857Y-92428190D01*
X122316904Y-91904380D02*
X122435952Y-92261523D01*
X122126428Y-92261523D01*
M02*
