G04 #@! TF.GenerationSoftware,KiCad,Pcbnew,(5.1.6)-1*
G04 #@! TF.CreationDate,2021-05-31T10:21:52+02:00*
G04 #@! TF.ProjectId,Power_module_v1,506f7765-725f-46d6-9f64-756c655f7631,rev?*
G04 #@! TF.SameCoordinates,Original*
G04 #@! TF.FileFunction,Copper,L1,Top*
G04 #@! TF.FilePolarity,Positive*
%FSLAX46Y46*%
G04 Gerber Fmt 4.6, Leading zero omitted, Abs format (unit mm)*
G04 Created by KiCad (PCBNEW (5.1.6)-1) date 2021-05-31 10:21:52*
%MOMM*%
%LPD*%
G01*
G04 APERTURE LIST*
G04 #@! TA.AperFunction,SMDPad,CuDef*
%ADD10R,1.600000X0.700000*%
G04 #@! TD*
G04 #@! TA.AperFunction,ComponentPad*
%ADD11R,1.700000X1.700000*%
G04 #@! TD*
G04 #@! TA.AperFunction,ComponentPad*
%ADD12O,1.700000X1.700000*%
G04 #@! TD*
G04 #@! TA.AperFunction,SMDPad,CuDef*
%ADD13R,1.430000X2.500000*%
G04 #@! TD*
G04 #@! TA.AperFunction,SMDPad,CuDef*
%ADD14R,2.000000X1.500000*%
G04 #@! TD*
G04 #@! TA.AperFunction,SMDPad,CuDef*
%ADD15R,1.350000X2.000000*%
G04 #@! TD*
G04 #@! TA.AperFunction,SMDPad,CuDef*
%ADD16R,0.400000X1.650000*%
G04 #@! TD*
G04 #@! TA.AperFunction,ComponentPad*
%ADD17O,1.350000X1.700000*%
G04 #@! TD*
G04 #@! TA.AperFunction,ComponentPad*
%ADD18O,1.100000X1.500000*%
G04 #@! TD*
G04 #@! TA.AperFunction,SMDPad,CuDef*
%ADD19R,1.825000X0.700000*%
G04 #@! TD*
G04 #@! TA.AperFunction,SMDPad,CuDef*
%ADD20R,1.700000X1.700000*%
G04 #@! TD*
G04 #@! TA.AperFunction,SMDPad,CuDef*
%ADD21O,1.700000X1.700000*%
G04 #@! TD*
G04 #@! TA.AperFunction,SMDPad,CuDef*
%ADD22R,1.524000X4.000000*%
G04 #@! TD*
G04 #@! TA.AperFunction,ComponentPad*
%ADD23R,1.600000X1.600000*%
G04 #@! TD*
G04 #@! TA.AperFunction,ComponentPad*
%ADD24C,1.600000*%
G04 #@! TD*
G04 #@! TA.AperFunction,ViaPad*
%ADD25C,0.800000*%
G04 #@! TD*
G04 #@! TA.AperFunction,ViaPad*
%ADD26C,0.400000*%
G04 #@! TD*
G04 #@! TA.AperFunction,Conductor*
%ADD27C,0.254000*%
G04 #@! TD*
G04 #@! TA.AperFunction,Conductor*
%ADD28C,0.250000*%
G04 #@! TD*
G04 #@! TA.AperFunction,Conductor*
%ADD29C,0.500000*%
G04 #@! TD*
G04 #@! TA.AperFunction,Conductor*
%ADD30C,0.200000*%
G04 #@! TD*
G04 #@! TA.AperFunction,Conductor*
%ADD31C,0.300000*%
G04 #@! TD*
G04 #@! TA.AperFunction,Conductor*
%ADD32C,1.000000*%
G04 #@! TD*
G04 APERTURE END LIST*
D10*
X145516000Y-76073000D03*
X145516000Y-77343000D03*
X145516000Y-78613000D03*
X145516000Y-79883000D03*
D11*
X127254000Y-73406000D03*
D12*
X124714000Y-73406000D03*
G04 #@! TA.AperFunction,SMDPad,CuDef*
G36*
G01*
X107620000Y-100780001D02*
X107620000Y-99879999D01*
G75*
G02*
X107869999Y-99630000I249999J0D01*
G01*
X108520001Y-99630000D01*
G75*
G02*
X108770000Y-99879999I0J-249999D01*
G01*
X108770000Y-100780001D01*
G75*
G02*
X108520001Y-101030000I-249999J0D01*
G01*
X107869999Y-101030000D01*
G75*
G02*
X107620000Y-100780001I0J249999D01*
G01*
G37*
G04 #@! TD.AperFunction*
G04 #@! TA.AperFunction,SMDPad,CuDef*
G36*
G01*
X109670000Y-100780001D02*
X109670000Y-99879999D01*
G75*
G02*
X109919999Y-99630000I249999J0D01*
G01*
X110570001Y-99630000D01*
G75*
G02*
X110820000Y-99879999I0J-249999D01*
G01*
X110820000Y-100780001D01*
G75*
G02*
X110570001Y-101030000I-249999J0D01*
G01*
X109919999Y-101030000D01*
G75*
G02*
X109670000Y-100780001I0J249999D01*
G01*
G37*
G04 #@! TD.AperFunction*
G04 #@! TA.AperFunction,SMDPad,CuDef*
G36*
G01*
X114884000Y-99879999D02*
X114884000Y-100780001D01*
G75*
G02*
X114634001Y-101030000I-249999J0D01*
G01*
X113983999Y-101030000D01*
G75*
G02*
X113734000Y-100780001I0J249999D01*
G01*
X113734000Y-99879999D01*
G75*
G02*
X113983999Y-99630000I249999J0D01*
G01*
X114634001Y-99630000D01*
G75*
G02*
X114884000Y-99879999I0J-249999D01*
G01*
G37*
G04 #@! TD.AperFunction*
G04 #@! TA.AperFunction,SMDPad,CuDef*
G36*
G01*
X112834000Y-99879999D02*
X112834000Y-100780001D01*
G75*
G02*
X112584001Y-101030000I-249999J0D01*
G01*
X111933999Y-101030000D01*
G75*
G02*
X111684000Y-100780001I0J249999D01*
G01*
X111684000Y-99879999D01*
G75*
G02*
X111933999Y-99630000I249999J0D01*
G01*
X112584001Y-99630000D01*
G75*
G02*
X112834000Y-99879999I0J-249999D01*
G01*
G37*
G04 #@! TD.AperFunction*
G04 #@! TA.AperFunction,SMDPad,CuDef*
G36*
G01*
X133408000Y-103689999D02*
X133408000Y-104590001D01*
G75*
G02*
X133158001Y-104840000I-249999J0D01*
G01*
X132507999Y-104840000D01*
G75*
G02*
X132258000Y-104590001I0J249999D01*
G01*
X132258000Y-103689999D01*
G75*
G02*
X132507999Y-103440000I249999J0D01*
G01*
X133158001Y-103440000D01*
G75*
G02*
X133408000Y-103689999I0J-249999D01*
G01*
G37*
G04 #@! TD.AperFunction*
G04 #@! TA.AperFunction,SMDPad,CuDef*
G36*
G01*
X135458000Y-103689999D02*
X135458000Y-104590001D01*
G75*
G02*
X135208001Y-104840000I-249999J0D01*
G01*
X134557999Y-104840000D01*
G75*
G02*
X134308000Y-104590001I0J249999D01*
G01*
X134308000Y-103689999D01*
G75*
G02*
X134557999Y-103440000I249999J0D01*
G01*
X135208001Y-103440000D01*
G75*
G02*
X135458000Y-103689999I0J-249999D01*
G01*
G37*
G04 #@! TD.AperFunction*
G04 #@! TA.AperFunction,SMDPad,CuDef*
G36*
G01*
X133408000Y-101403999D02*
X133408000Y-102304001D01*
G75*
G02*
X133158001Y-102554000I-249999J0D01*
G01*
X132507999Y-102554000D01*
G75*
G02*
X132258000Y-102304001I0J249999D01*
G01*
X132258000Y-101403999D01*
G75*
G02*
X132507999Y-101154000I249999J0D01*
G01*
X133158001Y-101154000D01*
G75*
G02*
X133408000Y-101403999I0J-249999D01*
G01*
G37*
G04 #@! TD.AperFunction*
G04 #@! TA.AperFunction,SMDPad,CuDef*
G36*
G01*
X135458000Y-101403999D02*
X135458000Y-102304001D01*
G75*
G02*
X135208001Y-102554000I-249999J0D01*
G01*
X134557999Y-102554000D01*
G75*
G02*
X134308000Y-102304001I0J249999D01*
G01*
X134308000Y-101403999D01*
G75*
G02*
X134557999Y-101154000I249999J0D01*
G01*
X135208001Y-101154000D01*
G75*
G02*
X135458000Y-101403999I0J-249999D01*
G01*
G37*
G04 #@! TD.AperFunction*
D13*
X110228900Y-106746740D03*
D14*
X108338900Y-103496740D03*
D15*
X113938900Y-105546740D03*
X108458900Y-105546740D03*
D16*
X111188900Y-103596740D03*
D17*
X114688900Y-106476740D03*
D18*
X108768900Y-103476740D03*
X113608900Y-103476740D03*
D16*
X112488900Y-103596740D03*
X111838900Y-103596740D03*
D19*
X114188900Y-104796740D03*
D16*
X109888900Y-103596740D03*
D14*
X114088900Y-103476740D03*
D19*
X108238900Y-104796740D03*
D16*
X110538900Y-103596740D03*
D17*
X107688900Y-106476740D03*
D13*
X112148900Y-106746740D03*
D12*
X120396000Y-73406000D03*
D11*
X117856000Y-73406000D03*
D20*
X96266000Y-84328000D03*
D21*
X96266000Y-81788000D03*
X96266000Y-79248000D03*
X96266000Y-76708000D03*
X96266000Y-74168000D03*
X96266000Y-71628000D03*
D12*
X100203000Y-71628000D03*
X100203000Y-74168000D03*
X100203000Y-76708000D03*
X100203000Y-79248000D03*
X100203000Y-81788000D03*
D11*
X100203000Y-84328000D03*
D22*
X125049280Y-101912420D03*
X122509280Y-101912420D03*
X119969280Y-101912420D03*
D23*
X120904000Y-82296000D03*
D24*
X120904000Y-79796000D03*
D25*
X130810000Y-78740000D03*
X129794000Y-80264000D03*
X112268000Y-71120000D03*
X153670000Y-74930000D03*
D26*
X106680000Y-96012000D03*
X106680000Y-94996000D03*
X136652000Y-88900000D03*
X138176000Y-88900000D03*
X136652000Y-89662000D03*
X136652000Y-90424000D03*
X138176000Y-89662000D03*
X138176000Y-90424000D03*
X137414000Y-88900000D03*
X137414000Y-89662000D03*
X137414000Y-90424000D03*
D25*
X141224000Y-87884000D03*
X132334000Y-88392000D03*
X132080000Y-86868000D03*
X132842000Y-87630000D03*
X133604000Y-88392000D03*
X140208000Y-87884000D03*
X141478000Y-86868000D03*
X103378000Y-91948000D03*
X106680000Y-93980000D03*
X102870000Y-81026000D03*
X114808000Y-96520000D03*
X103886000Y-90170000D03*
X89408000Y-77978000D03*
X155194000Y-78740000D03*
X141478000Y-101600000D03*
X138430000Y-106680000D03*
X128778000Y-106680000D03*
X95250000Y-88900000D03*
X129286000Y-78740000D03*
X148336000Y-90170000D03*
X150368000Y-86868000D03*
X113030000Y-78740000D03*
X143510000Y-71120000D03*
X137160000Y-71120000D03*
X130810000Y-71120000D03*
X124460000Y-71120000D03*
X118110000Y-71120000D03*
X106680000Y-71120000D03*
X90678000Y-81026000D03*
X93218000Y-70358000D03*
X90678000Y-75184000D03*
X111252000Y-101381000D03*
X147320000Y-78994000D03*
X119380000Y-90170000D03*
X123444000Y-80010000D03*
X123444000Y-78486000D03*
X127000000Y-99568000D03*
X127000000Y-101346000D03*
X127000000Y-102870000D03*
X118110000Y-101854000D03*
X118110000Y-103124000D03*
X98806000Y-95504000D03*
X98806000Y-91440000D03*
X134366000Y-106680000D03*
X109474000Y-74676000D03*
X103632000Y-74676000D03*
X116078000Y-74930000D03*
X122682000Y-74930000D03*
X152400000Y-83312000D03*
X139954000Y-104140000D03*
X105410000Y-105664000D03*
X103886000Y-102870000D03*
X101600000Y-99568000D03*
X151638000Y-70866000D03*
X112522000Y-85090000D03*
X112522000Y-81788000D03*
X99822000Y-86868000D03*
X119126000Y-88138000D03*
X124460000Y-79248000D03*
X104648000Y-101346000D03*
X144018000Y-92456000D03*
X140970000Y-92927000D03*
X103632000Y-100838000D03*
X109713718Y-102278217D03*
X122936000Y-96774000D03*
X133858000Y-78994000D03*
X133858000Y-80010000D03*
X106680000Y-80264000D03*
X137330343Y-86387491D03*
X136753600Y-85725000D03*
X111506000Y-98552000D03*
X143764000Y-86360000D03*
X145034000Y-85852000D03*
X140617923Y-88937000D03*
X93472000Y-81026000D03*
X116446067Y-90817933D03*
X127762000Y-90678000D03*
X123893256Y-96484754D03*
X123786001Y-97571000D03*
X139446000Y-92202000D03*
X139446000Y-79248000D03*
X141032228Y-89848685D03*
X140716000Y-91186000D03*
X109220000Y-92202000D03*
X108712000Y-100330000D03*
X129032000Y-103124000D03*
X136398000Y-104140000D03*
X128741000Y-101600000D03*
X136398000Y-101854000D03*
X117094000Y-99314000D03*
X124968000Y-98806000D03*
X120904000Y-96685010D03*
X103378000Y-86106000D03*
X122428000Y-91948000D03*
X112776000Y-88392000D03*
X111760000Y-87884000D03*
X102736933Y-78619067D03*
X123698000Y-95504000D03*
X115570000Y-94234000D03*
X133096000Y-90932000D03*
X129540000Y-90932000D03*
X129540000Y-89408000D03*
X133858000Y-89387000D03*
X129032000Y-88392000D03*
X132842000Y-89895000D03*
X137414000Y-93472000D03*
X134366000Y-93980000D03*
X112776000Y-93218000D03*
X114046001Y-94488000D03*
X147320000Y-75692000D03*
X132334000Y-73660000D03*
X123698000Y-93980000D03*
X147320000Y-76962000D03*
X123698000Y-90932000D03*
X131572000Y-71882000D03*
X148336000Y-72390000D03*
X132334000Y-72644000D03*
X122551477Y-94098389D03*
D27*
X100203000Y-79248000D02*
X96266000Y-79248000D01*
X105410000Y-93980000D02*
X103378000Y-91948000D01*
X106680000Y-93980000D02*
X105410000Y-93980000D01*
X100203000Y-79248000D02*
X101981000Y-81026000D01*
X101981000Y-81026000D02*
X102870000Y-81026000D01*
D28*
X103378000Y-90678000D02*
X103886000Y-90170000D01*
X103378000Y-91948000D02*
X103378000Y-90678000D01*
D29*
X112488900Y-102582900D02*
X112488900Y-102153098D01*
X112488900Y-103596740D02*
X112488900Y-102582900D01*
X112488900Y-102026132D02*
X112488900Y-102582900D01*
X114635868Y-102026132D02*
X112488900Y-102026132D01*
X116078000Y-100584000D02*
X114635868Y-102026132D01*
X111458162Y-101381000D02*
X111252000Y-101381000D01*
X112488900Y-102026132D02*
X112488901Y-102411739D01*
X112488901Y-102411739D02*
X111458162Y-101381000D01*
D27*
X145516000Y-78613000D02*
X146939000Y-78613000D01*
X146939000Y-78613000D02*
X147320000Y-78994000D01*
X121148860Y-98298000D02*
X116078000Y-98298000D01*
X122509280Y-99658420D02*
X121148860Y-98298000D01*
X122509280Y-101912420D02*
X122509280Y-99658420D01*
D29*
X116078000Y-98298000D02*
X116078000Y-100584000D01*
D27*
X119380000Y-90170000D02*
X118364000Y-90170000D01*
X116078000Y-97790000D02*
X116078000Y-98298000D01*
X114808000Y-96520000D02*
X116078000Y-97790000D01*
X114842999Y-96485001D02*
X114808000Y-96520000D01*
X114842999Y-93691001D02*
X114842999Y-96485001D01*
X118364000Y-90170000D02*
X114842999Y-93691001D01*
D30*
X140970000Y-92927000D02*
X143547000Y-92927000D01*
X143547000Y-92927000D02*
X144018000Y-92456000D01*
D29*
X104140000Y-101346000D02*
X105156000Y-101346000D01*
X103632000Y-100838000D02*
X104140000Y-101346000D01*
X105156000Y-101346000D02*
X104902000Y-101346000D01*
X109888900Y-103596740D02*
X109888900Y-102486738D01*
X109698901Y-102296739D02*
X109888900Y-102486738D01*
X109698901Y-102296739D02*
X109662739Y-102296739D01*
D27*
X109888900Y-103596740D02*
X109888900Y-104808900D01*
X109888900Y-104808900D02*
X109982000Y-104902000D01*
D29*
X109698901Y-102296739D02*
X109510162Y-102108000D01*
X105918000Y-102108000D02*
X105156000Y-101346000D01*
X109510162Y-102108000D02*
X105918000Y-102108000D01*
D27*
X109510162Y-102108000D02*
X109543501Y-102108000D01*
X109543501Y-102108000D02*
X109713718Y-102278217D01*
X122936000Y-97487760D02*
X122936000Y-96774000D01*
X122936000Y-97487760D02*
X122936000Y-98044000D01*
X122936000Y-98044000D02*
X122970999Y-98078999D01*
X140570001Y-93326999D02*
X140970000Y-92927000D01*
X140570001Y-93363999D02*
X140570001Y-93326999D01*
X138684000Y-95250000D02*
X140570001Y-93363999D01*
X129286000Y-95250000D02*
X138684000Y-95250000D01*
X126457001Y-98078999D02*
X129286000Y-95250000D01*
X123190000Y-98298000D02*
X124400038Y-98298000D01*
X122936000Y-98044000D02*
X123190000Y-98298000D01*
X124400038Y-98298000D02*
X124619039Y-98078999D01*
X124619039Y-98078999D02*
X126457001Y-98078999D01*
X106680000Y-80264000D02*
X105156000Y-78740000D01*
D29*
X133858000Y-78994000D02*
X133858000Y-82888000D01*
X133858000Y-82888000D02*
X136457600Y-85487600D01*
D27*
X137332434Y-86385400D02*
X137330343Y-86387491D01*
X137414000Y-86385400D02*
X137332434Y-86385400D01*
X136457600Y-85505200D02*
X136533800Y-85505200D01*
X136457600Y-85487600D02*
X136457600Y-85505200D01*
X136533800Y-85505200D02*
X136753600Y-85725000D01*
D31*
X136753600Y-85725000D02*
X137414000Y-86385400D01*
D29*
X133858000Y-76962000D02*
X133858000Y-76708000D01*
D27*
X112259000Y-99305000D02*
X111506000Y-98552000D01*
X112259000Y-100330000D02*
X112259000Y-99305000D01*
X110245000Y-99813000D02*
X111506000Y-98552000D01*
X110245000Y-100330000D02*
X110245000Y-99813000D01*
D29*
X110609990Y-97655990D02*
X111506000Y-98552000D01*
X110609990Y-96893990D02*
X110101990Y-96893990D01*
D27*
X110245000Y-97037000D02*
X110101990Y-96893990D01*
D29*
X110609990Y-96893990D02*
X110609990Y-97655990D01*
X92621999Y-83194001D02*
X92621999Y-73347999D01*
X96100001Y-91116003D02*
X96100001Y-86672003D01*
X96100001Y-86672003D02*
X92621999Y-83194001D01*
X101877988Y-96893990D02*
X96100001Y-91116003D01*
X92621999Y-73347999D02*
X95641999Y-70327999D01*
X110101990Y-96893990D02*
X101877988Y-96893990D01*
D32*
X117856000Y-73406000D02*
X117856000Y-73002002D01*
D29*
X133858000Y-76962000D02*
X133858000Y-77470000D01*
X133858000Y-77470000D02*
X133858000Y-80010000D01*
D27*
X105156000Y-78740000D02*
X105156000Y-78232000D01*
X102271997Y-75347997D02*
X102271997Y-70327999D01*
X105156000Y-78232000D02*
X102271997Y-75347997D01*
D29*
X101569999Y-70327999D02*
X101627999Y-70269999D01*
X101569999Y-70327999D02*
X102271997Y-70327999D01*
X131991999Y-70269999D02*
X133858000Y-72136000D01*
X95641999Y-70327999D02*
X101569999Y-70327999D01*
X133858000Y-76962000D02*
X133858000Y-72136000D01*
X117259999Y-70347997D02*
X117182001Y-70269999D01*
X117856000Y-73406000D02*
X117259999Y-72809999D01*
X117259999Y-72809999D02*
X117259999Y-70347997D01*
X101627999Y-70269999D02*
X117182001Y-70269999D01*
X117182001Y-70269999D02*
X131991999Y-70269999D01*
X143510000Y-87376000D02*
X145034000Y-85852000D01*
X143764000Y-87122000D02*
X141986000Y-88900000D01*
X143764000Y-86360000D02*
X143764000Y-87122000D01*
D28*
X141949000Y-88937000D02*
X141986000Y-88900000D01*
D29*
X140617923Y-88937000D02*
X141949000Y-88937000D01*
X93472000Y-81026000D02*
X94488000Y-82042000D01*
X96012000Y-82042000D02*
X96266000Y-81788000D01*
X94488000Y-82042000D02*
X96012000Y-82042000D01*
X96266000Y-81788000D02*
X100203000Y-81788000D01*
D27*
X116366999Y-90897001D02*
X116446067Y-90817933D01*
X100203000Y-81788000D02*
X102362000Y-83947000D01*
X102362000Y-83947000D02*
X102362000Y-87376000D01*
X105883001Y-90897001D02*
X109762999Y-90897001D01*
X102362000Y-87376000D02*
X105883001Y-90897001D01*
X109312001Y-90897001D02*
X109762999Y-90897001D01*
X109762999Y-90897001D02*
X116366999Y-90897001D01*
D29*
X127762000Y-93334752D02*
X127762000Y-92964000D01*
X127762000Y-92964000D02*
X127762000Y-90678000D01*
X124749246Y-96484754D02*
X123893256Y-96484754D01*
X127762000Y-92964000D02*
X127762000Y-93472000D01*
X127762000Y-93472000D02*
X124749246Y-96484754D01*
X124749246Y-96607755D02*
X123786001Y-97571000D01*
X124749246Y-96484754D02*
X124749246Y-96607755D01*
X143546999Y-89625001D02*
X146340999Y-89625001D01*
X141478000Y-92202000D02*
X143546999Y-90133001D01*
X143546999Y-90133001D02*
X143546999Y-89625001D01*
D28*
X139446000Y-92202000D02*
X141478000Y-92202000D01*
D29*
X146340999Y-89625001D02*
X147066000Y-88900000D01*
D28*
X143323315Y-89848685D02*
X143546999Y-89625001D01*
D29*
X141032228Y-89848685D02*
X143323315Y-89848685D01*
D27*
X147066000Y-88900000D02*
X147066000Y-84328000D01*
X141986000Y-79248000D02*
X139446000Y-79248000D01*
X147066000Y-84328000D02*
X141986000Y-79248000D01*
X108712000Y-100330000D02*
X108195000Y-100330000D01*
D28*
X130048000Y-104140000D02*
X132833000Y-104140000D01*
X129032000Y-103124000D02*
X130048000Y-104140000D01*
D27*
X136398000Y-104140000D02*
X134883000Y-104140000D01*
D28*
X128741000Y-101600000D02*
X128778000Y-101600000D01*
X129032000Y-101854000D02*
X132833000Y-101854000D01*
X128778000Y-101600000D02*
X129032000Y-101854000D01*
D27*
X134883000Y-101854000D02*
X136398000Y-101854000D01*
X119969280Y-101912420D02*
X119692420Y-101912420D01*
X119692420Y-101912420D02*
X117094000Y-99314000D01*
X123024990Y-98806000D02*
X123190000Y-98806000D01*
X120904000Y-96685010D02*
X123024990Y-98806000D01*
X123190000Y-98806000D02*
X124968000Y-98806000D01*
X108338900Y-104696740D02*
X108238900Y-104796740D01*
X108338900Y-103496740D02*
X108338900Y-104696740D01*
X108238900Y-105926740D02*
X107688900Y-106476740D01*
X108238900Y-104796740D02*
X108238900Y-105926740D01*
X109028900Y-105546740D02*
X110228900Y-106746740D01*
X108458900Y-105546740D02*
X109028900Y-105546740D01*
X110228900Y-106746740D02*
X112148900Y-106746740D01*
X112738900Y-106746740D02*
X113938900Y-105546740D01*
X112148900Y-106746740D02*
X112738900Y-106746740D01*
X113938900Y-103626740D02*
X114088900Y-103476740D01*
X113938900Y-105546740D02*
X113938900Y-103626740D01*
X113938900Y-105726740D02*
X114688900Y-106476740D01*
X113938900Y-105546740D02*
X113938900Y-105726740D01*
X114088900Y-103476740D02*
X113608900Y-103476740D01*
X108748900Y-103496740D02*
X108768900Y-103476740D01*
X108338900Y-103496740D02*
X108748900Y-103496740D01*
X107688900Y-106316740D02*
X108458900Y-105546740D01*
X107688900Y-106476740D02*
X107688900Y-106316740D01*
X100237999Y-84362999D02*
X100203000Y-84328000D01*
X100203000Y-84328000D02*
X96266000Y-84328000D01*
X114265001Y-89442999D02*
X114230002Y-89408000D01*
X114230002Y-89408000D02*
X106680000Y-89408000D01*
X106680000Y-89408000D02*
X103378000Y-86106000D01*
X119922999Y-89442999D02*
X119599001Y-89442999D01*
X122428000Y-91948000D02*
X119922999Y-89442999D01*
X119728961Y-89442999D02*
X119599001Y-89442999D01*
X119599001Y-89442999D02*
X114265001Y-89442999D01*
X100203000Y-76708000D02*
X96266000Y-76708000D01*
X112776000Y-88392000D02*
X112776000Y-87630000D01*
X101854000Y-76708000D02*
X100203000Y-76708000D01*
X112776000Y-87630000D02*
X101854000Y-76708000D01*
X100203000Y-74168000D02*
X96266000Y-74168000D01*
X111760000Y-87884000D02*
X102736933Y-78860933D01*
X102736933Y-78860933D02*
X102736933Y-78619067D01*
X117602000Y-95504000D02*
X123698000Y-95504000D01*
X117602000Y-95504000D02*
X116332000Y-94234000D01*
X116332000Y-94234000D02*
X115570000Y-94234000D01*
X133096000Y-90932000D02*
X129540000Y-90932000D01*
D29*
X132842000Y-89916000D02*
X130048000Y-89916000D01*
X130048000Y-89916000D02*
X129540000Y-89408000D01*
X133371000Y-89387000D02*
X132842000Y-89916000D01*
X133858000Y-89387000D02*
X133371000Y-89387000D01*
X129032000Y-88900000D02*
X129032000Y-88392000D01*
X129540000Y-89408000D02*
X129032000Y-88900000D01*
X129561000Y-89387000D02*
X129540000Y-89408000D01*
D28*
X136906000Y-93980000D02*
X137414000Y-93472000D01*
X134366000Y-93980000D02*
X136906000Y-93980000D01*
D27*
X114046001Y-96833963D02*
X114046001Y-94488000D01*
X114309000Y-97096962D02*
X114046001Y-96833963D01*
X114309000Y-97096962D02*
X114309000Y-100330000D01*
X146939000Y-76073000D02*
X145516000Y-76073000D01*
X147320000Y-75692000D02*
X146939000Y-76073000D01*
X127000000Y-78934038D02*
X131004038Y-74930000D01*
X127000000Y-90678000D02*
X127000000Y-78934038D01*
X131004038Y-74930000D02*
X131064000Y-74930000D01*
X131064000Y-74930000D02*
X132334000Y-73660000D01*
X123698000Y-93980000D02*
X127000000Y-90678000D01*
X145516000Y-77343000D02*
X146939000Y-77343000D01*
X146939000Y-77343000D02*
X147320000Y-76962000D01*
X124460000Y-90932000D02*
X123698000Y-90932000D01*
X125476000Y-89916000D02*
X124460000Y-90932000D01*
X131572000Y-71882000D02*
X125476000Y-77978000D01*
X125476000Y-77978000D02*
X125476000Y-89916000D01*
X147506962Y-79883000D02*
X145516000Y-79883000D01*
X148336000Y-79053962D02*
X147506962Y-79883000D01*
X148336000Y-72390000D02*
X148336000Y-79053962D01*
X131572000Y-72644000D02*
X132334000Y-72644000D01*
X126238000Y-77978000D02*
X131572000Y-72644000D01*
X122551477Y-94098389D02*
X126238000Y-90411866D01*
X126238000Y-90411866D02*
X126238000Y-77978000D01*
G36*
X157031326Y-77941566D02*
G01*
X139765597Y-107846500D01*
X127477120Y-107846500D01*
X127477120Y-104356621D01*
X127479084Y-104336680D01*
X127471245Y-104257090D01*
X127448030Y-104180559D01*
X127410330Y-104110027D01*
X127359594Y-104048206D01*
X127297773Y-103997470D01*
X127227241Y-103959770D01*
X127150710Y-103936555D01*
X127091061Y-103930680D01*
X127091060Y-103930680D01*
X127071120Y-103928716D01*
X127051179Y-103930680D01*
X126192325Y-103930680D01*
X126194123Y-103912420D01*
X126194123Y-101523078D01*
X127960000Y-101523078D01*
X127960000Y-101676922D01*
X127990013Y-101827809D01*
X128048887Y-101969942D01*
X128134358Y-102097859D01*
X128243141Y-102206642D01*
X128371058Y-102292113D01*
X128513191Y-102350987D01*
X128664078Y-102381000D01*
X128784909Y-102381000D01*
X128662058Y-102431887D01*
X128534141Y-102517358D01*
X128425358Y-102626141D01*
X128339887Y-102754058D01*
X128281013Y-102896191D01*
X128251000Y-103047078D01*
X128251000Y-103200922D01*
X128281013Y-103351809D01*
X128339887Y-103493942D01*
X128425358Y-103621859D01*
X128534141Y-103730642D01*
X128662058Y-103816113D01*
X128804191Y-103874987D01*
X128955078Y-103905000D01*
X129097409Y-103905000D01*
X129672628Y-104480220D01*
X129688473Y-104499527D01*
X129765521Y-104562759D01*
X129853425Y-104609745D01*
X129948807Y-104638678D01*
X130023146Y-104646000D01*
X130023154Y-104646000D01*
X130048000Y-104648447D01*
X130072846Y-104646000D01*
X131880672Y-104646000D01*
X131887317Y-104713462D01*
X131923329Y-104832179D01*
X131981810Y-104941589D01*
X132060512Y-105037488D01*
X132156411Y-105116190D01*
X132265821Y-105174671D01*
X132384538Y-105210683D01*
X132507999Y-105222843D01*
X133158001Y-105222843D01*
X133281462Y-105210683D01*
X133400179Y-105174671D01*
X133509589Y-105116190D01*
X133605488Y-105037488D01*
X133684190Y-104941589D01*
X133742671Y-104832179D01*
X133778683Y-104713462D01*
X133790843Y-104590001D01*
X133790843Y-103689999D01*
X133925157Y-103689999D01*
X133925157Y-104590001D01*
X133937317Y-104713462D01*
X133973329Y-104832179D01*
X134031810Y-104941589D01*
X134110512Y-105037488D01*
X134206411Y-105116190D01*
X134315821Y-105174671D01*
X134434538Y-105210683D01*
X134557999Y-105222843D01*
X135208001Y-105222843D01*
X135331462Y-105210683D01*
X135450179Y-105174671D01*
X135559589Y-105116190D01*
X135655488Y-105037488D01*
X135734190Y-104941589D01*
X135792671Y-104832179D01*
X135828683Y-104713462D01*
X135832115Y-104678616D01*
X135900141Y-104746642D01*
X136028058Y-104832113D01*
X136170191Y-104890987D01*
X136321078Y-104921000D01*
X136474922Y-104921000D01*
X136625809Y-104890987D01*
X136767942Y-104832113D01*
X136895859Y-104746642D01*
X137004642Y-104637859D01*
X137090113Y-104509942D01*
X137148987Y-104367809D01*
X137179000Y-104216922D01*
X137179000Y-104063078D01*
X137148987Y-103912191D01*
X137090113Y-103770058D01*
X137004642Y-103642141D01*
X136895859Y-103533358D01*
X136767942Y-103447887D01*
X136625809Y-103389013D01*
X136474922Y-103359000D01*
X136321078Y-103359000D01*
X136170191Y-103389013D01*
X136028058Y-103447887D01*
X135900141Y-103533358D01*
X135832115Y-103601384D01*
X135828683Y-103566538D01*
X135792671Y-103447821D01*
X135734190Y-103338411D01*
X135655488Y-103242512D01*
X135559589Y-103163810D01*
X135450179Y-103105329D01*
X135331462Y-103069317D01*
X135208001Y-103057157D01*
X134557999Y-103057157D01*
X134434538Y-103069317D01*
X134315821Y-103105329D01*
X134206411Y-103163810D01*
X134110512Y-103242512D01*
X134031810Y-103338411D01*
X133973329Y-103447821D01*
X133937317Y-103566538D01*
X133925157Y-103689999D01*
X133790843Y-103689999D01*
X133778683Y-103566538D01*
X133742671Y-103447821D01*
X133684190Y-103338411D01*
X133605488Y-103242512D01*
X133509589Y-103163810D01*
X133400179Y-103105329D01*
X133281462Y-103069317D01*
X133158001Y-103057157D01*
X132507999Y-103057157D01*
X132384538Y-103069317D01*
X132265821Y-103105329D01*
X132156411Y-103163810D01*
X132060512Y-103242512D01*
X131981810Y-103338411D01*
X131923329Y-103447821D01*
X131887317Y-103566538D01*
X131880672Y-103634000D01*
X130257592Y-103634000D01*
X129813000Y-103189409D01*
X129813000Y-103047078D01*
X129782987Y-102896191D01*
X129724113Y-102754058D01*
X129638642Y-102626141D01*
X129529859Y-102517358D01*
X129401942Y-102431887D01*
X129259809Y-102373013D01*
X129194388Y-102360000D01*
X131880672Y-102360000D01*
X131887317Y-102427462D01*
X131923329Y-102546179D01*
X131981810Y-102655589D01*
X132060512Y-102751488D01*
X132156411Y-102830190D01*
X132265821Y-102888671D01*
X132384538Y-102924683D01*
X132507999Y-102936843D01*
X133158001Y-102936843D01*
X133281462Y-102924683D01*
X133400179Y-102888671D01*
X133509589Y-102830190D01*
X133605488Y-102751488D01*
X133684190Y-102655589D01*
X133742671Y-102546179D01*
X133778683Y-102427462D01*
X133790843Y-102304001D01*
X133790843Y-101403999D01*
X133925157Y-101403999D01*
X133925157Y-102304001D01*
X133937317Y-102427462D01*
X133973329Y-102546179D01*
X134031810Y-102655589D01*
X134110512Y-102751488D01*
X134206411Y-102830190D01*
X134315821Y-102888671D01*
X134434538Y-102924683D01*
X134557999Y-102936843D01*
X135208001Y-102936843D01*
X135331462Y-102924683D01*
X135450179Y-102888671D01*
X135559589Y-102830190D01*
X135655488Y-102751488D01*
X135734190Y-102655589D01*
X135792671Y-102546179D01*
X135828683Y-102427462D01*
X135832115Y-102392616D01*
X135900141Y-102460642D01*
X136028058Y-102546113D01*
X136170191Y-102604987D01*
X136321078Y-102635000D01*
X136474922Y-102635000D01*
X136625809Y-102604987D01*
X136767942Y-102546113D01*
X136895859Y-102460642D01*
X137004642Y-102351859D01*
X137090113Y-102223942D01*
X137148987Y-102081809D01*
X137179000Y-101930922D01*
X137179000Y-101777078D01*
X137148987Y-101626191D01*
X137090113Y-101484058D01*
X137004642Y-101356141D01*
X136895859Y-101247358D01*
X136767942Y-101161887D01*
X136625809Y-101103013D01*
X136474922Y-101073000D01*
X136321078Y-101073000D01*
X136170191Y-101103013D01*
X136028058Y-101161887D01*
X135900141Y-101247358D01*
X135832115Y-101315384D01*
X135828683Y-101280538D01*
X135792671Y-101161821D01*
X135734190Y-101052411D01*
X135655488Y-100956512D01*
X135559589Y-100877810D01*
X135450179Y-100819329D01*
X135331462Y-100783317D01*
X135208001Y-100771157D01*
X134557999Y-100771157D01*
X134434538Y-100783317D01*
X134315821Y-100819329D01*
X134206411Y-100877810D01*
X134110512Y-100956512D01*
X134031810Y-101052411D01*
X133973329Y-101161821D01*
X133937317Y-101280538D01*
X133925157Y-101403999D01*
X133790843Y-101403999D01*
X133778683Y-101280538D01*
X133742671Y-101161821D01*
X133684190Y-101052411D01*
X133605488Y-100956512D01*
X133509589Y-100877810D01*
X133400179Y-100819329D01*
X133281462Y-100783317D01*
X133158001Y-100771157D01*
X132507999Y-100771157D01*
X132384538Y-100783317D01*
X132265821Y-100819329D01*
X132156411Y-100877810D01*
X132060512Y-100956512D01*
X131981810Y-101052411D01*
X131923329Y-101161821D01*
X131887317Y-101280538D01*
X131880672Y-101348000D01*
X129481967Y-101348000D01*
X129433113Y-101230058D01*
X129347642Y-101102141D01*
X129238859Y-100993358D01*
X129110942Y-100907887D01*
X128968809Y-100849013D01*
X128817922Y-100819000D01*
X128664078Y-100819000D01*
X128513191Y-100849013D01*
X128371058Y-100907887D01*
X128243141Y-100993358D01*
X128134358Y-101102141D01*
X128048887Y-101230058D01*
X127990013Y-101372191D01*
X127960000Y-101523078D01*
X126194123Y-101523078D01*
X126194123Y-99912420D01*
X126186767Y-99837731D01*
X126164981Y-99765912D01*
X126129602Y-99699724D01*
X126081991Y-99641709D01*
X126023976Y-99594098D01*
X125957788Y-99558719D01*
X125885969Y-99536933D01*
X125811280Y-99529577D01*
X125261982Y-99529577D01*
X125337942Y-99498113D01*
X125465859Y-99412642D01*
X125574642Y-99303859D01*
X125660113Y-99175942D01*
X125718987Y-99033809D01*
X125749000Y-98882922D01*
X125749000Y-98729078D01*
X125720739Y-98586999D01*
X126432057Y-98586999D01*
X126457001Y-98589456D01*
X126481945Y-98586999D01*
X126481948Y-98586999D01*
X126556586Y-98579648D01*
X126652344Y-98550600D01*
X126740596Y-98503428D01*
X126817949Y-98439947D01*
X126833856Y-98420564D01*
X129496420Y-95758000D01*
X138659056Y-95758000D01*
X138684000Y-95760457D01*
X138708944Y-95758000D01*
X138708947Y-95758000D01*
X138783585Y-95750649D01*
X138879343Y-95721601D01*
X138967595Y-95674429D01*
X139044948Y-95610948D01*
X139060855Y-95591565D01*
X140911572Y-93740849D01*
X140930949Y-93724947D01*
X140944857Y-93708000D01*
X141046922Y-93708000D01*
X141197809Y-93677987D01*
X141339942Y-93619113D01*
X141467859Y-93533642D01*
X141576642Y-93424859D01*
X141587907Y-93408000D01*
X143523374Y-93408000D01*
X143547000Y-93410327D01*
X143570626Y-93408000D01*
X143641292Y-93401040D01*
X143731961Y-93373536D01*
X143815522Y-93328872D01*
X143888764Y-93268764D01*
X143903830Y-93250406D01*
X143921192Y-93233044D01*
X143941078Y-93237000D01*
X144094922Y-93237000D01*
X144245809Y-93206987D01*
X144387942Y-93148113D01*
X144515859Y-93062642D01*
X144624642Y-92953859D01*
X144710113Y-92825942D01*
X144768987Y-92683809D01*
X144799000Y-92532922D01*
X144799000Y-92379078D01*
X144768987Y-92228191D01*
X144710113Y-92086058D01*
X144624642Y-91958141D01*
X144515859Y-91849358D01*
X144387942Y-91763887D01*
X144245809Y-91705013D01*
X144094922Y-91675000D01*
X143941078Y-91675000D01*
X143790191Y-91705013D01*
X143648058Y-91763887D01*
X143520141Y-91849358D01*
X143411358Y-91958141D01*
X143325887Y-92086058D01*
X143267013Y-92228191D01*
X143237000Y-92379078D01*
X143237000Y-92446000D01*
X142126368Y-92446000D01*
X143971263Y-90601105D01*
X143995342Y-90581344D01*
X144074195Y-90485262D01*
X144132788Y-90375643D01*
X144168869Y-90256699D01*
X144168938Y-90256001D01*
X146310009Y-90256001D01*
X146340999Y-90259053D01*
X146371989Y-90256001D01*
X146371997Y-90256001D01*
X146464697Y-90246871D01*
X146583641Y-90210790D01*
X146693260Y-90152197D01*
X146789342Y-90073344D01*
X146809104Y-90049264D01*
X147534103Y-89324266D01*
X147593196Y-89252261D01*
X147651789Y-89142642D01*
X147687869Y-89023698D01*
X147700052Y-88900001D01*
X147687869Y-88776303D01*
X147651789Y-88657359D01*
X147593196Y-88547740D01*
X147574000Y-88524350D01*
X147574000Y-84352944D01*
X147576457Y-84328000D01*
X147574000Y-84303053D01*
X147566649Y-84228415D01*
X147537601Y-84132657D01*
X147515643Y-84091576D01*
X147490429Y-84044404D01*
X147467354Y-84016288D01*
X147426948Y-83967052D01*
X147407565Y-83951145D01*
X142362855Y-78906435D01*
X142346948Y-78887052D01*
X142269595Y-78823571D01*
X142181343Y-78776399D01*
X142085585Y-78747351D01*
X142010947Y-78740000D01*
X142010944Y-78740000D01*
X141986000Y-78737543D01*
X141961056Y-78740000D01*
X140042501Y-78740000D01*
X139943859Y-78641358D01*
X139815942Y-78555887D01*
X139673809Y-78497013D01*
X139522922Y-78467000D01*
X139369078Y-78467000D01*
X139218191Y-78497013D01*
X139076058Y-78555887D01*
X138948141Y-78641358D01*
X138839358Y-78750141D01*
X138753887Y-78878058D01*
X138695013Y-79020191D01*
X138665000Y-79171078D01*
X138665000Y-79324922D01*
X138695013Y-79475809D01*
X138753887Y-79617942D01*
X138839358Y-79745859D01*
X138948141Y-79854642D01*
X139076058Y-79940113D01*
X139218191Y-79998987D01*
X139369078Y-80029000D01*
X139522922Y-80029000D01*
X139673809Y-79998987D01*
X139815942Y-79940113D01*
X139943859Y-79854642D01*
X140042501Y-79756000D01*
X141775580Y-79756000D01*
X146558001Y-84538421D01*
X146558000Y-88515631D01*
X146079631Y-88994001D01*
X143577997Y-88994001D01*
X143546999Y-88990948D01*
X143516001Y-88994001D01*
X143423301Y-89003131D01*
X143304357Y-89039212D01*
X143194738Y-89097805D01*
X143098656Y-89176658D01*
X143064986Y-89217685D01*
X142560683Y-89217685D01*
X144188268Y-87590101D01*
X144212343Y-87570343D01*
X144232105Y-87546263D01*
X145153921Y-86624447D01*
X145261809Y-86602987D01*
X145403942Y-86544113D01*
X145531859Y-86458642D01*
X145640642Y-86349859D01*
X145726113Y-86221942D01*
X145784987Y-86079809D01*
X145815000Y-85928922D01*
X145815000Y-85775078D01*
X145784987Y-85624191D01*
X145726113Y-85482058D01*
X145640642Y-85354141D01*
X145531859Y-85245358D01*
X145403942Y-85159887D01*
X145261809Y-85101013D01*
X145110922Y-85071000D01*
X144957078Y-85071000D01*
X144806191Y-85101013D01*
X144664058Y-85159887D01*
X144536141Y-85245358D01*
X144427358Y-85354141D01*
X144341887Y-85482058D01*
X144283013Y-85624191D01*
X144261553Y-85732079D01*
X144248920Y-85744712D01*
X144133942Y-85667887D01*
X143991809Y-85609013D01*
X143840922Y-85579000D01*
X143687078Y-85579000D01*
X143536191Y-85609013D01*
X143394058Y-85667887D01*
X143266141Y-85753358D01*
X143157358Y-85862141D01*
X143071887Y-85990058D01*
X143013013Y-86132191D01*
X142983000Y-86283078D01*
X142983000Y-86436922D01*
X143013013Y-86587809D01*
X143071887Y-86729942D01*
X143133000Y-86821405D01*
X143133000Y-86860631D01*
X141687632Y-88306000D01*
X141079328Y-88306000D01*
X140987865Y-88244887D01*
X140845732Y-88186013D01*
X140694845Y-88156000D01*
X140541001Y-88156000D01*
X140390114Y-88186013D01*
X140247981Y-88244887D01*
X140120064Y-88330358D01*
X140011281Y-88439141D01*
X139925810Y-88567058D01*
X139866936Y-88709191D01*
X139836923Y-88860078D01*
X139836923Y-89013922D01*
X139866936Y-89164809D01*
X139925810Y-89306942D01*
X140011281Y-89434859D01*
X140120064Y-89543642D01*
X140247981Y-89629113D01*
X140277196Y-89641214D01*
X140251228Y-89771763D01*
X140251228Y-89925607D01*
X140281241Y-90076494D01*
X140340115Y-90218627D01*
X140425586Y-90346544D01*
X140509764Y-90430722D01*
X140488191Y-90435013D01*
X140346058Y-90493887D01*
X140218141Y-90579358D01*
X140109358Y-90688141D01*
X140023887Y-90816058D01*
X139965013Y-90958191D01*
X139935000Y-91109078D01*
X139935000Y-91262922D01*
X139965013Y-91413809D01*
X140023887Y-91555942D01*
X140109358Y-91683859D01*
X140121499Y-91696000D01*
X140044501Y-91696000D01*
X139943859Y-91595358D01*
X139815942Y-91509887D01*
X139673809Y-91451013D01*
X139522922Y-91421000D01*
X139369078Y-91421000D01*
X139218191Y-91451013D01*
X139076058Y-91509887D01*
X138948141Y-91595358D01*
X138839358Y-91704141D01*
X138753887Y-91832058D01*
X138695013Y-91974191D01*
X138665000Y-92125078D01*
X138665000Y-92278922D01*
X138695013Y-92429809D01*
X138753887Y-92571942D01*
X138839358Y-92699859D01*
X138948141Y-92808642D01*
X139076058Y-92894113D01*
X139218191Y-92952987D01*
X139369078Y-92983000D01*
X139522922Y-92983000D01*
X139673809Y-92952987D01*
X139815942Y-92894113D01*
X139943859Y-92808642D01*
X140044501Y-92708000D01*
X140217261Y-92708000D01*
X140189000Y-92850078D01*
X140189000Y-92990486D01*
X140145572Y-93043404D01*
X140115024Y-93100555D01*
X138473580Y-94742000D01*
X134538442Y-94742000D01*
X134593809Y-94730987D01*
X134735942Y-94672113D01*
X134863859Y-94586642D01*
X134964501Y-94486000D01*
X136881154Y-94486000D01*
X136906000Y-94488447D01*
X136930846Y-94486000D01*
X136930854Y-94486000D01*
X137005193Y-94478678D01*
X137100575Y-94449745D01*
X137188479Y-94402759D01*
X137265527Y-94339527D01*
X137281376Y-94320215D01*
X137348591Y-94253000D01*
X137490922Y-94253000D01*
X137641809Y-94222987D01*
X137783942Y-94164113D01*
X137911859Y-94078642D01*
X138020642Y-93969859D01*
X138106113Y-93841942D01*
X138164987Y-93699809D01*
X138195000Y-93548922D01*
X138195000Y-93395078D01*
X138164987Y-93244191D01*
X138106113Y-93102058D01*
X138020642Y-92974141D01*
X137911859Y-92865358D01*
X137783942Y-92779887D01*
X137641809Y-92721013D01*
X137490922Y-92691000D01*
X137337078Y-92691000D01*
X137186191Y-92721013D01*
X137044058Y-92779887D01*
X136916141Y-92865358D01*
X136807358Y-92974141D01*
X136721887Y-93102058D01*
X136663013Y-93244191D01*
X136633000Y-93395078D01*
X136633000Y-93474000D01*
X134964501Y-93474000D01*
X134863859Y-93373358D01*
X134735942Y-93287887D01*
X134593809Y-93229013D01*
X134442922Y-93199000D01*
X134289078Y-93199000D01*
X134138191Y-93229013D01*
X133996058Y-93287887D01*
X133868141Y-93373358D01*
X133759358Y-93482141D01*
X133673887Y-93610058D01*
X133615013Y-93752191D01*
X133585000Y-93903078D01*
X133585000Y-94056922D01*
X133615013Y-94207809D01*
X133673887Y-94349942D01*
X133759358Y-94477859D01*
X133868141Y-94586642D01*
X133996058Y-94672113D01*
X134138191Y-94730987D01*
X134193558Y-94742000D01*
X129310944Y-94742000D01*
X129286000Y-94739543D01*
X129261056Y-94742000D01*
X129261053Y-94742000D01*
X129186415Y-94749351D01*
X129090657Y-94778399D01*
X129002405Y-94825571D01*
X128925052Y-94889052D01*
X128909145Y-94908435D01*
X126246581Y-97570999D01*
X124678370Y-97570999D01*
X125173514Y-97075856D01*
X125197589Y-97056098D01*
X125217346Y-97032024D01*
X125217349Y-97032021D01*
X125276442Y-96960016D01*
X125335035Y-96850397D01*
X125353356Y-96790000D01*
X125360753Y-96765615D01*
X128186268Y-93940101D01*
X128210343Y-93920343D01*
X128242338Y-93881358D01*
X128289196Y-93824261D01*
X128347789Y-93714642D01*
X128383870Y-93595698D01*
X128396053Y-93472000D01*
X128393000Y-93441002D01*
X128393000Y-91139405D01*
X128454113Y-91047942D01*
X128512987Y-90905809D01*
X128543000Y-90754922D01*
X128543000Y-90601078D01*
X128512987Y-90450191D01*
X128454113Y-90308058D01*
X128368642Y-90180141D01*
X128259859Y-90071358D01*
X128131942Y-89985887D01*
X127989809Y-89927013D01*
X127838922Y-89897000D01*
X127685078Y-89897000D01*
X127534191Y-89927013D01*
X127508000Y-89937862D01*
X127508000Y-88315078D01*
X128251000Y-88315078D01*
X128251000Y-88468922D01*
X128281013Y-88619809D01*
X128339887Y-88761942D01*
X128401000Y-88853405D01*
X128401000Y-88869010D01*
X128397948Y-88900000D01*
X128401000Y-88930990D01*
X128401000Y-88930997D01*
X128410130Y-89023697D01*
X128446211Y-89142641D01*
X128504804Y-89252260D01*
X128583657Y-89348343D01*
X128607737Y-89368105D01*
X128767553Y-89527921D01*
X128789013Y-89635809D01*
X128847887Y-89777942D01*
X128933358Y-89905859D01*
X129042141Y-90014642D01*
X129170058Y-90100113D01*
X129312191Y-90158987D01*
X129367558Y-90170000D01*
X129312191Y-90181013D01*
X129170058Y-90239887D01*
X129042141Y-90325358D01*
X128933358Y-90434141D01*
X128847887Y-90562058D01*
X128789013Y-90704191D01*
X128759000Y-90855078D01*
X128759000Y-91008922D01*
X128789013Y-91159809D01*
X128847887Y-91301942D01*
X128933358Y-91429859D01*
X129042141Y-91538642D01*
X129170058Y-91624113D01*
X129312191Y-91682987D01*
X129463078Y-91713000D01*
X129616922Y-91713000D01*
X129767809Y-91682987D01*
X129909942Y-91624113D01*
X130037859Y-91538642D01*
X130136501Y-91440000D01*
X132499499Y-91440000D01*
X132598141Y-91538642D01*
X132726058Y-91624113D01*
X132868191Y-91682987D01*
X133019078Y-91713000D01*
X133172922Y-91713000D01*
X133323809Y-91682987D01*
X133465942Y-91624113D01*
X133593859Y-91538642D01*
X133702642Y-91429859D01*
X133788113Y-91301942D01*
X133846987Y-91159809D01*
X133877000Y-91008922D01*
X133877000Y-90855078D01*
X133846987Y-90704191D01*
X133788113Y-90562058D01*
X133702642Y-90434141D01*
X133593859Y-90325358D01*
X133524645Y-90279111D01*
X133534113Y-90264942D01*
X133592987Y-90122809D01*
X133593030Y-90122594D01*
X133630191Y-90137987D01*
X133781078Y-90168000D01*
X133934922Y-90168000D01*
X134085809Y-90137987D01*
X134227942Y-90079113D01*
X134355859Y-89993642D01*
X134464642Y-89884859D01*
X134550113Y-89756942D01*
X134608987Y-89614809D01*
X134639000Y-89463922D01*
X134639000Y-89310078D01*
X134608987Y-89159191D01*
X134550113Y-89017058D01*
X134464642Y-88889141D01*
X134355859Y-88780358D01*
X134227942Y-88694887D01*
X134085809Y-88636013D01*
X133934922Y-88606000D01*
X133781078Y-88606000D01*
X133630191Y-88636013D01*
X133488058Y-88694887D01*
X133397288Y-88755537D01*
X133371000Y-88752948D01*
X133340009Y-88756000D01*
X133340002Y-88756000D01*
X133247302Y-88765130D01*
X133128358Y-88801211D01*
X133018739Y-88859804D01*
X132957404Y-88910141D01*
X132922657Y-88938657D01*
X132902899Y-88962732D01*
X132748293Y-89117339D01*
X132614191Y-89144013D01*
X132472058Y-89202887D01*
X132349167Y-89285000D01*
X130311835Y-89285000D01*
X130290987Y-89180191D01*
X130232113Y-89038058D01*
X130146642Y-88910141D01*
X130037859Y-88801358D01*
X129909942Y-88715887D01*
X129767809Y-88657013D01*
X129767594Y-88656970D01*
X129782987Y-88619809D01*
X129813000Y-88468922D01*
X129813000Y-88315078D01*
X129782987Y-88164191D01*
X129724113Y-88022058D01*
X129638642Y-87894141D01*
X129529859Y-87785358D01*
X129401942Y-87699887D01*
X129259809Y-87641013D01*
X129108922Y-87611000D01*
X128955078Y-87611000D01*
X128804191Y-87641013D01*
X128662058Y-87699887D01*
X128534141Y-87785358D01*
X128425358Y-87894141D01*
X128339887Y-88022058D01*
X128281013Y-88164191D01*
X128251000Y-88315078D01*
X127508000Y-88315078D01*
X127508000Y-79144458D01*
X131247162Y-75405296D01*
X131259343Y-75401601D01*
X131347595Y-75354429D01*
X131424948Y-75290948D01*
X131440855Y-75271565D01*
X132271421Y-74441000D01*
X132410922Y-74441000D01*
X132561809Y-74410987D01*
X132703942Y-74352113D01*
X132831859Y-74266642D01*
X132940642Y-74157859D01*
X133026113Y-74029942D01*
X133084987Y-73887809D01*
X133115000Y-73736922D01*
X133115000Y-73583078D01*
X133084987Y-73432191D01*
X133026113Y-73290058D01*
X132940642Y-73162141D01*
X132930501Y-73152000D01*
X132940642Y-73141859D01*
X133026113Y-73013942D01*
X133084987Y-72871809D01*
X133115000Y-72720922D01*
X133115000Y-72567078D01*
X133084987Y-72416191D01*
X133026113Y-72274058D01*
X132940642Y-72146141D01*
X132831859Y-72037358D01*
X132703942Y-71951887D01*
X132561809Y-71893013D01*
X132410922Y-71863000D01*
X132353000Y-71863000D01*
X132353000Y-71805078D01*
X132322987Y-71654191D01*
X132264113Y-71512058D01*
X132178642Y-71384141D01*
X132069859Y-71275358D01*
X131941942Y-71189887D01*
X131799809Y-71131013D01*
X131648922Y-71101000D01*
X131495078Y-71101000D01*
X131344191Y-71131013D01*
X131202058Y-71189887D01*
X131074141Y-71275358D01*
X130965358Y-71384141D01*
X130879887Y-71512058D01*
X130821013Y-71654191D01*
X130791000Y-71805078D01*
X130791000Y-71944580D01*
X128486843Y-74248737D01*
X128486843Y-72556000D01*
X128479487Y-72481311D01*
X128457701Y-72409492D01*
X128422322Y-72343304D01*
X128374711Y-72285289D01*
X128316696Y-72237678D01*
X128250508Y-72202299D01*
X128178689Y-72180513D01*
X128104000Y-72173157D01*
X126404000Y-72173157D01*
X126329311Y-72180513D01*
X126257492Y-72202299D01*
X126191304Y-72237678D01*
X126133289Y-72285289D01*
X126085678Y-72343304D01*
X126050299Y-72409492D01*
X126028513Y-72481311D01*
X126021157Y-72556000D01*
X126021157Y-74256000D01*
X126028513Y-74330689D01*
X126050299Y-74402508D01*
X126085678Y-74468696D01*
X126133289Y-74526711D01*
X126191304Y-74574322D01*
X126257492Y-74609701D01*
X126329311Y-74631487D01*
X126404000Y-74638843D01*
X128096737Y-74638843D01*
X125134435Y-77601145D01*
X125115052Y-77617052D01*
X125051571Y-77694405D01*
X125004399Y-77782658D01*
X124975351Y-77878416D01*
X124971419Y-77918343D01*
X124965543Y-77978000D01*
X124968000Y-78002944D01*
X124968001Y-89705578D01*
X124272040Y-90401539D01*
X124195859Y-90325358D01*
X124067942Y-90239887D01*
X123925809Y-90181013D01*
X123774922Y-90151000D01*
X123621078Y-90151000D01*
X123470191Y-90181013D01*
X123328058Y-90239887D01*
X123200141Y-90325358D01*
X123091358Y-90434141D01*
X123005887Y-90562058D01*
X122947013Y-90704191D01*
X122917000Y-90855078D01*
X122917000Y-91008922D01*
X122947013Y-91159809D01*
X123005887Y-91301942D01*
X123091358Y-91429859D01*
X123200141Y-91538642D01*
X123328058Y-91624113D01*
X123470191Y-91682987D01*
X123621078Y-91713000D01*
X123774922Y-91713000D01*
X123925809Y-91682987D01*
X124067942Y-91624113D01*
X124195859Y-91538642D01*
X124294501Y-91440000D01*
X124435056Y-91440000D01*
X124460000Y-91442457D01*
X124484944Y-91440000D01*
X124484947Y-91440000D01*
X124492156Y-91439290D01*
X122614057Y-93317389D01*
X122474555Y-93317389D01*
X122323668Y-93347402D01*
X122181535Y-93406276D01*
X122053618Y-93491747D01*
X121944835Y-93600530D01*
X121859364Y-93728447D01*
X121800490Y-93870580D01*
X121770477Y-94021467D01*
X121770477Y-94175311D01*
X121800490Y-94326198D01*
X121859364Y-94468331D01*
X121944835Y-94596248D01*
X122053618Y-94705031D01*
X122181535Y-94790502D01*
X122323668Y-94849376D01*
X122474555Y-94879389D01*
X122628399Y-94879389D01*
X122779286Y-94849376D01*
X122921419Y-94790502D01*
X123049336Y-94705031D01*
X123158119Y-94596248D01*
X123178798Y-94565299D01*
X123200141Y-94586642D01*
X123328058Y-94672113D01*
X123470191Y-94730987D01*
X123525558Y-94742000D01*
X123470191Y-94753013D01*
X123328058Y-94811887D01*
X123200141Y-94897358D01*
X123101499Y-94996000D01*
X117812421Y-94996000D01*
X116708855Y-93892435D01*
X116692948Y-93873052D01*
X116615595Y-93809571D01*
X116527343Y-93762399D01*
X116431585Y-93733351D01*
X116356947Y-93726000D01*
X116356944Y-93726000D01*
X116332000Y-93723543D01*
X116307056Y-93726000D01*
X116166501Y-93726000D01*
X116067859Y-93627358D01*
X115939942Y-93541887D01*
X115797809Y-93483013D01*
X115646922Y-93453000D01*
X115493078Y-93453000D01*
X115342191Y-93483013D01*
X115200058Y-93541887D01*
X115072141Y-93627358D01*
X114963358Y-93736141D01*
X114877887Y-93864058D01*
X114819013Y-94006191D01*
X114789000Y-94157078D01*
X114789000Y-94240906D01*
X114738114Y-94118058D01*
X114652643Y-93990141D01*
X114543860Y-93881358D01*
X114415943Y-93795887D01*
X114273810Y-93737013D01*
X114122923Y-93707000D01*
X113969079Y-93707000D01*
X113818192Y-93737013D01*
X113676059Y-93795887D01*
X113548142Y-93881358D01*
X113439359Y-93990141D01*
X113353888Y-94118058D01*
X113295014Y-94260191D01*
X113265001Y-94411078D01*
X113265001Y-94564922D01*
X113295014Y-94715809D01*
X113353888Y-94857942D01*
X113439359Y-94985859D01*
X113538002Y-95084502D01*
X113538001Y-96809019D01*
X113535544Y-96833963D01*
X113538001Y-96858907D01*
X113538001Y-96858909D01*
X113545352Y-96933547D01*
X113574400Y-97029305D01*
X113621572Y-97117558D01*
X113685053Y-97194911D01*
X113704437Y-97210818D01*
X113801000Y-97307382D01*
X113801001Y-99277377D01*
X113741821Y-99295329D01*
X113632411Y-99353810D01*
X113536512Y-99432512D01*
X113457810Y-99528411D01*
X113399329Y-99637821D01*
X113363317Y-99756538D01*
X113351157Y-99879999D01*
X113351157Y-100780001D01*
X113363317Y-100903462D01*
X113399329Y-101022179D01*
X113457810Y-101131589D01*
X113536512Y-101227488D01*
X113632411Y-101306190D01*
X113741821Y-101364671D01*
X113860538Y-101400683D01*
X113983999Y-101412843D01*
X114634001Y-101412843D01*
X114757462Y-101400683D01*
X114876179Y-101364671D01*
X114985589Y-101306190D01*
X115081488Y-101227488D01*
X115160190Y-101131589D01*
X115218671Y-101022179D01*
X115254683Y-100903462D01*
X115266843Y-100780001D01*
X115266843Y-99879999D01*
X115254683Y-99756538D01*
X115218671Y-99637821D01*
X115160190Y-99528411D01*
X115081488Y-99432512D01*
X114985589Y-99353810D01*
X114876179Y-99295329D01*
X114817000Y-99277377D01*
X114817000Y-97121906D01*
X114819457Y-97096962D01*
X114816821Y-97070201D01*
X114809649Y-96997377D01*
X114780601Y-96901619D01*
X114733429Y-96813367D01*
X114669948Y-96736014D01*
X114650560Y-96720103D01*
X114554001Y-96623544D01*
X114554001Y-95084501D01*
X114652643Y-94985859D01*
X114738114Y-94857942D01*
X114796988Y-94715809D01*
X114827001Y-94564922D01*
X114827001Y-94481094D01*
X114877887Y-94603942D01*
X114963358Y-94731859D01*
X115072141Y-94840642D01*
X115200058Y-94926113D01*
X115342191Y-94984987D01*
X115493078Y-95015000D01*
X115646922Y-95015000D01*
X115797809Y-94984987D01*
X115939942Y-94926113D01*
X116067859Y-94840642D01*
X116144040Y-94764461D01*
X117225150Y-95845571D01*
X117241052Y-95864948D01*
X117260429Y-95880850D01*
X117318404Y-95928429D01*
X117372901Y-95957558D01*
X117406657Y-95975601D01*
X117502415Y-96004649D01*
X117577053Y-96012000D01*
X117577055Y-96012000D01*
X117601999Y-96014457D01*
X117626943Y-96012000D01*
X120505468Y-96012000D01*
X120406141Y-96078368D01*
X120297358Y-96187151D01*
X120211887Y-96315068D01*
X120153013Y-96457201D01*
X120123000Y-96608088D01*
X120123000Y-96761932D01*
X120153013Y-96912819D01*
X120211887Y-97054952D01*
X120297358Y-97182869D01*
X120406141Y-97291652D01*
X120534058Y-97377123D01*
X120676191Y-97435997D01*
X120827078Y-97466010D01*
X120966580Y-97466010D01*
X122648135Y-99147565D01*
X122664042Y-99166948D01*
X122741395Y-99230429D01*
X122829647Y-99277601D01*
X122925405Y-99306649D01*
X123000043Y-99314000D01*
X123000046Y-99314000D01*
X123024990Y-99316457D01*
X123049934Y-99314000D01*
X124371499Y-99314000D01*
X124470141Y-99412642D01*
X124598058Y-99498113D01*
X124674018Y-99529577D01*
X124287280Y-99529577D01*
X124212591Y-99536933D01*
X124140772Y-99558719D01*
X124074584Y-99594098D01*
X124016569Y-99641709D01*
X123968958Y-99699724D01*
X123933579Y-99765912D01*
X123911793Y-99837731D01*
X123904437Y-99912420D01*
X123904437Y-103912420D01*
X123906235Y-103930680D01*
X121112325Y-103930680D01*
X121114123Y-103912420D01*
X121114123Y-99912420D01*
X121106767Y-99837731D01*
X121084981Y-99765912D01*
X121049602Y-99699724D01*
X121001991Y-99641709D01*
X120943976Y-99594098D01*
X120877788Y-99558719D01*
X120805969Y-99536933D01*
X120731280Y-99529577D01*
X119207280Y-99529577D01*
X119132591Y-99536933D01*
X119060772Y-99558719D01*
X118994584Y-99594098D01*
X118936569Y-99641709D01*
X118888958Y-99699724D01*
X118853579Y-99765912D01*
X118831793Y-99837731D01*
X118824437Y-99912420D01*
X118824437Y-100326017D01*
X117875000Y-99376580D01*
X117875000Y-99237078D01*
X117844987Y-99086191D01*
X117786113Y-98944058D01*
X117700642Y-98816141D01*
X117591859Y-98707358D01*
X117463942Y-98621887D01*
X117321809Y-98563013D01*
X117170922Y-98533000D01*
X117017078Y-98533000D01*
X116866191Y-98563013D01*
X116724058Y-98621887D01*
X116596141Y-98707358D01*
X116487358Y-98816141D01*
X116401887Y-98944058D01*
X116343013Y-99086191D01*
X116313000Y-99237078D01*
X116313000Y-99390922D01*
X116343013Y-99541809D01*
X116401887Y-99683942D01*
X116487358Y-99811859D01*
X116596141Y-99920642D01*
X116724058Y-100006113D01*
X116866191Y-100064987D01*
X117017078Y-100095000D01*
X117156580Y-100095000D01*
X118824437Y-101762857D01*
X118824437Y-103912420D01*
X118826235Y-103930680D01*
X117947061Y-103930680D01*
X117927120Y-103928716D01*
X117907180Y-103930680D01*
X117907179Y-103930680D01*
X117847530Y-103936555D01*
X117770999Y-103959770D01*
X117700467Y-103997470D01*
X117638646Y-104048206D01*
X117587910Y-104110027D01*
X117550210Y-104180559D01*
X117526995Y-104257090D01*
X117519156Y-104336680D01*
X117521121Y-104356631D01*
X117521120Y-107846500D01*
X113246743Y-107846500D01*
X113246743Y-106957317D01*
X113274477Y-106929583D01*
X113669666Y-106929583D01*
X113708563Y-107057809D01*
X113806620Y-107241261D01*
X113938584Y-107402057D01*
X114099380Y-107534020D01*
X114282832Y-107632077D01*
X114481889Y-107692460D01*
X114688900Y-107712849D01*
X114895912Y-107692460D01*
X115094969Y-107632077D01*
X115278421Y-107534020D01*
X115439217Y-107402057D01*
X115571180Y-107241261D01*
X115669237Y-107057808D01*
X115729620Y-106858751D01*
X115744900Y-106703611D01*
X115744900Y-106249868D01*
X115729620Y-106094728D01*
X115669237Y-105895671D01*
X115571180Y-105712219D01*
X115439217Y-105551423D01*
X115324041Y-105456900D01*
X115372111Y-105417451D01*
X115419722Y-105359436D01*
X115455101Y-105293248D01*
X115476887Y-105221429D01*
X115484243Y-105146740D01*
X115484243Y-104446740D01*
X115476887Y-104372051D01*
X115459926Y-104316136D01*
X115464387Y-104301429D01*
X115471743Y-104226740D01*
X115471743Y-102726740D01*
X115464387Y-102652051D01*
X115442601Y-102580232D01*
X115407222Y-102514044D01*
X115359611Y-102456029D01*
X115301596Y-102408418D01*
X115235408Y-102373039D01*
X115163589Y-102351253D01*
X115088900Y-102343897D01*
X113635918Y-102343897D01*
X113608900Y-102341236D01*
X113581882Y-102343897D01*
X113088900Y-102343897D01*
X113014211Y-102351253D01*
X112942392Y-102373039D01*
X112876204Y-102408418D01*
X112818189Y-102456029D01*
X112770578Y-102514044D01*
X112735199Y-102580232D01*
X112713413Y-102652051D01*
X112706057Y-102726740D01*
X112706057Y-103045820D01*
X112691371Y-103094233D01*
X112677900Y-103231010D01*
X112677900Y-103722471D01*
X112691371Y-103859248D01*
X112706057Y-103907661D01*
X112706057Y-104226740D01*
X112713413Y-104301429D01*
X112735199Y-104373248D01*
X112770578Y-104439436D01*
X112818189Y-104497451D01*
X112876204Y-104545062D01*
X112881057Y-104547656D01*
X112881057Y-105115587D01*
X112863900Y-105113897D01*
X111433900Y-105113897D01*
X111359211Y-105121253D01*
X111287392Y-105143039D01*
X111221204Y-105178418D01*
X111188900Y-105204929D01*
X111156596Y-105178418D01*
X111090408Y-105143039D01*
X111018589Y-105121253D01*
X110943900Y-105113897D01*
X110444752Y-105113897D01*
X110453600Y-105097343D01*
X110482648Y-105001584D01*
X110492457Y-104901999D01*
X110482861Y-104804583D01*
X110738900Y-104804583D01*
X110813589Y-104797227D01*
X110863900Y-104781965D01*
X110914211Y-104797227D01*
X110988900Y-104804583D01*
X111388900Y-104804583D01*
X111463589Y-104797227D01*
X111513900Y-104781965D01*
X111564211Y-104797227D01*
X111638900Y-104804583D01*
X112038900Y-104804583D01*
X112113589Y-104797227D01*
X112185408Y-104775441D01*
X112251596Y-104740062D01*
X112309611Y-104692451D01*
X112357222Y-104634436D01*
X112392601Y-104568248D01*
X112414387Y-104496429D01*
X112421743Y-104421740D01*
X112421743Y-102771740D01*
X112414387Y-102697051D01*
X112392601Y-102625232D01*
X112357222Y-102559044D01*
X112309611Y-102501029D01*
X112251596Y-102453418D01*
X112185408Y-102418039D01*
X112113589Y-102396253D01*
X112038900Y-102388897D01*
X111638900Y-102388897D01*
X111564211Y-102396253D01*
X111513900Y-102411515D01*
X111463589Y-102396253D01*
X111388900Y-102388897D01*
X110988900Y-102388897D01*
X110914211Y-102396253D01*
X110863900Y-102411515D01*
X110813589Y-102396253D01*
X110738900Y-102388897D01*
X110513317Y-102388897D01*
X110510770Y-102363040D01*
X110494718Y-102310123D01*
X110494718Y-102201295D01*
X110464705Y-102050408D01*
X110405831Y-101908275D01*
X110320360Y-101780358D01*
X110211577Y-101671575D01*
X110083660Y-101586104D01*
X109941527Y-101527230D01*
X109790640Y-101497217D01*
X109670409Y-101497217D01*
X109633860Y-101486130D01*
X109541160Y-101477000D01*
X109541152Y-101477000D01*
X109510162Y-101473948D01*
X109479172Y-101477000D01*
X106179369Y-101477000D01*
X105624105Y-100921737D01*
X105604343Y-100897657D01*
X105508261Y-100818804D01*
X105398642Y-100760211D01*
X105279698Y-100724130D01*
X105186998Y-100715000D01*
X105186990Y-100715000D01*
X105156000Y-100711948D01*
X105125010Y-100715000D01*
X105109405Y-100715000D01*
X105017942Y-100653887D01*
X104875809Y-100595013D01*
X104724922Y-100565000D01*
X104571078Y-100565000D01*
X104420191Y-100595013D01*
X104383030Y-100610406D01*
X104382987Y-100610191D01*
X104324113Y-100468058D01*
X104238642Y-100340141D01*
X104129859Y-100231358D01*
X104001942Y-100145887D01*
X103859809Y-100087013D01*
X103708922Y-100057000D01*
X103555078Y-100057000D01*
X103404191Y-100087013D01*
X103262058Y-100145887D01*
X103134141Y-100231358D01*
X103025358Y-100340141D01*
X102939887Y-100468058D01*
X102881013Y-100610191D01*
X102851000Y-100761078D01*
X102851000Y-100914922D01*
X102881013Y-101065809D01*
X102939887Y-101207942D01*
X103025358Y-101335859D01*
X103134141Y-101444642D01*
X103262058Y-101530113D01*
X103404191Y-101588987D01*
X103512079Y-101610447D01*
X103671895Y-101770263D01*
X103691657Y-101794343D01*
X103787739Y-101873196D01*
X103897358Y-101931789D01*
X104016302Y-101967870D01*
X104109002Y-101977000D01*
X104109011Y-101977000D01*
X104139999Y-101980052D01*
X104170987Y-101977000D01*
X104186595Y-101977000D01*
X104278058Y-102038113D01*
X104420191Y-102096987D01*
X104571078Y-102127000D01*
X104724922Y-102127000D01*
X104875809Y-102096987D01*
X104973962Y-102056330D01*
X105449899Y-102532268D01*
X105469657Y-102556343D01*
X105493732Y-102576101D01*
X105493734Y-102576103D01*
X105565500Y-102635000D01*
X105565739Y-102635196D01*
X105675358Y-102693789D01*
X105794302Y-102729870D01*
X105887002Y-102739000D01*
X105887009Y-102739000D01*
X105918000Y-102742052D01*
X105948990Y-102739000D01*
X106956819Y-102739000D01*
X106956057Y-102746740D01*
X106956057Y-104246740D01*
X106963413Y-104321429D01*
X106964841Y-104326136D01*
X106950913Y-104372051D01*
X106943557Y-104446740D01*
X106943557Y-105146740D01*
X106950913Y-105221429D01*
X106972699Y-105293248D01*
X107008078Y-105359436D01*
X107055689Y-105417451D01*
X107078758Y-105436383D01*
X106938583Y-105551423D01*
X106806620Y-105712219D01*
X106708563Y-105895672D01*
X106648180Y-106094729D01*
X106632900Y-106249869D01*
X106632900Y-106703612D01*
X106648180Y-106858752D01*
X106708563Y-107057809D01*
X106806620Y-107241261D01*
X106938584Y-107402057D01*
X107099380Y-107534020D01*
X107282832Y-107632077D01*
X107481889Y-107692460D01*
X107688900Y-107712849D01*
X107895912Y-107692460D01*
X108094969Y-107632077D01*
X108278421Y-107534020D01*
X108439217Y-107402057D01*
X108571180Y-107241261D01*
X108669237Y-107057808D01*
X108708133Y-106929583D01*
X109131057Y-106929583D01*
X109131057Y-107846500D01*
X105234403Y-107846500D01*
X96076807Y-91985177D01*
X101409887Y-97318258D01*
X101429645Y-97342333D01*
X101453720Y-97362091D01*
X101453722Y-97362093D01*
X101525727Y-97421186D01*
X101635346Y-97479779D01*
X101754290Y-97515860D01*
X101877988Y-97528043D01*
X101908986Y-97524990D01*
X109978990Y-97524990D01*
X109978990Y-97625000D01*
X109975938Y-97655990D01*
X109978990Y-97686980D01*
X109978990Y-97686988D01*
X109988120Y-97779688D01*
X109994589Y-97801013D01*
X110024201Y-97898631D01*
X110082794Y-98008250D01*
X110141887Y-98080255D01*
X110141890Y-98080258D01*
X110161648Y-98104333D01*
X110185723Y-98124091D01*
X110700606Y-98638974D01*
X110092423Y-99247157D01*
X109919999Y-99247157D01*
X109796538Y-99259317D01*
X109677821Y-99295329D01*
X109568411Y-99353810D01*
X109472512Y-99432512D01*
X109393810Y-99528411D01*
X109335329Y-99637821D01*
X109299317Y-99756538D01*
X109294271Y-99807770D01*
X109209859Y-99723358D01*
X109110474Y-99656951D01*
X109104671Y-99637821D01*
X109046190Y-99528411D01*
X108967488Y-99432512D01*
X108871589Y-99353810D01*
X108762179Y-99295329D01*
X108643462Y-99259317D01*
X108520001Y-99247157D01*
X107869999Y-99247157D01*
X107746538Y-99259317D01*
X107627821Y-99295329D01*
X107518411Y-99353810D01*
X107422512Y-99432512D01*
X107343810Y-99528411D01*
X107285329Y-99637821D01*
X107249317Y-99756538D01*
X107237157Y-99879999D01*
X107237157Y-100780001D01*
X107249317Y-100903462D01*
X107285329Y-101022179D01*
X107343810Y-101131589D01*
X107422512Y-101227488D01*
X107518411Y-101306190D01*
X107627821Y-101364671D01*
X107746538Y-101400683D01*
X107869999Y-101412843D01*
X108520001Y-101412843D01*
X108643462Y-101400683D01*
X108762179Y-101364671D01*
X108871589Y-101306190D01*
X108967488Y-101227488D01*
X109046190Y-101131589D01*
X109104671Y-101022179D01*
X109110474Y-101003049D01*
X109209859Y-100936642D01*
X109294271Y-100852230D01*
X109299317Y-100903462D01*
X109335329Y-101022179D01*
X109393810Y-101131589D01*
X109472512Y-101227488D01*
X109568411Y-101306190D01*
X109677821Y-101364671D01*
X109796538Y-101400683D01*
X109919999Y-101412843D01*
X110570001Y-101412843D01*
X110693462Y-101400683D01*
X110812179Y-101364671D01*
X110921589Y-101306190D01*
X111017488Y-101227488D01*
X111096190Y-101131589D01*
X111154671Y-101022179D01*
X111190683Y-100903462D01*
X111202843Y-100780001D01*
X111202843Y-99879999D01*
X111190683Y-99756538D01*
X111154671Y-99637821D01*
X111149073Y-99627348D01*
X111443421Y-99333000D01*
X111568580Y-99333000D01*
X111586959Y-99351379D01*
X111582411Y-99353810D01*
X111486512Y-99432512D01*
X111407810Y-99528411D01*
X111349329Y-99637821D01*
X111313317Y-99756538D01*
X111301157Y-99879999D01*
X111301157Y-100780001D01*
X111313317Y-100903462D01*
X111349329Y-101022179D01*
X111407810Y-101131589D01*
X111486512Y-101227488D01*
X111582411Y-101306190D01*
X111691821Y-101364671D01*
X111810538Y-101400683D01*
X111933999Y-101412843D01*
X112584001Y-101412843D01*
X112707462Y-101400683D01*
X112826179Y-101364671D01*
X112935589Y-101306190D01*
X113031488Y-101227488D01*
X113110190Y-101131589D01*
X113168671Y-101022179D01*
X113204683Y-100903462D01*
X113216843Y-100780001D01*
X113216843Y-99879999D01*
X113204683Y-99756538D01*
X113168671Y-99637821D01*
X113110190Y-99528411D01*
X113031488Y-99432512D01*
X112935589Y-99353810D01*
X112826179Y-99295329D01*
X112766728Y-99277295D01*
X112759649Y-99205415D01*
X112730601Y-99109657D01*
X112683429Y-99021405D01*
X112619948Y-98944052D01*
X112600565Y-98928145D01*
X112287000Y-98614580D01*
X112287000Y-98475078D01*
X112256987Y-98324191D01*
X112198113Y-98182058D01*
X112112642Y-98054141D01*
X112003859Y-97945358D01*
X111875942Y-97859887D01*
X111733809Y-97801013D01*
X111625921Y-97779553D01*
X111240990Y-97394622D01*
X111240990Y-96924988D01*
X111244043Y-96893990D01*
X111231860Y-96770292D01*
X111195779Y-96651348D01*
X111137186Y-96541729D01*
X111058333Y-96445647D01*
X110962251Y-96366794D01*
X110852632Y-96308201D01*
X110733688Y-96272120D01*
X110640988Y-96262990D01*
X110609990Y-96259937D01*
X110578992Y-96262990D01*
X102139357Y-96262990D01*
X99017445Y-93141078D01*
X111995000Y-93141078D01*
X111995000Y-93294922D01*
X112025013Y-93445809D01*
X112083887Y-93587942D01*
X112169358Y-93715859D01*
X112278141Y-93824642D01*
X112406058Y-93910113D01*
X112548191Y-93968987D01*
X112699078Y-93999000D01*
X112852922Y-93999000D01*
X113003809Y-93968987D01*
X113145942Y-93910113D01*
X113273859Y-93824642D01*
X113382642Y-93715859D01*
X113468113Y-93587942D01*
X113526987Y-93445809D01*
X113557000Y-93294922D01*
X113557000Y-93141078D01*
X113526987Y-92990191D01*
X113468113Y-92848058D01*
X113382642Y-92720141D01*
X113273859Y-92611358D01*
X113145942Y-92525887D01*
X113003809Y-92467013D01*
X112852922Y-92437000D01*
X112699078Y-92437000D01*
X112548191Y-92467013D01*
X112406058Y-92525887D01*
X112278141Y-92611358D01*
X112169358Y-92720141D01*
X112083887Y-92848058D01*
X112025013Y-92990191D01*
X111995000Y-93141078D01*
X99017445Y-93141078D01*
X98001445Y-92125078D01*
X108439000Y-92125078D01*
X108439000Y-92278922D01*
X108469013Y-92429809D01*
X108527887Y-92571942D01*
X108613358Y-92699859D01*
X108722141Y-92808642D01*
X108850058Y-92894113D01*
X108992191Y-92952987D01*
X109143078Y-92983000D01*
X109296922Y-92983000D01*
X109447809Y-92952987D01*
X109589942Y-92894113D01*
X109717859Y-92808642D01*
X109826642Y-92699859D01*
X109912113Y-92571942D01*
X109970987Y-92429809D01*
X110001000Y-92278922D01*
X110001000Y-92125078D01*
X109970987Y-91974191D01*
X109912113Y-91832058D01*
X109826642Y-91704141D01*
X109717859Y-91595358D01*
X109589942Y-91509887D01*
X109447809Y-91451013D01*
X109296922Y-91421000D01*
X109143078Y-91421000D01*
X108992191Y-91451013D01*
X108850058Y-91509887D01*
X108722141Y-91595358D01*
X108613358Y-91704141D01*
X108527887Y-91832058D01*
X108469013Y-91974191D01*
X108439000Y-92125078D01*
X98001445Y-92125078D01*
X96731001Y-90854635D01*
X96731001Y-86703001D01*
X96734054Y-86672003D01*
X96721871Y-86548305D01*
X96685790Y-86429361D01*
X96627197Y-86319742D01*
X96568104Y-86247737D01*
X96568102Y-86247735D01*
X96548344Y-86223660D01*
X96524269Y-86203902D01*
X95881210Y-85560843D01*
X97116000Y-85560843D01*
X97190689Y-85553487D01*
X97262508Y-85531701D01*
X97328696Y-85496322D01*
X97386711Y-85448711D01*
X97434322Y-85390696D01*
X97469701Y-85324508D01*
X97491487Y-85252689D01*
X97498843Y-85178000D01*
X97498843Y-84836000D01*
X98970157Y-84836000D01*
X98970157Y-85178000D01*
X98977513Y-85252689D01*
X98999299Y-85324508D01*
X99034678Y-85390696D01*
X99082289Y-85448711D01*
X99140304Y-85496322D01*
X99206492Y-85531701D01*
X99278311Y-85553487D01*
X99353000Y-85560843D01*
X101053000Y-85560843D01*
X101127689Y-85553487D01*
X101199508Y-85531701D01*
X101265696Y-85496322D01*
X101323711Y-85448711D01*
X101371322Y-85390696D01*
X101406701Y-85324508D01*
X101428487Y-85252689D01*
X101435843Y-85178000D01*
X101435843Y-83739264D01*
X101854000Y-84157421D01*
X101854001Y-87351046D01*
X101851543Y-87376000D01*
X101857321Y-87434656D01*
X101861352Y-87475585D01*
X101873023Y-87514058D01*
X101890400Y-87571343D01*
X101937571Y-87659595D01*
X101961421Y-87688656D01*
X102001053Y-87736948D01*
X102020430Y-87752850D01*
X105506151Y-91238572D01*
X105522053Y-91257949D01*
X105541430Y-91273851D01*
X105599405Y-91321430D01*
X105636688Y-91341358D01*
X105687658Y-91368602D01*
X105783416Y-91397650D01*
X105858054Y-91405001D01*
X105858056Y-91405001D01*
X105883000Y-91407458D01*
X105907944Y-91405001D01*
X115928634Y-91405001D01*
X115948208Y-91424575D01*
X116076125Y-91510046D01*
X116218258Y-91568920D01*
X116369145Y-91598933D01*
X116522989Y-91598933D01*
X116673876Y-91568920D01*
X116816009Y-91510046D01*
X116943926Y-91424575D01*
X117052709Y-91315792D01*
X117138180Y-91187875D01*
X117197054Y-91045742D01*
X117227067Y-90894855D01*
X117227067Y-90741011D01*
X117197054Y-90590124D01*
X117138180Y-90447991D01*
X117052709Y-90320074D01*
X116943926Y-90211291D01*
X116816009Y-90125820D01*
X116673876Y-90066946D01*
X116522989Y-90036933D01*
X116369145Y-90036933D01*
X116218258Y-90066946D01*
X116076125Y-90125820D01*
X115948208Y-90211291D01*
X115839425Y-90320074D01*
X115793370Y-90389001D01*
X106093422Y-90389001D01*
X102870000Y-87165580D01*
X102870000Y-86702501D01*
X102880141Y-86712642D01*
X103008058Y-86798113D01*
X103150191Y-86856987D01*
X103301078Y-86887000D01*
X103440580Y-86887000D01*
X106303149Y-89749570D01*
X106319052Y-89768948D01*
X106338429Y-89784850D01*
X106396404Y-89832429D01*
X106461883Y-89867428D01*
X106484657Y-89879601D01*
X106580415Y-89908649D01*
X106655053Y-89916000D01*
X106655055Y-89916000D01*
X106679999Y-89918457D01*
X106704943Y-89916000D01*
X114074273Y-89916000D01*
X114165416Y-89943648D01*
X114240054Y-89950999D01*
X114240056Y-89950999D01*
X114265000Y-89953456D01*
X114289944Y-89950999D01*
X119712579Y-89950999D01*
X121647000Y-91885421D01*
X121647000Y-92024922D01*
X121677013Y-92175809D01*
X121735887Y-92317942D01*
X121821358Y-92445859D01*
X121930141Y-92554642D01*
X122058058Y-92640113D01*
X122200191Y-92698987D01*
X122351078Y-92729000D01*
X122504922Y-92729000D01*
X122655809Y-92698987D01*
X122797942Y-92640113D01*
X122925859Y-92554642D01*
X123034642Y-92445859D01*
X123120113Y-92317942D01*
X123178987Y-92175809D01*
X123209000Y-92024922D01*
X123209000Y-91871078D01*
X123178987Y-91720191D01*
X123120113Y-91578058D01*
X123034642Y-91450141D01*
X122925859Y-91341358D01*
X122797942Y-91255887D01*
X122655809Y-91197013D01*
X122504922Y-91167000D01*
X122365421Y-91167000D01*
X120299854Y-89101434D01*
X120283947Y-89082051D01*
X120206594Y-89018570D01*
X120118342Y-88971398D01*
X120022584Y-88942350D01*
X119947946Y-88934999D01*
X119947943Y-88934999D01*
X119922999Y-88932542D01*
X119898055Y-88934999D01*
X114420730Y-88934999D01*
X114329587Y-88907351D01*
X114254949Y-88900000D01*
X114254946Y-88900000D01*
X114230002Y-88897543D01*
X114205058Y-88900000D01*
X113372501Y-88900000D01*
X113382642Y-88889859D01*
X113468113Y-88761942D01*
X113526987Y-88619809D01*
X113557000Y-88468922D01*
X113557000Y-88315078D01*
X113526987Y-88164191D01*
X113468113Y-88022058D01*
X113382642Y-87894141D01*
X113284000Y-87795499D01*
X113284000Y-87654944D01*
X113286457Y-87630000D01*
X113283542Y-87600405D01*
X113276649Y-87530415D01*
X113247601Y-87434657D01*
X113200429Y-87346405D01*
X113136948Y-87269052D01*
X113117565Y-87253145D01*
X107360420Y-81496000D01*
X119721157Y-81496000D01*
X119721157Y-83096000D01*
X119728513Y-83170689D01*
X119750299Y-83242508D01*
X119785678Y-83308696D01*
X119833289Y-83366711D01*
X119891304Y-83414322D01*
X119957492Y-83449701D01*
X120029311Y-83471487D01*
X120104000Y-83478843D01*
X121704000Y-83478843D01*
X121778689Y-83471487D01*
X121850508Y-83449701D01*
X121916696Y-83414322D01*
X121974711Y-83366711D01*
X122022322Y-83308696D01*
X122057701Y-83242508D01*
X122079487Y-83170689D01*
X122086843Y-83096000D01*
X122086843Y-81496000D01*
X122079487Y-81421311D01*
X122057701Y-81349492D01*
X122022322Y-81283304D01*
X121974711Y-81225289D01*
X121916696Y-81177678D01*
X121850508Y-81142299D01*
X121778689Y-81120513D01*
X121704000Y-81113157D01*
X120104000Y-81113157D01*
X120029311Y-81120513D01*
X119957492Y-81142299D01*
X119891304Y-81177678D01*
X119833289Y-81225289D01*
X119785678Y-81283304D01*
X119750299Y-81349492D01*
X119728513Y-81421311D01*
X119721157Y-81496000D01*
X107360420Y-81496000D01*
X106884119Y-81019699D01*
X106907809Y-81014987D01*
X107049942Y-80956113D01*
X107177859Y-80870642D01*
X107286642Y-80761859D01*
X107372113Y-80633942D01*
X107430987Y-80491809D01*
X107461000Y-80340922D01*
X107461000Y-80187078D01*
X107430987Y-80036191D01*
X107372113Y-79894058D01*
X107286642Y-79766141D01*
X107177859Y-79657358D01*
X107049942Y-79571887D01*
X106907809Y-79513013D01*
X106756922Y-79483000D01*
X106617421Y-79483000D01*
X105664000Y-78529580D01*
X105664000Y-78256943D01*
X105666457Y-78231999D01*
X105662367Y-78190475D01*
X105656649Y-78132415D01*
X105627601Y-78036657D01*
X105591222Y-77968597D01*
X105580429Y-77948404D01*
X105532850Y-77890429D01*
X105516948Y-77871052D01*
X105497571Y-77855150D01*
X102779997Y-75137577D01*
X102779997Y-70900999D01*
X116629000Y-70900999D01*
X116628999Y-72496682D01*
X116623157Y-72556000D01*
X116623157Y-74256000D01*
X116630513Y-74330689D01*
X116652299Y-74402508D01*
X116687678Y-74468696D01*
X116735289Y-74526711D01*
X116793304Y-74574322D01*
X116859492Y-74609701D01*
X116931311Y-74631487D01*
X117006000Y-74638843D01*
X118706000Y-74638843D01*
X118780689Y-74631487D01*
X118852508Y-74609701D01*
X118918696Y-74574322D01*
X118976711Y-74526711D01*
X119024322Y-74468696D01*
X119059701Y-74402508D01*
X119081487Y-74330689D01*
X119088843Y-74256000D01*
X119088843Y-72556000D01*
X119081487Y-72481311D01*
X119059701Y-72409492D01*
X119024322Y-72343304D01*
X118976711Y-72285289D01*
X118918696Y-72237678D01*
X118852508Y-72202299D01*
X118780689Y-72180513D01*
X118706000Y-72173157D01*
X118158612Y-72173157D01*
X118028706Y-72133750D01*
X117890999Y-72120187D01*
X117890999Y-70900999D01*
X131730631Y-70900999D01*
X133227001Y-72397370D01*
X133227000Y-76931002D01*
X133227000Y-78532595D01*
X133165887Y-78624058D01*
X133107013Y-78766191D01*
X133077000Y-78917078D01*
X133077000Y-79070922D01*
X133107013Y-79221809D01*
X133165887Y-79363942D01*
X133227000Y-79455405D01*
X133227000Y-79548595D01*
X133165887Y-79640058D01*
X133107013Y-79782191D01*
X133077000Y-79933078D01*
X133077000Y-80086922D01*
X133107013Y-80237809D01*
X133165887Y-80379942D01*
X133227000Y-80471405D01*
X133227001Y-82857000D01*
X133223948Y-82888000D01*
X133236130Y-83011697D01*
X133272211Y-83130641D01*
X133330804Y-83240260D01*
X133389897Y-83312265D01*
X133389900Y-83312268D01*
X133409658Y-83336343D01*
X133433733Y-83356101D01*
X135995704Y-85918073D01*
X136002613Y-85952809D01*
X136061487Y-86094942D01*
X136146958Y-86222859D01*
X136255741Y-86331642D01*
X136383658Y-86417113D01*
X136525791Y-86475987D01*
X136552710Y-86481342D01*
X136579356Y-86615300D01*
X136638230Y-86757433D01*
X136723701Y-86885350D01*
X136832484Y-86994133D01*
X136960401Y-87079604D01*
X137102534Y-87138478D01*
X137253421Y-87168491D01*
X137407265Y-87168491D01*
X137558152Y-87138478D01*
X137700285Y-87079604D01*
X137828202Y-86994133D01*
X137936985Y-86885350D01*
X138022456Y-86757433D01*
X138081330Y-86615300D01*
X138111343Y-86464413D01*
X138111343Y-86310569D01*
X138081330Y-86159682D01*
X138022456Y-86017549D01*
X137936985Y-85889632D01*
X137828202Y-85780849D01*
X137700285Y-85695378D01*
X137558152Y-85636504D01*
X137531233Y-85631149D01*
X137504587Y-85497191D01*
X137445713Y-85355058D01*
X137360242Y-85227141D01*
X137251459Y-85118358D01*
X137123542Y-85032887D01*
X136981409Y-84974013D01*
X136830522Y-84944000D01*
X136806369Y-84944000D01*
X134489000Y-82626632D01*
X134489000Y-80471405D01*
X134550113Y-80379942D01*
X134608987Y-80237809D01*
X134639000Y-80086922D01*
X134639000Y-79933078D01*
X134608987Y-79782191D01*
X134550113Y-79640058D01*
X134489000Y-79548595D01*
X134489000Y-79455405D01*
X134550113Y-79363942D01*
X134608987Y-79221809D01*
X134639000Y-79070922D01*
X134639000Y-78917078D01*
X134608987Y-78766191D01*
X134550113Y-78624058D01*
X134489000Y-78532595D01*
X134489000Y-75723000D01*
X144333157Y-75723000D01*
X144333157Y-76423000D01*
X144340513Y-76497689D01*
X144362299Y-76569508D01*
X144397678Y-76635696D01*
X144445289Y-76693711D01*
X144462700Y-76708000D01*
X144445289Y-76722289D01*
X144397678Y-76780304D01*
X144362299Y-76846492D01*
X144340513Y-76918311D01*
X144333157Y-76993000D01*
X144333157Y-77693000D01*
X144340513Y-77767689D01*
X144362299Y-77839508D01*
X144397678Y-77905696D01*
X144445289Y-77963711D01*
X144503304Y-78011322D01*
X144569492Y-78046701D01*
X144641311Y-78068487D01*
X144716000Y-78075843D01*
X146316000Y-78075843D01*
X146390689Y-78068487D01*
X146462508Y-78046701D01*
X146528696Y-78011322D01*
X146586711Y-77963711D01*
X146634322Y-77905696D01*
X146663558Y-77851000D01*
X146914056Y-77851000D01*
X146939000Y-77853457D01*
X146963944Y-77851000D01*
X146963947Y-77851000D01*
X147038585Y-77843649D01*
X147134343Y-77814601D01*
X147222595Y-77767429D01*
X147252362Y-77743000D01*
X147396922Y-77743000D01*
X147547809Y-77712987D01*
X147689942Y-77654113D01*
X147817859Y-77568642D01*
X147828001Y-77558500D01*
X147828001Y-78843541D01*
X147296542Y-79375000D01*
X146663558Y-79375000D01*
X146634322Y-79320304D01*
X146586711Y-79262289D01*
X146528696Y-79214678D01*
X146462508Y-79179299D01*
X146390689Y-79157513D01*
X146316000Y-79150157D01*
X144716000Y-79150157D01*
X144641311Y-79157513D01*
X144569492Y-79179299D01*
X144503304Y-79214678D01*
X144445289Y-79262289D01*
X144397678Y-79320304D01*
X144362299Y-79386492D01*
X144340513Y-79458311D01*
X144333157Y-79533000D01*
X144333157Y-80233000D01*
X144340513Y-80307689D01*
X144362299Y-80379508D01*
X144397678Y-80445696D01*
X144445289Y-80503711D01*
X144503304Y-80551322D01*
X144569492Y-80586701D01*
X144641311Y-80608487D01*
X144716000Y-80615843D01*
X146316000Y-80615843D01*
X146390689Y-80608487D01*
X146462508Y-80586701D01*
X146528696Y-80551322D01*
X146586711Y-80503711D01*
X146634322Y-80445696D01*
X146663558Y-80391000D01*
X147482018Y-80391000D01*
X147506962Y-80393457D01*
X147531906Y-80391000D01*
X147531909Y-80391000D01*
X147606547Y-80383649D01*
X147702305Y-80354601D01*
X147790557Y-80307429D01*
X147867910Y-80243948D01*
X147883817Y-80224565D01*
X148677565Y-79430817D01*
X148696948Y-79414910D01*
X148760429Y-79337557D01*
X148807601Y-79249305D01*
X148836649Y-79153547D01*
X148844000Y-79078909D01*
X148844000Y-79078906D01*
X148846457Y-79053962D01*
X148844000Y-79029018D01*
X148844000Y-72986501D01*
X148942642Y-72887859D01*
X149028113Y-72759942D01*
X149086987Y-72617809D01*
X149117000Y-72466922D01*
X149117000Y-72313078D01*
X149086987Y-72162191D01*
X149028113Y-72020058D01*
X148942642Y-71892141D01*
X148833859Y-71783358D01*
X148705942Y-71697887D01*
X148563809Y-71639013D01*
X148412922Y-71609000D01*
X148259078Y-71609000D01*
X148108191Y-71639013D01*
X147966058Y-71697887D01*
X147838141Y-71783358D01*
X147729358Y-71892141D01*
X147643887Y-72020058D01*
X147585013Y-72162191D01*
X147555000Y-72313078D01*
X147555000Y-72466922D01*
X147585013Y-72617809D01*
X147643887Y-72759942D01*
X147729358Y-72887859D01*
X147828000Y-72986501D01*
X147828000Y-75095499D01*
X147817859Y-75085358D01*
X147689942Y-74999887D01*
X147547809Y-74941013D01*
X147396922Y-74911000D01*
X147243078Y-74911000D01*
X147092191Y-74941013D01*
X146950058Y-74999887D01*
X146822141Y-75085358D01*
X146713358Y-75194141D01*
X146627887Y-75322058D01*
X146577182Y-75444469D01*
X146528696Y-75404678D01*
X146462508Y-75369299D01*
X146390689Y-75347513D01*
X146316000Y-75340157D01*
X144716000Y-75340157D01*
X144641311Y-75347513D01*
X144569492Y-75369299D01*
X144503304Y-75404678D01*
X144445289Y-75452289D01*
X144397678Y-75510304D01*
X144362299Y-75576492D01*
X144340513Y-75648311D01*
X144333157Y-75723000D01*
X134489000Y-75723000D01*
X134489000Y-72166990D01*
X134492052Y-72136000D01*
X134489000Y-72105009D01*
X134489000Y-72105002D01*
X134479870Y-72012302D01*
X134443789Y-71893358D01*
X134385196Y-71783739D01*
X134306343Y-71687657D01*
X134282268Y-71667899D01*
X132460104Y-69845736D01*
X132440342Y-69821656D01*
X132344260Y-69742803D01*
X132234641Y-69684210D01*
X132115697Y-69648129D01*
X132022997Y-69638999D01*
X132022989Y-69638999D01*
X131991999Y-69635947D01*
X131961009Y-69638999D01*
X117212991Y-69638999D01*
X117182001Y-69635947D01*
X117151011Y-69638999D01*
X101658986Y-69638999D01*
X101627998Y-69635947D01*
X101597011Y-69638999D01*
X101597001Y-69638999D01*
X101504301Y-69648129D01*
X101385357Y-69684210D01*
X101361431Y-69696999D01*
X95672989Y-69696999D01*
X95641999Y-69693947D01*
X95611008Y-69696999D01*
X95611001Y-69696999D01*
X95518301Y-69706129D01*
X95399357Y-69742210D01*
X95289738Y-69800803D01*
X95221996Y-69856398D01*
X95193656Y-69879656D01*
X95173898Y-69903731D01*
X92197732Y-72879898D01*
X92173657Y-72899656D01*
X92153899Y-72923731D01*
X92153896Y-72923734D01*
X92094803Y-72995739D01*
X92036210Y-73105358D01*
X92000129Y-73224302D01*
X91987947Y-73347999D01*
X91991000Y-73378999D01*
X91990999Y-83163011D01*
X91987947Y-83194001D01*
X91990999Y-83224991D01*
X91990999Y-83224998D01*
X92000129Y-83317698D01*
X92036210Y-83436642D01*
X92094803Y-83546261D01*
X92173656Y-83642344D01*
X92197736Y-83662106D01*
X95469002Y-86933373D01*
X95469001Y-90932433D01*
X87968770Y-77941733D01*
X92842881Y-69494000D01*
X152165327Y-69494000D01*
X157031326Y-77941566D01*
G37*
X157031326Y-77941566D02*
X139765597Y-107846500D01*
X127477120Y-107846500D01*
X127477120Y-104356621D01*
X127479084Y-104336680D01*
X127471245Y-104257090D01*
X127448030Y-104180559D01*
X127410330Y-104110027D01*
X127359594Y-104048206D01*
X127297773Y-103997470D01*
X127227241Y-103959770D01*
X127150710Y-103936555D01*
X127091061Y-103930680D01*
X127091060Y-103930680D01*
X127071120Y-103928716D01*
X127051179Y-103930680D01*
X126192325Y-103930680D01*
X126194123Y-103912420D01*
X126194123Y-101523078D01*
X127960000Y-101523078D01*
X127960000Y-101676922D01*
X127990013Y-101827809D01*
X128048887Y-101969942D01*
X128134358Y-102097859D01*
X128243141Y-102206642D01*
X128371058Y-102292113D01*
X128513191Y-102350987D01*
X128664078Y-102381000D01*
X128784909Y-102381000D01*
X128662058Y-102431887D01*
X128534141Y-102517358D01*
X128425358Y-102626141D01*
X128339887Y-102754058D01*
X128281013Y-102896191D01*
X128251000Y-103047078D01*
X128251000Y-103200922D01*
X128281013Y-103351809D01*
X128339887Y-103493942D01*
X128425358Y-103621859D01*
X128534141Y-103730642D01*
X128662058Y-103816113D01*
X128804191Y-103874987D01*
X128955078Y-103905000D01*
X129097409Y-103905000D01*
X129672628Y-104480220D01*
X129688473Y-104499527D01*
X129765521Y-104562759D01*
X129853425Y-104609745D01*
X129948807Y-104638678D01*
X130023146Y-104646000D01*
X130023154Y-104646000D01*
X130048000Y-104648447D01*
X130072846Y-104646000D01*
X131880672Y-104646000D01*
X131887317Y-104713462D01*
X131923329Y-104832179D01*
X131981810Y-104941589D01*
X132060512Y-105037488D01*
X132156411Y-105116190D01*
X132265821Y-105174671D01*
X132384538Y-105210683D01*
X132507999Y-105222843D01*
X133158001Y-105222843D01*
X133281462Y-105210683D01*
X133400179Y-105174671D01*
X133509589Y-105116190D01*
X133605488Y-105037488D01*
X133684190Y-104941589D01*
X133742671Y-104832179D01*
X133778683Y-104713462D01*
X133790843Y-104590001D01*
X133790843Y-103689999D01*
X133925157Y-103689999D01*
X133925157Y-104590001D01*
X133937317Y-104713462D01*
X133973329Y-104832179D01*
X134031810Y-104941589D01*
X134110512Y-105037488D01*
X134206411Y-105116190D01*
X134315821Y-105174671D01*
X134434538Y-105210683D01*
X134557999Y-105222843D01*
X135208001Y-105222843D01*
X135331462Y-105210683D01*
X135450179Y-105174671D01*
X135559589Y-105116190D01*
X135655488Y-105037488D01*
X135734190Y-104941589D01*
X135792671Y-104832179D01*
X135828683Y-104713462D01*
X135832115Y-104678616D01*
X135900141Y-104746642D01*
X136028058Y-104832113D01*
X136170191Y-104890987D01*
X136321078Y-104921000D01*
X136474922Y-104921000D01*
X136625809Y-104890987D01*
X136767942Y-104832113D01*
X136895859Y-104746642D01*
X137004642Y-104637859D01*
X137090113Y-104509942D01*
X137148987Y-104367809D01*
X137179000Y-104216922D01*
X137179000Y-104063078D01*
X137148987Y-103912191D01*
X137090113Y-103770058D01*
X137004642Y-103642141D01*
X136895859Y-103533358D01*
X136767942Y-103447887D01*
X136625809Y-103389013D01*
X136474922Y-103359000D01*
X136321078Y-103359000D01*
X136170191Y-103389013D01*
X136028058Y-103447887D01*
X135900141Y-103533358D01*
X135832115Y-103601384D01*
X135828683Y-103566538D01*
X135792671Y-103447821D01*
X135734190Y-103338411D01*
X135655488Y-103242512D01*
X135559589Y-103163810D01*
X135450179Y-103105329D01*
X135331462Y-103069317D01*
X135208001Y-103057157D01*
X134557999Y-103057157D01*
X134434538Y-103069317D01*
X134315821Y-103105329D01*
X134206411Y-103163810D01*
X134110512Y-103242512D01*
X134031810Y-103338411D01*
X133973329Y-103447821D01*
X133937317Y-103566538D01*
X133925157Y-103689999D01*
X133790843Y-103689999D01*
X133778683Y-103566538D01*
X133742671Y-103447821D01*
X133684190Y-103338411D01*
X133605488Y-103242512D01*
X133509589Y-103163810D01*
X133400179Y-103105329D01*
X133281462Y-103069317D01*
X133158001Y-103057157D01*
X132507999Y-103057157D01*
X132384538Y-103069317D01*
X132265821Y-103105329D01*
X132156411Y-103163810D01*
X132060512Y-103242512D01*
X131981810Y-103338411D01*
X131923329Y-103447821D01*
X131887317Y-103566538D01*
X131880672Y-103634000D01*
X130257592Y-103634000D01*
X129813000Y-103189409D01*
X129813000Y-103047078D01*
X129782987Y-102896191D01*
X129724113Y-102754058D01*
X129638642Y-102626141D01*
X129529859Y-102517358D01*
X129401942Y-102431887D01*
X129259809Y-102373013D01*
X129194388Y-102360000D01*
X131880672Y-102360000D01*
X131887317Y-102427462D01*
X131923329Y-102546179D01*
X131981810Y-102655589D01*
X132060512Y-102751488D01*
X132156411Y-102830190D01*
X132265821Y-102888671D01*
X132384538Y-102924683D01*
X132507999Y-102936843D01*
X133158001Y-102936843D01*
X133281462Y-102924683D01*
X133400179Y-102888671D01*
X133509589Y-102830190D01*
X133605488Y-102751488D01*
X133684190Y-102655589D01*
X133742671Y-102546179D01*
X133778683Y-102427462D01*
X133790843Y-102304001D01*
X133790843Y-101403999D01*
X133925157Y-101403999D01*
X133925157Y-102304001D01*
X133937317Y-102427462D01*
X133973329Y-102546179D01*
X134031810Y-102655589D01*
X134110512Y-102751488D01*
X134206411Y-102830190D01*
X134315821Y-102888671D01*
X134434538Y-102924683D01*
X134557999Y-102936843D01*
X135208001Y-102936843D01*
X135331462Y-102924683D01*
X135450179Y-102888671D01*
X135559589Y-102830190D01*
X135655488Y-102751488D01*
X135734190Y-102655589D01*
X135792671Y-102546179D01*
X135828683Y-102427462D01*
X135832115Y-102392616D01*
X135900141Y-102460642D01*
X136028058Y-102546113D01*
X136170191Y-102604987D01*
X136321078Y-102635000D01*
X136474922Y-102635000D01*
X136625809Y-102604987D01*
X136767942Y-102546113D01*
X136895859Y-102460642D01*
X137004642Y-102351859D01*
X137090113Y-102223942D01*
X137148987Y-102081809D01*
X137179000Y-101930922D01*
X137179000Y-101777078D01*
X137148987Y-101626191D01*
X137090113Y-101484058D01*
X137004642Y-101356141D01*
X136895859Y-101247358D01*
X136767942Y-101161887D01*
X136625809Y-101103013D01*
X136474922Y-101073000D01*
X136321078Y-101073000D01*
X136170191Y-101103013D01*
X136028058Y-101161887D01*
X135900141Y-101247358D01*
X135832115Y-101315384D01*
X135828683Y-101280538D01*
X135792671Y-101161821D01*
X135734190Y-101052411D01*
X135655488Y-100956512D01*
X135559589Y-100877810D01*
X135450179Y-100819329D01*
X135331462Y-100783317D01*
X135208001Y-100771157D01*
X134557999Y-100771157D01*
X134434538Y-100783317D01*
X134315821Y-100819329D01*
X134206411Y-100877810D01*
X134110512Y-100956512D01*
X134031810Y-101052411D01*
X133973329Y-101161821D01*
X133937317Y-101280538D01*
X133925157Y-101403999D01*
X133790843Y-101403999D01*
X133778683Y-101280538D01*
X133742671Y-101161821D01*
X133684190Y-101052411D01*
X133605488Y-100956512D01*
X133509589Y-100877810D01*
X133400179Y-100819329D01*
X133281462Y-100783317D01*
X133158001Y-100771157D01*
X132507999Y-100771157D01*
X132384538Y-100783317D01*
X132265821Y-100819329D01*
X132156411Y-100877810D01*
X132060512Y-100956512D01*
X131981810Y-101052411D01*
X131923329Y-101161821D01*
X131887317Y-101280538D01*
X131880672Y-101348000D01*
X129481967Y-101348000D01*
X129433113Y-101230058D01*
X129347642Y-101102141D01*
X129238859Y-100993358D01*
X129110942Y-100907887D01*
X128968809Y-100849013D01*
X128817922Y-100819000D01*
X128664078Y-100819000D01*
X128513191Y-100849013D01*
X128371058Y-100907887D01*
X128243141Y-100993358D01*
X128134358Y-101102141D01*
X128048887Y-101230058D01*
X127990013Y-101372191D01*
X127960000Y-101523078D01*
X126194123Y-101523078D01*
X126194123Y-99912420D01*
X126186767Y-99837731D01*
X126164981Y-99765912D01*
X126129602Y-99699724D01*
X126081991Y-99641709D01*
X126023976Y-99594098D01*
X125957788Y-99558719D01*
X125885969Y-99536933D01*
X125811280Y-99529577D01*
X125261982Y-99529577D01*
X125337942Y-99498113D01*
X125465859Y-99412642D01*
X125574642Y-99303859D01*
X125660113Y-99175942D01*
X125718987Y-99033809D01*
X125749000Y-98882922D01*
X125749000Y-98729078D01*
X125720739Y-98586999D01*
X126432057Y-98586999D01*
X126457001Y-98589456D01*
X126481945Y-98586999D01*
X126481948Y-98586999D01*
X126556586Y-98579648D01*
X126652344Y-98550600D01*
X126740596Y-98503428D01*
X126817949Y-98439947D01*
X126833856Y-98420564D01*
X129496420Y-95758000D01*
X138659056Y-95758000D01*
X138684000Y-95760457D01*
X138708944Y-95758000D01*
X138708947Y-95758000D01*
X138783585Y-95750649D01*
X138879343Y-95721601D01*
X138967595Y-95674429D01*
X139044948Y-95610948D01*
X139060855Y-95591565D01*
X140911572Y-93740849D01*
X140930949Y-93724947D01*
X140944857Y-93708000D01*
X141046922Y-93708000D01*
X141197809Y-93677987D01*
X141339942Y-93619113D01*
X141467859Y-93533642D01*
X141576642Y-93424859D01*
X141587907Y-93408000D01*
X143523374Y-93408000D01*
X143547000Y-93410327D01*
X143570626Y-93408000D01*
X143641292Y-93401040D01*
X143731961Y-93373536D01*
X143815522Y-93328872D01*
X143888764Y-93268764D01*
X143903830Y-93250406D01*
X143921192Y-93233044D01*
X143941078Y-93237000D01*
X144094922Y-93237000D01*
X144245809Y-93206987D01*
X144387942Y-93148113D01*
X144515859Y-93062642D01*
X144624642Y-92953859D01*
X144710113Y-92825942D01*
X144768987Y-92683809D01*
X144799000Y-92532922D01*
X144799000Y-92379078D01*
X144768987Y-92228191D01*
X144710113Y-92086058D01*
X144624642Y-91958141D01*
X144515859Y-91849358D01*
X144387942Y-91763887D01*
X144245809Y-91705013D01*
X144094922Y-91675000D01*
X143941078Y-91675000D01*
X143790191Y-91705013D01*
X143648058Y-91763887D01*
X143520141Y-91849358D01*
X143411358Y-91958141D01*
X143325887Y-92086058D01*
X143267013Y-92228191D01*
X143237000Y-92379078D01*
X143237000Y-92446000D01*
X142126368Y-92446000D01*
X143971263Y-90601105D01*
X143995342Y-90581344D01*
X144074195Y-90485262D01*
X144132788Y-90375643D01*
X144168869Y-90256699D01*
X144168938Y-90256001D01*
X146310009Y-90256001D01*
X146340999Y-90259053D01*
X146371989Y-90256001D01*
X146371997Y-90256001D01*
X146464697Y-90246871D01*
X146583641Y-90210790D01*
X146693260Y-90152197D01*
X146789342Y-90073344D01*
X146809104Y-90049264D01*
X147534103Y-89324266D01*
X147593196Y-89252261D01*
X147651789Y-89142642D01*
X147687869Y-89023698D01*
X147700052Y-88900001D01*
X147687869Y-88776303D01*
X147651789Y-88657359D01*
X147593196Y-88547740D01*
X147574000Y-88524350D01*
X147574000Y-84352944D01*
X147576457Y-84328000D01*
X147574000Y-84303053D01*
X147566649Y-84228415D01*
X147537601Y-84132657D01*
X147515643Y-84091576D01*
X147490429Y-84044404D01*
X147467354Y-84016288D01*
X147426948Y-83967052D01*
X147407565Y-83951145D01*
X142362855Y-78906435D01*
X142346948Y-78887052D01*
X142269595Y-78823571D01*
X142181343Y-78776399D01*
X142085585Y-78747351D01*
X142010947Y-78740000D01*
X142010944Y-78740000D01*
X141986000Y-78737543D01*
X141961056Y-78740000D01*
X140042501Y-78740000D01*
X139943859Y-78641358D01*
X139815942Y-78555887D01*
X139673809Y-78497013D01*
X139522922Y-78467000D01*
X139369078Y-78467000D01*
X139218191Y-78497013D01*
X139076058Y-78555887D01*
X138948141Y-78641358D01*
X138839358Y-78750141D01*
X138753887Y-78878058D01*
X138695013Y-79020191D01*
X138665000Y-79171078D01*
X138665000Y-79324922D01*
X138695013Y-79475809D01*
X138753887Y-79617942D01*
X138839358Y-79745859D01*
X138948141Y-79854642D01*
X139076058Y-79940113D01*
X139218191Y-79998987D01*
X139369078Y-80029000D01*
X139522922Y-80029000D01*
X139673809Y-79998987D01*
X139815942Y-79940113D01*
X139943859Y-79854642D01*
X140042501Y-79756000D01*
X141775580Y-79756000D01*
X146558001Y-84538421D01*
X146558000Y-88515631D01*
X146079631Y-88994001D01*
X143577997Y-88994001D01*
X143546999Y-88990948D01*
X143516001Y-88994001D01*
X143423301Y-89003131D01*
X143304357Y-89039212D01*
X143194738Y-89097805D01*
X143098656Y-89176658D01*
X143064986Y-89217685D01*
X142560683Y-89217685D01*
X144188268Y-87590101D01*
X144212343Y-87570343D01*
X144232105Y-87546263D01*
X145153921Y-86624447D01*
X145261809Y-86602987D01*
X145403942Y-86544113D01*
X145531859Y-86458642D01*
X145640642Y-86349859D01*
X145726113Y-86221942D01*
X145784987Y-86079809D01*
X145815000Y-85928922D01*
X145815000Y-85775078D01*
X145784987Y-85624191D01*
X145726113Y-85482058D01*
X145640642Y-85354141D01*
X145531859Y-85245358D01*
X145403942Y-85159887D01*
X145261809Y-85101013D01*
X145110922Y-85071000D01*
X144957078Y-85071000D01*
X144806191Y-85101013D01*
X144664058Y-85159887D01*
X144536141Y-85245358D01*
X144427358Y-85354141D01*
X144341887Y-85482058D01*
X144283013Y-85624191D01*
X144261553Y-85732079D01*
X144248920Y-85744712D01*
X144133942Y-85667887D01*
X143991809Y-85609013D01*
X143840922Y-85579000D01*
X143687078Y-85579000D01*
X143536191Y-85609013D01*
X143394058Y-85667887D01*
X143266141Y-85753358D01*
X143157358Y-85862141D01*
X143071887Y-85990058D01*
X143013013Y-86132191D01*
X142983000Y-86283078D01*
X142983000Y-86436922D01*
X143013013Y-86587809D01*
X143071887Y-86729942D01*
X143133000Y-86821405D01*
X143133000Y-86860631D01*
X141687632Y-88306000D01*
X141079328Y-88306000D01*
X140987865Y-88244887D01*
X140845732Y-88186013D01*
X140694845Y-88156000D01*
X140541001Y-88156000D01*
X140390114Y-88186013D01*
X140247981Y-88244887D01*
X140120064Y-88330358D01*
X140011281Y-88439141D01*
X139925810Y-88567058D01*
X139866936Y-88709191D01*
X139836923Y-88860078D01*
X139836923Y-89013922D01*
X139866936Y-89164809D01*
X139925810Y-89306942D01*
X140011281Y-89434859D01*
X140120064Y-89543642D01*
X140247981Y-89629113D01*
X140277196Y-89641214D01*
X140251228Y-89771763D01*
X140251228Y-89925607D01*
X140281241Y-90076494D01*
X140340115Y-90218627D01*
X140425586Y-90346544D01*
X140509764Y-90430722D01*
X140488191Y-90435013D01*
X140346058Y-90493887D01*
X140218141Y-90579358D01*
X140109358Y-90688141D01*
X140023887Y-90816058D01*
X139965013Y-90958191D01*
X139935000Y-91109078D01*
X139935000Y-91262922D01*
X139965013Y-91413809D01*
X140023887Y-91555942D01*
X140109358Y-91683859D01*
X140121499Y-91696000D01*
X140044501Y-91696000D01*
X139943859Y-91595358D01*
X139815942Y-91509887D01*
X139673809Y-91451013D01*
X139522922Y-91421000D01*
X139369078Y-91421000D01*
X139218191Y-91451013D01*
X139076058Y-91509887D01*
X138948141Y-91595358D01*
X138839358Y-91704141D01*
X138753887Y-91832058D01*
X138695013Y-91974191D01*
X138665000Y-92125078D01*
X138665000Y-92278922D01*
X138695013Y-92429809D01*
X138753887Y-92571942D01*
X138839358Y-92699859D01*
X138948141Y-92808642D01*
X139076058Y-92894113D01*
X139218191Y-92952987D01*
X139369078Y-92983000D01*
X139522922Y-92983000D01*
X139673809Y-92952987D01*
X139815942Y-92894113D01*
X139943859Y-92808642D01*
X140044501Y-92708000D01*
X140217261Y-92708000D01*
X140189000Y-92850078D01*
X140189000Y-92990486D01*
X140145572Y-93043404D01*
X140115024Y-93100555D01*
X138473580Y-94742000D01*
X134538442Y-94742000D01*
X134593809Y-94730987D01*
X134735942Y-94672113D01*
X134863859Y-94586642D01*
X134964501Y-94486000D01*
X136881154Y-94486000D01*
X136906000Y-94488447D01*
X136930846Y-94486000D01*
X136930854Y-94486000D01*
X137005193Y-94478678D01*
X137100575Y-94449745D01*
X137188479Y-94402759D01*
X137265527Y-94339527D01*
X137281376Y-94320215D01*
X137348591Y-94253000D01*
X137490922Y-94253000D01*
X137641809Y-94222987D01*
X137783942Y-94164113D01*
X137911859Y-94078642D01*
X138020642Y-93969859D01*
X138106113Y-93841942D01*
X138164987Y-93699809D01*
X138195000Y-93548922D01*
X138195000Y-93395078D01*
X138164987Y-93244191D01*
X138106113Y-93102058D01*
X138020642Y-92974141D01*
X137911859Y-92865358D01*
X137783942Y-92779887D01*
X137641809Y-92721013D01*
X137490922Y-92691000D01*
X137337078Y-92691000D01*
X137186191Y-92721013D01*
X137044058Y-92779887D01*
X136916141Y-92865358D01*
X136807358Y-92974141D01*
X136721887Y-93102058D01*
X136663013Y-93244191D01*
X136633000Y-93395078D01*
X136633000Y-93474000D01*
X134964501Y-93474000D01*
X134863859Y-93373358D01*
X134735942Y-93287887D01*
X134593809Y-93229013D01*
X134442922Y-93199000D01*
X134289078Y-93199000D01*
X134138191Y-93229013D01*
X133996058Y-93287887D01*
X133868141Y-93373358D01*
X133759358Y-93482141D01*
X133673887Y-93610058D01*
X133615013Y-93752191D01*
X133585000Y-93903078D01*
X133585000Y-94056922D01*
X133615013Y-94207809D01*
X133673887Y-94349942D01*
X133759358Y-94477859D01*
X133868141Y-94586642D01*
X133996058Y-94672113D01*
X134138191Y-94730987D01*
X134193558Y-94742000D01*
X129310944Y-94742000D01*
X129286000Y-94739543D01*
X129261056Y-94742000D01*
X129261053Y-94742000D01*
X129186415Y-94749351D01*
X129090657Y-94778399D01*
X129002405Y-94825571D01*
X128925052Y-94889052D01*
X128909145Y-94908435D01*
X126246581Y-97570999D01*
X124678370Y-97570999D01*
X125173514Y-97075856D01*
X125197589Y-97056098D01*
X125217346Y-97032024D01*
X125217349Y-97032021D01*
X125276442Y-96960016D01*
X125335035Y-96850397D01*
X125353356Y-96790000D01*
X125360753Y-96765615D01*
X128186268Y-93940101D01*
X128210343Y-93920343D01*
X128242338Y-93881358D01*
X128289196Y-93824261D01*
X128347789Y-93714642D01*
X128383870Y-93595698D01*
X128396053Y-93472000D01*
X128393000Y-93441002D01*
X128393000Y-91139405D01*
X128454113Y-91047942D01*
X128512987Y-90905809D01*
X128543000Y-90754922D01*
X128543000Y-90601078D01*
X128512987Y-90450191D01*
X128454113Y-90308058D01*
X128368642Y-90180141D01*
X128259859Y-90071358D01*
X128131942Y-89985887D01*
X127989809Y-89927013D01*
X127838922Y-89897000D01*
X127685078Y-89897000D01*
X127534191Y-89927013D01*
X127508000Y-89937862D01*
X127508000Y-88315078D01*
X128251000Y-88315078D01*
X128251000Y-88468922D01*
X128281013Y-88619809D01*
X128339887Y-88761942D01*
X128401000Y-88853405D01*
X128401000Y-88869010D01*
X128397948Y-88900000D01*
X128401000Y-88930990D01*
X128401000Y-88930997D01*
X128410130Y-89023697D01*
X128446211Y-89142641D01*
X128504804Y-89252260D01*
X128583657Y-89348343D01*
X128607737Y-89368105D01*
X128767553Y-89527921D01*
X128789013Y-89635809D01*
X128847887Y-89777942D01*
X128933358Y-89905859D01*
X129042141Y-90014642D01*
X129170058Y-90100113D01*
X129312191Y-90158987D01*
X129367558Y-90170000D01*
X129312191Y-90181013D01*
X129170058Y-90239887D01*
X129042141Y-90325358D01*
X128933358Y-90434141D01*
X128847887Y-90562058D01*
X128789013Y-90704191D01*
X128759000Y-90855078D01*
X128759000Y-91008922D01*
X128789013Y-91159809D01*
X128847887Y-91301942D01*
X128933358Y-91429859D01*
X129042141Y-91538642D01*
X129170058Y-91624113D01*
X129312191Y-91682987D01*
X129463078Y-91713000D01*
X129616922Y-91713000D01*
X129767809Y-91682987D01*
X129909942Y-91624113D01*
X130037859Y-91538642D01*
X130136501Y-91440000D01*
X132499499Y-91440000D01*
X132598141Y-91538642D01*
X132726058Y-91624113D01*
X132868191Y-91682987D01*
X133019078Y-91713000D01*
X133172922Y-91713000D01*
X133323809Y-91682987D01*
X133465942Y-91624113D01*
X133593859Y-91538642D01*
X133702642Y-91429859D01*
X133788113Y-91301942D01*
X133846987Y-91159809D01*
X133877000Y-91008922D01*
X133877000Y-90855078D01*
X133846987Y-90704191D01*
X133788113Y-90562058D01*
X133702642Y-90434141D01*
X133593859Y-90325358D01*
X133524645Y-90279111D01*
X133534113Y-90264942D01*
X133592987Y-90122809D01*
X133593030Y-90122594D01*
X133630191Y-90137987D01*
X133781078Y-90168000D01*
X133934922Y-90168000D01*
X134085809Y-90137987D01*
X134227942Y-90079113D01*
X134355859Y-89993642D01*
X134464642Y-89884859D01*
X134550113Y-89756942D01*
X134608987Y-89614809D01*
X134639000Y-89463922D01*
X134639000Y-89310078D01*
X134608987Y-89159191D01*
X134550113Y-89017058D01*
X134464642Y-88889141D01*
X134355859Y-88780358D01*
X134227942Y-88694887D01*
X134085809Y-88636013D01*
X133934922Y-88606000D01*
X133781078Y-88606000D01*
X133630191Y-88636013D01*
X133488058Y-88694887D01*
X133397288Y-88755537D01*
X133371000Y-88752948D01*
X133340009Y-88756000D01*
X133340002Y-88756000D01*
X133247302Y-88765130D01*
X133128358Y-88801211D01*
X133018739Y-88859804D01*
X132957404Y-88910141D01*
X132922657Y-88938657D01*
X132902899Y-88962732D01*
X132748293Y-89117339D01*
X132614191Y-89144013D01*
X132472058Y-89202887D01*
X132349167Y-89285000D01*
X130311835Y-89285000D01*
X130290987Y-89180191D01*
X130232113Y-89038058D01*
X130146642Y-88910141D01*
X130037859Y-88801358D01*
X129909942Y-88715887D01*
X129767809Y-88657013D01*
X129767594Y-88656970D01*
X129782987Y-88619809D01*
X129813000Y-88468922D01*
X129813000Y-88315078D01*
X129782987Y-88164191D01*
X129724113Y-88022058D01*
X129638642Y-87894141D01*
X129529859Y-87785358D01*
X129401942Y-87699887D01*
X129259809Y-87641013D01*
X129108922Y-87611000D01*
X128955078Y-87611000D01*
X128804191Y-87641013D01*
X128662058Y-87699887D01*
X128534141Y-87785358D01*
X128425358Y-87894141D01*
X128339887Y-88022058D01*
X128281013Y-88164191D01*
X128251000Y-88315078D01*
X127508000Y-88315078D01*
X127508000Y-79144458D01*
X131247162Y-75405296D01*
X131259343Y-75401601D01*
X131347595Y-75354429D01*
X131424948Y-75290948D01*
X131440855Y-75271565D01*
X132271421Y-74441000D01*
X132410922Y-74441000D01*
X132561809Y-74410987D01*
X132703942Y-74352113D01*
X132831859Y-74266642D01*
X132940642Y-74157859D01*
X133026113Y-74029942D01*
X133084987Y-73887809D01*
X133115000Y-73736922D01*
X133115000Y-73583078D01*
X133084987Y-73432191D01*
X133026113Y-73290058D01*
X132940642Y-73162141D01*
X132930501Y-73152000D01*
X132940642Y-73141859D01*
X133026113Y-73013942D01*
X133084987Y-72871809D01*
X133115000Y-72720922D01*
X133115000Y-72567078D01*
X133084987Y-72416191D01*
X133026113Y-72274058D01*
X132940642Y-72146141D01*
X132831859Y-72037358D01*
X132703942Y-71951887D01*
X132561809Y-71893013D01*
X132410922Y-71863000D01*
X132353000Y-71863000D01*
X132353000Y-71805078D01*
X132322987Y-71654191D01*
X132264113Y-71512058D01*
X132178642Y-71384141D01*
X132069859Y-71275358D01*
X131941942Y-71189887D01*
X131799809Y-71131013D01*
X131648922Y-71101000D01*
X131495078Y-71101000D01*
X131344191Y-71131013D01*
X131202058Y-71189887D01*
X131074141Y-71275358D01*
X130965358Y-71384141D01*
X130879887Y-71512058D01*
X130821013Y-71654191D01*
X130791000Y-71805078D01*
X130791000Y-71944580D01*
X128486843Y-74248737D01*
X128486843Y-72556000D01*
X128479487Y-72481311D01*
X128457701Y-72409492D01*
X128422322Y-72343304D01*
X128374711Y-72285289D01*
X128316696Y-72237678D01*
X128250508Y-72202299D01*
X128178689Y-72180513D01*
X128104000Y-72173157D01*
X126404000Y-72173157D01*
X126329311Y-72180513D01*
X126257492Y-72202299D01*
X126191304Y-72237678D01*
X126133289Y-72285289D01*
X126085678Y-72343304D01*
X126050299Y-72409492D01*
X126028513Y-72481311D01*
X126021157Y-72556000D01*
X126021157Y-74256000D01*
X126028513Y-74330689D01*
X126050299Y-74402508D01*
X126085678Y-74468696D01*
X126133289Y-74526711D01*
X126191304Y-74574322D01*
X126257492Y-74609701D01*
X126329311Y-74631487D01*
X126404000Y-74638843D01*
X128096737Y-74638843D01*
X125134435Y-77601145D01*
X125115052Y-77617052D01*
X125051571Y-77694405D01*
X125004399Y-77782658D01*
X124975351Y-77878416D01*
X124971419Y-77918343D01*
X124965543Y-77978000D01*
X124968000Y-78002944D01*
X124968001Y-89705578D01*
X124272040Y-90401539D01*
X124195859Y-90325358D01*
X124067942Y-90239887D01*
X123925809Y-90181013D01*
X123774922Y-90151000D01*
X123621078Y-90151000D01*
X123470191Y-90181013D01*
X123328058Y-90239887D01*
X123200141Y-90325358D01*
X123091358Y-90434141D01*
X123005887Y-90562058D01*
X122947013Y-90704191D01*
X122917000Y-90855078D01*
X122917000Y-91008922D01*
X122947013Y-91159809D01*
X123005887Y-91301942D01*
X123091358Y-91429859D01*
X123200141Y-91538642D01*
X123328058Y-91624113D01*
X123470191Y-91682987D01*
X123621078Y-91713000D01*
X123774922Y-91713000D01*
X123925809Y-91682987D01*
X124067942Y-91624113D01*
X124195859Y-91538642D01*
X124294501Y-91440000D01*
X124435056Y-91440000D01*
X124460000Y-91442457D01*
X124484944Y-91440000D01*
X124484947Y-91440000D01*
X124492156Y-91439290D01*
X122614057Y-93317389D01*
X122474555Y-93317389D01*
X122323668Y-93347402D01*
X122181535Y-93406276D01*
X122053618Y-93491747D01*
X121944835Y-93600530D01*
X121859364Y-93728447D01*
X121800490Y-93870580D01*
X121770477Y-94021467D01*
X121770477Y-94175311D01*
X121800490Y-94326198D01*
X121859364Y-94468331D01*
X121944835Y-94596248D01*
X122053618Y-94705031D01*
X122181535Y-94790502D01*
X122323668Y-94849376D01*
X122474555Y-94879389D01*
X122628399Y-94879389D01*
X122779286Y-94849376D01*
X122921419Y-94790502D01*
X123049336Y-94705031D01*
X123158119Y-94596248D01*
X123178798Y-94565299D01*
X123200141Y-94586642D01*
X123328058Y-94672113D01*
X123470191Y-94730987D01*
X123525558Y-94742000D01*
X123470191Y-94753013D01*
X123328058Y-94811887D01*
X123200141Y-94897358D01*
X123101499Y-94996000D01*
X117812421Y-94996000D01*
X116708855Y-93892435D01*
X116692948Y-93873052D01*
X116615595Y-93809571D01*
X116527343Y-93762399D01*
X116431585Y-93733351D01*
X116356947Y-93726000D01*
X116356944Y-93726000D01*
X116332000Y-93723543D01*
X116307056Y-93726000D01*
X116166501Y-93726000D01*
X116067859Y-93627358D01*
X115939942Y-93541887D01*
X115797809Y-93483013D01*
X115646922Y-93453000D01*
X115493078Y-93453000D01*
X115342191Y-93483013D01*
X115200058Y-93541887D01*
X115072141Y-93627358D01*
X114963358Y-93736141D01*
X114877887Y-93864058D01*
X114819013Y-94006191D01*
X114789000Y-94157078D01*
X114789000Y-94240906D01*
X114738114Y-94118058D01*
X114652643Y-93990141D01*
X114543860Y-93881358D01*
X114415943Y-93795887D01*
X114273810Y-93737013D01*
X114122923Y-93707000D01*
X113969079Y-93707000D01*
X113818192Y-93737013D01*
X113676059Y-93795887D01*
X113548142Y-93881358D01*
X113439359Y-93990141D01*
X113353888Y-94118058D01*
X113295014Y-94260191D01*
X113265001Y-94411078D01*
X113265001Y-94564922D01*
X113295014Y-94715809D01*
X113353888Y-94857942D01*
X113439359Y-94985859D01*
X113538002Y-95084502D01*
X113538001Y-96809019D01*
X113535544Y-96833963D01*
X113538001Y-96858907D01*
X113538001Y-96858909D01*
X113545352Y-96933547D01*
X113574400Y-97029305D01*
X113621572Y-97117558D01*
X113685053Y-97194911D01*
X113704437Y-97210818D01*
X113801000Y-97307382D01*
X113801001Y-99277377D01*
X113741821Y-99295329D01*
X113632411Y-99353810D01*
X113536512Y-99432512D01*
X113457810Y-99528411D01*
X113399329Y-99637821D01*
X113363317Y-99756538D01*
X113351157Y-99879999D01*
X113351157Y-100780001D01*
X113363317Y-100903462D01*
X113399329Y-101022179D01*
X113457810Y-101131589D01*
X113536512Y-101227488D01*
X113632411Y-101306190D01*
X113741821Y-101364671D01*
X113860538Y-101400683D01*
X113983999Y-101412843D01*
X114634001Y-101412843D01*
X114757462Y-101400683D01*
X114876179Y-101364671D01*
X114985589Y-101306190D01*
X115081488Y-101227488D01*
X115160190Y-101131589D01*
X115218671Y-101022179D01*
X115254683Y-100903462D01*
X115266843Y-100780001D01*
X115266843Y-99879999D01*
X115254683Y-99756538D01*
X115218671Y-99637821D01*
X115160190Y-99528411D01*
X115081488Y-99432512D01*
X114985589Y-99353810D01*
X114876179Y-99295329D01*
X114817000Y-99277377D01*
X114817000Y-97121906D01*
X114819457Y-97096962D01*
X114816821Y-97070201D01*
X114809649Y-96997377D01*
X114780601Y-96901619D01*
X114733429Y-96813367D01*
X114669948Y-96736014D01*
X114650560Y-96720103D01*
X114554001Y-96623544D01*
X114554001Y-95084501D01*
X114652643Y-94985859D01*
X114738114Y-94857942D01*
X114796988Y-94715809D01*
X114827001Y-94564922D01*
X114827001Y-94481094D01*
X114877887Y-94603942D01*
X114963358Y-94731859D01*
X115072141Y-94840642D01*
X115200058Y-94926113D01*
X115342191Y-94984987D01*
X115493078Y-95015000D01*
X115646922Y-95015000D01*
X115797809Y-94984987D01*
X115939942Y-94926113D01*
X116067859Y-94840642D01*
X116144040Y-94764461D01*
X117225150Y-95845571D01*
X117241052Y-95864948D01*
X117260429Y-95880850D01*
X117318404Y-95928429D01*
X117372901Y-95957558D01*
X117406657Y-95975601D01*
X117502415Y-96004649D01*
X117577053Y-96012000D01*
X117577055Y-96012000D01*
X117601999Y-96014457D01*
X117626943Y-96012000D01*
X120505468Y-96012000D01*
X120406141Y-96078368D01*
X120297358Y-96187151D01*
X120211887Y-96315068D01*
X120153013Y-96457201D01*
X120123000Y-96608088D01*
X120123000Y-96761932D01*
X120153013Y-96912819D01*
X120211887Y-97054952D01*
X120297358Y-97182869D01*
X120406141Y-97291652D01*
X120534058Y-97377123D01*
X120676191Y-97435997D01*
X120827078Y-97466010D01*
X120966580Y-97466010D01*
X122648135Y-99147565D01*
X122664042Y-99166948D01*
X122741395Y-99230429D01*
X122829647Y-99277601D01*
X122925405Y-99306649D01*
X123000043Y-99314000D01*
X123000046Y-99314000D01*
X123024990Y-99316457D01*
X123049934Y-99314000D01*
X124371499Y-99314000D01*
X124470141Y-99412642D01*
X124598058Y-99498113D01*
X124674018Y-99529577D01*
X124287280Y-99529577D01*
X124212591Y-99536933D01*
X124140772Y-99558719D01*
X124074584Y-99594098D01*
X124016569Y-99641709D01*
X123968958Y-99699724D01*
X123933579Y-99765912D01*
X123911793Y-99837731D01*
X123904437Y-99912420D01*
X123904437Y-103912420D01*
X123906235Y-103930680D01*
X121112325Y-103930680D01*
X121114123Y-103912420D01*
X121114123Y-99912420D01*
X121106767Y-99837731D01*
X121084981Y-99765912D01*
X121049602Y-99699724D01*
X121001991Y-99641709D01*
X120943976Y-99594098D01*
X120877788Y-99558719D01*
X120805969Y-99536933D01*
X120731280Y-99529577D01*
X119207280Y-99529577D01*
X119132591Y-99536933D01*
X119060772Y-99558719D01*
X118994584Y-99594098D01*
X118936569Y-99641709D01*
X118888958Y-99699724D01*
X118853579Y-99765912D01*
X118831793Y-99837731D01*
X118824437Y-99912420D01*
X118824437Y-100326017D01*
X117875000Y-99376580D01*
X117875000Y-99237078D01*
X117844987Y-99086191D01*
X117786113Y-98944058D01*
X117700642Y-98816141D01*
X117591859Y-98707358D01*
X117463942Y-98621887D01*
X117321809Y-98563013D01*
X117170922Y-98533000D01*
X117017078Y-98533000D01*
X116866191Y-98563013D01*
X116724058Y-98621887D01*
X116596141Y-98707358D01*
X116487358Y-98816141D01*
X116401887Y-98944058D01*
X116343013Y-99086191D01*
X116313000Y-99237078D01*
X116313000Y-99390922D01*
X116343013Y-99541809D01*
X116401887Y-99683942D01*
X116487358Y-99811859D01*
X116596141Y-99920642D01*
X116724058Y-100006113D01*
X116866191Y-100064987D01*
X117017078Y-100095000D01*
X117156580Y-100095000D01*
X118824437Y-101762857D01*
X118824437Y-103912420D01*
X118826235Y-103930680D01*
X117947061Y-103930680D01*
X117927120Y-103928716D01*
X117907180Y-103930680D01*
X117907179Y-103930680D01*
X117847530Y-103936555D01*
X117770999Y-103959770D01*
X117700467Y-103997470D01*
X117638646Y-104048206D01*
X117587910Y-104110027D01*
X117550210Y-104180559D01*
X117526995Y-104257090D01*
X117519156Y-104336680D01*
X117521121Y-104356631D01*
X117521120Y-107846500D01*
X113246743Y-107846500D01*
X113246743Y-106957317D01*
X113274477Y-106929583D01*
X113669666Y-106929583D01*
X113708563Y-107057809D01*
X113806620Y-107241261D01*
X113938584Y-107402057D01*
X114099380Y-107534020D01*
X114282832Y-107632077D01*
X114481889Y-107692460D01*
X114688900Y-107712849D01*
X114895912Y-107692460D01*
X115094969Y-107632077D01*
X115278421Y-107534020D01*
X115439217Y-107402057D01*
X115571180Y-107241261D01*
X115669237Y-107057808D01*
X115729620Y-106858751D01*
X115744900Y-106703611D01*
X115744900Y-106249868D01*
X115729620Y-106094728D01*
X115669237Y-105895671D01*
X115571180Y-105712219D01*
X115439217Y-105551423D01*
X115324041Y-105456900D01*
X115372111Y-105417451D01*
X115419722Y-105359436D01*
X115455101Y-105293248D01*
X115476887Y-105221429D01*
X115484243Y-105146740D01*
X115484243Y-104446740D01*
X115476887Y-104372051D01*
X115459926Y-104316136D01*
X115464387Y-104301429D01*
X115471743Y-104226740D01*
X115471743Y-102726740D01*
X115464387Y-102652051D01*
X115442601Y-102580232D01*
X115407222Y-102514044D01*
X115359611Y-102456029D01*
X115301596Y-102408418D01*
X115235408Y-102373039D01*
X115163589Y-102351253D01*
X115088900Y-102343897D01*
X113635918Y-102343897D01*
X113608900Y-102341236D01*
X113581882Y-102343897D01*
X113088900Y-102343897D01*
X113014211Y-102351253D01*
X112942392Y-102373039D01*
X112876204Y-102408418D01*
X112818189Y-102456029D01*
X112770578Y-102514044D01*
X112735199Y-102580232D01*
X112713413Y-102652051D01*
X112706057Y-102726740D01*
X112706057Y-103045820D01*
X112691371Y-103094233D01*
X112677900Y-103231010D01*
X112677900Y-103722471D01*
X112691371Y-103859248D01*
X112706057Y-103907661D01*
X112706057Y-104226740D01*
X112713413Y-104301429D01*
X112735199Y-104373248D01*
X112770578Y-104439436D01*
X112818189Y-104497451D01*
X112876204Y-104545062D01*
X112881057Y-104547656D01*
X112881057Y-105115587D01*
X112863900Y-105113897D01*
X111433900Y-105113897D01*
X111359211Y-105121253D01*
X111287392Y-105143039D01*
X111221204Y-105178418D01*
X111188900Y-105204929D01*
X111156596Y-105178418D01*
X111090408Y-105143039D01*
X111018589Y-105121253D01*
X110943900Y-105113897D01*
X110444752Y-105113897D01*
X110453600Y-105097343D01*
X110482648Y-105001584D01*
X110492457Y-104901999D01*
X110482861Y-104804583D01*
X110738900Y-104804583D01*
X110813589Y-104797227D01*
X110863900Y-104781965D01*
X110914211Y-104797227D01*
X110988900Y-104804583D01*
X111388900Y-104804583D01*
X111463589Y-104797227D01*
X111513900Y-104781965D01*
X111564211Y-104797227D01*
X111638900Y-104804583D01*
X112038900Y-104804583D01*
X112113589Y-104797227D01*
X112185408Y-104775441D01*
X112251596Y-104740062D01*
X112309611Y-104692451D01*
X112357222Y-104634436D01*
X112392601Y-104568248D01*
X112414387Y-104496429D01*
X112421743Y-104421740D01*
X112421743Y-102771740D01*
X112414387Y-102697051D01*
X112392601Y-102625232D01*
X112357222Y-102559044D01*
X112309611Y-102501029D01*
X112251596Y-102453418D01*
X112185408Y-102418039D01*
X112113589Y-102396253D01*
X112038900Y-102388897D01*
X111638900Y-102388897D01*
X111564211Y-102396253D01*
X111513900Y-102411515D01*
X111463589Y-102396253D01*
X111388900Y-102388897D01*
X110988900Y-102388897D01*
X110914211Y-102396253D01*
X110863900Y-102411515D01*
X110813589Y-102396253D01*
X110738900Y-102388897D01*
X110513317Y-102388897D01*
X110510770Y-102363040D01*
X110494718Y-102310123D01*
X110494718Y-102201295D01*
X110464705Y-102050408D01*
X110405831Y-101908275D01*
X110320360Y-101780358D01*
X110211577Y-101671575D01*
X110083660Y-101586104D01*
X109941527Y-101527230D01*
X109790640Y-101497217D01*
X109670409Y-101497217D01*
X109633860Y-101486130D01*
X109541160Y-101477000D01*
X109541152Y-101477000D01*
X109510162Y-101473948D01*
X109479172Y-101477000D01*
X106179369Y-101477000D01*
X105624105Y-100921737D01*
X105604343Y-100897657D01*
X105508261Y-100818804D01*
X105398642Y-100760211D01*
X105279698Y-100724130D01*
X105186998Y-100715000D01*
X105186990Y-100715000D01*
X105156000Y-100711948D01*
X105125010Y-100715000D01*
X105109405Y-100715000D01*
X105017942Y-100653887D01*
X104875809Y-100595013D01*
X104724922Y-100565000D01*
X104571078Y-100565000D01*
X104420191Y-100595013D01*
X104383030Y-100610406D01*
X104382987Y-100610191D01*
X104324113Y-100468058D01*
X104238642Y-100340141D01*
X104129859Y-100231358D01*
X104001942Y-100145887D01*
X103859809Y-100087013D01*
X103708922Y-100057000D01*
X103555078Y-100057000D01*
X103404191Y-100087013D01*
X103262058Y-100145887D01*
X103134141Y-100231358D01*
X103025358Y-100340141D01*
X102939887Y-100468058D01*
X102881013Y-100610191D01*
X102851000Y-100761078D01*
X102851000Y-100914922D01*
X102881013Y-101065809D01*
X102939887Y-101207942D01*
X103025358Y-101335859D01*
X103134141Y-101444642D01*
X103262058Y-101530113D01*
X103404191Y-101588987D01*
X103512079Y-101610447D01*
X103671895Y-101770263D01*
X103691657Y-101794343D01*
X103787739Y-101873196D01*
X103897358Y-101931789D01*
X104016302Y-101967870D01*
X104109002Y-101977000D01*
X104109011Y-101977000D01*
X104139999Y-101980052D01*
X104170987Y-101977000D01*
X104186595Y-101977000D01*
X104278058Y-102038113D01*
X104420191Y-102096987D01*
X104571078Y-102127000D01*
X104724922Y-102127000D01*
X104875809Y-102096987D01*
X104973962Y-102056330D01*
X105449899Y-102532268D01*
X105469657Y-102556343D01*
X105493732Y-102576101D01*
X105493734Y-102576103D01*
X105565500Y-102635000D01*
X105565739Y-102635196D01*
X105675358Y-102693789D01*
X105794302Y-102729870D01*
X105887002Y-102739000D01*
X105887009Y-102739000D01*
X105918000Y-102742052D01*
X105948990Y-102739000D01*
X106956819Y-102739000D01*
X106956057Y-102746740D01*
X106956057Y-104246740D01*
X106963413Y-104321429D01*
X106964841Y-104326136D01*
X106950913Y-104372051D01*
X106943557Y-104446740D01*
X106943557Y-105146740D01*
X106950913Y-105221429D01*
X106972699Y-105293248D01*
X107008078Y-105359436D01*
X107055689Y-105417451D01*
X107078758Y-105436383D01*
X106938583Y-105551423D01*
X106806620Y-105712219D01*
X106708563Y-105895672D01*
X106648180Y-106094729D01*
X106632900Y-106249869D01*
X106632900Y-106703612D01*
X106648180Y-106858752D01*
X106708563Y-107057809D01*
X106806620Y-107241261D01*
X106938584Y-107402057D01*
X107099380Y-107534020D01*
X107282832Y-107632077D01*
X107481889Y-107692460D01*
X107688900Y-107712849D01*
X107895912Y-107692460D01*
X108094969Y-107632077D01*
X108278421Y-107534020D01*
X108439217Y-107402057D01*
X108571180Y-107241261D01*
X108669237Y-107057808D01*
X108708133Y-106929583D01*
X109131057Y-106929583D01*
X109131057Y-107846500D01*
X105234403Y-107846500D01*
X96076807Y-91985177D01*
X101409887Y-97318258D01*
X101429645Y-97342333D01*
X101453720Y-97362091D01*
X101453722Y-97362093D01*
X101525727Y-97421186D01*
X101635346Y-97479779D01*
X101754290Y-97515860D01*
X101877988Y-97528043D01*
X101908986Y-97524990D01*
X109978990Y-97524990D01*
X109978990Y-97625000D01*
X109975938Y-97655990D01*
X109978990Y-97686980D01*
X109978990Y-97686988D01*
X109988120Y-97779688D01*
X109994589Y-97801013D01*
X110024201Y-97898631D01*
X110082794Y-98008250D01*
X110141887Y-98080255D01*
X110141890Y-98080258D01*
X110161648Y-98104333D01*
X110185723Y-98124091D01*
X110700606Y-98638974D01*
X110092423Y-99247157D01*
X109919999Y-99247157D01*
X109796538Y-99259317D01*
X109677821Y-99295329D01*
X109568411Y-99353810D01*
X109472512Y-99432512D01*
X109393810Y-99528411D01*
X109335329Y-99637821D01*
X109299317Y-99756538D01*
X109294271Y-99807770D01*
X109209859Y-99723358D01*
X109110474Y-99656951D01*
X109104671Y-99637821D01*
X109046190Y-99528411D01*
X108967488Y-99432512D01*
X108871589Y-99353810D01*
X108762179Y-99295329D01*
X108643462Y-99259317D01*
X108520001Y-99247157D01*
X107869999Y-99247157D01*
X107746538Y-99259317D01*
X107627821Y-99295329D01*
X107518411Y-99353810D01*
X107422512Y-99432512D01*
X107343810Y-99528411D01*
X107285329Y-99637821D01*
X107249317Y-99756538D01*
X107237157Y-99879999D01*
X107237157Y-100780001D01*
X107249317Y-100903462D01*
X107285329Y-101022179D01*
X107343810Y-101131589D01*
X107422512Y-101227488D01*
X107518411Y-101306190D01*
X107627821Y-101364671D01*
X107746538Y-101400683D01*
X107869999Y-101412843D01*
X108520001Y-101412843D01*
X108643462Y-101400683D01*
X108762179Y-101364671D01*
X108871589Y-101306190D01*
X108967488Y-101227488D01*
X109046190Y-101131589D01*
X109104671Y-101022179D01*
X109110474Y-101003049D01*
X109209859Y-100936642D01*
X109294271Y-100852230D01*
X109299317Y-100903462D01*
X109335329Y-101022179D01*
X109393810Y-101131589D01*
X109472512Y-101227488D01*
X109568411Y-101306190D01*
X109677821Y-101364671D01*
X109796538Y-101400683D01*
X109919999Y-101412843D01*
X110570001Y-101412843D01*
X110693462Y-101400683D01*
X110812179Y-101364671D01*
X110921589Y-101306190D01*
X111017488Y-101227488D01*
X111096190Y-101131589D01*
X111154671Y-101022179D01*
X111190683Y-100903462D01*
X111202843Y-100780001D01*
X111202843Y-99879999D01*
X111190683Y-99756538D01*
X111154671Y-99637821D01*
X111149073Y-99627348D01*
X111443421Y-99333000D01*
X111568580Y-99333000D01*
X111586959Y-99351379D01*
X111582411Y-99353810D01*
X111486512Y-99432512D01*
X111407810Y-99528411D01*
X111349329Y-99637821D01*
X111313317Y-99756538D01*
X111301157Y-99879999D01*
X111301157Y-100780001D01*
X111313317Y-100903462D01*
X111349329Y-101022179D01*
X111407810Y-101131589D01*
X111486512Y-101227488D01*
X111582411Y-101306190D01*
X111691821Y-101364671D01*
X111810538Y-101400683D01*
X111933999Y-101412843D01*
X112584001Y-101412843D01*
X112707462Y-101400683D01*
X112826179Y-101364671D01*
X112935589Y-101306190D01*
X113031488Y-101227488D01*
X113110190Y-101131589D01*
X113168671Y-101022179D01*
X113204683Y-100903462D01*
X113216843Y-100780001D01*
X113216843Y-99879999D01*
X113204683Y-99756538D01*
X113168671Y-99637821D01*
X113110190Y-99528411D01*
X113031488Y-99432512D01*
X112935589Y-99353810D01*
X112826179Y-99295329D01*
X112766728Y-99277295D01*
X112759649Y-99205415D01*
X112730601Y-99109657D01*
X112683429Y-99021405D01*
X112619948Y-98944052D01*
X112600565Y-98928145D01*
X112287000Y-98614580D01*
X112287000Y-98475078D01*
X112256987Y-98324191D01*
X112198113Y-98182058D01*
X112112642Y-98054141D01*
X112003859Y-97945358D01*
X111875942Y-97859887D01*
X111733809Y-97801013D01*
X111625921Y-97779553D01*
X111240990Y-97394622D01*
X111240990Y-96924988D01*
X111244043Y-96893990D01*
X111231860Y-96770292D01*
X111195779Y-96651348D01*
X111137186Y-96541729D01*
X111058333Y-96445647D01*
X110962251Y-96366794D01*
X110852632Y-96308201D01*
X110733688Y-96272120D01*
X110640988Y-96262990D01*
X110609990Y-96259937D01*
X110578992Y-96262990D01*
X102139357Y-96262990D01*
X99017445Y-93141078D01*
X111995000Y-93141078D01*
X111995000Y-93294922D01*
X112025013Y-93445809D01*
X112083887Y-93587942D01*
X112169358Y-93715859D01*
X112278141Y-93824642D01*
X112406058Y-93910113D01*
X112548191Y-93968987D01*
X112699078Y-93999000D01*
X112852922Y-93999000D01*
X113003809Y-93968987D01*
X113145942Y-93910113D01*
X113273859Y-93824642D01*
X113382642Y-93715859D01*
X113468113Y-93587942D01*
X113526987Y-93445809D01*
X113557000Y-93294922D01*
X113557000Y-93141078D01*
X113526987Y-92990191D01*
X113468113Y-92848058D01*
X113382642Y-92720141D01*
X113273859Y-92611358D01*
X113145942Y-92525887D01*
X113003809Y-92467013D01*
X112852922Y-92437000D01*
X112699078Y-92437000D01*
X112548191Y-92467013D01*
X112406058Y-92525887D01*
X112278141Y-92611358D01*
X112169358Y-92720141D01*
X112083887Y-92848058D01*
X112025013Y-92990191D01*
X111995000Y-93141078D01*
X99017445Y-93141078D01*
X98001445Y-92125078D01*
X108439000Y-92125078D01*
X108439000Y-92278922D01*
X108469013Y-92429809D01*
X108527887Y-92571942D01*
X108613358Y-92699859D01*
X108722141Y-92808642D01*
X108850058Y-92894113D01*
X108992191Y-92952987D01*
X109143078Y-92983000D01*
X109296922Y-92983000D01*
X109447809Y-92952987D01*
X109589942Y-92894113D01*
X109717859Y-92808642D01*
X109826642Y-92699859D01*
X109912113Y-92571942D01*
X109970987Y-92429809D01*
X110001000Y-92278922D01*
X110001000Y-92125078D01*
X109970987Y-91974191D01*
X109912113Y-91832058D01*
X109826642Y-91704141D01*
X109717859Y-91595358D01*
X109589942Y-91509887D01*
X109447809Y-91451013D01*
X109296922Y-91421000D01*
X109143078Y-91421000D01*
X108992191Y-91451013D01*
X108850058Y-91509887D01*
X108722141Y-91595358D01*
X108613358Y-91704141D01*
X108527887Y-91832058D01*
X108469013Y-91974191D01*
X108439000Y-92125078D01*
X98001445Y-92125078D01*
X96731001Y-90854635D01*
X96731001Y-86703001D01*
X96734054Y-86672003D01*
X96721871Y-86548305D01*
X96685790Y-86429361D01*
X96627197Y-86319742D01*
X96568104Y-86247737D01*
X96568102Y-86247735D01*
X96548344Y-86223660D01*
X96524269Y-86203902D01*
X95881210Y-85560843D01*
X97116000Y-85560843D01*
X97190689Y-85553487D01*
X97262508Y-85531701D01*
X97328696Y-85496322D01*
X97386711Y-85448711D01*
X97434322Y-85390696D01*
X97469701Y-85324508D01*
X97491487Y-85252689D01*
X97498843Y-85178000D01*
X97498843Y-84836000D01*
X98970157Y-84836000D01*
X98970157Y-85178000D01*
X98977513Y-85252689D01*
X98999299Y-85324508D01*
X99034678Y-85390696D01*
X99082289Y-85448711D01*
X99140304Y-85496322D01*
X99206492Y-85531701D01*
X99278311Y-85553487D01*
X99353000Y-85560843D01*
X101053000Y-85560843D01*
X101127689Y-85553487D01*
X101199508Y-85531701D01*
X101265696Y-85496322D01*
X101323711Y-85448711D01*
X101371322Y-85390696D01*
X101406701Y-85324508D01*
X101428487Y-85252689D01*
X101435843Y-85178000D01*
X101435843Y-83739264D01*
X101854000Y-84157421D01*
X101854001Y-87351046D01*
X101851543Y-87376000D01*
X101857321Y-87434656D01*
X101861352Y-87475585D01*
X101873023Y-87514058D01*
X101890400Y-87571343D01*
X101937571Y-87659595D01*
X101961421Y-87688656D01*
X102001053Y-87736948D01*
X102020430Y-87752850D01*
X105506151Y-91238572D01*
X105522053Y-91257949D01*
X105541430Y-91273851D01*
X105599405Y-91321430D01*
X105636688Y-91341358D01*
X105687658Y-91368602D01*
X105783416Y-91397650D01*
X105858054Y-91405001D01*
X105858056Y-91405001D01*
X105883000Y-91407458D01*
X105907944Y-91405001D01*
X115928634Y-91405001D01*
X115948208Y-91424575D01*
X116076125Y-91510046D01*
X116218258Y-91568920D01*
X116369145Y-91598933D01*
X116522989Y-91598933D01*
X116673876Y-91568920D01*
X116816009Y-91510046D01*
X116943926Y-91424575D01*
X117052709Y-91315792D01*
X117138180Y-91187875D01*
X117197054Y-91045742D01*
X117227067Y-90894855D01*
X117227067Y-90741011D01*
X117197054Y-90590124D01*
X117138180Y-90447991D01*
X117052709Y-90320074D01*
X116943926Y-90211291D01*
X116816009Y-90125820D01*
X116673876Y-90066946D01*
X116522989Y-90036933D01*
X116369145Y-90036933D01*
X116218258Y-90066946D01*
X116076125Y-90125820D01*
X115948208Y-90211291D01*
X115839425Y-90320074D01*
X115793370Y-90389001D01*
X106093422Y-90389001D01*
X102870000Y-87165580D01*
X102870000Y-86702501D01*
X102880141Y-86712642D01*
X103008058Y-86798113D01*
X103150191Y-86856987D01*
X103301078Y-86887000D01*
X103440580Y-86887000D01*
X106303149Y-89749570D01*
X106319052Y-89768948D01*
X106338429Y-89784850D01*
X106396404Y-89832429D01*
X106461883Y-89867428D01*
X106484657Y-89879601D01*
X106580415Y-89908649D01*
X106655053Y-89916000D01*
X106655055Y-89916000D01*
X106679999Y-89918457D01*
X106704943Y-89916000D01*
X114074273Y-89916000D01*
X114165416Y-89943648D01*
X114240054Y-89950999D01*
X114240056Y-89950999D01*
X114265000Y-89953456D01*
X114289944Y-89950999D01*
X119712579Y-89950999D01*
X121647000Y-91885421D01*
X121647000Y-92024922D01*
X121677013Y-92175809D01*
X121735887Y-92317942D01*
X121821358Y-92445859D01*
X121930141Y-92554642D01*
X122058058Y-92640113D01*
X122200191Y-92698987D01*
X122351078Y-92729000D01*
X122504922Y-92729000D01*
X122655809Y-92698987D01*
X122797942Y-92640113D01*
X122925859Y-92554642D01*
X123034642Y-92445859D01*
X123120113Y-92317942D01*
X123178987Y-92175809D01*
X123209000Y-92024922D01*
X123209000Y-91871078D01*
X123178987Y-91720191D01*
X123120113Y-91578058D01*
X123034642Y-91450141D01*
X122925859Y-91341358D01*
X122797942Y-91255887D01*
X122655809Y-91197013D01*
X122504922Y-91167000D01*
X122365421Y-91167000D01*
X120299854Y-89101434D01*
X120283947Y-89082051D01*
X120206594Y-89018570D01*
X120118342Y-88971398D01*
X120022584Y-88942350D01*
X119947946Y-88934999D01*
X119947943Y-88934999D01*
X119922999Y-88932542D01*
X119898055Y-88934999D01*
X114420730Y-88934999D01*
X114329587Y-88907351D01*
X114254949Y-88900000D01*
X114254946Y-88900000D01*
X114230002Y-88897543D01*
X114205058Y-88900000D01*
X113372501Y-88900000D01*
X113382642Y-88889859D01*
X113468113Y-88761942D01*
X113526987Y-88619809D01*
X113557000Y-88468922D01*
X113557000Y-88315078D01*
X113526987Y-88164191D01*
X113468113Y-88022058D01*
X113382642Y-87894141D01*
X113284000Y-87795499D01*
X113284000Y-87654944D01*
X113286457Y-87630000D01*
X113283542Y-87600405D01*
X113276649Y-87530415D01*
X113247601Y-87434657D01*
X113200429Y-87346405D01*
X113136948Y-87269052D01*
X113117565Y-87253145D01*
X107360420Y-81496000D01*
X119721157Y-81496000D01*
X119721157Y-83096000D01*
X119728513Y-83170689D01*
X119750299Y-83242508D01*
X119785678Y-83308696D01*
X119833289Y-83366711D01*
X119891304Y-83414322D01*
X119957492Y-83449701D01*
X120029311Y-83471487D01*
X120104000Y-83478843D01*
X121704000Y-83478843D01*
X121778689Y-83471487D01*
X121850508Y-83449701D01*
X121916696Y-83414322D01*
X121974711Y-83366711D01*
X122022322Y-83308696D01*
X122057701Y-83242508D01*
X122079487Y-83170689D01*
X122086843Y-83096000D01*
X122086843Y-81496000D01*
X122079487Y-81421311D01*
X122057701Y-81349492D01*
X122022322Y-81283304D01*
X121974711Y-81225289D01*
X121916696Y-81177678D01*
X121850508Y-81142299D01*
X121778689Y-81120513D01*
X121704000Y-81113157D01*
X120104000Y-81113157D01*
X120029311Y-81120513D01*
X119957492Y-81142299D01*
X119891304Y-81177678D01*
X119833289Y-81225289D01*
X119785678Y-81283304D01*
X119750299Y-81349492D01*
X119728513Y-81421311D01*
X119721157Y-81496000D01*
X107360420Y-81496000D01*
X106884119Y-81019699D01*
X106907809Y-81014987D01*
X107049942Y-80956113D01*
X107177859Y-80870642D01*
X107286642Y-80761859D01*
X107372113Y-80633942D01*
X107430987Y-80491809D01*
X107461000Y-80340922D01*
X107461000Y-80187078D01*
X107430987Y-80036191D01*
X107372113Y-79894058D01*
X107286642Y-79766141D01*
X107177859Y-79657358D01*
X107049942Y-79571887D01*
X106907809Y-79513013D01*
X106756922Y-79483000D01*
X106617421Y-79483000D01*
X105664000Y-78529580D01*
X105664000Y-78256943D01*
X105666457Y-78231999D01*
X105662367Y-78190475D01*
X105656649Y-78132415D01*
X105627601Y-78036657D01*
X105591222Y-77968597D01*
X105580429Y-77948404D01*
X105532850Y-77890429D01*
X105516948Y-77871052D01*
X105497571Y-77855150D01*
X102779997Y-75137577D01*
X102779997Y-70900999D01*
X116629000Y-70900999D01*
X116628999Y-72496682D01*
X116623157Y-72556000D01*
X116623157Y-74256000D01*
X116630513Y-74330689D01*
X116652299Y-74402508D01*
X116687678Y-74468696D01*
X116735289Y-74526711D01*
X116793304Y-74574322D01*
X116859492Y-74609701D01*
X116931311Y-74631487D01*
X117006000Y-74638843D01*
X118706000Y-74638843D01*
X118780689Y-74631487D01*
X118852508Y-74609701D01*
X118918696Y-74574322D01*
X118976711Y-74526711D01*
X119024322Y-74468696D01*
X119059701Y-74402508D01*
X119081487Y-74330689D01*
X119088843Y-74256000D01*
X119088843Y-72556000D01*
X119081487Y-72481311D01*
X119059701Y-72409492D01*
X119024322Y-72343304D01*
X118976711Y-72285289D01*
X118918696Y-72237678D01*
X118852508Y-72202299D01*
X118780689Y-72180513D01*
X118706000Y-72173157D01*
X118158612Y-72173157D01*
X118028706Y-72133750D01*
X117890999Y-72120187D01*
X117890999Y-70900999D01*
X131730631Y-70900999D01*
X133227001Y-72397370D01*
X133227000Y-76931002D01*
X133227000Y-78532595D01*
X133165887Y-78624058D01*
X133107013Y-78766191D01*
X133077000Y-78917078D01*
X133077000Y-79070922D01*
X133107013Y-79221809D01*
X133165887Y-79363942D01*
X133227000Y-79455405D01*
X133227000Y-79548595D01*
X133165887Y-79640058D01*
X133107013Y-79782191D01*
X133077000Y-79933078D01*
X133077000Y-80086922D01*
X133107013Y-80237809D01*
X133165887Y-80379942D01*
X133227000Y-80471405D01*
X133227001Y-82857000D01*
X133223948Y-82888000D01*
X133236130Y-83011697D01*
X133272211Y-83130641D01*
X133330804Y-83240260D01*
X133389897Y-83312265D01*
X133389900Y-83312268D01*
X133409658Y-83336343D01*
X133433733Y-83356101D01*
X135995704Y-85918073D01*
X136002613Y-85952809D01*
X136061487Y-86094942D01*
X136146958Y-86222859D01*
X136255741Y-86331642D01*
X136383658Y-86417113D01*
X136525791Y-86475987D01*
X136552710Y-86481342D01*
X136579356Y-86615300D01*
X136638230Y-86757433D01*
X136723701Y-86885350D01*
X136832484Y-86994133D01*
X136960401Y-87079604D01*
X137102534Y-87138478D01*
X137253421Y-87168491D01*
X137407265Y-87168491D01*
X137558152Y-87138478D01*
X137700285Y-87079604D01*
X137828202Y-86994133D01*
X137936985Y-86885350D01*
X138022456Y-86757433D01*
X138081330Y-86615300D01*
X138111343Y-86464413D01*
X138111343Y-86310569D01*
X138081330Y-86159682D01*
X138022456Y-86017549D01*
X137936985Y-85889632D01*
X137828202Y-85780849D01*
X137700285Y-85695378D01*
X137558152Y-85636504D01*
X137531233Y-85631149D01*
X137504587Y-85497191D01*
X137445713Y-85355058D01*
X137360242Y-85227141D01*
X137251459Y-85118358D01*
X137123542Y-85032887D01*
X136981409Y-84974013D01*
X136830522Y-84944000D01*
X136806369Y-84944000D01*
X134489000Y-82626632D01*
X134489000Y-80471405D01*
X134550113Y-80379942D01*
X134608987Y-80237809D01*
X134639000Y-80086922D01*
X134639000Y-79933078D01*
X134608987Y-79782191D01*
X134550113Y-79640058D01*
X134489000Y-79548595D01*
X134489000Y-79455405D01*
X134550113Y-79363942D01*
X134608987Y-79221809D01*
X134639000Y-79070922D01*
X134639000Y-78917078D01*
X134608987Y-78766191D01*
X134550113Y-78624058D01*
X134489000Y-78532595D01*
X134489000Y-75723000D01*
X144333157Y-75723000D01*
X144333157Y-76423000D01*
X144340513Y-76497689D01*
X144362299Y-76569508D01*
X144397678Y-76635696D01*
X144445289Y-76693711D01*
X144462700Y-76708000D01*
X144445289Y-76722289D01*
X144397678Y-76780304D01*
X144362299Y-76846492D01*
X144340513Y-76918311D01*
X144333157Y-76993000D01*
X144333157Y-77693000D01*
X144340513Y-77767689D01*
X144362299Y-77839508D01*
X144397678Y-77905696D01*
X144445289Y-77963711D01*
X144503304Y-78011322D01*
X144569492Y-78046701D01*
X144641311Y-78068487D01*
X144716000Y-78075843D01*
X146316000Y-78075843D01*
X146390689Y-78068487D01*
X146462508Y-78046701D01*
X146528696Y-78011322D01*
X146586711Y-77963711D01*
X146634322Y-77905696D01*
X146663558Y-77851000D01*
X146914056Y-77851000D01*
X146939000Y-77853457D01*
X146963944Y-77851000D01*
X146963947Y-77851000D01*
X147038585Y-77843649D01*
X147134343Y-77814601D01*
X147222595Y-77767429D01*
X147252362Y-77743000D01*
X147396922Y-77743000D01*
X147547809Y-77712987D01*
X147689942Y-77654113D01*
X147817859Y-77568642D01*
X147828001Y-77558500D01*
X147828001Y-78843541D01*
X147296542Y-79375000D01*
X146663558Y-79375000D01*
X146634322Y-79320304D01*
X146586711Y-79262289D01*
X146528696Y-79214678D01*
X146462508Y-79179299D01*
X146390689Y-79157513D01*
X146316000Y-79150157D01*
X144716000Y-79150157D01*
X144641311Y-79157513D01*
X144569492Y-79179299D01*
X144503304Y-79214678D01*
X144445289Y-79262289D01*
X144397678Y-79320304D01*
X144362299Y-79386492D01*
X144340513Y-79458311D01*
X144333157Y-79533000D01*
X144333157Y-80233000D01*
X144340513Y-80307689D01*
X144362299Y-80379508D01*
X144397678Y-80445696D01*
X144445289Y-80503711D01*
X144503304Y-80551322D01*
X144569492Y-80586701D01*
X144641311Y-80608487D01*
X144716000Y-80615843D01*
X146316000Y-80615843D01*
X146390689Y-80608487D01*
X146462508Y-80586701D01*
X146528696Y-80551322D01*
X146586711Y-80503711D01*
X146634322Y-80445696D01*
X146663558Y-80391000D01*
X147482018Y-80391000D01*
X147506962Y-80393457D01*
X147531906Y-80391000D01*
X147531909Y-80391000D01*
X147606547Y-80383649D01*
X147702305Y-80354601D01*
X147790557Y-80307429D01*
X147867910Y-80243948D01*
X147883817Y-80224565D01*
X148677565Y-79430817D01*
X148696948Y-79414910D01*
X148760429Y-79337557D01*
X148807601Y-79249305D01*
X148836649Y-79153547D01*
X148844000Y-79078909D01*
X148844000Y-79078906D01*
X148846457Y-79053962D01*
X148844000Y-79029018D01*
X148844000Y-72986501D01*
X148942642Y-72887859D01*
X149028113Y-72759942D01*
X149086987Y-72617809D01*
X149117000Y-72466922D01*
X149117000Y-72313078D01*
X149086987Y-72162191D01*
X149028113Y-72020058D01*
X148942642Y-71892141D01*
X148833859Y-71783358D01*
X148705942Y-71697887D01*
X148563809Y-71639013D01*
X148412922Y-71609000D01*
X148259078Y-71609000D01*
X148108191Y-71639013D01*
X147966058Y-71697887D01*
X147838141Y-71783358D01*
X147729358Y-71892141D01*
X147643887Y-72020058D01*
X147585013Y-72162191D01*
X147555000Y-72313078D01*
X147555000Y-72466922D01*
X147585013Y-72617809D01*
X147643887Y-72759942D01*
X147729358Y-72887859D01*
X147828000Y-72986501D01*
X147828000Y-75095499D01*
X147817859Y-75085358D01*
X147689942Y-74999887D01*
X147547809Y-74941013D01*
X147396922Y-74911000D01*
X147243078Y-74911000D01*
X147092191Y-74941013D01*
X146950058Y-74999887D01*
X146822141Y-75085358D01*
X146713358Y-75194141D01*
X146627887Y-75322058D01*
X146577182Y-75444469D01*
X146528696Y-75404678D01*
X146462508Y-75369299D01*
X146390689Y-75347513D01*
X146316000Y-75340157D01*
X144716000Y-75340157D01*
X144641311Y-75347513D01*
X144569492Y-75369299D01*
X144503304Y-75404678D01*
X144445289Y-75452289D01*
X144397678Y-75510304D01*
X144362299Y-75576492D01*
X144340513Y-75648311D01*
X144333157Y-75723000D01*
X134489000Y-75723000D01*
X134489000Y-72166990D01*
X134492052Y-72136000D01*
X134489000Y-72105009D01*
X134489000Y-72105002D01*
X134479870Y-72012302D01*
X134443789Y-71893358D01*
X134385196Y-71783739D01*
X134306343Y-71687657D01*
X134282268Y-71667899D01*
X132460104Y-69845736D01*
X132440342Y-69821656D01*
X132344260Y-69742803D01*
X132234641Y-69684210D01*
X132115697Y-69648129D01*
X132022997Y-69638999D01*
X132022989Y-69638999D01*
X131991999Y-69635947D01*
X131961009Y-69638999D01*
X117212991Y-69638999D01*
X117182001Y-69635947D01*
X117151011Y-69638999D01*
X101658986Y-69638999D01*
X101627998Y-69635947D01*
X101597011Y-69638999D01*
X101597001Y-69638999D01*
X101504301Y-69648129D01*
X101385357Y-69684210D01*
X101361431Y-69696999D01*
X95672989Y-69696999D01*
X95641999Y-69693947D01*
X95611008Y-69696999D01*
X95611001Y-69696999D01*
X95518301Y-69706129D01*
X95399357Y-69742210D01*
X95289738Y-69800803D01*
X95221996Y-69856398D01*
X95193656Y-69879656D01*
X95173898Y-69903731D01*
X92197732Y-72879898D01*
X92173657Y-72899656D01*
X92153899Y-72923731D01*
X92153896Y-72923734D01*
X92094803Y-72995739D01*
X92036210Y-73105358D01*
X92000129Y-73224302D01*
X91987947Y-73347999D01*
X91991000Y-73378999D01*
X91990999Y-83163011D01*
X91987947Y-83194001D01*
X91990999Y-83224991D01*
X91990999Y-83224998D01*
X92000129Y-83317698D01*
X92036210Y-83436642D01*
X92094803Y-83546261D01*
X92173656Y-83642344D01*
X92197736Y-83662106D01*
X95469002Y-86933373D01*
X95469001Y-90932433D01*
X87968770Y-77941733D01*
X92842881Y-69494000D01*
X152165327Y-69494000D01*
X157031326Y-77941566D01*
G36*
X99112102Y-71044903D02*
G01*
X99019307Y-71268931D01*
X98972000Y-71506757D01*
X98972000Y-71749243D01*
X99019307Y-71987069D01*
X99112102Y-72211097D01*
X99246820Y-72412717D01*
X99418283Y-72584180D01*
X99619903Y-72718898D01*
X99843931Y-72811693D01*
X100081757Y-72859000D01*
X100324243Y-72859000D01*
X100562069Y-72811693D01*
X100786097Y-72718898D01*
X100987717Y-72584180D01*
X101159180Y-72412717D01*
X101293898Y-72211097D01*
X101386693Y-71987069D01*
X101434000Y-71749243D01*
X101434000Y-71506757D01*
X101386693Y-71268931D01*
X101293898Y-71044903D01*
X101236499Y-70958999D01*
X101539009Y-70958999D01*
X101569999Y-70962051D01*
X101600989Y-70958999D01*
X101763998Y-70958999D01*
X101763997Y-75323053D01*
X101761540Y-75347997D01*
X101763997Y-75372941D01*
X101763997Y-75372943D01*
X101771348Y-75447581D01*
X101800396Y-75543339D01*
X101847568Y-75631592D01*
X101911049Y-75708945D01*
X101930432Y-75724852D01*
X104648001Y-78442422D01*
X104648000Y-78715055D01*
X104645543Y-78740000D01*
X104648000Y-78764944D01*
X104648000Y-78764946D01*
X104650036Y-78785616D01*
X102230855Y-76366435D01*
X102214948Y-76347052D01*
X102137595Y-76283571D01*
X102049343Y-76236399D01*
X101953585Y-76207351D01*
X101878947Y-76200000D01*
X101878944Y-76200000D01*
X101854000Y-76197543D01*
X101829056Y-76200000D01*
X101325004Y-76200000D01*
X101293898Y-76124903D01*
X101159180Y-75923283D01*
X100987717Y-75751820D01*
X100786097Y-75617102D01*
X100562069Y-75524307D01*
X100324243Y-75477000D01*
X100081757Y-75477000D01*
X99843931Y-75524307D01*
X99619903Y-75617102D01*
X99418283Y-75751820D01*
X99246820Y-75923283D01*
X99112102Y-76124903D01*
X99080996Y-76200000D01*
X97388004Y-76200000D01*
X97356898Y-76124903D01*
X97222180Y-75923283D01*
X97050717Y-75751820D01*
X96849097Y-75617102D01*
X96625069Y-75524307D01*
X96387243Y-75477000D01*
X96144757Y-75477000D01*
X95906931Y-75524307D01*
X95682903Y-75617102D01*
X95481283Y-75751820D01*
X95309820Y-75923283D01*
X95175102Y-76124903D01*
X95082307Y-76348931D01*
X95035000Y-76586757D01*
X95035000Y-76829243D01*
X95082307Y-77067069D01*
X95175102Y-77291097D01*
X95309820Y-77492717D01*
X95481283Y-77664180D01*
X95682903Y-77798898D01*
X95906931Y-77891693D01*
X96144757Y-77939000D01*
X96387243Y-77939000D01*
X96625069Y-77891693D01*
X96849097Y-77798898D01*
X97050717Y-77664180D01*
X97222180Y-77492717D01*
X97356898Y-77291097D01*
X97388004Y-77216000D01*
X99080996Y-77216000D01*
X99112102Y-77291097D01*
X99246820Y-77492717D01*
X99418283Y-77664180D01*
X99619903Y-77798898D01*
X99843931Y-77891693D01*
X100081757Y-77939000D01*
X100324243Y-77939000D01*
X100562069Y-77891693D01*
X100786097Y-77798898D01*
X100987717Y-77664180D01*
X101159180Y-77492717D01*
X101293898Y-77291097D01*
X101325004Y-77216000D01*
X101643580Y-77216000D01*
X102359524Y-77931944D01*
X102239074Y-78012425D01*
X102130291Y-78121208D01*
X102044820Y-78249125D01*
X101985946Y-78391258D01*
X101955933Y-78542145D01*
X101955933Y-78695989D01*
X101985946Y-78846876D01*
X102044820Y-78989009D01*
X102130291Y-79116926D01*
X102239074Y-79225709D01*
X102366991Y-79311180D01*
X102509124Y-79370054D01*
X102532230Y-79374650D01*
X110979000Y-87821420D01*
X110979000Y-87960922D01*
X111009013Y-88111809D01*
X111067887Y-88253942D01*
X111153358Y-88381859D01*
X111262141Y-88490642D01*
X111390058Y-88576113D01*
X111532191Y-88634987D01*
X111683078Y-88665000D01*
X111836922Y-88665000D01*
X111987809Y-88634987D01*
X112024970Y-88619594D01*
X112025013Y-88619809D01*
X112083887Y-88761942D01*
X112169358Y-88889859D01*
X112179499Y-88900000D01*
X106890421Y-88900000D01*
X104159000Y-86168580D01*
X104159000Y-86029078D01*
X104128987Y-85878191D01*
X104070113Y-85736058D01*
X103984642Y-85608141D01*
X103875859Y-85499358D01*
X103747942Y-85413887D01*
X103605809Y-85355013D01*
X103454922Y-85325000D01*
X103301078Y-85325000D01*
X103150191Y-85355013D01*
X103008058Y-85413887D01*
X102880141Y-85499358D01*
X102870000Y-85509499D01*
X102870000Y-83971943D01*
X102872457Y-83946999D01*
X102870000Y-83922053D01*
X102862649Y-83847415D01*
X102833601Y-83751657D01*
X102811643Y-83710576D01*
X102786429Y-83663404D01*
X102738850Y-83605429D01*
X102722948Y-83586052D01*
X102703571Y-83570150D01*
X101355587Y-82222166D01*
X101386693Y-82147069D01*
X101434000Y-81909243D01*
X101434000Y-81666757D01*
X101386693Y-81428931D01*
X101293898Y-81204903D01*
X101159180Y-81003283D01*
X100987717Y-80831820D01*
X100786097Y-80697102D01*
X100562069Y-80604307D01*
X100324243Y-80557000D01*
X100081757Y-80557000D01*
X99843931Y-80604307D01*
X99619903Y-80697102D01*
X99418283Y-80831820D01*
X99246820Y-81003283D01*
X99144110Y-81157000D01*
X97324890Y-81157000D01*
X97222180Y-81003283D01*
X97050717Y-80831820D01*
X96849097Y-80697102D01*
X96625069Y-80604307D01*
X96387243Y-80557000D01*
X96144757Y-80557000D01*
X95906931Y-80604307D01*
X95682903Y-80697102D01*
X95481283Y-80831820D01*
X95309820Y-81003283D01*
X95175102Y-81204903D01*
X95089734Y-81411000D01*
X94749369Y-81411000D01*
X94244447Y-80906079D01*
X94222987Y-80798191D01*
X94164113Y-80656058D01*
X94078642Y-80528141D01*
X93969859Y-80419358D01*
X93841942Y-80333887D01*
X93699809Y-80275013D01*
X93548922Y-80245000D01*
X93395078Y-80245000D01*
X93252999Y-80273261D01*
X93252999Y-74046757D01*
X95035000Y-74046757D01*
X95035000Y-74289243D01*
X95082307Y-74527069D01*
X95175102Y-74751097D01*
X95309820Y-74952717D01*
X95481283Y-75124180D01*
X95682903Y-75258898D01*
X95906931Y-75351693D01*
X96144757Y-75399000D01*
X96387243Y-75399000D01*
X96625069Y-75351693D01*
X96849097Y-75258898D01*
X97050717Y-75124180D01*
X97222180Y-74952717D01*
X97356898Y-74751097D01*
X97388004Y-74676000D01*
X99080996Y-74676000D01*
X99112102Y-74751097D01*
X99246820Y-74952717D01*
X99418283Y-75124180D01*
X99619903Y-75258898D01*
X99843931Y-75351693D01*
X100081757Y-75399000D01*
X100324243Y-75399000D01*
X100562069Y-75351693D01*
X100786097Y-75258898D01*
X100987717Y-75124180D01*
X101159180Y-74952717D01*
X101293898Y-74751097D01*
X101386693Y-74527069D01*
X101434000Y-74289243D01*
X101434000Y-74046757D01*
X101386693Y-73808931D01*
X101293898Y-73584903D01*
X101159180Y-73383283D01*
X100987717Y-73211820D01*
X100786097Y-73077102D01*
X100562069Y-72984307D01*
X100324243Y-72937000D01*
X100081757Y-72937000D01*
X99843931Y-72984307D01*
X99619903Y-73077102D01*
X99418283Y-73211820D01*
X99246820Y-73383283D01*
X99112102Y-73584903D01*
X99080996Y-73660000D01*
X97388004Y-73660000D01*
X97356898Y-73584903D01*
X97222180Y-73383283D01*
X97050717Y-73211820D01*
X96849097Y-73077102D01*
X96625069Y-72984307D01*
X96387243Y-72937000D01*
X96144757Y-72937000D01*
X95906931Y-72984307D01*
X95682903Y-73077102D01*
X95481283Y-73211820D01*
X95309820Y-73383283D01*
X95175102Y-73584903D01*
X95082307Y-73808931D01*
X95035000Y-74046757D01*
X93252999Y-74046757D01*
X93252999Y-73609367D01*
X95047962Y-71814405D01*
X95082307Y-71987069D01*
X95175102Y-72211097D01*
X95309820Y-72412717D01*
X95481283Y-72584180D01*
X95682903Y-72718898D01*
X95906931Y-72811693D01*
X96144757Y-72859000D01*
X96387243Y-72859000D01*
X96625069Y-72811693D01*
X96849097Y-72718898D01*
X97050717Y-72584180D01*
X97222180Y-72412717D01*
X97356898Y-72211097D01*
X97449693Y-71987069D01*
X97497000Y-71749243D01*
X97497000Y-71506757D01*
X97449693Y-71268931D01*
X97356898Y-71044903D01*
X97299499Y-70958999D01*
X99169501Y-70958999D01*
X99112102Y-71044903D01*
G37*
X99112102Y-71044903D02*
X99019307Y-71268931D01*
X98972000Y-71506757D01*
X98972000Y-71749243D01*
X99019307Y-71987069D01*
X99112102Y-72211097D01*
X99246820Y-72412717D01*
X99418283Y-72584180D01*
X99619903Y-72718898D01*
X99843931Y-72811693D01*
X100081757Y-72859000D01*
X100324243Y-72859000D01*
X100562069Y-72811693D01*
X100786097Y-72718898D01*
X100987717Y-72584180D01*
X101159180Y-72412717D01*
X101293898Y-72211097D01*
X101386693Y-71987069D01*
X101434000Y-71749243D01*
X101434000Y-71506757D01*
X101386693Y-71268931D01*
X101293898Y-71044903D01*
X101236499Y-70958999D01*
X101539009Y-70958999D01*
X101569999Y-70962051D01*
X101600989Y-70958999D01*
X101763998Y-70958999D01*
X101763997Y-75323053D01*
X101761540Y-75347997D01*
X101763997Y-75372941D01*
X101763997Y-75372943D01*
X101771348Y-75447581D01*
X101800396Y-75543339D01*
X101847568Y-75631592D01*
X101911049Y-75708945D01*
X101930432Y-75724852D01*
X104648001Y-78442422D01*
X104648000Y-78715055D01*
X104645543Y-78740000D01*
X104648000Y-78764944D01*
X104648000Y-78764946D01*
X104650036Y-78785616D01*
X102230855Y-76366435D01*
X102214948Y-76347052D01*
X102137595Y-76283571D01*
X102049343Y-76236399D01*
X101953585Y-76207351D01*
X101878947Y-76200000D01*
X101878944Y-76200000D01*
X101854000Y-76197543D01*
X101829056Y-76200000D01*
X101325004Y-76200000D01*
X101293898Y-76124903D01*
X101159180Y-75923283D01*
X100987717Y-75751820D01*
X100786097Y-75617102D01*
X100562069Y-75524307D01*
X100324243Y-75477000D01*
X100081757Y-75477000D01*
X99843931Y-75524307D01*
X99619903Y-75617102D01*
X99418283Y-75751820D01*
X99246820Y-75923283D01*
X99112102Y-76124903D01*
X99080996Y-76200000D01*
X97388004Y-76200000D01*
X97356898Y-76124903D01*
X97222180Y-75923283D01*
X97050717Y-75751820D01*
X96849097Y-75617102D01*
X96625069Y-75524307D01*
X96387243Y-75477000D01*
X96144757Y-75477000D01*
X95906931Y-75524307D01*
X95682903Y-75617102D01*
X95481283Y-75751820D01*
X95309820Y-75923283D01*
X95175102Y-76124903D01*
X95082307Y-76348931D01*
X95035000Y-76586757D01*
X95035000Y-76829243D01*
X95082307Y-77067069D01*
X95175102Y-77291097D01*
X95309820Y-77492717D01*
X95481283Y-77664180D01*
X95682903Y-77798898D01*
X95906931Y-77891693D01*
X96144757Y-77939000D01*
X96387243Y-77939000D01*
X96625069Y-77891693D01*
X96849097Y-77798898D01*
X97050717Y-77664180D01*
X97222180Y-77492717D01*
X97356898Y-77291097D01*
X97388004Y-77216000D01*
X99080996Y-77216000D01*
X99112102Y-77291097D01*
X99246820Y-77492717D01*
X99418283Y-77664180D01*
X99619903Y-77798898D01*
X99843931Y-77891693D01*
X100081757Y-77939000D01*
X100324243Y-77939000D01*
X100562069Y-77891693D01*
X100786097Y-77798898D01*
X100987717Y-77664180D01*
X101159180Y-77492717D01*
X101293898Y-77291097D01*
X101325004Y-77216000D01*
X101643580Y-77216000D01*
X102359524Y-77931944D01*
X102239074Y-78012425D01*
X102130291Y-78121208D01*
X102044820Y-78249125D01*
X101985946Y-78391258D01*
X101955933Y-78542145D01*
X101955933Y-78695989D01*
X101985946Y-78846876D01*
X102044820Y-78989009D01*
X102130291Y-79116926D01*
X102239074Y-79225709D01*
X102366991Y-79311180D01*
X102509124Y-79370054D01*
X102532230Y-79374650D01*
X110979000Y-87821420D01*
X110979000Y-87960922D01*
X111009013Y-88111809D01*
X111067887Y-88253942D01*
X111153358Y-88381859D01*
X111262141Y-88490642D01*
X111390058Y-88576113D01*
X111532191Y-88634987D01*
X111683078Y-88665000D01*
X111836922Y-88665000D01*
X111987809Y-88634987D01*
X112024970Y-88619594D01*
X112025013Y-88619809D01*
X112083887Y-88761942D01*
X112169358Y-88889859D01*
X112179499Y-88900000D01*
X106890421Y-88900000D01*
X104159000Y-86168580D01*
X104159000Y-86029078D01*
X104128987Y-85878191D01*
X104070113Y-85736058D01*
X103984642Y-85608141D01*
X103875859Y-85499358D01*
X103747942Y-85413887D01*
X103605809Y-85355013D01*
X103454922Y-85325000D01*
X103301078Y-85325000D01*
X103150191Y-85355013D01*
X103008058Y-85413887D01*
X102880141Y-85499358D01*
X102870000Y-85509499D01*
X102870000Y-83971943D01*
X102872457Y-83946999D01*
X102870000Y-83922053D01*
X102862649Y-83847415D01*
X102833601Y-83751657D01*
X102811643Y-83710576D01*
X102786429Y-83663404D01*
X102738850Y-83605429D01*
X102722948Y-83586052D01*
X102703571Y-83570150D01*
X101355587Y-82222166D01*
X101386693Y-82147069D01*
X101434000Y-81909243D01*
X101434000Y-81666757D01*
X101386693Y-81428931D01*
X101293898Y-81204903D01*
X101159180Y-81003283D01*
X100987717Y-80831820D01*
X100786097Y-80697102D01*
X100562069Y-80604307D01*
X100324243Y-80557000D01*
X100081757Y-80557000D01*
X99843931Y-80604307D01*
X99619903Y-80697102D01*
X99418283Y-80831820D01*
X99246820Y-81003283D01*
X99144110Y-81157000D01*
X97324890Y-81157000D01*
X97222180Y-81003283D01*
X97050717Y-80831820D01*
X96849097Y-80697102D01*
X96625069Y-80604307D01*
X96387243Y-80557000D01*
X96144757Y-80557000D01*
X95906931Y-80604307D01*
X95682903Y-80697102D01*
X95481283Y-80831820D01*
X95309820Y-81003283D01*
X95175102Y-81204903D01*
X95089734Y-81411000D01*
X94749369Y-81411000D01*
X94244447Y-80906079D01*
X94222987Y-80798191D01*
X94164113Y-80656058D01*
X94078642Y-80528141D01*
X93969859Y-80419358D01*
X93841942Y-80333887D01*
X93699809Y-80275013D01*
X93548922Y-80245000D01*
X93395078Y-80245000D01*
X93252999Y-80273261D01*
X93252999Y-74046757D01*
X95035000Y-74046757D01*
X95035000Y-74289243D01*
X95082307Y-74527069D01*
X95175102Y-74751097D01*
X95309820Y-74952717D01*
X95481283Y-75124180D01*
X95682903Y-75258898D01*
X95906931Y-75351693D01*
X96144757Y-75399000D01*
X96387243Y-75399000D01*
X96625069Y-75351693D01*
X96849097Y-75258898D01*
X97050717Y-75124180D01*
X97222180Y-74952717D01*
X97356898Y-74751097D01*
X97388004Y-74676000D01*
X99080996Y-74676000D01*
X99112102Y-74751097D01*
X99246820Y-74952717D01*
X99418283Y-75124180D01*
X99619903Y-75258898D01*
X99843931Y-75351693D01*
X100081757Y-75399000D01*
X100324243Y-75399000D01*
X100562069Y-75351693D01*
X100786097Y-75258898D01*
X100987717Y-75124180D01*
X101159180Y-74952717D01*
X101293898Y-74751097D01*
X101386693Y-74527069D01*
X101434000Y-74289243D01*
X101434000Y-74046757D01*
X101386693Y-73808931D01*
X101293898Y-73584903D01*
X101159180Y-73383283D01*
X100987717Y-73211820D01*
X100786097Y-73077102D01*
X100562069Y-72984307D01*
X100324243Y-72937000D01*
X100081757Y-72937000D01*
X99843931Y-72984307D01*
X99619903Y-73077102D01*
X99418283Y-73211820D01*
X99246820Y-73383283D01*
X99112102Y-73584903D01*
X99080996Y-73660000D01*
X97388004Y-73660000D01*
X97356898Y-73584903D01*
X97222180Y-73383283D01*
X97050717Y-73211820D01*
X96849097Y-73077102D01*
X96625069Y-72984307D01*
X96387243Y-72937000D01*
X96144757Y-72937000D01*
X95906931Y-72984307D01*
X95682903Y-73077102D01*
X95481283Y-73211820D01*
X95309820Y-73383283D01*
X95175102Y-73584903D01*
X95082307Y-73808931D01*
X95035000Y-74046757D01*
X93252999Y-74046757D01*
X93252999Y-73609367D01*
X95047962Y-71814405D01*
X95082307Y-71987069D01*
X95175102Y-72211097D01*
X95309820Y-72412717D01*
X95481283Y-72584180D01*
X95682903Y-72718898D01*
X95906931Y-72811693D01*
X96144757Y-72859000D01*
X96387243Y-72859000D01*
X96625069Y-72811693D01*
X96849097Y-72718898D01*
X97050717Y-72584180D01*
X97222180Y-72412717D01*
X97356898Y-72211097D01*
X97449693Y-71987069D01*
X97497000Y-71749243D01*
X97497000Y-71506757D01*
X97449693Y-71268931D01*
X97356898Y-71044903D01*
X97299499Y-70958999D01*
X99169501Y-70958999D01*
X99112102Y-71044903D01*
M02*
