G04 #@! TF.GenerationSoftware,KiCad,Pcbnew,(5.1.7)-1*
G04 #@! TF.CreationDate,2021-08-27T16:03:39+02:00*
G04 #@! TF.ProjectId,STEM,5354454d-2e6b-4696-9361-645f70636258,A*
G04 #@! TF.SameCoordinates,Original*
G04 #@! TF.FileFunction,Soldermask,Top*
G04 #@! TF.FilePolarity,Negative*
%FSLAX46Y46*%
G04 Gerber Fmt 4.6, Leading zero omitted, Abs format (unit mm)*
G04 Created by KiCad (PCBNEW (5.1.7)-1) date 2021-08-27 16:03:39*
%MOMM*%
%LPD*%
G01*
G04 APERTURE LIST*
%ADD10C,2.002000*%
%ADD11C,1.502000*%
%ADD12C,2.102000*%
%ADD13O,1.802000X1.802000*%
%ADD14C,0.100000*%
G04 APERTURE END LIST*
D10*
X122450000Y-132787000D03*
X122450000Y-123787000D03*
D11*
X122450000Y-121287000D03*
X122450000Y-135287000D03*
D12*
X116200000Y-125787000D03*
X116200000Y-130787000D03*
X128700000Y-125787000D03*
X128700000Y-130787000D03*
D10*
X140025000Y-119650000D03*
X140025000Y-110650000D03*
D11*
X140025000Y-108150000D03*
X140025000Y-122150000D03*
D12*
X133775000Y-112650000D03*
X133775000Y-117650000D03*
X146275000Y-112650000D03*
X146275000Y-117650000D03*
D10*
X104975000Y-119675000D03*
X104975000Y-110675000D03*
D11*
X104975000Y-108175000D03*
X104975000Y-122175000D03*
D12*
X98725000Y-112675000D03*
X98725000Y-117675000D03*
X111225000Y-112675000D03*
X111225000Y-117675000D03*
D10*
X122450000Y-106787000D03*
X122450000Y-97787000D03*
D11*
X122450000Y-95287000D03*
X122450000Y-109287000D03*
D12*
X116200000Y-99787000D03*
X116200000Y-104787000D03*
X128700000Y-99787000D03*
X128700000Y-104787000D03*
G36*
G01*
X143796000Y-104235248D02*
X143796000Y-105194752D01*
G75*
G02*
X143524752Y-105466000I-271248J0D01*
G01*
X142765248Y-105466000D01*
G75*
G02*
X142494000Y-105194752I0J271248D01*
G01*
X142494000Y-104235248D01*
G75*
G02*
X142765248Y-103964000I271248J0D01*
G01*
X143524752Y-103964000D01*
G75*
G02*
X143796000Y-104235248I0J-271248D01*
G01*
G37*
G36*
G01*
X145796000Y-104235248D02*
X145796000Y-105194752D01*
G75*
G02*
X145524752Y-105466000I-271248J0D01*
G01*
X144765248Y-105466000D01*
G75*
G02*
X144494000Y-105194752I0J271248D01*
G01*
X144494000Y-104235248D01*
G75*
G02*
X144765248Y-103964000I271248J0D01*
G01*
X145524752Y-103964000D01*
G75*
G02*
X145796000Y-104235248I0J-271248D01*
G01*
G37*
G36*
G01*
X108839000Y-106524752D02*
X108839000Y-105565248D01*
G75*
G02*
X109110248Y-105294000I271248J0D01*
G01*
X109869752Y-105294000D01*
G75*
G02*
X110141000Y-105565248I0J-271248D01*
G01*
X110141000Y-106524752D01*
G75*
G02*
X109869752Y-106796000I-271248J0D01*
G01*
X109110248Y-106796000D01*
G75*
G02*
X108839000Y-106524752I0J271248D01*
G01*
G37*
G36*
G01*
X110839000Y-106524752D02*
X110839000Y-105565248D01*
G75*
G02*
X111110248Y-105294000I271248J0D01*
G01*
X111869752Y-105294000D01*
G75*
G02*
X112141000Y-105565248I0J-271248D01*
G01*
X112141000Y-106524752D01*
G75*
G02*
X111869752Y-106796000I-271248J0D01*
G01*
X111110248Y-106796000D01*
G75*
G02*
X110839000Y-106524752I0J271248D01*
G01*
G37*
G36*
G01*
X110889000Y-104644298D02*
X110889000Y-103635702D01*
G75*
G02*
X111160702Y-103364000I271702J0D01*
G01*
X111894298Y-103364000D01*
G75*
G02*
X112166000Y-103635702I0J-271702D01*
G01*
X112166000Y-104644298D01*
G75*
G02*
X111894298Y-104916000I-271702J0D01*
G01*
X111160702Y-104916000D01*
G75*
G02*
X110889000Y-104644298I0J271702D01*
G01*
G37*
G36*
G01*
X108814000Y-104644298D02*
X108814000Y-103635702D01*
G75*
G02*
X109085702Y-103364000I271702J0D01*
G01*
X109819298Y-103364000D01*
G75*
G02*
X110091000Y-103635702I0J-271702D01*
G01*
X110091000Y-104644298D01*
G75*
G02*
X109819298Y-104916000I-271702J0D01*
G01*
X109085702Y-104916000D01*
G75*
G02*
X108814000Y-104644298I0J271702D01*
G01*
G37*
G36*
G01*
X134366000Y-123980248D02*
X134366000Y-124939752D01*
G75*
G02*
X134094752Y-125211000I-271248J0D01*
G01*
X133335248Y-125211000D01*
G75*
G02*
X133064000Y-124939752I0J271248D01*
G01*
X133064000Y-123980248D01*
G75*
G02*
X133335248Y-123709000I271248J0D01*
G01*
X134094752Y-123709000D01*
G75*
G02*
X134366000Y-123980248I0J-271248D01*
G01*
G37*
G36*
G01*
X132366000Y-123980248D02*
X132366000Y-124939752D01*
G75*
G02*
X132094752Y-125211000I-271248J0D01*
G01*
X131335248Y-125211000D01*
G75*
G02*
X131064000Y-124939752I0J271248D01*
G01*
X131064000Y-123980248D01*
G75*
G02*
X131335248Y-123709000I271248J0D01*
G01*
X132094752Y-123709000D01*
G75*
G02*
X132366000Y-123980248I0J-271248D01*
G01*
G37*
D13*
X150100000Y-121469600D03*
X150100000Y-118929600D03*
X150100000Y-116389600D03*
X150100000Y-113849600D03*
X150100000Y-111309600D03*
G36*
G01*
X149199000Y-109619600D02*
X149199000Y-107919600D01*
G75*
G02*
X149250000Y-107868600I51000J0D01*
G01*
X150950000Y-107868600D01*
G75*
G02*
X151001000Y-107919600I0J-51000D01*
G01*
X151001000Y-109619600D01*
G75*
G02*
X150950000Y-109670600I-51000J0D01*
G01*
X149250000Y-109670600D01*
G75*
G02*
X149199000Y-109619600I0J51000D01*
G01*
G37*
G36*
G01*
X103949000Y-126677752D02*
X103949000Y-125718248D01*
G75*
G02*
X104220248Y-125447000I271248J0D01*
G01*
X104979752Y-125447000D01*
G75*
G02*
X105251000Y-125718248I0J-271248D01*
G01*
X105251000Y-126677752D01*
G75*
G02*
X104979752Y-126949000I-271248J0D01*
G01*
X104220248Y-126949000D01*
G75*
G02*
X103949000Y-126677752I0J271248D01*
G01*
G37*
G36*
G01*
X101949000Y-126677752D02*
X101949000Y-125718248D01*
G75*
G02*
X102220248Y-125447000I271248J0D01*
G01*
X102979752Y-125447000D01*
G75*
G02*
X103251000Y-125718248I0J-271248D01*
G01*
X103251000Y-126677752D01*
G75*
G02*
X102979752Y-126949000I-271248J0D01*
G01*
X102220248Y-126949000D01*
G75*
G02*
X101949000Y-126677752I0J271248D01*
G01*
G37*
G36*
G01*
X117246000Y-109350702D02*
X117246000Y-110359298D01*
G75*
G02*
X116974298Y-110631000I-271702J0D01*
G01*
X116240702Y-110631000D01*
G75*
G02*
X115969000Y-110359298I0J271702D01*
G01*
X115969000Y-109350702D01*
G75*
G02*
X116240702Y-109079000I271702J0D01*
G01*
X116974298Y-109079000D01*
G75*
G02*
X117246000Y-109350702I0J-271702D01*
G01*
G37*
G36*
G01*
X115171000Y-109350702D02*
X115171000Y-110359298D01*
G75*
G02*
X114899298Y-110631000I-271702J0D01*
G01*
X114165702Y-110631000D01*
G75*
G02*
X113894000Y-110359298I0J271702D01*
G01*
X113894000Y-109350702D01*
G75*
G02*
X114165702Y-109079000I271702J0D01*
G01*
X114899298Y-109079000D01*
G75*
G02*
X115171000Y-109350702I0J-271702D01*
G01*
G37*
G36*
G01*
X108079000Y-126646828D02*
X108079000Y-125689172D01*
G75*
G02*
X108351172Y-125417000I272172J0D01*
G01*
X109058828Y-125417000D01*
G75*
G02*
X109331000Y-125689172I0J-272172D01*
G01*
X109331000Y-126646828D01*
G75*
G02*
X109058828Y-126919000I-272172J0D01*
G01*
X108351172Y-126919000D01*
G75*
G02*
X108079000Y-126646828I0J272172D01*
G01*
G37*
G36*
G01*
X106029000Y-126646828D02*
X106029000Y-125689172D01*
G75*
G02*
X106301172Y-125417000I272172J0D01*
G01*
X107008828Y-125417000D01*
G75*
G02*
X107281000Y-125689172I0J-272172D01*
G01*
X107281000Y-126646828D01*
G75*
G02*
X107008828Y-126919000I-272172J0D01*
G01*
X106301172Y-126919000D01*
G75*
G02*
X106029000Y-126646828I0J272172D01*
G01*
G37*
G36*
G01*
X132366000Y-127790248D02*
X132366000Y-128749752D01*
G75*
G02*
X132094752Y-129021000I-271248J0D01*
G01*
X131335248Y-129021000D01*
G75*
G02*
X131064000Y-128749752I0J271248D01*
G01*
X131064000Y-127790248D01*
G75*
G02*
X131335248Y-127519000I271248J0D01*
G01*
X132094752Y-127519000D01*
G75*
G02*
X132366000Y-127790248I0J-271248D01*
G01*
G37*
G36*
G01*
X134366000Y-127790248D02*
X134366000Y-128749752D01*
G75*
G02*
X134094752Y-129021000I-271248J0D01*
G01*
X133335248Y-129021000D01*
G75*
G02*
X133064000Y-128749752I0J271248D01*
G01*
X133064000Y-127790248D01*
G75*
G02*
X133335248Y-127519000I271248J0D01*
G01*
X134094752Y-127519000D01*
G75*
G02*
X134366000Y-127790248I0J-271248D01*
G01*
G37*
G36*
G01*
X132366000Y-97310248D02*
X132366000Y-98269752D01*
G75*
G02*
X132094752Y-98541000I-271248J0D01*
G01*
X131335248Y-98541000D01*
G75*
G02*
X131064000Y-98269752I0J271248D01*
G01*
X131064000Y-97310248D01*
G75*
G02*
X131335248Y-97039000I271248J0D01*
G01*
X132094752Y-97039000D01*
G75*
G02*
X132366000Y-97310248I0J-271248D01*
G01*
G37*
G36*
G01*
X134366000Y-97310248D02*
X134366000Y-98269752D01*
G75*
G02*
X134094752Y-98541000I-271248J0D01*
G01*
X133335248Y-98541000D01*
G75*
G02*
X133064000Y-98269752I0J271248D01*
G01*
X133064000Y-97310248D01*
G75*
G02*
X133335248Y-97039000I271248J0D01*
G01*
X134094752Y-97039000D01*
G75*
G02*
X134366000Y-97310248I0J-271248D01*
G01*
G37*
G36*
G01*
X119800000Y-112638000D02*
X118000000Y-112638000D01*
G75*
G02*
X117949000Y-112587000I0J51000D01*
G01*
X117949000Y-112137000D01*
G75*
G02*
X118000000Y-112086000I51000J0D01*
G01*
X119800000Y-112086000D01*
G75*
G02*
X119851000Y-112137000I0J-51000D01*
G01*
X119851000Y-112587000D01*
G75*
G02*
X119800000Y-112638000I-51000J0D01*
G01*
G37*
G36*
G01*
X119800000Y-113288000D02*
X118000000Y-113288000D01*
G75*
G02*
X117949000Y-113237000I0J51000D01*
G01*
X117949000Y-112787000D01*
G75*
G02*
X118000000Y-112736000I51000J0D01*
G01*
X119800000Y-112736000D01*
G75*
G02*
X119851000Y-112787000I0J-51000D01*
G01*
X119851000Y-113237000D01*
G75*
G02*
X119800000Y-113288000I-51000J0D01*
G01*
G37*
G36*
G01*
X119800000Y-113938000D02*
X118000000Y-113938000D01*
G75*
G02*
X117949000Y-113887000I0J51000D01*
G01*
X117949000Y-113437000D01*
G75*
G02*
X118000000Y-113386000I51000J0D01*
G01*
X119800000Y-113386000D01*
G75*
G02*
X119851000Y-113437000I0J-51000D01*
G01*
X119851000Y-113887000D01*
G75*
G02*
X119800000Y-113938000I-51000J0D01*
G01*
G37*
G36*
G01*
X119800000Y-114588000D02*
X118000000Y-114588000D01*
G75*
G02*
X117949000Y-114537000I0J51000D01*
G01*
X117949000Y-114087000D01*
G75*
G02*
X118000000Y-114036000I51000J0D01*
G01*
X119800000Y-114036000D01*
G75*
G02*
X119851000Y-114087000I0J-51000D01*
G01*
X119851000Y-114537000D01*
G75*
G02*
X119800000Y-114588000I-51000J0D01*
G01*
G37*
G36*
G01*
X119800000Y-115238000D02*
X118000000Y-115238000D01*
G75*
G02*
X117949000Y-115187000I0J51000D01*
G01*
X117949000Y-114737000D01*
G75*
G02*
X118000000Y-114686000I51000J0D01*
G01*
X119800000Y-114686000D01*
G75*
G02*
X119851000Y-114737000I0J-51000D01*
G01*
X119851000Y-115187000D01*
G75*
G02*
X119800000Y-115238000I-51000J0D01*
G01*
G37*
G36*
G01*
X119800000Y-115888000D02*
X118000000Y-115888000D01*
G75*
G02*
X117949000Y-115837000I0J51000D01*
G01*
X117949000Y-115387000D01*
G75*
G02*
X118000000Y-115336000I51000J0D01*
G01*
X119800000Y-115336000D01*
G75*
G02*
X119851000Y-115387000I0J-51000D01*
G01*
X119851000Y-115837000D01*
G75*
G02*
X119800000Y-115888000I-51000J0D01*
G01*
G37*
G36*
G01*
X119800000Y-116538000D02*
X118000000Y-116538000D01*
G75*
G02*
X117949000Y-116487000I0J51000D01*
G01*
X117949000Y-116037000D01*
G75*
G02*
X118000000Y-115986000I51000J0D01*
G01*
X119800000Y-115986000D01*
G75*
G02*
X119851000Y-116037000I0J-51000D01*
G01*
X119851000Y-116487000D01*
G75*
G02*
X119800000Y-116538000I-51000J0D01*
G01*
G37*
G36*
G01*
X119800000Y-117188000D02*
X118000000Y-117188000D01*
G75*
G02*
X117949000Y-117137000I0J51000D01*
G01*
X117949000Y-116687000D01*
G75*
G02*
X118000000Y-116636000I51000J0D01*
G01*
X119800000Y-116636000D01*
G75*
G02*
X119851000Y-116687000I0J-51000D01*
G01*
X119851000Y-117137000D01*
G75*
G02*
X119800000Y-117188000I-51000J0D01*
G01*
G37*
G36*
G01*
X119800000Y-117838000D02*
X118000000Y-117838000D01*
G75*
G02*
X117949000Y-117787000I0J51000D01*
G01*
X117949000Y-117337000D01*
G75*
G02*
X118000000Y-117286000I51000J0D01*
G01*
X119800000Y-117286000D01*
G75*
G02*
X119851000Y-117337000I0J-51000D01*
G01*
X119851000Y-117787000D01*
G75*
G02*
X119800000Y-117838000I-51000J0D01*
G01*
G37*
G36*
G01*
X119800000Y-118488000D02*
X118000000Y-118488000D01*
G75*
G02*
X117949000Y-118437000I0J51000D01*
G01*
X117949000Y-117987000D01*
G75*
G02*
X118000000Y-117936000I51000J0D01*
G01*
X119800000Y-117936000D01*
G75*
G02*
X119851000Y-117987000I0J-51000D01*
G01*
X119851000Y-118437000D01*
G75*
G02*
X119800000Y-118488000I-51000J0D01*
G01*
G37*
G36*
G01*
X126900000Y-118488000D02*
X125100000Y-118488000D01*
G75*
G02*
X125049000Y-118437000I0J51000D01*
G01*
X125049000Y-117987000D01*
G75*
G02*
X125100000Y-117936000I51000J0D01*
G01*
X126900000Y-117936000D01*
G75*
G02*
X126951000Y-117987000I0J-51000D01*
G01*
X126951000Y-118437000D01*
G75*
G02*
X126900000Y-118488000I-51000J0D01*
G01*
G37*
G36*
G01*
X126900000Y-117838000D02*
X125100000Y-117838000D01*
G75*
G02*
X125049000Y-117787000I0J51000D01*
G01*
X125049000Y-117337000D01*
G75*
G02*
X125100000Y-117286000I51000J0D01*
G01*
X126900000Y-117286000D01*
G75*
G02*
X126951000Y-117337000I0J-51000D01*
G01*
X126951000Y-117787000D01*
G75*
G02*
X126900000Y-117838000I-51000J0D01*
G01*
G37*
G36*
G01*
X126900000Y-117188000D02*
X125100000Y-117188000D01*
G75*
G02*
X125049000Y-117137000I0J51000D01*
G01*
X125049000Y-116687000D01*
G75*
G02*
X125100000Y-116636000I51000J0D01*
G01*
X126900000Y-116636000D01*
G75*
G02*
X126951000Y-116687000I0J-51000D01*
G01*
X126951000Y-117137000D01*
G75*
G02*
X126900000Y-117188000I-51000J0D01*
G01*
G37*
G36*
G01*
X126900000Y-116538000D02*
X125100000Y-116538000D01*
G75*
G02*
X125049000Y-116487000I0J51000D01*
G01*
X125049000Y-116037000D01*
G75*
G02*
X125100000Y-115986000I51000J0D01*
G01*
X126900000Y-115986000D01*
G75*
G02*
X126951000Y-116037000I0J-51000D01*
G01*
X126951000Y-116487000D01*
G75*
G02*
X126900000Y-116538000I-51000J0D01*
G01*
G37*
G36*
G01*
X126900000Y-115888000D02*
X125100000Y-115888000D01*
G75*
G02*
X125049000Y-115837000I0J51000D01*
G01*
X125049000Y-115387000D01*
G75*
G02*
X125100000Y-115336000I51000J0D01*
G01*
X126900000Y-115336000D01*
G75*
G02*
X126951000Y-115387000I0J-51000D01*
G01*
X126951000Y-115837000D01*
G75*
G02*
X126900000Y-115888000I-51000J0D01*
G01*
G37*
G36*
G01*
X126900000Y-115238000D02*
X125100000Y-115238000D01*
G75*
G02*
X125049000Y-115187000I0J51000D01*
G01*
X125049000Y-114737000D01*
G75*
G02*
X125100000Y-114686000I51000J0D01*
G01*
X126900000Y-114686000D01*
G75*
G02*
X126951000Y-114737000I0J-51000D01*
G01*
X126951000Y-115187000D01*
G75*
G02*
X126900000Y-115238000I-51000J0D01*
G01*
G37*
G36*
G01*
X126900000Y-114588000D02*
X125100000Y-114588000D01*
G75*
G02*
X125049000Y-114537000I0J51000D01*
G01*
X125049000Y-114087000D01*
G75*
G02*
X125100000Y-114036000I51000J0D01*
G01*
X126900000Y-114036000D01*
G75*
G02*
X126951000Y-114087000I0J-51000D01*
G01*
X126951000Y-114537000D01*
G75*
G02*
X126900000Y-114588000I-51000J0D01*
G01*
G37*
G36*
G01*
X126900000Y-113938000D02*
X125100000Y-113938000D01*
G75*
G02*
X125049000Y-113887000I0J51000D01*
G01*
X125049000Y-113437000D01*
G75*
G02*
X125100000Y-113386000I51000J0D01*
G01*
X126900000Y-113386000D01*
G75*
G02*
X126951000Y-113437000I0J-51000D01*
G01*
X126951000Y-113887000D01*
G75*
G02*
X126900000Y-113938000I-51000J0D01*
G01*
G37*
G36*
G01*
X126900000Y-113288000D02*
X125100000Y-113288000D01*
G75*
G02*
X125049000Y-113237000I0J51000D01*
G01*
X125049000Y-112787000D01*
G75*
G02*
X125100000Y-112736000I51000J0D01*
G01*
X126900000Y-112736000D01*
G75*
G02*
X126951000Y-112787000I0J-51000D01*
G01*
X126951000Y-113237000D01*
G75*
G02*
X126900000Y-113288000I-51000J0D01*
G01*
G37*
G36*
G01*
X126900000Y-112638000D02*
X125100000Y-112638000D01*
G75*
G02*
X125049000Y-112587000I0J51000D01*
G01*
X125049000Y-112137000D01*
G75*
G02*
X125100000Y-112086000I51000J0D01*
G01*
X126900000Y-112086000D01*
G75*
G02*
X126951000Y-112137000I0J-51000D01*
G01*
X126951000Y-112587000D01*
G75*
G02*
X126900000Y-112638000I-51000J0D01*
G01*
G37*
G36*
G01*
X117221000Y-111280248D02*
X117221000Y-112239752D01*
G75*
G02*
X116949752Y-112511000I-271248J0D01*
G01*
X116190248Y-112511000D01*
G75*
G02*
X115919000Y-112239752I0J271248D01*
G01*
X115919000Y-111280248D01*
G75*
G02*
X116190248Y-111009000I271248J0D01*
G01*
X116949752Y-111009000D01*
G75*
G02*
X117221000Y-111280248I0J-271248D01*
G01*
G37*
G36*
G01*
X115221000Y-111280248D02*
X115221000Y-112239752D01*
G75*
G02*
X114949752Y-112511000I-271248J0D01*
G01*
X114190248Y-112511000D01*
G75*
G02*
X113919000Y-112239752I0J271248D01*
G01*
X113919000Y-111280248D01*
G75*
G02*
X114190248Y-111009000I271248J0D01*
G01*
X114949752Y-111009000D01*
G75*
G02*
X115221000Y-111280248I0J-271248D01*
G01*
G37*
G36*
G01*
X142494000Y-103349752D02*
X142494000Y-102390248D01*
G75*
G02*
X142765248Y-102119000I271248J0D01*
G01*
X143524752Y-102119000D01*
G75*
G02*
X143796000Y-102390248I0J-271248D01*
G01*
X143796000Y-103349752D01*
G75*
G02*
X143524752Y-103621000I-271248J0D01*
G01*
X142765248Y-103621000D01*
G75*
G02*
X142494000Y-103349752I0J271248D01*
G01*
G37*
G36*
G01*
X144494000Y-103349752D02*
X144494000Y-102390248D01*
G75*
G02*
X144765248Y-102119000I271248J0D01*
G01*
X145524752Y-102119000D01*
G75*
G02*
X145796000Y-102390248I0J-271248D01*
G01*
X145796000Y-103349752D01*
G75*
G02*
X145524752Y-103621000I-271248J0D01*
G01*
X144765248Y-103621000D01*
G75*
G02*
X144494000Y-103349752I0J271248D01*
G01*
G37*
G36*
G01*
X134391000Y-125860702D02*
X134391000Y-126869298D01*
G75*
G02*
X134119298Y-127141000I-271702J0D01*
G01*
X133385702Y-127141000D01*
G75*
G02*
X133114000Y-126869298I0J271702D01*
G01*
X133114000Y-125860702D01*
G75*
G02*
X133385702Y-125589000I271702J0D01*
G01*
X134119298Y-125589000D01*
G75*
G02*
X134391000Y-125860702I0J-271702D01*
G01*
G37*
G36*
G01*
X132316000Y-125860702D02*
X132316000Y-126869298D01*
G75*
G02*
X132044298Y-127141000I-271702J0D01*
G01*
X131310702Y-127141000D01*
G75*
G02*
X131039000Y-126869298I0J271702D01*
G01*
X131039000Y-125860702D01*
G75*
G02*
X131310702Y-125589000I271702J0D01*
G01*
X132044298Y-125589000D01*
G75*
G02*
X132316000Y-125860702I0J-271702D01*
G01*
G37*
G36*
G01*
X134366000Y-101120248D02*
X134366000Y-102079752D01*
G75*
G02*
X134094752Y-102351000I-271248J0D01*
G01*
X133335248Y-102351000D01*
G75*
G02*
X133064000Y-102079752I0J271248D01*
G01*
X133064000Y-101120248D01*
G75*
G02*
X133335248Y-100849000I271248J0D01*
G01*
X134094752Y-100849000D01*
G75*
G02*
X134366000Y-101120248I0J-271248D01*
G01*
G37*
G36*
G01*
X132366000Y-101120248D02*
X132366000Y-102079752D01*
G75*
G02*
X132094752Y-102351000I-271248J0D01*
G01*
X131335248Y-102351000D01*
G75*
G02*
X131064000Y-102079752I0J271248D01*
G01*
X131064000Y-101120248D01*
G75*
G02*
X131335248Y-100849000I271248J0D01*
G01*
X132094752Y-100849000D01*
G75*
G02*
X132366000Y-101120248I0J-271248D01*
G01*
G37*
G36*
G01*
X110141000Y-101755248D02*
X110141000Y-102714752D01*
G75*
G02*
X109869752Y-102986000I-271248J0D01*
G01*
X109110248Y-102986000D01*
G75*
G02*
X108839000Y-102714752I0J271248D01*
G01*
X108839000Y-101755248D01*
G75*
G02*
X109110248Y-101484000I271248J0D01*
G01*
X109869752Y-101484000D01*
G75*
G02*
X110141000Y-101755248I0J-271248D01*
G01*
G37*
G36*
G01*
X112141000Y-101755248D02*
X112141000Y-102714752D01*
G75*
G02*
X111869752Y-102986000I-271248J0D01*
G01*
X111110248Y-102986000D01*
G75*
G02*
X110839000Y-102714752I0J271248D01*
G01*
X110839000Y-101755248D01*
G75*
G02*
X111110248Y-101484000I271248J0D01*
G01*
X111869752Y-101484000D01*
G75*
G02*
X112141000Y-101755248I0J-271248D01*
G01*
G37*
G36*
G01*
X134391000Y-99190702D02*
X134391000Y-100199298D01*
G75*
G02*
X134119298Y-100471000I-271702J0D01*
G01*
X133385702Y-100471000D01*
G75*
G02*
X133114000Y-100199298I0J271702D01*
G01*
X133114000Y-99190702D01*
G75*
G02*
X133385702Y-98919000I271702J0D01*
G01*
X134119298Y-98919000D01*
G75*
G02*
X134391000Y-99190702I0J-271702D01*
G01*
G37*
G36*
G01*
X132316000Y-99190702D02*
X132316000Y-100199298D01*
G75*
G02*
X132044298Y-100471000I-271702J0D01*
G01*
X131310702Y-100471000D01*
G75*
G02*
X131039000Y-100199298I0J271702D01*
G01*
X131039000Y-99190702D01*
G75*
G02*
X131310702Y-98919000I271702J0D01*
G01*
X132044298Y-98919000D01*
G75*
G02*
X132316000Y-99190702I0J-271702D01*
G01*
G37*
G36*
G01*
X119198000Y-137107000D02*
X120722000Y-137107000D01*
G75*
G02*
X120773000Y-137158000I0J-51000D01*
G01*
X120773000Y-141158000D01*
G75*
G02*
X120722000Y-141209000I-51000J0D01*
G01*
X119198000Y-141209000D01*
G75*
G02*
X119147000Y-141158000I0J51000D01*
G01*
X119147000Y-137158000D01*
G75*
G02*
X119198000Y-137107000I51000J0D01*
G01*
G37*
G36*
G01*
X121738000Y-137107000D02*
X123262000Y-137107000D01*
G75*
G02*
X123313000Y-137158000I0J-51000D01*
G01*
X123313000Y-141158000D01*
G75*
G02*
X123262000Y-141209000I-51000J0D01*
G01*
X121738000Y-141209000D01*
G75*
G02*
X121687000Y-141158000I0J51000D01*
G01*
X121687000Y-137158000D01*
G75*
G02*
X121738000Y-137107000I51000J0D01*
G01*
G37*
G36*
G01*
X124278000Y-137107000D02*
X125802000Y-137107000D01*
G75*
G02*
X125853000Y-137158000I0J-51000D01*
G01*
X125853000Y-141158000D01*
G75*
G02*
X125802000Y-141209000I-51000J0D01*
G01*
X124278000Y-141209000D01*
G75*
G02*
X124227000Y-141158000I0J51000D01*
G01*
X124227000Y-137158000D01*
G75*
G02*
X124278000Y-137107000I51000J0D01*
G01*
G37*
G36*
G01*
X144544000Y-101469298D02*
X144544000Y-100460702D01*
G75*
G02*
X144815702Y-100189000I271702J0D01*
G01*
X145549298Y-100189000D01*
G75*
G02*
X145821000Y-100460702I0J-271702D01*
G01*
X145821000Y-101469298D01*
G75*
G02*
X145549298Y-101741000I-271702J0D01*
G01*
X144815702Y-101741000D01*
G75*
G02*
X144544000Y-101469298I0J271702D01*
G01*
G37*
G36*
G01*
X142469000Y-101469298D02*
X142469000Y-100460702D01*
G75*
G02*
X142740702Y-100189000I271702J0D01*
G01*
X143474298Y-100189000D01*
G75*
G02*
X143746000Y-100460702I0J-271702D01*
G01*
X143746000Y-101469298D01*
G75*
G02*
X143474298Y-101741000I-271702J0D01*
G01*
X142740702Y-101741000D01*
G75*
G02*
X142469000Y-101469298I0J271702D01*
G01*
G37*
D14*
G36*
X119852732Y-117837000D02*
G01*
X119853000Y-117838000D01*
X119853000Y-117936000D01*
X119852000Y-117937732D01*
X119851000Y-117938000D01*
X117949000Y-117938000D01*
X117947268Y-117937000D01*
X117947000Y-117936000D01*
X117947000Y-117838000D01*
X117948000Y-117836268D01*
X117949000Y-117836000D01*
X119851000Y-117836000D01*
X119852732Y-117837000D01*
G37*
G36*
X126952732Y-117837000D02*
G01*
X126953000Y-117838000D01*
X126953000Y-117936000D01*
X126952000Y-117937732D01*
X126951000Y-117938000D01*
X125049000Y-117938000D01*
X125047268Y-117937000D01*
X125047000Y-117936000D01*
X125047000Y-117838000D01*
X125048000Y-117836268D01*
X125049000Y-117836000D01*
X126951000Y-117836000D01*
X126952732Y-117837000D01*
G37*
G36*
X119852732Y-117187000D02*
G01*
X119853000Y-117188000D01*
X119853000Y-117286000D01*
X119852000Y-117287732D01*
X119851000Y-117288000D01*
X117949000Y-117288000D01*
X117947268Y-117287000D01*
X117947000Y-117286000D01*
X117947000Y-117188000D01*
X117948000Y-117186268D01*
X117949000Y-117186000D01*
X119851000Y-117186000D01*
X119852732Y-117187000D01*
G37*
G36*
X126952732Y-117187000D02*
G01*
X126953000Y-117188000D01*
X126953000Y-117286000D01*
X126952000Y-117287732D01*
X126951000Y-117288000D01*
X125049000Y-117288000D01*
X125047268Y-117287000D01*
X125047000Y-117286000D01*
X125047000Y-117188000D01*
X125048000Y-117186268D01*
X125049000Y-117186000D01*
X126951000Y-117186000D01*
X126952732Y-117187000D01*
G37*
G36*
X119852732Y-116537000D02*
G01*
X119853000Y-116538000D01*
X119853000Y-116636000D01*
X119852000Y-116637732D01*
X119851000Y-116638000D01*
X117949000Y-116638000D01*
X117947268Y-116637000D01*
X117947000Y-116636000D01*
X117947000Y-116538000D01*
X117948000Y-116536268D01*
X117949000Y-116536000D01*
X119851000Y-116536000D01*
X119852732Y-116537000D01*
G37*
G36*
X126952732Y-116537000D02*
G01*
X126953000Y-116538000D01*
X126953000Y-116636000D01*
X126952000Y-116637732D01*
X126951000Y-116638000D01*
X125049000Y-116638000D01*
X125047268Y-116637000D01*
X125047000Y-116636000D01*
X125047000Y-116538000D01*
X125048000Y-116536268D01*
X125049000Y-116536000D01*
X126951000Y-116536000D01*
X126952732Y-116537000D01*
G37*
G36*
X119852732Y-115887000D02*
G01*
X119853000Y-115888000D01*
X119853000Y-115986000D01*
X119852000Y-115987732D01*
X119851000Y-115988000D01*
X117949000Y-115988000D01*
X117947268Y-115987000D01*
X117947000Y-115986000D01*
X117947000Y-115888000D01*
X117948000Y-115886268D01*
X117949000Y-115886000D01*
X119851000Y-115886000D01*
X119852732Y-115887000D01*
G37*
G36*
X126952732Y-115887000D02*
G01*
X126953000Y-115888000D01*
X126953000Y-115986000D01*
X126952000Y-115987732D01*
X126951000Y-115988000D01*
X125049000Y-115988000D01*
X125047268Y-115987000D01*
X125047000Y-115986000D01*
X125047000Y-115888000D01*
X125048000Y-115886268D01*
X125049000Y-115886000D01*
X126951000Y-115886000D01*
X126952732Y-115887000D01*
G37*
G36*
X126952732Y-115237000D02*
G01*
X126953000Y-115238000D01*
X126953000Y-115336000D01*
X126952000Y-115337732D01*
X126951000Y-115338000D01*
X125049000Y-115338000D01*
X125047268Y-115337000D01*
X125047000Y-115336000D01*
X125047000Y-115238000D01*
X125048000Y-115236268D01*
X125049000Y-115236000D01*
X126951000Y-115236000D01*
X126952732Y-115237000D01*
G37*
G36*
X119852732Y-115237000D02*
G01*
X119853000Y-115238000D01*
X119853000Y-115336000D01*
X119852000Y-115337732D01*
X119851000Y-115338000D01*
X117949000Y-115338000D01*
X117947268Y-115337000D01*
X117947000Y-115336000D01*
X117947000Y-115238000D01*
X117948000Y-115236268D01*
X117949000Y-115236000D01*
X119851000Y-115236000D01*
X119852732Y-115237000D01*
G37*
G36*
X119852732Y-114587000D02*
G01*
X119853000Y-114588000D01*
X119853000Y-114686000D01*
X119852000Y-114687732D01*
X119851000Y-114688000D01*
X117949000Y-114688000D01*
X117947268Y-114687000D01*
X117947000Y-114686000D01*
X117947000Y-114588000D01*
X117948000Y-114586268D01*
X117949000Y-114586000D01*
X119851000Y-114586000D01*
X119852732Y-114587000D01*
G37*
G36*
X126952732Y-114587000D02*
G01*
X126953000Y-114588000D01*
X126953000Y-114686000D01*
X126952000Y-114687732D01*
X126951000Y-114688000D01*
X125049000Y-114688000D01*
X125047268Y-114687000D01*
X125047000Y-114686000D01*
X125047000Y-114588000D01*
X125048000Y-114586268D01*
X125049000Y-114586000D01*
X126951000Y-114586000D01*
X126952732Y-114587000D01*
G37*
G36*
X119852732Y-113937000D02*
G01*
X119853000Y-113938000D01*
X119853000Y-114036000D01*
X119852000Y-114037732D01*
X119851000Y-114038000D01*
X117949000Y-114038000D01*
X117947268Y-114037000D01*
X117947000Y-114036000D01*
X117947000Y-113938000D01*
X117948000Y-113936268D01*
X117949000Y-113936000D01*
X119851000Y-113936000D01*
X119852732Y-113937000D01*
G37*
G36*
X126952732Y-113937000D02*
G01*
X126953000Y-113938000D01*
X126953000Y-114036000D01*
X126952000Y-114037732D01*
X126951000Y-114038000D01*
X125049000Y-114038000D01*
X125047268Y-114037000D01*
X125047000Y-114036000D01*
X125047000Y-113938000D01*
X125048000Y-113936268D01*
X125049000Y-113936000D01*
X126951000Y-113936000D01*
X126952732Y-113937000D01*
G37*
G36*
X119852732Y-113287000D02*
G01*
X119853000Y-113288000D01*
X119853000Y-113386000D01*
X119852000Y-113387732D01*
X119851000Y-113388000D01*
X117949000Y-113388000D01*
X117947268Y-113387000D01*
X117947000Y-113386000D01*
X117947000Y-113288000D01*
X117948000Y-113286268D01*
X117949000Y-113286000D01*
X119851000Y-113286000D01*
X119852732Y-113287000D01*
G37*
G36*
X126952732Y-113287000D02*
G01*
X126953000Y-113288000D01*
X126953000Y-113386000D01*
X126952000Y-113387732D01*
X126951000Y-113388000D01*
X125049000Y-113388000D01*
X125047268Y-113387000D01*
X125047000Y-113386000D01*
X125047000Y-113288000D01*
X125048000Y-113286268D01*
X125049000Y-113286000D01*
X126951000Y-113286000D01*
X126952732Y-113287000D01*
G37*
G36*
X119852732Y-112637000D02*
G01*
X119853000Y-112638000D01*
X119853000Y-112736000D01*
X119852000Y-112737732D01*
X119851000Y-112738000D01*
X117949000Y-112738000D01*
X117947268Y-112737000D01*
X117947000Y-112736000D01*
X117947000Y-112638000D01*
X117948000Y-112636268D01*
X117949000Y-112636000D01*
X119851000Y-112636000D01*
X119852732Y-112637000D01*
G37*
G36*
X126952732Y-112637000D02*
G01*
X126953000Y-112638000D01*
X126953000Y-112736000D01*
X126952000Y-112737732D01*
X126951000Y-112738000D01*
X125049000Y-112738000D01*
X125047268Y-112737000D01*
X125047000Y-112736000D01*
X125047000Y-112638000D01*
X125048000Y-112636268D01*
X125049000Y-112636000D01*
X126951000Y-112636000D01*
X126952732Y-112637000D01*
G37*
M02*
