G04 #@! TF.GenerationSoftware,KiCad,Pcbnew,(5.1.4)-1*
G04 #@! TF.CreationDate,2019-11-25T22:35:39+01:00*
G04 #@! TF.ProjectId,BME680,424d4536-3830-42e6-9b69-6361645f7063,A*
G04 #@! TF.SameCoordinates,Original*
G04 #@! TF.FileFunction,Copper,L2,Bot*
G04 #@! TF.FilePolarity,Positive*
%FSLAX46Y46*%
G04 Gerber Fmt 4.6, Leading zero omitted, Abs format (unit mm)*
G04 Created by KiCad (PCBNEW (5.1.4)-1) date 2019-11-25 22:35:39*
%MOMM*%
%LPD*%
G04 APERTURE LIST*
%ADD10O,1.700000X1.700000*%
%ADD11R,1.700000X1.700000*%
%ADD12R,1.524000X4.000000*%
%ADD13C,0.800000*%
%ADD14C,0.400000*%
%ADD15C,0.254000*%
G04 APERTURE END LIST*
D10*
X150100000Y-121469600D03*
X150100000Y-118929600D03*
X150100000Y-116389600D03*
X150100000Y-113849600D03*
X150100000Y-111309600D03*
D11*
X150100000Y-108769600D03*
D12*
X119960000Y-139168000D03*
X122500000Y-139168000D03*
X125040000Y-139168000D03*
D13*
X128300000Y-128528000D03*
X124873200Y-109635600D03*
X142770000Y-113838000D03*
X113800000Y-114312000D03*
X136141600Y-108769600D03*
X118950000Y-123148000D03*
X118950000Y-128988000D03*
X128600000Y-112926400D03*
X138000000Y-115498000D03*
X128000000Y-112060400D03*
X138050000Y-113368000D03*
X123610000Y-133488000D03*
X124430000Y-120248000D03*
X118910000Y-120548000D03*
X129960000Y-119308000D03*
D14*
X113800000Y-114312000D02*
X122257600Y-114312000D01*
X122257600Y-114312000D02*
X127800000Y-108769600D01*
X127800000Y-108769600D02*
X136141600Y-108769600D01*
X118550001Y-123547999D02*
X118550001Y-128588001D01*
X118950000Y-123148000D02*
X118550001Y-123547999D01*
X118550001Y-128588001D02*
X118950000Y-128988000D01*
X134600001Y-115098001D02*
X132428400Y-112926400D01*
X137600001Y-115098001D02*
X134600001Y-115098001D01*
X138000000Y-115498000D02*
X137600001Y-115098001D01*
X128600000Y-112926400D02*
X132428400Y-112926400D01*
X136742400Y-112060400D02*
X132132400Y-112060400D01*
X138050000Y-113368000D02*
X136742400Y-112060400D01*
X128000000Y-112060400D02*
X132132400Y-112060400D01*
X123600000Y-122608000D02*
X123600000Y-133478000D01*
X123600000Y-133478000D02*
X123610000Y-133488000D01*
X123600000Y-122608000D02*
X123600000Y-121078000D01*
X123600000Y-121078000D02*
X124430000Y-120248000D01*
X122500000Y-124138000D02*
X122500000Y-139168000D01*
X118910000Y-120548000D02*
X122500000Y-124138000D01*
X125040000Y-136768000D02*
X129950000Y-131858000D01*
X125040000Y-139168000D02*
X125040000Y-136768000D01*
X129950000Y-131858000D02*
X129950000Y-119318000D01*
X129950000Y-119318000D02*
X129960000Y-119308000D01*
D15*
G36*
X156737892Y-115178000D02*
G01*
X139618955Y-144828000D01*
X127780000Y-144828000D01*
X127780000Y-141604599D01*
X127783193Y-141572180D01*
X127770450Y-141442797D01*
X127732710Y-141318387D01*
X127671425Y-141203730D01*
X127588948Y-141103232D01*
X127488450Y-141020755D01*
X127373793Y-140959470D01*
X127249383Y-140921730D01*
X127152419Y-140912180D01*
X127120000Y-140908987D01*
X127087581Y-140912180D01*
X126440072Y-140912180D01*
X126440072Y-137168000D01*
X126427812Y-137043518D01*
X126391502Y-136923820D01*
X126332537Y-136813506D01*
X126261689Y-136727178D01*
X130511433Y-132477436D01*
X130543291Y-132451291D01*
X130647636Y-132324146D01*
X130725172Y-132179087D01*
X130772918Y-132021689D01*
X130785000Y-131899019D01*
X130785000Y-131899018D01*
X130789040Y-131858000D01*
X130785000Y-131816982D01*
X130785000Y-119936251D01*
X130877205Y-119798256D01*
X130955226Y-119609898D01*
X130995000Y-119409939D01*
X130995000Y-119206061D01*
X130955226Y-119006102D01*
X130877205Y-118817744D01*
X130763937Y-118648226D01*
X130619774Y-118504063D01*
X130450256Y-118390795D01*
X130261898Y-118312774D01*
X130061939Y-118273000D01*
X129858061Y-118273000D01*
X129658102Y-118312774D01*
X129469744Y-118390795D01*
X129300226Y-118504063D01*
X129156063Y-118648226D01*
X129042795Y-118817744D01*
X128964774Y-119006102D01*
X128925000Y-119206061D01*
X128925000Y-119409939D01*
X128964774Y-119609898D01*
X129042795Y-119798256D01*
X129115001Y-119906320D01*
X129115000Y-131512131D01*
X124478574Y-136148559D01*
X124446710Y-136174709D01*
X124420562Y-136206571D01*
X124342364Y-136301855D01*
X124264828Y-136446914D01*
X124238465Y-136533822D01*
X124153518Y-136542188D01*
X124033820Y-136578498D01*
X123923506Y-136637463D01*
X123826815Y-136716815D01*
X123770000Y-136786044D01*
X123713185Y-136716815D01*
X123616494Y-136637463D01*
X123506180Y-136578498D01*
X123386482Y-136542188D01*
X123335000Y-136537118D01*
X123335000Y-134488576D01*
X123508061Y-134523000D01*
X123711939Y-134523000D01*
X123911898Y-134483226D01*
X124100256Y-134405205D01*
X124269774Y-134291937D01*
X124413937Y-134147774D01*
X124527205Y-133978256D01*
X124605226Y-133789898D01*
X124645000Y-133589939D01*
X124645000Y-133386061D01*
X124605226Y-133186102D01*
X124527205Y-132997744D01*
X124435000Y-132859749D01*
X124435000Y-121423867D01*
X124586775Y-121272093D01*
X124731898Y-121243226D01*
X124920256Y-121165205D01*
X125089774Y-121051937D01*
X125233937Y-120907774D01*
X125347205Y-120738256D01*
X125425226Y-120549898D01*
X125465000Y-120349939D01*
X125465000Y-120146061D01*
X125425226Y-119946102D01*
X125347205Y-119757744D01*
X125233937Y-119588226D01*
X125089774Y-119444063D01*
X124920256Y-119330795D01*
X124731898Y-119252774D01*
X124531939Y-119213000D01*
X124328061Y-119213000D01*
X124128102Y-119252774D01*
X123939744Y-119330795D01*
X123770226Y-119444063D01*
X123626063Y-119588226D01*
X123512795Y-119757744D01*
X123434774Y-119946102D01*
X123405907Y-120091225D01*
X123038574Y-120458559D01*
X123006710Y-120484709D01*
X122980562Y-120516571D01*
X122902364Y-120611855D01*
X122824828Y-120756914D01*
X122777082Y-120914312D01*
X122760960Y-121078000D01*
X122765001Y-121119028D01*
X122765000Y-122566981D01*
X122765000Y-123222131D01*
X119934093Y-120391225D01*
X119905226Y-120246102D01*
X119827205Y-120057744D01*
X119713937Y-119888226D01*
X119569774Y-119744063D01*
X119400256Y-119630795D01*
X119211898Y-119552774D01*
X119011939Y-119513000D01*
X118808061Y-119513000D01*
X118608102Y-119552774D01*
X118419744Y-119630795D01*
X118250226Y-119744063D01*
X118106063Y-119888226D01*
X117992795Y-120057744D01*
X117914774Y-120246102D01*
X117875000Y-120446061D01*
X117875000Y-120649939D01*
X117914774Y-120849898D01*
X117992795Y-121038256D01*
X118106063Y-121207774D01*
X118250226Y-121351937D01*
X118419744Y-121465205D01*
X118608102Y-121543226D01*
X118753225Y-121572093D01*
X119391896Y-122210763D01*
X119251898Y-122152774D01*
X119051939Y-122113000D01*
X118848061Y-122113000D01*
X118648102Y-122152774D01*
X118459744Y-122230795D01*
X118290226Y-122344063D01*
X118146063Y-122488226D01*
X118032795Y-122657744D01*
X117954774Y-122846102D01*
X117925641Y-122992567D01*
X117858692Y-123074145D01*
X117852365Y-123081854D01*
X117774829Y-123226913D01*
X117727083Y-123384311D01*
X117710961Y-123547999D01*
X117715001Y-123589018D01*
X117715002Y-128546973D01*
X117710961Y-128588001D01*
X117727083Y-128751689D01*
X117774829Y-128909087D01*
X117774830Y-128909088D01*
X117852366Y-129054147D01*
X117925640Y-129143432D01*
X117954774Y-129289898D01*
X118032795Y-129478256D01*
X118146063Y-129647774D01*
X118290226Y-129791937D01*
X118459744Y-129905205D01*
X118648102Y-129983226D01*
X118848061Y-130023000D01*
X119051939Y-130023000D01*
X119251898Y-129983226D01*
X119440256Y-129905205D01*
X119609774Y-129791937D01*
X119753937Y-129647774D01*
X119867205Y-129478256D01*
X119945226Y-129289898D01*
X119985000Y-129089939D01*
X119985000Y-128886061D01*
X119945226Y-128686102D01*
X119867205Y-128497744D01*
X119753937Y-128328226D01*
X119609774Y-128184063D01*
X119440256Y-128070795D01*
X119385001Y-128047907D01*
X119385001Y-124088093D01*
X119440256Y-124065205D01*
X119609774Y-123951937D01*
X119753937Y-123807774D01*
X119867205Y-123638256D01*
X119945226Y-123449898D01*
X119985000Y-123249939D01*
X119985000Y-123046061D01*
X119945226Y-122846102D01*
X119887237Y-122706105D01*
X121665000Y-124483869D01*
X121665001Y-136537118D01*
X121613518Y-136542188D01*
X121493820Y-136578498D01*
X121383506Y-136637463D01*
X121286815Y-136716815D01*
X121230000Y-136786044D01*
X121173185Y-136716815D01*
X121076494Y-136637463D01*
X120966180Y-136578498D01*
X120846482Y-136542188D01*
X120722000Y-136529928D01*
X119198000Y-136529928D01*
X119073518Y-136542188D01*
X118953820Y-136578498D01*
X118843506Y-136637463D01*
X118746815Y-136716815D01*
X118667463Y-136813506D01*
X118608498Y-136923820D01*
X118572188Y-137043518D01*
X118559928Y-137168000D01*
X118559928Y-140912180D01*
X117912419Y-140912180D01*
X117880000Y-140908987D01*
X117847581Y-140912180D01*
X117750617Y-140921730D01*
X117626207Y-140959470D01*
X117511550Y-141020755D01*
X117411052Y-141103232D01*
X117328575Y-141203730D01*
X117267290Y-141318387D01*
X117229550Y-141442797D01*
X117216807Y-141572180D01*
X117220000Y-141604600D01*
X117220001Y-144828000D01*
X105381045Y-144828000D01*
X88262107Y-115178000D01*
X88820963Y-114210061D01*
X112765000Y-114210061D01*
X112765000Y-114413939D01*
X112804774Y-114613898D01*
X112882795Y-114802256D01*
X112996063Y-114971774D01*
X113140226Y-115115937D01*
X113309744Y-115229205D01*
X113498102Y-115307226D01*
X113698061Y-115347000D01*
X113901939Y-115347000D01*
X114101898Y-115307226D01*
X114290256Y-115229205D01*
X114413285Y-115147000D01*
X122216582Y-115147000D01*
X122257600Y-115151040D01*
X122298618Y-115147000D01*
X122298619Y-115147000D01*
X122421289Y-115134918D01*
X122578687Y-115087172D01*
X122723746Y-115009636D01*
X122850891Y-114905291D01*
X122877046Y-114873421D01*
X125792006Y-111958461D01*
X126965000Y-111958461D01*
X126965000Y-112162339D01*
X127004774Y-112362298D01*
X127082795Y-112550656D01*
X127196063Y-112720174D01*
X127340226Y-112864337D01*
X127509744Y-112977605D01*
X127565000Y-113000493D01*
X127565000Y-113028339D01*
X127604774Y-113228298D01*
X127682795Y-113416656D01*
X127796063Y-113586174D01*
X127940226Y-113730337D01*
X128109744Y-113843605D01*
X128298102Y-113921626D01*
X128498061Y-113961400D01*
X128701939Y-113961400D01*
X128901898Y-113921626D01*
X129090256Y-113843605D01*
X129213285Y-113761400D01*
X132082533Y-113761400D01*
X133980564Y-115659433D01*
X134006710Y-115691292D01*
X134038569Y-115717438D01*
X134038571Y-115717440D01*
X134133855Y-115795637D01*
X134278914Y-115873173D01*
X134436312Y-115920919D01*
X134558982Y-115933001D01*
X134558983Y-115933001D01*
X134600001Y-115937041D01*
X134641019Y-115933001D01*
X137059907Y-115933001D01*
X137082795Y-115988256D01*
X137196063Y-116157774D01*
X137340226Y-116301937D01*
X137509744Y-116415205D01*
X137698102Y-116493226D01*
X137898061Y-116533000D01*
X138101939Y-116533000D01*
X138301898Y-116493226D01*
X138490256Y-116415205D01*
X138528576Y-116389600D01*
X148607815Y-116389600D01*
X148636487Y-116680711D01*
X148721401Y-116960634D01*
X148859294Y-117218614D01*
X149044866Y-117444734D01*
X149270986Y-117630306D01*
X149325791Y-117659600D01*
X149270986Y-117688894D01*
X149044866Y-117874466D01*
X148859294Y-118100586D01*
X148721401Y-118358566D01*
X148636487Y-118638489D01*
X148607815Y-118929600D01*
X148636487Y-119220711D01*
X148721401Y-119500634D01*
X148859294Y-119758614D01*
X149044866Y-119984734D01*
X149270986Y-120170306D01*
X149325791Y-120199600D01*
X149270986Y-120228894D01*
X149044866Y-120414466D01*
X148859294Y-120640586D01*
X148721401Y-120898566D01*
X148636487Y-121178489D01*
X148607815Y-121469600D01*
X148636487Y-121760711D01*
X148721401Y-122040634D01*
X148859294Y-122298614D01*
X149044866Y-122524734D01*
X149270986Y-122710306D01*
X149528966Y-122848199D01*
X149808889Y-122933113D01*
X150027050Y-122954600D01*
X150172950Y-122954600D01*
X150391111Y-122933113D01*
X150671034Y-122848199D01*
X150929014Y-122710306D01*
X151155134Y-122524734D01*
X151340706Y-122298614D01*
X151478599Y-122040634D01*
X151563513Y-121760711D01*
X151592185Y-121469600D01*
X151563513Y-121178489D01*
X151478599Y-120898566D01*
X151340706Y-120640586D01*
X151155134Y-120414466D01*
X150929014Y-120228894D01*
X150874209Y-120199600D01*
X150929014Y-120170306D01*
X151155134Y-119984734D01*
X151340706Y-119758614D01*
X151478599Y-119500634D01*
X151563513Y-119220711D01*
X151592185Y-118929600D01*
X151563513Y-118638489D01*
X151478599Y-118358566D01*
X151340706Y-118100586D01*
X151155134Y-117874466D01*
X150929014Y-117688894D01*
X150874209Y-117659600D01*
X150929014Y-117630306D01*
X151155134Y-117444734D01*
X151340706Y-117218614D01*
X151478599Y-116960634D01*
X151563513Y-116680711D01*
X151592185Y-116389600D01*
X151563513Y-116098489D01*
X151478599Y-115818566D01*
X151340706Y-115560586D01*
X151155134Y-115334466D01*
X150929014Y-115148894D01*
X150864477Y-115114399D01*
X150981355Y-115044778D01*
X151197588Y-114849869D01*
X151371641Y-114616520D01*
X151496825Y-114353699D01*
X151541476Y-114206490D01*
X151420155Y-113976600D01*
X150227000Y-113976600D01*
X150227000Y-113996600D01*
X149973000Y-113996600D01*
X149973000Y-113976600D01*
X148779845Y-113976600D01*
X148658524Y-114206490D01*
X148703175Y-114353699D01*
X148828359Y-114616520D01*
X149002412Y-114849869D01*
X149218645Y-115044778D01*
X149335523Y-115114399D01*
X149270986Y-115148894D01*
X149044866Y-115334466D01*
X148859294Y-115560586D01*
X148721401Y-115818566D01*
X148636487Y-116098489D01*
X148607815Y-116389600D01*
X138528576Y-116389600D01*
X138659774Y-116301937D01*
X138803937Y-116157774D01*
X138917205Y-115988256D01*
X138995226Y-115799898D01*
X139035000Y-115599939D01*
X139035000Y-115396061D01*
X138995226Y-115196102D01*
X138917205Y-115007744D01*
X138803937Y-114838226D01*
X138659774Y-114694063D01*
X138490256Y-114580795D01*
X138301898Y-114502774D01*
X138155434Y-114473641D01*
X138069358Y-114403000D01*
X138151939Y-114403000D01*
X138351898Y-114363226D01*
X138540256Y-114285205D01*
X138709774Y-114171937D01*
X138853937Y-114027774D01*
X138967205Y-113858256D01*
X139045226Y-113669898D01*
X139085000Y-113469939D01*
X139085000Y-113266061D01*
X139045226Y-113066102D01*
X138967205Y-112877744D01*
X138853937Y-112708226D01*
X138709774Y-112564063D01*
X138540256Y-112450795D01*
X138351898Y-112372774D01*
X138206776Y-112343908D01*
X137361846Y-111498978D01*
X137335691Y-111467109D01*
X137208546Y-111362764D01*
X137109084Y-111309600D01*
X148607815Y-111309600D01*
X148636487Y-111600711D01*
X148721401Y-111880634D01*
X148859294Y-112138614D01*
X149044866Y-112364734D01*
X149270986Y-112550306D01*
X149335523Y-112584801D01*
X149218645Y-112654422D01*
X149002412Y-112849331D01*
X148828359Y-113082680D01*
X148703175Y-113345501D01*
X148658524Y-113492710D01*
X148779845Y-113722600D01*
X149973000Y-113722600D01*
X149973000Y-113702600D01*
X150227000Y-113702600D01*
X150227000Y-113722600D01*
X151420155Y-113722600D01*
X151541476Y-113492710D01*
X151496825Y-113345501D01*
X151371641Y-113082680D01*
X151197588Y-112849331D01*
X150981355Y-112654422D01*
X150864477Y-112584801D01*
X150929014Y-112550306D01*
X151155134Y-112364734D01*
X151340706Y-112138614D01*
X151478599Y-111880634D01*
X151563513Y-111600711D01*
X151592185Y-111309600D01*
X151563513Y-111018489D01*
X151478599Y-110738566D01*
X151340706Y-110480586D01*
X151155134Y-110254466D01*
X151125313Y-110229993D01*
X151194180Y-110209102D01*
X151304494Y-110150137D01*
X151401185Y-110070785D01*
X151480537Y-109974094D01*
X151539502Y-109863780D01*
X151575812Y-109744082D01*
X151588072Y-109619600D01*
X151588072Y-107919600D01*
X151575812Y-107795118D01*
X151539502Y-107675420D01*
X151480537Y-107565106D01*
X151401185Y-107468415D01*
X151304494Y-107389063D01*
X151194180Y-107330098D01*
X151074482Y-107293788D01*
X150950000Y-107281528D01*
X149250000Y-107281528D01*
X149125518Y-107293788D01*
X149005820Y-107330098D01*
X148895506Y-107389063D01*
X148798815Y-107468415D01*
X148719463Y-107565106D01*
X148660498Y-107675420D01*
X148624188Y-107795118D01*
X148611928Y-107919600D01*
X148611928Y-109619600D01*
X148624188Y-109744082D01*
X148660498Y-109863780D01*
X148719463Y-109974094D01*
X148798815Y-110070785D01*
X148895506Y-110150137D01*
X149005820Y-110209102D01*
X149074687Y-110229993D01*
X149044866Y-110254466D01*
X148859294Y-110480586D01*
X148721401Y-110738566D01*
X148636487Y-111018489D01*
X148607815Y-111309600D01*
X137109084Y-111309600D01*
X137063487Y-111285228D01*
X136906089Y-111237482D01*
X136783419Y-111225400D01*
X136783418Y-111225400D01*
X136742400Y-111221360D01*
X136701382Y-111225400D01*
X128613285Y-111225400D01*
X128490256Y-111143195D01*
X128301898Y-111065174D01*
X128101939Y-111025400D01*
X127898061Y-111025400D01*
X127698102Y-111065174D01*
X127509744Y-111143195D01*
X127340226Y-111256463D01*
X127196063Y-111400626D01*
X127082795Y-111570144D01*
X127004774Y-111758502D01*
X126965000Y-111958461D01*
X125792006Y-111958461D01*
X128145868Y-109604600D01*
X135528315Y-109604600D01*
X135651344Y-109686805D01*
X135839702Y-109764826D01*
X136039661Y-109804600D01*
X136243539Y-109804600D01*
X136443498Y-109764826D01*
X136631856Y-109686805D01*
X136801374Y-109573537D01*
X136945537Y-109429374D01*
X137058805Y-109259856D01*
X137136826Y-109071498D01*
X137176600Y-108871539D01*
X137176600Y-108667661D01*
X137136826Y-108467702D01*
X137058805Y-108279344D01*
X136945537Y-108109826D01*
X136801374Y-107965663D01*
X136631856Y-107852395D01*
X136443498Y-107774374D01*
X136243539Y-107734600D01*
X136039661Y-107734600D01*
X135839702Y-107774374D01*
X135651344Y-107852395D01*
X135528315Y-107934600D01*
X127841015Y-107934600D01*
X127799999Y-107930560D01*
X127758983Y-107934600D01*
X127758981Y-107934600D01*
X127636311Y-107946682D01*
X127478913Y-107994428D01*
X127333854Y-108071964D01*
X127206709Y-108176309D01*
X127180559Y-108208173D01*
X121911733Y-113477000D01*
X114413285Y-113477000D01*
X114290256Y-113394795D01*
X114101898Y-113316774D01*
X113901939Y-113277000D01*
X113698061Y-113277000D01*
X113498102Y-113316774D01*
X113309744Y-113394795D01*
X113140226Y-113508063D01*
X112996063Y-113652226D01*
X112882795Y-113821744D01*
X112804774Y-114010102D01*
X112765000Y-114210061D01*
X88820963Y-114210061D01*
X105381045Y-85528000D01*
X139618955Y-85528000D01*
X156737892Y-115178000D01*
X156737892Y-115178000D01*
G37*
X156737892Y-115178000D02*
X139618955Y-144828000D01*
X127780000Y-144828000D01*
X127780000Y-141604599D01*
X127783193Y-141572180D01*
X127770450Y-141442797D01*
X127732710Y-141318387D01*
X127671425Y-141203730D01*
X127588948Y-141103232D01*
X127488450Y-141020755D01*
X127373793Y-140959470D01*
X127249383Y-140921730D01*
X127152419Y-140912180D01*
X127120000Y-140908987D01*
X127087581Y-140912180D01*
X126440072Y-140912180D01*
X126440072Y-137168000D01*
X126427812Y-137043518D01*
X126391502Y-136923820D01*
X126332537Y-136813506D01*
X126261689Y-136727178D01*
X130511433Y-132477436D01*
X130543291Y-132451291D01*
X130647636Y-132324146D01*
X130725172Y-132179087D01*
X130772918Y-132021689D01*
X130785000Y-131899019D01*
X130785000Y-131899018D01*
X130789040Y-131858000D01*
X130785000Y-131816982D01*
X130785000Y-119936251D01*
X130877205Y-119798256D01*
X130955226Y-119609898D01*
X130995000Y-119409939D01*
X130995000Y-119206061D01*
X130955226Y-119006102D01*
X130877205Y-118817744D01*
X130763937Y-118648226D01*
X130619774Y-118504063D01*
X130450256Y-118390795D01*
X130261898Y-118312774D01*
X130061939Y-118273000D01*
X129858061Y-118273000D01*
X129658102Y-118312774D01*
X129469744Y-118390795D01*
X129300226Y-118504063D01*
X129156063Y-118648226D01*
X129042795Y-118817744D01*
X128964774Y-119006102D01*
X128925000Y-119206061D01*
X128925000Y-119409939D01*
X128964774Y-119609898D01*
X129042795Y-119798256D01*
X129115001Y-119906320D01*
X129115000Y-131512131D01*
X124478574Y-136148559D01*
X124446710Y-136174709D01*
X124420562Y-136206571D01*
X124342364Y-136301855D01*
X124264828Y-136446914D01*
X124238465Y-136533822D01*
X124153518Y-136542188D01*
X124033820Y-136578498D01*
X123923506Y-136637463D01*
X123826815Y-136716815D01*
X123770000Y-136786044D01*
X123713185Y-136716815D01*
X123616494Y-136637463D01*
X123506180Y-136578498D01*
X123386482Y-136542188D01*
X123335000Y-136537118D01*
X123335000Y-134488576D01*
X123508061Y-134523000D01*
X123711939Y-134523000D01*
X123911898Y-134483226D01*
X124100256Y-134405205D01*
X124269774Y-134291937D01*
X124413937Y-134147774D01*
X124527205Y-133978256D01*
X124605226Y-133789898D01*
X124645000Y-133589939D01*
X124645000Y-133386061D01*
X124605226Y-133186102D01*
X124527205Y-132997744D01*
X124435000Y-132859749D01*
X124435000Y-121423867D01*
X124586775Y-121272093D01*
X124731898Y-121243226D01*
X124920256Y-121165205D01*
X125089774Y-121051937D01*
X125233937Y-120907774D01*
X125347205Y-120738256D01*
X125425226Y-120549898D01*
X125465000Y-120349939D01*
X125465000Y-120146061D01*
X125425226Y-119946102D01*
X125347205Y-119757744D01*
X125233937Y-119588226D01*
X125089774Y-119444063D01*
X124920256Y-119330795D01*
X124731898Y-119252774D01*
X124531939Y-119213000D01*
X124328061Y-119213000D01*
X124128102Y-119252774D01*
X123939744Y-119330795D01*
X123770226Y-119444063D01*
X123626063Y-119588226D01*
X123512795Y-119757744D01*
X123434774Y-119946102D01*
X123405907Y-120091225D01*
X123038574Y-120458559D01*
X123006710Y-120484709D01*
X122980562Y-120516571D01*
X122902364Y-120611855D01*
X122824828Y-120756914D01*
X122777082Y-120914312D01*
X122760960Y-121078000D01*
X122765001Y-121119028D01*
X122765000Y-122566981D01*
X122765000Y-123222131D01*
X119934093Y-120391225D01*
X119905226Y-120246102D01*
X119827205Y-120057744D01*
X119713937Y-119888226D01*
X119569774Y-119744063D01*
X119400256Y-119630795D01*
X119211898Y-119552774D01*
X119011939Y-119513000D01*
X118808061Y-119513000D01*
X118608102Y-119552774D01*
X118419744Y-119630795D01*
X118250226Y-119744063D01*
X118106063Y-119888226D01*
X117992795Y-120057744D01*
X117914774Y-120246102D01*
X117875000Y-120446061D01*
X117875000Y-120649939D01*
X117914774Y-120849898D01*
X117992795Y-121038256D01*
X118106063Y-121207774D01*
X118250226Y-121351937D01*
X118419744Y-121465205D01*
X118608102Y-121543226D01*
X118753225Y-121572093D01*
X119391896Y-122210763D01*
X119251898Y-122152774D01*
X119051939Y-122113000D01*
X118848061Y-122113000D01*
X118648102Y-122152774D01*
X118459744Y-122230795D01*
X118290226Y-122344063D01*
X118146063Y-122488226D01*
X118032795Y-122657744D01*
X117954774Y-122846102D01*
X117925641Y-122992567D01*
X117858692Y-123074145D01*
X117852365Y-123081854D01*
X117774829Y-123226913D01*
X117727083Y-123384311D01*
X117710961Y-123547999D01*
X117715001Y-123589018D01*
X117715002Y-128546973D01*
X117710961Y-128588001D01*
X117727083Y-128751689D01*
X117774829Y-128909087D01*
X117774830Y-128909088D01*
X117852366Y-129054147D01*
X117925640Y-129143432D01*
X117954774Y-129289898D01*
X118032795Y-129478256D01*
X118146063Y-129647774D01*
X118290226Y-129791937D01*
X118459744Y-129905205D01*
X118648102Y-129983226D01*
X118848061Y-130023000D01*
X119051939Y-130023000D01*
X119251898Y-129983226D01*
X119440256Y-129905205D01*
X119609774Y-129791937D01*
X119753937Y-129647774D01*
X119867205Y-129478256D01*
X119945226Y-129289898D01*
X119985000Y-129089939D01*
X119985000Y-128886061D01*
X119945226Y-128686102D01*
X119867205Y-128497744D01*
X119753937Y-128328226D01*
X119609774Y-128184063D01*
X119440256Y-128070795D01*
X119385001Y-128047907D01*
X119385001Y-124088093D01*
X119440256Y-124065205D01*
X119609774Y-123951937D01*
X119753937Y-123807774D01*
X119867205Y-123638256D01*
X119945226Y-123449898D01*
X119985000Y-123249939D01*
X119985000Y-123046061D01*
X119945226Y-122846102D01*
X119887237Y-122706105D01*
X121665000Y-124483869D01*
X121665001Y-136537118D01*
X121613518Y-136542188D01*
X121493820Y-136578498D01*
X121383506Y-136637463D01*
X121286815Y-136716815D01*
X121230000Y-136786044D01*
X121173185Y-136716815D01*
X121076494Y-136637463D01*
X120966180Y-136578498D01*
X120846482Y-136542188D01*
X120722000Y-136529928D01*
X119198000Y-136529928D01*
X119073518Y-136542188D01*
X118953820Y-136578498D01*
X118843506Y-136637463D01*
X118746815Y-136716815D01*
X118667463Y-136813506D01*
X118608498Y-136923820D01*
X118572188Y-137043518D01*
X118559928Y-137168000D01*
X118559928Y-140912180D01*
X117912419Y-140912180D01*
X117880000Y-140908987D01*
X117847581Y-140912180D01*
X117750617Y-140921730D01*
X117626207Y-140959470D01*
X117511550Y-141020755D01*
X117411052Y-141103232D01*
X117328575Y-141203730D01*
X117267290Y-141318387D01*
X117229550Y-141442797D01*
X117216807Y-141572180D01*
X117220000Y-141604600D01*
X117220001Y-144828000D01*
X105381045Y-144828000D01*
X88262107Y-115178000D01*
X88820963Y-114210061D01*
X112765000Y-114210061D01*
X112765000Y-114413939D01*
X112804774Y-114613898D01*
X112882795Y-114802256D01*
X112996063Y-114971774D01*
X113140226Y-115115937D01*
X113309744Y-115229205D01*
X113498102Y-115307226D01*
X113698061Y-115347000D01*
X113901939Y-115347000D01*
X114101898Y-115307226D01*
X114290256Y-115229205D01*
X114413285Y-115147000D01*
X122216582Y-115147000D01*
X122257600Y-115151040D01*
X122298618Y-115147000D01*
X122298619Y-115147000D01*
X122421289Y-115134918D01*
X122578687Y-115087172D01*
X122723746Y-115009636D01*
X122850891Y-114905291D01*
X122877046Y-114873421D01*
X125792006Y-111958461D01*
X126965000Y-111958461D01*
X126965000Y-112162339D01*
X127004774Y-112362298D01*
X127082795Y-112550656D01*
X127196063Y-112720174D01*
X127340226Y-112864337D01*
X127509744Y-112977605D01*
X127565000Y-113000493D01*
X127565000Y-113028339D01*
X127604774Y-113228298D01*
X127682795Y-113416656D01*
X127796063Y-113586174D01*
X127940226Y-113730337D01*
X128109744Y-113843605D01*
X128298102Y-113921626D01*
X128498061Y-113961400D01*
X128701939Y-113961400D01*
X128901898Y-113921626D01*
X129090256Y-113843605D01*
X129213285Y-113761400D01*
X132082533Y-113761400D01*
X133980564Y-115659433D01*
X134006710Y-115691292D01*
X134038569Y-115717438D01*
X134038571Y-115717440D01*
X134133855Y-115795637D01*
X134278914Y-115873173D01*
X134436312Y-115920919D01*
X134558982Y-115933001D01*
X134558983Y-115933001D01*
X134600001Y-115937041D01*
X134641019Y-115933001D01*
X137059907Y-115933001D01*
X137082795Y-115988256D01*
X137196063Y-116157774D01*
X137340226Y-116301937D01*
X137509744Y-116415205D01*
X137698102Y-116493226D01*
X137898061Y-116533000D01*
X138101939Y-116533000D01*
X138301898Y-116493226D01*
X138490256Y-116415205D01*
X138528576Y-116389600D01*
X148607815Y-116389600D01*
X148636487Y-116680711D01*
X148721401Y-116960634D01*
X148859294Y-117218614D01*
X149044866Y-117444734D01*
X149270986Y-117630306D01*
X149325791Y-117659600D01*
X149270986Y-117688894D01*
X149044866Y-117874466D01*
X148859294Y-118100586D01*
X148721401Y-118358566D01*
X148636487Y-118638489D01*
X148607815Y-118929600D01*
X148636487Y-119220711D01*
X148721401Y-119500634D01*
X148859294Y-119758614D01*
X149044866Y-119984734D01*
X149270986Y-120170306D01*
X149325791Y-120199600D01*
X149270986Y-120228894D01*
X149044866Y-120414466D01*
X148859294Y-120640586D01*
X148721401Y-120898566D01*
X148636487Y-121178489D01*
X148607815Y-121469600D01*
X148636487Y-121760711D01*
X148721401Y-122040634D01*
X148859294Y-122298614D01*
X149044866Y-122524734D01*
X149270986Y-122710306D01*
X149528966Y-122848199D01*
X149808889Y-122933113D01*
X150027050Y-122954600D01*
X150172950Y-122954600D01*
X150391111Y-122933113D01*
X150671034Y-122848199D01*
X150929014Y-122710306D01*
X151155134Y-122524734D01*
X151340706Y-122298614D01*
X151478599Y-122040634D01*
X151563513Y-121760711D01*
X151592185Y-121469600D01*
X151563513Y-121178489D01*
X151478599Y-120898566D01*
X151340706Y-120640586D01*
X151155134Y-120414466D01*
X150929014Y-120228894D01*
X150874209Y-120199600D01*
X150929014Y-120170306D01*
X151155134Y-119984734D01*
X151340706Y-119758614D01*
X151478599Y-119500634D01*
X151563513Y-119220711D01*
X151592185Y-118929600D01*
X151563513Y-118638489D01*
X151478599Y-118358566D01*
X151340706Y-118100586D01*
X151155134Y-117874466D01*
X150929014Y-117688894D01*
X150874209Y-117659600D01*
X150929014Y-117630306D01*
X151155134Y-117444734D01*
X151340706Y-117218614D01*
X151478599Y-116960634D01*
X151563513Y-116680711D01*
X151592185Y-116389600D01*
X151563513Y-116098489D01*
X151478599Y-115818566D01*
X151340706Y-115560586D01*
X151155134Y-115334466D01*
X150929014Y-115148894D01*
X150864477Y-115114399D01*
X150981355Y-115044778D01*
X151197588Y-114849869D01*
X151371641Y-114616520D01*
X151496825Y-114353699D01*
X151541476Y-114206490D01*
X151420155Y-113976600D01*
X150227000Y-113976600D01*
X150227000Y-113996600D01*
X149973000Y-113996600D01*
X149973000Y-113976600D01*
X148779845Y-113976600D01*
X148658524Y-114206490D01*
X148703175Y-114353699D01*
X148828359Y-114616520D01*
X149002412Y-114849869D01*
X149218645Y-115044778D01*
X149335523Y-115114399D01*
X149270986Y-115148894D01*
X149044866Y-115334466D01*
X148859294Y-115560586D01*
X148721401Y-115818566D01*
X148636487Y-116098489D01*
X148607815Y-116389600D01*
X138528576Y-116389600D01*
X138659774Y-116301937D01*
X138803937Y-116157774D01*
X138917205Y-115988256D01*
X138995226Y-115799898D01*
X139035000Y-115599939D01*
X139035000Y-115396061D01*
X138995226Y-115196102D01*
X138917205Y-115007744D01*
X138803937Y-114838226D01*
X138659774Y-114694063D01*
X138490256Y-114580795D01*
X138301898Y-114502774D01*
X138155434Y-114473641D01*
X138069358Y-114403000D01*
X138151939Y-114403000D01*
X138351898Y-114363226D01*
X138540256Y-114285205D01*
X138709774Y-114171937D01*
X138853937Y-114027774D01*
X138967205Y-113858256D01*
X139045226Y-113669898D01*
X139085000Y-113469939D01*
X139085000Y-113266061D01*
X139045226Y-113066102D01*
X138967205Y-112877744D01*
X138853937Y-112708226D01*
X138709774Y-112564063D01*
X138540256Y-112450795D01*
X138351898Y-112372774D01*
X138206776Y-112343908D01*
X137361846Y-111498978D01*
X137335691Y-111467109D01*
X137208546Y-111362764D01*
X137109084Y-111309600D01*
X148607815Y-111309600D01*
X148636487Y-111600711D01*
X148721401Y-111880634D01*
X148859294Y-112138614D01*
X149044866Y-112364734D01*
X149270986Y-112550306D01*
X149335523Y-112584801D01*
X149218645Y-112654422D01*
X149002412Y-112849331D01*
X148828359Y-113082680D01*
X148703175Y-113345501D01*
X148658524Y-113492710D01*
X148779845Y-113722600D01*
X149973000Y-113722600D01*
X149973000Y-113702600D01*
X150227000Y-113702600D01*
X150227000Y-113722600D01*
X151420155Y-113722600D01*
X151541476Y-113492710D01*
X151496825Y-113345501D01*
X151371641Y-113082680D01*
X151197588Y-112849331D01*
X150981355Y-112654422D01*
X150864477Y-112584801D01*
X150929014Y-112550306D01*
X151155134Y-112364734D01*
X151340706Y-112138614D01*
X151478599Y-111880634D01*
X151563513Y-111600711D01*
X151592185Y-111309600D01*
X151563513Y-111018489D01*
X151478599Y-110738566D01*
X151340706Y-110480586D01*
X151155134Y-110254466D01*
X151125313Y-110229993D01*
X151194180Y-110209102D01*
X151304494Y-110150137D01*
X151401185Y-110070785D01*
X151480537Y-109974094D01*
X151539502Y-109863780D01*
X151575812Y-109744082D01*
X151588072Y-109619600D01*
X151588072Y-107919600D01*
X151575812Y-107795118D01*
X151539502Y-107675420D01*
X151480537Y-107565106D01*
X151401185Y-107468415D01*
X151304494Y-107389063D01*
X151194180Y-107330098D01*
X151074482Y-107293788D01*
X150950000Y-107281528D01*
X149250000Y-107281528D01*
X149125518Y-107293788D01*
X149005820Y-107330098D01*
X148895506Y-107389063D01*
X148798815Y-107468415D01*
X148719463Y-107565106D01*
X148660498Y-107675420D01*
X148624188Y-107795118D01*
X148611928Y-107919600D01*
X148611928Y-109619600D01*
X148624188Y-109744082D01*
X148660498Y-109863780D01*
X148719463Y-109974094D01*
X148798815Y-110070785D01*
X148895506Y-110150137D01*
X149005820Y-110209102D01*
X149074687Y-110229993D01*
X149044866Y-110254466D01*
X148859294Y-110480586D01*
X148721401Y-110738566D01*
X148636487Y-111018489D01*
X148607815Y-111309600D01*
X137109084Y-111309600D01*
X137063487Y-111285228D01*
X136906089Y-111237482D01*
X136783419Y-111225400D01*
X136783418Y-111225400D01*
X136742400Y-111221360D01*
X136701382Y-111225400D01*
X128613285Y-111225400D01*
X128490256Y-111143195D01*
X128301898Y-111065174D01*
X128101939Y-111025400D01*
X127898061Y-111025400D01*
X127698102Y-111065174D01*
X127509744Y-111143195D01*
X127340226Y-111256463D01*
X127196063Y-111400626D01*
X127082795Y-111570144D01*
X127004774Y-111758502D01*
X126965000Y-111958461D01*
X125792006Y-111958461D01*
X128145868Y-109604600D01*
X135528315Y-109604600D01*
X135651344Y-109686805D01*
X135839702Y-109764826D01*
X136039661Y-109804600D01*
X136243539Y-109804600D01*
X136443498Y-109764826D01*
X136631856Y-109686805D01*
X136801374Y-109573537D01*
X136945537Y-109429374D01*
X137058805Y-109259856D01*
X137136826Y-109071498D01*
X137176600Y-108871539D01*
X137176600Y-108667661D01*
X137136826Y-108467702D01*
X137058805Y-108279344D01*
X136945537Y-108109826D01*
X136801374Y-107965663D01*
X136631856Y-107852395D01*
X136443498Y-107774374D01*
X136243539Y-107734600D01*
X136039661Y-107734600D01*
X135839702Y-107774374D01*
X135651344Y-107852395D01*
X135528315Y-107934600D01*
X127841015Y-107934600D01*
X127799999Y-107930560D01*
X127758983Y-107934600D01*
X127758981Y-107934600D01*
X127636311Y-107946682D01*
X127478913Y-107994428D01*
X127333854Y-108071964D01*
X127206709Y-108176309D01*
X127180559Y-108208173D01*
X121911733Y-113477000D01*
X114413285Y-113477000D01*
X114290256Y-113394795D01*
X114101898Y-113316774D01*
X113901939Y-113277000D01*
X113698061Y-113277000D01*
X113498102Y-113316774D01*
X113309744Y-113394795D01*
X113140226Y-113508063D01*
X112996063Y-113652226D01*
X112882795Y-113821744D01*
X112804774Y-114010102D01*
X112765000Y-114210061D01*
X88820963Y-114210061D01*
X105381045Y-85528000D01*
X139618955Y-85528000D01*
X156737892Y-115178000D01*
M02*
