G04 #@! TF.GenerationSoftware,KiCad,Pcbnew,(5.1.6)-1*
G04 #@! TF.CreationDate,2021-11-15T17:53:34+01:00*
G04 #@! TF.ProjectId,STEM,5354454d-2e6b-4696-9361-645f70636258,A*
G04 #@! TF.SameCoordinates,Original*
G04 #@! TF.FileFunction,Soldermask,Bot*
G04 #@! TF.FilePolarity,Negative*
%FSLAX46Y46*%
G04 Gerber Fmt 4.6, Leading zero omitted, Abs format (unit mm)*
G04 Created by KiCad (PCBNEW (5.1.6)-1) date 2021-11-15 17:53:34*
%MOMM*%
%LPD*%
G01*
G04 APERTURE LIST*
%ADD10C,0.100000*%
G04 APERTURE END LIST*
D10*
G36*
X107058785Y-140922002D02*
G01*
X107208610Y-140951804D01*
X107490874Y-141068721D01*
X107744905Y-141238459D01*
X107960941Y-141454495D01*
X108130679Y-141708526D01*
X108247596Y-141990790D01*
X108307200Y-142290440D01*
X108307200Y-142595960D01*
X108247596Y-142895610D01*
X108130679Y-143177874D01*
X107960941Y-143431905D01*
X107744905Y-143647941D01*
X107490874Y-143817679D01*
X107208610Y-143934596D01*
X107058785Y-143964398D01*
X106908961Y-143994200D01*
X106603439Y-143994200D01*
X106453615Y-143964398D01*
X106303790Y-143934596D01*
X106021526Y-143817679D01*
X105767495Y-143647941D01*
X105551459Y-143431905D01*
X105381721Y-143177874D01*
X105264804Y-142895610D01*
X105205200Y-142595960D01*
X105205200Y-142290440D01*
X105264804Y-141990790D01*
X105381721Y-141708526D01*
X105551459Y-141454495D01*
X105767495Y-141238459D01*
X106021526Y-141068721D01*
X106303790Y-140951804D01*
X106453615Y-140922002D01*
X106603439Y-140892200D01*
X106908961Y-140892200D01*
X107058785Y-140922002D01*
G37*
G36*
X124084895Y-142023240D02*
G01*
X124247045Y-142090405D01*
X124247047Y-142090406D01*
X124392979Y-142187915D01*
X124517085Y-142312021D01*
X124614595Y-142457955D01*
X124681760Y-142620105D01*
X124716000Y-142792243D01*
X124716000Y-142967757D01*
X124681760Y-143139895D01*
X124614595Y-143302045D01*
X124614594Y-143302047D01*
X124517085Y-143447979D01*
X124392979Y-143572085D01*
X124247047Y-143669594D01*
X124247046Y-143669595D01*
X124247045Y-143669595D01*
X124084895Y-143736760D01*
X123912757Y-143771000D01*
X123737243Y-143771000D01*
X123565105Y-143736760D01*
X123402955Y-143669595D01*
X123402954Y-143669595D01*
X123402953Y-143669594D01*
X123257021Y-143572085D01*
X123132915Y-143447979D01*
X123035406Y-143302047D01*
X123035405Y-143302045D01*
X122968240Y-143139895D01*
X122934000Y-142967757D01*
X122934000Y-142792243D01*
X122968240Y-142620105D01*
X123035405Y-142457955D01*
X123132915Y-142312021D01*
X123257021Y-142187915D01*
X123402953Y-142090406D01*
X123402955Y-142090405D01*
X123565105Y-142023240D01*
X123737243Y-141989000D01*
X123912757Y-141989000D01*
X124084895Y-142023240D01*
G37*
G36*
X121544895Y-142023240D02*
G01*
X121707045Y-142090405D01*
X121707047Y-142090406D01*
X121852979Y-142187915D01*
X121977085Y-142312021D01*
X122074595Y-142457955D01*
X122141760Y-142620105D01*
X122176000Y-142792243D01*
X122176000Y-142967757D01*
X122141760Y-143139895D01*
X122074595Y-143302045D01*
X122074594Y-143302047D01*
X121977085Y-143447979D01*
X121852979Y-143572085D01*
X121707047Y-143669594D01*
X121707046Y-143669595D01*
X121707045Y-143669595D01*
X121544895Y-143736760D01*
X121372757Y-143771000D01*
X121197243Y-143771000D01*
X121025105Y-143736760D01*
X120862955Y-143669595D01*
X120862954Y-143669595D01*
X120862953Y-143669594D01*
X120717021Y-143572085D01*
X120592915Y-143447979D01*
X120495406Y-143302047D01*
X120495405Y-143302045D01*
X120428240Y-143139895D01*
X120394000Y-142967757D01*
X120394000Y-142792243D01*
X120428240Y-142620105D01*
X120495405Y-142457955D01*
X120592915Y-142312021D01*
X120717021Y-142187915D01*
X120862953Y-142090406D01*
X120862955Y-142090405D01*
X121025105Y-142023240D01*
X121197243Y-141989000D01*
X121372757Y-141989000D01*
X121544895Y-142023240D01*
G37*
G36*
X142607512Y-133551336D02*
G01*
X142756812Y-133581033D01*
X142920784Y-133648953D01*
X143068354Y-133747556D01*
X143193853Y-133873055D01*
X143292456Y-134020625D01*
X143360376Y-134184597D01*
X143395000Y-134358668D01*
X143395000Y-134536150D01*
X143360376Y-134710221D01*
X143292456Y-134874193D01*
X143193853Y-135021763D01*
X143068354Y-135147262D01*
X142920784Y-135245865D01*
X142756812Y-135313785D01*
X142607512Y-135343482D01*
X142582742Y-135348409D01*
X142405258Y-135348409D01*
X142380488Y-135343482D01*
X142231188Y-135313785D01*
X142067216Y-135245865D01*
X141919646Y-135147262D01*
X141794147Y-135021763D01*
X141695544Y-134874193D01*
X141627624Y-134710221D01*
X141593000Y-134536150D01*
X141593000Y-134358668D01*
X141627624Y-134184597D01*
X141695544Y-134020625D01*
X141794147Y-133873055D01*
X141919646Y-133747556D01*
X142067216Y-133648953D01*
X142231188Y-133581033D01*
X142380488Y-133551336D01*
X142405258Y-133546409D01*
X142582742Y-133546409D01*
X142607512Y-133551336D01*
G37*
G36*
X143877512Y-131351631D02*
G01*
X144026812Y-131381328D01*
X144190784Y-131449248D01*
X144338354Y-131547851D01*
X144463853Y-131673350D01*
X144562456Y-131820920D01*
X144630376Y-131984892D01*
X144665000Y-132158963D01*
X144665000Y-132336445D01*
X144630376Y-132510516D01*
X144562456Y-132674488D01*
X144463853Y-132822058D01*
X144338354Y-132947557D01*
X144190784Y-133046160D01*
X144026812Y-133114080D01*
X143877512Y-133143777D01*
X143852742Y-133148704D01*
X143675258Y-133148704D01*
X143650488Y-133143777D01*
X143501188Y-133114080D01*
X143337216Y-133046160D01*
X143189646Y-132947557D01*
X143064147Y-132822058D01*
X142965544Y-132674488D01*
X142897624Y-132510516D01*
X142863000Y-132336445D01*
X142863000Y-132158963D01*
X142897624Y-131984892D01*
X142965544Y-131820920D01*
X143064147Y-131673350D01*
X143189646Y-131547851D01*
X143337216Y-131449248D01*
X143501188Y-131381328D01*
X143650488Y-131351631D01*
X143675258Y-131346704D01*
X143852742Y-131346704D01*
X143877512Y-131351631D01*
G37*
G36*
X120256564Y-130224389D02*
G01*
X120447833Y-130303615D01*
X120447835Y-130303616D01*
X120619973Y-130418635D01*
X120766365Y-130565027D01*
X120881385Y-130737167D01*
X120960611Y-130928436D01*
X121001000Y-131131484D01*
X121001000Y-131338516D01*
X120960611Y-131541564D01*
X120906023Y-131673351D01*
X120881384Y-131732835D01*
X120766365Y-131904973D01*
X120619973Y-132051365D01*
X120447835Y-132166384D01*
X120447834Y-132166385D01*
X120447833Y-132166385D01*
X120256564Y-132245611D01*
X120053516Y-132286000D01*
X119846484Y-132286000D01*
X119643436Y-132245611D01*
X119452167Y-132166385D01*
X119452166Y-132166385D01*
X119452165Y-132166384D01*
X119280027Y-132051365D01*
X119133635Y-131904973D01*
X119018616Y-131732835D01*
X118993977Y-131673351D01*
X118939389Y-131541564D01*
X118899000Y-131338516D01*
X118899000Y-131131484D01*
X118939389Y-130928436D01*
X119018615Y-130737167D01*
X119133635Y-130565027D01*
X119280027Y-130418635D01*
X119452165Y-130303616D01*
X119452167Y-130303615D01*
X119643436Y-130224389D01*
X119846484Y-130184000D01*
X120053516Y-130184000D01*
X120256564Y-130224389D01*
G37*
G36*
X125256564Y-130224389D02*
G01*
X125447833Y-130303615D01*
X125447835Y-130303616D01*
X125619973Y-130418635D01*
X125766365Y-130565027D01*
X125881385Y-130737167D01*
X125960611Y-130928436D01*
X126001000Y-131131484D01*
X126001000Y-131338516D01*
X125960611Y-131541564D01*
X125906023Y-131673351D01*
X125881384Y-131732835D01*
X125766365Y-131904973D01*
X125619973Y-132051365D01*
X125447835Y-132166384D01*
X125447834Y-132166385D01*
X125447833Y-132166385D01*
X125256564Y-132245611D01*
X125053516Y-132286000D01*
X124846484Y-132286000D01*
X124643436Y-132245611D01*
X124452167Y-132166385D01*
X124452166Y-132166385D01*
X124452165Y-132166384D01*
X124280027Y-132051365D01*
X124133635Y-131904973D01*
X124018616Y-131732835D01*
X123993977Y-131673351D01*
X123939389Y-131541564D01*
X123899000Y-131338516D01*
X123899000Y-131131484D01*
X123939389Y-130928436D01*
X124018615Y-130737167D01*
X124133635Y-130565027D01*
X124280027Y-130418635D01*
X124452165Y-130303616D01*
X124452167Y-130303615D01*
X124643436Y-130224389D01*
X124846484Y-130184000D01*
X125053516Y-130184000D01*
X125256564Y-130224389D01*
G37*
G36*
X145147512Y-129151927D02*
G01*
X145296812Y-129181624D01*
X145460784Y-129249544D01*
X145608354Y-129348147D01*
X145733853Y-129473646D01*
X145832456Y-129621216D01*
X145900376Y-129785188D01*
X145935000Y-129959259D01*
X145935000Y-130136741D01*
X145900376Y-130310812D01*
X145832456Y-130474784D01*
X145733853Y-130622354D01*
X145608354Y-130747853D01*
X145460784Y-130846456D01*
X145296812Y-130914376D01*
X145147512Y-130944073D01*
X145122742Y-130949000D01*
X144945258Y-130949000D01*
X144920488Y-130944073D01*
X144771188Y-130914376D01*
X144607216Y-130846456D01*
X144459646Y-130747853D01*
X144334147Y-130622354D01*
X144235544Y-130474784D01*
X144167624Y-130310812D01*
X144133000Y-130136741D01*
X144133000Y-129959259D01*
X144167624Y-129785188D01*
X144235544Y-129621216D01*
X144334147Y-129473646D01*
X144459646Y-129348147D01*
X144607216Y-129249544D01*
X144771188Y-129181624D01*
X144920488Y-129151927D01*
X144945258Y-129147000D01*
X145122742Y-129147000D01*
X145147512Y-129151927D01*
G37*
G36*
X146417512Y-126952222D02*
G01*
X146566812Y-126981919D01*
X146730784Y-127049839D01*
X146878354Y-127148442D01*
X147003853Y-127273941D01*
X147102456Y-127421511D01*
X147170376Y-127585483D01*
X147205000Y-127759554D01*
X147205000Y-127937036D01*
X147170376Y-128111107D01*
X147102456Y-128275079D01*
X147003853Y-128422649D01*
X146878354Y-128548148D01*
X146730784Y-128646751D01*
X146566812Y-128714671D01*
X146417512Y-128744368D01*
X146392742Y-128749295D01*
X146215258Y-128749295D01*
X146190488Y-128744368D01*
X146041188Y-128714671D01*
X145877216Y-128646751D01*
X145729646Y-128548148D01*
X145604147Y-128422649D01*
X145505544Y-128275079D01*
X145437624Y-128111107D01*
X145403000Y-127937036D01*
X145403000Y-127759554D01*
X145437624Y-127585483D01*
X145505544Y-127421511D01*
X145604147Y-127273941D01*
X145729646Y-127148442D01*
X145877216Y-127049839D01*
X146041188Y-126981919D01*
X146190488Y-126952222D01*
X146215258Y-126947295D01*
X146392742Y-126947295D01*
X146417512Y-126952222D01*
G37*
G36*
X147687512Y-124752518D02*
G01*
X147836812Y-124782215D01*
X148000784Y-124850135D01*
X148148354Y-124948738D01*
X148273853Y-125074237D01*
X148372456Y-125221807D01*
X148440376Y-125385779D01*
X148475000Y-125559850D01*
X148475000Y-125737332D01*
X148440376Y-125911403D01*
X148372456Y-126075375D01*
X148273853Y-126222945D01*
X148148354Y-126348444D01*
X148000784Y-126447047D01*
X147836812Y-126514967D01*
X147687512Y-126544664D01*
X147662742Y-126549591D01*
X147485258Y-126549591D01*
X147460488Y-126544664D01*
X147311188Y-126514967D01*
X147147216Y-126447047D01*
X146999646Y-126348444D01*
X146874147Y-126222945D01*
X146775544Y-126075375D01*
X146707624Y-125911403D01*
X146673000Y-125737332D01*
X146673000Y-125559850D01*
X146707624Y-125385779D01*
X146775544Y-125221807D01*
X146874147Y-125074237D01*
X146999646Y-124948738D01*
X147147216Y-124850135D01*
X147311188Y-124782215D01*
X147460488Y-124752518D01*
X147485258Y-124747591D01*
X147662742Y-124747591D01*
X147687512Y-124752518D01*
G37*
G36*
X118241981Y-124022468D02*
G01*
X118424151Y-124097926D01*
X118588100Y-124207473D01*
X118727527Y-124346900D01*
X118837074Y-124510849D01*
X118907005Y-124679675D01*
X118912532Y-124693020D01*
X118943785Y-124850135D01*
X118951000Y-124886410D01*
X118951000Y-125083590D01*
X118912532Y-125276981D01*
X118837074Y-125459151D01*
X118727527Y-125623100D01*
X118588100Y-125762527D01*
X118424151Y-125872074D01*
X118241981Y-125947532D01*
X118145285Y-125966766D01*
X118048591Y-125986000D01*
X117851409Y-125986000D01*
X117754715Y-125966766D01*
X117658019Y-125947532D01*
X117475849Y-125872074D01*
X117311900Y-125762527D01*
X117172473Y-125623100D01*
X117062926Y-125459151D01*
X116987468Y-125276981D01*
X116949000Y-125083590D01*
X116949000Y-124886410D01*
X116956216Y-124850135D01*
X116987468Y-124693020D01*
X116992996Y-124679675D01*
X117062926Y-124510849D01*
X117172473Y-124346900D01*
X117311900Y-124207473D01*
X117475849Y-124097926D01*
X117658019Y-124022468D01*
X117851409Y-123984000D01*
X118048591Y-123984000D01*
X118241981Y-124022468D01*
G37*
G36*
X127241981Y-124022468D02*
G01*
X127424151Y-124097926D01*
X127588100Y-124207473D01*
X127727527Y-124346900D01*
X127837074Y-124510849D01*
X127907005Y-124679675D01*
X127912532Y-124693020D01*
X127943785Y-124850135D01*
X127951000Y-124886410D01*
X127951000Y-125083590D01*
X127912532Y-125276981D01*
X127837074Y-125459151D01*
X127727527Y-125623100D01*
X127588100Y-125762527D01*
X127424151Y-125872074D01*
X127241981Y-125947532D01*
X127145285Y-125966766D01*
X127048591Y-125986000D01*
X126851409Y-125986000D01*
X126754715Y-125966766D01*
X126658019Y-125947532D01*
X126475849Y-125872074D01*
X126311900Y-125762527D01*
X126172473Y-125623100D01*
X126062926Y-125459151D01*
X125987468Y-125276981D01*
X125949000Y-125083590D01*
X125949000Y-124886410D01*
X125956216Y-124850135D01*
X125987468Y-124693020D01*
X125992996Y-124679675D01*
X126062926Y-124510849D01*
X126172473Y-124346900D01*
X126311900Y-124207473D01*
X126475849Y-124097926D01*
X126658019Y-124022468D01*
X126851409Y-123984000D01*
X127048591Y-123984000D01*
X127241981Y-124022468D01*
G37*
G36*
X115669059Y-124262860D02*
G01*
X115805732Y-124319472D01*
X115928735Y-124401660D01*
X116033340Y-124506265D01*
X116033341Y-124506267D01*
X116115529Y-124629270D01*
X116172140Y-124765941D01*
X116201000Y-124911032D01*
X116201000Y-125058968D01*
X116196102Y-125083590D01*
X116172140Y-125204059D01*
X116115528Y-125340732D01*
X116033340Y-125463735D01*
X115928735Y-125568340D01*
X115805732Y-125650528D01*
X115805731Y-125650529D01*
X115805730Y-125650529D01*
X115669059Y-125707140D01*
X115523968Y-125736000D01*
X115376032Y-125736000D01*
X115230941Y-125707140D01*
X115094270Y-125650529D01*
X115094269Y-125650529D01*
X115094268Y-125650528D01*
X114971265Y-125568340D01*
X114866660Y-125463735D01*
X114784472Y-125340732D01*
X114727860Y-125204059D01*
X114703898Y-125083590D01*
X114699000Y-125058968D01*
X114699000Y-124911032D01*
X114727860Y-124765941D01*
X114784471Y-124629270D01*
X114866659Y-124506267D01*
X114866660Y-124506265D01*
X114971265Y-124401660D01*
X115094268Y-124319472D01*
X115230941Y-124262860D01*
X115376032Y-124234000D01*
X115523968Y-124234000D01*
X115669059Y-124262860D01*
G37*
G36*
X129669059Y-124262860D02*
G01*
X129805732Y-124319472D01*
X129928735Y-124401660D01*
X130033340Y-124506265D01*
X130033341Y-124506267D01*
X130115529Y-124629270D01*
X130172140Y-124765941D01*
X130201000Y-124911032D01*
X130201000Y-125058968D01*
X130196102Y-125083590D01*
X130172140Y-125204059D01*
X130115528Y-125340732D01*
X130033340Y-125463735D01*
X129928735Y-125568340D01*
X129805732Y-125650528D01*
X129805731Y-125650529D01*
X129805730Y-125650529D01*
X129669059Y-125707140D01*
X129523968Y-125736000D01*
X129376032Y-125736000D01*
X129230941Y-125707140D01*
X129094270Y-125650529D01*
X129094269Y-125650529D01*
X129094268Y-125650528D01*
X128971265Y-125568340D01*
X128866660Y-125463735D01*
X128784472Y-125340732D01*
X128727860Y-125204059D01*
X128703898Y-125083590D01*
X128699000Y-125058968D01*
X128699000Y-124911032D01*
X128727860Y-124765941D01*
X128784471Y-124629270D01*
X128866659Y-124506267D01*
X128866660Y-124506265D01*
X128971265Y-124401660D01*
X129094268Y-124319472D01*
X129230941Y-124262860D01*
X129376032Y-124234000D01*
X129523968Y-124234000D01*
X129669059Y-124262860D01*
G37*
G36*
X150074790Y-123119097D02*
G01*
X149173789Y-124679676D01*
X147613210Y-123778675D01*
X148514211Y-122218096D01*
X150074790Y-123119097D01*
G37*
G36*
X125256564Y-117724389D02*
G01*
X125447833Y-117803615D01*
X125447835Y-117803616D01*
X125619973Y-117918635D01*
X125766365Y-118065027D01*
X125861544Y-118207472D01*
X125881385Y-118237167D01*
X125960611Y-118428436D01*
X126001000Y-118631484D01*
X126001000Y-118838516D01*
X125960611Y-119041564D01*
X125883084Y-119228732D01*
X125881384Y-119232835D01*
X125766365Y-119404973D01*
X125619973Y-119551365D01*
X125447835Y-119666384D01*
X125447834Y-119666385D01*
X125447833Y-119666385D01*
X125256564Y-119745611D01*
X125053516Y-119786000D01*
X124846484Y-119786000D01*
X124643436Y-119745611D01*
X124452167Y-119666385D01*
X124452166Y-119666385D01*
X124452165Y-119666384D01*
X124280027Y-119551365D01*
X124133635Y-119404973D01*
X124018616Y-119232835D01*
X124016916Y-119228732D01*
X123939389Y-119041564D01*
X123899000Y-118838516D01*
X123899000Y-118631484D01*
X123939389Y-118428436D01*
X124018615Y-118237167D01*
X124038457Y-118207472D01*
X124133635Y-118065027D01*
X124280027Y-117918635D01*
X124452165Y-117803616D01*
X124452167Y-117803615D01*
X124643436Y-117724389D01*
X124846484Y-117684000D01*
X125053516Y-117684000D01*
X125256564Y-117724389D01*
G37*
G36*
X120256564Y-117724389D02*
G01*
X120447833Y-117803615D01*
X120447835Y-117803616D01*
X120619973Y-117918635D01*
X120766365Y-118065027D01*
X120861544Y-118207472D01*
X120881385Y-118237167D01*
X120960611Y-118428436D01*
X121001000Y-118631484D01*
X121001000Y-118838516D01*
X120960611Y-119041564D01*
X120883084Y-119228732D01*
X120881384Y-119232835D01*
X120766365Y-119404973D01*
X120619973Y-119551365D01*
X120447835Y-119666384D01*
X120447834Y-119666385D01*
X120447833Y-119666385D01*
X120256564Y-119745611D01*
X120053516Y-119786000D01*
X119846484Y-119786000D01*
X119643436Y-119745611D01*
X119452167Y-119666385D01*
X119452166Y-119666385D01*
X119452165Y-119666384D01*
X119280027Y-119551365D01*
X119133635Y-119404973D01*
X119018616Y-119232835D01*
X119016916Y-119228732D01*
X118939389Y-119041564D01*
X118899000Y-118838516D01*
X118899000Y-118631484D01*
X118939389Y-118428436D01*
X119018615Y-118237167D01*
X119038457Y-118207472D01*
X119133635Y-118065027D01*
X119280027Y-117918635D01*
X119452165Y-117803616D01*
X119452167Y-117803615D01*
X119643436Y-117724389D01*
X119846484Y-117684000D01*
X120053516Y-117684000D01*
X120256564Y-117724389D01*
G37*
G36*
X105194059Y-118150860D02*
G01*
X105270375Y-118182471D01*
X105330732Y-118207472D01*
X105453735Y-118289660D01*
X105558340Y-118394265D01*
X105623825Y-118492270D01*
X105640529Y-118517270D01*
X105697140Y-118653941D01*
X105726000Y-118799032D01*
X105726000Y-118946968D01*
X105697140Y-119092059D01*
X105650884Y-119203732D01*
X105640528Y-119228732D01*
X105558340Y-119351735D01*
X105453735Y-119456340D01*
X105330732Y-119538528D01*
X105330731Y-119538529D01*
X105330730Y-119538529D01*
X105194059Y-119595140D01*
X105048968Y-119624000D01*
X104901032Y-119624000D01*
X104755941Y-119595140D01*
X104619270Y-119538529D01*
X104619269Y-119538529D01*
X104619268Y-119538528D01*
X104496265Y-119456340D01*
X104391660Y-119351735D01*
X104309472Y-119228732D01*
X104299117Y-119203732D01*
X104252860Y-119092059D01*
X104224000Y-118946968D01*
X104224000Y-118799032D01*
X104252860Y-118653941D01*
X104309471Y-118517270D01*
X104326175Y-118492270D01*
X104391660Y-118394265D01*
X104496265Y-118289660D01*
X104619268Y-118207472D01*
X104679626Y-118182471D01*
X104755941Y-118150860D01*
X104901032Y-118122000D01*
X105048968Y-118122000D01*
X105194059Y-118150860D01*
G37*
G36*
X140224653Y-118122000D02*
G01*
X140244059Y-118125860D01*
X140380732Y-118182472D01*
X140503735Y-118264660D01*
X140608340Y-118369265D01*
X140690528Y-118492268D01*
X140690529Y-118492270D01*
X140700884Y-118517270D01*
X140747140Y-118628941D01*
X140776000Y-118774033D01*
X140776000Y-118921967D01*
X140747140Y-119067059D01*
X140690528Y-119203732D01*
X140608340Y-119326735D01*
X140503735Y-119431340D01*
X140380732Y-119513528D01*
X140380731Y-119513529D01*
X140380730Y-119513529D01*
X140244059Y-119570140D01*
X140098968Y-119599000D01*
X139951032Y-119599000D01*
X139805941Y-119570140D01*
X139669270Y-119513529D01*
X139669269Y-119513529D01*
X139669268Y-119513528D01*
X139546265Y-119431340D01*
X139441660Y-119326735D01*
X139359472Y-119203732D01*
X139302860Y-119067059D01*
X139274000Y-118921967D01*
X139274000Y-118774033D01*
X139302860Y-118628941D01*
X139349116Y-118517270D01*
X139359471Y-118492270D01*
X139359472Y-118492268D01*
X139441660Y-118369265D01*
X139546265Y-118264660D01*
X139669268Y-118182472D01*
X139805941Y-118125860D01*
X139825347Y-118122000D01*
X139951032Y-118097000D01*
X140098968Y-118097000D01*
X140224653Y-118122000D01*
G37*
G36*
X105141298Y-115385468D02*
G01*
X105266981Y-115410468D01*
X105449151Y-115485926D01*
X105613100Y-115595473D01*
X105752527Y-115734900D01*
X105862074Y-115898849D01*
X105937532Y-116081019D01*
X105976000Y-116274410D01*
X105976000Y-116471590D01*
X105937532Y-116664981D01*
X105895937Y-116765400D01*
X105872430Y-116822151D01*
X105862074Y-116847151D01*
X105752527Y-117011100D01*
X105613100Y-117150527D01*
X105449151Y-117260074D01*
X105266981Y-117335532D01*
X105199273Y-117349000D01*
X105073591Y-117374000D01*
X104876409Y-117374000D01*
X104750727Y-117349000D01*
X104683019Y-117335532D01*
X104500849Y-117260074D01*
X104336900Y-117150527D01*
X104197473Y-117011100D01*
X104087926Y-116847151D01*
X104077571Y-116822151D01*
X104054063Y-116765400D01*
X104012468Y-116664981D01*
X103974000Y-116471590D01*
X103974000Y-116274410D01*
X104012468Y-116081019D01*
X104087926Y-115898849D01*
X104197473Y-115734900D01*
X104336900Y-115595473D01*
X104500849Y-115485926D01*
X104683019Y-115410468D01*
X104808702Y-115385468D01*
X104876409Y-115372000D01*
X105073591Y-115372000D01*
X105141298Y-115385468D01*
G37*
G36*
X140316981Y-115385468D02*
G01*
X140499151Y-115460926D01*
X140663100Y-115570473D01*
X140802527Y-115709900D01*
X140912074Y-115873849D01*
X140912075Y-115873851D01*
X140922430Y-115898851D01*
X140987532Y-116056019D01*
X141026000Y-116249410D01*
X141026000Y-116446590D01*
X140987532Y-116639981D01*
X140912074Y-116822151D01*
X140802527Y-116986100D01*
X140663100Y-117125527D01*
X140499151Y-117235074D01*
X140316981Y-117310532D01*
X140220285Y-117329766D01*
X140123591Y-117349000D01*
X139926409Y-117349000D01*
X139829715Y-117329766D01*
X139733019Y-117310532D01*
X139550849Y-117235074D01*
X139386900Y-117125527D01*
X139247473Y-116986100D01*
X139137926Y-116822151D01*
X139062468Y-116639981D01*
X139024000Y-116446590D01*
X139024000Y-116249410D01*
X139062468Y-116056019D01*
X139127570Y-115898851D01*
X139137925Y-115873851D01*
X139137926Y-115873849D01*
X139247473Y-115709900D01*
X139386900Y-115570473D01*
X139550849Y-115460926D01*
X139733019Y-115385468D01*
X139926409Y-115347000D01*
X140123591Y-115347000D01*
X140316981Y-115385468D01*
G37*
G36*
X154302785Y-113693202D02*
G01*
X154452610Y-113723004D01*
X154734874Y-113839921D01*
X154988905Y-114009659D01*
X155204941Y-114225695D01*
X155374679Y-114479726D01*
X155491596Y-114761990D01*
X155551200Y-115061640D01*
X155551200Y-115367160D01*
X155491596Y-115666810D01*
X155374679Y-115949074D01*
X155204941Y-116203105D01*
X154988905Y-116419141D01*
X154734874Y-116588879D01*
X154452610Y-116705796D01*
X154302785Y-116735598D01*
X154152961Y-116765400D01*
X153847439Y-116765400D01*
X153697615Y-116735598D01*
X153547790Y-116705796D01*
X153265526Y-116588879D01*
X153011495Y-116419141D01*
X152795459Y-116203105D01*
X152625721Y-115949074D01*
X152508804Y-115666810D01*
X152449200Y-115367160D01*
X152449200Y-115061640D01*
X152508804Y-114761990D01*
X152625721Y-114479726D01*
X152795459Y-114225695D01*
X153011495Y-114009659D01*
X153265526Y-113839921D01*
X153547790Y-113723004D01*
X153697615Y-113693202D01*
X153847439Y-113663400D01*
X154152961Y-113663400D01*
X154302785Y-113693202D01*
G37*
G36*
X111531564Y-113362389D02*
G01*
X111722833Y-113441615D01*
X111722835Y-113441616D01*
X111894973Y-113556635D01*
X112041365Y-113703027D01*
X112139680Y-113850165D01*
X112156385Y-113875167D01*
X112235611Y-114066436D01*
X112276000Y-114269484D01*
X112276000Y-114476516D01*
X112235611Y-114679564D01*
X112166740Y-114845833D01*
X112156384Y-114870835D01*
X112041365Y-115042973D01*
X111894973Y-115189365D01*
X111722835Y-115304384D01*
X111722834Y-115304385D01*
X111722833Y-115304385D01*
X111531564Y-115383611D01*
X111328516Y-115424000D01*
X111121484Y-115424000D01*
X110918436Y-115383611D01*
X110727167Y-115304385D01*
X110727166Y-115304385D01*
X110727165Y-115304384D01*
X110555027Y-115189365D01*
X110408635Y-115042973D01*
X110293616Y-114870835D01*
X110283260Y-114845833D01*
X110214389Y-114679564D01*
X110174000Y-114476516D01*
X110174000Y-114269484D01*
X110214389Y-114066436D01*
X110293615Y-113875167D01*
X110310321Y-113850165D01*
X110408635Y-113703027D01*
X110555027Y-113556635D01*
X110727165Y-113441616D01*
X110727167Y-113441615D01*
X110918436Y-113362389D01*
X111121484Y-113322000D01*
X111328516Y-113322000D01*
X111531564Y-113362389D01*
G37*
G36*
X99031564Y-113362389D02*
G01*
X99222833Y-113441615D01*
X99222835Y-113441616D01*
X99394973Y-113556635D01*
X99541365Y-113703027D01*
X99639680Y-113850165D01*
X99656385Y-113875167D01*
X99735611Y-114066436D01*
X99776000Y-114269484D01*
X99776000Y-114476516D01*
X99735611Y-114679564D01*
X99666740Y-114845833D01*
X99656384Y-114870835D01*
X99541365Y-115042973D01*
X99394973Y-115189365D01*
X99222835Y-115304384D01*
X99222834Y-115304385D01*
X99222833Y-115304385D01*
X99031564Y-115383611D01*
X98828516Y-115424000D01*
X98621484Y-115424000D01*
X98418436Y-115383611D01*
X98227167Y-115304385D01*
X98227166Y-115304385D01*
X98227165Y-115304384D01*
X98055027Y-115189365D01*
X97908635Y-115042973D01*
X97793616Y-114870835D01*
X97783260Y-114845833D01*
X97714389Y-114679564D01*
X97674000Y-114476516D01*
X97674000Y-114269484D01*
X97714389Y-114066436D01*
X97793615Y-113875167D01*
X97810321Y-113850165D01*
X97908635Y-113703027D01*
X98055027Y-113556635D01*
X98227165Y-113441616D01*
X98227167Y-113441615D01*
X98418436Y-113362389D01*
X98621484Y-113322000D01*
X98828516Y-113322000D01*
X99031564Y-113362389D01*
G37*
G36*
X134081564Y-113337389D02*
G01*
X134272833Y-113416615D01*
X134272835Y-113416616D01*
X134310250Y-113441616D01*
X134444973Y-113531635D01*
X134591365Y-113678027D01*
X134706385Y-113850167D01*
X134785611Y-114041436D01*
X134826000Y-114244484D01*
X134826000Y-114451516D01*
X134785611Y-114654564D01*
X134741113Y-114761991D01*
X134706384Y-114845835D01*
X134591365Y-115017973D01*
X134444973Y-115164365D01*
X134272835Y-115279384D01*
X134272834Y-115279385D01*
X134272833Y-115279385D01*
X134081564Y-115358611D01*
X133878516Y-115399000D01*
X133671484Y-115399000D01*
X133468436Y-115358611D01*
X133277167Y-115279385D01*
X133277166Y-115279385D01*
X133277165Y-115279384D01*
X133105027Y-115164365D01*
X132958635Y-115017973D01*
X132843616Y-114845835D01*
X132808887Y-114761991D01*
X132764389Y-114654564D01*
X132724000Y-114451516D01*
X132724000Y-114244484D01*
X132764389Y-114041436D01*
X132843615Y-113850167D01*
X132958635Y-113678027D01*
X133105027Y-113531635D01*
X133239750Y-113441616D01*
X133277165Y-113416616D01*
X133277167Y-113416615D01*
X133468436Y-113337389D01*
X133671484Y-113297000D01*
X133878516Y-113297000D01*
X134081564Y-113337389D01*
G37*
G36*
X146581564Y-113337389D02*
G01*
X146772833Y-113416615D01*
X146772835Y-113416616D01*
X146810250Y-113441616D01*
X146944973Y-113531635D01*
X147091365Y-113678027D01*
X147206385Y-113850167D01*
X147285611Y-114041436D01*
X147326000Y-114244484D01*
X147326000Y-114451516D01*
X147285611Y-114654564D01*
X147241113Y-114761991D01*
X147206384Y-114845835D01*
X147091365Y-115017973D01*
X146944973Y-115164365D01*
X146772835Y-115279384D01*
X146772834Y-115279385D01*
X146772833Y-115279385D01*
X146581564Y-115358611D01*
X146378516Y-115399000D01*
X146171484Y-115399000D01*
X145968436Y-115358611D01*
X145777167Y-115279385D01*
X145777166Y-115279385D01*
X145777165Y-115279384D01*
X145605027Y-115164365D01*
X145458635Y-115017973D01*
X145343616Y-114845835D01*
X145308887Y-114761991D01*
X145264389Y-114654564D01*
X145224000Y-114451516D01*
X145224000Y-114244484D01*
X145264389Y-114041436D01*
X145343615Y-113850167D01*
X145458635Y-113678027D01*
X145605027Y-113531635D01*
X145739750Y-113441616D01*
X145777165Y-113416616D01*
X145777167Y-113416615D01*
X145968436Y-113337389D01*
X146171484Y-113297000D01*
X146378516Y-113297000D01*
X146581564Y-113337389D01*
G37*
G36*
X111531564Y-108362389D02*
G01*
X111722833Y-108441615D01*
X111722835Y-108441616D01*
X111894973Y-108556635D01*
X112041365Y-108703027D01*
X112139680Y-108850165D01*
X112156385Y-108875167D01*
X112235611Y-109066436D01*
X112276000Y-109269484D01*
X112276000Y-109476516D01*
X112235611Y-109679564D01*
X112166740Y-109845833D01*
X112156384Y-109870835D01*
X112041365Y-110042973D01*
X111894973Y-110189365D01*
X111722835Y-110304384D01*
X111722834Y-110304385D01*
X111722833Y-110304385D01*
X111531564Y-110383611D01*
X111328516Y-110424000D01*
X111121484Y-110424000D01*
X110918436Y-110383611D01*
X110727167Y-110304385D01*
X110727166Y-110304385D01*
X110727165Y-110304384D01*
X110555027Y-110189365D01*
X110408635Y-110042973D01*
X110293616Y-109870835D01*
X110283260Y-109845833D01*
X110214389Y-109679564D01*
X110174000Y-109476516D01*
X110174000Y-109269484D01*
X110214389Y-109066436D01*
X110293615Y-108875167D01*
X110310321Y-108850165D01*
X110408635Y-108703027D01*
X110555027Y-108556635D01*
X110727165Y-108441616D01*
X110727167Y-108441615D01*
X110918436Y-108362389D01*
X111121484Y-108322000D01*
X111328516Y-108322000D01*
X111531564Y-108362389D01*
G37*
G36*
X99031564Y-108362389D02*
G01*
X99222833Y-108441615D01*
X99222835Y-108441616D01*
X99394973Y-108556635D01*
X99541365Y-108703027D01*
X99639680Y-108850165D01*
X99656385Y-108875167D01*
X99735611Y-109066436D01*
X99776000Y-109269484D01*
X99776000Y-109476516D01*
X99735611Y-109679564D01*
X99666740Y-109845833D01*
X99656384Y-109870835D01*
X99541365Y-110042973D01*
X99394973Y-110189365D01*
X99222835Y-110304384D01*
X99222834Y-110304385D01*
X99222833Y-110304385D01*
X99031564Y-110383611D01*
X98828516Y-110424000D01*
X98621484Y-110424000D01*
X98418436Y-110383611D01*
X98227167Y-110304385D01*
X98227166Y-110304385D01*
X98227165Y-110304384D01*
X98055027Y-110189365D01*
X97908635Y-110042973D01*
X97793616Y-109870835D01*
X97783260Y-109845833D01*
X97714389Y-109679564D01*
X97674000Y-109476516D01*
X97674000Y-109269484D01*
X97714389Y-109066436D01*
X97793615Y-108875167D01*
X97810321Y-108850165D01*
X97908635Y-108703027D01*
X98055027Y-108556635D01*
X98227165Y-108441616D01*
X98227167Y-108441615D01*
X98418436Y-108362389D01*
X98621484Y-108322000D01*
X98828516Y-108322000D01*
X99031564Y-108362389D01*
G37*
G36*
X134081564Y-108337389D02*
G01*
X134272833Y-108416615D01*
X134272835Y-108416616D01*
X134310250Y-108441616D01*
X134444973Y-108531635D01*
X134591365Y-108678027D01*
X134706385Y-108850167D01*
X134785611Y-109041436D01*
X134826000Y-109244484D01*
X134826000Y-109451516D01*
X134785611Y-109654564D01*
X134775255Y-109679565D01*
X134706384Y-109845835D01*
X134591365Y-110017973D01*
X134444973Y-110164365D01*
X134272835Y-110279384D01*
X134272834Y-110279385D01*
X134272833Y-110279385D01*
X134081564Y-110358611D01*
X133878516Y-110399000D01*
X133671484Y-110399000D01*
X133468436Y-110358611D01*
X133277167Y-110279385D01*
X133277166Y-110279385D01*
X133277165Y-110279384D01*
X133105027Y-110164365D01*
X132958635Y-110017973D01*
X132843616Y-109845835D01*
X132774745Y-109679565D01*
X132764389Y-109654564D01*
X132724000Y-109451516D01*
X132724000Y-109244484D01*
X132764389Y-109041436D01*
X132843615Y-108850167D01*
X132958635Y-108678027D01*
X133105027Y-108531635D01*
X133239750Y-108441616D01*
X133277165Y-108416616D01*
X133277167Y-108416615D01*
X133468436Y-108337389D01*
X133671484Y-108297000D01*
X133878516Y-108297000D01*
X134081564Y-108337389D01*
G37*
G36*
X146581564Y-108337389D02*
G01*
X146772833Y-108416615D01*
X146772835Y-108416616D01*
X146810250Y-108441616D01*
X146944973Y-108531635D01*
X147091365Y-108678027D01*
X147206385Y-108850167D01*
X147285611Y-109041436D01*
X147326000Y-109244484D01*
X147326000Y-109451516D01*
X147285611Y-109654564D01*
X147275255Y-109679565D01*
X147206384Y-109845835D01*
X147091365Y-110017973D01*
X146944973Y-110164365D01*
X146772835Y-110279384D01*
X146772834Y-110279385D01*
X146772833Y-110279385D01*
X146581564Y-110358611D01*
X146378516Y-110399000D01*
X146171484Y-110399000D01*
X145968436Y-110358611D01*
X145777167Y-110279385D01*
X145777166Y-110279385D01*
X145777165Y-110279384D01*
X145605027Y-110164365D01*
X145458635Y-110017973D01*
X145343616Y-109845835D01*
X145274745Y-109679565D01*
X145264389Y-109654564D01*
X145224000Y-109451516D01*
X145224000Y-109244484D01*
X145264389Y-109041436D01*
X145343615Y-108850167D01*
X145458635Y-108678027D01*
X145605027Y-108531635D01*
X145739750Y-108441616D01*
X145777165Y-108416616D01*
X145777167Y-108416615D01*
X145968436Y-108337389D01*
X146171484Y-108297000D01*
X146378516Y-108297000D01*
X146581564Y-108337389D01*
G37*
G36*
X105141298Y-106385468D02*
G01*
X105266981Y-106410468D01*
X105449151Y-106485926D01*
X105613100Y-106595473D01*
X105752527Y-106734900D01*
X105862074Y-106898849D01*
X105927177Y-107056019D01*
X105937532Y-107081020D01*
X105976000Y-107274409D01*
X105976000Y-107471591D01*
X105937532Y-107664980D01*
X105872430Y-107822151D01*
X105862074Y-107847151D01*
X105752527Y-108011100D01*
X105613100Y-108150527D01*
X105449151Y-108260074D01*
X105266981Y-108335532D01*
X105199273Y-108349000D01*
X105073591Y-108374000D01*
X104876409Y-108374000D01*
X104750727Y-108349000D01*
X104683019Y-108335532D01*
X104500849Y-108260074D01*
X104336900Y-108150527D01*
X104197473Y-108011100D01*
X104087926Y-107847151D01*
X104077571Y-107822151D01*
X104012468Y-107664980D01*
X103974000Y-107471591D01*
X103974000Y-107274409D01*
X104012468Y-107081020D01*
X104022824Y-107056019D01*
X104087926Y-106898849D01*
X104197473Y-106734900D01*
X104336900Y-106595473D01*
X104500849Y-106485926D01*
X104683019Y-106410468D01*
X104808702Y-106385468D01*
X104876409Y-106372000D01*
X105073591Y-106372000D01*
X105141298Y-106385468D01*
G37*
G36*
X140316981Y-106385468D02*
G01*
X140499151Y-106460926D01*
X140663100Y-106570473D01*
X140802527Y-106709900D01*
X140819966Y-106736000D01*
X140912075Y-106873851D01*
X140922430Y-106898851D01*
X140987532Y-107056019D01*
X141026000Y-107249410D01*
X141026000Y-107446590D01*
X140987532Y-107639981D01*
X140912074Y-107822151D01*
X140802527Y-107986100D01*
X140663100Y-108125527D01*
X140499151Y-108235074D01*
X140316981Y-108310532D01*
X140220285Y-108329766D01*
X140123591Y-108349000D01*
X139926409Y-108349000D01*
X139829715Y-108329766D01*
X139733019Y-108310532D01*
X139550849Y-108235074D01*
X139386900Y-108125527D01*
X139247473Y-107986100D01*
X139137926Y-107822151D01*
X139062468Y-107639981D01*
X139024000Y-107446590D01*
X139024000Y-107249410D01*
X139062468Y-107056019D01*
X139127570Y-106898851D01*
X139137925Y-106873851D01*
X139230034Y-106736000D01*
X139247473Y-106709900D01*
X139386900Y-106570473D01*
X139550849Y-106460926D01*
X139733019Y-106385468D01*
X139829715Y-106366234D01*
X139926409Y-106347000D01*
X140123591Y-106347000D01*
X140316981Y-106385468D01*
G37*
G36*
X122669059Y-105262860D02*
G01*
X122805732Y-105319472D01*
X122928735Y-105401660D01*
X123033340Y-105506265D01*
X123115528Y-105629268D01*
X123172140Y-105765941D01*
X123201000Y-105911033D01*
X123201000Y-106058967D01*
X123172140Y-106204059D01*
X123115528Y-106340732D01*
X123033340Y-106463735D01*
X122928735Y-106568340D01*
X122805732Y-106650528D01*
X122805731Y-106650529D01*
X122805730Y-106650529D01*
X122669059Y-106707140D01*
X122523968Y-106736000D01*
X122376032Y-106736000D01*
X122230941Y-106707140D01*
X122094270Y-106650529D01*
X122094269Y-106650529D01*
X122094268Y-106650528D01*
X121971265Y-106568340D01*
X121866660Y-106463735D01*
X121784472Y-106340732D01*
X121727860Y-106204059D01*
X121699000Y-106058967D01*
X121699000Y-105911033D01*
X121727860Y-105765941D01*
X121784472Y-105629268D01*
X121866660Y-105506265D01*
X121971265Y-105401660D01*
X122094268Y-105319472D01*
X122230941Y-105262860D01*
X122376032Y-105234000D01*
X122523968Y-105234000D01*
X122669059Y-105262860D01*
G37*
G36*
X105194059Y-104150860D02*
G01*
X105270375Y-104182471D01*
X105330732Y-104207472D01*
X105453735Y-104289660D01*
X105558340Y-104394265D01*
X105623825Y-104492270D01*
X105640529Y-104517270D01*
X105697140Y-104653941D01*
X105726000Y-104799032D01*
X105726000Y-104946968D01*
X105697140Y-105092059D01*
X105650884Y-105203732D01*
X105640528Y-105228732D01*
X105558340Y-105351735D01*
X105453735Y-105456340D01*
X105330732Y-105538528D01*
X105330731Y-105538529D01*
X105330730Y-105538529D01*
X105194059Y-105595140D01*
X105048968Y-105624000D01*
X104901032Y-105624000D01*
X104755941Y-105595140D01*
X104619270Y-105538529D01*
X104619269Y-105538529D01*
X104619268Y-105538528D01*
X104496265Y-105456340D01*
X104391660Y-105351735D01*
X104309472Y-105228732D01*
X104299117Y-105203732D01*
X104252860Y-105092059D01*
X104224000Y-104946968D01*
X104224000Y-104799032D01*
X104252860Y-104653941D01*
X104309471Y-104517270D01*
X104326175Y-104492270D01*
X104391660Y-104394265D01*
X104496265Y-104289660D01*
X104619268Y-104207472D01*
X104679626Y-104182471D01*
X104755941Y-104150860D01*
X104901032Y-104122000D01*
X105048968Y-104122000D01*
X105194059Y-104150860D01*
G37*
G36*
X140224653Y-104122000D02*
G01*
X140244059Y-104125860D01*
X140380732Y-104182472D01*
X140503735Y-104264660D01*
X140608340Y-104369265D01*
X140660636Y-104447532D01*
X140690529Y-104492270D01*
X140700884Y-104517270D01*
X140747140Y-104628941D01*
X140776000Y-104774033D01*
X140776000Y-104921967D01*
X140747140Y-105067059D01*
X140690528Y-105203732D01*
X140608340Y-105326735D01*
X140503735Y-105431340D01*
X140380732Y-105513528D01*
X140380731Y-105513529D01*
X140380730Y-105513529D01*
X140244059Y-105570140D01*
X140098968Y-105599000D01*
X139951032Y-105599000D01*
X139805941Y-105570140D01*
X139669270Y-105513529D01*
X139669269Y-105513529D01*
X139669268Y-105513528D01*
X139546265Y-105431340D01*
X139441660Y-105326735D01*
X139359472Y-105203732D01*
X139302860Y-105067059D01*
X139274000Y-104921967D01*
X139274000Y-104774033D01*
X139302860Y-104628941D01*
X139349116Y-104517270D01*
X139359471Y-104492270D01*
X139389364Y-104447532D01*
X139441660Y-104369265D01*
X139546265Y-104264660D01*
X139669268Y-104182472D01*
X139805941Y-104125860D01*
X139825347Y-104122000D01*
X139951032Y-104097000D01*
X140098968Y-104097000D01*
X140224653Y-104122000D01*
G37*
G36*
X122741981Y-102522468D02*
G01*
X122924151Y-102597926D01*
X123088100Y-102707473D01*
X123227527Y-102846900D01*
X123337074Y-103010849D01*
X123412532Y-103193019D01*
X123451000Y-103386410D01*
X123451000Y-103583590D01*
X123412532Y-103776981D01*
X123337074Y-103959151D01*
X123227527Y-104123100D01*
X123088100Y-104262527D01*
X122924151Y-104372074D01*
X122741981Y-104447532D01*
X122548591Y-104486000D01*
X122351409Y-104486000D01*
X122158019Y-104447532D01*
X121975849Y-104372074D01*
X121811900Y-104262527D01*
X121672473Y-104123100D01*
X121562926Y-103959151D01*
X121487468Y-103776981D01*
X121449000Y-103583590D01*
X121449000Y-103386410D01*
X121487468Y-103193019D01*
X121562926Y-103010849D01*
X121672473Y-102846900D01*
X121811900Y-102707473D01*
X121975849Y-102597926D01*
X122158019Y-102522468D01*
X122351409Y-102484000D01*
X122548591Y-102484000D01*
X122741981Y-102522468D01*
G37*
G36*
X129006564Y-100474389D02*
G01*
X129197833Y-100553615D01*
X129197835Y-100553616D01*
X129369973Y-100668635D01*
X129516365Y-100815027D01*
X129631385Y-100987167D01*
X129710611Y-101178436D01*
X129751000Y-101381484D01*
X129751000Y-101588516D01*
X129710611Y-101791564D01*
X129631385Y-101982833D01*
X129631384Y-101982835D01*
X129516365Y-102154973D01*
X129369973Y-102301365D01*
X129197835Y-102416384D01*
X129197834Y-102416385D01*
X129197833Y-102416385D01*
X129006564Y-102495611D01*
X128803516Y-102536000D01*
X128596484Y-102536000D01*
X128393436Y-102495611D01*
X128202167Y-102416385D01*
X128202166Y-102416385D01*
X128202165Y-102416384D01*
X128030027Y-102301365D01*
X127883635Y-102154973D01*
X127768616Y-101982835D01*
X127768615Y-101982833D01*
X127689389Y-101791564D01*
X127649000Y-101588516D01*
X127649000Y-101381484D01*
X127689389Y-101178436D01*
X127768615Y-100987167D01*
X127883635Y-100815027D01*
X128030027Y-100668635D01*
X128202165Y-100553616D01*
X128202167Y-100553615D01*
X128393436Y-100474389D01*
X128596484Y-100434000D01*
X128803516Y-100434000D01*
X129006564Y-100474389D01*
G37*
G36*
X116506564Y-100474389D02*
G01*
X116697833Y-100553615D01*
X116697835Y-100553616D01*
X116869973Y-100668635D01*
X117016365Y-100815027D01*
X117131385Y-100987167D01*
X117210611Y-101178436D01*
X117251000Y-101381484D01*
X117251000Y-101588516D01*
X117210611Y-101791564D01*
X117131385Y-101982833D01*
X117131384Y-101982835D01*
X117016365Y-102154973D01*
X116869973Y-102301365D01*
X116697835Y-102416384D01*
X116697834Y-102416385D01*
X116697833Y-102416385D01*
X116506564Y-102495611D01*
X116303516Y-102536000D01*
X116096484Y-102536000D01*
X115893436Y-102495611D01*
X115702167Y-102416385D01*
X115702166Y-102416385D01*
X115702165Y-102416384D01*
X115530027Y-102301365D01*
X115383635Y-102154973D01*
X115268616Y-101982835D01*
X115268615Y-101982833D01*
X115189389Y-101791564D01*
X115149000Y-101588516D01*
X115149000Y-101381484D01*
X115189389Y-101178436D01*
X115268615Y-100987167D01*
X115383635Y-100815027D01*
X115530027Y-100668635D01*
X115702165Y-100553616D01*
X115702167Y-100553615D01*
X115893436Y-100474389D01*
X116096484Y-100434000D01*
X116303516Y-100434000D01*
X116506564Y-100474389D01*
G37*
G36*
X116506564Y-95474389D02*
G01*
X116697833Y-95553615D01*
X116697835Y-95553616D01*
X116869973Y-95668635D01*
X117016365Y-95815027D01*
X117131385Y-95987167D01*
X117210611Y-96178436D01*
X117251000Y-96381484D01*
X117251000Y-96588516D01*
X117210611Y-96791564D01*
X117131385Y-96982833D01*
X117131384Y-96982835D01*
X117016365Y-97154973D01*
X116869973Y-97301365D01*
X116697835Y-97416384D01*
X116697834Y-97416385D01*
X116697833Y-97416385D01*
X116506564Y-97495611D01*
X116303516Y-97536000D01*
X116096484Y-97536000D01*
X115893436Y-97495611D01*
X115702167Y-97416385D01*
X115702166Y-97416385D01*
X115702165Y-97416384D01*
X115530027Y-97301365D01*
X115383635Y-97154973D01*
X115268616Y-96982835D01*
X115268615Y-96982833D01*
X115189389Y-96791564D01*
X115149000Y-96588516D01*
X115149000Y-96381484D01*
X115189389Y-96178436D01*
X115268615Y-95987167D01*
X115383635Y-95815027D01*
X115530027Y-95668635D01*
X115702165Y-95553616D01*
X115702167Y-95553615D01*
X115893436Y-95474389D01*
X116096484Y-95434000D01*
X116303516Y-95434000D01*
X116506564Y-95474389D01*
G37*
G36*
X129006564Y-95474389D02*
G01*
X129197833Y-95553615D01*
X129197835Y-95553616D01*
X129369973Y-95668635D01*
X129516365Y-95815027D01*
X129631385Y-95987167D01*
X129710611Y-96178436D01*
X129751000Y-96381484D01*
X129751000Y-96588516D01*
X129710611Y-96791564D01*
X129631385Y-96982833D01*
X129631384Y-96982835D01*
X129516365Y-97154973D01*
X129369973Y-97301365D01*
X129197835Y-97416384D01*
X129197834Y-97416385D01*
X129197833Y-97416385D01*
X129006564Y-97495611D01*
X128803516Y-97536000D01*
X128596484Y-97536000D01*
X128393436Y-97495611D01*
X128202167Y-97416385D01*
X128202166Y-97416385D01*
X128202165Y-97416384D01*
X128030027Y-97301365D01*
X127883635Y-97154973D01*
X127768616Y-96982835D01*
X127768615Y-96982833D01*
X127689389Y-96791564D01*
X127649000Y-96588516D01*
X127649000Y-96381484D01*
X127689389Y-96178436D01*
X127768615Y-95987167D01*
X127883635Y-95815027D01*
X128030027Y-95668635D01*
X128202165Y-95553616D01*
X128202167Y-95553615D01*
X128393436Y-95474389D01*
X128596484Y-95434000D01*
X128803516Y-95434000D01*
X129006564Y-95474389D01*
G37*
G36*
X122741981Y-93522468D02*
G01*
X122924151Y-93597926D01*
X123088100Y-93707473D01*
X123227527Y-93846900D01*
X123337074Y-94010849D01*
X123412532Y-94193019D01*
X123451000Y-94386410D01*
X123451000Y-94583590D01*
X123412532Y-94776981D01*
X123337074Y-94959151D01*
X123227527Y-95123100D01*
X123088100Y-95262527D01*
X122924151Y-95372074D01*
X122741981Y-95447532D01*
X122645285Y-95466766D01*
X122548591Y-95486000D01*
X122351409Y-95486000D01*
X122158019Y-95447532D01*
X121975849Y-95372074D01*
X121811900Y-95262527D01*
X121672473Y-95123100D01*
X121562926Y-94959151D01*
X121487468Y-94776981D01*
X121449000Y-94583590D01*
X121449000Y-94386410D01*
X121487468Y-94193019D01*
X121562926Y-94010849D01*
X121672473Y-93846900D01*
X121811900Y-93707473D01*
X121975849Y-93597926D01*
X122158019Y-93522468D01*
X122351409Y-93484000D01*
X122548591Y-93484000D01*
X122741981Y-93522468D01*
G37*
G36*
X122669059Y-91262860D02*
G01*
X122805732Y-91319472D01*
X122928735Y-91401660D01*
X123033340Y-91506265D01*
X123115528Y-91629268D01*
X123172140Y-91765941D01*
X123201000Y-91911033D01*
X123201000Y-92058967D01*
X123172140Y-92204059D01*
X123115528Y-92340732D01*
X123033340Y-92463735D01*
X122928735Y-92568340D01*
X122805732Y-92650528D01*
X122805731Y-92650529D01*
X122805730Y-92650529D01*
X122669059Y-92707140D01*
X122523968Y-92736000D01*
X122376032Y-92736000D01*
X122230941Y-92707140D01*
X122094270Y-92650529D01*
X122094269Y-92650529D01*
X122094268Y-92650528D01*
X121971265Y-92568340D01*
X121866660Y-92463735D01*
X121784472Y-92340732D01*
X121727860Y-92204059D01*
X121699000Y-92058967D01*
X121699000Y-91911033D01*
X121727860Y-91765941D01*
X121784472Y-91629268D01*
X121866660Y-91506265D01*
X121971265Y-91401660D01*
X122094268Y-91319472D01*
X122230941Y-91262860D01*
X122376032Y-91234000D01*
X122523968Y-91234000D01*
X122669059Y-91262860D01*
G37*
G36*
X107058785Y-86413602D02*
G01*
X107208610Y-86443404D01*
X107490874Y-86560321D01*
X107744905Y-86730059D01*
X107960941Y-86946095D01*
X108130679Y-87200126D01*
X108247596Y-87482390D01*
X108307200Y-87782040D01*
X108307200Y-88087560D01*
X108247596Y-88387210D01*
X108130679Y-88669474D01*
X107960941Y-88923505D01*
X107744905Y-89139541D01*
X107490874Y-89309279D01*
X107208610Y-89426196D01*
X107058785Y-89455998D01*
X106908961Y-89485800D01*
X106603439Y-89485800D01*
X106453615Y-89455998D01*
X106303790Y-89426196D01*
X106021526Y-89309279D01*
X105767495Y-89139541D01*
X105551459Y-88923505D01*
X105381721Y-88669474D01*
X105264804Y-88387210D01*
X105205200Y-88087560D01*
X105205200Y-87782040D01*
X105264804Y-87482390D01*
X105381721Y-87200126D01*
X105551459Y-86946095D01*
X105767495Y-86730059D01*
X106021526Y-86560321D01*
X106303790Y-86443404D01*
X106453615Y-86413602D01*
X106603439Y-86383800D01*
X106908961Y-86383800D01*
X107058785Y-86413602D01*
G37*
M02*
