G04 #@! TF.GenerationSoftware,KiCad,Pcbnew,(5.1.6)-1*
G04 #@! TF.CreationDate,2021-11-15T17:53:34+01:00*
G04 #@! TF.ProjectId,STEM,5354454d-2e6b-4696-9361-645f70636258,A*
G04 #@! TF.SameCoordinates,Original*
G04 #@! TF.FileFunction,Profile,NP*
%FSLAX46Y46*%
G04 Gerber Fmt 4.6, Leading zero omitted, Abs format (unit mm)*
G04 Created by KiCad (PCBNEW (5.1.6)-1) date 2021-11-15 17:53:34*
%MOMM*%
%LPD*%
G01*
G04 APERTURE LIST*
G04 #@! TA.AperFunction,Profile*
%ADD10C,0.050000*%
G04 #@! TD*
G04 APERTURE END LIST*
D10*
X91925719Y-115152278D02*
X91910175Y-117371447D01*
X137784774Y-141678540D02*
X139714398Y-140582419D01*
X142847060Y-140577829D02*
X142819374Y-140607081D01*
X90336329Y-120048099D02*
X90345686Y-120108486D01*
X134357857Y-84883260D02*
G75*
G02*
X135169180Y-86041949I-173683J-985006D01*
G01*
X90382278Y-110206138D02*
X90364706Y-110240201D01*
X135888988Y-87584570D02*
G75*
G02*
X135169180Y-86041949I742221J1285577D01*
G01*
X117927440Y-145481680D02*
X117907120Y-145499700D01*
X142878161Y-89854040D02*
X157505401Y-115188998D01*
X90336333Y-120048097D02*
G75*
G02*
X90934124Y-118766130I939879J342088D01*
G01*
X134311294Y-145486456D02*
X134264719Y-145499701D01*
X91910179Y-117371446D02*
G75*
G02*
X90934124Y-118766130I-1484459J0D01*
G01*
X105005398Y-84878300D02*
X134315520Y-84878298D01*
X105005400Y-145499700D02*
X116915398Y-145499700D01*
X90962497Y-111522172D02*
G75*
G02*
X90364706Y-110240201I342090J939881D01*
G01*
X105005400Y-145499700D02*
X90345686Y-120108486D01*
X155013518Y-130535681D02*
X155013518Y-130535681D01*
X117927440Y-144186282D02*
X127071441Y-144186282D01*
X127071441Y-144186282D02*
X127071440Y-145481680D01*
X157505401Y-115188998D02*
X142847060Y-140577829D01*
X117927440Y-145481680D02*
X117927440Y-144186282D01*
X139714402Y-140582420D02*
G75*
G02*
X141410257Y-140730364I742229J-1285575D01*
G01*
X90382278Y-110206138D02*
X105005398Y-84878300D01*
X91925720Y-112922284D02*
X91925719Y-115152278D01*
X142819370Y-140607083D02*
G75*
G02*
X141410257Y-140730364I-766197J642916D01*
G01*
X139734301Y-89822620D02*
X137803068Y-88707619D01*
X127071440Y-145481680D02*
X127076523Y-145499698D01*
X141428444Y-89688498D02*
G75*
G02*
X142837558Y-89811782I642915J-766199D01*
G01*
X137803068Y-88707619D02*
X135888984Y-87584572D01*
X134357858Y-84883261D02*
X134315520Y-84878298D01*
X135853540Y-142793539D02*
X137784774Y-141678540D01*
X135121579Y-144327931D02*
G75*
G02*
X135853540Y-142793539I1482375J234635D01*
G01*
X135122617Y-144327767D02*
G75*
G02*
X134311294Y-145486456I-985006J-173683D01*
G01*
X90962878Y-111521189D02*
G75*
G02*
X91925720Y-112922284I-537989J-1401093D01*
G01*
X141429103Y-89689320D02*
G75*
G02*
X139734301Y-89822620I-944388J1166456D01*
G01*
X127076523Y-145499698D02*
X134264719Y-145499701D01*
X142837558Y-89811782D02*
X142878161Y-89854040D01*
X116915398Y-145499700D02*
X117907120Y-145499700D01*
M02*
