G04 #@! TF.GenerationSoftware,KiCad,Pcbnew,(5.1.6)-1*
G04 #@! TF.CreationDate,2021-11-15T17:53:34+01:00*
G04 #@! TF.ProjectId,STEM,5354454d-2e6b-4696-9361-645f70636258,A*
G04 #@! TF.SameCoordinates,Original*
G04 #@! TF.FileFunction,Legend,Top*
G04 #@! TF.FilePolarity,Positive*
%FSLAX46Y46*%
G04 Gerber Fmt 4.6, Leading zero omitted, Abs format (unit mm)*
G04 Created by KiCad (PCBNEW (5.1.6)-1) date 2021-11-15 17:53:34*
%MOMM*%
%LPD*%
G01*
G04 APERTURE LIST*
%ADD10C,0.125000*%
%ADD11C,0.152400*%
%ADD12C,0.500000*%
%ADD13C,0.010000*%
%ADD14C,0.120000*%
%ADD15C,0.200000*%
%ADD16C,0.150000*%
%ADD17C,0.254000*%
G04 APERTURE END LIST*
D10*
X119193571Y-136378190D02*
X119360238Y-136878190D01*
X119526904Y-136378190D01*
X119860238Y-136616285D02*
X119931666Y-136640095D01*
X119955476Y-136663904D01*
X119979285Y-136711523D01*
X119979285Y-136782952D01*
X119955476Y-136830571D01*
X119931666Y-136854380D01*
X119884047Y-136878190D01*
X119693571Y-136878190D01*
X119693571Y-136378190D01*
X119860238Y-136378190D01*
X119907857Y-136402000D01*
X119931666Y-136425809D01*
X119955476Y-136473428D01*
X119955476Y-136521047D01*
X119931666Y-136568666D01*
X119907857Y-136592476D01*
X119860238Y-136616285D01*
X119693571Y-136616285D01*
X120169761Y-136735333D02*
X120407857Y-136735333D01*
X120122142Y-136878190D02*
X120288809Y-136378190D01*
X120455476Y-136878190D01*
X120550714Y-136378190D02*
X120836428Y-136378190D01*
X120693571Y-136878190D02*
X120693571Y-136378190D01*
X124475952Y-132568190D02*
X124785476Y-132568190D01*
X124618809Y-132758666D01*
X124690238Y-132758666D01*
X124737857Y-132782476D01*
X124761666Y-132806285D01*
X124785476Y-132853904D01*
X124785476Y-132972952D01*
X124761666Y-133020571D01*
X124737857Y-133044380D01*
X124690238Y-133068190D01*
X124547380Y-133068190D01*
X124499761Y-133044380D01*
X124475952Y-133020571D01*
X124928333Y-132568190D02*
X125095000Y-133068190D01*
X125261666Y-132568190D01*
X125380714Y-132568190D02*
X125690238Y-132568190D01*
X125523571Y-132758666D01*
X125595000Y-132758666D01*
X125642619Y-132782476D01*
X125666428Y-132806285D01*
X125690238Y-132853904D01*
X125690238Y-132972952D01*
X125666428Y-133020571D01*
X125642619Y-133044380D01*
X125595000Y-133068190D01*
X125452142Y-133068190D01*
X125404523Y-133044380D01*
X125380714Y-133020571D01*
X122174047Y-132592000D02*
X122126428Y-132568190D01*
X122055000Y-132568190D01*
X121983571Y-132592000D01*
X121935952Y-132639619D01*
X121912142Y-132687238D01*
X121888333Y-132782476D01*
X121888333Y-132853904D01*
X121912142Y-132949142D01*
X121935952Y-132996761D01*
X121983571Y-133044380D01*
X122055000Y-133068190D01*
X122102619Y-133068190D01*
X122174047Y-133044380D01*
X122197857Y-133020571D01*
X122197857Y-132853904D01*
X122102619Y-132853904D01*
X122412142Y-133068190D02*
X122412142Y-132568190D01*
X122697857Y-133068190D01*
X122697857Y-132568190D01*
X122935952Y-133068190D02*
X122935952Y-132568190D01*
X123055000Y-132568190D01*
X123126428Y-132592000D01*
X123174047Y-132639619D01*
X123197857Y-132687238D01*
X123221666Y-132782476D01*
X123221666Y-132853904D01*
X123197857Y-132949142D01*
X123174047Y-132996761D01*
X123126428Y-133044380D01*
X123055000Y-133068190D01*
X122935952Y-133068190D01*
X124487857Y-136727380D02*
X124559285Y-136751190D01*
X124678333Y-136751190D01*
X124725952Y-136727380D01*
X124749761Y-136703571D01*
X124773571Y-136655952D01*
X124773571Y-136608333D01*
X124749761Y-136560714D01*
X124725952Y-136536904D01*
X124678333Y-136513095D01*
X124583095Y-136489285D01*
X124535476Y-136465476D01*
X124511666Y-136441666D01*
X124487857Y-136394047D01*
X124487857Y-136346428D01*
X124511666Y-136298809D01*
X124535476Y-136275000D01*
X124583095Y-136251190D01*
X124702142Y-136251190D01*
X124773571Y-136275000D01*
X124987857Y-136751190D02*
X124987857Y-136251190D01*
X125106904Y-136251190D01*
X125178333Y-136275000D01*
X125225952Y-136322619D01*
X125249761Y-136370238D01*
X125273571Y-136465476D01*
X125273571Y-136536904D01*
X125249761Y-136632142D01*
X125225952Y-136679761D01*
X125178333Y-136727380D01*
X125106904Y-136751190D01*
X124987857Y-136751190D01*
X125464047Y-136608333D02*
X125702142Y-136608333D01*
X125416428Y-136751190D02*
X125583095Y-136251190D01*
X125749761Y-136751190D01*
X121959761Y-136854380D02*
X122031190Y-136878190D01*
X122150238Y-136878190D01*
X122197857Y-136854380D01*
X122221666Y-136830571D01*
X122245476Y-136782952D01*
X122245476Y-136735333D01*
X122221666Y-136687714D01*
X122197857Y-136663904D01*
X122150238Y-136640095D01*
X122055000Y-136616285D01*
X122007380Y-136592476D01*
X121983571Y-136568666D01*
X121959761Y-136521047D01*
X121959761Y-136473428D01*
X121983571Y-136425809D01*
X122007380Y-136402000D01*
X122055000Y-136378190D01*
X122174047Y-136378190D01*
X122245476Y-136402000D01*
X122745476Y-136830571D02*
X122721666Y-136854380D01*
X122650238Y-136878190D01*
X122602619Y-136878190D01*
X122531190Y-136854380D01*
X122483571Y-136806761D01*
X122459761Y-136759142D01*
X122435952Y-136663904D01*
X122435952Y-136592476D01*
X122459761Y-136497238D01*
X122483571Y-136449619D01*
X122531190Y-136402000D01*
X122602619Y-136378190D01*
X122650238Y-136378190D01*
X122721666Y-136402000D01*
X122745476Y-136425809D01*
X123197857Y-136878190D02*
X122959761Y-136878190D01*
X122959761Y-136378190D01*
X119562619Y-133068190D02*
X119562619Y-132568190D01*
X119800714Y-133068190D02*
X119800714Y-132568190D01*
X120086428Y-133068190D01*
X120086428Y-132568190D01*
X120253095Y-132568190D02*
X120538809Y-132568190D01*
X120395952Y-133068190D02*
X120395952Y-132568190D01*
D11*
X126365000Y-140150000D02*
X126365000Y-144150000D01*
X126365000Y-140150000D02*
X118745000Y-140150000D01*
X126365000Y-144150000D02*
X118745000Y-144150000D01*
X118745000Y-140150000D02*
X118745000Y-144150000D01*
D12*
X125716419Y-140850000D02*
G75*
G03*
X125716419Y-140850000I-141419J0D01*
G01*
D13*
G36*
X110885775Y-133005668D02*
G01*
X110889725Y-133012182D01*
X110894949Y-133022402D01*
X110896985Y-133026421D01*
X110912478Y-133058381D01*
X110928038Y-133093600D01*
X110943741Y-133132297D01*
X110959664Y-133174689D01*
X110975882Y-133220994D01*
X110992471Y-133271432D01*
X111009508Y-133326218D01*
X111027068Y-133385572D01*
X111045228Y-133449711D01*
X111047784Y-133458945D01*
X111053034Y-133478117D01*
X111057815Y-133495875D01*
X111061962Y-133511585D01*
X111065312Y-133524612D01*
X111067701Y-133534324D01*
X111068962Y-133540084D01*
X111069120Y-133541265D01*
X111067992Y-133544766D01*
X111064807Y-133552141D01*
X111059866Y-133562763D01*
X111053465Y-133576005D01*
X111045904Y-133591239D01*
X111037482Y-133607839D01*
X111036334Y-133610075D01*
X111025952Y-133630405D01*
X111014824Y-133652462D01*
X111002826Y-133676502D01*
X110989834Y-133702782D01*
X110975724Y-133731558D01*
X110960371Y-133763087D01*
X110943650Y-133797625D01*
X110925437Y-133835428D01*
X110905607Y-133876754D01*
X110884037Y-133921859D01*
X110860602Y-133970999D01*
X110835176Y-134024431D01*
X110829169Y-134037070D01*
X110795371Y-134108000D01*
X110763483Y-134174508D01*
X110733381Y-134236830D01*
X110704941Y-134295199D01*
X110678042Y-134349849D01*
X110652559Y-134401014D01*
X110628369Y-134448930D01*
X110605350Y-134493830D01*
X110583377Y-134535948D01*
X110562329Y-134575519D01*
X110542081Y-134612777D01*
X110522510Y-134647955D01*
X110503494Y-134681290D01*
X110484909Y-134713014D01*
X110466631Y-134743362D01*
X110448538Y-134772568D01*
X110430507Y-134800867D01*
X110415079Y-134824470D01*
X110402772Y-134842859D01*
X110390284Y-134861110D01*
X110377937Y-134878788D01*
X110366053Y-134895458D01*
X110354956Y-134910686D01*
X110344967Y-134924036D01*
X110336410Y-134935073D01*
X110329606Y-134943363D01*
X110324878Y-134948471D01*
X110322549Y-134949961D01*
X110322360Y-134949513D01*
X110323198Y-134946916D01*
X110325512Y-134940402D01*
X110328995Y-134930812D01*
X110333345Y-134918987D01*
X110335973Y-134911898D01*
X110345055Y-134887044D01*
X110354083Y-134861458D01*
X110363118Y-134834921D01*
X110372217Y-134807212D01*
X110381440Y-134778111D01*
X110390847Y-134747398D01*
X110400496Y-134714852D01*
X110410446Y-134680253D01*
X110420758Y-134643381D01*
X110431489Y-134604016D01*
X110442700Y-134561937D01*
X110454449Y-134516925D01*
X110466796Y-134468758D01*
X110479800Y-134417217D01*
X110493520Y-134362082D01*
X110508015Y-134303131D01*
X110523344Y-134240146D01*
X110539567Y-134172905D01*
X110556743Y-134101188D01*
X110574930Y-134024776D01*
X110578944Y-134007860D01*
X110592315Y-133951670D01*
X110605541Y-133896475D01*
X110618523Y-133842680D01*
X110631159Y-133790692D01*
X110643351Y-133740915D01*
X110654998Y-133693755D01*
X110666000Y-133649618D01*
X110676257Y-133608910D01*
X110685668Y-133572036D01*
X110694134Y-133539402D01*
X110699887Y-133517640D01*
X110719839Y-133444436D01*
X110739270Y-133376243D01*
X110758193Y-133313020D01*
X110776622Y-133254723D01*
X110794571Y-133201314D01*
X110812055Y-133152749D01*
X110829087Y-133108987D01*
X110845680Y-133069988D01*
X110861850Y-133035710D01*
X110863240Y-133032943D01*
X110870205Y-133019106D01*
X110875315Y-133009581D01*
X110879196Y-133004247D01*
X110882474Y-133002983D01*
X110885775Y-133005668D01*
G37*
X110885775Y-133005668D02*
X110889725Y-133012182D01*
X110894949Y-133022402D01*
X110896985Y-133026421D01*
X110912478Y-133058381D01*
X110928038Y-133093600D01*
X110943741Y-133132297D01*
X110959664Y-133174689D01*
X110975882Y-133220994D01*
X110992471Y-133271432D01*
X111009508Y-133326218D01*
X111027068Y-133385572D01*
X111045228Y-133449711D01*
X111047784Y-133458945D01*
X111053034Y-133478117D01*
X111057815Y-133495875D01*
X111061962Y-133511585D01*
X111065312Y-133524612D01*
X111067701Y-133534324D01*
X111068962Y-133540084D01*
X111069120Y-133541265D01*
X111067992Y-133544766D01*
X111064807Y-133552141D01*
X111059866Y-133562763D01*
X111053465Y-133576005D01*
X111045904Y-133591239D01*
X111037482Y-133607839D01*
X111036334Y-133610075D01*
X111025952Y-133630405D01*
X111014824Y-133652462D01*
X111002826Y-133676502D01*
X110989834Y-133702782D01*
X110975724Y-133731558D01*
X110960371Y-133763087D01*
X110943650Y-133797625D01*
X110925437Y-133835428D01*
X110905607Y-133876754D01*
X110884037Y-133921859D01*
X110860602Y-133970999D01*
X110835176Y-134024431D01*
X110829169Y-134037070D01*
X110795371Y-134108000D01*
X110763483Y-134174508D01*
X110733381Y-134236830D01*
X110704941Y-134295199D01*
X110678042Y-134349849D01*
X110652559Y-134401014D01*
X110628369Y-134448930D01*
X110605350Y-134493830D01*
X110583377Y-134535948D01*
X110562329Y-134575519D01*
X110542081Y-134612777D01*
X110522510Y-134647955D01*
X110503494Y-134681290D01*
X110484909Y-134713014D01*
X110466631Y-134743362D01*
X110448538Y-134772568D01*
X110430507Y-134800867D01*
X110415079Y-134824470D01*
X110402772Y-134842859D01*
X110390284Y-134861110D01*
X110377937Y-134878788D01*
X110366053Y-134895458D01*
X110354956Y-134910686D01*
X110344967Y-134924036D01*
X110336410Y-134935073D01*
X110329606Y-134943363D01*
X110324878Y-134948471D01*
X110322549Y-134949961D01*
X110322360Y-134949513D01*
X110323198Y-134946916D01*
X110325512Y-134940402D01*
X110328995Y-134930812D01*
X110333345Y-134918987D01*
X110335973Y-134911898D01*
X110345055Y-134887044D01*
X110354083Y-134861458D01*
X110363118Y-134834921D01*
X110372217Y-134807212D01*
X110381440Y-134778111D01*
X110390847Y-134747398D01*
X110400496Y-134714852D01*
X110410446Y-134680253D01*
X110420758Y-134643381D01*
X110431489Y-134604016D01*
X110442700Y-134561937D01*
X110454449Y-134516925D01*
X110466796Y-134468758D01*
X110479800Y-134417217D01*
X110493520Y-134362082D01*
X110508015Y-134303131D01*
X110523344Y-134240146D01*
X110539567Y-134172905D01*
X110556743Y-134101188D01*
X110574930Y-134024776D01*
X110578944Y-134007860D01*
X110592315Y-133951670D01*
X110605541Y-133896475D01*
X110618523Y-133842680D01*
X110631159Y-133790692D01*
X110643351Y-133740915D01*
X110654998Y-133693755D01*
X110666000Y-133649618D01*
X110676257Y-133608910D01*
X110685668Y-133572036D01*
X110694134Y-133539402D01*
X110699887Y-133517640D01*
X110719839Y-133444436D01*
X110739270Y-133376243D01*
X110758193Y-133313020D01*
X110776622Y-133254723D01*
X110794571Y-133201314D01*
X110812055Y-133152749D01*
X110829087Y-133108987D01*
X110845680Y-133069988D01*
X110861850Y-133035710D01*
X110863240Y-133032943D01*
X110870205Y-133019106D01*
X110875315Y-133009581D01*
X110879196Y-133004247D01*
X110882474Y-133002983D01*
X110885775Y-133005668D01*
G36*
X109176357Y-133001701D02*
G01*
X109180005Y-133007914D01*
X109185022Y-133017446D01*
X109191087Y-133029622D01*
X109197883Y-133043768D01*
X109205089Y-133059210D01*
X109212387Y-133075273D01*
X109219457Y-133091283D01*
X109225981Y-133106567D01*
X109231487Y-133120065D01*
X109241532Y-133145901D01*
X109251450Y-133172373D01*
X109261301Y-133199707D01*
X109271148Y-133228131D01*
X109281055Y-133257869D01*
X109291083Y-133289149D01*
X109301295Y-133322198D01*
X109311753Y-133357241D01*
X109322521Y-133394505D01*
X109333660Y-133434217D01*
X109345233Y-133476603D01*
X109357304Y-133521889D01*
X109369933Y-133570302D01*
X109383185Y-133622069D01*
X109397120Y-133677415D01*
X109411803Y-133736567D01*
X109427295Y-133799752D01*
X109443659Y-133867196D01*
X109460958Y-133939126D01*
X109479253Y-134015767D01*
X109481601Y-134025640D01*
X109498113Y-134094944D01*
X109513582Y-134159574D01*
X109528083Y-134219810D01*
X109541688Y-134275934D01*
X109554469Y-134328228D01*
X109566499Y-134376972D01*
X109577851Y-134422449D01*
X109588598Y-134464939D01*
X109598811Y-134504725D01*
X109608565Y-134542087D01*
X109617930Y-134577306D01*
X109626981Y-134610666D01*
X109635790Y-134642446D01*
X109644429Y-134672928D01*
X109652972Y-134702393D01*
X109661490Y-134731124D01*
X109670057Y-134759401D01*
X109676373Y-134779887D01*
X109683125Y-134801292D01*
X109690428Y-134823855D01*
X109698005Y-134846758D01*
X109705574Y-134869183D01*
X109712857Y-134890314D01*
X109719573Y-134909333D01*
X109725442Y-134925422D01*
X109730185Y-134937764D01*
X109731535Y-134941064D01*
X109733860Y-134947391D01*
X109734751Y-134951458D01*
X109734615Y-134952051D01*
X109732842Y-134950454D01*
X109728537Y-134945371D01*
X109722184Y-134937408D01*
X109714264Y-134927169D01*
X109705258Y-134915258D01*
X109704464Y-134914196D01*
X109685607Y-134888535D01*
X109666889Y-134862183D01*
X109648199Y-134834935D01*
X109629424Y-134806584D01*
X109610454Y-134776924D01*
X109591176Y-134745750D01*
X109571478Y-134712854D01*
X109551250Y-134678032D01*
X109530379Y-134641078D01*
X109508754Y-134601784D01*
X109486263Y-134559945D01*
X109462795Y-134515356D01*
X109438238Y-134467810D01*
X109412480Y-134417101D01*
X109385410Y-134363023D01*
X109356915Y-134305371D01*
X109326885Y-134243937D01*
X109295208Y-134178517D01*
X109261771Y-134108903D01*
X109226464Y-134034891D01*
X109216032Y-134012940D01*
X109199924Y-133979113D01*
X109182772Y-133943271D01*
X109164944Y-133906171D01*
X109146807Y-133868573D01*
X109128730Y-133831234D01*
X109111080Y-133794915D01*
X109094226Y-133760372D01*
X109078534Y-133728366D01*
X109064373Y-133699655D01*
X109055373Y-133681533D01*
X108985777Y-133541897D01*
X109001606Y-133483413D01*
X109021914Y-133410155D01*
X109041823Y-133341921D01*
X109061346Y-133278670D01*
X109080495Y-133220364D01*
X109099284Y-133166961D01*
X109115053Y-133125210D01*
X109119849Y-133113406D01*
X109125741Y-133099622D01*
X109132404Y-133084544D01*
X109139515Y-133068858D01*
X109146748Y-133053251D01*
X109153779Y-133038412D01*
X109160286Y-133025025D01*
X109165942Y-133013780D01*
X109170424Y-133005361D01*
X109173407Y-133000457D01*
X109174397Y-132999480D01*
X109176357Y-133001701D01*
G37*
X109176357Y-133001701D02*
X109180005Y-133007914D01*
X109185022Y-133017446D01*
X109191087Y-133029622D01*
X109197883Y-133043768D01*
X109205089Y-133059210D01*
X109212387Y-133075273D01*
X109219457Y-133091283D01*
X109225981Y-133106567D01*
X109231487Y-133120065D01*
X109241532Y-133145901D01*
X109251450Y-133172373D01*
X109261301Y-133199707D01*
X109271148Y-133228131D01*
X109281055Y-133257869D01*
X109291083Y-133289149D01*
X109301295Y-133322198D01*
X109311753Y-133357241D01*
X109322521Y-133394505D01*
X109333660Y-133434217D01*
X109345233Y-133476603D01*
X109357304Y-133521889D01*
X109369933Y-133570302D01*
X109383185Y-133622069D01*
X109397120Y-133677415D01*
X109411803Y-133736567D01*
X109427295Y-133799752D01*
X109443659Y-133867196D01*
X109460958Y-133939126D01*
X109479253Y-134015767D01*
X109481601Y-134025640D01*
X109498113Y-134094944D01*
X109513582Y-134159574D01*
X109528083Y-134219810D01*
X109541688Y-134275934D01*
X109554469Y-134328228D01*
X109566499Y-134376972D01*
X109577851Y-134422449D01*
X109588598Y-134464939D01*
X109598811Y-134504725D01*
X109608565Y-134542087D01*
X109617930Y-134577306D01*
X109626981Y-134610666D01*
X109635790Y-134642446D01*
X109644429Y-134672928D01*
X109652972Y-134702393D01*
X109661490Y-134731124D01*
X109670057Y-134759401D01*
X109676373Y-134779887D01*
X109683125Y-134801292D01*
X109690428Y-134823855D01*
X109698005Y-134846758D01*
X109705574Y-134869183D01*
X109712857Y-134890314D01*
X109719573Y-134909333D01*
X109725442Y-134925422D01*
X109730185Y-134937764D01*
X109731535Y-134941064D01*
X109733860Y-134947391D01*
X109734751Y-134951458D01*
X109734615Y-134952051D01*
X109732842Y-134950454D01*
X109728537Y-134945371D01*
X109722184Y-134937408D01*
X109714264Y-134927169D01*
X109705258Y-134915258D01*
X109704464Y-134914196D01*
X109685607Y-134888535D01*
X109666889Y-134862183D01*
X109648199Y-134834935D01*
X109629424Y-134806584D01*
X109610454Y-134776924D01*
X109591176Y-134745750D01*
X109571478Y-134712854D01*
X109551250Y-134678032D01*
X109530379Y-134641078D01*
X109508754Y-134601784D01*
X109486263Y-134559945D01*
X109462795Y-134515356D01*
X109438238Y-134467810D01*
X109412480Y-134417101D01*
X109385410Y-134363023D01*
X109356915Y-134305371D01*
X109326885Y-134243937D01*
X109295208Y-134178517D01*
X109261771Y-134108903D01*
X109226464Y-134034891D01*
X109216032Y-134012940D01*
X109199924Y-133979113D01*
X109182772Y-133943271D01*
X109164944Y-133906171D01*
X109146807Y-133868573D01*
X109128730Y-133831234D01*
X109111080Y-133794915D01*
X109094226Y-133760372D01*
X109078534Y-133728366D01*
X109064373Y-133699655D01*
X109055373Y-133681533D01*
X108985777Y-133541897D01*
X109001606Y-133483413D01*
X109021914Y-133410155D01*
X109041823Y-133341921D01*
X109061346Y-133278670D01*
X109080495Y-133220364D01*
X109099284Y-133166961D01*
X109115053Y-133125210D01*
X109119849Y-133113406D01*
X109125741Y-133099622D01*
X109132404Y-133084544D01*
X109139515Y-133068858D01*
X109146748Y-133053251D01*
X109153779Y-133038412D01*
X109160286Y-133025025D01*
X109165942Y-133013780D01*
X109170424Y-133005361D01*
X109173407Y-133000457D01*
X109174397Y-132999480D01*
X109176357Y-133001701D01*
G36*
X108349707Y-132911242D02*
G01*
X108376375Y-132918319D01*
X108404137Y-132929738D01*
X108433495Y-132945480D01*
X108444030Y-132951876D01*
X108476568Y-132974397D01*
X108509917Y-133001875D01*
X108544034Y-133034256D01*
X108578875Y-133071491D01*
X108614397Y-133113526D01*
X108650555Y-133160310D01*
X108687308Y-133211792D01*
X108724610Y-133267919D01*
X108762418Y-133328641D01*
X108765557Y-133333851D01*
X108794002Y-133381186D01*
X108787046Y-133405598D01*
X108779085Y-133433910D01*
X108770696Y-133464491D01*
X108761825Y-133497560D01*
X108752415Y-133533335D01*
X108742413Y-133572036D01*
X108731764Y-133613880D01*
X108720413Y-133659088D01*
X108708304Y-133707877D01*
X108695383Y-133760468D01*
X108681596Y-133817078D01*
X108666887Y-133877926D01*
X108651201Y-133943232D01*
X108634484Y-134013214D01*
X108629408Y-134034530D01*
X108612282Y-134106314D01*
X108596185Y-134173402D01*
X108581047Y-134236055D01*
X108566799Y-134294539D01*
X108553372Y-134349115D01*
X108540696Y-134400047D01*
X108528702Y-134447598D01*
X108517321Y-134492031D01*
X108506484Y-134533609D01*
X108496121Y-134572596D01*
X108486163Y-134609254D01*
X108476540Y-134643847D01*
X108467184Y-134676637D01*
X108458025Y-134707889D01*
X108448994Y-134737865D01*
X108440021Y-134766828D01*
X108431038Y-134795042D01*
X108421974Y-134822769D01*
X108421411Y-134824470D01*
X108414303Y-134845568D01*
X108406613Y-134867804D01*
X108398783Y-134889942D01*
X108391252Y-134910745D01*
X108384464Y-134928976D01*
X108379693Y-134941310D01*
X108372984Y-134957768D01*
X108365652Y-134974981D01*
X108357998Y-134992317D01*
X108350322Y-135009146D01*
X108342924Y-135024838D01*
X108336106Y-135038761D01*
X108330167Y-135050285D01*
X108325409Y-135058780D01*
X108322132Y-135063616D01*
X108320971Y-135064500D01*
X108318955Y-135062347D01*
X108315200Y-135056430D01*
X108310176Y-135047558D01*
X108304353Y-135036539D01*
X108301930Y-135031759D01*
X108291372Y-135010083D01*
X108280910Y-134987332D01*
X108270490Y-134963319D01*
X108260058Y-134937858D01*
X108249559Y-134910763D01*
X108238940Y-134881849D01*
X108228147Y-134850929D01*
X108217125Y-134817816D01*
X108205822Y-134782325D01*
X108194182Y-134744271D01*
X108182152Y-134703465D01*
X108169678Y-134659724D01*
X108156706Y-134612860D01*
X108143182Y-134562688D01*
X108129052Y-134509021D01*
X108114262Y-134451673D01*
X108098758Y-134390459D01*
X108082486Y-134325191D01*
X108065392Y-134255685D01*
X108047422Y-134181754D01*
X108028522Y-134103212D01*
X108009708Y-134024370D01*
X107991309Y-133947265D01*
X107973772Y-133874333D01*
X107957121Y-133805663D01*
X107941378Y-133741347D01*
X107926565Y-133681476D01*
X107912705Y-133626141D01*
X107899821Y-133575434D01*
X107887935Y-133529445D01*
X107877071Y-133488265D01*
X107869717Y-133460999D01*
X107847695Y-133380229D01*
X107876388Y-133332729D01*
X107913700Y-133272638D01*
X107950105Y-133217435D01*
X107985680Y-133167024D01*
X108020506Y-133121309D01*
X108054661Y-133080195D01*
X108088224Y-133043585D01*
X108121276Y-133011385D01*
X108153895Y-132983498D01*
X108184530Y-132960931D01*
X108215188Y-132941591D01*
X108243925Y-132926698D01*
X108271243Y-132916234D01*
X108297644Y-132910182D01*
X108323631Y-132908524D01*
X108349707Y-132911242D01*
G37*
X108349707Y-132911242D02*
X108376375Y-132918319D01*
X108404137Y-132929738D01*
X108433495Y-132945480D01*
X108444030Y-132951876D01*
X108476568Y-132974397D01*
X108509917Y-133001875D01*
X108544034Y-133034256D01*
X108578875Y-133071491D01*
X108614397Y-133113526D01*
X108650555Y-133160310D01*
X108687308Y-133211792D01*
X108724610Y-133267919D01*
X108762418Y-133328641D01*
X108765557Y-133333851D01*
X108794002Y-133381186D01*
X108787046Y-133405598D01*
X108779085Y-133433910D01*
X108770696Y-133464491D01*
X108761825Y-133497560D01*
X108752415Y-133533335D01*
X108742413Y-133572036D01*
X108731764Y-133613880D01*
X108720413Y-133659088D01*
X108708304Y-133707877D01*
X108695383Y-133760468D01*
X108681596Y-133817078D01*
X108666887Y-133877926D01*
X108651201Y-133943232D01*
X108634484Y-134013214D01*
X108629408Y-134034530D01*
X108612282Y-134106314D01*
X108596185Y-134173402D01*
X108581047Y-134236055D01*
X108566799Y-134294539D01*
X108553372Y-134349115D01*
X108540696Y-134400047D01*
X108528702Y-134447598D01*
X108517321Y-134492031D01*
X108506484Y-134533609D01*
X108496121Y-134572596D01*
X108486163Y-134609254D01*
X108476540Y-134643847D01*
X108467184Y-134676637D01*
X108458025Y-134707889D01*
X108448994Y-134737865D01*
X108440021Y-134766828D01*
X108431038Y-134795042D01*
X108421974Y-134822769D01*
X108421411Y-134824470D01*
X108414303Y-134845568D01*
X108406613Y-134867804D01*
X108398783Y-134889942D01*
X108391252Y-134910745D01*
X108384464Y-134928976D01*
X108379693Y-134941310D01*
X108372984Y-134957768D01*
X108365652Y-134974981D01*
X108357998Y-134992317D01*
X108350322Y-135009146D01*
X108342924Y-135024838D01*
X108336106Y-135038761D01*
X108330167Y-135050285D01*
X108325409Y-135058780D01*
X108322132Y-135063616D01*
X108320971Y-135064500D01*
X108318955Y-135062347D01*
X108315200Y-135056430D01*
X108310176Y-135047558D01*
X108304353Y-135036539D01*
X108301930Y-135031759D01*
X108291372Y-135010083D01*
X108280910Y-134987332D01*
X108270490Y-134963319D01*
X108260058Y-134937858D01*
X108249559Y-134910763D01*
X108238940Y-134881849D01*
X108228147Y-134850929D01*
X108217125Y-134817816D01*
X108205822Y-134782325D01*
X108194182Y-134744271D01*
X108182152Y-134703465D01*
X108169678Y-134659724D01*
X108156706Y-134612860D01*
X108143182Y-134562688D01*
X108129052Y-134509021D01*
X108114262Y-134451673D01*
X108098758Y-134390459D01*
X108082486Y-134325191D01*
X108065392Y-134255685D01*
X108047422Y-134181754D01*
X108028522Y-134103212D01*
X108009708Y-134024370D01*
X107991309Y-133947265D01*
X107973772Y-133874333D01*
X107957121Y-133805663D01*
X107941378Y-133741347D01*
X107926565Y-133681476D01*
X107912705Y-133626141D01*
X107899821Y-133575434D01*
X107887935Y-133529445D01*
X107877071Y-133488265D01*
X107869717Y-133460999D01*
X107847695Y-133380229D01*
X107876388Y-133332729D01*
X107913700Y-133272638D01*
X107950105Y-133217435D01*
X107985680Y-133167024D01*
X108020506Y-133121309D01*
X108054661Y-133080195D01*
X108088224Y-133043585D01*
X108121276Y-133011385D01*
X108153895Y-132983498D01*
X108184530Y-132960931D01*
X108215188Y-132941591D01*
X108243925Y-132926698D01*
X108271243Y-132916234D01*
X108297644Y-132910182D01*
X108323631Y-132908524D01*
X108349707Y-132911242D01*
G36*
X111769736Y-132912325D02*
G01*
X111794967Y-132919893D01*
X111819690Y-132930516D01*
X111848126Y-132945634D01*
X111875539Y-132963063D01*
X111902663Y-132983362D01*
X111930233Y-133007088D01*
X111958984Y-133034800D01*
X111964534Y-133040452D01*
X111993025Y-133070886D01*
X112021135Y-133103381D01*
X112049174Y-133138360D01*
X112077452Y-133176244D01*
X112106279Y-133217456D01*
X112135964Y-133262419D01*
X112166817Y-133311554D01*
X112183048Y-133338268D01*
X112208839Y-133381146D01*
X112203984Y-133396688D01*
X112198217Y-133415872D01*
X112191379Y-133439919D01*
X112183494Y-133468733D01*
X112174587Y-133502215D01*
X112164682Y-133540270D01*
X112153804Y-133582799D01*
X112141977Y-133629705D01*
X112129226Y-133680892D01*
X112115574Y-133736261D01*
X112101048Y-133795717D01*
X112085670Y-133859162D01*
X112069466Y-133926498D01*
X112052459Y-133997628D01*
X112046998Y-134020560D01*
X112029907Y-134092235D01*
X112013855Y-134159214D01*
X111998773Y-134221755D01*
X111984593Y-134280120D01*
X111971248Y-134334568D01*
X111958668Y-134385361D01*
X111946786Y-134432758D01*
X111935533Y-134477020D01*
X111924842Y-134518408D01*
X111914644Y-134557181D01*
X111904871Y-134593601D01*
X111895455Y-134627928D01*
X111886327Y-134660421D01*
X111877420Y-134691343D01*
X111868666Y-134720952D01*
X111859995Y-134749510D01*
X111851340Y-134777277D01*
X111842633Y-134804513D01*
X111838204Y-134818120D01*
X111826237Y-134853666D01*
X111813828Y-134888654D01*
X111801228Y-134922454D01*
X111788690Y-134954436D01*
X111776468Y-134983972D01*
X111764814Y-135010432D01*
X111753980Y-135033187D01*
X111745010Y-135050209D01*
X111735200Y-135067669D01*
X111726152Y-135051479D01*
X111714116Y-135028402D01*
X111701216Y-135000792D01*
X111687617Y-134969092D01*
X111673485Y-134933744D01*
X111658986Y-134895189D01*
X111644285Y-134853871D01*
X111629548Y-134810230D01*
X111614941Y-134764710D01*
X111600628Y-134717752D01*
X111598761Y-134711440D01*
X111585714Y-134666270D01*
X111571800Y-134616366D01*
X111557088Y-134561984D01*
X111541647Y-134503382D01*
X111525547Y-134440819D01*
X111513704Y-134393940D01*
X111508634Y-134373698D01*
X111503829Y-134354456D01*
X111499195Y-134335820D01*
X111494637Y-134317399D01*
X111490060Y-134298801D01*
X111485370Y-134279636D01*
X111480473Y-134259510D01*
X111475274Y-134238033D01*
X111469678Y-134214813D01*
X111463590Y-134189458D01*
X111456917Y-134161576D01*
X111449563Y-134130776D01*
X111441435Y-134096667D01*
X111432437Y-134058855D01*
X111422475Y-134016951D01*
X111411454Y-133970562D01*
X111409454Y-133962140D01*
X111392649Y-133891636D01*
X111376844Y-133825860D01*
X111361977Y-133764570D01*
X111347989Y-133707525D01*
X111334818Y-133654484D01*
X111322405Y-133605206D01*
X111310688Y-133559451D01*
X111299607Y-133516976D01*
X111289101Y-133477541D01*
X111279111Y-133440906D01*
X111272535Y-133417310D01*
X111262534Y-133381750D01*
X111270414Y-133367780D01*
X111278331Y-133354124D01*
X111288472Y-133337217D01*
X111300232Y-133318026D01*
X111313006Y-133297520D01*
X111326191Y-133276667D01*
X111339182Y-133256435D01*
X111351374Y-133237792D01*
X111354449Y-133233160D01*
X111391281Y-133179859D01*
X111427663Y-133131202D01*
X111463540Y-133087246D01*
X111498860Y-133048052D01*
X111533566Y-133013677D01*
X111567607Y-132984181D01*
X111600926Y-132959623D01*
X111612680Y-132952036D01*
X111642330Y-132934993D01*
X111669844Y-132922197D01*
X111695782Y-132913591D01*
X111720703Y-132909115D01*
X111745168Y-132908713D01*
X111769736Y-132912325D01*
G37*
X111769736Y-132912325D02*
X111794967Y-132919893D01*
X111819690Y-132930516D01*
X111848126Y-132945634D01*
X111875539Y-132963063D01*
X111902663Y-132983362D01*
X111930233Y-133007088D01*
X111958984Y-133034800D01*
X111964534Y-133040452D01*
X111993025Y-133070886D01*
X112021135Y-133103381D01*
X112049174Y-133138360D01*
X112077452Y-133176244D01*
X112106279Y-133217456D01*
X112135964Y-133262419D01*
X112166817Y-133311554D01*
X112183048Y-133338268D01*
X112208839Y-133381146D01*
X112203984Y-133396688D01*
X112198217Y-133415872D01*
X112191379Y-133439919D01*
X112183494Y-133468733D01*
X112174587Y-133502215D01*
X112164682Y-133540270D01*
X112153804Y-133582799D01*
X112141977Y-133629705D01*
X112129226Y-133680892D01*
X112115574Y-133736261D01*
X112101048Y-133795717D01*
X112085670Y-133859162D01*
X112069466Y-133926498D01*
X112052459Y-133997628D01*
X112046998Y-134020560D01*
X112029907Y-134092235D01*
X112013855Y-134159214D01*
X111998773Y-134221755D01*
X111984593Y-134280120D01*
X111971248Y-134334568D01*
X111958668Y-134385361D01*
X111946786Y-134432758D01*
X111935533Y-134477020D01*
X111924842Y-134518408D01*
X111914644Y-134557181D01*
X111904871Y-134593601D01*
X111895455Y-134627928D01*
X111886327Y-134660421D01*
X111877420Y-134691343D01*
X111868666Y-134720952D01*
X111859995Y-134749510D01*
X111851340Y-134777277D01*
X111842633Y-134804513D01*
X111838204Y-134818120D01*
X111826237Y-134853666D01*
X111813828Y-134888654D01*
X111801228Y-134922454D01*
X111788690Y-134954436D01*
X111776468Y-134983972D01*
X111764814Y-135010432D01*
X111753980Y-135033187D01*
X111745010Y-135050209D01*
X111735200Y-135067669D01*
X111726152Y-135051479D01*
X111714116Y-135028402D01*
X111701216Y-135000792D01*
X111687617Y-134969092D01*
X111673485Y-134933744D01*
X111658986Y-134895189D01*
X111644285Y-134853871D01*
X111629548Y-134810230D01*
X111614941Y-134764710D01*
X111600628Y-134717752D01*
X111598761Y-134711440D01*
X111585714Y-134666270D01*
X111571800Y-134616366D01*
X111557088Y-134561984D01*
X111541647Y-134503382D01*
X111525547Y-134440819D01*
X111513704Y-134393940D01*
X111508634Y-134373698D01*
X111503829Y-134354456D01*
X111499195Y-134335820D01*
X111494637Y-134317399D01*
X111490060Y-134298801D01*
X111485370Y-134279636D01*
X111480473Y-134259510D01*
X111475274Y-134238033D01*
X111469678Y-134214813D01*
X111463590Y-134189458D01*
X111456917Y-134161576D01*
X111449563Y-134130776D01*
X111441435Y-134096667D01*
X111432437Y-134058855D01*
X111422475Y-134016951D01*
X111411454Y-133970562D01*
X111409454Y-133962140D01*
X111392649Y-133891636D01*
X111376844Y-133825860D01*
X111361977Y-133764570D01*
X111347989Y-133707525D01*
X111334818Y-133654484D01*
X111322405Y-133605206D01*
X111310688Y-133559451D01*
X111299607Y-133516976D01*
X111289101Y-133477541D01*
X111279111Y-133440906D01*
X111272535Y-133417310D01*
X111262534Y-133381750D01*
X111270414Y-133367780D01*
X111278331Y-133354124D01*
X111288472Y-133337217D01*
X111300232Y-133318026D01*
X111313006Y-133297520D01*
X111326191Y-133276667D01*
X111339182Y-133256435D01*
X111351374Y-133237792D01*
X111354449Y-133233160D01*
X111391281Y-133179859D01*
X111427663Y-133131202D01*
X111463540Y-133087246D01*
X111498860Y-133048052D01*
X111533566Y-133013677D01*
X111567607Y-132984181D01*
X111600926Y-132959623D01*
X111612680Y-132952036D01*
X111642330Y-132934993D01*
X111669844Y-132922197D01*
X111695782Y-132913591D01*
X111720703Y-132909115D01*
X111745168Y-132908713D01*
X111769736Y-132912325D01*
G36*
X110140923Y-131665995D02*
G01*
X110250966Y-131673528D01*
X110360237Y-131686017D01*
X110468586Y-131703409D01*
X110575862Y-131725655D01*
X110681913Y-131752702D01*
X110786588Y-131784499D01*
X110889736Y-131820995D01*
X110991207Y-131862138D01*
X111090849Y-131907877D01*
X111188510Y-131958161D01*
X111284041Y-132012937D01*
X111377289Y-132072156D01*
X111468104Y-132135765D01*
X111508540Y-132166117D01*
X111580524Y-132223787D01*
X111651812Y-132285756D01*
X111721601Y-132351245D01*
X111789090Y-132419473D01*
X111853477Y-132489662D01*
X111911100Y-132557520D01*
X111965164Y-132626545D01*
X112018041Y-132699545D01*
X112068997Y-132775434D01*
X112117296Y-132853126D01*
X112151291Y-132911850D01*
X112162449Y-132932282D01*
X112175085Y-132956316D01*
X112188672Y-132982882D01*
X112202684Y-133010916D01*
X112216593Y-133039349D01*
X112229874Y-133067114D01*
X112241998Y-133093144D01*
X112252440Y-133116373D01*
X112253895Y-133119701D01*
X112275809Y-133170072D01*
X112259654Y-133218435D01*
X112243498Y-133266799D01*
X112216629Y-133226484D01*
X112183220Y-133177842D01*
X112150724Y-133133602D01*
X112118739Y-133093259D01*
X112086862Y-133056309D01*
X112054691Y-133022247D01*
X112050922Y-133018460D01*
X112016692Y-132986124D01*
X111983183Y-132958343D01*
X111949886Y-132934746D01*
X111916290Y-132914960D01*
X111893350Y-132903647D01*
X111864959Y-132891672D01*
X111838253Y-132882674D01*
X111811324Y-132876143D01*
X111782264Y-132871569D01*
X111767330Y-132869950D01*
X111725083Y-132868434D01*
X111683128Y-132871988D01*
X111641475Y-132880608D01*
X111600135Y-132894291D01*
X111559121Y-132913036D01*
X111527590Y-132931027D01*
X111508032Y-132943688D01*
X111489854Y-132956667D01*
X111472089Y-132970754D01*
X111453773Y-132986743D01*
X111433939Y-133005424D01*
X111419502Y-133019659D01*
X111392486Y-133047666D01*
X111366358Y-133076856D01*
X111340565Y-133107922D01*
X111314551Y-133141558D01*
X111287764Y-133178458D01*
X111259648Y-133219315D01*
X111257522Y-133222481D01*
X111227998Y-133266517D01*
X111212360Y-133219993D01*
X111197954Y-133178096D01*
X111184281Y-133140401D01*
X111171030Y-133106137D01*
X111157892Y-133074533D01*
X111144556Y-133044820D01*
X111130713Y-133016227D01*
X111128671Y-133012180D01*
X111110909Y-132979109D01*
X111093419Y-132950683D01*
X111075859Y-132926502D01*
X111057887Y-132906170D01*
X111039162Y-132889286D01*
X111019343Y-132875453D01*
X111004350Y-132867232D01*
X110977109Y-132856208D01*
X110947194Y-132848376D01*
X110915482Y-132843706D01*
X110882852Y-132842165D01*
X110850184Y-132843722D01*
X110818356Y-132848345D01*
X110788248Y-132856004D01*
X110760738Y-132866666D01*
X110742339Y-132876615D01*
X110722784Y-132890875D01*
X110703592Y-132909108D01*
X110684680Y-132931454D01*
X110665960Y-132958055D01*
X110647348Y-132989050D01*
X110628759Y-133024579D01*
X110610107Y-133064783D01*
X110591307Y-133109803D01*
X110575646Y-133150610D01*
X110565124Y-133179566D01*
X110554616Y-133209654D01*
X110544057Y-133241107D01*
X110533385Y-133274159D01*
X110522535Y-133309046D01*
X110511444Y-133346001D01*
X110500048Y-133385259D01*
X110488283Y-133427054D01*
X110476085Y-133471620D01*
X110463391Y-133519191D01*
X110450136Y-133570003D01*
X110436257Y-133624288D01*
X110421691Y-133682283D01*
X110406373Y-133744220D01*
X110390239Y-133810334D01*
X110373226Y-133880859D01*
X110355270Y-133956030D01*
X110347788Y-133987540D01*
X110332036Y-134053891D01*
X110317340Y-134115584D01*
X110303626Y-134172911D01*
X110290820Y-134226167D01*
X110278848Y-134275643D01*
X110267634Y-134321635D01*
X110257106Y-134364436D01*
X110247189Y-134404339D01*
X110237809Y-134441637D01*
X110228891Y-134476625D01*
X110220361Y-134509596D01*
X110212146Y-134540843D01*
X110204171Y-134570660D01*
X110196361Y-134599341D01*
X110188643Y-134627179D01*
X110180942Y-134654467D01*
X110173185Y-134681500D01*
X110167061Y-134702550D01*
X110152637Y-134750584D01*
X110137928Y-134797139D01*
X110123093Y-134841792D01*
X110108288Y-134884119D01*
X110093671Y-134923695D01*
X110079400Y-134960097D01*
X110065633Y-134992901D01*
X110052528Y-135021683D01*
X110040241Y-135046020D01*
X110037272Y-135051438D01*
X110028254Y-135067587D01*
X110021711Y-135056421D01*
X110011657Y-135037905D01*
X110000568Y-135015023D01*
X109988665Y-134988329D01*
X109976167Y-134958380D01*
X109963295Y-134925731D01*
X109950268Y-134890938D01*
X109937307Y-134854556D01*
X109924632Y-134817141D01*
X109914699Y-134786370D01*
X109905864Y-134758061D01*
X109897107Y-134729346D01*
X109888354Y-134699943D01*
X109879533Y-134669570D01*
X109870568Y-134637945D01*
X109861388Y-134604786D01*
X109851919Y-134569810D01*
X109842088Y-134532735D01*
X109831821Y-134493280D01*
X109821044Y-134451161D01*
X109809685Y-134406098D01*
X109797671Y-134357807D01*
X109784927Y-134306006D01*
X109771381Y-134250414D01*
X109756959Y-134190748D01*
X109741588Y-134126727D01*
X109725195Y-134058067D01*
X109722907Y-134048458D01*
X109705624Y-133976012D01*
X109689382Y-133908268D01*
X109674114Y-133844973D01*
X109659753Y-133785870D01*
X109646233Y-133730706D01*
X109633486Y-133679225D01*
X109621445Y-133631173D01*
X109610044Y-133586294D01*
X109599214Y-133544333D01*
X109588890Y-133505037D01*
X109579004Y-133468150D01*
X109569490Y-133433416D01*
X109560280Y-133400582D01*
X109551307Y-133369393D01*
X109542504Y-133339593D01*
X109533805Y-133310927D01*
X109525142Y-133283141D01*
X109516449Y-133255981D01*
X109507658Y-133229190D01*
X109507289Y-133228080D01*
X109488951Y-133174580D01*
X109471076Y-133125936D01*
X109453544Y-133081955D01*
X109436235Y-133042446D01*
X109419030Y-133007217D01*
X109401808Y-132976077D01*
X109384451Y-132948834D01*
X109366838Y-132925297D01*
X109348851Y-132905274D01*
X109330369Y-132888574D01*
X109311272Y-132875004D01*
X109291442Y-132864374D01*
X109276406Y-132858350D01*
X109245256Y-132849724D01*
X109211714Y-132844400D01*
X109177020Y-132842391D01*
X109142413Y-132843709D01*
X109109133Y-132848366D01*
X109078444Y-132856368D01*
X109063866Y-132861517D01*
X109052300Y-132866456D01*
X109041824Y-132872177D01*
X109030513Y-132879670D01*
X109023759Y-132884525D01*
X109005311Y-132899922D01*
X108987171Y-132918993D01*
X108969256Y-132941895D01*
X108951479Y-132968786D01*
X108933756Y-132999823D01*
X108916002Y-133035163D01*
X108898131Y-133074964D01*
X108880059Y-133119383D01*
X108861700Y-133168577D01*
X108846496Y-133212224D01*
X108828211Y-133266218D01*
X108796097Y-133218574D01*
X108768218Y-133178106D01*
X108741764Y-133141634D01*
X108716182Y-133108475D01*
X108690921Y-133077944D01*
X108665426Y-133049358D01*
X108639146Y-133022034D01*
X108629121Y-133012115D01*
X108597648Y-132982829D01*
X108567341Y-132957729D01*
X108537457Y-132936292D01*
X108507255Y-132917995D01*
X108475991Y-132902316D01*
X108468536Y-132899009D01*
X108428025Y-132884168D01*
X108386510Y-132874202D01*
X108344373Y-132869099D01*
X108301997Y-132868848D01*
X108259768Y-132873436D01*
X108218067Y-132882852D01*
X108177279Y-132897084D01*
X108151930Y-132908666D01*
X108116196Y-132928699D01*
X108080526Y-132952980D01*
X108044819Y-132981613D01*
X108008971Y-133014702D01*
X107972881Y-133052350D01*
X107936446Y-133094662D01*
X107899564Y-133141742D01*
X107862133Y-133193693D01*
X107841821Y-133223561D01*
X107833141Y-133236520D01*
X107825499Y-133247837D01*
X107819309Y-133256907D01*
X107814986Y-133263123D01*
X107812942Y-133265880D01*
X107812835Y-133265951D01*
X107812060Y-133263329D01*
X107809908Y-133256671D01*
X107806633Y-133246750D01*
X107802492Y-133234341D01*
X107797870Y-133220605D01*
X107782909Y-133176301D01*
X107801944Y-133131705D01*
X107846363Y-133034051D01*
X107895447Y-132938162D01*
X107949018Y-132844276D01*
X108006894Y-132752631D01*
X108068898Y-132663468D01*
X108134848Y-132577024D01*
X108204565Y-132493539D01*
X108277870Y-132413251D01*
X108354582Y-132336400D01*
X108434522Y-132263224D01*
X108492290Y-132214327D01*
X108579656Y-132146011D01*
X108669666Y-132081968D01*
X108762165Y-132022254D01*
X108856998Y-131966925D01*
X108954011Y-131916036D01*
X109053049Y-131869643D01*
X109153957Y-131827801D01*
X109256579Y-131790565D01*
X109360762Y-131757991D01*
X109466351Y-131730135D01*
X109573190Y-131707051D01*
X109681125Y-131688796D01*
X109790001Y-131675424D01*
X109899664Y-131666991D01*
X110009958Y-131663553D01*
X110030260Y-131663469D01*
X110140923Y-131665995D01*
G37*
X110140923Y-131665995D02*
X110250966Y-131673528D01*
X110360237Y-131686017D01*
X110468586Y-131703409D01*
X110575862Y-131725655D01*
X110681913Y-131752702D01*
X110786588Y-131784499D01*
X110889736Y-131820995D01*
X110991207Y-131862138D01*
X111090849Y-131907877D01*
X111188510Y-131958161D01*
X111284041Y-132012937D01*
X111377289Y-132072156D01*
X111468104Y-132135765D01*
X111508540Y-132166117D01*
X111580524Y-132223787D01*
X111651812Y-132285756D01*
X111721601Y-132351245D01*
X111789090Y-132419473D01*
X111853477Y-132489662D01*
X111911100Y-132557520D01*
X111965164Y-132626545D01*
X112018041Y-132699545D01*
X112068997Y-132775434D01*
X112117296Y-132853126D01*
X112151291Y-132911850D01*
X112162449Y-132932282D01*
X112175085Y-132956316D01*
X112188672Y-132982882D01*
X112202684Y-133010916D01*
X112216593Y-133039349D01*
X112229874Y-133067114D01*
X112241998Y-133093144D01*
X112252440Y-133116373D01*
X112253895Y-133119701D01*
X112275809Y-133170072D01*
X112259654Y-133218435D01*
X112243498Y-133266799D01*
X112216629Y-133226484D01*
X112183220Y-133177842D01*
X112150724Y-133133602D01*
X112118739Y-133093259D01*
X112086862Y-133056309D01*
X112054691Y-133022247D01*
X112050922Y-133018460D01*
X112016692Y-132986124D01*
X111983183Y-132958343D01*
X111949886Y-132934746D01*
X111916290Y-132914960D01*
X111893350Y-132903647D01*
X111864959Y-132891672D01*
X111838253Y-132882674D01*
X111811324Y-132876143D01*
X111782264Y-132871569D01*
X111767330Y-132869950D01*
X111725083Y-132868434D01*
X111683128Y-132871988D01*
X111641475Y-132880608D01*
X111600135Y-132894291D01*
X111559121Y-132913036D01*
X111527590Y-132931027D01*
X111508032Y-132943688D01*
X111489854Y-132956667D01*
X111472089Y-132970754D01*
X111453773Y-132986743D01*
X111433939Y-133005424D01*
X111419502Y-133019659D01*
X111392486Y-133047666D01*
X111366358Y-133076856D01*
X111340565Y-133107922D01*
X111314551Y-133141558D01*
X111287764Y-133178458D01*
X111259648Y-133219315D01*
X111257522Y-133222481D01*
X111227998Y-133266517D01*
X111212360Y-133219993D01*
X111197954Y-133178096D01*
X111184281Y-133140401D01*
X111171030Y-133106137D01*
X111157892Y-133074533D01*
X111144556Y-133044820D01*
X111130713Y-133016227D01*
X111128671Y-133012180D01*
X111110909Y-132979109D01*
X111093419Y-132950683D01*
X111075859Y-132926502D01*
X111057887Y-132906170D01*
X111039162Y-132889286D01*
X111019343Y-132875453D01*
X111004350Y-132867232D01*
X110977109Y-132856208D01*
X110947194Y-132848376D01*
X110915482Y-132843706D01*
X110882852Y-132842165D01*
X110850184Y-132843722D01*
X110818356Y-132848345D01*
X110788248Y-132856004D01*
X110760738Y-132866666D01*
X110742339Y-132876615D01*
X110722784Y-132890875D01*
X110703592Y-132909108D01*
X110684680Y-132931454D01*
X110665960Y-132958055D01*
X110647348Y-132989050D01*
X110628759Y-133024579D01*
X110610107Y-133064783D01*
X110591307Y-133109803D01*
X110575646Y-133150610D01*
X110565124Y-133179566D01*
X110554616Y-133209654D01*
X110544057Y-133241107D01*
X110533385Y-133274159D01*
X110522535Y-133309046D01*
X110511444Y-133346001D01*
X110500048Y-133385259D01*
X110488283Y-133427054D01*
X110476085Y-133471620D01*
X110463391Y-133519191D01*
X110450136Y-133570003D01*
X110436257Y-133624288D01*
X110421691Y-133682283D01*
X110406373Y-133744220D01*
X110390239Y-133810334D01*
X110373226Y-133880859D01*
X110355270Y-133956030D01*
X110347788Y-133987540D01*
X110332036Y-134053891D01*
X110317340Y-134115584D01*
X110303626Y-134172911D01*
X110290820Y-134226167D01*
X110278848Y-134275643D01*
X110267634Y-134321635D01*
X110257106Y-134364436D01*
X110247189Y-134404339D01*
X110237809Y-134441637D01*
X110228891Y-134476625D01*
X110220361Y-134509596D01*
X110212146Y-134540843D01*
X110204171Y-134570660D01*
X110196361Y-134599341D01*
X110188643Y-134627179D01*
X110180942Y-134654467D01*
X110173185Y-134681500D01*
X110167061Y-134702550D01*
X110152637Y-134750584D01*
X110137928Y-134797139D01*
X110123093Y-134841792D01*
X110108288Y-134884119D01*
X110093671Y-134923695D01*
X110079400Y-134960097D01*
X110065633Y-134992901D01*
X110052528Y-135021683D01*
X110040241Y-135046020D01*
X110037272Y-135051438D01*
X110028254Y-135067587D01*
X110021711Y-135056421D01*
X110011657Y-135037905D01*
X110000568Y-135015023D01*
X109988665Y-134988329D01*
X109976167Y-134958380D01*
X109963295Y-134925731D01*
X109950268Y-134890938D01*
X109937307Y-134854556D01*
X109924632Y-134817141D01*
X109914699Y-134786370D01*
X109905864Y-134758061D01*
X109897107Y-134729346D01*
X109888354Y-134699943D01*
X109879533Y-134669570D01*
X109870568Y-134637945D01*
X109861388Y-134604786D01*
X109851919Y-134569810D01*
X109842088Y-134532735D01*
X109831821Y-134493280D01*
X109821044Y-134451161D01*
X109809685Y-134406098D01*
X109797671Y-134357807D01*
X109784927Y-134306006D01*
X109771381Y-134250414D01*
X109756959Y-134190748D01*
X109741588Y-134126727D01*
X109725195Y-134058067D01*
X109722907Y-134048458D01*
X109705624Y-133976012D01*
X109689382Y-133908268D01*
X109674114Y-133844973D01*
X109659753Y-133785870D01*
X109646233Y-133730706D01*
X109633486Y-133679225D01*
X109621445Y-133631173D01*
X109610044Y-133586294D01*
X109599214Y-133544333D01*
X109588890Y-133505037D01*
X109579004Y-133468150D01*
X109569490Y-133433416D01*
X109560280Y-133400582D01*
X109551307Y-133369393D01*
X109542504Y-133339593D01*
X109533805Y-133310927D01*
X109525142Y-133283141D01*
X109516449Y-133255981D01*
X109507658Y-133229190D01*
X109507289Y-133228080D01*
X109488951Y-133174580D01*
X109471076Y-133125936D01*
X109453544Y-133081955D01*
X109436235Y-133042446D01*
X109419030Y-133007217D01*
X109401808Y-132976077D01*
X109384451Y-132948834D01*
X109366838Y-132925297D01*
X109348851Y-132905274D01*
X109330369Y-132888574D01*
X109311272Y-132875004D01*
X109291442Y-132864374D01*
X109276406Y-132858350D01*
X109245256Y-132849724D01*
X109211714Y-132844400D01*
X109177020Y-132842391D01*
X109142413Y-132843709D01*
X109109133Y-132848366D01*
X109078444Y-132856368D01*
X109063866Y-132861517D01*
X109052300Y-132866456D01*
X109041824Y-132872177D01*
X109030513Y-132879670D01*
X109023759Y-132884525D01*
X109005311Y-132899922D01*
X108987171Y-132918993D01*
X108969256Y-132941895D01*
X108951479Y-132968786D01*
X108933756Y-132999823D01*
X108916002Y-133035163D01*
X108898131Y-133074964D01*
X108880059Y-133119383D01*
X108861700Y-133168577D01*
X108846496Y-133212224D01*
X108828211Y-133266218D01*
X108796097Y-133218574D01*
X108768218Y-133178106D01*
X108741764Y-133141634D01*
X108716182Y-133108475D01*
X108690921Y-133077944D01*
X108665426Y-133049358D01*
X108639146Y-133022034D01*
X108629121Y-133012115D01*
X108597648Y-132982829D01*
X108567341Y-132957729D01*
X108537457Y-132936292D01*
X108507255Y-132917995D01*
X108475991Y-132902316D01*
X108468536Y-132899009D01*
X108428025Y-132884168D01*
X108386510Y-132874202D01*
X108344373Y-132869099D01*
X108301997Y-132868848D01*
X108259768Y-132873436D01*
X108218067Y-132882852D01*
X108177279Y-132897084D01*
X108151930Y-132908666D01*
X108116196Y-132928699D01*
X108080526Y-132952980D01*
X108044819Y-132981613D01*
X108008971Y-133014702D01*
X107972881Y-133052350D01*
X107936446Y-133094662D01*
X107899564Y-133141742D01*
X107862133Y-133193693D01*
X107841821Y-133223561D01*
X107833141Y-133236520D01*
X107825499Y-133247837D01*
X107819309Y-133256907D01*
X107814986Y-133263123D01*
X107812942Y-133265880D01*
X107812835Y-133265951D01*
X107812060Y-133263329D01*
X107809908Y-133256671D01*
X107806633Y-133246750D01*
X107802492Y-133234341D01*
X107797870Y-133220605D01*
X107782909Y-133176301D01*
X107801944Y-133131705D01*
X107846363Y-133034051D01*
X107895447Y-132938162D01*
X107949018Y-132844276D01*
X108006894Y-132752631D01*
X108068898Y-132663468D01*
X108134848Y-132577024D01*
X108204565Y-132493539D01*
X108277870Y-132413251D01*
X108354582Y-132336400D01*
X108434522Y-132263224D01*
X108492290Y-132214327D01*
X108579656Y-132146011D01*
X108669666Y-132081968D01*
X108762165Y-132022254D01*
X108856998Y-131966925D01*
X108954011Y-131916036D01*
X109053049Y-131869643D01*
X109153957Y-131827801D01*
X109256579Y-131790565D01*
X109360762Y-131757991D01*
X109466351Y-131730135D01*
X109573190Y-131707051D01*
X109681125Y-131688796D01*
X109790001Y-131675424D01*
X109899664Y-131666991D01*
X110009958Y-131663553D01*
X110030260Y-131663469D01*
X110140923Y-131665995D01*
G36*
X111105378Y-133680625D02*
G01*
X111106000Y-133682055D01*
X111106888Y-133684720D01*
X111108098Y-133688851D01*
X111109687Y-133694679D01*
X111111711Y-133702435D01*
X111114226Y-133712349D01*
X111117289Y-133724653D01*
X111120956Y-133739576D01*
X111125284Y-133757350D01*
X111130329Y-133778206D01*
X111136147Y-133802374D01*
X111142795Y-133830085D01*
X111150329Y-133861569D01*
X111158806Y-133897059D01*
X111168282Y-133936784D01*
X111178814Y-133980975D01*
X111190457Y-134029863D01*
X111191266Y-134033260D01*
X111200226Y-134070832D01*
X111209409Y-134109232D01*
X111218675Y-134147877D01*
X111227883Y-134186188D01*
X111236894Y-134223584D01*
X111245568Y-134259485D01*
X111253763Y-134293311D01*
X111261340Y-134324480D01*
X111268159Y-134352413D01*
X111274079Y-134376529D01*
X111278702Y-134395210D01*
X111298856Y-134475010D01*
X111318393Y-134549898D01*
X111337356Y-134619998D01*
X111355790Y-134685432D01*
X111373740Y-134746327D01*
X111391252Y-134802804D01*
X111408369Y-134854989D01*
X111425138Y-134903005D01*
X111441602Y-134946976D01*
X111457808Y-134987026D01*
X111473798Y-135023280D01*
X111489620Y-135055860D01*
X111505316Y-135084891D01*
X111520934Y-135110498D01*
X111536516Y-135132803D01*
X111552108Y-135151931D01*
X111553270Y-135153231D01*
X111567395Y-135167054D01*
X111584239Y-135180595D01*
X111602110Y-135192631D01*
X111619312Y-135201944D01*
X111623310Y-135203703D01*
X111647518Y-135212216D01*
X111673375Y-135218126D01*
X111701855Y-135221598D01*
X111733934Y-135222798D01*
X111735870Y-135222801D01*
X111767916Y-135221748D01*
X111796252Y-135218479D01*
X111821813Y-135212832D01*
X111845535Y-135204644D01*
X111849253Y-135203074D01*
X111865316Y-135195444D01*
X111879245Y-135187122D01*
X111892485Y-135177081D01*
X111906484Y-135164291D01*
X111913116Y-135157671D01*
X111931352Y-135136978D01*
X111949397Y-135112164D01*
X111967353Y-135083052D01*
X111985319Y-135049461D01*
X112003395Y-135011215D01*
X112021682Y-134968134D01*
X112027449Y-134953666D01*
X112039578Y-134921975D01*
X112051798Y-134888342D01*
X112064167Y-134852556D01*
X112076745Y-134814406D01*
X112089590Y-134773680D01*
X112102763Y-134730167D01*
X112116322Y-134683655D01*
X112130326Y-134633933D01*
X112144835Y-134580789D01*
X112159907Y-134524012D01*
X112175602Y-134463390D01*
X112191979Y-134398712D01*
X112209097Y-134329766D01*
X112227016Y-134256341D01*
X112245794Y-134178225D01*
X112254003Y-134143750D01*
X112267867Y-134085392D01*
X112280609Y-134031804D01*
X112292272Y-133982811D01*
X112302899Y-133938238D01*
X112312531Y-133897910D01*
X112321212Y-133861651D01*
X112328985Y-133829288D01*
X112335891Y-133800644D01*
X112341973Y-133775546D01*
X112347274Y-133753817D01*
X112351836Y-133735284D01*
X112355703Y-133719770D01*
X112358915Y-133707102D01*
X112361517Y-133697103D01*
X112363550Y-133689600D01*
X112365057Y-133684416D01*
X112366081Y-133681378D01*
X112366663Y-133680310D01*
X112366696Y-133680305D01*
X112368154Y-133682531D01*
X112371547Y-133688804D01*
X112376606Y-133698594D01*
X112383063Y-133711371D01*
X112390650Y-133726604D01*
X112399097Y-133743764D01*
X112405622Y-133757140D01*
X112442915Y-133833870D01*
X112445651Y-133859270D01*
X112454154Y-133961138D01*
X112457920Y-134064347D01*
X112456992Y-134168513D01*
X112451412Y-134273252D01*
X112441220Y-134378179D01*
X112426459Y-134482911D01*
X112407171Y-134587064D01*
X112383398Y-134690253D01*
X112355180Y-134792094D01*
X112338220Y-134846060D01*
X112301308Y-134950620D01*
X112259818Y-135053056D01*
X112213847Y-135153235D01*
X112163489Y-135251023D01*
X112108840Y-135346289D01*
X112049995Y-135438901D01*
X111987049Y-135528724D01*
X111920099Y-135615628D01*
X111849240Y-135699479D01*
X111774566Y-135780145D01*
X111696174Y-135857493D01*
X111614159Y-135931391D01*
X111528617Y-136001706D01*
X111478060Y-136040323D01*
X111387876Y-136104216D01*
X111295075Y-136163797D01*
X111199825Y-136219004D01*
X111102294Y-136269771D01*
X111002651Y-136316037D01*
X110901064Y-136357736D01*
X110797702Y-136394806D01*
X110692732Y-136427182D01*
X110586325Y-136454801D01*
X110478648Y-136477600D01*
X110369869Y-136495514D01*
X110260158Y-136508481D01*
X110232190Y-136510976D01*
X110183203Y-136514485D01*
X110131970Y-136517087D01*
X110080030Y-136518743D01*
X110028921Y-136519415D01*
X109980182Y-136519063D01*
X109948980Y-136518211D01*
X109837285Y-136511607D01*
X109726501Y-136500044D01*
X109616756Y-136483560D01*
X109508177Y-136462194D01*
X109400895Y-136435983D01*
X109295036Y-136404966D01*
X109190731Y-136369180D01*
X109088106Y-136328663D01*
X108987291Y-136283454D01*
X108888415Y-136233591D01*
X108791605Y-136179111D01*
X108780580Y-136172533D01*
X108692173Y-136116932D01*
X108607256Y-136058276D01*
X108525308Y-135996157D01*
X108445808Y-135930169D01*
X108368236Y-135859903D01*
X108314407Y-135807556D01*
X108268976Y-135761146D01*
X108226912Y-135716073D01*
X108187180Y-135671137D01*
X108148743Y-135625141D01*
X108110565Y-135576888D01*
X108079783Y-135536216D01*
X108017053Y-135447673D01*
X107958511Y-135356487D01*
X107904213Y-135262860D01*
X107854216Y-135166995D01*
X107808576Y-135069092D01*
X107767348Y-134969354D01*
X107730590Y-134867983D01*
X107698357Y-134765181D01*
X107670706Y-134661149D01*
X107647693Y-134556089D01*
X107629375Y-134450204D01*
X107615806Y-134343695D01*
X107607045Y-134236764D01*
X107603147Y-134129613D01*
X107604168Y-134022444D01*
X107610165Y-133915459D01*
X107614557Y-133866890D01*
X107619187Y-133821170D01*
X107654032Y-133750050D01*
X107663997Y-133729808D01*
X107672013Y-133713776D01*
X107678297Y-133701569D01*
X107683065Y-133692801D01*
X107686534Y-133687086D01*
X107688921Y-133684039D01*
X107690443Y-133683275D01*
X107691166Y-133684010D01*
X107691873Y-133685970D01*
X107692960Y-133689623D01*
X107694481Y-133695199D01*
X107696493Y-133702927D01*
X107699052Y-133713039D01*
X107702214Y-133725764D01*
X107706035Y-133741334D01*
X107710571Y-133759978D01*
X107715878Y-133781927D01*
X107722012Y-133807411D01*
X107729030Y-133836661D01*
X107736986Y-133869906D01*
X107745937Y-133907378D01*
X107755940Y-133949306D01*
X107767050Y-133995922D01*
X107768381Y-134001510D01*
X107785317Y-134072494D01*
X107801192Y-134138780D01*
X107816072Y-134200622D01*
X107830022Y-134258274D01*
X107843111Y-134311992D01*
X107855403Y-134362029D01*
X107866966Y-134408639D01*
X107877867Y-134452079D01*
X107888171Y-134492601D01*
X107897946Y-134530461D01*
X107907258Y-134565913D01*
X107916172Y-134599211D01*
X107924757Y-134630611D01*
X107933078Y-134660366D01*
X107941201Y-134688731D01*
X107949194Y-134715961D01*
X107957123Y-134742310D01*
X107965054Y-134768033D01*
X107973055Y-134793384D01*
X107981190Y-134818618D01*
X107984764Y-134829550D01*
X108002992Y-134883399D01*
X108020761Y-134932395D01*
X108038184Y-134976730D01*
X108055372Y-135016599D01*
X108072437Y-135052195D01*
X108089491Y-135083711D01*
X108106645Y-135111343D01*
X108124010Y-135135283D01*
X108141700Y-135155725D01*
X108159824Y-135172864D01*
X108178496Y-135186892D01*
X108196865Y-135197525D01*
X108226148Y-135209593D01*
X108258345Y-135218095D01*
X108292621Y-135222898D01*
X108328144Y-135223865D01*
X108350755Y-135222448D01*
X108377384Y-135219054D01*
X108400534Y-135214257D01*
X108421708Y-135207660D01*
X108442406Y-135198867D01*
X108445300Y-135197464D01*
X108456358Y-135191748D01*
X108465437Y-135186218D01*
X108473888Y-135179864D01*
X108483062Y-135171674D01*
X108493707Y-135161244D01*
X108510760Y-135142818D01*
X108526499Y-135122884D01*
X108541525Y-135100557D01*
X108556436Y-135074949D01*
X108570443Y-135047990D01*
X108586041Y-135015126D01*
X108601648Y-134979287D01*
X108617340Y-134940245D01*
X108633194Y-134897771D01*
X108649288Y-134851636D01*
X108665699Y-134801613D01*
X108682505Y-134747471D01*
X108699781Y-134688984D01*
X108717607Y-134625922D01*
X108736005Y-134558257D01*
X108740609Y-134540787D01*
X108746279Y-134518870D01*
X108752894Y-134492997D01*
X108760333Y-134463661D01*
X108768472Y-134431354D01*
X108777192Y-134396566D01*
X108786368Y-134359790D01*
X108795881Y-134321519D01*
X108805607Y-134282242D01*
X108815426Y-134242454D01*
X108825214Y-134202644D01*
X108834851Y-134163305D01*
X108844215Y-134124929D01*
X108853183Y-134088008D01*
X108861633Y-134053033D01*
X108869445Y-134020497D01*
X108874578Y-133998970D01*
X108884524Y-133957182D01*
X108894034Y-133917344D01*
X108903046Y-133879709D01*
X108911498Y-133844533D01*
X108919329Y-133812070D01*
X108926475Y-133782575D01*
X108932876Y-133756303D01*
X108938470Y-133733509D01*
X108943193Y-133714446D01*
X108946984Y-133699371D01*
X108949782Y-133688538D01*
X108951523Y-133682202D01*
X108952102Y-133680550D01*
X108953529Y-133682446D01*
X108957008Y-133688698D01*
X108962424Y-133699069D01*
X108969660Y-133713321D01*
X108978600Y-133731218D01*
X108989130Y-133752522D01*
X109001132Y-133776996D01*
X109014491Y-133804401D01*
X109029092Y-133834500D01*
X109044818Y-133867057D01*
X109061553Y-133901833D01*
X109079182Y-133938590D01*
X109097589Y-133977093D01*
X109116657Y-134017103D01*
X109129772Y-134044690D01*
X109161134Y-134110563D01*
X109190574Y-134172064D01*
X109218230Y-134229463D01*
X109244238Y-134283032D01*
X109268733Y-134333044D01*
X109291851Y-134379770D01*
X109313729Y-134423482D01*
X109334502Y-134464451D01*
X109354306Y-134502950D01*
X109373278Y-134539251D01*
X109391553Y-134573625D01*
X109409267Y-134606344D01*
X109424900Y-134634704D01*
X109464943Y-134704941D01*
X109504191Y-134770189D01*
X109542666Y-134830476D01*
X109580388Y-134885828D01*
X109617378Y-134936272D01*
X109653656Y-134981833D01*
X109689243Y-135022538D01*
X109724161Y-135058414D01*
X109758430Y-135089487D01*
X109792071Y-135115783D01*
X109816411Y-135132082D01*
X109828558Y-135140296D01*
X109841531Y-135150133D01*
X109853055Y-135159840D01*
X109856059Y-135162628D01*
X109875412Y-135179490D01*
X109894609Y-135192524D01*
X109915169Y-135202698D01*
X109924610Y-135206365D01*
X109958139Y-135216036D01*
X109993921Y-135221835D01*
X110030870Y-135223715D01*
X110067900Y-135221631D01*
X110103926Y-135215539D01*
X110110035Y-135214060D01*
X110138616Y-135204620D01*
X110165175Y-135191497D01*
X110188796Y-135175206D01*
X110204250Y-135160993D01*
X110210603Y-135155208D01*
X110219926Y-135147813D01*
X110230855Y-135139853D01*
X110239810Y-135133795D01*
X110273602Y-135109954D01*
X110307353Y-135082408D01*
X110341174Y-135051021D01*
X110375177Y-135015657D01*
X110409473Y-134976178D01*
X110444172Y-134932450D01*
X110479387Y-134884334D01*
X110515229Y-134831696D01*
X110551809Y-134774398D01*
X110589238Y-134712305D01*
X110602753Y-134689080D01*
X110622670Y-134653990D01*
X110643872Y-134615544D01*
X110666424Y-134573615D01*
X110690387Y-134528081D01*
X110715825Y-134478816D01*
X110742800Y-134425696D01*
X110771375Y-134368597D01*
X110801613Y-134307395D01*
X110833577Y-134241965D01*
X110867329Y-134172183D01*
X110902933Y-134097924D01*
X110928892Y-134043420D01*
X110952077Y-133994663D01*
X110973878Y-133948912D01*
X110994232Y-133906294D01*
X111013078Y-133866936D01*
X111030353Y-133830968D01*
X111045996Y-133798518D01*
X111059943Y-133769714D01*
X111072133Y-133744683D01*
X111082504Y-133723555D01*
X111090994Y-133706458D01*
X111097539Y-133693519D01*
X111102079Y-133684868D01*
X111104551Y-133680632D01*
X111104965Y-133680199D01*
X111105378Y-133680625D01*
G37*
X111105378Y-133680625D02*
X111106000Y-133682055D01*
X111106888Y-133684720D01*
X111108098Y-133688851D01*
X111109687Y-133694679D01*
X111111711Y-133702435D01*
X111114226Y-133712349D01*
X111117289Y-133724653D01*
X111120956Y-133739576D01*
X111125284Y-133757350D01*
X111130329Y-133778206D01*
X111136147Y-133802374D01*
X111142795Y-133830085D01*
X111150329Y-133861569D01*
X111158806Y-133897059D01*
X111168282Y-133936784D01*
X111178814Y-133980975D01*
X111190457Y-134029863D01*
X111191266Y-134033260D01*
X111200226Y-134070832D01*
X111209409Y-134109232D01*
X111218675Y-134147877D01*
X111227883Y-134186188D01*
X111236894Y-134223584D01*
X111245568Y-134259485D01*
X111253763Y-134293311D01*
X111261340Y-134324480D01*
X111268159Y-134352413D01*
X111274079Y-134376529D01*
X111278702Y-134395210D01*
X111298856Y-134475010D01*
X111318393Y-134549898D01*
X111337356Y-134619998D01*
X111355790Y-134685432D01*
X111373740Y-134746327D01*
X111391252Y-134802804D01*
X111408369Y-134854989D01*
X111425138Y-134903005D01*
X111441602Y-134946976D01*
X111457808Y-134987026D01*
X111473798Y-135023280D01*
X111489620Y-135055860D01*
X111505316Y-135084891D01*
X111520934Y-135110498D01*
X111536516Y-135132803D01*
X111552108Y-135151931D01*
X111553270Y-135153231D01*
X111567395Y-135167054D01*
X111584239Y-135180595D01*
X111602110Y-135192631D01*
X111619312Y-135201944D01*
X111623310Y-135203703D01*
X111647518Y-135212216D01*
X111673375Y-135218126D01*
X111701855Y-135221598D01*
X111733934Y-135222798D01*
X111735870Y-135222801D01*
X111767916Y-135221748D01*
X111796252Y-135218479D01*
X111821813Y-135212832D01*
X111845535Y-135204644D01*
X111849253Y-135203074D01*
X111865316Y-135195444D01*
X111879245Y-135187122D01*
X111892485Y-135177081D01*
X111906484Y-135164291D01*
X111913116Y-135157671D01*
X111931352Y-135136978D01*
X111949397Y-135112164D01*
X111967353Y-135083052D01*
X111985319Y-135049461D01*
X112003395Y-135011215D01*
X112021682Y-134968134D01*
X112027449Y-134953666D01*
X112039578Y-134921975D01*
X112051798Y-134888342D01*
X112064167Y-134852556D01*
X112076745Y-134814406D01*
X112089590Y-134773680D01*
X112102763Y-134730167D01*
X112116322Y-134683655D01*
X112130326Y-134633933D01*
X112144835Y-134580789D01*
X112159907Y-134524012D01*
X112175602Y-134463390D01*
X112191979Y-134398712D01*
X112209097Y-134329766D01*
X112227016Y-134256341D01*
X112245794Y-134178225D01*
X112254003Y-134143750D01*
X112267867Y-134085392D01*
X112280609Y-134031804D01*
X112292272Y-133982811D01*
X112302899Y-133938238D01*
X112312531Y-133897910D01*
X112321212Y-133861651D01*
X112328985Y-133829288D01*
X112335891Y-133800644D01*
X112341973Y-133775546D01*
X112347274Y-133753817D01*
X112351836Y-133735284D01*
X112355703Y-133719770D01*
X112358915Y-133707102D01*
X112361517Y-133697103D01*
X112363550Y-133689600D01*
X112365057Y-133684416D01*
X112366081Y-133681378D01*
X112366663Y-133680310D01*
X112366696Y-133680305D01*
X112368154Y-133682531D01*
X112371547Y-133688804D01*
X112376606Y-133698594D01*
X112383063Y-133711371D01*
X112390650Y-133726604D01*
X112399097Y-133743764D01*
X112405622Y-133757140D01*
X112442915Y-133833870D01*
X112445651Y-133859270D01*
X112454154Y-133961138D01*
X112457920Y-134064347D01*
X112456992Y-134168513D01*
X112451412Y-134273252D01*
X112441220Y-134378179D01*
X112426459Y-134482911D01*
X112407171Y-134587064D01*
X112383398Y-134690253D01*
X112355180Y-134792094D01*
X112338220Y-134846060D01*
X112301308Y-134950620D01*
X112259818Y-135053056D01*
X112213847Y-135153235D01*
X112163489Y-135251023D01*
X112108840Y-135346289D01*
X112049995Y-135438901D01*
X111987049Y-135528724D01*
X111920099Y-135615628D01*
X111849240Y-135699479D01*
X111774566Y-135780145D01*
X111696174Y-135857493D01*
X111614159Y-135931391D01*
X111528617Y-136001706D01*
X111478060Y-136040323D01*
X111387876Y-136104216D01*
X111295075Y-136163797D01*
X111199825Y-136219004D01*
X111102294Y-136269771D01*
X111002651Y-136316037D01*
X110901064Y-136357736D01*
X110797702Y-136394806D01*
X110692732Y-136427182D01*
X110586325Y-136454801D01*
X110478648Y-136477600D01*
X110369869Y-136495514D01*
X110260158Y-136508481D01*
X110232190Y-136510976D01*
X110183203Y-136514485D01*
X110131970Y-136517087D01*
X110080030Y-136518743D01*
X110028921Y-136519415D01*
X109980182Y-136519063D01*
X109948980Y-136518211D01*
X109837285Y-136511607D01*
X109726501Y-136500044D01*
X109616756Y-136483560D01*
X109508177Y-136462194D01*
X109400895Y-136435983D01*
X109295036Y-136404966D01*
X109190731Y-136369180D01*
X109088106Y-136328663D01*
X108987291Y-136283454D01*
X108888415Y-136233591D01*
X108791605Y-136179111D01*
X108780580Y-136172533D01*
X108692173Y-136116932D01*
X108607256Y-136058276D01*
X108525308Y-135996157D01*
X108445808Y-135930169D01*
X108368236Y-135859903D01*
X108314407Y-135807556D01*
X108268976Y-135761146D01*
X108226912Y-135716073D01*
X108187180Y-135671137D01*
X108148743Y-135625141D01*
X108110565Y-135576888D01*
X108079783Y-135536216D01*
X108017053Y-135447673D01*
X107958511Y-135356487D01*
X107904213Y-135262860D01*
X107854216Y-135166995D01*
X107808576Y-135069092D01*
X107767348Y-134969354D01*
X107730590Y-134867983D01*
X107698357Y-134765181D01*
X107670706Y-134661149D01*
X107647693Y-134556089D01*
X107629375Y-134450204D01*
X107615806Y-134343695D01*
X107607045Y-134236764D01*
X107603147Y-134129613D01*
X107604168Y-134022444D01*
X107610165Y-133915459D01*
X107614557Y-133866890D01*
X107619187Y-133821170D01*
X107654032Y-133750050D01*
X107663997Y-133729808D01*
X107672013Y-133713776D01*
X107678297Y-133701569D01*
X107683065Y-133692801D01*
X107686534Y-133687086D01*
X107688921Y-133684039D01*
X107690443Y-133683275D01*
X107691166Y-133684010D01*
X107691873Y-133685970D01*
X107692960Y-133689623D01*
X107694481Y-133695199D01*
X107696493Y-133702927D01*
X107699052Y-133713039D01*
X107702214Y-133725764D01*
X107706035Y-133741334D01*
X107710571Y-133759978D01*
X107715878Y-133781927D01*
X107722012Y-133807411D01*
X107729030Y-133836661D01*
X107736986Y-133869906D01*
X107745937Y-133907378D01*
X107755940Y-133949306D01*
X107767050Y-133995922D01*
X107768381Y-134001510D01*
X107785317Y-134072494D01*
X107801192Y-134138780D01*
X107816072Y-134200622D01*
X107830022Y-134258274D01*
X107843111Y-134311992D01*
X107855403Y-134362029D01*
X107866966Y-134408639D01*
X107877867Y-134452079D01*
X107888171Y-134492601D01*
X107897946Y-134530461D01*
X107907258Y-134565913D01*
X107916172Y-134599211D01*
X107924757Y-134630611D01*
X107933078Y-134660366D01*
X107941201Y-134688731D01*
X107949194Y-134715961D01*
X107957123Y-134742310D01*
X107965054Y-134768033D01*
X107973055Y-134793384D01*
X107981190Y-134818618D01*
X107984764Y-134829550D01*
X108002992Y-134883399D01*
X108020761Y-134932395D01*
X108038184Y-134976730D01*
X108055372Y-135016599D01*
X108072437Y-135052195D01*
X108089491Y-135083711D01*
X108106645Y-135111343D01*
X108124010Y-135135283D01*
X108141700Y-135155725D01*
X108159824Y-135172864D01*
X108178496Y-135186892D01*
X108196865Y-135197525D01*
X108226148Y-135209593D01*
X108258345Y-135218095D01*
X108292621Y-135222898D01*
X108328144Y-135223865D01*
X108350755Y-135222448D01*
X108377384Y-135219054D01*
X108400534Y-135214257D01*
X108421708Y-135207660D01*
X108442406Y-135198867D01*
X108445300Y-135197464D01*
X108456358Y-135191748D01*
X108465437Y-135186218D01*
X108473888Y-135179864D01*
X108483062Y-135171674D01*
X108493707Y-135161244D01*
X108510760Y-135142818D01*
X108526499Y-135122884D01*
X108541525Y-135100557D01*
X108556436Y-135074949D01*
X108570443Y-135047990D01*
X108586041Y-135015126D01*
X108601648Y-134979287D01*
X108617340Y-134940245D01*
X108633194Y-134897771D01*
X108649288Y-134851636D01*
X108665699Y-134801613D01*
X108682505Y-134747471D01*
X108699781Y-134688984D01*
X108717607Y-134625922D01*
X108736005Y-134558257D01*
X108740609Y-134540787D01*
X108746279Y-134518870D01*
X108752894Y-134492997D01*
X108760333Y-134463661D01*
X108768472Y-134431354D01*
X108777192Y-134396566D01*
X108786368Y-134359790D01*
X108795881Y-134321519D01*
X108805607Y-134282242D01*
X108815426Y-134242454D01*
X108825214Y-134202644D01*
X108834851Y-134163305D01*
X108844215Y-134124929D01*
X108853183Y-134088008D01*
X108861633Y-134053033D01*
X108869445Y-134020497D01*
X108874578Y-133998970D01*
X108884524Y-133957182D01*
X108894034Y-133917344D01*
X108903046Y-133879709D01*
X108911498Y-133844533D01*
X108919329Y-133812070D01*
X108926475Y-133782575D01*
X108932876Y-133756303D01*
X108938470Y-133733509D01*
X108943193Y-133714446D01*
X108946984Y-133699371D01*
X108949782Y-133688538D01*
X108951523Y-133682202D01*
X108952102Y-133680550D01*
X108953529Y-133682446D01*
X108957008Y-133688698D01*
X108962424Y-133699069D01*
X108969660Y-133713321D01*
X108978600Y-133731218D01*
X108989130Y-133752522D01*
X109001132Y-133776996D01*
X109014491Y-133804401D01*
X109029092Y-133834500D01*
X109044818Y-133867057D01*
X109061553Y-133901833D01*
X109079182Y-133938590D01*
X109097589Y-133977093D01*
X109116657Y-134017103D01*
X109129772Y-134044690D01*
X109161134Y-134110563D01*
X109190574Y-134172064D01*
X109218230Y-134229463D01*
X109244238Y-134283032D01*
X109268733Y-134333044D01*
X109291851Y-134379770D01*
X109313729Y-134423482D01*
X109334502Y-134464451D01*
X109354306Y-134502950D01*
X109373278Y-134539251D01*
X109391553Y-134573625D01*
X109409267Y-134606344D01*
X109424900Y-134634704D01*
X109464943Y-134704941D01*
X109504191Y-134770189D01*
X109542666Y-134830476D01*
X109580388Y-134885828D01*
X109617378Y-134936272D01*
X109653656Y-134981833D01*
X109689243Y-135022538D01*
X109724161Y-135058414D01*
X109758430Y-135089487D01*
X109792071Y-135115783D01*
X109816411Y-135132082D01*
X109828558Y-135140296D01*
X109841531Y-135150133D01*
X109853055Y-135159840D01*
X109856059Y-135162628D01*
X109875412Y-135179490D01*
X109894609Y-135192524D01*
X109915169Y-135202698D01*
X109924610Y-135206365D01*
X109958139Y-135216036D01*
X109993921Y-135221835D01*
X110030870Y-135223715D01*
X110067900Y-135221631D01*
X110103926Y-135215539D01*
X110110035Y-135214060D01*
X110138616Y-135204620D01*
X110165175Y-135191497D01*
X110188796Y-135175206D01*
X110204250Y-135160993D01*
X110210603Y-135155208D01*
X110219926Y-135147813D01*
X110230855Y-135139853D01*
X110239810Y-135133795D01*
X110273602Y-135109954D01*
X110307353Y-135082408D01*
X110341174Y-135051021D01*
X110375177Y-135015657D01*
X110409473Y-134976178D01*
X110444172Y-134932450D01*
X110479387Y-134884334D01*
X110515229Y-134831696D01*
X110551809Y-134774398D01*
X110589238Y-134712305D01*
X110602753Y-134689080D01*
X110622670Y-134653990D01*
X110643872Y-134615544D01*
X110666424Y-134573615D01*
X110690387Y-134528081D01*
X110715825Y-134478816D01*
X110742800Y-134425696D01*
X110771375Y-134368597D01*
X110801613Y-134307395D01*
X110833577Y-134241965D01*
X110867329Y-134172183D01*
X110902933Y-134097924D01*
X110928892Y-134043420D01*
X110952077Y-133994663D01*
X110973878Y-133948912D01*
X110994232Y-133906294D01*
X111013078Y-133866936D01*
X111030353Y-133830968D01*
X111045996Y-133798518D01*
X111059943Y-133769714D01*
X111072133Y-133744683D01*
X111082504Y-133723555D01*
X111090994Y-133706458D01*
X111097539Y-133693519D01*
X111102079Y-133684868D01*
X111104551Y-133680632D01*
X111104965Y-133680199D01*
X111105378Y-133680625D01*
G36*
X110064031Y-138283315D02*
G01*
X110071439Y-138301800D01*
X110080127Y-138323444D01*
X110089968Y-138347936D01*
X110100838Y-138374966D01*
X110112612Y-138404226D01*
X110125165Y-138435405D01*
X110138372Y-138468195D01*
X110152108Y-138502284D01*
X110166249Y-138537366D01*
X110180669Y-138573128D01*
X110195243Y-138609263D01*
X110209846Y-138645460D01*
X110224355Y-138681410D01*
X110238642Y-138716803D01*
X110252584Y-138751330D01*
X110266056Y-138784682D01*
X110278933Y-138816549D01*
X110291089Y-138846620D01*
X110302400Y-138874588D01*
X110312741Y-138900142D01*
X110321988Y-138922972D01*
X110330014Y-138942770D01*
X110336695Y-138959226D01*
X110341906Y-138972029D01*
X110345522Y-138980871D01*
X110347419Y-138985443D01*
X110347674Y-138986016D01*
X110347929Y-138986797D01*
X110348058Y-138987762D01*
X110348148Y-138988703D01*
X110348286Y-138989409D01*
X110348557Y-138989673D01*
X110349049Y-138989285D01*
X110349848Y-138988036D01*
X110351040Y-138985717D01*
X110352712Y-138982119D01*
X110354951Y-138977034D01*
X110357843Y-138970252D01*
X110361474Y-138961564D01*
X110365931Y-138950761D01*
X110371301Y-138937634D01*
X110377669Y-138921974D01*
X110385124Y-138903573D01*
X110393750Y-138882221D01*
X110403635Y-138857709D01*
X110414865Y-138829828D01*
X110427526Y-138798369D01*
X110441706Y-138763123D01*
X110457490Y-138723882D01*
X110474965Y-138680435D01*
X110494218Y-138632575D01*
X110502894Y-138611010D01*
X110646210Y-138254810D01*
X110733840Y-138254740D01*
X110733840Y-139090400D01*
X110675420Y-139090400D01*
X110675420Y-138753171D01*
X110675438Y-138697410D01*
X110675497Y-138646515D01*
X110675599Y-138600270D01*
X110675747Y-138558463D01*
X110675944Y-138520877D01*
X110676194Y-138487300D01*
X110676499Y-138457515D01*
X110676864Y-138431310D01*
X110677291Y-138408470D01*
X110677783Y-138388779D01*
X110678343Y-138372025D01*
X110678975Y-138357992D01*
X110679682Y-138346466D01*
X110680467Y-138337232D01*
X110681333Y-138330077D01*
X110681736Y-138327560D01*
X110681904Y-138322435D01*
X110680295Y-138321271D01*
X110679059Y-138323685D01*
X110676021Y-138330560D01*
X110671283Y-138341649D01*
X110664947Y-138356704D01*
X110657114Y-138375478D01*
X110647887Y-138397722D01*
X110637368Y-138423189D01*
X110625658Y-138451630D01*
X110612861Y-138482798D01*
X110599078Y-138516446D01*
X110584411Y-138552325D01*
X110568962Y-138590188D01*
X110552833Y-138629786D01*
X110536127Y-138670873D01*
X110522007Y-138705650D01*
X110366418Y-139089130D01*
X110329800Y-139090626D01*
X110323945Y-139077178D01*
X110322349Y-139073337D01*
X110318961Y-139065048D01*
X110313889Y-139052574D01*
X110307240Y-139036179D01*
X110299119Y-139016126D01*
X110289633Y-138992680D01*
X110278889Y-138966105D01*
X110266994Y-138936663D01*
X110254053Y-138904618D01*
X110240174Y-138870235D01*
X110225464Y-138833777D01*
X110210028Y-138795508D01*
X110193973Y-138755691D01*
X110177406Y-138714591D01*
X110168661Y-138692890D01*
X110151955Y-138651444D01*
X110135756Y-138611277D01*
X110120166Y-138572642D01*
X110105287Y-138535792D01*
X110091221Y-138500980D01*
X110078072Y-138468459D01*
X110065941Y-138438482D01*
X110054932Y-138411302D01*
X110045146Y-138387173D01*
X110036686Y-138366347D01*
X110029655Y-138349078D01*
X110024155Y-138335618D01*
X110020288Y-138326221D01*
X110018158Y-138321139D01*
X110017760Y-138320271D01*
X110017598Y-138322560D01*
X110017451Y-138329655D01*
X110017320Y-138341282D01*
X110017205Y-138357167D01*
X110017106Y-138377034D01*
X110017024Y-138400611D01*
X110016960Y-138427623D01*
X110016914Y-138457795D01*
X110016887Y-138490854D01*
X110016878Y-138526526D01*
X110016889Y-138564536D01*
X110016920Y-138604609D01*
X110016971Y-138646473D01*
X110017044Y-138689852D01*
X110017072Y-138704446D01*
X110017855Y-139090400D01*
X109961680Y-139090400D01*
X109961680Y-138254740D01*
X110052591Y-138254740D01*
X110064031Y-138283315D01*
G37*
X110064031Y-138283315D02*
X110071439Y-138301800D01*
X110080127Y-138323444D01*
X110089968Y-138347936D01*
X110100838Y-138374966D01*
X110112612Y-138404226D01*
X110125165Y-138435405D01*
X110138372Y-138468195D01*
X110152108Y-138502284D01*
X110166249Y-138537366D01*
X110180669Y-138573128D01*
X110195243Y-138609263D01*
X110209846Y-138645460D01*
X110224355Y-138681410D01*
X110238642Y-138716803D01*
X110252584Y-138751330D01*
X110266056Y-138784682D01*
X110278933Y-138816549D01*
X110291089Y-138846620D01*
X110302400Y-138874588D01*
X110312741Y-138900142D01*
X110321988Y-138922972D01*
X110330014Y-138942770D01*
X110336695Y-138959226D01*
X110341906Y-138972029D01*
X110345522Y-138980871D01*
X110347419Y-138985443D01*
X110347674Y-138986016D01*
X110347929Y-138986797D01*
X110348058Y-138987762D01*
X110348148Y-138988703D01*
X110348286Y-138989409D01*
X110348557Y-138989673D01*
X110349049Y-138989285D01*
X110349848Y-138988036D01*
X110351040Y-138985717D01*
X110352712Y-138982119D01*
X110354951Y-138977034D01*
X110357843Y-138970252D01*
X110361474Y-138961564D01*
X110365931Y-138950761D01*
X110371301Y-138937634D01*
X110377669Y-138921974D01*
X110385124Y-138903573D01*
X110393750Y-138882221D01*
X110403635Y-138857709D01*
X110414865Y-138829828D01*
X110427526Y-138798369D01*
X110441706Y-138763123D01*
X110457490Y-138723882D01*
X110474965Y-138680435D01*
X110494218Y-138632575D01*
X110502894Y-138611010D01*
X110646210Y-138254810D01*
X110733840Y-138254740D01*
X110733840Y-139090400D01*
X110675420Y-139090400D01*
X110675420Y-138753171D01*
X110675438Y-138697410D01*
X110675497Y-138646515D01*
X110675599Y-138600270D01*
X110675747Y-138558463D01*
X110675944Y-138520877D01*
X110676194Y-138487300D01*
X110676499Y-138457515D01*
X110676864Y-138431310D01*
X110677291Y-138408470D01*
X110677783Y-138388779D01*
X110678343Y-138372025D01*
X110678975Y-138357992D01*
X110679682Y-138346466D01*
X110680467Y-138337232D01*
X110681333Y-138330077D01*
X110681736Y-138327560D01*
X110681904Y-138322435D01*
X110680295Y-138321271D01*
X110679059Y-138323685D01*
X110676021Y-138330560D01*
X110671283Y-138341649D01*
X110664947Y-138356704D01*
X110657114Y-138375478D01*
X110647887Y-138397722D01*
X110637368Y-138423189D01*
X110625658Y-138451630D01*
X110612861Y-138482798D01*
X110599078Y-138516446D01*
X110584411Y-138552325D01*
X110568962Y-138590188D01*
X110552833Y-138629786D01*
X110536127Y-138670873D01*
X110522007Y-138705650D01*
X110366418Y-139089130D01*
X110329800Y-139090626D01*
X110323945Y-139077178D01*
X110322349Y-139073337D01*
X110318961Y-139065048D01*
X110313889Y-139052574D01*
X110307240Y-139036179D01*
X110299119Y-139016126D01*
X110289633Y-138992680D01*
X110278889Y-138966105D01*
X110266994Y-138936663D01*
X110254053Y-138904618D01*
X110240174Y-138870235D01*
X110225464Y-138833777D01*
X110210028Y-138795508D01*
X110193973Y-138755691D01*
X110177406Y-138714591D01*
X110168661Y-138692890D01*
X110151955Y-138651444D01*
X110135756Y-138611277D01*
X110120166Y-138572642D01*
X110105287Y-138535792D01*
X110091221Y-138500980D01*
X110078072Y-138468459D01*
X110065941Y-138438482D01*
X110054932Y-138411302D01*
X110045146Y-138387173D01*
X110036686Y-138366347D01*
X110029655Y-138349078D01*
X110024155Y-138335618D01*
X110020288Y-138326221D01*
X110018158Y-138321139D01*
X110017760Y-138320271D01*
X110017598Y-138322560D01*
X110017451Y-138329655D01*
X110017320Y-138341282D01*
X110017205Y-138357167D01*
X110017106Y-138377034D01*
X110017024Y-138400611D01*
X110016960Y-138427623D01*
X110016914Y-138457795D01*
X110016887Y-138490854D01*
X110016878Y-138526526D01*
X110016889Y-138564536D01*
X110016920Y-138604609D01*
X110016971Y-138646473D01*
X110017044Y-138689852D01*
X110017072Y-138704446D01*
X110017855Y-139090400D01*
X109961680Y-139090400D01*
X109961680Y-138254740D01*
X110052591Y-138254740D01*
X110064031Y-138283315D01*
G36*
X109333446Y-138252588D02*
G01*
X109340243Y-138253730D01*
X109342612Y-138255420D01*
X109343657Y-138258091D01*
X109346462Y-138265249D01*
X109350933Y-138276651D01*
X109356974Y-138292054D01*
X109364491Y-138311217D01*
X109373387Y-138333897D01*
X109383568Y-138359852D01*
X109394939Y-138388839D01*
X109407405Y-138420616D01*
X109420871Y-138454940D01*
X109435242Y-138491569D01*
X109450421Y-138530261D01*
X109466316Y-138570773D01*
X109482829Y-138612863D01*
X109499867Y-138656288D01*
X109505401Y-138670392D01*
X109522593Y-138714208D01*
X109539294Y-138756776D01*
X109555409Y-138797851D01*
X109570843Y-138837192D01*
X109585501Y-138874554D01*
X109599287Y-138909695D01*
X109612106Y-138942372D01*
X109623862Y-138972341D01*
X109634460Y-138999360D01*
X109643805Y-139023185D01*
X109651801Y-139043573D01*
X109658354Y-139060282D01*
X109663367Y-139073067D01*
X109666745Y-139081687D01*
X109668393Y-139085897D01*
X109668539Y-139086271D01*
X109668708Y-139087962D01*
X109667192Y-139089120D01*
X109663245Y-139089845D01*
X109656123Y-139090234D01*
X109645078Y-139090383D01*
X109637021Y-139090400D01*
X109603920Y-139090400D01*
X109573621Y-139013565D01*
X109564454Y-138990307D01*
X109554259Y-138964421D01*
X109543624Y-138937403D01*
X109533139Y-138910750D01*
X109523393Y-138885960D01*
X109515646Y-138866239D01*
X109487970Y-138795748D01*
X109318237Y-138796389D01*
X109148505Y-138797030D01*
X109090794Y-138943080D01*
X109033082Y-139089130D01*
X109000509Y-139089843D01*
X108987158Y-139090089D01*
X108978120Y-139090073D01*
X108972629Y-139089702D01*
X108969920Y-139088882D01*
X108969229Y-139087517D01*
X108969591Y-139086033D01*
X108970695Y-139083229D01*
X108973587Y-139075950D01*
X108978172Y-139064437D01*
X108984353Y-139048932D01*
X108992032Y-139029676D01*
X109001115Y-139006910D01*
X109011503Y-138980878D01*
X109023102Y-138951819D01*
X109035814Y-138919977D01*
X109049543Y-138885592D01*
X109064193Y-138848906D01*
X109079667Y-138810161D01*
X109095868Y-138769599D01*
X109108126Y-138738911D01*
X109172367Y-138738911D01*
X109173066Y-138739707D01*
X109174885Y-138740373D01*
X109178203Y-138740920D01*
X109183400Y-138741360D01*
X109190854Y-138741705D01*
X109200944Y-138741967D01*
X109214050Y-138742156D01*
X109230550Y-138742284D01*
X109250823Y-138742363D01*
X109275248Y-138742404D01*
X109304204Y-138742418D01*
X109318763Y-138742420D01*
X109348666Y-138742380D01*
X109375940Y-138742267D01*
X109400256Y-138742083D01*
X109421283Y-138741836D01*
X109438692Y-138741529D01*
X109452153Y-138741169D01*
X109461336Y-138740759D01*
X109465911Y-138740306D01*
X109466380Y-138740099D01*
X109465505Y-138737397D01*
X109462977Y-138730326D01*
X109458936Y-138719266D01*
X109453525Y-138704599D01*
X109446886Y-138686707D01*
X109439160Y-138665972D01*
X109430490Y-138642775D01*
X109421017Y-138617499D01*
X109410884Y-138590525D01*
X109401931Y-138566744D01*
X109391080Y-138537903D01*
X109380571Y-138509886D01*
X109370572Y-138483145D01*
X109361249Y-138458131D01*
X109352770Y-138435295D01*
X109345303Y-138415090D01*
X109339015Y-138397966D01*
X109334074Y-138384376D01*
X109330646Y-138374771D01*
X109329241Y-138370672D01*
X109320999Y-138345635D01*
X109307592Y-138385912D01*
X109304260Y-138395491D01*
X109299263Y-138409251D01*
X109292809Y-138426653D01*
X109285101Y-138447154D01*
X109276347Y-138470213D01*
X109266751Y-138495289D01*
X109256519Y-138521840D01*
X109245857Y-138549326D01*
X109234970Y-138577204D01*
X109233929Y-138579860D01*
X109223496Y-138606487D01*
X109213596Y-138631786D01*
X109204390Y-138655349D01*
X109196035Y-138676770D01*
X109188691Y-138695639D01*
X109182515Y-138711548D01*
X109177667Y-138724091D01*
X109174306Y-138732858D01*
X109172590Y-138737443D01*
X109172410Y-138737975D01*
X109172367Y-138738911D01*
X109108126Y-138738911D01*
X109112700Y-138727460D01*
X109130067Y-138683988D01*
X109136898Y-138666892D01*
X109302550Y-138252274D01*
X109321963Y-138252237D01*
X109333446Y-138252588D01*
G37*
X109333446Y-138252588D02*
X109340243Y-138253730D01*
X109342612Y-138255420D01*
X109343657Y-138258091D01*
X109346462Y-138265249D01*
X109350933Y-138276651D01*
X109356974Y-138292054D01*
X109364491Y-138311217D01*
X109373387Y-138333897D01*
X109383568Y-138359852D01*
X109394939Y-138388839D01*
X109407405Y-138420616D01*
X109420871Y-138454940D01*
X109435242Y-138491569D01*
X109450421Y-138530261D01*
X109466316Y-138570773D01*
X109482829Y-138612863D01*
X109499867Y-138656288D01*
X109505401Y-138670392D01*
X109522593Y-138714208D01*
X109539294Y-138756776D01*
X109555409Y-138797851D01*
X109570843Y-138837192D01*
X109585501Y-138874554D01*
X109599287Y-138909695D01*
X109612106Y-138942372D01*
X109623862Y-138972341D01*
X109634460Y-138999360D01*
X109643805Y-139023185D01*
X109651801Y-139043573D01*
X109658354Y-139060282D01*
X109663367Y-139073067D01*
X109666745Y-139081687D01*
X109668393Y-139085897D01*
X109668539Y-139086271D01*
X109668708Y-139087962D01*
X109667192Y-139089120D01*
X109663245Y-139089845D01*
X109656123Y-139090234D01*
X109645078Y-139090383D01*
X109637021Y-139090400D01*
X109603920Y-139090400D01*
X109573621Y-139013565D01*
X109564454Y-138990307D01*
X109554259Y-138964421D01*
X109543624Y-138937403D01*
X109533139Y-138910750D01*
X109523393Y-138885960D01*
X109515646Y-138866239D01*
X109487970Y-138795748D01*
X109318237Y-138796389D01*
X109148505Y-138797030D01*
X109090794Y-138943080D01*
X109033082Y-139089130D01*
X109000509Y-139089843D01*
X108987158Y-139090089D01*
X108978120Y-139090073D01*
X108972629Y-139089702D01*
X108969920Y-139088882D01*
X108969229Y-139087517D01*
X108969591Y-139086033D01*
X108970695Y-139083229D01*
X108973587Y-139075950D01*
X108978172Y-139064437D01*
X108984353Y-139048932D01*
X108992032Y-139029676D01*
X109001115Y-139006910D01*
X109011503Y-138980878D01*
X109023102Y-138951819D01*
X109035814Y-138919977D01*
X109049543Y-138885592D01*
X109064193Y-138848906D01*
X109079667Y-138810161D01*
X109095868Y-138769599D01*
X109108126Y-138738911D01*
X109172367Y-138738911D01*
X109173066Y-138739707D01*
X109174885Y-138740373D01*
X109178203Y-138740920D01*
X109183400Y-138741360D01*
X109190854Y-138741705D01*
X109200944Y-138741967D01*
X109214050Y-138742156D01*
X109230550Y-138742284D01*
X109250823Y-138742363D01*
X109275248Y-138742404D01*
X109304204Y-138742418D01*
X109318763Y-138742420D01*
X109348666Y-138742380D01*
X109375940Y-138742267D01*
X109400256Y-138742083D01*
X109421283Y-138741836D01*
X109438692Y-138741529D01*
X109452153Y-138741169D01*
X109461336Y-138740759D01*
X109465911Y-138740306D01*
X109466380Y-138740099D01*
X109465505Y-138737397D01*
X109462977Y-138730326D01*
X109458936Y-138719266D01*
X109453525Y-138704599D01*
X109446886Y-138686707D01*
X109439160Y-138665972D01*
X109430490Y-138642775D01*
X109421017Y-138617499D01*
X109410884Y-138590525D01*
X109401931Y-138566744D01*
X109391080Y-138537903D01*
X109380571Y-138509886D01*
X109370572Y-138483145D01*
X109361249Y-138458131D01*
X109352770Y-138435295D01*
X109345303Y-138415090D01*
X109339015Y-138397966D01*
X109334074Y-138384376D01*
X109330646Y-138374771D01*
X109329241Y-138370672D01*
X109320999Y-138345635D01*
X109307592Y-138385912D01*
X109304260Y-138395491D01*
X109299263Y-138409251D01*
X109292809Y-138426653D01*
X109285101Y-138447154D01*
X109276347Y-138470213D01*
X109266751Y-138495289D01*
X109256519Y-138521840D01*
X109245857Y-138549326D01*
X109234970Y-138577204D01*
X109233929Y-138579860D01*
X109223496Y-138606487D01*
X109213596Y-138631786D01*
X109204390Y-138655349D01*
X109196035Y-138676770D01*
X109188691Y-138695639D01*
X109182515Y-138711548D01*
X109177667Y-138724091D01*
X109174306Y-138732858D01*
X109172590Y-138737443D01*
X109172410Y-138737975D01*
X109172367Y-138738911D01*
X109108126Y-138738911D01*
X109112700Y-138727460D01*
X109130067Y-138683988D01*
X109136898Y-138666892D01*
X109302550Y-138252274D01*
X109321963Y-138252237D01*
X109333446Y-138252588D01*
G36*
X108332905Y-138254748D02*
G01*
X108357977Y-138254810D01*
X108382521Y-138254983D01*
X108405850Y-138255254D01*
X108427279Y-138255611D01*
X108446121Y-138256041D01*
X108461692Y-138256532D01*
X108473304Y-138257070D01*
X108478320Y-138257432D01*
X108515979Y-138262284D01*
X108551025Y-138269628D01*
X108582864Y-138279298D01*
X108610901Y-138291127D01*
X108623992Y-138298200D01*
X108638024Y-138307819D01*
X108652828Y-138320242D01*
X108667198Y-138334264D01*
X108679929Y-138348680D01*
X108689813Y-138362282D01*
X108692306Y-138366500D01*
X108704149Y-138392850D01*
X108712629Y-138422066D01*
X108717702Y-138453168D01*
X108719325Y-138485176D01*
X108717454Y-138517111D01*
X108712045Y-138547992D01*
X108703054Y-138576839D01*
X108701826Y-138579891D01*
X108687575Y-138607887D01*
X108669087Y-138633219D01*
X108646546Y-138655725D01*
X108620138Y-138675245D01*
X108590046Y-138691614D01*
X108561627Y-138702960D01*
X108552953Y-138706291D01*
X108546656Y-138709429D01*
X108543854Y-138711797D01*
X108543818Y-138712161D01*
X108545202Y-138714733D01*
X108549001Y-138721341D01*
X108555024Y-138731663D01*
X108563079Y-138745375D01*
X108572975Y-138762154D01*
X108584522Y-138781676D01*
X108597528Y-138803619D01*
X108611801Y-138827657D01*
X108627151Y-138853469D01*
X108643386Y-138880731D01*
X108654943Y-138900115D01*
X108671662Y-138928173D01*
X108687611Y-138954997D01*
X108702601Y-138980267D01*
X108716442Y-139003658D01*
X108728944Y-139024848D01*
X108739917Y-139043515D01*
X108749172Y-139059336D01*
X108756519Y-139071988D01*
X108761768Y-139081149D01*
X108764729Y-139086496D01*
X108765340Y-139087793D01*
X108762864Y-139088941D01*
X108755678Y-139089776D01*
X108744143Y-139090269D01*
X108731643Y-139090400D01*
X108697947Y-139090400D01*
X108483777Y-138728450D01*
X108379448Y-138727786D01*
X108275120Y-138727123D01*
X108275120Y-139090400D01*
X108216700Y-139090400D01*
X108216700Y-138490536D01*
X108275120Y-138490536D01*
X108275142Y-138520529D01*
X108275209Y-138549032D01*
X108275315Y-138575639D01*
X108275458Y-138599943D01*
X108275632Y-138621538D01*
X108275835Y-138640018D01*
X108276063Y-138654977D01*
X108276313Y-138666009D01*
X108276579Y-138672707D01*
X108276813Y-138674686D01*
X108279844Y-138675234D01*
X108287266Y-138675666D01*
X108298389Y-138675987D01*
X108312527Y-138676198D01*
X108328991Y-138676302D01*
X108347092Y-138676304D01*
X108366143Y-138676206D01*
X108385455Y-138676010D01*
X108404340Y-138675721D01*
X108422109Y-138675341D01*
X108438076Y-138674873D01*
X108451550Y-138674320D01*
X108459296Y-138673873D01*
X108493928Y-138670170D01*
X108524477Y-138663981D01*
X108551377Y-138655143D01*
X108575063Y-138643492D01*
X108595971Y-138628865D01*
X108607969Y-138617990D01*
X108622903Y-138601439D01*
X108634269Y-138584615D01*
X108643057Y-138565827D01*
X108648962Y-138548020D01*
X108651313Y-138539129D01*
X108652942Y-138530724D01*
X108653972Y-138521548D01*
X108654523Y-138510342D01*
X108654718Y-138495849D01*
X108654723Y-138488420D01*
X108654578Y-138471968D01*
X108654125Y-138459327D01*
X108653238Y-138449231D01*
X108651795Y-138440412D01*
X108649672Y-138431605D01*
X108648896Y-138428819D01*
X108639924Y-138403661D01*
X108628178Y-138382056D01*
X108613323Y-138363714D01*
X108595025Y-138348344D01*
X108572948Y-138335657D01*
X108546758Y-138325361D01*
X108521500Y-138318387D01*
X108508509Y-138315658D01*
X108494621Y-138313417D01*
X108479239Y-138311625D01*
X108461763Y-138310245D01*
X108441594Y-138309239D01*
X108418135Y-138308569D01*
X108390787Y-138308195D01*
X108359575Y-138308082D01*
X108275120Y-138308080D01*
X108275120Y-138490536D01*
X108216700Y-138490536D01*
X108216700Y-138254740D01*
X108332905Y-138254748D01*
G37*
X108332905Y-138254748D02*
X108357977Y-138254810D01*
X108382521Y-138254983D01*
X108405850Y-138255254D01*
X108427279Y-138255611D01*
X108446121Y-138256041D01*
X108461692Y-138256532D01*
X108473304Y-138257070D01*
X108478320Y-138257432D01*
X108515979Y-138262284D01*
X108551025Y-138269628D01*
X108582864Y-138279298D01*
X108610901Y-138291127D01*
X108623992Y-138298200D01*
X108638024Y-138307819D01*
X108652828Y-138320242D01*
X108667198Y-138334264D01*
X108679929Y-138348680D01*
X108689813Y-138362282D01*
X108692306Y-138366500D01*
X108704149Y-138392850D01*
X108712629Y-138422066D01*
X108717702Y-138453168D01*
X108719325Y-138485176D01*
X108717454Y-138517111D01*
X108712045Y-138547992D01*
X108703054Y-138576839D01*
X108701826Y-138579891D01*
X108687575Y-138607887D01*
X108669087Y-138633219D01*
X108646546Y-138655725D01*
X108620138Y-138675245D01*
X108590046Y-138691614D01*
X108561627Y-138702960D01*
X108552953Y-138706291D01*
X108546656Y-138709429D01*
X108543854Y-138711797D01*
X108543818Y-138712161D01*
X108545202Y-138714733D01*
X108549001Y-138721341D01*
X108555024Y-138731663D01*
X108563079Y-138745375D01*
X108572975Y-138762154D01*
X108584522Y-138781676D01*
X108597528Y-138803619D01*
X108611801Y-138827657D01*
X108627151Y-138853469D01*
X108643386Y-138880731D01*
X108654943Y-138900115D01*
X108671662Y-138928173D01*
X108687611Y-138954997D01*
X108702601Y-138980267D01*
X108716442Y-139003658D01*
X108728944Y-139024848D01*
X108739917Y-139043515D01*
X108749172Y-139059336D01*
X108756519Y-139071988D01*
X108761768Y-139081149D01*
X108764729Y-139086496D01*
X108765340Y-139087793D01*
X108762864Y-139088941D01*
X108755678Y-139089776D01*
X108744143Y-139090269D01*
X108731643Y-139090400D01*
X108697947Y-139090400D01*
X108483777Y-138728450D01*
X108379448Y-138727786D01*
X108275120Y-138727123D01*
X108275120Y-139090400D01*
X108216700Y-139090400D01*
X108216700Y-138490536D01*
X108275120Y-138490536D01*
X108275142Y-138520529D01*
X108275209Y-138549032D01*
X108275315Y-138575639D01*
X108275458Y-138599943D01*
X108275632Y-138621538D01*
X108275835Y-138640018D01*
X108276063Y-138654977D01*
X108276313Y-138666009D01*
X108276579Y-138672707D01*
X108276813Y-138674686D01*
X108279844Y-138675234D01*
X108287266Y-138675666D01*
X108298389Y-138675987D01*
X108312527Y-138676198D01*
X108328991Y-138676302D01*
X108347092Y-138676304D01*
X108366143Y-138676206D01*
X108385455Y-138676010D01*
X108404340Y-138675721D01*
X108422109Y-138675341D01*
X108438076Y-138674873D01*
X108451550Y-138674320D01*
X108459296Y-138673873D01*
X108493928Y-138670170D01*
X108524477Y-138663981D01*
X108551377Y-138655143D01*
X108575063Y-138643492D01*
X108595971Y-138628865D01*
X108607969Y-138617990D01*
X108622903Y-138601439D01*
X108634269Y-138584615D01*
X108643057Y-138565827D01*
X108648962Y-138548020D01*
X108651313Y-138539129D01*
X108652942Y-138530724D01*
X108653972Y-138521548D01*
X108654523Y-138510342D01*
X108654718Y-138495849D01*
X108654723Y-138488420D01*
X108654578Y-138471968D01*
X108654125Y-138459327D01*
X108653238Y-138449231D01*
X108651795Y-138440412D01*
X108649672Y-138431605D01*
X108648896Y-138428819D01*
X108639924Y-138403661D01*
X108628178Y-138382056D01*
X108613323Y-138363714D01*
X108595025Y-138348344D01*
X108572948Y-138335657D01*
X108546758Y-138325361D01*
X108521500Y-138318387D01*
X108508509Y-138315658D01*
X108494621Y-138313417D01*
X108479239Y-138311625D01*
X108461763Y-138310245D01*
X108441594Y-138309239D01*
X108418135Y-138308569D01*
X108390787Y-138308195D01*
X108359575Y-138308082D01*
X108275120Y-138308080D01*
X108275120Y-138490536D01*
X108216700Y-138490536D01*
X108216700Y-138254740D01*
X108332905Y-138254748D01*
G36*
X107362625Y-138255431D02*
G01*
X107395810Y-138255692D01*
X107424421Y-138255970D01*
X107448960Y-138256301D01*
X107469931Y-138256722D01*
X107487840Y-138257269D01*
X107503191Y-138257978D01*
X107516487Y-138258885D01*
X107528233Y-138260027D01*
X107538934Y-138261440D01*
X107549094Y-138263160D01*
X107559216Y-138265223D01*
X107569806Y-138267665D01*
X107581367Y-138270524D01*
X107584820Y-138271397D01*
X107625720Y-138284125D01*
X107663549Y-138300747D01*
X107698169Y-138321155D01*
X107729441Y-138345244D01*
X107757226Y-138372904D01*
X107781387Y-138404029D01*
X107801783Y-138438511D01*
X107802620Y-138440160D01*
X107817371Y-138472846D01*
X107829083Y-138506649D01*
X107837899Y-138542259D01*
X107843961Y-138580366D01*
X107847410Y-138621662D01*
X107848399Y-138662640D01*
X107847121Y-138710662D01*
X107843209Y-138754738D01*
X107836544Y-138795332D01*
X107827009Y-138832910D01*
X107814487Y-138867937D01*
X107798859Y-138900879D01*
X107780485Y-138931489D01*
X107756846Y-138962474D01*
X107729296Y-138990412D01*
X107698124Y-139015117D01*
X107663615Y-139036405D01*
X107626058Y-139054089D01*
X107585739Y-139067984D01*
X107558490Y-139074831D01*
X107544956Y-139077683D01*
X107532382Y-139080112D01*
X107520202Y-139082156D01*
X107507853Y-139083856D01*
X107494768Y-139085250D01*
X107480385Y-139086378D01*
X107464137Y-139087281D01*
X107445459Y-139087996D01*
X107423788Y-139088564D01*
X107398559Y-139089024D01*
X107369206Y-139089415D01*
X107346115Y-139089668D01*
X107215940Y-139091006D01*
X107215940Y-139037570D01*
X107274360Y-139037570D01*
X107379135Y-139036321D01*
X107405915Y-139035977D01*
X107428212Y-139035623D01*
X107446620Y-139035229D01*
X107461736Y-139034766D01*
X107474156Y-139034206D01*
X107484474Y-139033518D01*
X107493287Y-139032675D01*
X107501191Y-139031647D01*
X107508782Y-139030405D01*
X107511850Y-139029845D01*
X107554715Y-139019970D01*
X107593543Y-139007083D01*
X107628466Y-138991076D01*
X107659615Y-138971838D01*
X107687123Y-138949259D01*
X107711122Y-138923230D01*
X107731744Y-138893641D01*
X107749122Y-138860382D01*
X107763387Y-138823344D01*
X107764433Y-138820101D01*
X107770209Y-138800703D01*
X107774760Y-138782249D01*
X107778210Y-138763742D01*
X107780686Y-138744183D01*
X107782315Y-138722574D01*
X107783221Y-138697918D01*
X107783531Y-138669216D01*
X107783532Y-138668760D01*
X107783468Y-138644875D01*
X107783131Y-138625057D01*
X107782422Y-138608295D01*
X107781239Y-138593579D01*
X107779483Y-138579898D01*
X107777054Y-138566241D01*
X107773852Y-138551598D01*
X107770626Y-138538331D01*
X107758663Y-138499670D01*
X107743002Y-138464404D01*
X107723692Y-138432596D01*
X107700781Y-138404309D01*
X107674317Y-138379607D01*
X107644349Y-138358554D01*
X107628002Y-138349384D01*
X107610812Y-138340864D01*
X107594183Y-138333552D01*
X107577555Y-138327353D01*
X107560367Y-138322171D01*
X107542059Y-138317910D01*
X107522070Y-138314475D01*
X107499838Y-138311771D01*
X107474803Y-138309700D01*
X107446404Y-138308169D01*
X107414081Y-138307081D01*
X107377272Y-138306341D01*
X107375325Y-138306311D01*
X107274360Y-138304814D01*
X107274360Y-139037570D01*
X107215940Y-139037570D01*
X107215940Y-138254344D01*
X107362625Y-138255431D01*
G37*
X107362625Y-138255431D02*
X107395810Y-138255692D01*
X107424421Y-138255970D01*
X107448960Y-138256301D01*
X107469931Y-138256722D01*
X107487840Y-138257269D01*
X107503191Y-138257978D01*
X107516487Y-138258885D01*
X107528233Y-138260027D01*
X107538934Y-138261440D01*
X107549094Y-138263160D01*
X107559216Y-138265223D01*
X107569806Y-138267665D01*
X107581367Y-138270524D01*
X107584820Y-138271397D01*
X107625720Y-138284125D01*
X107663549Y-138300747D01*
X107698169Y-138321155D01*
X107729441Y-138345244D01*
X107757226Y-138372904D01*
X107781387Y-138404029D01*
X107801783Y-138438511D01*
X107802620Y-138440160D01*
X107817371Y-138472846D01*
X107829083Y-138506649D01*
X107837899Y-138542259D01*
X107843961Y-138580366D01*
X107847410Y-138621662D01*
X107848399Y-138662640D01*
X107847121Y-138710662D01*
X107843209Y-138754738D01*
X107836544Y-138795332D01*
X107827009Y-138832910D01*
X107814487Y-138867937D01*
X107798859Y-138900879D01*
X107780485Y-138931489D01*
X107756846Y-138962474D01*
X107729296Y-138990412D01*
X107698124Y-139015117D01*
X107663615Y-139036405D01*
X107626058Y-139054089D01*
X107585739Y-139067984D01*
X107558490Y-139074831D01*
X107544956Y-139077683D01*
X107532382Y-139080112D01*
X107520202Y-139082156D01*
X107507853Y-139083856D01*
X107494768Y-139085250D01*
X107480385Y-139086378D01*
X107464137Y-139087281D01*
X107445459Y-139087996D01*
X107423788Y-139088564D01*
X107398559Y-139089024D01*
X107369206Y-139089415D01*
X107346115Y-139089668D01*
X107215940Y-139091006D01*
X107215940Y-139037570D01*
X107274360Y-139037570D01*
X107379135Y-139036321D01*
X107405915Y-139035977D01*
X107428212Y-139035623D01*
X107446620Y-139035229D01*
X107461736Y-139034766D01*
X107474156Y-139034206D01*
X107484474Y-139033518D01*
X107493287Y-139032675D01*
X107501191Y-139031647D01*
X107508782Y-139030405D01*
X107511850Y-139029845D01*
X107554715Y-139019970D01*
X107593543Y-139007083D01*
X107628466Y-138991076D01*
X107659615Y-138971838D01*
X107687123Y-138949259D01*
X107711122Y-138923230D01*
X107731744Y-138893641D01*
X107749122Y-138860382D01*
X107763387Y-138823344D01*
X107764433Y-138820101D01*
X107770209Y-138800703D01*
X107774760Y-138782249D01*
X107778210Y-138763742D01*
X107780686Y-138744183D01*
X107782315Y-138722574D01*
X107783221Y-138697918D01*
X107783531Y-138669216D01*
X107783532Y-138668760D01*
X107783468Y-138644875D01*
X107783131Y-138625057D01*
X107782422Y-138608295D01*
X107781239Y-138593579D01*
X107779483Y-138579898D01*
X107777054Y-138566241D01*
X107773852Y-138551598D01*
X107770626Y-138538331D01*
X107758663Y-138499670D01*
X107743002Y-138464404D01*
X107723692Y-138432596D01*
X107700781Y-138404309D01*
X107674317Y-138379607D01*
X107644349Y-138358554D01*
X107628002Y-138349384D01*
X107610812Y-138340864D01*
X107594183Y-138333552D01*
X107577555Y-138327353D01*
X107560367Y-138322171D01*
X107542059Y-138317910D01*
X107522070Y-138314475D01*
X107499838Y-138311771D01*
X107474803Y-138309700D01*
X107446404Y-138308169D01*
X107414081Y-138307081D01*
X107377272Y-138306341D01*
X107375325Y-138306311D01*
X107274360Y-138304814D01*
X107274360Y-139037570D01*
X107215940Y-139037570D01*
X107215940Y-138254344D01*
X107362625Y-138255431D01*
G36*
X112395778Y-138243522D02*
G01*
X112412714Y-138243821D01*
X112426400Y-138244406D01*
X112437750Y-138245330D01*
X112447676Y-138246643D01*
X112454690Y-138247904D01*
X112494046Y-138257471D01*
X112529650Y-138269927D01*
X112562136Y-138285599D01*
X112592140Y-138304815D01*
X112620296Y-138327902D01*
X112632559Y-138339668D01*
X112660477Y-138371259D01*
X112684533Y-138406121D01*
X112704732Y-138444263D01*
X112721074Y-138485691D01*
X112733563Y-138530414D01*
X112742201Y-138578438D01*
X112746991Y-138629770D01*
X112748060Y-138670202D01*
X112746117Y-138724074D01*
X112740296Y-138774755D01*
X112730602Y-138822221D01*
X112717044Y-138866453D01*
X112699630Y-138907426D01*
X112678368Y-138945120D01*
X112653264Y-138979513D01*
X112630867Y-139004189D01*
X112601103Y-139030588D01*
X112568677Y-139052728D01*
X112533550Y-139070625D01*
X112495679Y-139084295D01*
X112455024Y-139093751D01*
X112411544Y-139099011D01*
X112370936Y-139100179D01*
X112357314Y-139099975D01*
X112344922Y-139099682D01*
X112334946Y-139099336D01*
X112328572Y-139098973D01*
X112327690Y-139098884D01*
X112283522Y-139091408D01*
X112242495Y-139079942D01*
X112204588Y-139064472D01*
X112169777Y-139044981D01*
X112138039Y-139021455D01*
X112109351Y-138993878D01*
X112083691Y-138962235D01*
X112061035Y-138926509D01*
X112054640Y-138914644D01*
X112037616Y-138876890D01*
X112023774Y-138835693D01*
X112013218Y-138791656D01*
X112006053Y-138745378D01*
X112002384Y-138697460D01*
X112002348Y-138671300D01*
X112067340Y-138671300D01*
X112068780Y-138720669D01*
X112073150Y-138766061D01*
X112080524Y-138807698D01*
X112090976Y-138845804D01*
X112104582Y-138880603D01*
X112121415Y-138912319D01*
X112141549Y-138941174D01*
X112165059Y-138967393D01*
X112166162Y-138968480D01*
X112192838Y-138991460D01*
X112221767Y-139010199D01*
X112253290Y-139024859D01*
X112287748Y-139035602D01*
X112320070Y-139041846D01*
X112333863Y-139043229D01*
X112351214Y-139044040D01*
X112370634Y-139044292D01*
X112390633Y-139043998D01*
X112409723Y-139043172D01*
X112426416Y-139041828D01*
X112434326Y-139040828D01*
X112472338Y-139032881D01*
X112507215Y-139020954D01*
X112538999Y-139005012D01*
X112567733Y-138985022D01*
X112593460Y-138960951D01*
X112616222Y-138932765D01*
X112636063Y-138900430D01*
X112649688Y-138871960D01*
X112661653Y-138839034D01*
X112671148Y-138802474D01*
X112678128Y-138763110D01*
X112682551Y-138721771D01*
X112684372Y-138679286D01*
X112683548Y-138636485D01*
X112680034Y-138594196D01*
X112673787Y-138553250D01*
X112667920Y-138526450D01*
X112656604Y-138488545D01*
X112642366Y-138454438D01*
X112624916Y-138423584D01*
X112603966Y-138395436D01*
X112590771Y-138380833D01*
X112565609Y-138357692D01*
X112538522Y-138338617D01*
X112509178Y-138323480D01*
X112477242Y-138312157D01*
X112442383Y-138304521D01*
X112404266Y-138300446D01*
X112375950Y-138299646D01*
X112347363Y-138300321D01*
X112322194Y-138302493D01*
X112298941Y-138306381D01*
X112276106Y-138312203D01*
X112264289Y-138315936D01*
X112230846Y-138329729D01*
X112200015Y-138347792D01*
X112172004Y-138369922D01*
X112147019Y-138395915D01*
X112125268Y-138425567D01*
X112106958Y-138458674D01*
X112097844Y-138479767D01*
X112087377Y-138509852D01*
X112079253Y-138540901D01*
X112073338Y-138573752D01*
X112069499Y-138609244D01*
X112067603Y-138648213D01*
X112067340Y-138671300D01*
X112002348Y-138671300D01*
X112002316Y-138648503D01*
X112003718Y-138623111D01*
X112009186Y-138573155D01*
X112017899Y-138526969D01*
X112029935Y-138484346D01*
X112045374Y-138445083D01*
X112064297Y-138408974D01*
X112086783Y-138375814D01*
X112111005Y-138347397D01*
X112139257Y-138320631D01*
X112169574Y-138297999D01*
X112202421Y-138279249D01*
X112238260Y-138264128D01*
X112277556Y-138252383D01*
X112290860Y-138249313D01*
X112300521Y-138247359D01*
X112309578Y-138245892D01*
X112319021Y-138244844D01*
X112329837Y-138244145D01*
X112343017Y-138243726D01*
X112359547Y-138243519D01*
X112374680Y-138243461D01*
X112395778Y-138243522D01*
G37*
X112395778Y-138243522D02*
X112412714Y-138243821D01*
X112426400Y-138244406D01*
X112437750Y-138245330D01*
X112447676Y-138246643D01*
X112454690Y-138247904D01*
X112494046Y-138257471D01*
X112529650Y-138269927D01*
X112562136Y-138285599D01*
X112592140Y-138304815D01*
X112620296Y-138327902D01*
X112632559Y-138339668D01*
X112660477Y-138371259D01*
X112684533Y-138406121D01*
X112704732Y-138444263D01*
X112721074Y-138485691D01*
X112733563Y-138530414D01*
X112742201Y-138578438D01*
X112746991Y-138629770D01*
X112748060Y-138670202D01*
X112746117Y-138724074D01*
X112740296Y-138774755D01*
X112730602Y-138822221D01*
X112717044Y-138866453D01*
X112699630Y-138907426D01*
X112678368Y-138945120D01*
X112653264Y-138979513D01*
X112630867Y-139004189D01*
X112601103Y-139030588D01*
X112568677Y-139052728D01*
X112533550Y-139070625D01*
X112495679Y-139084295D01*
X112455024Y-139093751D01*
X112411544Y-139099011D01*
X112370936Y-139100179D01*
X112357314Y-139099975D01*
X112344922Y-139099682D01*
X112334946Y-139099336D01*
X112328572Y-139098973D01*
X112327690Y-139098884D01*
X112283522Y-139091408D01*
X112242495Y-139079942D01*
X112204588Y-139064472D01*
X112169777Y-139044981D01*
X112138039Y-139021455D01*
X112109351Y-138993878D01*
X112083691Y-138962235D01*
X112061035Y-138926509D01*
X112054640Y-138914644D01*
X112037616Y-138876890D01*
X112023774Y-138835693D01*
X112013218Y-138791656D01*
X112006053Y-138745378D01*
X112002384Y-138697460D01*
X112002348Y-138671300D01*
X112067340Y-138671300D01*
X112068780Y-138720669D01*
X112073150Y-138766061D01*
X112080524Y-138807698D01*
X112090976Y-138845804D01*
X112104582Y-138880603D01*
X112121415Y-138912319D01*
X112141549Y-138941174D01*
X112165059Y-138967393D01*
X112166162Y-138968480D01*
X112192838Y-138991460D01*
X112221767Y-139010199D01*
X112253290Y-139024859D01*
X112287748Y-139035602D01*
X112320070Y-139041846D01*
X112333863Y-139043229D01*
X112351214Y-139044040D01*
X112370634Y-139044292D01*
X112390633Y-139043998D01*
X112409723Y-139043172D01*
X112426416Y-139041828D01*
X112434326Y-139040828D01*
X112472338Y-139032881D01*
X112507215Y-139020954D01*
X112538999Y-139005012D01*
X112567733Y-138985022D01*
X112593460Y-138960951D01*
X112616222Y-138932765D01*
X112636063Y-138900430D01*
X112649688Y-138871960D01*
X112661653Y-138839034D01*
X112671148Y-138802474D01*
X112678128Y-138763110D01*
X112682551Y-138721771D01*
X112684372Y-138679286D01*
X112683548Y-138636485D01*
X112680034Y-138594196D01*
X112673787Y-138553250D01*
X112667920Y-138526450D01*
X112656604Y-138488545D01*
X112642366Y-138454438D01*
X112624916Y-138423584D01*
X112603966Y-138395436D01*
X112590771Y-138380833D01*
X112565609Y-138357692D01*
X112538522Y-138338617D01*
X112509178Y-138323480D01*
X112477242Y-138312157D01*
X112442383Y-138304521D01*
X112404266Y-138300446D01*
X112375950Y-138299646D01*
X112347363Y-138300321D01*
X112322194Y-138302493D01*
X112298941Y-138306381D01*
X112276106Y-138312203D01*
X112264289Y-138315936D01*
X112230846Y-138329729D01*
X112200015Y-138347792D01*
X112172004Y-138369922D01*
X112147019Y-138395915D01*
X112125268Y-138425567D01*
X112106958Y-138458674D01*
X112097844Y-138479767D01*
X112087377Y-138509852D01*
X112079253Y-138540901D01*
X112073338Y-138573752D01*
X112069499Y-138609244D01*
X112067603Y-138648213D01*
X112067340Y-138671300D01*
X112002348Y-138671300D01*
X112002316Y-138648503D01*
X112003718Y-138623111D01*
X112009186Y-138573155D01*
X112017899Y-138526969D01*
X112029935Y-138484346D01*
X112045374Y-138445083D01*
X112064297Y-138408974D01*
X112086783Y-138375814D01*
X112111005Y-138347397D01*
X112139257Y-138320631D01*
X112169574Y-138297999D01*
X112202421Y-138279249D01*
X112238260Y-138264128D01*
X112277556Y-138252383D01*
X112290860Y-138249313D01*
X112300521Y-138247359D01*
X112309578Y-138245892D01*
X112319021Y-138244844D01*
X112329837Y-138244145D01*
X112343017Y-138243726D01*
X112359547Y-138243519D01*
X112374680Y-138243461D01*
X112395778Y-138243522D01*
G36*
X111532765Y-138244221D02*
G01*
X111560077Y-138245975D01*
X111585846Y-138249124D01*
X111611793Y-138253876D01*
X111636677Y-138259680D01*
X111648685Y-138262980D01*
X111662080Y-138267096D01*
X111675853Y-138271665D01*
X111688995Y-138276329D01*
X111700497Y-138280726D01*
X111709350Y-138284495D01*
X111714545Y-138287277D01*
X111715071Y-138287697D01*
X111714819Y-138290486D01*
X111712896Y-138296699D01*
X111709784Y-138305156D01*
X111705963Y-138314679D01*
X111701916Y-138324089D01*
X111698124Y-138332207D01*
X111695068Y-138337855D01*
X111693958Y-138339394D01*
X111690830Y-138339500D01*
X111684790Y-138337557D01*
X111679529Y-138335160D01*
X111666555Y-138329326D01*
X111650126Y-138323044D01*
X111631777Y-138316829D01*
X111613043Y-138311192D01*
X111595456Y-138306646D01*
X111591507Y-138305759D01*
X111549649Y-138298799D01*
X111508275Y-138296033D01*
X111467787Y-138297351D01*
X111428586Y-138302643D01*
X111391073Y-138311801D01*
X111355650Y-138324715D01*
X111322717Y-138341275D01*
X111292676Y-138361372D01*
X111265928Y-138384897D01*
X111254038Y-138397765D01*
X111230123Y-138428937D01*
X111210093Y-138462459D01*
X111193875Y-138498562D01*
X111181395Y-138537479D01*
X111172579Y-138579440D01*
X111167352Y-138624676D01*
X111165640Y-138673120D01*
X111167473Y-138722426D01*
X111172927Y-138768631D01*
X111181933Y-138811638D01*
X111194422Y-138851349D01*
X111210327Y-138887665D01*
X111229578Y-138920487D01*
X111252107Y-138949719D01*
X111277846Y-138975262D01*
X111306725Y-138997017D01*
X111338677Y-139014887D01*
X111373632Y-139028772D01*
X111411523Y-139038576D01*
X111422180Y-139040500D01*
X111459551Y-139044853D01*
X111499955Y-139046262D01*
X111542329Y-139044790D01*
X111585614Y-139040502D01*
X111628747Y-139033462D01*
X111662266Y-139025934D01*
X111686340Y-139019821D01*
X111686340Y-139071879D01*
X111667925Y-139077202D01*
X111644250Y-139083628D01*
X111621881Y-139088724D01*
X111599711Y-139092634D01*
X111576632Y-139095505D01*
X111551535Y-139097481D01*
X111523315Y-139098706D01*
X111499650Y-139099217D01*
X111482027Y-139099422D01*
X111465640Y-139099517D01*
X111451325Y-139099504D01*
X111439918Y-139099387D01*
X111432253Y-139099168D01*
X111429800Y-139098989D01*
X111423577Y-139098056D01*
X111413873Y-139096430D01*
X111402195Y-139094366D01*
X111393820Y-139092831D01*
X111352628Y-139082762D01*
X111314163Y-139068470D01*
X111278534Y-139050085D01*
X111245846Y-139027736D01*
X111216206Y-139001553D01*
X111189721Y-138971665D01*
X111166497Y-138938200D01*
X111146642Y-138901288D01*
X111130261Y-138861059D01*
X111117462Y-138817641D01*
X111108352Y-138771164D01*
X111104792Y-138742785D01*
X111103339Y-138723302D01*
X111102479Y-138700607D01*
X111102200Y-138676127D01*
X111102488Y-138651290D01*
X111103331Y-138627523D01*
X111104715Y-138606255D01*
X111106183Y-138592158D01*
X111114515Y-138544724D01*
X111126829Y-138500249D01*
X111143008Y-138458855D01*
X111162935Y-138420665D01*
X111186494Y-138385804D01*
X111213567Y-138354394D01*
X111244038Y-138326559D01*
X111277791Y-138302423D01*
X111314708Y-138282108D01*
X111354674Y-138265739D01*
X111397571Y-138253438D01*
X111432519Y-138246818D01*
X111442186Y-138245772D01*
X111455616Y-138244874D01*
X111471494Y-138244185D01*
X111488504Y-138243764D01*
X111502190Y-138243660D01*
X111532765Y-138244221D01*
G37*
X111532765Y-138244221D02*
X111560077Y-138245975D01*
X111585846Y-138249124D01*
X111611793Y-138253876D01*
X111636677Y-138259680D01*
X111648685Y-138262980D01*
X111662080Y-138267096D01*
X111675853Y-138271665D01*
X111688995Y-138276329D01*
X111700497Y-138280726D01*
X111709350Y-138284495D01*
X111714545Y-138287277D01*
X111715071Y-138287697D01*
X111714819Y-138290486D01*
X111712896Y-138296699D01*
X111709784Y-138305156D01*
X111705963Y-138314679D01*
X111701916Y-138324089D01*
X111698124Y-138332207D01*
X111695068Y-138337855D01*
X111693958Y-138339394D01*
X111690830Y-138339500D01*
X111684790Y-138337557D01*
X111679529Y-138335160D01*
X111666555Y-138329326D01*
X111650126Y-138323044D01*
X111631777Y-138316829D01*
X111613043Y-138311192D01*
X111595456Y-138306646D01*
X111591507Y-138305759D01*
X111549649Y-138298799D01*
X111508275Y-138296033D01*
X111467787Y-138297351D01*
X111428586Y-138302643D01*
X111391073Y-138311801D01*
X111355650Y-138324715D01*
X111322717Y-138341275D01*
X111292676Y-138361372D01*
X111265928Y-138384897D01*
X111254038Y-138397765D01*
X111230123Y-138428937D01*
X111210093Y-138462459D01*
X111193875Y-138498562D01*
X111181395Y-138537479D01*
X111172579Y-138579440D01*
X111167352Y-138624676D01*
X111165640Y-138673120D01*
X111167473Y-138722426D01*
X111172927Y-138768631D01*
X111181933Y-138811638D01*
X111194422Y-138851349D01*
X111210327Y-138887665D01*
X111229578Y-138920487D01*
X111252107Y-138949719D01*
X111277846Y-138975262D01*
X111306725Y-138997017D01*
X111338677Y-139014887D01*
X111373632Y-139028772D01*
X111411523Y-139038576D01*
X111422180Y-139040500D01*
X111459551Y-139044853D01*
X111499955Y-139046262D01*
X111542329Y-139044790D01*
X111585614Y-139040502D01*
X111628747Y-139033462D01*
X111662266Y-139025934D01*
X111686340Y-139019821D01*
X111686340Y-139071879D01*
X111667925Y-139077202D01*
X111644250Y-139083628D01*
X111621881Y-139088724D01*
X111599711Y-139092634D01*
X111576632Y-139095505D01*
X111551535Y-139097481D01*
X111523315Y-139098706D01*
X111499650Y-139099217D01*
X111482027Y-139099422D01*
X111465640Y-139099517D01*
X111451325Y-139099504D01*
X111439918Y-139099387D01*
X111432253Y-139099168D01*
X111429800Y-139098989D01*
X111423577Y-139098056D01*
X111413873Y-139096430D01*
X111402195Y-139094366D01*
X111393820Y-139092831D01*
X111352628Y-139082762D01*
X111314163Y-139068470D01*
X111278534Y-139050085D01*
X111245846Y-139027736D01*
X111216206Y-139001553D01*
X111189721Y-138971665D01*
X111166497Y-138938200D01*
X111146642Y-138901288D01*
X111130261Y-138861059D01*
X111117462Y-138817641D01*
X111108352Y-138771164D01*
X111104792Y-138742785D01*
X111103339Y-138723302D01*
X111102479Y-138700607D01*
X111102200Y-138676127D01*
X111102488Y-138651290D01*
X111103331Y-138627523D01*
X111104715Y-138606255D01*
X111106183Y-138592158D01*
X111114515Y-138544724D01*
X111126829Y-138500249D01*
X111143008Y-138458855D01*
X111162935Y-138420665D01*
X111186494Y-138385804D01*
X111213567Y-138354394D01*
X111244038Y-138326559D01*
X111277791Y-138302423D01*
X111314708Y-138282108D01*
X111354674Y-138265739D01*
X111397571Y-138253438D01*
X111432519Y-138246818D01*
X111442186Y-138245772D01*
X111455616Y-138244874D01*
X111471494Y-138244185D01*
X111488504Y-138243764D01*
X111502190Y-138243660D01*
X111532765Y-138244221D01*
G36*
X138142133Y-138044767D02*
G01*
X137813374Y-138044767D01*
X137647164Y-137738909D01*
X137621545Y-137691801D01*
X137597040Y-137646813D01*
X137573957Y-137604505D01*
X137552603Y-137565435D01*
X137533283Y-137530163D01*
X137516306Y-137499247D01*
X137501978Y-137473248D01*
X137490605Y-137452725D01*
X137482496Y-137438236D01*
X137477957Y-137430341D01*
X137477110Y-137429028D01*
X137476402Y-137432419D01*
X137475751Y-137443832D01*
X137475164Y-137462824D01*
X137474645Y-137488950D01*
X137474200Y-137521768D01*
X137473835Y-137560832D01*
X137473556Y-137605699D01*
X137473367Y-137655925D01*
X137473275Y-137711067D01*
X137473266Y-137734887D01*
X137473266Y-138044767D01*
X137151502Y-138044767D01*
X137152576Y-137478558D01*
X137153650Y-136912350D01*
X137327216Y-136911306D01*
X137500783Y-136910262D01*
X137656681Y-137206213D01*
X137681248Y-137252809D01*
X137704772Y-137297344D01*
X137726941Y-137339232D01*
X137747443Y-137377889D01*
X137765967Y-137412730D01*
X137782202Y-137443172D01*
X137795837Y-137468629D01*
X137806559Y-137488518D01*
X137814058Y-137502253D01*
X137818022Y-137509249D01*
X137818471Y-137509941D01*
X137819610Y-137510513D01*
X137820598Y-137508661D01*
X137821444Y-137503857D01*
X137822160Y-137495571D01*
X137822756Y-137483276D01*
X137823243Y-137466444D01*
X137823632Y-137444545D01*
X137823934Y-137417052D01*
X137824159Y-137383436D01*
X137824319Y-137343169D01*
X137824423Y-137295722D01*
X137824483Y-137240568D01*
X137824498Y-137213975D01*
X137824633Y-136910234D01*
X138142133Y-136910234D01*
X138142133Y-138044767D01*
G37*
X138142133Y-138044767D02*
X137813374Y-138044767D01*
X137647164Y-137738909D01*
X137621545Y-137691801D01*
X137597040Y-137646813D01*
X137573957Y-137604505D01*
X137552603Y-137565435D01*
X137533283Y-137530163D01*
X137516306Y-137499247D01*
X137501978Y-137473248D01*
X137490605Y-137452725D01*
X137482496Y-137438236D01*
X137477957Y-137430341D01*
X137477110Y-137429028D01*
X137476402Y-137432419D01*
X137475751Y-137443832D01*
X137475164Y-137462824D01*
X137474645Y-137488950D01*
X137474200Y-137521768D01*
X137473835Y-137560832D01*
X137473556Y-137605699D01*
X137473367Y-137655925D01*
X137473275Y-137711067D01*
X137473266Y-137734887D01*
X137473266Y-138044767D01*
X137151502Y-138044767D01*
X137152576Y-137478558D01*
X137153650Y-136912350D01*
X137327216Y-136911306D01*
X137500783Y-136910262D01*
X137656681Y-137206213D01*
X137681248Y-137252809D01*
X137704772Y-137297344D01*
X137726941Y-137339232D01*
X137747443Y-137377889D01*
X137765967Y-137412730D01*
X137782202Y-137443172D01*
X137795837Y-137468629D01*
X137806559Y-137488518D01*
X137814058Y-137502253D01*
X137818022Y-137509249D01*
X137818471Y-137509941D01*
X137819610Y-137510513D01*
X137820598Y-137508661D01*
X137821444Y-137503857D01*
X137822160Y-137495571D01*
X137822756Y-137483276D01*
X137823243Y-137466444D01*
X137823632Y-137444545D01*
X137823934Y-137417052D01*
X137824159Y-137383436D01*
X137824319Y-137343169D01*
X137824423Y-137295722D01*
X137824483Y-137240568D01*
X137824498Y-137213975D01*
X137824633Y-136910234D01*
X138142133Y-136910234D01*
X138142133Y-138044767D01*
G36*
X137049933Y-137202333D02*
G01*
X136486899Y-137202333D01*
X136486899Y-137342033D01*
X136999133Y-137342033D01*
X136999133Y-137612967D01*
X136486899Y-137612967D01*
X136486899Y-137752667D01*
X137066866Y-137752667D01*
X137066866Y-138044767D01*
X136148233Y-138044767D01*
X136148233Y-136910234D01*
X137049933Y-136910234D01*
X137049933Y-137202333D01*
G37*
X137049933Y-137202333D02*
X136486899Y-137202333D01*
X136486899Y-137342033D01*
X136999133Y-137342033D01*
X136999133Y-137612967D01*
X136486899Y-137612967D01*
X136486899Y-137752667D01*
X137066866Y-137752667D01*
X137066866Y-138044767D01*
X136148233Y-138044767D01*
X136148233Y-136910234D01*
X137049933Y-136910234D01*
X137049933Y-137202333D01*
G36*
X135398535Y-136926109D02*
G01*
X135400244Y-136932636D01*
X135403925Y-136946698D01*
X135409405Y-136967642D01*
X135416515Y-136994811D01*
X135425082Y-137027551D01*
X135434935Y-137065205D01*
X135445902Y-137107120D01*
X135457813Y-137152640D01*
X135470495Y-137201110D01*
X135483777Y-137251875D01*
X135487983Y-137267950D01*
X135501319Y-137318872D01*
X135514051Y-137367389D01*
X135526014Y-137412885D01*
X135537046Y-137454739D01*
X135546981Y-137492335D01*
X135555657Y-137525053D01*
X135562910Y-137552274D01*
X135568575Y-137573381D01*
X135572489Y-137587755D01*
X135574488Y-137594778D01*
X135574708Y-137595387D01*
X135575166Y-137595566D01*
X135575779Y-137594900D01*
X135576680Y-137592887D01*
X135578001Y-137589026D01*
X135579877Y-137582816D01*
X135582439Y-137573755D01*
X135585820Y-137561343D01*
X135590154Y-137545077D01*
X135595572Y-137524457D01*
X135602209Y-137498981D01*
X135610196Y-137468148D01*
X135619667Y-137431456D01*
X135630755Y-137388405D01*
X135643591Y-137338492D01*
X135658310Y-137281216D01*
X135669331Y-137238317D01*
X135753068Y-136912350D01*
X135927367Y-136911245D01*
X135964854Y-136911037D01*
X135999575Y-136910904D01*
X136030649Y-136910842D01*
X136057192Y-136910853D01*
X136078321Y-136910935D01*
X136093151Y-136911086D01*
X136100802Y-136911306D01*
X136101666Y-136911429D01*
X136100463Y-136915560D01*
X136096946Y-136927333D01*
X136091255Y-136946288D01*
X136083529Y-136971964D01*
X136073906Y-137003901D01*
X136062526Y-137041637D01*
X136049528Y-137084713D01*
X136035050Y-137132666D01*
X136019233Y-137185037D01*
X136002214Y-137241365D01*
X135984134Y-137301188D01*
X135965131Y-137364046D01*
X135945344Y-137429478D01*
X135930763Y-137477685D01*
X135759860Y-138042650D01*
X135569648Y-138043751D01*
X135379437Y-138044852D01*
X135217114Y-137482834D01*
X135197754Y-137415813D01*
X135179024Y-137350995D01*
X135161061Y-137288850D01*
X135144001Y-137229847D01*
X135127978Y-137174455D01*
X135113130Y-137123143D01*
X135099592Y-137076380D01*
X135087499Y-137034636D01*
X135076988Y-136998378D01*
X135068194Y-136968077D01*
X135061253Y-136944201D01*
X135056302Y-136927220D01*
X135053475Y-136917602D01*
X135052843Y-136915525D01*
X135053978Y-136914162D01*
X135058902Y-136913039D01*
X135068246Y-136912136D01*
X135082641Y-136911434D01*
X135102717Y-136910914D01*
X135129106Y-136910554D01*
X135162438Y-136910337D01*
X135203344Y-136910242D01*
X135222633Y-136910234D01*
X135394373Y-136910234D01*
X135398535Y-136926109D01*
G37*
X135398535Y-136926109D02*
X135400244Y-136932636D01*
X135403925Y-136946698D01*
X135409405Y-136967642D01*
X135416515Y-136994811D01*
X135425082Y-137027551D01*
X135434935Y-137065205D01*
X135445902Y-137107120D01*
X135457813Y-137152640D01*
X135470495Y-137201110D01*
X135483777Y-137251875D01*
X135487983Y-137267950D01*
X135501319Y-137318872D01*
X135514051Y-137367389D01*
X135526014Y-137412885D01*
X135537046Y-137454739D01*
X135546981Y-137492335D01*
X135555657Y-137525053D01*
X135562910Y-137552274D01*
X135568575Y-137573381D01*
X135572489Y-137587755D01*
X135574488Y-137594778D01*
X135574708Y-137595387D01*
X135575166Y-137595566D01*
X135575779Y-137594900D01*
X135576680Y-137592887D01*
X135578001Y-137589026D01*
X135579877Y-137582816D01*
X135582439Y-137573755D01*
X135585820Y-137561343D01*
X135590154Y-137545077D01*
X135595572Y-137524457D01*
X135602209Y-137498981D01*
X135610196Y-137468148D01*
X135619667Y-137431456D01*
X135630755Y-137388405D01*
X135643591Y-137338492D01*
X135658310Y-137281216D01*
X135669331Y-137238317D01*
X135753068Y-136912350D01*
X135927367Y-136911245D01*
X135964854Y-136911037D01*
X135999575Y-136910904D01*
X136030649Y-136910842D01*
X136057192Y-136910853D01*
X136078321Y-136910935D01*
X136093151Y-136911086D01*
X136100802Y-136911306D01*
X136101666Y-136911429D01*
X136100463Y-136915560D01*
X136096946Y-136927333D01*
X136091255Y-136946288D01*
X136083529Y-136971964D01*
X136073906Y-137003901D01*
X136062526Y-137041637D01*
X136049528Y-137084713D01*
X136035050Y-137132666D01*
X136019233Y-137185037D01*
X136002214Y-137241365D01*
X135984134Y-137301188D01*
X135965131Y-137364046D01*
X135945344Y-137429478D01*
X135930763Y-137477685D01*
X135759860Y-138042650D01*
X135569648Y-138043751D01*
X135379437Y-138044852D01*
X135217114Y-137482834D01*
X135197754Y-137415813D01*
X135179024Y-137350995D01*
X135161061Y-137288850D01*
X135144001Y-137229847D01*
X135127978Y-137174455D01*
X135113130Y-137123143D01*
X135099592Y-137076380D01*
X135087499Y-137034636D01*
X135076988Y-136998378D01*
X135068194Y-136968077D01*
X135061253Y-136944201D01*
X135056302Y-136927220D01*
X135053475Y-136917602D01*
X135052843Y-136915525D01*
X135053978Y-136914162D01*
X135058902Y-136913039D01*
X135068246Y-136912136D01*
X135082641Y-136911434D01*
X135102717Y-136910914D01*
X135129106Y-136910554D01*
X135162438Y-136910337D01*
X135203344Y-136910242D01*
X135222633Y-136910234D01*
X135394373Y-136910234D01*
X135398535Y-136926109D01*
G36*
X133900333Y-137202333D02*
G01*
X133333066Y-137202333D01*
X133333066Y-137342033D01*
X133849533Y-137342033D01*
X133849533Y-137612967D01*
X133333066Y-137612967D01*
X133333066Y-137752667D01*
X133917266Y-137752667D01*
X133917266Y-138044767D01*
X132998633Y-138044767D01*
X132998633Y-136910234D01*
X133900333Y-136910234D01*
X133900333Y-137202333D01*
G37*
X133900333Y-137202333D02*
X133333066Y-137202333D01*
X133333066Y-137342033D01*
X133849533Y-137342033D01*
X133849533Y-137612967D01*
X133333066Y-137612967D01*
X133333066Y-137752667D01*
X133917266Y-137752667D01*
X133917266Y-138044767D01*
X132998633Y-138044767D01*
X132998633Y-136910234D01*
X133900333Y-136910234D01*
X133900333Y-137202333D01*
G36*
X132418666Y-137752596D02*
G01*
X132894916Y-137754784D01*
X132896030Y-137899775D01*
X132897144Y-138044767D01*
X132079999Y-138044767D01*
X132079999Y-136910234D01*
X132418666Y-136910234D01*
X132418666Y-137752596D01*
G37*
X132418666Y-137752596D02*
X132894916Y-137754784D01*
X132896030Y-137899775D01*
X132897144Y-138044767D01*
X132079999Y-138044767D01*
X132079999Y-136910234D01*
X132418666Y-136910234D01*
X132418666Y-137752596D01*
G36*
X129781300Y-137105908D02*
G01*
X129781308Y-137151628D01*
X129781351Y-137189569D01*
X129781460Y-137220417D01*
X129781664Y-137244861D01*
X129781991Y-137263586D01*
X129782473Y-137277281D01*
X129783137Y-137286633D01*
X129784014Y-137292328D01*
X129785133Y-137295054D01*
X129786524Y-137295499D01*
X129788216Y-137294349D01*
X129789336Y-137293233D01*
X129793396Y-137288355D01*
X129802104Y-137277414D01*
X129814952Y-137261063D01*
X129831430Y-137239954D01*
X129851033Y-137214740D01*
X129873251Y-137186074D01*
X129897576Y-137154608D01*
X129923501Y-137120996D01*
X129935844Y-137104967D01*
X129962302Y-137070623D01*
X129987364Y-137038153D01*
X130010528Y-137008205D01*
X130031288Y-136981428D01*
X130049142Y-136958470D01*
X130063586Y-136939980D01*
X130074115Y-136926606D01*
X130080227Y-136918996D01*
X130081424Y-136917601D01*
X130083501Y-136915899D01*
X130086676Y-136914485D01*
X130091669Y-136913337D01*
X130099199Y-136912435D01*
X130109985Y-136911756D01*
X130124748Y-136911280D01*
X130144207Y-136910985D01*
X130169082Y-136910849D01*
X130200093Y-136910852D01*
X130237959Y-136910972D01*
X130283399Y-136911188D01*
X130295444Y-136911251D01*
X130502354Y-136912350D01*
X130304674Y-137132250D01*
X130267027Y-137174245D01*
X130232659Y-137212816D01*
X130201871Y-137247615D01*
X130174966Y-137278295D01*
X130152242Y-137304508D01*
X130134002Y-137325908D01*
X130120546Y-137342146D01*
X130112175Y-137352875D01*
X130109191Y-137357748D01*
X130109204Y-137357911D01*
X130111829Y-137362181D01*
X130118845Y-137372990D01*
X130129925Y-137389849D01*
X130144743Y-137412266D01*
X130162973Y-137439750D01*
X130184288Y-137471811D01*
X130208362Y-137507958D01*
X130234868Y-137547700D01*
X130263479Y-137590546D01*
X130293870Y-137636006D01*
X130325715Y-137683588D01*
X130337941Y-137701843D01*
X130370188Y-137750008D01*
X130401064Y-137796173D01*
X130430248Y-137839855D01*
X130457417Y-137880570D01*
X130482248Y-137917831D01*
X130504421Y-137951156D01*
X130523612Y-137980060D01*
X130539499Y-138004058D01*
X130551760Y-138022666D01*
X130560074Y-138035399D01*
X130564116Y-138041773D01*
X130564466Y-138042430D01*
X130560367Y-138042883D01*
X130548605Y-138043265D01*
X130529986Y-138043571D01*
X130505312Y-138043797D01*
X130475388Y-138043936D01*
X130441018Y-138043984D01*
X130403006Y-138043937D01*
X130362157Y-138043788D01*
X130354168Y-138043748D01*
X130143869Y-138042650D01*
X130011505Y-137826829D01*
X129987665Y-137788035D01*
X129965082Y-137751438D01*
X129944153Y-137717669D01*
X129925273Y-137687360D01*
X129908837Y-137661141D01*
X129895240Y-137639642D01*
X129884879Y-137623495D01*
X129878147Y-137613329D01*
X129875458Y-137609781D01*
X129871538Y-137612363D01*
X129863082Y-137620289D01*
X129851114Y-137632522D01*
X129836663Y-137648025D01*
X129826537Y-137659237D01*
X129781300Y-137709920D01*
X129781300Y-138044767D01*
X129442633Y-138044767D01*
X129442633Y-136910234D01*
X129781300Y-136910234D01*
X129781300Y-137105908D01*
G37*
X129781300Y-137105908D02*
X129781308Y-137151628D01*
X129781351Y-137189569D01*
X129781460Y-137220417D01*
X129781664Y-137244861D01*
X129781991Y-137263586D01*
X129782473Y-137277281D01*
X129783137Y-137286633D01*
X129784014Y-137292328D01*
X129785133Y-137295054D01*
X129786524Y-137295499D01*
X129788216Y-137294349D01*
X129789336Y-137293233D01*
X129793396Y-137288355D01*
X129802104Y-137277414D01*
X129814952Y-137261063D01*
X129831430Y-137239954D01*
X129851033Y-137214740D01*
X129873251Y-137186074D01*
X129897576Y-137154608D01*
X129923501Y-137120996D01*
X129935844Y-137104967D01*
X129962302Y-137070623D01*
X129987364Y-137038153D01*
X130010528Y-137008205D01*
X130031288Y-136981428D01*
X130049142Y-136958470D01*
X130063586Y-136939980D01*
X130074115Y-136926606D01*
X130080227Y-136918996D01*
X130081424Y-136917601D01*
X130083501Y-136915899D01*
X130086676Y-136914485D01*
X130091669Y-136913337D01*
X130099199Y-136912435D01*
X130109985Y-136911756D01*
X130124748Y-136911280D01*
X130144207Y-136910985D01*
X130169082Y-136910849D01*
X130200093Y-136910852D01*
X130237959Y-136910972D01*
X130283399Y-136911188D01*
X130295444Y-136911251D01*
X130502354Y-136912350D01*
X130304674Y-137132250D01*
X130267027Y-137174245D01*
X130232659Y-137212816D01*
X130201871Y-137247615D01*
X130174966Y-137278295D01*
X130152242Y-137304508D01*
X130134002Y-137325908D01*
X130120546Y-137342146D01*
X130112175Y-137352875D01*
X130109191Y-137357748D01*
X130109204Y-137357911D01*
X130111829Y-137362181D01*
X130118845Y-137372990D01*
X130129925Y-137389849D01*
X130144743Y-137412266D01*
X130162973Y-137439750D01*
X130184288Y-137471811D01*
X130208362Y-137507958D01*
X130234868Y-137547700D01*
X130263479Y-137590546D01*
X130293870Y-137636006D01*
X130325715Y-137683588D01*
X130337941Y-137701843D01*
X130370188Y-137750008D01*
X130401064Y-137796173D01*
X130430248Y-137839855D01*
X130457417Y-137880570D01*
X130482248Y-137917831D01*
X130504421Y-137951156D01*
X130523612Y-137980060D01*
X130539499Y-138004058D01*
X130551760Y-138022666D01*
X130560074Y-138035399D01*
X130564116Y-138041773D01*
X130564466Y-138042430D01*
X130560367Y-138042883D01*
X130548605Y-138043265D01*
X130529986Y-138043571D01*
X130505312Y-138043797D01*
X130475388Y-138043936D01*
X130441018Y-138043984D01*
X130403006Y-138043937D01*
X130362157Y-138043788D01*
X130354168Y-138043748D01*
X130143869Y-138042650D01*
X130011505Y-137826829D01*
X129987665Y-137788035D01*
X129965082Y-137751438D01*
X129944153Y-137717669D01*
X129925273Y-137687360D01*
X129908837Y-137661141D01*
X129895240Y-137639642D01*
X129884879Y-137623495D01*
X129878147Y-137613329D01*
X129875458Y-137609781D01*
X129871538Y-137612363D01*
X129863082Y-137620289D01*
X129851114Y-137632522D01*
X129836663Y-137648025D01*
X129826537Y-137659237D01*
X129781300Y-137709920D01*
X129781300Y-138044767D01*
X129442633Y-138044767D01*
X129442633Y-136910234D01*
X129781300Y-136910234D01*
X129781300Y-137105908D01*
G36*
X134836339Y-136910234D02*
G01*
X135005637Y-136910234D01*
X135004064Y-137304992D01*
X135003792Y-137371838D01*
X135003534Y-137430778D01*
X135003276Y-137482372D01*
X135003004Y-137527180D01*
X135002706Y-137565761D01*
X135002368Y-137598677D01*
X135001976Y-137626486D01*
X135001518Y-137649750D01*
X135000979Y-137669029D01*
X135000346Y-137684882D01*
X134999607Y-137697870D01*
X134998748Y-137708552D01*
X134997754Y-137717490D01*
X134996614Y-137725243D01*
X134995313Y-137732371D01*
X134993838Y-137739435D01*
X134993673Y-137740198D01*
X134984703Y-137775177D01*
X134973162Y-137810864D01*
X134960048Y-137844546D01*
X134946358Y-137873510D01*
X134941381Y-137882429D01*
X134927673Y-137902158D01*
X134908799Y-137924508D01*
X134886724Y-137947539D01*
X134863412Y-137969310D01*
X134840830Y-137987880D01*
X134821083Y-138001227D01*
X134770706Y-138025878D01*
X134714789Y-138045579D01*
X134655016Y-138059799D01*
X134617883Y-138065492D01*
X134595127Y-138067492D01*
X134566427Y-138068835D01*
X134533775Y-138069538D01*
X134499159Y-138069618D01*
X134464571Y-138069091D01*
X134431999Y-138067975D01*
X134403435Y-138066287D01*
X134380867Y-138064043D01*
X134376692Y-138063444D01*
X134315482Y-138051398D01*
X134261093Y-138035194D01*
X134212793Y-138014498D01*
X134169849Y-137988976D01*
X134131529Y-137958294D01*
X134118350Y-137945540D01*
X134086273Y-137908515D01*
X134059981Y-137868135D01*
X134038838Y-137823163D01*
X134022211Y-137772359D01*
X134015488Y-137744814D01*
X134004610Y-137695517D01*
X134003032Y-137302875D01*
X134001454Y-136910234D01*
X134340047Y-136910234D01*
X134341732Y-137271125D01*
X134342051Y-137335977D01*
X134342371Y-137392920D01*
X134342705Y-137442512D01*
X134343064Y-137485312D01*
X134343461Y-137521878D01*
X134343908Y-137552768D01*
X134344417Y-137578540D01*
X134345000Y-137599752D01*
X134345670Y-137616962D01*
X134346438Y-137630728D01*
X134347318Y-137641609D01*
X134348321Y-137650162D01*
X134349458Y-137656946D01*
X134350234Y-137660493D01*
X134359123Y-137691363D01*
X134369895Y-137716053D01*
X134383633Y-137736811D01*
X134391119Y-137745523D01*
X134409187Y-137761963D01*
X134429384Y-137773565D01*
X134453478Y-137781008D01*
X134483241Y-137784972D01*
X134495626Y-137785676D01*
X134533434Y-137785056D01*
X134564954Y-137779504D01*
X134591051Y-137768617D01*
X134612592Y-137751989D01*
X134630443Y-137729218D01*
X134635649Y-137720327D01*
X134640374Y-137711682D01*
X134644538Y-137703699D01*
X134648179Y-137695809D01*
X134651334Y-137687443D01*
X134654042Y-137678034D01*
X134656340Y-137667010D01*
X134658266Y-137653805D01*
X134659859Y-137637848D01*
X134661156Y-137618572D01*
X134662194Y-137595407D01*
X134663013Y-137567784D01*
X134663649Y-137535135D01*
X134664141Y-137496890D01*
X134664527Y-137452482D01*
X134664844Y-137401340D01*
X134665131Y-137342896D01*
X134665425Y-137276582D01*
X134665439Y-137273242D01*
X134667040Y-136910233D01*
X134836339Y-136910234D01*
G37*
X134836339Y-136910234D02*
X135005637Y-136910234D01*
X135004064Y-137304992D01*
X135003792Y-137371838D01*
X135003534Y-137430778D01*
X135003276Y-137482372D01*
X135003004Y-137527180D01*
X135002706Y-137565761D01*
X135002368Y-137598677D01*
X135001976Y-137626486D01*
X135001518Y-137649750D01*
X135000979Y-137669029D01*
X135000346Y-137684882D01*
X134999607Y-137697870D01*
X134998748Y-137708552D01*
X134997754Y-137717490D01*
X134996614Y-137725243D01*
X134995313Y-137732371D01*
X134993838Y-137739435D01*
X134993673Y-137740198D01*
X134984703Y-137775177D01*
X134973162Y-137810864D01*
X134960048Y-137844546D01*
X134946358Y-137873510D01*
X134941381Y-137882429D01*
X134927673Y-137902158D01*
X134908799Y-137924508D01*
X134886724Y-137947539D01*
X134863412Y-137969310D01*
X134840830Y-137987880D01*
X134821083Y-138001227D01*
X134770706Y-138025878D01*
X134714789Y-138045579D01*
X134655016Y-138059799D01*
X134617883Y-138065492D01*
X134595127Y-138067492D01*
X134566427Y-138068835D01*
X134533775Y-138069538D01*
X134499159Y-138069618D01*
X134464571Y-138069091D01*
X134431999Y-138067975D01*
X134403435Y-138066287D01*
X134380867Y-138064043D01*
X134376692Y-138063444D01*
X134315482Y-138051398D01*
X134261093Y-138035194D01*
X134212793Y-138014498D01*
X134169849Y-137988976D01*
X134131529Y-137958294D01*
X134118350Y-137945540D01*
X134086273Y-137908515D01*
X134059981Y-137868135D01*
X134038838Y-137823163D01*
X134022211Y-137772359D01*
X134015488Y-137744814D01*
X134004610Y-137695517D01*
X134003032Y-137302875D01*
X134001454Y-136910234D01*
X134340047Y-136910234D01*
X134341732Y-137271125D01*
X134342051Y-137335977D01*
X134342371Y-137392920D01*
X134342705Y-137442512D01*
X134343064Y-137485312D01*
X134343461Y-137521878D01*
X134343908Y-137552768D01*
X134344417Y-137578540D01*
X134345000Y-137599752D01*
X134345670Y-137616962D01*
X134346438Y-137630728D01*
X134347318Y-137641609D01*
X134348321Y-137650162D01*
X134349458Y-137656946D01*
X134350234Y-137660493D01*
X134359123Y-137691363D01*
X134369895Y-137716053D01*
X134383633Y-137736811D01*
X134391119Y-137745523D01*
X134409187Y-137761963D01*
X134429384Y-137773565D01*
X134453478Y-137781008D01*
X134483241Y-137784972D01*
X134495626Y-137785676D01*
X134533434Y-137785056D01*
X134564954Y-137779504D01*
X134591051Y-137768617D01*
X134612592Y-137751989D01*
X134630443Y-137729218D01*
X134635649Y-137720327D01*
X134640374Y-137711682D01*
X134644538Y-137703699D01*
X134648179Y-137695809D01*
X134651334Y-137687443D01*
X134654042Y-137678034D01*
X134656340Y-137667010D01*
X134658266Y-137653805D01*
X134659859Y-137637848D01*
X134661156Y-137618572D01*
X134662194Y-137595407D01*
X134663013Y-137567784D01*
X134663649Y-137535135D01*
X134664141Y-137496890D01*
X134664527Y-137452482D01*
X134664844Y-137401340D01*
X134665131Y-137342896D01*
X134665425Y-137276582D01*
X134665439Y-137273242D01*
X134667040Y-136910233D01*
X134836339Y-136910234D01*
G36*
X130921175Y-137275358D02*
G01*
X130921462Y-137340167D01*
X130921748Y-137397067D01*
X130922045Y-137446617D01*
X130922366Y-137489375D01*
X130922724Y-137525899D01*
X130923131Y-137556748D01*
X130923598Y-137582479D01*
X130924138Y-137603652D01*
X130924765Y-137620824D01*
X130925489Y-137634554D01*
X130926324Y-137645400D01*
X130927281Y-137653919D01*
X130928374Y-137660671D01*
X130929614Y-137666214D01*
X130929840Y-137667075D01*
X130941139Y-137701224D01*
X130955183Y-137728273D01*
X130972791Y-137749367D01*
X130994786Y-137765651D01*
X131004086Y-137770630D01*
X131016172Y-137776385D01*
X131026164Y-137780265D01*
X131036231Y-137782637D01*
X131048539Y-137783870D01*
X131065259Y-137784333D01*
X131085097Y-137784394D01*
X131114303Y-137783671D01*
X131137056Y-137781112D01*
X131155282Y-137776089D01*
X131170907Y-137767975D01*
X131185857Y-137756143D01*
X131193079Y-137749238D01*
X131201156Y-137740789D01*
X131208365Y-137732089D01*
X131214755Y-137722635D01*
X131220376Y-137711921D01*
X131225277Y-137699441D01*
X131229508Y-137684691D01*
X131233117Y-137667164D01*
X131236155Y-137646355D01*
X131238669Y-137621760D01*
X131240710Y-137592873D01*
X131242327Y-137559188D01*
X131243568Y-137520200D01*
X131244484Y-137475405D01*
X131245123Y-137424296D01*
X131245536Y-137366368D01*
X131245770Y-137301116D01*
X131245875Y-137228036D01*
X131245888Y-137207625D01*
X131246033Y-136910234D01*
X131584699Y-136910234D01*
X131584663Y-137266892D01*
X131584606Y-137325025D01*
X131584452Y-137381015D01*
X131584208Y-137434180D01*
X131583881Y-137483835D01*
X131583478Y-137529300D01*
X131583007Y-137569890D01*
X131582475Y-137604923D01*
X131581888Y-137633716D01*
X131581255Y-137655586D01*
X131580582Y-137669850D01*
X131580401Y-137672234D01*
X131571480Y-137737497D01*
X131556543Y-137796814D01*
X131535548Y-137850229D01*
X131508453Y-137897784D01*
X131475218Y-137939523D01*
X131435802Y-137975489D01*
X131390163Y-138005725D01*
X131338261Y-138030273D01*
X131280054Y-138049177D01*
X131215502Y-138062480D01*
X131207390Y-138063693D01*
X131189664Y-138065565D01*
X131165730Y-138067130D01*
X131137443Y-138068361D01*
X131106658Y-138069227D01*
X131075233Y-138069701D01*
X131045023Y-138069751D01*
X131017883Y-138069351D01*
X130995671Y-138068469D01*
X130981450Y-138067243D01*
X130922818Y-138057732D01*
X130870972Y-138045236D01*
X130824648Y-138029406D01*
X130791676Y-138014589D01*
X130744401Y-137986680D01*
X130703290Y-137953342D01*
X130668178Y-137914353D01*
X130638898Y-137869486D01*
X130615284Y-137818516D01*
X130597171Y-137761220D01*
X130593517Y-137746028D01*
X130591909Y-137738826D01*
X130590491Y-137731897D01*
X130589248Y-137724681D01*
X130588166Y-137716620D01*
X130587232Y-137707154D01*
X130586431Y-137695725D01*
X130585750Y-137681774D01*
X130585173Y-137664741D01*
X130584688Y-137644068D01*
X130584280Y-137619196D01*
X130583935Y-137589566D01*
X130583640Y-137554618D01*
X130583379Y-137513794D01*
X130583140Y-137466535D01*
X130582907Y-137412282D01*
X130582668Y-137350475D01*
X130582507Y-137307108D01*
X130581035Y-136910234D01*
X130750334Y-136910234D01*
X130919633Y-136910233D01*
X130921175Y-137275358D01*
G37*
X130921175Y-137275358D02*
X130921462Y-137340167D01*
X130921748Y-137397067D01*
X130922045Y-137446617D01*
X130922366Y-137489375D01*
X130922724Y-137525899D01*
X130923131Y-137556748D01*
X130923598Y-137582479D01*
X130924138Y-137603652D01*
X130924765Y-137620824D01*
X130925489Y-137634554D01*
X130926324Y-137645400D01*
X130927281Y-137653919D01*
X130928374Y-137660671D01*
X130929614Y-137666214D01*
X130929840Y-137667075D01*
X130941139Y-137701224D01*
X130955183Y-137728273D01*
X130972791Y-137749367D01*
X130994786Y-137765651D01*
X131004086Y-137770630D01*
X131016172Y-137776385D01*
X131026164Y-137780265D01*
X131036231Y-137782637D01*
X131048539Y-137783870D01*
X131065259Y-137784333D01*
X131085097Y-137784394D01*
X131114303Y-137783671D01*
X131137056Y-137781112D01*
X131155282Y-137776089D01*
X131170907Y-137767975D01*
X131185857Y-137756143D01*
X131193079Y-137749238D01*
X131201156Y-137740789D01*
X131208365Y-137732089D01*
X131214755Y-137722635D01*
X131220376Y-137711921D01*
X131225277Y-137699441D01*
X131229508Y-137684691D01*
X131233117Y-137667164D01*
X131236155Y-137646355D01*
X131238669Y-137621760D01*
X131240710Y-137592873D01*
X131242327Y-137559188D01*
X131243568Y-137520200D01*
X131244484Y-137475405D01*
X131245123Y-137424296D01*
X131245536Y-137366368D01*
X131245770Y-137301116D01*
X131245875Y-137228036D01*
X131245888Y-137207625D01*
X131246033Y-136910234D01*
X131584699Y-136910234D01*
X131584663Y-137266892D01*
X131584606Y-137325025D01*
X131584452Y-137381015D01*
X131584208Y-137434180D01*
X131583881Y-137483835D01*
X131583478Y-137529300D01*
X131583007Y-137569890D01*
X131582475Y-137604923D01*
X131581888Y-137633716D01*
X131581255Y-137655586D01*
X131580582Y-137669850D01*
X131580401Y-137672234D01*
X131571480Y-137737497D01*
X131556543Y-137796814D01*
X131535548Y-137850229D01*
X131508453Y-137897784D01*
X131475218Y-137939523D01*
X131435802Y-137975489D01*
X131390163Y-138005725D01*
X131338261Y-138030273D01*
X131280054Y-138049177D01*
X131215502Y-138062480D01*
X131207390Y-138063693D01*
X131189664Y-138065565D01*
X131165730Y-138067130D01*
X131137443Y-138068361D01*
X131106658Y-138069227D01*
X131075233Y-138069701D01*
X131045023Y-138069751D01*
X131017883Y-138069351D01*
X130995671Y-138068469D01*
X130981450Y-138067243D01*
X130922818Y-138057732D01*
X130870972Y-138045236D01*
X130824648Y-138029406D01*
X130791676Y-138014589D01*
X130744401Y-137986680D01*
X130703290Y-137953342D01*
X130668178Y-137914353D01*
X130638898Y-137869486D01*
X130615284Y-137818516D01*
X130597171Y-137761220D01*
X130593517Y-137746028D01*
X130591909Y-137738826D01*
X130590491Y-137731897D01*
X130589248Y-137724681D01*
X130588166Y-137716620D01*
X130587232Y-137707154D01*
X130586431Y-137695725D01*
X130585750Y-137681774D01*
X130585173Y-137664741D01*
X130584688Y-137644068D01*
X130584280Y-137619196D01*
X130583935Y-137589566D01*
X130583640Y-137554618D01*
X130583379Y-137513794D01*
X130583140Y-137466535D01*
X130582907Y-137412282D01*
X130582668Y-137350475D01*
X130582507Y-137307108D01*
X130581035Y-136910234D01*
X130750334Y-136910234D01*
X130919633Y-136910233D01*
X130921175Y-137275358D01*
G36*
X138899900Y-135587315D02*
G01*
X138899899Y-135775697D01*
X128686983Y-135777817D01*
X128685919Y-137478558D01*
X128684856Y-139179300D01*
X128308100Y-139179300D01*
X128308100Y-135398934D01*
X138899900Y-135398934D01*
X138899900Y-135587315D01*
G37*
X138899900Y-135587315D02*
X138899899Y-135775697D01*
X128686983Y-135777817D01*
X128685919Y-137478558D01*
X128684856Y-139179300D01*
X128308100Y-139179300D01*
X128308100Y-135398934D01*
X138899900Y-135398934D01*
X138899900Y-135587315D01*
D14*
X128450000Y-130985000D02*
X126450000Y-130985000D01*
X123450000Y-130985000D02*
X121450000Y-130985000D01*
X118450000Y-130985000D02*
X116450000Y-130985000D01*
X118450000Y-118985000D02*
X116450000Y-118985000D01*
X123450000Y-118985000D02*
X121450000Y-118985000D01*
X128450000Y-118985000D02*
X126450000Y-118985000D01*
X116450000Y-130985000D02*
X116450000Y-118985000D01*
X128450000Y-118985000D02*
X128450000Y-130985000D01*
X134025000Y-117848000D02*
X134025000Y-115848000D01*
X134025000Y-112848000D02*
X134025000Y-110848000D01*
X134025000Y-107848000D02*
X134025000Y-105848000D01*
X146025000Y-107848000D02*
X146025000Y-105848000D01*
X146025000Y-112848000D02*
X146025000Y-110848000D01*
X146025000Y-117848000D02*
X146025000Y-115848000D01*
X134025000Y-105848000D02*
X146025000Y-105848000D01*
X146025000Y-117848000D02*
X134025000Y-117848000D01*
X98975000Y-117873000D02*
X98975000Y-115873000D01*
X98975000Y-112873000D02*
X98975000Y-110873000D01*
X98975000Y-107873000D02*
X98975000Y-105873000D01*
X110975000Y-107873000D02*
X110975000Y-105873000D01*
X110975000Y-112873000D02*
X110975000Y-110873000D01*
X110975000Y-117873000D02*
X110975000Y-115873000D01*
X98975000Y-105873000D02*
X110975000Y-105873000D01*
X110975000Y-117873000D02*
X98975000Y-117873000D01*
X116450000Y-104985000D02*
X116450000Y-102985000D01*
X116450000Y-99985000D02*
X116450000Y-97985000D01*
X116450000Y-94985000D02*
X116450000Y-92985000D01*
X128450000Y-94985000D02*
X128450000Y-92985000D01*
X128450000Y-99985000D02*
X128450000Y-97985000D01*
X128450000Y-104985000D02*
X128450000Y-102985000D01*
X116450000Y-92985000D02*
X128450000Y-92985000D01*
X128450000Y-104985000D02*
X116450000Y-104985000D01*
X140562064Y-100424000D02*
X140107936Y-100424000D01*
X140562064Y-101894000D02*
X140107936Y-101894000D01*
X109754936Y-100738000D02*
X110209064Y-100738000D01*
X109754936Y-102208000D02*
X110209064Y-102208000D01*
X109720748Y-100176000D02*
X110243252Y-100176000D01*
X109720748Y-98706000D02*
X110243252Y-98706000D01*
X134720064Y-123925000D02*
X134265936Y-123925000D01*
X134720064Y-122455000D02*
X134265936Y-122455000D01*
X148357186Y-121632072D02*
X149509000Y-122297072D01*
X147692186Y-122783886D02*
X148357186Y-121632072D01*
X147057186Y-123883738D02*
X149360814Y-125213738D01*
X149360814Y-125213738D02*
X142980814Y-136264222D01*
X147057186Y-123883738D02*
X140677186Y-134934222D01*
X140677186Y-134934222D02*
X142980814Y-136264222D01*
X103372936Y-126933000D02*
X103827064Y-126933000D01*
X103372936Y-125463000D02*
X103827064Y-125463000D01*
X115577252Y-107796000D02*
X115054748Y-107796000D01*
X115577252Y-106326000D02*
X115054748Y-106326000D01*
X105820000Y-127128000D02*
X108680000Y-127128000D01*
X105820000Y-125208000D02*
X105820000Y-127128000D01*
X108680000Y-125208000D02*
X105820000Y-125208000D01*
X134720064Y-126773000D02*
X134265936Y-126773000D01*
X134720064Y-128243000D02*
X134265936Y-128243000D01*
X134212064Y-96166000D02*
X133757936Y-96166000D01*
X134212064Y-97636000D02*
X133757936Y-97636000D01*
D15*
X120382000Y-108668000D02*
X124982000Y-108668000D01*
X124982000Y-108668000D02*
X124982000Y-115868000D01*
X124982000Y-115868000D02*
X120382000Y-115868000D01*
X120382000Y-115868000D02*
X120382000Y-108668000D01*
X118232000Y-108768000D02*
X120032000Y-108768000D01*
D14*
X115543064Y-109828000D02*
X115088936Y-109828000D01*
X115543064Y-108358000D02*
X115088936Y-108358000D01*
X140107936Y-98325000D02*
X140562064Y-98325000D01*
X140107936Y-99795000D02*
X140562064Y-99795000D01*
X134754252Y-126084000D02*
X134231748Y-126084000D01*
X134754252Y-124614000D02*
X134231748Y-124614000D01*
X134212064Y-101827000D02*
X133757936Y-101827000D01*
X134212064Y-100357000D02*
X133757936Y-100357000D01*
X110209064Y-96674000D02*
X109754936Y-96674000D01*
X110209064Y-98144000D02*
X109754936Y-98144000D01*
X134246252Y-99668000D02*
X133723748Y-99668000D01*
X134246252Y-98198000D02*
X133723748Y-98198000D01*
X140073748Y-97636000D02*
X140596252Y-97636000D01*
X140073748Y-96166000D02*
X140596252Y-96166000D01*
D10*
X122312133Y-131409990D02*
X122312133Y-131767133D01*
X122288323Y-131838561D01*
X122240704Y-131886180D01*
X122169276Y-131909990D01*
X122121657Y-131909990D01*
X122526419Y-131457609D02*
X122550228Y-131433800D01*
X122597847Y-131409990D01*
X122716895Y-131409990D01*
X122764514Y-131433800D01*
X122788323Y-131457609D01*
X122812133Y-131505228D01*
X122812133Y-131552847D01*
X122788323Y-131624276D01*
X122502609Y-131909990D01*
X122812133Y-131909990D01*
D16*
X114300095Y-126833380D02*
X114300095Y-127642904D01*
X114347714Y-127738142D01*
X114395333Y-127785761D01*
X114490571Y-127833380D01*
X114681047Y-127833380D01*
X114776285Y-127785761D01*
X114823904Y-127738142D01*
X114871523Y-127642904D01*
X114871523Y-126833380D01*
X115300095Y-126928619D02*
X115347714Y-126881000D01*
X115442952Y-126833380D01*
X115681047Y-126833380D01*
X115776285Y-126881000D01*
X115823904Y-126928619D01*
X115871523Y-127023857D01*
X115871523Y-127119095D01*
X115823904Y-127261952D01*
X115252476Y-127833380D01*
X115871523Y-127833380D01*
X139263095Y-102410380D02*
X139263095Y-103219904D01*
X139310714Y-103315142D01*
X139358333Y-103362761D01*
X139453571Y-103410380D01*
X139644047Y-103410380D01*
X139739285Y-103362761D01*
X139786904Y-103315142D01*
X139834523Y-103219904D01*
X139834523Y-102410380D01*
X140834523Y-103410380D02*
X140263095Y-103410380D01*
X140548809Y-103410380D02*
X140548809Y-102410380D01*
X140453571Y-102553238D01*
X140358333Y-102648476D01*
X140263095Y-102696095D01*
X104213095Y-102435380D02*
X104213095Y-103244904D01*
X104260714Y-103340142D01*
X104308333Y-103387761D01*
X104403571Y-103435380D01*
X104594047Y-103435380D01*
X104689285Y-103387761D01*
X104736904Y-103340142D01*
X104784523Y-103244904D01*
X104784523Y-102435380D01*
X105165476Y-102435380D02*
X105784523Y-102435380D01*
X105451190Y-102816333D01*
X105594047Y-102816333D01*
X105689285Y-102863952D01*
X105736904Y-102911571D01*
X105784523Y-103006809D01*
X105784523Y-103244904D01*
X105736904Y-103340142D01*
X105689285Y-103387761D01*
X105594047Y-103435380D01*
X105308333Y-103435380D01*
X105213095Y-103387761D01*
X105165476Y-103340142D01*
X121688095Y-89547380D02*
X121688095Y-90356904D01*
X121735714Y-90452142D01*
X121783333Y-90499761D01*
X121878571Y-90547380D01*
X122069047Y-90547380D01*
X122164285Y-90499761D01*
X122211904Y-90452142D01*
X122259523Y-90356904D01*
X122259523Y-89547380D01*
X123164285Y-89880714D02*
X123164285Y-90547380D01*
X122926190Y-89499761D02*
X122688095Y-90214047D01*
X123307142Y-90214047D01*
X137120333Y-101671380D02*
X136787000Y-101195190D01*
X136548904Y-101671380D02*
X136548904Y-100671380D01*
X136929857Y-100671380D01*
X137025095Y-100719000D01*
X137072714Y-100766619D01*
X137120333Y-100861857D01*
X137120333Y-101004714D01*
X137072714Y-101099952D01*
X137025095Y-101147571D01*
X136929857Y-101195190D01*
X136548904Y-101195190D01*
X137453666Y-100671380D02*
X138072714Y-100671380D01*
X137739380Y-101052333D01*
X137882238Y-101052333D01*
X137977476Y-101099952D01*
X138025095Y-101147571D01*
X138072714Y-101242809D01*
X138072714Y-101480904D01*
X138025095Y-101576142D01*
X137977476Y-101623761D01*
X137882238Y-101671380D01*
X137596523Y-101671380D01*
X137501285Y-101623761D01*
X137453666Y-101576142D01*
X112863333Y-102560380D02*
X112530000Y-102084190D01*
X112291904Y-102560380D02*
X112291904Y-101560380D01*
X112672857Y-101560380D01*
X112768095Y-101608000D01*
X112815714Y-101655619D01*
X112863333Y-101750857D01*
X112863333Y-101893714D01*
X112815714Y-101988952D01*
X112768095Y-102036571D01*
X112672857Y-102084190D01*
X112291904Y-102084190D01*
X113768095Y-101560380D02*
X113291904Y-101560380D01*
X113244285Y-102036571D01*
X113291904Y-101988952D01*
X113387142Y-101941333D01*
X113625238Y-101941333D01*
X113720476Y-101988952D01*
X113768095Y-102036571D01*
X113815714Y-102131809D01*
X113815714Y-102369904D01*
X113768095Y-102465142D01*
X113720476Y-102512761D01*
X113625238Y-102560380D01*
X113387142Y-102560380D01*
X113291904Y-102512761D01*
X113244285Y-102465142D01*
X112863333Y-101195142D02*
X112815714Y-101242761D01*
X112672857Y-101290380D01*
X112577619Y-101290380D01*
X112434761Y-101242761D01*
X112339523Y-101147523D01*
X112291904Y-101052285D01*
X112244285Y-100861809D01*
X112244285Y-100718952D01*
X112291904Y-100528476D01*
X112339523Y-100433238D01*
X112434761Y-100338000D01*
X112577619Y-100290380D01*
X112672857Y-100290380D01*
X112815714Y-100338000D01*
X112863333Y-100385619D01*
X113720476Y-100623714D02*
X113720476Y-101290380D01*
X113482380Y-100242761D02*
X113244285Y-100957047D01*
X113863333Y-100957047D01*
X131405333Y-124658380D02*
X131072000Y-124182190D01*
X130833904Y-124658380D02*
X130833904Y-123658380D01*
X131214857Y-123658380D01*
X131310095Y-123706000D01*
X131357714Y-123753619D01*
X131405333Y-123848857D01*
X131405333Y-123991714D01*
X131357714Y-124086952D01*
X131310095Y-124134571D01*
X131214857Y-124182190D01*
X130833904Y-124182190D01*
X132262476Y-123658380D02*
X132072000Y-123658380D01*
X131976761Y-123706000D01*
X131929142Y-123753619D01*
X131833904Y-123896476D01*
X131786285Y-124086952D01*
X131786285Y-124467904D01*
X131833904Y-124563142D01*
X131881523Y-124610761D01*
X131976761Y-124658380D01*
X132167238Y-124658380D01*
X132262476Y-124610761D01*
X132310095Y-124563142D01*
X132357714Y-124467904D01*
X132357714Y-124229809D01*
X132310095Y-124134571D01*
X132262476Y-124086952D01*
X132167238Y-124039333D01*
X131976761Y-124039333D01*
X131881523Y-124086952D01*
X131833904Y-124134571D01*
X131786285Y-124229809D01*
X149994134Y-120790128D02*
X149636991Y-121408717D01*
X149524323Y-121508626D01*
X149394225Y-121543485D01*
X149246698Y-121513296D01*
X149164219Y-121465677D01*
X150360159Y-122156153D02*
X149865288Y-121870439D01*
X150112723Y-122013296D02*
X150612723Y-121147271D01*
X150458816Y-121223370D01*
X150328719Y-121258229D01*
X150222430Y-121251849D01*
X102957142Y-125000380D02*
X102623809Y-124524190D01*
X102385714Y-125000380D02*
X102385714Y-124000380D01*
X102766666Y-124000380D01*
X102861904Y-124048000D01*
X102909523Y-124095619D01*
X102957142Y-124190857D01*
X102957142Y-124333714D01*
X102909523Y-124428952D01*
X102861904Y-124476571D01*
X102766666Y-124524190D01*
X102385714Y-124524190D01*
X103909523Y-125000380D02*
X103338095Y-125000380D01*
X103623809Y-125000380D02*
X103623809Y-124000380D01*
X103528571Y-124143238D01*
X103433333Y-124238476D01*
X103338095Y-124286095D01*
X104528571Y-124000380D02*
X104623809Y-124000380D01*
X104719047Y-124048000D01*
X104766666Y-124095619D01*
X104814285Y-124190857D01*
X104861904Y-124381333D01*
X104861904Y-124619428D01*
X104814285Y-124809904D01*
X104766666Y-124905142D01*
X104719047Y-124952761D01*
X104623809Y-125000380D01*
X104528571Y-125000380D01*
X104433333Y-124952761D01*
X104385714Y-124905142D01*
X104338095Y-124809904D01*
X104290476Y-124619428D01*
X104290476Y-124381333D01*
X104338095Y-124190857D01*
X104385714Y-124095619D01*
X104433333Y-124048000D01*
X104528571Y-124000380D01*
X115149333Y-105640142D02*
X115101714Y-105687761D01*
X114958857Y-105735380D01*
X114863619Y-105735380D01*
X114720761Y-105687761D01*
X114625523Y-105592523D01*
X114577904Y-105497285D01*
X114530285Y-105306809D01*
X114530285Y-105163952D01*
X114577904Y-104973476D01*
X114625523Y-104878238D01*
X114720761Y-104783000D01*
X114863619Y-104735380D01*
X114958857Y-104735380D01*
X115101714Y-104783000D01*
X115149333Y-104830619D01*
X116101714Y-105735380D02*
X115530285Y-105735380D01*
X115816000Y-105735380D02*
X115816000Y-104735380D01*
X115720761Y-104878238D01*
X115625523Y-104973476D01*
X115530285Y-105021095D01*
X106560952Y-124970380D02*
X106084761Y-124970380D01*
X106084761Y-123970380D01*
X106894285Y-124446571D02*
X107227619Y-124446571D01*
X107370476Y-124970380D02*
X106894285Y-124970380D01*
X106894285Y-123970380D01*
X107370476Y-123970380D01*
X107799047Y-124970380D02*
X107799047Y-123970380D01*
X108037142Y-123970380D01*
X108180000Y-124018000D01*
X108275238Y-124113238D01*
X108322857Y-124208476D01*
X108370476Y-124398952D01*
X108370476Y-124541809D01*
X108322857Y-124732285D01*
X108275238Y-124827523D01*
X108180000Y-124922761D01*
X108037142Y-124970380D01*
X107799047Y-124970380D01*
X109322857Y-124970380D02*
X108751428Y-124970380D01*
X109037142Y-124970380D02*
X109037142Y-123970380D01*
X108941904Y-124113238D01*
X108846666Y-124208476D01*
X108751428Y-124256095D01*
X131405333Y-127198380D02*
X131072000Y-126722190D01*
X130833904Y-127198380D02*
X130833904Y-126198380D01*
X131214857Y-126198380D01*
X131310095Y-126246000D01*
X131357714Y-126293619D01*
X131405333Y-126388857D01*
X131405333Y-126531714D01*
X131357714Y-126626952D01*
X131310095Y-126674571D01*
X131214857Y-126722190D01*
X130833904Y-126722190D01*
X132262476Y-126531714D02*
X132262476Y-127198380D01*
X132024380Y-126150761D02*
X131786285Y-126865047D01*
X132405333Y-126865047D01*
X130770333Y-99004380D02*
X130437000Y-98528190D01*
X130198904Y-99004380D02*
X130198904Y-98004380D01*
X130579857Y-98004380D01*
X130675095Y-98052000D01*
X130722714Y-98099619D01*
X130770333Y-98194857D01*
X130770333Y-98337714D01*
X130722714Y-98432952D01*
X130675095Y-98480571D01*
X130579857Y-98528190D01*
X130198904Y-98528190D01*
X131246523Y-99004380D02*
X131437000Y-99004380D01*
X131532238Y-98956761D01*
X131579857Y-98909142D01*
X131675095Y-98766285D01*
X131722714Y-98575809D01*
X131722714Y-98194857D01*
X131675095Y-98099619D01*
X131627476Y-98052000D01*
X131532238Y-98004380D01*
X131341761Y-98004380D01*
X131246523Y-98052000D01*
X131198904Y-98099619D01*
X131151285Y-98194857D01*
X131151285Y-98432952D01*
X131198904Y-98528190D01*
X131246523Y-98575809D01*
X131341761Y-98623428D01*
X131532238Y-98623428D01*
X131627476Y-98575809D01*
X131675095Y-98528190D01*
X131722714Y-98432952D01*
D17*
X121442238Y-108270523D02*
X121442238Y-107000523D01*
X122772714Y-108149571D02*
X122712238Y-108210047D01*
X122530809Y-108270523D01*
X122409857Y-108270523D01*
X122228428Y-108210047D01*
X122107476Y-108089095D01*
X122047000Y-107968142D01*
X121986523Y-107726238D01*
X121986523Y-107544809D01*
X122047000Y-107302904D01*
X122107476Y-107181952D01*
X122228428Y-107061000D01*
X122409857Y-107000523D01*
X122530809Y-107000523D01*
X122712238Y-107061000D01*
X122772714Y-107121476D01*
X123982238Y-108270523D02*
X123256523Y-108270523D01*
X123619380Y-108270523D02*
X123619380Y-107000523D01*
X123498428Y-107181952D01*
X123377476Y-107302904D01*
X123256523Y-107363380D01*
D16*
X115276333Y-111450380D02*
X114943000Y-110974190D01*
X114704904Y-111450380D02*
X114704904Y-110450380D01*
X115085857Y-110450380D01*
X115181095Y-110498000D01*
X115228714Y-110545619D01*
X115276333Y-110640857D01*
X115276333Y-110783714D01*
X115228714Y-110878952D01*
X115181095Y-110926571D01*
X115085857Y-110974190D01*
X114704904Y-110974190D01*
X116228714Y-111450380D02*
X115657285Y-111450380D01*
X115943000Y-111450380D02*
X115943000Y-110450380D01*
X115847761Y-110593238D01*
X115752523Y-110688476D01*
X115657285Y-110736095D01*
X137120333Y-100274380D02*
X136787000Y-99798190D01*
X136548904Y-100274380D02*
X136548904Y-99274380D01*
X136929857Y-99274380D01*
X137025095Y-99322000D01*
X137072714Y-99369619D01*
X137120333Y-99464857D01*
X137120333Y-99607714D01*
X137072714Y-99702952D01*
X137025095Y-99750571D01*
X136929857Y-99798190D01*
X136548904Y-99798190D01*
X137501285Y-99369619D02*
X137548904Y-99322000D01*
X137644142Y-99274380D01*
X137882238Y-99274380D01*
X137977476Y-99322000D01*
X138025095Y-99369619D01*
X138072714Y-99464857D01*
X138072714Y-99560095D01*
X138025095Y-99702952D01*
X137453666Y-100274380D01*
X138072714Y-100274380D01*
X131405333Y-125833142D02*
X131357714Y-125880761D01*
X131214857Y-125928380D01*
X131119619Y-125928380D01*
X130976761Y-125880761D01*
X130881523Y-125785523D01*
X130833904Y-125690285D01*
X130786285Y-125499809D01*
X130786285Y-125356952D01*
X130833904Y-125166476D01*
X130881523Y-125071238D01*
X130976761Y-124976000D01*
X131119619Y-124928380D01*
X131214857Y-124928380D01*
X131357714Y-124976000D01*
X131405333Y-125023619D01*
X131738666Y-124928380D02*
X132357714Y-124928380D01*
X132024380Y-125309333D01*
X132167238Y-125309333D01*
X132262476Y-125356952D01*
X132310095Y-125404571D01*
X132357714Y-125499809D01*
X132357714Y-125737904D01*
X132310095Y-125833142D01*
X132262476Y-125880761D01*
X132167238Y-125928380D01*
X131881523Y-125928380D01*
X131786285Y-125880761D01*
X131738666Y-125833142D01*
X130770333Y-101544380D02*
X130437000Y-101068190D01*
X130198904Y-101544380D02*
X130198904Y-100544380D01*
X130579857Y-100544380D01*
X130675095Y-100592000D01*
X130722714Y-100639619D01*
X130770333Y-100734857D01*
X130770333Y-100877714D01*
X130722714Y-100972952D01*
X130675095Y-101020571D01*
X130579857Y-101068190D01*
X130198904Y-101068190D01*
X131103666Y-100544380D02*
X131770333Y-100544380D01*
X131341761Y-101544380D01*
X112863333Y-100020380D02*
X112530000Y-99544190D01*
X112291904Y-100020380D02*
X112291904Y-99020380D01*
X112672857Y-99020380D01*
X112768095Y-99068000D01*
X112815714Y-99115619D01*
X112863333Y-99210857D01*
X112863333Y-99353714D01*
X112815714Y-99448952D01*
X112768095Y-99496571D01*
X112672857Y-99544190D01*
X112291904Y-99544190D01*
X113434761Y-99448952D02*
X113339523Y-99401333D01*
X113291904Y-99353714D01*
X113244285Y-99258476D01*
X113244285Y-99210857D01*
X113291904Y-99115619D01*
X113339523Y-99068000D01*
X113434761Y-99020380D01*
X113625238Y-99020380D01*
X113720476Y-99068000D01*
X113768095Y-99115619D01*
X113815714Y-99210857D01*
X113815714Y-99258476D01*
X113768095Y-99353714D01*
X113720476Y-99401333D01*
X113625238Y-99448952D01*
X113434761Y-99448952D01*
X113339523Y-99496571D01*
X113291904Y-99544190D01*
X113244285Y-99639428D01*
X113244285Y-99829904D01*
X113291904Y-99925142D01*
X113339523Y-99972761D01*
X113434761Y-100020380D01*
X113625238Y-100020380D01*
X113720476Y-99972761D01*
X113768095Y-99925142D01*
X113815714Y-99829904D01*
X113815714Y-99639428D01*
X113768095Y-99544190D01*
X113720476Y-99496571D01*
X113625238Y-99448952D01*
X130770333Y-100179142D02*
X130722714Y-100226761D01*
X130579857Y-100274380D01*
X130484619Y-100274380D01*
X130341761Y-100226761D01*
X130246523Y-100131523D01*
X130198904Y-100036285D01*
X130151285Y-99845809D01*
X130151285Y-99702952D01*
X130198904Y-99512476D01*
X130246523Y-99417238D01*
X130341761Y-99322000D01*
X130484619Y-99274380D01*
X130579857Y-99274380D01*
X130722714Y-99322000D01*
X130770333Y-99369619D01*
X131675095Y-99274380D02*
X131198904Y-99274380D01*
X131151285Y-99750571D01*
X131198904Y-99702952D01*
X131294142Y-99655333D01*
X131532238Y-99655333D01*
X131627476Y-99702952D01*
X131675095Y-99750571D01*
X131722714Y-99845809D01*
X131722714Y-100083904D01*
X131675095Y-100179142D01*
X131627476Y-100226761D01*
X131532238Y-100274380D01*
X131294142Y-100274380D01*
X131198904Y-100226761D01*
X131151285Y-100179142D01*
X136993333Y-98782142D02*
X136945714Y-98829761D01*
X136802857Y-98877380D01*
X136707619Y-98877380D01*
X136564761Y-98829761D01*
X136469523Y-98734523D01*
X136421904Y-98639285D01*
X136374285Y-98448809D01*
X136374285Y-98305952D01*
X136421904Y-98115476D01*
X136469523Y-98020238D01*
X136564761Y-97925000D01*
X136707619Y-97877380D01*
X136802857Y-97877380D01*
X136945714Y-97925000D01*
X136993333Y-97972619D01*
X137374285Y-97972619D02*
X137421904Y-97925000D01*
X137517142Y-97877380D01*
X137755238Y-97877380D01*
X137850476Y-97925000D01*
X137898095Y-97972619D01*
X137945714Y-98067857D01*
X137945714Y-98163095D01*
X137898095Y-98305952D01*
X137326666Y-98877380D01*
X137945714Y-98877380D01*
M02*
