G04 #@! TF.GenerationSoftware,KiCad,Pcbnew,(5.1.6)-1*
G04 #@! TF.CreationDate,2021-11-15T17:53:34+01:00*
G04 #@! TF.ProjectId,STEM,5354454d-2e6b-4696-9361-645f70636258,A*
G04 #@! TF.SameCoordinates,Original*
G04 #@! TF.FileFunction,Legend,Bot*
G04 #@! TF.FilePolarity,Positive*
%FSLAX46Y46*%
G04 Gerber Fmt 4.6, Leading zero omitted, Abs format (unit mm)*
G04 Created by KiCad (PCBNEW (5.1.6)-1) date 2021-11-15 17:53:34*
%MOMM*%
%LPD*%
G01*
G04 APERTURE LIST*
%ADD10C,0.250000*%
G04 APERTURE END LIST*
D10*
X128531142Y-89352380D02*
X128531142Y-88352380D01*
X128150190Y-88352380D02*
X127912095Y-89352380D01*
X127721619Y-88638095D01*
X127531142Y-89352380D01*
X127293047Y-88352380D01*
X126959714Y-89066666D02*
X126483523Y-89066666D01*
X127054952Y-89352380D02*
X126721619Y-88352380D01*
X126388285Y-89352380D01*
X126102571Y-89304761D02*
X125959714Y-89352380D01*
X125721619Y-89352380D01*
X125626380Y-89304761D01*
X125578761Y-89257142D01*
X125531142Y-89161904D01*
X125531142Y-89066666D01*
X125578761Y-88971428D01*
X125626380Y-88923809D01*
X125721619Y-88876190D01*
X125912095Y-88828571D01*
X126007333Y-88780952D01*
X126054952Y-88733333D01*
X126102571Y-88638095D01*
X126102571Y-88542857D01*
X126054952Y-88447619D01*
X126007333Y-88400000D01*
X125912095Y-88352380D01*
X125674000Y-88352380D01*
X125531142Y-88400000D01*
X125245428Y-88352380D02*
X124674000Y-88352380D01*
X124959714Y-89352380D02*
X124959714Y-88352380D01*
X123245428Y-88828571D02*
X123102571Y-88876190D01*
X123054952Y-88923809D01*
X123007333Y-89019047D01*
X123007333Y-89161904D01*
X123054952Y-89257142D01*
X123102571Y-89304761D01*
X123197809Y-89352380D01*
X123578761Y-89352380D01*
X123578761Y-88352380D01*
X123245428Y-88352380D01*
X123150190Y-88400000D01*
X123102571Y-88447619D01*
X123054952Y-88542857D01*
X123054952Y-88638095D01*
X123102571Y-88733333D01*
X123150190Y-88780952D01*
X123245428Y-88828571D01*
X123578761Y-88828571D01*
X122150190Y-88685714D02*
X122150190Y-89352380D01*
X122578761Y-88685714D02*
X122578761Y-89209523D01*
X122531142Y-89304761D01*
X122435904Y-89352380D01*
X122293047Y-89352380D01*
X122197809Y-89304761D01*
X122150190Y-89257142D01*
X121816857Y-88685714D02*
X121435904Y-88685714D01*
X121674000Y-88352380D02*
X121674000Y-89209523D01*
X121626380Y-89304761D01*
X121531142Y-89352380D01*
X121435904Y-89352380D01*
X121245428Y-88685714D02*
X120864476Y-88685714D01*
X121102571Y-88352380D02*
X121102571Y-89209523D01*
X121054952Y-89304761D01*
X120959714Y-89352380D01*
X120864476Y-89352380D01*
X120388285Y-89352380D02*
X120483523Y-89304761D01*
X120531142Y-89257142D01*
X120578761Y-89161904D01*
X120578761Y-88876190D01*
X120531142Y-88780952D01*
X120483523Y-88733333D01*
X120388285Y-88685714D01*
X120245428Y-88685714D01*
X120150190Y-88733333D01*
X120102571Y-88780952D01*
X120054952Y-88876190D01*
X120054952Y-89161904D01*
X120102571Y-89257142D01*
X120150190Y-89304761D01*
X120245428Y-89352380D01*
X120388285Y-89352380D01*
X119626380Y-88685714D02*
X119626380Y-89352380D01*
X119626380Y-88780952D02*
X119578761Y-88733333D01*
X119483523Y-88685714D01*
X119340666Y-88685714D01*
X119245428Y-88733333D01*
X119197809Y-88828571D01*
X119197809Y-89352380D01*
X118769238Y-89304761D02*
X118674000Y-89352380D01*
X118483523Y-89352380D01*
X118388285Y-89304761D01*
X118340666Y-89209523D01*
X118340666Y-89161904D01*
X118388285Y-89066666D01*
X118483523Y-89019047D01*
X118626380Y-89019047D01*
X118721619Y-88971428D01*
X118769238Y-88876190D01*
X118769238Y-88828571D01*
X118721619Y-88733333D01*
X118626380Y-88685714D01*
X118483523Y-88685714D01*
X118388285Y-88733333D01*
X117293047Y-88352380D02*
X116959714Y-89352380D01*
X116626380Y-88352380D01*
X115864476Y-88352380D02*
X116054952Y-88352380D01*
X116150190Y-88400000D01*
X116197809Y-88447619D01*
X116293047Y-88590476D01*
X116340666Y-88780952D01*
X116340666Y-89161904D01*
X116293047Y-89257142D01*
X116245428Y-89304761D01*
X116150190Y-89352380D01*
X115959714Y-89352380D01*
X115864476Y-89304761D01*
X115816857Y-89257142D01*
X115769238Y-89161904D01*
X115769238Y-88923809D01*
X115816857Y-88828571D01*
X115864476Y-88780952D01*
X115959714Y-88733333D01*
X116150190Y-88733333D01*
X116245428Y-88780952D01*
X116293047Y-88828571D01*
X116340666Y-88923809D01*
M02*
