G04 #@! TF.GenerationSoftware,KiCad,Pcbnew,(5.1.6)-1*
G04 #@! TF.CreationDate,2021-11-15T17:53:34+01:00*
G04 #@! TF.ProjectId,STEM,5354454d-2e6b-4696-9361-645f70636258,A*
G04 #@! TF.SameCoordinates,Original*
G04 #@! TF.FileFunction,Paste,Top*
G04 #@! TF.FilePolarity,Positive*
%FSLAX46Y46*%
G04 Gerber Fmt 4.6, Leading zero omitted, Abs format (unit mm)*
G04 Created by KiCad (PCBNEW (5.1.6)-1) date 2021-11-15 17:53:34*
%MOMM*%
%LPD*%
G01*
G04 APERTURE LIST*
%ADD10R,1.000000X2.500000*%
%ADD11R,1.800000X0.450000*%
G04 APERTURE END LIST*
D10*
X120015000Y-138430000D03*
X120015000Y-134730000D03*
X122555000Y-138430000D03*
X122555000Y-134730000D03*
X125095000Y-138430000D03*
X125095000Y-134730000D03*
G36*
G01*
X139935000Y-100708999D02*
X139935000Y-101609001D01*
G75*
G02*
X139685001Y-101859000I-249999J0D01*
G01*
X138984999Y-101859000D01*
G75*
G02*
X138735000Y-101609001I0J249999D01*
G01*
X138735000Y-100708999D01*
G75*
G02*
X138984999Y-100459000I249999J0D01*
G01*
X139685001Y-100459000D01*
G75*
G02*
X139935000Y-100708999I0J-249999D01*
G01*
G37*
G36*
G01*
X141935000Y-100708999D02*
X141935000Y-101609001D01*
G75*
G02*
X141685001Y-101859000I-249999J0D01*
G01*
X140984999Y-101859000D01*
G75*
G02*
X140735000Y-101609001I0J249999D01*
G01*
X140735000Y-100708999D01*
G75*
G02*
X140984999Y-100459000I249999J0D01*
G01*
X141685001Y-100459000D01*
G75*
G02*
X141935000Y-100708999I0J-249999D01*
G01*
G37*
G36*
G01*
X108382000Y-101923001D02*
X108382000Y-101022999D01*
G75*
G02*
X108631999Y-100773000I249999J0D01*
G01*
X109332001Y-100773000D01*
G75*
G02*
X109582000Y-101022999I0J-249999D01*
G01*
X109582000Y-101923001D01*
G75*
G02*
X109332001Y-102173000I-249999J0D01*
G01*
X108631999Y-102173000D01*
G75*
G02*
X108382000Y-101923001I0J249999D01*
G01*
G37*
G36*
G01*
X110382000Y-101923001D02*
X110382000Y-101022999D01*
G75*
G02*
X110631999Y-100773000I249999J0D01*
G01*
X111332001Y-100773000D01*
G75*
G02*
X111582000Y-101022999I0J-249999D01*
G01*
X111582000Y-101923001D01*
G75*
G02*
X111332001Y-102173000I-249999J0D01*
G01*
X110631999Y-102173000D01*
G75*
G02*
X110382000Y-101923001I0J249999D01*
G01*
G37*
G36*
G01*
X110432000Y-99916000D02*
X110432000Y-98966000D01*
G75*
G02*
X110682000Y-98716000I250000J0D01*
G01*
X111357000Y-98716000D01*
G75*
G02*
X111607000Y-98966000I0J-250000D01*
G01*
X111607000Y-99916000D01*
G75*
G02*
X111357000Y-100166000I-250000J0D01*
G01*
X110682000Y-100166000D01*
G75*
G02*
X110432000Y-99916000I0J250000D01*
G01*
G37*
G36*
G01*
X108357000Y-99916000D02*
X108357000Y-98966000D01*
G75*
G02*
X108607000Y-98716000I250000J0D01*
G01*
X109282000Y-98716000D01*
G75*
G02*
X109532000Y-98966000I0J-250000D01*
G01*
X109532000Y-99916000D01*
G75*
G02*
X109282000Y-100166000I-250000J0D01*
G01*
X108607000Y-100166000D01*
G75*
G02*
X108357000Y-99916000I0J250000D01*
G01*
G37*
G36*
G01*
X136093000Y-122739999D02*
X136093000Y-123640001D01*
G75*
G02*
X135843001Y-123890000I-249999J0D01*
G01*
X135142999Y-123890000D01*
G75*
G02*
X134893000Y-123640001I0J249999D01*
G01*
X134893000Y-122739999D01*
G75*
G02*
X135142999Y-122490000I249999J0D01*
G01*
X135843001Y-122490000D01*
G75*
G02*
X136093000Y-122739999I0J-249999D01*
G01*
G37*
G36*
G01*
X134093000Y-122739999D02*
X134093000Y-123640001D01*
G75*
G02*
X133843001Y-123890000I-249999J0D01*
G01*
X133142999Y-123890000D01*
G75*
G02*
X132893000Y-123640001I0J249999D01*
G01*
X132893000Y-122739999D01*
G75*
G02*
X133142999Y-122490000I249999J0D01*
G01*
X133843001Y-122490000D01*
G75*
G02*
X134093000Y-122739999I0J-249999D01*
G01*
G37*
G36*
G01*
X104000000Y-126648001D02*
X104000000Y-125747999D01*
G75*
G02*
X104249999Y-125498000I249999J0D01*
G01*
X104950001Y-125498000D01*
G75*
G02*
X105200000Y-125747999I0J-249999D01*
G01*
X105200000Y-126648001D01*
G75*
G02*
X104950001Y-126898000I-249999J0D01*
G01*
X104249999Y-126898000D01*
G75*
G02*
X104000000Y-126648001I0J249999D01*
G01*
G37*
G36*
G01*
X102000000Y-126648001D02*
X102000000Y-125747999D01*
G75*
G02*
X102249999Y-125498000I249999J0D01*
G01*
X102950001Y-125498000D01*
G75*
G02*
X103200000Y-125747999I0J-249999D01*
G01*
X103200000Y-126648001D01*
G75*
G02*
X102950001Y-126898000I-249999J0D01*
G01*
X102249999Y-126898000D01*
G75*
G02*
X102000000Y-126648001I0J249999D01*
G01*
G37*
G36*
G01*
X116941000Y-106586000D02*
X116941000Y-107536000D01*
G75*
G02*
X116691000Y-107786000I-250000J0D01*
G01*
X116016000Y-107786000D01*
G75*
G02*
X115766000Y-107536000I0J250000D01*
G01*
X115766000Y-106586000D01*
G75*
G02*
X116016000Y-106336000I250000J0D01*
G01*
X116691000Y-106336000D01*
G75*
G02*
X116941000Y-106586000I0J-250000D01*
G01*
G37*
G36*
G01*
X114866000Y-106586000D02*
X114866000Y-107536000D01*
G75*
G02*
X114616000Y-107786000I-250000J0D01*
G01*
X113941000Y-107786000D01*
G75*
G02*
X113691000Y-107536000I0J250000D01*
G01*
X113691000Y-106586000D01*
G75*
G02*
X113941000Y-106336000I250000J0D01*
G01*
X114616000Y-106336000D01*
G75*
G02*
X114866000Y-106586000I0J-250000D01*
G01*
G37*
G36*
G01*
X108130000Y-126618001D02*
X108130000Y-125717999D01*
G75*
G02*
X108379999Y-125468000I249999J0D01*
G01*
X109030001Y-125468000D01*
G75*
G02*
X109280000Y-125717999I0J-249999D01*
G01*
X109280000Y-126618001D01*
G75*
G02*
X109030001Y-126868000I-249999J0D01*
G01*
X108379999Y-126868000D01*
G75*
G02*
X108130000Y-126618001I0J249999D01*
G01*
G37*
G36*
G01*
X106080000Y-126618001D02*
X106080000Y-125717999D01*
G75*
G02*
X106329999Y-125468000I249999J0D01*
G01*
X106980001Y-125468000D01*
G75*
G02*
X107230000Y-125717999I0J-249999D01*
G01*
X107230000Y-126618001D01*
G75*
G02*
X106980001Y-126868000I-249999J0D01*
G01*
X106329999Y-126868000D01*
G75*
G02*
X106080000Y-126618001I0J249999D01*
G01*
G37*
G36*
G01*
X134093000Y-127057999D02*
X134093000Y-127958001D01*
G75*
G02*
X133843001Y-128208000I-249999J0D01*
G01*
X133142999Y-128208000D01*
G75*
G02*
X132893000Y-127958001I0J249999D01*
G01*
X132893000Y-127057999D01*
G75*
G02*
X133142999Y-126808000I249999J0D01*
G01*
X133843001Y-126808000D01*
G75*
G02*
X134093000Y-127057999I0J-249999D01*
G01*
G37*
G36*
G01*
X136093000Y-127057999D02*
X136093000Y-127958001D01*
G75*
G02*
X135843001Y-128208000I-249999J0D01*
G01*
X135142999Y-128208000D01*
G75*
G02*
X134893000Y-127958001I0J249999D01*
G01*
X134893000Y-127057999D01*
G75*
G02*
X135142999Y-126808000I249999J0D01*
G01*
X135843001Y-126808000D01*
G75*
G02*
X136093000Y-127057999I0J-249999D01*
G01*
G37*
G36*
G01*
X133585000Y-96450999D02*
X133585000Y-97351001D01*
G75*
G02*
X133335001Y-97601000I-249999J0D01*
G01*
X132634999Y-97601000D01*
G75*
G02*
X132385000Y-97351001I0J249999D01*
G01*
X132385000Y-96450999D01*
G75*
G02*
X132634999Y-96201000I249999J0D01*
G01*
X133335001Y-96201000D01*
G75*
G02*
X133585000Y-96450999I0J-249999D01*
G01*
G37*
G36*
G01*
X135585000Y-96450999D02*
X135585000Y-97351001D01*
G75*
G02*
X135335001Y-97601000I-249999J0D01*
G01*
X134634999Y-97601000D01*
G75*
G02*
X134385000Y-97351001I0J249999D01*
G01*
X134385000Y-96450999D01*
G75*
G02*
X134634999Y-96201000I249999J0D01*
G01*
X135335001Y-96201000D01*
G75*
G02*
X135585000Y-96450999I0J-249999D01*
G01*
G37*
D11*
X119132000Y-109343000D03*
X119132000Y-109993000D03*
X119132000Y-110643000D03*
X119132000Y-111293000D03*
X119132000Y-111943000D03*
X119132000Y-112593000D03*
X119132000Y-113243000D03*
X119132000Y-113893000D03*
X119132000Y-114543000D03*
X119132000Y-115193000D03*
X126232000Y-115193000D03*
X126232000Y-114543000D03*
X126232000Y-113893000D03*
X126232000Y-113243000D03*
X126232000Y-112593000D03*
X126232000Y-111943000D03*
X126232000Y-111293000D03*
X126232000Y-110643000D03*
X126232000Y-109993000D03*
X126232000Y-109343000D03*
G36*
G01*
X116916000Y-108642999D02*
X116916000Y-109543001D01*
G75*
G02*
X116666001Y-109793000I-249999J0D01*
G01*
X115965999Y-109793000D01*
G75*
G02*
X115716000Y-109543001I0J249999D01*
G01*
X115716000Y-108642999D01*
G75*
G02*
X115965999Y-108393000I249999J0D01*
G01*
X116666001Y-108393000D01*
G75*
G02*
X116916000Y-108642999I0J-249999D01*
G01*
G37*
G36*
G01*
X114916000Y-108642999D02*
X114916000Y-109543001D01*
G75*
G02*
X114666001Y-109793000I-249999J0D01*
G01*
X113965999Y-109793000D01*
G75*
G02*
X113716000Y-109543001I0J249999D01*
G01*
X113716000Y-108642999D01*
G75*
G02*
X113965999Y-108393000I249999J0D01*
G01*
X114666001Y-108393000D01*
G75*
G02*
X114916000Y-108642999I0J-249999D01*
G01*
G37*
G36*
G01*
X138735000Y-99510001D02*
X138735000Y-98609999D01*
G75*
G02*
X138984999Y-98360000I249999J0D01*
G01*
X139685001Y-98360000D01*
G75*
G02*
X139935000Y-98609999I0J-249999D01*
G01*
X139935000Y-99510001D01*
G75*
G02*
X139685001Y-99760000I-249999J0D01*
G01*
X138984999Y-99760000D01*
G75*
G02*
X138735000Y-99510001I0J249999D01*
G01*
G37*
G36*
G01*
X140735000Y-99510001D02*
X140735000Y-98609999D01*
G75*
G02*
X140984999Y-98360000I249999J0D01*
G01*
X141685001Y-98360000D01*
G75*
G02*
X141935000Y-98609999I0J-249999D01*
G01*
X141935000Y-99510001D01*
G75*
G02*
X141685001Y-99760000I-249999J0D01*
G01*
X140984999Y-99760000D01*
G75*
G02*
X140735000Y-99510001I0J249999D01*
G01*
G37*
G36*
G01*
X136118000Y-124874000D02*
X136118000Y-125824000D01*
G75*
G02*
X135868000Y-126074000I-250000J0D01*
G01*
X135193000Y-126074000D01*
G75*
G02*
X134943000Y-125824000I0J250000D01*
G01*
X134943000Y-124874000D01*
G75*
G02*
X135193000Y-124624000I250000J0D01*
G01*
X135868000Y-124624000D01*
G75*
G02*
X136118000Y-124874000I0J-250000D01*
G01*
G37*
G36*
G01*
X134043000Y-124874000D02*
X134043000Y-125824000D01*
G75*
G02*
X133793000Y-126074000I-250000J0D01*
G01*
X133118000Y-126074000D01*
G75*
G02*
X132868000Y-125824000I0J250000D01*
G01*
X132868000Y-124874000D01*
G75*
G02*
X133118000Y-124624000I250000J0D01*
G01*
X133793000Y-124624000D01*
G75*
G02*
X134043000Y-124874000I0J-250000D01*
G01*
G37*
G36*
G01*
X135585000Y-100641999D02*
X135585000Y-101542001D01*
G75*
G02*
X135335001Y-101792000I-249999J0D01*
G01*
X134634999Y-101792000D01*
G75*
G02*
X134385000Y-101542001I0J249999D01*
G01*
X134385000Y-100641999D01*
G75*
G02*
X134634999Y-100392000I249999J0D01*
G01*
X135335001Y-100392000D01*
G75*
G02*
X135585000Y-100641999I0J-249999D01*
G01*
G37*
G36*
G01*
X133585000Y-100641999D02*
X133585000Y-101542001D01*
G75*
G02*
X133335001Y-101792000I-249999J0D01*
G01*
X132634999Y-101792000D01*
G75*
G02*
X132385000Y-101542001I0J249999D01*
G01*
X132385000Y-100641999D01*
G75*
G02*
X132634999Y-100392000I249999J0D01*
G01*
X133335001Y-100392000D01*
G75*
G02*
X133585000Y-100641999I0J-249999D01*
G01*
G37*
G36*
G01*
X109582000Y-96958999D02*
X109582000Y-97859001D01*
G75*
G02*
X109332001Y-98109000I-249999J0D01*
G01*
X108631999Y-98109000D01*
G75*
G02*
X108382000Y-97859001I0J249999D01*
G01*
X108382000Y-96958999D01*
G75*
G02*
X108631999Y-96709000I249999J0D01*
G01*
X109332001Y-96709000D01*
G75*
G02*
X109582000Y-96958999I0J-249999D01*
G01*
G37*
G36*
G01*
X111582000Y-96958999D02*
X111582000Y-97859001D01*
G75*
G02*
X111332001Y-98109000I-249999J0D01*
G01*
X110631999Y-98109000D01*
G75*
G02*
X110382000Y-97859001I0J249999D01*
G01*
X110382000Y-96958999D01*
G75*
G02*
X110631999Y-96709000I249999J0D01*
G01*
X111332001Y-96709000D01*
G75*
G02*
X111582000Y-96958999I0J-249999D01*
G01*
G37*
G36*
G01*
X135610000Y-98458000D02*
X135610000Y-99408000D01*
G75*
G02*
X135360000Y-99658000I-250000J0D01*
G01*
X134685000Y-99658000D01*
G75*
G02*
X134435000Y-99408000I0J250000D01*
G01*
X134435000Y-98458000D01*
G75*
G02*
X134685000Y-98208000I250000J0D01*
G01*
X135360000Y-98208000D01*
G75*
G02*
X135610000Y-98458000I0J-250000D01*
G01*
G37*
G36*
G01*
X133535000Y-98458000D02*
X133535000Y-99408000D01*
G75*
G02*
X133285000Y-99658000I-250000J0D01*
G01*
X132610000Y-99658000D01*
G75*
G02*
X132360000Y-99408000I0J250000D01*
G01*
X132360000Y-98458000D01*
G75*
G02*
X132610000Y-98208000I250000J0D01*
G01*
X133285000Y-98208000D01*
G75*
G02*
X133535000Y-98458000I0J-250000D01*
G01*
G37*
G36*
G01*
X140785000Y-97376000D02*
X140785000Y-96426000D01*
G75*
G02*
X141035000Y-96176000I250000J0D01*
G01*
X141710000Y-96176000D01*
G75*
G02*
X141960000Y-96426000I0J-250000D01*
G01*
X141960000Y-97376000D01*
G75*
G02*
X141710000Y-97626000I-250000J0D01*
G01*
X141035000Y-97626000D01*
G75*
G02*
X140785000Y-97376000I0J250000D01*
G01*
G37*
G36*
G01*
X138710000Y-97376000D02*
X138710000Y-96426000D01*
G75*
G02*
X138960000Y-96176000I250000J0D01*
G01*
X139635000Y-96176000D01*
G75*
G02*
X139885000Y-96426000I0J-250000D01*
G01*
X139885000Y-97376000D01*
G75*
G02*
X139635000Y-97626000I-250000J0D01*
G01*
X138960000Y-97626000D01*
G75*
G02*
X138710000Y-97376000I0J250000D01*
G01*
G37*
M02*
