G04 #@! TF.GenerationSoftware,KiCad,Pcbnew,(5.1.6)-1*
G04 #@! TF.CreationDate,2021-11-15T17:53:34+01:00*
G04 #@! TF.ProjectId,STEM,5354454d-2e6b-4696-9361-645f70636258,A*
G04 #@! TF.SameCoordinates,Original*
G04 #@! TF.FileFunction,Copper,L2,Bot*
G04 #@! TF.FilePolarity,Positive*
%FSLAX46Y46*%
G04 Gerber Fmt 4.6, Leading zero omitted, Abs format (unit mm)*
G04 Created by KiCad (PCBNEW (5.1.6)-1) date 2021-11-15 17:53:34*
%MOMM*%
%LPD*%
G01*
G04 APERTURE LIST*
G04 #@! TA.AperFunction,WasherPad*
%ADD10C,1.900000*%
G04 #@! TD*
G04 #@! TA.AperFunction,ComponentPad*
%ADD11C,1.400000*%
G04 #@! TD*
G04 #@! TA.AperFunction,ComponentPad*
%ADD12C,2.000000*%
G04 #@! TD*
G04 #@! TA.AperFunction,ComponentPad*
%ADD13C,0.100000*%
G04 #@! TD*
G04 #@! TA.AperFunction,ViaPad*
%ADD14C,0.800000*%
G04 #@! TD*
G04 #@! TA.AperFunction,Conductor*
%ADD15C,1.000000*%
G04 #@! TD*
G04 #@! TA.AperFunction,Conductor*
%ADD16C,0.400000*%
G04 #@! TD*
G04 #@! TA.AperFunction,Conductor*
%ADD17C,0.254000*%
G04 #@! TD*
G04 APERTURE END LIST*
D10*
X126950000Y-124985000D03*
X117950000Y-124985000D03*
D11*
X115450000Y-124985000D03*
X129450000Y-124985000D03*
D12*
X119950000Y-131235000D03*
X124950000Y-131235000D03*
X119950000Y-118735000D03*
X124950000Y-118735000D03*
D10*
X140025000Y-116348000D03*
X140025000Y-107348000D03*
D11*
X140025000Y-104848000D03*
X140025000Y-118848000D03*
D12*
X133775000Y-109348000D03*
X133775000Y-114348000D03*
X146275000Y-109348000D03*
X146275000Y-114348000D03*
D10*
X104975000Y-116373000D03*
X104975000Y-107373000D03*
D11*
X104975000Y-104873000D03*
X104975000Y-118873000D03*
D12*
X98725000Y-109373000D03*
X98725000Y-114373000D03*
X111225000Y-109373000D03*
X111225000Y-114373000D03*
D10*
X122450000Y-103485000D03*
X122450000Y-94485000D03*
D11*
X122450000Y-91985000D03*
X122450000Y-105985000D03*
D12*
X116200000Y-96485000D03*
X116200000Y-101485000D03*
X128700000Y-96485000D03*
X128700000Y-101485000D03*
G04 #@! TA.AperFunction,ComponentPad*
G36*
G01*
X141757878Y-134022409D02*
X141757878Y-134022409D01*
G75*
G02*
X142919000Y-133711287I736122J-425000D01*
G01*
X142919000Y-133711287D01*
G75*
G02*
X143230122Y-134872409I-425000J-736122D01*
G01*
X143230122Y-134872409D01*
G75*
G02*
X142069000Y-135183531I-736122J425000D01*
G01*
X142069000Y-135183531D01*
G75*
G02*
X141757878Y-134022409I425000J736122D01*
G01*
G37*
G04 #@! TD.AperFunction*
G04 #@! TA.AperFunction,ComponentPad*
G36*
G01*
X143027878Y-131822704D02*
X143027878Y-131822704D01*
G75*
G02*
X144189000Y-131511582I736122J-425000D01*
G01*
X144189000Y-131511582D01*
G75*
G02*
X144500122Y-132672704I-425000J-736122D01*
G01*
X144500122Y-132672704D01*
G75*
G02*
X143339000Y-132983826I-736122J425000D01*
G01*
X143339000Y-132983826D01*
G75*
G02*
X143027878Y-131822704I425000J736122D01*
G01*
G37*
G04 #@! TD.AperFunction*
G04 #@! TA.AperFunction,ComponentPad*
G36*
G01*
X144297878Y-129623000D02*
X144297878Y-129623000D01*
G75*
G02*
X145459000Y-129311878I736122J-425000D01*
G01*
X145459000Y-129311878D01*
G75*
G02*
X145770122Y-130473000I-425000J-736122D01*
G01*
X145770122Y-130473000D01*
G75*
G02*
X144609000Y-130784122I-736122J425000D01*
G01*
X144609000Y-130784122D01*
G75*
G02*
X144297878Y-129623000I425000J736122D01*
G01*
G37*
G04 #@! TD.AperFunction*
G04 #@! TA.AperFunction,ComponentPad*
G36*
G01*
X145567878Y-127423295D02*
X145567878Y-127423295D01*
G75*
G02*
X146729000Y-127112173I736122J-425000D01*
G01*
X146729000Y-127112173D01*
G75*
G02*
X147040122Y-128273295I-425000J-736122D01*
G01*
X147040122Y-128273295D01*
G75*
G02*
X145879000Y-128584417I-736122J425000D01*
G01*
X145879000Y-128584417D01*
G75*
G02*
X145567878Y-127423295I425000J736122D01*
G01*
G37*
G04 #@! TD.AperFunction*
G04 #@! TA.AperFunction,ComponentPad*
G36*
G01*
X146837878Y-125223591D02*
X146837878Y-125223591D01*
G75*
G02*
X147999000Y-124912469I736122J-425000D01*
G01*
X147999000Y-124912469D01*
G75*
G02*
X148310122Y-126073591I-425000J-736122D01*
G01*
X148310122Y-126073591D01*
G75*
G02*
X147149000Y-126384713I-736122J425000D01*
G01*
X147149000Y-126384713D01*
G75*
G02*
X146837878Y-125223591I425000J736122D01*
G01*
G37*
G04 #@! TD.AperFunction*
G04 #@! TA.AperFunction,ComponentPad*
D13*
G36*
X147682878Y-123760008D02*
G01*
X148532878Y-122287764D01*
X150005122Y-123137764D01*
X149155122Y-124610008D01*
X147682878Y-123760008D01*
G37*
G04 #@! TD.AperFunction*
D14*
X131064000Y-129794000D03*
X128463000Y-134730000D03*
X127254000Y-134874000D03*
X117602000Y-134366000D03*
X116840000Y-133604000D03*
X143002000Y-121158000D03*
X143002000Y-124968000D03*
X134620000Y-102870000D03*
X111707999Y-105357999D03*
X107315000Y-102743000D03*
X109220000Y-109474000D03*
X119888000Y-120650000D03*
X135636000Y-109474000D03*
X144526000Y-109474000D03*
X118110000Y-96520000D03*
X107442000Y-99314000D03*
X100584000Y-109474000D03*
X119888000Y-129032000D03*
X122428000Y-132588000D03*
X137160000Y-125222000D03*
X136398000Y-99060000D03*
X137922000Y-97282000D03*
X113030000Y-106934000D03*
X128016000Y-109220000D03*
X144272000Y-127000000D03*
X126746000Y-96520000D03*
X136398000Y-139446000D03*
X130810000Y-143510000D03*
X141732000Y-137668000D03*
X112522000Y-143764000D03*
X110490000Y-139192000D03*
X104140000Y-138176000D03*
X99568000Y-131064000D03*
X94234000Y-121920000D03*
X95250000Y-115316000D03*
X93218000Y-109220000D03*
X98044000Y-102870000D03*
X101600000Y-96774000D03*
X104648000Y-91186000D03*
X111760000Y-87376000D03*
X120650000Y-87122000D03*
X130810000Y-87122000D03*
X136144000Y-90678000D03*
X142240000Y-93218000D03*
X145796000Y-98806000D03*
X148844000Y-104648000D03*
X152654000Y-111252000D03*
X152400000Y-119126000D03*
X112268000Y-124206000D03*
X129032000Y-131572000D03*
X130810000Y-120142000D03*
X135890000Y-118110000D03*
X145542000Y-118618000D03*
X126238000Y-103378000D03*
X121666000Y-97790000D03*
X110744000Y-117602000D03*
X108712000Y-131826000D03*
X134366000Y-132588000D03*
X104902000Y-121666000D03*
X122936000Y-110236000D03*
X138049000Y-105410000D03*
X140081000Y-125095000D03*
X139954000Y-121666000D03*
X127889000Y-117348000D03*
X112776000Y-111506000D03*
X107188000Y-122936000D03*
X109728000Y-121666000D03*
X120650000Y-116840000D03*
X123444000Y-113792000D03*
X121920000Y-114300000D03*
X117856000Y-117602000D03*
X120904000Y-112268000D03*
X135128000Y-121920000D03*
X105737000Y-114373000D03*
X114046000Y-113538000D03*
X112776000Y-98044000D03*
X115570000Y-114300000D03*
X116332000Y-115062000D03*
X136144000Y-95758000D03*
X128524000Y-113284000D03*
X143256000Y-99060000D03*
X132080000Y-112268000D03*
X141224000Y-102870000D03*
X131572000Y-123190000D03*
D15*
X131064000Y-126599000D02*
X129450000Y-124985000D01*
X131064000Y-129794000D02*
X131064000Y-126599000D01*
X128463000Y-134730000D02*
X117966000Y-134730000D01*
X117966000Y-134730000D02*
X117602000Y-134366000D01*
X142335000Y-121158000D02*
X140025000Y-118848000D01*
X143002000Y-121158000D02*
X142335000Y-121158000D01*
X138176000Y-129794000D02*
X131064000Y-129794000D01*
X143002000Y-124968000D02*
X138176000Y-129794000D01*
X122450000Y-105985000D02*
X131505000Y-105985000D01*
X131505000Y-105985000D02*
X134620000Y-102870000D01*
X109093000Y-102743000D02*
X111707999Y-105357999D01*
X107315000Y-102743000D02*
X109093000Y-102743000D01*
D16*
X119950000Y-118735000D02*
X119950000Y-120588000D01*
X119950000Y-120588000D02*
X119888000Y-120650000D01*
X146275000Y-109348000D02*
X144652000Y-109348000D01*
X144652000Y-109348000D02*
X144526000Y-109474000D01*
X116200000Y-96485000D02*
X118075000Y-96485000D01*
X118075000Y-96485000D02*
X118110000Y-96520000D01*
X98725000Y-109373000D02*
X100483000Y-109373000D01*
X100483000Y-109373000D02*
X100584000Y-109474000D01*
X135472884Y-123448886D02*
X148844000Y-123448886D01*
X134413997Y-122389999D02*
X135472884Y-123448886D01*
X120443997Y-122389999D02*
X134413997Y-122389999D01*
X112776000Y-114722002D02*
X120443997Y-122389999D01*
X112776000Y-111506000D02*
X112776000Y-114722002D01*
X107188000Y-122936000D02*
X108458000Y-122936000D01*
X108458000Y-122936000D02*
X109728000Y-121666000D01*
X120650000Y-116840000D02*
X123444000Y-114046000D01*
X123444000Y-114046000D02*
X123444000Y-113792000D01*
X121920000Y-114300000D02*
X121158000Y-114300000D01*
X121158000Y-114300000D02*
X117856000Y-117602000D01*
X120904000Y-112268000D02*
X125476000Y-112268000D01*
X125476000Y-112268000D02*
X135128000Y-121920000D01*
X105737000Y-114373000D02*
X98725000Y-114373000D01*
X111225000Y-114373000D02*
X105737000Y-114373000D01*
X114046000Y-113538000D02*
X114046000Y-99314000D01*
X114046000Y-99314000D02*
X112776000Y-98044000D01*
X116586000Y-101871000D02*
X116200000Y-101485000D01*
X115570000Y-114300000D02*
X115062000Y-113792000D01*
X115062000Y-102623000D02*
X116200000Y-101485000D01*
X115062000Y-113792000D02*
X115062000Y-102623000D01*
X116897685Y-115062000D02*
X119126000Y-112833685D01*
X116332000Y-115062000D02*
X116897685Y-115062000D01*
X119126000Y-112833685D02*
X119126000Y-104140000D01*
X119126000Y-104140000D02*
X124206000Y-99060000D01*
X124206000Y-99060000D02*
X132842000Y-99060000D01*
X132842000Y-99060000D02*
X136144000Y-95758000D01*
X129588000Y-114348000D02*
X133775000Y-114348000D01*
X128524000Y-113284000D02*
X129588000Y-114348000D01*
X142034000Y-100282000D02*
X143256000Y-99060000D01*
X142034000Y-114348000D02*
X142034000Y-100282000D01*
X142034000Y-114348000D02*
X146275000Y-114348000D01*
X133775000Y-114348000D02*
X142034000Y-114348000D01*
X138180998Y-102870000D02*
X141224000Y-102870000D01*
X132080000Y-112268000D02*
X132080000Y-108970998D01*
X132080000Y-108970998D02*
X138180998Y-102870000D01*
X117245000Y-123190000D02*
X115450000Y-124985000D01*
X131572000Y-123190000D02*
X117245000Y-123190000D01*
D17*
G36*
X134306055Y-85554039D02*
G01*
X134364767Y-85583697D01*
X134416599Y-85624192D01*
X134459582Y-85673989D01*
X134492072Y-85731181D01*
X134512835Y-85793598D01*
X134521079Y-85858858D01*
X134513950Y-85960817D01*
X134505857Y-86014422D01*
X134504001Y-86050006D01*
X134499039Y-86085313D01*
X134498718Y-86094523D01*
X134490630Y-86384124D01*
X134494803Y-86443798D01*
X134498142Y-86503521D01*
X134499616Y-86512618D01*
X134547932Y-86798275D01*
X134563610Y-86855978D01*
X134578493Y-86913944D01*
X134581705Y-86922581D01*
X134684586Y-87193412D01*
X134711188Y-87247001D01*
X134737031Y-87300939D01*
X134741860Y-87308788D01*
X134895385Y-87554479D01*
X134931891Y-87601882D01*
X134967717Y-87649772D01*
X134973978Y-87656533D01*
X135172302Y-87867725D01*
X135217316Y-87907132D01*
X135261767Y-87947155D01*
X135269222Y-87952571D01*
X135502487Y-88119570D01*
X135527027Y-88137417D01*
X137443114Y-89261639D01*
X137444992Y-89262985D01*
X137471008Y-89278005D01*
X137497033Y-89293275D01*
X137499140Y-89294248D01*
X139432375Y-90410405D01*
X139437093Y-90412543D01*
X139454361Y-90422155D01*
X139484469Y-90435248D01*
X139513192Y-90451173D01*
X139521675Y-90454774D01*
X139792081Y-90567364D01*
X139849264Y-90584852D01*
X139906237Y-90603151D01*
X139915258Y-90605036D01*
X140202383Y-90662960D01*
X140261867Y-90669008D01*
X140321318Y-90675893D01*
X140330533Y-90675990D01*
X140623441Y-90677041D01*
X140683007Y-90671416D01*
X140742619Y-90666626D01*
X140751677Y-90664932D01*
X141039213Y-90609071D01*
X141096527Y-90591991D01*
X141154103Y-90575705D01*
X141162659Y-90572283D01*
X141433867Y-90461636D01*
X141486764Y-90433753D01*
X141540088Y-90406590D01*
X141547812Y-90401574D01*
X141547815Y-90401572D01*
X141547817Y-90401570D01*
X141792367Y-90240354D01*
X141801568Y-90232905D01*
X141908991Y-90159351D01*
X141969448Y-90133439D01*
X142033791Y-90119763D01*
X142099565Y-90118844D01*
X142164259Y-90130718D01*
X142225416Y-90154932D01*
X142280708Y-90190565D01*
X142347708Y-90255267D01*
X156743297Y-115188998D01*
X142317850Y-140174449D01*
X142264361Y-140226830D01*
X142209317Y-140262849D01*
X142148331Y-140287489D01*
X142083721Y-140299814D01*
X142017943Y-140299355D01*
X141953508Y-140286128D01*
X141892870Y-140260638D01*
X141808137Y-140203485D01*
X141765764Y-140169676D01*
X141735860Y-140150267D01*
X141707775Y-140128324D01*
X141699960Y-140123441D01*
X141453202Y-139971635D01*
X141399478Y-139945432D01*
X141346043Y-139918440D01*
X141337428Y-139915168D01*
X141065883Y-139814182D01*
X141008027Y-139798896D01*
X140950435Y-139782816D01*
X140941349Y-139781279D01*
X140655361Y-139734959D01*
X140595675Y-139731204D01*
X140536016Y-139726613D01*
X140526805Y-139726871D01*
X140237267Y-139736982D01*
X140177972Y-139744894D01*
X140118576Y-139751976D01*
X140109589Y-139754018D01*
X139827528Y-139820175D01*
X139770884Y-139839458D01*
X139714008Y-139857938D01*
X139705590Y-139861686D01*
X139444205Y-139980256D01*
X139416597Y-139992533D01*
X137484965Y-141089795D01*
X137482849Y-141090754D01*
X137456694Y-141105855D01*
X137430597Y-141120679D01*
X137428711Y-141122011D01*
X135495465Y-142238172D01*
X135491261Y-142241185D01*
X135474299Y-142251335D01*
X135447905Y-142270864D01*
X135419753Y-142287775D01*
X135412393Y-142293321D01*
X135179682Y-142471205D01*
X135135910Y-142512015D01*
X135091612Y-142552174D01*
X135085469Y-142559043D01*
X134891742Y-142778739D01*
X134856749Y-142827248D01*
X134821075Y-142875273D01*
X134816383Y-142883205D01*
X134669018Y-143136346D01*
X134644105Y-143190748D01*
X134618447Y-143244768D01*
X134615385Y-143253460D01*
X134519996Y-143530403D01*
X134506128Y-143588592D01*
X134491448Y-143646578D01*
X134490134Y-143655699D01*
X134450352Y-143945895D01*
X134448051Y-144005643D01*
X134444912Y-144065409D01*
X134445394Y-144074612D01*
X134462737Y-144367009D01*
X134464582Y-144378668D01*
X134474573Y-144508511D01*
X134466786Y-144573822D01*
X134446458Y-144636382D01*
X134414368Y-144693801D01*
X134371735Y-144743895D01*
X134320186Y-144784752D01*
X134261685Y-144814818D01*
X134174901Y-144839702D01*
X127731440Y-144839698D01*
X127731441Y-144218702D01*
X127734634Y-144186282D01*
X127721891Y-144056899D01*
X127684151Y-143932489D01*
X127622866Y-143817832D01*
X127540389Y-143717334D01*
X127439891Y-143634857D01*
X127325234Y-143573572D01*
X127200824Y-143535832D01*
X127103860Y-143526282D01*
X127103850Y-143526282D01*
X127071441Y-143523090D01*
X127039029Y-143526282D01*
X125153830Y-143526282D01*
X125243317Y-143310242D01*
X125300000Y-143025275D01*
X125300000Y-142734725D01*
X125243317Y-142449758D01*
X125132128Y-142181325D01*
X124970707Y-141939742D01*
X124765258Y-141734293D01*
X124523675Y-141572872D01*
X124255242Y-141461683D01*
X123970275Y-141405000D01*
X123679725Y-141405000D01*
X123394758Y-141461683D01*
X123126325Y-141572872D01*
X122884742Y-141734293D01*
X122679293Y-141939742D01*
X122555000Y-142125759D01*
X122430707Y-141939742D01*
X122225258Y-141734293D01*
X121983675Y-141572872D01*
X121715242Y-141461683D01*
X121430275Y-141405000D01*
X121139725Y-141405000D01*
X120854758Y-141461683D01*
X120586325Y-141572872D01*
X120344742Y-141734293D01*
X120139293Y-141939742D01*
X119977872Y-142181325D01*
X119866683Y-142449758D01*
X119810000Y-142734725D01*
X119810000Y-143025275D01*
X119866683Y-143310242D01*
X119956170Y-143526282D01*
X117959859Y-143526282D01*
X117927440Y-143523089D01*
X117895021Y-143526282D01*
X117798057Y-143535832D01*
X117673647Y-143573572D01*
X117558990Y-143634857D01*
X117458492Y-143717334D01*
X117376015Y-143817832D01*
X117314730Y-143932489D01*
X117276990Y-144056899D01*
X117264247Y-144186282D01*
X117267441Y-144218711D01*
X117267440Y-144839700D01*
X105386450Y-144839700D01*
X103881417Y-142232921D01*
X104621200Y-142232921D01*
X104621200Y-142653479D01*
X104703247Y-143065956D01*
X104864188Y-143454502D01*
X105097837Y-143804183D01*
X105395217Y-144101563D01*
X105744898Y-144335212D01*
X106133444Y-144496153D01*
X106545921Y-144578200D01*
X106966479Y-144578200D01*
X107378956Y-144496153D01*
X107767502Y-144335212D01*
X108117183Y-144101563D01*
X108414563Y-143804183D01*
X108648212Y-143454502D01*
X108809153Y-143065956D01*
X108891200Y-142653479D01*
X108891200Y-142232921D01*
X108809153Y-141820444D01*
X108648212Y-141431898D01*
X108414563Y-141082217D01*
X108117183Y-140784837D01*
X107767502Y-140551188D01*
X107378956Y-140390247D01*
X106966479Y-140308200D01*
X106545921Y-140308200D01*
X106133444Y-140390247D01*
X105744898Y-140551188D01*
X105395217Y-140784837D01*
X105097837Y-141082217D01*
X104864188Y-141431898D01*
X104703247Y-141820444D01*
X104621200Y-142232921D01*
X103881417Y-142232921D01*
X98840622Y-133502061D01*
X115805000Y-133502061D01*
X115805000Y-133705939D01*
X115844774Y-133905898D01*
X115922795Y-134094256D01*
X116036063Y-134263774D01*
X116180226Y-134407937D01*
X116349744Y-134521205D01*
X116482199Y-134576070D01*
X116483423Y-134588498D01*
X116548324Y-134802446D01*
X116653717Y-134999622D01*
X116760012Y-135129143D01*
X117124008Y-135493140D01*
X117159551Y-135536449D01*
X117332377Y-135678284D01*
X117529553Y-135783676D01*
X117554373Y-135791205D01*
X117743501Y-135848577D01*
X117966000Y-135870491D01*
X118021752Y-135865000D01*
X126941900Y-135865000D01*
X126952102Y-135869226D01*
X127152061Y-135909000D01*
X127355939Y-135909000D01*
X127555898Y-135869226D01*
X127566100Y-135865000D01*
X128518752Y-135865000D01*
X128685499Y-135848577D01*
X128899447Y-135783676D01*
X129096623Y-135678284D01*
X129269449Y-135536449D01*
X129411284Y-135363623D01*
X129516676Y-135166447D01*
X129581577Y-134952499D01*
X129603491Y-134730000D01*
X129581577Y-134507501D01*
X129518981Y-134301149D01*
X141009000Y-134301149D01*
X141009000Y-134593669D01*
X141066068Y-134880567D01*
X141178010Y-135150820D01*
X141340525Y-135394041D01*
X141547368Y-135600884D01*
X141790589Y-135763399D01*
X142060842Y-135875341D01*
X142347740Y-135932409D01*
X142640260Y-135932409D01*
X142927158Y-135875341D01*
X143197411Y-135763399D01*
X143440632Y-135600884D01*
X143647475Y-135394041D01*
X143809990Y-135150820D01*
X143921932Y-134880567D01*
X143979000Y-134593669D01*
X143979000Y-134301149D01*
X143921932Y-134014251D01*
X143809990Y-133743998D01*
X143802444Y-133732704D01*
X143910260Y-133732704D01*
X144197158Y-133675636D01*
X144467411Y-133563694D01*
X144710632Y-133401179D01*
X144917475Y-133194336D01*
X145079990Y-132951115D01*
X145191932Y-132680862D01*
X145249000Y-132393964D01*
X145249000Y-132101444D01*
X145191932Y-131814546D01*
X145079990Y-131544293D01*
X145072444Y-131533000D01*
X145180260Y-131533000D01*
X145467158Y-131475932D01*
X145737411Y-131363990D01*
X145980632Y-131201475D01*
X146187475Y-130994632D01*
X146349990Y-130751411D01*
X146461932Y-130481158D01*
X146519000Y-130194260D01*
X146519000Y-129901740D01*
X146461932Y-129614842D01*
X146349990Y-129344589D01*
X146337455Y-129325830D01*
X146469687Y-129324027D01*
X146754405Y-129263347D01*
X147021813Y-129148288D01*
X147261636Y-128983270D01*
X147373910Y-128878109D01*
X147383788Y-128618358D01*
X146350485Y-128021780D01*
X146340485Y-128039101D01*
X146120515Y-127912101D01*
X146130515Y-127894780D01*
X145097212Y-127298203D01*
X144877200Y-127436633D01*
X144842265Y-127586445D01*
X144819267Y-127876647D01*
X144853326Y-128165759D01*
X144943135Y-128442672D01*
X145010436Y-128563000D01*
X144887740Y-128563000D01*
X144600842Y-128620068D01*
X144330589Y-128732010D01*
X144087368Y-128894525D01*
X143880525Y-129101368D01*
X143718010Y-129344589D01*
X143606068Y-129614842D01*
X143549000Y-129901740D01*
X143549000Y-130194260D01*
X143606068Y-130481158D01*
X143718010Y-130751411D01*
X143725556Y-130762704D01*
X143617740Y-130762704D01*
X143330842Y-130819772D01*
X143060589Y-130931714D01*
X142817368Y-131094229D01*
X142610525Y-131301072D01*
X142448010Y-131544293D01*
X142336068Y-131814546D01*
X142279000Y-132101444D01*
X142279000Y-132393964D01*
X142336068Y-132680862D01*
X142448010Y-132951115D01*
X142455556Y-132962409D01*
X142347740Y-132962409D01*
X142060842Y-133019477D01*
X141790589Y-133131419D01*
X141547368Y-133293934D01*
X141340525Y-133500777D01*
X141178010Y-133743998D01*
X141066068Y-134014251D01*
X141009000Y-134301149D01*
X129518981Y-134301149D01*
X129516676Y-134293553D01*
X129411284Y-134096377D01*
X129269449Y-133923551D01*
X129096623Y-133781716D01*
X128899447Y-133676324D01*
X128685499Y-133611423D01*
X128518752Y-133595000D01*
X118436131Y-133595000D01*
X118365143Y-133524012D01*
X118235622Y-133417717D01*
X118038446Y-133312324D01*
X117824498Y-133247423D01*
X117812070Y-133246199D01*
X117757205Y-133113744D01*
X117643937Y-132944226D01*
X117499774Y-132800063D01*
X117330256Y-132686795D01*
X117141898Y-132608774D01*
X116941939Y-132569000D01*
X116738061Y-132569000D01*
X116538102Y-132608774D01*
X116349744Y-132686795D01*
X116180226Y-132800063D01*
X116036063Y-132944226D01*
X115922795Y-133113744D01*
X115844774Y-133302102D01*
X115805000Y-133502061D01*
X98840622Y-133502061D01*
X98187262Y-132370413D01*
X118994192Y-132370413D01*
X119089956Y-132634814D01*
X119379571Y-132775704D01*
X119691108Y-132857384D01*
X120012595Y-132876718D01*
X120331675Y-132832961D01*
X120636088Y-132727795D01*
X120810044Y-132634814D01*
X120905808Y-132370413D01*
X119950000Y-131414605D01*
X118994192Y-132370413D01*
X98187262Y-132370413D01*
X97567866Y-131297595D01*
X118308282Y-131297595D01*
X118352039Y-131616675D01*
X118457205Y-131921088D01*
X118550186Y-132095044D01*
X118814587Y-132190808D01*
X119770395Y-131235000D01*
X120129605Y-131235000D01*
X121085413Y-132190808D01*
X121349814Y-132095044D01*
X121490704Y-131805429D01*
X121572384Y-131493892D01*
X121591718Y-131172405D01*
X121578219Y-131073967D01*
X123315000Y-131073967D01*
X123315000Y-131396033D01*
X123377832Y-131711912D01*
X123501082Y-132009463D01*
X123680013Y-132277252D01*
X123907748Y-132504987D01*
X124175537Y-132683918D01*
X124473088Y-132807168D01*
X124788967Y-132870000D01*
X125111033Y-132870000D01*
X125426912Y-132807168D01*
X125724463Y-132683918D01*
X125992252Y-132504987D01*
X126219987Y-132277252D01*
X126398918Y-132009463D01*
X126522168Y-131711912D01*
X126585000Y-131396033D01*
X126585000Y-131073967D01*
X126522168Y-130758088D01*
X126398918Y-130460537D01*
X126219987Y-130192748D01*
X125992252Y-129965013D01*
X125724463Y-129786082D01*
X125426912Y-129662832D01*
X125111033Y-129600000D01*
X124788967Y-129600000D01*
X124473088Y-129662832D01*
X124175537Y-129786082D01*
X123907748Y-129965013D01*
X123680013Y-130192748D01*
X123501082Y-130460537D01*
X123377832Y-130758088D01*
X123315000Y-131073967D01*
X121578219Y-131073967D01*
X121547961Y-130853325D01*
X121442795Y-130548912D01*
X121349814Y-130374956D01*
X121085413Y-130279192D01*
X120129605Y-131235000D01*
X119770395Y-131235000D01*
X118814587Y-130279192D01*
X118550186Y-130374956D01*
X118409296Y-130664571D01*
X118327616Y-130976108D01*
X118308282Y-131297595D01*
X97567866Y-131297595D01*
X96876192Y-130099587D01*
X118994192Y-130099587D01*
X119950000Y-131055395D01*
X120905808Y-130099587D01*
X120810044Y-129835186D01*
X120520429Y-129694296D01*
X120208892Y-129612616D01*
X119887405Y-129593282D01*
X119568325Y-129637039D01*
X119263912Y-129742205D01*
X119089956Y-129835186D01*
X118994192Y-130099587D01*
X96876192Y-130099587D01*
X92681411Y-122834061D01*
X106153000Y-122834061D01*
X106153000Y-123037939D01*
X106192774Y-123237898D01*
X106270795Y-123426256D01*
X106384063Y-123595774D01*
X106528226Y-123739937D01*
X106697744Y-123853205D01*
X106886102Y-123931226D01*
X107086061Y-123971000D01*
X107289939Y-123971000D01*
X107489898Y-123931226D01*
X107678256Y-123853205D01*
X107801285Y-123771000D01*
X108416982Y-123771000D01*
X108458000Y-123775040D01*
X108499018Y-123771000D01*
X108499019Y-123771000D01*
X108621689Y-123758918D01*
X108779087Y-123711172D01*
X108924146Y-123633636D01*
X109051291Y-123529291D01*
X109077446Y-123497421D01*
X109884775Y-122690092D01*
X110029898Y-122661226D01*
X110218256Y-122583205D01*
X110387774Y-122469937D01*
X110531937Y-122325774D01*
X110645205Y-122156256D01*
X110723226Y-121967898D01*
X110763000Y-121767939D01*
X110763000Y-121564061D01*
X110723226Y-121364102D01*
X110645205Y-121175744D01*
X110531937Y-121006226D01*
X110387774Y-120862063D01*
X110218256Y-120748795D01*
X110029898Y-120670774D01*
X109829939Y-120631000D01*
X109626061Y-120631000D01*
X109426102Y-120670774D01*
X109237744Y-120748795D01*
X109068226Y-120862063D01*
X108924063Y-121006226D01*
X108810795Y-121175744D01*
X108732774Y-121364102D01*
X108703908Y-121509225D01*
X108112133Y-122101000D01*
X107801285Y-122101000D01*
X107678256Y-122018795D01*
X107489898Y-121940774D01*
X107289939Y-121901000D01*
X107086061Y-121901000D01*
X106886102Y-121940774D01*
X106697744Y-122018795D01*
X106528226Y-122132063D01*
X106384063Y-122276226D01*
X106270795Y-122445744D01*
X106192774Y-122634102D01*
X106153000Y-122834061D01*
X92681411Y-122834061D01*
X90973546Y-119875972D01*
X90943147Y-119757572D01*
X90939474Y-119691893D01*
X90948629Y-119626758D01*
X90970261Y-119564640D01*
X91003545Y-119507908D01*
X91047219Y-119458717D01*
X91099612Y-119418948D01*
X91191473Y-119374144D01*
X91241941Y-119354352D01*
X91273702Y-119338159D01*
X91306747Y-119324808D01*
X91314883Y-119320482D01*
X91569732Y-119182686D01*
X91619331Y-119149231D01*
X91669377Y-119116482D01*
X91676518Y-119110658D01*
X91899747Y-118925987D01*
X91941873Y-118883566D01*
X91984640Y-118841685D01*
X91990514Y-118834585D01*
X92173622Y-118610070D01*
X92206723Y-118560249D01*
X92240519Y-118510892D01*
X92244902Y-118502785D01*
X92380916Y-118246982D01*
X92403711Y-118191676D01*
X92427277Y-118136693D01*
X92430002Y-118127890D01*
X92513739Y-117850540D01*
X92525357Y-117791863D01*
X92537795Y-117733348D01*
X92538758Y-117724183D01*
X92566854Y-117437635D01*
X92569931Y-117408488D01*
X92585491Y-115187001D01*
X92585718Y-115184697D01*
X92585718Y-115154604D01*
X92585929Y-115124484D01*
X92585718Y-115122176D01*
X92585718Y-114211967D01*
X97090000Y-114211967D01*
X97090000Y-114534033D01*
X97152832Y-114849912D01*
X97276082Y-115147463D01*
X97455013Y-115415252D01*
X97682748Y-115642987D01*
X97950537Y-115821918D01*
X98248088Y-115945168D01*
X98563967Y-116008000D01*
X98886033Y-116008000D01*
X99201912Y-115945168D01*
X99499463Y-115821918D01*
X99767252Y-115642987D01*
X99994987Y-115415252D01*
X100133468Y-115208000D01*
X103898471Y-115208000D01*
X103743850Y-115362621D01*
X103570391Y-115622221D01*
X103450911Y-115910673D01*
X103390000Y-116216891D01*
X103390000Y-116529109D01*
X103450911Y-116835327D01*
X103570391Y-117123779D01*
X103743850Y-117383379D01*
X103964621Y-117604150D01*
X104217827Y-117773337D01*
X104123987Y-117836038D01*
X103938038Y-118021987D01*
X103791939Y-118240641D01*
X103691304Y-118483595D01*
X103640000Y-118741514D01*
X103640000Y-119004486D01*
X103691304Y-119262405D01*
X103791939Y-119505359D01*
X103938038Y-119724013D01*
X104123987Y-119909962D01*
X104342641Y-120056061D01*
X104585595Y-120156696D01*
X104843514Y-120208000D01*
X105106486Y-120208000D01*
X105364405Y-120156696D01*
X105607359Y-120056061D01*
X105826013Y-119909962D01*
X106011962Y-119724013D01*
X106158061Y-119505359D01*
X106258696Y-119262405D01*
X106310000Y-119004486D01*
X106310000Y-118741514D01*
X106258696Y-118483595D01*
X106158061Y-118240641D01*
X106011962Y-118021987D01*
X105826013Y-117836038D01*
X105732173Y-117773337D01*
X105985379Y-117604150D01*
X106206150Y-117383379D01*
X106379609Y-117123779D01*
X106499089Y-116835327D01*
X106560000Y-116529109D01*
X106560000Y-116216891D01*
X106499089Y-115910673D01*
X106379609Y-115622221D01*
X106206150Y-115362621D01*
X106161126Y-115317597D01*
X106227256Y-115290205D01*
X106350285Y-115208000D01*
X109816532Y-115208000D01*
X109955013Y-115415252D01*
X110182748Y-115642987D01*
X110450537Y-115821918D01*
X110748088Y-115945168D01*
X111063967Y-116008000D01*
X111386033Y-116008000D01*
X111701912Y-115945168D01*
X111999463Y-115821918D01*
X112267252Y-115642987D01*
X112391685Y-115518554D01*
X119228130Y-122355000D01*
X117286007Y-122355000D01*
X117244999Y-122350961D01*
X117203991Y-122355000D01*
X117203981Y-122355000D01*
X117081311Y-122367082D01*
X116923913Y-122414828D01*
X116778854Y-122492364D01*
X116651709Y-122596709D01*
X116625559Y-122628573D01*
X115600375Y-123653757D01*
X115581486Y-123650000D01*
X115318514Y-123650000D01*
X115060595Y-123701304D01*
X114817641Y-123801939D01*
X114598987Y-123948038D01*
X114413038Y-124133987D01*
X114266939Y-124352641D01*
X114166304Y-124595595D01*
X114115000Y-124853514D01*
X114115000Y-125116486D01*
X114166304Y-125374405D01*
X114266939Y-125617359D01*
X114413038Y-125836013D01*
X114598987Y-126021962D01*
X114817641Y-126168061D01*
X115060595Y-126268696D01*
X115318514Y-126320000D01*
X115581486Y-126320000D01*
X115839405Y-126268696D01*
X116082359Y-126168061D01*
X116301013Y-126021962D01*
X116486962Y-125836013D01*
X116549663Y-125742173D01*
X116718850Y-125995379D01*
X116939621Y-126216150D01*
X117199221Y-126389609D01*
X117487673Y-126509089D01*
X117793891Y-126570000D01*
X118106109Y-126570000D01*
X118412327Y-126509089D01*
X118700779Y-126389609D01*
X118960379Y-126216150D01*
X119181150Y-125995379D01*
X119354609Y-125735779D01*
X119474089Y-125447327D01*
X119535000Y-125141109D01*
X119535000Y-124828891D01*
X119474089Y-124522673D01*
X119354609Y-124234221D01*
X119214812Y-124025000D01*
X125685188Y-124025000D01*
X125545391Y-124234221D01*
X125425911Y-124522673D01*
X125365000Y-124828891D01*
X125365000Y-125141109D01*
X125425911Y-125447327D01*
X125545391Y-125735779D01*
X125718850Y-125995379D01*
X125939621Y-126216150D01*
X126199221Y-126389609D01*
X126487673Y-126509089D01*
X126793891Y-126570000D01*
X127106109Y-126570000D01*
X127412327Y-126509089D01*
X127700779Y-126389609D01*
X127960379Y-126216150D01*
X128181150Y-125995379D01*
X128350337Y-125742173D01*
X128413038Y-125836013D01*
X128598987Y-126021962D01*
X128817641Y-126168061D01*
X129060595Y-126268696D01*
X129145442Y-126285573D01*
X129929001Y-127069133D01*
X129929000Y-129738248D01*
X129923509Y-129794000D01*
X129945423Y-130016499D01*
X130010324Y-130230447D01*
X130087565Y-130374956D01*
X130115716Y-130427623D01*
X130257551Y-130600449D01*
X130430377Y-130742284D01*
X130627553Y-130847676D01*
X130841501Y-130912577D01*
X131064000Y-130934491D01*
X131119751Y-130929000D01*
X138120249Y-130929000D01*
X138176000Y-130934491D01*
X138231751Y-130929000D01*
X138231752Y-130929000D01*
X138398499Y-130912577D01*
X138612447Y-130847676D01*
X138809623Y-130742284D01*
X138982449Y-130600449D01*
X139017996Y-130557135D01*
X143843989Y-125731144D01*
X143950284Y-125601623D01*
X144055676Y-125404447D01*
X144120577Y-125190499D01*
X144142491Y-124968000D01*
X144120577Y-124745501D01*
X144055676Y-124531553D01*
X143950284Y-124334377D01*
X143908847Y-124283886D01*
X146988198Y-124283886D01*
X146870589Y-124332601D01*
X146627368Y-124495116D01*
X146420525Y-124701959D01*
X146258010Y-124945180D01*
X146146068Y-125215433D01*
X146089000Y-125502331D01*
X146089000Y-125794851D01*
X146146068Y-126081749D01*
X146258010Y-126352002D01*
X146270544Y-126370760D01*
X146138313Y-126372563D01*
X145853595Y-126433243D01*
X145586187Y-126548302D01*
X145346364Y-126713320D01*
X145234090Y-126818481D01*
X145224212Y-127078232D01*
X146257515Y-127674810D01*
X146267515Y-127657489D01*
X146487485Y-127784489D01*
X146477485Y-127801810D01*
X147510788Y-128398387D01*
X147730800Y-128259957D01*
X147765735Y-128110145D01*
X147788733Y-127819943D01*
X147754674Y-127530831D01*
X147664865Y-127253918D01*
X147597564Y-127133591D01*
X147720260Y-127133591D01*
X148007158Y-127076523D01*
X148277411Y-126964581D01*
X148520632Y-126802066D01*
X148727475Y-126595223D01*
X148889990Y-126352002D01*
X149001932Y-126081749D01*
X149059000Y-125794851D01*
X149059000Y-125502331D01*
X149004203Y-125226851D01*
X149071837Y-125242621D01*
X149196854Y-125246714D01*
X149320267Y-125226338D01*
X149437334Y-125182277D01*
X149543556Y-125116224D01*
X149634850Y-125030718D01*
X149707709Y-124929044D01*
X150557709Y-123456800D01*
X150609332Y-123342865D01*
X150637735Y-123221049D01*
X150641828Y-123096032D01*
X150621452Y-122972619D01*
X150577391Y-122855552D01*
X150511338Y-122749330D01*
X150425832Y-122658036D01*
X150324158Y-122585177D01*
X148851914Y-121735177D01*
X148737979Y-121683554D01*
X148616163Y-121655151D01*
X148491146Y-121651058D01*
X148367733Y-121671434D01*
X148250666Y-121715495D01*
X148144444Y-121781548D01*
X148053150Y-121867054D01*
X147980291Y-121968728D01*
X147607809Y-122613886D01*
X135897825Y-122613886D01*
X135931937Y-122579774D01*
X136045205Y-122410256D01*
X136123226Y-122221898D01*
X136163000Y-122021939D01*
X136163000Y-121818061D01*
X136123226Y-121618102D01*
X136045205Y-121429744D01*
X135931937Y-121260226D01*
X135787774Y-121116063D01*
X135618256Y-121002795D01*
X135429898Y-120924774D01*
X135284776Y-120895908D01*
X129574586Y-115185719D01*
X129587999Y-115187040D01*
X129629015Y-115183000D01*
X132366532Y-115183000D01*
X132505013Y-115390252D01*
X132732748Y-115617987D01*
X133000537Y-115796918D01*
X133298088Y-115920168D01*
X133613967Y-115983000D01*
X133936033Y-115983000D01*
X134251912Y-115920168D01*
X134549463Y-115796918D01*
X134817252Y-115617987D01*
X135044987Y-115390252D01*
X135183468Y-115183000D01*
X138948471Y-115183000D01*
X138793850Y-115337621D01*
X138620391Y-115597221D01*
X138500911Y-115885673D01*
X138440000Y-116191891D01*
X138440000Y-116504109D01*
X138500911Y-116810327D01*
X138620391Y-117098779D01*
X138793850Y-117358379D01*
X139014621Y-117579150D01*
X139267827Y-117748337D01*
X139173987Y-117811038D01*
X138988038Y-117996987D01*
X138841939Y-118215641D01*
X138741304Y-118458595D01*
X138690000Y-118716514D01*
X138690000Y-118979486D01*
X138741304Y-119237405D01*
X138841939Y-119480359D01*
X138988038Y-119699013D01*
X139173987Y-119884962D01*
X139392641Y-120031061D01*
X139635595Y-120131696D01*
X139720442Y-120148573D01*
X141493009Y-121921141D01*
X141528551Y-121964449D01*
X141701377Y-122106284D01*
X141898553Y-122211676D01*
X142112501Y-122276577D01*
X142279248Y-122293000D01*
X142279257Y-122293000D01*
X142334999Y-122298490D01*
X142390741Y-122293000D01*
X143057752Y-122293000D01*
X143224499Y-122276577D01*
X143438447Y-122211676D01*
X143635623Y-122106284D01*
X143808449Y-121964449D01*
X143950284Y-121791623D01*
X144055676Y-121594447D01*
X144120577Y-121380499D01*
X144142491Y-121158000D01*
X144120577Y-120935501D01*
X144055676Y-120721553D01*
X143950284Y-120524377D01*
X143808449Y-120351551D01*
X143635623Y-120209716D01*
X143438447Y-120104324D01*
X143224499Y-120039423D01*
X143057752Y-120023000D01*
X142805132Y-120023000D01*
X141325573Y-118543442D01*
X141308696Y-118458595D01*
X141208061Y-118215641D01*
X141061962Y-117996987D01*
X140876013Y-117811038D01*
X140782173Y-117748337D01*
X141035379Y-117579150D01*
X141256150Y-117358379D01*
X141429609Y-117098779D01*
X141549089Y-116810327D01*
X141610000Y-116504109D01*
X141610000Y-116191891D01*
X141549089Y-115885673D01*
X141429609Y-115597221D01*
X141256150Y-115337621D01*
X141101529Y-115183000D01*
X141992981Y-115183000D01*
X142034000Y-115187040D01*
X142075018Y-115183000D01*
X144866532Y-115183000D01*
X145005013Y-115390252D01*
X145232748Y-115617987D01*
X145500537Y-115796918D01*
X145798088Y-115920168D01*
X146113967Y-115983000D01*
X146436033Y-115983000D01*
X146751912Y-115920168D01*
X147049463Y-115796918D01*
X147317252Y-115617987D01*
X147544987Y-115390252D01*
X147723918Y-115122463D01*
X147772936Y-115004121D01*
X151865200Y-115004121D01*
X151865200Y-115424679D01*
X151947247Y-115837156D01*
X152108188Y-116225702D01*
X152341837Y-116575383D01*
X152639217Y-116872763D01*
X152988898Y-117106412D01*
X153377444Y-117267353D01*
X153789921Y-117349400D01*
X154210479Y-117349400D01*
X154622956Y-117267353D01*
X155011502Y-117106412D01*
X155361183Y-116872763D01*
X155658563Y-116575383D01*
X155892212Y-116225702D01*
X156053153Y-115837156D01*
X156135200Y-115424679D01*
X156135200Y-115004121D01*
X156053153Y-114591644D01*
X155892212Y-114203098D01*
X155658563Y-113853417D01*
X155361183Y-113556037D01*
X155011502Y-113322388D01*
X154622956Y-113161447D01*
X154210479Y-113079400D01*
X153789921Y-113079400D01*
X153377444Y-113161447D01*
X152988898Y-113322388D01*
X152639217Y-113556037D01*
X152341837Y-113853417D01*
X152108188Y-114203098D01*
X151947247Y-114591644D01*
X151865200Y-115004121D01*
X147772936Y-115004121D01*
X147847168Y-114824912D01*
X147910000Y-114509033D01*
X147910000Y-114186967D01*
X147847168Y-113871088D01*
X147723918Y-113573537D01*
X147544987Y-113305748D01*
X147317252Y-113078013D01*
X147049463Y-112899082D01*
X146751912Y-112775832D01*
X146436033Y-112713000D01*
X146113967Y-112713000D01*
X145798088Y-112775832D01*
X145500537Y-112899082D01*
X145232748Y-113078013D01*
X145005013Y-113305748D01*
X144866532Y-113513000D01*
X142869000Y-113513000D01*
X142869000Y-110483413D01*
X145319192Y-110483413D01*
X145414956Y-110747814D01*
X145704571Y-110888704D01*
X146016108Y-110970384D01*
X146337595Y-110989718D01*
X146656675Y-110945961D01*
X146961088Y-110840795D01*
X147135044Y-110747814D01*
X147230808Y-110483413D01*
X146275000Y-109527605D01*
X145319192Y-110483413D01*
X142869000Y-110483413D01*
X142869000Y-109410595D01*
X144633282Y-109410595D01*
X144677039Y-109729675D01*
X144782205Y-110034088D01*
X144875186Y-110208044D01*
X145139587Y-110303808D01*
X146095395Y-109348000D01*
X146454605Y-109348000D01*
X147410413Y-110303808D01*
X147674814Y-110208044D01*
X147815704Y-109918429D01*
X147897384Y-109606892D01*
X147916718Y-109285405D01*
X147872961Y-108966325D01*
X147767795Y-108661912D01*
X147674814Y-108487956D01*
X147410413Y-108392192D01*
X146454605Y-109348000D01*
X146095395Y-109348000D01*
X145139587Y-108392192D01*
X144875186Y-108487956D01*
X144734296Y-108777571D01*
X144652616Y-109089108D01*
X144633282Y-109410595D01*
X142869000Y-109410595D01*
X142869000Y-108212587D01*
X145319192Y-108212587D01*
X146275000Y-109168395D01*
X147230808Y-108212587D01*
X147135044Y-107948186D01*
X146845429Y-107807296D01*
X146533892Y-107725616D01*
X146212405Y-107706282D01*
X145893325Y-107750039D01*
X145588912Y-107855205D01*
X145414956Y-107948186D01*
X145319192Y-108212587D01*
X142869000Y-108212587D01*
X142869000Y-100627867D01*
X143412775Y-100084093D01*
X143557898Y-100055226D01*
X143746256Y-99977205D01*
X143915774Y-99863937D01*
X144059937Y-99719774D01*
X144173205Y-99550256D01*
X144251226Y-99361898D01*
X144291000Y-99161939D01*
X144291000Y-98958061D01*
X144251226Y-98758102D01*
X144173205Y-98569744D01*
X144059937Y-98400226D01*
X143915774Y-98256063D01*
X143746256Y-98142795D01*
X143557898Y-98064774D01*
X143357939Y-98025000D01*
X143154061Y-98025000D01*
X142954102Y-98064774D01*
X142765744Y-98142795D01*
X142596226Y-98256063D01*
X142452063Y-98400226D01*
X142338795Y-98569744D01*
X142260774Y-98758102D01*
X142231907Y-98903225D01*
X141472574Y-99662559D01*
X141440710Y-99688709D01*
X141414562Y-99720571D01*
X141336364Y-99815855D01*
X141258828Y-99960914D01*
X141211082Y-100118312D01*
X141194960Y-100282000D01*
X141199001Y-100323029D01*
X141199001Y-101835000D01*
X141122061Y-101835000D01*
X140922102Y-101874774D01*
X140733744Y-101952795D01*
X140610715Y-102035000D01*
X138222016Y-102035000D01*
X138180997Y-102030960D01*
X138139979Y-102035000D01*
X138017309Y-102047082D01*
X137859911Y-102094828D01*
X137714852Y-102172364D01*
X137587707Y-102276709D01*
X137561557Y-102308573D01*
X131518574Y-108351557D01*
X131486710Y-108377707D01*
X131460562Y-108409569D01*
X131382364Y-108504853D01*
X131304828Y-108649912D01*
X131257082Y-108807310D01*
X131240960Y-108970998D01*
X131245001Y-109012026D01*
X131245000Y-111654715D01*
X131162795Y-111777744D01*
X131084774Y-111966102D01*
X131045000Y-112166061D01*
X131045000Y-112369939D01*
X131084774Y-112569898D01*
X131162795Y-112758256D01*
X131276063Y-112927774D01*
X131420226Y-113071937D01*
X131589744Y-113185205D01*
X131778102Y-113263226D01*
X131978061Y-113303000D01*
X132181939Y-113303000D01*
X132381898Y-113263226D01*
X132570256Y-113185205D01*
X132739774Y-113071937D01*
X132883937Y-112927774D01*
X132997205Y-112758256D01*
X133075226Y-112569898D01*
X133115000Y-112369939D01*
X133115000Y-112166061D01*
X133075226Y-111966102D01*
X132997205Y-111777744D01*
X132915000Y-111654715D01*
X132915000Y-110747835D01*
X133204571Y-110888704D01*
X133516108Y-110970384D01*
X133837595Y-110989718D01*
X134156675Y-110945961D01*
X134461088Y-110840795D01*
X134635044Y-110747814D01*
X134730808Y-110483413D01*
X133775000Y-109527605D01*
X133760858Y-109541748D01*
X133581253Y-109362143D01*
X133595395Y-109348000D01*
X133954605Y-109348000D01*
X134910413Y-110303808D01*
X135174814Y-110208044D01*
X135315704Y-109918429D01*
X135397384Y-109606892D01*
X135416718Y-109285405D01*
X135372961Y-108966325D01*
X135267795Y-108661912D01*
X135174814Y-108487956D01*
X134910413Y-108392192D01*
X133954605Y-109348000D01*
X133595395Y-109348000D01*
X133581253Y-109333858D01*
X133760858Y-109154253D01*
X133775000Y-109168395D01*
X134730808Y-108212587D01*
X134635044Y-107948186D01*
X134398669Y-107833196D01*
X138526866Y-103705000D01*
X139332685Y-103705000D01*
X139173987Y-103811038D01*
X138988038Y-103996987D01*
X138841939Y-104215641D01*
X138741304Y-104458595D01*
X138690000Y-104716514D01*
X138690000Y-104979486D01*
X138741304Y-105237405D01*
X138841939Y-105480359D01*
X138988038Y-105699013D01*
X139173987Y-105884962D01*
X139267827Y-105947663D01*
X139014621Y-106116850D01*
X138793850Y-106337621D01*
X138620391Y-106597221D01*
X138500911Y-106885673D01*
X138440000Y-107191891D01*
X138440000Y-107504109D01*
X138500911Y-107810327D01*
X138620391Y-108098779D01*
X138793850Y-108358379D01*
X139014621Y-108579150D01*
X139274221Y-108752609D01*
X139562673Y-108872089D01*
X139868891Y-108933000D01*
X140181109Y-108933000D01*
X140487327Y-108872089D01*
X140775779Y-108752609D01*
X141035379Y-108579150D01*
X141199000Y-108415529D01*
X141199000Y-113513000D01*
X135183468Y-113513000D01*
X135044987Y-113305748D01*
X134817252Y-113078013D01*
X134549463Y-112899082D01*
X134251912Y-112775832D01*
X133936033Y-112713000D01*
X133613967Y-112713000D01*
X133298088Y-112775832D01*
X133000537Y-112899082D01*
X132732748Y-113078013D01*
X132505013Y-113305748D01*
X132366532Y-113513000D01*
X129933868Y-113513000D01*
X129548093Y-113127225D01*
X129519226Y-112982102D01*
X129441205Y-112793744D01*
X129327937Y-112624226D01*
X129183774Y-112480063D01*
X129014256Y-112366795D01*
X128825898Y-112288774D01*
X128625939Y-112249000D01*
X128422061Y-112249000D01*
X128222102Y-112288774D01*
X128033744Y-112366795D01*
X127864226Y-112480063D01*
X127720063Y-112624226D01*
X127606795Y-112793744D01*
X127528774Y-112982102D01*
X127502593Y-113113726D01*
X126095446Y-111706579D01*
X126069291Y-111674709D01*
X125942146Y-111570364D01*
X125797087Y-111492828D01*
X125639689Y-111445082D01*
X125517019Y-111433000D01*
X125517018Y-111433000D01*
X125476000Y-111428960D01*
X125434982Y-111433000D01*
X121517285Y-111433000D01*
X121394256Y-111350795D01*
X121205898Y-111272774D01*
X121005939Y-111233000D01*
X120802061Y-111233000D01*
X120602102Y-111272774D01*
X120413744Y-111350795D01*
X120244226Y-111464063D01*
X120100063Y-111608226D01*
X119986795Y-111777744D01*
X119961000Y-111840018D01*
X119961000Y-104485867D01*
X120865000Y-103581867D01*
X120865000Y-103641109D01*
X120925911Y-103947327D01*
X121045391Y-104235779D01*
X121218850Y-104495379D01*
X121439621Y-104716150D01*
X121692827Y-104885337D01*
X121598987Y-104948038D01*
X121413038Y-105133987D01*
X121266939Y-105352641D01*
X121166304Y-105595595D01*
X121115000Y-105853514D01*
X121115000Y-106116486D01*
X121166304Y-106374405D01*
X121266939Y-106617359D01*
X121413038Y-106836013D01*
X121598987Y-107021962D01*
X121817641Y-107168061D01*
X122060595Y-107268696D01*
X122318514Y-107320000D01*
X122581486Y-107320000D01*
X122839405Y-107268696D01*
X123082359Y-107168061D01*
X123154288Y-107120000D01*
X131449249Y-107120000D01*
X131505000Y-107125491D01*
X131560751Y-107120000D01*
X131560752Y-107120000D01*
X131727499Y-107103577D01*
X131941447Y-107038676D01*
X132138623Y-106933284D01*
X132311449Y-106791449D01*
X132346996Y-106748135D01*
X135461988Y-103633144D01*
X135568283Y-103503624D01*
X135673675Y-103306447D01*
X135738576Y-103092500D01*
X135760490Y-102870001D01*
X135738576Y-102647502D01*
X135673675Y-102433554D01*
X135568283Y-102236378D01*
X135426448Y-102063552D01*
X135253622Y-101921717D01*
X135056446Y-101816325D01*
X134842498Y-101751424D01*
X134619999Y-101729510D01*
X134397500Y-101751424D01*
X134183553Y-101816325D01*
X133986376Y-101921717D01*
X133856856Y-102028012D01*
X131034869Y-104850000D01*
X123260058Y-104850000D01*
X123460379Y-104716150D01*
X123681150Y-104495379D01*
X123854609Y-104235779D01*
X123974089Y-103947327D01*
X124035000Y-103641109D01*
X124035000Y-103328891D01*
X123974089Y-103022673D01*
X123854609Y-102734221D01*
X123681150Y-102474621D01*
X123460379Y-102253850D01*
X123200779Y-102080391D01*
X122912327Y-101960911D01*
X122606109Y-101900000D01*
X122546868Y-101900000D01*
X124551869Y-99895000D01*
X128312736Y-99895000D01*
X128223088Y-99912832D01*
X127925537Y-100036082D01*
X127657748Y-100215013D01*
X127430013Y-100442748D01*
X127251082Y-100710537D01*
X127127832Y-101008088D01*
X127065000Y-101323967D01*
X127065000Y-101646033D01*
X127127832Y-101961912D01*
X127251082Y-102259463D01*
X127430013Y-102527252D01*
X127657748Y-102754987D01*
X127925537Y-102933918D01*
X128223088Y-103057168D01*
X128538967Y-103120000D01*
X128861033Y-103120000D01*
X129176912Y-103057168D01*
X129474463Y-102933918D01*
X129742252Y-102754987D01*
X129969987Y-102527252D01*
X130148918Y-102259463D01*
X130272168Y-101961912D01*
X130335000Y-101646033D01*
X130335000Y-101323967D01*
X130272168Y-101008088D01*
X130148918Y-100710537D01*
X129969987Y-100442748D01*
X129742252Y-100215013D01*
X129474463Y-100036082D01*
X129176912Y-99912832D01*
X129087264Y-99895000D01*
X132800982Y-99895000D01*
X132842000Y-99899040D01*
X132883018Y-99895000D01*
X132883019Y-99895000D01*
X133005689Y-99882918D01*
X133163087Y-99835172D01*
X133308146Y-99757636D01*
X133435291Y-99653291D01*
X133461446Y-99621421D01*
X136300775Y-96782092D01*
X136445898Y-96753226D01*
X136634256Y-96675205D01*
X136803774Y-96561937D01*
X136947937Y-96417774D01*
X137061205Y-96248256D01*
X137139226Y-96059898D01*
X137179000Y-95859939D01*
X137179000Y-95656061D01*
X137139226Y-95456102D01*
X137061205Y-95267744D01*
X136947937Y-95098226D01*
X136803774Y-94954063D01*
X136634256Y-94840795D01*
X136445898Y-94762774D01*
X136245939Y-94723000D01*
X136042061Y-94723000D01*
X135842102Y-94762774D01*
X135653744Y-94840795D01*
X135484226Y-94954063D01*
X135340063Y-95098226D01*
X135226795Y-95267744D01*
X135148774Y-95456102D01*
X135119908Y-95601225D01*
X132496133Y-98225000D01*
X124247018Y-98225000D01*
X124206000Y-98220960D01*
X124164981Y-98225000D01*
X124042311Y-98237082D01*
X123884913Y-98284828D01*
X123739854Y-98362364D01*
X123612709Y-98466709D01*
X123586563Y-98498568D01*
X118564574Y-103520559D01*
X118532710Y-103546709D01*
X118461775Y-103633144D01*
X118428364Y-103673855D01*
X118350828Y-103818914D01*
X118303082Y-103976312D01*
X118286960Y-104140000D01*
X118291001Y-104181029D01*
X118291000Y-112487817D01*
X116689155Y-114089662D01*
X116633898Y-114066774D01*
X116576619Y-114055381D01*
X116565226Y-113998102D01*
X116487205Y-113809744D01*
X116373937Y-113640226D01*
X116229774Y-113496063D01*
X116060256Y-113382795D01*
X115897000Y-113315172D01*
X115897000Y-103091761D01*
X116038967Y-103120000D01*
X116361033Y-103120000D01*
X116676912Y-103057168D01*
X116974463Y-102933918D01*
X117242252Y-102754987D01*
X117469987Y-102527252D01*
X117648918Y-102259463D01*
X117772168Y-101961912D01*
X117835000Y-101646033D01*
X117835000Y-101323967D01*
X117772168Y-101008088D01*
X117648918Y-100710537D01*
X117469987Y-100442748D01*
X117242252Y-100215013D01*
X116974463Y-100036082D01*
X116676912Y-99912832D01*
X116361033Y-99850000D01*
X116038967Y-99850000D01*
X115723088Y-99912832D01*
X115425537Y-100036082D01*
X115157748Y-100215013D01*
X114930013Y-100442748D01*
X114881000Y-100516101D01*
X114881000Y-99355015D01*
X114885040Y-99313999D01*
X114876145Y-99223688D01*
X114868918Y-99150311D01*
X114821172Y-98992913D01*
X114743636Y-98847854D01*
X114639291Y-98720709D01*
X114607426Y-98694558D01*
X113800093Y-97887225D01*
X113771226Y-97742102D01*
X113720821Y-97620413D01*
X115244192Y-97620413D01*
X115339956Y-97884814D01*
X115629571Y-98025704D01*
X115941108Y-98107384D01*
X116262595Y-98126718D01*
X116581675Y-98082961D01*
X116886088Y-97977795D01*
X117060044Y-97884814D01*
X117155808Y-97620413D01*
X127744192Y-97620413D01*
X127839956Y-97884814D01*
X128129571Y-98025704D01*
X128441108Y-98107384D01*
X128762595Y-98126718D01*
X129081675Y-98082961D01*
X129386088Y-97977795D01*
X129560044Y-97884814D01*
X129655808Y-97620413D01*
X128700000Y-96664605D01*
X127744192Y-97620413D01*
X117155808Y-97620413D01*
X116200000Y-96664605D01*
X115244192Y-97620413D01*
X113720821Y-97620413D01*
X113693205Y-97553744D01*
X113579937Y-97384226D01*
X113435774Y-97240063D01*
X113266256Y-97126795D01*
X113077898Y-97048774D01*
X112877939Y-97009000D01*
X112674061Y-97009000D01*
X112474102Y-97048774D01*
X112285744Y-97126795D01*
X112116226Y-97240063D01*
X111972063Y-97384226D01*
X111858795Y-97553744D01*
X111780774Y-97742102D01*
X111741000Y-97942061D01*
X111741000Y-98145939D01*
X111780774Y-98345898D01*
X111858795Y-98534256D01*
X111972063Y-98703774D01*
X112116226Y-98847937D01*
X112285744Y-98961205D01*
X112474102Y-99039226D01*
X112619225Y-99068093D01*
X113211001Y-99659869D01*
X113211000Y-110565907D01*
X113077898Y-110510774D01*
X112877939Y-110471000D01*
X112674061Y-110471000D01*
X112474102Y-110510774D01*
X112285744Y-110588795D01*
X112116226Y-110702063D01*
X112107514Y-110710775D01*
X112180808Y-110508413D01*
X111225000Y-109552605D01*
X110269192Y-110508413D01*
X110364956Y-110772814D01*
X110654571Y-110913704D01*
X110966108Y-110995384D01*
X111287595Y-111014718D01*
X111606675Y-110970961D01*
X111911088Y-110865795D01*
X112000039Y-110818250D01*
X111972063Y-110846226D01*
X111858795Y-111015744D01*
X111780774Y-111204102D01*
X111741000Y-111404061D01*
X111741000Y-111607939D01*
X111780774Y-111807898D01*
X111858795Y-111996256D01*
X111941000Y-112119285D01*
X111941000Y-112899866D01*
X111701912Y-112800832D01*
X111386033Y-112738000D01*
X111063967Y-112738000D01*
X110748088Y-112800832D01*
X110450537Y-112924082D01*
X110182748Y-113103013D01*
X109955013Y-113330748D01*
X109816532Y-113538000D01*
X106350285Y-113538000D01*
X106227256Y-113455795D01*
X106038898Y-113377774D01*
X105838939Y-113338000D01*
X105635061Y-113338000D01*
X105435102Y-113377774D01*
X105246744Y-113455795D01*
X105123715Y-113538000D01*
X100133468Y-113538000D01*
X99994987Y-113330748D01*
X99767252Y-113103013D01*
X99499463Y-112924082D01*
X99201912Y-112800832D01*
X98886033Y-112738000D01*
X98563967Y-112738000D01*
X98248088Y-112800832D01*
X97950537Y-112924082D01*
X97682748Y-113103013D01*
X97455013Y-113330748D01*
X97276082Y-113598537D01*
X97152832Y-113896088D01*
X97090000Y-114211967D01*
X92585718Y-114211967D01*
X92585720Y-112889866D01*
X92585212Y-112884713D01*
X92584903Y-112864954D01*
X92581188Y-112832331D01*
X92580618Y-112799495D01*
X92579495Y-112790349D01*
X92541798Y-112499873D01*
X92528354Y-112441617D01*
X92515713Y-112383118D01*
X92512835Y-112374363D01*
X92419436Y-112096742D01*
X92394925Y-112042189D01*
X92371169Y-111987276D01*
X92366646Y-111979247D01*
X92221102Y-111725054D01*
X92186458Y-111676296D01*
X92152492Y-111627048D01*
X92146496Y-111620051D01*
X91954352Y-111398970D01*
X91910881Y-111357854D01*
X91868010Y-111316155D01*
X91860769Y-111310456D01*
X91629341Y-111130906D01*
X91578728Y-111099026D01*
X91528564Y-111066442D01*
X91520353Y-111062257D01*
X91258459Y-110931077D01*
X91247388Y-110926826D01*
X91129994Y-110870580D01*
X91077320Y-110831175D01*
X91033311Y-110782297D01*
X90999628Y-110725792D01*
X90977562Y-110663827D01*
X90967953Y-110598754D01*
X90971167Y-110533058D01*
X90977311Y-110508413D01*
X97769192Y-110508413D01*
X97864956Y-110772814D01*
X98154571Y-110913704D01*
X98466108Y-110995384D01*
X98787595Y-111014718D01*
X99106675Y-110970961D01*
X99411088Y-110865795D01*
X99585044Y-110772814D01*
X99680808Y-110508413D01*
X98725000Y-109552605D01*
X97769192Y-110508413D01*
X90977311Y-110508413D01*
X90982974Y-110485701D01*
X91589256Y-109435595D01*
X97083282Y-109435595D01*
X97127039Y-109754675D01*
X97232205Y-110059088D01*
X97325186Y-110233044D01*
X97589587Y-110328808D01*
X98545395Y-109373000D01*
X98904605Y-109373000D01*
X99860413Y-110328808D01*
X100124814Y-110233044D01*
X100265704Y-109943429D01*
X100347384Y-109631892D01*
X100359189Y-109435595D01*
X109583282Y-109435595D01*
X109627039Y-109754675D01*
X109732205Y-110059088D01*
X109825186Y-110233044D01*
X110089587Y-110328808D01*
X111045395Y-109373000D01*
X111404605Y-109373000D01*
X112360413Y-110328808D01*
X112624814Y-110233044D01*
X112765704Y-109943429D01*
X112847384Y-109631892D01*
X112866718Y-109310405D01*
X112822961Y-108991325D01*
X112717795Y-108686912D01*
X112624814Y-108512956D01*
X112360413Y-108417192D01*
X111404605Y-109373000D01*
X111045395Y-109373000D01*
X110089587Y-108417192D01*
X109825186Y-108512956D01*
X109684296Y-108802571D01*
X109602616Y-109114108D01*
X109583282Y-109435595D01*
X100359189Y-109435595D01*
X100366718Y-109310405D01*
X100322961Y-108991325D01*
X100217795Y-108686912D01*
X100124814Y-108512956D01*
X99860413Y-108417192D01*
X98904605Y-109373000D01*
X98545395Y-109373000D01*
X97589587Y-108417192D01*
X97325186Y-108512956D01*
X97184296Y-108802571D01*
X97102616Y-109114108D01*
X97083282Y-109435595D01*
X91589256Y-109435595D01*
X92280930Y-108237587D01*
X97769192Y-108237587D01*
X98725000Y-109193395D01*
X99680808Y-108237587D01*
X99585044Y-107973186D01*
X99295429Y-107832296D01*
X98983892Y-107750616D01*
X98662405Y-107731282D01*
X98343325Y-107775039D01*
X98038912Y-107880205D01*
X97864956Y-107973186D01*
X97769192Y-108237587D01*
X92280930Y-108237587D01*
X92870232Y-107216891D01*
X103390000Y-107216891D01*
X103390000Y-107529109D01*
X103450911Y-107835327D01*
X103570391Y-108123779D01*
X103743850Y-108383379D01*
X103964621Y-108604150D01*
X104224221Y-108777609D01*
X104512673Y-108897089D01*
X104818891Y-108958000D01*
X105131109Y-108958000D01*
X105437327Y-108897089D01*
X105725779Y-108777609D01*
X105985379Y-108604150D01*
X106206150Y-108383379D01*
X106303565Y-108237587D01*
X110269192Y-108237587D01*
X111225000Y-109193395D01*
X112180808Y-108237587D01*
X112085044Y-107973186D01*
X111795429Y-107832296D01*
X111483892Y-107750616D01*
X111162405Y-107731282D01*
X110843325Y-107775039D01*
X110538912Y-107880205D01*
X110364956Y-107973186D01*
X110269192Y-108237587D01*
X106303565Y-108237587D01*
X106379609Y-108123779D01*
X106499089Y-107835327D01*
X106560000Y-107529109D01*
X106560000Y-107216891D01*
X106499089Y-106910673D01*
X106379609Y-106622221D01*
X106206150Y-106362621D01*
X105985379Y-106141850D01*
X105732173Y-105972663D01*
X105826013Y-105909962D01*
X106011962Y-105724013D01*
X106158061Y-105505359D01*
X106258696Y-105262405D01*
X106310000Y-105004486D01*
X106310000Y-104741514D01*
X106258696Y-104483595D01*
X106158061Y-104240641D01*
X106011962Y-104021987D01*
X105826013Y-103836038D01*
X105607359Y-103689939D01*
X105364405Y-103589304D01*
X105106486Y-103538000D01*
X104843514Y-103538000D01*
X104585595Y-103589304D01*
X104342641Y-103689939D01*
X104123987Y-103836038D01*
X103938038Y-104021987D01*
X103791939Y-104240641D01*
X103691304Y-104483595D01*
X103640000Y-104741514D01*
X103640000Y-105004486D01*
X103691304Y-105262405D01*
X103791939Y-105505359D01*
X103938038Y-105724013D01*
X104123987Y-105909962D01*
X104217827Y-105972663D01*
X103964621Y-106141850D01*
X103743850Y-106362621D01*
X103570391Y-106622221D01*
X103450911Y-106910673D01*
X103390000Y-107216891D01*
X92870232Y-107216891D01*
X95453249Y-102743000D01*
X106174509Y-102743000D01*
X106196423Y-102965499D01*
X106261324Y-103179447D01*
X106366716Y-103376623D01*
X106508551Y-103549449D01*
X106681377Y-103691284D01*
X106878553Y-103796676D01*
X107092501Y-103861577D01*
X107259248Y-103878000D01*
X108622869Y-103878000D01*
X110944855Y-106199987D01*
X111074376Y-106306282D01*
X111271552Y-106411675D01*
X111485500Y-106476576D01*
X111707998Y-106498490D01*
X111930497Y-106476576D01*
X112144445Y-106411675D01*
X112341621Y-106306282D01*
X112514447Y-106164447D01*
X112656282Y-105991621D01*
X112761675Y-105794445D01*
X112826576Y-105580497D01*
X112848490Y-105357998D01*
X112826576Y-105135500D01*
X112761675Y-104921552D01*
X112656282Y-104724376D01*
X112549987Y-104594855D01*
X109934996Y-101979865D01*
X109899449Y-101936551D01*
X109726623Y-101794716D01*
X109529447Y-101689324D01*
X109315499Y-101624423D01*
X109148752Y-101608000D01*
X109148751Y-101608000D01*
X109093000Y-101602509D01*
X109037249Y-101608000D01*
X107259248Y-101608000D01*
X107092501Y-101624423D01*
X106878553Y-101689324D01*
X106681377Y-101794716D01*
X106508551Y-101936551D01*
X106366716Y-102109377D01*
X106261324Y-102306553D01*
X106196423Y-102520501D01*
X106174509Y-102743000D01*
X95453249Y-102743000D01*
X99030189Y-96547595D01*
X114558282Y-96547595D01*
X114602039Y-96866675D01*
X114707205Y-97171088D01*
X114800186Y-97345044D01*
X115064587Y-97440808D01*
X116020395Y-96485000D01*
X116379605Y-96485000D01*
X117335413Y-97440808D01*
X117599814Y-97345044D01*
X117740704Y-97055429D01*
X117822384Y-96743892D01*
X117834189Y-96547595D01*
X127058282Y-96547595D01*
X127102039Y-96866675D01*
X127207205Y-97171088D01*
X127300186Y-97345044D01*
X127564587Y-97440808D01*
X128520395Y-96485000D01*
X128879605Y-96485000D01*
X129835413Y-97440808D01*
X130099814Y-97345044D01*
X130240704Y-97055429D01*
X130322384Y-96743892D01*
X130341718Y-96422405D01*
X130297961Y-96103325D01*
X130192795Y-95798912D01*
X130099814Y-95624956D01*
X129835413Y-95529192D01*
X128879605Y-96485000D01*
X128520395Y-96485000D01*
X127564587Y-95529192D01*
X127300186Y-95624956D01*
X127159296Y-95914571D01*
X127077616Y-96226108D01*
X127058282Y-96547595D01*
X117834189Y-96547595D01*
X117841718Y-96422405D01*
X117797961Y-96103325D01*
X117692795Y-95798912D01*
X117599814Y-95624956D01*
X117335413Y-95529192D01*
X116379605Y-96485000D01*
X116020395Y-96485000D01*
X115064587Y-95529192D01*
X114800186Y-95624956D01*
X114659296Y-95914571D01*
X114577616Y-96226108D01*
X114558282Y-96547595D01*
X99030189Y-96547595D01*
X99721863Y-95349587D01*
X115244192Y-95349587D01*
X116200000Y-96305395D01*
X117155808Y-95349587D01*
X117060044Y-95085186D01*
X116770429Y-94944296D01*
X116458892Y-94862616D01*
X116137405Y-94843282D01*
X115818325Y-94887039D01*
X115513912Y-94992205D01*
X115339956Y-95085186D01*
X115244192Y-95349587D01*
X99721863Y-95349587D01*
X100311165Y-94328891D01*
X120865000Y-94328891D01*
X120865000Y-94641109D01*
X120925911Y-94947327D01*
X121045391Y-95235779D01*
X121218850Y-95495379D01*
X121439621Y-95716150D01*
X121699221Y-95889609D01*
X121987673Y-96009089D01*
X122293891Y-96070000D01*
X122606109Y-96070000D01*
X122912327Y-96009089D01*
X123200779Y-95889609D01*
X123460379Y-95716150D01*
X123681150Y-95495379D01*
X123778565Y-95349587D01*
X127744192Y-95349587D01*
X128700000Y-96305395D01*
X129655808Y-95349587D01*
X129560044Y-95085186D01*
X129270429Y-94944296D01*
X128958892Y-94862616D01*
X128637405Y-94843282D01*
X128318325Y-94887039D01*
X128013912Y-94992205D01*
X127839956Y-95085186D01*
X127744192Y-95349587D01*
X123778565Y-95349587D01*
X123854609Y-95235779D01*
X123974089Y-94947327D01*
X124035000Y-94641109D01*
X124035000Y-94328891D01*
X123974089Y-94022673D01*
X123854609Y-93734221D01*
X123681150Y-93474621D01*
X123460379Y-93253850D01*
X123207173Y-93084663D01*
X123301013Y-93021962D01*
X123486962Y-92836013D01*
X123633061Y-92617359D01*
X123733696Y-92374405D01*
X123785000Y-92116486D01*
X123785000Y-91853514D01*
X123733696Y-91595595D01*
X123633061Y-91352641D01*
X123486962Y-91133987D01*
X123301013Y-90948038D01*
X123082359Y-90801939D01*
X122839405Y-90701304D01*
X122581486Y-90650000D01*
X122318514Y-90650000D01*
X122060595Y-90701304D01*
X121817641Y-90801939D01*
X121598987Y-90948038D01*
X121413038Y-91133987D01*
X121266939Y-91352641D01*
X121166304Y-91595595D01*
X121115000Y-91853514D01*
X121115000Y-92116486D01*
X121166304Y-92374405D01*
X121266939Y-92617359D01*
X121413038Y-92836013D01*
X121598987Y-93021962D01*
X121692827Y-93084663D01*
X121439621Y-93253850D01*
X121218850Y-93474621D01*
X121045391Y-93734221D01*
X120925911Y-94022673D01*
X120865000Y-94328891D01*
X100311165Y-94328891D01*
X104124225Y-87724521D01*
X104621200Y-87724521D01*
X104621200Y-88145079D01*
X104703247Y-88557556D01*
X104864188Y-88946102D01*
X105097837Y-89295783D01*
X105395217Y-89593163D01*
X105744898Y-89826812D01*
X106133444Y-89987753D01*
X106545921Y-90069800D01*
X106966479Y-90069800D01*
X107378956Y-89987753D01*
X107767502Y-89826812D01*
X108117183Y-89593163D01*
X108414563Y-89295783D01*
X108648212Y-88946102D01*
X108809153Y-88557556D01*
X108891200Y-88145079D01*
X108891200Y-87724521D01*
X108809153Y-87312044D01*
X108648212Y-86923498D01*
X108414563Y-86573817D01*
X108117183Y-86276437D01*
X107767502Y-86042788D01*
X107378956Y-85881847D01*
X106966479Y-85799800D01*
X106545921Y-85799800D01*
X106133444Y-85881847D01*
X105744898Y-86042788D01*
X105395217Y-86276437D01*
X105097837Y-86573817D01*
X104864188Y-86923498D01*
X104703247Y-87312044D01*
X104621200Y-87724521D01*
X104124225Y-87724521D01*
X105386448Y-85538300D01*
X134249672Y-85538297D01*
X134306055Y-85554039D01*
G37*
X134306055Y-85554039D02*
X134364767Y-85583697D01*
X134416599Y-85624192D01*
X134459582Y-85673989D01*
X134492072Y-85731181D01*
X134512835Y-85793598D01*
X134521079Y-85858858D01*
X134513950Y-85960817D01*
X134505857Y-86014422D01*
X134504001Y-86050006D01*
X134499039Y-86085313D01*
X134498718Y-86094523D01*
X134490630Y-86384124D01*
X134494803Y-86443798D01*
X134498142Y-86503521D01*
X134499616Y-86512618D01*
X134547932Y-86798275D01*
X134563610Y-86855978D01*
X134578493Y-86913944D01*
X134581705Y-86922581D01*
X134684586Y-87193412D01*
X134711188Y-87247001D01*
X134737031Y-87300939D01*
X134741860Y-87308788D01*
X134895385Y-87554479D01*
X134931891Y-87601882D01*
X134967717Y-87649772D01*
X134973978Y-87656533D01*
X135172302Y-87867725D01*
X135217316Y-87907132D01*
X135261767Y-87947155D01*
X135269222Y-87952571D01*
X135502487Y-88119570D01*
X135527027Y-88137417D01*
X137443114Y-89261639D01*
X137444992Y-89262985D01*
X137471008Y-89278005D01*
X137497033Y-89293275D01*
X137499140Y-89294248D01*
X139432375Y-90410405D01*
X139437093Y-90412543D01*
X139454361Y-90422155D01*
X139484469Y-90435248D01*
X139513192Y-90451173D01*
X139521675Y-90454774D01*
X139792081Y-90567364D01*
X139849264Y-90584852D01*
X139906237Y-90603151D01*
X139915258Y-90605036D01*
X140202383Y-90662960D01*
X140261867Y-90669008D01*
X140321318Y-90675893D01*
X140330533Y-90675990D01*
X140623441Y-90677041D01*
X140683007Y-90671416D01*
X140742619Y-90666626D01*
X140751677Y-90664932D01*
X141039213Y-90609071D01*
X141096527Y-90591991D01*
X141154103Y-90575705D01*
X141162659Y-90572283D01*
X141433867Y-90461636D01*
X141486764Y-90433753D01*
X141540088Y-90406590D01*
X141547812Y-90401574D01*
X141547815Y-90401572D01*
X141547817Y-90401570D01*
X141792367Y-90240354D01*
X141801568Y-90232905D01*
X141908991Y-90159351D01*
X141969448Y-90133439D01*
X142033791Y-90119763D01*
X142099565Y-90118844D01*
X142164259Y-90130718D01*
X142225416Y-90154932D01*
X142280708Y-90190565D01*
X142347708Y-90255267D01*
X156743297Y-115188998D01*
X142317850Y-140174449D01*
X142264361Y-140226830D01*
X142209317Y-140262849D01*
X142148331Y-140287489D01*
X142083721Y-140299814D01*
X142017943Y-140299355D01*
X141953508Y-140286128D01*
X141892870Y-140260638D01*
X141808137Y-140203485D01*
X141765764Y-140169676D01*
X141735860Y-140150267D01*
X141707775Y-140128324D01*
X141699960Y-140123441D01*
X141453202Y-139971635D01*
X141399478Y-139945432D01*
X141346043Y-139918440D01*
X141337428Y-139915168D01*
X141065883Y-139814182D01*
X141008027Y-139798896D01*
X140950435Y-139782816D01*
X140941349Y-139781279D01*
X140655361Y-139734959D01*
X140595675Y-139731204D01*
X140536016Y-139726613D01*
X140526805Y-139726871D01*
X140237267Y-139736982D01*
X140177972Y-139744894D01*
X140118576Y-139751976D01*
X140109589Y-139754018D01*
X139827528Y-139820175D01*
X139770884Y-139839458D01*
X139714008Y-139857938D01*
X139705590Y-139861686D01*
X139444205Y-139980256D01*
X139416597Y-139992533D01*
X137484965Y-141089795D01*
X137482849Y-141090754D01*
X137456694Y-141105855D01*
X137430597Y-141120679D01*
X137428711Y-141122011D01*
X135495465Y-142238172D01*
X135491261Y-142241185D01*
X135474299Y-142251335D01*
X135447905Y-142270864D01*
X135419753Y-142287775D01*
X135412393Y-142293321D01*
X135179682Y-142471205D01*
X135135910Y-142512015D01*
X135091612Y-142552174D01*
X135085469Y-142559043D01*
X134891742Y-142778739D01*
X134856749Y-142827248D01*
X134821075Y-142875273D01*
X134816383Y-142883205D01*
X134669018Y-143136346D01*
X134644105Y-143190748D01*
X134618447Y-143244768D01*
X134615385Y-143253460D01*
X134519996Y-143530403D01*
X134506128Y-143588592D01*
X134491448Y-143646578D01*
X134490134Y-143655699D01*
X134450352Y-143945895D01*
X134448051Y-144005643D01*
X134444912Y-144065409D01*
X134445394Y-144074612D01*
X134462737Y-144367009D01*
X134464582Y-144378668D01*
X134474573Y-144508511D01*
X134466786Y-144573822D01*
X134446458Y-144636382D01*
X134414368Y-144693801D01*
X134371735Y-144743895D01*
X134320186Y-144784752D01*
X134261685Y-144814818D01*
X134174901Y-144839702D01*
X127731440Y-144839698D01*
X127731441Y-144218702D01*
X127734634Y-144186282D01*
X127721891Y-144056899D01*
X127684151Y-143932489D01*
X127622866Y-143817832D01*
X127540389Y-143717334D01*
X127439891Y-143634857D01*
X127325234Y-143573572D01*
X127200824Y-143535832D01*
X127103860Y-143526282D01*
X127103850Y-143526282D01*
X127071441Y-143523090D01*
X127039029Y-143526282D01*
X125153830Y-143526282D01*
X125243317Y-143310242D01*
X125300000Y-143025275D01*
X125300000Y-142734725D01*
X125243317Y-142449758D01*
X125132128Y-142181325D01*
X124970707Y-141939742D01*
X124765258Y-141734293D01*
X124523675Y-141572872D01*
X124255242Y-141461683D01*
X123970275Y-141405000D01*
X123679725Y-141405000D01*
X123394758Y-141461683D01*
X123126325Y-141572872D01*
X122884742Y-141734293D01*
X122679293Y-141939742D01*
X122555000Y-142125759D01*
X122430707Y-141939742D01*
X122225258Y-141734293D01*
X121983675Y-141572872D01*
X121715242Y-141461683D01*
X121430275Y-141405000D01*
X121139725Y-141405000D01*
X120854758Y-141461683D01*
X120586325Y-141572872D01*
X120344742Y-141734293D01*
X120139293Y-141939742D01*
X119977872Y-142181325D01*
X119866683Y-142449758D01*
X119810000Y-142734725D01*
X119810000Y-143025275D01*
X119866683Y-143310242D01*
X119956170Y-143526282D01*
X117959859Y-143526282D01*
X117927440Y-143523089D01*
X117895021Y-143526282D01*
X117798057Y-143535832D01*
X117673647Y-143573572D01*
X117558990Y-143634857D01*
X117458492Y-143717334D01*
X117376015Y-143817832D01*
X117314730Y-143932489D01*
X117276990Y-144056899D01*
X117264247Y-144186282D01*
X117267441Y-144218711D01*
X117267440Y-144839700D01*
X105386450Y-144839700D01*
X103881417Y-142232921D01*
X104621200Y-142232921D01*
X104621200Y-142653479D01*
X104703247Y-143065956D01*
X104864188Y-143454502D01*
X105097837Y-143804183D01*
X105395217Y-144101563D01*
X105744898Y-144335212D01*
X106133444Y-144496153D01*
X106545921Y-144578200D01*
X106966479Y-144578200D01*
X107378956Y-144496153D01*
X107767502Y-144335212D01*
X108117183Y-144101563D01*
X108414563Y-143804183D01*
X108648212Y-143454502D01*
X108809153Y-143065956D01*
X108891200Y-142653479D01*
X108891200Y-142232921D01*
X108809153Y-141820444D01*
X108648212Y-141431898D01*
X108414563Y-141082217D01*
X108117183Y-140784837D01*
X107767502Y-140551188D01*
X107378956Y-140390247D01*
X106966479Y-140308200D01*
X106545921Y-140308200D01*
X106133444Y-140390247D01*
X105744898Y-140551188D01*
X105395217Y-140784837D01*
X105097837Y-141082217D01*
X104864188Y-141431898D01*
X104703247Y-141820444D01*
X104621200Y-142232921D01*
X103881417Y-142232921D01*
X98840622Y-133502061D01*
X115805000Y-133502061D01*
X115805000Y-133705939D01*
X115844774Y-133905898D01*
X115922795Y-134094256D01*
X116036063Y-134263774D01*
X116180226Y-134407937D01*
X116349744Y-134521205D01*
X116482199Y-134576070D01*
X116483423Y-134588498D01*
X116548324Y-134802446D01*
X116653717Y-134999622D01*
X116760012Y-135129143D01*
X117124008Y-135493140D01*
X117159551Y-135536449D01*
X117332377Y-135678284D01*
X117529553Y-135783676D01*
X117554373Y-135791205D01*
X117743501Y-135848577D01*
X117966000Y-135870491D01*
X118021752Y-135865000D01*
X126941900Y-135865000D01*
X126952102Y-135869226D01*
X127152061Y-135909000D01*
X127355939Y-135909000D01*
X127555898Y-135869226D01*
X127566100Y-135865000D01*
X128518752Y-135865000D01*
X128685499Y-135848577D01*
X128899447Y-135783676D01*
X129096623Y-135678284D01*
X129269449Y-135536449D01*
X129411284Y-135363623D01*
X129516676Y-135166447D01*
X129581577Y-134952499D01*
X129603491Y-134730000D01*
X129581577Y-134507501D01*
X129518981Y-134301149D01*
X141009000Y-134301149D01*
X141009000Y-134593669D01*
X141066068Y-134880567D01*
X141178010Y-135150820D01*
X141340525Y-135394041D01*
X141547368Y-135600884D01*
X141790589Y-135763399D01*
X142060842Y-135875341D01*
X142347740Y-135932409D01*
X142640260Y-135932409D01*
X142927158Y-135875341D01*
X143197411Y-135763399D01*
X143440632Y-135600884D01*
X143647475Y-135394041D01*
X143809990Y-135150820D01*
X143921932Y-134880567D01*
X143979000Y-134593669D01*
X143979000Y-134301149D01*
X143921932Y-134014251D01*
X143809990Y-133743998D01*
X143802444Y-133732704D01*
X143910260Y-133732704D01*
X144197158Y-133675636D01*
X144467411Y-133563694D01*
X144710632Y-133401179D01*
X144917475Y-133194336D01*
X145079990Y-132951115D01*
X145191932Y-132680862D01*
X145249000Y-132393964D01*
X145249000Y-132101444D01*
X145191932Y-131814546D01*
X145079990Y-131544293D01*
X145072444Y-131533000D01*
X145180260Y-131533000D01*
X145467158Y-131475932D01*
X145737411Y-131363990D01*
X145980632Y-131201475D01*
X146187475Y-130994632D01*
X146349990Y-130751411D01*
X146461932Y-130481158D01*
X146519000Y-130194260D01*
X146519000Y-129901740D01*
X146461932Y-129614842D01*
X146349990Y-129344589D01*
X146337455Y-129325830D01*
X146469687Y-129324027D01*
X146754405Y-129263347D01*
X147021813Y-129148288D01*
X147261636Y-128983270D01*
X147373910Y-128878109D01*
X147383788Y-128618358D01*
X146350485Y-128021780D01*
X146340485Y-128039101D01*
X146120515Y-127912101D01*
X146130515Y-127894780D01*
X145097212Y-127298203D01*
X144877200Y-127436633D01*
X144842265Y-127586445D01*
X144819267Y-127876647D01*
X144853326Y-128165759D01*
X144943135Y-128442672D01*
X145010436Y-128563000D01*
X144887740Y-128563000D01*
X144600842Y-128620068D01*
X144330589Y-128732010D01*
X144087368Y-128894525D01*
X143880525Y-129101368D01*
X143718010Y-129344589D01*
X143606068Y-129614842D01*
X143549000Y-129901740D01*
X143549000Y-130194260D01*
X143606068Y-130481158D01*
X143718010Y-130751411D01*
X143725556Y-130762704D01*
X143617740Y-130762704D01*
X143330842Y-130819772D01*
X143060589Y-130931714D01*
X142817368Y-131094229D01*
X142610525Y-131301072D01*
X142448010Y-131544293D01*
X142336068Y-131814546D01*
X142279000Y-132101444D01*
X142279000Y-132393964D01*
X142336068Y-132680862D01*
X142448010Y-132951115D01*
X142455556Y-132962409D01*
X142347740Y-132962409D01*
X142060842Y-133019477D01*
X141790589Y-133131419D01*
X141547368Y-133293934D01*
X141340525Y-133500777D01*
X141178010Y-133743998D01*
X141066068Y-134014251D01*
X141009000Y-134301149D01*
X129518981Y-134301149D01*
X129516676Y-134293553D01*
X129411284Y-134096377D01*
X129269449Y-133923551D01*
X129096623Y-133781716D01*
X128899447Y-133676324D01*
X128685499Y-133611423D01*
X128518752Y-133595000D01*
X118436131Y-133595000D01*
X118365143Y-133524012D01*
X118235622Y-133417717D01*
X118038446Y-133312324D01*
X117824498Y-133247423D01*
X117812070Y-133246199D01*
X117757205Y-133113744D01*
X117643937Y-132944226D01*
X117499774Y-132800063D01*
X117330256Y-132686795D01*
X117141898Y-132608774D01*
X116941939Y-132569000D01*
X116738061Y-132569000D01*
X116538102Y-132608774D01*
X116349744Y-132686795D01*
X116180226Y-132800063D01*
X116036063Y-132944226D01*
X115922795Y-133113744D01*
X115844774Y-133302102D01*
X115805000Y-133502061D01*
X98840622Y-133502061D01*
X98187262Y-132370413D01*
X118994192Y-132370413D01*
X119089956Y-132634814D01*
X119379571Y-132775704D01*
X119691108Y-132857384D01*
X120012595Y-132876718D01*
X120331675Y-132832961D01*
X120636088Y-132727795D01*
X120810044Y-132634814D01*
X120905808Y-132370413D01*
X119950000Y-131414605D01*
X118994192Y-132370413D01*
X98187262Y-132370413D01*
X97567866Y-131297595D01*
X118308282Y-131297595D01*
X118352039Y-131616675D01*
X118457205Y-131921088D01*
X118550186Y-132095044D01*
X118814587Y-132190808D01*
X119770395Y-131235000D01*
X120129605Y-131235000D01*
X121085413Y-132190808D01*
X121349814Y-132095044D01*
X121490704Y-131805429D01*
X121572384Y-131493892D01*
X121591718Y-131172405D01*
X121578219Y-131073967D01*
X123315000Y-131073967D01*
X123315000Y-131396033D01*
X123377832Y-131711912D01*
X123501082Y-132009463D01*
X123680013Y-132277252D01*
X123907748Y-132504987D01*
X124175537Y-132683918D01*
X124473088Y-132807168D01*
X124788967Y-132870000D01*
X125111033Y-132870000D01*
X125426912Y-132807168D01*
X125724463Y-132683918D01*
X125992252Y-132504987D01*
X126219987Y-132277252D01*
X126398918Y-132009463D01*
X126522168Y-131711912D01*
X126585000Y-131396033D01*
X126585000Y-131073967D01*
X126522168Y-130758088D01*
X126398918Y-130460537D01*
X126219987Y-130192748D01*
X125992252Y-129965013D01*
X125724463Y-129786082D01*
X125426912Y-129662832D01*
X125111033Y-129600000D01*
X124788967Y-129600000D01*
X124473088Y-129662832D01*
X124175537Y-129786082D01*
X123907748Y-129965013D01*
X123680013Y-130192748D01*
X123501082Y-130460537D01*
X123377832Y-130758088D01*
X123315000Y-131073967D01*
X121578219Y-131073967D01*
X121547961Y-130853325D01*
X121442795Y-130548912D01*
X121349814Y-130374956D01*
X121085413Y-130279192D01*
X120129605Y-131235000D01*
X119770395Y-131235000D01*
X118814587Y-130279192D01*
X118550186Y-130374956D01*
X118409296Y-130664571D01*
X118327616Y-130976108D01*
X118308282Y-131297595D01*
X97567866Y-131297595D01*
X96876192Y-130099587D01*
X118994192Y-130099587D01*
X119950000Y-131055395D01*
X120905808Y-130099587D01*
X120810044Y-129835186D01*
X120520429Y-129694296D01*
X120208892Y-129612616D01*
X119887405Y-129593282D01*
X119568325Y-129637039D01*
X119263912Y-129742205D01*
X119089956Y-129835186D01*
X118994192Y-130099587D01*
X96876192Y-130099587D01*
X92681411Y-122834061D01*
X106153000Y-122834061D01*
X106153000Y-123037939D01*
X106192774Y-123237898D01*
X106270795Y-123426256D01*
X106384063Y-123595774D01*
X106528226Y-123739937D01*
X106697744Y-123853205D01*
X106886102Y-123931226D01*
X107086061Y-123971000D01*
X107289939Y-123971000D01*
X107489898Y-123931226D01*
X107678256Y-123853205D01*
X107801285Y-123771000D01*
X108416982Y-123771000D01*
X108458000Y-123775040D01*
X108499018Y-123771000D01*
X108499019Y-123771000D01*
X108621689Y-123758918D01*
X108779087Y-123711172D01*
X108924146Y-123633636D01*
X109051291Y-123529291D01*
X109077446Y-123497421D01*
X109884775Y-122690092D01*
X110029898Y-122661226D01*
X110218256Y-122583205D01*
X110387774Y-122469937D01*
X110531937Y-122325774D01*
X110645205Y-122156256D01*
X110723226Y-121967898D01*
X110763000Y-121767939D01*
X110763000Y-121564061D01*
X110723226Y-121364102D01*
X110645205Y-121175744D01*
X110531937Y-121006226D01*
X110387774Y-120862063D01*
X110218256Y-120748795D01*
X110029898Y-120670774D01*
X109829939Y-120631000D01*
X109626061Y-120631000D01*
X109426102Y-120670774D01*
X109237744Y-120748795D01*
X109068226Y-120862063D01*
X108924063Y-121006226D01*
X108810795Y-121175744D01*
X108732774Y-121364102D01*
X108703908Y-121509225D01*
X108112133Y-122101000D01*
X107801285Y-122101000D01*
X107678256Y-122018795D01*
X107489898Y-121940774D01*
X107289939Y-121901000D01*
X107086061Y-121901000D01*
X106886102Y-121940774D01*
X106697744Y-122018795D01*
X106528226Y-122132063D01*
X106384063Y-122276226D01*
X106270795Y-122445744D01*
X106192774Y-122634102D01*
X106153000Y-122834061D01*
X92681411Y-122834061D01*
X90973546Y-119875972D01*
X90943147Y-119757572D01*
X90939474Y-119691893D01*
X90948629Y-119626758D01*
X90970261Y-119564640D01*
X91003545Y-119507908D01*
X91047219Y-119458717D01*
X91099612Y-119418948D01*
X91191473Y-119374144D01*
X91241941Y-119354352D01*
X91273702Y-119338159D01*
X91306747Y-119324808D01*
X91314883Y-119320482D01*
X91569732Y-119182686D01*
X91619331Y-119149231D01*
X91669377Y-119116482D01*
X91676518Y-119110658D01*
X91899747Y-118925987D01*
X91941873Y-118883566D01*
X91984640Y-118841685D01*
X91990514Y-118834585D01*
X92173622Y-118610070D01*
X92206723Y-118560249D01*
X92240519Y-118510892D01*
X92244902Y-118502785D01*
X92380916Y-118246982D01*
X92403711Y-118191676D01*
X92427277Y-118136693D01*
X92430002Y-118127890D01*
X92513739Y-117850540D01*
X92525357Y-117791863D01*
X92537795Y-117733348D01*
X92538758Y-117724183D01*
X92566854Y-117437635D01*
X92569931Y-117408488D01*
X92585491Y-115187001D01*
X92585718Y-115184697D01*
X92585718Y-115154604D01*
X92585929Y-115124484D01*
X92585718Y-115122176D01*
X92585718Y-114211967D01*
X97090000Y-114211967D01*
X97090000Y-114534033D01*
X97152832Y-114849912D01*
X97276082Y-115147463D01*
X97455013Y-115415252D01*
X97682748Y-115642987D01*
X97950537Y-115821918D01*
X98248088Y-115945168D01*
X98563967Y-116008000D01*
X98886033Y-116008000D01*
X99201912Y-115945168D01*
X99499463Y-115821918D01*
X99767252Y-115642987D01*
X99994987Y-115415252D01*
X100133468Y-115208000D01*
X103898471Y-115208000D01*
X103743850Y-115362621D01*
X103570391Y-115622221D01*
X103450911Y-115910673D01*
X103390000Y-116216891D01*
X103390000Y-116529109D01*
X103450911Y-116835327D01*
X103570391Y-117123779D01*
X103743850Y-117383379D01*
X103964621Y-117604150D01*
X104217827Y-117773337D01*
X104123987Y-117836038D01*
X103938038Y-118021987D01*
X103791939Y-118240641D01*
X103691304Y-118483595D01*
X103640000Y-118741514D01*
X103640000Y-119004486D01*
X103691304Y-119262405D01*
X103791939Y-119505359D01*
X103938038Y-119724013D01*
X104123987Y-119909962D01*
X104342641Y-120056061D01*
X104585595Y-120156696D01*
X104843514Y-120208000D01*
X105106486Y-120208000D01*
X105364405Y-120156696D01*
X105607359Y-120056061D01*
X105826013Y-119909962D01*
X106011962Y-119724013D01*
X106158061Y-119505359D01*
X106258696Y-119262405D01*
X106310000Y-119004486D01*
X106310000Y-118741514D01*
X106258696Y-118483595D01*
X106158061Y-118240641D01*
X106011962Y-118021987D01*
X105826013Y-117836038D01*
X105732173Y-117773337D01*
X105985379Y-117604150D01*
X106206150Y-117383379D01*
X106379609Y-117123779D01*
X106499089Y-116835327D01*
X106560000Y-116529109D01*
X106560000Y-116216891D01*
X106499089Y-115910673D01*
X106379609Y-115622221D01*
X106206150Y-115362621D01*
X106161126Y-115317597D01*
X106227256Y-115290205D01*
X106350285Y-115208000D01*
X109816532Y-115208000D01*
X109955013Y-115415252D01*
X110182748Y-115642987D01*
X110450537Y-115821918D01*
X110748088Y-115945168D01*
X111063967Y-116008000D01*
X111386033Y-116008000D01*
X111701912Y-115945168D01*
X111999463Y-115821918D01*
X112267252Y-115642987D01*
X112391685Y-115518554D01*
X119228130Y-122355000D01*
X117286007Y-122355000D01*
X117244999Y-122350961D01*
X117203991Y-122355000D01*
X117203981Y-122355000D01*
X117081311Y-122367082D01*
X116923913Y-122414828D01*
X116778854Y-122492364D01*
X116651709Y-122596709D01*
X116625559Y-122628573D01*
X115600375Y-123653757D01*
X115581486Y-123650000D01*
X115318514Y-123650000D01*
X115060595Y-123701304D01*
X114817641Y-123801939D01*
X114598987Y-123948038D01*
X114413038Y-124133987D01*
X114266939Y-124352641D01*
X114166304Y-124595595D01*
X114115000Y-124853514D01*
X114115000Y-125116486D01*
X114166304Y-125374405D01*
X114266939Y-125617359D01*
X114413038Y-125836013D01*
X114598987Y-126021962D01*
X114817641Y-126168061D01*
X115060595Y-126268696D01*
X115318514Y-126320000D01*
X115581486Y-126320000D01*
X115839405Y-126268696D01*
X116082359Y-126168061D01*
X116301013Y-126021962D01*
X116486962Y-125836013D01*
X116549663Y-125742173D01*
X116718850Y-125995379D01*
X116939621Y-126216150D01*
X117199221Y-126389609D01*
X117487673Y-126509089D01*
X117793891Y-126570000D01*
X118106109Y-126570000D01*
X118412327Y-126509089D01*
X118700779Y-126389609D01*
X118960379Y-126216150D01*
X119181150Y-125995379D01*
X119354609Y-125735779D01*
X119474089Y-125447327D01*
X119535000Y-125141109D01*
X119535000Y-124828891D01*
X119474089Y-124522673D01*
X119354609Y-124234221D01*
X119214812Y-124025000D01*
X125685188Y-124025000D01*
X125545391Y-124234221D01*
X125425911Y-124522673D01*
X125365000Y-124828891D01*
X125365000Y-125141109D01*
X125425911Y-125447327D01*
X125545391Y-125735779D01*
X125718850Y-125995379D01*
X125939621Y-126216150D01*
X126199221Y-126389609D01*
X126487673Y-126509089D01*
X126793891Y-126570000D01*
X127106109Y-126570000D01*
X127412327Y-126509089D01*
X127700779Y-126389609D01*
X127960379Y-126216150D01*
X128181150Y-125995379D01*
X128350337Y-125742173D01*
X128413038Y-125836013D01*
X128598987Y-126021962D01*
X128817641Y-126168061D01*
X129060595Y-126268696D01*
X129145442Y-126285573D01*
X129929001Y-127069133D01*
X129929000Y-129738248D01*
X129923509Y-129794000D01*
X129945423Y-130016499D01*
X130010324Y-130230447D01*
X130087565Y-130374956D01*
X130115716Y-130427623D01*
X130257551Y-130600449D01*
X130430377Y-130742284D01*
X130627553Y-130847676D01*
X130841501Y-130912577D01*
X131064000Y-130934491D01*
X131119751Y-130929000D01*
X138120249Y-130929000D01*
X138176000Y-130934491D01*
X138231751Y-130929000D01*
X138231752Y-130929000D01*
X138398499Y-130912577D01*
X138612447Y-130847676D01*
X138809623Y-130742284D01*
X138982449Y-130600449D01*
X139017996Y-130557135D01*
X143843989Y-125731144D01*
X143950284Y-125601623D01*
X144055676Y-125404447D01*
X144120577Y-125190499D01*
X144142491Y-124968000D01*
X144120577Y-124745501D01*
X144055676Y-124531553D01*
X143950284Y-124334377D01*
X143908847Y-124283886D01*
X146988198Y-124283886D01*
X146870589Y-124332601D01*
X146627368Y-124495116D01*
X146420525Y-124701959D01*
X146258010Y-124945180D01*
X146146068Y-125215433D01*
X146089000Y-125502331D01*
X146089000Y-125794851D01*
X146146068Y-126081749D01*
X146258010Y-126352002D01*
X146270544Y-126370760D01*
X146138313Y-126372563D01*
X145853595Y-126433243D01*
X145586187Y-126548302D01*
X145346364Y-126713320D01*
X145234090Y-126818481D01*
X145224212Y-127078232D01*
X146257515Y-127674810D01*
X146267515Y-127657489D01*
X146487485Y-127784489D01*
X146477485Y-127801810D01*
X147510788Y-128398387D01*
X147730800Y-128259957D01*
X147765735Y-128110145D01*
X147788733Y-127819943D01*
X147754674Y-127530831D01*
X147664865Y-127253918D01*
X147597564Y-127133591D01*
X147720260Y-127133591D01*
X148007158Y-127076523D01*
X148277411Y-126964581D01*
X148520632Y-126802066D01*
X148727475Y-126595223D01*
X148889990Y-126352002D01*
X149001932Y-126081749D01*
X149059000Y-125794851D01*
X149059000Y-125502331D01*
X149004203Y-125226851D01*
X149071837Y-125242621D01*
X149196854Y-125246714D01*
X149320267Y-125226338D01*
X149437334Y-125182277D01*
X149543556Y-125116224D01*
X149634850Y-125030718D01*
X149707709Y-124929044D01*
X150557709Y-123456800D01*
X150609332Y-123342865D01*
X150637735Y-123221049D01*
X150641828Y-123096032D01*
X150621452Y-122972619D01*
X150577391Y-122855552D01*
X150511338Y-122749330D01*
X150425832Y-122658036D01*
X150324158Y-122585177D01*
X148851914Y-121735177D01*
X148737979Y-121683554D01*
X148616163Y-121655151D01*
X148491146Y-121651058D01*
X148367733Y-121671434D01*
X148250666Y-121715495D01*
X148144444Y-121781548D01*
X148053150Y-121867054D01*
X147980291Y-121968728D01*
X147607809Y-122613886D01*
X135897825Y-122613886D01*
X135931937Y-122579774D01*
X136045205Y-122410256D01*
X136123226Y-122221898D01*
X136163000Y-122021939D01*
X136163000Y-121818061D01*
X136123226Y-121618102D01*
X136045205Y-121429744D01*
X135931937Y-121260226D01*
X135787774Y-121116063D01*
X135618256Y-121002795D01*
X135429898Y-120924774D01*
X135284776Y-120895908D01*
X129574586Y-115185719D01*
X129587999Y-115187040D01*
X129629015Y-115183000D01*
X132366532Y-115183000D01*
X132505013Y-115390252D01*
X132732748Y-115617987D01*
X133000537Y-115796918D01*
X133298088Y-115920168D01*
X133613967Y-115983000D01*
X133936033Y-115983000D01*
X134251912Y-115920168D01*
X134549463Y-115796918D01*
X134817252Y-115617987D01*
X135044987Y-115390252D01*
X135183468Y-115183000D01*
X138948471Y-115183000D01*
X138793850Y-115337621D01*
X138620391Y-115597221D01*
X138500911Y-115885673D01*
X138440000Y-116191891D01*
X138440000Y-116504109D01*
X138500911Y-116810327D01*
X138620391Y-117098779D01*
X138793850Y-117358379D01*
X139014621Y-117579150D01*
X139267827Y-117748337D01*
X139173987Y-117811038D01*
X138988038Y-117996987D01*
X138841939Y-118215641D01*
X138741304Y-118458595D01*
X138690000Y-118716514D01*
X138690000Y-118979486D01*
X138741304Y-119237405D01*
X138841939Y-119480359D01*
X138988038Y-119699013D01*
X139173987Y-119884962D01*
X139392641Y-120031061D01*
X139635595Y-120131696D01*
X139720442Y-120148573D01*
X141493009Y-121921141D01*
X141528551Y-121964449D01*
X141701377Y-122106284D01*
X141898553Y-122211676D01*
X142112501Y-122276577D01*
X142279248Y-122293000D01*
X142279257Y-122293000D01*
X142334999Y-122298490D01*
X142390741Y-122293000D01*
X143057752Y-122293000D01*
X143224499Y-122276577D01*
X143438447Y-122211676D01*
X143635623Y-122106284D01*
X143808449Y-121964449D01*
X143950284Y-121791623D01*
X144055676Y-121594447D01*
X144120577Y-121380499D01*
X144142491Y-121158000D01*
X144120577Y-120935501D01*
X144055676Y-120721553D01*
X143950284Y-120524377D01*
X143808449Y-120351551D01*
X143635623Y-120209716D01*
X143438447Y-120104324D01*
X143224499Y-120039423D01*
X143057752Y-120023000D01*
X142805132Y-120023000D01*
X141325573Y-118543442D01*
X141308696Y-118458595D01*
X141208061Y-118215641D01*
X141061962Y-117996987D01*
X140876013Y-117811038D01*
X140782173Y-117748337D01*
X141035379Y-117579150D01*
X141256150Y-117358379D01*
X141429609Y-117098779D01*
X141549089Y-116810327D01*
X141610000Y-116504109D01*
X141610000Y-116191891D01*
X141549089Y-115885673D01*
X141429609Y-115597221D01*
X141256150Y-115337621D01*
X141101529Y-115183000D01*
X141992981Y-115183000D01*
X142034000Y-115187040D01*
X142075018Y-115183000D01*
X144866532Y-115183000D01*
X145005013Y-115390252D01*
X145232748Y-115617987D01*
X145500537Y-115796918D01*
X145798088Y-115920168D01*
X146113967Y-115983000D01*
X146436033Y-115983000D01*
X146751912Y-115920168D01*
X147049463Y-115796918D01*
X147317252Y-115617987D01*
X147544987Y-115390252D01*
X147723918Y-115122463D01*
X147772936Y-115004121D01*
X151865200Y-115004121D01*
X151865200Y-115424679D01*
X151947247Y-115837156D01*
X152108188Y-116225702D01*
X152341837Y-116575383D01*
X152639217Y-116872763D01*
X152988898Y-117106412D01*
X153377444Y-117267353D01*
X153789921Y-117349400D01*
X154210479Y-117349400D01*
X154622956Y-117267353D01*
X155011502Y-117106412D01*
X155361183Y-116872763D01*
X155658563Y-116575383D01*
X155892212Y-116225702D01*
X156053153Y-115837156D01*
X156135200Y-115424679D01*
X156135200Y-115004121D01*
X156053153Y-114591644D01*
X155892212Y-114203098D01*
X155658563Y-113853417D01*
X155361183Y-113556037D01*
X155011502Y-113322388D01*
X154622956Y-113161447D01*
X154210479Y-113079400D01*
X153789921Y-113079400D01*
X153377444Y-113161447D01*
X152988898Y-113322388D01*
X152639217Y-113556037D01*
X152341837Y-113853417D01*
X152108188Y-114203098D01*
X151947247Y-114591644D01*
X151865200Y-115004121D01*
X147772936Y-115004121D01*
X147847168Y-114824912D01*
X147910000Y-114509033D01*
X147910000Y-114186967D01*
X147847168Y-113871088D01*
X147723918Y-113573537D01*
X147544987Y-113305748D01*
X147317252Y-113078013D01*
X147049463Y-112899082D01*
X146751912Y-112775832D01*
X146436033Y-112713000D01*
X146113967Y-112713000D01*
X145798088Y-112775832D01*
X145500537Y-112899082D01*
X145232748Y-113078013D01*
X145005013Y-113305748D01*
X144866532Y-113513000D01*
X142869000Y-113513000D01*
X142869000Y-110483413D01*
X145319192Y-110483413D01*
X145414956Y-110747814D01*
X145704571Y-110888704D01*
X146016108Y-110970384D01*
X146337595Y-110989718D01*
X146656675Y-110945961D01*
X146961088Y-110840795D01*
X147135044Y-110747814D01*
X147230808Y-110483413D01*
X146275000Y-109527605D01*
X145319192Y-110483413D01*
X142869000Y-110483413D01*
X142869000Y-109410595D01*
X144633282Y-109410595D01*
X144677039Y-109729675D01*
X144782205Y-110034088D01*
X144875186Y-110208044D01*
X145139587Y-110303808D01*
X146095395Y-109348000D01*
X146454605Y-109348000D01*
X147410413Y-110303808D01*
X147674814Y-110208044D01*
X147815704Y-109918429D01*
X147897384Y-109606892D01*
X147916718Y-109285405D01*
X147872961Y-108966325D01*
X147767795Y-108661912D01*
X147674814Y-108487956D01*
X147410413Y-108392192D01*
X146454605Y-109348000D01*
X146095395Y-109348000D01*
X145139587Y-108392192D01*
X144875186Y-108487956D01*
X144734296Y-108777571D01*
X144652616Y-109089108D01*
X144633282Y-109410595D01*
X142869000Y-109410595D01*
X142869000Y-108212587D01*
X145319192Y-108212587D01*
X146275000Y-109168395D01*
X147230808Y-108212587D01*
X147135044Y-107948186D01*
X146845429Y-107807296D01*
X146533892Y-107725616D01*
X146212405Y-107706282D01*
X145893325Y-107750039D01*
X145588912Y-107855205D01*
X145414956Y-107948186D01*
X145319192Y-108212587D01*
X142869000Y-108212587D01*
X142869000Y-100627867D01*
X143412775Y-100084093D01*
X143557898Y-100055226D01*
X143746256Y-99977205D01*
X143915774Y-99863937D01*
X144059937Y-99719774D01*
X144173205Y-99550256D01*
X144251226Y-99361898D01*
X144291000Y-99161939D01*
X144291000Y-98958061D01*
X144251226Y-98758102D01*
X144173205Y-98569744D01*
X144059937Y-98400226D01*
X143915774Y-98256063D01*
X143746256Y-98142795D01*
X143557898Y-98064774D01*
X143357939Y-98025000D01*
X143154061Y-98025000D01*
X142954102Y-98064774D01*
X142765744Y-98142795D01*
X142596226Y-98256063D01*
X142452063Y-98400226D01*
X142338795Y-98569744D01*
X142260774Y-98758102D01*
X142231907Y-98903225D01*
X141472574Y-99662559D01*
X141440710Y-99688709D01*
X141414562Y-99720571D01*
X141336364Y-99815855D01*
X141258828Y-99960914D01*
X141211082Y-100118312D01*
X141194960Y-100282000D01*
X141199001Y-100323029D01*
X141199001Y-101835000D01*
X141122061Y-101835000D01*
X140922102Y-101874774D01*
X140733744Y-101952795D01*
X140610715Y-102035000D01*
X138222016Y-102035000D01*
X138180997Y-102030960D01*
X138139979Y-102035000D01*
X138017309Y-102047082D01*
X137859911Y-102094828D01*
X137714852Y-102172364D01*
X137587707Y-102276709D01*
X137561557Y-102308573D01*
X131518574Y-108351557D01*
X131486710Y-108377707D01*
X131460562Y-108409569D01*
X131382364Y-108504853D01*
X131304828Y-108649912D01*
X131257082Y-108807310D01*
X131240960Y-108970998D01*
X131245001Y-109012026D01*
X131245000Y-111654715D01*
X131162795Y-111777744D01*
X131084774Y-111966102D01*
X131045000Y-112166061D01*
X131045000Y-112369939D01*
X131084774Y-112569898D01*
X131162795Y-112758256D01*
X131276063Y-112927774D01*
X131420226Y-113071937D01*
X131589744Y-113185205D01*
X131778102Y-113263226D01*
X131978061Y-113303000D01*
X132181939Y-113303000D01*
X132381898Y-113263226D01*
X132570256Y-113185205D01*
X132739774Y-113071937D01*
X132883937Y-112927774D01*
X132997205Y-112758256D01*
X133075226Y-112569898D01*
X133115000Y-112369939D01*
X133115000Y-112166061D01*
X133075226Y-111966102D01*
X132997205Y-111777744D01*
X132915000Y-111654715D01*
X132915000Y-110747835D01*
X133204571Y-110888704D01*
X133516108Y-110970384D01*
X133837595Y-110989718D01*
X134156675Y-110945961D01*
X134461088Y-110840795D01*
X134635044Y-110747814D01*
X134730808Y-110483413D01*
X133775000Y-109527605D01*
X133760858Y-109541748D01*
X133581253Y-109362143D01*
X133595395Y-109348000D01*
X133954605Y-109348000D01*
X134910413Y-110303808D01*
X135174814Y-110208044D01*
X135315704Y-109918429D01*
X135397384Y-109606892D01*
X135416718Y-109285405D01*
X135372961Y-108966325D01*
X135267795Y-108661912D01*
X135174814Y-108487956D01*
X134910413Y-108392192D01*
X133954605Y-109348000D01*
X133595395Y-109348000D01*
X133581253Y-109333858D01*
X133760858Y-109154253D01*
X133775000Y-109168395D01*
X134730808Y-108212587D01*
X134635044Y-107948186D01*
X134398669Y-107833196D01*
X138526866Y-103705000D01*
X139332685Y-103705000D01*
X139173987Y-103811038D01*
X138988038Y-103996987D01*
X138841939Y-104215641D01*
X138741304Y-104458595D01*
X138690000Y-104716514D01*
X138690000Y-104979486D01*
X138741304Y-105237405D01*
X138841939Y-105480359D01*
X138988038Y-105699013D01*
X139173987Y-105884962D01*
X139267827Y-105947663D01*
X139014621Y-106116850D01*
X138793850Y-106337621D01*
X138620391Y-106597221D01*
X138500911Y-106885673D01*
X138440000Y-107191891D01*
X138440000Y-107504109D01*
X138500911Y-107810327D01*
X138620391Y-108098779D01*
X138793850Y-108358379D01*
X139014621Y-108579150D01*
X139274221Y-108752609D01*
X139562673Y-108872089D01*
X139868891Y-108933000D01*
X140181109Y-108933000D01*
X140487327Y-108872089D01*
X140775779Y-108752609D01*
X141035379Y-108579150D01*
X141199000Y-108415529D01*
X141199000Y-113513000D01*
X135183468Y-113513000D01*
X135044987Y-113305748D01*
X134817252Y-113078013D01*
X134549463Y-112899082D01*
X134251912Y-112775832D01*
X133936033Y-112713000D01*
X133613967Y-112713000D01*
X133298088Y-112775832D01*
X133000537Y-112899082D01*
X132732748Y-113078013D01*
X132505013Y-113305748D01*
X132366532Y-113513000D01*
X129933868Y-113513000D01*
X129548093Y-113127225D01*
X129519226Y-112982102D01*
X129441205Y-112793744D01*
X129327937Y-112624226D01*
X129183774Y-112480063D01*
X129014256Y-112366795D01*
X128825898Y-112288774D01*
X128625939Y-112249000D01*
X128422061Y-112249000D01*
X128222102Y-112288774D01*
X128033744Y-112366795D01*
X127864226Y-112480063D01*
X127720063Y-112624226D01*
X127606795Y-112793744D01*
X127528774Y-112982102D01*
X127502593Y-113113726D01*
X126095446Y-111706579D01*
X126069291Y-111674709D01*
X125942146Y-111570364D01*
X125797087Y-111492828D01*
X125639689Y-111445082D01*
X125517019Y-111433000D01*
X125517018Y-111433000D01*
X125476000Y-111428960D01*
X125434982Y-111433000D01*
X121517285Y-111433000D01*
X121394256Y-111350795D01*
X121205898Y-111272774D01*
X121005939Y-111233000D01*
X120802061Y-111233000D01*
X120602102Y-111272774D01*
X120413744Y-111350795D01*
X120244226Y-111464063D01*
X120100063Y-111608226D01*
X119986795Y-111777744D01*
X119961000Y-111840018D01*
X119961000Y-104485867D01*
X120865000Y-103581867D01*
X120865000Y-103641109D01*
X120925911Y-103947327D01*
X121045391Y-104235779D01*
X121218850Y-104495379D01*
X121439621Y-104716150D01*
X121692827Y-104885337D01*
X121598987Y-104948038D01*
X121413038Y-105133987D01*
X121266939Y-105352641D01*
X121166304Y-105595595D01*
X121115000Y-105853514D01*
X121115000Y-106116486D01*
X121166304Y-106374405D01*
X121266939Y-106617359D01*
X121413038Y-106836013D01*
X121598987Y-107021962D01*
X121817641Y-107168061D01*
X122060595Y-107268696D01*
X122318514Y-107320000D01*
X122581486Y-107320000D01*
X122839405Y-107268696D01*
X123082359Y-107168061D01*
X123154288Y-107120000D01*
X131449249Y-107120000D01*
X131505000Y-107125491D01*
X131560751Y-107120000D01*
X131560752Y-107120000D01*
X131727499Y-107103577D01*
X131941447Y-107038676D01*
X132138623Y-106933284D01*
X132311449Y-106791449D01*
X132346996Y-106748135D01*
X135461988Y-103633144D01*
X135568283Y-103503624D01*
X135673675Y-103306447D01*
X135738576Y-103092500D01*
X135760490Y-102870001D01*
X135738576Y-102647502D01*
X135673675Y-102433554D01*
X135568283Y-102236378D01*
X135426448Y-102063552D01*
X135253622Y-101921717D01*
X135056446Y-101816325D01*
X134842498Y-101751424D01*
X134619999Y-101729510D01*
X134397500Y-101751424D01*
X134183553Y-101816325D01*
X133986376Y-101921717D01*
X133856856Y-102028012D01*
X131034869Y-104850000D01*
X123260058Y-104850000D01*
X123460379Y-104716150D01*
X123681150Y-104495379D01*
X123854609Y-104235779D01*
X123974089Y-103947327D01*
X124035000Y-103641109D01*
X124035000Y-103328891D01*
X123974089Y-103022673D01*
X123854609Y-102734221D01*
X123681150Y-102474621D01*
X123460379Y-102253850D01*
X123200779Y-102080391D01*
X122912327Y-101960911D01*
X122606109Y-101900000D01*
X122546868Y-101900000D01*
X124551869Y-99895000D01*
X128312736Y-99895000D01*
X128223088Y-99912832D01*
X127925537Y-100036082D01*
X127657748Y-100215013D01*
X127430013Y-100442748D01*
X127251082Y-100710537D01*
X127127832Y-101008088D01*
X127065000Y-101323967D01*
X127065000Y-101646033D01*
X127127832Y-101961912D01*
X127251082Y-102259463D01*
X127430013Y-102527252D01*
X127657748Y-102754987D01*
X127925537Y-102933918D01*
X128223088Y-103057168D01*
X128538967Y-103120000D01*
X128861033Y-103120000D01*
X129176912Y-103057168D01*
X129474463Y-102933918D01*
X129742252Y-102754987D01*
X129969987Y-102527252D01*
X130148918Y-102259463D01*
X130272168Y-101961912D01*
X130335000Y-101646033D01*
X130335000Y-101323967D01*
X130272168Y-101008088D01*
X130148918Y-100710537D01*
X129969987Y-100442748D01*
X129742252Y-100215013D01*
X129474463Y-100036082D01*
X129176912Y-99912832D01*
X129087264Y-99895000D01*
X132800982Y-99895000D01*
X132842000Y-99899040D01*
X132883018Y-99895000D01*
X132883019Y-99895000D01*
X133005689Y-99882918D01*
X133163087Y-99835172D01*
X133308146Y-99757636D01*
X133435291Y-99653291D01*
X133461446Y-99621421D01*
X136300775Y-96782092D01*
X136445898Y-96753226D01*
X136634256Y-96675205D01*
X136803774Y-96561937D01*
X136947937Y-96417774D01*
X137061205Y-96248256D01*
X137139226Y-96059898D01*
X137179000Y-95859939D01*
X137179000Y-95656061D01*
X137139226Y-95456102D01*
X137061205Y-95267744D01*
X136947937Y-95098226D01*
X136803774Y-94954063D01*
X136634256Y-94840795D01*
X136445898Y-94762774D01*
X136245939Y-94723000D01*
X136042061Y-94723000D01*
X135842102Y-94762774D01*
X135653744Y-94840795D01*
X135484226Y-94954063D01*
X135340063Y-95098226D01*
X135226795Y-95267744D01*
X135148774Y-95456102D01*
X135119908Y-95601225D01*
X132496133Y-98225000D01*
X124247018Y-98225000D01*
X124206000Y-98220960D01*
X124164981Y-98225000D01*
X124042311Y-98237082D01*
X123884913Y-98284828D01*
X123739854Y-98362364D01*
X123612709Y-98466709D01*
X123586563Y-98498568D01*
X118564574Y-103520559D01*
X118532710Y-103546709D01*
X118461775Y-103633144D01*
X118428364Y-103673855D01*
X118350828Y-103818914D01*
X118303082Y-103976312D01*
X118286960Y-104140000D01*
X118291001Y-104181029D01*
X118291000Y-112487817D01*
X116689155Y-114089662D01*
X116633898Y-114066774D01*
X116576619Y-114055381D01*
X116565226Y-113998102D01*
X116487205Y-113809744D01*
X116373937Y-113640226D01*
X116229774Y-113496063D01*
X116060256Y-113382795D01*
X115897000Y-113315172D01*
X115897000Y-103091761D01*
X116038967Y-103120000D01*
X116361033Y-103120000D01*
X116676912Y-103057168D01*
X116974463Y-102933918D01*
X117242252Y-102754987D01*
X117469987Y-102527252D01*
X117648918Y-102259463D01*
X117772168Y-101961912D01*
X117835000Y-101646033D01*
X117835000Y-101323967D01*
X117772168Y-101008088D01*
X117648918Y-100710537D01*
X117469987Y-100442748D01*
X117242252Y-100215013D01*
X116974463Y-100036082D01*
X116676912Y-99912832D01*
X116361033Y-99850000D01*
X116038967Y-99850000D01*
X115723088Y-99912832D01*
X115425537Y-100036082D01*
X115157748Y-100215013D01*
X114930013Y-100442748D01*
X114881000Y-100516101D01*
X114881000Y-99355015D01*
X114885040Y-99313999D01*
X114876145Y-99223688D01*
X114868918Y-99150311D01*
X114821172Y-98992913D01*
X114743636Y-98847854D01*
X114639291Y-98720709D01*
X114607426Y-98694558D01*
X113800093Y-97887225D01*
X113771226Y-97742102D01*
X113720821Y-97620413D01*
X115244192Y-97620413D01*
X115339956Y-97884814D01*
X115629571Y-98025704D01*
X115941108Y-98107384D01*
X116262595Y-98126718D01*
X116581675Y-98082961D01*
X116886088Y-97977795D01*
X117060044Y-97884814D01*
X117155808Y-97620413D01*
X127744192Y-97620413D01*
X127839956Y-97884814D01*
X128129571Y-98025704D01*
X128441108Y-98107384D01*
X128762595Y-98126718D01*
X129081675Y-98082961D01*
X129386088Y-97977795D01*
X129560044Y-97884814D01*
X129655808Y-97620413D01*
X128700000Y-96664605D01*
X127744192Y-97620413D01*
X117155808Y-97620413D01*
X116200000Y-96664605D01*
X115244192Y-97620413D01*
X113720821Y-97620413D01*
X113693205Y-97553744D01*
X113579937Y-97384226D01*
X113435774Y-97240063D01*
X113266256Y-97126795D01*
X113077898Y-97048774D01*
X112877939Y-97009000D01*
X112674061Y-97009000D01*
X112474102Y-97048774D01*
X112285744Y-97126795D01*
X112116226Y-97240063D01*
X111972063Y-97384226D01*
X111858795Y-97553744D01*
X111780774Y-97742102D01*
X111741000Y-97942061D01*
X111741000Y-98145939D01*
X111780774Y-98345898D01*
X111858795Y-98534256D01*
X111972063Y-98703774D01*
X112116226Y-98847937D01*
X112285744Y-98961205D01*
X112474102Y-99039226D01*
X112619225Y-99068093D01*
X113211001Y-99659869D01*
X113211000Y-110565907D01*
X113077898Y-110510774D01*
X112877939Y-110471000D01*
X112674061Y-110471000D01*
X112474102Y-110510774D01*
X112285744Y-110588795D01*
X112116226Y-110702063D01*
X112107514Y-110710775D01*
X112180808Y-110508413D01*
X111225000Y-109552605D01*
X110269192Y-110508413D01*
X110364956Y-110772814D01*
X110654571Y-110913704D01*
X110966108Y-110995384D01*
X111287595Y-111014718D01*
X111606675Y-110970961D01*
X111911088Y-110865795D01*
X112000039Y-110818250D01*
X111972063Y-110846226D01*
X111858795Y-111015744D01*
X111780774Y-111204102D01*
X111741000Y-111404061D01*
X111741000Y-111607939D01*
X111780774Y-111807898D01*
X111858795Y-111996256D01*
X111941000Y-112119285D01*
X111941000Y-112899866D01*
X111701912Y-112800832D01*
X111386033Y-112738000D01*
X111063967Y-112738000D01*
X110748088Y-112800832D01*
X110450537Y-112924082D01*
X110182748Y-113103013D01*
X109955013Y-113330748D01*
X109816532Y-113538000D01*
X106350285Y-113538000D01*
X106227256Y-113455795D01*
X106038898Y-113377774D01*
X105838939Y-113338000D01*
X105635061Y-113338000D01*
X105435102Y-113377774D01*
X105246744Y-113455795D01*
X105123715Y-113538000D01*
X100133468Y-113538000D01*
X99994987Y-113330748D01*
X99767252Y-113103013D01*
X99499463Y-112924082D01*
X99201912Y-112800832D01*
X98886033Y-112738000D01*
X98563967Y-112738000D01*
X98248088Y-112800832D01*
X97950537Y-112924082D01*
X97682748Y-113103013D01*
X97455013Y-113330748D01*
X97276082Y-113598537D01*
X97152832Y-113896088D01*
X97090000Y-114211967D01*
X92585718Y-114211967D01*
X92585720Y-112889866D01*
X92585212Y-112884713D01*
X92584903Y-112864954D01*
X92581188Y-112832331D01*
X92580618Y-112799495D01*
X92579495Y-112790349D01*
X92541798Y-112499873D01*
X92528354Y-112441617D01*
X92515713Y-112383118D01*
X92512835Y-112374363D01*
X92419436Y-112096742D01*
X92394925Y-112042189D01*
X92371169Y-111987276D01*
X92366646Y-111979247D01*
X92221102Y-111725054D01*
X92186458Y-111676296D01*
X92152492Y-111627048D01*
X92146496Y-111620051D01*
X91954352Y-111398970D01*
X91910881Y-111357854D01*
X91868010Y-111316155D01*
X91860769Y-111310456D01*
X91629341Y-111130906D01*
X91578728Y-111099026D01*
X91528564Y-111066442D01*
X91520353Y-111062257D01*
X91258459Y-110931077D01*
X91247388Y-110926826D01*
X91129994Y-110870580D01*
X91077320Y-110831175D01*
X91033311Y-110782297D01*
X90999628Y-110725792D01*
X90977562Y-110663827D01*
X90967953Y-110598754D01*
X90971167Y-110533058D01*
X90977311Y-110508413D01*
X97769192Y-110508413D01*
X97864956Y-110772814D01*
X98154571Y-110913704D01*
X98466108Y-110995384D01*
X98787595Y-111014718D01*
X99106675Y-110970961D01*
X99411088Y-110865795D01*
X99585044Y-110772814D01*
X99680808Y-110508413D01*
X98725000Y-109552605D01*
X97769192Y-110508413D01*
X90977311Y-110508413D01*
X90982974Y-110485701D01*
X91589256Y-109435595D01*
X97083282Y-109435595D01*
X97127039Y-109754675D01*
X97232205Y-110059088D01*
X97325186Y-110233044D01*
X97589587Y-110328808D01*
X98545395Y-109373000D01*
X98904605Y-109373000D01*
X99860413Y-110328808D01*
X100124814Y-110233044D01*
X100265704Y-109943429D01*
X100347384Y-109631892D01*
X100359189Y-109435595D01*
X109583282Y-109435595D01*
X109627039Y-109754675D01*
X109732205Y-110059088D01*
X109825186Y-110233044D01*
X110089587Y-110328808D01*
X111045395Y-109373000D01*
X111404605Y-109373000D01*
X112360413Y-110328808D01*
X112624814Y-110233044D01*
X112765704Y-109943429D01*
X112847384Y-109631892D01*
X112866718Y-109310405D01*
X112822961Y-108991325D01*
X112717795Y-108686912D01*
X112624814Y-108512956D01*
X112360413Y-108417192D01*
X111404605Y-109373000D01*
X111045395Y-109373000D01*
X110089587Y-108417192D01*
X109825186Y-108512956D01*
X109684296Y-108802571D01*
X109602616Y-109114108D01*
X109583282Y-109435595D01*
X100359189Y-109435595D01*
X100366718Y-109310405D01*
X100322961Y-108991325D01*
X100217795Y-108686912D01*
X100124814Y-108512956D01*
X99860413Y-108417192D01*
X98904605Y-109373000D01*
X98545395Y-109373000D01*
X97589587Y-108417192D01*
X97325186Y-108512956D01*
X97184296Y-108802571D01*
X97102616Y-109114108D01*
X97083282Y-109435595D01*
X91589256Y-109435595D01*
X92280930Y-108237587D01*
X97769192Y-108237587D01*
X98725000Y-109193395D01*
X99680808Y-108237587D01*
X99585044Y-107973186D01*
X99295429Y-107832296D01*
X98983892Y-107750616D01*
X98662405Y-107731282D01*
X98343325Y-107775039D01*
X98038912Y-107880205D01*
X97864956Y-107973186D01*
X97769192Y-108237587D01*
X92280930Y-108237587D01*
X92870232Y-107216891D01*
X103390000Y-107216891D01*
X103390000Y-107529109D01*
X103450911Y-107835327D01*
X103570391Y-108123779D01*
X103743850Y-108383379D01*
X103964621Y-108604150D01*
X104224221Y-108777609D01*
X104512673Y-108897089D01*
X104818891Y-108958000D01*
X105131109Y-108958000D01*
X105437327Y-108897089D01*
X105725779Y-108777609D01*
X105985379Y-108604150D01*
X106206150Y-108383379D01*
X106303565Y-108237587D01*
X110269192Y-108237587D01*
X111225000Y-109193395D01*
X112180808Y-108237587D01*
X112085044Y-107973186D01*
X111795429Y-107832296D01*
X111483892Y-107750616D01*
X111162405Y-107731282D01*
X110843325Y-107775039D01*
X110538912Y-107880205D01*
X110364956Y-107973186D01*
X110269192Y-108237587D01*
X106303565Y-108237587D01*
X106379609Y-108123779D01*
X106499089Y-107835327D01*
X106560000Y-107529109D01*
X106560000Y-107216891D01*
X106499089Y-106910673D01*
X106379609Y-106622221D01*
X106206150Y-106362621D01*
X105985379Y-106141850D01*
X105732173Y-105972663D01*
X105826013Y-105909962D01*
X106011962Y-105724013D01*
X106158061Y-105505359D01*
X106258696Y-105262405D01*
X106310000Y-105004486D01*
X106310000Y-104741514D01*
X106258696Y-104483595D01*
X106158061Y-104240641D01*
X106011962Y-104021987D01*
X105826013Y-103836038D01*
X105607359Y-103689939D01*
X105364405Y-103589304D01*
X105106486Y-103538000D01*
X104843514Y-103538000D01*
X104585595Y-103589304D01*
X104342641Y-103689939D01*
X104123987Y-103836038D01*
X103938038Y-104021987D01*
X103791939Y-104240641D01*
X103691304Y-104483595D01*
X103640000Y-104741514D01*
X103640000Y-105004486D01*
X103691304Y-105262405D01*
X103791939Y-105505359D01*
X103938038Y-105724013D01*
X104123987Y-105909962D01*
X104217827Y-105972663D01*
X103964621Y-106141850D01*
X103743850Y-106362621D01*
X103570391Y-106622221D01*
X103450911Y-106910673D01*
X103390000Y-107216891D01*
X92870232Y-107216891D01*
X95453249Y-102743000D01*
X106174509Y-102743000D01*
X106196423Y-102965499D01*
X106261324Y-103179447D01*
X106366716Y-103376623D01*
X106508551Y-103549449D01*
X106681377Y-103691284D01*
X106878553Y-103796676D01*
X107092501Y-103861577D01*
X107259248Y-103878000D01*
X108622869Y-103878000D01*
X110944855Y-106199987D01*
X111074376Y-106306282D01*
X111271552Y-106411675D01*
X111485500Y-106476576D01*
X111707998Y-106498490D01*
X111930497Y-106476576D01*
X112144445Y-106411675D01*
X112341621Y-106306282D01*
X112514447Y-106164447D01*
X112656282Y-105991621D01*
X112761675Y-105794445D01*
X112826576Y-105580497D01*
X112848490Y-105357998D01*
X112826576Y-105135500D01*
X112761675Y-104921552D01*
X112656282Y-104724376D01*
X112549987Y-104594855D01*
X109934996Y-101979865D01*
X109899449Y-101936551D01*
X109726623Y-101794716D01*
X109529447Y-101689324D01*
X109315499Y-101624423D01*
X109148752Y-101608000D01*
X109148751Y-101608000D01*
X109093000Y-101602509D01*
X109037249Y-101608000D01*
X107259248Y-101608000D01*
X107092501Y-101624423D01*
X106878553Y-101689324D01*
X106681377Y-101794716D01*
X106508551Y-101936551D01*
X106366716Y-102109377D01*
X106261324Y-102306553D01*
X106196423Y-102520501D01*
X106174509Y-102743000D01*
X95453249Y-102743000D01*
X99030189Y-96547595D01*
X114558282Y-96547595D01*
X114602039Y-96866675D01*
X114707205Y-97171088D01*
X114800186Y-97345044D01*
X115064587Y-97440808D01*
X116020395Y-96485000D01*
X116379605Y-96485000D01*
X117335413Y-97440808D01*
X117599814Y-97345044D01*
X117740704Y-97055429D01*
X117822384Y-96743892D01*
X117834189Y-96547595D01*
X127058282Y-96547595D01*
X127102039Y-96866675D01*
X127207205Y-97171088D01*
X127300186Y-97345044D01*
X127564587Y-97440808D01*
X128520395Y-96485000D01*
X128879605Y-96485000D01*
X129835413Y-97440808D01*
X130099814Y-97345044D01*
X130240704Y-97055429D01*
X130322384Y-96743892D01*
X130341718Y-96422405D01*
X130297961Y-96103325D01*
X130192795Y-95798912D01*
X130099814Y-95624956D01*
X129835413Y-95529192D01*
X128879605Y-96485000D01*
X128520395Y-96485000D01*
X127564587Y-95529192D01*
X127300186Y-95624956D01*
X127159296Y-95914571D01*
X127077616Y-96226108D01*
X127058282Y-96547595D01*
X117834189Y-96547595D01*
X117841718Y-96422405D01*
X117797961Y-96103325D01*
X117692795Y-95798912D01*
X117599814Y-95624956D01*
X117335413Y-95529192D01*
X116379605Y-96485000D01*
X116020395Y-96485000D01*
X115064587Y-95529192D01*
X114800186Y-95624956D01*
X114659296Y-95914571D01*
X114577616Y-96226108D01*
X114558282Y-96547595D01*
X99030189Y-96547595D01*
X99721863Y-95349587D01*
X115244192Y-95349587D01*
X116200000Y-96305395D01*
X117155808Y-95349587D01*
X117060044Y-95085186D01*
X116770429Y-94944296D01*
X116458892Y-94862616D01*
X116137405Y-94843282D01*
X115818325Y-94887039D01*
X115513912Y-94992205D01*
X115339956Y-95085186D01*
X115244192Y-95349587D01*
X99721863Y-95349587D01*
X100311165Y-94328891D01*
X120865000Y-94328891D01*
X120865000Y-94641109D01*
X120925911Y-94947327D01*
X121045391Y-95235779D01*
X121218850Y-95495379D01*
X121439621Y-95716150D01*
X121699221Y-95889609D01*
X121987673Y-96009089D01*
X122293891Y-96070000D01*
X122606109Y-96070000D01*
X122912327Y-96009089D01*
X123200779Y-95889609D01*
X123460379Y-95716150D01*
X123681150Y-95495379D01*
X123778565Y-95349587D01*
X127744192Y-95349587D01*
X128700000Y-96305395D01*
X129655808Y-95349587D01*
X129560044Y-95085186D01*
X129270429Y-94944296D01*
X128958892Y-94862616D01*
X128637405Y-94843282D01*
X128318325Y-94887039D01*
X128013912Y-94992205D01*
X127839956Y-95085186D01*
X127744192Y-95349587D01*
X123778565Y-95349587D01*
X123854609Y-95235779D01*
X123974089Y-94947327D01*
X124035000Y-94641109D01*
X124035000Y-94328891D01*
X123974089Y-94022673D01*
X123854609Y-93734221D01*
X123681150Y-93474621D01*
X123460379Y-93253850D01*
X123207173Y-93084663D01*
X123301013Y-93021962D01*
X123486962Y-92836013D01*
X123633061Y-92617359D01*
X123733696Y-92374405D01*
X123785000Y-92116486D01*
X123785000Y-91853514D01*
X123733696Y-91595595D01*
X123633061Y-91352641D01*
X123486962Y-91133987D01*
X123301013Y-90948038D01*
X123082359Y-90801939D01*
X122839405Y-90701304D01*
X122581486Y-90650000D01*
X122318514Y-90650000D01*
X122060595Y-90701304D01*
X121817641Y-90801939D01*
X121598987Y-90948038D01*
X121413038Y-91133987D01*
X121266939Y-91352641D01*
X121166304Y-91595595D01*
X121115000Y-91853514D01*
X121115000Y-92116486D01*
X121166304Y-92374405D01*
X121266939Y-92617359D01*
X121413038Y-92836013D01*
X121598987Y-93021962D01*
X121692827Y-93084663D01*
X121439621Y-93253850D01*
X121218850Y-93474621D01*
X121045391Y-93734221D01*
X120925911Y-94022673D01*
X120865000Y-94328891D01*
X100311165Y-94328891D01*
X104124225Y-87724521D01*
X104621200Y-87724521D01*
X104621200Y-88145079D01*
X104703247Y-88557556D01*
X104864188Y-88946102D01*
X105097837Y-89295783D01*
X105395217Y-89593163D01*
X105744898Y-89826812D01*
X106133444Y-89987753D01*
X106545921Y-90069800D01*
X106966479Y-90069800D01*
X107378956Y-89987753D01*
X107767502Y-89826812D01*
X108117183Y-89593163D01*
X108414563Y-89295783D01*
X108648212Y-88946102D01*
X108809153Y-88557556D01*
X108891200Y-88145079D01*
X108891200Y-87724521D01*
X108809153Y-87312044D01*
X108648212Y-86923498D01*
X108414563Y-86573817D01*
X108117183Y-86276437D01*
X107767502Y-86042788D01*
X107378956Y-85881847D01*
X106966479Y-85799800D01*
X106545921Y-85799800D01*
X106133444Y-85881847D01*
X105744898Y-86042788D01*
X105395217Y-86276437D01*
X105097837Y-86573817D01*
X104864188Y-86923498D01*
X104703247Y-87312044D01*
X104621200Y-87724521D01*
X104124225Y-87724521D01*
X105386448Y-85538300D01*
X134249672Y-85538297D01*
X134306055Y-85554039D01*
G36*
X134853442Y-124010312D02*
G01*
X134879593Y-124042177D01*
X135006738Y-124146522D01*
X135151797Y-124224058D01*
X135309195Y-124271804D01*
X135431865Y-124283886D01*
X135431875Y-124283886D01*
X135472883Y-124287925D01*
X135513891Y-124283886D01*
X142080981Y-124283886D01*
X137705869Y-128659000D01*
X132199000Y-128659000D01*
X132199000Y-126654752D01*
X132204491Y-126599000D01*
X132182577Y-126376501D01*
X132117676Y-126162553D01*
X132012284Y-125965377D01*
X131905989Y-125835856D01*
X131905987Y-125835854D01*
X131870449Y-125792551D01*
X131827146Y-125757013D01*
X130750573Y-124680442D01*
X130733696Y-124595595D01*
X130633061Y-124352641D01*
X130486962Y-124133987D01*
X130377975Y-124025000D01*
X130958715Y-124025000D01*
X131081744Y-124107205D01*
X131270102Y-124185226D01*
X131470061Y-124225000D01*
X131673939Y-124225000D01*
X131873898Y-124185226D01*
X132062256Y-124107205D01*
X132231774Y-123993937D01*
X132375937Y-123849774D01*
X132489205Y-123680256D01*
X132567226Y-123491898D01*
X132607000Y-123291939D01*
X132607000Y-123224999D01*
X134068130Y-123224999D01*
X134853442Y-124010312D01*
G37*
X134853442Y-124010312D02*
X134879593Y-124042177D01*
X135006738Y-124146522D01*
X135151797Y-124224058D01*
X135309195Y-124271804D01*
X135431865Y-124283886D01*
X135431875Y-124283886D01*
X135472883Y-124287925D01*
X135513891Y-124283886D01*
X142080981Y-124283886D01*
X137705869Y-128659000D01*
X132199000Y-128659000D01*
X132199000Y-126654752D01*
X132204491Y-126599000D01*
X132182577Y-126376501D01*
X132117676Y-126162553D01*
X132012284Y-125965377D01*
X131905989Y-125835856D01*
X131905987Y-125835854D01*
X131870449Y-125792551D01*
X131827146Y-125757013D01*
X130750573Y-124680442D01*
X130733696Y-124595595D01*
X130633061Y-124352641D01*
X130486962Y-124133987D01*
X130377975Y-124025000D01*
X130958715Y-124025000D01*
X131081744Y-124107205D01*
X131270102Y-124185226D01*
X131470061Y-124225000D01*
X131673939Y-124225000D01*
X131873898Y-124185226D01*
X132062256Y-124107205D01*
X132231774Y-123993937D01*
X132375937Y-123849774D01*
X132489205Y-123680256D01*
X132567226Y-123491898D01*
X132607000Y-123291939D01*
X132607000Y-123224999D01*
X134068130Y-123224999D01*
X134853442Y-124010312D01*
G36*
X133582131Y-121554999D02*
G01*
X120789865Y-121554999D01*
X119557120Y-120322255D01*
X119691108Y-120357384D01*
X120012595Y-120376718D01*
X120331675Y-120332961D01*
X120636088Y-120227795D01*
X120810044Y-120134814D01*
X120905808Y-119870413D01*
X119950000Y-118914605D01*
X119935858Y-118928748D01*
X119756253Y-118749143D01*
X119770395Y-118735000D01*
X119756253Y-118720858D01*
X119935858Y-118541253D01*
X119950000Y-118555395D01*
X119964143Y-118541253D01*
X120143748Y-118720858D01*
X120129605Y-118735000D01*
X121085413Y-119690808D01*
X121349814Y-119595044D01*
X121490704Y-119305429D01*
X121572384Y-118993892D01*
X121591718Y-118672405D01*
X121578219Y-118573967D01*
X123315000Y-118573967D01*
X123315000Y-118896033D01*
X123377832Y-119211912D01*
X123501082Y-119509463D01*
X123680013Y-119777252D01*
X123907748Y-120004987D01*
X124175537Y-120183918D01*
X124473088Y-120307168D01*
X124788967Y-120370000D01*
X125111033Y-120370000D01*
X125426912Y-120307168D01*
X125724463Y-120183918D01*
X125992252Y-120004987D01*
X126219987Y-119777252D01*
X126398918Y-119509463D01*
X126522168Y-119211912D01*
X126585000Y-118896033D01*
X126585000Y-118573967D01*
X126522168Y-118258088D01*
X126398918Y-117960537D01*
X126219987Y-117692748D01*
X125992252Y-117465013D01*
X125724463Y-117286082D01*
X125426912Y-117162832D01*
X125111033Y-117100000D01*
X124788967Y-117100000D01*
X124473088Y-117162832D01*
X124175537Y-117286082D01*
X123907748Y-117465013D01*
X123680013Y-117692748D01*
X123501082Y-117960537D01*
X123377832Y-118258088D01*
X123315000Y-118573967D01*
X121578219Y-118573967D01*
X121547961Y-118353325D01*
X121442795Y-118048912D01*
X121349814Y-117874956D01*
X121086353Y-117779532D01*
X121140256Y-117757205D01*
X121309774Y-117643937D01*
X121453937Y-117499774D01*
X121567205Y-117330256D01*
X121645226Y-117141898D01*
X121674093Y-116996775D01*
X124005433Y-114665436D01*
X124030285Y-114645041D01*
X124103774Y-114595937D01*
X124247937Y-114451774D01*
X124361205Y-114282256D01*
X124439226Y-114093898D01*
X124479000Y-113893939D01*
X124479000Y-113690061D01*
X124439226Y-113490102D01*
X124361205Y-113301744D01*
X124247937Y-113132226D01*
X124218711Y-113103000D01*
X125130133Y-113103000D01*
X133582131Y-121554999D01*
G37*
X133582131Y-121554999D02*
X120789865Y-121554999D01*
X119557120Y-120322255D01*
X119691108Y-120357384D01*
X120012595Y-120376718D01*
X120331675Y-120332961D01*
X120636088Y-120227795D01*
X120810044Y-120134814D01*
X120905808Y-119870413D01*
X119950000Y-118914605D01*
X119935858Y-118928748D01*
X119756253Y-118749143D01*
X119770395Y-118735000D01*
X119756253Y-118720858D01*
X119935858Y-118541253D01*
X119950000Y-118555395D01*
X119964143Y-118541253D01*
X120143748Y-118720858D01*
X120129605Y-118735000D01*
X121085413Y-119690808D01*
X121349814Y-119595044D01*
X121490704Y-119305429D01*
X121572384Y-118993892D01*
X121591718Y-118672405D01*
X121578219Y-118573967D01*
X123315000Y-118573967D01*
X123315000Y-118896033D01*
X123377832Y-119211912D01*
X123501082Y-119509463D01*
X123680013Y-119777252D01*
X123907748Y-120004987D01*
X124175537Y-120183918D01*
X124473088Y-120307168D01*
X124788967Y-120370000D01*
X125111033Y-120370000D01*
X125426912Y-120307168D01*
X125724463Y-120183918D01*
X125992252Y-120004987D01*
X126219987Y-119777252D01*
X126398918Y-119509463D01*
X126522168Y-119211912D01*
X126585000Y-118896033D01*
X126585000Y-118573967D01*
X126522168Y-118258088D01*
X126398918Y-117960537D01*
X126219987Y-117692748D01*
X125992252Y-117465013D01*
X125724463Y-117286082D01*
X125426912Y-117162832D01*
X125111033Y-117100000D01*
X124788967Y-117100000D01*
X124473088Y-117162832D01*
X124175537Y-117286082D01*
X123907748Y-117465013D01*
X123680013Y-117692748D01*
X123501082Y-117960537D01*
X123377832Y-118258088D01*
X123315000Y-118573967D01*
X121578219Y-118573967D01*
X121547961Y-118353325D01*
X121442795Y-118048912D01*
X121349814Y-117874956D01*
X121086353Y-117779532D01*
X121140256Y-117757205D01*
X121309774Y-117643937D01*
X121453937Y-117499774D01*
X121567205Y-117330256D01*
X121645226Y-117141898D01*
X121674093Y-116996775D01*
X124005433Y-114665436D01*
X124030285Y-114645041D01*
X124103774Y-114595937D01*
X124247937Y-114451774D01*
X124361205Y-114282256D01*
X124439226Y-114093898D01*
X124479000Y-113893939D01*
X124479000Y-113690061D01*
X124439226Y-113490102D01*
X124361205Y-113301744D01*
X124247937Y-113132226D01*
X124218711Y-113103000D01*
X125130133Y-113103000D01*
X133582131Y-121554999D01*
M02*
