M48
INCH,TZ
T1C0.0157
T2C0.0315
T3C0.0394
T4C0.0472
%
G90
G05
T1
X36700Y-43000
X37100Y-48000
X37500Y-45400
X38600Y-40500
X39200Y-51600
X39600Y-43100
X40000Y-38100
X41000Y-54400
X41200Y-35900
X41300Y-47900
X41629Y-45029
X42200Y-48400
X42250Y-40450
X42300Y-39100
X42800Y-51900
X43000Y-43100
X43200Y-47900
X43500Y-54800
X43600Y-46300
X43980Y-41480
X44000Y-34400
X44200Y-48900
X44300Y-56600
X44400Y-38600
X44400Y-43900
X44500Y-42100
X44900Y-44700
X45500Y-45000
X45800Y-45300
X46000Y-52600
X46300Y-52900
X46400Y-46300
X46500Y-38000
X47200Y-47500
X47200Y-50800
X47500Y-34300
X47500Y-46000
X47600Y-44200
X47900Y-38500
X48000Y-45000
X48200Y-52200
X48400Y-43400
X48600Y-44800
X49700Y-40700
X49900Y-38000
X50100Y-53100
X50350Y-46200
X50400Y-43000
X50576Y-53043
X50600Y-44600
X50800Y-51800
X51500Y-34300
X51500Y-47300
X51500Y-56500
X51600Y-51100
X51800Y-48500
X52000Y-44200
X52900Y-52200
X53000Y-40500
X53200Y-48000
X53400Y-43100
X53500Y-46500
X53600Y-35700
X53600Y-37700
X53700Y-39000
X53700Y-54900
X54000Y-49300
X54300Y-38300
X54350Y-41500
X55100Y-47900
X55150Y-49250
X55600Y-40500
X55800Y-54200
X56000Y-36700
X56300Y-47700
X56300Y-49200
X56400Y-39000
X56800Y-50000
X56900Y-43100
X57300Y-46700
X57400Y-38900
X58600Y-41200
X60000Y-46900
X60100Y-43800
T2
X55128Y-41279
X55128Y-46791
X45453Y-49207
X50965Y-49207
X48209Y-36215
X48209Y-41726
X41329Y-41289
X41329Y-46800
T3
X56100Y-52932
X56600Y-52066
X57100Y-51200
X57600Y-50334
X58100Y-49468
X58600Y-48602
T4
X45748Y-37986
X45748Y-39955
X50669Y-37986
X50669Y-39955
X38868Y-43060
X38868Y-45029
X43789Y-43060
X43789Y-45029
X52667Y-43050
X52667Y-45019
X57589Y-43050
X57589Y-45019
X47224Y-46746
X47224Y-51667
X49193Y-46746
X49193Y-51667
T0
M30
