G04 #@! TF.GenerationSoftware,KiCad,Pcbnew,(5.1.4)-1*
G04 #@! TF.CreationDate,2019-11-26T11:13:51+01:00*
G04 #@! TF.ProjectId,SoundModule,536f756e-644d-46f6-9475-6c652e6b6963,rev?*
G04 #@! TF.SameCoordinates,Original*
G04 #@! TF.FileFunction,Soldermask,Top*
G04 #@! TF.FilePolarity,Negative*
%FSLAX46Y46*%
G04 Gerber Fmt 4.6, Leading zero omitted, Abs format (unit mm)*
G04 Created by KiCad (PCBNEW (5.1.4)-1) date 2019-11-26 11:13:51*
%MOMM*%
%LPD*%
G04 APERTURE LIST*
%ADD10C,0.100000*%
G04 APERTURE END LIST*
D10*
G36*
X120754340Y-103969520D02*
G01*
X119128340Y-103969520D01*
X119128340Y-99867520D01*
X120754340Y-99867520D01*
X120754340Y-103969520D01*
X120754340Y-103969520D01*
G37*
G36*
X125834340Y-103969520D02*
G01*
X124208340Y-103969520D01*
X124208340Y-99867520D01*
X125834340Y-99867520D01*
X125834340Y-103969520D01*
X125834340Y-103969520D01*
G37*
G36*
X123294340Y-103969520D02*
G01*
X121668340Y-103969520D01*
X121668340Y-99867520D01*
X123294340Y-99867520D01*
X123294340Y-103969520D01*
X123294340Y-103969520D01*
G37*
G36*
X130872354Y-96985045D02*
G01*
X130910047Y-96996479D01*
X130944783Y-97015046D01*
X130975228Y-97040032D01*
X131000214Y-97070477D01*
X131018781Y-97105213D01*
X131030215Y-97142906D01*
X131034680Y-97188241D01*
X131034680Y-98274919D01*
X131030215Y-98320254D01*
X131018781Y-98357947D01*
X131000214Y-98392683D01*
X130975228Y-98423128D01*
X130944783Y-98448114D01*
X130910047Y-98466681D01*
X130872354Y-98478115D01*
X130827019Y-98482580D01*
X129990341Y-98482580D01*
X129945006Y-98478115D01*
X129907313Y-98466681D01*
X129872577Y-98448114D01*
X129842132Y-98423128D01*
X129817146Y-98392683D01*
X129798579Y-98357947D01*
X129787145Y-98320254D01*
X129782680Y-98274919D01*
X129782680Y-97188241D01*
X129787145Y-97142906D01*
X129798579Y-97105213D01*
X129817146Y-97070477D01*
X129842132Y-97040032D01*
X129872577Y-97015046D01*
X129907313Y-96996479D01*
X129945006Y-96985045D01*
X129990341Y-96980580D01*
X130827019Y-96980580D01*
X130872354Y-96985045D01*
X130872354Y-96985045D01*
G37*
G36*
X132922354Y-96985045D02*
G01*
X132960047Y-96996479D01*
X132994783Y-97015046D01*
X133025228Y-97040032D01*
X133050214Y-97070477D01*
X133068781Y-97105213D01*
X133080215Y-97142906D01*
X133084680Y-97188241D01*
X133084680Y-98274919D01*
X133080215Y-98320254D01*
X133068781Y-98357947D01*
X133050214Y-98392683D01*
X133025228Y-98423128D01*
X132994783Y-98448114D01*
X132960047Y-98466681D01*
X132922354Y-98478115D01*
X132877019Y-98482580D01*
X132040341Y-98482580D01*
X131995006Y-98478115D01*
X131957313Y-98466681D01*
X131922577Y-98448114D01*
X131892132Y-98423128D01*
X131867146Y-98392683D01*
X131848579Y-98357947D01*
X131837145Y-98320254D01*
X131832680Y-98274919D01*
X131832680Y-97188241D01*
X131837145Y-97142906D01*
X131848579Y-97105213D01*
X131867146Y-97070477D01*
X131892132Y-97040032D01*
X131922577Y-97015046D01*
X131957313Y-96996479D01*
X131995006Y-96985045D01*
X132040341Y-96980580D01*
X132877019Y-96980580D01*
X132922354Y-96985045D01*
X132922354Y-96985045D01*
G37*
G36*
X130837954Y-93769405D02*
G01*
X130875647Y-93780839D01*
X130910383Y-93799406D01*
X130940828Y-93824392D01*
X130965814Y-93854837D01*
X130984381Y-93889573D01*
X130995815Y-93927266D01*
X131000280Y-93972601D01*
X131000280Y-95059279D01*
X130995815Y-95104614D01*
X130984381Y-95142307D01*
X130965814Y-95177043D01*
X130940828Y-95207488D01*
X130910383Y-95232474D01*
X130875647Y-95251041D01*
X130837954Y-95262475D01*
X130792619Y-95266940D01*
X129955941Y-95266940D01*
X129910606Y-95262475D01*
X129872913Y-95251041D01*
X129838177Y-95232474D01*
X129807732Y-95207488D01*
X129782746Y-95177043D01*
X129764179Y-95142307D01*
X129752745Y-95104614D01*
X129748280Y-95059279D01*
X129748280Y-93972601D01*
X129752745Y-93927266D01*
X129764179Y-93889573D01*
X129782746Y-93854837D01*
X129807732Y-93824392D01*
X129838177Y-93799406D01*
X129872913Y-93780839D01*
X129910606Y-93769405D01*
X129955941Y-93764940D01*
X130792619Y-93764940D01*
X130837954Y-93769405D01*
X130837954Y-93769405D01*
G37*
G36*
X132887954Y-93769405D02*
G01*
X132925647Y-93780839D01*
X132960383Y-93799406D01*
X132990828Y-93824392D01*
X133015814Y-93854837D01*
X133034381Y-93889573D01*
X133045815Y-93927266D01*
X133050280Y-93972601D01*
X133050280Y-95059279D01*
X133045815Y-95104614D01*
X133034381Y-95142307D01*
X133015814Y-95177043D01*
X132990828Y-95207488D01*
X132960383Y-95232474D01*
X132925647Y-95251041D01*
X132887954Y-95262475D01*
X132842619Y-95266940D01*
X132005941Y-95266940D01*
X131960606Y-95262475D01*
X131922913Y-95251041D01*
X131888177Y-95232474D01*
X131857732Y-95207488D01*
X131832746Y-95177043D01*
X131814179Y-95142307D01*
X131802745Y-95104614D01*
X131798280Y-95059279D01*
X131798280Y-93972601D01*
X131802745Y-93927266D01*
X131814179Y-93889573D01*
X131832746Y-93854837D01*
X131857732Y-93824392D01*
X131888177Y-93799406D01*
X131922913Y-93780839D01*
X131960606Y-93769405D01*
X132005941Y-93764940D01*
X132842619Y-93764940D01*
X132887954Y-93769405D01*
X132887954Y-93769405D01*
G37*
G36*
X127162180Y-92846680D02*
G01*
X124560180Y-92846680D01*
X124560180Y-86444680D01*
X127162180Y-86444680D01*
X127162180Y-92846680D01*
X127162180Y-92846680D01*
G37*
G36*
X119962180Y-92846680D02*
G01*
X117360180Y-92846680D01*
X117360180Y-86444680D01*
X119962180Y-86444680D01*
X119962180Y-92846680D01*
X119962180Y-92846680D01*
G37*
G36*
X118809674Y-83561145D02*
G01*
X118847367Y-83572579D01*
X118882103Y-83591146D01*
X118912548Y-83616132D01*
X118937534Y-83646577D01*
X118956101Y-83681313D01*
X118967535Y-83719006D01*
X118972000Y-83764341D01*
X118972000Y-84851019D01*
X118967535Y-84896354D01*
X118956101Y-84934047D01*
X118937534Y-84968783D01*
X118912548Y-84999228D01*
X118882103Y-85024214D01*
X118847367Y-85042781D01*
X118809674Y-85054215D01*
X118764339Y-85058680D01*
X117927661Y-85058680D01*
X117882326Y-85054215D01*
X117844633Y-85042781D01*
X117809897Y-85024214D01*
X117779452Y-84999228D01*
X117754466Y-84968783D01*
X117735899Y-84934047D01*
X117724465Y-84896354D01*
X117720000Y-84851019D01*
X117720000Y-83764341D01*
X117724465Y-83719006D01*
X117735899Y-83681313D01*
X117754466Y-83646577D01*
X117779452Y-83616132D01*
X117809897Y-83591146D01*
X117844633Y-83572579D01*
X117882326Y-83561145D01*
X117927661Y-83556680D01*
X118764339Y-83556680D01*
X118809674Y-83561145D01*
X118809674Y-83561145D01*
G37*
G36*
X120859674Y-83561145D02*
G01*
X120897367Y-83572579D01*
X120932103Y-83591146D01*
X120962548Y-83616132D01*
X120987534Y-83646577D01*
X121006101Y-83681313D01*
X121017535Y-83719006D01*
X121022000Y-83764341D01*
X121022000Y-84851019D01*
X121017535Y-84896354D01*
X121006101Y-84934047D01*
X120987534Y-84968783D01*
X120962548Y-84999228D01*
X120932103Y-85024214D01*
X120897367Y-85042781D01*
X120859674Y-85054215D01*
X120814339Y-85058680D01*
X119977661Y-85058680D01*
X119932326Y-85054215D01*
X119894633Y-85042781D01*
X119859897Y-85024214D01*
X119829452Y-84999228D01*
X119804466Y-84968783D01*
X119785899Y-84934047D01*
X119774465Y-84896354D01*
X119770000Y-84851019D01*
X119770000Y-83764341D01*
X119774465Y-83719006D01*
X119785899Y-83681313D01*
X119804466Y-83646577D01*
X119829452Y-83616132D01*
X119859897Y-83591146D01*
X119894633Y-83572579D01*
X119932326Y-83561145D01*
X119977661Y-83556680D01*
X120814339Y-83556680D01*
X120859674Y-83561145D01*
X120859674Y-83561145D01*
G37*
G36*
X125916643Y-80588719D02*
G01*
X125982827Y-80595237D01*
X126152666Y-80646757D01*
X126309191Y-80730422D01*
X126344929Y-80759752D01*
X126446386Y-80843014D01*
X126529648Y-80944471D01*
X126558978Y-80980209D01*
X126642643Y-81136734D01*
X126694163Y-81306573D01*
X126711559Y-81483200D01*
X126694163Y-81659827D01*
X126642643Y-81829666D01*
X126558978Y-81986191D01*
X126529648Y-82021929D01*
X126446386Y-82123386D01*
X126344929Y-82206648D01*
X126309191Y-82235978D01*
X126152666Y-82319643D01*
X125982827Y-82371163D01*
X125916642Y-82377682D01*
X125850460Y-82384200D01*
X125761940Y-82384200D01*
X125695758Y-82377682D01*
X125629573Y-82371163D01*
X125459734Y-82319643D01*
X125303209Y-82235978D01*
X125267471Y-82206648D01*
X125166014Y-82123386D01*
X125082752Y-82021929D01*
X125053422Y-81986191D01*
X124969757Y-81829666D01*
X124918237Y-81659827D01*
X124900841Y-81483200D01*
X124918237Y-81306573D01*
X124969757Y-81136734D01*
X125053422Y-80980209D01*
X125082752Y-80944471D01*
X125166014Y-80843014D01*
X125267471Y-80759752D01*
X125303209Y-80730422D01*
X125459734Y-80646757D01*
X125629573Y-80595237D01*
X125695757Y-80588719D01*
X125761940Y-80582200D01*
X125850460Y-80582200D01*
X125916643Y-80588719D01*
X125916643Y-80588719D01*
G37*
G36*
X116547200Y-82384200D02*
G01*
X114745200Y-82384200D01*
X114745200Y-80582200D01*
X116547200Y-80582200D01*
X116547200Y-82384200D01*
X116547200Y-82384200D01*
G37*
G36*
X118296643Y-80588719D02*
G01*
X118362827Y-80595237D01*
X118532666Y-80646757D01*
X118689191Y-80730422D01*
X118724929Y-80759752D01*
X118826386Y-80843014D01*
X118909648Y-80944471D01*
X118938978Y-80980209D01*
X119022643Y-81136734D01*
X119074163Y-81306573D01*
X119091559Y-81483200D01*
X119074163Y-81659827D01*
X119022643Y-81829666D01*
X118938978Y-81986191D01*
X118909648Y-82021929D01*
X118826386Y-82123386D01*
X118724929Y-82206648D01*
X118689191Y-82235978D01*
X118532666Y-82319643D01*
X118362827Y-82371163D01*
X118296642Y-82377682D01*
X118230460Y-82384200D01*
X118141940Y-82384200D01*
X118075758Y-82377682D01*
X118009573Y-82371163D01*
X117839734Y-82319643D01*
X117683209Y-82235978D01*
X117647471Y-82206648D01*
X117546014Y-82123386D01*
X117462752Y-82021929D01*
X117433422Y-81986191D01*
X117349757Y-81829666D01*
X117298237Y-81659827D01*
X117280841Y-81483200D01*
X117298237Y-81306573D01*
X117349757Y-81136734D01*
X117433422Y-80980209D01*
X117462752Y-80944471D01*
X117546014Y-80843014D01*
X117647471Y-80759752D01*
X117683209Y-80730422D01*
X117839734Y-80646757D01*
X118009573Y-80595237D01*
X118075757Y-80588719D01*
X118141940Y-80582200D01*
X118230460Y-80582200D01*
X118296643Y-80588719D01*
X118296643Y-80588719D01*
G37*
G36*
X120836643Y-80588719D02*
G01*
X120902827Y-80595237D01*
X121072666Y-80646757D01*
X121229191Y-80730422D01*
X121264929Y-80759752D01*
X121366386Y-80843014D01*
X121449648Y-80944471D01*
X121478978Y-80980209D01*
X121562643Y-81136734D01*
X121614163Y-81306573D01*
X121631559Y-81483200D01*
X121614163Y-81659827D01*
X121562643Y-81829666D01*
X121478978Y-81986191D01*
X121449648Y-82021929D01*
X121366386Y-82123386D01*
X121264929Y-82206648D01*
X121229191Y-82235978D01*
X121072666Y-82319643D01*
X120902827Y-82371163D01*
X120836642Y-82377682D01*
X120770460Y-82384200D01*
X120681940Y-82384200D01*
X120615758Y-82377682D01*
X120549573Y-82371163D01*
X120379734Y-82319643D01*
X120223209Y-82235978D01*
X120187471Y-82206648D01*
X120086014Y-82123386D01*
X120002752Y-82021929D01*
X119973422Y-81986191D01*
X119889757Y-81829666D01*
X119838237Y-81659827D01*
X119820841Y-81483200D01*
X119838237Y-81306573D01*
X119889757Y-81136734D01*
X119973422Y-80980209D01*
X120002752Y-80944471D01*
X120086014Y-80843014D01*
X120187471Y-80759752D01*
X120223209Y-80730422D01*
X120379734Y-80646757D01*
X120549573Y-80595237D01*
X120615757Y-80588719D01*
X120681940Y-80582200D01*
X120770460Y-80582200D01*
X120836643Y-80588719D01*
X120836643Y-80588719D01*
G37*
G36*
X123376643Y-80588719D02*
G01*
X123442827Y-80595237D01*
X123612666Y-80646757D01*
X123769191Y-80730422D01*
X123804929Y-80759752D01*
X123906386Y-80843014D01*
X123989648Y-80944471D01*
X124018978Y-80980209D01*
X124102643Y-81136734D01*
X124154163Y-81306573D01*
X124171559Y-81483200D01*
X124154163Y-81659827D01*
X124102643Y-81829666D01*
X124018978Y-81986191D01*
X123989648Y-82021929D01*
X123906386Y-82123386D01*
X123804929Y-82206648D01*
X123769191Y-82235978D01*
X123612666Y-82319643D01*
X123442827Y-82371163D01*
X123376642Y-82377682D01*
X123310460Y-82384200D01*
X123221940Y-82384200D01*
X123155758Y-82377682D01*
X123089573Y-82371163D01*
X122919734Y-82319643D01*
X122763209Y-82235978D01*
X122727471Y-82206648D01*
X122626014Y-82123386D01*
X122542752Y-82021929D01*
X122513422Y-81986191D01*
X122429757Y-81829666D01*
X122378237Y-81659827D01*
X122360841Y-81483200D01*
X122378237Y-81306573D01*
X122429757Y-81136734D01*
X122513422Y-80980209D01*
X122542752Y-80944471D01*
X122626014Y-80843014D01*
X122727471Y-80759752D01*
X122763209Y-80730422D01*
X122919734Y-80646757D01*
X123089573Y-80595237D01*
X123155757Y-80588719D01*
X123221940Y-80582200D01*
X123310460Y-80582200D01*
X123376643Y-80588719D01*
X123376643Y-80588719D01*
G37*
G36*
X128456643Y-80588719D02*
G01*
X128522827Y-80595237D01*
X128692666Y-80646757D01*
X128849191Y-80730422D01*
X128884929Y-80759752D01*
X128986386Y-80843014D01*
X129069648Y-80944471D01*
X129098978Y-80980209D01*
X129182643Y-81136734D01*
X129234163Y-81306573D01*
X129251559Y-81483200D01*
X129234163Y-81659827D01*
X129182643Y-81829666D01*
X129098978Y-81986191D01*
X129069648Y-82021929D01*
X128986386Y-82123386D01*
X128884929Y-82206648D01*
X128849191Y-82235978D01*
X128692666Y-82319643D01*
X128522827Y-82371163D01*
X128456642Y-82377682D01*
X128390460Y-82384200D01*
X128301940Y-82384200D01*
X128235758Y-82377682D01*
X128169573Y-82371163D01*
X127999734Y-82319643D01*
X127843209Y-82235978D01*
X127807471Y-82206648D01*
X127706014Y-82123386D01*
X127622752Y-82021929D01*
X127593422Y-81986191D01*
X127509757Y-81829666D01*
X127458237Y-81659827D01*
X127440841Y-81483200D01*
X127458237Y-81306573D01*
X127509757Y-81136734D01*
X127593422Y-80980209D01*
X127622752Y-80944471D01*
X127706014Y-80843014D01*
X127807471Y-80759752D01*
X127843209Y-80730422D01*
X127999734Y-80646757D01*
X128169573Y-80595237D01*
X128235757Y-80588719D01*
X128301940Y-80582200D01*
X128390460Y-80582200D01*
X128456643Y-80588719D01*
X128456643Y-80588719D01*
G37*
G36*
X128451563Y-76936199D02*
G01*
X128517747Y-76942717D01*
X128687586Y-76994237D01*
X128844111Y-77077902D01*
X128879849Y-77107232D01*
X128981306Y-77190494D01*
X129064568Y-77291951D01*
X129093898Y-77327689D01*
X129177563Y-77484214D01*
X129229083Y-77654053D01*
X129246479Y-77830680D01*
X129229083Y-78007307D01*
X129177563Y-78177146D01*
X129093898Y-78333671D01*
X129064568Y-78369409D01*
X128981306Y-78470866D01*
X128879849Y-78554128D01*
X128844111Y-78583458D01*
X128687586Y-78667123D01*
X128517747Y-78718643D01*
X128451562Y-78725162D01*
X128385380Y-78731680D01*
X128296860Y-78731680D01*
X128230678Y-78725162D01*
X128164493Y-78718643D01*
X127994654Y-78667123D01*
X127838129Y-78583458D01*
X127802391Y-78554128D01*
X127700934Y-78470866D01*
X127617672Y-78369409D01*
X127588342Y-78333671D01*
X127504677Y-78177146D01*
X127453157Y-78007307D01*
X127435761Y-77830680D01*
X127453157Y-77654053D01*
X127504677Y-77484214D01*
X127588342Y-77327689D01*
X127617672Y-77291951D01*
X127700934Y-77190494D01*
X127802391Y-77107232D01*
X127838129Y-77077902D01*
X127994654Y-76994237D01*
X128164493Y-76942717D01*
X128230677Y-76936199D01*
X128296860Y-76929680D01*
X128385380Y-76929680D01*
X128451563Y-76936199D01*
X128451563Y-76936199D01*
G37*
G36*
X116542120Y-78731680D02*
G01*
X114740120Y-78731680D01*
X114740120Y-76929680D01*
X116542120Y-76929680D01*
X116542120Y-78731680D01*
X116542120Y-78731680D01*
G37*
G36*
X118291563Y-76936199D02*
G01*
X118357747Y-76942717D01*
X118527586Y-76994237D01*
X118684111Y-77077902D01*
X118719849Y-77107232D01*
X118821306Y-77190494D01*
X118904568Y-77291951D01*
X118933898Y-77327689D01*
X119017563Y-77484214D01*
X119069083Y-77654053D01*
X119086479Y-77830680D01*
X119069083Y-78007307D01*
X119017563Y-78177146D01*
X118933898Y-78333671D01*
X118904568Y-78369409D01*
X118821306Y-78470866D01*
X118719849Y-78554128D01*
X118684111Y-78583458D01*
X118527586Y-78667123D01*
X118357747Y-78718643D01*
X118291562Y-78725162D01*
X118225380Y-78731680D01*
X118136860Y-78731680D01*
X118070678Y-78725162D01*
X118004493Y-78718643D01*
X117834654Y-78667123D01*
X117678129Y-78583458D01*
X117642391Y-78554128D01*
X117540934Y-78470866D01*
X117457672Y-78369409D01*
X117428342Y-78333671D01*
X117344677Y-78177146D01*
X117293157Y-78007307D01*
X117275761Y-77830680D01*
X117293157Y-77654053D01*
X117344677Y-77484214D01*
X117428342Y-77327689D01*
X117457672Y-77291951D01*
X117540934Y-77190494D01*
X117642391Y-77107232D01*
X117678129Y-77077902D01*
X117834654Y-76994237D01*
X118004493Y-76942717D01*
X118070677Y-76936199D01*
X118136860Y-76929680D01*
X118225380Y-76929680D01*
X118291563Y-76936199D01*
X118291563Y-76936199D01*
G37*
G36*
X120831563Y-76936199D02*
G01*
X120897747Y-76942717D01*
X121067586Y-76994237D01*
X121224111Y-77077902D01*
X121259849Y-77107232D01*
X121361306Y-77190494D01*
X121444568Y-77291951D01*
X121473898Y-77327689D01*
X121557563Y-77484214D01*
X121609083Y-77654053D01*
X121626479Y-77830680D01*
X121609083Y-78007307D01*
X121557563Y-78177146D01*
X121473898Y-78333671D01*
X121444568Y-78369409D01*
X121361306Y-78470866D01*
X121259849Y-78554128D01*
X121224111Y-78583458D01*
X121067586Y-78667123D01*
X120897747Y-78718643D01*
X120831562Y-78725162D01*
X120765380Y-78731680D01*
X120676860Y-78731680D01*
X120610678Y-78725162D01*
X120544493Y-78718643D01*
X120374654Y-78667123D01*
X120218129Y-78583458D01*
X120182391Y-78554128D01*
X120080934Y-78470866D01*
X119997672Y-78369409D01*
X119968342Y-78333671D01*
X119884677Y-78177146D01*
X119833157Y-78007307D01*
X119815761Y-77830680D01*
X119833157Y-77654053D01*
X119884677Y-77484214D01*
X119968342Y-77327689D01*
X119997672Y-77291951D01*
X120080934Y-77190494D01*
X120182391Y-77107232D01*
X120218129Y-77077902D01*
X120374654Y-76994237D01*
X120544493Y-76942717D01*
X120610677Y-76936199D01*
X120676860Y-76929680D01*
X120765380Y-76929680D01*
X120831563Y-76936199D01*
X120831563Y-76936199D01*
G37*
G36*
X123371563Y-76936199D02*
G01*
X123437747Y-76942717D01*
X123607586Y-76994237D01*
X123764111Y-77077902D01*
X123799849Y-77107232D01*
X123901306Y-77190494D01*
X123984568Y-77291951D01*
X124013898Y-77327689D01*
X124097563Y-77484214D01*
X124149083Y-77654053D01*
X124166479Y-77830680D01*
X124149083Y-78007307D01*
X124097563Y-78177146D01*
X124013898Y-78333671D01*
X123984568Y-78369409D01*
X123901306Y-78470866D01*
X123799849Y-78554128D01*
X123764111Y-78583458D01*
X123607586Y-78667123D01*
X123437747Y-78718643D01*
X123371562Y-78725162D01*
X123305380Y-78731680D01*
X123216860Y-78731680D01*
X123150678Y-78725162D01*
X123084493Y-78718643D01*
X122914654Y-78667123D01*
X122758129Y-78583458D01*
X122722391Y-78554128D01*
X122620934Y-78470866D01*
X122537672Y-78369409D01*
X122508342Y-78333671D01*
X122424677Y-78177146D01*
X122373157Y-78007307D01*
X122355761Y-77830680D01*
X122373157Y-77654053D01*
X122424677Y-77484214D01*
X122508342Y-77327689D01*
X122537672Y-77291951D01*
X122620934Y-77190494D01*
X122722391Y-77107232D01*
X122758129Y-77077902D01*
X122914654Y-76994237D01*
X123084493Y-76942717D01*
X123150677Y-76936199D01*
X123216860Y-76929680D01*
X123305380Y-76929680D01*
X123371563Y-76936199D01*
X123371563Y-76936199D01*
G37*
G36*
X125911563Y-76936199D02*
G01*
X125977747Y-76942717D01*
X126147586Y-76994237D01*
X126304111Y-77077902D01*
X126339849Y-77107232D01*
X126441306Y-77190494D01*
X126524568Y-77291951D01*
X126553898Y-77327689D01*
X126637563Y-77484214D01*
X126689083Y-77654053D01*
X126706479Y-77830680D01*
X126689083Y-78007307D01*
X126637563Y-78177146D01*
X126553898Y-78333671D01*
X126524568Y-78369409D01*
X126441306Y-78470866D01*
X126339849Y-78554128D01*
X126304111Y-78583458D01*
X126147586Y-78667123D01*
X125977747Y-78718643D01*
X125911562Y-78725162D01*
X125845380Y-78731680D01*
X125756860Y-78731680D01*
X125690678Y-78725162D01*
X125624493Y-78718643D01*
X125454654Y-78667123D01*
X125298129Y-78583458D01*
X125262391Y-78554128D01*
X125160934Y-78470866D01*
X125077672Y-78369409D01*
X125048342Y-78333671D01*
X124964677Y-78177146D01*
X124913157Y-78007307D01*
X124895761Y-77830680D01*
X124913157Y-77654053D01*
X124964677Y-77484214D01*
X125048342Y-77327689D01*
X125077672Y-77291951D01*
X125160934Y-77190494D01*
X125262391Y-77107232D01*
X125298129Y-77077902D01*
X125454654Y-76994237D01*
X125624493Y-76942717D01*
X125690677Y-76936199D01*
X125756860Y-76929680D01*
X125845380Y-76929680D01*
X125911563Y-76936199D01*
X125911563Y-76936199D01*
G37*
G36*
X116340794Y-74036145D02*
G01*
X116378487Y-74047579D01*
X116413223Y-74066146D01*
X116443668Y-74091132D01*
X116468654Y-74121577D01*
X116487221Y-74156313D01*
X116498655Y-74194006D01*
X116503120Y-74239341D01*
X116503120Y-75326019D01*
X116498655Y-75371354D01*
X116487221Y-75409047D01*
X116468654Y-75443783D01*
X116443668Y-75474228D01*
X116413223Y-75499214D01*
X116378487Y-75517781D01*
X116340794Y-75529215D01*
X116295459Y-75533680D01*
X115458781Y-75533680D01*
X115413446Y-75529215D01*
X115375753Y-75517781D01*
X115341017Y-75499214D01*
X115310572Y-75474228D01*
X115285586Y-75443783D01*
X115267019Y-75409047D01*
X115255585Y-75371354D01*
X115251120Y-75326019D01*
X115251120Y-74239341D01*
X115255585Y-74194006D01*
X115267019Y-74156313D01*
X115285586Y-74121577D01*
X115310572Y-74091132D01*
X115341017Y-74066146D01*
X115375753Y-74047579D01*
X115413446Y-74036145D01*
X115458781Y-74031680D01*
X116295459Y-74031680D01*
X116340794Y-74036145D01*
X116340794Y-74036145D01*
G37*
G36*
X118390794Y-74036145D02*
G01*
X118428487Y-74047579D01*
X118463223Y-74066146D01*
X118493668Y-74091132D01*
X118518654Y-74121577D01*
X118537221Y-74156313D01*
X118548655Y-74194006D01*
X118553120Y-74239341D01*
X118553120Y-75326019D01*
X118548655Y-75371354D01*
X118537221Y-75409047D01*
X118518654Y-75443783D01*
X118493668Y-75474228D01*
X118463223Y-75499214D01*
X118428487Y-75517781D01*
X118390794Y-75529215D01*
X118345459Y-75533680D01*
X117508781Y-75533680D01*
X117463446Y-75529215D01*
X117425753Y-75517781D01*
X117391017Y-75499214D01*
X117360572Y-75474228D01*
X117335586Y-75443783D01*
X117317019Y-75409047D01*
X117305585Y-75371354D01*
X117301120Y-75326019D01*
X117301120Y-74239341D01*
X117305585Y-74194006D01*
X117317019Y-74156313D01*
X117335586Y-74121577D01*
X117360572Y-74091132D01*
X117391017Y-74066146D01*
X117425753Y-74047579D01*
X117463446Y-74036145D01*
X117508781Y-74031680D01*
X118345459Y-74031680D01*
X118390794Y-74036145D01*
X118390794Y-74036145D01*
G37*
G36*
X122990514Y-71698614D02*
G01*
X123141744Y-71761256D01*
X123141746Y-71761257D01*
X123277852Y-71852200D01*
X123393600Y-71967948D01*
X123426945Y-72017853D01*
X123484544Y-72104056D01*
X123547186Y-72255286D01*
X123579120Y-72415832D01*
X123579120Y-72579528D01*
X123547186Y-72740074D01*
X123484544Y-72891304D01*
X123484543Y-72891306D01*
X123393600Y-73027412D01*
X123277852Y-73143160D01*
X123141746Y-73234103D01*
X123141745Y-73234104D01*
X123141744Y-73234104D01*
X122990514Y-73296746D01*
X122829968Y-73328680D01*
X122666272Y-73328680D01*
X122505726Y-73296746D01*
X122354496Y-73234104D01*
X122354495Y-73234104D01*
X122354494Y-73234103D01*
X122218388Y-73143160D01*
X122102640Y-73027412D01*
X122011697Y-72891306D01*
X122011696Y-72891304D01*
X121949054Y-72740074D01*
X121917120Y-72579528D01*
X121917120Y-72415832D01*
X121949054Y-72255286D01*
X122011696Y-72104056D01*
X122069295Y-72017853D01*
X122102640Y-71967948D01*
X122218388Y-71852200D01*
X122354494Y-71761257D01*
X122354496Y-71761256D01*
X122505726Y-71698614D01*
X122666272Y-71666680D01*
X122829968Y-71666680D01*
X122990514Y-71698614D01*
X122990514Y-71698614D01*
G37*
G36*
X118390794Y-71750145D02*
G01*
X118428487Y-71761579D01*
X118463223Y-71780146D01*
X118493668Y-71805132D01*
X118518654Y-71835577D01*
X118537221Y-71870313D01*
X118548655Y-71908006D01*
X118553120Y-71953341D01*
X118553120Y-73040019D01*
X118548655Y-73085354D01*
X118537221Y-73123047D01*
X118518654Y-73157783D01*
X118493668Y-73188228D01*
X118463223Y-73213214D01*
X118428487Y-73231781D01*
X118390794Y-73243215D01*
X118345459Y-73247680D01*
X117508781Y-73247680D01*
X117463446Y-73243215D01*
X117425753Y-73231781D01*
X117391017Y-73213214D01*
X117360572Y-73188228D01*
X117335586Y-73157783D01*
X117317019Y-73123047D01*
X117305585Y-73085354D01*
X117301120Y-73040019D01*
X117301120Y-71953341D01*
X117305585Y-71908006D01*
X117317019Y-71870313D01*
X117335586Y-71835577D01*
X117360572Y-71805132D01*
X117391017Y-71780146D01*
X117425753Y-71761579D01*
X117463446Y-71750145D01*
X117508781Y-71745680D01*
X118345459Y-71745680D01*
X118390794Y-71750145D01*
X118390794Y-71750145D01*
G37*
G36*
X116340794Y-71750145D02*
G01*
X116378487Y-71761579D01*
X116413223Y-71780146D01*
X116443668Y-71805132D01*
X116468654Y-71835577D01*
X116487221Y-71870313D01*
X116498655Y-71908006D01*
X116503120Y-71953341D01*
X116503120Y-73040019D01*
X116498655Y-73085354D01*
X116487221Y-73123047D01*
X116468654Y-73157783D01*
X116443668Y-73188228D01*
X116413223Y-73213214D01*
X116378487Y-73231781D01*
X116340794Y-73243215D01*
X116295459Y-73247680D01*
X115458781Y-73247680D01*
X115413446Y-73243215D01*
X115375753Y-73231781D01*
X115341017Y-73213214D01*
X115310572Y-73188228D01*
X115285586Y-73157783D01*
X115267019Y-73123047D01*
X115255585Y-73085354D01*
X115251120Y-73040019D01*
X115251120Y-71953341D01*
X115255585Y-71908006D01*
X115267019Y-71870313D01*
X115285586Y-71835577D01*
X115310572Y-71805132D01*
X115341017Y-71780146D01*
X115375753Y-71761579D01*
X115413446Y-71750145D01*
X115458781Y-71745680D01*
X116295459Y-71745680D01*
X116340794Y-71750145D01*
X116340794Y-71750145D01*
G37*
G36*
X138894120Y-73143680D02*
G01*
X137092120Y-73143680D01*
X137092120Y-71341680D01*
X138894120Y-71341680D01*
X138894120Y-73143680D01*
X138894120Y-73143680D01*
G37*
G36*
X135036794Y-71496145D02*
G01*
X135074487Y-71507579D01*
X135109223Y-71526146D01*
X135139668Y-71551132D01*
X135164654Y-71581577D01*
X135183221Y-71616313D01*
X135194655Y-71654006D01*
X135199120Y-71699341D01*
X135199120Y-72786019D01*
X135194655Y-72831354D01*
X135183221Y-72869047D01*
X135164654Y-72903783D01*
X135139668Y-72934228D01*
X135109223Y-72959214D01*
X135074487Y-72977781D01*
X135036794Y-72989215D01*
X134991459Y-72993680D01*
X134154781Y-72993680D01*
X134109446Y-72989215D01*
X134071753Y-72977781D01*
X134037017Y-72959214D01*
X134006572Y-72934228D01*
X133981586Y-72903783D01*
X133963019Y-72869047D01*
X133951585Y-72831354D01*
X133947120Y-72786019D01*
X133947120Y-71699341D01*
X133951585Y-71654006D01*
X133963019Y-71616313D01*
X133981586Y-71581577D01*
X134006572Y-71551132D01*
X134037017Y-71526146D01*
X134071753Y-71507579D01*
X134109446Y-71496145D01*
X134154781Y-71491680D01*
X134991459Y-71491680D01*
X135036794Y-71496145D01*
X135036794Y-71496145D01*
G37*
G36*
X132986794Y-71496145D02*
G01*
X133024487Y-71507579D01*
X133059223Y-71526146D01*
X133089668Y-71551132D01*
X133114654Y-71581577D01*
X133133221Y-71616313D01*
X133144655Y-71654006D01*
X133149120Y-71699341D01*
X133149120Y-72786019D01*
X133144655Y-72831354D01*
X133133221Y-72869047D01*
X133114654Y-72903783D01*
X133089668Y-72934228D01*
X133059223Y-72959214D01*
X133024487Y-72977781D01*
X132986794Y-72989215D01*
X132941459Y-72993680D01*
X132104781Y-72993680D01*
X132059446Y-72989215D01*
X132021753Y-72977781D01*
X131987017Y-72959214D01*
X131956572Y-72934228D01*
X131931586Y-72903783D01*
X131913019Y-72869047D01*
X131901585Y-72831354D01*
X131897120Y-72786019D01*
X131897120Y-71699341D01*
X131901585Y-71654006D01*
X131913019Y-71616313D01*
X131931586Y-71581577D01*
X131956572Y-71551132D01*
X131987017Y-71526146D01*
X132021753Y-71507579D01*
X132059446Y-71496145D01*
X132104781Y-71491680D01*
X132941459Y-71491680D01*
X132986794Y-71496145D01*
X132986794Y-71496145D01*
G37*
G36*
X142204674Y-67833465D02*
G01*
X142242367Y-67844899D01*
X142277103Y-67863466D01*
X142307548Y-67888452D01*
X142332534Y-67918897D01*
X142351101Y-67953633D01*
X142362535Y-67991326D01*
X142367000Y-68036661D01*
X142367000Y-69123339D01*
X142362535Y-69168674D01*
X142351101Y-69206367D01*
X142332534Y-69241103D01*
X142307548Y-69271548D01*
X142277103Y-69296534D01*
X142242367Y-69315101D01*
X142204674Y-69326535D01*
X142159339Y-69331000D01*
X141322661Y-69331000D01*
X141277326Y-69326535D01*
X141239633Y-69315101D01*
X141204897Y-69296534D01*
X141174452Y-69271548D01*
X141149466Y-69241103D01*
X141130899Y-69206367D01*
X141119465Y-69168674D01*
X141115000Y-69123339D01*
X141115000Y-68036661D01*
X141119465Y-67991326D01*
X141130899Y-67953633D01*
X141149466Y-67918897D01*
X141174452Y-67888452D01*
X141204897Y-67863466D01*
X141239633Y-67844899D01*
X141277326Y-67833465D01*
X141322661Y-67829000D01*
X142159339Y-67829000D01*
X142204674Y-67833465D01*
X142204674Y-67833465D01*
G37*
G36*
X121893674Y-67833465D02*
G01*
X121931367Y-67844899D01*
X121966103Y-67863466D01*
X121996548Y-67888452D01*
X122021534Y-67918897D01*
X122040101Y-67953633D01*
X122051535Y-67991326D01*
X122056000Y-68036661D01*
X122056000Y-69123339D01*
X122051535Y-69168674D01*
X122040101Y-69206367D01*
X122021534Y-69241103D01*
X121996548Y-69271548D01*
X121966103Y-69296534D01*
X121931367Y-69315101D01*
X121893674Y-69326535D01*
X121848339Y-69331000D01*
X121011661Y-69331000D01*
X120966326Y-69326535D01*
X120928633Y-69315101D01*
X120893897Y-69296534D01*
X120863452Y-69271548D01*
X120838466Y-69241103D01*
X120819899Y-69206367D01*
X120808465Y-69168674D01*
X120804000Y-69123339D01*
X120804000Y-68036661D01*
X120808465Y-67991326D01*
X120819899Y-67953633D01*
X120838466Y-67918897D01*
X120863452Y-67888452D01*
X120893897Y-67863466D01*
X120928633Y-67844899D01*
X120966326Y-67833465D01*
X121011661Y-67829000D01*
X121848339Y-67829000D01*
X121893674Y-67833465D01*
X121893674Y-67833465D01*
G37*
G36*
X115279074Y-67833465D02*
G01*
X115316767Y-67844899D01*
X115351503Y-67863466D01*
X115381948Y-67888452D01*
X115406934Y-67918897D01*
X115425501Y-67953633D01*
X115436935Y-67991326D01*
X115441400Y-68036661D01*
X115441400Y-69123339D01*
X115436935Y-69168674D01*
X115425501Y-69206367D01*
X115406934Y-69241103D01*
X115381948Y-69271548D01*
X115351503Y-69296534D01*
X115316767Y-69315101D01*
X115279074Y-69326535D01*
X115233739Y-69331000D01*
X114397061Y-69331000D01*
X114351726Y-69326535D01*
X114314033Y-69315101D01*
X114279297Y-69296534D01*
X114248852Y-69271548D01*
X114223866Y-69241103D01*
X114205299Y-69206367D01*
X114193865Y-69168674D01*
X114189400Y-69123339D01*
X114189400Y-68036661D01*
X114193865Y-67991326D01*
X114205299Y-67953633D01*
X114223866Y-67918897D01*
X114248852Y-67888452D01*
X114279297Y-67863466D01*
X114314033Y-67844899D01*
X114351726Y-67833465D01*
X114397061Y-67829000D01*
X115233739Y-67829000D01*
X115279074Y-67833465D01*
X115279074Y-67833465D01*
G37*
G36*
X119843674Y-67833465D02*
G01*
X119881367Y-67844899D01*
X119916103Y-67863466D01*
X119946548Y-67888452D01*
X119971534Y-67918897D01*
X119990101Y-67953633D01*
X120001535Y-67991326D01*
X120006000Y-68036661D01*
X120006000Y-69123339D01*
X120001535Y-69168674D01*
X119990101Y-69206367D01*
X119971534Y-69241103D01*
X119946548Y-69271548D01*
X119916103Y-69296534D01*
X119881367Y-69315101D01*
X119843674Y-69326535D01*
X119798339Y-69331000D01*
X118961661Y-69331000D01*
X118916326Y-69326535D01*
X118878633Y-69315101D01*
X118843897Y-69296534D01*
X118813452Y-69271548D01*
X118788466Y-69241103D01*
X118769899Y-69206367D01*
X118758465Y-69168674D01*
X118754000Y-69123339D01*
X118754000Y-68036661D01*
X118758465Y-67991326D01*
X118769899Y-67953633D01*
X118788466Y-67918897D01*
X118813452Y-67888452D01*
X118843897Y-67863466D01*
X118878633Y-67844899D01*
X118916326Y-67833465D01*
X118961661Y-67829000D01*
X119798339Y-67829000D01*
X119843674Y-67833465D01*
X119843674Y-67833465D01*
G37*
G36*
X140154674Y-67833465D02*
G01*
X140192367Y-67844899D01*
X140227103Y-67863466D01*
X140257548Y-67888452D01*
X140282534Y-67918897D01*
X140301101Y-67953633D01*
X140312535Y-67991326D01*
X140317000Y-68036661D01*
X140317000Y-69123339D01*
X140312535Y-69168674D01*
X140301101Y-69206367D01*
X140282534Y-69241103D01*
X140257548Y-69271548D01*
X140227103Y-69296534D01*
X140192367Y-69315101D01*
X140154674Y-69326535D01*
X140109339Y-69331000D01*
X139272661Y-69331000D01*
X139227326Y-69326535D01*
X139189633Y-69315101D01*
X139154897Y-69296534D01*
X139124452Y-69271548D01*
X139099466Y-69241103D01*
X139080899Y-69206367D01*
X139069465Y-69168674D01*
X139065000Y-69123339D01*
X139065000Y-68036661D01*
X139069465Y-67991326D01*
X139080899Y-67953633D01*
X139099466Y-67918897D01*
X139124452Y-67888452D01*
X139154897Y-67863466D01*
X139189633Y-67844899D01*
X139227326Y-67833465D01*
X139272661Y-67829000D01*
X140109339Y-67829000D01*
X140154674Y-67833465D01*
X140154674Y-67833465D01*
G37*
G36*
X117329074Y-67833465D02*
G01*
X117366767Y-67844899D01*
X117401503Y-67863466D01*
X117431948Y-67888452D01*
X117456934Y-67918897D01*
X117475501Y-67953633D01*
X117486935Y-67991326D01*
X117491400Y-68036661D01*
X117491400Y-69123339D01*
X117486935Y-69168674D01*
X117475501Y-69206367D01*
X117456934Y-69241103D01*
X117431948Y-69271548D01*
X117401503Y-69296534D01*
X117366767Y-69315101D01*
X117329074Y-69326535D01*
X117283739Y-69331000D01*
X116447061Y-69331000D01*
X116401726Y-69326535D01*
X116364033Y-69315101D01*
X116329297Y-69296534D01*
X116298852Y-69271548D01*
X116273866Y-69241103D01*
X116255299Y-69206367D01*
X116243865Y-69168674D01*
X116239400Y-69123339D01*
X116239400Y-68036661D01*
X116243865Y-67991326D01*
X116255299Y-67953633D01*
X116273866Y-67918897D01*
X116298852Y-67888452D01*
X116329297Y-67863466D01*
X116364033Y-67844899D01*
X116401726Y-67833465D01*
X116447061Y-67829000D01*
X117283739Y-67829000D01*
X117329074Y-67833465D01*
X117329074Y-67833465D01*
G37*
G36*
X135065674Y-67325465D02*
G01*
X135103367Y-67336899D01*
X135138103Y-67355466D01*
X135168548Y-67380452D01*
X135193534Y-67410897D01*
X135212101Y-67445633D01*
X135223535Y-67483326D01*
X135228000Y-67528661D01*
X135228000Y-68615339D01*
X135223535Y-68660674D01*
X135212101Y-68698367D01*
X135193534Y-68733103D01*
X135168548Y-68763548D01*
X135138103Y-68788534D01*
X135103367Y-68807101D01*
X135065674Y-68818535D01*
X135020339Y-68823000D01*
X134183661Y-68823000D01*
X134138326Y-68818535D01*
X134100633Y-68807101D01*
X134065897Y-68788534D01*
X134035452Y-68763548D01*
X134010466Y-68733103D01*
X133991899Y-68698367D01*
X133980465Y-68660674D01*
X133976000Y-68615339D01*
X133976000Y-67528661D01*
X133980465Y-67483326D01*
X133991899Y-67445633D01*
X134010466Y-67410897D01*
X134035452Y-67380452D01*
X134065897Y-67355466D01*
X134100633Y-67336899D01*
X134138326Y-67325465D01*
X134183661Y-67321000D01*
X135020339Y-67321000D01*
X135065674Y-67325465D01*
X135065674Y-67325465D01*
G37*
G36*
X131545674Y-67325465D02*
G01*
X131583367Y-67336899D01*
X131618103Y-67355466D01*
X131648548Y-67380452D01*
X131673534Y-67410897D01*
X131692101Y-67445633D01*
X131703535Y-67483326D01*
X131708000Y-67528661D01*
X131708000Y-68615339D01*
X131703535Y-68660674D01*
X131692101Y-68698367D01*
X131673534Y-68733103D01*
X131648548Y-68763548D01*
X131618103Y-68788534D01*
X131583367Y-68807101D01*
X131545674Y-68818535D01*
X131500339Y-68823000D01*
X130663661Y-68823000D01*
X130618326Y-68818535D01*
X130580633Y-68807101D01*
X130545897Y-68788534D01*
X130515452Y-68763548D01*
X130490466Y-68733103D01*
X130471899Y-68698367D01*
X130460465Y-68660674D01*
X130456000Y-68615339D01*
X130456000Y-67528661D01*
X130460465Y-67483326D01*
X130471899Y-67445633D01*
X130490466Y-67410897D01*
X130515452Y-67380452D01*
X130545897Y-67355466D01*
X130580633Y-67336899D01*
X130618326Y-67325465D01*
X130663661Y-67321000D01*
X131500339Y-67321000D01*
X131545674Y-67325465D01*
X131545674Y-67325465D01*
G37*
G36*
X129495674Y-67325465D02*
G01*
X129533367Y-67336899D01*
X129568103Y-67355466D01*
X129598548Y-67380452D01*
X129623534Y-67410897D01*
X129642101Y-67445633D01*
X129653535Y-67483326D01*
X129658000Y-67528661D01*
X129658000Y-68615339D01*
X129653535Y-68660674D01*
X129642101Y-68698367D01*
X129623534Y-68733103D01*
X129598548Y-68763548D01*
X129568103Y-68788534D01*
X129533367Y-68807101D01*
X129495674Y-68818535D01*
X129450339Y-68823000D01*
X128613661Y-68823000D01*
X128568326Y-68818535D01*
X128530633Y-68807101D01*
X128495897Y-68788534D01*
X128465452Y-68763548D01*
X128440466Y-68733103D01*
X128421899Y-68698367D01*
X128410465Y-68660674D01*
X128406000Y-68615339D01*
X128406000Y-67528661D01*
X128410465Y-67483326D01*
X128421899Y-67445633D01*
X128440466Y-67410897D01*
X128465452Y-67380452D01*
X128495897Y-67355466D01*
X128530633Y-67336899D01*
X128568326Y-67325465D01*
X128613661Y-67321000D01*
X129450339Y-67321000D01*
X129495674Y-67325465D01*
X129495674Y-67325465D01*
G37*
G36*
X137115674Y-67325465D02*
G01*
X137153367Y-67336899D01*
X137188103Y-67355466D01*
X137218548Y-67380452D01*
X137243534Y-67410897D01*
X137262101Y-67445633D01*
X137273535Y-67483326D01*
X137278000Y-67528661D01*
X137278000Y-68615339D01*
X137273535Y-68660674D01*
X137262101Y-68698367D01*
X137243534Y-68733103D01*
X137218548Y-68763548D01*
X137188103Y-68788534D01*
X137153367Y-68807101D01*
X137115674Y-68818535D01*
X137070339Y-68823000D01*
X136233661Y-68823000D01*
X136188326Y-68818535D01*
X136150633Y-68807101D01*
X136115897Y-68788534D01*
X136085452Y-68763548D01*
X136060466Y-68733103D01*
X136041899Y-68698367D01*
X136030465Y-68660674D01*
X136026000Y-68615339D01*
X136026000Y-67528661D01*
X136030465Y-67483326D01*
X136041899Y-67445633D01*
X136060466Y-67410897D01*
X136085452Y-67380452D01*
X136115897Y-67355466D01*
X136150633Y-67336899D01*
X136188326Y-67325465D01*
X136233661Y-67321000D01*
X137070339Y-67321000D01*
X137115674Y-67325465D01*
X137115674Y-67325465D01*
G37*
G36*
X140145674Y-64785465D02*
G01*
X140183367Y-64796899D01*
X140218103Y-64815466D01*
X140248548Y-64840452D01*
X140273534Y-64870897D01*
X140292101Y-64905633D01*
X140303535Y-64943326D01*
X140308000Y-64988661D01*
X140308000Y-66075339D01*
X140303535Y-66120674D01*
X140292101Y-66158367D01*
X140273534Y-66193103D01*
X140248548Y-66223548D01*
X140218103Y-66248534D01*
X140183367Y-66267101D01*
X140145674Y-66278535D01*
X140100339Y-66283000D01*
X139263661Y-66283000D01*
X139218326Y-66278535D01*
X139180633Y-66267101D01*
X139145897Y-66248534D01*
X139115452Y-66223548D01*
X139090466Y-66193103D01*
X139071899Y-66158367D01*
X139060465Y-66120674D01*
X139056000Y-66075339D01*
X139056000Y-64988661D01*
X139060465Y-64943326D01*
X139071899Y-64905633D01*
X139090466Y-64870897D01*
X139115452Y-64840452D01*
X139145897Y-64815466D01*
X139180633Y-64796899D01*
X139218326Y-64785465D01*
X139263661Y-64781000D01*
X140100339Y-64781000D01*
X140145674Y-64785465D01*
X140145674Y-64785465D01*
G37*
G36*
X142195674Y-64785465D02*
G01*
X142233367Y-64796899D01*
X142268103Y-64815466D01*
X142298548Y-64840452D01*
X142323534Y-64870897D01*
X142342101Y-64905633D01*
X142353535Y-64943326D01*
X142358000Y-64988661D01*
X142358000Y-66075339D01*
X142353535Y-66120674D01*
X142342101Y-66158367D01*
X142323534Y-66193103D01*
X142298548Y-66223548D01*
X142268103Y-66248534D01*
X142233367Y-66267101D01*
X142195674Y-66278535D01*
X142150339Y-66283000D01*
X141313661Y-66283000D01*
X141268326Y-66278535D01*
X141230633Y-66267101D01*
X141195897Y-66248534D01*
X141165452Y-66223548D01*
X141140466Y-66193103D01*
X141121899Y-66158367D01*
X141110465Y-66120674D01*
X141106000Y-66075339D01*
X141106000Y-64988661D01*
X141110465Y-64943326D01*
X141121899Y-64905633D01*
X141140466Y-64870897D01*
X141165452Y-64840452D01*
X141195897Y-64815466D01*
X141230633Y-64796899D01*
X141268326Y-64785465D01*
X141313661Y-64781000D01*
X142150339Y-64781000D01*
X142195674Y-64785465D01*
X142195674Y-64785465D01*
G37*
G36*
X119914200Y-65749600D02*
G01*
X119262200Y-65749600D01*
X119262200Y-64247600D01*
X119914200Y-64247600D01*
X119914200Y-65749600D01*
X119914200Y-65749600D01*
G37*
G36*
X120864200Y-65749600D02*
G01*
X120212200Y-65749600D01*
X120212200Y-64247600D01*
X120864200Y-64247600D01*
X120864200Y-65749600D01*
X120864200Y-65749600D01*
G37*
G36*
X121814200Y-65749600D02*
G01*
X121162200Y-65749600D01*
X121162200Y-64247600D01*
X121814200Y-64247600D01*
X121814200Y-65749600D01*
X121814200Y-65749600D01*
G37*
G36*
X116438074Y-64039465D02*
G01*
X116475767Y-64050899D01*
X116510503Y-64069466D01*
X116540948Y-64094452D01*
X116565934Y-64124897D01*
X116584501Y-64159633D01*
X116595935Y-64197326D01*
X116600400Y-64242661D01*
X116600400Y-65079339D01*
X116595935Y-65124674D01*
X116584501Y-65162367D01*
X116565934Y-65197103D01*
X116540948Y-65227548D01*
X116510503Y-65252534D01*
X116475767Y-65271101D01*
X116438074Y-65282535D01*
X116392739Y-65287000D01*
X115306061Y-65287000D01*
X115260726Y-65282535D01*
X115223033Y-65271101D01*
X115188297Y-65252534D01*
X115157852Y-65227548D01*
X115132866Y-65197103D01*
X115114299Y-65162367D01*
X115102865Y-65124674D01*
X115098400Y-65079339D01*
X115098400Y-64242661D01*
X115102865Y-64197326D01*
X115114299Y-64159633D01*
X115132866Y-64124897D01*
X115157852Y-64094452D01*
X115188297Y-64069466D01*
X115223033Y-64050899D01*
X115260726Y-64039465D01*
X115306061Y-64035000D01*
X116392739Y-64035000D01*
X116438074Y-64039465D01*
X116438074Y-64039465D01*
G37*
G36*
X126064674Y-63912465D02*
G01*
X126102367Y-63923899D01*
X126137103Y-63942466D01*
X126167548Y-63967452D01*
X126192534Y-63997897D01*
X126211101Y-64032633D01*
X126222535Y-64070326D01*
X126227000Y-64115661D01*
X126227000Y-64952339D01*
X126222535Y-64997674D01*
X126211101Y-65035367D01*
X126192534Y-65070103D01*
X126167548Y-65100548D01*
X126137103Y-65125534D01*
X126102367Y-65144101D01*
X126064674Y-65155535D01*
X126019339Y-65160000D01*
X124932661Y-65160000D01*
X124887326Y-65155535D01*
X124849633Y-65144101D01*
X124814897Y-65125534D01*
X124784452Y-65100548D01*
X124759466Y-65070103D01*
X124740899Y-65035367D01*
X124729465Y-64997674D01*
X124725000Y-64952339D01*
X124725000Y-64115661D01*
X124729465Y-64070326D01*
X124740899Y-64032633D01*
X124759466Y-63997897D01*
X124784452Y-63967452D01*
X124814897Y-63942466D01*
X124849633Y-63923899D01*
X124887326Y-63912465D01*
X124932661Y-63908000D01*
X126019339Y-63908000D01*
X126064674Y-63912465D01*
X126064674Y-63912465D01*
G37*
G36*
X129620674Y-63912465D02*
G01*
X129658367Y-63923899D01*
X129693103Y-63942466D01*
X129723548Y-63967452D01*
X129748534Y-63997897D01*
X129767101Y-64032633D01*
X129778535Y-64070326D01*
X129783000Y-64115661D01*
X129783000Y-64952339D01*
X129778535Y-64997674D01*
X129767101Y-65035367D01*
X129748534Y-65070103D01*
X129723548Y-65100548D01*
X129693103Y-65125534D01*
X129658367Y-65144101D01*
X129620674Y-65155535D01*
X129575339Y-65160000D01*
X128488661Y-65160000D01*
X128443326Y-65155535D01*
X128405633Y-65144101D01*
X128370897Y-65125534D01*
X128340452Y-65100548D01*
X128315466Y-65070103D01*
X128296899Y-65035367D01*
X128285465Y-64997674D01*
X128281000Y-64952339D01*
X128281000Y-64115661D01*
X128285465Y-64070326D01*
X128296899Y-64032633D01*
X128315466Y-63997897D01*
X128340452Y-63967452D01*
X128370897Y-63942466D01*
X128405633Y-63923899D01*
X128443326Y-63912465D01*
X128488661Y-63908000D01*
X129575339Y-63908000D01*
X129620674Y-63912465D01*
X129620674Y-63912465D01*
G37*
G36*
X136846000Y-64962200D02*
G01*
X136194000Y-64962200D01*
X136194000Y-63460200D01*
X136846000Y-63460200D01*
X136846000Y-64962200D01*
X136846000Y-64962200D01*
G37*
G36*
X134946000Y-64962200D02*
G01*
X134294000Y-64962200D01*
X134294000Y-63460200D01*
X134946000Y-63460200D01*
X134946000Y-64962200D01*
X134946000Y-64962200D01*
G37*
G36*
X135896000Y-64962200D02*
G01*
X135244000Y-64962200D01*
X135244000Y-63460200D01*
X135896000Y-63460200D01*
X135896000Y-64962200D01*
X135896000Y-64962200D01*
G37*
G36*
X132668674Y-63386465D02*
G01*
X132706367Y-63397899D01*
X132741103Y-63416466D01*
X132771548Y-63441452D01*
X132796534Y-63471897D01*
X132815101Y-63506633D01*
X132826535Y-63544326D01*
X132831000Y-63589661D01*
X132831000Y-64426339D01*
X132826535Y-64471674D01*
X132815101Y-64509367D01*
X132796534Y-64544103D01*
X132771548Y-64574548D01*
X132741103Y-64599534D01*
X132706367Y-64618101D01*
X132668674Y-64629535D01*
X132623339Y-64634000D01*
X131536661Y-64634000D01*
X131491326Y-64629535D01*
X131453633Y-64618101D01*
X131418897Y-64599534D01*
X131388452Y-64574548D01*
X131363466Y-64544103D01*
X131344899Y-64509367D01*
X131333465Y-64471674D01*
X131329000Y-64426339D01*
X131329000Y-63589661D01*
X131333465Y-63544326D01*
X131344899Y-63506633D01*
X131363466Y-63471897D01*
X131388452Y-63441452D01*
X131418897Y-63416466D01*
X131453633Y-63397899D01*
X131491326Y-63386465D01*
X131536661Y-63382000D01*
X132623339Y-63382000D01*
X132668674Y-63386465D01*
X132668674Y-63386465D01*
G37*
G36*
X116438074Y-61989465D02*
G01*
X116475767Y-62000899D01*
X116510503Y-62019466D01*
X116540948Y-62044452D01*
X116565934Y-62074897D01*
X116584501Y-62109633D01*
X116595935Y-62147326D01*
X116600400Y-62192661D01*
X116600400Y-63029339D01*
X116595935Y-63074674D01*
X116584501Y-63112367D01*
X116565934Y-63147103D01*
X116540948Y-63177548D01*
X116510503Y-63202534D01*
X116475767Y-63221101D01*
X116438074Y-63232535D01*
X116392739Y-63237000D01*
X115306061Y-63237000D01*
X115260726Y-63232535D01*
X115223033Y-63221101D01*
X115188297Y-63202534D01*
X115157852Y-63177548D01*
X115132866Y-63147103D01*
X115114299Y-63112367D01*
X115102865Y-63074674D01*
X115098400Y-63029339D01*
X115098400Y-62192661D01*
X115102865Y-62147326D01*
X115114299Y-62109633D01*
X115132866Y-62074897D01*
X115157852Y-62044452D01*
X115188297Y-62019466D01*
X115223033Y-62000899D01*
X115260726Y-61989465D01*
X115306061Y-61985000D01*
X116392739Y-61985000D01*
X116438074Y-61989465D01*
X116438074Y-61989465D01*
G37*
G36*
X119914200Y-63133400D02*
G01*
X119262200Y-63133400D01*
X119262200Y-61631400D01*
X119914200Y-61631400D01*
X119914200Y-63133400D01*
X119914200Y-63133400D01*
G37*
G36*
X120864200Y-63133400D02*
G01*
X120212200Y-63133400D01*
X120212200Y-61631400D01*
X120864200Y-61631400D01*
X120864200Y-63133400D01*
X120864200Y-63133400D01*
G37*
G36*
X121814200Y-63133400D02*
G01*
X121162200Y-63133400D01*
X121162200Y-61631400D01*
X121814200Y-61631400D01*
X121814200Y-63133400D01*
X121814200Y-63133400D01*
G37*
G36*
X126064674Y-61862465D02*
G01*
X126102367Y-61873899D01*
X126137103Y-61892466D01*
X126167548Y-61917452D01*
X126192534Y-61947897D01*
X126211101Y-61982633D01*
X126222535Y-62020326D01*
X126227000Y-62065661D01*
X126227000Y-62902339D01*
X126222535Y-62947674D01*
X126211101Y-62985367D01*
X126192534Y-63020103D01*
X126167548Y-63050548D01*
X126137103Y-63075534D01*
X126102367Y-63094101D01*
X126064674Y-63105535D01*
X126019339Y-63110000D01*
X124932661Y-63110000D01*
X124887326Y-63105535D01*
X124849633Y-63094101D01*
X124814897Y-63075534D01*
X124784452Y-63050548D01*
X124759466Y-63020103D01*
X124740899Y-62985367D01*
X124729465Y-62947674D01*
X124725000Y-62902339D01*
X124725000Y-62065661D01*
X124729465Y-62020326D01*
X124740899Y-61982633D01*
X124759466Y-61947897D01*
X124784452Y-61917452D01*
X124814897Y-61892466D01*
X124849633Y-61873899D01*
X124887326Y-61862465D01*
X124932661Y-61858000D01*
X126019339Y-61858000D01*
X126064674Y-61862465D01*
X126064674Y-61862465D01*
G37*
G36*
X129620674Y-61862465D02*
G01*
X129658367Y-61873899D01*
X129693103Y-61892466D01*
X129723548Y-61917452D01*
X129748534Y-61947897D01*
X129767101Y-61982633D01*
X129778535Y-62020326D01*
X129783000Y-62065661D01*
X129783000Y-62902339D01*
X129778535Y-62947674D01*
X129767101Y-62985367D01*
X129748534Y-63020103D01*
X129723548Y-63050548D01*
X129693103Y-63075534D01*
X129658367Y-63094101D01*
X129620674Y-63105535D01*
X129575339Y-63110000D01*
X128488661Y-63110000D01*
X128443326Y-63105535D01*
X128405633Y-63094101D01*
X128370897Y-63075534D01*
X128340452Y-63050548D01*
X128315466Y-63020103D01*
X128296899Y-62985367D01*
X128285465Y-62947674D01*
X128281000Y-62902339D01*
X128281000Y-62065661D01*
X128285465Y-62020326D01*
X128296899Y-61982633D01*
X128315466Y-61947897D01*
X128340452Y-61917452D01*
X128370897Y-61892466D01*
X128405633Y-61873899D01*
X128443326Y-61862465D01*
X128488661Y-61858000D01*
X129575339Y-61858000D01*
X129620674Y-61862465D01*
X129620674Y-61862465D01*
G37*
G36*
X132668674Y-61336465D02*
G01*
X132706367Y-61347899D01*
X132741103Y-61366466D01*
X132771548Y-61391452D01*
X132796534Y-61421897D01*
X132815101Y-61456633D01*
X132826535Y-61494326D01*
X132831000Y-61539661D01*
X132831000Y-62376339D01*
X132826535Y-62421674D01*
X132815101Y-62459367D01*
X132796534Y-62494103D01*
X132771548Y-62524548D01*
X132741103Y-62549534D01*
X132706367Y-62568101D01*
X132668674Y-62579535D01*
X132623339Y-62584000D01*
X131536661Y-62584000D01*
X131491326Y-62579535D01*
X131453633Y-62568101D01*
X131418897Y-62549534D01*
X131388452Y-62524548D01*
X131363466Y-62494103D01*
X131344899Y-62459367D01*
X131333465Y-62421674D01*
X131329000Y-62376339D01*
X131329000Y-61539661D01*
X131333465Y-61494326D01*
X131344899Y-61456633D01*
X131363466Y-61421897D01*
X131388452Y-61391452D01*
X131418897Y-61366466D01*
X131453633Y-61347899D01*
X131491326Y-61336465D01*
X131536661Y-61332000D01*
X132623339Y-61332000D01*
X132668674Y-61336465D01*
X132668674Y-61336465D01*
G37*
G36*
X134946000Y-62346000D02*
G01*
X134294000Y-62346000D01*
X134294000Y-60844000D01*
X134946000Y-60844000D01*
X134946000Y-62346000D01*
X134946000Y-62346000D01*
G37*
G36*
X135896000Y-62346000D02*
G01*
X135244000Y-62346000D01*
X135244000Y-60844000D01*
X135896000Y-60844000D01*
X135896000Y-62346000D01*
X135896000Y-62346000D01*
G37*
G36*
X136846000Y-62346000D02*
G01*
X136194000Y-62346000D01*
X136194000Y-60844000D01*
X136846000Y-60844000D01*
X136846000Y-62346000D01*
X136846000Y-62346000D01*
G37*
G36*
X122383674Y-58796145D02*
G01*
X122421367Y-58807579D01*
X122456103Y-58826146D01*
X122486548Y-58851132D01*
X122511534Y-58881577D01*
X122530101Y-58916313D01*
X122541535Y-58954006D01*
X122546000Y-58999341D01*
X122546000Y-60086019D01*
X122541535Y-60131354D01*
X122530101Y-60169047D01*
X122511534Y-60203783D01*
X122486548Y-60234228D01*
X122456103Y-60259214D01*
X122421367Y-60277781D01*
X122383674Y-60289215D01*
X122338339Y-60293680D01*
X121501661Y-60293680D01*
X121456326Y-60289215D01*
X121418633Y-60277781D01*
X121383897Y-60259214D01*
X121353452Y-60234228D01*
X121328466Y-60203783D01*
X121309899Y-60169047D01*
X121298465Y-60131354D01*
X121294000Y-60086019D01*
X121294000Y-58999341D01*
X121298465Y-58954006D01*
X121309899Y-58916313D01*
X121328466Y-58881577D01*
X121353452Y-58851132D01*
X121383897Y-58826146D01*
X121418633Y-58807579D01*
X121456326Y-58796145D01*
X121501661Y-58791680D01*
X122338339Y-58791680D01*
X122383674Y-58796145D01*
X122383674Y-58796145D01*
G37*
G36*
X120333674Y-58796145D02*
G01*
X120371367Y-58807579D01*
X120406103Y-58826146D01*
X120436548Y-58851132D01*
X120461534Y-58881577D01*
X120480101Y-58916313D01*
X120491535Y-58954006D01*
X120496000Y-58999341D01*
X120496000Y-60086019D01*
X120491535Y-60131354D01*
X120480101Y-60169047D01*
X120461534Y-60203783D01*
X120436548Y-60234228D01*
X120406103Y-60259214D01*
X120371367Y-60277781D01*
X120333674Y-60289215D01*
X120288339Y-60293680D01*
X119451661Y-60293680D01*
X119406326Y-60289215D01*
X119368633Y-60277781D01*
X119333897Y-60259214D01*
X119303452Y-60234228D01*
X119278466Y-60203783D01*
X119259899Y-60169047D01*
X119248465Y-60131354D01*
X119244000Y-60086019D01*
X119244000Y-58999341D01*
X119248465Y-58954006D01*
X119259899Y-58916313D01*
X119278466Y-58881577D01*
X119303452Y-58851132D01*
X119333897Y-58826146D01*
X119368633Y-58807579D01*
X119406326Y-58796145D01*
X119451661Y-58791680D01*
X120288339Y-58791680D01*
X120333674Y-58796145D01*
X120333674Y-58796145D01*
G37*
M02*
