G04 #@! TF.GenerationSoftware,KiCad,Pcbnew,(5.1.6)-1*
G04 #@! TF.CreationDate,2021-11-15T16:50:44+01:00*
G04 #@! TF.ProjectId,Power_module_v1,506f7765-725f-46d6-9f64-756c655f7631,rev?*
G04 #@! TF.SameCoordinates,Original*
G04 #@! TF.FileFunction,Soldermask,Top*
G04 #@! TF.FilePolarity,Negative*
%FSLAX46Y46*%
G04 Gerber Fmt 4.6, Leading zero omitted, Abs format (unit mm)*
G04 Created by KiCad (PCBNEW (5.1.6)-1) date 2021-11-15 16:50:44*
%MOMM*%
%LPD*%
G01*
G04 APERTURE LIST*
%ADD10C,0.150000*%
G04 APERTURE END LIST*
D10*
G36*
X112780000Y-108047740D02*
G01*
X111248000Y-108047740D01*
X111248000Y-105445740D01*
X112780000Y-105445740D01*
X112780000Y-108047740D01*
G37*
G36*
X110860000Y-108047740D02*
G01*
X109328000Y-108047740D01*
X109328000Y-105445740D01*
X110860000Y-105445740D01*
X110860000Y-108047740D01*
G37*
G36*
X108751817Y-102684436D02*
G01*
X108771334Y-102690357D01*
X108795367Y-102695138D01*
X108807620Y-102695740D01*
X109305759Y-102695740D01*
X109310553Y-102699674D01*
X109332164Y-102711225D01*
X109355613Y-102718338D01*
X109379999Y-102720740D01*
X112605000Y-102720740D01*
X112605000Y-104472740D01*
X109503000Y-104472740D01*
X109503000Y-104422739D01*
X109500598Y-104398353D01*
X109493485Y-104374904D01*
X109481934Y-104353293D01*
X109466389Y-104334351D01*
X109447447Y-104318806D01*
X109425836Y-104307255D01*
X109402387Y-104300142D01*
X109378001Y-104297740D01*
X109192499Y-104297740D01*
X109168113Y-104300142D01*
X109144664Y-104307255D01*
X109123053Y-104318806D01*
X109104111Y-104334351D01*
X109088566Y-104353293D01*
X109077015Y-104374904D01*
X109069902Y-104398353D01*
X109067500Y-104422739D01*
X109067500Y-105259965D01*
X109059515Y-105274904D01*
X109052402Y-105298353D01*
X109050000Y-105322739D01*
X109050000Y-106597740D01*
X108402123Y-106597740D01*
X108377737Y-106600142D01*
X108354288Y-106607255D01*
X108332677Y-106618806D01*
X108313735Y-106634351D01*
X108298190Y-106653293D01*
X108286639Y-106674904D01*
X108277726Y-106710487D01*
X108269495Y-106794060D01*
X108238783Y-106895304D01*
X108227980Y-106930916D01*
X108160568Y-107057034D01*
X108069843Y-107167583D01*
X107959294Y-107258308D01*
X107833175Y-107325720D01*
X107833172Y-107325721D01*
X107696321Y-107367235D01*
X107554000Y-107381252D01*
X107411680Y-107367235D01*
X107274829Y-107325721D01*
X107274826Y-107325720D01*
X107148707Y-107258308D01*
X107038158Y-107167583D01*
X106947432Y-107057034D01*
X106880020Y-106930915D01*
X106880019Y-106930912D01*
X106838505Y-106794061D01*
X106828000Y-106687399D01*
X106828000Y-106266082D01*
X106838505Y-106159420D01*
X106880019Y-106022569D01*
X106880020Y-106022566D01*
X106947432Y-105896447D01*
X107038158Y-105785897D01*
X107148706Y-105695172D01*
X107274825Y-105627760D01*
X107274828Y-105627759D01*
X107411679Y-105586245D01*
X107485255Y-105578999D01*
X107509286Y-105574219D01*
X107531925Y-105564841D01*
X107552299Y-105551228D01*
X107569626Y-105533901D01*
X107583240Y-105513526D01*
X107592618Y-105490887D01*
X107597398Y-105466854D01*
X107598000Y-105454602D01*
X107598000Y-105322739D01*
X107595598Y-105298353D01*
X107588485Y-105274904D01*
X107576934Y-105253293D01*
X107561389Y-105234351D01*
X107542447Y-105218806D01*
X107520836Y-105207255D01*
X107497387Y-105200142D01*
X107473001Y-105197740D01*
X107140500Y-105197740D01*
X107140500Y-104324161D01*
X107143485Y-104318576D01*
X107150598Y-104295127D01*
X107153000Y-104270741D01*
X107153000Y-102695740D01*
X108460379Y-102695740D01*
X108484765Y-102693338D01*
X108496665Y-102690357D01*
X108516182Y-102684436D01*
X108634000Y-102672833D01*
X108751817Y-102684436D01*
G37*
G36*
X113497407Y-102675138D02*
G01*
X113509659Y-102675740D01*
X115005000Y-102675740D01*
X115005000Y-104270741D01*
X115007402Y-104295127D01*
X115014515Y-104318576D01*
X115017500Y-104324161D01*
X115017500Y-105197740D01*
X114654999Y-105197740D01*
X114630613Y-105200142D01*
X114607164Y-105207255D01*
X114585553Y-105218806D01*
X114566611Y-105234351D01*
X114551066Y-105253293D01*
X114539515Y-105274904D01*
X114532402Y-105298353D01*
X114530000Y-105322739D01*
X114530000Y-105456572D01*
X114532402Y-105480958D01*
X114539515Y-105504407D01*
X114551066Y-105526018D01*
X114566611Y-105544960D01*
X114585553Y-105560505D01*
X114607164Y-105572056D01*
X114630613Y-105579169D01*
X114642740Y-105580968D01*
X114696320Y-105586245D01*
X114833171Y-105627759D01*
X114833174Y-105627760D01*
X114959293Y-105695172D01*
X115069843Y-105785898D01*
X115160568Y-105896446D01*
X115227980Y-106022565D01*
X115227980Y-106022566D01*
X115227981Y-106022568D01*
X115269495Y-106159419D01*
X115280000Y-106266081D01*
X115280000Y-106687398D01*
X115269495Y-106794060D01*
X115238783Y-106895304D01*
X115227980Y-106930916D01*
X115160568Y-107057034D01*
X115069843Y-107167583D01*
X114959294Y-107258308D01*
X114833175Y-107325720D01*
X114833172Y-107325721D01*
X114696321Y-107367235D01*
X114554000Y-107381252D01*
X114411680Y-107367235D01*
X114274829Y-107325721D01*
X114274826Y-107325720D01*
X114148707Y-107258308D01*
X114038158Y-107167583D01*
X113947432Y-107057034D01*
X113880020Y-106930915D01*
X113880019Y-106930912D01*
X113838505Y-106794061D01*
X113830274Y-106710486D01*
X113825494Y-106686454D01*
X113816116Y-106663815D01*
X113802503Y-106643441D01*
X113785176Y-106626113D01*
X113764801Y-106612500D01*
X113742162Y-106603122D01*
X113718129Y-106598342D01*
X113705877Y-106597740D01*
X113078000Y-106597740D01*
X113078000Y-104402739D01*
X113075598Y-104378353D01*
X113068485Y-104354904D01*
X113056934Y-104333293D01*
X113041389Y-104314351D01*
X113022447Y-104298806D01*
X113000836Y-104287255D01*
X112977387Y-104280142D01*
X112953001Y-104277740D01*
X112903000Y-104277740D01*
X112903000Y-103883326D01*
X112900598Y-103858940D01*
X112897617Y-103847040D01*
X112881696Y-103794558D01*
X112873000Y-103706259D01*
X112873000Y-103247222D01*
X112881696Y-103158923D01*
X112897617Y-103106441D01*
X112902398Y-103082408D01*
X112903000Y-103070155D01*
X112903000Y-102675740D01*
X113438341Y-102675740D01*
X113450593Y-102675138D01*
X113474000Y-102672833D01*
X113497407Y-102675138D01*
G37*
G36*
X121417895Y-104807240D02*
G01*
X121580045Y-104874405D01*
X121580047Y-104874406D01*
X121725979Y-104971915D01*
X121850085Y-105096021D01*
X121932128Y-105218806D01*
X121947595Y-105241955D01*
X122014760Y-105404105D01*
X122049000Y-105576243D01*
X122049000Y-105751757D01*
X122014760Y-105923895D01*
X121947595Y-106086045D01*
X121947594Y-106086047D01*
X121850085Y-106231979D01*
X121725979Y-106356085D01*
X121580047Y-106453594D01*
X121580046Y-106453595D01*
X121580045Y-106453595D01*
X121417895Y-106520760D01*
X121245757Y-106555000D01*
X121070243Y-106555000D01*
X120898105Y-106520760D01*
X120735955Y-106453595D01*
X120735954Y-106453595D01*
X120735953Y-106453594D01*
X120590021Y-106356085D01*
X120465915Y-106231979D01*
X120368406Y-106086047D01*
X120368405Y-106086045D01*
X120301240Y-105923895D01*
X120267000Y-105751757D01*
X120267000Y-105576243D01*
X120301240Y-105404105D01*
X120368405Y-105241955D01*
X120383873Y-105218806D01*
X120465915Y-105096021D01*
X120590021Y-104971915D01*
X120735953Y-104874406D01*
X120735955Y-104874405D01*
X120898105Y-104807240D01*
X121070243Y-104773000D01*
X121245757Y-104773000D01*
X121417895Y-104807240D01*
G37*
G36*
X123957895Y-104807240D02*
G01*
X124120045Y-104874405D01*
X124120047Y-104874406D01*
X124265979Y-104971915D01*
X124390085Y-105096021D01*
X124472128Y-105218806D01*
X124487595Y-105241955D01*
X124554760Y-105404105D01*
X124589000Y-105576243D01*
X124589000Y-105751757D01*
X124554760Y-105923895D01*
X124487595Y-106086045D01*
X124487594Y-106086047D01*
X124390085Y-106231979D01*
X124265979Y-106356085D01*
X124120047Y-106453594D01*
X124120046Y-106453595D01*
X124120045Y-106453595D01*
X123957895Y-106520760D01*
X123785757Y-106555000D01*
X123610243Y-106555000D01*
X123438105Y-106520760D01*
X123275955Y-106453595D01*
X123275954Y-106453595D01*
X123275953Y-106453594D01*
X123130021Y-106356085D01*
X123005915Y-106231979D01*
X122908406Y-106086047D01*
X122908405Y-106086045D01*
X122841240Y-105923895D01*
X122807000Y-105751757D01*
X122807000Y-105576243D01*
X122841240Y-105404105D01*
X122908405Y-105241955D01*
X122923873Y-105218806D01*
X123005915Y-105096021D01*
X123130021Y-104971915D01*
X123275953Y-104874406D01*
X123275955Y-104874405D01*
X123438105Y-104807240D01*
X123610243Y-104773000D01*
X123785757Y-104773000D01*
X123957895Y-104807240D01*
G37*
G36*
X130915425Y-103583760D02*
G01*
X130915428Y-103583761D01*
X130915429Y-103583761D01*
X131094693Y-103638140D01*
X131094696Y-103638142D01*
X131094697Y-103638142D01*
X131259903Y-103726446D01*
X131404712Y-103845288D01*
X131523554Y-103990097D01*
X131611858Y-104155303D01*
X131611860Y-104155307D01*
X131663081Y-104324161D01*
X131666240Y-104334575D01*
X131684601Y-104521000D01*
X131666240Y-104707425D01*
X131666239Y-104707428D01*
X131666239Y-104707429D01*
X131611860Y-104886693D01*
X131611858Y-104886696D01*
X131611858Y-104886697D01*
X131523554Y-105051903D01*
X131404712Y-105196712D01*
X131259903Y-105315554D01*
X131094697Y-105403858D01*
X131094693Y-105403860D01*
X130915429Y-105458239D01*
X130915428Y-105458239D01*
X130915425Y-105458240D01*
X130775718Y-105472000D01*
X130082282Y-105472000D01*
X129942575Y-105458240D01*
X129942572Y-105458239D01*
X129942571Y-105458239D01*
X129763307Y-105403860D01*
X129763303Y-105403858D01*
X129598097Y-105315554D01*
X129453288Y-105196712D01*
X129334446Y-105051903D01*
X129246142Y-104886697D01*
X129246142Y-104886696D01*
X129246140Y-104886693D01*
X129191761Y-104707429D01*
X129191761Y-104707428D01*
X129191760Y-104707425D01*
X129173399Y-104521000D01*
X129191760Y-104334575D01*
X129194919Y-104324161D01*
X129246140Y-104155307D01*
X129246142Y-104155303D01*
X129334446Y-103990097D01*
X129453288Y-103845288D01*
X129598097Y-103726446D01*
X129763303Y-103638142D01*
X129763304Y-103638142D01*
X129763307Y-103638140D01*
X129942571Y-103583761D01*
X129942572Y-103583761D01*
X129942575Y-103583760D01*
X130082282Y-103570000D01*
X130775718Y-103570000D01*
X130915425Y-103583760D01*
G37*
G36*
X134090425Y-103583760D02*
G01*
X134090428Y-103583761D01*
X134090429Y-103583761D01*
X134269693Y-103638140D01*
X134269696Y-103638142D01*
X134269697Y-103638142D01*
X134434903Y-103726446D01*
X134579712Y-103845288D01*
X134698554Y-103990097D01*
X134786858Y-104155303D01*
X134786860Y-104155307D01*
X134838081Y-104324161D01*
X134841240Y-104334575D01*
X134859601Y-104521000D01*
X134841240Y-104707425D01*
X134841239Y-104707428D01*
X134841239Y-104707429D01*
X134786860Y-104886693D01*
X134786858Y-104886696D01*
X134786858Y-104886697D01*
X134698554Y-105051903D01*
X134579712Y-105196712D01*
X134434903Y-105315554D01*
X134269697Y-105403858D01*
X134269693Y-105403860D01*
X134090429Y-105458239D01*
X134090428Y-105458239D01*
X134090425Y-105458240D01*
X133950718Y-105472000D01*
X133257282Y-105472000D01*
X133117575Y-105458240D01*
X133117572Y-105458239D01*
X133117571Y-105458239D01*
X132938307Y-105403860D01*
X132938303Y-105403858D01*
X132773097Y-105315554D01*
X132628288Y-105196712D01*
X132509446Y-105051903D01*
X132421142Y-104886697D01*
X132421142Y-104886696D01*
X132421140Y-104886693D01*
X132366761Y-104707429D01*
X132366761Y-104707428D01*
X132366760Y-104707425D01*
X132348399Y-104521000D01*
X132366760Y-104334575D01*
X132369919Y-104324161D01*
X132421140Y-104155307D01*
X132421142Y-104155303D01*
X132509446Y-103990097D01*
X132628288Y-103845288D01*
X132773097Y-103726446D01*
X132938303Y-103638142D01*
X132938304Y-103638142D01*
X132938307Y-103638140D01*
X133117571Y-103583761D01*
X133117572Y-103583761D01*
X133117575Y-103583760D01*
X133257282Y-103570000D01*
X133950718Y-103570000D01*
X134090425Y-103583760D01*
G37*
G36*
X120439000Y-102515000D02*
G01*
X119337000Y-102515000D01*
X119337000Y-99913000D01*
X120439000Y-99913000D01*
X120439000Y-102515000D01*
G37*
G36*
X125519000Y-102515000D02*
G01*
X124417000Y-102515000D01*
X124417000Y-99913000D01*
X125519000Y-99913000D01*
X125519000Y-102515000D01*
G37*
G36*
X122979000Y-102515000D02*
G01*
X121877000Y-102515000D01*
X121877000Y-99913000D01*
X122979000Y-99913000D01*
X122979000Y-102515000D01*
G37*
G36*
X113516425Y-98376760D02*
G01*
X113516428Y-98376761D01*
X113516429Y-98376761D01*
X113695693Y-98431140D01*
X113695696Y-98431142D01*
X113695697Y-98431142D01*
X113860903Y-98519446D01*
X114005712Y-98638288D01*
X114124554Y-98783097D01*
X114141606Y-98815000D01*
X114212860Y-98948307D01*
X114267239Y-99127571D01*
X114267240Y-99127575D01*
X114285601Y-99314000D01*
X114267240Y-99500425D01*
X114267239Y-99500428D01*
X114267239Y-99500429D01*
X114212860Y-99679693D01*
X114212858Y-99679696D01*
X114212858Y-99679697D01*
X114124554Y-99844903D01*
X114005712Y-99989712D01*
X113860903Y-100108554D01*
X113695697Y-100196858D01*
X113695693Y-100196860D01*
X113516429Y-100251239D01*
X113516428Y-100251239D01*
X113516425Y-100251240D01*
X113376718Y-100265000D01*
X112683282Y-100265000D01*
X112543575Y-100251240D01*
X112543572Y-100251239D01*
X112543571Y-100251239D01*
X112364307Y-100196860D01*
X112364303Y-100196858D01*
X112199097Y-100108554D01*
X112054288Y-99989712D01*
X111935446Y-99844903D01*
X111847142Y-99679697D01*
X111847142Y-99679696D01*
X111847140Y-99679693D01*
X111792761Y-99500429D01*
X111792761Y-99500428D01*
X111792760Y-99500425D01*
X111774399Y-99314000D01*
X111792760Y-99127575D01*
X111792761Y-99127571D01*
X111847140Y-98948307D01*
X111918394Y-98815000D01*
X111935446Y-98783097D01*
X112054288Y-98638288D01*
X112199097Y-98519446D01*
X112364303Y-98431142D01*
X112364304Y-98431142D01*
X112364307Y-98431140D01*
X112543571Y-98376761D01*
X112543572Y-98376761D01*
X112543575Y-98376760D01*
X112683282Y-98363000D01*
X113376718Y-98363000D01*
X113516425Y-98376760D01*
G37*
G36*
X109960425Y-98376760D02*
G01*
X109960428Y-98376761D01*
X109960429Y-98376761D01*
X110139693Y-98431140D01*
X110139696Y-98431142D01*
X110139697Y-98431142D01*
X110304903Y-98519446D01*
X110449712Y-98638288D01*
X110568554Y-98783097D01*
X110585606Y-98815000D01*
X110656860Y-98948307D01*
X110711239Y-99127571D01*
X110711240Y-99127575D01*
X110729601Y-99314000D01*
X110711240Y-99500425D01*
X110711239Y-99500428D01*
X110711239Y-99500429D01*
X110656860Y-99679693D01*
X110656858Y-99679696D01*
X110656858Y-99679697D01*
X110568554Y-99844903D01*
X110449712Y-99989712D01*
X110304903Y-100108554D01*
X110139697Y-100196858D01*
X110139693Y-100196860D01*
X109960429Y-100251239D01*
X109960428Y-100251239D01*
X109960425Y-100251240D01*
X109820718Y-100265000D01*
X109127282Y-100265000D01*
X108987575Y-100251240D01*
X108987572Y-100251239D01*
X108987571Y-100251239D01*
X108808307Y-100196860D01*
X108808303Y-100196858D01*
X108643097Y-100108554D01*
X108498288Y-99989712D01*
X108379446Y-99844903D01*
X108291142Y-99679697D01*
X108291142Y-99679696D01*
X108291140Y-99679693D01*
X108236761Y-99500429D01*
X108236761Y-99500428D01*
X108236760Y-99500425D01*
X108218399Y-99314000D01*
X108236760Y-99127575D01*
X108236761Y-99127571D01*
X108291140Y-98948307D01*
X108362394Y-98815000D01*
X108379446Y-98783097D01*
X108498288Y-98638288D01*
X108643097Y-98519446D01*
X108808303Y-98431142D01*
X108808304Y-98431142D01*
X108808307Y-98431140D01*
X108987571Y-98376761D01*
X108987572Y-98376761D01*
X108987575Y-98376760D01*
X109127282Y-98363000D01*
X109820718Y-98363000D01*
X109960425Y-98376760D01*
G37*
G36*
X125519000Y-98815000D02*
G01*
X124417000Y-98815000D01*
X124417000Y-96213000D01*
X125519000Y-96213000D01*
X125519000Y-98815000D01*
G37*
G36*
X122979000Y-98815000D02*
G01*
X121877000Y-98815000D01*
X121877000Y-96213000D01*
X122979000Y-96213000D01*
X122979000Y-98815000D01*
G37*
G36*
X120439000Y-98815000D02*
G01*
X119337000Y-98815000D01*
X119337000Y-96213000D01*
X120439000Y-96213000D01*
X120439000Y-98815000D01*
G37*
G36*
X97167000Y-85229000D02*
G01*
X95365000Y-85229000D01*
X95365000Y-83427000D01*
X97167000Y-83427000D01*
X97167000Y-85229000D01*
G37*
G36*
X101104000Y-85229000D02*
G01*
X99302000Y-85229000D01*
X99302000Y-83427000D01*
X101104000Y-83427000D01*
X101104000Y-85229000D01*
G37*
G36*
X121755000Y-83147000D02*
G01*
X120053000Y-83147000D01*
X120053000Y-81445000D01*
X121755000Y-81445000D01*
X121755000Y-83147000D01*
G37*
G36*
X100316512Y-80891927D02*
G01*
X100465812Y-80921624D01*
X100629784Y-80989544D01*
X100777354Y-81088147D01*
X100902853Y-81213646D01*
X101001456Y-81361216D01*
X101069376Y-81525188D01*
X101104000Y-81699259D01*
X101104000Y-81876741D01*
X101069376Y-82050812D01*
X101001456Y-82214784D01*
X100902853Y-82362354D01*
X100777354Y-82487853D01*
X100629784Y-82586456D01*
X100465812Y-82654376D01*
X100316512Y-82684073D01*
X100291742Y-82689000D01*
X100114258Y-82689000D01*
X100089488Y-82684073D01*
X99940188Y-82654376D01*
X99776216Y-82586456D01*
X99628646Y-82487853D01*
X99503147Y-82362354D01*
X99404544Y-82214784D01*
X99336624Y-82050812D01*
X99302000Y-81876741D01*
X99302000Y-81699259D01*
X99336624Y-81525188D01*
X99404544Y-81361216D01*
X99503147Y-81213646D01*
X99628646Y-81088147D01*
X99776216Y-80989544D01*
X99940188Y-80921624D01*
X100089488Y-80891927D01*
X100114258Y-80887000D01*
X100291742Y-80887000D01*
X100316512Y-80891927D01*
G37*
G36*
X96379512Y-80891927D02*
G01*
X96528812Y-80921624D01*
X96692784Y-80989544D01*
X96840354Y-81088147D01*
X96965853Y-81213646D01*
X97064456Y-81361216D01*
X97132376Y-81525188D01*
X97167000Y-81699259D01*
X97167000Y-81876741D01*
X97132376Y-82050812D01*
X97064456Y-82214784D01*
X96965853Y-82362354D01*
X96840354Y-82487853D01*
X96692784Y-82586456D01*
X96528812Y-82654376D01*
X96379512Y-82684073D01*
X96354742Y-82689000D01*
X96177258Y-82689000D01*
X96152488Y-82684073D01*
X96003188Y-82654376D01*
X95839216Y-82586456D01*
X95691646Y-82487853D01*
X95566147Y-82362354D01*
X95467544Y-82214784D01*
X95399624Y-82050812D01*
X95365000Y-81876741D01*
X95365000Y-81699259D01*
X95399624Y-81525188D01*
X95467544Y-81361216D01*
X95566147Y-81213646D01*
X95691646Y-81088147D01*
X95839216Y-80989544D01*
X96003188Y-80921624D01*
X96152488Y-80891927D01*
X96177258Y-80887000D01*
X96354742Y-80887000D01*
X96379512Y-80891927D01*
G37*
G36*
X121152228Y-78977703D02*
G01*
X121307100Y-79041853D01*
X121446481Y-79134985D01*
X121565015Y-79253519D01*
X121658147Y-79392900D01*
X121722297Y-79547772D01*
X121755000Y-79712184D01*
X121755000Y-79879816D01*
X121722297Y-80044228D01*
X121658147Y-80199100D01*
X121565015Y-80338481D01*
X121446481Y-80457015D01*
X121307100Y-80550147D01*
X121152228Y-80614297D01*
X120987816Y-80647000D01*
X120820184Y-80647000D01*
X120655772Y-80614297D01*
X120500900Y-80550147D01*
X120361519Y-80457015D01*
X120242985Y-80338481D01*
X120149853Y-80199100D01*
X120085703Y-80044228D01*
X120053000Y-79879816D01*
X120053000Y-79712184D01*
X120085703Y-79547772D01*
X120149853Y-79392900D01*
X120242985Y-79253519D01*
X120361519Y-79134985D01*
X120500900Y-79041853D01*
X120655772Y-78977703D01*
X120820184Y-78945000D01*
X120987816Y-78945000D01*
X121152228Y-78977703D01*
G37*
G36*
X146367000Y-80284000D02*
G01*
X144665000Y-80284000D01*
X144665000Y-79482000D01*
X146367000Y-79482000D01*
X146367000Y-80284000D01*
G37*
G36*
X96379512Y-78351927D02*
G01*
X96528812Y-78381624D01*
X96692784Y-78449544D01*
X96840354Y-78548147D01*
X96965853Y-78673646D01*
X97064456Y-78821216D01*
X97132376Y-78985188D01*
X97167000Y-79159259D01*
X97167000Y-79336741D01*
X97132376Y-79510812D01*
X97064456Y-79674784D01*
X96965853Y-79822354D01*
X96840354Y-79947853D01*
X96692784Y-80046456D01*
X96528812Y-80114376D01*
X96379512Y-80144073D01*
X96354742Y-80149000D01*
X96177258Y-80149000D01*
X96152488Y-80144073D01*
X96003188Y-80114376D01*
X95839216Y-80046456D01*
X95691646Y-79947853D01*
X95566147Y-79822354D01*
X95467544Y-79674784D01*
X95399624Y-79510812D01*
X95365000Y-79336741D01*
X95365000Y-79159259D01*
X95399624Y-78985188D01*
X95467544Y-78821216D01*
X95566147Y-78673646D01*
X95691646Y-78548147D01*
X95839216Y-78449544D01*
X96003188Y-78381624D01*
X96152488Y-78351927D01*
X96177258Y-78347000D01*
X96354742Y-78347000D01*
X96379512Y-78351927D01*
G37*
G36*
X100316512Y-78351927D02*
G01*
X100465812Y-78381624D01*
X100629784Y-78449544D01*
X100777354Y-78548147D01*
X100902853Y-78673646D01*
X101001456Y-78821216D01*
X101069376Y-78985188D01*
X101104000Y-79159259D01*
X101104000Y-79336741D01*
X101069376Y-79510812D01*
X101001456Y-79674784D01*
X100902853Y-79822354D01*
X100777354Y-79947853D01*
X100629784Y-80046456D01*
X100465812Y-80114376D01*
X100316512Y-80144073D01*
X100291742Y-80149000D01*
X100114258Y-80149000D01*
X100089488Y-80144073D01*
X99940188Y-80114376D01*
X99776216Y-80046456D01*
X99628646Y-79947853D01*
X99503147Y-79822354D01*
X99404544Y-79674784D01*
X99336624Y-79510812D01*
X99302000Y-79336741D01*
X99302000Y-79159259D01*
X99336624Y-78985188D01*
X99404544Y-78821216D01*
X99503147Y-78673646D01*
X99628646Y-78548147D01*
X99776216Y-78449544D01*
X99940188Y-78381624D01*
X100089488Y-78351927D01*
X100114258Y-78347000D01*
X100291742Y-78347000D01*
X100316512Y-78351927D01*
G37*
G36*
X154302785Y-76507602D02*
G01*
X154452610Y-76537404D01*
X154734874Y-76654321D01*
X154988905Y-76824059D01*
X155204941Y-77040095D01*
X155374679Y-77294126D01*
X155491596Y-77576390D01*
X155551200Y-77876040D01*
X155551200Y-78181560D01*
X155491596Y-78481210D01*
X155374679Y-78763474D01*
X155204941Y-79017505D01*
X154988905Y-79233541D01*
X154734874Y-79403279D01*
X154452610Y-79520196D01*
X154313981Y-79547771D01*
X154152961Y-79579800D01*
X153847439Y-79579800D01*
X153686419Y-79547771D01*
X153547790Y-79520196D01*
X153265526Y-79403279D01*
X153011495Y-79233541D01*
X152795459Y-79017505D01*
X152625721Y-78763474D01*
X152508804Y-78481210D01*
X152449200Y-78181560D01*
X152449200Y-77876040D01*
X152508804Y-77576390D01*
X152625721Y-77294126D01*
X152795459Y-77040095D01*
X153011495Y-76824059D01*
X153265526Y-76654321D01*
X153547790Y-76537404D01*
X153697615Y-76507602D01*
X153847439Y-76477800D01*
X154152961Y-76477800D01*
X154302785Y-76507602D01*
G37*
G36*
X146367000Y-79014000D02*
G01*
X144665000Y-79014000D01*
X144665000Y-78212000D01*
X146367000Y-78212000D01*
X146367000Y-79014000D01*
G37*
G36*
X146367000Y-77744000D02*
G01*
X144665000Y-77744000D01*
X144665000Y-76942000D01*
X146367000Y-76942000D01*
X146367000Y-77744000D01*
G37*
G36*
X96379512Y-75811927D02*
G01*
X96528812Y-75841624D01*
X96692784Y-75909544D01*
X96840354Y-76008147D01*
X96965853Y-76133646D01*
X97064456Y-76281216D01*
X97132376Y-76445188D01*
X97167000Y-76619259D01*
X97167000Y-76796741D01*
X97132376Y-76970812D01*
X97064456Y-77134784D01*
X96965853Y-77282354D01*
X96840354Y-77407853D01*
X96692784Y-77506456D01*
X96528812Y-77574376D01*
X96379512Y-77604073D01*
X96354742Y-77609000D01*
X96177258Y-77609000D01*
X96152488Y-77604073D01*
X96003188Y-77574376D01*
X95839216Y-77506456D01*
X95691646Y-77407853D01*
X95566147Y-77282354D01*
X95467544Y-77134784D01*
X95399624Y-76970812D01*
X95365000Y-76796741D01*
X95365000Y-76619259D01*
X95399624Y-76445188D01*
X95467544Y-76281216D01*
X95566147Y-76133646D01*
X95691646Y-76008147D01*
X95839216Y-75909544D01*
X96003188Y-75841624D01*
X96152488Y-75811927D01*
X96177258Y-75807000D01*
X96354742Y-75807000D01*
X96379512Y-75811927D01*
G37*
G36*
X100316512Y-75811927D02*
G01*
X100465812Y-75841624D01*
X100629784Y-75909544D01*
X100777354Y-76008147D01*
X100902853Y-76133646D01*
X101001456Y-76281216D01*
X101069376Y-76445188D01*
X101104000Y-76619259D01*
X101104000Y-76796741D01*
X101069376Y-76970812D01*
X101001456Y-77134784D01*
X100902853Y-77282354D01*
X100777354Y-77407853D01*
X100629784Y-77506456D01*
X100465812Y-77574376D01*
X100316512Y-77604073D01*
X100291742Y-77609000D01*
X100114258Y-77609000D01*
X100089488Y-77604073D01*
X99940188Y-77574376D01*
X99776216Y-77506456D01*
X99628646Y-77407853D01*
X99503147Y-77282354D01*
X99404544Y-77134784D01*
X99336624Y-76970812D01*
X99302000Y-76796741D01*
X99302000Y-76619259D01*
X99336624Y-76445188D01*
X99404544Y-76281216D01*
X99503147Y-76133646D01*
X99628646Y-76008147D01*
X99776216Y-75909544D01*
X99940188Y-75841624D01*
X100089488Y-75811927D01*
X100114258Y-75807000D01*
X100291742Y-75807000D01*
X100316512Y-75811927D01*
G37*
G36*
X146367000Y-76474000D02*
G01*
X144665000Y-76474000D01*
X144665000Y-75672000D01*
X146367000Y-75672000D01*
X146367000Y-76474000D01*
G37*
G36*
X100316512Y-73271927D02*
G01*
X100465812Y-73301624D01*
X100629784Y-73369544D01*
X100777354Y-73468147D01*
X100902853Y-73593646D01*
X101001456Y-73741216D01*
X101069376Y-73905188D01*
X101104000Y-74079259D01*
X101104000Y-74256741D01*
X101069376Y-74430812D01*
X101001456Y-74594784D01*
X100902853Y-74742354D01*
X100777354Y-74867853D01*
X100629784Y-74966456D01*
X100465812Y-75034376D01*
X100316512Y-75064073D01*
X100291742Y-75069000D01*
X100114258Y-75069000D01*
X100089488Y-75064073D01*
X99940188Y-75034376D01*
X99776216Y-74966456D01*
X99628646Y-74867853D01*
X99503147Y-74742354D01*
X99404544Y-74594784D01*
X99336624Y-74430812D01*
X99302000Y-74256741D01*
X99302000Y-74079259D01*
X99336624Y-73905188D01*
X99404544Y-73741216D01*
X99503147Y-73593646D01*
X99628646Y-73468147D01*
X99776216Y-73369544D01*
X99940188Y-73301624D01*
X100089488Y-73271927D01*
X100114258Y-73267000D01*
X100291742Y-73267000D01*
X100316512Y-73271927D01*
G37*
G36*
X96379512Y-73271927D02*
G01*
X96528812Y-73301624D01*
X96692784Y-73369544D01*
X96840354Y-73468147D01*
X96965853Y-73593646D01*
X97064456Y-73741216D01*
X97132376Y-73905188D01*
X97167000Y-74079259D01*
X97167000Y-74256741D01*
X97132376Y-74430812D01*
X97064456Y-74594784D01*
X96965853Y-74742354D01*
X96840354Y-74867853D01*
X96692784Y-74966456D01*
X96528812Y-75034376D01*
X96379512Y-75064073D01*
X96354742Y-75069000D01*
X96177258Y-75069000D01*
X96152488Y-75064073D01*
X96003188Y-75034376D01*
X95839216Y-74966456D01*
X95691646Y-74867853D01*
X95566147Y-74742354D01*
X95467544Y-74594784D01*
X95399624Y-74430812D01*
X95365000Y-74256741D01*
X95365000Y-74079259D01*
X95399624Y-73905188D01*
X95467544Y-73741216D01*
X95566147Y-73593646D01*
X95691646Y-73468147D01*
X95839216Y-73369544D01*
X96003188Y-73301624D01*
X96152488Y-73271927D01*
X96177258Y-73267000D01*
X96354742Y-73267000D01*
X96379512Y-73271927D01*
G37*
G36*
X128155000Y-74307000D02*
G01*
X126353000Y-74307000D01*
X126353000Y-72505000D01*
X128155000Y-72505000D01*
X128155000Y-74307000D01*
G37*
G36*
X124827512Y-72509927D02*
G01*
X124976812Y-72539624D01*
X125140784Y-72607544D01*
X125288354Y-72706147D01*
X125413853Y-72831646D01*
X125512456Y-72979216D01*
X125580376Y-73143188D01*
X125615000Y-73317259D01*
X125615000Y-73494741D01*
X125580376Y-73668812D01*
X125512456Y-73832784D01*
X125413853Y-73980354D01*
X125288354Y-74105853D01*
X125140784Y-74204456D01*
X124976812Y-74272376D01*
X124827512Y-74302073D01*
X124802742Y-74307000D01*
X124625258Y-74307000D01*
X124600488Y-74302073D01*
X124451188Y-74272376D01*
X124287216Y-74204456D01*
X124139646Y-74105853D01*
X124014147Y-73980354D01*
X123915544Y-73832784D01*
X123847624Y-73668812D01*
X123813000Y-73494741D01*
X123813000Y-73317259D01*
X123847624Y-73143188D01*
X123915544Y-72979216D01*
X124014147Y-72831646D01*
X124139646Y-72706147D01*
X124287216Y-72607544D01*
X124451188Y-72539624D01*
X124600488Y-72509927D01*
X124625258Y-72505000D01*
X124802742Y-72505000D01*
X124827512Y-72509927D01*
G37*
G36*
X120509512Y-72509927D02*
G01*
X120658812Y-72539624D01*
X120822784Y-72607544D01*
X120970354Y-72706147D01*
X121095853Y-72831646D01*
X121194456Y-72979216D01*
X121262376Y-73143188D01*
X121297000Y-73317259D01*
X121297000Y-73494741D01*
X121262376Y-73668812D01*
X121194456Y-73832784D01*
X121095853Y-73980354D01*
X120970354Y-74105853D01*
X120822784Y-74204456D01*
X120658812Y-74272376D01*
X120509512Y-74302073D01*
X120484742Y-74307000D01*
X120307258Y-74307000D01*
X120282488Y-74302073D01*
X120133188Y-74272376D01*
X119969216Y-74204456D01*
X119821646Y-74105853D01*
X119696147Y-73980354D01*
X119597544Y-73832784D01*
X119529624Y-73668812D01*
X119495000Y-73494741D01*
X119495000Y-73317259D01*
X119529624Y-73143188D01*
X119597544Y-72979216D01*
X119696147Y-72831646D01*
X119821646Y-72706147D01*
X119969216Y-72607544D01*
X120133188Y-72539624D01*
X120282488Y-72509927D01*
X120307258Y-72505000D01*
X120484742Y-72505000D01*
X120509512Y-72509927D01*
G37*
G36*
X118757000Y-74307000D02*
G01*
X116955000Y-74307000D01*
X116955000Y-72505000D01*
X118757000Y-72505000D01*
X118757000Y-74307000D01*
G37*
G36*
X96379512Y-70731927D02*
G01*
X96528812Y-70761624D01*
X96692784Y-70829544D01*
X96840354Y-70928147D01*
X96965853Y-71053646D01*
X97064456Y-71201216D01*
X97132376Y-71365188D01*
X97167000Y-71539259D01*
X97167000Y-71716741D01*
X97132376Y-71890812D01*
X97064456Y-72054784D01*
X96965853Y-72202354D01*
X96840354Y-72327853D01*
X96692784Y-72426456D01*
X96528812Y-72494376D01*
X96379512Y-72524073D01*
X96354742Y-72529000D01*
X96177258Y-72529000D01*
X96152488Y-72524073D01*
X96003188Y-72494376D01*
X95839216Y-72426456D01*
X95691646Y-72327853D01*
X95566147Y-72202354D01*
X95467544Y-72054784D01*
X95399624Y-71890812D01*
X95365000Y-71716741D01*
X95365000Y-71539259D01*
X95399624Y-71365188D01*
X95467544Y-71201216D01*
X95566147Y-71053646D01*
X95691646Y-70928147D01*
X95839216Y-70829544D01*
X96003188Y-70761624D01*
X96152488Y-70731927D01*
X96177258Y-70727000D01*
X96354742Y-70727000D01*
X96379512Y-70731927D01*
G37*
G36*
X100316512Y-70731927D02*
G01*
X100465812Y-70761624D01*
X100629784Y-70829544D01*
X100777354Y-70928147D01*
X100902853Y-71053646D01*
X101001456Y-71201216D01*
X101069376Y-71365188D01*
X101104000Y-71539259D01*
X101104000Y-71716741D01*
X101069376Y-71890812D01*
X101001456Y-72054784D01*
X100902853Y-72202354D01*
X100777354Y-72327853D01*
X100629784Y-72426456D01*
X100465812Y-72494376D01*
X100316512Y-72524073D01*
X100291742Y-72529000D01*
X100114258Y-72529000D01*
X100089488Y-72524073D01*
X99940188Y-72494376D01*
X99776216Y-72426456D01*
X99628646Y-72327853D01*
X99503147Y-72202354D01*
X99404544Y-72054784D01*
X99336624Y-71890812D01*
X99302000Y-71716741D01*
X99302000Y-71539259D01*
X99336624Y-71365188D01*
X99404544Y-71201216D01*
X99503147Y-71053646D01*
X99628646Y-70928147D01*
X99776216Y-70829544D01*
X99940188Y-70761624D01*
X100089488Y-70731927D01*
X100114258Y-70727000D01*
X100291742Y-70727000D01*
X100316512Y-70731927D01*
G37*
G36*
X126362785Y-65839602D02*
G01*
X126512610Y-65869404D01*
X126794874Y-65986321D01*
X127048905Y-66156059D01*
X127264941Y-66372095D01*
X127434679Y-66626126D01*
X127551596Y-66908390D01*
X127611200Y-67208040D01*
X127611200Y-67513560D01*
X127551596Y-67813210D01*
X127434679Y-68095474D01*
X127264941Y-68349505D01*
X127048905Y-68565541D01*
X126794874Y-68735279D01*
X126512610Y-68852196D01*
X126362785Y-68881998D01*
X126212961Y-68911800D01*
X125907439Y-68911800D01*
X125757615Y-68881998D01*
X125607790Y-68852196D01*
X125325526Y-68735279D01*
X125071495Y-68565541D01*
X124855459Y-68349505D01*
X124685721Y-68095474D01*
X124568804Y-67813210D01*
X124509200Y-67513560D01*
X124509200Y-67208040D01*
X124568804Y-66908390D01*
X124685721Y-66626126D01*
X124855459Y-66372095D01*
X125071495Y-66156059D01*
X125325526Y-65986321D01*
X125607790Y-65869404D01*
X125757615Y-65839602D01*
X125907439Y-65809800D01*
X126212961Y-65809800D01*
X126362785Y-65839602D01*
G37*
G36*
X119250785Y-65839602D02*
G01*
X119400610Y-65869404D01*
X119682874Y-65986321D01*
X119936905Y-66156059D01*
X120152941Y-66372095D01*
X120322679Y-66626126D01*
X120439596Y-66908390D01*
X120499200Y-67208040D01*
X120499200Y-67513560D01*
X120439596Y-67813210D01*
X120322679Y-68095474D01*
X120152941Y-68349505D01*
X119936905Y-68565541D01*
X119682874Y-68735279D01*
X119400610Y-68852196D01*
X119250785Y-68881998D01*
X119100961Y-68911800D01*
X118795439Y-68911800D01*
X118645615Y-68881998D01*
X118495790Y-68852196D01*
X118213526Y-68735279D01*
X117959495Y-68565541D01*
X117743459Y-68349505D01*
X117573721Y-68095474D01*
X117456804Y-67813210D01*
X117397200Y-67513560D01*
X117397200Y-67208040D01*
X117456804Y-66908390D01*
X117573721Y-66626126D01*
X117743459Y-66372095D01*
X117959495Y-66156059D01*
X118213526Y-65986321D01*
X118495790Y-65869404D01*
X118645615Y-65839602D01*
X118795439Y-65809800D01*
X119100961Y-65809800D01*
X119250785Y-65839602D01*
G37*
G36*
X107058785Y-49228002D02*
G01*
X107208610Y-49257804D01*
X107490874Y-49374721D01*
X107744905Y-49544459D01*
X107960941Y-49760495D01*
X108130679Y-50014526D01*
X108247596Y-50296790D01*
X108307200Y-50596440D01*
X108307200Y-50901960D01*
X108247596Y-51201610D01*
X108130679Y-51483874D01*
X107960941Y-51737905D01*
X107744905Y-51953941D01*
X107490874Y-52123679D01*
X107208610Y-52240596D01*
X107058785Y-52270398D01*
X106908961Y-52300200D01*
X106603439Y-52300200D01*
X106453615Y-52270398D01*
X106303790Y-52240596D01*
X106021526Y-52123679D01*
X105767495Y-51953941D01*
X105551459Y-51737905D01*
X105381721Y-51483874D01*
X105264804Y-51201610D01*
X105205200Y-50901960D01*
X105205200Y-50596440D01*
X105264804Y-50296790D01*
X105381721Y-50014526D01*
X105551459Y-49760495D01*
X105767495Y-49544459D01*
X106021526Y-49374721D01*
X106303790Y-49257804D01*
X106453615Y-49228002D01*
X106603439Y-49198200D01*
X106908961Y-49198200D01*
X107058785Y-49228002D01*
G37*
M02*
