G04 #@! TF.GenerationSoftware,KiCad,Pcbnew,(5.1.6)-1*
G04 #@! TF.CreationDate,2021-11-15T16:50:44+01:00*
G04 #@! TF.ProjectId,Power_module_v1,506f7765-725f-46d6-9f64-756c655f7631,rev?*
G04 #@! TF.SameCoordinates,Original*
G04 #@! TF.FileFunction,Legend,Top*
G04 #@! TF.FilePolarity,Positive*
%FSLAX46Y46*%
G04 Gerber Fmt 4.6, Leading zero omitted, Abs format (unit mm)*
G04 Created by KiCad (PCBNEW (5.1.6)-1) date 2021-11-15 16:50:44*
%MOMM*%
%LPD*%
G01*
G04 APERTURE LIST*
%ADD10C,0.125000*%
%ADD11C,0.150000*%
%ADD12C,0.120000*%
%ADD13C,0.152400*%
%ADD14C,0.500000*%
%ADD15C,0.010000*%
%ADD16C,0.200000*%
%ADD17C,0.127000*%
G04 APERTURE END LIST*
D10*
X105588690Y-106521428D02*
X105088690Y-106521428D01*
X105445833Y-106354761D01*
X105088690Y-106188095D01*
X105588690Y-106188095D01*
X105588690Y-105950000D02*
X105255357Y-105950000D01*
X105088690Y-105950000D02*
X105112500Y-105973809D01*
X105136309Y-105950000D01*
X105112500Y-105926190D01*
X105088690Y-105950000D01*
X105136309Y-105950000D01*
X105564880Y-105497619D02*
X105588690Y-105545238D01*
X105588690Y-105640476D01*
X105564880Y-105688095D01*
X105541071Y-105711904D01*
X105493452Y-105735714D01*
X105350595Y-105735714D01*
X105302976Y-105711904D01*
X105279166Y-105688095D01*
X105255357Y-105640476D01*
X105255357Y-105545238D01*
X105279166Y-105497619D01*
X105588690Y-105283333D02*
X105255357Y-105283333D01*
X105350595Y-105283333D02*
X105302976Y-105259523D01*
X105279166Y-105235714D01*
X105255357Y-105188095D01*
X105255357Y-105140476D01*
X105588690Y-104902380D02*
X105564880Y-104950000D01*
X105541071Y-104973809D01*
X105493452Y-104997619D01*
X105350595Y-104997619D01*
X105302976Y-104973809D01*
X105279166Y-104950000D01*
X105255357Y-104902380D01*
X105255357Y-104830952D01*
X105279166Y-104783333D01*
X105302976Y-104759523D01*
X105350595Y-104735714D01*
X105493452Y-104735714D01*
X105541071Y-104759523D01*
X105564880Y-104783333D01*
X105588690Y-104830952D01*
X105588690Y-104902380D01*
X105088690Y-104140476D02*
X105493452Y-104140476D01*
X105541071Y-104116666D01*
X105564880Y-104092857D01*
X105588690Y-104045238D01*
X105588690Y-103950000D01*
X105564880Y-103902380D01*
X105541071Y-103878571D01*
X105493452Y-103854761D01*
X105088690Y-103854761D01*
X105564880Y-103640476D02*
X105588690Y-103569047D01*
X105588690Y-103450000D01*
X105564880Y-103402380D01*
X105541071Y-103378571D01*
X105493452Y-103354761D01*
X105445833Y-103354761D01*
X105398214Y-103378571D01*
X105374404Y-103402380D01*
X105350595Y-103450000D01*
X105326785Y-103545238D01*
X105302976Y-103592857D01*
X105279166Y-103616666D01*
X105231547Y-103640476D01*
X105183928Y-103640476D01*
X105136309Y-103616666D01*
X105112500Y-103592857D01*
X105088690Y-103545238D01*
X105088690Y-103426190D01*
X105112500Y-103354761D01*
X105326785Y-102973809D02*
X105350595Y-102902380D01*
X105374404Y-102878571D01*
X105422023Y-102854761D01*
X105493452Y-102854761D01*
X105541071Y-102878571D01*
X105564880Y-102902380D01*
X105588690Y-102950000D01*
X105588690Y-103140476D01*
X105088690Y-103140476D01*
X105088690Y-102973809D01*
X105112500Y-102926190D01*
X105136309Y-102902380D01*
X105183928Y-102878571D01*
X105231547Y-102878571D01*
X105279166Y-102902380D01*
X105302976Y-102926190D01*
X105326785Y-102973809D01*
X105326785Y-103140476D01*
X106463690Y-104961904D02*
X105963690Y-104961904D01*
X106463690Y-104723809D02*
X105963690Y-104723809D01*
X106463690Y-104438095D01*
X105963690Y-104438095D01*
X108319238Y-97762190D02*
X108319238Y-97262190D01*
X108509714Y-97262190D01*
X108557333Y-97286000D01*
X108581142Y-97309809D01*
X108604952Y-97357428D01*
X108604952Y-97428857D01*
X108581142Y-97476476D01*
X108557333Y-97500285D01*
X108509714Y-97524095D01*
X108319238Y-97524095D01*
X108914476Y-97262190D02*
X109009714Y-97262190D01*
X109057333Y-97286000D01*
X109104952Y-97333619D01*
X109128761Y-97428857D01*
X109128761Y-97595523D01*
X109104952Y-97690761D01*
X109057333Y-97738380D01*
X109009714Y-97762190D01*
X108914476Y-97762190D01*
X108866857Y-97738380D01*
X108819238Y-97690761D01*
X108795428Y-97595523D01*
X108795428Y-97428857D01*
X108819238Y-97333619D01*
X108866857Y-97286000D01*
X108914476Y-97262190D01*
X109295428Y-97262190D02*
X109414476Y-97762190D01*
X109509714Y-97405047D01*
X109604952Y-97762190D01*
X109724000Y-97262190D01*
X109914476Y-97500285D02*
X110081142Y-97500285D01*
X110152571Y-97762190D02*
X109914476Y-97762190D01*
X109914476Y-97262190D01*
X110152571Y-97262190D01*
X110652571Y-97762190D02*
X110485904Y-97524095D01*
X110366857Y-97762190D02*
X110366857Y-97262190D01*
X110557333Y-97262190D01*
X110604952Y-97286000D01*
X110628761Y-97309809D01*
X110652571Y-97357428D01*
X110652571Y-97428857D01*
X110628761Y-97476476D01*
X110604952Y-97500285D01*
X110557333Y-97524095D01*
X110366857Y-97524095D01*
X112672857Y-97714571D02*
X112649047Y-97738380D01*
X112577619Y-97762190D01*
X112530000Y-97762190D01*
X112458571Y-97738380D01*
X112410952Y-97690761D01*
X112387142Y-97643142D01*
X112363333Y-97547904D01*
X112363333Y-97476476D01*
X112387142Y-97381238D01*
X112410952Y-97333619D01*
X112458571Y-97286000D01*
X112530000Y-97262190D01*
X112577619Y-97262190D01*
X112649047Y-97286000D01*
X112672857Y-97309809D01*
X112887142Y-97762190D02*
X112887142Y-97262190D01*
X112887142Y-97500285D02*
X113172857Y-97500285D01*
X113172857Y-97762190D02*
X113172857Y-97262190D01*
X113672857Y-97286000D02*
X113625238Y-97262190D01*
X113553809Y-97262190D01*
X113482380Y-97286000D01*
X113434761Y-97333619D01*
X113410952Y-97381238D01*
X113387142Y-97476476D01*
X113387142Y-97547904D01*
X113410952Y-97643142D01*
X113434761Y-97690761D01*
X113482380Y-97738380D01*
X113553809Y-97762190D01*
X113601428Y-97762190D01*
X113672857Y-97738380D01*
X113696666Y-97714571D01*
X113696666Y-97547904D01*
X113601428Y-97547904D01*
X132937333Y-103223190D02*
X132699238Y-103223190D01*
X132699238Y-102723190D01*
X133104000Y-103223190D02*
X133104000Y-102723190D01*
X133604000Y-102747000D02*
X133556380Y-102723190D01*
X133484952Y-102723190D01*
X133413523Y-102747000D01*
X133365904Y-102794619D01*
X133342095Y-102842238D01*
X133318285Y-102937476D01*
X133318285Y-103008904D01*
X133342095Y-103104142D01*
X133365904Y-103151761D01*
X133413523Y-103199380D01*
X133484952Y-103223190D01*
X133532571Y-103223190D01*
X133604000Y-103199380D01*
X133627809Y-103175571D01*
X133627809Y-103008904D01*
X133532571Y-103008904D01*
X133842095Y-103223190D02*
X133842095Y-102723190D01*
X133842095Y-102961285D02*
X134127809Y-102961285D01*
X134127809Y-103223190D02*
X134127809Y-102723190D01*
X134294476Y-102723190D02*
X134580190Y-102723190D01*
X134437333Y-103223190D02*
X134437333Y-102723190D01*
X129869476Y-102961285D02*
X129940904Y-102985095D01*
X129964714Y-103008904D01*
X129988523Y-103056523D01*
X129988523Y-103127952D01*
X129964714Y-103175571D01*
X129940904Y-103199380D01*
X129893285Y-103223190D01*
X129702809Y-103223190D01*
X129702809Y-102723190D01*
X129869476Y-102723190D01*
X129917095Y-102747000D01*
X129940904Y-102770809D01*
X129964714Y-102818428D01*
X129964714Y-102866047D01*
X129940904Y-102913666D01*
X129917095Y-102937476D01*
X129869476Y-102961285D01*
X129702809Y-102961285D01*
X130179000Y-103080333D02*
X130417095Y-103080333D01*
X130131380Y-103223190D02*
X130298047Y-102723190D01*
X130464714Y-103223190D01*
X130559952Y-102723190D02*
X130845666Y-102723190D01*
X130702809Y-103223190D02*
X130702809Y-102723190D01*
X130940904Y-102723190D02*
X131226619Y-102723190D01*
X131083761Y-103223190D02*
X131083761Y-102723190D01*
D11*
X127990571Y-107781285D02*
X127990571Y-107031285D01*
X128276285Y-107031285D01*
X128347714Y-107067000D01*
X128383428Y-107102714D01*
X128419142Y-107174142D01*
X128419142Y-107281285D01*
X128383428Y-107352714D01*
X128347714Y-107388428D01*
X128276285Y-107424142D01*
X127990571Y-107424142D01*
X128847714Y-107781285D02*
X128776285Y-107745571D01*
X128740571Y-107709857D01*
X128704857Y-107638428D01*
X128704857Y-107424142D01*
X128740571Y-107352714D01*
X128776285Y-107317000D01*
X128847714Y-107281285D01*
X128954857Y-107281285D01*
X129026285Y-107317000D01*
X129062000Y-107352714D01*
X129097714Y-107424142D01*
X129097714Y-107638428D01*
X129062000Y-107709857D01*
X129026285Y-107745571D01*
X128954857Y-107781285D01*
X128847714Y-107781285D01*
X129347714Y-107281285D02*
X129490571Y-107781285D01*
X129633428Y-107424142D01*
X129776285Y-107781285D01*
X129919142Y-107281285D01*
X130490571Y-107745571D02*
X130419142Y-107781285D01*
X130276285Y-107781285D01*
X130204857Y-107745571D01*
X130169142Y-107674142D01*
X130169142Y-107388428D01*
X130204857Y-107317000D01*
X130276285Y-107281285D01*
X130419142Y-107281285D01*
X130490571Y-107317000D01*
X130526285Y-107388428D01*
X130526285Y-107459857D01*
X130169142Y-107531285D01*
X130847714Y-107781285D02*
X130847714Y-107281285D01*
X130847714Y-107424142D02*
X130883428Y-107352714D01*
X130919142Y-107317000D01*
X130990571Y-107281285D01*
X131062000Y-107281285D01*
X131812000Y-107281285D02*
X131990571Y-107781285D01*
X132169142Y-107281285D01*
X132776285Y-107281285D02*
X132776285Y-107781285D01*
X132597714Y-106995571D02*
X132419142Y-107531285D01*
X132883428Y-107531285D01*
X133169142Y-107709857D02*
X133204857Y-107745571D01*
X133169142Y-107781285D01*
X133133428Y-107745571D01*
X133169142Y-107709857D01*
X133169142Y-107781285D01*
X133669142Y-107031285D02*
X133740571Y-107031285D01*
X133812000Y-107067000D01*
X133847714Y-107102714D01*
X133883428Y-107174142D01*
X133919142Y-107317000D01*
X133919142Y-107495571D01*
X133883428Y-107638428D01*
X133847714Y-107709857D01*
X133812000Y-107745571D01*
X133740571Y-107781285D01*
X133669142Y-107781285D01*
X133597714Y-107745571D01*
X133562000Y-107709857D01*
X133526285Y-107638428D01*
X133490571Y-107495571D01*
X133490571Y-107317000D01*
X133526285Y-107174142D01*
X133562000Y-107102714D01*
X133597714Y-107067000D01*
X133669142Y-107031285D01*
D10*
X120015047Y-75696000D02*
X119967428Y-75672190D01*
X119896000Y-75672190D01*
X119824571Y-75696000D01*
X119776952Y-75743619D01*
X119753142Y-75791238D01*
X119729333Y-75886476D01*
X119729333Y-75957904D01*
X119753142Y-76053142D01*
X119776952Y-76100761D01*
X119824571Y-76148380D01*
X119896000Y-76172190D01*
X119943619Y-76172190D01*
X120015047Y-76148380D01*
X120038857Y-76124571D01*
X120038857Y-75957904D01*
X119943619Y-75957904D01*
X120253142Y-76172190D02*
X120253142Y-75672190D01*
X120538857Y-76172190D01*
X120538857Y-75672190D01*
X120776952Y-76172190D02*
X120776952Y-75672190D01*
X120896000Y-75672190D01*
X120967428Y-75696000D01*
X121015047Y-75743619D01*
X121038857Y-75791238D01*
X121062666Y-75886476D01*
X121062666Y-75957904D01*
X121038857Y-76053142D01*
X121015047Y-76100761D01*
X120967428Y-76148380D01*
X120896000Y-76172190D01*
X120776952Y-76172190D01*
X126591333Y-76148380D02*
X126662761Y-76172190D01*
X126781809Y-76172190D01*
X126829428Y-76148380D01*
X126853238Y-76124571D01*
X126877047Y-76076952D01*
X126877047Y-76029333D01*
X126853238Y-75981714D01*
X126829428Y-75957904D01*
X126781809Y-75934095D01*
X126686571Y-75910285D01*
X126638952Y-75886476D01*
X126615142Y-75862666D01*
X126591333Y-75815047D01*
X126591333Y-75767428D01*
X126615142Y-75719809D01*
X126638952Y-75696000D01*
X126686571Y-75672190D01*
X126805619Y-75672190D01*
X126877047Y-75696000D01*
X127186571Y-75672190D02*
X127281809Y-75672190D01*
X127329428Y-75696000D01*
X127377047Y-75743619D01*
X127400857Y-75838857D01*
X127400857Y-76005523D01*
X127377047Y-76100761D01*
X127329428Y-76148380D01*
X127281809Y-76172190D01*
X127186571Y-76172190D01*
X127138952Y-76148380D01*
X127091333Y-76100761D01*
X127067523Y-76005523D01*
X127067523Y-75838857D01*
X127091333Y-75743619D01*
X127138952Y-75696000D01*
X127186571Y-75672190D01*
X127853238Y-76172190D02*
X127615142Y-76172190D01*
X127615142Y-75672190D01*
X128019904Y-75981714D02*
X128400857Y-75981714D01*
X128210380Y-76172190D02*
X128210380Y-75791238D01*
X124079047Y-75696000D02*
X124031428Y-75672190D01*
X123960000Y-75672190D01*
X123888571Y-75696000D01*
X123840952Y-75743619D01*
X123817142Y-75791238D01*
X123793333Y-75886476D01*
X123793333Y-75957904D01*
X123817142Y-76053142D01*
X123840952Y-76100761D01*
X123888571Y-76148380D01*
X123960000Y-76172190D01*
X124007619Y-76172190D01*
X124079047Y-76148380D01*
X124102857Y-76124571D01*
X124102857Y-75957904D01*
X124007619Y-75957904D01*
X124317142Y-76172190D02*
X124317142Y-75672190D01*
X124602857Y-76172190D01*
X124602857Y-75672190D01*
X124840952Y-76172190D02*
X124840952Y-75672190D01*
X124960000Y-75672190D01*
X125031428Y-75696000D01*
X125079047Y-75743619D01*
X125102857Y-75791238D01*
X125126666Y-75886476D01*
X125126666Y-75957904D01*
X125102857Y-76053142D01*
X125079047Y-76100761D01*
X125031428Y-76148380D01*
X124960000Y-76172190D01*
X124840952Y-76172190D01*
X117177428Y-75910285D02*
X117248857Y-75934095D01*
X117272666Y-75957904D01*
X117296476Y-76005523D01*
X117296476Y-76076952D01*
X117272666Y-76124571D01*
X117248857Y-76148380D01*
X117201238Y-76172190D01*
X117010761Y-76172190D01*
X117010761Y-75672190D01*
X117177428Y-75672190D01*
X117225047Y-75696000D01*
X117248857Y-75719809D01*
X117272666Y-75767428D01*
X117272666Y-75815047D01*
X117248857Y-75862666D01*
X117225047Y-75886476D01*
X117177428Y-75910285D01*
X117010761Y-75910285D01*
X117486952Y-76029333D02*
X117725047Y-76029333D01*
X117439333Y-76172190D02*
X117606000Y-75672190D01*
X117772666Y-76172190D01*
X117867904Y-75672190D02*
X118153619Y-75672190D01*
X118010761Y-76172190D02*
X118010761Y-75672190D01*
X118320285Y-75981714D02*
X118701238Y-75981714D01*
X118510761Y-76172190D02*
X118510761Y-75791238D01*
D12*
X93472000Y-84709000D02*
X93472000Y-83947000D01*
X94107000Y-84328000D02*
X93472000Y-84709000D01*
X93472000Y-83947000D02*
X94107000Y-84328000D01*
D10*
X124360857Y-99602380D02*
X124432285Y-99626190D01*
X124551333Y-99626190D01*
X124598952Y-99602380D01*
X124622761Y-99578571D01*
X124646571Y-99530952D01*
X124646571Y-99483333D01*
X124622761Y-99435714D01*
X124598952Y-99411904D01*
X124551333Y-99388095D01*
X124456095Y-99364285D01*
X124408476Y-99340476D01*
X124384666Y-99316666D01*
X124360857Y-99269047D01*
X124360857Y-99221428D01*
X124384666Y-99173809D01*
X124408476Y-99150000D01*
X124456095Y-99126190D01*
X124575142Y-99126190D01*
X124646571Y-99150000D01*
X124860857Y-99626190D02*
X124860857Y-99126190D01*
X124979904Y-99126190D01*
X125051333Y-99150000D01*
X125098952Y-99197619D01*
X125122761Y-99245238D01*
X125146571Y-99340476D01*
X125146571Y-99411904D01*
X125122761Y-99507142D01*
X125098952Y-99554761D01*
X125051333Y-99602380D01*
X124979904Y-99626190D01*
X124860857Y-99626190D01*
X125337047Y-99483333D02*
X125575142Y-99483333D01*
X125289428Y-99626190D02*
X125456095Y-99126190D01*
X125622761Y-99626190D01*
X121904761Y-99602380D02*
X121976190Y-99626190D01*
X122095238Y-99626190D01*
X122142857Y-99602380D01*
X122166666Y-99578571D01*
X122190476Y-99530952D01*
X122190476Y-99483333D01*
X122166666Y-99435714D01*
X122142857Y-99411904D01*
X122095238Y-99388095D01*
X122000000Y-99364285D01*
X121952380Y-99340476D01*
X121928571Y-99316666D01*
X121904761Y-99269047D01*
X121904761Y-99221428D01*
X121928571Y-99173809D01*
X121952380Y-99150000D01*
X122000000Y-99126190D01*
X122119047Y-99126190D01*
X122190476Y-99150000D01*
X122690476Y-99578571D02*
X122666666Y-99602380D01*
X122595238Y-99626190D01*
X122547619Y-99626190D01*
X122476190Y-99602380D01*
X122428571Y-99554761D01*
X122404761Y-99507142D01*
X122380952Y-99411904D01*
X122380952Y-99340476D01*
X122404761Y-99245238D01*
X122428571Y-99197619D01*
X122476190Y-99150000D01*
X122547619Y-99126190D01*
X122595238Y-99126190D01*
X122666666Y-99150000D01*
X122690476Y-99173809D01*
X123142857Y-99626190D02*
X122904761Y-99626190D01*
X122904761Y-99126190D01*
X119380952Y-99126190D02*
X119690476Y-99126190D01*
X119523809Y-99316666D01*
X119595238Y-99316666D01*
X119642857Y-99340476D01*
X119666666Y-99364285D01*
X119690476Y-99411904D01*
X119690476Y-99530952D01*
X119666666Y-99578571D01*
X119642857Y-99602380D01*
X119595238Y-99626190D01*
X119452380Y-99626190D01*
X119404761Y-99602380D01*
X119380952Y-99578571D01*
X119833333Y-99126190D02*
X120000000Y-99626190D01*
X120166666Y-99126190D01*
X120285714Y-99126190D02*
X120595238Y-99126190D01*
X120428571Y-99316666D01*
X120500000Y-99316666D01*
X120547619Y-99340476D01*
X120571428Y-99364285D01*
X120595238Y-99411904D01*
X120595238Y-99530952D01*
X120571428Y-99578571D01*
X120547619Y-99602380D01*
X120500000Y-99626190D01*
X120357142Y-99626190D01*
X120309523Y-99602380D01*
X120285714Y-99578571D01*
X124607142Y-95926190D02*
X124607142Y-95426190D01*
X124892857Y-95926190D01*
X124892857Y-95426190D01*
X125416666Y-95878571D02*
X125392857Y-95902380D01*
X125321428Y-95926190D01*
X125273809Y-95926190D01*
X125202380Y-95902380D01*
X125154761Y-95854761D01*
X125130952Y-95807142D01*
X125107142Y-95711904D01*
X125107142Y-95640476D01*
X125130952Y-95545238D01*
X125154761Y-95497619D01*
X125202380Y-95450000D01*
X125273809Y-95426190D01*
X125321428Y-95426190D01*
X125392857Y-95450000D01*
X125416666Y-95473809D01*
X122174047Y-95450000D02*
X122126428Y-95426190D01*
X122055000Y-95426190D01*
X121983571Y-95450000D01*
X121935952Y-95497619D01*
X121912142Y-95545238D01*
X121888333Y-95640476D01*
X121888333Y-95711904D01*
X121912142Y-95807142D01*
X121935952Y-95854761D01*
X121983571Y-95902380D01*
X122055000Y-95926190D01*
X122102619Y-95926190D01*
X122174047Y-95902380D01*
X122197857Y-95878571D01*
X122197857Y-95711904D01*
X122102619Y-95711904D01*
X122412142Y-95926190D02*
X122412142Y-95426190D01*
X122697857Y-95926190D01*
X122697857Y-95426190D01*
X122935952Y-95926190D02*
X122935952Y-95426190D01*
X123055000Y-95426190D01*
X123126428Y-95450000D01*
X123174047Y-95497619D01*
X123197857Y-95545238D01*
X123221666Y-95640476D01*
X123221666Y-95711904D01*
X123197857Y-95807142D01*
X123174047Y-95854761D01*
X123126428Y-95902380D01*
X123055000Y-95926190D01*
X122935952Y-95926190D01*
X119547619Y-95926190D02*
X119547619Y-95426190D01*
X119785714Y-95926190D02*
X119785714Y-95426190D01*
X120071428Y-95926190D01*
X120071428Y-95426190D01*
X120238095Y-95426190D02*
X120523809Y-95426190D01*
X120380952Y-95926190D02*
X120380952Y-95426190D01*
D13*
X126238000Y-102934000D02*
X126238000Y-106934000D01*
X126238000Y-102934000D02*
X118618000Y-102934000D01*
X126238000Y-106934000D02*
X118618000Y-106934000D01*
X118618000Y-102934000D02*
X118618000Y-106934000D01*
D14*
X125589419Y-103634000D02*
G75*
G03*
X125589419Y-103634000I-141419J0D01*
G01*
D15*
G36*
X152107900Y-83390315D02*
G01*
X152107899Y-83578697D01*
X141894983Y-83580817D01*
X141893919Y-85281558D01*
X141892856Y-86982300D01*
X141516100Y-86982300D01*
X141516100Y-83201934D01*
X152107900Y-83201934D01*
X152107900Y-83390315D01*
G37*
X152107900Y-83390315D02*
X152107899Y-83578697D01*
X141894983Y-83580817D01*
X141893919Y-85281558D01*
X141892856Y-86982300D01*
X141516100Y-86982300D01*
X141516100Y-83201934D01*
X152107900Y-83201934D01*
X152107900Y-83390315D01*
G36*
X144129175Y-85078358D02*
G01*
X144129462Y-85143167D01*
X144129748Y-85200067D01*
X144130045Y-85249617D01*
X144130366Y-85292375D01*
X144130724Y-85328899D01*
X144131131Y-85359748D01*
X144131598Y-85385479D01*
X144132138Y-85406652D01*
X144132765Y-85423824D01*
X144133489Y-85437554D01*
X144134324Y-85448400D01*
X144135281Y-85456919D01*
X144136374Y-85463671D01*
X144137614Y-85469214D01*
X144137840Y-85470075D01*
X144149139Y-85504224D01*
X144163183Y-85531273D01*
X144180791Y-85552367D01*
X144202786Y-85568651D01*
X144212086Y-85573630D01*
X144224172Y-85579385D01*
X144234164Y-85583265D01*
X144244231Y-85585637D01*
X144256539Y-85586870D01*
X144273259Y-85587333D01*
X144293097Y-85587394D01*
X144322303Y-85586671D01*
X144345056Y-85584112D01*
X144363282Y-85579089D01*
X144378907Y-85570975D01*
X144393857Y-85559143D01*
X144401079Y-85552238D01*
X144409156Y-85543789D01*
X144416365Y-85535089D01*
X144422755Y-85525635D01*
X144428376Y-85514921D01*
X144433277Y-85502441D01*
X144437508Y-85487691D01*
X144441117Y-85470164D01*
X144444155Y-85449355D01*
X144446669Y-85424760D01*
X144448710Y-85395873D01*
X144450327Y-85362188D01*
X144451568Y-85323200D01*
X144452484Y-85278405D01*
X144453123Y-85227296D01*
X144453536Y-85169368D01*
X144453770Y-85104116D01*
X144453875Y-85031036D01*
X144453888Y-85010625D01*
X144454033Y-84713234D01*
X144792699Y-84713234D01*
X144792663Y-85069892D01*
X144792606Y-85128025D01*
X144792452Y-85184015D01*
X144792208Y-85237180D01*
X144791881Y-85286835D01*
X144791478Y-85332300D01*
X144791007Y-85372890D01*
X144790475Y-85407923D01*
X144789888Y-85436716D01*
X144789255Y-85458586D01*
X144788582Y-85472850D01*
X144788401Y-85475234D01*
X144779480Y-85540497D01*
X144764543Y-85599814D01*
X144743548Y-85653229D01*
X144716453Y-85700784D01*
X144683218Y-85742523D01*
X144643802Y-85778489D01*
X144598163Y-85808725D01*
X144546261Y-85833273D01*
X144488054Y-85852177D01*
X144423502Y-85865480D01*
X144415390Y-85866693D01*
X144397664Y-85868565D01*
X144373730Y-85870130D01*
X144345443Y-85871361D01*
X144314658Y-85872227D01*
X144283233Y-85872701D01*
X144253023Y-85872751D01*
X144225883Y-85872351D01*
X144203671Y-85871469D01*
X144189450Y-85870243D01*
X144130818Y-85860732D01*
X144078972Y-85848236D01*
X144032648Y-85832406D01*
X143999676Y-85817589D01*
X143952401Y-85789680D01*
X143911290Y-85756342D01*
X143876178Y-85717353D01*
X143846898Y-85672486D01*
X143823284Y-85621516D01*
X143805171Y-85564220D01*
X143801517Y-85549028D01*
X143799909Y-85541826D01*
X143798491Y-85534897D01*
X143797248Y-85527681D01*
X143796166Y-85519620D01*
X143795232Y-85510154D01*
X143794431Y-85498725D01*
X143793750Y-85484774D01*
X143793173Y-85467741D01*
X143792688Y-85447068D01*
X143792280Y-85422196D01*
X143791935Y-85392566D01*
X143791640Y-85357618D01*
X143791379Y-85316794D01*
X143791140Y-85269535D01*
X143790907Y-85215282D01*
X143790668Y-85153475D01*
X143790507Y-85110108D01*
X143789035Y-84713234D01*
X143958334Y-84713234D01*
X144127633Y-84713233D01*
X144129175Y-85078358D01*
G37*
X144129175Y-85078358D02*
X144129462Y-85143167D01*
X144129748Y-85200067D01*
X144130045Y-85249617D01*
X144130366Y-85292375D01*
X144130724Y-85328899D01*
X144131131Y-85359748D01*
X144131598Y-85385479D01*
X144132138Y-85406652D01*
X144132765Y-85423824D01*
X144133489Y-85437554D01*
X144134324Y-85448400D01*
X144135281Y-85456919D01*
X144136374Y-85463671D01*
X144137614Y-85469214D01*
X144137840Y-85470075D01*
X144149139Y-85504224D01*
X144163183Y-85531273D01*
X144180791Y-85552367D01*
X144202786Y-85568651D01*
X144212086Y-85573630D01*
X144224172Y-85579385D01*
X144234164Y-85583265D01*
X144244231Y-85585637D01*
X144256539Y-85586870D01*
X144273259Y-85587333D01*
X144293097Y-85587394D01*
X144322303Y-85586671D01*
X144345056Y-85584112D01*
X144363282Y-85579089D01*
X144378907Y-85570975D01*
X144393857Y-85559143D01*
X144401079Y-85552238D01*
X144409156Y-85543789D01*
X144416365Y-85535089D01*
X144422755Y-85525635D01*
X144428376Y-85514921D01*
X144433277Y-85502441D01*
X144437508Y-85487691D01*
X144441117Y-85470164D01*
X144444155Y-85449355D01*
X144446669Y-85424760D01*
X144448710Y-85395873D01*
X144450327Y-85362188D01*
X144451568Y-85323200D01*
X144452484Y-85278405D01*
X144453123Y-85227296D01*
X144453536Y-85169368D01*
X144453770Y-85104116D01*
X144453875Y-85031036D01*
X144453888Y-85010625D01*
X144454033Y-84713234D01*
X144792699Y-84713234D01*
X144792663Y-85069892D01*
X144792606Y-85128025D01*
X144792452Y-85184015D01*
X144792208Y-85237180D01*
X144791881Y-85286835D01*
X144791478Y-85332300D01*
X144791007Y-85372890D01*
X144790475Y-85407923D01*
X144789888Y-85436716D01*
X144789255Y-85458586D01*
X144788582Y-85472850D01*
X144788401Y-85475234D01*
X144779480Y-85540497D01*
X144764543Y-85599814D01*
X144743548Y-85653229D01*
X144716453Y-85700784D01*
X144683218Y-85742523D01*
X144643802Y-85778489D01*
X144598163Y-85808725D01*
X144546261Y-85833273D01*
X144488054Y-85852177D01*
X144423502Y-85865480D01*
X144415390Y-85866693D01*
X144397664Y-85868565D01*
X144373730Y-85870130D01*
X144345443Y-85871361D01*
X144314658Y-85872227D01*
X144283233Y-85872701D01*
X144253023Y-85872751D01*
X144225883Y-85872351D01*
X144203671Y-85871469D01*
X144189450Y-85870243D01*
X144130818Y-85860732D01*
X144078972Y-85848236D01*
X144032648Y-85832406D01*
X143999676Y-85817589D01*
X143952401Y-85789680D01*
X143911290Y-85756342D01*
X143876178Y-85717353D01*
X143846898Y-85672486D01*
X143823284Y-85621516D01*
X143805171Y-85564220D01*
X143801517Y-85549028D01*
X143799909Y-85541826D01*
X143798491Y-85534897D01*
X143797248Y-85527681D01*
X143796166Y-85519620D01*
X143795232Y-85510154D01*
X143794431Y-85498725D01*
X143793750Y-85484774D01*
X143793173Y-85467741D01*
X143792688Y-85447068D01*
X143792280Y-85422196D01*
X143791935Y-85392566D01*
X143791640Y-85357618D01*
X143791379Y-85316794D01*
X143791140Y-85269535D01*
X143790907Y-85215282D01*
X143790668Y-85153475D01*
X143790507Y-85110108D01*
X143789035Y-84713234D01*
X143958334Y-84713234D01*
X144127633Y-84713233D01*
X144129175Y-85078358D01*
G36*
X148044339Y-84713234D02*
G01*
X148213637Y-84713234D01*
X148212064Y-85107992D01*
X148211792Y-85174838D01*
X148211534Y-85233778D01*
X148211276Y-85285372D01*
X148211004Y-85330180D01*
X148210706Y-85368761D01*
X148210368Y-85401677D01*
X148209976Y-85429486D01*
X148209518Y-85452750D01*
X148208979Y-85472029D01*
X148208346Y-85487882D01*
X148207607Y-85500870D01*
X148206748Y-85511552D01*
X148205754Y-85520490D01*
X148204614Y-85528243D01*
X148203313Y-85535371D01*
X148201838Y-85542435D01*
X148201673Y-85543198D01*
X148192703Y-85578177D01*
X148181162Y-85613864D01*
X148168048Y-85647546D01*
X148154358Y-85676510D01*
X148149381Y-85685429D01*
X148135673Y-85705158D01*
X148116799Y-85727508D01*
X148094724Y-85750539D01*
X148071412Y-85772310D01*
X148048830Y-85790880D01*
X148029083Y-85804227D01*
X147978706Y-85828878D01*
X147922789Y-85848579D01*
X147863016Y-85862799D01*
X147825883Y-85868492D01*
X147803127Y-85870492D01*
X147774427Y-85871835D01*
X147741775Y-85872538D01*
X147707159Y-85872618D01*
X147672571Y-85872091D01*
X147639999Y-85870975D01*
X147611435Y-85869287D01*
X147588867Y-85867043D01*
X147584692Y-85866444D01*
X147523482Y-85854398D01*
X147469093Y-85838194D01*
X147420793Y-85817498D01*
X147377849Y-85791976D01*
X147339529Y-85761294D01*
X147326350Y-85748540D01*
X147294273Y-85711515D01*
X147267981Y-85671135D01*
X147246838Y-85626163D01*
X147230211Y-85575359D01*
X147223488Y-85547814D01*
X147212610Y-85498517D01*
X147211032Y-85105875D01*
X147209454Y-84713234D01*
X147548047Y-84713234D01*
X147549732Y-85074125D01*
X147550051Y-85138977D01*
X147550371Y-85195920D01*
X147550705Y-85245512D01*
X147551064Y-85288312D01*
X147551461Y-85324878D01*
X147551908Y-85355768D01*
X147552417Y-85381540D01*
X147553000Y-85402752D01*
X147553670Y-85419962D01*
X147554438Y-85433728D01*
X147555318Y-85444609D01*
X147556321Y-85453162D01*
X147557458Y-85459946D01*
X147558234Y-85463493D01*
X147567123Y-85494363D01*
X147577895Y-85519053D01*
X147591633Y-85539811D01*
X147599119Y-85548523D01*
X147617187Y-85564963D01*
X147637384Y-85576565D01*
X147661478Y-85584008D01*
X147691241Y-85587972D01*
X147703626Y-85588676D01*
X147741434Y-85588056D01*
X147772954Y-85582504D01*
X147799051Y-85571617D01*
X147820592Y-85554989D01*
X147838443Y-85532218D01*
X147843649Y-85523327D01*
X147848374Y-85514682D01*
X147852538Y-85506699D01*
X147856179Y-85498809D01*
X147859334Y-85490443D01*
X147862042Y-85481034D01*
X147864340Y-85470010D01*
X147866266Y-85456805D01*
X147867859Y-85440848D01*
X147869156Y-85421572D01*
X147870194Y-85398407D01*
X147871013Y-85370784D01*
X147871649Y-85338135D01*
X147872141Y-85299890D01*
X147872527Y-85255482D01*
X147872844Y-85204340D01*
X147873131Y-85145896D01*
X147873425Y-85079582D01*
X147873439Y-85076242D01*
X147875040Y-84713233D01*
X148044339Y-84713234D01*
G37*
X148044339Y-84713234D02*
X148213637Y-84713234D01*
X148212064Y-85107992D01*
X148211792Y-85174838D01*
X148211534Y-85233778D01*
X148211276Y-85285372D01*
X148211004Y-85330180D01*
X148210706Y-85368761D01*
X148210368Y-85401677D01*
X148209976Y-85429486D01*
X148209518Y-85452750D01*
X148208979Y-85472029D01*
X148208346Y-85487882D01*
X148207607Y-85500870D01*
X148206748Y-85511552D01*
X148205754Y-85520490D01*
X148204614Y-85528243D01*
X148203313Y-85535371D01*
X148201838Y-85542435D01*
X148201673Y-85543198D01*
X148192703Y-85578177D01*
X148181162Y-85613864D01*
X148168048Y-85647546D01*
X148154358Y-85676510D01*
X148149381Y-85685429D01*
X148135673Y-85705158D01*
X148116799Y-85727508D01*
X148094724Y-85750539D01*
X148071412Y-85772310D01*
X148048830Y-85790880D01*
X148029083Y-85804227D01*
X147978706Y-85828878D01*
X147922789Y-85848579D01*
X147863016Y-85862799D01*
X147825883Y-85868492D01*
X147803127Y-85870492D01*
X147774427Y-85871835D01*
X147741775Y-85872538D01*
X147707159Y-85872618D01*
X147672571Y-85872091D01*
X147639999Y-85870975D01*
X147611435Y-85869287D01*
X147588867Y-85867043D01*
X147584692Y-85866444D01*
X147523482Y-85854398D01*
X147469093Y-85838194D01*
X147420793Y-85817498D01*
X147377849Y-85791976D01*
X147339529Y-85761294D01*
X147326350Y-85748540D01*
X147294273Y-85711515D01*
X147267981Y-85671135D01*
X147246838Y-85626163D01*
X147230211Y-85575359D01*
X147223488Y-85547814D01*
X147212610Y-85498517D01*
X147211032Y-85105875D01*
X147209454Y-84713234D01*
X147548047Y-84713234D01*
X147549732Y-85074125D01*
X147550051Y-85138977D01*
X147550371Y-85195920D01*
X147550705Y-85245512D01*
X147551064Y-85288312D01*
X147551461Y-85324878D01*
X147551908Y-85355768D01*
X147552417Y-85381540D01*
X147553000Y-85402752D01*
X147553670Y-85419962D01*
X147554438Y-85433728D01*
X147555318Y-85444609D01*
X147556321Y-85453162D01*
X147557458Y-85459946D01*
X147558234Y-85463493D01*
X147567123Y-85494363D01*
X147577895Y-85519053D01*
X147591633Y-85539811D01*
X147599119Y-85548523D01*
X147617187Y-85564963D01*
X147637384Y-85576565D01*
X147661478Y-85584008D01*
X147691241Y-85587972D01*
X147703626Y-85588676D01*
X147741434Y-85588056D01*
X147772954Y-85582504D01*
X147799051Y-85571617D01*
X147820592Y-85554989D01*
X147838443Y-85532218D01*
X147843649Y-85523327D01*
X147848374Y-85514682D01*
X147852538Y-85506699D01*
X147856179Y-85498809D01*
X147859334Y-85490443D01*
X147862042Y-85481034D01*
X147864340Y-85470010D01*
X147866266Y-85456805D01*
X147867859Y-85440848D01*
X147869156Y-85421572D01*
X147870194Y-85398407D01*
X147871013Y-85370784D01*
X147871649Y-85338135D01*
X147872141Y-85299890D01*
X147872527Y-85255482D01*
X147872844Y-85204340D01*
X147873131Y-85145896D01*
X147873425Y-85079582D01*
X147873439Y-85076242D01*
X147875040Y-84713233D01*
X148044339Y-84713234D01*
G36*
X142989300Y-84908908D02*
G01*
X142989308Y-84954628D01*
X142989351Y-84992569D01*
X142989460Y-85023417D01*
X142989664Y-85047861D01*
X142989991Y-85066586D01*
X142990473Y-85080281D01*
X142991137Y-85089633D01*
X142992014Y-85095328D01*
X142993133Y-85098054D01*
X142994524Y-85098499D01*
X142996216Y-85097349D01*
X142997336Y-85096233D01*
X143001396Y-85091355D01*
X143010104Y-85080414D01*
X143022952Y-85064063D01*
X143039430Y-85042954D01*
X143059033Y-85017740D01*
X143081251Y-84989074D01*
X143105576Y-84957608D01*
X143131501Y-84923996D01*
X143143844Y-84907967D01*
X143170302Y-84873623D01*
X143195364Y-84841153D01*
X143218528Y-84811205D01*
X143239288Y-84784428D01*
X143257142Y-84761470D01*
X143271586Y-84742980D01*
X143282115Y-84729606D01*
X143288227Y-84721996D01*
X143289424Y-84720601D01*
X143291501Y-84718899D01*
X143294676Y-84717485D01*
X143299669Y-84716337D01*
X143307199Y-84715435D01*
X143317985Y-84714756D01*
X143332748Y-84714280D01*
X143352207Y-84713985D01*
X143377082Y-84713849D01*
X143408093Y-84713852D01*
X143445959Y-84713972D01*
X143491399Y-84714188D01*
X143503444Y-84714251D01*
X143710354Y-84715350D01*
X143512674Y-84935250D01*
X143475027Y-84977245D01*
X143440659Y-85015816D01*
X143409871Y-85050615D01*
X143382966Y-85081295D01*
X143360242Y-85107508D01*
X143342002Y-85128908D01*
X143328546Y-85145146D01*
X143320175Y-85155875D01*
X143317191Y-85160748D01*
X143317204Y-85160911D01*
X143319829Y-85165181D01*
X143326845Y-85175990D01*
X143337925Y-85192849D01*
X143352743Y-85215266D01*
X143370973Y-85242750D01*
X143392288Y-85274811D01*
X143416362Y-85310958D01*
X143442868Y-85350700D01*
X143471479Y-85393546D01*
X143501870Y-85439006D01*
X143533715Y-85486588D01*
X143545941Y-85504843D01*
X143578188Y-85553008D01*
X143609064Y-85599173D01*
X143638248Y-85642855D01*
X143665417Y-85683570D01*
X143690248Y-85720831D01*
X143712421Y-85754156D01*
X143731612Y-85783060D01*
X143747499Y-85807058D01*
X143759760Y-85825666D01*
X143768074Y-85838399D01*
X143772116Y-85844773D01*
X143772466Y-85845430D01*
X143768367Y-85845883D01*
X143756605Y-85846265D01*
X143737986Y-85846571D01*
X143713312Y-85846797D01*
X143683388Y-85846936D01*
X143649018Y-85846984D01*
X143611006Y-85846937D01*
X143570157Y-85846788D01*
X143562168Y-85846748D01*
X143351869Y-85845650D01*
X143219505Y-85629829D01*
X143195665Y-85591035D01*
X143173082Y-85554438D01*
X143152153Y-85520669D01*
X143133273Y-85490360D01*
X143116837Y-85464141D01*
X143103240Y-85442642D01*
X143092879Y-85426495D01*
X143086147Y-85416329D01*
X143083458Y-85412781D01*
X143079538Y-85415363D01*
X143071082Y-85423289D01*
X143059114Y-85435522D01*
X143044663Y-85451025D01*
X143034537Y-85462237D01*
X142989300Y-85512920D01*
X142989300Y-85847767D01*
X142650633Y-85847767D01*
X142650633Y-84713234D01*
X142989300Y-84713234D01*
X142989300Y-84908908D01*
G37*
X142989300Y-84908908D02*
X142989308Y-84954628D01*
X142989351Y-84992569D01*
X142989460Y-85023417D01*
X142989664Y-85047861D01*
X142989991Y-85066586D01*
X142990473Y-85080281D01*
X142991137Y-85089633D01*
X142992014Y-85095328D01*
X142993133Y-85098054D01*
X142994524Y-85098499D01*
X142996216Y-85097349D01*
X142997336Y-85096233D01*
X143001396Y-85091355D01*
X143010104Y-85080414D01*
X143022952Y-85064063D01*
X143039430Y-85042954D01*
X143059033Y-85017740D01*
X143081251Y-84989074D01*
X143105576Y-84957608D01*
X143131501Y-84923996D01*
X143143844Y-84907967D01*
X143170302Y-84873623D01*
X143195364Y-84841153D01*
X143218528Y-84811205D01*
X143239288Y-84784428D01*
X143257142Y-84761470D01*
X143271586Y-84742980D01*
X143282115Y-84729606D01*
X143288227Y-84721996D01*
X143289424Y-84720601D01*
X143291501Y-84718899D01*
X143294676Y-84717485D01*
X143299669Y-84716337D01*
X143307199Y-84715435D01*
X143317985Y-84714756D01*
X143332748Y-84714280D01*
X143352207Y-84713985D01*
X143377082Y-84713849D01*
X143408093Y-84713852D01*
X143445959Y-84713972D01*
X143491399Y-84714188D01*
X143503444Y-84714251D01*
X143710354Y-84715350D01*
X143512674Y-84935250D01*
X143475027Y-84977245D01*
X143440659Y-85015816D01*
X143409871Y-85050615D01*
X143382966Y-85081295D01*
X143360242Y-85107508D01*
X143342002Y-85128908D01*
X143328546Y-85145146D01*
X143320175Y-85155875D01*
X143317191Y-85160748D01*
X143317204Y-85160911D01*
X143319829Y-85165181D01*
X143326845Y-85175990D01*
X143337925Y-85192849D01*
X143352743Y-85215266D01*
X143370973Y-85242750D01*
X143392288Y-85274811D01*
X143416362Y-85310958D01*
X143442868Y-85350700D01*
X143471479Y-85393546D01*
X143501870Y-85439006D01*
X143533715Y-85486588D01*
X143545941Y-85504843D01*
X143578188Y-85553008D01*
X143609064Y-85599173D01*
X143638248Y-85642855D01*
X143665417Y-85683570D01*
X143690248Y-85720831D01*
X143712421Y-85754156D01*
X143731612Y-85783060D01*
X143747499Y-85807058D01*
X143759760Y-85825666D01*
X143768074Y-85838399D01*
X143772116Y-85844773D01*
X143772466Y-85845430D01*
X143768367Y-85845883D01*
X143756605Y-85846265D01*
X143737986Y-85846571D01*
X143713312Y-85846797D01*
X143683388Y-85846936D01*
X143649018Y-85846984D01*
X143611006Y-85846937D01*
X143570157Y-85846788D01*
X143562168Y-85846748D01*
X143351869Y-85845650D01*
X143219505Y-85629829D01*
X143195665Y-85591035D01*
X143173082Y-85554438D01*
X143152153Y-85520669D01*
X143133273Y-85490360D01*
X143116837Y-85464141D01*
X143103240Y-85442642D01*
X143092879Y-85426495D01*
X143086147Y-85416329D01*
X143083458Y-85412781D01*
X143079538Y-85415363D01*
X143071082Y-85423289D01*
X143059114Y-85435522D01*
X143044663Y-85451025D01*
X143034537Y-85462237D01*
X142989300Y-85512920D01*
X142989300Y-85847767D01*
X142650633Y-85847767D01*
X142650633Y-84713234D01*
X142989300Y-84713234D01*
X142989300Y-84908908D01*
G36*
X145626666Y-85555596D02*
G01*
X146102916Y-85557784D01*
X146104030Y-85702775D01*
X146105144Y-85847767D01*
X145287999Y-85847767D01*
X145287999Y-84713234D01*
X145626666Y-84713234D01*
X145626666Y-85555596D01*
G37*
X145626666Y-85555596D02*
X146102916Y-85557784D01*
X146104030Y-85702775D01*
X146105144Y-85847767D01*
X145287999Y-85847767D01*
X145287999Y-84713234D01*
X145626666Y-84713234D01*
X145626666Y-85555596D01*
G36*
X147108333Y-85005333D02*
G01*
X146541066Y-85005333D01*
X146541066Y-85145033D01*
X147057533Y-85145033D01*
X147057533Y-85415967D01*
X146541066Y-85415967D01*
X146541066Y-85555667D01*
X147125266Y-85555667D01*
X147125266Y-85847767D01*
X146206633Y-85847767D01*
X146206633Y-84713234D01*
X147108333Y-84713234D01*
X147108333Y-85005333D01*
G37*
X147108333Y-85005333D02*
X146541066Y-85005333D01*
X146541066Y-85145033D01*
X147057533Y-85145033D01*
X147057533Y-85415967D01*
X146541066Y-85415967D01*
X146541066Y-85555667D01*
X147125266Y-85555667D01*
X147125266Y-85847767D01*
X146206633Y-85847767D01*
X146206633Y-84713234D01*
X147108333Y-84713234D01*
X147108333Y-85005333D01*
G36*
X148606535Y-84729109D02*
G01*
X148608244Y-84735636D01*
X148611925Y-84749698D01*
X148617405Y-84770642D01*
X148624515Y-84797811D01*
X148633082Y-84830551D01*
X148642935Y-84868205D01*
X148653902Y-84910120D01*
X148665813Y-84955640D01*
X148678495Y-85004110D01*
X148691777Y-85054875D01*
X148695983Y-85070950D01*
X148709319Y-85121872D01*
X148722051Y-85170389D01*
X148734014Y-85215885D01*
X148745046Y-85257739D01*
X148754981Y-85295335D01*
X148763657Y-85328053D01*
X148770910Y-85355274D01*
X148776575Y-85376381D01*
X148780489Y-85390755D01*
X148782488Y-85397778D01*
X148782708Y-85398387D01*
X148783166Y-85398566D01*
X148783779Y-85397900D01*
X148784680Y-85395887D01*
X148786001Y-85392026D01*
X148787877Y-85385816D01*
X148790439Y-85376755D01*
X148793820Y-85364343D01*
X148798154Y-85348077D01*
X148803572Y-85327457D01*
X148810209Y-85301981D01*
X148818196Y-85271148D01*
X148827667Y-85234456D01*
X148838755Y-85191405D01*
X148851591Y-85141492D01*
X148866310Y-85084216D01*
X148877331Y-85041317D01*
X148961068Y-84715350D01*
X149135367Y-84714245D01*
X149172854Y-84714037D01*
X149207575Y-84713904D01*
X149238649Y-84713842D01*
X149265192Y-84713853D01*
X149286321Y-84713935D01*
X149301151Y-84714086D01*
X149308802Y-84714306D01*
X149309666Y-84714429D01*
X149308463Y-84718560D01*
X149304946Y-84730333D01*
X149299255Y-84749288D01*
X149291529Y-84774964D01*
X149281906Y-84806901D01*
X149270526Y-84844637D01*
X149257528Y-84887713D01*
X149243050Y-84935666D01*
X149227233Y-84988037D01*
X149210214Y-85044365D01*
X149192134Y-85104188D01*
X149173131Y-85167046D01*
X149153344Y-85232478D01*
X149138763Y-85280685D01*
X148967860Y-85845650D01*
X148777648Y-85846751D01*
X148587437Y-85847852D01*
X148425114Y-85285834D01*
X148405754Y-85218813D01*
X148387024Y-85153995D01*
X148369061Y-85091850D01*
X148352001Y-85032847D01*
X148335978Y-84977455D01*
X148321130Y-84926143D01*
X148307592Y-84879380D01*
X148295499Y-84837636D01*
X148284988Y-84801378D01*
X148276194Y-84771077D01*
X148269253Y-84747201D01*
X148264302Y-84730220D01*
X148261475Y-84720602D01*
X148260843Y-84718525D01*
X148261978Y-84717162D01*
X148266902Y-84716039D01*
X148276246Y-84715136D01*
X148290641Y-84714434D01*
X148310717Y-84713914D01*
X148337106Y-84713554D01*
X148370438Y-84713337D01*
X148411344Y-84713242D01*
X148430633Y-84713234D01*
X148602373Y-84713234D01*
X148606535Y-84729109D01*
G37*
X148606535Y-84729109D02*
X148608244Y-84735636D01*
X148611925Y-84749698D01*
X148617405Y-84770642D01*
X148624515Y-84797811D01*
X148633082Y-84830551D01*
X148642935Y-84868205D01*
X148653902Y-84910120D01*
X148665813Y-84955640D01*
X148678495Y-85004110D01*
X148691777Y-85054875D01*
X148695983Y-85070950D01*
X148709319Y-85121872D01*
X148722051Y-85170389D01*
X148734014Y-85215885D01*
X148745046Y-85257739D01*
X148754981Y-85295335D01*
X148763657Y-85328053D01*
X148770910Y-85355274D01*
X148776575Y-85376381D01*
X148780489Y-85390755D01*
X148782488Y-85397778D01*
X148782708Y-85398387D01*
X148783166Y-85398566D01*
X148783779Y-85397900D01*
X148784680Y-85395887D01*
X148786001Y-85392026D01*
X148787877Y-85385816D01*
X148790439Y-85376755D01*
X148793820Y-85364343D01*
X148798154Y-85348077D01*
X148803572Y-85327457D01*
X148810209Y-85301981D01*
X148818196Y-85271148D01*
X148827667Y-85234456D01*
X148838755Y-85191405D01*
X148851591Y-85141492D01*
X148866310Y-85084216D01*
X148877331Y-85041317D01*
X148961068Y-84715350D01*
X149135367Y-84714245D01*
X149172854Y-84714037D01*
X149207575Y-84713904D01*
X149238649Y-84713842D01*
X149265192Y-84713853D01*
X149286321Y-84713935D01*
X149301151Y-84714086D01*
X149308802Y-84714306D01*
X149309666Y-84714429D01*
X149308463Y-84718560D01*
X149304946Y-84730333D01*
X149299255Y-84749288D01*
X149291529Y-84774964D01*
X149281906Y-84806901D01*
X149270526Y-84844637D01*
X149257528Y-84887713D01*
X149243050Y-84935666D01*
X149227233Y-84988037D01*
X149210214Y-85044365D01*
X149192134Y-85104188D01*
X149173131Y-85167046D01*
X149153344Y-85232478D01*
X149138763Y-85280685D01*
X148967860Y-85845650D01*
X148777648Y-85846751D01*
X148587437Y-85847852D01*
X148425114Y-85285834D01*
X148405754Y-85218813D01*
X148387024Y-85153995D01*
X148369061Y-85091850D01*
X148352001Y-85032847D01*
X148335978Y-84977455D01*
X148321130Y-84926143D01*
X148307592Y-84879380D01*
X148295499Y-84837636D01*
X148284988Y-84801378D01*
X148276194Y-84771077D01*
X148269253Y-84747201D01*
X148264302Y-84730220D01*
X148261475Y-84720602D01*
X148260843Y-84718525D01*
X148261978Y-84717162D01*
X148266902Y-84716039D01*
X148276246Y-84715136D01*
X148290641Y-84714434D01*
X148310717Y-84713914D01*
X148337106Y-84713554D01*
X148370438Y-84713337D01*
X148411344Y-84713242D01*
X148430633Y-84713234D01*
X148602373Y-84713234D01*
X148606535Y-84729109D01*
G36*
X150257933Y-85005333D02*
G01*
X149694899Y-85005333D01*
X149694899Y-85145033D01*
X150207133Y-85145033D01*
X150207133Y-85415967D01*
X149694899Y-85415967D01*
X149694899Y-85555667D01*
X150274866Y-85555667D01*
X150274866Y-85847767D01*
X149356233Y-85847767D01*
X149356233Y-84713234D01*
X150257933Y-84713234D01*
X150257933Y-85005333D01*
G37*
X150257933Y-85005333D02*
X149694899Y-85005333D01*
X149694899Y-85145033D01*
X150207133Y-85145033D01*
X150207133Y-85415967D01*
X149694899Y-85415967D01*
X149694899Y-85555667D01*
X150274866Y-85555667D01*
X150274866Y-85847767D01*
X149356233Y-85847767D01*
X149356233Y-84713234D01*
X150257933Y-84713234D01*
X150257933Y-85005333D01*
G36*
X151350133Y-85847767D02*
G01*
X151021374Y-85847767D01*
X150855164Y-85541909D01*
X150829545Y-85494801D01*
X150805040Y-85449813D01*
X150781957Y-85407505D01*
X150760603Y-85368435D01*
X150741283Y-85333163D01*
X150724306Y-85302247D01*
X150709978Y-85276248D01*
X150698605Y-85255725D01*
X150690496Y-85241236D01*
X150685957Y-85233341D01*
X150685110Y-85232028D01*
X150684402Y-85235419D01*
X150683751Y-85246832D01*
X150683164Y-85265824D01*
X150682645Y-85291950D01*
X150682200Y-85324768D01*
X150681835Y-85363832D01*
X150681556Y-85408699D01*
X150681367Y-85458925D01*
X150681275Y-85514067D01*
X150681266Y-85537887D01*
X150681266Y-85847767D01*
X150359502Y-85847767D01*
X150360576Y-85281558D01*
X150361650Y-84715350D01*
X150535216Y-84714306D01*
X150708783Y-84713262D01*
X150864681Y-85009213D01*
X150889248Y-85055809D01*
X150912772Y-85100344D01*
X150934941Y-85142232D01*
X150955443Y-85180889D01*
X150973967Y-85215730D01*
X150990202Y-85246172D01*
X151003837Y-85271629D01*
X151014559Y-85291518D01*
X151022058Y-85305253D01*
X151026022Y-85312249D01*
X151026471Y-85312941D01*
X151027610Y-85313513D01*
X151028598Y-85311661D01*
X151029444Y-85306857D01*
X151030160Y-85298571D01*
X151030756Y-85286276D01*
X151031243Y-85269444D01*
X151031632Y-85247545D01*
X151031934Y-85220052D01*
X151032159Y-85186436D01*
X151032319Y-85146169D01*
X151032423Y-85098722D01*
X151032483Y-85043568D01*
X151032498Y-85016975D01*
X151032633Y-84713234D01*
X151350133Y-84713234D01*
X151350133Y-85847767D01*
G37*
X151350133Y-85847767D02*
X151021374Y-85847767D01*
X150855164Y-85541909D01*
X150829545Y-85494801D01*
X150805040Y-85449813D01*
X150781957Y-85407505D01*
X150760603Y-85368435D01*
X150741283Y-85333163D01*
X150724306Y-85302247D01*
X150709978Y-85276248D01*
X150698605Y-85255725D01*
X150690496Y-85241236D01*
X150685957Y-85233341D01*
X150685110Y-85232028D01*
X150684402Y-85235419D01*
X150683751Y-85246832D01*
X150683164Y-85265824D01*
X150682645Y-85291950D01*
X150682200Y-85324768D01*
X150681835Y-85363832D01*
X150681556Y-85408699D01*
X150681367Y-85458925D01*
X150681275Y-85514067D01*
X150681266Y-85537887D01*
X150681266Y-85847767D01*
X150359502Y-85847767D01*
X150360576Y-85281558D01*
X150361650Y-84715350D01*
X150535216Y-84714306D01*
X150708783Y-84713262D01*
X150864681Y-85009213D01*
X150889248Y-85055809D01*
X150912772Y-85100344D01*
X150934941Y-85142232D01*
X150955443Y-85180889D01*
X150973967Y-85215730D01*
X150990202Y-85246172D01*
X151003837Y-85271629D01*
X151014559Y-85291518D01*
X151022058Y-85305253D01*
X151026022Y-85312249D01*
X151026471Y-85312941D01*
X151027610Y-85313513D01*
X151028598Y-85311661D01*
X151029444Y-85306857D01*
X151030160Y-85298571D01*
X151030756Y-85286276D01*
X151031243Y-85269444D01*
X151031632Y-85247545D01*
X151031934Y-85220052D01*
X151032159Y-85186436D01*
X151032319Y-85146169D01*
X151032423Y-85098722D01*
X151032483Y-85043568D01*
X151032498Y-85016975D01*
X151032633Y-84713234D01*
X151350133Y-84713234D01*
X151350133Y-85847767D01*
G36*
X102896765Y-94048221D02*
G01*
X102924077Y-94049975D01*
X102949846Y-94053124D01*
X102975793Y-94057876D01*
X103000677Y-94063680D01*
X103012685Y-94066980D01*
X103026080Y-94071096D01*
X103039853Y-94075665D01*
X103052995Y-94080329D01*
X103064497Y-94084726D01*
X103073350Y-94088495D01*
X103078545Y-94091277D01*
X103079071Y-94091697D01*
X103078819Y-94094486D01*
X103076896Y-94100699D01*
X103073784Y-94109156D01*
X103069963Y-94118679D01*
X103065916Y-94128089D01*
X103062124Y-94136207D01*
X103059068Y-94141855D01*
X103057958Y-94143394D01*
X103054830Y-94143500D01*
X103048790Y-94141557D01*
X103043529Y-94139160D01*
X103030555Y-94133326D01*
X103014126Y-94127044D01*
X102995777Y-94120829D01*
X102977043Y-94115192D01*
X102959456Y-94110646D01*
X102955507Y-94109759D01*
X102913649Y-94102799D01*
X102872275Y-94100033D01*
X102831787Y-94101351D01*
X102792586Y-94106643D01*
X102755073Y-94115801D01*
X102719650Y-94128715D01*
X102686717Y-94145275D01*
X102656676Y-94165372D01*
X102629928Y-94188897D01*
X102618038Y-94201765D01*
X102594123Y-94232937D01*
X102574093Y-94266459D01*
X102557875Y-94302562D01*
X102545395Y-94341479D01*
X102536579Y-94383440D01*
X102531352Y-94428676D01*
X102529640Y-94477120D01*
X102531473Y-94526426D01*
X102536927Y-94572631D01*
X102545933Y-94615638D01*
X102558422Y-94655349D01*
X102574327Y-94691665D01*
X102593578Y-94724487D01*
X102616107Y-94753719D01*
X102641846Y-94779262D01*
X102670725Y-94801017D01*
X102702677Y-94818887D01*
X102737632Y-94832772D01*
X102775523Y-94842576D01*
X102786180Y-94844500D01*
X102823551Y-94848853D01*
X102863955Y-94850262D01*
X102906329Y-94848790D01*
X102949614Y-94844502D01*
X102992747Y-94837462D01*
X103026266Y-94829934D01*
X103050340Y-94823821D01*
X103050340Y-94875879D01*
X103031925Y-94881202D01*
X103008250Y-94887628D01*
X102985881Y-94892724D01*
X102963711Y-94896634D01*
X102940632Y-94899505D01*
X102915535Y-94901481D01*
X102887315Y-94902706D01*
X102863650Y-94903217D01*
X102846027Y-94903422D01*
X102829640Y-94903517D01*
X102815325Y-94903504D01*
X102803918Y-94903387D01*
X102796253Y-94903168D01*
X102793800Y-94902989D01*
X102787577Y-94902056D01*
X102777873Y-94900430D01*
X102766195Y-94898366D01*
X102757820Y-94896831D01*
X102716628Y-94886762D01*
X102678163Y-94872470D01*
X102642534Y-94854085D01*
X102609846Y-94831736D01*
X102580206Y-94805553D01*
X102553721Y-94775665D01*
X102530497Y-94742200D01*
X102510642Y-94705288D01*
X102494261Y-94665059D01*
X102481462Y-94621641D01*
X102472352Y-94575164D01*
X102468792Y-94546785D01*
X102467339Y-94527302D01*
X102466479Y-94504607D01*
X102466200Y-94480127D01*
X102466488Y-94455290D01*
X102467331Y-94431523D01*
X102468715Y-94410255D01*
X102470183Y-94396158D01*
X102478515Y-94348724D01*
X102490829Y-94304249D01*
X102507008Y-94262855D01*
X102526935Y-94224665D01*
X102550494Y-94189804D01*
X102577567Y-94158394D01*
X102608038Y-94130559D01*
X102641791Y-94106423D01*
X102678708Y-94086108D01*
X102718674Y-94069739D01*
X102761571Y-94057438D01*
X102796519Y-94050818D01*
X102806186Y-94049772D01*
X102819616Y-94048874D01*
X102835494Y-94048185D01*
X102852504Y-94047764D01*
X102866190Y-94047660D01*
X102896765Y-94048221D01*
G37*
X102896765Y-94048221D02*
X102924077Y-94049975D01*
X102949846Y-94053124D01*
X102975793Y-94057876D01*
X103000677Y-94063680D01*
X103012685Y-94066980D01*
X103026080Y-94071096D01*
X103039853Y-94075665D01*
X103052995Y-94080329D01*
X103064497Y-94084726D01*
X103073350Y-94088495D01*
X103078545Y-94091277D01*
X103079071Y-94091697D01*
X103078819Y-94094486D01*
X103076896Y-94100699D01*
X103073784Y-94109156D01*
X103069963Y-94118679D01*
X103065916Y-94128089D01*
X103062124Y-94136207D01*
X103059068Y-94141855D01*
X103057958Y-94143394D01*
X103054830Y-94143500D01*
X103048790Y-94141557D01*
X103043529Y-94139160D01*
X103030555Y-94133326D01*
X103014126Y-94127044D01*
X102995777Y-94120829D01*
X102977043Y-94115192D01*
X102959456Y-94110646D01*
X102955507Y-94109759D01*
X102913649Y-94102799D01*
X102872275Y-94100033D01*
X102831787Y-94101351D01*
X102792586Y-94106643D01*
X102755073Y-94115801D01*
X102719650Y-94128715D01*
X102686717Y-94145275D01*
X102656676Y-94165372D01*
X102629928Y-94188897D01*
X102618038Y-94201765D01*
X102594123Y-94232937D01*
X102574093Y-94266459D01*
X102557875Y-94302562D01*
X102545395Y-94341479D01*
X102536579Y-94383440D01*
X102531352Y-94428676D01*
X102529640Y-94477120D01*
X102531473Y-94526426D01*
X102536927Y-94572631D01*
X102545933Y-94615638D01*
X102558422Y-94655349D01*
X102574327Y-94691665D01*
X102593578Y-94724487D01*
X102616107Y-94753719D01*
X102641846Y-94779262D01*
X102670725Y-94801017D01*
X102702677Y-94818887D01*
X102737632Y-94832772D01*
X102775523Y-94842576D01*
X102786180Y-94844500D01*
X102823551Y-94848853D01*
X102863955Y-94850262D01*
X102906329Y-94848790D01*
X102949614Y-94844502D01*
X102992747Y-94837462D01*
X103026266Y-94829934D01*
X103050340Y-94823821D01*
X103050340Y-94875879D01*
X103031925Y-94881202D01*
X103008250Y-94887628D01*
X102985881Y-94892724D01*
X102963711Y-94896634D01*
X102940632Y-94899505D01*
X102915535Y-94901481D01*
X102887315Y-94902706D01*
X102863650Y-94903217D01*
X102846027Y-94903422D01*
X102829640Y-94903517D01*
X102815325Y-94903504D01*
X102803918Y-94903387D01*
X102796253Y-94903168D01*
X102793800Y-94902989D01*
X102787577Y-94902056D01*
X102777873Y-94900430D01*
X102766195Y-94898366D01*
X102757820Y-94896831D01*
X102716628Y-94886762D01*
X102678163Y-94872470D01*
X102642534Y-94854085D01*
X102609846Y-94831736D01*
X102580206Y-94805553D01*
X102553721Y-94775665D01*
X102530497Y-94742200D01*
X102510642Y-94705288D01*
X102494261Y-94665059D01*
X102481462Y-94621641D01*
X102472352Y-94575164D01*
X102468792Y-94546785D01*
X102467339Y-94527302D01*
X102466479Y-94504607D01*
X102466200Y-94480127D01*
X102466488Y-94455290D01*
X102467331Y-94431523D01*
X102468715Y-94410255D01*
X102470183Y-94396158D01*
X102478515Y-94348724D01*
X102490829Y-94304249D01*
X102507008Y-94262855D01*
X102526935Y-94224665D01*
X102550494Y-94189804D01*
X102577567Y-94158394D01*
X102608038Y-94130559D01*
X102641791Y-94106423D01*
X102678708Y-94086108D01*
X102718674Y-94069739D01*
X102761571Y-94057438D01*
X102796519Y-94050818D01*
X102806186Y-94049772D01*
X102819616Y-94048874D01*
X102835494Y-94048185D01*
X102852504Y-94047764D01*
X102866190Y-94047660D01*
X102896765Y-94048221D01*
G36*
X103759778Y-94047522D02*
G01*
X103776714Y-94047821D01*
X103790400Y-94048406D01*
X103801750Y-94049330D01*
X103811676Y-94050643D01*
X103818690Y-94051904D01*
X103858046Y-94061471D01*
X103893650Y-94073927D01*
X103926136Y-94089599D01*
X103956140Y-94108815D01*
X103984296Y-94131902D01*
X103996559Y-94143668D01*
X104024477Y-94175259D01*
X104048533Y-94210121D01*
X104068732Y-94248263D01*
X104085074Y-94289691D01*
X104097563Y-94334414D01*
X104106201Y-94382438D01*
X104110991Y-94433770D01*
X104112060Y-94474202D01*
X104110117Y-94528074D01*
X104104296Y-94578755D01*
X104094602Y-94626221D01*
X104081044Y-94670453D01*
X104063630Y-94711426D01*
X104042368Y-94749120D01*
X104017264Y-94783513D01*
X103994867Y-94808189D01*
X103965103Y-94834588D01*
X103932677Y-94856728D01*
X103897550Y-94874625D01*
X103859679Y-94888295D01*
X103819024Y-94897751D01*
X103775544Y-94903011D01*
X103734936Y-94904179D01*
X103721314Y-94903975D01*
X103708922Y-94903682D01*
X103698946Y-94903336D01*
X103692572Y-94902973D01*
X103691690Y-94902884D01*
X103647522Y-94895408D01*
X103606495Y-94883942D01*
X103568588Y-94868472D01*
X103533777Y-94848981D01*
X103502039Y-94825455D01*
X103473351Y-94797878D01*
X103447691Y-94766235D01*
X103425035Y-94730509D01*
X103418640Y-94718644D01*
X103401616Y-94680890D01*
X103387774Y-94639693D01*
X103377218Y-94595656D01*
X103370053Y-94549378D01*
X103366384Y-94501460D01*
X103366348Y-94475300D01*
X103431340Y-94475300D01*
X103432780Y-94524669D01*
X103437150Y-94570061D01*
X103444524Y-94611698D01*
X103454976Y-94649804D01*
X103468582Y-94684603D01*
X103485415Y-94716319D01*
X103505549Y-94745174D01*
X103529059Y-94771393D01*
X103530162Y-94772480D01*
X103556838Y-94795460D01*
X103585767Y-94814199D01*
X103617290Y-94828859D01*
X103651748Y-94839602D01*
X103684070Y-94845846D01*
X103697863Y-94847229D01*
X103715214Y-94848040D01*
X103734634Y-94848292D01*
X103754633Y-94847998D01*
X103773723Y-94847172D01*
X103790416Y-94845828D01*
X103798326Y-94844828D01*
X103836338Y-94836881D01*
X103871215Y-94824954D01*
X103902999Y-94809012D01*
X103931733Y-94789022D01*
X103957460Y-94764951D01*
X103980222Y-94736765D01*
X104000063Y-94704430D01*
X104013688Y-94675960D01*
X104025653Y-94643034D01*
X104035148Y-94606474D01*
X104042128Y-94567110D01*
X104046551Y-94525771D01*
X104048372Y-94483286D01*
X104047548Y-94440485D01*
X104044034Y-94398196D01*
X104037787Y-94357250D01*
X104031920Y-94330450D01*
X104020604Y-94292545D01*
X104006366Y-94258438D01*
X103988916Y-94227584D01*
X103967966Y-94199436D01*
X103954771Y-94184833D01*
X103929609Y-94161692D01*
X103902522Y-94142617D01*
X103873178Y-94127480D01*
X103841242Y-94116157D01*
X103806383Y-94108521D01*
X103768266Y-94104446D01*
X103739950Y-94103646D01*
X103711363Y-94104321D01*
X103686194Y-94106493D01*
X103662941Y-94110381D01*
X103640106Y-94116203D01*
X103628289Y-94119936D01*
X103594846Y-94133729D01*
X103564015Y-94151792D01*
X103536004Y-94173922D01*
X103511019Y-94199915D01*
X103489268Y-94229567D01*
X103470958Y-94262674D01*
X103461844Y-94283767D01*
X103451377Y-94313852D01*
X103443253Y-94344901D01*
X103437338Y-94377752D01*
X103433499Y-94413244D01*
X103431603Y-94452213D01*
X103431340Y-94475300D01*
X103366348Y-94475300D01*
X103366316Y-94452503D01*
X103367718Y-94427111D01*
X103373186Y-94377155D01*
X103381899Y-94330969D01*
X103393935Y-94288346D01*
X103409374Y-94249083D01*
X103428297Y-94212974D01*
X103450783Y-94179814D01*
X103475005Y-94151397D01*
X103503257Y-94124631D01*
X103533574Y-94101999D01*
X103566421Y-94083249D01*
X103602260Y-94068128D01*
X103641556Y-94056383D01*
X103654860Y-94053313D01*
X103664521Y-94051359D01*
X103673578Y-94049892D01*
X103683021Y-94048844D01*
X103693837Y-94048145D01*
X103707017Y-94047726D01*
X103723547Y-94047519D01*
X103738680Y-94047461D01*
X103759778Y-94047522D01*
G37*
X103759778Y-94047522D02*
X103776714Y-94047821D01*
X103790400Y-94048406D01*
X103801750Y-94049330D01*
X103811676Y-94050643D01*
X103818690Y-94051904D01*
X103858046Y-94061471D01*
X103893650Y-94073927D01*
X103926136Y-94089599D01*
X103956140Y-94108815D01*
X103984296Y-94131902D01*
X103996559Y-94143668D01*
X104024477Y-94175259D01*
X104048533Y-94210121D01*
X104068732Y-94248263D01*
X104085074Y-94289691D01*
X104097563Y-94334414D01*
X104106201Y-94382438D01*
X104110991Y-94433770D01*
X104112060Y-94474202D01*
X104110117Y-94528074D01*
X104104296Y-94578755D01*
X104094602Y-94626221D01*
X104081044Y-94670453D01*
X104063630Y-94711426D01*
X104042368Y-94749120D01*
X104017264Y-94783513D01*
X103994867Y-94808189D01*
X103965103Y-94834588D01*
X103932677Y-94856728D01*
X103897550Y-94874625D01*
X103859679Y-94888295D01*
X103819024Y-94897751D01*
X103775544Y-94903011D01*
X103734936Y-94904179D01*
X103721314Y-94903975D01*
X103708922Y-94903682D01*
X103698946Y-94903336D01*
X103692572Y-94902973D01*
X103691690Y-94902884D01*
X103647522Y-94895408D01*
X103606495Y-94883942D01*
X103568588Y-94868472D01*
X103533777Y-94848981D01*
X103502039Y-94825455D01*
X103473351Y-94797878D01*
X103447691Y-94766235D01*
X103425035Y-94730509D01*
X103418640Y-94718644D01*
X103401616Y-94680890D01*
X103387774Y-94639693D01*
X103377218Y-94595656D01*
X103370053Y-94549378D01*
X103366384Y-94501460D01*
X103366348Y-94475300D01*
X103431340Y-94475300D01*
X103432780Y-94524669D01*
X103437150Y-94570061D01*
X103444524Y-94611698D01*
X103454976Y-94649804D01*
X103468582Y-94684603D01*
X103485415Y-94716319D01*
X103505549Y-94745174D01*
X103529059Y-94771393D01*
X103530162Y-94772480D01*
X103556838Y-94795460D01*
X103585767Y-94814199D01*
X103617290Y-94828859D01*
X103651748Y-94839602D01*
X103684070Y-94845846D01*
X103697863Y-94847229D01*
X103715214Y-94848040D01*
X103734634Y-94848292D01*
X103754633Y-94847998D01*
X103773723Y-94847172D01*
X103790416Y-94845828D01*
X103798326Y-94844828D01*
X103836338Y-94836881D01*
X103871215Y-94824954D01*
X103902999Y-94809012D01*
X103931733Y-94789022D01*
X103957460Y-94764951D01*
X103980222Y-94736765D01*
X104000063Y-94704430D01*
X104013688Y-94675960D01*
X104025653Y-94643034D01*
X104035148Y-94606474D01*
X104042128Y-94567110D01*
X104046551Y-94525771D01*
X104048372Y-94483286D01*
X104047548Y-94440485D01*
X104044034Y-94398196D01*
X104037787Y-94357250D01*
X104031920Y-94330450D01*
X104020604Y-94292545D01*
X104006366Y-94258438D01*
X103988916Y-94227584D01*
X103967966Y-94199436D01*
X103954771Y-94184833D01*
X103929609Y-94161692D01*
X103902522Y-94142617D01*
X103873178Y-94127480D01*
X103841242Y-94116157D01*
X103806383Y-94108521D01*
X103768266Y-94104446D01*
X103739950Y-94103646D01*
X103711363Y-94104321D01*
X103686194Y-94106493D01*
X103662941Y-94110381D01*
X103640106Y-94116203D01*
X103628289Y-94119936D01*
X103594846Y-94133729D01*
X103564015Y-94151792D01*
X103536004Y-94173922D01*
X103511019Y-94199915D01*
X103489268Y-94229567D01*
X103470958Y-94262674D01*
X103461844Y-94283767D01*
X103451377Y-94313852D01*
X103443253Y-94344901D01*
X103437338Y-94377752D01*
X103433499Y-94413244D01*
X103431603Y-94452213D01*
X103431340Y-94475300D01*
X103366348Y-94475300D01*
X103366316Y-94452503D01*
X103367718Y-94427111D01*
X103373186Y-94377155D01*
X103381899Y-94330969D01*
X103393935Y-94288346D01*
X103409374Y-94249083D01*
X103428297Y-94212974D01*
X103450783Y-94179814D01*
X103475005Y-94151397D01*
X103503257Y-94124631D01*
X103533574Y-94101999D01*
X103566421Y-94083249D01*
X103602260Y-94068128D01*
X103641556Y-94056383D01*
X103654860Y-94053313D01*
X103664521Y-94051359D01*
X103673578Y-94049892D01*
X103683021Y-94048844D01*
X103693837Y-94048145D01*
X103707017Y-94047726D01*
X103723547Y-94047519D01*
X103738680Y-94047461D01*
X103759778Y-94047522D01*
G36*
X98726625Y-94059431D02*
G01*
X98759810Y-94059692D01*
X98788421Y-94059970D01*
X98812960Y-94060301D01*
X98833931Y-94060722D01*
X98851840Y-94061269D01*
X98867191Y-94061978D01*
X98880487Y-94062885D01*
X98892233Y-94064027D01*
X98902934Y-94065440D01*
X98913094Y-94067160D01*
X98923216Y-94069223D01*
X98933806Y-94071665D01*
X98945367Y-94074524D01*
X98948820Y-94075397D01*
X98989720Y-94088125D01*
X99027549Y-94104747D01*
X99062169Y-94125155D01*
X99093441Y-94149244D01*
X99121226Y-94176904D01*
X99145387Y-94208029D01*
X99165783Y-94242511D01*
X99166620Y-94244160D01*
X99181371Y-94276846D01*
X99193083Y-94310649D01*
X99201899Y-94346259D01*
X99207961Y-94384366D01*
X99211410Y-94425662D01*
X99212399Y-94466640D01*
X99211121Y-94514662D01*
X99207209Y-94558738D01*
X99200544Y-94599332D01*
X99191009Y-94636910D01*
X99178487Y-94671937D01*
X99162859Y-94704879D01*
X99144485Y-94735489D01*
X99120846Y-94766474D01*
X99093296Y-94794412D01*
X99062124Y-94819117D01*
X99027615Y-94840405D01*
X98990058Y-94858089D01*
X98949739Y-94871984D01*
X98922490Y-94878831D01*
X98908956Y-94881683D01*
X98896382Y-94884112D01*
X98884202Y-94886156D01*
X98871853Y-94887856D01*
X98858768Y-94889250D01*
X98844385Y-94890378D01*
X98828137Y-94891281D01*
X98809459Y-94891996D01*
X98787788Y-94892564D01*
X98762559Y-94893024D01*
X98733206Y-94893415D01*
X98710115Y-94893668D01*
X98579940Y-94895006D01*
X98579940Y-94841570D01*
X98638360Y-94841570D01*
X98743135Y-94840321D01*
X98769915Y-94839977D01*
X98792212Y-94839623D01*
X98810620Y-94839229D01*
X98825736Y-94838766D01*
X98838156Y-94838206D01*
X98848474Y-94837518D01*
X98857287Y-94836675D01*
X98865191Y-94835647D01*
X98872782Y-94834405D01*
X98875850Y-94833845D01*
X98918715Y-94823970D01*
X98957543Y-94811083D01*
X98992466Y-94795076D01*
X99023615Y-94775838D01*
X99051123Y-94753259D01*
X99075122Y-94727230D01*
X99095744Y-94697641D01*
X99113122Y-94664382D01*
X99127387Y-94627344D01*
X99128433Y-94624101D01*
X99134209Y-94604703D01*
X99138760Y-94586249D01*
X99142210Y-94567742D01*
X99144686Y-94548183D01*
X99146315Y-94526574D01*
X99147221Y-94501918D01*
X99147531Y-94473216D01*
X99147532Y-94472760D01*
X99147468Y-94448875D01*
X99147131Y-94429057D01*
X99146422Y-94412295D01*
X99145239Y-94397579D01*
X99143483Y-94383898D01*
X99141054Y-94370241D01*
X99137852Y-94355598D01*
X99134626Y-94342331D01*
X99122663Y-94303670D01*
X99107002Y-94268404D01*
X99087692Y-94236596D01*
X99064781Y-94208309D01*
X99038317Y-94183607D01*
X99008349Y-94162554D01*
X98992002Y-94153384D01*
X98974812Y-94144864D01*
X98958183Y-94137552D01*
X98941555Y-94131353D01*
X98924367Y-94126171D01*
X98906059Y-94121910D01*
X98886070Y-94118475D01*
X98863838Y-94115771D01*
X98838803Y-94113700D01*
X98810404Y-94112169D01*
X98778081Y-94111081D01*
X98741272Y-94110341D01*
X98739325Y-94110311D01*
X98638360Y-94108814D01*
X98638360Y-94841570D01*
X98579940Y-94841570D01*
X98579940Y-94058344D01*
X98726625Y-94059431D01*
G37*
X98726625Y-94059431D02*
X98759810Y-94059692D01*
X98788421Y-94059970D01*
X98812960Y-94060301D01*
X98833931Y-94060722D01*
X98851840Y-94061269D01*
X98867191Y-94061978D01*
X98880487Y-94062885D01*
X98892233Y-94064027D01*
X98902934Y-94065440D01*
X98913094Y-94067160D01*
X98923216Y-94069223D01*
X98933806Y-94071665D01*
X98945367Y-94074524D01*
X98948820Y-94075397D01*
X98989720Y-94088125D01*
X99027549Y-94104747D01*
X99062169Y-94125155D01*
X99093441Y-94149244D01*
X99121226Y-94176904D01*
X99145387Y-94208029D01*
X99165783Y-94242511D01*
X99166620Y-94244160D01*
X99181371Y-94276846D01*
X99193083Y-94310649D01*
X99201899Y-94346259D01*
X99207961Y-94384366D01*
X99211410Y-94425662D01*
X99212399Y-94466640D01*
X99211121Y-94514662D01*
X99207209Y-94558738D01*
X99200544Y-94599332D01*
X99191009Y-94636910D01*
X99178487Y-94671937D01*
X99162859Y-94704879D01*
X99144485Y-94735489D01*
X99120846Y-94766474D01*
X99093296Y-94794412D01*
X99062124Y-94819117D01*
X99027615Y-94840405D01*
X98990058Y-94858089D01*
X98949739Y-94871984D01*
X98922490Y-94878831D01*
X98908956Y-94881683D01*
X98896382Y-94884112D01*
X98884202Y-94886156D01*
X98871853Y-94887856D01*
X98858768Y-94889250D01*
X98844385Y-94890378D01*
X98828137Y-94891281D01*
X98809459Y-94891996D01*
X98787788Y-94892564D01*
X98762559Y-94893024D01*
X98733206Y-94893415D01*
X98710115Y-94893668D01*
X98579940Y-94895006D01*
X98579940Y-94841570D01*
X98638360Y-94841570D01*
X98743135Y-94840321D01*
X98769915Y-94839977D01*
X98792212Y-94839623D01*
X98810620Y-94839229D01*
X98825736Y-94838766D01*
X98838156Y-94838206D01*
X98848474Y-94837518D01*
X98857287Y-94836675D01*
X98865191Y-94835647D01*
X98872782Y-94834405D01*
X98875850Y-94833845D01*
X98918715Y-94823970D01*
X98957543Y-94811083D01*
X98992466Y-94795076D01*
X99023615Y-94775838D01*
X99051123Y-94753259D01*
X99075122Y-94727230D01*
X99095744Y-94697641D01*
X99113122Y-94664382D01*
X99127387Y-94627344D01*
X99128433Y-94624101D01*
X99134209Y-94604703D01*
X99138760Y-94586249D01*
X99142210Y-94567742D01*
X99144686Y-94548183D01*
X99146315Y-94526574D01*
X99147221Y-94501918D01*
X99147531Y-94473216D01*
X99147532Y-94472760D01*
X99147468Y-94448875D01*
X99147131Y-94429057D01*
X99146422Y-94412295D01*
X99145239Y-94397579D01*
X99143483Y-94383898D01*
X99141054Y-94370241D01*
X99137852Y-94355598D01*
X99134626Y-94342331D01*
X99122663Y-94303670D01*
X99107002Y-94268404D01*
X99087692Y-94236596D01*
X99064781Y-94208309D01*
X99038317Y-94183607D01*
X99008349Y-94162554D01*
X98992002Y-94153384D01*
X98974812Y-94144864D01*
X98958183Y-94137552D01*
X98941555Y-94131353D01*
X98924367Y-94126171D01*
X98906059Y-94121910D01*
X98886070Y-94118475D01*
X98863838Y-94115771D01*
X98838803Y-94113700D01*
X98810404Y-94112169D01*
X98778081Y-94111081D01*
X98741272Y-94110341D01*
X98739325Y-94110311D01*
X98638360Y-94108814D01*
X98638360Y-94841570D01*
X98579940Y-94841570D01*
X98579940Y-94058344D01*
X98726625Y-94059431D01*
G36*
X99696905Y-94058748D02*
G01*
X99721977Y-94058810D01*
X99746521Y-94058983D01*
X99769850Y-94059254D01*
X99791279Y-94059611D01*
X99810121Y-94060041D01*
X99825692Y-94060532D01*
X99837304Y-94061070D01*
X99842320Y-94061432D01*
X99879979Y-94066284D01*
X99915025Y-94073628D01*
X99946864Y-94083298D01*
X99974901Y-94095127D01*
X99987992Y-94102200D01*
X100002024Y-94111819D01*
X100016828Y-94124242D01*
X100031198Y-94138264D01*
X100043929Y-94152680D01*
X100053813Y-94166282D01*
X100056306Y-94170500D01*
X100068149Y-94196850D01*
X100076629Y-94226066D01*
X100081702Y-94257168D01*
X100083325Y-94289176D01*
X100081454Y-94321111D01*
X100076045Y-94351992D01*
X100067054Y-94380839D01*
X100065826Y-94383891D01*
X100051575Y-94411887D01*
X100033087Y-94437219D01*
X100010546Y-94459725D01*
X99984138Y-94479245D01*
X99954046Y-94495614D01*
X99925627Y-94506960D01*
X99916953Y-94510291D01*
X99910656Y-94513429D01*
X99907854Y-94515797D01*
X99907818Y-94516161D01*
X99909202Y-94518733D01*
X99913001Y-94525341D01*
X99919024Y-94535663D01*
X99927079Y-94549375D01*
X99936975Y-94566154D01*
X99948522Y-94585676D01*
X99961528Y-94607619D01*
X99975801Y-94631657D01*
X99991151Y-94657469D01*
X100007386Y-94684731D01*
X100018943Y-94704115D01*
X100035662Y-94732173D01*
X100051611Y-94758997D01*
X100066601Y-94784267D01*
X100080442Y-94807658D01*
X100092944Y-94828848D01*
X100103917Y-94847515D01*
X100113172Y-94863336D01*
X100120519Y-94875988D01*
X100125768Y-94885149D01*
X100128729Y-94890496D01*
X100129340Y-94891793D01*
X100126864Y-94892941D01*
X100119678Y-94893776D01*
X100108143Y-94894269D01*
X100095643Y-94894400D01*
X100061947Y-94894400D01*
X99847777Y-94532450D01*
X99743448Y-94531786D01*
X99639120Y-94531123D01*
X99639120Y-94894400D01*
X99580700Y-94894400D01*
X99580700Y-94294536D01*
X99639120Y-94294536D01*
X99639142Y-94324529D01*
X99639209Y-94353032D01*
X99639315Y-94379639D01*
X99639458Y-94403943D01*
X99639632Y-94425538D01*
X99639835Y-94444018D01*
X99640063Y-94458977D01*
X99640313Y-94470009D01*
X99640579Y-94476707D01*
X99640813Y-94478686D01*
X99643844Y-94479234D01*
X99651266Y-94479666D01*
X99662389Y-94479987D01*
X99676527Y-94480198D01*
X99692991Y-94480302D01*
X99711092Y-94480304D01*
X99730143Y-94480206D01*
X99749455Y-94480010D01*
X99768340Y-94479721D01*
X99786109Y-94479341D01*
X99802076Y-94478873D01*
X99815550Y-94478320D01*
X99823296Y-94477873D01*
X99857928Y-94474170D01*
X99888477Y-94467981D01*
X99915377Y-94459143D01*
X99939063Y-94447492D01*
X99959971Y-94432865D01*
X99971969Y-94421990D01*
X99986903Y-94405439D01*
X99998269Y-94388615D01*
X100007057Y-94369827D01*
X100012962Y-94352020D01*
X100015313Y-94343129D01*
X100016942Y-94334724D01*
X100017972Y-94325548D01*
X100018523Y-94314342D01*
X100018718Y-94299849D01*
X100018723Y-94292420D01*
X100018578Y-94275968D01*
X100018125Y-94263327D01*
X100017238Y-94253231D01*
X100015795Y-94244412D01*
X100013672Y-94235605D01*
X100012896Y-94232819D01*
X100003924Y-94207661D01*
X99992178Y-94186056D01*
X99977323Y-94167714D01*
X99959025Y-94152344D01*
X99936948Y-94139657D01*
X99910758Y-94129361D01*
X99885500Y-94122387D01*
X99872509Y-94119658D01*
X99858621Y-94117417D01*
X99843239Y-94115625D01*
X99825763Y-94114245D01*
X99805594Y-94113239D01*
X99782135Y-94112569D01*
X99754787Y-94112195D01*
X99723575Y-94112082D01*
X99639120Y-94112080D01*
X99639120Y-94294536D01*
X99580700Y-94294536D01*
X99580700Y-94058740D01*
X99696905Y-94058748D01*
G37*
X99696905Y-94058748D02*
X99721977Y-94058810D01*
X99746521Y-94058983D01*
X99769850Y-94059254D01*
X99791279Y-94059611D01*
X99810121Y-94060041D01*
X99825692Y-94060532D01*
X99837304Y-94061070D01*
X99842320Y-94061432D01*
X99879979Y-94066284D01*
X99915025Y-94073628D01*
X99946864Y-94083298D01*
X99974901Y-94095127D01*
X99987992Y-94102200D01*
X100002024Y-94111819D01*
X100016828Y-94124242D01*
X100031198Y-94138264D01*
X100043929Y-94152680D01*
X100053813Y-94166282D01*
X100056306Y-94170500D01*
X100068149Y-94196850D01*
X100076629Y-94226066D01*
X100081702Y-94257168D01*
X100083325Y-94289176D01*
X100081454Y-94321111D01*
X100076045Y-94351992D01*
X100067054Y-94380839D01*
X100065826Y-94383891D01*
X100051575Y-94411887D01*
X100033087Y-94437219D01*
X100010546Y-94459725D01*
X99984138Y-94479245D01*
X99954046Y-94495614D01*
X99925627Y-94506960D01*
X99916953Y-94510291D01*
X99910656Y-94513429D01*
X99907854Y-94515797D01*
X99907818Y-94516161D01*
X99909202Y-94518733D01*
X99913001Y-94525341D01*
X99919024Y-94535663D01*
X99927079Y-94549375D01*
X99936975Y-94566154D01*
X99948522Y-94585676D01*
X99961528Y-94607619D01*
X99975801Y-94631657D01*
X99991151Y-94657469D01*
X100007386Y-94684731D01*
X100018943Y-94704115D01*
X100035662Y-94732173D01*
X100051611Y-94758997D01*
X100066601Y-94784267D01*
X100080442Y-94807658D01*
X100092944Y-94828848D01*
X100103917Y-94847515D01*
X100113172Y-94863336D01*
X100120519Y-94875988D01*
X100125768Y-94885149D01*
X100128729Y-94890496D01*
X100129340Y-94891793D01*
X100126864Y-94892941D01*
X100119678Y-94893776D01*
X100108143Y-94894269D01*
X100095643Y-94894400D01*
X100061947Y-94894400D01*
X99847777Y-94532450D01*
X99743448Y-94531786D01*
X99639120Y-94531123D01*
X99639120Y-94894400D01*
X99580700Y-94894400D01*
X99580700Y-94294536D01*
X99639120Y-94294536D01*
X99639142Y-94324529D01*
X99639209Y-94353032D01*
X99639315Y-94379639D01*
X99639458Y-94403943D01*
X99639632Y-94425538D01*
X99639835Y-94444018D01*
X99640063Y-94458977D01*
X99640313Y-94470009D01*
X99640579Y-94476707D01*
X99640813Y-94478686D01*
X99643844Y-94479234D01*
X99651266Y-94479666D01*
X99662389Y-94479987D01*
X99676527Y-94480198D01*
X99692991Y-94480302D01*
X99711092Y-94480304D01*
X99730143Y-94480206D01*
X99749455Y-94480010D01*
X99768340Y-94479721D01*
X99786109Y-94479341D01*
X99802076Y-94478873D01*
X99815550Y-94478320D01*
X99823296Y-94477873D01*
X99857928Y-94474170D01*
X99888477Y-94467981D01*
X99915377Y-94459143D01*
X99939063Y-94447492D01*
X99959971Y-94432865D01*
X99971969Y-94421990D01*
X99986903Y-94405439D01*
X99998269Y-94388615D01*
X100007057Y-94369827D01*
X100012962Y-94352020D01*
X100015313Y-94343129D01*
X100016942Y-94334724D01*
X100017972Y-94325548D01*
X100018523Y-94314342D01*
X100018718Y-94299849D01*
X100018723Y-94292420D01*
X100018578Y-94275968D01*
X100018125Y-94263327D01*
X100017238Y-94253231D01*
X100015795Y-94244412D01*
X100013672Y-94235605D01*
X100012896Y-94232819D01*
X100003924Y-94207661D01*
X99992178Y-94186056D01*
X99977323Y-94167714D01*
X99959025Y-94152344D01*
X99936948Y-94139657D01*
X99910758Y-94129361D01*
X99885500Y-94122387D01*
X99872509Y-94119658D01*
X99858621Y-94117417D01*
X99843239Y-94115625D01*
X99825763Y-94114245D01*
X99805594Y-94113239D01*
X99782135Y-94112569D01*
X99754787Y-94112195D01*
X99723575Y-94112082D01*
X99639120Y-94112080D01*
X99639120Y-94294536D01*
X99580700Y-94294536D01*
X99580700Y-94058740D01*
X99696905Y-94058748D01*
G36*
X100697446Y-94056588D02*
G01*
X100704243Y-94057730D01*
X100706612Y-94059420D01*
X100707657Y-94062091D01*
X100710462Y-94069249D01*
X100714933Y-94080651D01*
X100720974Y-94096054D01*
X100728491Y-94115217D01*
X100737387Y-94137897D01*
X100747568Y-94163852D01*
X100758939Y-94192839D01*
X100771405Y-94224616D01*
X100784871Y-94258940D01*
X100799242Y-94295569D01*
X100814421Y-94334261D01*
X100830316Y-94374773D01*
X100846829Y-94416863D01*
X100863867Y-94460288D01*
X100869401Y-94474392D01*
X100886593Y-94518208D01*
X100903294Y-94560776D01*
X100919409Y-94601851D01*
X100934843Y-94641192D01*
X100949501Y-94678554D01*
X100963287Y-94713695D01*
X100976106Y-94746372D01*
X100987862Y-94776341D01*
X100998460Y-94803360D01*
X101007805Y-94827185D01*
X101015801Y-94847573D01*
X101022354Y-94864282D01*
X101027367Y-94877067D01*
X101030745Y-94885687D01*
X101032393Y-94889897D01*
X101032539Y-94890271D01*
X101032708Y-94891962D01*
X101031192Y-94893120D01*
X101027245Y-94893845D01*
X101020123Y-94894234D01*
X101009078Y-94894383D01*
X101001021Y-94894400D01*
X100967920Y-94894400D01*
X100937621Y-94817565D01*
X100928454Y-94794307D01*
X100918259Y-94768421D01*
X100907624Y-94741403D01*
X100897139Y-94714750D01*
X100887393Y-94689960D01*
X100879646Y-94670239D01*
X100851970Y-94599748D01*
X100682237Y-94600389D01*
X100512505Y-94601030D01*
X100454794Y-94747080D01*
X100397082Y-94893130D01*
X100364509Y-94893843D01*
X100351158Y-94894089D01*
X100342120Y-94894073D01*
X100336629Y-94893702D01*
X100333920Y-94892882D01*
X100333229Y-94891517D01*
X100333591Y-94890033D01*
X100334695Y-94887229D01*
X100337587Y-94879950D01*
X100342172Y-94868437D01*
X100348353Y-94852932D01*
X100356032Y-94833676D01*
X100365115Y-94810910D01*
X100375503Y-94784878D01*
X100387102Y-94755819D01*
X100399814Y-94723977D01*
X100413543Y-94689592D01*
X100428193Y-94652906D01*
X100443667Y-94614161D01*
X100459868Y-94573599D01*
X100472126Y-94542911D01*
X100536367Y-94542911D01*
X100537066Y-94543707D01*
X100538885Y-94544373D01*
X100542203Y-94544920D01*
X100547400Y-94545360D01*
X100554854Y-94545705D01*
X100564944Y-94545967D01*
X100578050Y-94546156D01*
X100594550Y-94546284D01*
X100614823Y-94546363D01*
X100639248Y-94546404D01*
X100668204Y-94546418D01*
X100682763Y-94546420D01*
X100712666Y-94546380D01*
X100739940Y-94546267D01*
X100764256Y-94546083D01*
X100785283Y-94545836D01*
X100802692Y-94545529D01*
X100816153Y-94545169D01*
X100825336Y-94544759D01*
X100829911Y-94544306D01*
X100830380Y-94544099D01*
X100829505Y-94541397D01*
X100826977Y-94534326D01*
X100822936Y-94523266D01*
X100817525Y-94508599D01*
X100810886Y-94490707D01*
X100803160Y-94469972D01*
X100794490Y-94446775D01*
X100785017Y-94421499D01*
X100774884Y-94394525D01*
X100765931Y-94370744D01*
X100755080Y-94341903D01*
X100744571Y-94313886D01*
X100734572Y-94287145D01*
X100725249Y-94262131D01*
X100716770Y-94239295D01*
X100709303Y-94219090D01*
X100703015Y-94201966D01*
X100698074Y-94188376D01*
X100694646Y-94178771D01*
X100693241Y-94174672D01*
X100684999Y-94149635D01*
X100671592Y-94189912D01*
X100668260Y-94199491D01*
X100663263Y-94213251D01*
X100656809Y-94230653D01*
X100649101Y-94251154D01*
X100640347Y-94274213D01*
X100630751Y-94299289D01*
X100620519Y-94325840D01*
X100609857Y-94353326D01*
X100598970Y-94381204D01*
X100597929Y-94383860D01*
X100587496Y-94410487D01*
X100577596Y-94435786D01*
X100568390Y-94459349D01*
X100560035Y-94480770D01*
X100552691Y-94499639D01*
X100546515Y-94515548D01*
X100541667Y-94528091D01*
X100538306Y-94536858D01*
X100536590Y-94541443D01*
X100536410Y-94541975D01*
X100536367Y-94542911D01*
X100472126Y-94542911D01*
X100476700Y-94531460D01*
X100494067Y-94487988D01*
X100500898Y-94470892D01*
X100666550Y-94056274D01*
X100685963Y-94056237D01*
X100697446Y-94056588D01*
G37*
X100697446Y-94056588D02*
X100704243Y-94057730D01*
X100706612Y-94059420D01*
X100707657Y-94062091D01*
X100710462Y-94069249D01*
X100714933Y-94080651D01*
X100720974Y-94096054D01*
X100728491Y-94115217D01*
X100737387Y-94137897D01*
X100747568Y-94163852D01*
X100758939Y-94192839D01*
X100771405Y-94224616D01*
X100784871Y-94258940D01*
X100799242Y-94295569D01*
X100814421Y-94334261D01*
X100830316Y-94374773D01*
X100846829Y-94416863D01*
X100863867Y-94460288D01*
X100869401Y-94474392D01*
X100886593Y-94518208D01*
X100903294Y-94560776D01*
X100919409Y-94601851D01*
X100934843Y-94641192D01*
X100949501Y-94678554D01*
X100963287Y-94713695D01*
X100976106Y-94746372D01*
X100987862Y-94776341D01*
X100998460Y-94803360D01*
X101007805Y-94827185D01*
X101015801Y-94847573D01*
X101022354Y-94864282D01*
X101027367Y-94877067D01*
X101030745Y-94885687D01*
X101032393Y-94889897D01*
X101032539Y-94890271D01*
X101032708Y-94891962D01*
X101031192Y-94893120D01*
X101027245Y-94893845D01*
X101020123Y-94894234D01*
X101009078Y-94894383D01*
X101001021Y-94894400D01*
X100967920Y-94894400D01*
X100937621Y-94817565D01*
X100928454Y-94794307D01*
X100918259Y-94768421D01*
X100907624Y-94741403D01*
X100897139Y-94714750D01*
X100887393Y-94689960D01*
X100879646Y-94670239D01*
X100851970Y-94599748D01*
X100682237Y-94600389D01*
X100512505Y-94601030D01*
X100454794Y-94747080D01*
X100397082Y-94893130D01*
X100364509Y-94893843D01*
X100351158Y-94894089D01*
X100342120Y-94894073D01*
X100336629Y-94893702D01*
X100333920Y-94892882D01*
X100333229Y-94891517D01*
X100333591Y-94890033D01*
X100334695Y-94887229D01*
X100337587Y-94879950D01*
X100342172Y-94868437D01*
X100348353Y-94852932D01*
X100356032Y-94833676D01*
X100365115Y-94810910D01*
X100375503Y-94784878D01*
X100387102Y-94755819D01*
X100399814Y-94723977D01*
X100413543Y-94689592D01*
X100428193Y-94652906D01*
X100443667Y-94614161D01*
X100459868Y-94573599D01*
X100472126Y-94542911D01*
X100536367Y-94542911D01*
X100537066Y-94543707D01*
X100538885Y-94544373D01*
X100542203Y-94544920D01*
X100547400Y-94545360D01*
X100554854Y-94545705D01*
X100564944Y-94545967D01*
X100578050Y-94546156D01*
X100594550Y-94546284D01*
X100614823Y-94546363D01*
X100639248Y-94546404D01*
X100668204Y-94546418D01*
X100682763Y-94546420D01*
X100712666Y-94546380D01*
X100739940Y-94546267D01*
X100764256Y-94546083D01*
X100785283Y-94545836D01*
X100802692Y-94545529D01*
X100816153Y-94545169D01*
X100825336Y-94544759D01*
X100829911Y-94544306D01*
X100830380Y-94544099D01*
X100829505Y-94541397D01*
X100826977Y-94534326D01*
X100822936Y-94523266D01*
X100817525Y-94508599D01*
X100810886Y-94490707D01*
X100803160Y-94469972D01*
X100794490Y-94446775D01*
X100785017Y-94421499D01*
X100774884Y-94394525D01*
X100765931Y-94370744D01*
X100755080Y-94341903D01*
X100744571Y-94313886D01*
X100734572Y-94287145D01*
X100725249Y-94262131D01*
X100716770Y-94239295D01*
X100709303Y-94219090D01*
X100703015Y-94201966D01*
X100698074Y-94188376D01*
X100694646Y-94178771D01*
X100693241Y-94174672D01*
X100684999Y-94149635D01*
X100671592Y-94189912D01*
X100668260Y-94199491D01*
X100663263Y-94213251D01*
X100656809Y-94230653D01*
X100649101Y-94251154D01*
X100640347Y-94274213D01*
X100630751Y-94299289D01*
X100620519Y-94325840D01*
X100609857Y-94353326D01*
X100598970Y-94381204D01*
X100597929Y-94383860D01*
X100587496Y-94410487D01*
X100577596Y-94435786D01*
X100568390Y-94459349D01*
X100560035Y-94480770D01*
X100552691Y-94499639D01*
X100546515Y-94515548D01*
X100541667Y-94528091D01*
X100538306Y-94536858D01*
X100536590Y-94541443D01*
X100536410Y-94541975D01*
X100536367Y-94542911D01*
X100472126Y-94542911D01*
X100476700Y-94531460D01*
X100494067Y-94487988D01*
X100500898Y-94470892D01*
X100666550Y-94056274D01*
X100685963Y-94056237D01*
X100697446Y-94056588D01*
G36*
X101428031Y-94087315D02*
G01*
X101435439Y-94105800D01*
X101444127Y-94127444D01*
X101453968Y-94151936D01*
X101464838Y-94178966D01*
X101476612Y-94208226D01*
X101489165Y-94239405D01*
X101502372Y-94272195D01*
X101516108Y-94306284D01*
X101530249Y-94341366D01*
X101544669Y-94377128D01*
X101559243Y-94413263D01*
X101573846Y-94449460D01*
X101588355Y-94485410D01*
X101602642Y-94520803D01*
X101616584Y-94555330D01*
X101630056Y-94588682D01*
X101642933Y-94620549D01*
X101655089Y-94650620D01*
X101666400Y-94678588D01*
X101676741Y-94704142D01*
X101685988Y-94726972D01*
X101694014Y-94746770D01*
X101700695Y-94763226D01*
X101705906Y-94776029D01*
X101709522Y-94784871D01*
X101711419Y-94789443D01*
X101711674Y-94790016D01*
X101711929Y-94790797D01*
X101712058Y-94791762D01*
X101712148Y-94792703D01*
X101712286Y-94793409D01*
X101712557Y-94793673D01*
X101713049Y-94793285D01*
X101713848Y-94792036D01*
X101715040Y-94789717D01*
X101716712Y-94786119D01*
X101718951Y-94781034D01*
X101721843Y-94774252D01*
X101725474Y-94765564D01*
X101729931Y-94754761D01*
X101735301Y-94741634D01*
X101741669Y-94725974D01*
X101749124Y-94707573D01*
X101757750Y-94686221D01*
X101767635Y-94661709D01*
X101778865Y-94633828D01*
X101791526Y-94602369D01*
X101805706Y-94567123D01*
X101821490Y-94527882D01*
X101838965Y-94484435D01*
X101858218Y-94436575D01*
X101866894Y-94415010D01*
X102010210Y-94058810D01*
X102097840Y-94058740D01*
X102097840Y-94894400D01*
X102039420Y-94894400D01*
X102039420Y-94557171D01*
X102039438Y-94501410D01*
X102039497Y-94450515D01*
X102039599Y-94404270D01*
X102039747Y-94362463D01*
X102039944Y-94324877D01*
X102040194Y-94291300D01*
X102040499Y-94261515D01*
X102040864Y-94235310D01*
X102041291Y-94212470D01*
X102041783Y-94192779D01*
X102042343Y-94176025D01*
X102042975Y-94161992D01*
X102043682Y-94150466D01*
X102044467Y-94141232D01*
X102045333Y-94134077D01*
X102045736Y-94131560D01*
X102045904Y-94126435D01*
X102044295Y-94125271D01*
X102043059Y-94127685D01*
X102040021Y-94134560D01*
X102035283Y-94145649D01*
X102028947Y-94160704D01*
X102021114Y-94179478D01*
X102011887Y-94201722D01*
X102001368Y-94227189D01*
X101989658Y-94255630D01*
X101976861Y-94286798D01*
X101963078Y-94320446D01*
X101948411Y-94356325D01*
X101932962Y-94394188D01*
X101916833Y-94433786D01*
X101900127Y-94474873D01*
X101886007Y-94509650D01*
X101730418Y-94893130D01*
X101693800Y-94894626D01*
X101687945Y-94881178D01*
X101686349Y-94877337D01*
X101682961Y-94869048D01*
X101677889Y-94856574D01*
X101671240Y-94840179D01*
X101663119Y-94820126D01*
X101653633Y-94796680D01*
X101642889Y-94770105D01*
X101630994Y-94740663D01*
X101618053Y-94708618D01*
X101604174Y-94674235D01*
X101589464Y-94637777D01*
X101574028Y-94599508D01*
X101557973Y-94559691D01*
X101541406Y-94518591D01*
X101532661Y-94496890D01*
X101515955Y-94455444D01*
X101499756Y-94415277D01*
X101484166Y-94376642D01*
X101469287Y-94339792D01*
X101455221Y-94304980D01*
X101442072Y-94272459D01*
X101429941Y-94242482D01*
X101418932Y-94215302D01*
X101409146Y-94191173D01*
X101400686Y-94170347D01*
X101393655Y-94153078D01*
X101388155Y-94139618D01*
X101384288Y-94130221D01*
X101382158Y-94125139D01*
X101381760Y-94124271D01*
X101381598Y-94126560D01*
X101381451Y-94133655D01*
X101381320Y-94145282D01*
X101381205Y-94161167D01*
X101381106Y-94181034D01*
X101381024Y-94204611D01*
X101380960Y-94231623D01*
X101380914Y-94261795D01*
X101380887Y-94294854D01*
X101380878Y-94330526D01*
X101380889Y-94368536D01*
X101380920Y-94408609D01*
X101380971Y-94450473D01*
X101381044Y-94493852D01*
X101381072Y-94508446D01*
X101381855Y-94894400D01*
X101325680Y-94894400D01*
X101325680Y-94058740D01*
X101416591Y-94058740D01*
X101428031Y-94087315D01*
G37*
X101428031Y-94087315D02*
X101435439Y-94105800D01*
X101444127Y-94127444D01*
X101453968Y-94151936D01*
X101464838Y-94178966D01*
X101476612Y-94208226D01*
X101489165Y-94239405D01*
X101502372Y-94272195D01*
X101516108Y-94306284D01*
X101530249Y-94341366D01*
X101544669Y-94377128D01*
X101559243Y-94413263D01*
X101573846Y-94449460D01*
X101588355Y-94485410D01*
X101602642Y-94520803D01*
X101616584Y-94555330D01*
X101630056Y-94588682D01*
X101642933Y-94620549D01*
X101655089Y-94650620D01*
X101666400Y-94678588D01*
X101676741Y-94704142D01*
X101685988Y-94726972D01*
X101694014Y-94746770D01*
X101700695Y-94763226D01*
X101705906Y-94776029D01*
X101709522Y-94784871D01*
X101711419Y-94789443D01*
X101711674Y-94790016D01*
X101711929Y-94790797D01*
X101712058Y-94791762D01*
X101712148Y-94792703D01*
X101712286Y-94793409D01*
X101712557Y-94793673D01*
X101713049Y-94793285D01*
X101713848Y-94792036D01*
X101715040Y-94789717D01*
X101716712Y-94786119D01*
X101718951Y-94781034D01*
X101721843Y-94774252D01*
X101725474Y-94765564D01*
X101729931Y-94754761D01*
X101735301Y-94741634D01*
X101741669Y-94725974D01*
X101749124Y-94707573D01*
X101757750Y-94686221D01*
X101767635Y-94661709D01*
X101778865Y-94633828D01*
X101791526Y-94602369D01*
X101805706Y-94567123D01*
X101821490Y-94527882D01*
X101838965Y-94484435D01*
X101858218Y-94436575D01*
X101866894Y-94415010D01*
X102010210Y-94058810D01*
X102097840Y-94058740D01*
X102097840Y-94894400D01*
X102039420Y-94894400D01*
X102039420Y-94557171D01*
X102039438Y-94501410D01*
X102039497Y-94450515D01*
X102039599Y-94404270D01*
X102039747Y-94362463D01*
X102039944Y-94324877D01*
X102040194Y-94291300D01*
X102040499Y-94261515D01*
X102040864Y-94235310D01*
X102041291Y-94212470D01*
X102041783Y-94192779D01*
X102042343Y-94176025D01*
X102042975Y-94161992D01*
X102043682Y-94150466D01*
X102044467Y-94141232D01*
X102045333Y-94134077D01*
X102045736Y-94131560D01*
X102045904Y-94126435D01*
X102044295Y-94125271D01*
X102043059Y-94127685D01*
X102040021Y-94134560D01*
X102035283Y-94145649D01*
X102028947Y-94160704D01*
X102021114Y-94179478D01*
X102011887Y-94201722D01*
X102001368Y-94227189D01*
X101989658Y-94255630D01*
X101976861Y-94286798D01*
X101963078Y-94320446D01*
X101948411Y-94356325D01*
X101932962Y-94394188D01*
X101916833Y-94433786D01*
X101900127Y-94474873D01*
X101886007Y-94509650D01*
X101730418Y-94893130D01*
X101693800Y-94894626D01*
X101687945Y-94881178D01*
X101686349Y-94877337D01*
X101682961Y-94869048D01*
X101677889Y-94856574D01*
X101671240Y-94840179D01*
X101663119Y-94820126D01*
X101653633Y-94796680D01*
X101642889Y-94770105D01*
X101630994Y-94740663D01*
X101618053Y-94708618D01*
X101604174Y-94674235D01*
X101589464Y-94637777D01*
X101574028Y-94599508D01*
X101557973Y-94559691D01*
X101541406Y-94518591D01*
X101532661Y-94496890D01*
X101515955Y-94455444D01*
X101499756Y-94415277D01*
X101484166Y-94376642D01*
X101469287Y-94339792D01*
X101455221Y-94304980D01*
X101442072Y-94272459D01*
X101429941Y-94242482D01*
X101418932Y-94215302D01*
X101409146Y-94191173D01*
X101400686Y-94170347D01*
X101393655Y-94153078D01*
X101388155Y-94139618D01*
X101384288Y-94130221D01*
X101382158Y-94125139D01*
X101381760Y-94124271D01*
X101381598Y-94126560D01*
X101381451Y-94133655D01*
X101381320Y-94145282D01*
X101381205Y-94161167D01*
X101381106Y-94181034D01*
X101381024Y-94204611D01*
X101380960Y-94231623D01*
X101380914Y-94261795D01*
X101380887Y-94294854D01*
X101380878Y-94330526D01*
X101380889Y-94368536D01*
X101380920Y-94408609D01*
X101380971Y-94450473D01*
X101381044Y-94493852D01*
X101381072Y-94508446D01*
X101381855Y-94894400D01*
X101325680Y-94894400D01*
X101325680Y-94058740D01*
X101416591Y-94058740D01*
X101428031Y-94087315D01*
G36*
X102469378Y-89484625D02*
G01*
X102470000Y-89486055D01*
X102470888Y-89488720D01*
X102472098Y-89492851D01*
X102473687Y-89498679D01*
X102475711Y-89506435D01*
X102478226Y-89516349D01*
X102481289Y-89528653D01*
X102484956Y-89543576D01*
X102489284Y-89561350D01*
X102494329Y-89582206D01*
X102500147Y-89606374D01*
X102506795Y-89634085D01*
X102514329Y-89665569D01*
X102522806Y-89701059D01*
X102532282Y-89740784D01*
X102542814Y-89784975D01*
X102554457Y-89833863D01*
X102555266Y-89837260D01*
X102564226Y-89874832D01*
X102573409Y-89913232D01*
X102582675Y-89951877D01*
X102591883Y-89990188D01*
X102600894Y-90027584D01*
X102609568Y-90063485D01*
X102617763Y-90097311D01*
X102625340Y-90128480D01*
X102632159Y-90156413D01*
X102638079Y-90180529D01*
X102642702Y-90199210D01*
X102662856Y-90279010D01*
X102682393Y-90353898D01*
X102701356Y-90423998D01*
X102719790Y-90489432D01*
X102737740Y-90550327D01*
X102755252Y-90606804D01*
X102772369Y-90658989D01*
X102789138Y-90707005D01*
X102805602Y-90750976D01*
X102821808Y-90791026D01*
X102837798Y-90827280D01*
X102853620Y-90859860D01*
X102869316Y-90888891D01*
X102884934Y-90914498D01*
X102900516Y-90936803D01*
X102916108Y-90955931D01*
X102917270Y-90957231D01*
X102931395Y-90971054D01*
X102948239Y-90984595D01*
X102966110Y-90996631D01*
X102983312Y-91005944D01*
X102987310Y-91007703D01*
X103011518Y-91016216D01*
X103037375Y-91022126D01*
X103065855Y-91025598D01*
X103097934Y-91026798D01*
X103099870Y-91026801D01*
X103131916Y-91025748D01*
X103160252Y-91022479D01*
X103185813Y-91016832D01*
X103209535Y-91008644D01*
X103213253Y-91007074D01*
X103229316Y-90999444D01*
X103243245Y-90991122D01*
X103256485Y-90981081D01*
X103270484Y-90968291D01*
X103277116Y-90961671D01*
X103295352Y-90940978D01*
X103313397Y-90916164D01*
X103331353Y-90887052D01*
X103349319Y-90853461D01*
X103367395Y-90815215D01*
X103385682Y-90772134D01*
X103391449Y-90757666D01*
X103403578Y-90725975D01*
X103415798Y-90692342D01*
X103428167Y-90656556D01*
X103440745Y-90618406D01*
X103453590Y-90577680D01*
X103466763Y-90534167D01*
X103480322Y-90487655D01*
X103494326Y-90437933D01*
X103508835Y-90384789D01*
X103523907Y-90328012D01*
X103539602Y-90267390D01*
X103555979Y-90202712D01*
X103573097Y-90133766D01*
X103591016Y-90060341D01*
X103609794Y-89982225D01*
X103618003Y-89947750D01*
X103631867Y-89889392D01*
X103644609Y-89835804D01*
X103656272Y-89786811D01*
X103666899Y-89742238D01*
X103676531Y-89701910D01*
X103685212Y-89665651D01*
X103692985Y-89633288D01*
X103699891Y-89604644D01*
X103705973Y-89579546D01*
X103711274Y-89557817D01*
X103715836Y-89539284D01*
X103719703Y-89523770D01*
X103722915Y-89511102D01*
X103725517Y-89501103D01*
X103727550Y-89493600D01*
X103729057Y-89488416D01*
X103730081Y-89485378D01*
X103730663Y-89484310D01*
X103730696Y-89484305D01*
X103732154Y-89486531D01*
X103735547Y-89492804D01*
X103740606Y-89502594D01*
X103747063Y-89515371D01*
X103754650Y-89530604D01*
X103763097Y-89547764D01*
X103769622Y-89561140D01*
X103806915Y-89637870D01*
X103809651Y-89663270D01*
X103818154Y-89765138D01*
X103821920Y-89868347D01*
X103820992Y-89972513D01*
X103815412Y-90077252D01*
X103805220Y-90182179D01*
X103790459Y-90286911D01*
X103771171Y-90391064D01*
X103747398Y-90494253D01*
X103719180Y-90596094D01*
X103702220Y-90650060D01*
X103665308Y-90754620D01*
X103623818Y-90857056D01*
X103577847Y-90957235D01*
X103527489Y-91055023D01*
X103472840Y-91150289D01*
X103413995Y-91242901D01*
X103351049Y-91332724D01*
X103284099Y-91419628D01*
X103213240Y-91503479D01*
X103138566Y-91584145D01*
X103060174Y-91661493D01*
X102978159Y-91735391D01*
X102892617Y-91805706D01*
X102842060Y-91844323D01*
X102751876Y-91908216D01*
X102659075Y-91967797D01*
X102563825Y-92023004D01*
X102466294Y-92073771D01*
X102366651Y-92120037D01*
X102265064Y-92161736D01*
X102161702Y-92198806D01*
X102056732Y-92231182D01*
X101950325Y-92258801D01*
X101842648Y-92281600D01*
X101733869Y-92299514D01*
X101624158Y-92312481D01*
X101596190Y-92314976D01*
X101547203Y-92318485D01*
X101495970Y-92321087D01*
X101444030Y-92322743D01*
X101392921Y-92323415D01*
X101344182Y-92323063D01*
X101312980Y-92322211D01*
X101201285Y-92315607D01*
X101090501Y-92304044D01*
X100980756Y-92287560D01*
X100872177Y-92266194D01*
X100764895Y-92239983D01*
X100659036Y-92208966D01*
X100554731Y-92173180D01*
X100452106Y-92132663D01*
X100351291Y-92087454D01*
X100252415Y-92037591D01*
X100155605Y-91983111D01*
X100144580Y-91976533D01*
X100056173Y-91920932D01*
X99971256Y-91862276D01*
X99889308Y-91800157D01*
X99809808Y-91734169D01*
X99732236Y-91663903D01*
X99678407Y-91611556D01*
X99632976Y-91565146D01*
X99590912Y-91520073D01*
X99551180Y-91475137D01*
X99512743Y-91429141D01*
X99474565Y-91380888D01*
X99443783Y-91340216D01*
X99381053Y-91251673D01*
X99322511Y-91160487D01*
X99268213Y-91066860D01*
X99218216Y-90970995D01*
X99172576Y-90873092D01*
X99131348Y-90773354D01*
X99094590Y-90671983D01*
X99062357Y-90569181D01*
X99034706Y-90465149D01*
X99011693Y-90360089D01*
X98993375Y-90254204D01*
X98979806Y-90147695D01*
X98971045Y-90040764D01*
X98967147Y-89933613D01*
X98968168Y-89826444D01*
X98974165Y-89719459D01*
X98978557Y-89670890D01*
X98983187Y-89625170D01*
X99018032Y-89554050D01*
X99027997Y-89533808D01*
X99036013Y-89517776D01*
X99042297Y-89505569D01*
X99047065Y-89496801D01*
X99050534Y-89491086D01*
X99052921Y-89488039D01*
X99054443Y-89487275D01*
X99055166Y-89488010D01*
X99055873Y-89489970D01*
X99056960Y-89493623D01*
X99058481Y-89499199D01*
X99060493Y-89506927D01*
X99063052Y-89517039D01*
X99066214Y-89529764D01*
X99070035Y-89545334D01*
X99074571Y-89563978D01*
X99079878Y-89585927D01*
X99086012Y-89611411D01*
X99093030Y-89640661D01*
X99100986Y-89673906D01*
X99109937Y-89711378D01*
X99119940Y-89753306D01*
X99131050Y-89799922D01*
X99132381Y-89805510D01*
X99149317Y-89876494D01*
X99165192Y-89942780D01*
X99180072Y-90004622D01*
X99194022Y-90062274D01*
X99207111Y-90115992D01*
X99219403Y-90166029D01*
X99230966Y-90212639D01*
X99241867Y-90256079D01*
X99252171Y-90296601D01*
X99261946Y-90334461D01*
X99271258Y-90369913D01*
X99280172Y-90403211D01*
X99288757Y-90434611D01*
X99297078Y-90464366D01*
X99305201Y-90492731D01*
X99313194Y-90519961D01*
X99321123Y-90546310D01*
X99329054Y-90572033D01*
X99337055Y-90597384D01*
X99345190Y-90622618D01*
X99348764Y-90633550D01*
X99366992Y-90687399D01*
X99384761Y-90736395D01*
X99402184Y-90780730D01*
X99419372Y-90820599D01*
X99436437Y-90856195D01*
X99453491Y-90887711D01*
X99470645Y-90915343D01*
X99488010Y-90939283D01*
X99505700Y-90959725D01*
X99523824Y-90976864D01*
X99542496Y-90990892D01*
X99560865Y-91001525D01*
X99590148Y-91013593D01*
X99622345Y-91022095D01*
X99656621Y-91026898D01*
X99692144Y-91027865D01*
X99714755Y-91026448D01*
X99741384Y-91023054D01*
X99764534Y-91018257D01*
X99785708Y-91011660D01*
X99806406Y-91002867D01*
X99809300Y-91001464D01*
X99820358Y-90995748D01*
X99829437Y-90990218D01*
X99837888Y-90983864D01*
X99847062Y-90975674D01*
X99857707Y-90965244D01*
X99874760Y-90946818D01*
X99890499Y-90926884D01*
X99905525Y-90904557D01*
X99920436Y-90878949D01*
X99934443Y-90851990D01*
X99950041Y-90819126D01*
X99965648Y-90783287D01*
X99981340Y-90744245D01*
X99997194Y-90701771D01*
X100013288Y-90655636D01*
X100029699Y-90605613D01*
X100046505Y-90551471D01*
X100063781Y-90492984D01*
X100081607Y-90429922D01*
X100100005Y-90362257D01*
X100104609Y-90344787D01*
X100110279Y-90322870D01*
X100116894Y-90296997D01*
X100124333Y-90267661D01*
X100132472Y-90235354D01*
X100141192Y-90200566D01*
X100150368Y-90163790D01*
X100159881Y-90125519D01*
X100169607Y-90086242D01*
X100179426Y-90046454D01*
X100189214Y-90006644D01*
X100198851Y-89967305D01*
X100208215Y-89928929D01*
X100217183Y-89892008D01*
X100225633Y-89857033D01*
X100233445Y-89824497D01*
X100238578Y-89802970D01*
X100248524Y-89761182D01*
X100258034Y-89721344D01*
X100267046Y-89683709D01*
X100275498Y-89648533D01*
X100283329Y-89616070D01*
X100290475Y-89586575D01*
X100296876Y-89560303D01*
X100302470Y-89537509D01*
X100307193Y-89518446D01*
X100310984Y-89503371D01*
X100313782Y-89492538D01*
X100315523Y-89486202D01*
X100316102Y-89484550D01*
X100317529Y-89486446D01*
X100321008Y-89492698D01*
X100326424Y-89503069D01*
X100333660Y-89517321D01*
X100342600Y-89535218D01*
X100353130Y-89556522D01*
X100365132Y-89580996D01*
X100378491Y-89608401D01*
X100393092Y-89638500D01*
X100408818Y-89671057D01*
X100425553Y-89705833D01*
X100443182Y-89742590D01*
X100461589Y-89781093D01*
X100480657Y-89821103D01*
X100493772Y-89848690D01*
X100525134Y-89914563D01*
X100554574Y-89976064D01*
X100582230Y-90033463D01*
X100608238Y-90087032D01*
X100632733Y-90137044D01*
X100655851Y-90183770D01*
X100677729Y-90227482D01*
X100698502Y-90268451D01*
X100718306Y-90306950D01*
X100737278Y-90343251D01*
X100755553Y-90377625D01*
X100773267Y-90410344D01*
X100788900Y-90438704D01*
X100828943Y-90508941D01*
X100868191Y-90574189D01*
X100906666Y-90634476D01*
X100944388Y-90689828D01*
X100981378Y-90740272D01*
X101017656Y-90785833D01*
X101053243Y-90826538D01*
X101088161Y-90862414D01*
X101122430Y-90893487D01*
X101156071Y-90919783D01*
X101180411Y-90936082D01*
X101192558Y-90944296D01*
X101205531Y-90954133D01*
X101217055Y-90963840D01*
X101220059Y-90966628D01*
X101239412Y-90983490D01*
X101258609Y-90996524D01*
X101279169Y-91006698D01*
X101288610Y-91010365D01*
X101322139Y-91020036D01*
X101357921Y-91025835D01*
X101394870Y-91027715D01*
X101431900Y-91025631D01*
X101467926Y-91019539D01*
X101474035Y-91018060D01*
X101502616Y-91008620D01*
X101529175Y-90995497D01*
X101552796Y-90979206D01*
X101568250Y-90964993D01*
X101574603Y-90959208D01*
X101583926Y-90951813D01*
X101594855Y-90943853D01*
X101603810Y-90937795D01*
X101637602Y-90913954D01*
X101671353Y-90886408D01*
X101705174Y-90855021D01*
X101739177Y-90819657D01*
X101773473Y-90780178D01*
X101808172Y-90736450D01*
X101843387Y-90688334D01*
X101879229Y-90635696D01*
X101915809Y-90578398D01*
X101953238Y-90516305D01*
X101966753Y-90493080D01*
X101986670Y-90457990D01*
X102007872Y-90419544D01*
X102030424Y-90377615D01*
X102054387Y-90332081D01*
X102079825Y-90282816D01*
X102106800Y-90229696D01*
X102135375Y-90172597D01*
X102165613Y-90111395D01*
X102197577Y-90045965D01*
X102231329Y-89976183D01*
X102266933Y-89901924D01*
X102292892Y-89847420D01*
X102316077Y-89798663D01*
X102337878Y-89752912D01*
X102358232Y-89710294D01*
X102377078Y-89670936D01*
X102394353Y-89634968D01*
X102409996Y-89602518D01*
X102423943Y-89573714D01*
X102436133Y-89548683D01*
X102446504Y-89527555D01*
X102454994Y-89510458D01*
X102461539Y-89497519D01*
X102466079Y-89488868D01*
X102468551Y-89484632D01*
X102468965Y-89484199D01*
X102469378Y-89484625D01*
G37*
X102469378Y-89484625D02*
X102470000Y-89486055D01*
X102470888Y-89488720D01*
X102472098Y-89492851D01*
X102473687Y-89498679D01*
X102475711Y-89506435D01*
X102478226Y-89516349D01*
X102481289Y-89528653D01*
X102484956Y-89543576D01*
X102489284Y-89561350D01*
X102494329Y-89582206D01*
X102500147Y-89606374D01*
X102506795Y-89634085D01*
X102514329Y-89665569D01*
X102522806Y-89701059D01*
X102532282Y-89740784D01*
X102542814Y-89784975D01*
X102554457Y-89833863D01*
X102555266Y-89837260D01*
X102564226Y-89874832D01*
X102573409Y-89913232D01*
X102582675Y-89951877D01*
X102591883Y-89990188D01*
X102600894Y-90027584D01*
X102609568Y-90063485D01*
X102617763Y-90097311D01*
X102625340Y-90128480D01*
X102632159Y-90156413D01*
X102638079Y-90180529D01*
X102642702Y-90199210D01*
X102662856Y-90279010D01*
X102682393Y-90353898D01*
X102701356Y-90423998D01*
X102719790Y-90489432D01*
X102737740Y-90550327D01*
X102755252Y-90606804D01*
X102772369Y-90658989D01*
X102789138Y-90707005D01*
X102805602Y-90750976D01*
X102821808Y-90791026D01*
X102837798Y-90827280D01*
X102853620Y-90859860D01*
X102869316Y-90888891D01*
X102884934Y-90914498D01*
X102900516Y-90936803D01*
X102916108Y-90955931D01*
X102917270Y-90957231D01*
X102931395Y-90971054D01*
X102948239Y-90984595D01*
X102966110Y-90996631D01*
X102983312Y-91005944D01*
X102987310Y-91007703D01*
X103011518Y-91016216D01*
X103037375Y-91022126D01*
X103065855Y-91025598D01*
X103097934Y-91026798D01*
X103099870Y-91026801D01*
X103131916Y-91025748D01*
X103160252Y-91022479D01*
X103185813Y-91016832D01*
X103209535Y-91008644D01*
X103213253Y-91007074D01*
X103229316Y-90999444D01*
X103243245Y-90991122D01*
X103256485Y-90981081D01*
X103270484Y-90968291D01*
X103277116Y-90961671D01*
X103295352Y-90940978D01*
X103313397Y-90916164D01*
X103331353Y-90887052D01*
X103349319Y-90853461D01*
X103367395Y-90815215D01*
X103385682Y-90772134D01*
X103391449Y-90757666D01*
X103403578Y-90725975D01*
X103415798Y-90692342D01*
X103428167Y-90656556D01*
X103440745Y-90618406D01*
X103453590Y-90577680D01*
X103466763Y-90534167D01*
X103480322Y-90487655D01*
X103494326Y-90437933D01*
X103508835Y-90384789D01*
X103523907Y-90328012D01*
X103539602Y-90267390D01*
X103555979Y-90202712D01*
X103573097Y-90133766D01*
X103591016Y-90060341D01*
X103609794Y-89982225D01*
X103618003Y-89947750D01*
X103631867Y-89889392D01*
X103644609Y-89835804D01*
X103656272Y-89786811D01*
X103666899Y-89742238D01*
X103676531Y-89701910D01*
X103685212Y-89665651D01*
X103692985Y-89633288D01*
X103699891Y-89604644D01*
X103705973Y-89579546D01*
X103711274Y-89557817D01*
X103715836Y-89539284D01*
X103719703Y-89523770D01*
X103722915Y-89511102D01*
X103725517Y-89501103D01*
X103727550Y-89493600D01*
X103729057Y-89488416D01*
X103730081Y-89485378D01*
X103730663Y-89484310D01*
X103730696Y-89484305D01*
X103732154Y-89486531D01*
X103735547Y-89492804D01*
X103740606Y-89502594D01*
X103747063Y-89515371D01*
X103754650Y-89530604D01*
X103763097Y-89547764D01*
X103769622Y-89561140D01*
X103806915Y-89637870D01*
X103809651Y-89663270D01*
X103818154Y-89765138D01*
X103821920Y-89868347D01*
X103820992Y-89972513D01*
X103815412Y-90077252D01*
X103805220Y-90182179D01*
X103790459Y-90286911D01*
X103771171Y-90391064D01*
X103747398Y-90494253D01*
X103719180Y-90596094D01*
X103702220Y-90650060D01*
X103665308Y-90754620D01*
X103623818Y-90857056D01*
X103577847Y-90957235D01*
X103527489Y-91055023D01*
X103472840Y-91150289D01*
X103413995Y-91242901D01*
X103351049Y-91332724D01*
X103284099Y-91419628D01*
X103213240Y-91503479D01*
X103138566Y-91584145D01*
X103060174Y-91661493D01*
X102978159Y-91735391D01*
X102892617Y-91805706D01*
X102842060Y-91844323D01*
X102751876Y-91908216D01*
X102659075Y-91967797D01*
X102563825Y-92023004D01*
X102466294Y-92073771D01*
X102366651Y-92120037D01*
X102265064Y-92161736D01*
X102161702Y-92198806D01*
X102056732Y-92231182D01*
X101950325Y-92258801D01*
X101842648Y-92281600D01*
X101733869Y-92299514D01*
X101624158Y-92312481D01*
X101596190Y-92314976D01*
X101547203Y-92318485D01*
X101495970Y-92321087D01*
X101444030Y-92322743D01*
X101392921Y-92323415D01*
X101344182Y-92323063D01*
X101312980Y-92322211D01*
X101201285Y-92315607D01*
X101090501Y-92304044D01*
X100980756Y-92287560D01*
X100872177Y-92266194D01*
X100764895Y-92239983D01*
X100659036Y-92208966D01*
X100554731Y-92173180D01*
X100452106Y-92132663D01*
X100351291Y-92087454D01*
X100252415Y-92037591D01*
X100155605Y-91983111D01*
X100144580Y-91976533D01*
X100056173Y-91920932D01*
X99971256Y-91862276D01*
X99889308Y-91800157D01*
X99809808Y-91734169D01*
X99732236Y-91663903D01*
X99678407Y-91611556D01*
X99632976Y-91565146D01*
X99590912Y-91520073D01*
X99551180Y-91475137D01*
X99512743Y-91429141D01*
X99474565Y-91380888D01*
X99443783Y-91340216D01*
X99381053Y-91251673D01*
X99322511Y-91160487D01*
X99268213Y-91066860D01*
X99218216Y-90970995D01*
X99172576Y-90873092D01*
X99131348Y-90773354D01*
X99094590Y-90671983D01*
X99062357Y-90569181D01*
X99034706Y-90465149D01*
X99011693Y-90360089D01*
X98993375Y-90254204D01*
X98979806Y-90147695D01*
X98971045Y-90040764D01*
X98967147Y-89933613D01*
X98968168Y-89826444D01*
X98974165Y-89719459D01*
X98978557Y-89670890D01*
X98983187Y-89625170D01*
X99018032Y-89554050D01*
X99027997Y-89533808D01*
X99036013Y-89517776D01*
X99042297Y-89505569D01*
X99047065Y-89496801D01*
X99050534Y-89491086D01*
X99052921Y-89488039D01*
X99054443Y-89487275D01*
X99055166Y-89488010D01*
X99055873Y-89489970D01*
X99056960Y-89493623D01*
X99058481Y-89499199D01*
X99060493Y-89506927D01*
X99063052Y-89517039D01*
X99066214Y-89529764D01*
X99070035Y-89545334D01*
X99074571Y-89563978D01*
X99079878Y-89585927D01*
X99086012Y-89611411D01*
X99093030Y-89640661D01*
X99100986Y-89673906D01*
X99109937Y-89711378D01*
X99119940Y-89753306D01*
X99131050Y-89799922D01*
X99132381Y-89805510D01*
X99149317Y-89876494D01*
X99165192Y-89942780D01*
X99180072Y-90004622D01*
X99194022Y-90062274D01*
X99207111Y-90115992D01*
X99219403Y-90166029D01*
X99230966Y-90212639D01*
X99241867Y-90256079D01*
X99252171Y-90296601D01*
X99261946Y-90334461D01*
X99271258Y-90369913D01*
X99280172Y-90403211D01*
X99288757Y-90434611D01*
X99297078Y-90464366D01*
X99305201Y-90492731D01*
X99313194Y-90519961D01*
X99321123Y-90546310D01*
X99329054Y-90572033D01*
X99337055Y-90597384D01*
X99345190Y-90622618D01*
X99348764Y-90633550D01*
X99366992Y-90687399D01*
X99384761Y-90736395D01*
X99402184Y-90780730D01*
X99419372Y-90820599D01*
X99436437Y-90856195D01*
X99453491Y-90887711D01*
X99470645Y-90915343D01*
X99488010Y-90939283D01*
X99505700Y-90959725D01*
X99523824Y-90976864D01*
X99542496Y-90990892D01*
X99560865Y-91001525D01*
X99590148Y-91013593D01*
X99622345Y-91022095D01*
X99656621Y-91026898D01*
X99692144Y-91027865D01*
X99714755Y-91026448D01*
X99741384Y-91023054D01*
X99764534Y-91018257D01*
X99785708Y-91011660D01*
X99806406Y-91002867D01*
X99809300Y-91001464D01*
X99820358Y-90995748D01*
X99829437Y-90990218D01*
X99837888Y-90983864D01*
X99847062Y-90975674D01*
X99857707Y-90965244D01*
X99874760Y-90946818D01*
X99890499Y-90926884D01*
X99905525Y-90904557D01*
X99920436Y-90878949D01*
X99934443Y-90851990D01*
X99950041Y-90819126D01*
X99965648Y-90783287D01*
X99981340Y-90744245D01*
X99997194Y-90701771D01*
X100013288Y-90655636D01*
X100029699Y-90605613D01*
X100046505Y-90551471D01*
X100063781Y-90492984D01*
X100081607Y-90429922D01*
X100100005Y-90362257D01*
X100104609Y-90344787D01*
X100110279Y-90322870D01*
X100116894Y-90296997D01*
X100124333Y-90267661D01*
X100132472Y-90235354D01*
X100141192Y-90200566D01*
X100150368Y-90163790D01*
X100159881Y-90125519D01*
X100169607Y-90086242D01*
X100179426Y-90046454D01*
X100189214Y-90006644D01*
X100198851Y-89967305D01*
X100208215Y-89928929D01*
X100217183Y-89892008D01*
X100225633Y-89857033D01*
X100233445Y-89824497D01*
X100238578Y-89802970D01*
X100248524Y-89761182D01*
X100258034Y-89721344D01*
X100267046Y-89683709D01*
X100275498Y-89648533D01*
X100283329Y-89616070D01*
X100290475Y-89586575D01*
X100296876Y-89560303D01*
X100302470Y-89537509D01*
X100307193Y-89518446D01*
X100310984Y-89503371D01*
X100313782Y-89492538D01*
X100315523Y-89486202D01*
X100316102Y-89484550D01*
X100317529Y-89486446D01*
X100321008Y-89492698D01*
X100326424Y-89503069D01*
X100333660Y-89517321D01*
X100342600Y-89535218D01*
X100353130Y-89556522D01*
X100365132Y-89580996D01*
X100378491Y-89608401D01*
X100393092Y-89638500D01*
X100408818Y-89671057D01*
X100425553Y-89705833D01*
X100443182Y-89742590D01*
X100461589Y-89781093D01*
X100480657Y-89821103D01*
X100493772Y-89848690D01*
X100525134Y-89914563D01*
X100554574Y-89976064D01*
X100582230Y-90033463D01*
X100608238Y-90087032D01*
X100632733Y-90137044D01*
X100655851Y-90183770D01*
X100677729Y-90227482D01*
X100698502Y-90268451D01*
X100718306Y-90306950D01*
X100737278Y-90343251D01*
X100755553Y-90377625D01*
X100773267Y-90410344D01*
X100788900Y-90438704D01*
X100828943Y-90508941D01*
X100868191Y-90574189D01*
X100906666Y-90634476D01*
X100944388Y-90689828D01*
X100981378Y-90740272D01*
X101017656Y-90785833D01*
X101053243Y-90826538D01*
X101088161Y-90862414D01*
X101122430Y-90893487D01*
X101156071Y-90919783D01*
X101180411Y-90936082D01*
X101192558Y-90944296D01*
X101205531Y-90954133D01*
X101217055Y-90963840D01*
X101220059Y-90966628D01*
X101239412Y-90983490D01*
X101258609Y-90996524D01*
X101279169Y-91006698D01*
X101288610Y-91010365D01*
X101322139Y-91020036D01*
X101357921Y-91025835D01*
X101394870Y-91027715D01*
X101431900Y-91025631D01*
X101467926Y-91019539D01*
X101474035Y-91018060D01*
X101502616Y-91008620D01*
X101529175Y-90995497D01*
X101552796Y-90979206D01*
X101568250Y-90964993D01*
X101574603Y-90959208D01*
X101583926Y-90951813D01*
X101594855Y-90943853D01*
X101603810Y-90937795D01*
X101637602Y-90913954D01*
X101671353Y-90886408D01*
X101705174Y-90855021D01*
X101739177Y-90819657D01*
X101773473Y-90780178D01*
X101808172Y-90736450D01*
X101843387Y-90688334D01*
X101879229Y-90635696D01*
X101915809Y-90578398D01*
X101953238Y-90516305D01*
X101966753Y-90493080D01*
X101986670Y-90457990D01*
X102007872Y-90419544D01*
X102030424Y-90377615D01*
X102054387Y-90332081D01*
X102079825Y-90282816D01*
X102106800Y-90229696D01*
X102135375Y-90172597D01*
X102165613Y-90111395D01*
X102197577Y-90045965D01*
X102231329Y-89976183D01*
X102266933Y-89901924D01*
X102292892Y-89847420D01*
X102316077Y-89798663D01*
X102337878Y-89752912D01*
X102358232Y-89710294D01*
X102377078Y-89670936D01*
X102394353Y-89634968D01*
X102409996Y-89602518D01*
X102423943Y-89573714D01*
X102436133Y-89548683D01*
X102446504Y-89527555D01*
X102454994Y-89510458D01*
X102461539Y-89497519D01*
X102466079Y-89488868D01*
X102468551Y-89484632D01*
X102468965Y-89484199D01*
X102469378Y-89484625D01*
G36*
X101504923Y-87469995D02*
G01*
X101614966Y-87477528D01*
X101724237Y-87490017D01*
X101832586Y-87507409D01*
X101939862Y-87529655D01*
X102045913Y-87556702D01*
X102150588Y-87588499D01*
X102253736Y-87624995D01*
X102355207Y-87666138D01*
X102454849Y-87711877D01*
X102552510Y-87762161D01*
X102648041Y-87816937D01*
X102741289Y-87876156D01*
X102832104Y-87939765D01*
X102872540Y-87970117D01*
X102944524Y-88027787D01*
X103015812Y-88089756D01*
X103085601Y-88155245D01*
X103153090Y-88223473D01*
X103217477Y-88293662D01*
X103275100Y-88361520D01*
X103329164Y-88430545D01*
X103382041Y-88503545D01*
X103432997Y-88579434D01*
X103481296Y-88657126D01*
X103515291Y-88715850D01*
X103526449Y-88736282D01*
X103539085Y-88760316D01*
X103552672Y-88786882D01*
X103566684Y-88814916D01*
X103580593Y-88843349D01*
X103593874Y-88871114D01*
X103605998Y-88897144D01*
X103616440Y-88920373D01*
X103617895Y-88923701D01*
X103639809Y-88974072D01*
X103623654Y-89022435D01*
X103607498Y-89070799D01*
X103580629Y-89030484D01*
X103547220Y-88981842D01*
X103514724Y-88937602D01*
X103482739Y-88897259D01*
X103450862Y-88860309D01*
X103418691Y-88826247D01*
X103414922Y-88822460D01*
X103380692Y-88790124D01*
X103347183Y-88762343D01*
X103313886Y-88738746D01*
X103280290Y-88718960D01*
X103257350Y-88707647D01*
X103228959Y-88695672D01*
X103202253Y-88686674D01*
X103175324Y-88680143D01*
X103146264Y-88675569D01*
X103131330Y-88673950D01*
X103089083Y-88672434D01*
X103047128Y-88675988D01*
X103005475Y-88684608D01*
X102964135Y-88698291D01*
X102923121Y-88717036D01*
X102891590Y-88735027D01*
X102872032Y-88747688D01*
X102853854Y-88760667D01*
X102836089Y-88774754D01*
X102817773Y-88790743D01*
X102797939Y-88809424D01*
X102783502Y-88823659D01*
X102756486Y-88851666D01*
X102730358Y-88880856D01*
X102704565Y-88911922D01*
X102678551Y-88945558D01*
X102651764Y-88982458D01*
X102623648Y-89023315D01*
X102621522Y-89026481D01*
X102591998Y-89070517D01*
X102576360Y-89023993D01*
X102561954Y-88982096D01*
X102548281Y-88944401D01*
X102535030Y-88910137D01*
X102521892Y-88878533D01*
X102508556Y-88848820D01*
X102494713Y-88820227D01*
X102492671Y-88816180D01*
X102474909Y-88783109D01*
X102457419Y-88754683D01*
X102439859Y-88730502D01*
X102421887Y-88710170D01*
X102403162Y-88693286D01*
X102383343Y-88679453D01*
X102368350Y-88671232D01*
X102341109Y-88660208D01*
X102311194Y-88652376D01*
X102279482Y-88647706D01*
X102246852Y-88646165D01*
X102214184Y-88647722D01*
X102182356Y-88652345D01*
X102152248Y-88660004D01*
X102124738Y-88670666D01*
X102106339Y-88680615D01*
X102086784Y-88694875D01*
X102067592Y-88713108D01*
X102048680Y-88735454D01*
X102029960Y-88762055D01*
X102011348Y-88793050D01*
X101992759Y-88828579D01*
X101974107Y-88868783D01*
X101955307Y-88913803D01*
X101939646Y-88954610D01*
X101929124Y-88983566D01*
X101918616Y-89013654D01*
X101908057Y-89045107D01*
X101897385Y-89078159D01*
X101886535Y-89113046D01*
X101875444Y-89150001D01*
X101864048Y-89189259D01*
X101852283Y-89231054D01*
X101840085Y-89275620D01*
X101827391Y-89323191D01*
X101814136Y-89374003D01*
X101800257Y-89428288D01*
X101785691Y-89486283D01*
X101770373Y-89548220D01*
X101754239Y-89614334D01*
X101737226Y-89684859D01*
X101719270Y-89760030D01*
X101711788Y-89791540D01*
X101696036Y-89857891D01*
X101681340Y-89919584D01*
X101667626Y-89976911D01*
X101654820Y-90030167D01*
X101642848Y-90079643D01*
X101631634Y-90125635D01*
X101621106Y-90168436D01*
X101611189Y-90208339D01*
X101601809Y-90245637D01*
X101592891Y-90280625D01*
X101584361Y-90313596D01*
X101576146Y-90344843D01*
X101568171Y-90374660D01*
X101560361Y-90403341D01*
X101552643Y-90431179D01*
X101544942Y-90458467D01*
X101537185Y-90485500D01*
X101531061Y-90506550D01*
X101516637Y-90554584D01*
X101501928Y-90601139D01*
X101487093Y-90645792D01*
X101472288Y-90688119D01*
X101457671Y-90727695D01*
X101443400Y-90764097D01*
X101429633Y-90796901D01*
X101416528Y-90825683D01*
X101404241Y-90850020D01*
X101401272Y-90855438D01*
X101392254Y-90871587D01*
X101385711Y-90860421D01*
X101375657Y-90841905D01*
X101364568Y-90819023D01*
X101352665Y-90792329D01*
X101340167Y-90762380D01*
X101327295Y-90729731D01*
X101314268Y-90694938D01*
X101301307Y-90658556D01*
X101288632Y-90621141D01*
X101278699Y-90590370D01*
X101269864Y-90562061D01*
X101261107Y-90533346D01*
X101252354Y-90503943D01*
X101243533Y-90473570D01*
X101234568Y-90441945D01*
X101225388Y-90408786D01*
X101215919Y-90373810D01*
X101206088Y-90336735D01*
X101195821Y-90297280D01*
X101185044Y-90255161D01*
X101173685Y-90210098D01*
X101161671Y-90161807D01*
X101148927Y-90110006D01*
X101135381Y-90054414D01*
X101120959Y-89994748D01*
X101105588Y-89930727D01*
X101089195Y-89862067D01*
X101086907Y-89852458D01*
X101069624Y-89780012D01*
X101053382Y-89712268D01*
X101038114Y-89648973D01*
X101023753Y-89589870D01*
X101010233Y-89534706D01*
X100997486Y-89483225D01*
X100985445Y-89435173D01*
X100974044Y-89390294D01*
X100963214Y-89348333D01*
X100952890Y-89309037D01*
X100943004Y-89272150D01*
X100933490Y-89237416D01*
X100924280Y-89204582D01*
X100915307Y-89173393D01*
X100906504Y-89143593D01*
X100897805Y-89114927D01*
X100889142Y-89087141D01*
X100880449Y-89059981D01*
X100871658Y-89033190D01*
X100871289Y-89032080D01*
X100852951Y-88978580D01*
X100835076Y-88929936D01*
X100817544Y-88885955D01*
X100800235Y-88846446D01*
X100783030Y-88811217D01*
X100765808Y-88780077D01*
X100748451Y-88752834D01*
X100730838Y-88729297D01*
X100712851Y-88709274D01*
X100694369Y-88692574D01*
X100675272Y-88679004D01*
X100655442Y-88668374D01*
X100640406Y-88662350D01*
X100609256Y-88653724D01*
X100575714Y-88648400D01*
X100541020Y-88646391D01*
X100506413Y-88647709D01*
X100473133Y-88652366D01*
X100442444Y-88660368D01*
X100427866Y-88665517D01*
X100416300Y-88670456D01*
X100405824Y-88676177D01*
X100394513Y-88683670D01*
X100387759Y-88688525D01*
X100369311Y-88703922D01*
X100351171Y-88722993D01*
X100333256Y-88745895D01*
X100315479Y-88772786D01*
X100297756Y-88803823D01*
X100280002Y-88839163D01*
X100262131Y-88878964D01*
X100244059Y-88923383D01*
X100225700Y-88972577D01*
X100210496Y-89016224D01*
X100192211Y-89070218D01*
X100160097Y-89022574D01*
X100132218Y-88982106D01*
X100105764Y-88945634D01*
X100080182Y-88912475D01*
X100054921Y-88881944D01*
X100029426Y-88853358D01*
X100003146Y-88826034D01*
X99993121Y-88816115D01*
X99961648Y-88786829D01*
X99931341Y-88761729D01*
X99901457Y-88740292D01*
X99871255Y-88721995D01*
X99839991Y-88706316D01*
X99832536Y-88703009D01*
X99792025Y-88688168D01*
X99750510Y-88678202D01*
X99708373Y-88673099D01*
X99665997Y-88672848D01*
X99623768Y-88677436D01*
X99582067Y-88686852D01*
X99541279Y-88701084D01*
X99515930Y-88712666D01*
X99480196Y-88732699D01*
X99444526Y-88756980D01*
X99408819Y-88785613D01*
X99372971Y-88818702D01*
X99336881Y-88856350D01*
X99300446Y-88898662D01*
X99263564Y-88945742D01*
X99226133Y-88997693D01*
X99205821Y-89027561D01*
X99197141Y-89040520D01*
X99189499Y-89051837D01*
X99183309Y-89060907D01*
X99178986Y-89067123D01*
X99176942Y-89069880D01*
X99176835Y-89069951D01*
X99176060Y-89067329D01*
X99173908Y-89060671D01*
X99170633Y-89050750D01*
X99166492Y-89038341D01*
X99161870Y-89024605D01*
X99146909Y-88980301D01*
X99165944Y-88935705D01*
X99210363Y-88838051D01*
X99259447Y-88742162D01*
X99313018Y-88648276D01*
X99370894Y-88556631D01*
X99432898Y-88467468D01*
X99498848Y-88381024D01*
X99568565Y-88297539D01*
X99641870Y-88217251D01*
X99718582Y-88140400D01*
X99798522Y-88067224D01*
X99856290Y-88018327D01*
X99943656Y-87950011D01*
X100033666Y-87885968D01*
X100126165Y-87826254D01*
X100220998Y-87770925D01*
X100318011Y-87720036D01*
X100417049Y-87673643D01*
X100517957Y-87631801D01*
X100620579Y-87594565D01*
X100724762Y-87561991D01*
X100830351Y-87534135D01*
X100937190Y-87511051D01*
X101045125Y-87492796D01*
X101154001Y-87479424D01*
X101263664Y-87470991D01*
X101373958Y-87467553D01*
X101394260Y-87467469D01*
X101504923Y-87469995D01*
G37*
X101504923Y-87469995D02*
X101614966Y-87477528D01*
X101724237Y-87490017D01*
X101832586Y-87507409D01*
X101939862Y-87529655D01*
X102045913Y-87556702D01*
X102150588Y-87588499D01*
X102253736Y-87624995D01*
X102355207Y-87666138D01*
X102454849Y-87711877D01*
X102552510Y-87762161D01*
X102648041Y-87816937D01*
X102741289Y-87876156D01*
X102832104Y-87939765D01*
X102872540Y-87970117D01*
X102944524Y-88027787D01*
X103015812Y-88089756D01*
X103085601Y-88155245D01*
X103153090Y-88223473D01*
X103217477Y-88293662D01*
X103275100Y-88361520D01*
X103329164Y-88430545D01*
X103382041Y-88503545D01*
X103432997Y-88579434D01*
X103481296Y-88657126D01*
X103515291Y-88715850D01*
X103526449Y-88736282D01*
X103539085Y-88760316D01*
X103552672Y-88786882D01*
X103566684Y-88814916D01*
X103580593Y-88843349D01*
X103593874Y-88871114D01*
X103605998Y-88897144D01*
X103616440Y-88920373D01*
X103617895Y-88923701D01*
X103639809Y-88974072D01*
X103623654Y-89022435D01*
X103607498Y-89070799D01*
X103580629Y-89030484D01*
X103547220Y-88981842D01*
X103514724Y-88937602D01*
X103482739Y-88897259D01*
X103450862Y-88860309D01*
X103418691Y-88826247D01*
X103414922Y-88822460D01*
X103380692Y-88790124D01*
X103347183Y-88762343D01*
X103313886Y-88738746D01*
X103280290Y-88718960D01*
X103257350Y-88707647D01*
X103228959Y-88695672D01*
X103202253Y-88686674D01*
X103175324Y-88680143D01*
X103146264Y-88675569D01*
X103131330Y-88673950D01*
X103089083Y-88672434D01*
X103047128Y-88675988D01*
X103005475Y-88684608D01*
X102964135Y-88698291D01*
X102923121Y-88717036D01*
X102891590Y-88735027D01*
X102872032Y-88747688D01*
X102853854Y-88760667D01*
X102836089Y-88774754D01*
X102817773Y-88790743D01*
X102797939Y-88809424D01*
X102783502Y-88823659D01*
X102756486Y-88851666D01*
X102730358Y-88880856D01*
X102704565Y-88911922D01*
X102678551Y-88945558D01*
X102651764Y-88982458D01*
X102623648Y-89023315D01*
X102621522Y-89026481D01*
X102591998Y-89070517D01*
X102576360Y-89023993D01*
X102561954Y-88982096D01*
X102548281Y-88944401D01*
X102535030Y-88910137D01*
X102521892Y-88878533D01*
X102508556Y-88848820D01*
X102494713Y-88820227D01*
X102492671Y-88816180D01*
X102474909Y-88783109D01*
X102457419Y-88754683D01*
X102439859Y-88730502D01*
X102421887Y-88710170D01*
X102403162Y-88693286D01*
X102383343Y-88679453D01*
X102368350Y-88671232D01*
X102341109Y-88660208D01*
X102311194Y-88652376D01*
X102279482Y-88647706D01*
X102246852Y-88646165D01*
X102214184Y-88647722D01*
X102182356Y-88652345D01*
X102152248Y-88660004D01*
X102124738Y-88670666D01*
X102106339Y-88680615D01*
X102086784Y-88694875D01*
X102067592Y-88713108D01*
X102048680Y-88735454D01*
X102029960Y-88762055D01*
X102011348Y-88793050D01*
X101992759Y-88828579D01*
X101974107Y-88868783D01*
X101955307Y-88913803D01*
X101939646Y-88954610D01*
X101929124Y-88983566D01*
X101918616Y-89013654D01*
X101908057Y-89045107D01*
X101897385Y-89078159D01*
X101886535Y-89113046D01*
X101875444Y-89150001D01*
X101864048Y-89189259D01*
X101852283Y-89231054D01*
X101840085Y-89275620D01*
X101827391Y-89323191D01*
X101814136Y-89374003D01*
X101800257Y-89428288D01*
X101785691Y-89486283D01*
X101770373Y-89548220D01*
X101754239Y-89614334D01*
X101737226Y-89684859D01*
X101719270Y-89760030D01*
X101711788Y-89791540D01*
X101696036Y-89857891D01*
X101681340Y-89919584D01*
X101667626Y-89976911D01*
X101654820Y-90030167D01*
X101642848Y-90079643D01*
X101631634Y-90125635D01*
X101621106Y-90168436D01*
X101611189Y-90208339D01*
X101601809Y-90245637D01*
X101592891Y-90280625D01*
X101584361Y-90313596D01*
X101576146Y-90344843D01*
X101568171Y-90374660D01*
X101560361Y-90403341D01*
X101552643Y-90431179D01*
X101544942Y-90458467D01*
X101537185Y-90485500D01*
X101531061Y-90506550D01*
X101516637Y-90554584D01*
X101501928Y-90601139D01*
X101487093Y-90645792D01*
X101472288Y-90688119D01*
X101457671Y-90727695D01*
X101443400Y-90764097D01*
X101429633Y-90796901D01*
X101416528Y-90825683D01*
X101404241Y-90850020D01*
X101401272Y-90855438D01*
X101392254Y-90871587D01*
X101385711Y-90860421D01*
X101375657Y-90841905D01*
X101364568Y-90819023D01*
X101352665Y-90792329D01*
X101340167Y-90762380D01*
X101327295Y-90729731D01*
X101314268Y-90694938D01*
X101301307Y-90658556D01*
X101288632Y-90621141D01*
X101278699Y-90590370D01*
X101269864Y-90562061D01*
X101261107Y-90533346D01*
X101252354Y-90503943D01*
X101243533Y-90473570D01*
X101234568Y-90441945D01*
X101225388Y-90408786D01*
X101215919Y-90373810D01*
X101206088Y-90336735D01*
X101195821Y-90297280D01*
X101185044Y-90255161D01*
X101173685Y-90210098D01*
X101161671Y-90161807D01*
X101148927Y-90110006D01*
X101135381Y-90054414D01*
X101120959Y-89994748D01*
X101105588Y-89930727D01*
X101089195Y-89862067D01*
X101086907Y-89852458D01*
X101069624Y-89780012D01*
X101053382Y-89712268D01*
X101038114Y-89648973D01*
X101023753Y-89589870D01*
X101010233Y-89534706D01*
X100997486Y-89483225D01*
X100985445Y-89435173D01*
X100974044Y-89390294D01*
X100963214Y-89348333D01*
X100952890Y-89309037D01*
X100943004Y-89272150D01*
X100933490Y-89237416D01*
X100924280Y-89204582D01*
X100915307Y-89173393D01*
X100906504Y-89143593D01*
X100897805Y-89114927D01*
X100889142Y-89087141D01*
X100880449Y-89059981D01*
X100871658Y-89033190D01*
X100871289Y-89032080D01*
X100852951Y-88978580D01*
X100835076Y-88929936D01*
X100817544Y-88885955D01*
X100800235Y-88846446D01*
X100783030Y-88811217D01*
X100765808Y-88780077D01*
X100748451Y-88752834D01*
X100730838Y-88729297D01*
X100712851Y-88709274D01*
X100694369Y-88692574D01*
X100675272Y-88679004D01*
X100655442Y-88668374D01*
X100640406Y-88662350D01*
X100609256Y-88653724D01*
X100575714Y-88648400D01*
X100541020Y-88646391D01*
X100506413Y-88647709D01*
X100473133Y-88652366D01*
X100442444Y-88660368D01*
X100427866Y-88665517D01*
X100416300Y-88670456D01*
X100405824Y-88676177D01*
X100394513Y-88683670D01*
X100387759Y-88688525D01*
X100369311Y-88703922D01*
X100351171Y-88722993D01*
X100333256Y-88745895D01*
X100315479Y-88772786D01*
X100297756Y-88803823D01*
X100280002Y-88839163D01*
X100262131Y-88878964D01*
X100244059Y-88923383D01*
X100225700Y-88972577D01*
X100210496Y-89016224D01*
X100192211Y-89070218D01*
X100160097Y-89022574D01*
X100132218Y-88982106D01*
X100105764Y-88945634D01*
X100080182Y-88912475D01*
X100054921Y-88881944D01*
X100029426Y-88853358D01*
X100003146Y-88826034D01*
X99993121Y-88816115D01*
X99961648Y-88786829D01*
X99931341Y-88761729D01*
X99901457Y-88740292D01*
X99871255Y-88721995D01*
X99839991Y-88706316D01*
X99832536Y-88703009D01*
X99792025Y-88688168D01*
X99750510Y-88678202D01*
X99708373Y-88673099D01*
X99665997Y-88672848D01*
X99623768Y-88677436D01*
X99582067Y-88686852D01*
X99541279Y-88701084D01*
X99515930Y-88712666D01*
X99480196Y-88732699D01*
X99444526Y-88756980D01*
X99408819Y-88785613D01*
X99372971Y-88818702D01*
X99336881Y-88856350D01*
X99300446Y-88898662D01*
X99263564Y-88945742D01*
X99226133Y-88997693D01*
X99205821Y-89027561D01*
X99197141Y-89040520D01*
X99189499Y-89051837D01*
X99183309Y-89060907D01*
X99178986Y-89067123D01*
X99176942Y-89069880D01*
X99176835Y-89069951D01*
X99176060Y-89067329D01*
X99173908Y-89060671D01*
X99170633Y-89050750D01*
X99166492Y-89038341D01*
X99161870Y-89024605D01*
X99146909Y-88980301D01*
X99165944Y-88935705D01*
X99210363Y-88838051D01*
X99259447Y-88742162D01*
X99313018Y-88648276D01*
X99370894Y-88556631D01*
X99432898Y-88467468D01*
X99498848Y-88381024D01*
X99568565Y-88297539D01*
X99641870Y-88217251D01*
X99718582Y-88140400D01*
X99798522Y-88067224D01*
X99856290Y-88018327D01*
X99943656Y-87950011D01*
X100033666Y-87885968D01*
X100126165Y-87826254D01*
X100220998Y-87770925D01*
X100318011Y-87720036D01*
X100417049Y-87673643D01*
X100517957Y-87631801D01*
X100620579Y-87594565D01*
X100724762Y-87561991D01*
X100830351Y-87534135D01*
X100937190Y-87511051D01*
X101045125Y-87492796D01*
X101154001Y-87479424D01*
X101263664Y-87470991D01*
X101373958Y-87467553D01*
X101394260Y-87467469D01*
X101504923Y-87469995D01*
G36*
X103133736Y-88716325D02*
G01*
X103158967Y-88723893D01*
X103183690Y-88734516D01*
X103212126Y-88749634D01*
X103239539Y-88767063D01*
X103266663Y-88787362D01*
X103294233Y-88811088D01*
X103322984Y-88838800D01*
X103328534Y-88844452D01*
X103357025Y-88874886D01*
X103385135Y-88907381D01*
X103413174Y-88942360D01*
X103441452Y-88980244D01*
X103470279Y-89021456D01*
X103499964Y-89066419D01*
X103530817Y-89115554D01*
X103547048Y-89142268D01*
X103572839Y-89185146D01*
X103567984Y-89200688D01*
X103562217Y-89219872D01*
X103555379Y-89243919D01*
X103547494Y-89272733D01*
X103538587Y-89306215D01*
X103528682Y-89344270D01*
X103517804Y-89386799D01*
X103505977Y-89433705D01*
X103493226Y-89484892D01*
X103479574Y-89540261D01*
X103465048Y-89599717D01*
X103449670Y-89663162D01*
X103433466Y-89730498D01*
X103416459Y-89801628D01*
X103410998Y-89824560D01*
X103393907Y-89896235D01*
X103377855Y-89963214D01*
X103362773Y-90025755D01*
X103348593Y-90084120D01*
X103335248Y-90138568D01*
X103322668Y-90189361D01*
X103310786Y-90236758D01*
X103299533Y-90281020D01*
X103288842Y-90322408D01*
X103278644Y-90361181D01*
X103268871Y-90397601D01*
X103259455Y-90431928D01*
X103250327Y-90464421D01*
X103241420Y-90495343D01*
X103232666Y-90524952D01*
X103223995Y-90553510D01*
X103215340Y-90581277D01*
X103206633Y-90608513D01*
X103202204Y-90622120D01*
X103190237Y-90657666D01*
X103177828Y-90692654D01*
X103165228Y-90726454D01*
X103152690Y-90758436D01*
X103140468Y-90787972D01*
X103128814Y-90814432D01*
X103117980Y-90837187D01*
X103109010Y-90854209D01*
X103099200Y-90871669D01*
X103090152Y-90855479D01*
X103078116Y-90832402D01*
X103065216Y-90804792D01*
X103051617Y-90773092D01*
X103037485Y-90737744D01*
X103022986Y-90699189D01*
X103008285Y-90657871D01*
X102993548Y-90614230D01*
X102978941Y-90568710D01*
X102964628Y-90521752D01*
X102962761Y-90515440D01*
X102949714Y-90470270D01*
X102935800Y-90420366D01*
X102921088Y-90365984D01*
X102905647Y-90307382D01*
X102889547Y-90244819D01*
X102877704Y-90197940D01*
X102872634Y-90177698D01*
X102867829Y-90158456D01*
X102863195Y-90139820D01*
X102858637Y-90121399D01*
X102854060Y-90102801D01*
X102849370Y-90083636D01*
X102844473Y-90063510D01*
X102839274Y-90042033D01*
X102833678Y-90018813D01*
X102827590Y-89993458D01*
X102820917Y-89965576D01*
X102813563Y-89934776D01*
X102805435Y-89900667D01*
X102796437Y-89862855D01*
X102786475Y-89820951D01*
X102775454Y-89774562D01*
X102773454Y-89766140D01*
X102756649Y-89695636D01*
X102740844Y-89629860D01*
X102725977Y-89568570D01*
X102711989Y-89511525D01*
X102698818Y-89458484D01*
X102686405Y-89409206D01*
X102674688Y-89363451D01*
X102663607Y-89320976D01*
X102653101Y-89281541D01*
X102643111Y-89244906D01*
X102636535Y-89221310D01*
X102626534Y-89185750D01*
X102634414Y-89171780D01*
X102642331Y-89158124D01*
X102652472Y-89141217D01*
X102664232Y-89122026D01*
X102677006Y-89101520D01*
X102690191Y-89080667D01*
X102703182Y-89060435D01*
X102715374Y-89041792D01*
X102718449Y-89037160D01*
X102755281Y-88983859D01*
X102791663Y-88935202D01*
X102827540Y-88891246D01*
X102862860Y-88852052D01*
X102897566Y-88817677D01*
X102931607Y-88788181D01*
X102964926Y-88763623D01*
X102976680Y-88756036D01*
X103006330Y-88738993D01*
X103033844Y-88726197D01*
X103059782Y-88717591D01*
X103084703Y-88713115D01*
X103109168Y-88712713D01*
X103133736Y-88716325D01*
G37*
X103133736Y-88716325D02*
X103158967Y-88723893D01*
X103183690Y-88734516D01*
X103212126Y-88749634D01*
X103239539Y-88767063D01*
X103266663Y-88787362D01*
X103294233Y-88811088D01*
X103322984Y-88838800D01*
X103328534Y-88844452D01*
X103357025Y-88874886D01*
X103385135Y-88907381D01*
X103413174Y-88942360D01*
X103441452Y-88980244D01*
X103470279Y-89021456D01*
X103499964Y-89066419D01*
X103530817Y-89115554D01*
X103547048Y-89142268D01*
X103572839Y-89185146D01*
X103567984Y-89200688D01*
X103562217Y-89219872D01*
X103555379Y-89243919D01*
X103547494Y-89272733D01*
X103538587Y-89306215D01*
X103528682Y-89344270D01*
X103517804Y-89386799D01*
X103505977Y-89433705D01*
X103493226Y-89484892D01*
X103479574Y-89540261D01*
X103465048Y-89599717D01*
X103449670Y-89663162D01*
X103433466Y-89730498D01*
X103416459Y-89801628D01*
X103410998Y-89824560D01*
X103393907Y-89896235D01*
X103377855Y-89963214D01*
X103362773Y-90025755D01*
X103348593Y-90084120D01*
X103335248Y-90138568D01*
X103322668Y-90189361D01*
X103310786Y-90236758D01*
X103299533Y-90281020D01*
X103288842Y-90322408D01*
X103278644Y-90361181D01*
X103268871Y-90397601D01*
X103259455Y-90431928D01*
X103250327Y-90464421D01*
X103241420Y-90495343D01*
X103232666Y-90524952D01*
X103223995Y-90553510D01*
X103215340Y-90581277D01*
X103206633Y-90608513D01*
X103202204Y-90622120D01*
X103190237Y-90657666D01*
X103177828Y-90692654D01*
X103165228Y-90726454D01*
X103152690Y-90758436D01*
X103140468Y-90787972D01*
X103128814Y-90814432D01*
X103117980Y-90837187D01*
X103109010Y-90854209D01*
X103099200Y-90871669D01*
X103090152Y-90855479D01*
X103078116Y-90832402D01*
X103065216Y-90804792D01*
X103051617Y-90773092D01*
X103037485Y-90737744D01*
X103022986Y-90699189D01*
X103008285Y-90657871D01*
X102993548Y-90614230D01*
X102978941Y-90568710D01*
X102964628Y-90521752D01*
X102962761Y-90515440D01*
X102949714Y-90470270D01*
X102935800Y-90420366D01*
X102921088Y-90365984D01*
X102905647Y-90307382D01*
X102889547Y-90244819D01*
X102877704Y-90197940D01*
X102872634Y-90177698D01*
X102867829Y-90158456D01*
X102863195Y-90139820D01*
X102858637Y-90121399D01*
X102854060Y-90102801D01*
X102849370Y-90083636D01*
X102844473Y-90063510D01*
X102839274Y-90042033D01*
X102833678Y-90018813D01*
X102827590Y-89993458D01*
X102820917Y-89965576D01*
X102813563Y-89934776D01*
X102805435Y-89900667D01*
X102796437Y-89862855D01*
X102786475Y-89820951D01*
X102775454Y-89774562D01*
X102773454Y-89766140D01*
X102756649Y-89695636D01*
X102740844Y-89629860D01*
X102725977Y-89568570D01*
X102711989Y-89511525D01*
X102698818Y-89458484D01*
X102686405Y-89409206D01*
X102674688Y-89363451D01*
X102663607Y-89320976D01*
X102653101Y-89281541D01*
X102643111Y-89244906D01*
X102636535Y-89221310D01*
X102626534Y-89185750D01*
X102634414Y-89171780D01*
X102642331Y-89158124D01*
X102652472Y-89141217D01*
X102664232Y-89122026D01*
X102677006Y-89101520D01*
X102690191Y-89080667D01*
X102703182Y-89060435D01*
X102715374Y-89041792D01*
X102718449Y-89037160D01*
X102755281Y-88983859D01*
X102791663Y-88935202D01*
X102827540Y-88891246D01*
X102862860Y-88852052D01*
X102897566Y-88817677D01*
X102931607Y-88788181D01*
X102964926Y-88763623D01*
X102976680Y-88756036D01*
X103006330Y-88738993D01*
X103033844Y-88726197D01*
X103059782Y-88717591D01*
X103084703Y-88713115D01*
X103109168Y-88712713D01*
X103133736Y-88716325D01*
G36*
X99713707Y-88715242D02*
G01*
X99740375Y-88722319D01*
X99768137Y-88733738D01*
X99797495Y-88749480D01*
X99808030Y-88755876D01*
X99840568Y-88778397D01*
X99873917Y-88805875D01*
X99908034Y-88838256D01*
X99942875Y-88875491D01*
X99978397Y-88917526D01*
X100014555Y-88964310D01*
X100051308Y-89015792D01*
X100088610Y-89071919D01*
X100126418Y-89132641D01*
X100129557Y-89137851D01*
X100158002Y-89185186D01*
X100151046Y-89209598D01*
X100143085Y-89237910D01*
X100134696Y-89268491D01*
X100125825Y-89301560D01*
X100116415Y-89337335D01*
X100106413Y-89376036D01*
X100095764Y-89417880D01*
X100084413Y-89463088D01*
X100072304Y-89511877D01*
X100059383Y-89564468D01*
X100045596Y-89621078D01*
X100030887Y-89681926D01*
X100015201Y-89747232D01*
X99998484Y-89817214D01*
X99993408Y-89838530D01*
X99976282Y-89910314D01*
X99960185Y-89977402D01*
X99945047Y-90040055D01*
X99930799Y-90098539D01*
X99917372Y-90153115D01*
X99904696Y-90204047D01*
X99892702Y-90251598D01*
X99881321Y-90296031D01*
X99870484Y-90337609D01*
X99860121Y-90376596D01*
X99850163Y-90413254D01*
X99840540Y-90447847D01*
X99831184Y-90480637D01*
X99822025Y-90511889D01*
X99812994Y-90541865D01*
X99804021Y-90570828D01*
X99795038Y-90599042D01*
X99785974Y-90626769D01*
X99785411Y-90628470D01*
X99778303Y-90649568D01*
X99770613Y-90671804D01*
X99762783Y-90693942D01*
X99755252Y-90714745D01*
X99748464Y-90732976D01*
X99743693Y-90745310D01*
X99736984Y-90761768D01*
X99729652Y-90778981D01*
X99721998Y-90796317D01*
X99714322Y-90813146D01*
X99706924Y-90828838D01*
X99700106Y-90842761D01*
X99694167Y-90854285D01*
X99689409Y-90862780D01*
X99686132Y-90867616D01*
X99684971Y-90868500D01*
X99682955Y-90866347D01*
X99679200Y-90860430D01*
X99674176Y-90851558D01*
X99668353Y-90840539D01*
X99665930Y-90835759D01*
X99655372Y-90814083D01*
X99644910Y-90791332D01*
X99634490Y-90767319D01*
X99624058Y-90741858D01*
X99613559Y-90714763D01*
X99602940Y-90685849D01*
X99592147Y-90654929D01*
X99581125Y-90621816D01*
X99569822Y-90586325D01*
X99558182Y-90548271D01*
X99546152Y-90507465D01*
X99533678Y-90463724D01*
X99520706Y-90416860D01*
X99507182Y-90366688D01*
X99493052Y-90313021D01*
X99478262Y-90255673D01*
X99462758Y-90194459D01*
X99446486Y-90129191D01*
X99429392Y-90059685D01*
X99411422Y-89985754D01*
X99392522Y-89907212D01*
X99373708Y-89828370D01*
X99355309Y-89751265D01*
X99337772Y-89678333D01*
X99321121Y-89609663D01*
X99305378Y-89545347D01*
X99290565Y-89485476D01*
X99276705Y-89430141D01*
X99263821Y-89379434D01*
X99251935Y-89333445D01*
X99241071Y-89292265D01*
X99233717Y-89264999D01*
X99211695Y-89184229D01*
X99240388Y-89136729D01*
X99277700Y-89076638D01*
X99314105Y-89021435D01*
X99349680Y-88971024D01*
X99384506Y-88925309D01*
X99418661Y-88884195D01*
X99452224Y-88847585D01*
X99485276Y-88815385D01*
X99517895Y-88787498D01*
X99548530Y-88764931D01*
X99579188Y-88745591D01*
X99607925Y-88730698D01*
X99635243Y-88720234D01*
X99661644Y-88714182D01*
X99687631Y-88712524D01*
X99713707Y-88715242D01*
G37*
X99713707Y-88715242D02*
X99740375Y-88722319D01*
X99768137Y-88733738D01*
X99797495Y-88749480D01*
X99808030Y-88755876D01*
X99840568Y-88778397D01*
X99873917Y-88805875D01*
X99908034Y-88838256D01*
X99942875Y-88875491D01*
X99978397Y-88917526D01*
X100014555Y-88964310D01*
X100051308Y-89015792D01*
X100088610Y-89071919D01*
X100126418Y-89132641D01*
X100129557Y-89137851D01*
X100158002Y-89185186D01*
X100151046Y-89209598D01*
X100143085Y-89237910D01*
X100134696Y-89268491D01*
X100125825Y-89301560D01*
X100116415Y-89337335D01*
X100106413Y-89376036D01*
X100095764Y-89417880D01*
X100084413Y-89463088D01*
X100072304Y-89511877D01*
X100059383Y-89564468D01*
X100045596Y-89621078D01*
X100030887Y-89681926D01*
X100015201Y-89747232D01*
X99998484Y-89817214D01*
X99993408Y-89838530D01*
X99976282Y-89910314D01*
X99960185Y-89977402D01*
X99945047Y-90040055D01*
X99930799Y-90098539D01*
X99917372Y-90153115D01*
X99904696Y-90204047D01*
X99892702Y-90251598D01*
X99881321Y-90296031D01*
X99870484Y-90337609D01*
X99860121Y-90376596D01*
X99850163Y-90413254D01*
X99840540Y-90447847D01*
X99831184Y-90480637D01*
X99822025Y-90511889D01*
X99812994Y-90541865D01*
X99804021Y-90570828D01*
X99795038Y-90599042D01*
X99785974Y-90626769D01*
X99785411Y-90628470D01*
X99778303Y-90649568D01*
X99770613Y-90671804D01*
X99762783Y-90693942D01*
X99755252Y-90714745D01*
X99748464Y-90732976D01*
X99743693Y-90745310D01*
X99736984Y-90761768D01*
X99729652Y-90778981D01*
X99721998Y-90796317D01*
X99714322Y-90813146D01*
X99706924Y-90828838D01*
X99700106Y-90842761D01*
X99694167Y-90854285D01*
X99689409Y-90862780D01*
X99686132Y-90867616D01*
X99684971Y-90868500D01*
X99682955Y-90866347D01*
X99679200Y-90860430D01*
X99674176Y-90851558D01*
X99668353Y-90840539D01*
X99665930Y-90835759D01*
X99655372Y-90814083D01*
X99644910Y-90791332D01*
X99634490Y-90767319D01*
X99624058Y-90741858D01*
X99613559Y-90714763D01*
X99602940Y-90685849D01*
X99592147Y-90654929D01*
X99581125Y-90621816D01*
X99569822Y-90586325D01*
X99558182Y-90548271D01*
X99546152Y-90507465D01*
X99533678Y-90463724D01*
X99520706Y-90416860D01*
X99507182Y-90366688D01*
X99493052Y-90313021D01*
X99478262Y-90255673D01*
X99462758Y-90194459D01*
X99446486Y-90129191D01*
X99429392Y-90059685D01*
X99411422Y-89985754D01*
X99392522Y-89907212D01*
X99373708Y-89828370D01*
X99355309Y-89751265D01*
X99337772Y-89678333D01*
X99321121Y-89609663D01*
X99305378Y-89545347D01*
X99290565Y-89485476D01*
X99276705Y-89430141D01*
X99263821Y-89379434D01*
X99251935Y-89333445D01*
X99241071Y-89292265D01*
X99233717Y-89264999D01*
X99211695Y-89184229D01*
X99240388Y-89136729D01*
X99277700Y-89076638D01*
X99314105Y-89021435D01*
X99349680Y-88971024D01*
X99384506Y-88925309D01*
X99418661Y-88884195D01*
X99452224Y-88847585D01*
X99485276Y-88815385D01*
X99517895Y-88787498D01*
X99548530Y-88764931D01*
X99579188Y-88745591D01*
X99607925Y-88730698D01*
X99635243Y-88720234D01*
X99661644Y-88714182D01*
X99687631Y-88712524D01*
X99713707Y-88715242D01*
G36*
X100540357Y-88805701D02*
G01*
X100544005Y-88811914D01*
X100549022Y-88821446D01*
X100555087Y-88833622D01*
X100561883Y-88847768D01*
X100569089Y-88863210D01*
X100576387Y-88879273D01*
X100583457Y-88895283D01*
X100589981Y-88910567D01*
X100595487Y-88924065D01*
X100605532Y-88949901D01*
X100615450Y-88976373D01*
X100625301Y-89003707D01*
X100635148Y-89032131D01*
X100645055Y-89061869D01*
X100655083Y-89093149D01*
X100665295Y-89126198D01*
X100675753Y-89161241D01*
X100686521Y-89198505D01*
X100697660Y-89238217D01*
X100709233Y-89280603D01*
X100721304Y-89325889D01*
X100733933Y-89374302D01*
X100747185Y-89426069D01*
X100761120Y-89481415D01*
X100775803Y-89540567D01*
X100791295Y-89603752D01*
X100807659Y-89671196D01*
X100824958Y-89743126D01*
X100843253Y-89819767D01*
X100845601Y-89829640D01*
X100862113Y-89898944D01*
X100877582Y-89963574D01*
X100892083Y-90023810D01*
X100905688Y-90079934D01*
X100918469Y-90132228D01*
X100930499Y-90180972D01*
X100941851Y-90226449D01*
X100952598Y-90268939D01*
X100962811Y-90308725D01*
X100972565Y-90346087D01*
X100981930Y-90381306D01*
X100990981Y-90414666D01*
X100999790Y-90446446D01*
X101008429Y-90476928D01*
X101016972Y-90506393D01*
X101025490Y-90535124D01*
X101034057Y-90563401D01*
X101040373Y-90583887D01*
X101047125Y-90605292D01*
X101054428Y-90627855D01*
X101062005Y-90650758D01*
X101069574Y-90673183D01*
X101076857Y-90694314D01*
X101083573Y-90713333D01*
X101089442Y-90729422D01*
X101094185Y-90741764D01*
X101095535Y-90745064D01*
X101097860Y-90751391D01*
X101098751Y-90755458D01*
X101098615Y-90756051D01*
X101096842Y-90754454D01*
X101092537Y-90749371D01*
X101086184Y-90741408D01*
X101078264Y-90731169D01*
X101069258Y-90719258D01*
X101068464Y-90718196D01*
X101049607Y-90692535D01*
X101030889Y-90666183D01*
X101012199Y-90638935D01*
X100993424Y-90610584D01*
X100974454Y-90580924D01*
X100955176Y-90549750D01*
X100935478Y-90516854D01*
X100915250Y-90482032D01*
X100894379Y-90445078D01*
X100872754Y-90405784D01*
X100850263Y-90363945D01*
X100826795Y-90319356D01*
X100802238Y-90271810D01*
X100776480Y-90221101D01*
X100749410Y-90167023D01*
X100720915Y-90109371D01*
X100690885Y-90047937D01*
X100659208Y-89982517D01*
X100625771Y-89912903D01*
X100590464Y-89838891D01*
X100580032Y-89816940D01*
X100563924Y-89783113D01*
X100546772Y-89747271D01*
X100528944Y-89710171D01*
X100510807Y-89672573D01*
X100492730Y-89635234D01*
X100475080Y-89598915D01*
X100458226Y-89564372D01*
X100442534Y-89532366D01*
X100428373Y-89503655D01*
X100419373Y-89485533D01*
X100349777Y-89345897D01*
X100365606Y-89287413D01*
X100385914Y-89214155D01*
X100405823Y-89145921D01*
X100425346Y-89082670D01*
X100444495Y-89024364D01*
X100463284Y-88970961D01*
X100479053Y-88929210D01*
X100483849Y-88917406D01*
X100489741Y-88903622D01*
X100496404Y-88888544D01*
X100503515Y-88872858D01*
X100510748Y-88857251D01*
X100517779Y-88842412D01*
X100524286Y-88829025D01*
X100529942Y-88817780D01*
X100534424Y-88809361D01*
X100537407Y-88804457D01*
X100538397Y-88803480D01*
X100540357Y-88805701D01*
G37*
X100540357Y-88805701D02*
X100544005Y-88811914D01*
X100549022Y-88821446D01*
X100555087Y-88833622D01*
X100561883Y-88847768D01*
X100569089Y-88863210D01*
X100576387Y-88879273D01*
X100583457Y-88895283D01*
X100589981Y-88910567D01*
X100595487Y-88924065D01*
X100605532Y-88949901D01*
X100615450Y-88976373D01*
X100625301Y-89003707D01*
X100635148Y-89032131D01*
X100645055Y-89061869D01*
X100655083Y-89093149D01*
X100665295Y-89126198D01*
X100675753Y-89161241D01*
X100686521Y-89198505D01*
X100697660Y-89238217D01*
X100709233Y-89280603D01*
X100721304Y-89325889D01*
X100733933Y-89374302D01*
X100747185Y-89426069D01*
X100761120Y-89481415D01*
X100775803Y-89540567D01*
X100791295Y-89603752D01*
X100807659Y-89671196D01*
X100824958Y-89743126D01*
X100843253Y-89819767D01*
X100845601Y-89829640D01*
X100862113Y-89898944D01*
X100877582Y-89963574D01*
X100892083Y-90023810D01*
X100905688Y-90079934D01*
X100918469Y-90132228D01*
X100930499Y-90180972D01*
X100941851Y-90226449D01*
X100952598Y-90268939D01*
X100962811Y-90308725D01*
X100972565Y-90346087D01*
X100981930Y-90381306D01*
X100990981Y-90414666D01*
X100999790Y-90446446D01*
X101008429Y-90476928D01*
X101016972Y-90506393D01*
X101025490Y-90535124D01*
X101034057Y-90563401D01*
X101040373Y-90583887D01*
X101047125Y-90605292D01*
X101054428Y-90627855D01*
X101062005Y-90650758D01*
X101069574Y-90673183D01*
X101076857Y-90694314D01*
X101083573Y-90713333D01*
X101089442Y-90729422D01*
X101094185Y-90741764D01*
X101095535Y-90745064D01*
X101097860Y-90751391D01*
X101098751Y-90755458D01*
X101098615Y-90756051D01*
X101096842Y-90754454D01*
X101092537Y-90749371D01*
X101086184Y-90741408D01*
X101078264Y-90731169D01*
X101069258Y-90719258D01*
X101068464Y-90718196D01*
X101049607Y-90692535D01*
X101030889Y-90666183D01*
X101012199Y-90638935D01*
X100993424Y-90610584D01*
X100974454Y-90580924D01*
X100955176Y-90549750D01*
X100935478Y-90516854D01*
X100915250Y-90482032D01*
X100894379Y-90445078D01*
X100872754Y-90405784D01*
X100850263Y-90363945D01*
X100826795Y-90319356D01*
X100802238Y-90271810D01*
X100776480Y-90221101D01*
X100749410Y-90167023D01*
X100720915Y-90109371D01*
X100690885Y-90047937D01*
X100659208Y-89982517D01*
X100625771Y-89912903D01*
X100590464Y-89838891D01*
X100580032Y-89816940D01*
X100563924Y-89783113D01*
X100546772Y-89747271D01*
X100528944Y-89710171D01*
X100510807Y-89672573D01*
X100492730Y-89635234D01*
X100475080Y-89598915D01*
X100458226Y-89564372D01*
X100442534Y-89532366D01*
X100428373Y-89503655D01*
X100419373Y-89485533D01*
X100349777Y-89345897D01*
X100365606Y-89287413D01*
X100385914Y-89214155D01*
X100405823Y-89145921D01*
X100425346Y-89082670D01*
X100444495Y-89024364D01*
X100463284Y-88970961D01*
X100479053Y-88929210D01*
X100483849Y-88917406D01*
X100489741Y-88903622D01*
X100496404Y-88888544D01*
X100503515Y-88872858D01*
X100510748Y-88857251D01*
X100517779Y-88842412D01*
X100524286Y-88829025D01*
X100529942Y-88817780D01*
X100534424Y-88809361D01*
X100537407Y-88804457D01*
X100538397Y-88803480D01*
X100540357Y-88805701D01*
G36*
X102249775Y-88809668D02*
G01*
X102253725Y-88816182D01*
X102258949Y-88826402D01*
X102260985Y-88830421D01*
X102276478Y-88862381D01*
X102292038Y-88897600D01*
X102307741Y-88936297D01*
X102323664Y-88978689D01*
X102339882Y-89024994D01*
X102356471Y-89075432D01*
X102373508Y-89130218D01*
X102391068Y-89189572D01*
X102409228Y-89253711D01*
X102411784Y-89262945D01*
X102417034Y-89282117D01*
X102421815Y-89299875D01*
X102425962Y-89315585D01*
X102429312Y-89328612D01*
X102431701Y-89338324D01*
X102432962Y-89344084D01*
X102433120Y-89345265D01*
X102431992Y-89348766D01*
X102428807Y-89356141D01*
X102423866Y-89366763D01*
X102417465Y-89380005D01*
X102409904Y-89395239D01*
X102401482Y-89411839D01*
X102400334Y-89414075D01*
X102389952Y-89434405D01*
X102378824Y-89456462D01*
X102366826Y-89480502D01*
X102353834Y-89506782D01*
X102339724Y-89535558D01*
X102324371Y-89567087D01*
X102307650Y-89601625D01*
X102289437Y-89639428D01*
X102269607Y-89680754D01*
X102248037Y-89725859D01*
X102224602Y-89774999D01*
X102199176Y-89828431D01*
X102193169Y-89841070D01*
X102159371Y-89912000D01*
X102127483Y-89978508D01*
X102097381Y-90040830D01*
X102068941Y-90099199D01*
X102042042Y-90153849D01*
X102016559Y-90205014D01*
X101992369Y-90252930D01*
X101969350Y-90297830D01*
X101947377Y-90339948D01*
X101926329Y-90379519D01*
X101906081Y-90416777D01*
X101886510Y-90451955D01*
X101867494Y-90485290D01*
X101848909Y-90517014D01*
X101830631Y-90547362D01*
X101812538Y-90576568D01*
X101794507Y-90604867D01*
X101779079Y-90628470D01*
X101766772Y-90646859D01*
X101754284Y-90665110D01*
X101741937Y-90682788D01*
X101730053Y-90699458D01*
X101718956Y-90714686D01*
X101708967Y-90728036D01*
X101700410Y-90739073D01*
X101693606Y-90747363D01*
X101688878Y-90752471D01*
X101686549Y-90753961D01*
X101686360Y-90753513D01*
X101687198Y-90750916D01*
X101689512Y-90744402D01*
X101692995Y-90734812D01*
X101697345Y-90722987D01*
X101699973Y-90715898D01*
X101709055Y-90691044D01*
X101718083Y-90665458D01*
X101727118Y-90638921D01*
X101736217Y-90611212D01*
X101745440Y-90582111D01*
X101754847Y-90551398D01*
X101764496Y-90518852D01*
X101774446Y-90484253D01*
X101784758Y-90447381D01*
X101795489Y-90408016D01*
X101806700Y-90365937D01*
X101818449Y-90320925D01*
X101830796Y-90272758D01*
X101843800Y-90221217D01*
X101857520Y-90166082D01*
X101872015Y-90107131D01*
X101887344Y-90044146D01*
X101903567Y-89976905D01*
X101920743Y-89905188D01*
X101938930Y-89828776D01*
X101942944Y-89811860D01*
X101956315Y-89755670D01*
X101969541Y-89700475D01*
X101982523Y-89646680D01*
X101995159Y-89594692D01*
X102007351Y-89544915D01*
X102018998Y-89497755D01*
X102030000Y-89453618D01*
X102040257Y-89412910D01*
X102049668Y-89376036D01*
X102058134Y-89343402D01*
X102063887Y-89321640D01*
X102083839Y-89248436D01*
X102103270Y-89180243D01*
X102122193Y-89117020D01*
X102140622Y-89058723D01*
X102158571Y-89005314D01*
X102176055Y-88956749D01*
X102193087Y-88912987D01*
X102209680Y-88873988D01*
X102225850Y-88839710D01*
X102227240Y-88836943D01*
X102234205Y-88823106D01*
X102239315Y-88813581D01*
X102243196Y-88808247D01*
X102246474Y-88806983D01*
X102249775Y-88809668D01*
G37*
X102249775Y-88809668D02*
X102253725Y-88816182D01*
X102258949Y-88826402D01*
X102260985Y-88830421D01*
X102276478Y-88862381D01*
X102292038Y-88897600D01*
X102307741Y-88936297D01*
X102323664Y-88978689D01*
X102339882Y-89024994D01*
X102356471Y-89075432D01*
X102373508Y-89130218D01*
X102391068Y-89189572D01*
X102409228Y-89253711D01*
X102411784Y-89262945D01*
X102417034Y-89282117D01*
X102421815Y-89299875D01*
X102425962Y-89315585D01*
X102429312Y-89328612D01*
X102431701Y-89338324D01*
X102432962Y-89344084D01*
X102433120Y-89345265D01*
X102431992Y-89348766D01*
X102428807Y-89356141D01*
X102423866Y-89366763D01*
X102417465Y-89380005D01*
X102409904Y-89395239D01*
X102401482Y-89411839D01*
X102400334Y-89414075D01*
X102389952Y-89434405D01*
X102378824Y-89456462D01*
X102366826Y-89480502D01*
X102353834Y-89506782D01*
X102339724Y-89535558D01*
X102324371Y-89567087D01*
X102307650Y-89601625D01*
X102289437Y-89639428D01*
X102269607Y-89680754D01*
X102248037Y-89725859D01*
X102224602Y-89774999D01*
X102199176Y-89828431D01*
X102193169Y-89841070D01*
X102159371Y-89912000D01*
X102127483Y-89978508D01*
X102097381Y-90040830D01*
X102068941Y-90099199D01*
X102042042Y-90153849D01*
X102016559Y-90205014D01*
X101992369Y-90252930D01*
X101969350Y-90297830D01*
X101947377Y-90339948D01*
X101926329Y-90379519D01*
X101906081Y-90416777D01*
X101886510Y-90451955D01*
X101867494Y-90485290D01*
X101848909Y-90517014D01*
X101830631Y-90547362D01*
X101812538Y-90576568D01*
X101794507Y-90604867D01*
X101779079Y-90628470D01*
X101766772Y-90646859D01*
X101754284Y-90665110D01*
X101741937Y-90682788D01*
X101730053Y-90699458D01*
X101718956Y-90714686D01*
X101708967Y-90728036D01*
X101700410Y-90739073D01*
X101693606Y-90747363D01*
X101688878Y-90752471D01*
X101686549Y-90753961D01*
X101686360Y-90753513D01*
X101687198Y-90750916D01*
X101689512Y-90744402D01*
X101692995Y-90734812D01*
X101697345Y-90722987D01*
X101699973Y-90715898D01*
X101709055Y-90691044D01*
X101718083Y-90665458D01*
X101727118Y-90638921D01*
X101736217Y-90611212D01*
X101745440Y-90582111D01*
X101754847Y-90551398D01*
X101764496Y-90518852D01*
X101774446Y-90484253D01*
X101784758Y-90447381D01*
X101795489Y-90408016D01*
X101806700Y-90365937D01*
X101818449Y-90320925D01*
X101830796Y-90272758D01*
X101843800Y-90221217D01*
X101857520Y-90166082D01*
X101872015Y-90107131D01*
X101887344Y-90044146D01*
X101903567Y-89976905D01*
X101920743Y-89905188D01*
X101938930Y-89828776D01*
X101942944Y-89811860D01*
X101956315Y-89755670D01*
X101969541Y-89700475D01*
X101982523Y-89646680D01*
X101995159Y-89594692D01*
X102007351Y-89544915D01*
X102018998Y-89497755D01*
X102030000Y-89453618D01*
X102040257Y-89412910D01*
X102049668Y-89376036D01*
X102058134Y-89343402D01*
X102063887Y-89321640D01*
X102083839Y-89248436D01*
X102103270Y-89180243D01*
X102122193Y-89117020D01*
X102140622Y-89058723D01*
X102158571Y-89005314D01*
X102176055Y-88956749D01*
X102193087Y-88912987D01*
X102209680Y-88873988D01*
X102225850Y-88839710D01*
X102227240Y-88836943D01*
X102234205Y-88823106D01*
X102239315Y-88813581D01*
X102243196Y-88808247D01*
X102246474Y-88806983D01*
X102249775Y-88809668D01*
D16*
X144041000Y-75996000D02*
G75*
G03*
X144041000Y-75996000I-100000J0D01*
G01*
D17*
X145116000Y-74578000D02*
X148116000Y-74578000D01*
X148116000Y-74578000D02*
X148116000Y-81378000D01*
X148116000Y-81378000D02*
X145116000Y-81378000D01*
X145116000Y-74578000D02*
X145116000Y-75278000D01*
X145116000Y-81378000D02*
X145116000Y-80678000D01*
D12*
X128584000Y-72076000D02*
X128584000Y-73406000D01*
X127254000Y-72076000D02*
X128584000Y-72076000D01*
X125984000Y-72076000D02*
X125984000Y-74736000D01*
X125984000Y-74736000D02*
X123384000Y-74736000D01*
X125984000Y-72076000D02*
X123384000Y-72076000D01*
X123384000Y-72076000D02*
X123384000Y-74736000D01*
X106904000Y-105296740D02*
X106904000Y-103746740D01*
X114904000Y-105296740D02*
X115204000Y-105296740D01*
X115204000Y-105296740D02*
X115204000Y-103746740D01*
X107204000Y-108096740D02*
X107204000Y-105296740D01*
X114904000Y-108096740D02*
X114904000Y-105296740D01*
X110154000Y-102046740D02*
X109754000Y-102496740D01*
X109754000Y-102496740D02*
X109354000Y-102046740D01*
X106904000Y-105296740D02*
X107204000Y-105296740D01*
X109354000Y-102046740D02*
X110154000Y-102046740D01*
X121726000Y-74736000D02*
X121726000Y-72076000D01*
X119126000Y-74736000D02*
X121726000Y-74736000D01*
X119126000Y-72076000D02*
X121726000Y-72076000D01*
X119126000Y-74736000D02*
X119126000Y-72076000D01*
X117856000Y-74736000D02*
X116526000Y-74736000D01*
X116526000Y-74736000D02*
X116526000Y-73406000D01*
X97596000Y-85658000D02*
X96266000Y-85658000D01*
X97596000Y-84328000D02*
X97596000Y-85658000D01*
X97596000Y-83058000D02*
X94936000Y-83058000D01*
X94936000Y-83058000D02*
X94936000Y-70298000D01*
X97596000Y-83058000D02*
X97596000Y-70298000D01*
X97596000Y-70298000D02*
X94936000Y-70298000D01*
X101533000Y-70298000D02*
X98873000Y-70298000D01*
X101533000Y-83058000D02*
X101533000Y-70298000D01*
X98873000Y-83058000D02*
X98873000Y-70298000D01*
X101533000Y-83058000D02*
X98873000Y-83058000D01*
X101533000Y-84328000D02*
X101533000Y-85658000D01*
X101533000Y-85658000D02*
X100203000Y-85658000D01*
D10*
X146050047Y-73259190D02*
X146050047Y-73663952D01*
X146073857Y-73711571D01*
X146097666Y-73735380D01*
X146145285Y-73759190D01*
X146240523Y-73759190D01*
X146288142Y-73735380D01*
X146311952Y-73711571D01*
X146335761Y-73663952D01*
X146335761Y-73259190D01*
X146526238Y-73259190D02*
X146835761Y-73259190D01*
X146669095Y-73449666D01*
X146740523Y-73449666D01*
X146788142Y-73473476D01*
X146811952Y-73497285D01*
X146835761Y-73544904D01*
X146835761Y-73663952D01*
X146811952Y-73711571D01*
X146788142Y-73735380D01*
X146740523Y-73759190D01*
X146597666Y-73759190D01*
X146550047Y-73735380D01*
X146526238Y-73711571D01*
X129373333Y-73132190D02*
X129373333Y-73489333D01*
X129349523Y-73560761D01*
X129301904Y-73608380D01*
X129230476Y-73632190D01*
X129182857Y-73632190D01*
X129873333Y-73632190D02*
X129587619Y-73632190D01*
X129730476Y-73632190D02*
X129730476Y-73132190D01*
X129682857Y-73203619D01*
X129635238Y-73251238D01*
X129587619Y-73275047D01*
X115776433Y-104882190D02*
X115776433Y-105239333D01*
X115752623Y-105310761D01*
X115705004Y-105358380D01*
X115633576Y-105382190D01*
X115585957Y-105382190D01*
X115966909Y-104882190D02*
X116276433Y-104882190D01*
X116109766Y-105072666D01*
X116181195Y-105072666D01*
X116228814Y-105096476D01*
X116252623Y-105120285D01*
X116276433Y-105167904D01*
X116276433Y-105286952D01*
X116252623Y-105334571D01*
X116228814Y-105358380D01*
X116181195Y-105382190D01*
X116038338Y-105382190D01*
X115990719Y-105358380D01*
X115966909Y-105334571D01*
X115359333Y-73132190D02*
X115359333Y-73489333D01*
X115335523Y-73560761D01*
X115287904Y-73608380D01*
X115216476Y-73632190D01*
X115168857Y-73632190D01*
X115811714Y-73298857D02*
X115811714Y-73632190D01*
X115692666Y-73108380D02*
X115573619Y-73465523D01*
X115883142Y-73465523D01*
X96099333Y-86384190D02*
X96099333Y-86741333D01*
X96075523Y-86812761D01*
X96027904Y-86860380D01*
X95956476Y-86884190D01*
X95908857Y-86884190D01*
X96575523Y-86384190D02*
X96337428Y-86384190D01*
X96313619Y-86622285D01*
X96337428Y-86598476D01*
X96385047Y-86574666D01*
X96504095Y-86574666D01*
X96551714Y-86598476D01*
X96575523Y-86622285D01*
X96599333Y-86669904D01*
X96599333Y-86788952D01*
X96575523Y-86836571D01*
X96551714Y-86860380D01*
X96504095Y-86884190D01*
X96385047Y-86884190D01*
X96337428Y-86860380D01*
X96313619Y-86836571D01*
X100036333Y-86384190D02*
X100036333Y-86741333D01*
X100012523Y-86812761D01*
X99964904Y-86860380D01*
X99893476Y-86884190D01*
X99845857Y-86884190D01*
X100488714Y-86384190D02*
X100393476Y-86384190D01*
X100345857Y-86408000D01*
X100322047Y-86431809D01*
X100274428Y-86503238D01*
X100250619Y-86598476D01*
X100250619Y-86788952D01*
X100274428Y-86836571D01*
X100298238Y-86860380D01*
X100345857Y-86884190D01*
X100441095Y-86884190D01*
X100488714Y-86860380D01*
X100512523Y-86836571D01*
X100536333Y-86788952D01*
X100536333Y-86669904D01*
X100512523Y-86622285D01*
X100488714Y-86598476D01*
X100441095Y-86574666D01*
X100345857Y-86574666D01*
X100298238Y-86598476D01*
X100274428Y-86622285D01*
X100250619Y-86669904D01*
M02*
