G04 #@! TF.GenerationSoftware,KiCad,Pcbnew,(5.1.6)-1*
G04 #@! TF.CreationDate,2021-11-15T16:50:44+01:00*
G04 #@! TF.ProjectId,Power_module_v1,506f7765-725f-46d6-9f64-756c655f7631,rev?*
G04 #@! TF.SameCoordinates,Original*
G04 #@! TF.FileFunction,Copper,L1,Top*
G04 #@! TF.FilePolarity,Positive*
%FSLAX46Y46*%
G04 Gerber Fmt 4.6, Leading zero omitted, Abs format (unit mm)*
G04 Created by KiCad (PCBNEW (5.1.6)-1) date 2021-11-15 16:50:44*
%MOMM*%
%LPD*%
G01*
G04 APERTURE LIST*
G04 #@! TA.AperFunction,SMDPad,CuDef*
%ADD10R,1.000000X2.500000*%
G04 #@! TD*
G04 #@! TA.AperFunction,SMDPad,CuDef*
%ADD11R,1.600000X0.700000*%
G04 #@! TD*
G04 #@! TA.AperFunction,ComponentPad*
%ADD12R,1.700000X1.700000*%
G04 #@! TD*
G04 #@! TA.AperFunction,ComponentPad*
%ADD13O,1.700000X1.700000*%
G04 #@! TD*
G04 #@! TA.AperFunction,SMDPad,CuDef*
%ADD14R,1.430000X2.500000*%
G04 #@! TD*
G04 #@! TA.AperFunction,SMDPad,CuDef*
%ADD15R,2.000000X1.500000*%
G04 #@! TD*
G04 #@! TA.AperFunction,SMDPad,CuDef*
%ADD16R,1.350000X2.000000*%
G04 #@! TD*
G04 #@! TA.AperFunction,SMDPad,CuDef*
%ADD17R,0.400000X1.650000*%
G04 #@! TD*
G04 #@! TA.AperFunction,ComponentPad*
%ADD18O,1.350000X1.700000*%
G04 #@! TD*
G04 #@! TA.AperFunction,ComponentPad*
%ADD19O,1.100000X1.500000*%
G04 #@! TD*
G04 #@! TA.AperFunction,SMDPad,CuDef*
%ADD20R,1.825000X0.700000*%
G04 #@! TD*
G04 #@! TA.AperFunction,SMDPad,CuDef*
%ADD21R,1.700000X1.700000*%
G04 #@! TD*
G04 #@! TA.AperFunction,SMDPad,CuDef*
%ADD22O,1.700000X1.700000*%
G04 #@! TD*
G04 #@! TA.AperFunction,ComponentPad*
%ADD23R,1.600000X1.600000*%
G04 #@! TD*
G04 #@! TA.AperFunction,ComponentPad*
%ADD24C,1.600000*%
G04 #@! TD*
G04 #@! TA.AperFunction,ViaPad*
%ADD25C,0.800000*%
G04 #@! TD*
G04 #@! TA.AperFunction,ViaPad*
%ADD26C,0.400000*%
G04 #@! TD*
G04 #@! TA.AperFunction,Conductor*
%ADD27C,0.254000*%
G04 #@! TD*
G04 #@! TA.AperFunction,Conductor*
%ADD28C,0.500000*%
G04 #@! TD*
G04 #@! TA.AperFunction,Conductor*
%ADD29C,0.250000*%
G04 #@! TD*
G04 #@! TA.AperFunction,Conductor*
%ADD30C,0.200000*%
G04 #@! TD*
G04 #@! TA.AperFunction,Conductor*
%ADD31C,0.300000*%
G04 #@! TD*
G04 #@! TA.AperFunction,Conductor*
%ADD32C,1.000000*%
G04 #@! TD*
G04 APERTURE END LIST*
D10*
X119888000Y-101214000D03*
X119888000Y-97514000D03*
X122428000Y-101214000D03*
X122428000Y-97514000D03*
X124968000Y-101214000D03*
X124968000Y-97514000D03*
D11*
X145516000Y-76073000D03*
X145516000Y-77343000D03*
X145516000Y-78613000D03*
X145516000Y-79883000D03*
D12*
X127254000Y-73406000D03*
D13*
X124714000Y-73406000D03*
D14*
X110094000Y-106746740D03*
D15*
X108204000Y-103496740D03*
D16*
X113804000Y-105546740D03*
X108324000Y-105546740D03*
D17*
X111054000Y-103596740D03*
D18*
X114554000Y-106476740D03*
D19*
X108634000Y-103476740D03*
X113474000Y-103476740D03*
D17*
X112354000Y-103596740D03*
X111704000Y-103596740D03*
D20*
X114054000Y-104796740D03*
D17*
X109754000Y-103596740D03*
D15*
X113954000Y-103476740D03*
D20*
X108104000Y-104796740D03*
D17*
X110404000Y-103596740D03*
D18*
X107554000Y-106476740D03*
D14*
X112014000Y-106746740D03*
D13*
X120396000Y-73406000D03*
D12*
X117856000Y-73406000D03*
D21*
X96266000Y-84328000D03*
D22*
X96266000Y-81788000D03*
X96266000Y-79248000D03*
X96266000Y-76708000D03*
X96266000Y-74168000D03*
X96266000Y-71628000D03*
D13*
X100203000Y-71628000D03*
X100203000Y-74168000D03*
X100203000Y-76708000D03*
X100203000Y-79248000D03*
X100203000Y-81788000D03*
D12*
X100203000Y-84328000D03*
D23*
X120904000Y-82296000D03*
D24*
X120904000Y-79796000D03*
D25*
X127381000Y-106426000D03*
X130810000Y-78740000D03*
X129794000Y-80264000D03*
X112268000Y-71120000D03*
X153670000Y-74930000D03*
D26*
X106934000Y-93726000D03*
X106934000Y-92710000D03*
X136652000Y-88900000D03*
X138176000Y-88900000D03*
X136652000Y-89662000D03*
X136652000Y-90424000D03*
X138176000Y-89662000D03*
X138176000Y-90424000D03*
X137414000Y-88900000D03*
X137414000Y-89662000D03*
X137414000Y-90424000D03*
D25*
X141224000Y-87884000D03*
X132334000Y-88392000D03*
X132080000Y-86868000D03*
X132842000Y-87630000D03*
X133604000Y-88392000D03*
X140208000Y-87884000D03*
X141478000Y-86868000D03*
X102870000Y-81026000D03*
X115062000Y-97536000D03*
X93700000Y-77400000D03*
X95250000Y-88900000D03*
X129286000Y-78740000D03*
X148336000Y-90170000D03*
X150368000Y-86868000D03*
X113030000Y-78740000D03*
X143510000Y-71120000D03*
X137160000Y-71120000D03*
X130810000Y-71120000D03*
X124460000Y-71120000D03*
X118110000Y-71120000D03*
X106680000Y-71120000D03*
X91100000Y-82500000D03*
X93218000Y-70358000D03*
X91400000Y-73200000D03*
X147320000Y-78994000D03*
X119380000Y-90170000D03*
X123444000Y-80010000D03*
X123444000Y-78486000D03*
X127000000Y-99568000D03*
X127000000Y-101346000D03*
X127000000Y-102870000D03*
X118110000Y-101854000D03*
X118110000Y-103124000D03*
X109474000Y-74676000D03*
X103632000Y-74676000D03*
X116078000Y-74930000D03*
X122682000Y-74930000D03*
X152400000Y-83312000D03*
X105918000Y-107188000D03*
X151638000Y-70866000D03*
X112522000Y-85090000D03*
X112522000Y-81788000D03*
X99822000Y-86868000D03*
X119126000Y-88138000D03*
X124460000Y-79248000D03*
X134366000Y-101600000D03*
X130302000Y-101600000D03*
X116586000Y-107188000D03*
X116586000Y-104394000D03*
X107696000Y-87884000D03*
X106934000Y-91948000D03*
X98343040Y-92156960D03*
X106934000Y-96774000D03*
X112268000Y-96266000D03*
X115824000Y-100330000D03*
X100838000Y-89916000D03*
X116332000Y-102108000D03*
X125730000Y-105664000D03*
X119126000Y-105410000D03*
X103378000Y-102870000D03*
X104648000Y-104902000D03*
X141986000Y-101727000D03*
X135736453Y-104953851D03*
X131572000Y-53340000D03*
X122428000Y-52832000D03*
X112776000Y-52832000D03*
X103124000Y-60960000D03*
X112776000Y-60960000D03*
X122428000Y-61468000D03*
X131572000Y-60960000D03*
X141732000Y-60960000D03*
X107188000Y-66548000D03*
X137160000Y-66548000D03*
X144018000Y-92456000D03*
X140970000Y-92927000D03*
X102362000Y-95758000D03*
X117094000Y-100584000D03*
X113538000Y-96266000D03*
X133858000Y-78994000D03*
X133858000Y-80010000D03*
X106680000Y-80264000D03*
X137330343Y-86387491D03*
X136753600Y-85725000D03*
X96520000Y-91694000D03*
X143764000Y-86360000D03*
X145034000Y-85852000D03*
X140617923Y-88937000D03*
X93472000Y-81026000D03*
X116446067Y-90817933D03*
X127762000Y-90678000D03*
X120904000Y-100076000D03*
X123893256Y-95816744D03*
X123786001Y-97447999D03*
X139446000Y-92202000D03*
X139446000Y-79248000D03*
X141032228Y-89848685D03*
X140716000Y-91186000D03*
X137795000Y-103378000D03*
X131826000Y-101854000D03*
X117094000Y-99314000D03*
X120988002Y-96774000D03*
X123444000Y-100838000D03*
X103378000Y-86106000D03*
X122428000Y-91948000D03*
X112776000Y-88392000D03*
X111760000Y-87884000D03*
X102736933Y-78619067D03*
X115570000Y-94234000D03*
X123704067Y-94240067D03*
X133096000Y-90932000D03*
X129540000Y-90932000D03*
X129540000Y-89408000D03*
X133858000Y-89387000D03*
X129032000Y-88392000D03*
X132842000Y-89895000D03*
X137414000Y-93472000D03*
X134366000Y-93980000D03*
X105664000Y-91694000D03*
X101092000Y-99314000D03*
X101600000Y-97790000D03*
X109728000Y-91948000D03*
X147320000Y-75692000D03*
X132334000Y-73660000D03*
X121920000Y-93582999D03*
X147320000Y-76962000D03*
X123698000Y-90932000D03*
X131572000Y-71882000D03*
X148336000Y-72390000D03*
X132334000Y-72644000D03*
X121158000Y-92456000D03*
D27*
X100203000Y-79248000D02*
X96266000Y-79248000D01*
X100203000Y-79248000D02*
X101981000Y-81026000D01*
X101981000Y-81026000D02*
X102870000Y-81026000D01*
X145516000Y-78613000D02*
X146939000Y-78613000D01*
X146939000Y-78613000D02*
X147320000Y-78994000D01*
X119380000Y-90170000D02*
X118364000Y-90170000D01*
X114842999Y-96485001D02*
X114808000Y-96520000D01*
X118364000Y-90170000D02*
X114842999Y-93691001D01*
D28*
X122428000Y-97514000D02*
X122428000Y-96764000D01*
X122428000Y-96951008D02*
X121269991Y-95792999D01*
X122428000Y-97514000D02*
X122428000Y-96951008D01*
D27*
X114842999Y-95792999D02*
X114842999Y-96485001D01*
X114842999Y-93691001D02*
X114842999Y-95792999D01*
D28*
X116620999Y-95977001D02*
X115062000Y-97536000D01*
X116620999Y-95792999D02*
X116620999Y-95977001D01*
X121269991Y-95792999D02*
X116620999Y-95792999D01*
X116620999Y-95792999D02*
X114842999Y-95792999D01*
X115062000Y-96012000D02*
X114842999Y-95792999D01*
X115062000Y-97536000D02*
X115062000Y-96012000D01*
X114719999Y-97193999D02*
X115062000Y-97536000D01*
X114719999Y-93825999D02*
X114719999Y-97193999D01*
X118375998Y-90170000D02*
X114719999Y-93825999D01*
X119380000Y-90170000D02*
X118375998Y-90170000D01*
X115062000Y-97536000D02*
X116078000Y-98552000D01*
X116078000Y-98552000D02*
X116078000Y-100584000D01*
X116078000Y-98298000D02*
X116078000Y-98552000D01*
X112354000Y-102271740D02*
X113279740Y-101346000D01*
X112354000Y-103596740D02*
X112354000Y-102271740D01*
X114808000Y-101346000D02*
X115824000Y-100330000D01*
X113279740Y-101346000D02*
X114808000Y-101346000D01*
D29*
X131954010Y-103252010D02*
X130302000Y-101600000D01*
X131954010Y-105028415D02*
X131954010Y-103252010D01*
X132671605Y-105746010D02*
X131954010Y-105028415D01*
X134944294Y-105746010D02*
X132671605Y-105746010D01*
X135736453Y-104953851D02*
X134944294Y-105746010D01*
D30*
X140970000Y-92927000D02*
X143547000Y-92927000D01*
X143547000Y-92927000D02*
X144018000Y-92456000D01*
D28*
X104567990Y-97963990D02*
X104267000Y-97663000D01*
X104267000Y-97663000D02*
X102362000Y-95758000D01*
X110333192Y-97963990D02*
X104567990Y-97963990D01*
D27*
X127094961Y-103851001D02*
X117118963Y-103851001D01*
X129286000Y-101659962D02*
X127094961Y-103851001D01*
X129286000Y-95250000D02*
X129286000Y-101659962D01*
X140570001Y-93363999D02*
X138684000Y-95250000D01*
X140570001Y-93326999D02*
X140570001Y-93363999D01*
X138684000Y-95250000D02*
X129286000Y-95250000D01*
X140970000Y-92927000D02*
X140570001Y-93326999D01*
X117118963Y-100608963D02*
X117094000Y-100584000D01*
X117118963Y-103851001D02*
X117118963Y-100608963D01*
X111840010Y-97963990D02*
X110333192Y-97963990D01*
X113538000Y-96266000D02*
X111840010Y-97963990D01*
D28*
X109754000Y-102271740D02*
X109754000Y-103596740D01*
X111379990Y-100645750D02*
X109754000Y-102271740D01*
X111379990Y-98932010D02*
X111379990Y-100645750D01*
X110920212Y-98551010D02*
X110998990Y-98551010D01*
X110998990Y-98551010D02*
X111379990Y-98932010D01*
X110333192Y-97963990D02*
X110920212Y-98551010D01*
D27*
X106680000Y-80264000D02*
X105156000Y-78740000D01*
D28*
X133858000Y-78994000D02*
X133858000Y-82888000D01*
X133858000Y-82888000D02*
X136457600Y-85487600D01*
D27*
X137332434Y-86385400D02*
X137330343Y-86387491D01*
X137414000Y-86385400D02*
X137332434Y-86385400D01*
X136457600Y-85505200D02*
X136533800Y-85505200D01*
X136457600Y-85487600D02*
X136457600Y-85505200D01*
X136533800Y-85505200D02*
X136753600Y-85725000D01*
D31*
X136753600Y-85725000D02*
X137414000Y-86385400D01*
D28*
X133858000Y-76962000D02*
X133858000Y-76708000D01*
X92621999Y-83194001D02*
X92621999Y-73347999D01*
X96100001Y-86672003D02*
X92621999Y-83194001D01*
X92621999Y-73347999D02*
X95641999Y-70327999D01*
D32*
X117856000Y-73406000D02*
X117856000Y-73002002D01*
D28*
X133858000Y-76962000D02*
X133858000Y-77470000D01*
X133858000Y-77470000D02*
X133858000Y-80010000D01*
D27*
X105156000Y-78740000D02*
X105156000Y-78232000D01*
X102271997Y-75347997D02*
X102271997Y-70327999D01*
X105156000Y-78232000D02*
X102271997Y-75347997D01*
D28*
X101569999Y-70327999D02*
X101627999Y-70269999D01*
X101569999Y-70327999D02*
X102271997Y-70327999D01*
X131991999Y-70269999D02*
X133858000Y-72136000D01*
X95641999Y-70327999D02*
X101569999Y-70327999D01*
X133858000Y-76962000D02*
X133858000Y-72136000D01*
X117259999Y-70347997D02*
X117182001Y-70269999D01*
X117856000Y-73406000D02*
X117259999Y-72809999D01*
X117259999Y-72809999D02*
X117259999Y-70347997D01*
X101627999Y-70269999D02*
X117182001Y-70269999D01*
X117182001Y-70269999D02*
X131991999Y-70269999D01*
X96100001Y-91274001D02*
X96100001Y-90766001D01*
X96520000Y-91694000D02*
X96100001Y-91274001D01*
X96100001Y-90766001D02*
X96100001Y-86672003D01*
X96100001Y-91116003D02*
X96100001Y-90766001D01*
X143510000Y-87376000D02*
X145034000Y-85852000D01*
X143764000Y-87122000D02*
X141986000Y-88900000D01*
X143764000Y-86360000D02*
X143764000Y-87122000D01*
D29*
X141949000Y-88937000D02*
X141986000Y-88900000D01*
D28*
X140617923Y-88937000D02*
X141949000Y-88937000D01*
X93472000Y-81026000D02*
X94488000Y-82042000D01*
X96012000Y-82042000D02*
X96266000Y-81788000D01*
X94488000Y-82042000D02*
X96012000Y-82042000D01*
X96266000Y-81788000D02*
X100203000Y-81788000D01*
D27*
X100203000Y-81788000D02*
X102362000Y-83947000D01*
X116446067Y-90817933D02*
X115544134Y-89916000D01*
X102362000Y-86165962D02*
X102362000Y-85090000D01*
X106112038Y-89916000D02*
X102362000Y-86165962D01*
X115544134Y-89916000D02*
X106112038Y-89916000D01*
X102362000Y-83947000D02*
X102362000Y-85090000D01*
X119969280Y-101912420D02*
X119692420Y-101912420D01*
D28*
X119888000Y-101092000D02*
X120904000Y-100076000D01*
X119888000Y-101214000D02*
X119888000Y-101092000D01*
X123893256Y-95816744D02*
X127762000Y-91948000D01*
X127762000Y-91948000D02*
X127762000Y-90678000D01*
X123893256Y-95816744D02*
X123893256Y-97594744D01*
X143546999Y-89625001D02*
X146340999Y-89625001D01*
X141478000Y-92202000D02*
X143546999Y-90133001D01*
X143546999Y-90133001D02*
X143546999Y-89625001D01*
D29*
X139446000Y-92202000D02*
X141478000Y-92202000D01*
D28*
X146340999Y-89625001D02*
X147066000Y-88900000D01*
D29*
X143323315Y-89848685D02*
X143546999Y-89625001D01*
D28*
X141032228Y-89848685D02*
X143323315Y-89848685D01*
D27*
X147066000Y-88900000D02*
X147066000Y-84328000D01*
X141986000Y-79248000D02*
X139446000Y-79248000D01*
X147066000Y-84328000D02*
X141986000Y-79248000D01*
D29*
X133546998Y-101854000D02*
X131826000Y-101854000D01*
X137795000Y-103378000D02*
X135070998Y-103378000D01*
X135070998Y-103378000D02*
X133546998Y-101854000D01*
D27*
X118894000Y-97514000D02*
X117094000Y-99314000D01*
X119888000Y-97514000D02*
X118894000Y-97514000D01*
X123390999Y-99636999D02*
X124968000Y-101214000D01*
X122242999Y-99636999D02*
X123390999Y-99636999D01*
X120988002Y-98382002D02*
X121158000Y-98552000D01*
X120988002Y-96774000D02*
X120988002Y-98382002D01*
X121158000Y-98552000D02*
X122242999Y-99636999D01*
X122700510Y-100941490D02*
X122428000Y-101214000D01*
X123068000Y-101214000D02*
X123444000Y-100838000D01*
X122428000Y-101214000D02*
X123068000Y-101214000D01*
X113938900Y-103626740D02*
X114088900Y-103476740D01*
X114088900Y-103476740D02*
X113608900Y-103476740D01*
D28*
X108634000Y-105396740D02*
X107554000Y-106476740D01*
X108634000Y-103476740D02*
X108634000Y-105396740D01*
X113474000Y-105396740D02*
X114554000Y-106476740D01*
X113474000Y-103476740D02*
X113474000Y-105396740D01*
X113214000Y-105546740D02*
X112014000Y-106746740D01*
X113804000Y-105546740D02*
X113214000Y-105546740D01*
X112014000Y-106746740D02*
X110094000Y-106746740D01*
X109524000Y-106746740D02*
X108324000Y-105546740D01*
X110094000Y-106746740D02*
X109524000Y-106746740D01*
D27*
X100237999Y-84362999D02*
X100203000Y-84328000D01*
X100203000Y-84328000D02*
X96266000Y-84328000D01*
X114265001Y-89442999D02*
X114230002Y-89408000D01*
X114230002Y-89408000D02*
X106680000Y-89408000D01*
X106680000Y-89408000D02*
X103378000Y-86106000D01*
X119922999Y-89442999D02*
X119599001Y-89442999D01*
X122428000Y-91948000D02*
X119922999Y-89442999D01*
X119728961Y-89442999D02*
X119599001Y-89442999D01*
X119599001Y-89442999D02*
X114265001Y-89442999D01*
X100203000Y-76708000D02*
X96266000Y-76708000D01*
X112776000Y-88392000D02*
X112776000Y-87630000D01*
X101854000Y-76708000D02*
X100203000Y-76708000D01*
X112776000Y-87630000D02*
X101854000Y-76708000D01*
X100203000Y-74168000D02*
X96266000Y-74168000D01*
X111760000Y-87884000D02*
X102736933Y-78860933D01*
X102736933Y-78860933D02*
X102736933Y-78619067D01*
X116332000Y-94234000D02*
X115570000Y-94234000D01*
X123138382Y-94240067D02*
X123132315Y-94234000D01*
X123704067Y-94240067D02*
X123138382Y-94240067D01*
X116408000Y-94310000D02*
X116332000Y-94234000D01*
X122268961Y-94310000D02*
X116408000Y-94310000D01*
X122344961Y-94234000D02*
X122268961Y-94310000D01*
X123132315Y-94234000D02*
X122344961Y-94234000D01*
X133096000Y-90932000D02*
X129540000Y-90932000D01*
D28*
X132842000Y-89916000D02*
X130048000Y-89916000D01*
X130048000Y-89916000D02*
X129540000Y-89408000D01*
X133371000Y-89387000D02*
X132842000Y-89916000D01*
X133858000Y-89387000D02*
X133371000Y-89387000D01*
X129032000Y-88900000D02*
X129032000Y-88392000D01*
X129540000Y-89408000D02*
X129032000Y-88900000D01*
X129561000Y-89387000D02*
X129540000Y-89408000D01*
D29*
X136906000Y-93980000D02*
X137414000Y-93472000D01*
X134366000Y-93980000D02*
X136906000Y-93980000D01*
X105664000Y-91694000D02*
X104648000Y-91694000D01*
D27*
X104648000Y-91694000D02*
X104140000Y-91694000D01*
X100692001Y-95141999D02*
X104140000Y-91694000D01*
X100692001Y-98914001D02*
X100692001Y-95141999D01*
X101092000Y-99314000D02*
X100692001Y-98914001D01*
X101600000Y-95444038D02*
X102048038Y-94996000D01*
X101600000Y-97790000D02*
X101600000Y-95444038D01*
X106680000Y-94996000D02*
X109728000Y-91948000D01*
X102048038Y-94996000D02*
X106680000Y-94996000D01*
X146939000Y-76073000D02*
X145516000Y-76073000D01*
X147320000Y-75692000D02*
X146939000Y-76073000D01*
X127000000Y-78934038D02*
X131004038Y-74930000D01*
X131004038Y-74930000D02*
X131064000Y-74930000D01*
X131064000Y-74930000D02*
X132334000Y-73660000D01*
X127000000Y-89676133D02*
X127000000Y-89662000D01*
X123093134Y-93582999D02*
X127000000Y-89676133D01*
X121920000Y-93582999D02*
X123093134Y-93582999D01*
X127000000Y-89662000D02*
X127000000Y-78934038D01*
X145516000Y-77343000D02*
X146939000Y-77343000D01*
X146939000Y-77343000D02*
X147320000Y-76962000D01*
X124460000Y-90932000D02*
X123698000Y-90932000D01*
X125476000Y-89916000D02*
X124460000Y-90932000D01*
X131572000Y-71882000D02*
X125476000Y-77978000D01*
X125476000Y-77978000D02*
X125476000Y-89916000D01*
X131572000Y-72644000D02*
X132334000Y-72644000D01*
X126238000Y-77978000D02*
X131572000Y-72644000D01*
X126238000Y-89796066D02*
X126238000Y-89662000D01*
X126238000Y-89796067D02*
X126238000Y-88392000D01*
X121557999Y-92855999D02*
X123178068Y-92855999D01*
X121158000Y-92456000D02*
X121557999Y-92855999D01*
X126238000Y-88392000D02*
X126238000Y-77978000D01*
X123178068Y-92855999D02*
X126238000Y-89796067D01*
X126238000Y-89662000D02*
X126238000Y-88392000D01*
X144462000Y-79883000D02*
X143700000Y-79121000D01*
X145516000Y-79883000D02*
X144462000Y-79883000D01*
X143700000Y-79121000D02*
X143700000Y-75500000D01*
X146810000Y-72390000D02*
X148336000Y-72390000D01*
X143700000Y-75500000D02*
X146810000Y-72390000D01*
G36*
X134398346Y-48130492D02*
G01*
X134501520Y-48182609D01*
X134592603Y-48253771D01*
X134668132Y-48341272D01*
X134725227Y-48441778D01*
X134761710Y-48551450D01*
X134776197Y-48666132D01*
X134766622Y-48803074D01*
X134757010Y-48866739D01*
X134755868Y-48888639D01*
X134752817Y-48910348D01*
X134752619Y-48916014D01*
X134744531Y-49205615D01*
X134747100Y-49242350D01*
X134749153Y-49279062D01*
X134750059Y-49284658D01*
X134798375Y-49570316D01*
X134808030Y-49605853D01*
X134817175Y-49641469D01*
X134819148Y-49646775D01*
X134819150Y-49646781D01*
X134819153Y-49646786D01*
X134922031Y-49917614D01*
X134938396Y-49950580D01*
X134954293Y-49983759D01*
X134957263Y-49988587D01*
X135110789Y-50234278D01*
X135133263Y-50263462D01*
X135155284Y-50292897D01*
X135159130Y-50297051D01*
X135159135Y-50297057D01*
X135159141Y-50297062D01*
X135357459Y-50508249D01*
X135385171Y-50532509D01*
X135412494Y-50557110D01*
X135417074Y-50560438D01*
X135417079Y-50560442D01*
X135417084Y-50560445D01*
X135651072Y-50727962D01*
X135666327Y-50739056D01*
X137581647Y-51862829D01*
X137582799Y-51863654D01*
X137598753Y-51872865D01*
X137614808Y-51882285D01*
X137616108Y-51882885D01*
X139548569Y-52998596D01*
X139551467Y-52999909D01*
X139577900Y-53014623D01*
X139596431Y-53022682D01*
X139614090Y-53032472D01*
X139619308Y-53034688D01*
X139889715Y-53147278D01*
X139924894Y-53158037D01*
X139959938Y-53169292D01*
X139965487Y-53170452D01*
X140252613Y-53228376D01*
X140289204Y-53232096D01*
X140325775Y-53236331D01*
X140331443Y-53236391D01*
X140331444Y-53236391D01*
X140624352Y-53237442D01*
X140661007Y-53233981D01*
X140697665Y-53231035D01*
X140703235Y-53229993D01*
X140703239Y-53229993D01*
X140703243Y-53229992D01*
X140990772Y-53174132D01*
X141026039Y-53163622D01*
X141061447Y-53153607D01*
X141066707Y-53151504D01*
X141066711Y-53151502D01*
X141337918Y-53040856D01*
X141370486Y-53023689D01*
X141403260Y-53006994D01*
X141408011Y-53003910D01*
X141408014Y-53003908D01*
X141408016Y-53003906D01*
X141652565Y-52842689D01*
X141662146Y-52834932D01*
X141786040Y-52750101D01*
X141892280Y-52704566D01*
X142005344Y-52680534D01*
X142120917Y-52678921D01*
X142234607Y-52699787D01*
X142342077Y-52742337D01*
X142439238Y-52804954D01*
X142536995Y-52899357D01*
X142551222Y-52914164D01*
X157036591Y-78003398D01*
X142520423Y-103145983D01*
X142424282Y-103240131D01*
X142327561Y-103303423D01*
X142220390Y-103346722D01*
X142106847Y-103368382D01*
X141991267Y-103367575D01*
X141878037Y-103344332D01*
X141771484Y-103299542D01*
X141657665Y-103222770D01*
X141607347Y-103182621D01*
X141588952Y-103170682D01*
X141571676Y-103157184D01*
X141566868Y-103154180D01*
X141320110Y-103002374D01*
X141287025Y-102986237D01*
X141254191Y-102969652D01*
X141248896Y-102967640D01*
X141248892Y-102967638D01*
X141248889Y-102967637D01*
X140977346Y-102866652D01*
X140941744Y-102857245D01*
X140906329Y-102847358D01*
X140900747Y-102846413D01*
X140900738Y-102846411D01*
X140900730Y-102846410D01*
X140614751Y-102800092D01*
X140578026Y-102797781D01*
X140541336Y-102794958D01*
X140535669Y-102795116D01*
X140246132Y-102805227D01*
X140209652Y-102810095D01*
X140173119Y-102814451D01*
X140167591Y-102815707D01*
X139885529Y-102881864D01*
X139850671Y-102893730D01*
X139815698Y-102905094D01*
X139810529Y-102907396D01*
X139810519Y-102907399D01*
X139810511Y-102907404D01*
X139548289Y-103026354D01*
X139531204Y-103033951D01*
X138548724Y-103592047D01*
X138576000Y-103454922D01*
X138576000Y-103301078D01*
X138545987Y-103150191D01*
X138487113Y-103008058D01*
X138401642Y-102880141D01*
X138292859Y-102771358D01*
X138164942Y-102685887D01*
X138022809Y-102627013D01*
X137871922Y-102597000D01*
X137718078Y-102597000D01*
X137567191Y-102627013D01*
X137425058Y-102685887D01*
X137297141Y-102771358D01*
X137196499Y-102872000D01*
X135280590Y-102872000D01*
X133922374Y-101513785D01*
X133906525Y-101494473D01*
X133829477Y-101431241D01*
X133741573Y-101384255D01*
X133646191Y-101355322D01*
X133571852Y-101348000D01*
X133571844Y-101348000D01*
X133546998Y-101345553D01*
X133522152Y-101348000D01*
X132424501Y-101348000D01*
X132323859Y-101247358D01*
X132195942Y-101161887D01*
X132053809Y-101103013D01*
X131902922Y-101073000D01*
X131749078Y-101073000D01*
X131598191Y-101103013D01*
X131456058Y-101161887D01*
X131328141Y-101247358D01*
X131219358Y-101356141D01*
X131133887Y-101484058D01*
X131075013Y-101626191D01*
X131045000Y-101777078D01*
X131045000Y-101930922D01*
X131075013Y-102081809D01*
X131133887Y-102223942D01*
X131219358Y-102351859D01*
X131328141Y-102460642D01*
X131456058Y-102546113D01*
X131598191Y-102604987D01*
X131749078Y-102635000D01*
X131902922Y-102635000D01*
X132053809Y-102604987D01*
X132195942Y-102546113D01*
X132323859Y-102460642D01*
X132424501Y-102360000D01*
X133337407Y-102360000D01*
X134271134Y-103293727D01*
X134155120Y-103258535D01*
X133966930Y-103240000D01*
X133241070Y-103240000D01*
X133052880Y-103258535D01*
X132811411Y-103331784D01*
X132588871Y-103450734D01*
X132393814Y-103610814D01*
X132233734Y-103805871D01*
X132114784Y-104028411D01*
X132041535Y-104269880D01*
X132016802Y-104521000D01*
X132041535Y-104772120D01*
X132114784Y-105013589D01*
X132233734Y-105236129D01*
X132393814Y-105431186D01*
X132588871Y-105591266D01*
X132811411Y-105710216D01*
X133052880Y-105783465D01*
X133241070Y-105802000D01*
X133966930Y-105802000D01*
X134155120Y-105783465D01*
X134396589Y-105710216D01*
X134619129Y-105591266D01*
X134814186Y-105431186D01*
X134974266Y-105236129D01*
X135093216Y-105013589D01*
X135166465Y-104772120D01*
X135191198Y-104521000D01*
X135166465Y-104269880D01*
X135093216Y-104028411D01*
X135014353Y-103880869D01*
X135046144Y-103884000D01*
X135046151Y-103884000D01*
X135070997Y-103886447D01*
X135095843Y-103884000D01*
X137196499Y-103884000D01*
X137297141Y-103984642D01*
X137425058Y-104070113D01*
X137567191Y-104128987D01*
X137593943Y-104134308D01*
X137583035Y-104140606D01*
X137566903Y-104149770D01*
X137565737Y-104150593D01*
X135633271Y-105266304D01*
X135630688Y-105268155D01*
X135604728Y-105283690D01*
X135588489Y-105295705D01*
X135571175Y-105306106D01*
X135566646Y-105309517D01*
X135333936Y-105487401D01*
X135306980Y-105512533D01*
X135279760Y-105537210D01*
X135275980Y-105541435D01*
X135082254Y-105761131D01*
X135060734Y-105790963D01*
X135038783Y-105820514D01*
X135035897Y-105825393D01*
X134888532Y-106078534D01*
X134873200Y-106112012D01*
X134857423Y-106145231D01*
X134855542Y-106150569D01*
X134855539Y-106150576D01*
X134855539Y-106150578D01*
X134760150Y-106427520D01*
X134751612Y-106463346D01*
X134742590Y-106498986D01*
X134741780Y-106504597D01*
X134701998Y-106794793D01*
X134700580Y-106831606D01*
X134698653Y-106868311D01*
X134698948Y-106873973D01*
X134716291Y-107166370D01*
X134718215Y-107178524D01*
X134729736Y-107328252D01*
X134716050Y-107443027D01*
X134680329Y-107552961D01*
X134623942Y-107653855D01*
X134549026Y-107741881D01*
X134458439Y-107813680D01*
X134355633Y-107866515D01*
X134225899Y-107903714D01*
X134219420Y-107904886D01*
X134208111Y-107908102D01*
X127477440Y-107908098D01*
X127477441Y-107020623D01*
X127479405Y-107000682D01*
X127471566Y-106921092D01*
X127448351Y-106844561D01*
X127410651Y-106774029D01*
X127359915Y-106712208D01*
X127298094Y-106661472D01*
X127227562Y-106623772D01*
X127151031Y-106600557D01*
X127091382Y-106594682D01*
X127091371Y-106594682D01*
X127071441Y-106592719D01*
X127051508Y-106594682D01*
X124494073Y-106594682D01*
X124646413Y-106442342D01*
X124780036Y-106242360D01*
X124872078Y-106020153D01*
X124919000Y-105784258D01*
X124919000Y-105543742D01*
X124872078Y-105307847D01*
X124780036Y-105085640D01*
X124646413Y-104885658D01*
X124476342Y-104715587D01*
X124276360Y-104581964D01*
X124129182Y-104521000D01*
X128841802Y-104521000D01*
X128866535Y-104772120D01*
X128939784Y-105013589D01*
X129058734Y-105236129D01*
X129218814Y-105431186D01*
X129413871Y-105591266D01*
X129636411Y-105710216D01*
X129877880Y-105783465D01*
X130066070Y-105802000D01*
X130791930Y-105802000D01*
X130980120Y-105783465D01*
X131221589Y-105710216D01*
X131444129Y-105591266D01*
X131639186Y-105431186D01*
X131799266Y-105236129D01*
X131918216Y-105013589D01*
X131991465Y-104772120D01*
X132016198Y-104521000D01*
X131991465Y-104269880D01*
X131918216Y-104028411D01*
X131799266Y-103805871D01*
X131639186Y-103610814D01*
X131444129Y-103450734D01*
X131221589Y-103331784D01*
X130980120Y-103258535D01*
X130791930Y-103240000D01*
X130066070Y-103240000D01*
X129877880Y-103258535D01*
X129636411Y-103331784D01*
X129413871Y-103450734D01*
X129218814Y-103610814D01*
X129058734Y-103805871D01*
X128939784Y-104028411D01*
X128866535Y-104269880D01*
X128841802Y-104521000D01*
X124129182Y-104521000D01*
X124054153Y-104489922D01*
X123818258Y-104443000D01*
X123577742Y-104443000D01*
X123341847Y-104489922D01*
X123119640Y-104581964D01*
X122919658Y-104715587D01*
X122749587Y-104885658D01*
X122615964Y-105085640D01*
X122523922Y-105307847D01*
X122477000Y-105543742D01*
X122477000Y-105784258D01*
X122523922Y-106020153D01*
X122615964Y-106242360D01*
X122749587Y-106442342D01*
X122901927Y-106594682D01*
X121954073Y-106594682D01*
X122106413Y-106442342D01*
X122240036Y-106242360D01*
X122332078Y-106020153D01*
X122379000Y-105784258D01*
X122379000Y-105543742D01*
X122332078Y-105307847D01*
X122240036Y-105085640D01*
X122106413Y-104885658D01*
X121936342Y-104715587D01*
X121736360Y-104581964D01*
X121514153Y-104489922D01*
X121278258Y-104443000D01*
X121037742Y-104443000D01*
X120801847Y-104489922D01*
X120579640Y-104581964D01*
X120379658Y-104715587D01*
X120209587Y-104885658D01*
X120075964Y-105085640D01*
X119983922Y-105307847D01*
X119937000Y-105543742D01*
X119937000Y-105784258D01*
X119983922Y-106020153D01*
X120075964Y-106242360D01*
X120209587Y-106442342D01*
X120361927Y-106594682D01*
X117947381Y-106594682D01*
X117927440Y-106592718D01*
X117907500Y-106594682D01*
X117907499Y-106594682D01*
X117847850Y-106600557D01*
X117771319Y-106623772D01*
X117700787Y-106661472D01*
X117638966Y-106712208D01*
X117588230Y-106774029D01*
X117550530Y-106844561D01*
X117527315Y-106921092D01*
X117519476Y-107000682D01*
X117521441Y-107020633D01*
X117521440Y-107908100D01*
X113111843Y-107908100D01*
X113111843Y-106927893D01*
X113129000Y-106929583D01*
X113534766Y-106929583D01*
X113573663Y-107057809D01*
X113671720Y-107241261D01*
X113803684Y-107402057D01*
X113964480Y-107534020D01*
X114147932Y-107632077D01*
X114346989Y-107692460D01*
X114554000Y-107712849D01*
X114761012Y-107692460D01*
X114960069Y-107632077D01*
X115143521Y-107534020D01*
X115304317Y-107402057D01*
X115436280Y-107241261D01*
X115534337Y-107057808D01*
X115594720Y-106858751D01*
X115610000Y-106703611D01*
X115610000Y-106249868D01*
X115594720Y-106094728D01*
X115534337Y-105895671D01*
X115436280Y-105712219D01*
X115304317Y-105551423D01*
X115189141Y-105456900D01*
X115237211Y-105417451D01*
X115284822Y-105359436D01*
X115320201Y-105293248D01*
X115341987Y-105221429D01*
X115349343Y-105146740D01*
X115349343Y-104446740D01*
X115341987Y-104372051D01*
X115325026Y-104316136D01*
X115329487Y-104301429D01*
X115336843Y-104226740D01*
X115336843Y-102726740D01*
X115329487Y-102652051D01*
X115307701Y-102580232D01*
X115272322Y-102514044D01*
X115224711Y-102456029D01*
X115166696Y-102408418D01*
X115100508Y-102373039D01*
X115028689Y-102351253D01*
X114954000Y-102343897D01*
X113501018Y-102343897D01*
X113474000Y-102341236D01*
X113446982Y-102343897D01*
X113024995Y-102343897D01*
X113011410Y-102326867D01*
X112915831Y-102246179D01*
X112806346Y-102185688D01*
X112687164Y-102147718D01*
X112585750Y-102136740D01*
X112427000Y-102295490D01*
X112427000Y-103469740D01*
X112501000Y-103469740D01*
X112501000Y-103723740D01*
X112427000Y-103723740D01*
X112427000Y-104897990D01*
X112585750Y-105056740D01*
X112687164Y-105045762D01*
X112746157Y-105026968D01*
X112746157Y-105115587D01*
X112729000Y-105113897D01*
X111299000Y-105113897D01*
X111224311Y-105121253D01*
X111152492Y-105143039D01*
X111086304Y-105178418D01*
X111054000Y-105204929D01*
X111021696Y-105178418D01*
X110955508Y-105143039D01*
X110883689Y-105121253D01*
X110809000Y-105113897D01*
X109399343Y-105113897D01*
X109399343Y-104771085D01*
X109407492Y-104775441D01*
X109479311Y-104797227D01*
X109554000Y-104804583D01*
X109954000Y-104804583D01*
X110028689Y-104797227D01*
X110079000Y-104781965D01*
X110129311Y-104797227D01*
X110204000Y-104804583D01*
X110604000Y-104804583D01*
X110678689Y-104797227D01*
X110729000Y-104781965D01*
X110779311Y-104797227D01*
X110854000Y-104804583D01*
X111254000Y-104804583D01*
X111328689Y-104797227D01*
X111379000Y-104781965D01*
X111429311Y-104797227D01*
X111504000Y-104804583D01*
X111647109Y-104804583D01*
X111696590Y-104866613D01*
X111792169Y-104947301D01*
X111901654Y-105007792D01*
X112020836Y-105045762D01*
X112122250Y-105056740D01*
X112281000Y-104897990D01*
X112281000Y-104481067D01*
X112286843Y-104421740D01*
X112286843Y-102771740D01*
X112281000Y-102712413D01*
X112281000Y-102295490D01*
X112122250Y-102136740D01*
X112020836Y-102147718D01*
X111901654Y-102185688D01*
X111792169Y-102246179D01*
X111696590Y-102326867D01*
X111647109Y-102388897D01*
X111504000Y-102388897D01*
X111429311Y-102396253D01*
X111379000Y-102411515D01*
X111328689Y-102396253D01*
X111254000Y-102388897D01*
X110854000Y-102388897D01*
X110779311Y-102396253D01*
X110729000Y-102411515D01*
X110678689Y-102396253D01*
X110604000Y-102388897D01*
X110529211Y-102388897D01*
X111804258Y-101113851D01*
X111828333Y-101094093D01*
X111851546Y-101065809D01*
X111907186Y-100998011D01*
X111965779Y-100888392D01*
X111970621Y-100872429D01*
X112001860Y-100769448D01*
X112010990Y-100676748D01*
X112010990Y-100676739D01*
X112014042Y-100645751D01*
X112010990Y-100614763D01*
X112010990Y-100381081D01*
X112014871Y-100384266D01*
X112237411Y-100503216D01*
X112478880Y-100576465D01*
X112667070Y-100595000D01*
X113392930Y-100595000D01*
X113581120Y-100576465D01*
X113822589Y-100503216D01*
X114045129Y-100384266D01*
X114240186Y-100224186D01*
X114400266Y-100029129D01*
X114519216Y-99806589D01*
X114592465Y-99565120D01*
X114617198Y-99314000D01*
X114592465Y-99062880D01*
X114519216Y-98821411D01*
X114400266Y-98598871D01*
X114240186Y-98403814D01*
X114045129Y-98243734D01*
X113822589Y-98124784D01*
X113581120Y-98051535D01*
X113392930Y-98033000D01*
X112667070Y-98033000D01*
X112478880Y-98051535D01*
X112467404Y-98055016D01*
X113475421Y-97047000D01*
X113614922Y-97047000D01*
X113765809Y-97016987D01*
X113907942Y-96958113D01*
X114035859Y-96872642D01*
X114144642Y-96763859D01*
X114230113Y-96635942D01*
X114288987Y-96493809D01*
X114319000Y-96342922D01*
X114319000Y-96189078D01*
X114288987Y-96038191D01*
X114230113Y-95896058D01*
X114144642Y-95768141D01*
X114035859Y-95659358D01*
X113907942Y-95573887D01*
X113765809Y-95515013D01*
X113614922Y-95485000D01*
X113461078Y-95485000D01*
X113310191Y-95515013D01*
X113168058Y-95573887D01*
X113040141Y-95659358D01*
X112931358Y-95768141D01*
X112845887Y-95896058D01*
X112787013Y-96038191D01*
X112757000Y-96189078D01*
X112757000Y-96328579D01*
X111629590Y-97455990D01*
X110708843Y-97455990D01*
X110685453Y-97436794D01*
X110575834Y-97378201D01*
X110456890Y-97342120D01*
X110364190Y-97332990D01*
X110364182Y-97332990D01*
X110333192Y-97329938D01*
X110302202Y-97332990D01*
X104829358Y-97332990D01*
X104735108Y-97238740D01*
X104735103Y-97238734D01*
X103134447Y-95638079D01*
X103112987Y-95530191D01*
X103102138Y-95504000D01*
X106655056Y-95504000D01*
X106680000Y-95506457D01*
X106704944Y-95504000D01*
X106704947Y-95504000D01*
X106779585Y-95496649D01*
X106875343Y-95467601D01*
X106963595Y-95420429D01*
X107040948Y-95356948D01*
X107056855Y-95337565D01*
X109665421Y-92729000D01*
X109804922Y-92729000D01*
X109955809Y-92698987D01*
X110097942Y-92640113D01*
X110225859Y-92554642D01*
X110334642Y-92445859D01*
X110420113Y-92317942D01*
X110478987Y-92175809D01*
X110509000Y-92024922D01*
X110509000Y-91871078D01*
X110478987Y-91720191D01*
X110420113Y-91578058D01*
X110334642Y-91450141D01*
X110225859Y-91341358D01*
X110097942Y-91255887D01*
X109955809Y-91197013D01*
X109804922Y-91167000D01*
X109651078Y-91167000D01*
X109500191Y-91197013D01*
X109358058Y-91255887D01*
X109230141Y-91341358D01*
X109121358Y-91450141D01*
X109035887Y-91578058D01*
X108977013Y-91720191D01*
X108947000Y-91871078D01*
X108947000Y-92010579D01*
X106469580Y-94488000D01*
X102072981Y-94488000D01*
X102065188Y-94487232D01*
X104350421Y-92202000D01*
X104672947Y-92202000D01*
X104693254Y-92200000D01*
X105065499Y-92200000D01*
X105166141Y-92300642D01*
X105294058Y-92386113D01*
X105436191Y-92444987D01*
X105587078Y-92475000D01*
X105740922Y-92475000D01*
X105891809Y-92444987D01*
X106033942Y-92386113D01*
X106161859Y-92300642D01*
X106270642Y-92191859D01*
X106356113Y-92063942D01*
X106414987Y-91921809D01*
X106445000Y-91770922D01*
X106445000Y-91617078D01*
X106414987Y-91466191D01*
X106356113Y-91324058D01*
X106270642Y-91196141D01*
X106161859Y-91087358D01*
X106033942Y-91001887D01*
X105891809Y-90943013D01*
X105740922Y-90913000D01*
X105587078Y-90913000D01*
X105436191Y-90943013D01*
X105294058Y-91001887D01*
X105166141Y-91087358D01*
X105065499Y-91188000D01*
X104693254Y-91188000D01*
X104672947Y-91186000D01*
X104164944Y-91186000D01*
X104140000Y-91183543D01*
X104115056Y-91186000D01*
X104115053Y-91186000D01*
X104040415Y-91193351D01*
X103944657Y-91222399D01*
X103907309Y-91242362D01*
X103856404Y-91269571D01*
X103827616Y-91293197D01*
X103779052Y-91333052D01*
X103763150Y-91352429D01*
X100350431Y-94765149D01*
X100331054Y-94781051D01*
X100315152Y-94800428D01*
X100315151Y-94800429D01*
X100267572Y-94858404D01*
X100227390Y-94933581D01*
X100220401Y-94946656D01*
X100193377Y-95035744D01*
X100191353Y-95042415D01*
X100181544Y-95141999D01*
X100184002Y-95166953D01*
X100184001Y-98889057D01*
X100181544Y-98914001D01*
X100184001Y-98938945D01*
X100184001Y-98938947D01*
X100191352Y-99013585D01*
X100220400Y-99109343D01*
X100267572Y-99197596D01*
X100311000Y-99250514D01*
X100311000Y-99371215D01*
X96314701Y-92449465D01*
X96443078Y-92475000D01*
X96596922Y-92475000D01*
X96747809Y-92444987D01*
X96889942Y-92386113D01*
X97017859Y-92300642D01*
X97126642Y-92191859D01*
X97212113Y-92063942D01*
X97270987Y-91921809D01*
X97301000Y-91770922D01*
X97301000Y-91617078D01*
X97270987Y-91466191D01*
X97212113Y-91324058D01*
X97126642Y-91196141D01*
X97017859Y-91087358D01*
X96889942Y-91001887D01*
X96747809Y-90943013D01*
X96731001Y-90939670D01*
X96731001Y-86703001D01*
X96734054Y-86672003D01*
X96721871Y-86548305D01*
X96685790Y-86429361D01*
X96627197Y-86319742D01*
X96568104Y-86247737D01*
X96568102Y-86247735D01*
X96548344Y-86223660D01*
X96524269Y-86203902D01*
X95881210Y-85560843D01*
X97116000Y-85560843D01*
X97190689Y-85553487D01*
X97262508Y-85531701D01*
X97328696Y-85496322D01*
X97386711Y-85448711D01*
X97434322Y-85390696D01*
X97469701Y-85324508D01*
X97491487Y-85252689D01*
X97498843Y-85178000D01*
X97498843Y-84836000D01*
X98970157Y-84836000D01*
X98970157Y-85178000D01*
X98977513Y-85252689D01*
X98999299Y-85324508D01*
X99034678Y-85390696D01*
X99082289Y-85448711D01*
X99140304Y-85496322D01*
X99206492Y-85531701D01*
X99278311Y-85553487D01*
X99353000Y-85560843D01*
X101053000Y-85560843D01*
X101127689Y-85553487D01*
X101199508Y-85531701D01*
X101265696Y-85496322D01*
X101323711Y-85448711D01*
X101371322Y-85390696D01*
X101406701Y-85324508D01*
X101428487Y-85252689D01*
X101435843Y-85178000D01*
X101435843Y-83739264D01*
X101854000Y-84157421D01*
X101854001Y-85065053D01*
X101854000Y-86141017D01*
X101851543Y-86165962D01*
X101854000Y-86190906D01*
X101854000Y-86190908D01*
X101861351Y-86265546D01*
X101890399Y-86361304D01*
X101937571Y-86449557D01*
X102001052Y-86526910D01*
X102020435Y-86542817D01*
X105735183Y-90257565D01*
X105751090Y-90276948D01*
X105828443Y-90340429D01*
X105916695Y-90387601D01*
X106012453Y-90416649D01*
X106087091Y-90424000D01*
X106087094Y-90424000D01*
X106112038Y-90426457D01*
X106136982Y-90424000D01*
X115333714Y-90424000D01*
X115665067Y-90755353D01*
X115665067Y-90894855D01*
X115695080Y-91045742D01*
X115753954Y-91187875D01*
X115839425Y-91315792D01*
X115948208Y-91424575D01*
X116076125Y-91510046D01*
X116218258Y-91568920D01*
X116369145Y-91598933D01*
X116522989Y-91598933D01*
X116673876Y-91568920D01*
X116816009Y-91510046D01*
X116943926Y-91424575D01*
X117052709Y-91315792D01*
X117138180Y-91187875D01*
X117197054Y-91045742D01*
X117227067Y-90894855D01*
X117227067Y-90741011D01*
X117197054Y-90590124D01*
X117138180Y-90447991D01*
X117052709Y-90320074D01*
X116943926Y-90211291D01*
X116816009Y-90125820D01*
X116673876Y-90066946D01*
X116522989Y-90036933D01*
X116383487Y-90036933D01*
X116297553Y-89950999D01*
X119712579Y-89950999D01*
X121523716Y-91762136D01*
X121385809Y-91705013D01*
X121234922Y-91675000D01*
X121081078Y-91675000D01*
X120930191Y-91705013D01*
X120788058Y-91763887D01*
X120660141Y-91849358D01*
X120551358Y-91958141D01*
X120465887Y-92086058D01*
X120407013Y-92228191D01*
X120377000Y-92379078D01*
X120377000Y-92532922D01*
X120407013Y-92683809D01*
X120465887Y-92825942D01*
X120551358Y-92953859D01*
X120660141Y-93062642D01*
X120788058Y-93148113D01*
X120930191Y-93206987D01*
X121081078Y-93237000D01*
X121217969Y-93237000D01*
X121169013Y-93355190D01*
X121139000Y-93506077D01*
X121139000Y-93659921D01*
X121167261Y-93802000D01*
X116601431Y-93802000D01*
X116527343Y-93762399D01*
X116431585Y-93733351D01*
X116356947Y-93726000D01*
X116356944Y-93726000D01*
X116332000Y-93723543D01*
X116307056Y-93726000D01*
X116166501Y-93726000D01*
X116067859Y-93627358D01*
X115939942Y-93541887D01*
X115797809Y-93483013D01*
X115646922Y-93453000D01*
X115493078Y-93453000D01*
X115342191Y-93483013D01*
X115200058Y-93541887D01*
X115072141Y-93627358D01*
X114963358Y-93736141D01*
X114877887Y-93864058D01*
X114819013Y-94006191D01*
X114789000Y-94157078D01*
X114789000Y-94310922D01*
X114819013Y-94461809D01*
X114877887Y-94603942D01*
X114963358Y-94731859D01*
X115072141Y-94840642D01*
X115200058Y-94926113D01*
X115342191Y-94984987D01*
X115493078Y-95015000D01*
X115646922Y-95015000D01*
X115797809Y-94984987D01*
X115939942Y-94926113D01*
X116067859Y-94840642D01*
X116156772Y-94751729D01*
X116212657Y-94781601D01*
X116308415Y-94810649D01*
X116383053Y-94818000D01*
X116383055Y-94818000D01*
X116407999Y-94820457D01*
X116432943Y-94818000D01*
X122244017Y-94818000D01*
X122268961Y-94820457D01*
X122293905Y-94818000D01*
X122293908Y-94818000D01*
X122368546Y-94810649D01*
X122464304Y-94781601D01*
X122538392Y-94742000D01*
X123051834Y-94742000D01*
X123106925Y-94747426D01*
X123206208Y-94846709D01*
X123334125Y-94932180D01*
X123476258Y-94991054D01*
X123627145Y-95021067D01*
X123780989Y-95021067D01*
X123800432Y-95017200D01*
X123773335Y-95044297D01*
X123665447Y-95065757D01*
X123523314Y-95124631D01*
X123395397Y-95210102D01*
X123286614Y-95318885D01*
X123201143Y-95446802D01*
X123142269Y-95588935D01*
X123127920Y-95661072D01*
X123052482Y-95638188D01*
X122928000Y-95625928D01*
X122713750Y-95629000D01*
X122555000Y-95787750D01*
X122555000Y-97387000D01*
X122575000Y-97387000D01*
X122575000Y-97641000D01*
X122555000Y-97641000D01*
X122555000Y-97661000D01*
X122301000Y-97661000D01*
X122301000Y-97641000D01*
X122281000Y-97641000D01*
X122281000Y-97387000D01*
X122301000Y-97387000D01*
X122301000Y-95787750D01*
X122142250Y-95629000D01*
X121928000Y-95625928D01*
X121803518Y-95638188D01*
X121683820Y-95674498D01*
X121573506Y-95733463D01*
X121476815Y-95812815D01*
X121397463Y-95909506D01*
X121338498Y-96019820D01*
X121323943Y-96067803D01*
X121215811Y-96023013D01*
X121064924Y-95993000D01*
X120911080Y-95993000D01*
X120760193Y-96023013D01*
X120702661Y-96046844D01*
X120658711Y-95993289D01*
X120600696Y-95945678D01*
X120534508Y-95910299D01*
X120462689Y-95888513D01*
X120388000Y-95881157D01*
X119388000Y-95881157D01*
X119313311Y-95888513D01*
X119241492Y-95910299D01*
X119175304Y-95945678D01*
X119117289Y-95993289D01*
X119069678Y-96051304D01*
X119034299Y-96117492D01*
X119012513Y-96189311D01*
X119005157Y-96264000D01*
X119005157Y-97006000D01*
X118918943Y-97006000D01*
X118893999Y-97003543D01*
X118869055Y-97006000D01*
X118869053Y-97006000D01*
X118794415Y-97013351D01*
X118698657Y-97042399D01*
X118698655Y-97042400D01*
X118610404Y-97089571D01*
X118555810Y-97134376D01*
X118533052Y-97153052D01*
X118517150Y-97172429D01*
X117156580Y-98533000D01*
X117017078Y-98533000D01*
X116866191Y-98563013D01*
X116724058Y-98621887D01*
X116596141Y-98707358D01*
X116487358Y-98816141D01*
X116401887Y-98944058D01*
X116343013Y-99086191D01*
X116313000Y-99237078D01*
X116313000Y-99390922D01*
X116343013Y-99541809D01*
X116401887Y-99683942D01*
X116487358Y-99811859D01*
X116596141Y-99920642D01*
X116638582Y-99949000D01*
X116596141Y-99977358D01*
X116487358Y-100086141D01*
X116401887Y-100214058D01*
X116343013Y-100356191D01*
X116313000Y-100507078D01*
X116313000Y-100660922D01*
X116343013Y-100811809D01*
X116401887Y-100953942D01*
X116487358Y-101081859D01*
X116596141Y-101190642D01*
X116610964Y-101200546D01*
X116610963Y-103826054D01*
X116608506Y-103851001D01*
X116618314Y-103950586D01*
X116647362Y-104046344D01*
X116690681Y-104127388D01*
X116694534Y-104134596D01*
X116758015Y-104211949D01*
X116835368Y-104275430D01*
X116923620Y-104322602D01*
X117019378Y-104351650D01*
X117118963Y-104361458D01*
X117143910Y-104359001D01*
X127070017Y-104359001D01*
X127094961Y-104361458D01*
X127119905Y-104359001D01*
X127119908Y-104359001D01*
X127194546Y-104351650D01*
X127290304Y-104322602D01*
X127378556Y-104275430D01*
X127455909Y-104211949D01*
X127471816Y-104192566D01*
X129627571Y-102036812D01*
X129646948Y-102020910D01*
X129665624Y-101998152D01*
X129710429Y-101943558D01*
X129757600Y-101855306D01*
X129757601Y-101855305D01*
X129786649Y-101759547D01*
X129794000Y-101684909D01*
X129794000Y-101684907D01*
X129796457Y-101659963D01*
X129794000Y-101635019D01*
X129794000Y-95758000D01*
X138659056Y-95758000D01*
X138684000Y-95760457D01*
X138708944Y-95758000D01*
X138708947Y-95758000D01*
X138783585Y-95750649D01*
X138879343Y-95721601D01*
X138967595Y-95674429D01*
X139044948Y-95610948D01*
X139060855Y-95591565D01*
X140911572Y-93740849D01*
X140930949Y-93724947D01*
X140944857Y-93708000D01*
X141046922Y-93708000D01*
X141197809Y-93677987D01*
X141339942Y-93619113D01*
X141467859Y-93533642D01*
X141576642Y-93424859D01*
X141587907Y-93408000D01*
X143523374Y-93408000D01*
X143547000Y-93410327D01*
X143570626Y-93408000D01*
X143641292Y-93401040D01*
X143731961Y-93373536D01*
X143815522Y-93328872D01*
X143888764Y-93268764D01*
X143903830Y-93250406D01*
X143921192Y-93233044D01*
X143941078Y-93237000D01*
X144094922Y-93237000D01*
X144245809Y-93206987D01*
X144387942Y-93148113D01*
X144515859Y-93062642D01*
X144624642Y-92953859D01*
X144710113Y-92825942D01*
X144768987Y-92683809D01*
X144799000Y-92532922D01*
X144799000Y-92379078D01*
X144768987Y-92228191D01*
X144710113Y-92086058D01*
X144624642Y-91958141D01*
X144515859Y-91849358D01*
X144387942Y-91763887D01*
X144245809Y-91705013D01*
X144094922Y-91675000D01*
X143941078Y-91675000D01*
X143790191Y-91705013D01*
X143648058Y-91763887D01*
X143520141Y-91849358D01*
X143411358Y-91958141D01*
X143325887Y-92086058D01*
X143267013Y-92228191D01*
X143237000Y-92379078D01*
X143237000Y-92446000D01*
X142126368Y-92446000D01*
X143971263Y-90601105D01*
X143995342Y-90581344D01*
X144074195Y-90485262D01*
X144132788Y-90375643D01*
X144168869Y-90256699D01*
X144168938Y-90256001D01*
X146310009Y-90256001D01*
X146340999Y-90259053D01*
X146371989Y-90256001D01*
X146371997Y-90256001D01*
X146464697Y-90246871D01*
X146583641Y-90210790D01*
X146693260Y-90152197D01*
X146789342Y-90073344D01*
X146809104Y-90049264D01*
X147534103Y-89324266D01*
X147593196Y-89252261D01*
X147651789Y-89142642D01*
X147687869Y-89023698D01*
X147700052Y-88900001D01*
X147687869Y-88776303D01*
X147651789Y-88657359D01*
X147593196Y-88547740D01*
X147574000Y-88524350D01*
X147574000Y-84352944D01*
X147576457Y-84328000D01*
X147574000Y-84303053D01*
X147566649Y-84228415D01*
X147537601Y-84132657D01*
X147515643Y-84091576D01*
X147490429Y-84044404D01*
X147467354Y-84016288D01*
X147426948Y-83967052D01*
X147407565Y-83951145D01*
X142362855Y-78906435D01*
X142346948Y-78887052D01*
X142269595Y-78823571D01*
X142181343Y-78776399D01*
X142085585Y-78747351D01*
X142010947Y-78740000D01*
X142010944Y-78740000D01*
X141986000Y-78737543D01*
X141961056Y-78740000D01*
X140042501Y-78740000D01*
X139943859Y-78641358D01*
X139815942Y-78555887D01*
X139673809Y-78497013D01*
X139522922Y-78467000D01*
X139369078Y-78467000D01*
X139218191Y-78497013D01*
X139076058Y-78555887D01*
X138948141Y-78641358D01*
X138839358Y-78750141D01*
X138753887Y-78878058D01*
X138695013Y-79020191D01*
X138665000Y-79171078D01*
X138665000Y-79324922D01*
X138695013Y-79475809D01*
X138753887Y-79617942D01*
X138839358Y-79745859D01*
X138948141Y-79854642D01*
X139076058Y-79940113D01*
X139218191Y-79998987D01*
X139369078Y-80029000D01*
X139522922Y-80029000D01*
X139673809Y-79998987D01*
X139815942Y-79940113D01*
X139943859Y-79854642D01*
X140042501Y-79756000D01*
X141775580Y-79756000D01*
X146558001Y-84538421D01*
X146558000Y-88515631D01*
X146079631Y-88994001D01*
X143577997Y-88994001D01*
X143546999Y-88990948D01*
X143516001Y-88994001D01*
X143423301Y-89003131D01*
X143304357Y-89039212D01*
X143194738Y-89097805D01*
X143098656Y-89176658D01*
X143064986Y-89217685D01*
X142560683Y-89217685D01*
X144188268Y-87590101D01*
X144212343Y-87570343D01*
X144232105Y-87546263D01*
X145153921Y-86624447D01*
X145261809Y-86602987D01*
X145403942Y-86544113D01*
X145531859Y-86458642D01*
X145640642Y-86349859D01*
X145726113Y-86221942D01*
X145784987Y-86079809D01*
X145815000Y-85928922D01*
X145815000Y-85775078D01*
X145784987Y-85624191D01*
X145726113Y-85482058D01*
X145640642Y-85354141D01*
X145531859Y-85245358D01*
X145403942Y-85159887D01*
X145261809Y-85101013D01*
X145110922Y-85071000D01*
X144957078Y-85071000D01*
X144806191Y-85101013D01*
X144664058Y-85159887D01*
X144536141Y-85245358D01*
X144427358Y-85354141D01*
X144341887Y-85482058D01*
X144283013Y-85624191D01*
X144261553Y-85732079D01*
X144248920Y-85744712D01*
X144133942Y-85667887D01*
X143991809Y-85609013D01*
X143840922Y-85579000D01*
X143687078Y-85579000D01*
X143536191Y-85609013D01*
X143394058Y-85667887D01*
X143266141Y-85753358D01*
X143157358Y-85862141D01*
X143071887Y-85990058D01*
X143013013Y-86132191D01*
X142983000Y-86283078D01*
X142983000Y-86436922D01*
X143013013Y-86587809D01*
X143071887Y-86729942D01*
X143133000Y-86821405D01*
X143133000Y-86860631D01*
X141687632Y-88306000D01*
X141079328Y-88306000D01*
X140987865Y-88244887D01*
X140845732Y-88186013D01*
X140694845Y-88156000D01*
X140541001Y-88156000D01*
X140390114Y-88186013D01*
X140247981Y-88244887D01*
X140120064Y-88330358D01*
X140011281Y-88439141D01*
X139925810Y-88567058D01*
X139866936Y-88709191D01*
X139836923Y-88860078D01*
X139836923Y-89013922D01*
X139866936Y-89164809D01*
X139925810Y-89306942D01*
X140011281Y-89434859D01*
X140120064Y-89543642D01*
X140247981Y-89629113D01*
X140277196Y-89641214D01*
X140251228Y-89771763D01*
X140251228Y-89925607D01*
X140281241Y-90076494D01*
X140340115Y-90218627D01*
X140425586Y-90346544D01*
X140509764Y-90430722D01*
X140488191Y-90435013D01*
X140346058Y-90493887D01*
X140218141Y-90579358D01*
X140109358Y-90688141D01*
X140023887Y-90816058D01*
X139965013Y-90958191D01*
X139935000Y-91109078D01*
X139935000Y-91262922D01*
X139965013Y-91413809D01*
X140023887Y-91555942D01*
X140109358Y-91683859D01*
X140121499Y-91696000D01*
X140044501Y-91696000D01*
X139943859Y-91595358D01*
X139815942Y-91509887D01*
X139673809Y-91451013D01*
X139522922Y-91421000D01*
X139369078Y-91421000D01*
X139218191Y-91451013D01*
X139076058Y-91509887D01*
X138948141Y-91595358D01*
X138839358Y-91704141D01*
X138753887Y-91832058D01*
X138695013Y-91974191D01*
X138665000Y-92125078D01*
X138665000Y-92278922D01*
X138695013Y-92429809D01*
X138753887Y-92571942D01*
X138839358Y-92699859D01*
X138948141Y-92808642D01*
X139076058Y-92894113D01*
X139218191Y-92952987D01*
X139369078Y-92983000D01*
X139522922Y-92983000D01*
X139673809Y-92952987D01*
X139815942Y-92894113D01*
X139943859Y-92808642D01*
X140044501Y-92708000D01*
X140217261Y-92708000D01*
X140189000Y-92850078D01*
X140189000Y-92990486D01*
X140145572Y-93043404D01*
X140115025Y-93100555D01*
X138473580Y-94742000D01*
X134538442Y-94742000D01*
X134593809Y-94730987D01*
X134735942Y-94672113D01*
X134863859Y-94586642D01*
X134964501Y-94486000D01*
X136881154Y-94486000D01*
X136906000Y-94488447D01*
X136930846Y-94486000D01*
X136930854Y-94486000D01*
X137005193Y-94478678D01*
X137100575Y-94449745D01*
X137188479Y-94402759D01*
X137265527Y-94339527D01*
X137281376Y-94320215D01*
X137348591Y-94253000D01*
X137490922Y-94253000D01*
X137641809Y-94222987D01*
X137783942Y-94164113D01*
X137911859Y-94078642D01*
X138020642Y-93969859D01*
X138106113Y-93841942D01*
X138164987Y-93699809D01*
X138195000Y-93548922D01*
X138195000Y-93395078D01*
X138164987Y-93244191D01*
X138106113Y-93102058D01*
X138020642Y-92974141D01*
X137911859Y-92865358D01*
X137783942Y-92779887D01*
X137641809Y-92721013D01*
X137490922Y-92691000D01*
X137337078Y-92691000D01*
X137186191Y-92721013D01*
X137044058Y-92779887D01*
X136916141Y-92865358D01*
X136807358Y-92974141D01*
X136721887Y-93102058D01*
X136663013Y-93244191D01*
X136633000Y-93395078D01*
X136633000Y-93474000D01*
X134964501Y-93474000D01*
X134863859Y-93373358D01*
X134735942Y-93287887D01*
X134593809Y-93229013D01*
X134442922Y-93199000D01*
X134289078Y-93199000D01*
X134138191Y-93229013D01*
X133996058Y-93287887D01*
X133868141Y-93373358D01*
X133759358Y-93482141D01*
X133673887Y-93610058D01*
X133615013Y-93752191D01*
X133585000Y-93903078D01*
X133585000Y-94056922D01*
X133615013Y-94207809D01*
X133673887Y-94349942D01*
X133759358Y-94477859D01*
X133868141Y-94586642D01*
X133996058Y-94672113D01*
X134138191Y-94730987D01*
X134193558Y-94742000D01*
X129310947Y-94742000D01*
X129286000Y-94739543D01*
X129261053Y-94742000D01*
X129186415Y-94749351D01*
X129090657Y-94778399D01*
X129002405Y-94825571D01*
X128925052Y-94889052D01*
X128861571Y-94966405D01*
X128814399Y-95054657D01*
X128785351Y-95150415D01*
X128775543Y-95250000D01*
X128778000Y-95274947D01*
X128778001Y-101449540D01*
X126884541Y-103343001D01*
X117626963Y-103343001D01*
X117626963Y-101155538D01*
X117700642Y-101081859D01*
X117786113Y-100953942D01*
X117844987Y-100811809D01*
X117875000Y-100660922D01*
X117875000Y-100507078D01*
X117844987Y-100356191D01*
X117786113Y-100214058D01*
X117700642Y-100086141D01*
X117591859Y-99977358D01*
X117549418Y-99949000D01*
X117591859Y-99920642D01*
X117700642Y-99811859D01*
X117786113Y-99683942D01*
X117844987Y-99541809D01*
X117875000Y-99390922D01*
X117875000Y-99251420D01*
X119005157Y-98121264D01*
X119005157Y-98764000D01*
X119012513Y-98838689D01*
X119034299Y-98910508D01*
X119069678Y-98976696D01*
X119117289Y-99034711D01*
X119175304Y-99082322D01*
X119241492Y-99117701D01*
X119313311Y-99139487D01*
X119388000Y-99146843D01*
X120388000Y-99146843D01*
X120462689Y-99139487D01*
X120534508Y-99117701D01*
X120600696Y-99082322D01*
X120658711Y-99034711D01*
X120706322Y-98976696D01*
X120741701Y-98910508D01*
X120754825Y-98867245D01*
X120781150Y-98893570D01*
X121269716Y-99382137D01*
X121131809Y-99325013D01*
X120980922Y-99295000D01*
X120827078Y-99295000D01*
X120676191Y-99325013D01*
X120534058Y-99383887D01*
X120406141Y-99469358D01*
X120297358Y-99578141D01*
X120295343Y-99581157D01*
X119388000Y-99581157D01*
X119313311Y-99588513D01*
X119241492Y-99610299D01*
X119175304Y-99645678D01*
X119117289Y-99693289D01*
X119069678Y-99751304D01*
X119034299Y-99817492D01*
X119012513Y-99889311D01*
X119005157Y-99964000D01*
X119005157Y-102464000D01*
X119012513Y-102538689D01*
X119034299Y-102610508D01*
X119069678Y-102676696D01*
X119117289Y-102734711D01*
X119175304Y-102782322D01*
X119241492Y-102817701D01*
X119313311Y-102839487D01*
X119388000Y-102846843D01*
X120388000Y-102846843D01*
X120462689Y-102839487D01*
X120534508Y-102817701D01*
X120600696Y-102782322D01*
X120658711Y-102734711D01*
X120706322Y-102676696D01*
X120741701Y-102610508D01*
X120763487Y-102538689D01*
X120770843Y-102464000D01*
X120770843Y-101101525D01*
X121023922Y-100848447D01*
X121131809Y-100826987D01*
X121273942Y-100768113D01*
X121401859Y-100682642D01*
X121510642Y-100573859D01*
X121545157Y-100522203D01*
X121545157Y-102464000D01*
X121552513Y-102538689D01*
X121574299Y-102610508D01*
X121609678Y-102676696D01*
X121657289Y-102734711D01*
X121715304Y-102782322D01*
X121781492Y-102817701D01*
X121853311Y-102839487D01*
X121928000Y-102846843D01*
X122928000Y-102846843D01*
X123002689Y-102839487D01*
X123074508Y-102817701D01*
X123140696Y-102782322D01*
X123198711Y-102734711D01*
X123246322Y-102676696D01*
X123281701Y-102610508D01*
X123303487Y-102538689D01*
X123310843Y-102464000D01*
X123310843Y-101660212D01*
X123351595Y-101638429D01*
X123375270Y-101619000D01*
X123520922Y-101619000D01*
X123671809Y-101588987D01*
X123813942Y-101530113D01*
X123941859Y-101444642D01*
X124050642Y-101335859D01*
X124085157Y-101284203D01*
X124085157Y-102464000D01*
X124092513Y-102538689D01*
X124114299Y-102610508D01*
X124149678Y-102676696D01*
X124197289Y-102734711D01*
X124255304Y-102782322D01*
X124321492Y-102817701D01*
X124393311Y-102839487D01*
X124468000Y-102846843D01*
X125468000Y-102846843D01*
X125542689Y-102839487D01*
X125614508Y-102817701D01*
X125680696Y-102782322D01*
X125738711Y-102734711D01*
X125786322Y-102676696D01*
X125821701Y-102610508D01*
X125843487Y-102538689D01*
X125850843Y-102464000D01*
X125850843Y-99964000D01*
X125843487Y-99889311D01*
X125821701Y-99817492D01*
X125786322Y-99751304D01*
X125738711Y-99693289D01*
X125680696Y-99645678D01*
X125614508Y-99610299D01*
X125542689Y-99588513D01*
X125468000Y-99581157D01*
X124468000Y-99581157D01*
X124393311Y-99588513D01*
X124321492Y-99610299D01*
X124255304Y-99645678D01*
X124197289Y-99693289D01*
X124183054Y-99710634D01*
X123767854Y-99295434D01*
X123751947Y-99276051D01*
X123674594Y-99212570D01*
X123586342Y-99165398D01*
X123490584Y-99136350D01*
X123447375Y-99132094D01*
X123458537Y-99118494D01*
X123517502Y-99008180D01*
X123553812Y-98888482D01*
X123566072Y-98764000D01*
X123564276Y-98200196D01*
X123709079Y-98228999D01*
X123862923Y-98228999D01*
X123873648Y-98226866D01*
X123893256Y-98228797D01*
X124016954Y-98216614D01*
X124085157Y-98195925D01*
X124085157Y-98764000D01*
X124092513Y-98838689D01*
X124114299Y-98910508D01*
X124149678Y-98976696D01*
X124197289Y-99034711D01*
X124255304Y-99082322D01*
X124321492Y-99117701D01*
X124393311Y-99139487D01*
X124468000Y-99146843D01*
X125468000Y-99146843D01*
X125542689Y-99139487D01*
X125614508Y-99117701D01*
X125680696Y-99082322D01*
X125738711Y-99034711D01*
X125786322Y-98976696D01*
X125821701Y-98910508D01*
X125843487Y-98838689D01*
X125850843Y-98764000D01*
X125850843Y-96264000D01*
X125843487Y-96189311D01*
X125821701Y-96117492D01*
X125786322Y-96051304D01*
X125738711Y-95993289D01*
X125680696Y-95945678D01*
X125614508Y-95910299D01*
X125542689Y-95888513D01*
X125468000Y-95881157D01*
X124721211Y-95881157D01*
X128186269Y-92416100D01*
X128210343Y-92396343D01*
X128238768Y-92361708D01*
X128289196Y-92300261D01*
X128347789Y-92190642D01*
X128352227Y-92176013D01*
X128383870Y-92071698D01*
X128393000Y-91978998D01*
X128393000Y-91978989D01*
X128396052Y-91948001D01*
X128393000Y-91917013D01*
X128393000Y-91139405D01*
X128454113Y-91047942D01*
X128512987Y-90905809D01*
X128543000Y-90754922D01*
X128543000Y-90601078D01*
X128512987Y-90450191D01*
X128454113Y-90308058D01*
X128368642Y-90180141D01*
X128259859Y-90071358D01*
X128131942Y-89985887D01*
X127989809Y-89927013D01*
X127838922Y-89897000D01*
X127685078Y-89897000D01*
X127534191Y-89927013D01*
X127408576Y-89979045D01*
X127424429Y-89959728D01*
X127471601Y-89871476D01*
X127500649Y-89775718D01*
X127508000Y-89701080D01*
X127508000Y-89701077D01*
X127510457Y-89676133D01*
X127508000Y-89651189D01*
X127508000Y-88315078D01*
X128251000Y-88315078D01*
X128251000Y-88468922D01*
X128281013Y-88619809D01*
X128339887Y-88761942D01*
X128401000Y-88853405D01*
X128401000Y-88869010D01*
X128397948Y-88900000D01*
X128401000Y-88930990D01*
X128401000Y-88930997D01*
X128410130Y-89023697D01*
X128446211Y-89142641D01*
X128504804Y-89252260D01*
X128583657Y-89348343D01*
X128607737Y-89368105D01*
X128767553Y-89527921D01*
X128789013Y-89635809D01*
X128847887Y-89777942D01*
X128933358Y-89905859D01*
X129042141Y-90014642D01*
X129170058Y-90100113D01*
X129312191Y-90158987D01*
X129367558Y-90170000D01*
X129312191Y-90181013D01*
X129170058Y-90239887D01*
X129042141Y-90325358D01*
X128933358Y-90434141D01*
X128847887Y-90562058D01*
X128789013Y-90704191D01*
X128759000Y-90855078D01*
X128759000Y-91008922D01*
X128789013Y-91159809D01*
X128847887Y-91301942D01*
X128933358Y-91429859D01*
X129042141Y-91538642D01*
X129170058Y-91624113D01*
X129312191Y-91682987D01*
X129463078Y-91713000D01*
X129616922Y-91713000D01*
X129767809Y-91682987D01*
X129909942Y-91624113D01*
X130037859Y-91538642D01*
X130136501Y-91440000D01*
X132499499Y-91440000D01*
X132598141Y-91538642D01*
X132726058Y-91624113D01*
X132868191Y-91682987D01*
X133019078Y-91713000D01*
X133172922Y-91713000D01*
X133323809Y-91682987D01*
X133465942Y-91624113D01*
X133593859Y-91538642D01*
X133702642Y-91429859D01*
X133788113Y-91301942D01*
X133846987Y-91159809D01*
X133877000Y-91008922D01*
X133877000Y-90855078D01*
X133846987Y-90704191D01*
X133788113Y-90562058D01*
X133702642Y-90434141D01*
X133593859Y-90325358D01*
X133524645Y-90279111D01*
X133534113Y-90264942D01*
X133592987Y-90122809D01*
X133593030Y-90122594D01*
X133630191Y-90137987D01*
X133781078Y-90168000D01*
X133934922Y-90168000D01*
X134085809Y-90137987D01*
X134227942Y-90079113D01*
X134355859Y-89993642D01*
X134464642Y-89884859D01*
X134550113Y-89756942D01*
X134608987Y-89614809D01*
X134639000Y-89463922D01*
X134639000Y-89310078D01*
X134608987Y-89159191D01*
X134550113Y-89017058D01*
X134464642Y-88889141D01*
X134355859Y-88780358D01*
X134227942Y-88694887D01*
X134085809Y-88636013D01*
X133934922Y-88606000D01*
X133781078Y-88606000D01*
X133630191Y-88636013D01*
X133488058Y-88694887D01*
X133397288Y-88755537D01*
X133371000Y-88752948D01*
X133340009Y-88756000D01*
X133340002Y-88756000D01*
X133247302Y-88765130D01*
X133128358Y-88801211D01*
X133018739Y-88859804D01*
X132957404Y-88910141D01*
X132922657Y-88938657D01*
X132902899Y-88962732D01*
X132748293Y-89117339D01*
X132614191Y-89144013D01*
X132472058Y-89202887D01*
X132349167Y-89285000D01*
X130311835Y-89285000D01*
X130290987Y-89180191D01*
X130232113Y-89038058D01*
X130146642Y-88910141D01*
X130037859Y-88801358D01*
X129909942Y-88715887D01*
X129767809Y-88657013D01*
X129767594Y-88656970D01*
X129782987Y-88619809D01*
X129813000Y-88468922D01*
X129813000Y-88315078D01*
X129782987Y-88164191D01*
X129724113Y-88022058D01*
X129638642Y-87894141D01*
X129529859Y-87785358D01*
X129401942Y-87699887D01*
X129259809Y-87641013D01*
X129108922Y-87611000D01*
X128955078Y-87611000D01*
X128804191Y-87641013D01*
X128662058Y-87699887D01*
X128534141Y-87785358D01*
X128425358Y-87894141D01*
X128339887Y-88022058D01*
X128281013Y-88164191D01*
X128251000Y-88315078D01*
X127508000Y-88315078D01*
X127508000Y-79144458D01*
X131247162Y-75405296D01*
X131259343Y-75401601D01*
X131347595Y-75354429D01*
X131424948Y-75290948D01*
X131440855Y-75271565D01*
X132271421Y-74441000D01*
X132410922Y-74441000D01*
X132561809Y-74410987D01*
X132703942Y-74352113D01*
X132831859Y-74266642D01*
X132940642Y-74157859D01*
X133026113Y-74029942D01*
X133084987Y-73887809D01*
X133115000Y-73736922D01*
X133115000Y-73583078D01*
X133084987Y-73432191D01*
X133026113Y-73290058D01*
X132940642Y-73162141D01*
X132930501Y-73152000D01*
X132940642Y-73141859D01*
X133026113Y-73013942D01*
X133084987Y-72871809D01*
X133115000Y-72720922D01*
X133115000Y-72567078D01*
X133084987Y-72416191D01*
X133026113Y-72274058D01*
X132940642Y-72146141D01*
X132831859Y-72037358D01*
X132703942Y-71951887D01*
X132561809Y-71893013D01*
X132410922Y-71863000D01*
X132353000Y-71863000D01*
X132353000Y-71805078D01*
X132322987Y-71654191D01*
X132264113Y-71512058D01*
X132178642Y-71384141D01*
X132069859Y-71275358D01*
X131941942Y-71189887D01*
X131799809Y-71131013D01*
X131648922Y-71101000D01*
X131495078Y-71101000D01*
X131344191Y-71131013D01*
X131202058Y-71189887D01*
X131074141Y-71275358D01*
X130965358Y-71384141D01*
X130879887Y-71512058D01*
X130821013Y-71654191D01*
X130791000Y-71805078D01*
X130791000Y-71944580D01*
X128486843Y-74248737D01*
X128486843Y-72556000D01*
X128479487Y-72481311D01*
X128457701Y-72409492D01*
X128422322Y-72343304D01*
X128374711Y-72285289D01*
X128316696Y-72237678D01*
X128250508Y-72202299D01*
X128178689Y-72180513D01*
X128104000Y-72173157D01*
X126404000Y-72173157D01*
X126329311Y-72180513D01*
X126257492Y-72202299D01*
X126191304Y-72237678D01*
X126133289Y-72285289D01*
X126085678Y-72343304D01*
X126050299Y-72409492D01*
X126028513Y-72481311D01*
X126021157Y-72556000D01*
X126021157Y-72712633D01*
X125909178Y-72524645D01*
X125714269Y-72308412D01*
X125480920Y-72134359D01*
X125218099Y-72009175D01*
X125070890Y-71964524D01*
X124841000Y-72085845D01*
X124841000Y-73279000D01*
X124861000Y-73279000D01*
X124861000Y-73533000D01*
X124841000Y-73533000D01*
X124841000Y-74726155D01*
X125070890Y-74847476D01*
X125218099Y-74802825D01*
X125480920Y-74677641D01*
X125714269Y-74503588D01*
X125909178Y-74287355D01*
X126021157Y-74099367D01*
X126021157Y-74256000D01*
X126028513Y-74330689D01*
X126050299Y-74402508D01*
X126085678Y-74468696D01*
X126133289Y-74526711D01*
X126191304Y-74574322D01*
X126257492Y-74609701D01*
X126329311Y-74631487D01*
X126404000Y-74638843D01*
X128096737Y-74638843D01*
X125134435Y-77601145D01*
X125115052Y-77617052D01*
X125051571Y-77694405D01*
X125004399Y-77782658D01*
X124975351Y-77878416D01*
X124968000Y-77953053D01*
X124965543Y-77978000D01*
X124968000Y-78002944D01*
X124968001Y-89705578D01*
X124272040Y-90401539D01*
X124195859Y-90325358D01*
X124067942Y-90239887D01*
X123925809Y-90181013D01*
X123774922Y-90151000D01*
X123621078Y-90151000D01*
X123470191Y-90181013D01*
X123328058Y-90239887D01*
X123200141Y-90325358D01*
X123091358Y-90434141D01*
X123005887Y-90562058D01*
X122947013Y-90704191D01*
X122917000Y-90855078D01*
X122917000Y-91008922D01*
X122947013Y-91159809D01*
X123005887Y-91301942D01*
X123091358Y-91429859D01*
X123200141Y-91538642D01*
X123328058Y-91624113D01*
X123470191Y-91682987D01*
X123605705Y-91709942D01*
X123188708Y-92126939D01*
X123209000Y-92024922D01*
X123209000Y-91871078D01*
X123178987Y-91720191D01*
X123120113Y-91578058D01*
X123034642Y-91450141D01*
X122925859Y-91341358D01*
X122797942Y-91255887D01*
X122655809Y-91197013D01*
X122504922Y-91167000D01*
X122365421Y-91167000D01*
X120299854Y-89101434D01*
X120283947Y-89082051D01*
X120206594Y-89018570D01*
X120118342Y-88971398D01*
X120022584Y-88942350D01*
X119947946Y-88934999D01*
X119947943Y-88934999D01*
X119922999Y-88932542D01*
X119898055Y-88934999D01*
X114420730Y-88934999D01*
X114329587Y-88907351D01*
X114254949Y-88900000D01*
X114254946Y-88900000D01*
X114230002Y-88897543D01*
X114205058Y-88900000D01*
X113372501Y-88900000D01*
X113382642Y-88889859D01*
X113468113Y-88761942D01*
X113526987Y-88619809D01*
X113557000Y-88468922D01*
X113557000Y-88315078D01*
X113526987Y-88164191D01*
X113468113Y-88022058D01*
X113382642Y-87894141D01*
X113284000Y-87795499D01*
X113284000Y-87654944D01*
X113286457Y-87630000D01*
X113280581Y-87570343D01*
X113276649Y-87530415D01*
X113247601Y-87434657D01*
X113200429Y-87346405D01*
X113136948Y-87269052D01*
X113117565Y-87253145D01*
X107360420Y-81496000D01*
X119721157Y-81496000D01*
X119721157Y-83096000D01*
X119728513Y-83170689D01*
X119750299Y-83242508D01*
X119785678Y-83308696D01*
X119833289Y-83366711D01*
X119891304Y-83414322D01*
X119957492Y-83449701D01*
X120029311Y-83471487D01*
X120104000Y-83478843D01*
X121704000Y-83478843D01*
X121778689Y-83471487D01*
X121850508Y-83449701D01*
X121916696Y-83414322D01*
X121974711Y-83366711D01*
X122022322Y-83308696D01*
X122057701Y-83242508D01*
X122079487Y-83170689D01*
X122086843Y-83096000D01*
X122086843Y-81496000D01*
X122079487Y-81421311D01*
X122057701Y-81349492D01*
X122022322Y-81283304D01*
X121974711Y-81225289D01*
X121916696Y-81177678D01*
X121850508Y-81142299D01*
X121778689Y-81120513D01*
X121704000Y-81113157D01*
X121482391Y-81113157D01*
X121520292Y-81099603D01*
X121645514Y-81032671D01*
X121717097Y-80788702D01*
X120904000Y-79975605D01*
X120090903Y-80788702D01*
X120162486Y-81032671D01*
X120332585Y-81113157D01*
X120104000Y-81113157D01*
X120029311Y-81120513D01*
X119957492Y-81142299D01*
X119891304Y-81177678D01*
X119833289Y-81225289D01*
X119785678Y-81283304D01*
X119750299Y-81349492D01*
X119728513Y-81421311D01*
X119721157Y-81496000D01*
X107360420Y-81496000D01*
X106884119Y-81019699D01*
X106907809Y-81014987D01*
X107049942Y-80956113D01*
X107177859Y-80870642D01*
X107286642Y-80761859D01*
X107372113Y-80633942D01*
X107430987Y-80491809D01*
X107461000Y-80340922D01*
X107461000Y-80187078D01*
X107430987Y-80036191D01*
X107372113Y-79894058D01*
X107353708Y-79866512D01*
X119463783Y-79866512D01*
X119505213Y-80146130D01*
X119600397Y-80412292D01*
X119667329Y-80537514D01*
X119911298Y-80609097D01*
X120724395Y-79796000D01*
X121083605Y-79796000D01*
X121896702Y-80609097D01*
X122140671Y-80537514D01*
X122261571Y-80282004D01*
X122330300Y-80007816D01*
X122344217Y-79725488D01*
X122302787Y-79445870D01*
X122207603Y-79179708D01*
X122140671Y-79054486D01*
X121896702Y-78982903D01*
X121083605Y-79796000D01*
X120724395Y-79796000D01*
X119911298Y-78982903D01*
X119667329Y-79054486D01*
X119546429Y-79309996D01*
X119477700Y-79584184D01*
X119463783Y-79866512D01*
X107353708Y-79866512D01*
X107286642Y-79766141D01*
X107177859Y-79657358D01*
X107049942Y-79571887D01*
X106907809Y-79513013D01*
X106756922Y-79483000D01*
X106617421Y-79483000D01*
X105937719Y-78803298D01*
X120090903Y-78803298D01*
X120904000Y-79616395D01*
X121717097Y-78803298D01*
X121645514Y-78559329D01*
X121390004Y-78438429D01*
X121115816Y-78369700D01*
X120833488Y-78355783D01*
X120553870Y-78397213D01*
X120287708Y-78492397D01*
X120162486Y-78559329D01*
X120090903Y-78803298D01*
X105937719Y-78803298D01*
X105664000Y-78529580D01*
X105664000Y-78256943D01*
X105666457Y-78231999D01*
X105662777Y-78194638D01*
X105656649Y-78132415D01*
X105627601Y-78036657D01*
X105627600Y-78036655D01*
X105580429Y-77948404D01*
X105532850Y-77890429D01*
X105516948Y-77871052D01*
X105497571Y-77855150D01*
X102779997Y-75137577D01*
X102779997Y-74853078D01*
X121901000Y-74853078D01*
X121901000Y-75006922D01*
X121931013Y-75157809D01*
X121989887Y-75299942D01*
X122075358Y-75427859D01*
X122184141Y-75536642D01*
X122312058Y-75622113D01*
X122454191Y-75680987D01*
X122605078Y-75711000D01*
X122758922Y-75711000D01*
X122909809Y-75680987D01*
X123051942Y-75622113D01*
X123179859Y-75536642D01*
X123288642Y-75427859D01*
X123374113Y-75299942D01*
X123432987Y-75157809D01*
X123463000Y-75006922D01*
X123463000Y-74853078D01*
X123432987Y-74702191D01*
X123374113Y-74560058D01*
X123288642Y-74432141D01*
X123179859Y-74323358D01*
X123051942Y-74237887D01*
X122909809Y-74179013D01*
X122758922Y-74149000D01*
X122605078Y-74149000D01*
X122454191Y-74179013D01*
X122312058Y-74237887D01*
X122184141Y-74323358D01*
X122075358Y-74432141D01*
X121989887Y-74560058D01*
X121931013Y-74702191D01*
X121901000Y-74853078D01*
X102779997Y-74853078D01*
X102779997Y-70900999D01*
X116629000Y-70900999D01*
X116628999Y-72496682D01*
X116623157Y-72556000D01*
X116623157Y-74256000D01*
X116630513Y-74330689D01*
X116652299Y-74402508D01*
X116687678Y-74468696D01*
X116735289Y-74526711D01*
X116793304Y-74574322D01*
X116859492Y-74609701D01*
X116931311Y-74631487D01*
X117006000Y-74638843D01*
X118706000Y-74638843D01*
X118780689Y-74631487D01*
X118852508Y-74609701D01*
X118918696Y-74574322D01*
X118976711Y-74526711D01*
X119024322Y-74468696D01*
X119059701Y-74402508D01*
X119081487Y-74330689D01*
X119088843Y-74256000D01*
X119088843Y-74099367D01*
X119200822Y-74287355D01*
X119395731Y-74503588D01*
X119629080Y-74677641D01*
X119891901Y-74802825D01*
X120039110Y-74847476D01*
X120269000Y-74726155D01*
X120269000Y-73533000D01*
X120523000Y-73533000D01*
X120523000Y-74726155D01*
X120752890Y-74847476D01*
X120900099Y-74802825D01*
X121162920Y-74677641D01*
X121396269Y-74503588D01*
X121591178Y-74287355D01*
X121740157Y-74037252D01*
X121837481Y-73762891D01*
X123272519Y-73762891D01*
X123369843Y-74037252D01*
X123518822Y-74287355D01*
X123713731Y-74503588D01*
X123947080Y-74677641D01*
X124209901Y-74802825D01*
X124357110Y-74847476D01*
X124587000Y-74726155D01*
X124587000Y-73533000D01*
X123393186Y-73533000D01*
X123272519Y-73762891D01*
X121837481Y-73762891D01*
X121716814Y-73533000D01*
X120523000Y-73533000D01*
X120269000Y-73533000D01*
X120249000Y-73533000D01*
X120249000Y-73279000D01*
X120269000Y-73279000D01*
X120269000Y-72085845D01*
X120523000Y-72085845D01*
X120523000Y-73279000D01*
X121716814Y-73279000D01*
X121837481Y-73049109D01*
X123272519Y-73049109D01*
X123393186Y-73279000D01*
X124587000Y-73279000D01*
X124587000Y-72085845D01*
X124357110Y-71964524D01*
X124209901Y-72009175D01*
X123947080Y-72134359D01*
X123713731Y-72308412D01*
X123518822Y-72524645D01*
X123369843Y-72774748D01*
X123272519Y-73049109D01*
X121837481Y-73049109D01*
X121740157Y-72774748D01*
X121591178Y-72524645D01*
X121396269Y-72308412D01*
X121162920Y-72134359D01*
X120900099Y-72009175D01*
X120752890Y-71964524D01*
X120523000Y-72085845D01*
X120269000Y-72085845D01*
X120039110Y-71964524D01*
X119891901Y-72009175D01*
X119629080Y-72134359D01*
X119395731Y-72308412D01*
X119200822Y-72524645D01*
X119088843Y-72712633D01*
X119088843Y-72556000D01*
X119081487Y-72481311D01*
X119059701Y-72409492D01*
X119024322Y-72343304D01*
X118976711Y-72285289D01*
X118918696Y-72237678D01*
X118852508Y-72202299D01*
X118780689Y-72180513D01*
X118706000Y-72173157D01*
X118158612Y-72173157D01*
X118028706Y-72133750D01*
X117890999Y-72120187D01*
X117890999Y-70900999D01*
X131730631Y-70900999D01*
X133227001Y-72397370D01*
X133227000Y-76677001D01*
X133227000Y-78532595D01*
X133165887Y-78624058D01*
X133107013Y-78766191D01*
X133077000Y-78917078D01*
X133077000Y-79070922D01*
X133107013Y-79221809D01*
X133165887Y-79363942D01*
X133227000Y-79455405D01*
X133227000Y-79548595D01*
X133165887Y-79640058D01*
X133107013Y-79782191D01*
X133077000Y-79933078D01*
X133077000Y-80086922D01*
X133107013Y-80237809D01*
X133165887Y-80379942D01*
X133227000Y-80471405D01*
X133227001Y-82857000D01*
X133223948Y-82888000D01*
X133236130Y-83011697D01*
X133272211Y-83130641D01*
X133330804Y-83240260D01*
X133389897Y-83312265D01*
X133389900Y-83312268D01*
X133409658Y-83336343D01*
X133433733Y-83356101D01*
X135995704Y-85918073D01*
X136002613Y-85952809D01*
X136061487Y-86094942D01*
X136146958Y-86222859D01*
X136255741Y-86331642D01*
X136383658Y-86417113D01*
X136525791Y-86475987D01*
X136552710Y-86481342D01*
X136579356Y-86615300D01*
X136638230Y-86757433D01*
X136723701Y-86885350D01*
X136832484Y-86994133D01*
X136960401Y-87079604D01*
X137102534Y-87138478D01*
X137253421Y-87168491D01*
X137407265Y-87168491D01*
X137558152Y-87138478D01*
X137700285Y-87079604D01*
X137828202Y-86994133D01*
X137936985Y-86885350D01*
X138022456Y-86757433D01*
X138081330Y-86615300D01*
X138111343Y-86464413D01*
X138111343Y-86310569D01*
X138081330Y-86159682D01*
X138022456Y-86017549D01*
X137936985Y-85889632D01*
X137828202Y-85780849D01*
X137700285Y-85695378D01*
X137558152Y-85636504D01*
X137531233Y-85631149D01*
X137504587Y-85497191D01*
X137445713Y-85355058D01*
X137360242Y-85227141D01*
X137251459Y-85118358D01*
X137123542Y-85032887D01*
X136981409Y-84974013D01*
X136830522Y-84944000D01*
X136806369Y-84944000D01*
X134489000Y-82626632D01*
X134489000Y-80471405D01*
X134550113Y-80379942D01*
X134608987Y-80237809D01*
X134639000Y-80086922D01*
X134639000Y-79933078D01*
X134608987Y-79782191D01*
X134550113Y-79640058D01*
X134489000Y-79548595D01*
X134489000Y-79455405D01*
X134550113Y-79363942D01*
X134608987Y-79221809D01*
X134639000Y-79070922D01*
X134639000Y-78917078D01*
X134608987Y-78766191D01*
X134550113Y-78624058D01*
X134489000Y-78532595D01*
X134489000Y-75500000D01*
X143189543Y-75500000D01*
X143192001Y-75524954D01*
X143192000Y-79096056D01*
X143189543Y-79121000D01*
X143192000Y-79145944D01*
X143192000Y-79145946D01*
X143199351Y-79220584D01*
X143228399Y-79316342D01*
X143275571Y-79404595D01*
X143339052Y-79481948D01*
X143358435Y-79497855D01*
X144085145Y-80224565D01*
X144101052Y-80243948D01*
X144178405Y-80307429D01*
X144266657Y-80354601D01*
X144362415Y-80383649D01*
X144364629Y-80383867D01*
X144397678Y-80445696D01*
X144445289Y-80503711D01*
X144503304Y-80551322D01*
X144569492Y-80586701D01*
X144641311Y-80608487D01*
X144716000Y-80615843D01*
X146316000Y-80615843D01*
X146390689Y-80608487D01*
X146462508Y-80586701D01*
X146528696Y-80551322D01*
X146586711Y-80503711D01*
X146634322Y-80445696D01*
X146669701Y-80379508D01*
X146691487Y-80307689D01*
X146698843Y-80233000D01*
X146698843Y-79533000D01*
X146693127Y-79474963D01*
X146767185Y-79414185D01*
X146846537Y-79317494D01*
X146905502Y-79207180D01*
X146941812Y-79087482D01*
X146954072Y-78963000D01*
X146951000Y-78898750D01*
X146792250Y-78740000D01*
X145643000Y-78740000D01*
X145643000Y-78760000D01*
X145389000Y-78760000D01*
X145389000Y-78740000D01*
X145369000Y-78740000D01*
X145369000Y-78486000D01*
X145389000Y-78486000D01*
X145389000Y-78466000D01*
X145643000Y-78466000D01*
X145643000Y-78486000D01*
X146792250Y-78486000D01*
X146951000Y-78327250D01*
X146954072Y-78263000D01*
X146941812Y-78138518D01*
X146905502Y-78018820D01*
X146846537Y-77908506D01*
X146799343Y-77851000D01*
X146914056Y-77851000D01*
X146939000Y-77853457D01*
X146963944Y-77851000D01*
X146963947Y-77851000D01*
X147038585Y-77843649D01*
X147038950Y-77843538D01*
X152119200Y-77843538D01*
X152119200Y-78214062D01*
X152191486Y-78577467D01*
X152333280Y-78919787D01*
X152539132Y-79227867D01*
X152801133Y-79489868D01*
X153109213Y-79695720D01*
X153451533Y-79837514D01*
X153814938Y-79909800D01*
X154185462Y-79909800D01*
X154548867Y-79837514D01*
X154891187Y-79695720D01*
X155199267Y-79489868D01*
X155461268Y-79227867D01*
X155667120Y-78919787D01*
X155808914Y-78577467D01*
X155881200Y-78214062D01*
X155881200Y-77843538D01*
X155808914Y-77480133D01*
X155667120Y-77137813D01*
X155461268Y-76829733D01*
X155199267Y-76567732D01*
X154891187Y-76361880D01*
X154548867Y-76220086D01*
X154185462Y-76147800D01*
X153814938Y-76147800D01*
X153451533Y-76220086D01*
X153109213Y-76361880D01*
X152801133Y-76567732D01*
X152539132Y-76829733D01*
X152333280Y-77137813D01*
X152191486Y-77480133D01*
X152119200Y-77843538D01*
X147038950Y-77843538D01*
X147134343Y-77814601D01*
X147222595Y-77767429D01*
X147252362Y-77743000D01*
X147396922Y-77743000D01*
X147547809Y-77712987D01*
X147689942Y-77654113D01*
X147817859Y-77568642D01*
X147926642Y-77459859D01*
X148012113Y-77331942D01*
X148070987Y-77189809D01*
X148101000Y-77038922D01*
X148101000Y-76885078D01*
X148070987Y-76734191D01*
X148012113Y-76592058D01*
X147926642Y-76464141D01*
X147817859Y-76355358D01*
X147775418Y-76327000D01*
X147817859Y-76298642D01*
X147926642Y-76189859D01*
X148012113Y-76061942D01*
X148070987Y-75919809D01*
X148101000Y-75768922D01*
X148101000Y-75615078D01*
X148070987Y-75464191D01*
X148012113Y-75322058D01*
X147926642Y-75194141D01*
X147817859Y-75085358D01*
X147689942Y-74999887D01*
X147547809Y-74941013D01*
X147396922Y-74911000D01*
X147243078Y-74911000D01*
X147092191Y-74941013D01*
X146950058Y-74999887D01*
X146822141Y-75085358D01*
X146713358Y-75194141D01*
X146627887Y-75322058D01*
X146577182Y-75444469D01*
X146528696Y-75404678D01*
X146462508Y-75369299D01*
X146390689Y-75347513D01*
X146316000Y-75340157D01*
X144716000Y-75340157D01*
X144641311Y-75347513D01*
X144569492Y-75369299D01*
X144525729Y-75392692D01*
X147020421Y-72898000D01*
X147739499Y-72898000D01*
X147838141Y-72996642D01*
X147966058Y-73082113D01*
X148108191Y-73140987D01*
X148259078Y-73171000D01*
X148412922Y-73171000D01*
X148563809Y-73140987D01*
X148705942Y-73082113D01*
X148833859Y-72996642D01*
X148942642Y-72887859D01*
X149028113Y-72759942D01*
X149086987Y-72617809D01*
X149117000Y-72466922D01*
X149117000Y-72313078D01*
X149086987Y-72162191D01*
X149028113Y-72020058D01*
X148942642Y-71892141D01*
X148833859Y-71783358D01*
X148705942Y-71697887D01*
X148563809Y-71639013D01*
X148412922Y-71609000D01*
X148259078Y-71609000D01*
X148108191Y-71639013D01*
X147966058Y-71697887D01*
X147838141Y-71783358D01*
X147739499Y-71882000D01*
X146834943Y-71882000D01*
X146809999Y-71879543D01*
X146785055Y-71882000D01*
X146785053Y-71882000D01*
X146710415Y-71889351D01*
X146614657Y-71918399D01*
X146614655Y-71918400D01*
X146526404Y-71965571D01*
X146500209Y-71987069D01*
X146449052Y-72029052D01*
X146433150Y-72048429D01*
X143358430Y-75123150D01*
X143339053Y-75139052D01*
X143323151Y-75158429D01*
X143323150Y-75158430D01*
X143275571Y-75216405D01*
X143235833Y-75290751D01*
X143228400Y-75304657D01*
X143199782Y-75399000D01*
X143199352Y-75400416D01*
X143189543Y-75500000D01*
X134489000Y-75500000D01*
X134489000Y-72166990D01*
X134492052Y-72136000D01*
X134489000Y-72105009D01*
X134489000Y-72105002D01*
X134479870Y-72012302D01*
X134443789Y-71893358D01*
X134385196Y-71783739D01*
X134306343Y-71687657D01*
X134282268Y-71667899D01*
X132460104Y-69845736D01*
X132440342Y-69821656D01*
X132344260Y-69742803D01*
X132234641Y-69684210D01*
X132115697Y-69648129D01*
X132022997Y-69638999D01*
X132022989Y-69638999D01*
X131991999Y-69635947D01*
X131961009Y-69638999D01*
X117212991Y-69638999D01*
X117182001Y-69635947D01*
X117151011Y-69638999D01*
X101658986Y-69638999D01*
X101627998Y-69635947D01*
X101597011Y-69638999D01*
X101597001Y-69638999D01*
X101504301Y-69648129D01*
X101385357Y-69684210D01*
X101361431Y-69696999D01*
X95672989Y-69696999D01*
X95641999Y-69693947D01*
X95611008Y-69696999D01*
X95611001Y-69696999D01*
X95518301Y-69706129D01*
X95399357Y-69742210D01*
X95289738Y-69800803D01*
X95221996Y-69856398D01*
X95193656Y-69879656D01*
X95173898Y-69903731D01*
X92197732Y-72879898D01*
X92173657Y-72899656D01*
X92153899Y-72923731D01*
X92153896Y-72923734D01*
X92094803Y-72995739D01*
X92036210Y-73105358D01*
X92000129Y-73224302D01*
X91987947Y-73347999D01*
X91991000Y-73378999D01*
X91991000Y-74652044D01*
X91979341Y-74635634D01*
X91958471Y-74605376D01*
X91954783Y-74601071D01*
X91762639Y-74379990D01*
X91735877Y-74354677D01*
X91709526Y-74329047D01*
X91705077Y-74325544D01*
X91705073Y-74325541D01*
X91705069Y-74325539D01*
X91473643Y-74145990D01*
X91442496Y-74126371D01*
X91411650Y-74106336D01*
X91406602Y-74103763D01*
X91406598Y-74103760D01*
X91406594Y-74103758D01*
X91144705Y-73972581D01*
X91133180Y-73968155D01*
X90997784Y-73903284D01*
X90905228Y-73834043D01*
X90827885Y-73748145D01*
X90768698Y-73648858D01*
X90729926Y-73539973D01*
X90713040Y-73425618D01*
X90718686Y-73310175D01*
X90745155Y-73204016D01*
X94225718Y-67175538D01*
X117067200Y-67175538D01*
X117067200Y-67546062D01*
X117139486Y-67909467D01*
X117281280Y-68251787D01*
X117487132Y-68559867D01*
X117749133Y-68821868D01*
X118057213Y-69027720D01*
X118399533Y-69169514D01*
X118762938Y-69241800D01*
X119133462Y-69241800D01*
X119496867Y-69169514D01*
X119839187Y-69027720D01*
X120147267Y-68821868D01*
X120409268Y-68559867D01*
X120615120Y-68251787D01*
X120756914Y-67909467D01*
X120829200Y-67546062D01*
X120829200Y-67175538D01*
X124179200Y-67175538D01*
X124179200Y-67546062D01*
X124251486Y-67909467D01*
X124393280Y-68251787D01*
X124599132Y-68559867D01*
X124861133Y-68821868D01*
X125169213Y-69027720D01*
X125511533Y-69169514D01*
X125874938Y-69241800D01*
X126245462Y-69241800D01*
X126608867Y-69169514D01*
X126951187Y-69027720D01*
X127259267Y-68821868D01*
X127521268Y-68559867D01*
X127727120Y-68251787D01*
X127868914Y-67909467D01*
X127941200Y-67546062D01*
X127941200Y-67175538D01*
X127868914Y-66812133D01*
X127727120Y-66469813D01*
X127521268Y-66161733D01*
X127259267Y-65899732D01*
X126951187Y-65693880D01*
X126608867Y-65552086D01*
X126245462Y-65479800D01*
X125874938Y-65479800D01*
X125511533Y-65552086D01*
X125169213Y-65693880D01*
X124861133Y-65899732D01*
X124599132Y-66161733D01*
X124393280Y-66469813D01*
X124251486Y-66812133D01*
X124179200Y-67175538D01*
X120829200Y-67175538D01*
X120756914Y-66812133D01*
X120615120Y-66469813D01*
X120409268Y-66161733D01*
X120147267Y-65899732D01*
X119839187Y-65693880D01*
X119496867Y-65552086D01*
X119133462Y-65479800D01*
X118762938Y-65479800D01*
X118399533Y-65552086D01*
X118057213Y-65693880D01*
X117749133Y-65899732D01*
X117487132Y-66161733D01*
X117281280Y-66469813D01*
X117139486Y-66812133D01*
X117067200Y-67175538D01*
X94225718Y-67175538D01*
X103816486Y-50563938D01*
X104875200Y-50563938D01*
X104875200Y-50934462D01*
X104947486Y-51297867D01*
X105089280Y-51640187D01*
X105295132Y-51948267D01*
X105557133Y-52210268D01*
X105865213Y-52416120D01*
X106207533Y-52557914D01*
X106570938Y-52630200D01*
X106941462Y-52630200D01*
X107304867Y-52557914D01*
X107647187Y-52416120D01*
X107955267Y-52210268D01*
X108217268Y-51948267D01*
X108423120Y-51640187D01*
X108564914Y-51297867D01*
X108637200Y-50934462D01*
X108637200Y-50563938D01*
X108564914Y-50200533D01*
X108423120Y-49858213D01*
X108217268Y-49550133D01*
X107955267Y-49288132D01*
X107647187Y-49082280D01*
X107304867Y-48940486D01*
X106941462Y-48868200D01*
X106570938Y-48868200D01*
X106207533Y-48940486D01*
X105865213Y-49082280D01*
X105557133Y-49288132D01*
X105295132Y-49550133D01*
X105089280Y-49858213D01*
X104947486Y-50200533D01*
X104875200Y-50563938D01*
X103816486Y-50563938D01*
X105239801Y-48098700D01*
X134284467Y-48098697D01*
X134398346Y-48130492D01*
G37*
X134398346Y-48130492D02*
X134501520Y-48182609D01*
X134592603Y-48253771D01*
X134668132Y-48341272D01*
X134725227Y-48441778D01*
X134761710Y-48551450D01*
X134776197Y-48666132D01*
X134766622Y-48803074D01*
X134757010Y-48866739D01*
X134755868Y-48888639D01*
X134752817Y-48910348D01*
X134752619Y-48916014D01*
X134744531Y-49205615D01*
X134747100Y-49242350D01*
X134749153Y-49279062D01*
X134750059Y-49284658D01*
X134798375Y-49570316D01*
X134808030Y-49605853D01*
X134817175Y-49641469D01*
X134819148Y-49646775D01*
X134819150Y-49646781D01*
X134819153Y-49646786D01*
X134922031Y-49917614D01*
X134938396Y-49950580D01*
X134954293Y-49983759D01*
X134957263Y-49988587D01*
X135110789Y-50234278D01*
X135133263Y-50263462D01*
X135155284Y-50292897D01*
X135159130Y-50297051D01*
X135159135Y-50297057D01*
X135159141Y-50297062D01*
X135357459Y-50508249D01*
X135385171Y-50532509D01*
X135412494Y-50557110D01*
X135417074Y-50560438D01*
X135417079Y-50560442D01*
X135417084Y-50560445D01*
X135651072Y-50727962D01*
X135666327Y-50739056D01*
X137581647Y-51862829D01*
X137582799Y-51863654D01*
X137598753Y-51872865D01*
X137614808Y-51882285D01*
X137616108Y-51882885D01*
X139548569Y-52998596D01*
X139551467Y-52999909D01*
X139577900Y-53014623D01*
X139596431Y-53022682D01*
X139614090Y-53032472D01*
X139619308Y-53034688D01*
X139889715Y-53147278D01*
X139924894Y-53158037D01*
X139959938Y-53169292D01*
X139965487Y-53170452D01*
X140252613Y-53228376D01*
X140289204Y-53232096D01*
X140325775Y-53236331D01*
X140331443Y-53236391D01*
X140331444Y-53236391D01*
X140624352Y-53237442D01*
X140661007Y-53233981D01*
X140697665Y-53231035D01*
X140703235Y-53229993D01*
X140703239Y-53229993D01*
X140703243Y-53229992D01*
X140990772Y-53174132D01*
X141026039Y-53163622D01*
X141061447Y-53153607D01*
X141066707Y-53151504D01*
X141066711Y-53151502D01*
X141337918Y-53040856D01*
X141370486Y-53023689D01*
X141403260Y-53006994D01*
X141408011Y-53003910D01*
X141408014Y-53003908D01*
X141408016Y-53003906D01*
X141652565Y-52842689D01*
X141662146Y-52834932D01*
X141786040Y-52750101D01*
X141892280Y-52704566D01*
X142005344Y-52680534D01*
X142120917Y-52678921D01*
X142234607Y-52699787D01*
X142342077Y-52742337D01*
X142439238Y-52804954D01*
X142536995Y-52899357D01*
X142551222Y-52914164D01*
X157036591Y-78003398D01*
X142520423Y-103145983D01*
X142424282Y-103240131D01*
X142327561Y-103303423D01*
X142220390Y-103346722D01*
X142106847Y-103368382D01*
X141991267Y-103367575D01*
X141878037Y-103344332D01*
X141771484Y-103299542D01*
X141657665Y-103222770D01*
X141607347Y-103182621D01*
X141588952Y-103170682D01*
X141571676Y-103157184D01*
X141566868Y-103154180D01*
X141320110Y-103002374D01*
X141287025Y-102986237D01*
X141254191Y-102969652D01*
X141248896Y-102967640D01*
X141248892Y-102967638D01*
X141248889Y-102967637D01*
X140977346Y-102866652D01*
X140941744Y-102857245D01*
X140906329Y-102847358D01*
X140900747Y-102846413D01*
X140900738Y-102846411D01*
X140900730Y-102846410D01*
X140614751Y-102800092D01*
X140578026Y-102797781D01*
X140541336Y-102794958D01*
X140535669Y-102795116D01*
X140246132Y-102805227D01*
X140209652Y-102810095D01*
X140173119Y-102814451D01*
X140167591Y-102815707D01*
X139885529Y-102881864D01*
X139850671Y-102893730D01*
X139815698Y-102905094D01*
X139810529Y-102907396D01*
X139810519Y-102907399D01*
X139810511Y-102907404D01*
X139548289Y-103026354D01*
X139531204Y-103033951D01*
X138548724Y-103592047D01*
X138576000Y-103454922D01*
X138576000Y-103301078D01*
X138545987Y-103150191D01*
X138487113Y-103008058D01*
X138401642Y-102880141D01*
X138292859Y-102771358D01*
X138164942Y-102685887D01*
X138022809Y-102627013D01*
X137871922Y-102597000D01*
X137718078Y-102597000D01*
X137567191Y-102627013D01*
X137425058Y-102685887D01*
X137297141Y-102771358D01*
X137196499Y-102872000D01*
X135280590Y-102872000D01*
X133922374Y-101513785D01*
X133906525Y-101494473D01*
X133829477Y-101431241D01*
X133741573Y-101384255D01*
X133646191Y-101355322D01*
X133571852Y-101348000D01*
X133571844Y-101348000D01*
X133546998Y-101345553D01*
X133522152Y-101348000D01*
X132424501Y-101348000D01*
X132323859Y-101247358D01*
X132195942Y-101161887D01*
X132053809Y-101103013D01*
X131902922Y-101073000D01*
X131749078Y-101073000D01*
X131598191Y-101103013D01*
X131456058Y-101161887D01*
X131328141Y-101247358D01*
X131219358Y-101356141D01*
X131133887Y-101484058D01*
X131075013Y-101626191D01*
X131045000Y-101777078D01*
X131045000Y-101930922D01*
X131075013Y-102081809D01*
X131133887Y-102223942D01*
X131219358Y-102351859D01*
X131328141Y-102460642D01*
X131456058Y-102546113D01*
X131598191Y-102604987D01*
X131749078Y-102635000D01*
X131902922Y-102635000D01*
X132053809Y-102604987D01*
X132195942Y-102546113D01*
X132323859Y-102460642D01*
X132424501Y-102360000D01*
X133337407Y-102360000D01*
X134271134Y-103293727D01*
X134155120Y-103258535D01*
X133966930Y-103240000D01*
X133241070Y-103240000D01*
X133052880Y-103258535D01*
X132811411Y-103331784D01*
X132588871Y-103450734D01*
X132393814Y-103610814D01*
X132233734Y-103805871D01*
X132114784Y-104028411D01*
X132041535Y-104269880D01*
X132016802Y-104521000D01*
X132041535Y-104772120D01*
X132114784Y-105013589D01*
X132233734Y-105236129D01*
X132393814Y-105431186D01*
X132588871Y-105591266D01*
X132811411Y-105710216D01*
X133052880Y-105783465D01*
X133241070Y-105802000D01*
X133966930Y-105802000D01*
X134155120Y-105783465D01*
X134396589Y-105710216D01*
X134619129Y-105591266D01*
X134814186Y-105431186D01*
X134974266Y-105236129D01*
X135093216Y-105013589D01*
X135166465Y-104772120D01*
X135191198Y-104521000D01*
X135166465Y-104269880D01*
X135093216Y-104028411D01*
X135014353Y-103880869D01*
X135046144Y-103884000D01*
X135046151Y-103884000D01*
X135070997Y-103886447D01*
X135095843Y-103884000D01*
X137196499Y-103884000D01*
X137297141Y-103984642D01*
X137425058Y-104070113D01*
X137567191Y-104128987D01*
X137593943Y-104134308D01*
X137583035Y-104140606D01*
X137566903Y-104149770D01*
X137565737Y-104150593D01*
X135633271Y-105266304D01*
X135630688Y-105268155D01*
X135604728Y-105283690D01*
X135588489Y-105295705D01*
X135571175Y-105306106D01*
X135566646Y-105309517D01*
X135333936Y-105487401D01*
X135306980Y-105512533D01*
X135279760Y-105537210D01*
X135275980Y-105541435D01*
X135082254Y-105761131D01*
X135060734Y-105790963D01*
X135038783Y-105820514D01*
X135035897Y-105825393D01*
X134888532Y-106078534D01*
X134873200Y-106112012D01*
X134857423Y-106145231D01*
X134855542Y-106150569D01*
X134855539Y-106150576D01*
X134855539Y-106150578D01*
X134760150Y-106427520D01*
X134751612Y-106463346D01*
X134742590Y-106498986D01*
X134741780Y-106504597D01*
X134701998Y-106794793D01*
X134700580Y-106831606D01*
X134698653Y-106868311D01*
X134698948Y-106873973D01*
X134716291Y-107166370D01*
X134718215Y-107178524D01*
X134729736Y-107328252D01*
X134716050Y-107443027D01*
X134680329Y-107552961D01*
X134623942Y-107653855D01*
X134549026Y-107741881D01*
X134458439Y-107813680D01*
X134355633Y-107866515D01*
X134225899Y-107903714D01*
X134219420Y-107904886D01*
X134208111Y-107908102D01*
X127477440Y-107908098D01*
X127477441Y-107020623D01*
X127479405Y-107000682D01*
X127471566Y-106921092D01*
X127448351Y-106844561D01*
X127410651Y-106774029D01*
X127359915Y-106712208D01*
X127298094Y-106661472D01*
X127227562Y-106623772D01*
X127151031Y-106600557D01*
X127091382Y-106594682D01*
X127091371Y-106594682D01*
X127071441Y-106592719D01*
X127051508Y-106594682D01*
X124494073Y-106594682D01*
X124646413Y-106442342D01*
X124780036Y-106242360D01*
X124872078Y-106020153D01*
X124919000Y-105784258D01*
X124919000Y-105543742D01*
X124872078Y-105307847D01*
X124780036Y-105085640D01*
X124646413Y-104885658D01*
X124476342Y-104715587D01*
X124276360Y-104581964D01*
X124129182Y-104521000D01*
X128841802Y-104521000D01*
X128866535Y-104772120D01*
X128939784Y-105013589D01*
X129058734Y-105236129D01*
X129218814Y-105431186D01*
X129413871Y-105591266D01*
X129636411Y-105710216D01*
X129877880Y-105783465D01*
X130066070Y-105802000D01*
X130791930Y-105802000D01*
X130980120Y-105783465D01*
X131221589Y-105710216D01*
X131444129Y-105591266D01*
X131639186Y-105431186D01*
X131799266Y-105236129D01*
X131918216Y-105013589D01*
X131991465Y-104772120D01*
X132016198Y-104521000D01*
X131991465Y-104269880D01*
X131918216Y-104028411D01*
X131799266Y-103805871D01*
X131639186Y-103610814D01*
X131444129Y-103450734D01*
X131221589Y-103331784D01*
X130980120Y-103258535D01*
X130791930Y-103240000D01*
X130066070Y-103240000D01*
X129877880Y-103258535D01*
X129636411Y-103331784D01*
X129413871Y-103450734D01*
X129218814Y-103610814D01*
X129058734Y-103805871D01*
X128939784Y-104028411D01*
X128866535Y-104269880D01*
X128841802Y-104521000D01*
X124129182Y-104521000D01*
X124054153Y-104489922D01*
X123818258Y-104443000D01*
X123577742Y-104443000D01*
X123341847Y-104489922D01*
X123119640Y-104581964D01*
X122919658Y-104715587D01*
X122749587Y-104885658D01*
X122615964Y-105085640D01*
X122523922Y-105307847D01*
X122477000Y-105543742D01*
X122477000Y-105784258D01*
X122523922Y-106020153D01*
X122615964Y-106242360D01*
X122749587Y-106442342D01*
X122901927Y-106594682D01*
X121954073Y-106594682D01*
X122106413Y-106442342D01*
X122240036Y-106242360D01*
X122332078Y-106020153D01*
X122379000Y-105784258D01*
X122379000Y-105543742D01*
X122332078Y-105307847D01*
X122240036Y-105085640D01*
X122106413Y-104885658D01*
X121936342Y-104715587D01*
X121736360Y-104581964D01*
X121514153Y-104489922D01*
X121278258Y-104443000D01*
X121037742Y-104443000D01*
X120801847Y-104489922D01*
X120579640Y-104581964D01*
X120379658Y-104715587D01*
X120209587Y-104885658D01*
X120075964Y-105085640D01*
X119983922Y-105307847D01*
X119937000Y-105543742D01*
X119937000Y-105784258D01*
X119983922Y-106020153D01*
X120075964Y-106242360D01*
X120209587Y-106442342D01*
X120361927Y-106594682D01*
X117947381Y-106594682D01*
X117927440Y-106592718D01*
X117907500Y-106594682D01*
X117907499Y-106594682D01*
X117847850Y-106600557D01*
X117771319Y-106623772D01*
X117700787Y-106661472D01*
X117638966Y-106712208D01*
X117588230Y-106774029D01*
X117550530Y-106844561D01*
X117527315Y-106921092D01*
X117519476Y-107000682D01*
X117521441Y-107020633D01*
X117521440Y-107908100D01*
X113111843Y-107908100D01*
X113111843Y-106927893D01*
X113129000Y-106929583D01*
X113534766Y-106929583D01*
X113573663Y-107057809D01*
X113671720Y-107241261D01*
X113803684Y-107402057D01*
X113964480Y-107534020D01*
X114147932Y-107632077D01*
X114346989Y-107692460D01*
X114554000Y-107712849D01*
X114761012Y-107692460D01*
X114960069Y-107632077D01*
X115143521Y-107534020D01*
X115304317Y-107402057D01*
X115436280Y-107241261D01*
X115534337Y-107057808D01*
X115594720Y-106858751D01*
X115610000Y-106703611D01*
X115610000Y-106249868D01*
X115594720Y-106094728D01*
X115534337Y-105895671D01*
X115436280Y-105712219D01*
X115304317Y-105551423D01*
X115189141Y-105456900D01*
X115237211Y-105417451D01*
X115284822Y-105359436D01*
X115320201Y-105293248D01*
X115341987Y-105221429D01*
X115349343Y-105146740D01*
X115349343Y-104446740D01*
X115341987Y-104372051D01*
X115325026Y-104316136D01*
X115329487Y-104301429D01*
X115336843Y-104226740D01*
X115336843Y-102726740D01*
X115329487Y-102652051D01*
X115307701Y-102580232D01*
X115272322Y-102514044D01*
X115224711Y-102456029D01*
X115166696Y-102408418D01*
X115100508Y-102373039D01*
X115028689Y-102351253D01*
X114954000Y-102343897D01*
X113501018Y-102343897D01*
X113474000Y-102341236D01*
X113446982Y-102343897D01*
X113024995Y-102343897D01*
X113011410Y-102326867D01*
X112915831Y-102246179D01*
X112806346Y-102185688D01*
X112687164Y-102147718D01*
X112585750Y-102136740D01*
X112427000Y-102295490D01*
X112427000Y-103469740D01*
X112501000Y-103469740D01*
X112501000Y-103723740D01*
X112427000Y-103723740D01*
X112427000Y-104897990D01*
X112585750Y-105056740D01*
X112687164Y-105045762D01*
X112746157Y-105026968D01*
X112746157Y-105115587D01*
X112729000Y-105113897D01*
X111299000Y-105113897D01*
X111224311Y-105121253D01*
X111152492Y-105143039D01*
X111086304Y-105178418D01*
X111054000Y-105204929D01*
X111021696Y-105178418D01*
X110955508Y-105143039D01*
X110883689Y-105121253D01*
X110809000Y-105113897D01*
X109399343Y-105113897D01*
X109399343Y-104771085D01*
X109407492Y-104775441D01*
X109479311Y-104797227D01*
X109554000Y-104804583D01*
X109954000Y-104804583D01*
X110028689Y-104797227D01*
X110079000Y-104781965D01*
X110129311Y-104797227D01*
X110204000Y-104804583D01*
X110604000Y-104804583D01*
X110678689Y-104797227D01*
X110729000Y-104781965D01*
X110779311Y-104797227D01*
X110854000Y-104804583D01*
X111254000Y-104804583D01*
X111328689Y-104797227D01*
X111379000Y-104781965D01*
X111429311Y-104797227D01*
X111504000Y-104804583D01*
X111647109Y-104804583D01*
X111696590Y-104866613D01*
X111792169Y-104947301D01*
X111901654Y-105007792D01*
X112020836Y-105045762D01*
X112122250Y-105056740D01*
X112281000Y-104897990D01*
X112281000Y-104481067D01*
X112286843Y-104421740D01*
X112286843Y-102771740D01*
X112281000Y-102712413D01*
X112281000Y-102295490D01*
X112122250Y-102136740D01*
X112020836Y-102147718D01*
X111901654Y-102185688D01*
X111792169Y-102246179D01*
X111696590Y-102326867D01*
X111647109Y-102388897D01*
X111504000Y-102388897D01*
X111429311Y-102396253D01*
X111379000Y-102411515D01*
X111328689Y-102396253D01*
X111254000Y-102388897D01*
X110854000Y-102388897D01*
X110779311Y-102396253D01*
X110729000Y-102411515D01*
X110678689Y-102396253D01*
X110604000Y-102388897D01*
X110529211Y-102388897D01*
X111804258Y-101113851D01*
X111828333Y-101094093D01*
X111851546Y-101065809D01*
X111907186Y-100998011D01*
X111965779Y-100888392D01*
X111970621Y-100872429D01*
X112001860Y-100769448D01*
X112010990Y-100676748D01*
X112010990Y-100676739D01*
X112014042Y-100645751D01*
X112010990Y-100614763D01*
X112010990Y-100381081D01*
X112014871Y-100384266D01*
X112237411Y-100503216D01*
X112478880Y-100576465D01*
X112667070Y-100595000D01*
X113392930Y-100595000D01*
X113581120Y-100576465D01*
X113822589Y-100503216D01*
X114045129Y-100384266D01*
X114240186Y-100224186D01*
X114400266Y-100029129D01*
X114519216Y-99806589D01*
X114592465Y-99565120D01*
X114617198Y-99314000D01*
X114592465Y-99062880D01*
X114519216Y-98821411D01*
X114400266Y-98598871D01*
X114240186Y-98403814D01*
X114045129Y-98243734D01*
X113822589Y-98124784D01*
X113581120Y-98051535D01*
X113392930Y-98033000D01*
X112667070Y-98033000D01*
X112478880Y-98051535D01*
X112467404Y-98055016D01*
X113475421Y-97047000D01*
X113614922Y-97047000D01*
X113765809Y-97016987D01*
X113907942Y-96958113D01*
X114035859Y-96872642D01*
X114144642Y-96763859D01*
X114230113Y-96635942D01*
X114288987Y-96493809D01*
X114319000Y-96342922D01*
X114319000Y-96189078D01*
X114288987Y-96038191D01*
X114230113Y-95896058D01*
X114144642Y-95768141D01*
X114035859Y-95659358D01*
X113907942Y-95573887D01*
X113765809Y-95515013D01*
X113614922Y-95485000D01*
X113461078Y-95485000D01*
X113310191Y-95515013D01*
X113168058Y-95573887D01*
X113040141Y-95659358D01*
X112931358Y-95768141D01*
X112845887Y-95896058D01*
X112787013Y-96038191D01*
X112757000Y-96189078D01*
X112757000Y-96328579D01*
X111629590Y-97455990D01*
X110708843Y-97455990D01*
X110685453Y-97436794D01*
X110575834Y-97378201D01*
X110456890Y-97342120D01*
X110364190Y-97332990D01*
X110364182Y-97332990D01*
X110333192Y-97329938D01*
X110302202Y-97332990D01*
X104829358Y-97332990D01*
X104735108Y-97238740D01*
X104735103Y-97238734D01*
X103134447Y-95638079D01*
X103112987Y-95530191D01*
X103102138Y-95504000D01*
X106655056Y-95504000D01*
X106680000Y-95506457D01*
X106704944Y-95504000D01*
X106704947Y-95504000D01*
X106779585Y-95496649D01*
X106875343Y-95467601D01*
X106963595Y-95420429D01*
X107040948Y-95356948D01*
X107056855Y-95337565D01*
X109665421Y-92729000D01*
X109804922Y-92729000D01*
X109955809Y-92698987D01*
X110097942Y-92640113D01*
X110225859Y-92554642D01*
X110334642Y-92445859D01*
X110420113Y-92317942D01*
X110478987Y-92175809D01*
X110509000Y-92024922D01*
X110509000Y-91871078D01*
X110478987Y-91720191D01*
X110420113Y-91578058D01*
X110334642Y-91450141D01*
X110225859Y-91341358D01*
X110097942Y-91255887D01*
X109955809Y-91197013D01*
X109804922Y-91167000D01*
X109651078Y-91167000D01*
X109500191Y-91197013D01*
X109358058Y-91255887D01*
X109230141Y-91341358D01*
X109121358Y-91450141D01*
X109035887Y-91578058D01*
X108977013Y-91720191D01*
X108947000Y-91871078D01*
X108947000Y-92010579D01*
X106469580Y-94488000D01*
X102072981Y-94488000D01*
X102065188Y-94487232D01*
X104350421Y-92202000D01*
X104672947Y-92202000D01*
X104693254Y-92200000D01*
X105065499Y-92200000D01*
X105166141Y-92300642D01*
X105294058Y-92386113D01*
X105436191Y-92444987D01*
X105587078Y-92475000D01*
X105740922Y-92475000D01*
X105891809Y-92444987D01*
X106033942Y-92386113D01*
X106161859Y-92300642D01*
X106270642Y-92191859D01*
X106356113Y-92063942D01*
X106414987Y-91921809D01*
X106445000Y-91770922D01*
X106445000Y-91617078D01*
X106414987Y-91466191D01*
X106356113Y-91324058D01*
X106270642Y-91196141D01*
X106161859Y-91087358D01*
X106033942Y-91001887D01*
X105891809Y-90943013D01*
X105740922Y-90913000D01*
X105587078Y-90913000D01*
X105436191Y-90943013D01*
X105294058Y-91001887D01*
X105166141Y-91087358D01*
X105065499Y-91188000D01*
X104693254Y-91188000D01*
X104672947Y-91186000D01*
X104164944Y-91186000D01*
X104140000Y-91183543D01*
X104115056Y-91186000D01*
X104115053Y-91186000D01*
X104040415Y-91193351D01*
X103944657Y-91222399D01*
X103907309Y-91242362D01*
X103856404Y-91269571D01*
X103827616Y-91293197D01*
X103779052Y-91333052D01*
X103763150Y-91352429D01*
X100350431Y-94765149D01*
X100331054Y-94781051D01*
X100315152Y-94800428D01*
X100315151Y-94800429D01*
X100267572Y-94858404D01*
X100227390Y-94933581D01*
X100220401Y-94946656D01*
X100193377Y-95035744D01*
X100191353Y-95042415D01*
X100181544Y-95141999D01*
X100184002Y-95166953D01*
X100184001Y-98889057D01*
X100181544Y-98914001D01*
X100184001Y-98938945D01*
X100184001Y-98938947D01*
X100191352Y-99013585D01*
X100220400Y-99109343D01*
X100267572Y-99197596D01*
X100311000Y-99250514D01*
X100311000Y-99371215D01*
X96314701Y-92449465D01*
X96443078Y-92475000D01*
X96596922Y-92475000D01*
X96747809Y-92444987D01*
X96889942Y-92386113D01*
X97017859Y-92300642D01*
X97126642Y-92191859D01*
X97212113Y-92063942D01*
X97270987Y-91921809D01*
X97301000Y-91770922D01*
X97301000Y-91617078D01*
X97270987Y-91466191D01*
X97212113Y-91324058D01*
X97126642Y-91196141D01*
X97017859Y-91087358D01*
X96889942Y-91001887D01*
X96747809Y-90943013D01*
X96731001Y-90939670D01*
X96731001Y-86703001D01*
X96734054Y-86672003D01*
X96721871Y-86548305D01*
X96685790Y-86429361D01*
X96627197Y-86319742D01*
X96568104Y-86247737D01*
X96568102Y-86247735D01*
X96548344Y-86223660D01*
X96524269Y-86203902D01*
X95881210Y-85560843D01*
X97116000Y-85560843D01*
X97190689Y-85553487D01*
X97262508Y-85531701D01*
X97328696Y-85496322D01*
X97386711Y-85448711D01*
X97434322Y-85390696D01*
X97469701Y-85324508D01*
X97491487Y-85252689D01*
X97498843Y-85178000D01*
X97498843Y-84836000D01*
X98970157Y-84836000D01*
X98970157Y-85178000D01*
X98977513Y-85252689D01*
X98999299Y-85324508D01*
X99034678Y-85390696D01*
X99082289Y-85448711D01*
X99140304Y-85496322D01*
X99206492Y-85531701D01*
X99278311Y-85553487D01*
X99353000Y-85560843D01*
X101053000Y-85560843D01*
X101127689Y-85553487D01*
X101199508Y-85531701D01*
X101265696Y-85496322D01*
X101323711Y-85448711D01*
X101371322Y-85390696D01*
X101406701Y-85324508D01*
X101428487Y-85252689D01*
X101435843Y-85178000D01*
X101435843Y-83739264D01*
X101854000Y-84157421D01*
X101854001Y-85065053D01*
X101854000Y-86141017D01*
X101851543Y-86165962D01*
X101854000Y-86190906D01*
X101854000Y-86190908D01*
X101861351Y-86265546D01*
X101890399Y-86361304D01*
X101937571Y-86449557D01*
X102001052Y-86526910D01*
X102020435Y-86542817D01*
X105735183Y-90257565D01*
X105751090Y-90276948D01*
X105828443Y-90340429D01*
X105916695Y-90387601D01*
X106012453Y-90416649D01*
X106087091Y-90424000D01*
X106087094Y-90424000D01*
X106112038Y-90426457D01*
X106136982Y-90424000D01*
X115333714Y-90424000D01*
X115665067Y-90755353D01*
X115665067Y-90894855D01*
X115695080Y-91045742D01*
X115753954Y-91187875D01*
X115839425Y-91315792D01*
X115948208Y-91424575D01*
X116076125Y-91510046D01*
X116218258Y-91568920D01*
X116369145Y-91598933D01*
X116522989Y-91598933D01*
X116673876Y-91568920D01*
X116816009Y-91510046D01*
X116943926Y-91424575D01*
X117052709Y-91315792D01*
X117138180Y-91187875D01*
X117197054Y-91045742D01*
X117227067Y-90894855D01*
X117227067Y-90741011D01*
X117197054Y-90590124D01*
X117138180Y-90447991D01*
X117052709Y-90320074D01*
X116943926Y-90211291D01*
X116816009Y-90125820D01*
X116673876Y-90066946D01*
X116522989Y-90036933D01*
X116383487Y-90036933D01*
X116297553Y-89950999D01*
X119712579Y-89950999D01*
X121523716Y-91762136D01*
X121385809Y-91705013D01*
X121234922Y-91675000D01*
X121081078Y-91675000D01*
X120930191Y-91705013D01*
X120788058Y-91763887D01*
X120660141Y-91849358D01*
X120551358Y-91958141D01*
X120465887Y-92086058D01*
X120407013Y-92228191D01*
X120377000Y-92379078D01*
X120377000Y-92532922D01*
X120407013Y-92683809D01*
X120465887Y-92825942D01*
X120551358Y-92953859D01*
X120660141Y-93062642D01*
X120788058Y-93148113D01*
X120930191Y-93206987D01*
X121081078Y-93237000D01*
X121217969Y-93237000D01*
X121169013Y-93355190D01*
X121139000Y-93506077D01*
X121139000Y-93659921D01*
X121167261Y-93802000D01*
X116601431Y-93802000D01*
X116527343Y-93762399D01*
X116431585Y-93733351D01*
X116356947Y-93726000D01*
X116356944Y-93726000D01*
X116332000Y-93723543D01*
X116307056Y-93726000D01*
X116166501Y-93726000D01*
X116067859Y-93627358D01*
X115939942Y-93541887D01*
X115797809Y-93483013D01*
X115646922Y-93453000D01*
X115493078Y-93453000D01*
X115342191Y-93483013D01*
X115200058Y-93541887D01*
X115072141Y-93627358D01*
X114963358Y-93736141D01*
X114877887Y-93864058D01*
X114819013Y-94006191D01*
X114789000Y-94157078D01*
X114789000Y-94310922D01*
X114819013Y-94461809D01*
X114877887Y-94603942D01*
X114963358Y-94731859D01*
X115072141Y-94840642D01*
X115200058Y-94926113D01*
X115342191Y-94984987D01*
X115493078Y-95015000D01*
X115646922Y-95015000D01*
X115797809Y-94984987D01*
X115939942Y-94926113D01*
X116067859Y-94840642D01*
X116156772Y-94751729D01*
X116212657Y-94781601D01*
X116308415Y-94810649D01*
X116383053Y-94818000D01*
X116383055Y-94818000D01*
X116407999Y-94820457D01*
X116432943Y-94818000D01*
X122244017Y-94818000D01*
X122268961Y-94820457D01*
X122293905Y-94818000D01*
X122293908Y-94818000D01*
X122368546Y-94810649D01*
X122464304Y-94781601D01*
X122538392Y-94742000D01*
X123051834Y-94742000D01*
X123106925Y-94747426D01*
X123206208Y-94846709D01*
X123334125Y-94932180D01*
X123476258Y-94991054D01*
X123627145Y-95021067D01*
X123780989Y-95021067D01*
X123800432Y-95017200D01*
X123773335Y-95044297D01*
X123665447Y-95065757D01*
X123523314Y-95124631D01*
X123395397Y-95210102D01*
X123286614Y-95318885D01*
X123201143Y-95446802D01*
X123142269Y-95588935D01*
X123127920Y-95661072D01*
X123052482Y-95638188D01*
X122928000Y-95625928D01*
X122713750Y-95629000D01*
X122555000Y-95787750D01*
X122555000Y-97387000D01*
X122575000Y-97387000D01*
X122575000Y-97641000D01*
X122555000Y-97641000D01*
X122555000Y-97661000D01*
X122301000Y-97661000D01*
X122301000Y-97641000D01*
X122281000Y-97641000D01*
X122281000Y-97387000D01*
X122301000Y-97387000D01*
X122301000Y-95787750D01*
X122142250Y-95629000D01*
X121928000Y-95625928D01*
X121803518Y-95638188D01*
X121683820Y-95674498D01*
X121573506Y-95733463D01*
X121476815Y-95812815D01*
X121397463Y-95909506D01*
X121338498Y-96019820D01*
X121323943Y-96067803D01*
X121215811Y-96023013D01*
X121064924Y-95993000D01*
X120911080Y-95993000D01*
X120760193Y-96023013D01*
X120702661Y-96046844D01*
X120658711Y-95993289D01*
X120600696Y-95945678D01*
X120534508Y-95910299D01*
X120462689Y-95888513D01*
X120388000Y-95881157D01*
X119388000Y-95881157D01*
X119313311Y-95888513D01*
X119241492Y-95910299D01*
X119175304Y-95945678D01*
X119117289Y-95993289D01*
X119069678Y-96051304D01*
X119034299Y-96117492D01*
X119012513Y-96189311D01*
X119005157Y-96264000D01*
X119005157Y-97006000D01*
X118918943Y-97006000D01*
X118893999Y-97003543D01*
X118869055Y-97006000D01*
X118869053Y-97006000D01*
X118794415Y-97013351D01*
X118698657Y-97042399D01*
X118698655Y-97042400D01*
X118610404Y-97089571D01*
X118555810Y-97134376D01*
X118533052Y-97153052D01*
X118517150Y-97172429D01*
X117156580Y-98533000D01*
X117017078Y-98533000D01*
X116866191Y-98563013D01*
X116724058Y-98621887D01*
X116596141Y-98707358D01*
X116487358Y-98816141D01*
X116401887Y-98944058D01*
X116343013Y-99086191D01*
X116313000Y-99237078D01*
X116313000Y-99390922D01*
X116343013Y-99541809D01*
X116401887Y-99683942D01*
X116487358Y-99811859D01*
X116596141Y-99920642D01*
X116638582Y-99949000D01*
X116596141Y-99977358D01*
X116487358Y-100086141D01*
X116401887Y-100214058D01*
X116343013Y-100356191D01*
X116313000Y-100507078D01*
X116313000Y-100660922D01*
X116343013Y-100811809D01*
X116401887Y-100953942D01*
X116487358Y-101081859D01*
X116596141Y-101190642D01*
X116610964Y-101200546D01*
X116610963Y-103826054D01*
X116608506Y-103851001D01*
X116618314Y-103950586D01*
X116647362Y-104046344D01*
X116690681Y-104127388D01*
X116694534Y-104134596D01*
X116758015Y-104211949D01*
X116835368Y-104275430D01*
X116923620Y-104322602D01*
X117019378Y-104351650D01*
X117118963Y-104361458D01*
X117143910Y-104359001D01*
X127070017Y-104359001D01*
X127094961Y-104361458D01*
X127119905Y-104359001D01*
X127119908Y-104359001D01*
X127194546Y-104351650D01*
X127290304Y-104322602D01*
X127378556Y-104275430D01*
X127455909Y-104211949D01*
X127471816Y-104192566D01*
X129627571Y-102036812D01*
X129646948Y-102020910D01*
X129665624Y-101998152D01*
X129710429Y-101943558D01*
X129757600Y-101855306D01*
X129757601Y-101855305D01*
X129786649Y-101759547D01*
X129794000Y-101684909D01*
X129794000Y-101684907D01*
X129796457Y-101659963D01*
X129794000Y-101635019D01*
X129794000Y-95758000D01*
X138659056Y-95758000D01*
X138684000Y-95760457D01*
X138708944Y-95758000D01*
X138708947Y-95758000D01*
X138783585Y-95750649D01*
X138879343Y-95721601D01*
X138967595Y-95674429D01*
X139044948Y-95610948D01*
X139060855Y-95591565D01*
X140911572Y-93740849D01*
X140930949Y-93724947D01*
X140944857Y-93708000D01*
X141046922Y-93708000D01*
X141197809Y-93677987D01*
X141339942Y-93619113D01*
X141467859Y-93533642D01*
X141576642Y-93424859D01*
X141587907Y-93408000D01*
X143523374Y-93408000D01*
X143547000Y-93410327D01*
X143570626Y-93408000D01*
X143641292Y-93401040D01*
X143731961Y-93373536D01*
X143815522Y-93328872D01*
X143888764Y-93268764D01*
X143903830Y-93250406D01*
X143921192Y-93233044D01*
X143941078Y-93237000D01*
X144094922Y-93237000D01*
X144245809Y-93206987D01*
X144387942Y-93148113D01*
X144515859Y-93062642D01*
X144624642Y-92953859D01*
X144710113Y-92825942D01*
X144768987Y-92683809D01*
X144799000Y-92532922D01*
X144799000Y-92379078D01*
X144768987Y-92228191D01*
X144710113Y-92086058D01*
X144624642Y-91958141D01*
X144515859Y-91849358D01*
X144387942Y-91763887D01*
X144245809Y-91705013D01*
X144094922Y-91675000D01*
X143941078Y-91675000D01*
X143790191Y-91705013D01*
X143648058Y-91763887D01*
X143520141Y-91849358D01*
X143411358Y-91958141D01*
X143325887Y-92086058D01*
X143267013Y-92228191D01*
X143237000Y-92379078D01*
X143237000Y-92446000D01*
X142126368Y-92446000D01*
X143971263Y-90601105D01*
X143995342Y-90581344D01*
X144074195Y-90485262D01*
X144132788Y-90375643D01*
X144168869Y-90256699D01*
X144168938Y-90256001D01*
X146310009Y-90256001D01*
X146340999Y-90259053D01*
X146371989Y-90256001D01*
X146371997Y-90256001D01*
X146464697Y-90246871D01*
X146583641Y-90210790D01*
X146693260Y-90152197D01*
X146789342Y-90073344D01*
X146809104Y-90049264D01*
X147534103Y-89324266D01*
X147593196Y-89252261D01*
X147651789Y-89142642D01*
X147687869Y-89023698D01*
X147700052Y-88900001D01*
X147687869Y-88776303D01*
X147651789Y-88657359D01*
X147593196Y-88547740D01*
X147574000Y-88524350D01*
X147574000Y-84352944D01*
X147576457Y-84328000D01*
X147574000Y-84303053D01*
X147566649Y-84228415D01*
X147537601Y-84132657D01*
X147515643Y-84091576D01*
X147490429Y-84044404D01*
X147467354Y-84016288D01*
X147426948Y-83967052D01*
X147407565Y-83951145D01*
X142362855Y-78906435D01*
X142346948Y-78887052D01*
X142269595Y-78823571D01*
X142181343Y-78776399D01*
X142085585Y-78747351D01*
X142010947Y-78740000D01*
X142010944Y-78740000D01*
X141986000Y-78737543D01*
X141961056Y-78740000D01*
X140042501Y-78740000D01*
X139943859Y-78641358D01*
X139815942Y-78555887D01*
X139673809Y-78497013D01*
X139522922Y-78467000D01*
X139369078Y-78467000D01*
X139218191Y-78497013D01*
X139076058Y-78555887D01*
X138948141Y-78641358D01*
X138839358Y-78750141D01*
X138753887Y-78878058D01*
X138695013Y-79020191D01*
X138665000Y-79171078D01*
X138665000Y-79324922D01*
X138695013Y-79475809D01*
X138753887Y-79617942D01*
X138839358Y-79745859D01*
X138948141Y-79854642D01*
X139076058Y-79940113D01*
X139218191Y-79998987D01*
X139369078Y-80029000D01*
X139522922Y-80029000D01*
X139673809Y-79998987D01*
X139815942Y-79940113D01*
X139943859Y-79854642D01*
X140042501Y-79756000D01*
X141775580Y-79756000D01*
X146558001Y-84538421D01*
X146558000Y-88515631D01*
X146079631Y-88994001D01*
X143577997Y-88994001D01*
X143546999Y-88990948D01*
X143516001Y-88994001D01*
X143423301Y-89003131D01*
X143304357Y-89039212D01*
X143194738Y-89097805D01*
X143098656Y-89176658D01*
X143064986Y-89217685D01*
X142560683Y-89217685D01*
X144188268Y-87590101D01*
X144212343Y-87570343D01*
X144232105Y-87546263D01*
X145153921Y-86624447D01*
X145261809Y-86602987D01*
X145403942Y-86544113D01*
X145531859Y-86458642D01*
X145640642Y-86349859D01*
X145726113Y-86221942D01*
X145784987Y-86079809D01*
X145815000Y-85928922D01*
X145815000Y-85775078D01*
X145784987Y-85624191D01*
X145726113Y-85482058D01*
X145640642Y-85354141D01*
X145531859Y-85245358D01*
X145403942Y-85159887D01*
X145261809Y-85101013D01*
X145110922Y-85071000D01*
X144957078Y-85071000D01*
X144806191Y-85101013D01*
X144664058Y-85159887D01*
X144536141Y-85245358D01*
X144427358Y-85354141D01*
X144341887Y-85482058D01*
X144283013Y-85624191D01*
X144261553Y-85732079D01*
X144248920Y-85744712D01*
X144133942Y-85667887D01*
X143991809Y-85609013D01*
X143840922Y-85579000D01*
X143687078Y-85579000D01*
X143536191Y-85609013D01*
X143394058Y-85667887D01*
X143266141Y-85753358D01*
X143157358Y-85862141D01*
X143071887Y-85990058D01*
X143013013Y-86132191D01*
X142983000Y-86283078D01*
X142983000Y-86436922D01*
X143013013Y-86587809D01*
X143071887Y-86729942D01*
X143133000Y-86821405D01*
X143133000Y-86860631D01*
X141687632Y-88306000D01*
X141079328Y-88306000D01*
X140987865Y-88244887D01*
X140845732Y-88186013D01*
X140694845Y-88156000D01*
X140541001Y-88156000D01*
X140390114Y-88186013D01*
X140247981Y-88244887D01*
X140120064Y-88330358D01*
X140011281Y-88439141D01*
X139925810Y-88567058D01*
X139866936Y-88709191D01*
X139836923Y-88860078D01*
X139836923Y-89013922D01*
X139866936Y-89164809D01*
X139925810Y-89306942D01*
X140011281Y-89434859D01*
X140120064Y-89543642D01*
X140247981Y-89629113D01*
X140277196Y-89641214D01*
X140251228Y-89771763D01*
X140251228Y-89925607D01*
X140281241Y-90076494D01*
X140340115Y-90218627D01*
X140425586Y-90346544D01*
X140509764Y-90430722D01*
X140488191Y-90435013D01*
X140346058Y-90493887D01*
X140218141Y-90579358D01*
X140109358Y-90688141D01*
X140023887Y-90816058D01*
X139965013Y-90958191D01*
X139935000Y-91109078D01*
X139935000Y-91262922D01*
X139965013Y-91413809D01*
X140023887Y-91555942D01*
X140109358Y-91683859D01*
X140121499Y-91696000D01*
X140044501Y-91696000D01*
X139943859Y-91595358D01*
X139815942Y-91509887D01*
X139673809Y-91451013D01*
X139522922Y-91421000D01*
X139369078Y-91421000D01*
X139218191Y-91451013D01*
X139076058Y-91509887D01*
X138948141Y-91595358D01*
X138839358Y-91704141D01*
X138753887Y-91832058D01*
X138695013Y-91974191D01*
X138665000Y-92125078D01*
X138665000Y-92278922D01*
X138695013Y-92429809D01*
X138753887Y-92571942D01*
X138839358Y-92699859D01*
X138948141Y-92808642D01*
X139076058Y-92894113D01*
X139218191Y-92952987D01*
X139369078Y-92983000D01*
X139522922Y-92983000D01*
X139673809Y-92952987D01*
X139815942Y-92894113D01*
X139943859Y-92808642D01*
X140044501Y-92708000D01*
X140217261Y-92708000D01*
X140189000Y-92850078D01*
X140189000Y-92990486D01*
X140145572Y-93043404D01*
X140115025Y-93100555D01*
X138473580Y-94742000D01*
X134538442Y-94742000D01*
X134593809Y-94730987D01*
X134735942Y-94672113D01*
X134863859Y-94586642D01*
X134964501Y-94486000D01*
X136881154Y-94486000D01*
X136906000Y-94488447D01*
X136930846Y-94486000D01*
X136930854Y-94486000D01*
X137005193Y-94478678D01*
X137100575Y-94449745D01*
X137188479Y-94402759D01*
X137265527Y-94339527D01*
X137281376Y-94320215D01*
X137348591Y-94253000D01*
X137490922Y-94253000D01*
X137641809Y-94222987D01*
X137783942Y-94164113D01*
X137911859Y-94078642D01*
X138020642Y-93969859D01*
X138106113Y-93841942D01*
X138164987Y-93699809D01*
X138195000Y-93548922D01*
X138195000Y-93395078D01*
X138164987Y-93244191D01*
X138106113Y-93102058D01*
X138020642Y-92974141D01*
X137911859Y-92865358D01*
X137783942Y-92779887D01*
X137641809Y-92721013D01*
X137490922Y-92691000D01*
X137337078Y-92691000D01*
X137186191Y-92721013D01*
X137044058Y-92779887D01*
X136916141Y-92865358D01*
X136807358Y-92974141D01*
X136721887Y-93102058D01*
X136663013Y-93244191D01*
X136633000Y-93395078D01*
X136633000Y-93474000D01*
X134964501Y-93474000D01*
X134863859Y-93373358D01*
X134735942Y-93287887D01*
X134593809Y-93229013D01*
X134442922Y-93199000D01*
X134289078Y-93199000D01*
X134138191Y-93229013D01*
X133996058Y-93287887D01*
X133868141Y-93373358D01*
X133759358Y-93482141D01*
X133673887Y-93610058D01*
X133615013Y-93752191D01*
X133585000Y-93903078D01*
X133585000Y-94056922D01*
X133615013Y-94207809D01*
X133673887Y-94349942D01*
X133759358Y-94477859D01*
X133868141Y-94586642D01*
X133996058Y-94672113D01*
X134138191Y-94730987D01*
X134193558Y-94742000D01*
X129310947Y-94742000D01*
X129286000Y-94739543D01*
X129261053Y-94742000D01*
X129186415Y-94749351D01*
X129090657Y-94778399D01*
X129002405Y-94825571D01*
X128925052Y-94889052D01*
X128861571Y-94966405D01*
X128814399Y-95054657D01*
X128785351Y-95150415D01*
X128775543Y-95250000D01*
X128778000Y-95274947D01*
X128778001Y-101449540D01*
X126884541Y-103343001D01*
X117626963Y-103343001D01*
X117626963Y-101155538D01*
X117700642Y-101081859D01*
X117786113Y-100953942D01*
X117844987Y-100811809D01*
X117875000Y-100660922D01*
X117875000Y-100507078D01*
X117844987Y-100356191D01*
X117786113Y-100214058D01*
X117700642Y-100086141D01*
X117591859Y-99977358D01*
X117549418Y-99949000D01*
X117591859Y-99920642D01*
X117700642Y-99811859D01*
X117786113Y-99683942D01*
X117844987Y-99541809D01*
X117875000Y-99390922D01*
X117875000Y-99251420D01*
X119005157Y-98121264D01*
X119005157Y-98764000D01*
X119012513Y-98838689D01*
X119034299Y-98910508D01*
X119069678Y-98976696D01*
X119117289Y-99034711D01*
X119175304Y-99082322D01*
X119241492Y-99117701D01*
X119313311Y-99139487D01*
X119388000Y-99146843D01*
X120388000Y-99146843D01*
X120462689Y-99139487D01*
X120534508Y-99117701D01*
X120600696Y-99082322D01*
X120658711Y-99034711D01*
X120706322Y-98976696D01*
X120741701Y-98910508D01*
X120754825Y-98867245D01*
X120781150Y-98893570D01*
X121269716Y-99382137D01*
X121131809Y-99325013D01*
X120980922Y-99295000D01*
X120827078Y-99295000D01*
X120676191Y-99325013D01*
X120534058Y-99383887D01*
X120406141Y-99469358D01*
X120297358Y-99578141D01*
X120295343Y-99581157D01*
X119388000Y-99581157D01*
X119313311Y-99588513D01*
X119241492Y-99610299D01*
X119175304Y-99645678D01*
X119117289Y-99693289D01*
X119069678Y-99751304D01*
X119034299Y-99817492D01*
X119012513Y-99889311D01*
X119005157Y-99964000D01*
X119005157Y-102464000D01*
X119012513Y-102538689D01*
X119034299Y-102610508D01*
X119069678Y-102676696D01*
X119117289Y-102734711D01*
X119175304Y-102782322D01*
X119241492Y-102817701D01*
X119313311Y-102839487D01*
X119388000Y-102846843D01*
X120388000Y-102846843D01*
X120462689Y-102839487D01*
X120534508Y-102817701D01*
X120600696Y-102782322D01*
X120658711Y-102734711D01*
X120706322Y-102676696D01*
X120741701Y-102610508D01*
X120763487Y-102538689D01*
X120770843Y-102464000D01*
X120770843Y-101101525D01*
X121023922Y-100848447D01*
X121131809Y-100826987D01*
X121273942Y-100768113D01*
X121401859Y-100682642D01*
X121510642Y-100573859D01*
X121545157Y-100522203D01*
X121545157Y-102464000D01*
X121552513Y-102538689D01*
X121574299Y-102610508D01*
X121609678Y-102676696D01*
X121657289Y-102734711D01*
X121715304Y-102782322D01*
X121781492Y-102817701D01*
X121853311Y-102839487D01*
X121928000Y-102846843D01*
X122928000Y-102846843D01*
X123002689Y-102839487D01*
X123074508Y-102817701D01*
X123140696Y-102782322D01*
X123198711Y-102734711D01*
X123246322Y-102676696D01*
X123281701Y-102610508D01*
X123303487Y-102538689D01*
X123310843Y-102464000D01*
X123310843Y-101660212D01*
X123351595Y-101638429D01*
X123375270Y-101619000D01*
X123520922Y-101619000D01*
X123671809Y-101588987D01*
X123813942Y-101530113D01*
X123941859Y-101444642D01*
X124050642Y-101335859D01*
X124085157Y-101284203D01*
X124085157Y-102464000D01*
X124092513Y-102538689D01*
X124114299Y-102610508D01*
X124149678Y-102676696D01*
X124197289Y-102734711D01*
X124255304Y-102782322D01*
X124321492Y-102817701D01*
X124393311Y-102839487D01*
X124468000Y-102846843D01*
X125468000Y-102846843D01*
X125542689Y-102839487D01*
X125614508Y-102817701D01*
X125680696Y-102782322D01*
X125738711Y-102734711D01*
X125786322Y-102676696D01*
X125821701Y-102610508D01*
X125843487Y-102538689D01*
X125850843Y-102464000D01*
X125850843Y-99964000D01*
X125843487Y-99889311D01*
X125821701Y-99817492D01*
X125786322Y-99751304D01*
X125738711Y-99693289D01*
X125680696Y-99645678D01*
X125614508Y-99610299D01*
X125542689Y-99588513D01*
X125468000Y-99581157D01*
X124468000Y-99581157D01*
X124393311Y-99588513D01*
X124321492Y-99610299D01*
X124255304Y-99645678D01*
X124197289Y-99693289D01*
X124183054Y-99710634D01*
X123767854Y-99295434D01*
X123751947Y-99276051D01*
X123674594Y-99212570D01*
X123586342Y-99165398D01*
X123490584Y-99136350D01*
X123447375Y-99132094D01*
X123458537Y-99118494D01*
X123517502Y-99008180D01*
X123553812Y-98888482D01*
X123566072Y-98764000D01*
X123564276Y-98200196D01*
X123709079Y-98228999D01*
X123862923Y-98228999D01*
X123873648Y-98226866D01*
X123893256Y-98228797D01*
X124016954Y-98216614D01*
X124085157Y-98195925D01*
X124085157Y-98764000D01*
X124092513Y-98838689D01*
X124114299Y-98910508D01*
X124149678Y-98976696D01*
X124197289Y-99034711D01*
X124255304Y-99082322D01*
X124321492Y-99117701D01*
X124393311Y-99139487D01*
X124468000Y-99146843D01*
X125468000Y-99146843D01*
X125542689Y-99139487D01*
X125614508Y-99117701D01*
X125680696Y-99082322D01*
X125738711Y-99034711D01*
X125786322Y-98976696D01*
X125821701Y-98910508D01*
X125843487Y-98838689D01*
X125850843Y-98764000D01*
X125850843Y-96264000D01*
X125843487Y-96189311D01*
X125821701Y-96117492D01*
X125786322Y-96051304D01*
X125738711Y-95993289D01*
X125680696Y-95945678D01*
X125614508Y-95910299D01*
X125542689Y-95888513D01*
X125468000Y-95881157D01*
X124721211Y-95881157D01*
X128186269Y-92416100D01*
X128210343Y-92396343D01*
X128238768Y-92361708D01*
X128289196Y-92300261D01*
X128347789Y-92190642D01*
X128352227Y-92176013D01*
X128383870Y-92071698D01*
X128393000Y-91978998D01*
X128393000Y-91978989D01*
X128396052Y-91948001D01*
X128393000Y-91917013D01*
X128393000Y-91139405D01*
X128454113Y-91047942D01*
X128512987Y-90905809D01*
X128543000Y-90754922D01*
X128543000Y-90601078D01*
X128512987Y-90450191D01*
X128454113Y-90308058D01*
X128368642Y-90180141D01*
X128259859Y-90071358D01*
X128131942Y-89985887D01*
X127989809Y-89927013D01*
X127838922Y-89897000D01*
X127685078Y-89897000D01*
X127534191Y-89927013D01*
X127408576Y-89979045D01*
X127424429Y-89959728D01*
X127471601Y-89871476D01*
X127500649Y-89775718D01*
X127508000Y-89701080D01*
X127508000Y-89701077D01*
X127510457Y-89676133D01*
X127508000Y-89651189D01*
X127508000Y-88315078D01*
X128251000Y-88315078D01*
X128251000Y-88468922D01*
X128281013Y-88619809D01*
X128339887Y-88761942D01*
X128401000Y-88853405D01*
X128401000Y-88869010D01*
X128397948Y-88900000D01*
X128401000Y-88930990D01*
X128401000Y-88930997D01*
X128410130Y-89023697D01*
X128446211Y-89142641D01*
X128504804Y-89252260D01*
X128583657Y-89348343D01*
X128607737Y-89368105D01*
X128767553Y-89527921D01*
X128789013Y-89635809D01*
X128847887Y-89777942D01*
X128933358Y-89905859D01*
X129042141Y-90014642D01*
X129170058Y-90100113D01*
X129312191Y-90158987D01*
X129367558Y-90170000D01*
X129312191Y-90181013D01*
X129170058Y-90239887D01*
X129042141Y-90325358D01*
X128933358Y-90434141D01*
X128847887Y-90562058D01*
X128789013Y-90704191D01*
X128759000Y-90855078D01*
X128759000Y-91008922D01*
X128789013Y-91159809D01*
X128847887Y-91301942D01*
X128933358Y-91429859D01*
X129042141Y-91538642D01*
X129170058Y-91624113D01*
X129312191Y-91682987D01*
X129463078Y-91713000D01*
X129616922Y-91713000D01*
X129767809Y-91682987D01*
X129909942Y-91624113D01*
X130037859Y-91538642D01*
X130136501Y-91440000D01*
X132499499Y-91440000D01*
X132598141Y-91538642D01*
X132726058Y-91624113D01*
X132868191Y-91682987D01*
X133019078Y-91713000D01*
X133172922Y-91713000D01*
X133323809Y-91682987D01*
X133465942Y-91624113D01*
X133593859Y-91538642D01*
X133702642Y-91429859D01*
X133788113Y-91301942D01*
X133846987Y-91159809D01*
X133877000Y-91008922D01*
X133877000Y-90855078D01*
X133846987Y-90704191D01*
X133788113Y-90562058D01*
X133702642Y-90434141D01*
X133593859Y-90325358D01*
X133524645Y-90279111D01*
X133534113Y-90264942D01*
X133592987Y-90122809D01*
X133593030Y-90122594D01*
X133630191Y-90137987D01*
X133781078Y-90168000D01*
X133934922Y-90168000D01*
X134085809Y-90137987D01*
X134227942Y-90079113D01*
X134355859Y-89993642D01*
X134464642Y-89884859D01*
X134550113Y-89756942D01*
X134608987Y-89614809D01*
X134639000Y-89463922D01*
X134639000Y-89310078D01*
X134608987Y-89159191D01*
X134550113Y-89017058D01*
X134464642Y-88889141D01*
X134355859Y-88780358D01*
X134227942Y-88694887D01*
X134085809Y-88636013D01*
X133934922Y-88606000D01*
X133781078Y-88606000D01*
X133630191Y-88636013D01*
X133488058Y-88694887D01*
X133397288Y-88755537D01*
X133371000Y-88752948D01*
X133340009Y-88756000D01*
X133340002Y-88756000D01*
X133247302Y-88765130D01*
X133128358Y-88801211D01*
X133018739Y-88859804D01*
X132957404Y-88910141D01*
X132922657Y-88938657D01*
X132902899Y-88962732D01*
X132748293Y-89117339D01*
X132614191Y-89144013D01*
X132472058Y-89202887D01*
X132349167Y-89285000D01*
X130311835Y-89285000D01*
X130290987Y-89180191D01*
X130232113Y-89038058D01*
X130146642Y-88910141D01*
X130037859Y-88801358D01*
X129909942Y-88715887D01*
X129767809Y-88657013D01*
X129767594Y-88656970D01*
X129782987Y-88619809D01*
X129813000Y-88468922D01*
X129813000Y-88315078D01*
X129782987Y-88164191D01*
X129724113Y-88022058D01*
X129638642Y-87894141D01*
X129529859Y-87785358D01*
X129401942Y-87699887D01*
X129259809Y-87641013D01*
X129108922Y-87611000D01*
X128955078Y-87611000D01*
X128804191Y-87641013D01*
X128662058Y-87699887D01*
X128534141Y-87785358D01*
X128425358Y-87894141D01*
X128339887Y-88022058D01*
X128281013Y-88164191D01*
X128251000Y-88315078D01*
X127508000Y-88315078D01*
X127508000Y-79144458D01*
X131247162Y-75405296D01*
X131259343Y-75401601D01*
X131347595Y-75354429D01*
X131424948Y-75290948D01*
X131440855Y-75271565D01*
X132271421Y-74441000D01*
X132410922Y-74441000D01*
X132561809Y-74410987D01*
X132703942Y-74352113D01*
X132831859Y-74266642D01*
X132940642Y-74157859D01*
X133026113Y-74029942D01*
X133084987Y-73887809D01*
X133115000Y-73736922D01*
X133115000Y-73583078D01*
X133084987Y-73432191D01*
X133026113Y-73290058D01*
X132940642Y-73162141D01*
X132930501Y-73152000D01*
X132940642Y-73141859D01*
X133026113Y-73013942D01*
X133084987Y-72871809D01*
X133115000Y-72720922D01*
X133115000Y-72567078D01*
X133084987Y-72416191D01*
X133026113Y-72274058D01*
X132940642Y-72146141D01*
X132831859Y-72037358D01*
X132703942Y-71951887D01*
X132561809Y-71893013D01*
X132410922Y-71863000D01*
X132353000Y-71863000D01*
X132353000Y-71805078D01*
X132322987Y-71654191D01*
X132264113Y-71512058D01*
X132178642Y-71384141D01*
X132069859Y-71275358D01*
X131941942Y-71189887D01*
X131799809Y-71131013D01*
X131648922Y-71101000D01*
X131495078Y-71101000D01*
X131344191Y-71131013D01*
X131202058Y-71189887D01*
X131074141Y-71275358D01*
X130965358Y-71384141D01*
X130879887Y-71512058D01*
X130821013Y-71654191D01*
X130791000Y-71805078D01*
X130791000Y-71944580D01*
X128486843Y-74248737D01*
X128486843Y-72556000D01*
X128479487Y-72481311D01*
X128457701Y-72409492D01*
X128422322Y-72343304D01*
X128374711Y-72285289D01*
X128316696Y-72237678D01*
X128250508Y-72202299D01*
X128178689Y-72180513D01*
X128104000Y-72173157D01*
X126404000Y-72173157D01*
X126329311Y-72180513D01*
X126257492Y-72202299D01*
X126191304Y-72237678D01*
X126133289Y-72285289D01*
X126085678Y-72343304D01*
X126050299Y-72409492D01*
X126028513Y-72481311D01*
X126021157Y-72556000D01*
X126021157Y-72712633D01*
X125909178Y-72524645D01*
X125714269Y-72308412D01*
X125480920Y-72134359D01*
X125218099Y-72009175D01*
X125070890Y-71964524D01*
X124841000Y-72085845D01*
X124841000Y-73279000D01*
X124861000Y-73279000D01*
X124861000Y-73533000D01*
X124841000Y-73533000D01*
X124841000Y-74726155D01*
X125070890Y-74847476D01*
X125218099Y-74802825D01*
X125480920Y-74677641D01*
X125714269Y-74503588D01*
X125909178Y-74287355D01*
X126021157Y-74099367D01*
X126021157Y-74256000D01*
X126028513Y-74330689D01*
X126050299Y-74402508D01*
X126085678Y-74468696D01*
X126133289Y-74526711D01*
X126191304Y-74574322D01*
X126257492Y-74609701D01*
X126329311Y-74631487D01*
X126404000Y-74638843D01*
X128096737Y-74638843D01*
X125134435Y-77601145D01*
X125115052Y-77617052D01*
X125051571Y-77694405D01*
X125004399Y-77782658D01*
X124975351Y-77878416D01*
X124968000Y-77953053D01*
X124965543Y-77978000D01*
X124968000Y-78002944D01*
X124968001Y-89705578D01*
X124272040Y-90401539D01*
X124195859Y-90325358D01*
X124067942Y-90239887D01*
X123925809Y-90181013D01*
X123774922Y-90151000D01*
X123621078Y-90151000D01*
X123470191Y-90181013D01*
X123328058Y-90239887D01*
X123200141Y-90325358D01*
X123091358Y-90434141D01*
X123005887Y-90562058D01*
X122947013Y-90704191D01*
X122917000Y-90855078D01*
X122917000Y-91008922D01*
X122947013Y-91159809D01*
X123005887Y-91301942D01*
X123091358Y-91429859D01*
X123200141Y-91538642D01*
X123328058Y-91624113D01*
X123470191Y-91682987D01*
X123605705Y-91709942D01*
X123188708Y-92126939D01*
X123209000Y-92024922D01*
X123209000Y-91871078D01*
X123178987Y-91720191D01*
X123120113Y-91578058D01*
X123034642Y-91450141D01*
X122925859Y-91341358D01*
X122797942Y-91255887D01*
X122655809Y-91197013D01*
X122504922Y-91167000D01*
X122365421Y-91167000D01*
X120299854Y-89101434D01*
X120283947Y-89082051D01*
X120206594Y-89018570D01*
X120118342Y-88971398D01*
X120022584Y-88942350D01*
X119947946Y-88934999D01*
X119947943Y-88934999D01*
X119922999Y-88932542D01*
X119898055Y-88934999D01*
X114420730Y-88934999D01*
X114329587Y-88907351D01*
X114254949Y-88900000D01*
X114254946Y-88900000D01*
X114230002Y-88897543D01*
X114205058Y-88900000D01*
X113372501Y-88900000D01*
X113382642Y-88889859D01*
X113468113Y-88761942D01*
X113526987Y-88619809D01*
X113557000Y-88468922D01*
X113557000Y-88315078D01*
X113526987Y-88164191D01*
X113468113Y-88022058D01*
X113382642Y-87894141D01*
X113284000Y-87795499D01*
X113284000Y-87654944D01*
X113286457Y-87630000D01*
X113280581Y-87570343D01*
X113276649Y-87530415D01*
X113247601Y-87434657D01*
X113200429Y-87346405D01*
X113136948Y-87269052D01*
X113117565Y-87253145D01*
X107360420Y-81496000D01*
X119721157Y-81496000D01*
X119721157Y-83096000D01*
X119728513Y-83170689D01*
X119750299Y-83242508D01*
X119785678Y-83308696D01*
X119833289Y-83366711D01*
X119891304Y-83414322D01*
X119957492Y-83449701D01*
X120029311Y-83471487D01*
X120104000Y-83478843D01*
X121704000Y-83478843D01*
X121778689Y-83471487D01*
X121850508Y-83449701D01*
X121916696Y-83414322D01*
X121974711Y-83366711D01*
X122022322Y-83308696D01*
X122057701Y-83242508D01*
X122079487Y-83170689D01*
X122086843Y-83096000D01*
X122086843Y-81496000D01*
X122079487Y-81421311D01*
X122057701Y-81349492D01*
X122022322Y-81283304D01*
X121974711Y-81225289D01*
X121916696Y-81177678D01*
X121850508Y-81142299D01*
X121778689Y-81120513D01*
X121704000Y-81113157D01*
X121482391Y-81113157D01*
X121520292Y-81099603D01*
X121645514Y-81032671D01*
X121717097Y-80788702D01*
X120904000Y-79975605D01*
X120090903Y-80788702D01*
X120162486Y-81032671D01*
X120332585Y-81113157D01*
X120104000Y-81113157D01*
X120029311Y-81120513D01*
X119957492Y-81142299D01*
X119891304Y-81177678D01*
X119833289Y-81225289D01*
X119785678Y-81283304D01*
X119750299Y-81349492D01*
X119728513Y-81421311D01*
X119721157Y-81496000D01*
X107360420Y-81496000D01*
X106884119Y-81019699D01*
X106907809Y-81014987D01*
X107049942Y-80956113D01*
X107177859Y-80870642D01*
X107286642Y-80761859D01*
X107372113Y-80633942D01*
X107430987Y-80491809D01*
X107461000Y-80340922D01*
X107461000Y-80187078D01*
X107430987Y-80036191D01*
X107372113Y-79894058D01*
X107353708Y-79866512D01*
X119463783Y-79866512D01*
X119505213Y-80146130D01*
X119600397Y-80412292D01*
X119667329Y-80537514D01*
X119911298Y-80609097D01*
X120724395Y-79796000D01*
X121083605Y-79796000D01*
X121896702Y-80609097D01*
X122140671Y-80537514D01*
X122261571Y-80282004D01*
X122330300Y-80007816D01*
X122344217Y-79725488D01*
X122302787Y-79445870D01*
X122207603Y-79179708D01*
X122140671Y-79054486D01*
X121896702Y-78982903D01*
X121083605Y-79796000D01*
X120724395Y-79796000D01*
X119911298Y-78982903D01*
X119667329Y-79054486D01*
X119546429Y-79309996D01*
X119477700Y-79584184D01*
X119463783Y-79866512D01*
X107353708Y-79866512D01*
X107286642Y-79766141D01*
X107177859Y-79657358D01*
X107049942Y-79571887D01*
X106907809Y-79513013D01*
X106756922Y-79483000D01*
X106617421Y-79483000D01*
X105937719Y-78803298D01*
X120090903Y-78803298D01*
X120904000Y-79616395D01*
X121717097Y-78803298D01*
X121645514Y-78559329D01*
X121390004Y-78438429D01*
X121115816Y-78369700D01*
X120833488Y-78355783D01*
X120553870Y-78397213D01*
X120287708Y-78492397D01*
X120162486Y-78559329D01*
X120090903Y-78803298D01*
X105937719Y-78803298D01*
X105664000Y-78529580D01*
X105664000Y-78256943D01*
X105666457Y-78231999D01*
X105662777Y-78194638D01*
X105656649Y-78132415D01*
X105627601Y-78036657D01*
X105627600Y-78036655D01*
X105580429Y-77948404D01*
X105532850Y-77890429D01*
X105516948Y-77871052D01*
X105497571Y-77855150D01*
X102779997Y-75137577D01*
X102779997Y-74853078D01*
X121901000Y-74853078D01*
X121901000Y-75006922D01*
X121931013Y-75157809D01*
X121989887Y-75299942D01*
X122075358Y-75427859D01*
X122184141Y-75536642D01*
X122312058Y-75622113D01*
X122454191Y-75680987D01*
X122605078Y-75711000D01*
X122758922Y-75711000D01*
X122909809Y-75680987D01*
X123051942Y-75622113D01*
X123179859Y-75536642D01*
X123288642Y-75427859D01*
X123374113Y-75299942D01*
X123432987Y-75157809D01*
X123463000Y-75006922D01*
X123463000Y-74853078D01*
X123432987Y-74702191D01*
X123374113Y-74560058D01*
X123288642Y-74432141D01*
X123179859Y-74323358D01*
X123051942Y-74237887D01*
X122909809Y-74179013D01*
X122758922Y-74149000D01*
X122605078Y-74149000D01*
X122454191Y-74179013D01*
X122312058Y-74237887D01*
X122184141Y-74323358D01*
X122075358Y-74432141D01*
X121989887Y-74560058D01*
X121931013Y-74702191D01*
X121901000Y-74853078D01*
X102779997Y-74853078D01*
X102779997Y-70900999D01*
X116629000Y-70900999D01*
X116628999Y-72496682D01*
X116623157Y-72556000D01*
X116623157Y-74256000D01*
X116630513Y-74330689D01*
X116652299Y-74402508D01*
X116687678Y-74468696D01*
X116735289Y-74526711D01*
X116793304Y-74574322D01*
X116859492Y-74609701D01*
X116931311Y-74631487D01*
X117006000Y-74638843D01*
X118706000Y-74638843D01*
X118780689Y-74631487D01*
X118852508Y-74609701D01*
X118918696Y-74574322D01*
X118976711Y-74526711D01*
X119024322Y-74468696D01*
X119059701Y-74402508D01*
X119081487Y-74330689D01*
X119088843Y-74256000D01*
X119088843Y-74099367D01*
X119200822Y-74287355D01*
X119395731Y-74503588D01*
X119629080Y-74677641D01*
X119891901Y-74802825D01*
X120039110Y-74847476D01*
X120269000Y-74726155D01*
X120269000Y-73533000D01*
X120523000Y-73533000D01*
X120523000Y-74726155D01*
X120752890Y-74847476D01*
X120900099Y-74802825D01*
X121162920Y-74677641D01*
X121396269Y-74503588D01*
X121591178Y-74287355D01*
X121740157Y-74037252D01*
X121837481Y-73762891D01*
X123272519Y-73762891D01*
X123369843Y-74037252D01*
X123518822Y-74287355D01*
X123713731Y-74503588D01*
X123947080Y-74677641D01*
X124209901Y-74802825D01*
X124357110Y-74847476D01*
X124587000Y-74726155D01*
X124587000Y-73533000D01*
X123393186Y-73533000D01*
X123272519Y-73762891D01*
X121837481Y-73762891D01*
X121716814Y-73533000D01*
X120523000Y-73533000D01*
X120269000Y-73533000D01*
X120249000Y-73533000D01*
X120249000Y-73279000D01*
X120269000Y-73279000D01*
X120269000Y-72085845D01*
X120523000Y-72085845D01*
X120523000Y-73279000D01*
X121716814Y-73279000D01*
X121837481Y-73049109D01*
X123272519Y-73049109D01*
X123393186Y-73279000D01*
X124587000Y-73279000D01*
X124587000Y-72085845D01*
X124357110Y-71964524D01*
X124209901Y-72009175D01*
X123947080Y-72134359D01*
X123713731Y-72308412D01*
X123518822Y-72524645D01*
X123369843Y-72774748D01*
X123272519Y-73049109D01*
X121837481Y-73049109D01*
X121740157Y-72774748D01*
X121591178Y-72524645D01*
X121396269Y-72308412D01*
X121162920Y-72134359D01*
X120900099Y-72009175D01*
X120752890Y-71964524D01*
X120523000Y-72085845D01*
X120269000Y-72085845D01*
X120039110Y-71964524D01*
X119891901Y-72009175D01*
X119629080Y-72134359D01*
X119395731Y-72308412D01*
X119200822Y-72524645D01*
X119088843Y-72712633D01*
X119088843Y-72556000D01*
X119081487Y-72481311D01*
X119059701Y-72409492D01*
X119024322Y-72343304D01*
X118976711Y-72285289D01*
X118918696Y-72237678D01*
X118852508Y-72202299D01*
X118780689Y-72180513D01*
X118706000Y-72173157D01*
X118158612Y-72173157D01*
X118028706Y-72133750D01*
X117890999Y-72120187D01*
X117890999Y-70900999D01*
X131730631Y-70900999D01*
X133227001Y-72397370D01*
X133227000Y-76677001D01*
X133227000Y-78532595D01*
X133165887Y-78624058D01*
X133107013Y-78766191D01*
X133077000Y-78917078D01*
X133077000Y-79070922D01*
X133107013Y-79221809D01*
X133165887Y-79363942D01*
X133227000Y-79455405D01*
X133227000Y-79548595D01*
X133165887Y-79640058D01*
X133107013Y-79782191D01*
X133077000Y-79933078D01*
X133077000Y-80086922D01*
X133107013Y-80237809D01*
X133165887Y-80379942D01*
X133227000Y-80471405D01*
X133227001Y-82857000D01*
X133223948Y-82888000D01*
X133236130Y-83011697D01*
X133272211Y-83130641D01*
X133330804Y-83240260D01*
X133389897Y-83312265D01*
X133389900Y-83312268D01*
X133409658Y-83336343D01*
X133433733Y-83356101D01*
X135995704Y-85918073D01*
X136002613Y-85952809D01*
X136061487Y-86094942D01*
X136146958Y-86222859D01*
X136255741Y-86331642D01*
X136383658Y-86417113D01*
X136525791Y-86475987D01*
X136552710Y-86481342D01*
X136579356Y-86615300D01*
X136638230Y-86757433D01*
X136723701Y-86885350D01*
X136832484Y-86994133D01*
X136960401Y-87079604D01*
X137102534Y-87138478D01*
X137253421Y-87168491D01*
X137407265Y-87168491D01*
X137558152Y-87138478D01*
X137700285Y-87079604D01*
X137828202Y-86994133D01*
X137936985Y-86885350D01*
X138022456Y-86757433D01*
X138081330Y-86615300D01*
X138111343Y-86464413D01*
X138111343Y-86310569D01*
X138081330Y-86159682D01*
X138022456Y-86017549D01*
X137936985Y-85889632D01*
X137828202Y-85780849D01*
X137700285Y-85695378D01*
X137558152Y-85636504D01*
X137531233Y-85631149D01*
X137504587Y-85497191D01*
X137445713Y-85355058D01*
X137360242Y-85227141D01*
X137251459Y-85118358D01*
X137123542Y-85032887D01*
X136981409Y-84974013D01*
X136830522Y-84944000D01*
X136806369Y-84944000D01*
X134489000Y-82626632D01*
X134489000Y-80471405D01*
X134550113Y-80379942D01*
X134608987Y-80237809D01*
X134639000Y-80086922D01*
X134639000Y-79933078D01*
X134608987Y-79782191D01*
X134550113Y-79640058D01*
X134489000Y-79548595D01*
X134489000Y-79455405D01*
X134550113Y-79363942D01*
X134608987Y-79221809D01*
X134639000Y-79070922D01*
X134639000Y-78917078D01*
X134608987Y-78766191D01*
X134550113Y-78624058D01*
X134489000Y-78532595D01*
X134489000Y-75500000D01*
X143189543Y-75500000D01*
X143192001Y-75524954D01*
X143192000Y-79096056D01*
X143189543Y-79121000D01*
X143192000Y-79145944D01*
X143192000Y-79145946D01*
X143199351Y-79220584D01*
X143228399Y-79316342D01*
X143275571Y-79404595D01*
X143339052Y-79481948D01*
X143358435Y-79497855D01*
X144085145Y-80224565D01*
X144101052Y-80243948D01*
X144178405Y-80307429D01*
X144266657Y-80354601D01*
X144362415Y-80383649D01*
X144364629Y-80383867D01*
X144397678Y-80445696D01*
X144445289Y-80503711D01*
X144503304Y-80551322D01*
X144569492Y-80586701D01*
X144641311Y-80608487D01*
X144716000Y-80615843D01*
X146316000Y-80615843D01*
X146390689Y-80608487D01*
X146462508Y-80586701D01*
X146528696Y-80551322D01*
X146586711Y-80503711D01*
X146634322Y-80445696D01*
X146669701Y-80379508D01*
X146691487Y-80307689D01*
X146698843Y-80233000D01*
X146698843Y-79533000D01*
X146693127Y-79474963D01*
X146767185Y-79414185D01*
X146846537Y-79317494D01*
X146905502Y-79207180D01*
X146941812Y-79087482D01*
X146954072Y-78963000D01*
X146951000Y-78898750D01*
X146792250Y-78740000D01*
X145643000Y-78740000D01*
X145643000Y-78760000D01*
X145389000Y-78760000D01*
X145389000Y-78740000D01*
X145369000Y-78740000D01*
X145369000Y-78486000D01*
X145389000Y-78486000D01*
X145389000Y-78466000D01*
X145643000Y-78466000D01*
X145643000Y-78486000D01*
X146792250Y-78486000D01*
X146951000Y-78327250D01*
X146954072Y-78263000D01*
X146941812Y-78138518D01*
X146905502Y-78018820D01*
X146846537Y-77908506D01*
X146799343Y-77851000D01*
X146914056Y-77851000D01*
X146939000Y-77853457D01*
X146963944Y-77851000D01*
X146963947Y-77851000D01*
X147038585Y-77843649D01*
X147038950Y-77843538D01*
X152119200Y-77843538D01*
X152119200Y-78214062D01*
X152191486Y-78577467D01*
X152333280Y-78919787D01*
X152539132Y-79227867D01*
X152801133Y-79489868D01*
X153109213Y-79695720D01*
X153451533Y-79837514D01*
X153814938Y-79909800D01*
X154185462Y-79909800D01*
X154548867Y-79837514D01*
X154891187Y-79695720D01*
X155199267Y-79489868D01*
X155461268Y-79227867D01*
X155667120Y-78919787D01*
X155808914Y-78577467D01*
X155881200Y-78214062D01*
X155881200Y-77843538D01*
X155808914Y-77480133D01*
X155667120Y-77137813D01*
X155461268Y-76829733D01*
X155199267Y-76567732D01*
X154891187Y-76361880D01*
X154548867Y-76220086D01*
X154185462Y-76147800D01*
X153814938Y-76147800D01*
X153451533Y-76220086D01*
X153109213Y-76361880D01*
X152801133Y-76567732D01*
X152539132Y-76829733D01*
X152333280Y-77137813D01*
X152191486Y-77480133D01*
X152119200Y-77843538D01*
X147038950Y-77843538D01*
X147134343Y-77814601D01*
X147222595Y-77767429D01*
X147252362Y-77743000D01*
X147396922Y-77743000D01*
X147547809Y-77712987D01*
X147689942Y-77654113D01*
X147817859Y-77568642D01*
X147926642Y-77459859D01*
X148012113Y-77331942D01*
X148070987Y-77189809D01*
X148101000Y-77038922D01*
X148101000Y-76885078D01*
X148070987Y-76734191D01*
X148012113Y-76592058D01*
X147926642Y-76464141D01*
X147817859Y-76355358D01*
X147775418Y-76327000D01*
X147817859Y-76298642D01*
X147926642Y-76189859D01*
X148012113Y-76061942D01*
X148070987Y-75919809D01*
X148101000Y-75768922D01*
X148101000Y-75615078D01*
X148070987Y-75464191D01*
X148012113Y-75322058D01*
X147926642Y-75194141D01*
X147817859Y-75085358D01*
X147689942Y-74999887D01*
X147547809Y-74941013D01*
X147396922Y-74911000D01*
X147243078Y-74911000D01*
X147092191Y-74941013D01*
X146950058Y-74999887D01*
X146822141Y-75085358D01*
X146713358Y-75194141D01*
X146627887Y-75322058D01*
X146577182Y-75444469D01*
X146528696Y-75404678D01*
X146462508Y-75369299D01*
X146390689Y-75347513D01*
X146316000Y-75340157D01*
X144716000Y-75340157D01*
X144641311Y-75347513D01*
X144569492Y-75369299D01*
X144525729Y-75392692D01*
X147020421Y-72898000D01*
X147739499Y-72898000D01*
X147838141Y-72996642D01*
X147966058Y-73082113D01*
X148108191Y-73140987D01*
X148259078Y-73171000D01*
X148412922Y-73171000D01*
X148563809Y-73140987D01*
X148705942Y-73082113D01*
X148833859Y-72996642D01*
X148942642Y-72887859D01*
X149028113Y-72759942D01*
X149086987Y-72617809D01*
X149117000Y-72466922D01*
X149117000Y-72313078D01*
X149086987Y-72162191D01*
X149028113Y-72020058D01*
X148942642Y-71892141D01*
X148833859Y-71783358D01*
X148705942Y-71697887D01*
X148563809Y-71639013D01*
X148412922Y-71609000D01*
X148259078Y-71609000D01*
X148108191Y-71639013D01*
X147966058Y-71697887D01*
X147838141Y-71783358D01*
X147739499Y-71882000D01*
X146834943Y-71882000D01*
X146809999Y-71879543D01*
X146785055Y-71882000D01*
X146785053Y-71882000D01*
X146710415Y-71889351D01*
X146614657Y-71918399D01*
X146614655Y-71918400D01*
X146526404Y-71965571D01*
X146500209Y-71987069D01*
X146449052Y-72029052D01*
X146433150Y-72048429D01*
X143358430Y-75123150D01*
X143339053Y-75139052D01*
X143323151Y-75158429D01*
X143323150Y-75158430D01*
X143275571Y-75216405D01*
X143235833Y-75290751D01*
X143228400Y-75304657D01*
X143199782Y-75399000D01*
X143199352Y-75400416D01*
X143189543Y-75500000D01*
X134489000Y-75500000D01*
X134489000Y-72166990D01*
X134492052Y-72136000D01*
X134489000Y-72105009D01*
X134489000Y-72105002D01*
X134479870Y-72012302D01*
X134443789Y-71893358D01*
X134385196Y-71783739D01*
X134306343Y-71687657D01*
X134282268Y-71667899D01*
X132460104Y-69845736D01*
X132440342Y-69821656D01*
X132344260Y-69742803D01*
X132234641Y-69684210D01*
X132115697Y-69648129D01*
X132022997Y-69638999D01*
X132022989Y-69638999D01*
X131991999Y-69635947D01*
X131961009Y-69638999D01*
X117212991Y-69638999D01*
X117182001Y-69635947D01*
X117151011Y-69638999D01*
X101658986Y-69638999D01*
X101627998Y-69635947D01*
X101597011Y-69638999D01*
X101597001Y-69638999D01*
X101504301Y-69648129D01*
X101385357Y-69684210D01*
X101361431Y-69696999D01*
X95672989Y-69696999D01*
X95641999Y-69693947D01*
X95611008Y-69696999D01*
X95611001Y-69696999D01*
X95518301Y-69706129D01*
X95399357Y-69742210D01*
X95289738Y-69800803D01*
X95221996Y-69856398D01*
X95193656Y-69879656D01*
X95173898Y-69903731D01*
X92197732Y-72879898D01*
X92173657Y-72899656D01*
X92153899Y-72923731D01*
X92153896Y-72923734D01*
X92094803Y-72995739D01*
X92036210Y-73105358D01*
X92000129Y-73224302D01*
X91987947Y-73347999D01*
X91991000Y-73378999D01*
X91991000Y-74652044D01*
X91979341Y-74635634D01*
X91958471Y-74605376D01*
X91954783Y-74601071D01*
X91762639Y-74379990D01*
X91735877Y-74354677D01*
X91709526Y-74329047D01*
X91705077Y-74325544D01*
X91705073Y-74325541D01*
X91705069Y-74325539D01*
X91473643Y-74145990D01*
X91442496Y-74126371D01*
X91411650Y-74106336D01*
X91406602Y-74103763D01*
X91406598Y-74103760D01*
X91406594Y-74103758D01*
X91144705Y-73972581D01*
X91133180Y-73968155D01*
X90997784Y-73903284D01*
X90905228Y-73834043D01*
X90827885Y-73748145D01*
X90768698Y-73648858D01*
X90729926Y-73539973D01*
X90713040Y-73425618D01*
X90718686Y-73310175D01*
X90745155Y-73204016D01*
X94225718Y-67175538D01*
X117067200Y-67175538D01*
X117067200Y-67546062D01*
X117139486Y-67909467D01*
X117281280Y-68251787D01*
X117487132Y-68559867D01*
X117749133Y-68821868D01*
X118057213Y-69027720D01*
X118399533Y-69169514D01*
X118762938Y-69241800D01*
X119133462Y-69241800D01*
X119496867Y-69169514D01*
X119839187Y-69027720D01*
X120147267Y-68821868D01*
X120409268Y-68559867D01*
X120615120Y-68251787D01*
X120756914Y-67909467D01*
X120829200Y-67546062D01*
X120829200Y-67175538D01*
X124179200Y-67175538D01*
X124179200Y-67546062D01*
X124251486Y-67909467D01*
X124393280Y-68251787D01*
X124599132Y-68559867D01*
X124861133Y-68821868D01*
X125169213Y-69027720D01*
X125511533Y-69169514D01*
X125874938Y-69241800D01*
X126245462Y-69241800D01*
X126608867Y-69169514D01*
X126951187Y-69027720D01*
X127259267Y-68821868D01*
X127521268Y-68559867D01*
X127727120Y-68251787D01*
X127868914Y-67909467D01*
X127941200Y-67546062D01*
X127941200Y-67175538D01*
X127868914Y-66812133D01*
X127727120Y-66469813D01*
X127521268Y-66161733D01*
X127259267Y-65899732D01*
X126951187Y-65693880D01*
X126608867Y-65552086D01*
X126245462Y-65479800D01*
X125874938Y-65479800D01*
X125511533Y-65552086D01*
X125169213Y-65693880D01*
X124861133Y-65899732D01*
X124599132Y-66161733D01*
X124393280Y-66469813D01*
X124251486Y-66812133D01*
X124179200Y-67175538D01*
X120829200Y-67175538D01*
X120756914Y-66812133D01*
X120615120Y-66469813D01*
X120409268Y-66161733D01*
X120147267Y-65899732D01*
X119839187Y-65693880D01*
X119496867Y-65552086D01*
X119133462Y-65479800D01*
X118762938Y-65479800D01*
X118399533Y-65552086D01*
X118057213Y-65693880D01*
X117749133Y-65899732D01*
X117487132Y-66161733D01*
X117281280Y-66469813D01*
X117139486Y-66812133D01*
X117067200Y-67175538D01*
X94225718Y-67175538D01*
X103816486Y-50563938D01*
X104875200Y-50563938D01*
X104875200Y-50934462D01*
X104947486Y-51297867D01*
X105089280Y-51640187D01*
X105295132Y-51948267D01*
X105557133Y-52210268D01*
X105865213Y-52416120D01*
X106207533Y-52557914D01*
X106570938Y-52630200D01*
X106941462Y-52630200D01*
X107304867Y-52557914D01*
X107647187Y-52416120D01*
X107955267Y-52210268D01*
X108217268Y-51948267D01*
X108423120Y-51640187D01*
X108564914Y-51297867D01*
X108637200Y-50934462D01*
X108637200Y-50563938D01*
X108564914Y-50200533D01*
X108423120Y-49858213D01*
X108217268Y-49550133D01*
X107955267Y-49288132D01*
X107647187Y-49082280D01*
X107304867Y-48940486D01*
X106941462Y-48868200D01*
X106570938Y-48868200D01*
X106207533Y-48940486D01*
X105865213Y-49082280D01*
X105557133Y-49288132D01*
X105295132Y-49550133D01*
X105089280Y-49858213D01*
X104947486Y-50200533D01*
X104875200Y-50563938D01*
X103816486Y-50563938D01*
X105239801Y-48098700D01*
X134284467Y-48098697D01*
X134398346Y-48130492D01*
G36*
X102134191Y-96508987D02*
G01*
X102242079Y-96530447D01*
X103842734Y-98131103D01*
X103842740Y-98131108D01*
X104099885Y-98388253D01*
X104119647Y-98412333D01*
X104215729Y-98491186D01*
X104325348Y-98549779D01*
X104444292Y-98585860D01*
X104536992Y-98594990D01*
X104537001Y-98594990D01*
X104567989Y-98598042D01*
X104598977Y-98594990D01*
X108106919Y-98594990D01*
X108103734Y-98598871D01*
X107984784Y-98821411D01*
X107911535Y-99062880D01*
X107886802Y-99314000D01*
X107911535Y-99565120D01*
X107984784Y-99806589D01*
X108103734Y-100029129D01*
X108263814Y-100224186D01*
X108458871Y-100384266D01*
X108681411Y-100503216D01*
X108922880Y-100576465D01*
X109111070Y-100595000D01*
X109836930Y-100595000D01*
X110025120Y-100576465D01*
X110266589Y-100503216D01*
X110489129Y-100384266D01*
X110684186Y-100224186D01*
X110748991Y-100145222D01*
X110748991Y-100384380D01*
X109329737Y-101803635D01*
X109305657Y-101823397D01*
X109226804Y-101919480D01*
X109168211Y-102029099D01*
X109132130Y-102148043D01*
X109123000Y-102240743D01*
X109123000Y-102240750D01*
X109119948Y-102271740D01*
X109123000Y-102302731D01*
X109123000Y-102363897D01*
X108831955Y-102363897D01*
X108816507Y-102359211D01*
X108634000Y-102341236D01*
X108451492Y-102359211D01*
X108436044Y-102363897D01*
X107204000Y-102363897D01*
X107129311Y-102371253D01*
X107057492Y-102393039D01*
X106991304Y-102428418D01*
X106933289Y-102476029D01*
X106885678Y-102534044D01*
X106850299Y-102600232D01*
X106828513Y-102672051D01*
X106821157Y-102746740D01*
X106821157Y-104246740D01*
X106828513Y-104321429D01*
X106829941Y-104326136D01*
X106816013Y-104372051D01*
X106808657Y-104446740D01*
X106808657Y-105146740D01*
X106816013Y-105221429D01*
X106837799Y-105293248D01*
X106873178Y-105359436D01*
X106920789Y-105417451D01*
X106943858Y-105436383D01*
X106803683Y-105551423D01*
X106671720Y-105712219D01*
X106573663Y-105895672D01*
X106513280Y-106094729D01*
X106498000Y-106249869D01*
X106498000Y-106703612D01*
X106513280Y-106858752D01*
X106573663Y-107057809D01*
X106671720Y-107241261D01*
X106803684Y-107402057D01*
X106964480Y-107534020D01*
X107147932Y-107632077D01*
X107346989Y-107692460D01*
X107554000Y-107712849D01*
X107761012Y-107692460D01*
X107960069Y-107632077D01*
X108143521Y-107534020D01*
X108304317Y-107402057D01*
X108436280Y-107241261D01*
X108534337Y-107057808D01*
X108573233Y-106929583D01*
X108814474Y-106929583D01*
X108996157Y-107111266D01*
X108996157Y-107908100D01*
X105239803Y-107908100D01*
X100649614Y-99957708D01*
X100722058Y-100006113D01*
X100864191Y-100064987D01*
X101015078Y-100095000D01*
X101168922Y-100095000D01*
X101319809Y-100064987D01*
X101461942Y-100006113D01*
X101589859Y-99920642D01*
X101698642Y-99811859D01*
X101784113Y-99683942D01*
X101842987Y-99541809D01*
X101873000Y-99390922D01*
X101873000Y-99237078D01*
X101842987Y-99086191D01*
X101784113Y-98944058D01*
X101698642Y-98816141D01*
X101589859Y-98707358D01*
X101461942Y-98621887D01*
X101319809Y-98563013D01*
X101200001Y-98539182D01*
X101200001Y-98462030D01*
X101230058Y-98482113D01*
X101372191Y-98540987D01*
X101523078Y-98571000D01*
X101676922Y-98571000D01*
X101827809Y-98540987D01*
X101969942Y-98482113D01*
X102097859Y-98396642D01*
X102206642Y-98287859D01*
X102292113Y-98159942D01*
X102350987Y-98017809D01*
X102381000Y-97866922D01*
X102381000Y-97713078D01*
X102350987Y-97562191D01*
X102292113Y-97420058D01*
X102206642Y-97292141D01*
X102108000Y-97193499D01*
X102108000Y-96498138D01*
X102134191Y-96508987D01*
G37*
X102134191Y-96508987D02*
X102242079Y-96530447D01*
X103842734Y-98131103D01*
X103842740Y-98131108D01*
X104099885Y-98388253D01*
X104119647Y-98412333D01*
X104215729Y-98491186D01*
X104325348Y-98549779D01*
X104444292Y-98585860D01*
X104536992Y-98594990D01*
X104537001Y-98594990D01*
X104567989Y-98598042D01*
X104598977Y-98594990D01*
X108106919Y-98594990D01*
X108103734Y-98598871D01*
X107984784Y-98821411D01*
X107911535Y-99062880D01*
X107886802Y-99314000D01*
X107911535Y-99565120D01*
X107984784Y-99806589D01*
X108103734Y-100029129D01*
X108263814Y-100224186D01*
X108458871Y-100384266D01*
X108681411Y-100503216D01*
X108922880Y-100576465D01*
X109111070Y-100595000D01*
X109836930Y-100595000D01*
X110025120Y-100576465D01*
X110266589Y-100503216D01*
X110489129Y-100384266D01*
X110684186Y-100224186D01*
X110748991Y-100145222D01*
X110748991Y-100384380D01*
X109329737Y-101803635D01*
X109305657Y-101823397D01*
X109226804Y-101919480D01*
X109168211Y-102029099D01*
X109132130Y-102148043D01*
X109123000Y-102240743D01*
X109123000Y-102240750D01*
X109119948Y-102271740D01*
X109123000Y-102302731D01*
X109123000Y-102363897D01*
X108831955Y-102363897D01*
X108816507Y-102359211D01*
X108634000Y-102341236D01*
X108451492Y-102359211D01*
X108436044Y-102363897D01*
X107204000Y-102363897D01*
X107129311Y-102371253D01*
X107057492Y-102393039D01*
X106991304Y-102428418D01*
X106933289Y-102476029D01*
X106885678Y-102534044D01*
X106850299Y-102600232D01*
X106828513Y-102672051D01*
X106821157Y-102746740D01*
X106821157Y-104246740D01*
X106828513Y-104321429D01*
X106829941Y-104326136D01*
X106816013Y-104372051D01*
X106808657Y-104446740D01*
X106808657Y-105146740D01*
X106816013Y-105221429D01*
X106837799Y-105293248D01*
X106873178Y-105359436D01*
X106920789Y-105417451D01*
X106943858Y-105436383D01*
X106803683Y-105551423D01*
X106671720Y-105712219D01*
X106573663Y-105895672D01*
X106513280Y-106094729D01*
X106498000Y-106249869D01*
X106498000Y-106703612D01*
X106513280Y-106858752D01*
X106573663Y-107057809D01*
X106671720Y-107241261D01*
X106803684Y-107402057D01*
X106964480Y-107534020D01*
X107147932Y-107632077D01*
X107346989Y-107692460D01*
X107554000Y-107712849D01*
X107761012Y-107692460D01*
X107960069Y-107632077D01*
X108143521Y-107534020D01*
X108304317Y-107402057D01*
X108436280Y-107241261D01*
X108534337Y-107057808D01*
X108573233Y-106929583D01*
X108814474Y-106929583D01*
X108996157Y-107111266D01*
X108996157Y-107908100D01*
X105239803Y-107908100D01*
X100649614Y-99957708D01*
X100722058Y-100006113D01*
X100864191Y-100064987D01*
X101015078Y-100095000D01*
X101168922Y-100095000D01*
X101319809Y-100064987D01*
X101461942Y-100006113D01*
X101589859Y-99920642D01*
X101698642Y-99811859D01*
X101784113Y-99683942D01*
X101842987Y-99541809D01*
X101873000Y-99390922D01*
X101873000Y-99237078D01*
X101842987Y-99086191D01*
X101784113Y-98944058D01*
X101698642Y-98816141D01*
X101589859Y-98707358D01*
X101461942Y-98621887D01*
X101319809Y-98563013D01*
X101200001Y-98539182D01*
X101200001Y-98462030D01*
X101230058Y-98482113D01*
X101372191Y-98540987D01*
X101523078Y-98571000D01*
X101676922Y-98571000D01*
X101827809Y-98540987D01*
X101969942Y-98482113D01*
X102097859Y-98396642D01*
X102206642Y-98287859D01*
X102292113Y-98159942D01*
X102350987Y-98017809D01*
X102381000Y-97866922D01*
X102381000Y-97713078D01*
X102350987Y-97562191D01*
X102292113Y-97420058D01*
X102206642Y-97292141D01*
X102108000Y-97193499D01*
X102108000Y-96498138D01*
X102134191Y-96508987D01*
G36*
X91990999Y-83163011D02*
G01*
X91987947Y-83194001D01*
X91990999Y-83224991D01*
X91990999Y-83224998D01*
X92000129Y-83317698D01*
X92036210Y-83436642D01*
X92094803Y-83546261D01*
X92173656Y-83642344D01*
X92197736Y-83662106D01*
X95469002Y-86933373D01*
X95469001Y-90735003D01*
X95469001Y-90984678D01*
X90735267Y-82785661D01*
X90734487Y-82780626D01*
X90729751Y-82762223D01*
X90729578Y-82761530D01*
X90690933Y-82611016D01*
X90684480Y-82495607D01*
X90700566Y-82381146D01*
X90738579Y-82271989D01*
X90797071Y-82172292D01*
X90873814Y-82085855D01*
X90965878Y-82015974D01*
X91089275Y-81955789D01*
X91149204Y-81932286D01*
X91168744Y-81922324D01*
X91189069Y-81914112D01*
X91194075Y-81911451D01*
X91448923Y-81773655D01*
X91479429Y-81753078D01*
X91510219Y-81732930D01*
X91514612Y-81729347D01*
X91737842Y-81544676D01*
X91763795Y-81518542D01*
X91790063Y-81492818D01*
X91793672Y-81488456D01*
X91793676Y-81488452D01*
X91793679Y-81488448D01*
X91976786Y-81263936D01*
X91990999Y-81242543D01*
X91990999Y-83163011D01*
G37*
X91990999Y-83163011D02*
X91987947Y-83194001D01*
X91990999Y-83224991D01*
X91990999Y-83224998D01*
X92000129Y-83317698D01*
X92036210Y-83436642D01*
X92094803Y-83546261D01*
X92173656Y-83642344D01*
X92197736Y-83662106D01*
X95469002Y-86933373D01*
X95469001Y-90735003D01*
X95469001Y-90984678D01*
X90735267Y-82785661D01*
X90734487Y-82780626D01*
X90729751Y-82762223D01*
X90729578Y-82761530D01*
X90690933Y-82611016D01*
X90684480Y-82495607D01*
X90700566Y-82381146D01*
X90738579Y-82271989D01*
X90797071Y-82172292D01*
X90873814Y-82085855D01*
X90965878Y-82015974D01*
X91089275Y-81955789D01*
X91149204Y-81932286D01*
X91168744Y-81922324D01*
X91189069Y-81914112D01*
X91194075Y-81911451D01*
X91448923Y-81773655D01*
X91479429Y-81753078D01*
X91510219Y-81732930D01*
X91514612Y-81729347D01*
X91737842Y-81544676D01*
X91763795Y-81518542D01*
X91790063Y-81492818D01*
X91793672Y-81488456D01*
X91793676Y-81488452D01*
X91793679Y-81488448D01*
X91976786Y-81263936D01*
X91990999Y-81242543D01*
X91990999Y-83163011D01*
G36*
X99112102Y-71044903D02*
G01*
X99019307Y-71268931D01*
X98972000Y-71506757D01*
X98972000Y-71749243D01*
X99019307Y-71987069D01*
X99112102Y-72211097D01*
X99246820Y-72412717D01*
X99418283Y-72584180D01*
X99619903Y-72718898D01*
X99843931Y-72811693D01*
X100081757Y-72859000D01*
X100324243Y-72859000D01*
X100562069Y-72811693D01*
X100786097Y-72718898D01*
X100987717Y-72584180D01*
X101159180Y-72412717D01*
X101293898Y-72211097D01*
X101386693Y-71987069D01*
X101434000Y-71749243D01*
X101434000Y-71506757D01*
X101386693Y-71268931D01*
X101293898Y-71044903D01*
X101236499Y-70958999D01*
X101539009Y-70958999D01*
X101569999Y-70962051D01*
X101600989Y-70958999D01*
X101763998Y-70958999D01*
X101763997Y-75323053D01*
X101761540Y-75347997D01*
X101763997Y-75372941D01*
X101763997Y-75372943D01*
X101771348Y-75447581D01*
X101800396Y-75543339D01*
X101847568Y-75631592D01*
X101911049Y-75708945D01*
X101930432Y-75724852D01*
X104648001Y-78442422D01*
X104648000Y-78715055D01*
X104645543Y-78740000D01*
X104648000Y-78764944D01*
X104648000Y-78764946D01*
X104650036Y-78785616D01*
X102230855Y-76366435D01*
X102214948Y-76347052D01*
X102137595Y-76283571D01*
X102049343Y-76236399D01*
X101953585Y-76207351D01*
X101878947Y-76200000D01*
X101878944Y-76200000D01*
X101854000Y-76197543D01*
X101829056Y-76200000D01*
X101325004Y-76200000D01*
X101293898Y-76124903D01*
X101159180Y-75923283D01*
X100987717Y-75751820D01*
X100786097Y-75617102D01*
X100562069Y-75524307D01*
X100324243Y-75477000D01*
X100081757Y-75477000D01*
X99843931Y-75524307D01*
X99619903Y-75617102D01*
X99418283Y-75751820D01*
X99246820Y-75923283D01*
X99112102Y-76124903D01*
X99080996Y-76200000D01*
X97388004Y-76200000D01*
X97356898Y-76124903D01*
X97222180Y-75923283D01*
X97050717Y-75751820D01*
X96849097Y-75617102D01*
X96625069Y-75524307D01*
X96387243Y-75477000D01*
X96144757Y-75477000D01*
X95906931Y-75524307D01*
X95682903Y-75617102D01*
X95481283Y-75751820D01*
X95309820Y-75923283D01*
X95175102Y-76124903D01*
X95082307Y-76348931D01*
X95035000Y-76586757D01*
X95035000Y-76829243D01*
X95082307Y-77067069D01*
X95175102Y-77291097D01*
X95309820Y-77492717D01*
X95481283Y-77664180D01*
X95682903Y-77798898D01*
X95797168Y-77846228D01*
X95634748Y-77903843D01*
X95384645Y-78052822D01*
X95168412Y-78247731D01*
X94994359Y-78481080D01*
X94869175Y-78743901D01*
X94824524Y-78891110D01*
X94945845Y-79121000D01*
X96139000Y-79121000D01*
X96139000Y-79101000D01*
X96393000Y-79101000D01*
X96393000Y-79121000D01*
X97586155Y-79121000D01*
X97707476Y-78891110D01*
X97662825Y-78743901D01*
X97537641Y-78481080D01*
X97363588Y-78247731D01*
X97147355Y-78052822D01*
X96897252Y-77903843D01*
X96734832Y-77846228D01*
X96849097Y-77798898D01*
X97050717Y-77664180D01*
X97222180Y-77492717D01*
X97356898Y-77291097D01*
X97388004Y-77216000D01*
X99080996Y-77216000D01*
X99112102Y-77291097D01*
X99246820Y-77492717D01*
X99418283Y-77664180D01*
X99619903Y-77798898D01*
X99734168Y-77846228D01*
X99571748Y-77903843D01*
X99321645Y-78052822D01*
X99105412Y-78247731D01*
X98931359Y-78481080D01*
X98806175Y-78743901D01*
X98761524Y-78891110D01*
X98882845Y-79121000D01*
X100076000Y-79121000D01*
X100076000Y-79101000D01*
X100330000Y-79101000D01*
X100330000Y-79121000D01*
X101523155Y-79121000D01*
X101644476Y-78891110D01*
X101599825Y-78743901D01*
X101474641Y-78481080D01*
X101300588Y-78247731D01*
X101084355Y-78052822D01*
X100834252Y-77903843D01*
X100671832Y-77846228D01*
X100786097Y-77798898D01*
X100987717Y-77664180D01*
X101159180Y-77492717D01*
X101293898Y-77291097D01*
X101325004Y-77216000D01*
X101643580Y-77216000D01*
X102359524Y-77931944D01*
X102239074Y-78012425D01*
X102130291Y-78121208D01*
X102044820Y-78249125D01*
X101985946Y-78391258D01*
X101955933Y-78542145D01*
X101955933Y-78695989D01*
X101985946Y-78846876D01*
X102044820Y-78989009D01*
X102130291Y-79116926D01*
X102239074Y-79225709D01*
X102366991Y-79311180D01*
X102509124Y-79370054D01*
X102532230Y-79374650D01*
X110979000Y-87821420D01*
X110979000Y-87960922D01*
X111009013Y-88111809D01*
X111067887Y-88253942D01*
X111153358Y-88381859D01*
X111262141Y-88490642D01*
X111390058Y-88576113D01*
X111532191Y-88634987D01*
X111683078Y-88665000D01*
X111836922Y-88665000D01*
X111987809Y-88634987D01*
X112024970Y-88619594D01*
X112025013Y-88619809D01*
X112083887Y-88761942D01*
X112169358Y-88889859D01*
X112179499Y-88900000D01*
X106890421Y-88900000D01*
X104159000Y-86168580D01*
X104159000Y-86029078D01*
X104128987Y-85878191D01*
X104070113Y-85736058D01*
X103984642Y-85608141D01*
X103875859Y-85499358D01*
X103747942Y-85413887D01*
X103605809Y-85355013D01*
X103454922Y-85325000D01*
X103301078Y-85325000D01*
X103150191Y-85355013D01*
X103008058Y-85413887D01*
X102880141Y-85499358D01*
X102870000Y-85509499D01*
X102870000Y-83971943D01*
X102872457Y-83946999D01*
X102870000Y-83922053D01*
X102862649Y-83847415D01*
X102833601Y-83751657D01*
X102811643Y-83710576D01*
X102786429Y-83663404D01*
X102738850Y-83605429D01*
X102722948Y-83586052D01*
X102703571Y-83570150D01*
X101355587Y-82222166D01*
X101386693Y-82147069D01*
X101434000Y-81909243D01*
X101434000Y-81666757D01*
X101386693Y-81428931D01*
X101293898Y-81204903D01*
X101159180Y-81003283D01*
X100987717Y-80831820D01*
X100786097Y-80697102D01*
X100671832Y-80649772D01*
X100834252Y-80592157D01*
X101084355Y-80443178D01*
X101300588Y-80248269D01*
X101474641Y-80014920D01*
X101599825Y-79752099D01*
X101644476Y-79604890D01*
X101523155Y-79375000D01*
X100330000Y-79375000D01*
X100330000Y-79395000D01*
X100076000Y-79395000D01*
X100076000Y-79375000D01*
X98882845Y-79375000D01*
X98761524Y-79604890D01*
X98806175Y-79752099D01*
X98931359Y-80014920D01*
X99105412Y-80248269D01*
X99321645Y-80443178D01*
X99571748Y-80592157D01*
X99734168Y-80649772D01*
X99619903Y-80697102D01*
X99418283Y-80831820D01*
X99246820Y-81003283D01*
X99144110Y-81157000D01*
X97324890Y-81157000D01*
X97222180Y-81003283D01*
X97050717Y-80831820D01*
X96849097Y-80697102D01*
X96734832Y-80649772D01*
X96897252Y-80592157D01*
X97147355Y-80443178D01*
X97363588Y-80248269D01*
X97537641Y-80014920D01*
X97662825Y-79752099D01*
X97707476Y-79604890D01*
X97586155Y-79375000D01*
X96393000Y-79375000D01*
X96393000Y-79395000D01*
X96139000Y-79395000D01*
X96139000Y-79375000D01*
X94945845Y-79375000D01*
X94824524Y-79604890D01*
X94869175Y-79752099D01*
X94994359Y-80014920D01*
X95168412Y-80248269D01*
X95384645Y-80443178D01*
X95634748Y-80592157D01*
X95797168Y-80649772D01*
X95682903Y-80697102D01*
X95481283Y-80831820D01*
X95309820Y-81003283D01*
X95175102Y-81204903D01*
X95089734Y-81411000D01*
X94749369Y-81411000D01*
X94244447Y-80906079D01*
X94222987Y-80798191D01*
X94164113Y-80656058D01*
X94078642Y-80528141D01*
X93969859Y-80419358D01*
X93841942Y-80333887D01*
X93699809Y-80275013D01*
X93548922Y-80245000D01*
X93395078Y-80245000D01*
X93252999Y-80273261D01*
X93252999Y-74046757D01*
X95035000Y-74046757D01*
X95035000Y-74289243D01*
X95082307Y-74527069D01*
X95175102Y-74751097D01*
X95309820Y-74952717D01*
X95481283Y-75124180D01*
X95682903Y-75258898D01*
X95906931Y-75351693D01*
X96144757Y-75399000D01*
X96387243Y-75399000D01*
X96625069Y-75351693D01*
X96849097Y-75258898D01*
X97050717Y-75124180D01*
X97222180Y-74952717D01*
X97356898Y-74751097D01*
X97388004Y-74676000D01*
X99080996Y-74676000D01*
X99112102Y-74751097D01*
X99246820Y-74952717D01*
X99418283Y-75124180D01*
X99619903Y-75258898D01*
X99843931Y-75351693D01*
X100081757Y-75399000D01*
X100324243Y-75399000D01*
X100562069Y-75351693D01*
X100786097Y-75258898D01*
X100987717Y-75124180D01*
X101159180Y-74952717D01*
X101293898Y-74751097D01*
X101386693Y-74527069D01*
X101434000Y-74289243D01*
X101434000Y-74046757D01*
X101386693Y-73808931D01*
X101293898Y-73584903D01*
X101159180Y-73383283D01*
X100987717Y-73211820D01*
X100786097Y-73077102D01*
X100562069Y-72984307D01*
X100324243Y-72937000D01*
X100081757Y-72937000D01*
X99843931Y-72984307D01*
X99619903Y-73077102D01*
X99418283Y-73211820D01*
X99246820Y-73383283D01*
X99112102Y-73584903D01*
X99080996Y-73660000D01*
X97388004Y-73660000D01*
X97356898Y-73584903D01*
X97222180Y-73383283D01*
X97050717Y-73211820D01*
X96849097Y-73077102D01*
X96625069Y-72984307D01*
X96387243Y-72937000D01*
X96144757Y-72937000D01*
X95906931Y-72984307D01*
X95682903Y-73077102D01*
X95481283Y-73211820D01*
X95309820Y-73383283D01*
X95175102Y-73584903D01*
X95082307Y-73808931D01*
X95035000Y-74046757D01*
X93252999Y-74046757D01*
X93252999Y-73609367D01*
X95047962Y-71814405D01*
X95082307Y-71987069D01*
X95175102Y-72211097D01*
X95309820Y-72412717D01*
X95481283Y-72584180D01*
X95682903Y-72718898D01*
X95906931Y-72811693D01*
X96144757Y-72859000D01*
X96387243Y-72859000D01*
X96625069Y-72811693D01*
X96849097Y-72718898D01*
X97050717Y-72584180D01*
X97222180Y-72412717D01*
X97356898Y-72211097D01*
X97449693Y-71987069D01*
X97497000Y-71749243D01*
X97497000Y-71506757D01*
X97449693Y-71268931D01*
X97356898Y-71044903D01*
X97299499Y-70958999D01*
X99169501Y-70958999D01*
X99112102Y-71044903D01*
G37*
X99112102Y-71044903D02*
X99019307Y-71268931D01*
X98972000Y-71506757D01*
X98972000Y-71749243D01*
X99019307Y-71987069D01*
X99112102Y-72211097D01*
X99246820Y-72412717D01*
X99418283Y-72584180D01*
X99619903Y-72718898D01*
X99843931Y-72811693D01*
X100081757Y-72859000D01*
X100324243Y-72859000D01*
X100562069Y-72811693D01*
X100786097Y-72718898D01*
X100987717Y-72584180D01*
X101159180Y-72412717D01*
X101293898Y-72211097D01*
X101386693Y-71987069D01*
X101434000Y-71749243D01*
X101434000Y-71506757D01*
X101386693Y-71268931D01*
X101293898Y-71044903D01*
X101236499Y-70958999D01*
X101539009Y-70958999D01*
X101569999Y-70962051D01*
X101600989Y-70958999D01*
X101763998Y-70958999D01*
X101763997Y-75323053D01*
X101761540Y-75347997D01*
X101763997Y-75372941D01*
X101763997Y-75372943D01*
X101771348Y-75447581D01*
X101800396Y-75543339D01*
X101847568Y-75631592D01*
X101911049Y-75708945D01*
X101930432Y-75724852D01*
X104648001Y-78442422D01*
X104648000Y-78715055D01*
X104645543Y-78740000D01*
X104648000Y-78764944D01*
X104648000Y-78764946D01*
X104650036Y-78785616D01*
X102230855Y-76366435D01*
X102214948Y-76347052D01*
X102137595Y-76283571D01*
X102049343Y-76236399D01*
X101953585Y-76207351D01*
X101878947Y-76200000D01*
X101878944Y-76200000D01*
X101854000Y-76197543D01*
X101829056Y-76200000D01*
X101325004Y-76200000D01*
X101293898Y-76124903D01*
X101159180Y-75923283D01*
X100987717Y-75751820D01*
X100786097Y-75617102D01*
X100562069Y-75524307D01*
X100324243Y-75477000D01*
X100081757Y-75477000D01*
X99843931Y-75524307D01*
X99619903Y-75617102D01*
X99418283Y-75751820D01*
X99246820Y-75923283D01*
X99112102Y-76124903D01*
X99080996Y-76200000D01*
X97388004Y-76200000D01*
X97356898Y-76124903D01*
X97222180Y-75923283D01*
X97050717Y-75751820D01*
X96849097Y-75617102D01*
X96625069Y-75524307D01*
X96387243Y-75477000D01*
X96144757Y-75477000D01*
X95906931Y-75524307D01*
X95682903Y-75617102D01*
X95481283Y-75751820D01*
X95309820Y-75923283D01*
X95175102Y-76124903D01*
X95082307Y-76348931D01*
X95035000Y-76586757D01*
X95035000Y-76829243D01*
X95082307Y-77067069D01*
X95175102Y-77291097D01*
X95309820Y-77492717D01*
X95481283Y-77664180D01*
X95682903Y-77798898D01*
X95797168Y-77846228D01*
X95634748Y-77903843D01*
X95384645Y-78052822D01*
X95168412Y-78247731D01*
X94994359Y-78481080D01*
X94869175Y-78743901D01*
X94824524Y-78891110D01*
X94945845Y-79121000D01*
X96139000Y-79121000D01*
X96139000Y-79101000D01*
X96393000Y-79101000D01*
X96393000Y-79121000D01*
X97586155Y-79121000D01*
X97707476Y-78891110D01*
X97662825Y-78743901D01*
X97537641Y-78481080D01*
X97363588Y-78247731D01*
X97147355Y-78052822D01*
X96897252Y-77903843D01*
X96734832Y-77846228D01*
X96849097Y-77798898D01*
X97050717Y-77664180D01*
X97222180Y-77492717D01*
X97356898Y-77291097D01*
X97388004Y-77216000D01*
X99080996Y-77216000D01*
X99112102Y-77291097D01*
X99246820Y-77492717D01*
X99418283Y-77664180D01*
X99619903Y-77798898D01*
X99734168Y-77846228D01*
X99571748Y-77903843D01*
X99321645Y-78052822D01*
X99105412Y-78247731D01*
X98931359Y-78481080D01*
X98806175Y-78743901D01*
X98761524Y-78891110D01*
X98882845Y-79121000D01*
X100076000Y-79121000D01*
X100076000Y-79101000D01*
X100330000Y-79101000D01*
X100330000Y-79121000D01*
X101523155Y-79121000D01*
X101644476Y-78891110D01*
X101599825Y-78743901D01*
X101474641Y-78481080D01*
X101300588Y-78247731D01*
X101084355Y-78052822D01*
X100834252Y-77903843D01*
X100671832Y-77846228D01*
X100786097Y-77798898D01*
X100987717Y-77664180D01*
X101159180Y-77492717D01*
X101293898Y-77291097D01*
X101325004Y-77216000D01*
X101643580Y-77216000D01*
X102359524Y-77931944D01*
X102239074Y-78012425D01*
X102130291Y-78121208D01*
X102044820Y-78249125D01*
X101985946Y-78391258D01*
X101955933Y-78542145D01*
X101955933Y-78695989D01*
X101985946Y-78846876D01*
X102044820Y-78989009D01*
X102130291Y-79116926D01*
X102239074Y-79225709D01*
X102366991Y-79311180D01*
X102509124Y-79370054D01*
X102532230Y-79374650D01*
X110979000Y-87821420D01*
X110979000Y-87960922D01*
X111009013Y-88111809D01*
X111067887Y-88253942D01*
X111153358Y-88381859D01*
X111262141Y-88490642D01*
X111390058Y-88576113D01*
X111532191Y-88634987D01*
X111683078Y-88665000D01*
X111836922Y-88665000D01*
X111987809Y-88634987D01*
X112024970Y-88619594D01*
X112025013Y-88619809D01*
X112083887Y-88761942D01*
X112169358Y-88889859D01*
X112179499Y-88900000D01*
X106890421Y-88900000D01*
X104159000Y-86168580D01*
X104159000Y-86029078D01*
X104128987Y-85878191D01*
X104070113Y-85736058D01*
X103984642Y-85608141D01*
X103875859Y-85499358D01*
X103747942Y-85413887D01*
X103605809Y-85355013D01*
X103454922Y-85325000D01*
X103301078Y-85325000D01*
X103150191Y-85355013D01*
X103008058Y-85413887D01*
X102880141Y-85499358D01*
X102870000Y-85509499D01*
X102870000Y-83971943D01*
X102872457Y-83946999D01*
X102870000Y-83922053D01*
X102862649Y-83847415D01*
X102833601Y-83751657D01*
X102811643Y-83710576D01*
X102786429Y-83663404D01*
X102738850Y-83605429D01*
X102722948Y-83586052D01*
X102703571Y-83570150D01*
X101355587Y-82222166D01*
X101386693Y-82147069D01*
X101434000Y-81909243D01*
X101434000Y-81666757D01*
X101386693Y-81428931D01*
X101293898Y-81204903D01*
X101159180Y-81003283D01*
X100987717Y-80831820D01*
X100786097Y-80697102D01*
X100671832Y-80649772D01*
X100834252Y-80592157D01*
X101084355Y-80443178D01*
X101300588Y-80248269D01*
X101474641Y-80014920D01*
X101599825Y-79752099D01*
X101644476Y-79604890D01*
X101523155Y-79375000D01*
X100330000Y-79375000D01*
X100330000Y-79395000D01*
X100076000Y-79395000D01*
X100076000Y-79375000D01*
X98882845Y-79375000D01*
X98761524Y-79604890D01*
X98806175Y-79752099D01*
X98931359Y-80014920D01*
X99105412Y-80248269D01*
X99321645Y-80443178D01*
X99571748Y-80592157D01*
X99734168Y-80649772D01*
X99619903Y-80697102D01*
X99418283Y-80831820D01*
X99246820Y-81003283D01*
X99144110Y-81157000D01*
X97324890Y-81157000D01*
X97222180Y-81003283D01*
X97050717Y-80831820D01*
X96849097Y-80697102D01*
X96734832Y-80649772D01*
X96897252Y-80592157D01*
X97147355Y-80443178D01*
X97363588Y-80248269D01*
X97537641Y-80014920D01*
X97662825Y-79752099D01*
X97707476Y-79604890D01*
X97586155Y-79375000D01*
X96393000Y-79375000D01*
X96393000Y-79395000D01*
X96139000Y-79395000D01*
X96139000Y-79375000D01*
X94945845Y-79375000D01*
X94824524Y-79604890D01*
X94869175Y-79752099D01*
X94994359Y-80014920D01*
X95168412Y-80248269D01*
X95384645Y-80443178D01*
X95634748Y-80592157D01*
X95797168Y-80649772D01*
X95682903Y-80697102D01*
X95481283Y-80831820D01*
X95309820Y-81003283D01*
X95175102Y-81204903D01*
X95089734Y-81411000D01*
X94749369Y-81411000D01*
X94244447Y-80906079D01*
X94222987Y-80798191D01*
X94164113Y-80656058D01*
X94078642Y-80528141D01*
X93969859Y-80419358D01*
X93841942Y-80333887D01*
X93699809Y-80275013D01*
X93548922Y-80245000D01*
X93395078Y-80245000D01*
X93252999Y-80273261D01*
X93252999Y-74046757D01*
X95035000Y-74046757D01*
X95035000Y-74289243D01*
X95082307Y-74527069D01*
X95175102Y-74751097D01*
X95309820Y-74952717D01*
X95481283Y-75124180D01*
X95682903Y-75258898D01*
X95906931Y-75351693D01*
X96144757Y-75399000D01*
X96387243Y-75399000D01*
X96625069Y-75351693D01*
X96849097Y-75258898D01*
X97050717Y-75124180D01*
X97222180Y-74952717D01*
X97356898Y-74751097D01*
X97388004Y-74676000D01*
X99080996Y-74676000D01*
X99112102Y-74751097D01*
X99246820Y-74952717D01*
X99418283Y-75124180D01*
X99619903Y-75258898D01*
X99843931Y-75351693D01*
X100081757Y-75399000D01*
X100324243Y-75399000D01*
X100562069Y-75351693D01*
X100786097Y-75258898D01*
X100987717Y-75124180D01*
X101159180Y-74952717D01*
X101293898Y-74751097D01*
X101386693Y-74527069D01*
X101434000Y-74289243D01*
X101434000Y-74046757D01*
X101386693Y-73808931D01*
X101293898Y-73584903D01*
X101159180Y-73383283D01*
X100987717Y-73211820D01*
X100786097Y-73077102D01*
X100562069Y-72984307D01*
X100324243Y-72937000D01*
X100081757Y-72937000D01*
X99843931Y-72984307D01*
X99619903Y-73077102D01*
X99418283Y-73211820D01*
X99246820Y-73383283D01*
X99112102Y-73584903D01*
X99080996Y-73660000D01*
X97388004Y-73660000D01*
X97356898Y-73584903D01*
X97222180Y-73383283D01*
X97050717Y-73211820D01*
X96849097Y-73077102D01*
X96625069Y-72984307D01*
X96387243Y-72937000D01*
X96144757Y-72937000D01*
X95906931Y-72984307D01*
X95682903Y-73077102D01*
X95481283Y-73211820D01*
X95309820Y-73383283D01*
X95175102Y-73584903D01*
X95082307Y-73808931D01*
X95035000Y-74046757D01*
X93252999Y-74046757D01*
X93252999Y-73609367D01*
X95047962Y-71814405D01*
X95082307Y-71987069D01*
X95175102Y-72211097D01*
X95309820Y-72412717D01*
X95481283Y-72584180D01*
X95682903Y-72718898D01*
X95906931Y-72811693D01*
X96144757Y-72859000D01*
X96387243Y-72859000D01*
X96625069Y-72811693D01*
X96849097Y-72718898D01*
X97050717Y-72584180D01*
X97222180Y-72412717D01*
X97356898Y-72211097D01*
X97449693Y-71987069D01*
X97497000Y-71749243D01*
X97497000Y-71506757D01*
X97449693Y-71268931D01*
X97356898Y-71044903D01*
X97299499Y-70958999D01*
X99169501Y-70958999D01*
X99112102Y-71044903D01*
M02*
