M48
INCH,TZ
T1C0.0118
T2C0.0157
T3C0.0256
T4C0.0276
T5C0.0394
%
G90
G05
T1
X42150Y-37850
X42150Y-38050
X42150Y-38250
X42350Y-37850
X42350Y-38050
X42350Y-38250
X53700Y-34500
X53700Y-34700
X53700Y-34900
X53900Y-34500
X53900Y-34700
X53900Y-34900
X53900Y-35100
X54100Y-34500
X54100Y-34700
X54100Y-34900
X54100Y-35100
X54300Y-34500
X54300Y-34700
X54300Y-34900
X54300Y-35100
T2
X36200Y-31250
X36350Y-29850
X37900Y-34500
X38650Y-35450
X39450Y-36700
X39650Y-25400
X39750Y-37050
X39850Y-36400
X40100Y-36800
X40150Y-34400
X40350Y-36350
X40500Y-36800
X40950Y-36900
X41100Y-27550
X41100Y-40150
X41150Y-35450
X41150Y-36400
X41600Y-31300
X41673Y-36270
X41846Y-39200
X41850Y-37617
X42000Y-19950
X42100Y-33000
X42150Y-25700
X42350Y-37250
X42700Y-29000
X42800Y-36900
X42883Y-37506
X43400Y-37593
X44050Y-22500
X44150Y-36450
X44200Y-37593
X44300Y-40100
X44450Y-28650
X44450Y-30700
X45000Y-37580
X45015Y-36021
X45050Y-35050
X45100Y-32400
X45150Y-35450
X45550Y-24400
X45940Y-37760
X46000Y-40600
X46043Y-36537
X46200Y-34850
X46340Y-34460
X46500Y-22200
X46800Y-27450
X46815Y-38722
X46850Y-33550
X46900Y-34350
X46900Y-35400
X47400Y-31150
X47595Y-37481
X47696Y-38774
X48173Y-38425
X48194Y-38996
X48200Y-20050
X48240Y-36920
X48450Y-24550
X48450Y-29050
X48458Y-37409
X48650Y-32200
X48680Y-36660
X48750Y-38250
X48850Y-38700
X49202Y-36025
X49300Y-31200
X49450Y-26850
X49620Y-35840
X49700Y-22550
X50087Y-39200
X50150Y-33400
X50280Y-34780
X50650Y-36300
X50780Y-36780
X50850Y-24850
X51350Y-37350
X51450Y-39300
X51650Y-27300
X51700Y-35300
X52200Y-29700
X52200Y-33850
X52250Y-32950
X52500Y-35600
X52700Y-31350
X52750Y-38250
X52850Y-36100
X52950Y-36750
X52950Y-37650
X53200Y-21650
X53308Y-35632
X53400Y-24300
X53437Y-34063
X53500Y-39300
X53856Y-35916
X54100Y-33450
X54150Y-20050
X54150Y-28050
X54250Y-25900
X54350Y-36000
X54750Y-39250
X54900Y-32950
X54950Y-30700
X55050Y-39700
X55200Y-35800
X55250Y-23850
X55500Y-30300
X55500Y-34750
X55550Y-40600
X55950Y-33650
X56050Y-35200
X56150Y-33300
X56400Y-27200
X56400Y-33650
X56550Y-33300
X56850Y-33650
X57150Y-28000
X57300Y-33200
X57750Y-30600
X57800Y-32450
X58300Y-36250
X59150Y-34350
X60450Y-31050
T5
X39450Y-28200
X39450Y-29200
X39450Y-30200
X39450Y-31200
X39450Y-32200
X39450Y-33200
X47650Y-33450
X48650Y-33450
X59100Y-32050
X59100Y-33050
T3
G00X42822Y-40818
M15
G01X42822Y-40660
M16
G05
G00X44728Y-40818
M15
G01X44728Y-40660
M16
G05
T4
G00X42397Y-42018
M15
G01X42397Y-41822
M16
G05
G00X45153Y-42018
M15
G01X45153Y-41822
M16
G05
T0
M30
