G04 #@! TF.GenerationSoftware,KiCad,Pcbnew,(5.1.6)-1*
G04 #@! TF.CreationDate,2020-11-25T09:48:42+01:00*
G04 #@! TF.ProjectId,Power_module_v1,506f7765-725f-46d6-9f64-756c655f7631,rev?*
G04 #@! TF.SameCoordinates,Original*
G04 #@! TF.FileFunction,Legend,Top*
G04 #@! TF.FilePolarity,Positive*
%FSLAX46Y46*%
G04 Gerber Fmt 4.6, Leading zero omitted, Abs format (unit mm)*
G04 Created by KiCad (PCBNEW (5.1.6)-1) date 2020-11-25 09:48:42*
%MOMM*%
%LPD*%
G01*
G04 APERTURE LIST*
%ADD10C,0.150000*%
%ADD11C,0.125000*%
%ADD12C,0.120000*%
%ADD13C,0.010000*%
G04 APERTURE END LIST*
D10*
X121094666Y-68365714D02*
X121094666Y-69032380D01*
X120856571Y-67984761D02*
X120618476Y-68699047D01*
X121237523Y-68699047D01*
X121618476Y-68937142D02*
X121666095Y-68984761D01*
X121618476Y-69032380D01*
X121570857Y-68984761D01*
X121618476Y-68937142D01*
X121618476Y-69032380D01*
X122523238Y-68032380D02*
X122332761Y-68032380D01*
X122237523Y-68080000D01*
X122189904Y-68127619D01*
X122094666Y-68270476D01*
X122047047Y-68460952D01*
X122047047Y-68841904D01*
X122094666Y-68937142D01*
X122142285Y-68984761D01*
X122237523Y-69032380D01*
X122428000Y-69032380D01*
X122523238Y-68984761D01*
X122570857Y-68937142D01*
X122618476Y-68841904D01*
X122618476Y-68603809D01*
X122570857Y-68508571D01*
X122523238Y-68460952D01*
X122428000Y-68413333D01*
X122237523Y-68413333D01*
X122142285Y-68460952D01*
X122094666Y-68508571D01*
X122047047Y-68603809D01*
X123666095Y-68032380D02*
X123999428Y-69032380D01*
X124332761Y-68032380D01*
X113523333Y-66849523D02*
X113809047Y-66944761D01*
X114285238Y-66944761D01*
X114475714Y-66849523D01*
X114570952Y-66754285D01*
X114666190Y-66563809D01*
X114666190Y-66373333D01*
X114570952Y-66182857D01*
X114475714Y-66087619D01*
X114285238Y-65992380D01*
X113904285Y-65897142D01*
X113713809Y-65801904D01*
X113618571Y-65706666D01*
X113523333Y-65516190D01*
X113523333Y-65325714D01*
X113618571Y-65135238D01*
X113713809Y-65040000D01*
X113904285Y-64944761D01*
X114380476Y-64944761D01*
X114666190Y-65040000D01*
X115904285Y-64944761D02*
X116285238Y-64944761D01*
X116475714Y-65040000D01*
X116666190Y-65230476D01*
X116761428Y-65611428D01*
X116761428Y-66278095D01*
X116666190Y-66659047D01*
X116475714Y-66849523D01*
X116285238Y-66944761D01*
X115904285Y-66944761D01*
X115713809Y-66849523D01*
X115523333Y-66659047D01*
X115428095Y-66278095D01*
X115428095Y-65611428D01*
X115523333Y-65230476D01*
X115713809Y-65040000D01*
X115904285Y-64944761D01*
X118570952Y-66944761D02*
X117618571Y-66944761D01*
X117618571Y-64944761D01*
X119142380Y-66373333D02*
X120094761Y-66373333D01*
X118951904Y-66944761D02*
X119618571Y-64944761D01*
X120285238Y-66944761D01*
X122094761Y-66944761D02*
X121428095Y-65992380D01*
X120951904Y-66944761D02*
X120951904Y-64944761D01*
X121713809Y-64944761D01*
X121904285Y-65040000D01*
X121999523Y-65135238D01*
X122094761Y-65325714D01*
X122094761Y-65611428D01*
X121999523Y-65801904D01*
X121904285Y-65897142D01*
X121713809Y-65992380D01*
X120951904Y-65992380D01*
X124475714Y-66944761D02*
X124475714Y-64944761D01*
X125237619Y-64944761D01*
X125428095Y-65040000D01*
X125523333Y-65135238D01*
X125618571Y-65325714D01*
X125618571Y-65611428D01*
X125523333Y-65801904D01*
X125428095Y-65897142D01*
X125237619Y-65992380D01*
X124475714Y-65992380D01*
X126380476Y-66373333D02*
X127332857Y-66373333D01*
X126190000Y-66944761D02*
X126856666Y-64944761D01*
X127523333Y-66944761D01*
X128190000Y-66944761D02*
X128190000Y-64944761D01*
X129332857Y-66944761D01*
X129332857Y-64944761D01*
X130285238Y-65897142D02*
X130951904Y-65897142D01*
X131237619Y-66944761D02*
X130285238Y-66944761D01*
X130285238Y-64944761D01*
X131237619Y-64944761D01*
X133047142Y-66944761D02*
X132094761Y-66944761D01*
X132094761Y-64944761D01*
D11*
X105621309Y-103394095D02*
X106121309Y-103394095D01*
X105764166Y-103560761D01*
X106121309Y-103727428D01*
X105621309Y-103727428D01*
X105621309Y-103965523D02*
X105954642Y-103965523D01*
X106121309Y-103965523D02*
X106097500Y-103941714D01*
X106073690Y-103965523D01*
X106097500Y-103989333D01*
X106121309Y-103965523D01*
X106073690Y-103965523D01*
X105645119Y-104417904D02*
X105621309Y-104370285D01*
X105621309Y-104275047D01*
X105645119Y-104227428D01*
X105668928Y-104203619D01*
X105716547Y-104179809D01*
X105859404Y-104179809D01*
X105907023Y-104203619D01*
X105930833Y-104227428D01*
X105954642Y-104275047D01*
X105954642Y-104370285D01*
X105930833Y-104417904D01*
X105621309Y-104632190D02*
X105954642Y-104632190D01*
X105859404Y-104632190D02*
X105907023Y-104656000D01*
X105930833Y-104679809D01*
X105954642Y-104727428D01*
X105954642Y-104775047D01*
X105621309Y-105013142D02*
X105645119Y-104965523D01*
X105668928Y-104941714D01*
X105716547Y-104917904D01*
X105859404Y-104917904D01*
X105907023Y-104941714D01*
X105930833Y-104965523D01*
X105954642Y-105013142D01*
X105954642Y-105084571D01*
X105930833Y-105132190D01*
X105907023Y-105156000D01*
X105859404Y-105179809D01*
X105716547Y-105179809D01*
X105668928Y-105156000D01*
X105645119Y-105132190D01*
X105621309Y-105084571D01*
X105621309Y-105013142D01*
X106121309Y-105775047D02*
X105716547Y-105775047D01*
X105668928Y-105798857D01*
X105645119Y-105822666D01*
X105621309Y-105870285D01*
X105621309Y-105965523D01*
X105645119Y-106013142D01*
X105668928Y-106036952D01*
X105716547Y-106060761D01*
X106121309Y-106060761D01*
X105645119Y-106275047D02*
X105621309Y-106322666D01*
X105621309Y-106417904D01*
X105645119Y-106465523D01*
X105692738Y-106489333D01*
X105716547Y-106489333D01*
X105764166Y-106465523D01*
X105787976Y-106417904D01*
X105787976Y-106346476D01*
X105811785Y-106298857D01*
X105859404Y-106275047D01*
X105883214Y-106275047D01*
X105930833Y-106298857D01*
X105954642Y-106346476D01*
X105954642Y-106417904D01*
X105930833Y-106465523D01*
X105621309Y-106703619D02*
X106121309Y-106703619D01*
X105930833Y-106703619D02*
X105954642Y-106751238D01*
X105954642Y-106846476D01*
X105930833Y-106894095D01*
X105907023Y-106917904D01*
X105859404Y-106941714D01*
X105716547Y-106941714D01*
X105668928Y-106917904D01*
X105645119Y-106894095D01*
X105621309Y-106846476D01*
X105621309Y-106751238D01*
X105645119Y-106703619D01*
X104746309Y-104894095D02*
X105246309Y-104894095D01*
X104746309Y-105132190D02*
X105246309Y-105132190D01*
X104746309Y-105417904D01*
X105246309Y-105417904D01*
X104386285Y-100048190D02*
X104148190Y-100048190D01*
X104148190Y-99548190D01*
X104552952Y-99786285D02*
X104719619Y-99786285D01*
X104791047Y-100048190D02*
X104552952Y-100048190D01*
X104552952Y-99548190D01*
X104791047Y-99548190D01*
X105005333Y-100048190D02*
X105005333Y-99548190D01*
X105124380Y-99548190D01*
X105195809Y-99572000D01*
X105243428Y-99619619D01*
X105267238Y-99667238D01*
X105291047Y-99762476D01*
X105291047Y-99833904D01*
X105267238Y-99929142D01*
X105243428Y-99976761D01*
X105195809Y-100024380D01*
X105124380Y-100048190D01*
X105005333Y-100048190D01*
X105886285Y-100048190D02*
X105886285Y-99548190D01*
X106076761Y-99548190D01*
X106124380Y-99572000D01*
X106148190Y-99595809D01*
X106172000Y-99643428D01*
X106172000Y-99714857D01*
X106148190Y-99762476D01*
X106124380Y-99786285D01*
X106076761Y-99810095D01*
X105886285Y-99810095D01*
X106481523Y-99548190D02*
X106576761Y-99548190D01*
X106624380Y-99572000D01*
X106672000Y-99619619D01*
X106695809Y-99714857D01*
X106695809Y-99881523D01*
X106672000Y-99976761D01*
X106624380Y-100024380D01*
X106576761Y-100048190D01*
X106481523Y-100048190D01*
X106433904Y-100024380D01*
X106386285Y-99976761D01*
X106362476Y-99881523D01*
X106362476Y-99714857D01*
X106386285Y-99619619D01*
X106433904Y-99572000D01*
X106481523Y-99548190D01*
X106862476Y-99548190D02*
X106981523Y-100048190D01*
X107076761Y-99691047D01*
X107172000Y-100048190D01*
X107291047Y-99548190D01*
X107481523Y-99786285D02*
X107648190Y-99786285D01*
X107719619Y-100048190D02*
X107481523Y-100048190D01*
X107481523Y-99548190D01*
X107719619Y-99548190D01*
X108219619Y-100048190D02*
X108052952Y-99810095D01*
X107933904Y-100048190D02*
X107933904Y-99548190D01*
X108124380Y-99548190D01*
X108172000Y-99572000D01*
X108195809Y-99595809D01*
X108219619Y-99643428D01*
X108219619Y-99714857D01*
X108195809Y-99762476D01*
X108172000Y-99786285D01*
X108124380Y-99810095D01*
X107933904Y-99810095D01*
X105406190Y-98270190D02*
X105168095Y-98270190D01*
X105168095Y-97770190D01*
X105572857Y-98008285D02*
X105739523Y-98008285D01*
X105810952Y-98270190D02*
X105572857Y-98270190D01*
X105572857Y-97770190D01*
X105810952Y-97770190D01*
X106025238Y-98270190D02*
X106025238Y-97770190D01*
X106144285Y-97770190D01*
X106215714Y-97794000D01*
X106263333Y-97841619D01*
X106287142Y-97889238D01*
X106310952Y-97984476D01*
X106310952Y-98055904D01*
X106287142Y-98151142D01*
X106263333Y-98198761D01*
X106215714Y-98246380D01*
X106144285Y-98270190D01*
X106025238Y-98270190D01*
X107191904Y-98222571D02*
X107168095Y-98246380D01*
X107096666Y-98270190D01*
X107049047Y-98270190D01*
X106977619Y-98246380D01*
X106930000Y-98198761D01*
X106906190Y-98151142D01*
X106882380Y-98055904D01*
X106882380Y-97984476D01*
X106906190Y-97889238D01*
X106930000Y-97841619D01*
X106977619Y-97794000D01*
X107049047Y-97770190D01*
X107096666Y-97770190D01*
X107168095Y-97794000D01*
X107191904Y-97817809D01*
X107406190Y-98270190D02*
X107406190Y-97770190D01*
X107406190Y-98008285D02*
X107691904Y-98008285D01*
X107691904Y-98270190D02*
X107691904Y-97770190D01*
X108191904Y-97794000D02*
X108144285Y-97770190D01*
X108072857Y-97770190D01*
X108001428Y-97794000D01*
X107953809Y-97841619D01*
X107930000Y-97889238D01*
X107906190Y-97984476D01*
X107906190Y-98055904D01*
X107930000Y-98151142D01*
X107953809Y-98198761D01*
X108001428Y-98246380D01*
X108072857Y-98270190D01*
X108120476Y-98270190D01*
X108191904Y-98246380D01*
X108215714Y-98222571D01*
X108215714Y-98055904D01*
X108120476Y-98055904D01*
X99984761Y-94460190D02*
X99746666Y-94460190D01*
X99746666Y-93960190D01*
X100151428Y-94460190D02*
X100151428Y-93960190D01*
X100270476Y-93960190D01*
X100341904Y-93984000D01*
X100389523Y-94031619D01*
X100413333Y-94079238D01*
X100437142Y-94174476D01*
X100437142Y-94245904D01*
X100413333Y-94341142D01*
X100389523Y-94388761D01*
X100341904Y-94436380D01*
X100270476Y-94460190D01*
X100151428Y-94460190D01*
X100937142Y-94460190D02*
X100770476Y-94222095D01*
X100651428Y-94460190D02*
X100651428Y-93960190D01*
X100841904Y-93960190D01*
X100889523Y-93984000D01*
X100913333Y-94007809D01*
X100937142Y-94055428D01*
X100937142Y-94126857D01*
X100913333Y-94174476D01*
X100889523Y-94198285D01*
X100841904Y-94222095D01*
X100651428Y-94222095D01*
X137469714Y-104620190D02*
X137231619Y-104620190D01*
X137231619Y-104120190D01*
X137636380Y-104358285D02*
X137803047Y-104358285D01*
X137874476Y-104620190D02*
X137636380Y-104620190D01*
X137636380Y-104120190D01*
X137874476Y-104120190D01*
X138088761Y-104620190D02*
X138088761Y-104120190D01*
X138207809Y-104120190D01*
X138279238Y-104144000D01*
X138326857Y-104191619D01*
X138350666Y-104239238D01*
X138374476Y-104334476D01*
X138374476Y-104405904D01*
X138350666Y-104501142D01*
X138326857Y-104548761D01*
X138279238Y-104596380D01*
X138207809Y-104620190D01*
X138088761Y-104620190D01*
X139207809Y-104620190D02*
X138969714Y-104620190D01*
X138969714Y-104120190D01*
X139374476Y-104620190D02*
X139374476Y-104120190D01*
X139493523Y-104120190D01*
X139564952Y-104144000D01*
X139612571Y-104191619D01*
X139636380Y-104239238D01*
X139660190Y-104334476D01*
X139660190Y-104405904D01*
X139636380Y-104501142D01*
X139612571Y-104548761D01*
X139564952Y-104596380D01*
X139493523Y-104620190D01*
X139374476Y-104620190D01*
X140160190Y-104620190D02*
X139993523Y-104382095D01*
X139874476Y-104620190D02*
X139874476Y-104120190D01*
X140064952Y-104120190D01*
X140112571Y-104144000D01*
X140136380Y-104167809D01*
X140160190Y-104215428D01*
X140160190Y-104286857D01*
X140136380Y-104334476D01*
X140112571Y-104358285D01*
X140064952Y-104382095D01*
X139874476Y-104382095D01*
X137326857Y-102080190D02*
X137088761Y-102080190D01*
X137088761Y-101580190D01*
X137493523Y-101818285D02*
X137660190Y-101818285D01*
X137731619Y-102080190D02*
X137493523Y-102080190D01*
X137493523Y-101580190D01*
X137731619Y-101580190D01*
X137945904Y-102080190D02*
X137945904Y-101580190D01*
X138064952Y-101580190D01*
X138136380Y-101604000D01*
X138184000Y-101651619D01*
X138207809Y-101699238D01*
X138231619Y-101794476D01*
X138231619Y-101865904D01*
X138207809Y-101961142D01*
X138184000Y-102008761D01*
X138136380Y-102056380D01*
X138064952Y-102080190D01*
X137945904Y-102080190D01*
X138993523Y-101818285D02*
X139064952Y-101842095D01*
X139088761Y-101865904D01*
X139112571Y-101913523D01*
X139112571Y-101984952D01*
X139088761Y-102032571D01*
X139064952Y-102056380D01*
X139017333Y-102080190D01*
X138826857Y-102080190D01*
X138826857Y-101580190D01*
X138993523Y-101580190D01*
X139041142Y-101604000D01*
X139064952Y-101627809D01*
X139088761Y-101675428D01*
X139088761Y-101723047D01*
X139064952Y-101770666D01*
X139041142Y-101794476D01*
X138993523Y-101818285D01*
X138826857Y-101818285D01*
X139303047Y-101937333D02*
X139541142Y-101937333D01*
X139255428Y-102080190D02*
X139422095Y-101580190D01*
X139588761Y-102080190D01*
X139684000Y-101580190D02*
X139969714Y-101580190D01*
X139826857Y-102080190D02*
X139826857Y-101580190D01*
X140064952Y-101580190D02*
X140350666Y-101580190D01*
X140207809Y-102080190D02*
X140207809Y-101580190D01*
D10*
X129675428Y-107132380D02*
X129675428Y-106132380D01*
X130056380Y-106132380D01*
X130151619Y-106180000D01*
X130199238Y-106227619D01*
X130246857Y-106322857D01*
X130246857Y-106465714D01*
X130199238Y-106560952D01*
X130151619Y-106608571D01*
X130056380Y-106656190D01*
X129675428Y-106656190D01*
X130818285Y-107132380D02*
X130723047Y-107084761D01*
X130675428Y-107037142D01*
X130627809Y-106941904D01*
X130627809Y-106656190D01*
X130675428Y-106560952D01*
X130723047Y-106513333D01*
X130818285Y-106465714D01*
X130961142Y-106465714D01*
X131056380Y-106513333D01*
X131104000Y-106560952D01*
X131151619Y-106656190D01*
X131151619Y-106941904D01*
X131104000Y-107037142D01*
X131056380Y-107084761D01*
X130961142Y-107132380D01*
X130818285Y-107132380D01*
X131484952Y-106465714D02*
X131675428Y-107132380D01*
X131865904Y-106656190D01*
X132056380Y-107132380D01*
X132246857Y-106465714D01*
X133008761Y-107084761D02*
X132913523Y-107132380D01*
X132723047Y-107132380D01*
X132627809Y-107084761D01*
X132580190Y-106989523D01*
X132580190Y-106608571D01*
X132627809Y-106513333D01*
X132723047Y-106465714D01*
X132913523Y-106465714D01*
X133008761Y-106513333D01*
X133056380Y-106608571D01*
X133056380Y-106703809D01*
X132580190Y-106799047D01*
X133484952Y-107132380D02*
X133484952Y-106465714D01*
X133484952Y-106656190D02*
X133532571Y-106560952D01*
X133580190Y-106513333D01*
X133675428Y-106465714D01*
X133770666Y-106465714D01*
X134770666Y-106465714D02*
X135008761Y-107132380D01*
X135246857Y-106465714D01*
X135580190Y-106227619D02*
X135627809Y-106180000D01*
X135723047Y-106132380D01*
X135961142Y-106132380D01*
X136056380Y-106180000D01*
X136104000Y-106227619D01*
X136151619Y-106322857D01*
X136151619Y-106418095D01*
X136104000Y-106560952D01*
X135532571Y-107132380D01*
X136151619Y-107132380D01*
X136580190Y-107037142D02*
X136627809Y-107084761D01*
X136580190Y-107132380D01*
X136532571Y-107084761D01*
X136580190Y-107037142D01*
X136580190Y-107132380D01*
X137246857Y-106132380D02*
X137342095Y-106132380D01*
X137437333Y-106180000D01*
X137484952Y-106227619D01*
X137532571Y-106322857D01*
X137580190Y-106513333D01*
X137580190Y-106751428D01*
X137532571Y-106941904D01*
X137484952Y-107037142D01*
X137437333Y-107084761D01*
X137342095Y-107132380D01*
X137246857Y-107132380D01*
X137151619Y-107084761D01*
X137104000Y-107037142D01*
X137056380Y-106941904D01*
X137008761Y-106751428D01*
X137008761Y-106513333D01*
X137056380Y-106322857D01*
X137104000Y-106227619D01*
X137151619Y-106180000D01*
X137246857Y-106132380D01*
D11*
X120523047Y-72140000D02*
X120475428Y-72116190D01*
X120404000Y-72116190D01*
X120332571Y-72140000D01*
X120284952Y-72187619D01*
X120261142Y-72235238D01*
X120237333Y-72330476D01*
X120237333Y-72401904D01*
X120261142Y-72497142D01*
X120284952Y-72544761D01*
X120332571Y-72592380D01*
X120404000Y-72616190D01*
X120451619Y-72616190D01*
X120523047Y-72592380D01*
X120546857Y-72568571D01*
X120546857Y-72401904D01*
X120451619Y-72401904D01*
X120761142Y-72616190D02*
X120761142Y-72116190D01*
X121046857Y-72616190D01*
X121046857Y-72116190D01*
X121284952Y-72616190D02*
X121284952Y-72116190D01*
X121404000Y-72116190D01*
X121475428Y-72140000D01*
X121523047Y-72187619D01*
X121546857Y-72235238D01*
X121570666Y-72330476D01*
X121570666Y-72401904D01*
X121546857Y-72497142D01*
X121523047Y-72544761D01*
X121475428Y-72592380D01*
X121404000Y-72616190D01*
X121284952Y-72616190D01*
X147165333Y-80212380D02*
X147236761Y-80236190D01*
X147355809Y-80236190D01*
X147403428Y-80212380D01*
X147427238Y-80188571D01*
X147451047Y-80140952D01*
X147451047Y-80093333D01*
X147427238Y-80045714D01*
X147403428Y-80021904D01*
X147355809Y-79998095D01*
X147260571Y-79974285D01*
X147212952Y-79950476D01*
X147189142Y-79926666D01*
X147165333Y-79879047D01*
X147165333Y-79831428D01*
X147189142Y-79783809D01*
X147212952Y-79760000D01*
X147260571Y-79736190D01*
X147379619Y-79736190D01*
X147451047Y-79760000D01*
X147760571Y-79736190D02*
X147855809Y-79736190D01*
X147903428Y-79760000D01*
X147951047Y-79807619D01*
X147974857Y-79902857D01*
X147974857Y-80069523D01*
X147951047Y-80164761D01*
X147903428Y-80212380D01*
X147855809Y-80236190D01*
X147760571Y-80236190D01*
X147712952Y-80212380D01*
X147665333Y-80164761D01*
X147641523Y-80069523D01*
X147641523Y-79902857D01*
X147665333Y-79807619D01*
X147712952Y-79760000D01*
X147760571Y-79736190D01*
X148427238Y-80236190D02*
X148189142Y-80236190D01*
X148189142Y-79736190D01*
X148593904Y-80045714D02*
X148974857Y-80045714D01*
X148784380Y-80236190D02*
X148784380Y-79855238D01*
X147447047Y-82300000D02*
X147399428Y-82276190D01*
X147328000Y-82276190D01*
X147256571Y-82300000D01*
X147208952Y-82347619D01*
X147185142Y-82395238D01*
X147161333Y-82490476D01*
X147161333Y-82561904D01*
X147185142Y-82657142D01*
X147208952Y-82704761D01*
X147256571Y-82752380D01*
X147328000Y-82776190D01*
X147375619Y-82776190D01*
X147447047Y-82752380D01*
X147470857Y-82728571D01*
X147470857Y-82561904D01*
X147375619Y-82561904D01*
X147685142Y-82776190D02*
X147685142Y-82276190D01*
X147970857Y-82776190D01*
X147970857Y-82276190D01*
X148208952Y-82776190D02*
X148208952Y-82276190D01*
X148328000Y-82276190D01*
X148399428Y-82300000D01*
X148447047Y-82347619D01*
X148470857Y-82395238D01*
X148494666Y-82490476D01*
X148494666Y-82561904D01*
X148470857Y-82657142D01*
X148447047Y-82704761D01*
X148399428Y-82752380D01*
X148328000Y-82776190D01*
X148208952Y-82776190D01*
X123273428Y-72354285D02*
X123344857Y-72378095D01*
X123368666Y-72401904D01*
X123392476Y-72449523D01*
X123392476Y-72520952D01*
X123368666Y-72568571D01*
X123344857Y-72592380D01*
X123297238Y-72616190D01*
X123106761Y-72616190D01*
X123106761Y-72116190D01*
X123273428Y-72116190D01*
X123321047Y-72140000D01*
X123344857Y-72163809D01*
X123368666Y-72211428D01*
X123368666Y-72259047D01*
X123344857Y-72306666D01*
X123321047Y-72330476D01*
X123273428Y-72354285D01*
X123106761Y-72354285D01*
X123582952Y-72473333D02*
X123821047Y-72473333D01*
X123535333Y-72616190D02*
X123702000Y-72116190D01*
X123868666Y-72616190D01*
X123963904Y-72116190D02*
X124249619Y-72116190D01*
X124106761Y-72616190D02*
X124106761Y-72116190D01*
X124416285Y-72425714D02*
X124797238Y-72425714D01*
X124606761Y-72616190D02*
X124606761Y-72235238D01*
D12*
X93472000Y-84709000D02*
X93472000Y-83947000D01*
X94107000Y-84328000D02*
X93472000Y-84709000D01*
X93472000Y-83947000D02*
X94107000Y-84328000D01*
D11*
X124702142Y-98905190D02*
X124702142Y-98405190D01*
X124987857Y-98905190D01*
X124987857Y-98405190D01*
X125511666Y-98857571D02*
X125487857Y-98881380D01*
X125416428Y-98905190D01*
X125368809Y-98905190D01*
X125297380Y-98881380D01*
X125249761Y-98833761D01*
X125225952Y-98786142D01*
X125202142Y-98690904D01*
X125202142Y-98619476D01*
X125225952Y-98524238D01*
X125249761Y-98476619D01*
X125297380Y-98429000D01*
X125368809Y-98405190D01*
X125416428Y-98405190D01*
X125487857Y-98429000D01*
X125511666Y-98452809D01*
X122174047Y-98429000D02*
X122126428Y-98405190D01*
X122055000Y-98405190D01*
X121983571Y-98429000D01*
X121935952Y-98476619D01*
X121912142Y-98524238D01*
X121888333Y-98619476D01*
X121888333Y-98690904D01*
X121912142Y-98786142D01*
X121935952Y-98833761D01*
X121983571Y-98881380D01*
X122055000Y-98905190D01*
X122102619Y-98905190D01*
X122174047Y-98881380D01*
X122197857Y-98857571D01*
X122197857Y-98690904D01*
X122102619Y-98690904D01*
X122412142Y-98905190D02*
X122412142Y-98405190D01*
X122697857Y-98905190D01*
X122697857Y-98405190D01*
X122935952Y-98905190D02*
X122935952Y-98405190D01*
X123055000Y-98405190D01*
X123126428Y-98429000D01*
X123174047Y-98476619D01*
X123197857Y-98524238D01*
X123221666Y-98619476D01*
X123221666Y-98690904D01*
X123197857Y-98786142D01*
X123174047Y-98833761D01*
X123126428Y-98881380D01*
X123055000Y-98905190D01*
X122935952Y-98905190D01*
X119562619Y-98905190D02*
X119562619Y-98405190D01*
X119800714Y-98905190D02*
X119800714Y-98405190D01*
X120086428Y-98905190D01*
X120086428Y-98405190D01*
X120253095Y-98405190D02*
X120538809Y-98405190D01*
X120395952Y-98905190D02*
X120395952Y-98405190D01*
D13*
G36*
X134147686Y-60966295D02*
G01*
X134184102Y-60968633D01*
X134218462Y-60972833D01*
X134253058Y-60979168D01*
X134286236Y-60986907D01*
X134302247Y-60991307D01*
X134320107Y-60996794D01*
X134338471Y-61002887D01*
X134355993Y-61009105D01*
X134371329Y-61014968D01*
X134383133Y-61019994D01*
X134390060Y-61023702D01*
X134390762Y-61024262D01*
X134390425Y-61027982D01*
X134387861Y-61036266D01*
X134383712Y-61047542D01*
X134378618Y-61060239D01*
X134373222Y-61072785D01*
X134368166Y-61083609D01*
X134364091Y-61091140D01*
X134362611Y-61093192D01*
X134358440Y-61093334D01*
X134350387Y-61090743D01*
X134343373Y-61087547D01*
X134326074Y-61079768D01*
X134304169Y-61071393D01*
X134279703Y-61063106D01*
X134254724Y-61055590D01*
X134231275Y-61049528D01*
X134226010Y-61048345D01*
X134170198Y-61039066D01*
X134115033Y-61035378D01*
X134061049Y-61037135D01*
X134008781Y-61044191D01*
X133958764Y-61056402D01*
X133911533Y-61073620D01*
X133867623Y-61095700D01*
X133827568Y-61122496D01*
X133791904Y-61153862D01*
X133776051Y-61171020D01*
X133744164Y-61212583D01*
X133717457Y-61257279D01*
X133695834Y-61305417D01*
X133679194Y-61357305D01*
X133667439Y-61413253D01*
X133660469Y-61473568D01*
X133658186Y-61538160D01*
X133660630Y-61603901D01*
X133667902Y-61665508D01*
X133679910Y-61722851D01*
X133696563Y-61775799D01*
X133717769Y-61824220D01*
X133743438Y-61867983D01*
X133773476Y-61906959D01*
X133807794Y-61941016D01*
X133846300Y-61970023D01*
X133888902Y-61993849D01*
X133935510Y-62012363D01*
X133986030Y-62025435D01*
X134000240Y-62028000D01*
X134050069Y-62033805D01*
X134103940Y-62035683D01*
X134160439Y-62033720D01*
X134218152Y-62028003D01*
X134275663Y-62018616D01*
X134320355Y-62008578D01*
X134352453Y-62000428D01*
X134352453Y-62069839D01*
X134327900Y-62076937D01*
X134296333Y-62085504D01*
X134266508Y-62092298D01*
X134236948Y-62097513D01*
X134206176Y-62101340D01*
X134172714Y-62103974D01*
X134135087Y-62105608D01*
X134103533Y-62106289D01*
X134080036Y-62106563D01*
X134058187Y-62106689D01*
X134039101Y-62106672D01*
X134023891Y-62106516D01*
X134013671Y-62106224D01*
X134010400Y-62105985D01*
X134002103Y-62104742D01*
X133989164Y-62102573D01*
X133973594Y-62099822D01*
X133962427Y-62097775D01*
X133907504Y-62084349D01*
X133856218Y-62065293D01*
X133808712Y-62040780D01*
X133765128Y-62010982D01*
X133725608Y-61976071D01*
X133690295Y-61936220D01*
X133659330Y-61891600D01*
X133632856Y-61842384D01*
X133611015Y-61788745D01*
X133593950Y-61730855D01*
X133581802Y-61668885D01*
X133577056Y-61631047D01*
X133575118Y-61605070D01*
X133573972Y-61574809D01*
X133573600Y-61542169D01*
X133573985Y-61509053D01*
X133575109Y-61477364D01*
X133576954Y-61449007D01*
X133578910Y-61430210D01*
X133590021Y-61366966D01*
X133606439Y-61307665D01*
X133628011Y-61252473D01*
X133654580Y-61201554D01*
X133685992Y-61155072D01*
X133722089Y-61113192D01*
X133762717Y-61076079D01*
X133807721Y-61043897D01*
X133856944Y-61016811D01*
X133910232Y-60994985D01*
X133967428Y-60978584D01*
X134014026Y-60969758D01*
X134026914Y-60968363D01*
X134044821Y-60967166D01*
X134065992Y-60966247D01*
X134088672Y-60965685D01*
X134106920Y-60965547D01*
X134147686Y-60966295D01*
G37*
X134147686Y-60966295D02*
X134184102Y-60968633D01*
X134218462Y-60972833D01*
X134253058Y-60979168D01*
X134286236Y-60986907D01*
X134302247Y-60991307D01*
X134320107Y-60996794D01*
X134338471Y-61002887D01*
X134355993Y-61009105D01*
X134371329Y-61014968D01*
X134383133Y-61019994D01*
X134390060Y-61023702D01*
X134390762Y-61024262D01*
X134390425Y-61027982D01*
X134387861Y-61036266D01*
X134383712Y-61047542D01*
X134378618Y-61060239D01*
X134373222Y-61072785D01*
X134368166Y-61083609D01*
X134364091Y-61091140D01*
X134362611Y-61093192D01*
X134358440Y-61093334D01*
X134350387Y-61090743D01*
X134343373Y-61087547D01*
X134326074Y-61079768D01*
X134304169Y-61071393D01*
X134279703Y-61063106D01*
X134254724Y-61055590D01*
X134231275Y-61049528D01*
X134226010Y-61048345D01*
X134170198Y-61039066D01*
X134115033Y-61035378D01*
X134061049Y-61037135D01*
X134008781Y-61044191D01*
X133958764Y-61056402D01*
X133911533Y-61073620D01*
X133867623Y-61095700D01*
X133827568Y-61122496D01*
X133791904Y-61153862D01*
X133776051Y-61171020D01*
X133744164Y-61212583D01*
X133717457Y-61257279D01*
X133695834Y-61305417D01*
X133679194Y-61357305D01*
X133667439Y-61413253D01*
X133660469Y-61473568D01*
X133658186Y-61538160D01*
X133660630Y-61603901D01*
X133667902Y-61665508D01*
X133679910Y-61722851D01*
X133696563Y-61775799D01*
X133717769Y-61824220D01*
X133743438Y-61867983D01*
X133773476Y-61906959D01*
X133807794Y-61941016D01*
X133846300Y-61970023D01*
X133888902Y-61993849D01*
X133935510Y-62012363D01*
X133986030Y-62025435D01*
X134000240Y-62028000D01*
X134050069Y-62033805D01*
X134103940Y-62035683D01*
X134160439Y-62033720D01*
X134218152Y-62028003D01*
X134275663Y-62018616D01*
X134320355Y-62008578D01*
X134352453Y-62000428D01*
X134352453Y-62069839D01*
X134327900Y-62076937D01*
X134296333Y-62085504D01*
X134266508Y-62092298D01*
X134236948Y-62097513D01*
X134206176Y-62101340D01*
X134172714Y-62103974D01*
X134135087Y-62105608D01*
X134103533Y-62106289D01*
X134080036Y-62106563D01*
X134058187Y-62106689D01*
X134039101Y-62106672D01*
X134023891Y-62106516D01*
X134013671Y-62106224D01*
X134010400Y-62105985D01*
X134002103Y-62104742D01*
X133989164Y-62102573D01*
X133973594Y-62099822D01*
X133962427Y-62097775D01*
X133907504Y-62084349D01*
X133856218Y-62065293D01*
X133808712Y-62040780D01*
X133765128Y-62010982D01*
X133725608Y-61976071D01*
X133690295Y-61936220D01*
X133659330Y-61891600D01*
X133632856Y-61842384D01*
X133611015Y-61788745D01*
X133593950Y-61730855D01*
X133581802Y-61668885D01*
X133577056Y-61631047D01*
X133575118Y-61605070D01*
X133573972Y-61574809D01*
X133573600Y-61542169D01*
X133573985Y-61509053D01*
X133575109Y-61477364D01*
X133576954Y-61449007D01*
X133578910Y-61430210D01*
X133590021Y-61366966D01*
X133606439Y-61307665D01*
X133628011Y-61252473D01*
X133654580Y-61201554D01*
X133685992Y-61155072D01*
X133722089Y-61113192D01*
X133762717Y-61076079D01*
X133807721Y-61043897D01*
X133856944Y-61016811D01*
X133910232Y-60994985D01*
X133967428Y-60978584D01*
X134014026Y-60969758D01*
X134026914Y-60968363D01*
X134044821Y-60967166D01*
X134065992Y-60966247D01*
X134088672Y-60965685D01*
X134106920Y-60965547D01*
X134147686Y-60966295D01*
G36*
X135298371Y-60965363D02*
G01*
X135320952Y-60965761D01*
X135339200Y-60966542D01*
X135354333Y-60967774D01*
X135367569Y-60969524D01*
X135376920Y-60971206D01*
X135429395Y-60983962D01*
X135476867Y-61000570D01*
X135520182Y-61021466D01*
X135560187Y-61047087D01*
X135597728Y-61077870D01*
X135614079Y-61093557D01*
X135651302Y-61135678D01*
X135683378Y-61182162D01*
X135710309Y-61233017D01*
X135732099Y-61288255D01*
X135748751Y-61347885D01*
X135760268Y-61411917D01*
X135766655Y-61480360D01*
X135768080Y-61534269D01*
X135765490Y-61606099D01*
X135757728Y-61673673D01*
X135744803Y-61736962D01*
X135726726Y-61795937D01*
X135703507Y-61850568D01*
X135675157Y-61900827D01*
X135641685Y-61946685D01*
X135611823Y-61979586D01*
X135572137Y-62014784D01*
X135528903Y-62044304D01*
X135482067Y-62068167D01*
X135431573Y-62086393D01*
X135377366Y-62099002D01*
X135319392Y-62106014D01*
X135265248Y-62107572D01*
X135247086Y-62107300D01*
X135230563Y-62106910D01*
X135217262Y-62106449D01*
X135208763Y-62105964D01*
X135207586Y-62105846D01*
X135148696Y-62095877D01*
X135093994Y-62080590D01*
X135043451Y-62059963D01*
X134997036Y-62033975D01*
X134954719Y-62002607D01*
X134916469Y-61965838D01*
X134882255Y-61923646D01*
X134852047Y-61876013D01*
X134843520Y-61860192D01*
X134820822Y-61809853D01*
X134802365Y-61754924D01*
X134788290Y-61696208D01*
X134778737Y-61634504D01*
X134773845Y-61570613D01*
X134773797Y-61535733D01*
X134860453Y-61535733D01*
X134862373Y-61601559D01*
X134868200Y-61662081D01*
X134878032Y-61717597D01*
X134891969Y-61768406D01*
X134910109Y-61814805D01*
X134932553Y-61857092D01*
X134959399Y-61895566D01*
X134990746Y-61930525D01*
X134992216Y-61931973D01*
X135027784Y-61962613D01*
X135066356Y-61987598D01*
X135108387Y-62007145D01*
X135154331Y-62021470D01*
X135197426Y-62029795D01*
X135215818Y-62031639D01*
X135238952Y-62032720D01*
X135264845Y-62033056D01*
X135291511Y-62032665D01*
X135316965Y-62031563D01*
X135339221Y-62029770D01*
X135349768Y-62028437D01*
X135400451Y-62017842D01*
X135446954Y-62001938D01*
X135489332Y-61980683D01*
X135527644Y-61954030D01*
X135561947Y-61921935D01*
X135592297Y-61884354D01*
X135618751Y-61841241D01*
X135636917Y-61803280D01*
X135652871Y-61759378D01*
X135665530Y-61710632D01*
X135674838Y-61658147D01*
X135680735Y-61603028D01*
X135683163Y-61546381D01*
X135682064Y-61489313D01*
X135677379Y-61432928D01*
X135669050Y-61378333D01*
X135661227Y-61342601D01*
X135646139Y-61292060D01*
X135627155Y-61246584D01*
X135603889Y-61205445D01*
X135575955Y-61167915D01*
X135558361Y-61148444D01*
X135524812Y-61117590D01*
X135488696Y-61092156D01*
X135449570Y-61071974D01*
X135406990Y-61056876D01*
X135360511Y-61046695D01*
X135309688Y-61041262D01*
X135271933Y-61040194D01*
X135233818Y-61041095D01*
X135200259Y-61043991D01*
X135169255Y-61049174D01*
X135138808Y-61056937D01*
X135123052Y-61061915D01*
X135078461Y-61080305D01*
X135037354Y-61104390D01*
X135000005Y-61133896D01*
X134966693Y-61168553D01*
X134937691Y-61208089D01*
X134913278Y-61252232D01*
X134901126Y-61280357D01*
X134887170Y-61320469D01*
X134876337Y-61361868D01*
X134868451Y-61405670D01*
X134863332Y-61452992D01*
X134860804Y-61504951D01*
X134860453Y-61535733D01*
X134773797Y-61535733D01*
X134773755Y-61505337D01*
X134775624Y-61471482D01*
X134782915Y-61404874D01*
X134794532Y-61343292D01*
X134810580Y-61286462D01*
X134831166Y-61234111D01*
X134856396Y-61185966D01*
X134886377Y-61141753D01*
X134918674Y-61103863D01*
X134956343Y-61068174D01*
X134996766Y-61037999D01*
X135040561Y-61012999D01*
X135088347Y-60992838D01*
X135140741Y-60977178D01*
X135158480Y-60973085D01*
X135171361Y-60970479D01*
X135183438Y-60968523D01*
X135196028Y-60967125D01*
X135210450Y-60966193D01*
X135228022Y-60965635D01*
X135250063Y-60965359D01*
X135270240Y-60965281D01*
X135298371Y-60965363D01*
G37*
X135298371Y-60965363D02*
X135320952Y-60965761D01*
X135339200Y-60966542D01*
X135354333Y-60967774D01*
X135367569Y-60969524D01*
X135376920Y-60971206D01*
X135429395Y-60983962D01*
X135476867Y-61000570D01*
X135520182Y-61021466D01*
X135560187Y-61047087D01*
X135597728Y-61077870D01*
X135614079Y-61093557D01*
X135651302Y-61135678D01*
X135683378Y-61182162D01*
X135710309Y-61233017D01*
X135732099Y-61288255D01*
X135748751Y-61347885D01*
X135760268Y-61411917D01*
X135766655Y-61480360D01*
X135768080Y-61534269D01*
X135765490Y-61606099D01*
X135757728Y-61673673D01*
X135744803Y-61736962D01*
X135726726Y-61795937D01*
X135703507Y-61850568D01*
X135675157Y-61900827D01*
X135641685Y-61946685D01*
X135611823Y-61979586D01*
X135572137Y-62014784D01*
X135528903Y-62044304D01*
X135482067Y-62068167D01*
X135431573Y-62086393D01*
X135377366Y-62099002D01*
X135319392Y-62106014D01*
X135265248Y-62107572D01*
X135247086Y-62107300D01*
X135230563Y-62106910D01*
X135217262Y-62106449D01*
X135208763Y-62105964D01*
X135207586Y-62105846D01*
X135148696Y-62095877D01*
X135093994Y-62080590D01*
X135043451Y-62059963D01*
X134997036Y-62033975D01*
X134954719Y-62002607D01*
X134916469Y-61965838D01*
X134882255Y-61923646D01*
X134852047Y-61876013D01*
X134843520Y-61860192D01*
X134820822Y-61809853D01*
X134802365Y-61754924D01*
X134788290Y-61696208D01*
X134778737Y-61634504D01*
X134773845Y-61570613D01*
X134773797Y-61535733D01*
X134860453Y-61535733D01*
X134862373Y-61601559D01*
X134868200Y-61662081D01*
X134878032Y-61717597D01*
X134891969Y-61768406D01*
X134910109Y-61814805D01*
X134932553Y-61857092D01*
X134959399Y-61895566D01*
X134990746Y-61930525D01*
X134992216Y-61931973D01*
X135027784Y-61962613D01*
X135066356Y-61987598D01*
X135108387Y-62007145D01*
X135154331Y-62021470D01*
X135197426Y-62029795D01*
X135215818Y-62031639D01*
X135238952Y-62032720D01*
X135264845Y-62033056D01*
X135291511Y-62032665D01*
X135316965Y-62031563D01*
X135339221Y-62029770D01*
X135349768Y-62028437D01*
X135400451Y-62017842D01*
X135446954Y-62001938D01*
X135489332Y-61980683D01*
X135527644Y-61954030D01*
X135561947Y-61921935D01*
X135592297Y-61884354D01*
X135618751Y-61841241D01*
X135636917Y-61803280D01*
X135652871Y-61759378D01*
X135665530Y-61710632D01*
X135674838Y-61658147D01*
X135680735Y-61603028D01*
X135683163Y-61546381D01*
X135682064Y-61489313D01*
X135677379Y-61432928D01*
X135669050Y-61378333D01*
X135661227Y-61342601D01*
X135646139Y-61292060D01*
X135627155Y-61246584D01*
X135603889Y-61205445D01*
X135575955Y-61167915D01*
X135558361Y-61148444D01*
X135524812Y-61117590D01*
X135488696Y-61092156D01*
X135449570Y-61071974D01*
X135406990Y-61056876D01*
X135360511Y-61046695D01*
X135309688Y-61041262D01*
X135271933Y-61040194D01*
X135233818Y-61041095D01*
X135200259Y-61043991D01*
X135169255Y-61049174D01*
X135138808Y-61056937D01*
X135123052Y-61061915D01*
X135078461Y-61080305D01*
X135037354Y-61104390D01*
X135000005Y-61133896D01*
X134966693Y-61168553D01*
X134937691Y-61208089D01*
X134913278Y-61252232D01*
X134901126Y-61280357D01*
X134887170Y-61320469D01*
X134876337Y-61361868D01*
X134868451Y-61405670D01*
X134863332Y-61452992D01*
X134860804Y-61504951D01*
X134860453Y-61535733D01*
X134773797Y-61535733D01*
X134773755Y-61505337D01*
X134775624Y-61471482D01*
X134782915Y-61404874D01*
X134794532Y-61343292D01*
X134810580Y-61286462D01*
X134831166Y-61234111D01*
X134856396Y-61185966D01*
X134886377Y-61141753D01*
X134918674Y-61103863D01*
X134956343Y-61068174D01*
X134996766Y-61037999D01*
X135040561Y-61012999D01*
X135088347Y-60992838D01*
X135140741Y-60977178D01*
X135158480Y-60973085D01*
X135171361Y-60970479D01*
X135183438Y-60968523D01*
X135196028Y-60967125D01*
X135210450Y-60966193D01*
X135228022Y-60965635D01*
X135250063Y-60965359D01*
X135270240Y-60965281D01*
X135298371Y-60965363D01*
G36*
X128587500Y-60981242D02*
G01*
X128631747Y-60981590D01*
X128669894Y-60981960D01*
X128702613Y-60982402D01*
X128730575Y-60982963D01*
X128754454Y-60983692D01*
X128774921Y-60984638D01*
X128792650Y-60985847D01*
X128808311Y-60987370D01*
X128822579Y-60989254D01*
X128836125Y-60991547D01*
X128849622Y-60994297D01*
X128863741Y-60997554D01*
X128879156Y-61001365D01*
X128883760Y-61002529D01*
X128938293Y-61019500D01*
X128988732Y-61041662D01*
X129034892Y-61068874D01*
X129076588Y-61100992D01*
X129113635Y-61137872D01*
X129145849Y-61179372D01*
X129173045Y-61225348D01*
X129174161Y-61227546D01*
X129193828Y-61271129D01*
X129209445Y-61316199D01*
X129221199Y-61363678D01*
X129229281Y-61414488D01*
X129233881Y-61469549D01*
X129235199Y-61524186D01*
X129233495Y-61588217D01*
X129228278Y-61646984D01*
X129219392Y-61701110D01*
X129206679Y-61751214D01*
X129189982Y-61797917D01*
X129169146Y-61841839D01*
X129144647Y-61882652D01*
X129113128Y-61923966D01*
X129076395Y-61961216D01*
X129034832Y-61994157D01*
X128988820Y-62022540D01*
X128938744Y-62046119D01*
X128884985Y-62064646D01*
X128848653Y-62073775D01*
X128830608Y-62077578D01*
X128813842Y-62080816D01*
X128797603Y-62083541D01*
X128781137Y-62085808D01*
X128763691Y-62087667D01*
X128744513Y-62089171D01*
X128722849Y-62090374D01*
X128697946Y-62091328D01*
X128669051Y-62092085D01*
X128635412Y-62092699D01*
X128596275Y-62093221D01*
X128565486Y-62093557D01*
X128391920Y-62095341D01*
X128391920Y-62024094D01*
X128469813Y-62024094D01*
X128609513Y-62022428D01*
X128645221Y-62021970D01*
X128674950Y-62021497D01*
X128699494Y-62020972D01*
X128719649Y-62020355D01*
X128736208Y-62019608D01*
X128749965Y-62018691D01*
X128761717Y-62017567D01*
X128772255Y-62016196D01*
X128782377Y-62014540D01*
X128786466Y-62013793D01*
X128843620Y-62000626D01*
X128895391Y-61983445D01*
X128941954Y-61962102D01*
X128983487Y-61936451D01*
X129020164Y-61906346D01*
X129052163Y-61871641D01*
X129079659Y-61832188D01*
X129102829Y-61787843D01*
X129121849Y-61738459D01*
X129123245Y-61734134D01*
X129130946Y-61708270D01*
X129137013Y-61683666D01*
X129141613Y-61658989D01*
X129144915Y-61632911D01*
X129147086Y-61604099D01*
X129148295Y-61571224D01*
X129148708Y-61532954D01*
X129148709Y-61532346D01*
X129148624Y-61500500D01*
X129148175Y-61474076D01*
X129147229Y-61451727D01*
X129145652Y-61432105D01*
X129143311Y-61413864D01*
X129140073Y-61395655D01*
X129135803Y-61376131D01*
X129131501Y-61358441D01*
X129115550Y-61306894D01*
X129094669Y-61259872D01*
X129068923Y-61217461D01*
X129038375Y-61179745D01*
X129003090Y-61146809D01*
X128963132Y-61118739D01*
X128941336Y-61106512D01*
X128918416Y-61095152D01*
X128896244Y-61085403D01*
X128874073Y-61077138D01*
X128851157Y-61070228D01*
X128826746Y-61064547D01*
X128800093Y-61059967D01*
X128770450Y-61056361D01*
X128737071Y-61053600D01*
X128699206Y-61051559D01*
X128656108Y-61050108D01*
X128607030Y-61049121D01*
X128604433Y-61049082D01*
X128469813Y-61047085D01*
X128469813Y-62024094D01*
X128391920Y-62024094D01*
X128391920Y-60979792D01*
X128587500Y-60981242D01*
G37*
X128587500Y-60981242D02*
X128631747Y-60981590D01*
X128669894Y-60981960D01*
X128702613Y-60982402D01*
X128730575Y-60982963D01*
X128754454Y-60983692D01*
X128774921Y-60984638D01*
X128792650Y-60985847D01*
X128808311Y-60987370D01*
X128822579Y-60989254D01*
X128836125Y-60991547D01*
X128849622Y-60994297D01*
X128863741Y-60997554D01*
X128879156Y-61001365D01*
X128883760Y-61002529D01*
X128938293Y-61019500D01*
X128988732Y-61041662D01*
X129034892Y-61068874D01*
X129076588Y-61100992D01*
X129113635Y-61137872D01*
X129145849Y-61179372D01*
X129173045Y-61225348D01*
X129174161Y-61227546D01*
X129193828Y-61271129D01*
X129209445Y-61316199D01*
X129221199Y-61363678D01*
X129229281Y-61414488D01*
X129233881Y-61469549D01*
X129235199Y-61524186D01*
X129233495Y-61588217D01*
X129228278Y-61646984D01*
X129219392Y-61701110D01*
X129206679Y-61751214D01*
X129189982Y-61797917D01*
X129169146Y-61841839D01*
X129144647Y-61882652D01*
X129113128Y-61923966D01*
X129076395Y-61961216D01*
X129034832Y-61994157D01*
X128988820Y-62022540D01*
X128938744Y-62046119D01*
X128884985Y-62064646D01*
X128848653Y-62073775D01*
X128830608Y-62077578D01*
X128813842Y-62080816D01*
X128797603Y-62083541D01*
X128781137Y-62085808D01*
X128763691Y-62087667D01*
X128744513Y-62089171D01*
X128722849Y-62090374D01*
X128697946Y-62091328D01*
X128669051Y-62092085D01*
X128635412Y-62092699D01*
X128596275Y-62093221D01*
X128565486Y-62093557D01*
X128391920Y-62095341D01*
X128391920Y-62024094D01*
X128469813Y-62024094D01*
X128609513Y-62022428D01*
X128645221Y-62021970D01*
X128674950Y-62021497D01*
X128699494Y-62020972D01*
X128719649Y-62020355D01*
X128736208Y-62019608D01*
X128749965Y-62018691D01*
X128761717Y-62017567D01*
X128772255Y-62016196D01*
X128782377Y-62014540D01*
X128786466Y-62013793D01*
X128843620Y-62000626D01*
X128895391Y-61983445D01*
X128941954Y-61962102D01*
X128983487Y-61936451D01*
X129020164Y-61906346D01*
X129052163Y-61871641D01*
X129079659Y-61832188D01*
X129102829Y-61787843D01*
X129121849Y-61738459D01*
X129123245Y-61734134D01*
X129130946Y-61708270D01*
X129137013Y-61683666D01*
X129141613Y-61658989D01*
X129144915Y-61632911D01*
X129147086Y-61604099D01*
X129148295Y-61571224D01*
X129148708Y-61532954D01*
X129148709Y-61532346D01*
X129148624Y-61500500D01*
X129148175Y-61474076D01*
X129147229Y-61451727D01*
X129145652Y-61432105D01*
X129143311Y-61413864D01*
X129140073Y-61395655D01*
X129135803Y-61376131D01*
X129131501Y-61358441D01*
X129115550Y-61306894D01*
X129094669Y-61259872D01*
X129068923Y-61217461D01*
X129038375Y-61179745D01*
X129003090Y-61146809D01*
X128963132Y-61118739D01*
X128941336Y-61106512D01*
X128918416Y-61095152D01*
X128896244Y-61085403D01*
X128874073Y-61077138D01*
X128851157Y-61070228D01*
X128826746Y-61064547D01*
X128800093Y-61059967D01*
X128770450Y-61056361D01*
X128737071Y-61053600D01*
X128699206Y-61051559D01*
X128656108Y-61050108D01*
X128607030Y-61049121D01*
X128604433Y-61049082D01*
X128469813Y-61047085D01*
X128469813Y-62024094D01*
X128391920Y-62024094D01*
X128391920Y-60979792D01*
X128587500Y-60981242D01*
G36*
X129881206Y-60980331D02*
G01*
X129914637Y-60980413D01*
X129947362Y-60980644D01*
X129978467Y-60981005D01*
X130007039Y-60981481D01*
X130032162Y-60982055D01*
X130052923Y-60982709D01*
X130068406Y-60983427D01*
X130075093Y-60983910D01*
X130125306Y-60990379D01*
X130172034Y-61000171D01*
X130214485Y-61013064D01*
X130251869Y-61028836D01*
X130269323Y-61038267D01*
X130288032Y-61051092D01*
X130307771Y-61067656D01*
X130326931Y-61086353D01*
X130343905Y-61105573D01*
X130357084Y-61123709D01*
X130360409Y-61129333D01*
X130376199Y-61164466D01*
X130387505Y-61203421D01*
X130394269Y-61244891D01*
X130396433Y-61287568D01*
X130393938Y-61330148D01*
X130386726Y-61371323D01*
X130374739Y-61409786D01*
X130373102Y-61413855D01*
X130354100Y-61451182D01*
X130329449Y-61484959D01*
X130299395Y-61514967D01*
X130264184Y-61540993D01*
X130224062Y-61562819D01*
X130186169Y-61577947D01*
X130174604Y-61582389D01*
X130166208Y-61586573D01*
X130162472Y-61589729D01*
X130162425Y-61590215D01*
X130164270Y-61593644D01*
X130169335Y-61602455D01*
X130177365Y-61616217D01*
X130188105Y-61634500D01*
X130201301Y-61656872D01*
X130216696Y-61682902D01*
X130234037Y-61712158D01*
X130253068Y-61744210D01*
X130273535Y-61778626D01*
X130295182Y-61814975D01*
X130310591Y-61840820D01*
X130332883Y-61878230D01*
X130354148Y-61913997D01*
X130374135Y-61947689D01*
X130392589Y-61978877D01*
X130409258Y-62007131D01*
X130423890Y-62032020D01*
X130436230Y-62053115D01*
X130446026Y-62069985D01*
X130453024Y-62082199D01*
X130456973Y-62089329D01*
X130457786Y-62091058D01*
X130454485Y-62092589D01*
X130444904Y-62093701D01*
X130429525Y-62094359D01*
X130412858Y-62094533D01*
X130367930Y-62094533D01*
X130082370Y-61611933D01*
X129943265Y-61611049D01*
X129804160Y-61610164D01*
X129804160Y-62094533D01*
X129726266Y-62094533D01*
X129726266Y-61294715D01*
X129804160Y-61294715D01*
X129804190Y-61334706D01*
X129804279Y-61372710D01*
X129804421Y-61408185D01*
X129804610Y-61440591D01*
X129804843Y-61469384D01*
X129805114Y-61494024D01*
X129805418Y-61513970D01*
X129805750Y-61528679D01*
X129806106Y-61537609D01*
X129806417Y-61540248D01*
X129810459Y-61540979D01*
X129820354Y-61541555D01*
X129835186Y-61541982D01*
X129854036Y-61542264D01*
X129875988Y-61542403D01*
X129900123Y-61542406D01*
X129925524Y-61542274D01*
X129951273Y-61542014D01*
X129976453Y-61541628D01*
X130000146Y-61541121D01*
X130021434Y-61540497D01*
X130039401Y-61539761D01*
X130049729Y-61539165D01*
X130095904Y-61534227D01*
X130136636Y-61525975D01*
X130172502Y-61514191D01*
X130204084Y-61498656D01*
X130231961Y-61479153D01*
X130247959Y-61464654D01*
X130267871Y-61442586D01*
X130283026Y-61420153D01*
X130294743Y-61395103D01*
X130302617Y-61371361D01*
X130305750Y-61359506D01*
X130307923Y-61348299D01*
X130309296Y-61336064D01*
X130310031Y-61321123D01*
X130310291Y-61301799D01*
X130310297Y-61291893D01*
X130310105Y-61269958D01*
X130309500Y-61253103D01*
X130308318Y-61239641D01*
X130306394Y-61227883D01*
X130303563Y-61216140D01*
X130302529Y-61212425D01*
X130290565Y-61178882D01*
X130274904Y-61150075D01*
X130255097Y-61125619D01*
X130230700Y-61105126D01*
X130201264Y-61088209D01*
X130166344Y-61074482D01*
X130132666Y-61065183D01*
X130115345Y-61061544D01*
X130096829Y-61058556D01*
X130076319Y-61056167D01*
X130053017Y-61054327D01*
X130026126Y-61052986D01*
X129994847Y-61052092D01*
X129958383Y-61051594D01*
X129916766Y-61051442D01*
X129804160Y-61051440D01*
X129804160Y-61294715D01*
X129726266Y-61294715D01*
X129726266Y-60980320D01*
X129881206Y-60980331D01*
G37*
X129881206Y-60980331D02*
X129914637Y-60980413D01*
X129947362Y-60980644D01*
X129978467Y-60981005D01*
X130007039Y-60981481D01*
X130032162Y-60982055D01*
X130052923Y-60982709D01*
X130068406Y-60983427D01*
X130075093Y-60983910D01*
X130125306Y-60990379D01*
X130172034Y-61000171D01*
X130214485Y-61013064D01*
X130251869Y-61028836D01*
X130269323Y-61038267D01*
X130288032Y-61051092D01*
X130307771Y-61067656D01*
X130326931Y-61086353D01*
X130343905Y-61105573D01*
X130357084Y-61123709D01*
X130360409Y-61129333D01*
X130376199Y-61164466D01*
X130387505Y-61203421D01*
X130394269Y-61244891D01*
X130396433Y-61287568D01*
X130393938Y-61330148D01*
X130386726Y-61371323D01*
X130374739Y-61409786D01*
X130373102Y-61413855D01*
X130354100Y-61451182D01*
X130329449Y-61484959D01*
X130299395Y-61514967D01*
X130264184Y-61540993D01*
X130224062Y-61562819D01*
X130186169Y-61577947D01*
X130174604Y-61582389D01*
X130166208Y-61586573D01*
X130162472Y-61589729D01*
X130162425Y-61590215D01*
X130164270Y-61593644D01*
X130169335Y-61602455D01*
X130177365Y-61616217D01*
X130188105Y-61634500D01*
X130201301Y-61656872D01*
X130216696Y-61682902D01*
X130234037Y-61712158D01*
X130253068Y-61744210D01*
X130273535Y-61778626D01*
X130295182Y-61814975D01*
X130310591Y-61840820D01*
X130332883Y-61878230D01*
X130354148Y-61913997D01*
X130374135Y-61947689D01*
X130392589Y-61978877D01*
X130409258Y-62007131D01*
X130423890Y-62032020D01*
X130436230Y-62053115D01*
X130446026Y-62069985D01*
X130453024Y-62082199D01*
X130456973Y-62089329D01*
X130457786Y-62091058D01*
X130454485Y-62092589D01*
X130444904Y-62093701D01*
X130429525Y-62094359D01*
X130412858Y-62094533D01*
X130367930Y-62094533D01*
X130082370Y-61611933D01*
X129943265Y-61611049D01*
X129804160Y-61610164D01*
X129804160Y-62094533D01*
X129726266Y-62094533D01*
X129726266Y-61294715D01*
X129804160Y-61294715D01*
X129804190Y-61334706D01*
X129804279Y-61372710D01*
X129804421Y-61408185D01*
X129804610Y-61440591D01*
X129804843Y-61469384D01*
X129805114Y-61494024D01*
X129805418Y-61513970D01*
X129805750Y-61528679D01*
X129806106Y-61537609D01*
X129806417Y-61540248D01*
X129810459Y-61540979D01*
X129820354Y-61541555D01*
X129835186Y-61541982D01*
X129854036Y-61542264D01*
X129875988Y-61542403D01*
X129900123Y-61542406D01*
X129925524Y-61542274D01*
X129951273Y-61542014D01*
X129976453Y-61541628D01*
X130000146Y-61541121D01*
X130021434Y-61540497D01*
X130039401Y-61539761D01*
X130049729Y-61539165D01*
X130095904Y-61534227D01*
X130136636Y-61525975D01*
X130172502Y-61514191D01*
X130204084Y-61498656D01*
X130231961Y-61479153D01*
X130247959Y-61464654D01*
X130267871Y-61442586D01*
X130283026Y-61420153D01*
X130294743Y-61395103D01*
X130302617Y-61371361D01*
X130305750Y-61359506D01*
X130307923Y-61348299D01*
X130309296Y-61336064D01*
X130310031Y-61321123D01*
X130310291Y-61301799D01*
X130310297Y-61291893D01*
X130310105Y-61269958D01*
X130309500Y-61253103D01*
X130308318Y-61239641D01*
X130306394Y-61227883D01*
X130303563Y-61216140D01*
X130302529Y-61212425D01*
X130290565Y-61178882D01*
X130274904Y-61150075D01*
X130255097Y-61125619D01*
X130230700Y-61105126D01*
X130201264Y-61088209D01*
X130166344Y-61074482D01*
X130132666Y-61065183D01*
X130115345Y-61061544D01*
X130096829Y-61058556D01*
X130076319Y-61056167D01*
X130053017Y-61054327D01*
X130026126Y-61052986D01*
X129994847Y-61052092D01*
X129958383Y-61051594D01*
X129916766Y-61051442D01*
X129804160Y-61051440D01*
X129804160Y-61294715D01*
X129726266Y-61294715D01*
X129726266Y-60980320D01*
X129881206Y-60980331D01*
G36*
X131215262Y-60977451D02*
G01*
X131224324Y-60978973D01*
X131227483Y-60981227D01*
X131228876Y-60984789D01*
X131232617Y-60994332D01*
X131238578Y-61009535D01*
X131246633Y-61030073D01*
X131256654Y-61055623D01*
X131268516Y-61085863D01*
X131282091Y-61120470D01*
X131297253Y-61159119D01*
X131313874Y-61201488D01*
X131331828Y-61247253D01*
X131350989Y-61296092D01*
X131371229Y-61347681D01*
X131392421Y-61401697D01*
X131414439Y-61457817D01*
X131437157Y-61515717D01*
X131444535Y-61534523D01*
X131467457Y-61592944D01*
X131489725Y-61649701D01*
X131511212Y-61704468D01*
X131531791Y-61756922D01*
X131551335Y-61806739D01*
X131569716Y-61853594D01*
X131586808Y-61897163D01*
X131602483Y-61937122D01*
X131616614Y-61973147D01*
X131629074Y-62004913D01*
X131639735Y-62032098D01*
X131648472Y-62054376D01*
X131655156Y-62071423D01*
X131659660Y-62082916D01*
X131661858Y-62088529D01*
X131662052Y-62089028D01*
X131662277Y-62091282D01*
X131660256Y-62092827D01*
X131654994Y-62093794D01*
X131645497Y-62094312D01*
X131630771Y-62094511D01*
X131620029Y-62094533D01*
X131575893Y-62094533D01*
X131535495Y-61992086D01*
X131523273Y-61961077D01*
X131509679Y-61926562D01*
X131495499Y-61890538D01*
X131481519Y-61855001D01*
X131468524Y-61821947D01*
X131458195Y-61795652D01*
X131421293Y-61701664D01*
X131194983Y-61702518D01*
X130968674Y-61703373D01*
X130891725Y-61898106D01*
X130814776Y-62092840D01*
X130771345Y-62093790D01*
X130753544Y-62094118D01*
X130741493Y-62094098D01*
X130734172Y-62093603D01*
X130730560Y-62092509D01*
X130729638Y-62090690D01*
X130730121Y-62088710D01*
X130731593Y-62084972D01*
X130735450Y-62075267D01*
X130741563Y-62059916D01*
X130749804Y-62039242D01*
X130760043Y-62013568D01*
X130772153Y-61983214D01*
X130786005Y-61948504D01*
X130801470Y-61909759D01*
X130818419Y-61867303D01*
X130836725Y-61821456D01*
X130856257Y-61772542D01*
X130876889Y-61720882D01*
X130898491Y-61666799D01*
X130914835Y-61625882D01*
X131000490Y-61625882D01*
X131001421Y-61626943D01*
X131003846Y-61627830D01*
X131008271Y-61628560D01*
X131015200Y-61629147D01*
X131025139Y-61629607D01*
X131038593Y-61629956D01*
X131056067Y-61630208D01*
X131078067Y-61630378D01*
X131105097Y-61630484D01*
X131137664Y-61630538D01*
X131176272Y-61630558D01*
X131195685Y-61630560D01*
X131235555Y-61630507D01*
X131271921Y-61630356D01*
X131304341Y-61630111D01*
X131332378Y-61629781D01*
X131355590Y-61629372D01*
X131373537Y-61628892D01*
X131385781Y-61628346D01*
X131391881Y-61627742D01*
X131392506Y-61627465D01*
X131391340Y-61623863D01*
X131387969Y-61614434D01*
X131382582Y-61599688D01*
X131375367Y-61580132D01*
X131366515Y-61556276D01*
X131356214Y-61528630D01*
X131344654Y-61497701D01*
X131332023Y-61463999D01*
X131318512Y-61428033D01*
X131306575Y-61396325D01*
X131292107Y-61357871D01*
X131278095Y-61320515D01*
X131264762Y-61284860D01*
X131252332Y-61251508D01*
X131241027Y-61221060D01*
X131231071Y-61194120D01*
X131222687Y-61171289D01*
X131216098Y-61153168D01*
X131211528Y-61140361D01*
X131209655Y-61134897D01*
X131198666Y-61101514D01*
X131180790Y-61155217D01*
X131176347Y-61167988D01*
X131169685Y-61186335D01*
X131161078Y-61209537D01*
X131150802Y-61236872D01*
X131139129Y-61267617D01*
X131126334Y-61301052D01*
X131112692Y-61336453D01*
X131098476Y-61373101D01*
X131083960Y-61410272D01*
X131082573Y-61413813D01*
X131068661Y-61449316D01*
X131055462Y-61483048D01*
X131043187Y-61514466D01*
X131032047Y-61543026D01*
X131022254Y-61568185D01*
X131014020Y-61589398D01*
X131007557Y-61606121D01*
X131003075Y-61617811D01*
X131000787Y-61623924D01*
X131000547Y-61624633D01*
X131000490Y-61625882D01*
X130914835Y-61625882D01*
X130920934Y-61610614D01*
X130944090Y-61552651D01*
X130953197Y-61529856D01*
X131174066Y-60977032D01*
X131199950Y-60976982D01*
X131215262Y-60977451D01*
G37*
X131215262Y-60977451D02*
X131224324Y-60978973D01*
X131227483Y-60981227D01*
X131228876Y-60984789D01*
X131232617Y-60994332D01*
X131238578Y-61009535D01*
X131246633Y-61030073D01*
X131256654Y-61055623D01*
X131268516Y-61085863D01*
X131282091Y-61120470D01*
X131297253Y-61159119D01*
X131313874Y-61201488D01*
X131331828Y-61247253D01*
X131350989Y-61296092D01*
X131371229Y-61347681D01*
X131392421Y-61401697D01*
X131414439Y-61457817D01*
X131437157Y-61515717D01*
X131444535Y-61534523D01*
X131467457Y-61592944D01*
X131489725Y-61649701D01*
X131511212Y-61704468D01*
X131531791Y-61756922D01*
X131551335Y-61806739D01*
X131569716Y-61853594D01*
X131586808Y-61897163D01*
X131602483Y-61937122D01*
X131616614Y-61973147D01*
X131629074Y-62004913D01*
X131639735Y-62032098D01*
X131648472Y-62054376D01*
X131655156Y-62071423D01*
X131659660Y-62082916D01*
X131661858Y-62088529D01*
X131662052Y-62089028D01*
X131662277Y-62091282D01*
X131660256Y-62092827D01*
X131654994Y-62093794D01*
X131645497Y-62094312D01*
X131630771Y-62094511D01*
X131620029Y-62094533D01*
X131575893Y-62094533D01*
X131535495Y-61992086D01*
X131523273Y-61961077D01*
X131509679Y-61926562D01*
X131495499Y-61890538D01*
X131481519Y-61855001D01*
X131468524Y-61821947D01*
X131458195Y-61795652D01*
X131421293Y-61701664D01*
X131194983Y-61702518D01*
X130968674Y-61703373D01*
X130891725Y-61898106D01*
X130814776Y-62092840D01*
X130771345Y-62093790D01*
X130753544Y-62094118D01*
X130741493Y-62094098D01*
X130734172Y-62093603D01*
X130730560Y-62092509D01*
X130729638Y-62090690D01*
X130730121Y-62088710D01*
X130731593Y-62084972D01*
X130735450Y-62075267D01*
X130741563Y-62059916D01*
X130749804Y-62039242D01*
X130760043Y-62013568D01*
X130772153Y-61983214D01*
X130786005Y-61948504D01*
X130801470Y-61909759D01*
X130818419Y-61867303D01*
X130836725Y-61821456D01*
X130856257Y-61772542D01*
X130876889Y-61720882D01*
X130898491Y-61666799D01*
X130914835Y-61625882D01*
X131000490Y-61625882D01*
X131001421Y-61626943D01*
X131003846Y-61627830D01*
X131008271Y-61628560D01*
X131015200Y-61629147D01*
X131025139Y-61629607D01*
X131038593Y-61629956D01*
X131056067Y-61630208D01*
X131078067Y-61630378D01*
X131105097Y-61630484D01*
X131137664Y-61630538D01*
X131176272Y-61630558D01*
X131195685Y-61630560D01*
X131235555Y-61630507D01*
X131271921Y-61630356D01*
X131304341Y-61630111D01*
X131332378Y-61629781D01*
X131355590Y-61629372D01*
X131373537Y-61628892D01*
X131385781Y-61628346D01*
X131391881Y-61627742D01*
X131392506Y-61627465D01*
X131391340Y-61623863D01*
X131387969Y-61614434D01*
X131382582Y-61599688D01*
X131375367Y-61580132D01*
X131366515Y-61556276D01*
X131356214Y-61528630D01*
X131344654Y-61497701D01*
X131332023Y-61463999D01*
X131318512Y-61428033D01*
X131306575Y-61396325D01*
X131292107Y-61357871D01*
X131278095Y-61320515D01*
X131264762Y-61284860D01*
X131252332Y-61251508D01*
X131241027Y-61221060D01*
X131231071Y-61194120D01*
X131222687Y-61171289D01*
X131216098Y-61153168D01*
X131211528Y-61140361D01*
X131209655Y-61134897D01*
X131198666Y-61101514D01*
X131180790Y-61155217D01*
X131176347Y-61167988D01*
X131169685Y-61186335D01*
X131161078Y-61209537D01*
X131150802Y-61236872D01*
X131139129Y-61267617D01*
X131126334Y-61301052D01*
X131112692Y-61336453D01*
X131098476Y-61373101D01*
X131083960Y-61410272D01*
X131082573Y-61413813D01*
X131068661Y-61449316D01*
X131055462Y-61483048D01*
X131043187Y-61514466D01*
X131032047Y-61543026D01*
X131022254Y-61568185D01*
X131014020Y-61589398D01*
X131007557Y-61606121D01*
X131003075Y-61617811D01*
X131000787Y-61623924D01*
X131000547Y-61624633D01*
X131000490Y-61625882D01*
X130914835Y-61625882D01*
X130920934Y-61610614D01*
X130944090Y-61552651D01*
X130953197Y-61529856D01*
X131174066Y-60977032D01*
X131199950Y-60976982D01*
X131215262Y-60977451D01*
G36*
X132189375Y-61018420D02*
G01*
X132199253Y-61043067D01*
X132210836Y-61071925D01*
X132223957Y-61104581D01*
X132238450Y-61140622D01*
X132254149Y-61179635D01*
X132270886Y-61221207D01*
X132288496Y-61264926D01*
X132306811Y-61310379D01*
X132325665Y-61357154D01*
X132344892Y-61404838D01*
X132364324Y-61453017D01*
X132383795Y-61501280D01*
X132403140Y-61549213D01*
X132422190Y-61596404D01*
X132440779Y-61642441D01*
X132458742Y-61686910D01*
X132475911Y-61729398D01*
X132492119Y-61769494D01*
X132507201Y-61806784D01*
X132520989Y-61840856D01*
X132533317Y-61871297D01*
X132544018Y-61897694D01*
X132552926Y-61919634D01*
X132559875Y-61936706D01*
X132564697Y-61948495D01*
X132567226Y-61954590D01*
X132567565Y-61955355D01*
X132567905Y-61956397D01*
X132568077Y-61957683D01*
X132568198Y-61958937D01*
X132568381Y-61959879D01*
X132568743Y-61960230D01*
X132569399Y-61959713D01*
X132570464Y-61958048D01*
X132572053Y-61954956D01*
X132574283Y-61950159D01*
X132577268Y-61943379D01*
X132581124Y-61934336D01*
X132585965Y-61922752D01*
X132591908Y-61908348D01*
X132599068Y-61890845D01*
X132607559Y-61869966D01*
X132617498Y-61845431D01*
X132629000Y-61816961D01*
X132642180Y-61784278D01*
X132657153Y-61747104D01*
X132674035Y-61705159D01*
X132692941Y-61658164D01*
X132713986Y-61605842D01*
X132737287Y-61547914D01*
X132762957Y-61484100D01*
X132774525Y-61455347D01*
X132965613Y-60980414D01*
X133082453Y-60980320D01*
X133082453Y-62094533D01*
X133004560Y-62094533D01*
X133004560Y-61644895D01*
X133004585Y-61570547D01*
X133004663Y-61502687D01*
X133004799Y-61441027D01*
X133004996Y-61385284D01*
X133005259Y-61335170D01*
X133005592Y-61290400D01*
X133005999Y-61250687D01*
X133006486Y-61215747D01*
X133007054Y-61185293D01*
X133007710Y-61159039D01*
X133008458Y-61136700D01*
X133009300Y-61117989D01*
X133010243Y-61102621D01*
X133011289Y-61090310D01*
X133012444Y-61080770D01*
X133012981Y-61077414D01*
X133013206Y-61070580D01*
X133011060Y-61069028D01*
X133009413Y-61072246D01*
X133005362Y-61081413D01*
X132999044Y-61096199D01*
X132990596Y-61116273D01*
X132980152Y-61141304D01*
X132967849Y-61170963D01*
X132953824Y-61204918D01*
X132938211Y-61242840D01*
X132921149Y-61284398D01*
X132902771Y-61329262D01*
X132883215Y-61377100D01*
X132862616Y-61427584D01*
X132841111Y-61480382D01*
X132818836Y-61535164D01*
X132800009Y-61581534D01*
X132592557Y-62092840D01*
X132543733Y-62094834D01*
X132535927Y-62076904D01*
X132533799Y-62071783D01*
X132529282Y-62060731D01*
X132522519Y-62044099D01*
X132513653Y-62022239D01*
X132502825Y-61995502D01*
X132490177Y-61964241D01*
X132475852Y-61928806D01*
X132459992Y-61889550D01*
X132442738Y-61846824D01*
X132424233Y-61800980D01*
X132404618Y-61752370D01*
X132384037Y-61701344D01*
X132362631Y-61648255D01*
X132340541Y-61593455D01*
X132328881Y-61564520D01*
X132306607Y-61509259D01*
X132285008Y-61455703D01*
X132264221Y-61404189D01*
X132244383Y-61355056D01*
X132225629Y-61308640D01*
X132208096Y-61265279D01*
X132191922Y-61225310D01*
X132177243Y-61189070D01*
X132164195Y-61156898D01*
X132152915Y-61129130D01*
X132143540Y-61106104D01*
X132136207Y-61088157D01*
X132131051Y-61075628D01*
X132128211Y-61068852D01*
X132127680Y-61067694D01*
X132127464Y-61070747D01*
X132127268Y-61080207D01*
X132127093Y-61095710D01*
X132126940Y-61116889D01*
X132126808Y-61143379D01*
X132126699Y-61174815D01*
X132126614Y-61210831D01*
X132126552Y-61251061D01*
X132126516Y-61295139D01*
X132126504Y-61342701D01*
X132126519Y-61393381D01*
X132126560Y-61446813D01*
X132126629Y-61502631D01*
X132126725Y-61560470D01*
X132126763Y-61579928D01*
X132127807Y-62094533D01*
X132052906Y-62094533D01*
X132052906Y-60980320D01*
X132174121Y-60980320D01*
X132189375Y-61018420D01*
G37*
X132189375Y-61018420D02*
X132199253Y-61043067D01*
X132210836Y-61071925D01*
X132223957Y-61104581D01*
X132238450Y-61140622D01*
X132254149Y-61179635D01*
X132270886Y-61221207D01*
X132288496Y-61264926D01*
X132306811Y-61310379D01*
X132325665Y-61357154D01*
X132344892Y-61404838D01*
X132364324Y-61453017D01*
X132383795Y-61501280D01*
X132403140Y-61549213D01*
X132422190Y-61596404D01*
X132440779Y-61642441D01*
X132458742Y-61686910D01*
X132475911Y-61729398D01*
X132492119Y-61769494D01*
X132507201Y-61806784D01*
X132520989Y-61840856D01*
X132533317Y-61871297D01*
X132544018Y-61897694D01*
X132552926Y-61919634D01*
X132559875Y-61936706D01*
X132564697Y-61948495D01*
X132567226Y-61954590D01*
X132567565Y-61955355D01*
X132567905Y-61956397D01*
X132568077Y-61957683D01*
X132568198Y-61958937D01*
X132568381Y-61959879D01*
X132568743Y-61960230D01*
X132569399Y-61959713D01*
X132570464Y-61958048D01*
X132572053Y-61954956D01*
X132574283Y-61950159D01*
X132577268Y-61943379D01*
X132581124Y-61934336D01*
X132585965Y-61922752D01*
X132591908Y-61908348D01*
X132599068Y-61890845D01*
X132607559Y-61869966D01*
X132617498Y-61845431D01*
X132629000Y-61816961D01*
X132642180Y-61784278D01*
X132657153Y-61747104D01*
X132674035Y-61705159D01*
X132692941Y-61658164D01*
X132713986Y-61605842D01*
X132737287Y-61547914D01*
X132762957Y-61484100D01*
X132774525Y-61455347D01*
X132965613Y-60980414D01*
X133082453Y-60980320D01*
X133082453Y-62094533D01*
X133004560Y-62094533D01*
X133004560Y-61644895D01*
X133004585Y-61570547D01*
X133004663Y-61502687D01*
X133004799Y-61441027D01*
X133004996Y-61385284D01*
X133005259Y-61335170D01*
X133005592Y-61290400D01*
X133005999Y-61250687D01*
X133006486Y-61215747D01*
X133007054Y-61185293D01*
X133007710Y-61159039D01*
X133008458Y-61136700D01*
X133009300Y-61117989D01*
X133010243Y-61102621D01*
X133011289Y-61090310D01*
X133012444Y-61080770D01*
X133012981Y-61077414D01*
X133013206Y-61070580D01*
X133011060Y-61069028D01*
X133009413Y-61072246D01*
X133005362Y-61081413D01*
X132999044Y-61096199D01*
X132990596Y-61116273D01*
X132980152Y-61141304D01*
X132967849Y-61170963D01*
X132953824Y-61204918D01*
X132938211Y-61242840D01*
X132921149Y-61284398D01*
X132902771Y-61329262D01*
X132883215Y-61377100D01*
X132862616Y-61427584D01*
X132841111Y-61480382D01*
X132818836Y-61535164D01*
X132800009Y-61581534D01*
X132592557Y-62092840D01*
X132543733Y-62094834D01*
X132535927Y-62076904D01*
X132533799Y-62071783D01*
X132529282Y-62060731D01*
X132522519Y-62044099D01*
X132513653Y-62022239D01*
X132502825Y-61995502D01*
X132490177Y-61964241D01*
X132475852Y-61928806D01*
X132459992Y-61889550D01*
X132442738Y-61846824D01*
X132424233Y-61800980D01*
X132404618Y-61752370D01*
X132384037Y-61701344D01*
X132362631Y-61648255D01*
X132340541Y-61593455D01*
X132328881Y-61564520D01*
X132306607Y-61509259D01*
X132285008Y-61455703D01*
X132264221Y-61404189D01*
X132244383Y-61355056D01*
X132225629Y-61308640D01*
X132208096Y-61265279D01*
X132191922Y-61225310D01*
X132177243Y-61189070D01*
X132164195Y-61156898D01*
X132152915Y-61129130D01*
X132143540Y-61106104D01*
X132136207Y-61088157D01*
X132131051Y-61075628D01*
X132128211Y-61068852D01*
X132127680Y-61067694D01*
X132127464Y-61070747D01*
X132127268Y-61080207D01*
X132127093Y-61095710D01*
X132126940Y-61116889D01*
X132126808Y-61143379D01*
X132126699Y-61174815D01*
X132126614Y-61210831D01*
X132126552Y-61251061D01*
X132126516Y-61295139D01*
X132126504Y-61342701D01*
X132126519Y-61393381D01*
X132126560Y-61446813D01*
X132126629Y-61502631D01*
X132126725Y-61560470D01*
X132126763Y-61579928D01*
X132127807Y-62094533D01*
X132052906Y-62094533D01*
X132052906Y-60980320D01*
X132174121Y-60980320D01*
X132189375Y-61018420D01*
G36*
X133577837Y-54881500D02*
G01*
X133578667Y-54883406D01*
X133579851Y-54886960D01*
X133581465Y-54892468D01*
X133583583Y-54900239D01*
X133586281Y-54910580D01*
X133589635Y-54923799D01*
X133593719Y-54940204D01*
X133598608Y-54960102D01*
X133604379Y-54983800D01*
X133611105Y-55011608D01*
X133618863Y-55043832D01*
X133627727Y-55080780D01*
X133637772Y-55122759D01*
X133649075Y-55170079D01*
X133661710Y-55223045D01*
X133675752Y-55281966D01*
X133691276Y-55347150D01*
X133692355Y-55351680D01*
X133704301Y-55401777D01*
X133716545Y-55452976D01*
X133728900Y-55504503D01*
X133741178Y-55555584D01*
X133753193Y-55605446D01*
X133764757Y-55653314D01*
X133775684Y-55698414D01*
X133785787Y-55739973D01*
X133794878Y-55777217D01*
X133802772Y-55809372D01*
X133808936Y-55834280D01*
X133835809Y-55940680D01*
X133861857Y-56040531D01*
X133887141Y-56133997D01*
X133911720Y-56221243D01*
X133935654Y-56302436D01*
X133959003Y-56377739D01*
X133981826Y-56447319D01*
X134004184Y-56511340D01*
X134026137Y-56569968D01*
X134047744Y-56623368D01*
X134069065Y-56671706D01*
X134090160Y-56715147D01*
X134111089Y-56753855D01*
X134131912Y-56787997D01*
X134152688Y-56817738D01*
X134173478Y-56843242D01*
X134175027Y-56844975D01*
X134193860Y-56863406D01*
X134216319Y-56881460D01*
X134240146Y-56897508D01*
X134263083Y-56909925D01*
X134268413Y-56912271D01*
X134300690Y-56923622D01*
X134335167Y-56931502D01*
X134373141Y-56936131D01*
X134415912Y-56937731D01*
X134418493Y-56937735D01*
X134461222Y-56936331D01*
X134499003Y-56931972D01*
X134533084Y-56924443D01*
X134564713Y-56913525D01*
X134569670Y-56911432D01*
X134591088Y-56901258D01*
X134609660Y-56890163D01*
X134627314Y-56876774D01*
X134645979Y-56859721D01*
X134654822Y-56850895D01*
X134679136Y-56823304D01*
X134703196Y-56790219D01*
X134727138Y-56751402D01*
X134751092Y-56706615D01*
X134775194Y-56655620D01*
X134799576Y-56598179D01*
X134807266Y-56578889D01*
X134823438Y-56536633D01*
X134839731Y-56491789D01*
X134856223Y-56444075D01*
X134872993Y-56393208D01*
X134890121Y-56338907D01*
X134907684Y-56280890D01*
X134925763Y-56218874D01*
X134944435Y-56152578D01*
X134963780Y-56081719D01*
X134983876Y-56006016D01*
X135004803Y-55925187D01*
X135026639Y-55838949D01*
X135049463Y-55747021D01*
X135073355Y-55649121D01*
X135098392Y-55544966D01*
X135109337Y-55499000D01*
X135127822Y-55421189D01*
X135144812Y-55349739D01*
X135160363Y-55284415D01*
X135174532Y-55224984D01*
X135187375Y-55171213D01*
X135198950Y-55122868D01*
X135209313Y-55079717D01*
X135218521Y-55041526D01*
X135226631Y-55008061D01*
X135233699Y-54979090D01*
X135239782Y-54954378D01*
X135244937Y-54933694D01*
X135249220Y-54916802D01*
X135252689Y-54903471D01*
X135255400Y-54893466D01*
X135257409Y-54886555D01*
X135258774Y-54882504D01*
X135259551Y-54881080D01*
X135259595Y-54881073D01*
X135261539Y-54884041D01*
X135266062Y-54892405D01*
X135272808Y-54905459D01*
X135281418Y-54922494D01*
X135291533Y-54942805D01*
X135302796Y-54965685D01*
X135311497Y-54983520D01*
X135361221Y-55085826D01*
X135364868Y-55119693D01*
X135376205Y-55255517D01*
X135381227Y-55393129D01*
X135379990Y-55532017D01*
X135372549Y-55671669D01*
X135358960Y-55811572D01*
X135339279Y-55951215D01*
X135313562Y-56090085D01*
X135281864Y-56227671D01*
X135244241Y-56363459D01*
X135221626Y-56435413D01*
X135172411Y-56574827D01*
X135117091Y-56711408D01*
X135055796Y-56844980D01*
X134988652Y-56975365D01*
X134915786Y-57102386D01*
X134837326Y-57225868D01*
X134753399Y-57345632D01*
X134664132Y-57461504D01*
X134569653Y-57573305D01*
X134470088Y-57680860D01*
X134365566Y-57783991D01*
X134256213Y-57882521D01*
X134142156Y-57976275D01*
X134074746Y-58027764D01*
X133954502Y-58112954D01*
X133830767Y-58192396D01*
X133703767Y-58266005D01*
X133573725Y-58333695D01*
X133440868Y-58395382D01*
X133305418Y-58450981D01*
X133167602Y-58500408D01*
X133027643Y-58543576D01*
X132885767Y-58580402D01*
X132742197Y-58610800D01*
X132597159Y-58634686D01*
X132450877Y-58651975D01*
X132413586Y-58655302D01*
X132348271Y-58659980D01*
X132279961Y-58663449D01*
X132210707Y-58665658D01*
X132142562Y-58666554D01*
X132077576Y-58666084D01*
X132035973Y-58664949D01*
X131887047Y-58656143D01*
X131739335Y-58640725D01*
X131593008Y-58618747D01*
X131448236Y-58590259D01*
X131305193Y-58555311D01*
X131164048Y-58513954D01*
X131024974Y-58466240D01*
X130888142Y-58412218D01*
X130753722Y-58351939D01*
X130621887Y-58285455D01*
X130492807Y-58212815D01*
X130478106Y-58204044D01*
X130360231Y-58129909D01*
X130247008Y-58051701D01*
X130137744Y-57968876D01*
X130031744Y-57880892D01*
X129928315Y-57787204D01*
X129856543Y-57717408D01*
X129795968Y-57655529D01*
X129739883Y-57595430D01*
X129686906Y-57535516D01*
X129635657Y-57474189D01*
X129584754Y-57409851D01*
X129543711Y-57355621D01*
X129460071Y-57237564D01*
X129382015Y-57115983D01*
X129309618Y-56991147D01*
X129242955Y-56863326D01*
X129182101Y-56732790D01*
X129127131Y-56599806D01*
X129078120Y-56464644D01*
X129035143Y-56327575D01*
X128998275Y-56188865D01*
X128967591Y-56048786D01*
X128943166Y-55907606D01*
X128925075Y-55765594D01*
X128913394Y-55623019D01*
X128908196Y-55480151D01*
X128909558Y-55337259D01*
X128917554Y-55194612D01*
X128923409Y-55129853D01*
X128929583Y-55068893D01*
X128976043Y-54974066D01*
X128989330Y-54947077D01*
X129000018Y-54925702D01*
X129008396Y-54909425D01*
X129014753Y-54897734D01*
X129019379Y-54890114D01*
X129022562Y-54886052D01*
X129024591Y-54885033D01*
X129025555Y-54886013D01*
X129026498Y-54888627D01*
X129027947Y-54893498D01*
X129029975Y-54900932D01*
X129032658Y-54911236D01*
X129036070Y-54924719D01*
X129040286Y-54941686D01*
X129045380Y-54962446D01*
X129051428Y-54987304D01*
X129058504Y-55016569D01*
X129066683Y-55050548D01*
X129076040Y-55089548D01*
X129086648Y-55133875D01*
X129098583Y-55183837D01*
X129111920Y-55239742D01*
X129126733Y-55301896D01*
X129128508Y-55309346D01*
X129151090Y-55403992D01*
X129172256Y-55492374D01*
X129192096Y-55574830D01*
X129210696Y-55651699D01*
X129228148Y-55723323D01*
X129244538Y-55790038D01*
X129259955Y-55852186D01*
X129274490Y-55910105D01*
X129288229Y-55964135D01*
X129301262Y-56014615D01*
X129313677Y-56061884D01*
X129325563Y-56106282D01*
X129337009Y-56148148D01*
X129348104Y-56187821D01*
X129358935Y-56225642D01*
X129369593Y-56261948D01*
X129380164Y-56297081D01*
X129390739Y-56331378D01*
X129401406Y-56365179D01*
X129412253Y-56398824D01*
X129417019Y-56413400D01*
X129441323Y-56485199D01*
X129465015Y-56550527D01*
X129488246Y-56609640D01*
X129511163Y-56662799D01*
X129533917Y-56710260D01*
X129556655Y-56752282D01*
X129579526Y-56789124D01*
X129602681Y-56821044D01*
X129626267Y-56848300D01*
X129650433Y-56871152D01*
X129675328Y-56889856D01*
X129699820Y-56904034D01*
X129738864Y-56920124D01*
X129781793Y-56931460D01*
X129827495Y-56937864D01*
X129874859Y-56939153D01*
X129905007Y-56937264D01*
X129940512Y-56932738D01*
X129971379Y-56926342D01*
X129999611Y-56917547D01*
X130027208Y-56905823D01*
X130031066Y-56903952D01*
X130045810Y-56896331D01*
X130057916Y-56888958D01*
X130069184Y-56880486D01*
X130081416Y-56869566D01*
X130095609Y-56855658D01*
X130118347Y-56831090D01*
X130139333Y-56804512D01*
X130159366Y-56774742D01*
X130179248Y-56740599D01*
X130197924Y-56704653D01*
X130218722Y-56660835D01*
X130239531Y-56613050D01*
X130260453Y-56560994D01*
X130281592Y-56504361D01*
X130303051Y-56442849D01*
X130324933Y-56376150D01*
X130347340Y-56303962D01*
X130370375Y-56225979D01*
X130394143Y-56141896D01*
X130418674Y-56051676D01*
X130424812Y-56028382D01*
X130432372Y-55999160D01*
X130441193Y-55964663D01*
X130451110Y-55925548D01*
X130461963Y-55882472D01*
X130473589Y-55836088D01*
X130485825Y-55787054D01*
X130498508Y-55736025D01*
X130511477Y-55683657D01*
X130524568Y-55630605D01*
X130537619Y-55577525D01*
X130550469Y-55525074D01*
X130562953Y-55473906D01*
X130574910Y-55424678D01*
X130586178Y-55378045D01*
X130596594Y-55334663D01*
X130603438Y-55305960D01*
X130616699Y-55250243D01*
X130629378Y-55197126D01*
X130641394Y-55146946D01*
X130652664Y-55100045D01*
X130663105Y-55056761D01*
X130672634Y-55017434D01*
X130681169Y-54982405D01*
X130688626Y-54952012D01*
X130694924Y-54926595D01*
X130699979Y-54906495D01*
X130703709Y-54892051D01*
X130706031Y-54883602D01*
X130706803Y-54881401D01*
X130708705Y-54883928D01*
X130713344Y-54892264D01*
X130720565Y-54906092D01*
X130730213Y-54925095D01*
X130742134Y-54948958D01*
X130756173Y-54977363D01*
X130772176Y-55009994D01*
X130789989Y-55046534D01*
X130809456Y-55086667D01*
X130830424Y-55130076D01*
X130852738Y-55176444D01*
X130876243Y-55225454D01*
X130900785Y-55276791D01*
X130926210Y-55330137D01*
X130943697Y-55366920D01*
X130985512Y-55454751D01*
X131024766Y-55536752D01*
X131061641Y-55613284D01*
X131096317Y-55684710D01*
X131128977Y-55751392D01*
X131159802Y-55813693D01*
X131188972Y-55871976D01*
X131216669Y-55926602D01*
X131243075Y-55977934D01*
X131268371Y-56026335D01*
X131292737Y-56072167D01*
X131316356Y-56115792D01*
X131337201Y-56153606D01*
X131390591Y-56247254D01*
X131442922Y-56334252D01*
X131494222Y-56414635D01*
X131544517Y-56488438D01*
X131593837Y-56555696D01*
X131642208Y-56616444D01*
X131689658Y-56670718D01*
X131736215Y-56718552D01*
X131781907Y-56759982D01*
X131826761Y-56795044D01*
X131859215Y-56816776D01*
X131875411Y-56827728D01*
X131892708Y-56840844D01*
X131908073Y-56853787D01*
X131912079Y-56857504D01*
X131937883Y-56879986D01*
X131963479Y-56897365D01*
X131990892Y-56910931D01*
X132003481Y-56915820D01*
X132048185Y-56928715D01*
X132095894Y-56936447D01*
X132145160Y-56938953D01*
X132194534Y-56936175D01*
X132242568Y-56928053D01*
X132250714Y-56926081D01*
X132288822Y-56913493D01*
X132324234Y-56895996D01*
X132355729Y-56874275D01*
X132376333Y-56855325D01*
X132384804Y-56847610D01*
X132397235Y-56837751D01*
X132411806Y-56827137D01*
X132423746Y-56819061D01*
X132468802Y-56787273D01*
X132513804Y-56750545D01*
X132558899Y-56708695D01*
X132604236Y-56661543D01*
X132649964Y-56608905D01*
X132696230Y-56550600D01*
X132743183Y-56486446D01*
X132790973Y-56416262D01*
X132839746Y-56339865D01*
X132889651Y-56257074D01*
X132907670Y-56226107D01*
X132934226Y-56179321D01*
X132962497Y-56128059D01*
X132992566Y-56072154D01*
X133024517Y-56011441D01*
X133058434Y-55945755D01*
X133094401Y-55874928D01*
X133132501Y-55798796D01*
X133172818Y-55717193D01*
X133215436Y-55629953D01*
X133260439Y-55536910D01*
X133307911Y-55437899D01*
X133342523Y-55365226D01*
X133373436Y-55300218D01*
X133402504Y-55239216D01*
X133429643Y-55182392D01*
X133454771Y-55129915D01*
X133477805Y-55081958D01*
X133498661Y-55038691D01*
X133517258Y-55000285D01*
X133533511Y-54966911D01*
X133547339Y-54938741D01*
X133558658Y-54915944D01*
X133567386Y-54898693D01*
X133573439Y-54887157D01*
X133576735Y-54881509D01*
X133577287Y-54880933D01*
X133577837Y-54881500D01*
G37*
X133577837Y-54881500D02*
X133578667Y-54883406D01*
X133579851Y-54886960D01*
X133581465Y-54892468D01*
X133583583Y-54900239D01*
X133586281Y-54910580D01*
X133589635Y-54923799D01*
X133593719Y-54940204D01*
X133598608Y-54960102D01*
X133604379Y-54983800D01*
X133611105Y-55011608D01*
X133618863Y-55043832D01*
X133627727Y-55080780D01*
X133637772Y-55122759D01*
X133649075Y-55170079D01*
X133661710Y-55223045D01*
X133675752Y-55281966D01*
X133691276Y-55347150D01*
X133692355Y-55351680D01*
X133704301Y-55401777D01*
X133716545Y-55452976D01*
X133728900Y-55504503D01*
X133741178Y-55555584D01*
X133753193Y-55605446D01*
X133764757Y-55653314D01*
X133775684Y-55698414D01*
X133785787Y-55739973D01*
X133794878Y-55777217D01*
X133802772Y-55809372D01*
X133808936Y-55834280D01*
X133835809Y-55940680D01*
X133861857Y-56040531D01*
X133887141Y-56133997D01*
X133911720Y-56221243D01*
X133935654Y-56302436D01*
X133959003Y-56377739D01*
X133981826Y-56447319D01*
X134004184Y-56511340D01*
X134026137Y-56569968D01*
X134047744Y-56623368D01*
X134069065Y-56671706D01*
X134090160Y-56715147D01*
X134111089Y-56753855D01*
X134131912Y-56787997D01*
X134152688Y-56817738D01*
X134173478Y-56843242D01*
X134175027Y-56844975D01*
X134193860Y-56863406D01*
X134216319Y-56881460D01*
X134240146Y-56897508D01*
X134263083Y-56909925D01*
X134268413Y-56912271D01*
X134300690Y-56923622D01*
X134335167Y-56931502D01*
X134373141Y-56936131D01*
X134415912Y-56937731D01*
X134418493Y-56937735D01*
X134461222Y-56936331D01*
X134499003Y-56931972D01*
X134533084Y-56924443D01*
X134564713Y-56913525D01*
X134569670Y-56911432D01*
X134591088Y-56901258D01*
X134609660Y-56890163D01*
X134627314Y-56876774D01*
X134645979Y-56859721D01*
X134654822Y-56850895D01*
X134679136Y-56823304D01*
X134703196Y-56790219D01*
X134727138Y-56751402D01*
X134751092Y-56706615D01*
X134775194Y-56655620D01*
X134799576Y-56598179D01*
X134807266Y-56578889D01*
X134823438Y-56536633D01*
X134839731Y-56491789D01*
X134856223Y-56444075D01*
X134872993Y-56393208D01*
X134890121Y-56338907D01*
X134907684Y-56280890D01*
X134925763Y-56218874D01*
X134944435Y-56152578D01*
X134963780Y-56081719D01*
X134983876Y-56006016D01*
X135004803Y-55925187D01*
X135026639Y-55838949D01*
X135049463Y-55747021D01*
X135073355Y-55649121D01*
X135098392Y-55544966D01*
X135109337Y-55499000D01*
X135127822Y-55421189D01*
X135144812Y-55349739D01*
X135160363Y-55284415D01*
X135174532Y-55224984D01*
X135187375Y-55171213D01*
X135198950Y-55122868D01*
X135209313Y-55079717D01*
X135218521Y-55041526D01*
X135226631Y-55008061D01*
X135233699Y-54979090D01*
X135239782Y-54954378D01*
X135244937Y-54933694D01*
X135249220Y-54916802D01*
X135252689Y-54903471D01*
X135255400Y-54893466D01*
X135257409Y-54886555D01*
X135258774Y-54882504D01*
X135259551Y-54881080D01*
X135259595Y-54881073D01*
X135261539Y-54884041D01*
X135266062Y-54892405D01*
X135272808Y-54905459D01*
X135281418Y-54922494D01*
X135291533Y-54942805D01*
X135302796Y-54965685D01*
X135311497Y-54983520D01*
X135361221Y-55085826D01*
X135364868Y-55119693D01*
X135376205Y-55255517D01*
X135381227Y-55393129D01*
X135379990Y-55532017D01*
X135372549Y-55671669D01*
X135358960Y-55811572D01*
X135339279Y-55951215D01*
X135313562Y-56090085D01*
X135281864Y-56227671D01*
X135244241Y-56363459D01*
X135221626Y-56435413D01*
X135172411Y-56574827D01*
X135117091Y-56711408D01*
X135055796Y-56844980D01*
X134988652Y-56975365D01*
X134915786Y-57102386D01*
X134837326Y-57225868D01*
X134753399Y-57345632D01*
X134664132Y-57461504D01*
X134569653Y-57573305D01*
X134470088Y-57680860D01*
X134365566Y-57783991D01*
X134256213Y-57882521D01*
X134142156Y-57976275D01*
X134074746Y-58027764D01*
X133954502Y-58112954D01*
X133830767Y-58192396D01*
X133703767Y-58266005D01*
X133573725Y-58333695D01*
X133440868Y-58395382D01*
X133305418Y-58450981D01*
X133167602Y-58500408D01*
X133027643Y-58543576D01*
X132885767Y-58580402D01*
X132742197Y-58610800D01*
X132597159Y-58634686D01*
X132450877Y-58651975D01*
X132413586Y-58655302D01*
X132348271Y-58659980D01*
X132279961Y-58663449D01*
X132210707Y-58665658D01*
X132142562Y-58666554D01*
X132077576Y-58666084D01*
X132035973Y-58664949D01*
X131887047Y-58656143D01*
X131739335Y-58640725D01*
X131593008Y-58618747D01*
X131448236Y-58590259D01*
X131305193Y-58555311D01*
X131164048Y-58513954D01*
X131024974Y-58466240D01*
X130888142Y-58412218D01*
X130753722Y-58351939D01*
X130621887Y-58285455D01*
X130492807Y-58212815D01*
X130478106Y-58204044D01*
X130360231Y-58129909D01*
X130247008Y-58051701D01*
X130137744Y-57968876D01*
X130031744Y-57880892D01*
X129928315Y-57787204D01*
X129856543Y-57717408D01*
X129795968Y-57655529D01*
X129739883Y-57595430D01*
X129686906Y-57535516D01*
X129635657Y-57474189D01*
X129584754Y-57409851D01*
X129543711Y-57355621D01*
X129460071Y-57237564D01*
X129382015Y-57115983D01*
X129309618Y-56991147D01*
X129242955Y-56863326D01*
X129182101Y-56732790D01*
X129127131Y-56599806D01*
X129078120Y-56464644D01*
X129035143Y-56327575D01*
X128998275Y-56188865D01*
X128967591Y-56048786D01*
X128943166Y-55907606D01*
X128925075Y-55765594D01*
X128913394Y-55623019D01*
X128908196Y-55480151D01*
X128909558Y-55337259D01*
X128917554Y-55194612D01*
X128923409Y-55129853D01*
X128929583Y-55068893D01*
X128976043Y-54974066D01*
X128989330Y-54947077D01*
X129000018Y-54925702D01*
X129008396Y-54909425D01*
X129014753Y-54897734D01*
X129019379Y-54890114D01*
X129022562Y-54886052D01*
X129024591Y-54885033D01*
X129025555Y-54886013D01*
X129026498Y-54888627D01*
X129027947Y-54893498D01*
X129029975Y-54900932D01*
X129032658Y-54911236D01*
X129036070Y-54924719D01*
X129040286Y-54941686D01*
X129045380Y-54962446D01*
X129051428Y-54987304D01*
X129058504Y-55016569D01*
X129066683Y-55050548D01*
X129076040Y-55089548D01*
X129086648Y-55133875D01*
X129098583Y-55183837D01*
X129111920Y-55239742D01*
X129126733Y-55301896D01*
X129128508Y-55309346D01*
X129151090Y-55403992D01*
X129172256Y-55492374D01*
X129192096Y-55574830D01*
X129210696Y-55651699D01*
X129228148Y-55723323D01*
X129244538Y-55790038D01*
X129259955Y-55852186D01*
X129274490Y-55910105D01*
X129288229Y-55964135D01*
X129301262Y-56014615D01*
X129313677Y-56061884D01*
X129325563Y-56106282D01*
X129337009Y-56148148D01*
X129348104Y-56187821D01*
X129358935Y-56225642D01*
X129369593Y-56261948D01*
X129380164Y-56297081D01*
X129390739Y-56331378D01*
X129401406Y-56365179D01*
X129412253Y-56398824D01*
X129417019Y-56413400D01*
X129441323Y-56485199D01*
X129465015Y-56550527D01*
X129488246Y-56609640D01*
X129511163Y-56662799D01*
X129533917Y-56710260D01*
X129556655Y-56752282D01*
X129579526Y-56789124D01*
X129602681Y-56821044D01*
X129626267Y-56848300D01*
X129650433Y-56871152D01*
X129675328Y-56889856D01*
X129699820Y-56904034D01*
X129738864Y-56920124D01*
X129781793Y-56931460D01*
X129827495Y-56937864D01*
X129874859Y-56939153D01*
X129905007Y-56937264D01*
X129940512Y-56932738D01*
X129971379Y-56926342D01*
X129999611Y-56917547D01*
X130027208Y-56905823D01*
X130031066Y-56903952D01*
X130045810Y-56896331D01*
X130057916Y-56888958D01*
X130069184Y-56880486D01*
X130081416Y-56869566D01*
X130095609Y-56855658D01*
X130118347Y-56831090D01*
X130139333Y-56804512D01*
X130159366Y-56774742D01*
X130179248Y-56740599D01*
X130197924Y-56704653D01*
X130218722Y-56660835D01*
X130239531Y-56613050D01*
X130260453Y-56560994D01*
X130281592Y-56504361D01*
X130303051Y-56442849D01*
X130324933Y-56376150D01*
X130347340Y-56303962D01*
X130370375Y-56225979D01*
X130394143Y-56141896D01*
X130418674Y-56051676D01*
X130424812Y-56028382D01*
X130432372Y-55999160D01*
X130441193Y-55964663D01*
X130451110Y-55925548D01*
X130461963Y-55882472D01*
X130473589Y-55836088D01*
X130485825Y-55787054D01*
X130498508Y-55736025D01*
X130511477Y-55683657D01*
X130524568Y-55630605D01*
X130537619Y-55577525D01*
X130550469Y-55525074D01*
X130562953Y-55473906D01*
X130574910Y-55424678D01*
X130586178Y-55378045D01*
X130596594Y-55334663D01*
X130603438Y-55305960D01*
X130616699Y-55250243D01*
X130629378Y-55197126D01*
X130641394Y-55146946D01*
X130652664Y-55100045D01*
X130663105Y-55056761D01*
X130672634Y-55017434D01*
X130681169Y-54982405D01*
X130688626Y-54952012D01*
X130694924Y-54926595D01*
X130699979Y-54906495D01*
X130703709Y-54892051D01*
X130706031Y-54883602D01*
X130706803Y-54881401D01*
X130708705Y-54883928D01*
X130713344Y-54892264D01*
X130720565Y-54906092D01*
X130730213Y-54925095D01*
X130742134Y-54948958D01*
X130756173Y-54977363D01*
X130772176Y-55009994D01*
X130789989Y-55046534D01*
X130809456Y-55086667D01*
X130830424Y-55130076D01*
X130852738Y-55176444D01*
X130876243Y-55225454D01*
X130900785Y-55276791D01*
X130926210Y-55330137D01*
X130943697Y-55366920D01*
X130985512Y-55454751D01*
X131024766Y-55536752D01*
X131061641Y-55613284D01*
X131096317Y-55684710D01*
X131128977Y-55751392D01*
X131159802Y-55813693D01*
X131188972Y-55871976D01*
X131216669Y-55926602D01*
X131243075Y-55977934D01*
X131268371Y-56026335D01*
X131292737Y-56072167D01*
X131316356Y-56115792D01*
X131337201Y-56153606D01*
X131390591Y-56247254D01*
X131442922Y-56334252D01*
X131494222Y-56414635D01*
X131544517Y-56488438D01*
X131593837Y-56555696D01*
X131642208Y-56616444D01*
X131689658Y-56670718D01*
X131736215Y-56718552D01*
X131781907Y-56759982D01*
X131826761Y-56795044D01*
X131859215Y-56816776D01*
X131875411Y-56827728D01*
X131892708Y-56840844D01*
X131908073Y-56853787D01*
X131912079Y-56857504D01*
X131937883Y-56879986D01*
X131963479Y-56897365D01*
X131990892Y-56910931D01*
X132003481Y-56915820D01*
X132048185Y-56928715D01*
X132095894Y-56936447D01*
X132145160Y-56938953D01*
X132194534Y-56936175D01*
X132242568Y-56928053D01*
X132250714Y-56926081D01*
X132288822Y-56913493D01*
X132324234Y-56895996D01*
X132355729Y-56874275D01*
X132376333Y-56855325D01*
X132384804Y-56847610D01*
X132397235Y-56837751D01*
X132411806Y-56827137D01*
X132423746Y-56819061D01*
X132468802Y-56787273D01*
X132513804Y-56750545D01*
X132558899Y-56708695D01*
X132604236Y-56661543D01*
X132649964Y-56608905D01*
X132696230Y-56550600D01*
X132743183Y-56486446D01*
X132790973Y-56416262D01*
X132839746Y-56339865D01*
X132889651Y-56257074D01*
X132907670Y-56226107D01*
X132934226Y-56179321D01*
X132962497Y-56128059D01*
X132992566Y-56072154D01*
X133024517Y-56011441D01*
X133058434Y-55945755D01*
X133094401Y-55874928D01*
X133132501Y-55798796D01*
X133172818Y-55717193D01*
X133215436Y-55629953D01*
X133260439Y-55536910D01*
X133307911Y-55437899D01*
X133342523Y-55365226D01*
X133373436Y-55300218D01*
X133402504Y-55239216D01*
X133429643Y-55182392D01*
X133454771Y-55129915D01*
X133477805Y-55081958D01*
X133498661Y-55038691D01*
X133517258Y-55000285D01*
X133533511Y-54966911D01*
X133547339Y-54938741D01*
X133558658Y-54915944D01*
X133567386Y-54898693D01*
X133573439Y-54887157D01*
X133576735Y-54881509D01*
X133577287Y-54880933D01*
X133577837Y-54881500D01*
G36*
X132291897Y-52195327D02*
G01*
X132438621Y-52205371D01*
X132584316Y-52222022D01*
X132728782Y-52245213D01*
X132871816Y-52274874D01*
X133013217Y-52310936D01*
X133152784Y-52353332D01*
X133290315Y-52401993D01*
X133425609Y-52456851D01*
X133558465Y-52517836D01*
X133688681Y-52584881D01*
X133816055Y-52657917D01*
X133940386Y-52736875D01*
X134061473Y-52821687D01*
X134115386Y-52862156D01*
X134211365Y-52939049D01*
X134306416Y-53021675D01*
X134399468Y-53108994D01*
X134489454Y-53199965D01*
X134575302Y-53293549D01*
X134652134Y-53384026D01*
X134724218Y-53476060D01*
X134794722Y-53573393D01*
X134862663Y-53674578D01*
X134927062Y-53778168D01*
X134972388Y-53856466D01*
X134987266Y-53883710D01*
X135004114Y-53915754D01*
X135022230Y-53951177D01*
X135040912Y-53988555D01*
X135059458Y-54026465D01*
X135077165Y-54063485D01*
X135093331Y-54098193D01*
X135107254Y-54129164D01*
X135109193Y-54133601D01*
X135138413Y-54200763D01*
X135116872Y-54265247D01*
X135095331Y-54329732D01*
X135059506Y-54275979D01*
X135014961Y-54211123D01*
X134971633Y-54152136D01*
X134928985Y-54098345D01*
X134886482Y-54049078D01*
X134843588Y-54003662D01*
X134838563Y-53998614D01*
X134792923Y-53955498D01*
X134748245Y-53918457D01*
X134703849Y-53886994D01*
X134659054Y-53860614D01*
X134628466Y-53845530D01*
X134590612Y-53829563D01*
X134555004Y-53817565D01*
X134519099Y-53808857D01*
X134480352Y-53802759D01*
X134460440Y-53800601D01*
X134404111Y-53798579D01*
X134348171Y-53803317D01*
X134292633Y-53814810D01*
X134237514Y-53833055D01*
X134182828Y-53858048D01*
X134140786Y-53882036D01*
X134114710Y-53898917D01*
X134090472Y-53916222D01*
X134066786Y-53935006D01*
X134042364Y-53956324D01*
X134015919Y-53981232D01*
X133996670Y-54000212D01*
X133960649Y-54037555D01*
X133925811Y-54076475D01*
X133891420Y-54117896D01*
X133856735Y-54162744D01*
X133821018Y-54211944D01*
X133783531Y-54266420D01*
X133780696Y-54270642D01*
X133741331Y-54329356D01*
X133720480Y-54267325D01*
X133701272Y-54211462D01*
X133683041Y-54161201D01*
X133665374Y-54115516D01*
X133647856Y-54073378D01*
X133630075Y-54033760D01*
X133611617Y-53995637D01*
X133608894Y-53990240D01*
X133585212Y-53946145D01*
X133561892Y-53908244D01*
X133538479Y-53876003D01*
X133514517Y-53848893D01*
X133489550Y-53826382D01*
X133463124Y-53807938D01*
X133443133Y-53796976D01*
X133406813Y-53782277D01*
X133366925Y-53771835D01*
X133324642Y-53765608D01*
X133281136Y-53763553D01*
X133237579Y-53765629D01*
X133195142Y-53771794D01*
X133154998Y-53782005D01*
X133118318Y-53796221D01*
X133093785Y-53809487D01*
X133067712Y-53828500D01*
X133042123Y-53852810D01*
X133016906Y-53882606D01*
X132991947Y-53918073D01*
X132967131Y-53959400D01*
X132942345Y-54006772D01*
X132917476Y-54060378D01*
X132892409Y-54120404D01*
X132871529Y-54174813D01*
X132857499Y-54213421D01*
X132843488Y-54253538D01*
X132829410Y-54295476D01*
X132815180Y-54339546D01*
X132800714Y-54386062D01*
X132785926Y-54435335D01*
X132770731Y-54487679D01*
X132755044Y-54543405D01*
X132738780Y-54602827D01*
X132721855Y-54666255D01*
X132704182Y-54734004D01*
X132685677Y-54806385D01*
X132666255Y-54883710D01*
X132645830Y-54966293D01*
X132624319Y-55054445D01*
X132601635Y-55148479D01*
X132577693Y-55248707D01*
X132567718Y-55290720D01*
X132546715Y-55379189D01*
X132527121Y-55461446D01*
X132508835Y-55537882D01*
X132491760Y-55608889D01*
X132475797Y-55674858D01*
X132460846Y-55736180D01*
X132446808Y-55793248D01*
X132433585Y-55846452D01*
X132421078Y-55896183D01*
X132409188Y-55942833D01*
X132397815Y-55986794D01*
X132386861Y-56028457D01*
X132376228Y-56068214D01*
X132365815Y-56106455D01*
X132355524Y-56143572D01*
X132345257Y-56179956D01*
X132334913Y-56216000D01*
X132326748Y-56244066D01*
X132307516Y-56308112D01*
X132287904Y-56370186D01*
X132268124Y-56429723D01*
X132248384Y-56486158D01*
X132228895Y-56538927D01*
X132209867Y-56587463D01*
X132191511Y-56631202D01*
X132174037Y-56669578D01*
X132157655Y-56702026D01*
X132153696Y-56709251D01*
X132141673Y-56730782D01*
X132132948Y-56715895D01*
X132119543Y-56691207D01*
X132104758Y-56660697D01*
X132088887Y-56625106D01*
X132072223Y-56585174D01*
X132055060Y-56541642D01*
X132037691Y-56495250D01*
X132020410Y-56446741D01*
X132003510Y-56396855D01*
X131990265Y-56355826D01*
X131978486Y-56318081D01*
X131966810Y-56279794D01*
X131955139Y-56240591D01*
X131943377Y-56200094D01*
X131931425Y-56157927D01*
X131919185Y-56113715D01*
X131906559Y-56067080D01*
X131893451Y-56017647D01*
X131879761Y-55965040D01*
X131865392Y-55908882D01*
X131850247Y-55848797D01*
X131834228Y-55784409D01*
X131817236Y-55715342D01*
X131799175Y-55641219D01*
X131779946Y-55561665D01*
X131759451Y-55476302D01*
X131737593Y-55384756D01*
X131734542Y-55371944D01*
X131711498Y-55275349D01*
X131689842Y-55185025D01*
X131669485Y-55100631D01*
X131650338Y-55021827D01*
X131632311Y-54948275D01*
X131615315Y-54879634D01*
X131599261Y-54815564D01*
X131584058Y-54755725D01*
X131569619Y-54699778D01*
X131555854Y-54647383D01*
X131542673Y-54598200D01*
X131529987Y-54551889D01*
X131517706Y-54508110D01*
X131505742Y-54466524D01*
X131494006Y-54426790D01*
X131482407Y-54388570D01*
X131470856Y-54351522D01*
X131459265Y-54315308D01*
X131447544Y-54279586D01*
X131447052Y-54278106D01*
X131422602Y-54206774D01*
X131398769Y-54141915D01*
X131375393Y-54083273D01*
X131352314Y-54030595D01*
X131329373Y-53983623D01*
X131306411Y-53942103D01*
X131283268Y-53905779D01*
X131259785Y-53874396D01*
X131235801Y-53847699D01*
X131211158Y-53825432D01*
X131185697Y-53807339D01*
X131159256Y-53793166D01*
X131139208Y-53785134D01*
X131097675Y-53773632D01*
X131052952Y-53766534D01*
X131006693Y-53763855D01*
X130960550Y-53765612D01*
X130916178Y-53771822D01*
X130875259Y-53782491D01*
X130855821Y-53789356D01*
X130840401Y-53795942D01*
X130826432Y-53803570D01*
X130811350Y-53813560D01*
X130802346Y-53820033D01*
X130777748Y-53840563D01*
X130753562Y-53865991D01*
X130729675Y-53896527D01*
X130705973Y-53932381D01*
X130682342Y-53973764D01*
X130658670Y-54020884D01*
X130634842Y-54073952D01*
X130610745Y-54133177D01*
X130586266Y-54198770D01*
X130565994Y-54256965D01*
X130541615Y-54328957D01*
X130498797Y-54265432D01*
X130461624Y-54211475D01*
X130426352Y-54162846D01*
X130392243Y-54118633D01*
X130358561Y-54077925D01*
X130324568Y-54039811D01*
X130289529Y-54003379D01*
X130276161Y-53990154D01*
X130234198Y-53951106D01*
X130193788Y-53917639D01*
X130153943Y-53889056D01*
X130113673Y-53864661D01*
X130071989Y-53843755D01*
X130062048Y-53839346D01*
X130008034Y-53819558D01*
X129952680Y-53806270D01*
X129896497Y-53799466D01*
X129839997Y-53799130D01*
X129783691Y-53805248D01*
X129728090Y-53817803D01*
X129673706Y-53836779D01*
X129639906Y-53852221D01*
X129592261Y-53878932D01*
X129544702Y-53911306D01*
X129497092Y-53949484D01*
X129449295Y-53993602D01*
X129401175Y-54043800D01*
X129352595Y-54100217D01*
X129303419Y-54162989D01*
X129253511Y-54232257D01*
X129226428Y-54272081D01*
X129214855Y-54289360D01*
X129204666Y-54304450D01*
X129196413Y-54316542D01*
X129190648Y-54324830D01*
X129187923Y-54328507D01*
X129187781Y-54328601D01*
X129186747Y-54325105D01*
X129183877Y-54316228D01*
X129179511Y-54303001D01*
X129173989Y-54286455D01*
X129167827Y-54268140D01*
X129147879Y-54209068D01*
X129173259Y-54149607D01*
X129232484Y-54019402D01*
X129297930Y-53891549D01*
X129369357Y-53766368D01*
X129446526Y-53644175D01*
X129529197Y-53525291D01*
X129617131Y-53410032D01*
X129710087Y-53298719D01*
X129807827Y-53191669D01*
X129910110Y-53089200D01*
X130016696Y-52991632D01*
X130093720Y-52926436D01*
X130210208Y-52835348D01*
X130330221Y-52749957D01*
X130453554Y-52670339D01*
X130579998Y-52596567D01*
X130709349Y-52528715D01*
X130841399Y-52466858D01*
X130975942Y-52411068D01*
X131112772Y-52361421D01*
X131251683Y-52317989D01*
X131392468Y-52280847D01*
X131534920Y-52250068D01*
X131678833Y-52225728D01*
X131824002Y-52207899D01*
X131970218Y-52196655D01*
X132117277Y-52192071D01*
X132144346Y-52191959D01*
X132291897Y-52195327D01*
G37*
X132291897Y-52195327D02*
X132438621Y-52205371D01*
X132584316Y-52222022D01*
X132728782Y-52245213D01*
X132871816Y-52274874D01*
X133013217Y-52310936D01*
X133152784Y-52353332D01*
X133290315Y-52401993D01*
X133425609Y-52456851D01*
X133558465Y-52517836D01*
X133688681Y-52584881D01*
X133816055Y-52657917D01*
X133940386Y-52736875D01*
X134061473Y-52821687D01*
X134115386Y-52862156D01*
X134211365Y-52939049D01*
X134306416Y-53021675D01*
X134399468Y-53108994D01*
X134489454Y-53199965D01*
X134575302Y-53293549D01*
X134652134Y-53384026D01*
X134724218Y-53476060D01*
X134794722Y-53573393D01*
X134862663Y-53674578D01*
X134927062Y-53778168D01*
X134972388Y-53856466D01*
X134987266Y-53883710D01*
X135004114Y-53915754D01*
X135022230Y-53951177D01*
X135040912Y-53988555D01*
X135059458Y-54026465D01*
X135077165Y-54063485D01*
X135093331Y-54098193D01*
X135107254Y-54129164D01*
X135109193Y-54133601D01*
X135138413Y-54200763D01*
X135116872Y-54265247D01*
X135095331Y-54329732D01*
X135059506Y-54275979D01*
X135014961Y-54211123D01*
X134971633Y-54152136D01*
X134928985Y-54098345D01*
X134886482Y-54049078D01*
X134843588Y-54003662D01*
X134838563Y-53998614D01*
X134792923Y-53955498D01*
X134748245Y-53918457D01*
X134703849Y-53886994D01*
X134659054Y-53860614D01*
X134628466Y-53845530D01*
X134590612Y-53829563D01*
X134555004Y-53817565D01*
X134519099Y-53808857D01*
X134480352Y-53802759D01*
X134460440Y-53800601D01*
X134404111Y-53798579D01*
X134348171Y-53803317D01*
X134292633Y-53814810D01*
X134237514Y-53833055D01*
X134182828Y-53858048D01*
X134140786Y-53882036D01*
X134114710Y-53898917D01*
X134090472Y-53916222D01*
X134066786Y-53935006D01*
X134042364Y-53956324D01*
X134015919Y-53981232D01*
X133996670Y-54000212D01*
X133960649Y-54037555D01*
X133925811Y-54076475D01*
X133891420Y-54117896D01*
X133856735Y-54162744D01*
X133821018Y-54211944D01*
X133783531Y-54266420D01*
X133780696Y-54270642D01*
X133741331Y-54329356D01*
X133720480Y-54267325D01*
X133701272Y-54211462D01*
X133683041Y-54161201D01*
X133665374Y-54115516D01*
X133647856Y-54073378D01*
X133630075Y-54033760D01*
X133611617Y-53995637D01*
X133608894Y-53990240D01*
X133585212Y-53946145D01*
X133561892Y-53908244D01*
X133538479Y-53876003D01*
X133514517Y-53848893D01*
X133489550Y-53826382D01*
X133463124Y-53807938D01*
X133443133Y-53796976D01*
X133406813Y-53782277D01*
X133366925Y-53771835D01*
X133324642Y-53765608D01*
X133281136Y-53763553D01*
X133237579Y-53765629D01*
X133195142Y-53771794D01*
X133154998Y-53782005D01*
X133118318Y-53796221D01*
X133093785Y-53809487D01*
X133067712Y-53828500D01*
X133042123Y-53852810D01*
X133016906Y-53882606D01*
X132991947Y-53918073D01*
X132967131Y-53959400D01*
X132942345Y-54006772D01*
X132917476Y-54060378D01*
X132892409Y-54120404D01*
X132871529Y-54174813D01*
X132857499Y-54213421D01*
X132843488Y-54253538D01*
X132829410Y-54295476D01*
X132815180Y-54339546D01*
X132800714Y-54386062D01*
X132785926Y-54435335D01*
X132770731Y-54487679D01*
X132755044Y-54543405D01*
X132738780Y-54602827D01*
X132721855Y-54666255D01*
X132704182Y-54734004D01*
X132685677Y-54806385D01*
X132666255Y-54883710D01*
X132645830Y-54966293D01*
X132624319Y-55054445D01*
X132601635Y-55148479D01*
X132577693Y-55248707D01*
X132567718Y-55290720D01*
X132546715Y-55379189D01*
X132527121Y-55461446D01*
X132508835Y-55537882D01*
X132491760Y-55608889D01*
X132475797Y-55674858D01*
X132460846Y-55736180D01*
X132446808Y-55793248D01*
X132433585Y-55846452D01*
X132421078Y-55896183D01*
X132409188Y-55942833D01*
X132397815Y-55986794D01*
X132386861Y-56028457D01*
X132376228Y-56068214D01*
X132365815Y-56106455D01*
X132355524Y-56143572D01*
X132345257Y-56179956D01*
X132334913Y-56216000D01*
X132326748Y-56244066D01*
X132307516Y-56308112D01*
X132287904Y-56370186D01*
X132268124Y-56429723D01*
X132248384Y-56486158D01*
X132228895Y-56538927D01*
X132209867Y-56587463D01*
X132191511Y-56631202D01*
X132174037Y-56669578D01*
X132157655Y-56702026D01*
X132153696Y-56709251D01*
X132141673Y-56730782D01*
X132132948Y-56715895D01*
X132119543Y-56691207D01*
X132104758Y-56660697D01*
X132088887Y-56625106D01*
X132072223Y-56585174D01*
X132055060Y-56541642D01*
X132037691Y-56495250D01*
X132020410Y-56446741D01*
X132003510Y-56396855D01*
X131990265Y-56355826D01*
X131978486Y-56318081D01*
X131966810Y-56279794D01*
X131955139Y-56240591D01*
X131943377Y-56200094D01*
X131931425Y-56157927D01*
X131919185Y-56113715D01*
X131906559Y-56067080D01*
X131893451Y-56017647D01*
X131879761Y-55965040D01*
X131865392Y-55908882D01*
X131850247Y-55848797D01*
X131834228Y-55784409D01*
X131817236Y-55715342D01*
X131799175Y-55641219D01*
X131779946Y-55561665D01*
X131759451Y-55476302D01*
X131737593Y-55384756D01*
X131734542Y-55371944D01*
X131711498Y-55275349D01*
X131689842Y-55185025D01*
X131669485Y-55100631D01*
X131650338Y-55021827D01*
X131632311Y-54948275D01*
X131615315Y-54879634D01*
X131599261Y-54815564D01*
X131584058Y-54755725D01*
X131569619Y-54699778D01*
X131555854Y-54647383D01*
X131542673Y-54598200D01*
X131529987Y-54551889D01*
X131517706Y-54508110D01*
X131505742Y-54466524D01*
X131494006Y-54426790D01*
X131482407Y-54388570D01*
X131470856Y-54351522D01*
X131459265Y-54315308D01*
X131447544Y-54279586D01*
X131447052Y-54278106D01*
X131422602Y-54206774D01*
X131398769Y-54141915D01*
X131375393Y-54083273D01*
X131352314Y-54030595D01*
X131329373Y-53983623D01*
X131306411Y-53942103D01*
X131283268Y-53905779D01*
X131259785Y-53874396D01*
X131235801Y-53847699D01*
X131211158Y-53825432D01*
X131185697Y-53807339D01*
X131159256Y-53793166D01*
X131139208Y-53785134D01*
X131097675Y-53773632D01*
X131052952Y-53766534D01*
X131006693Y-53763855D01*
X130960550Y-53765612D01*
X130916178Y-53771822D01*
X130875259Y-53782491D01*
X130855821Y-53789356D01*
X130840401Y-53795942D01*
X130826432Y-53803570D01*
X130811350Y-53813560D01*
X130802346Y-53820033D01*
X130777748Y-53840563D01*
X130753562Y-53865991D01*
X130729675Y-53896527D01*
X130705973Y-53932381D01*
X130682342Y-53973764D01*
X130658670Y-54020884D01*
X130634842Y-54073952D01*
X130610745Y-54133177D01*
X130586266Y-54198770D01*
X130565994Y-54256965D01*
X130541615Y-54328957D01*
X130498797Y-54265432D01*
X130461624Y-54211475D01*
X130426352Y-54162846D01*
X130392243Y-54118633D01*
X130358561Y-54077925D01*
X130324568Y-54039811D01*
X130289529Y-54003379D01*
X130276161Y-53990154D01*
X130234198Y-53951106D01*
X130193788Y-53917639D01*
X130153943Y-53889056D01*
X130113673Y-53864661D01*
X130071989Y-53843755D01*
X130062048Y-53839346D01*
X130008034Y-53819558D01*
X129952680Y-53806270D01*
X129896497Y-53799466D01*
X129839997Y-53799130D01*
X129783691Y-53805248D01*
X129728090Y-53817803D01*
X129673706Y-53836779D01*
X129639906Y-53852221D01*
X129592261Y-53878932D01*
X129544702Y-53911306D01*
X129497092Y-53949484D01*
X129449295Y-53993602D01*
X129401175Y-54043800D01*
X129352595Y-54100217D01*
X129303419Y-54162989D01*
X129253511Y-54232257D01*
X129226428Y-54272081D01*
X129214855Y-54289360D01*
X129204666Y-54304450D01*
X129196413Y-54316542D01*
X129190648Y-54324830D01*
X129187923Y-54328507D01*
X129187781Y-54328601D01*
X129186747Y-54325105D01*
X129183877Y-54316228D01*
X129179511Y-54303001D01*
X129173989Y-54286455D01*
X129167827Y-54268140D01*
X129147879Y-54209068D01*
X129173259Y-54149607D01*
X129232484Y-54019402D01*
X129297930Y-53891549D01*
X129369357Y-53766368D01*
X129446526Y-53644175D01*
X129529197Y-53525291D01*
X129617131Y-53410032D01*
X129710087Y-53298719D01*
X129807827Y-53191669D01*
X129910110Y-53089200D01*
X130016696Y-52991632D01*
X130093720Y-52926436D01*
X130210208Y-52835348D01*
X130330221Y-52749957D01*
X130453554Y-52670339D01*
X130579998Y-52596567D01*
X130709349Y-52528715D01*
X130841399Y-52466858D01*
X130975942Y-52411068D01*
X131112772Y-52361421D01*
X131251683Y-52317989D01*
X131392468Y-52280847D01*
X131534920Y-52250068D01*
X131678833Y-52225728D01*
X131824002Y-52207899D01*
X131970218Y-52196655D01*
X132117277Y-52192071D01*
X132144346Y-52191959D01*
X132291897Y-52195327D01*
G36*
X134463648Y-53857100D02*
G01*
X134497289Y-53867191D01*
X134530253Y-53881354D01*
X134568168Y-53901512D01*
X134604719Y-53924751D01*
X134640884Y-53951816D01*
X134677644Y-53983451D01*
X134715979Y-54020400D01*
X134723379Y-54027936D01*
X134761367Y-54068515D01*
X134798847Y-54111842D01*
X134836233Y-54158480D01*
X134873937Y-54208992D01*
X134912372Y-54263942D01*
X134951952Y-54323892D01*
X134993089Y-54389406D01*
X135014731Y-54425024D01*
X135049119Y-54482195D01*
X135042646Y-54502917D01*
X135034956Y-54528496D01*
X135025838Y-54560559D01*
X135015325Y-54598977D01*
X135003449Y-54643621D01*
X134990243Y-54694360D01*
X134975739Y-54751065D01*
X134959969Y-54813607D01*
X134942968Y-54881856D01*
X134924766Y-54955682D01*
X134905397Y-55034956D01*
X134884894Y-55119549D01*
X134863288Y-55209330D01*
X134840613Y-55304171D01*
X134833331Y-55334746D01*
X134810543Y-55430314D01*
X134789140Y-55519619D01*
X134769031Y-55603007D01*
X134750125Y-55680827D01*
X134732330Y-55753424D01*
X134715557Y-55821148D01*
X134699715Y-55884344D01*
X134684711Y-55943360D01*
X134670456Y-55998544D01*
X134656859Y-56050242D01*
X134643828Y-56098802D01*
X134631273Y-56144570D01*
X134619103Y-56187895D01*
X134607227Y-56229124D01*
X134595554Y-56268603D01*
X134583994Y-56306680D01*
X134572454Y-56343702D01*
X134560845Y-56380017D01*
X134554939Y-56398160D01*
X134538983Y-56445555D01*
X134522437Y-56492205D01*
X134505637Y-56537272D01*
X134488921Y-56579915D01*
X134472624Y-56619297D01*
X134457085Y-56654577D01*
X134442640Y-56684916D01*
X134430680Y-56707612D01*
X134417600Y-56730892D01*
X134405536Y-56709306D01*
X134389488Y-56678536D01*
X134372288Y-56641723D01*
X134354156Y-56599456D01*
X134335314Y-56552325D01*
X134315982Y-56500919D01*
X134296380Y-56445828D01*
X134276731Y-56387641D01*
X134257254Y-56326947D01*
X134238171Y-56264336D01*
X134235681Y-56255920D01*
X134218285Y-56195694D01*
X134199734Y-56129155D01*
X134180118Y-56056645D01*
X134159530Y-55978510D01*
X134138063Y-55895092D01*
X134122272Y-55832586D01*
X134115512Y-55805598D01*
X134109105Y-55779941D01*
X134102926Y-55755093D01*
X134096849Y-55730532D01*
X134090747Y-55705735D01*
X134084494Y-55680181D01*
X134077964Y-55653347D01*
X134071032Y-55624711D01*
X134063570Y-55593751D01*
X134055454Y-55559944D01*
X134046556Y-55522768D01*
X134036751Y-55481702D01*
X134025913Y-55436222D01*
X134013916Y-55385807D01*
X134000633Y-55329935D01*
X133985939Y-55268083D01*
X133983272Y-55256853D01*
X133960865Y-55162848D01*
X133939792Y-55075147D01*
X133919970Y-54993427D01*
X133901319Y-54917367D01*
X133883758Y-54846646D01*
X133867207Y-54780942D01*
X133851584Y-54719934D01*
X133836809Y-54663302D01*
X133822802Y-54610722D01*
X133809481Y-54561874D01*
X133800714Y-54530413D01*
X133787378Y-54483000D01*
X133797886Y-54464373D01*
X133808442Y-54446165D01*
X133821963Y-54423622D01*
X133837643Y-54398035D01*
X133854675Y-54370693D01*
X133872255Y-54342889D01*
X133889576Y-54315913D01*
X133905832Y-54291057D01*
X133909932Y-54284880D01*
X133959041Y-54213812D01*
X134007550Y-54148936D01*
X134055387Y-54090329D01*
X134102480Y-54038069D01*
X134148755Y-53992236D01*
X134194142Y-53952908D01*
X134238569Y-53920164D01*
X134254240Y-53910048D01*
X134293773Y-53887324D01*
X134330459Y-53870263D01*
X134365043Y-53858788D01*
X134398271Y-53852820D01*
X134430891Y-53852284D01*
X134463648Y-53857100D01*
G37*
X134463648Y-53857100D02*
X134497289Y-53867191D01*
X134530253Y-53881354D01*
X134568168Y-53901512D01*
X134604719Y-53924751D01*
X134640884Y-53951816D01*
X134677644Y-53983451D01*
X134715979Y-54020400D01*
X134723379Y-54027936D01*
X134761367Y-54068515D01*
X134798847Y-54111842D01*
X134836233Y-54158480D01*
X134873937Y-54208992D01*
X134912372Y-54263942D01*
X134951952Y-54323892D01*
X134993089Y-54389406D01*
X135014731Y-54425024D01*
X135049119Y-54482195D01*
X135042646Y-54502917D01*
X135034956Y-54528496D01*
X135025838Y-54560559D01*
X135015325Y-54598977D01*
X135003449Y-54643621D01*
X134990243Y-54694360D01*
X134975739Y-54751065D01*
X134959969Y-54813607D01*
X134942968Y-54881856D01*
X134924766Y-54955682D01*
X134905397Y-55034956D01*
X134884894Y-55119549D01*
X134863288Y-55209330D01*
X134840613Y-55304171D01*
X134833331Y-55334746D01*
X134810543Y-55430314D01*
X134789140Y-55519619D01*
X134769031Y-55603007D01*
X134750125Y-55680827D01*
X134732330Y-55753424D01*
X134715557Y-55821148D01*
X134699715Y-55884344D01*
X134684711Y-55943360D01*
X134670456Y-55998544D01*
X134656859Y-56050242D01*
X134643828Y-56098802D01*
X134631273Y-56144570D01*
X134619103Y-56187895D01*
X134607227Y-56229124D01*
X134595554Y-56268603D01*
X134583994Y-56306680D01*
X134572454Y-56343702D01*
X134560845Y-56380017D01*
X134554939Y-56398160D01*
X134538983Y-56445555D01*
X134522437Y-56492205D01*
X134505637Y-56537272D01*
X134488921Y-56579915D01*
X134472624Y-56619297D01*
X134457085Y-56654577D01*
X134442640Y-56684916D01*
X134430680Y-56707612D01*
X134417600Y-56730892D01*
X134405536Y-56709306D01*
X134389488Y-56678536D01*
X134372288Y-56641723D01*
X134354156Y-56599456D01*
X134335314Y-56552325D01*
X134315982Y-56500919D01*
X134296380Y-56445828D01*
X134276731Y-56387641D01*
X134257254Y-56326947D01*
X134238171Y-56264336D01*
X134235681Y-56255920D01*
X134218285Y-56195694D01*
X134199734Y-56129155D01*
X134180118Y-56056645D01*
X134159530Y-55978510D01*
X134138063Y-55895092D01*
X134122272Y-55832586D01*
X134115512Y-55805598D01*
X134109105Y-55779941D01*
X134102926Y-55755093D01*
X134096849Y-55730532D01*
X134090747Y-55705735D01*
X134084494Y-55680181D01*
X134077964Y-55653347D01*
X134071032Y-55624711D01*
X134063570Y-55593751D01*
X134055454Y-55559944D01*
X134046556Y-55522768D01*
X134036751Y-55481702D01*
X134025913Y-55436222D01*
X134013916Y-55385807D01*
X134000633Y-55329935D01*
X133985939Y-55268083D01*
X133983272Y-55256853D01*
X133960865Y-55162848D01*
X133939792Y-55075147D01*
X133919970Y-54993427D01*
X133901319Y-54917367D01*
X133883758Y-54846646D01*
X133867207Y-54780942D01*
X133851584Y-54719934D01*
X133836809Y-54663302D01*
X133822802Y-54610722D01*
X133809481Y-54561874D01*
X133800714Y-54530413D01*
X133787378Y-54483000D01*
X133797886Y-54464373D01*
X133808442Y-54446165D01*
X133821963Y-54423622D01*
X133837643Y-54398035D01*
X133854675Y-54370693D01*
X133872255Y-54342889D01*
X133889576Y-54315913D01*
X133905832Y-54291057D01*
X133909932Y-54284880D01*
X133959041Y-54213812D01*
X134007550Y-54148936D01*
X134055387Y-54090329D01*
X134102480Y-54038069D01*
X134148755Y-53992236D01*
X134194142Y-53952908D01*
X134238569Y-53920164D01*
X134254240Y-53910048D01*
X134293773Y-53887324D01*
X134330459Y-53870263D01*
X134365043Y-53858788D01*
X134398271Y-53852820D01*
X134430891Y-53852284D01*
X134463648Y-53857100D01*
G36*
X129903610Y-53855656D02*
G01*
X129939167Y-53865092D01*
X129976183Y-53880317D01*
X130015327Y-53901307D01*
X130029373Y-53909835D01*
X130072757Y-53939863D01*
X130117223Y-53976500D01*
X130162713Y-54019675D01*
X130209167Y-54069321D01*
X130256529Y-54125368D01*
X130304741Y-54187747D01*
X130353744Y-54256389D01*
X130403480Y-54331226D01*
X130453891Y-54412188D01*
X130458076Y-54419135D01*
X130496003Y-54482248D01*
X130486728Y-54514797D01*
X130476114Y-54552547D01*
X130464929Y-54593322D01*
X130453100Y-54637414D01*
X130440554Y-54685114D01*
X130427218Y-54736714D01*
X130413019Y-54792507D01*
X130397884Y-54852784D01*
X130381739Y-54917837D01*
X130364511Y-54987957D01*
X130346128Y-55063437D01*
X130326516Y-55144568D01*
X130305602Y-55231643D01*
X130283312Y-55324952D01*
X130276544Y-55353373D01*
X130253710Y-55449085D01*
X130232247Y-55538536D01*
X130212063Y-55622074D01*
X130193065Y-55700052D01*
X130175162Y-55772820D01*
X130158261Y-55840729D01*
X130142270Y-55904131D01*
X130127095Y-55963375D01*
X130112645Y-56018812D01*
X130098828Y-56070794D01*
X130085550Y-56119672D01*
X130072720Y-56165796D01*
X130060245Y-56209517D01*
X130048033Y-56251186D01*
X130035992Y-56291153D01*
X130024028Y-56329771D01*
X130012050Y-56367389D01*
X129999966Y-56404359D01*
X129999215Y-56406626D01*
X129989738Y-56434758D01*
X129979485Y-56464406D01*
X129969044Y-56493923D01*
X129959003Y-56521660D01*
X129949952Y-56545968D01*
X129943591Y-56562413D01*
X129934646Y-56584358D01*
X129924870Y-56607309D01*
X129914664Y-56630423D01*
X129904429Y-56652862D01*
X129894565Y-56673784D01*
X129885474Y-56692348D01*
X129877556Y-56707714D01*
X129871212Y-56719041D01*
X129866842Y-56725488D01*
X129865295Y-56726666D01*
X129862607Y-56723797D01*
X129857600Y-56715907D01*
X129850901Y-56704078D01*
X129843138Y-56689386D01*
X129839906Y-56683012D01*
X129825830Y-56654111D01*
X129811880Y-56623776D01*
X129797987Y-56591759D01*
X129784077Y-56557811D01*
X129770079Y-56521685D01*
X129755920Y-56483132D01*
X129741529Y-56441905D01*
X129726834Y-56397755D01*
X129711763Y-56350434D01*
X129696243Y-56299694D01*
X129680203Y-56245287D01*
X129663571Y-56186966D01*
X129646275Y-56124480D01*
X129628243Y-56057584D01*
X129609403Y-55986028D01*
X129589683Y-55909564D01*
X129569011Y-55827945D01*
X129547315Y-55740922D01*
X129524523Y-55648247D01*
X129500563Y-55549672D01*
X129475363Y-55444949D01*
X129450277Y-55339826D01*
X129425745Y-55237021D01*
X129402363Y-55139777D01*
X129380162Y-55048217D01*
X129359171Y-54962462D01*
X129339420Y-54882635D01*
X129320940Y-54808855D01*
X129303762Y-54741245D01*
X129287914Y-54679926D01*
X129273428Y-54625021D01*
X129263622Y-54588666D01*
X129234261Y-54480972D01*
X129272517Y-54417639D01*
X129322267Y-54337518D01*
X129370807Y-54263914D01*
X129418241Y-54196699D01*
X129464675Y-54135746D01*
X129510214Y-54080926D01*
X129554966Y-54032113D01*
X129599035Y-53989180D01*
X129642526Y-53951998D01*
X129683373Y-53921908D01*
X129724251Y-53896121D01*
X129762567Y-53876264D01*
X129798990Y-53862312D01*
X129834192Y-53854243D01*
X129868842Y-53852032D01*
X129903610Y-53855656D01*
G37*
X129903610Y-53855656D02*
X129939167Y-53865092D01*
X129976183Y-53880317D01*
X130015327Y-53901307D01*
X130029373Y-53909835D01*
X130072757Y-53939863D01*
X130117223Y-53976500D01*
X130162713Y-54019675D01*
X130209167Y-54069321D01*
X130256529Y-54125368D01*
X130304741Y-54187747D01*
X130353744Y-54256389D01*
X130403480Y-54331226D01*
X130453891Y-54412188D01*
X130458076Y-54419135D01*
X130496003Y-54482248D01*
X130486728Y-54514797D01*
X130476114Y-54552547D01*
X130464929Y-54593322D01*
X130453100Y-54637414D01*
X130440554Y-54685114D01*
X130427218Y-54736714D01*
X130413019Y-54792507D01*
X130397884Y-54852784D01*
X130381739Y-54917837D01*
X130364511Y-54987957D01*
X130346128Y-55063437D01*
X130326516Y-55144568D01*
X130305602Y-55231643D01*
X130283312Y-55324952D01*
X130276544Y-55353373D01*
X130253710Y-55449085D01*
X130232247Y-55538536D01*
X130212063Y-55622074D01*
X130193065Y-55700052D01*
X130175162Y-55772820D01*
X130158261Y-55840729D01*
X130142270Y-55904131D01*
X130127095Y-55963375D01*
X130112645Y-56018812D01*
X130098828Y-56070794D01*
X130085550Y-56119672D01*
X130072720Y-56165796D01*
X130060245Y-56209517D01*
X130048033Y-56251186D01*
X130035992Y-56291153D01*
X130024028Y-56329771D01*
X130012050Y-56367389D01*
X129999966Y-56404359D01*
X129999215Y-56406626D01*
X129989738Y-56434758D01*
X129979485Y-56464406D01*
X129969044Y-56493923D01*
X129959003Y-56521660D01*
X129949952Y-56545968D01*
X129943591Y-56562413D01*
X129934646Y-56584358D01*
X129924870Y-56607309D01*
X129914664Y-56630423D01*
X129904429Y-56652862D01*
X129894565Y-56673784D01*
X129885474Y-56692348D01*
X129877556Y-56707714D01*
X129871212Y-56719041D01*
X129866842Y-56725488D01*
X129865295Y-56726666D01*
X129862607Y-56723797D01*
X129857600Y-56715907D01*
X129850901Y-56704078D01*
X129843138Y-56689386D01*
X129839906Y-56683012D01*
X129825830Y-56654111D01*
X129811880Y-56623776D01*
X129797987Y-56591759D01*
X129784077Y-56557811D01*
X129770079Y-56521685D01*
X129755920Y-56483132D01*
X129741529Y-56441905D01*
X129726834Y-56397755D01*
X129711763Y-56350434D01*
X129696243Y-56299694D01*
X129680203Y-56245287D01*
X129663571Y-56186966D01*
X129646275Y-56124480D01*
X129628243Y-56057584D01*
X129609403Y-55986028D01*
X129589683Y-55909564D01*
X129569011Y-55827945D01*
X129547315Y-55740922D01*
X129524523Y-55648247D01*
X129500563Y-55549672D01*
X129475363Y-55444949D01*
X129450277Y-55339826D01*
X129425745Y-55237021D01*
X129402363Y-55139777D01*
X129380162Y-55048217D01*
X129359171Y-54962462D01*
X129339420Y-54882635D01*
X129320940Y-54808855D01*
X129303762Y-54741245D01*
X129287914Y-54679926D01*
X129273428Y-54625021D01*
X129263622Y-54588666D01*
X129234261Y-54480972D01*
X129272517Y-54417639D01*
X129322267Y-54337518D01*
X129370807Y-54263914D01*
X129418241Y-54196699D01*
X129464675Y-54135746D01*
X129510214Y-54080926D01*
X129554966Y-54032113D01*
X129599035Y-53989180D01*
X129642526Y-53951998D01*
X129683373Y-53921908D01*
X129724251Y-53896121D01*
X129762567Y-53876264D01*
X129798990Y-53862312D01*
X129834192Y-53854243D01*
X129868842Y-53852032D01*
X129903610Y-53855656D01*
G36*
X131005810Y-53976268D02*
G01*
X131010674Y-53984552D01*
X131017362Y-53997262D01*
X131025450Y-54013496D01*
X131034510Y-54032358D01*
X131044119Y-54052947D01*
X131053849Y-54074364D01*
X131063277Y-54095711D01*
X131071975Y-54116089D01*
X131079316Y-54134086D01*
X131092710Y-54168535D01*
X131105933Y-54203831D01*
X131119068Y-54240276D01*
X131132198Y-54278174D01*
X131145406Y-54317826D01*
X131158777Y-54359533D01*
X131172393Y-54403598D01*
X131186338Y-54450322D01*
X131200694Y-54500007D01*
X131215547Y-54552957D01*
X131230978Y-54609471D01*
X131247072Y-54669852D01*
X131263911Y-54734403D01*
X131281580Y-54803425D01*
X131300160Y-54877220D01*
X131319737Y-54956090D01*
X131340393Y-55040336D01*
X131362212Y-55130262D01*
X131385277Y-55226168D01*
X131409671Y-55328357D01*
X131412802Y-55341520D01*
X131434817Y-55433926D01*
X131455443Y-55520099D01*
X131474778Y-55600414D01*
X131492917Y-55675246D01*
X131509959Y-55744971D01*
X131525999Y-55809963D01*
X131541135Y-55870599D01*
X131555464Y-55927253D01*
X131569082Y-55980300D01*
X131582086Y-56030116D01*
X131594574Y-56077075D01*
X131606642Y-56121554D01*
X131618387Y-56163928D01*
X131629906Y-56204570D01*
X131641296Y-56243858D01*
X131652654Y-56282166D01*
X131664076Y-56319869D01*
X131672498Y-56347183D01*
X131681500Y-56375723D01*
X131691238Y-56405807D01*
X131701340Y-56436344D01*
X131711433Y-56466245D01*
X131721142Y-56494419D01*
X131730097Y-56519777D01*
X131737923Y-56541229D01*
X131744247Y-56557685D01*
X131746047Y-56562086D01*
X131749147Y-56570522D01*
X131750334Y-56575944D01*
X131750154Y-56576734D01*
X131747789Y-56574605D01*
X131742050Y-56567828D01*
X131733579Y-56557211D01*
X131723019Y-56543558D01*
X131711011Y-56527678D01*
X131709952Y-56526261D01*
X131684810Y-56492047D01*
X131659853Y-56456911D01*
X131634932Y-56420580D01*
X131609899Y-56382779D01*
X131584605Y-56343233D01*
X131558901Y-56301667D01*
X131532638Y-56257806D01*
X131505667Y-56211377D01*
X131477839Y-56162104D01*
X131449006Y-56109712D01*
X131419018Y-56053927D01*
X131387727Y-55994475D01*
X131354984Y-55931080D01*
X131320640Y-55863468D01*
X131284546Y-55791364D01*
X131246554Y-55714494D01*
X131206514Y-55632583D01*
X131164277Y-55545356D01*
X131119695Y-55452538D01*
X131072619Y-55353855D01*
X131058710Y-55324586D01*
X131037232Y-55279484D01*
X131014363Y-55231694D01*
X130990592Y-55182228D01*
X130966410Y-55132097D01*
X130942307Y-55082313D01*
X130918774Y-55033886D01*
X130896301Y-54987830D01*
X130875379Y-54945155D01*
X130856497Y-54906873D01*
X130844498Y-54882711D01*
X130751702Y-54696529D01*
X130772808Y-54618551D01*
X130799885Y-54520874D01*
X130826431Y-54429895D01*
X130852461Y-54345561D01*
X130877994Y-54267818D01*
X130903046Y-54196614D01*
X130924070Y-54140946D01*
X130930466Y-54125209D01*
X130938322Y-54106830D01*
X130947206Y-54086725D01*
X130956686Y-54065810D01*
X130966331Y-54045002D01*
X130975706Y-54025216D01*
X130984381Y-54007367D01*
X130991922Y-53992373D01*
X130997898Y-53981149D01*
X131001876Y-53974610D01*
X131003196Y-53973306D01*
X131005810Y-53976268D01*
G37*
X131005810Y-53976268D02*
X131010674Y-53984552D01*
X131017362Y-53997262D01*
X131025450Y-54013496D01*
X131034510Y-54032358D01*
X131044119Y-54052947D01*
X131053849Y-54074364D01*
X131063277Y-54095711D01*
X131071975Y-54116089D01*
X131079316Y-54134086D01*
X131092710Y-54168535D01*
X131105933Y-54203831D01*
X131119068Y-54240276D01*
X131132198Y-54278174D01*
X131145406Y-54317826D01*
X131158777Y-54359533D01*
X131172393Y-54403598D01*
X131186338Y-54450322D01*
X131200694Y-54500007D01*
X131215547Y-54552957D01*
X131230978Y-54609471D01*
X131247072Y-54669852D01*
X131263911Y-54734403D01*
X131281580Y-54803425D01*
X131300160Y-54877220D01*
X131319737Y-54956090D01*
X131340393Y-55040336D01*
X131362212Y-55130262D01*
X131385277Y-55226168D01*
X131409671Y-55328357D01*
X131412802Y-55341520D01*
X131434817Y-55433926D01*
X131455443Y-55520099D01*
X131474778Y-55600414D01*
X131492917Y-55675246D01*
X131509959Y-55744971D01*
X131525999Y-55809963D01*
X131541135Y-55870599D01*
X131555464Y-55927253D01*
X131569082Y-55980300D01*
X131582086Y-56030116D01*
X131594574Y-56077075D01*
X131606642Y-56121554D01*
X131618387Y-56163928D01*
X131629906Y-56204570D01*
X131641296Y-56243858D01*
X131652654Y-56282166D01*
X131664076Y-56319869D01*
X131672498Y-56347183D01*
X131681500Y-56375723D01*
X131691238Y-56405807D01*
X131701340Y-56436344D01*
X131711433Y-56466245D01*
X131721142Y-56494419D01*
X131730097Y-56519777D01*
X131737923Y-56541229D01*
X131744247Y-56557685D01*
X131746047Y-56562086D01*
X131749147Y-56570522D01*
X131750334Y-56575944D01*
X131750154Y-56576734D01*
X131747789Y-56574605D01*
X131742050Y-56567828D01*
X131733579Y-56557211D01*
X131723019Y-56543558D01*
X131711011Y-56527678D01*
X131709952Y-56526261D01*
X131684810Y-56492047D01*
X131659853Y-56456911D01*
X131634932Y-56420580D01*
X131609899Y-56382779D01*
X131584605Y-56343233D01*
X131558901Y-56301667D01*
X131532638Y-56257806D01*
X131505667Y-56211377D01*
X131477839Y-56162104D01*
X131449006Y-56109712D01*
X131419018Y-56053927D01*
X131387727Y-55994475D01*
X131354984Y-55931080D01*
X131320640Y-55863468D01*
X131284546Y-55791364D01*
X131246554Y-55714494D01*
X131206514Y-55632583D01*
X131164277Y-55545356D01*
X131119695Y-55452538D01*
X131072619Y-55353855D01*
X131058710Y-55324586D01*
X131037232Y-55279484D01*
X131014363Y-55231694D01*
X130990592Y-55182228D01*
X130966410Y-55132097D01*
X130942307Y-55082313D01*
X130918774Y-55033886D01*
X130896301Y-54987830D01*
X130875379Y-54945155D01*
X130856497Y-54906873D01*
X130844498Y-54882711D01*
X130751702Y-54696529D01*
X130772808Y-54618551D01*
X130799885Y-54520874D01*
X130826431Y-54429895D01*
X130852461Y-54345561D01*
X130877994Y-54267818D01*
X130903046Y-54196614D01*
X130924070Y-54140946D01*
X130930466Y-54125209D01*
X130938322Y-54106830D01*
X130947206Y-54086725D01*
X130956686Y-54065810D01*
X130966331Y-54045002D01*
X130975706Y-54025216D01*
X130984381Y-54007367D01*
X130991922Y-53992373D01*
X130997898Y-53981149D01*
X131001876Y-53974610D01*
X131003196Y-53973306D01*
X131005810Y-53976268D01*
G36*
X133285034Y-53981558D02*
G01*
X133290300Y-53990242D01*
X133297266Y-54003870D01*
X133299980Y-54009228D01*
X133320637Y-54051841D01*
X133341384Y-54098800D01*
X133362322Y-54150396D01*
X133383552Y-54206919D01*
X133405176Y-54268659D01*
X133427295Y-54335909D01*
X133450011Y-54408957D01*
X133473425Y-54488096D01*
X133497637Y-54573615D01*
X133501045Y-54585927D01*
X133508045Y-54611489D01*
X133514420Y-54635167D01*
X133519950Y-54656113D01*
X133524417Y-54673483D01*
X133527601Y-54686432D01*
X133529283Y-54694113D01*
X133529493Y-54695687D01*
X133527989Y-54700355D01*
X133523743Y-54710189D01*
X133517154Y-54724351D01*
X133508620Y-54742007D01*
X133498539Y-54762319D01*
X133487310Y-54784452D01*
X133485779Y-54787433D01*
X133471936Y-54814541D01*
X133457098Y-54843950D01*
X133441102Y-54876003D01*
X133423779Y-54911043D01*
X133404966Y-54949411D01*
X133384494Y-54991449D01*
X133362200Y-55037500D01*
X133337916Y-55087904D01*
X133311477Y-55143006D01*
X133282716Y-55203146D01*
X133251469Y-55268666D01*
X133217568Y-55339909D01*
X133209559Y-55356760D01*
X133164495Y-55451333D01*
X133121977Y-55540011D01*
X133081841Y-55623107D01*
X133043922Y-55700932D01*
X133008056Y-55773798D01*
X132974079Y-55842019D01*
X132941826Y-55905907D01*
X132911133Y-55965773D01*
X132881837Y-56021931D01*
X132853772Y-56074692D01*
X132826775Y-56124369D01*
X132800681Y-56171274D01*
X132775326Y-56215720D01*
X132750545Y-56258019D01*
X132726175Y-56298483D01*
X132702051Y-56337424D01*
X132678010Y-56375156D01*
X132657439Y-56406626D01*
X132641029Y-56431145D01*
X132624379Y-56455480D01*
X132607916Y-56479051D01*
X132592071Y-56501278D01*
X132577275Y-56521582D01*
X132563957Y-56539382D01*
X132552547Y-56554098D01*
X132543475Y-56565151D01*
X132537171Y-56571961D01*
X132534065Y-56573948D01*
X132533813Y-56573351D01*
X132534931Y-56569888D01*
X132538016Y-56561202D01*
X132542661Y-56548416D01*
X132548460Y-56532649D01*
X132551964Y-56523197D01*
X132564073Y-56490058D01*
X132576111Y-56455944D01*
X132588157Y-56420561D01*
X132600289Y-56383616D01*
X132612587Y-56344815D01*
X132625129Y-56303864D01*
X132637994Y-56260469D01*
X132651262Y-56214337D01*
X132665011Y-56165175D01*
X132679319Y-56112688D01*
X132694267Y-56056583D01*
X132709933Y-55996566D01*
X132726395Y-55932344D01*
X132743733Y-55863623D01*
X132762026Y-55790109D01*
X132781353Y-55711508D01*
X132801792Y-55627528D01*
X132823423Y-55537873D01*
X132846324Y-55442251D01*
X132870574Y-55340369D01*
X132875925Y-55317813D01*
X132893753Y-55242893D01*
X132911388Y-55169300D01*
X132928697Y-55097574D01*
X132945546Y-55028256D01*
X132961802Y-54961886D01*
X132977331Y-54899007D01*
X132992000Y-54840158D01*
X133005676Y-54785880D01*
X133018224Y-54736715D01*
X133029512Y-54693203D01*
X133037183Y-54664186D01*
X133063786Y-54566582D01*
X133089693Y-54475658D01*
X133114924Y-54391360D01*
X133139496Y-54313631D01*
X133163429Y-54242418D01*
X133186740Y-54177665D01*
X133209449Y-54119317D01*
X133231574Y-54067318D01*
X133253133Y-54021614D01*
X133254987Y-54017925D01*
X133264274Y-53999475D01*
X133271087Y-53986774D01*
X133276262Y-53979662D01*
X133280632Y-53977977D01*
X133285034Y-53981558D01*
G37*
X133285034Y-53981558D02*
X133290300Y-53990242D01*
X133297266Y-54003870D01*
X133299980Y-54009228D01*
X133320637Y-54051841D01*
X133341384Y-54098800D01*
X133362322Y-54150396D01*
X133383552Y-54206919D01*
X133405176Y-54268659D01*
X133427295Y-54335909D01*
X133450011Y-54408957D01*
X133473425Y-54488096D01*
X133497637Y-54573615D01*
X133501045Y-54585927D01*
X133508045Y-54611489D01*
X133514420Y-54635167D01*
X133519950Y-54656113D01*
X133524417Y-54673483D01*
X133527601Y-54686432D01*
X133529283Y-54694113D01*
X133529493Y-54695687D01*
X133527989Y-54700355D01*
X133523743Y-54710189D01*
X133517154Y-54724351D01*
X133508620Y-54742007D01*
X133498539Y-54762319D01*
X133487310Y-54784452D01*
X133485779Y-54787433D01*
X133471936Y-54814541D01*
X133457098Y-54843950D01*
X133441102Y-54876003D01*
X133423779Y-54911043D01*
X133404966Y-54949411D01*
X133384494Y-54991449D01*
X133362200Y-55037500D01*
X133337916Y-55087904D01*
X133311477Y-55143006D01*
X133282716Y-55203146D01*
X133251469Y-55268666D01*
X133217568Y-55339909D01*
X133209559Y-55356760D01*
X133164495Y-55451333D01*
X133121977Y-55540011D01*
X133081841Y-55623107D01*
X133043922Y-55700932D01*
X133008056Y-55773798D01*
X132974079Y-55842019D01*
X132941826Y-55905907D01*
X132911133Y-55965773D01*
X132881837Y-56021931D01*
X132853772Y-56074692D01*
X132826775Y-56124369D01*
X132800681Y-56171274D01*
X132775326Y-56215720D01*
X132750545Y-56258019D01*
X132726175Y-56298483D01*
X132702051Y-56337424D01*
X132678010Y-56375156D01*
X132657439Y-56406626D01*
X132641029Y-56431145D01*
X132624379Y-56455480D01*
X132607916Y-56479051D01*
X132592071Y-56501278D01*
X132577275Y-56521582D01*
X132563957Y-56539382D01*
X132552547Y-56554098D01*
X132543475Y-56565151D01*
X132537171Y-56571961D01*
X132534065Y-56573948D01*
X132533813Y-56573351D01*
X132534931Y-56569888D01*
X132538016Y-56561202D01*
X132542661Y-56548416D01*
X132548460Y-56532649D01*
X132551964Y-56523197D01*
X132564073Y-56490058D01*
X132576111Y-56455944D01*
X132588157Y-56420561D01*
X132600289Y-56383616D01*
X132612587Y-56344815D01*
X132625129Y-56303864D01*
X132637994Y-56260469D01*
X132651262Y-56214337D01*
X132665011Y-56165175D01*
X132679319Y-56112688D01*
X132694267Y-56056583D01*
X132709933Y-55996566D01*
X132726395Y-55932344D01*
X132743733Y-55863623D01*
X132762026Y-55790109D01*
X132781353Y-55711508D01*
X132801792Y-55627528D01*
X132823423Y-55537873D01*
X132846324Y-55442251D01*
X132870574Y-55340369D01*
X132875925Y-55317813D01*
X132893753Y-55242893D01*
X132911388Y-55169300D01*
X132928697Y-55097574D01*
X132945546Y-55028256D01*
X132961802Y-54961886D01*
X132977331Y-54899007D01*
X132992000Y-54840158D01*
X133005676Y-54785880D01*
X133018224Y-54736715D01*
X133029512Y-54693203D01*
X133037183Y-54664186D01*
X133063786Y-54566582D01*
X133089693Y-54475658D01*
X133114924Y-54391360D01*
X133139496Y-54313631D01*
X133163429Y-54242418D01*
X133186740Y-54177665D01*
X133209449Y-54119317D01*
X133231574Y-54067318D01*
X133253133Y-54021614D01*
X133254987Y-54017925D01*
X133264274Y-53999475D01*
X133271087Y-53986774D01*
X133276262Y-53979662D01*
X133280632Y-53977977D01*
X133285034Y-53981558D01*
G36*
X122243850Y-54600472D02*
G01*
X122243849Y-54883044D01*
X114584162Y-54884634D01*
X106924475Y-54886225D01*
X106922879Y-57437337D01*
X106921284Y-59988450D01*
X106356150Y-59988450D01*
X106356150Y-54317900D01*
X122243850Y-54317900D01*
X122243850Y-54600472D01*
G37*
X122243850Y-54600472D02*
X122243849Y-54883044D01*
X114584162Y-54884634D01*
X106924475Y-54886225D01*
X106922879Y-57437337D01*
X106921284Y-59988450D01*
X106356150Y-59988450D01*
X106356150Y-54317900D01*
X122243850Y-54317900D01*
X122243850Y-54600472D01*
G36*
X110275763Y-57132537D02*
G01*
X110276193Y-57229750D01*
X110276622Y-57315100D01*
X110277068Y-57389424D01*
X110277550Y-57453561D01*
X110278087Y-57508348D01*
X110278696Y-57554621D01*
X110279397Y-57593218D01*
X110280208Y-57624978D01*
X110281147Y-57650736D01*
X110282234Y-57671330D01*
X110283486Y-57687599D01*
X110284922Y-57700378D01*
X110286561Y-57710506D01*
X110288421Y-57718820D01*
X110288760Y-57720112D01*
X110305709Y-57771335D01*
X110326774Y-57811908D01*
X110353187Y-57843549D01*
X110386180Y-57867975D01*
X110400129Y-57875444D01*
X110418258Y-57884077D01*
X110433246Y-57889897D01*
X110448346Y-57893455D01*
X110466809Y-57895305D01*
X110491888Y-57895998D01*
X110521645Y-57896091D01*
X110565455Y-57895006D01*
X110599584Y-57891167D01*
X110626923Y-57883632D01*
X110650360Y-57871461D01*
X110672786Y-57853713D01*
X110683619Y-57843356D01*
X110695734Y-57830682D01*
X110706547Y-57817633D01*
X110716133Y-57803452D01*
X110724564Y-57787381D01*
X110731916Y-57768661D01*
X110738262Y-57746535D01*
X110743676Y-57720245D01*
X110748232Y-57689032D01*
X110752004Y-57652139D01*
X110755065Y-57608808D01*
X110757490Y-57558281D01*
X110759353Y-57499800D01*
X110760726Y-57432606D01*
X110761685Y-57355943D01*
X110762304Y-57269051D01*
X110762655Y-57171174D01*
X110762813Y-57061553D01*
X110762832Y-57030937D01*
X110763050Y-56584850D01*
X111271050Y-56584850D01*
X111270995Y-57119837D01*
X111270910Y-57207037D01*
X111270678Y-57291022D01*
X111270312Y-57370769D01*
X111269822Y-57445252D01*
X111269218Y-57513449D01*
X111268511Y-57574334D01*
X111267712Y-57626884D01*
X111266833Y-57670073D01*
X111265883Y-57702878D01*
X111264873Y-57724274D01*
X111264601Y-57727850D01*
X111251221Y-57825744D01*
X111228815Y-57914720D01*
X111197322Y-57994843D01*
X111156680Y-58066176D01*
X111106827Y-58128784D01*
X111047703Y-58182733D01*
X110979245Y-58228086D01*
X110901392Y-58264909D01*
X110814082Y-58293265D01*
X110717253Y-58313220D01*
X110705085Y-58315039D01*
X110678497Y-58317846D01*
X110642595Y-58320195D01*
X110600164Y-58322041D01*
X110553988Y-58323340D01*
X110506850Y-58324050D01*
X110461535Y-58324126D01*
X110420825Y-58323525D01*
X110387507Y-58322203D01*
X110366175Y-58320364D01*
X110278228Y-58306097D01*
X110200458Y-58287353D01*
X110130972Y-58263609D01*
X110081514Y-58241383D01*
X110010601Y-58199519D01*
X109948935Y-58149513D01*
X109896267Y-58091028D01*
X109852347Y-58023728D01*
X109816927Y-57947274D01*
X109789757Y-57861329D01*
X109784275Y-57838542D01*
X109781864Y-57827739D01*
X109779736Y-57817345D01*
X109777872Y-57806521D01*
X109776250Y-57794429D01*
X109774849Y-57780231D01*
X109773647Y-57763087D01*
X109772625Y-57742160D01*
X109771760Y-57716611D01*
X109771032Y-57685602D01*
X109770420Y-57648293D01*
X109769903Y-57603848D01*
X109769460Y-57551426D01*
X109769069Y-57490190D01*
X109768710Y-57419302D01*
X109768361Y-57337922D01*
X109768003Y-57245212D01*
X109767760Y-57180162D01*
X109765552Y-56584850D01*
X110019501Y-56584850D01*
X110273450Y-56584849D01*
X110275763Y-57132537D01*
G37*
X110275763Y-57132537D02*
X110276193Y-57229750D01*
X110276622Y-57315100D01*
X110277068Y-57389424D01*
X110277550Y-57453561D01*
X110278087Y-57508348D01*
X110278696Y-57554621D01*
X110279397Y-57593218D01*
X110280208Y-57624978D01*
X110281147Y-57650736D01*
X110282234Y-57671330D01*
X110283486Y-57687599D01*
X110284922Y-57700378D01*
X110286561Y-57710506D01*
X110288421Y-57718820D01*
X110288760Y-57720112D01*
X110305709Y-57771335D01*
X110326774Y-57811908D01*
X110353187Y-57843549D01*
X110386180Y-57867975D01*
X110400129Y-57875444D01*
X110418258Y-57884077D01*
X110433246Y-57889897D01*
X110448346Y-57893455D01*
X110466809Y-57895305D01*
X110491888Y-57895998D01*
X110521645Y-57896091D01*
X110565455Y-57895006D01*
X110599584Y-57891167D01*
X110626923Y-57883632D01*
X110650360Y-57871461D01*
X110672786Y-57853713D01*
X110683619Y-57843356D01*
X110695734Y-57830682D01*
X110706547Y-57817633D01*
X110716133Y-57803452D01*
X110724564Y-57787381D01*
X110731916Y-57768661D01*
X110738262Y-57746535D01*
X110743676Y-57720245D01*
X110748232Y-57689032D01*
X110752004Y-57652139D01*
X110755065Y-57608808D01*
X110757490Y-57558281D01*
X110759353Y-57499800D01*
X110760726Y-57432606D01*
X110761685Y-57355943D01*
X110762304Y-57269051D01*
X110762655Y-57171174D01*
X110762813Y-57061553D01*
X110762832Y-57030937D01*
X110763050Y-56584850D01*
X111271050Y-56584850D01*
X111270995Y-57119837D01*
X111270910Y-57207037D01*
X111270678Y-57291022D01*
X111270312Y-57370769D01*
X111269822Y-57445252D01*
X111269218Y-57513449D01*
X111268511Y-57574334D01*
X111267712Y-57626884D01*
X111266833Y-57670073D01*
X111265883Y-57702878D01*
X111264873Y-57724274D01*
X111264601Y-57727850D01*
X111251221Y-57825744D01*
X111228815Y-57914720D01*
X111197322Y-57994843D01*
X111156680Y-58066176D01*
X111106827Y-58128784D01*
X111047703Y-58182733D01*
X110979245Y-58228086D01*
X110901392Y-58264909D01*
X110814082Y-58293265D01*
X110717253Y-58313220D01*
X110705085Y-58315039D01*
X110678497Y-58317846D01*
X110642595Y-58320195D01*
X110600164Y-58322041D01*
X110553988Y-58323340D01*
X110506850Y-58324050D01*
X110461535Y-58324126D01*
X110420825Y-58323525D01*
X110387507Y-58322203D01*
X110366175Y-58320364D01*
X110278228Y-58306097D01*
X110200458Y-58287353D01*
X110130972Y-58263609D01*
X110081514Y-58241383D01*
X110010601Y-58199519D01*
X109948935Y-58149513D01*
X109896267Y-58091028D01*
X109852347Y-58023728D01*
X109816927Y-57947274D01*
X109789757Y-57861329D01*
X109784275Y-57838542D01*
X109781864Y-57827739D01*
X109779736Y-57817345D01*
X109777872Y-57806521D01*
X109776250Y-57794429D01*
X109774849Y-57780231D01*
X109773647Y-57763087D01*
X109772625Y-57742160D01*
X109771760Y-57716611D01*
X109771032Y-57685602D01*
X109770420Y-57648293D01*
X109769903Y-57603848D01*
X109769460Y-57551426D01*
X109769069Y-57490190D01*
X109768710Y-57419302D01*
X109768361Y-57337922D01*
X109768003Y-57245212D01*
X109767760Y-57180162D01*
X109765552Y-56584850D01*
X110019501Y-56584850D01*
X110273450Y-56584849D01*
X110275763Y-57132537D01*
G36*
X116148508Y-56584850D02*
G01*
X116402456Y-56584850D01*
X116400096Y-57176987D01*
X116399689Y-57277257D01*
X116399301Y-57365667D01*
X116398914Y-57443057D01*
X116398507Y-57510269D01*
X116398060Y-57568141D01*
X116397552Y-57617514D01*
X116396965Y-57659229D01*
X116396277Y-57694125D01*
X116395469Y-57723042D01*
X116394520Y-57746822D01*
X116393411Y-57766304D01*
X116392122Y-57782328D01*
X116390632Y-57795735D01*
X116388921Y-57807364D01*
X116386970Y-57818056D01*
X116384758Y-57828652D01*
X116384509Y-57829796D01*
X116371054Y-57882264D01*
X116353743Y-57935795D01*
X116334072Y-57986319D01*
X116313537Y-58029764D01*
X116306072Y-58043142D01*
X116285510Y-58072736D01*
X116257199Y-58106261D01*
X116224086Y-58140808D01*
X116189118Y-58173464D01*
X116155245Y-58201319D01*
X116125625Y-58221340D01*
X116050059Y-58258316D01*
X115966184Y-58287868D01*
X115876524Y-58309197D01*
X115820825Y-58317738D01*
X115786690Y-58320738D01*
X115743641Y-58322752D01*
X115694663Y-58323806D01*
X115642739Y-58323926D01*
X115590856Y-58323136D01*
X115541999Y-58321462D01*
X115499152Y-58318930D01*
X115465301Y-58315564D01*
X115459039Y-58314665D01*
X115367223Y-58296596D01*
X115285640Y-58272290D01*
X115213190Y-58241247D01*
X115148774Y-58202964D01*
X115091294Y-58156940D01*
X115071525Y-58137809D01*
X115023410Y-58082272D01*
X114983972Y-58021702D01*
X114952258Y-57954243D01*
X114927317Y-57878038D01*
X114917232Y-57836721D01*
X114900915Y-57762775D01*
X114898548Y-57173812D01*
X114896181Y-56584850D01*
X115404070Y-56584850D01*
X115406599Y-57126187D01*
X115407077Y-57223464D01*
X115407557Y-57308879D01*
X115408057Y-57383267D01*
X115408596Y-57447468D01*
X115409191Y-57502317D01*
X115409862Y-57548651D01*
X115410625Y-57587309D01*
X115411500Y-57619127D01*
X115412505Y-57644942D01*
X115413658Y-57665591D01*
X115414977Y-57681912D01*
X115416481Y-57694742D01*
X115418188Y-57704918D01*
X115419351Y-57710239D01*
X115432684Y-57756544D01*
X115448843Y-57793578D01*
X115469449Y-57824716D01*
X115480679Y-57837783D01*
X115507781Y-57862444D01*
X115538076Y-57879847D01*
X115574218Y-57891011D01*
X115618862Y-57896957D01*
X115637439Y-57898013D01*
X115694151Y-57897083D01*
X115741431Y-57888755D01*
X115780577Y-57872424D01*
X115812888Y-57847483D01*
X115839665Y-57813326D01*
X115847474Y-57799990D01*
X115854562Y-57787022D01*
X115860808Y-57775047D01*
X115866269Y-57763213D01*
X115871002Y-57750664D01*
X115875063Y-57736550D01*
X115878510Y-57720015D01*
X115881400Y-57700207D01*
X115883789Y-57676272D01*
X115885734Y-57647357D01*
X115887292Y-57612610D01*
X115888519Y-57571176D01*
X115889474Y-57522202D01*
X115890212Y-57464835D01*
X115890791Y-57398222D01*
X115891266Y-57321509D01*
X115891696Y-57233843D01*
X115892137Y-57134372D01*
X115892159Y-57129362D01*
X115894561Y-56584849D01*
X116148508Y-56584850D01*
G37*
X116148508Y-56584850D02*
X116402456Y-56584850D01*
X116400096Y-57176987D01*
X116399689Y-57277257D01*
X116399301Y-57365667D01*
X116398914Y-57443057D01*
X116398507Y-57510269D01*
X116398060Y-57568141D01*
X116397552Y-57617514D01*
X116396965Y-57659229D01*
X116396277Y-57694125D01*
X116395469Y-57723042D01*
X116394520Y-57746822D01*
X116393411Y-57766304D01*
X116392122Y-57782328D01*
X116390632Y-57795735D01*
X116388921Y-57807364D01*
X116386970Y-57818056D01*
X116384758Y-57828652D01*
X116384509Y-57829796D01*
X116371054Y-57882264D01*
X116353743Y-57935795D01*
X116334072Y-57986319D01*
X116313537Y-58029764D01*
X116306072Y-58043142D01*
X116285510Y-58072736D01*
X116257199Y-58106261D01*
X116224086Y-58140808D01*
X116189118Y-58173464D01*
X116155245Y-58201319D01*
X116125625Y-58221340D01*
X116050059Y-58258316D01*
X115966184Y-58287868D01*
X115876524Y-58309197D01*
X115820825Y-58317738D01*
X115786690Y-58320738D01*
X115743641Y-58322752D01*
X115694663Y-58323806D01*
X115642739Y-58323926D01*
X115590856Y-58323136D01*
X115541999Y-58321462D01*
X115499152Y-58318930D01*
X115465301Y-58315564D01*
X115459039Y-58314665D01*
X115367223Y-58296596D01*
X115285640Y-58272290D01*
X115213190Y-58241247D01*
X115148774Y-58202964D01*
X115091294Y-58156940D01*
X115071525Y-58137809D01*
X115023410Y-58082272D01*
X114983972Y-58021702D01*
X114952258Y-57954243D01*
X114927317Y-57878038D01*
X114917232Y-57836721D01*
X114900915Y-57762775D01*
X114898548Y-57173812D01*
X114896181Y-56584850D01*
X115404070Y-56584850D01*
X115406599Y-57126187D01*
X115407077Y-57223464D01*
X115407557Y-57308879D01*
X115408057Y-57383267D01*
X115408596Y-57447468D01*
X115409191Y-57502317D01*
X115409862Y-57548651D01*
X115410625Y-57587309D01*
X115411500Y-57619127D01*
X115412505Y-57644942D01*
X115413658Y-57665591D01*
X115414977Y-57681912D01*
X115416481Y-57694742D01*
X115418188Y-57704918D01*
X115419351Y-57710239D01*
X115432684Y-57756544D01*
X115448843Y-57793578D01*
X115469449Y-57824716D01*
X115480679Y-57837783D01*
X115507781Y-57862444D01*
X115538076Y-57879847D01*
X115574218Y-57891011D01*
X115618862Y-57896957D01*
X115637439Y-57898013D01*
X115694151Y-57897083D01*
X115741431Y-57888755D01*
X115780577Y-57872424D01*
X115812888Y-57847483D01*
X115839665Y-57813326D01*
X115847474Y-57799990D01*
X115854562Y-57787022D01*
X115860808Y-57775047D01*
X115866269Y-57763213D01*
X115871002Y-57750664D01*
X115875063Y-57736550D01*
X115878510Y-57720015D01*
X115881400Y-57700207D01*
X115883789Y-57676272D01*
X115885734Y-57647357D01*
X115887292Y-57612610D01*
X115888519Y-57571176D01*
X115889474Y-57522202D01*
X115890212Y-57464835D01*
X115890791Y-57398222D01*
X115891266Y-57321509D01*
X115891696Y-57233843D01*
X115892137Y-57134372D01*
X115892159Y-57129362D01*
X115894561Y-56584849D01*
X116148508Y-56584850D01*
G36*
X108565950Y-56878361D02*
G01*
X108565962Y-56946941D01*
X108566027Y-57003852D01*
X108566190Y-57050125D01*
X108566496Y-57086790D01*
X108566987Y-57114879D01*
X108567709Y-57135421D01*
X108568706Y-57149448D01*
X108570022Y-57157991D01*
X108571700Y-57162081D01*
X108573786Y-57162747D01*
X108576324Y-57161022D01*
X108578004Y-57159348D01*
X108584095Y-57152032D01*
X108597157Y-57135621D01*
X108616428Y-57111094D01*
X108641146Y-57079430D01*
X108670549Y-57041609D01*
X108703876Y-56998610D01*
X108740364Y-56951412D01*
X108779252Y-56900993D01*
X108797766Y-56876950D01*
X108837453Y-56825434D01*
X108875047Y-56776728D01*
X108909792Y-56731807D01*
X108940933Y-56691641D01*
X108967714Y-56657205D01*
X108989379Y-56629469D01*
X109005173Y-56609408D01*
X109014340Y-56597994D01*
X109016136Y-56595901D01*
X109019252Y-56593348D01*
X109024015Y-56591227D01*
X109031504Y-56589505D01*
X109042798Y-56588152D01*
X109058978Y-56587134D01*
X109081122Y-56586419D01*
X109110311Y-56585977D01*
X109147624Y-56585773D01*
X109194139Y-56585778D01*
X109250938Y-56585958D01*
X109319099Y-56586281D01*
X109337166Y-56586376D01*
X109647532Y-56588025D01*
X109351011Y-56917874D01*
X109294540Y-56980867D01*
X109242988Y-57038723D01*
X109196807Y-57090922D01*
X109156449Y-57136942D01*
X109122363Y-57176262D01*
X109095003Y-57208361D01*
X109074819Y-57232718D01*
X109062263Y-57248811D01*
X109057786Y-57256121D01*
X109057807Y-57256366D01*
X109061744Y-57262771D01*
X109072268Y-57278985D01*
X109088888Y-57304272D01*
X109111115Y-57337898D01*
X109138460Y-57379124D01*
X109170432Y-57427216D01*
X109206543Y-57481436D01*
X109246302Y-57541049D01*
X109289219Y-57605318D01*
X109334806Y-57673508D01*
X109382572Y-57744881D01*
X109400911Y-57772264D01*
X109449282Y-57844511D01*
X109495596Y-57913759D01*
X109539372Y-57979282D01*
X109580125Y-58040354D01*
X109617373Y-58096246D01*
X109650631Y-58146234D01*
X109679418Y-58189589D01*
X109703249Y-58225586D01*
X109721641Y-58253498D01*
X109734111Y-58272598D01*
X109740175Y-58282159D01*
X109740700Y-58283144D01*
X109734551Y-58283823D01*
X109716908Y-58284397D01*
X109688979Y-58284856D01*
X109651968Y-58285194D01*
X109607082Y-58285403D01*
X109555527Y-58285476D01*
X109498510Y-58285404D01*
X109437235Y-58285181D01*
X109425252Y-58285121D01*
X109109804Y-58283475D01*
X108911258Y-57959743D01*
X108875497Y-57901551D01*
X108841623Y-57846656D01*
X108810230Y-57796003D01*
X108781909Y-57750539D01*
X108757255Y-57711210D01*
X108736860Y-57678962D01*
X108721318Y-57654741D01*
X108711221Y-57639493D01*
X108707187Y-57634170D01*
X108701307Y-57638043D01*
X108688623Y-57649933D01*
X108670672Y-57668283D01*
X108648995Y-57691537D01*
X108633806Y-57708354D01*
X108565950Y-57784380D01*
X108565950Y-58286650D01*
X108057950Y-58286650D01*
X108057950Y-56584850D01*
X108565950Y-56584850D01*
X108565950Y-56878361D01*
G37*
X108565950Y-56878361D02*
X108565962Y-56946941D01*
X108566027Y-57003852D01*
X108566190Y-57050125D01*
X108566496Y-57086790D01*
X108566987Y-57114879D01*
X108567709Y-57135421D01*
X108568706Y-57149448D01*
X108570022Y-57157991D01*
X108571700Y-57162081D01*
X108573786Y-57162747D01*
X108576324Y-57161022D01*
X108578004Y-57159348D01*
X108584095Y-57152032D01*
X108597157Y-57135621D01*
X108616428Y-57111094D01*
X108641146Y-57079430D01*
X108670549Y-57041609D01*
X108703876Y-56998610D01*
X108740364Y-56951412D01*
X108779252Y-56900993D01*
X108797766Y-56876950D01*
X108837453Y-56825434D01*
X108875047Y-56776728D01*
X108909792Y-56731807D01*
X108940933Y-56691641D01*
X108967714Y-56657205D01*
X108989379Y-56629469D01*
X109005173Y-56609408D01*
X109014340Y-56597994D01*
X109016136Y-56595901D01*
X109019252Y-56593348D01*
X109024015Y-56591227D01*
X109031504Y-56589505D01*
X109042798Y-56588152D01*
X109058978Y-56587134D01*
X109081122Y-56586419D01*
X109110311Y-56585977D01*
X109147624Y-56585773D01*
X109194139Y-56585778D01*
X109250938Y-56585958D01*
X109319099Y-56586281D01*
X109337166Y-56586376D01*
X109647532Y-56588025D01*
X109351011Y-56917874D01*
X109294540Y-56980867D01*
X109242988Y-57038723D01*
X109196807Y-57090922D01*
X109156449Y-57136942D01*
X109122363Y-57176262D01*
X109095003Y-57208361D01*
X109074819Y-57232718D01*
X109062263Y-57248811D01*
X109057786Y-57256121D01*
X109057807Y-57256366D01*
X109061744Y-57262771D01*
X109072268Y-57278985D01*
X109088888Y-57304272D01*
X109111115Y-57337898D01*
X109138460Y-57379124D01*
X109170432Y-57427216D01*
X109206543Y-57481436D01*
X109246302Y-57541049D01*
X109289219Y-57605318D01*
X109334806Y-57673508D01*
X109382572Y-57744881D01*
X109400911Y-57772264D01*
X109449282Y-57844511D01*
X109495596Y-57913759D01*
X109539372Y-57979282D01*
X109580125Y-58040354D01*
X109617373Y-58096246D01*
X109650631Y-58146234D01*
X109679418Y-58189589D01*
X109703249Y-58225586D01*
X109721641Y-58253498D01*
X109734111Y-58272598D01*
X109740175Y-58282159D01*
X109740700Y-58283144D01*
X109734551Y-58283823D01*
X109716908Y-58284397D01*
X109688979Y-58284856D01*
X109651968Y-58285194D01*
X109607082Y-58285403D01*
X109555527Y-58285476D01*
X109498510Y-58285404D01*
X109437235Y-58285181D01*
X109425252Y-58285121D01*
X109109804Y-58283475D01*
X108911258Y-57959743D01*
X108875497Y-57901551D01*
X108841623Y-57846656D01*
X108810230Y-57796003D01*
X108781909Y-57750539D01*
X108757255Y-57711210D01*
X108736860Y-57678962D01*
X108721318Y-57654741D01*
X108711221Y-57639493D01*
X108707187Y-57634170D01*
X108701307Y-57638043D01*
X108688623Y-57649933D01*
X108670672Y-57668283D01*
X108648995Y-57691537D01*
X108633806Y-57708354D01*
X108565950Y-57784380D01*
X108565950Y-58286650D01*
X108057950Y-58286650D01*
X108057950Y-56584850D01*
X108565950Y-56584850D01*
X108565950Y-56878361D01*
G36*
X112522000Y-57848394D02*
G01*
X112879187Y-57850034D01*
X113236375Y-57851675D01*
X113238045Y-58069162D01*
X113239716Y-58286650D01*
X112014000Y-58286650D01*
X112014000Y-56584850D01*
X112522000Y-56584850D01*
X112522000Y-57848394D01*
G37*
X112522000Y-57848394D02*
X112879187Y-57850034D01*
X113236375Y-57851675D01*
X113238045Y-58069162D01*
X113239716Y-58286650D01*
X112014000Y-58286650D01*
X112014000Y-56584850D01*
X112522000Y-56584850D01*
X112522000Y-57848394D01*
G36*
X114744500Y-57023000D02*
G01*
X113893600Y-57023000D01*
X113893600Y-57232550D01*
X114668300Y-57232550D01*
X114668300Y-57638950D01*
X113893600Y-57638950D01*
X113893600Y-57848500D01*
X114769900Y-57848500D01*
X114769900Y-58286650D01*
X113391950Y-58286650D01*
X113391950Y-56584850D01*
X114744500Y-56584850D01*
X114744500Y-57023000D01*
G37*
X114744500Y-57023000D02*
X113893600Y-57023000D01*
X113893600Y-57232550D01*
X114668300Y-57232550D01*
X114668300Y-57638950D01*
X113893600Y-57638950D01*
X113893600Y-57848500D01*
X114769900Y-57848500D01*
X114769900Y-58286650D01*
X113391950Y-58286650D01*
X113391950Y-56584850D01*
X114744500Y-56584850D01*
X114744500Y-57023000D01*
G36*
X116991803Y-56608662D02*
G01*
X116994366Y-56618453D01*
X116999887Y-56639547D01*
X117008108Y-56670962D01*
X117018773Y-56711716D01*
X117031623Y-56760825D01*
X117046403Y-56817307D01*
X117062854Y-56880180D01*
X117080719Y-56948460D01*
X117099743Y-57021165D01*
X117119666Y-57097312D01*
X117125975Y-57121425D01*
X117145979Y-57197807D01*
X117165077Y-57270583D01*
X117183022Y-57338826D01*
X117199569Y-57401608D01*
X117214472Y-57458001D01*
X117227486Y-57507078D01*
X117238365Y-57547911D01*
X117246863Y-57579571D01*
X117252734Y-57601132D01*
X117255733Y-57611666D01*
X117256062Y-57612580D01*
X117256749Y-57612848D01*
X117257668Y-57611849D01*
X117259020Y-57608829D01*
X117261002Y-57603038D01*
X117263815Y-57593723D01*
X117267658Y-57580132D01*
X117272730Y-57561513D01*
X117279231Y-57537115D01*
X117287359Y-57506185D01*
X117297313Y-57467971D01*
X117309294Y-57421721D01*
X117323501Y-57366684D01*
X117340132Y-57302106D01*
X117359387Y-57227237D01*
X117381466Y-57141324D01*
X117397997Y-57076975D01*
X117523602Y-56588025D01*
X117785051Y-56586367D01*
X117841281Y-56586055D01*
X117893363Y-56585855D01*
X117939974Y-56585763D01*
X117979788Y-56585779D01*
X118011481Y-56585901D01*
X118033727Y-56586128D01*
X118045203Y-56586459D01*
X118046500Y-56586643D01*
X118044695Y-56592839D01*
X118039420Y-56610498D01*
X118030883Y-56638931D01*
X118019293Y-56677445D01*
X118004859Y-56725351D01*
X117987789Y-56781955D01*
X117968292Y-56846569D01*
X117946575Y-56918499D01*
X117922849Y-56997055D01*
X117897322Y-57081546D01*
X117870201Y-57171281D01*
X117841697Y-57265568D01*
X117812017Y-57363717D01*
X117790145Y-57436026D01*
X117533791Y-58283475D01*
X116963155Y-58286777D01*
X116719671Y-57443751D01*
X116690631Y-57343219D01*
X116662537Y-57245992D01*
X116635592Y-57152774D01*
X116610001Y-57064270D01*
X116585968Y-56981182D01*
X116563696Y-56904214D01*
X116543388Y-56834070D01*
X116525249Y-56771453D01*
X116509482Y-56717066D01*
X116496291Y-56671615D01*
X116485880Y-56635801D01*
X116478453Y-56610329D01*
X116474212Y-56595902D01*
X116473264Y-56592787D01*
X116474967Y-56590742D01*
X116482354Y-56589058D01*
X116496370Y-56587704D01*
X116517962Y-56586651D01*
X116548076Y-56585870D01*
X116587659Y-56585331D01*
X116637658Y-56585005D01*
X116699017Y-56584862D01*
X116727950Y-56584850D01*
X116985560Y-56584850D01*
X116991803Y-56608662D01*
G37*
X116991803Y-56608662D02*
X116994366Y-56618453D01*
X116999887Y-56639547D01*
X117008108Y-56670962D01*
X117018773Y-56711716D01*
X117031623Y-56760825D01*
X117046403Y-56817307D01*
X117062854Y-56880180D01*
X117080719Y-56948460D01*
X117099743Y-57021165D01*
X117119666Y-57097312D01*
X117125975Y-57121425D01*
X117145979Y-57197807D01*
X117165077Y-57270583D01*
X117183022Y-57338826D01*
X117199569Y-57401608D01*
X117214472Y-57458001D01*
X117227486Y-57507078D01*
X117238365Y-57547911D01*
X117246863Y-57579571D01*
X117252734Y-57601132D01*
X117255733Y-57611666D01*
X117256062Y-57612580D01*
X117256749Y-57612848D01*
X117257668Y-57611849D01*
X117259020Y-57608829D01*
X117261002Y-57603038D01*
X117263815Y-57593723D01*
X117267658Y-57580132D01*
X117272730Y-57561513D01*
X117279231Y-57537115D01*
X117287359Y-57506185D01*
X117297313Y-57467971D01*
X117309294Y-57421721D01*
X117323501Y-57366684D01*
X117340132Y-57302106D01*
X117359387Y-57227237D01*
X117381466Y-57141324D01*
X117397997Y-57076975D01*
X117523602Y-56588025D01*
X117785051Y-56586367D01*
X117841281Y-56586055D01*
X117893363Y-56585855D01*
X117939974Y-56585763D01*
X117979788Y-56585779D01*
X118011481Y-56585901D01*
X118033727Y-56586128D01*
X118045203Y-56586459D01*
X118046500Y-56586643D01*
X118044695Y-56592839D01*
X118039420Y-56610498D01*
X118030883Y-56638931D01*
X118019293Y-56677445D01*
X118004859Y-56725351D01*
X117987789Y-56781955D01*
X117968292Y-56846569D01*
X117946575Y-56918499D01*
X117922849Y-56997055D01*
X117897322Y-57081546D01*
X117870201Y-57171281D01*
X117841697Y-57265568D01*
X117812017Y-57363717D01*
X117790145Y-57436026D01*
X117533791Y-58283475D01*
X116963155Y-58286777D01*
X116719671Y-57443751D01*
X116690631Y-57343219D01*
X116662537Y-57245992D01*
X116635592Y-57152774D01*
X116610001Y-57064270D01*
X116585968Y-56981182D01*
X116563696Y-56904214D01*
X116543388Y-56834070D01*
X116525249Y-56771453D01*
X116509482Y-56717066D01*
X116496291Y-56671615D01*
X116485880Y-56635801D01*
X116478453Y-56610329D01*
X116474212Y-56595902D01*
X116473264Y-56592787D01*
X116474967Y-56590742D01*
X116482354Y-56589058D01*
X116496370Y-56587704D01*
X116517962Y-56586651D01*
X116548076Y-56585870D01*
X116587659Y-56585331D01*
X116637658Y-56585005D01*
X116699017Y-56584862D01*
X116727950Y-56584850D01*
X116985560Y-56584850D01*
X116991803Y-56608662D01*
G36*
X119468900Y-57023000D02*
G01*
X118624350Y-57023000D01*
X118624350Y-57232550D01*
X119392700Y-57232550D01*
X119392700Y-57638950D01*
X118624350Y-57638950D01*
X118624350Y-57848500D01*
X119494300Y-57848500D01*
X119494300Y-58286650D01*
X118116350Y-58286650D01*
X118116350Y-56584850D01*
X119468900Y-56584850D01*
X119468900Y-57023000D01*
G37*
X119468900Y-57023000D02*
X118624350Y-57023000D01*
X118624350Y-57232550D01*
X119392700Y-57232550D01*
X119392700Y-57638950D01*
X118624350Y-57638950D01*
X118624350Y-57848500D01*
X119494300Y-57848500D01*
X119494300Y-58286650D01*
X118116350Y-58286650D01*
X118116350Y-56584850D01*
X119468900Y-56584850D01*
X119468900Y-57023000D01*
G36*
X121107200Y-58286650D02*
G01*
X120614061Y-58286650D01*
X120364746Y-57827862D01*
X120326317Y-57757201D01*
X120289561Y-57689719D01*
X120254936Y-57626256D01*
X120222904Y-57567651D01*
X120193925Y-57514743D01*
X120168459Y-57468370D01*
X120146967Y-57429372D01*
X120129908Y-57398586D01*
X120117744Y-57376853D01*
X120110935Y-57365011D01*
X120109665Y-57363042D01*
X120108603Y-57368128D01*
X120107627Y-57385247D01*
X120106746Y-57413735D01*
X120105968Y-57452925D01*
X120105301Y-57502151D01*
X120104753Y-57560747D01*
X120104334Y-57628048D01*
X120104051Y-57703387D01*
X120103912Y-57786100D01*
X120103900Y-57821829D01*
X120103900Y-58286650D01*
X119621253Y-58286650D01*
X119622864Y-57437337D01*
X119624475Y-56588025D01*
X119884825Y-56586458D01*
X120145175Y-56584892D01*
X120379021Y-57028819D01*
X120415873Y-57098713D01*
X120451159Y-57165515D01*
X120484412Y-57228347D01*
X120515165Y-57286332D01*
X120542951Y-57338595D01*
X120567304Y-57384258D01*
X120587755Y-57422443D01*
X120603839Y-57452276D01*
X120615087Y-57472878D01*
X120621034Y-57483373D01*
X120621707Y-57484411D01*
X120623416Y-57485269D01*
X120624897Y-57482491D01*
X120626166Y-57475285D01*
X120627240Y-57462856D01*
X120628134Y-57444414D01*
X120628865Y-57419165D01*
X120629449Y-57386317D01*
X120629901Y-57345077D01*
X120630239Y-57294653D01*
X120630478Y-57234253D01*
X120630635Y-57163082D01*
X120630725Y-57080351D01*
X120630748Y-57040462D01*
X120630950Y-56584850D01*
X121107200Y-56584850D01*
X121107200Y-58286650D01*
G37*
X121107200Y-58286650D02*
X120614061Y-58286650D01*
X120364746Y-57827862D01*
X120326317Y-57757201D01*
X120289561Y-57689719D01*
X120254936Y-57626256D01*
X120222904Y-57567651D01*
X120193925Y-57514743D01*
X120168459Y-57468370D01*
X120146967Y-57429372D01*
X120129908Y-57398586D01*
X120117744Y-57376853D01*
X120110935Y-57365011D01*
X120109665Y-57363042D01*
X120108603Y-57368128D01*
X120107627Y-57385247D01*
X120106746Y-57413735D01*
X120105968Y-57452925D01*
X120105301Y-57502151D01*
X120104753Y-57560747D01*
X120104334Y-57628048D01*
X120104051Y-57703387D01*
X120103912Y-57786100D01*
X120103900Y-57821829D01*
X120103900Y-58286650D01*
X119621253Y-58286650D01*
X119622864Y-57437337D01*
X119624475Y-56588025D01*
X119884825Y-56586458D01*
X120145175Y-56584892D01*
X120379021Y-57028819D01*
X120415873Y-57098713D01*
X120451159Y-57165515D01*
X120484412Y-57228347D01*
X120515165Y-57286332D01*
X120542951Y-57338595D01*
X120567304Y-57384258D01*
X120587755Y-57422443D01*
X120603839Y-57452276D01*
X120615087Y-57472878D01*
X120621034Y-57483373D01*
X120621707Y-57484411D01*
X120623416Y-57485269D01*
X120624897Y-57482491D01*
X120626166Y-57475285D01*
X120627240Y-57462856D01*
X120628134Y-57444414D01*
X120628865Y-57419165D01*
X120629449Y-57386317D01*
X120629901Y-57345077D01*
X120630239Y-57294653D01*
X120630478Y-57234253D01*
X120630635Y-57163082D01*
X120630725Y-57080351D01*
X120630748Y-57040462D01*
X120630950Y-56584850D01*
X121107200Y-56584850D01*
X121107200Y-58286650D01*
D12*
X149546000Y-83880000D02*
X152206000Y-83880000D01*
X149546000Y-81280000D02*
X149546000Y-83880000D01*
X152206000Y-81280000D02*
X152206000Y-83880000D01*
X149546000Y-81280000D02*
X152206000Y-81280000D01*
X149546000Y-80010000D02*
X149546000Y-78680000D01*
X149546000Y-78680000D02*
X150876000Y-78680000D01*
X111753000Y-99370000D02*
X108893000Y-99370000D01*
X108893000Y-99370000D02*
X108893000Y-101290000D01*
X108893000Y-101290000D02*
X111753000Y-101290000D01*
X111735000Y-97084000D02*
X108875000Y-97084000D01*
X108875000Y-97084000D02*
X108875000Y-99004000D01*
X108875000Y-99004000D02*
X111735000Y-99004000D01*
X135718000Y-103180000D02*
X132858000Y-103180000D01*
X135718000Y-105100000D02*
X135718000Y-103180000D01*
X132858000Y-105100000D02*
X135718000Y-105100000D01*
X135718000Y-100894000D02*
X132858000Y-100894000D01*
X135718000Y-102814000D02*
X135718000Y-100894000D01*
X132858000Y-102814000D02*
X135718000Y-102814000D01*
X109488900Y-102046740D02*
X110288900Y-102046740D01*
X107038900Y-105296740D02*
X107338900Y-105296740D01*
X109888900Y-102496740D02*
X109488900Y-102046740D01*
X110288900Y-102046740D02*
X109888900Y-102496740D01*
X115038900Y-108096740D02*
X115038900Y-105296740D01*
X107338900Y-108096740D02*
X107338900Y-105296740D01*
X115338900Y-105296740D02*
X115338900Y-103746740D01*
X115038900Y-105296740D02*
X115338900Y-105296740D01*
X107038900Y-105296740D02*
X107038900Y-103746740D01*
X125028000Y-73854000D02*
X125028000Y-75184000D01*
X123698000Y-73854000D02*
X125028000Y-73854000D01*
X122428000Y-73854000D02*
X122428000Y-76514000D01*
X122428000Y-76514000D02*
X119828000Y-76514000D01*
X122428000Y-73854000D02*
X119828000Y-73854000D01*
X119828000Y-73854000D02*
X119828000Y-76514000D01*
X97596000Y-70298000D02*
X94936000Y-70298000D01*
X97596000Y-83058000D02*
X97596000Y-70298000D01*
X94936000Y-83058000D02*
X94936000Y-70298000D01*
X97596000Y-83058000D02*
X94936000Y-83058000D01*
X97596000Y-84328000D02*
X97596000Y-85658000D01*
X97596000Y-85658000D02*
X96266000Y-85658000D01*
X101533000Y-85658000D02*
X100203000Y-85658000D01*
X101533000Y-84328000D02*
X101533000Y-85658000D01*
X101533000Y-83058000D02*
X98873000Y-83058000D01*
X98873000Y-83058000D02*
X98873000Y-70298000D01*
X101533000Y-83058000D02*
X101533000Y-70298000D01*
X101533000Y-70298000D02*
X98873000Y-70298000D01*
X126636780Y-99372420D02*
X118381780Y-99372420D01*
X126636780Y-99372420D02*
X126636780Y-112453420D01*
X118381780Y-99372420D02*
X118381780Y-112453420D01*
X126636780Y-104452420D02*
X118381780Y-104452420D01*
X126636780Y-112453420D02*
X118381780Y-112453420D01*
X98604000Y-93082000D02*
X101654000Y-93082000D01*
X98604000Y-88782000D02*
X101654000Y-88782000D01*
X98625766Y-88766474D02*
G75*
G03*
X98604000Y-93082000I1528234J-2165526D01*
G01*
X101698513Y-93050249D02*
G75*
G03*
X101654000Y-88782000I-1544513J2118249D01*
G01*
D11*
X153503333Y-80752190D02*
X153503333Y-81109333D01*
X153479523Y-81180761D01*
X153431904Y-81228380D01*
X153360476Y-81252190D01*
X153312857Y-81252190D01*
X154003333Y-81252190D02*
X153717619Y-81252190D01*
X153860476Y-81252190D02*
X153860476Y-80752190D01*
X153812857Y-80823619D01*
X153765238Y-80871238D01*
X153717619Y-80895047D01*
X112678952Y-100556190D02*
X112678952Y-100056190D01*
X112798000Y-100056190D01*
X112869428Y-100080000D01*
X112917047Y-100127619D01*
X112940857Y-100175238D01*
X112964666Y-100270476D01*
X112964666Y-100341904D01*
X112940857Y-100437142D01*
X112917047Y-100484761D01*
X112869428Y-100532380D01*
X112798000Y-100556190D01*
X112678952Y-100556190D01*
X113440857Y-100556190D02*
X113155142Y-100556190D01*
X113298000Y-100556190D02*
X113298000Y-100056190D01*
X113250380Y-100127619D01*
X113202761Y-100175238D01*
X113155142Y-100199047D01*
X112651952Y-98270190D02*
X112651952Y-97770190D01*
X112771000Y-97770190D01*
X112842428Y-97794000D01*
X112890047Y-97841619D01*
X112913857Y-97889238D01*
X112937666Y-97984476D01*
X112937666Y-98055904D01*
X112913857Y-98151142D01*
X112890047Y-98198761D01*
X112842428Y-98246380D01*
X112771000Y-98270190D01*
X112651952Y-98270190D01*
X113128142Y-97817809D02*
X113151952Y-97794000D01*
X113199571Y-97770190D01*
X113318619Y-97770190D01*
X113366238Y-97794000D01*
X113390047Y-97817809D01*
X113413857Y-97865428D01*
X113413857Y-97913047D01*
X113390047Y-97984476D01*
X113104333Y-98270190D01*
X113413857Y-98270190D01*
X129678952Y-104493190D02*
X129678952Y-103993190D01*
X129798000Y-103993190D01*
X129869428Y-104017000D01*
X129917047Y-104064619D01*
X129940857Y-104112238D01*
X129964666Y-104207476D01*
X129964666Y-104278904D01*
X129940857Y-104374142D01*
X129917047Y-104421761D01*
X129869428Y-104469380D01*
X129798000Y-104493190D01*
X129678952Y-104493190D01*
X130131333Y-103993190D02*
X130440857Y-103993190D01*
X130274190Y-104183666D01*
X130345619Y-104183666D01*
X130393238Y-104207476D01*
X130417047Y-104231285D01*
X130440857Y-104278904D01*
X130440857Y-104397952D01*
X130417047Y-104445571D01*
X130393238Y-104469380D01*
X130345619Y-104493190D01*
X130202761Y-104493190D01*
X130155142Y-104469380D01*
X130131333Y-104445571D01*
X129678952Y-102080190D02*
X129678952Y-101580190D01*
X129798000Y-101580190D01*
X129869428Y-101604000D01*
X129917047Y-101651619D01*
X129940857Y-101699238D01*
X129964666Y-101794476D01*
X129964666Y-101865904D01*
X129940857Y-101961142D01*
X129917047Y-102008761D01*
X129869428Y-102056380D01*
X129798000Y-102080190D01*
X129678952Y-102080190D01*
X130393238Y-101746857D02*
X130393238Y-102080190D01*
X130274190Y-101556380D02*
X130155142Y-101913523D01*
X130464666Y-101913523D01*
X115911333Y-104882190D02*
X115911333Y-105239333D01*
X115887523Y-105310761D01*
X115839904Y-105358380D01*
X115768476Y-105382190D01*
X115720857Y-105382190D01*
X116101809Y-104882190D02*
X116411333Y-104882190D01*
X116244666Y-105072666D01*
X116316095Y-105072666D01*
X116363714Y-105096476D01*
X116387523Y-105120285D01*
X116411333Y-105167904D01*
X116411333Y-105286952D01*
X116387523Y-105334571D01*
X116363714Y-105358380D01*
X116316095Y-105382190D01*
X116173238Y-105382190D01*
X116125619Y-105358380D01*
X116101809Y-105334571D01*
X125861333Y-74910190D02*
X125861333Y-75267333D01*
X125837523Y-75338761D01*
X125789904Y-75386380D01*
X125718476Y-75410190D01*
X125670857Y-75410190D01*
X126313714Y-75076857D02*
X126313714Y-75410190D01*
X126194666Y-74886380D02*
X126075619Y-75243523D01*
X126385142Y-75243523D01*
X96099333Y-86384190D02*
X96099333Y-86741333D01*
X96075523Y-86812761D01*
X96027904Y-86860380D01*
X95956476Y-86884190D01*
X95908857Y-86884190D01*
X96575523Y-86384190D02*
X96337428Y-86384190D01*
X96313619Y-86622285D01*
X96337428Y-86598476D01*
X96385047Y-86574666D01*
X96504095Y-86574666D01*
X96551714Y-86598476D01*
X96575523Y-86622285D01*
X96599333Y-86669904D01*
X96599333Y-86788952D01*
X96575523Y-86836571D01*
X96551714Y-86860380D01*
X96504095Y-86884190D01*
X96385047Y-86884190D01*
X96337428Y-86860380D01*
X96313619Y-86836571D01*
X100036333Y-86384190D02*
X100036333Y-86741333D01*
X100012523Y-86812761D01*
X99964904Y-86860380D01*
X99893476Y-86884190D01*
X99845857Y-86884190D01*
X100488714Y-86384190D02*
X100393476Y-86384190D01*
X100345857Y-86408000D01*
X100322047Y-86431809D01*
X100274428Y-86503238D01*
X100250619Y-86598476D01*
X100250619Y-86788952D01*
X100274428Y-86836571D01*
X100298238Y-86860380D01*
X100345857Y-86884190D01*
X100441095Y-86884190D01*
X100488714Y-86860380D01*
X100512523Y-86836571D01*
X100536333Y-86788952D01*
X100536333Y-86669904D01*
X100512523Y-86622285D01*
X100488714Y-86598476D01*
X100441095Y-86574666D01*
X100345857Y-86574666D01*
X100298238Y-86598476D01*
X100274428Y-86622285D01*
X100250619Y-86669904D01*
X127087333Y-103485190D02*
X127087333Y-103842333D01*
X127063523Y-103913761D01*
X127015904Y-103961380D01*
X126944476Y-103985190D01*
X126896857Y-103985190D01*
X127301619Y-103532809D02*
X127325428Y-103509000D01*
X127373047Y-103485190D01*
X127492095Y-103485190D01*
X127539714Y-103509000D01*
X127563523Y-103532809D01*
X127587333Y-103580428D01*
X127587333Y-103628047D01*
X127563523Y-103699476D01*
X127277809Y-103985190D01*
X127587333Y-103985190D01*
X103802666Y-91158190D02*
X103636000Y-90920095D01*
X103516952Y-91158190D02*
X103516952Y-90658190D01*
X103707428Y-90658190D01*
X103755047Y-90682000D01*
X103778857Y-90705809D01*
X103802666Y-90753428D01*
X103802666Y-90824857D01*
X103778857Y-90872476D01*
X103755047Y-90896285D01*
X103707428Y-90920095D01*
X103516952Y-90920095D01*
X104088380Y-90872476D02*
X104040761Y-90848666D01*
X104016952Y-90824857D01*
X103993142Y-90777238D01*
X103993142Y-90753428D01*
X104016952Y-90705809D01*
X104040761Y-90682000D01*
X104088380Y-90658190D01*
X104183619Y-90658190D01*
X104231238Y-90682000D01*
X104255047Y-90705809D01*
X104278857Y-90753428D01*
X104278857Y-90777238D01*
X104255047Y-90824857D01*
X104231238Y-90848666D01*
X104183619Y-90872476D01*
X104088380Y-90872476D01*
X104040761Y-90896285D01*
X104016952Y-90920095D01*
X103993142Y-90967714D01*
X103993142Y-91062952D01*
X104016952Y-91110571D01*
X104040761Y-91134380D01*
X104088380Y-91158190D01*
X104183619Y-91158190D01*
X104231238Y-91134380D01*
X104255047Y-91110571D01*
X104278857Y-91062952D01*
X104278857Y-90967714D01*
X104255047Y-90920095D01*
X104231238Y-90896285D01*
X104183619Y-90872476D01*
M02*
