G04 #@! TF.GenerationSoftware,KiCad,Pcbnew,(5.1.4)-1*
G04 #@! TF.CreationDate,2019-11-25T22:33:41+01:00*
G04 #@! TF.ProjectId,STEM,5354454d-2e6b-4696-9361-645f70636258,A*
G04 #@! TF.SameCoordinates,Original*
G04 #@! TF.FileFunction,Copper,L1,Top*
G04 #@! TF.FilePolarity,Positive*
%FSLAX46Y46*%
G04 Gerber Fmt 4.6, Leading zero omitted, Abs format (unit mm)*
G04 Created by KiCad (PCBNEW (5.1.4)-1) date 2019-11-25 22:33:41*
%MOMM*%
%LPD*%
G04 APERTURE LIST*
%ADD10O,1.700000X1.700000*%
%ADD11R,1.700000X1.700000*%
%ADD12R,2.025000X2.275000*%
%ADD13R,1.524000X4.000000*%
%ADD14C,0.100000*%
%ADD15C,1.150000*%
%ADD16R,1.800000X0.450000*%
%ADD17C,0.800000*%
%ADD18C,0.400000*%
%ADD19C,1.000000*%
G04 APERTURE END LIST*
D10*
X147420000Y-121448000D03*
X147420000Y-118908000D03*
X147420000Y-116368000D03*
X147420000Y-113828000D03*
X147420000Y-111288000D03*
D11*
X147420000Y-108748000D03*
D12*
X102663000Y-119666800D03*
X107738000Y-110342800D03*
X107738000Y-119666800D03*
X102663000Y-110342800D03*
X120001000Y-133874400D03*
X125076000Y-124550400D03*
X125076000Y-133874400D03*
X120001000Y-124550400D03*
X137426000Y-119672000D03*
X142501000Y-110348000D03*
X142501000Y-119672000D03*
X137426000Y-110348000D03*
X120025000Y-104776800D03*
X125100000Y-95452800D03*
X125100000Y-104776800D03*
X120025000Y-95452800D03*
D13*
X119960000Y-139158000D03*
X122500000Y-139158000D03*
X125040000Y-139158000D03*
D14*
G36*
X116087465Y-116135464D02*
G01*
X116111733Y-116139064D01*
X116135532Y-116145025D01*
X116158631Y-116153290D01*
X116180810Y-116163780D01*
X116201853Y-116176392D01*
X116221559Y-116191007D01*
X116239737Y-116207483D01*
X116256213Y-116225661D01*
X116270828Y-116245367D01*
X116283440Y-116266410D01*
X116293930Y-116288589D01*
X116302195Y-116311688D01*
X116308156Y-116335487D01*
X116311756Y-116359755D01*
X116312960Y-116384259D01*
X116312960Y-117284261D01*
X116311756Y-117308765D01*
X116308156Y-117333033D01*
X116302195Y-117356832D01*
X116293930Y-117379931D01*
X116283440Y-117402110D01*
X116270828Y-117423153D01*
X116256213Y-117442859D01*
X116239737Y-117461037D01*
X116221559Y-117477513D01*
X116201853Y-117492128D01*
X116180810Y-117504740D01*
X116158631Y-117515230D01*
X116135532Y-117523495D01*
X116111733Y-117529456D01*
X116087465Y-117533056D01*
X116062961Y-117534260D01*
X115412959Y-117534260D01*
X115388455Y-117533056D01*
X115364187Y-117529456D01*
X115340388Y-117523495D01*
X115317289Y-117515230D01*
X115295110Y-117504740D01*
X115274067Y-117492128D01*
X115254361Y-117477513D01*
X115236183Y-117461037D01*
X115219707Y-117442859D01*
X115205092Y-117423153D01*
X115192480Y-117402110D01*
X115181990Y-117379931D01*
X115173725Y-117356832D01*
X115167764Y-117333033D01*
X115164164Y-117308765D01*
X115162960Y-117284261D01*
X115162960Y-116384259D01*
X115164164Y-116359755D01*
X115167764Y-116335487D01*
X115173725Y-116311688D01*
X115181990Y-116288589D01*
X115192480Y-116266410D01*
X115205092Y-116245367D01*
X115219707Y-116225661D01*
X115236183Y-116207483D01*
X115254361Y-116191007D01*
X115274067Y-116176392D01*
X115295110Y-116163780D01*
X115317289Y-116153290D01*
X115340388Y-116145025D01*
X115364187Y-116139064D01*
X115388455Y-116135464D01*
X115412959Y-116134260D01*
X116062961Y-116134260D01*
X116087465Y-116135464D01*
X116087465Y-116135464D01*
G37*
D15*
X115737960Y-116834260D03*
D14*
G36*
X114037465Y-116135464D02*
G01*
X114061733Y-116139064D01*
X114085532Y-116145025D01*
X114108631Y-116153290D01*
X114130810Y-116163780D01*
X114151853Y-116176392D01*
X114171559Y-116191007D01*
X114189737Y-116207483D01*
X114206213Y-116225661D01*
X114220828Y-116245367D01*
X114233440Y-116266410D01*
X114243930Y-116288589D01*
X114252195Y-116311688D01*
X114258156Y-116335487D01*
X114261756Y-116359755D01*
X114262960Y-116384259D01*
X114262960Y-117284261D01*
X114261756Y-117308765D01*
X114258156Y-117333033D01*
X114252195Y-117356832D01*
X114243930Y-117379931D01*
X114233440Y-117402110D01*
X114220828Y-117423153D01*
X114206213Y-117442859D01*
X114189737Y-117461037D01*
X114171559Y-117477513D01*
X114151853Y-117492128D01*
X114130810Y-117504740D01*
X114108631Y-117515230D01*
X114085532Y-117523495D01*
X114061733Y-117529456D01*
X114037465Y-117533056D01*
X114012961Y-117534260D01*
X113362959Y-117534260D01*
X113338455Y-117533056D01*
X113314187Y-117529456D01*
X113290388Y-117523495D01*
X113267289Y-117515230D01*
X113245110Y-117504740D01*
X113224067Y-117492128D01*
X113204361Y-117477513D01*
X113186183Y-117461037D01*
X113169707Y-117442859D01*
X113155092Y-117423153D01*
X113142480Y-117402110D01*
X113131990Y-117379931D01*
X113123725Y-117356832D01*
X113117764Y-117333033D01*
X113114164Y-117308765D01*
X113112960Y-117284261D01*
X113112960Y-116384259D01*
X113114164Y-116359755D01*
X113117764Y-116335487D01*
X113123725Y-116311688D01*
X113131990Y-116288589D01*
X113142480Y-116266410D01*
X113155092Y-116245367D01*
X113169707Y-116225661D01*
X113186183Y-116207483D01*
X113204361Y-116191007D01*
X113224067Y-116176392D01*
X113245110Y-116163780D01*
X113267289Y-116153290D01*
X113290388Y-116145025D01*
X113314187Y-116139064D01*
X113338455Y-116135464D01*
X113362959Y-116134260D01*
X114012961Y-116134260D01*
X114037465Y-116135464D01*
X114037465Y-116135464D01*
G37*
D15*
X113687960Y-116834260D03*
D14*
G36*
X116079005Y-126505444D02*
G01*
X116103273Y-126509044D01*
X116127072Y-126515005D01*
X116150171Y-126523270D01*
X116172350Y-126533760D01*
X116193393Y-126546372D01*
X116213099Y-126560987D01*
X116231277Y-126577463D01*
X116247753Y-126595641D01*
X116262368Y-126615347D01*
X116274980Y-126636390D01*
X116285470Y-126658569D01*
X116293735Y-126681668D01*
X116299696Y-126705467D01*
X116303296Y-126729735D01*
X116304500Y-126754239D01*
X116304500Y-127404241D01*
X116303296Y-127428745D01*
X116299696Y-127453013D01*
X116293735Y-127476812D01*
X116285470Y-127499911D01*
X116274980Y-127522090D01*
X116262368Y-127543133D01*
X116247753Y-127562839D01*
X116231277Y-127581017D01*
X116213099Y-127597493D01*
X116193393Y-127612108D01*
X116172350Y-127624720D01*
X116150171Y-127635210D01*
X116127072Y-127643475D01*
X116103273Y-127649436D01*
X116079005Y-127653036D01*
X116054501Y-127654240D01*
X115154499Y-127654240D01*
X115129995Y-127653036D01*
X115105727Y-127649436D01*
X115081928Y-127643475D01*
X115058829Y-127635210D01*
X115036650Y-127624720D01*
X115015607Y-127612108D01*
X114995901Y-127597493D01*
X114977723Y-127581017D01*
X114961247Y-127562839D01*
X114946632Y-127543133D01*
X114934020Y-127522090D01*
X114923530Y-127499911D01*
X114915265Y-127476812D01*
X114909304Y-127453013D01*
X114905704Y-127428745D01*
X114904500Y-127404241D01*
X114904500Y-126754239D01*
X114905704Y-126729735D01*
X114909304Y-126705467D01*
X114915265Y-126681668D01*
X114923530Y-126658569D01*
X114934020Y-126636390D01*
X114946632Y-126615347D01*
X114961247Y-126595641D01*
X114977723Y-126577463D01*
X114995901Y-126560987D01*
X115015607Y-126546372D01*
X115036650Y-126533760D01*
X115058829Y-126523270D01*
X115081928Y-126515005D01*
X115105727Y-126509044D01*
X115129995Y-126505444D01*
X115154499Y-126504240D01*
X116054501Y-126504240D01*
X116079005Y-126505444D01*
X116079005Y-126505444D01*
G37*
D15*
X115604500Y-127079240D03*
D14*
G36*
X116079005Y-128555444D02*
G01*
X116103273Y-128559044D01*
X116127072Y-128565005D01*
X116150171Y-128573270D01*
X116172350Y-128583760D01*
X116193393Y-128596372D01*
X116213099Y-128610987D01*
X116231277Y-128627463D01*
X116247753Y-128645641D01*
X116262368Y-128665347D01*
X116274980Y-128686390D01*
X116285470Y-128708569D01*
X116293735Y-128731668D01*
X116299696Y-128755467D01*
X116303296Y-128779735D01*
X116304500Y-128804239D01*
X116304500Y-129454241D01*
X116303296Y-129478745D01*
X116299696Y-129503013D01*
X116293735Y-129526812D01*
X116285470Y-129549911D01*
X116274980Y-129572090D01*
X116262368Y-129593133D01*
X116247753Y-129612839D01*
X116231277Y-129631017D01*
X116213099Y-129647493D01*
X116193393Y-129662108D01*
X116172350Y-129674720D01*
X116150171Y-129685210D01*
X116127072Y-129693475D01*
X116103273Y-129699436D01*
X116079005Y-129703036D01*
X116054501Y-129704240D01*
X115154499Y-129704240D01*
X115129995Y-129703036D01*
X115105727Y-129699436D01*
X115081928Y-129693475D01*
X115058829Y-129685210D01*
X115036650Y-129674720D01*
X115015607Y-129662108D01*
X114995901Y-129647493D01*
X114977723Y-129631017D01*
X114961247Y-129612839D01*
X114946632Y-129593133D01*
X114934020Y-129572090D01*
X114923530Y-129549911D01*
X114915265Y-129526812D01*
X114909304Y-129503013D01*
X114905704Y-129478745D01*
X114904500Y-129454241D01*
X114904500Y-128804239D01*
X114905704Y-128779735D01*
X114909304Y-128755467D01*
X114915265Y-128731668D01*
X114923530Y-128708569D01*
X114934020Y-128686390D01*
X114946632Y-128665347D01*
X114961247Y-128645641D01*
X114977723Y-128627463D01*
X114995901Y-128610987D01*
X115015607Y-128596372D01*
X115036650Y-128583760D01*
X115058829Y-128573270D01*
X115081928Y-128565005D01*
X115105727Y-128559044D01*
X115129995Y-128555444D01*
X115154499Y-128554240D01*
X116054501Y-128554240D01*
X116079005Y-128555444D01*
X116079005Y-128555444D01*
G37*
D15*
X115604500Y-129129240D03*
D14*
G36*
X130812785Y-116125304D02*
G01*
X130837053Y-116128904D01*
X130860852Y-116134865D01*
X130883951Y-116143130D01*
X130906130Y-116153620D01*
X130927173Y-116166232D01*
X130946879Y-116180847D01*
X130965057Y-116197323D01*
X130981533Y-116215501D01*
X130996148Y-116235207D01*
X131008760Y-116256250D01*
X131019250Y-116278429D01*
X131027515Y-116301528D01*
X131033476Y-116325327D01*
X131037076Y-116349595D01*
X131038280Y-116374099D01*
X131038280Y-117274101D01*
X131037076Y-117298605D01*
X131033476Y-117322873D01*
X131027515Y-117346672D01*
X131019250Y-117369771D01*
X131008760Y-117391950D01*
X130996148Y-117412993D01*
X130981533Y-117432699D01*
X130965057Y-117450877D01*
X130946879Y-117467353D01*
X130927173Y-117481968D01*
X130906130Y-117494580D01*
X130883951Y-117505070D01*
X130860852Y-117513335D01*
X130837053Y-117519296D01*
X130812785Y-117522896D01*
X130788281Y-117524100D01*
X130138279Y-117524100D01*
X130113775Y-117522896D01*
X130089507Y-117519296D01*
X130065708Y-117513335D01*
X130042609Y-117505070D01*
X130020430Y-117494580D01*
X129999387Y-117481968D01*
X129979681Y-117467353D01*
X129961503Y-117450877D01*
X129945027Y-117432699D01*
X129930412Y-117412993D01*
X129917800Y-117391950D01*
X129907310Y-117369771D01*
X129899045Y-117346672D01*
X129893084Y-117322873D01*
X129889484Y-117298605D01*
X129888280Y-117274101D01*
X129888280Y-116374099D01*
X129889484Y-116349595D01*
X129893084Y-116325327D01*
X129899045Y-116301528D01*
X129907310Y-116278429D01*
X129917800Y-116256250D01*
X129930412Y-116235207D01*
X129945027Y-116215501D01*
X129961503Y-116197323D01*
X129979681Y-116180847D01*
X129999387Y-116166232D01*
X130020430Y-116153620D01*
X130042609Y-116143130D01*
X130065708Y-116134865D01*
X130089507Y-116128904D01*
X130113775Y-116125304D01*
X130138279Y-116124100D01*
X130788281Y-116124100D01*
X130812785Y-116125304D01*
X130812785Y-116125304D01*
G37*
D15*
X130463280Y-116824100D03*
D14*
G36*
X132862785Y-116125304D02*
G01*
X132887053Y-116128904D01*
X132910852Y-116134865D01*
X132933951Y-116143130D01*
X132956130Y-116153620D01*
X132977173Y-116166232D01*
X132996879Y-116180847D01*
X133015057Y-116197323D01*
X133031533Y-116215501D01*
X133046148Y-116235207D01*
X133058760Y-116256250D01*
X133069250Y-116278429D01*
X133077515Y-116301528D01*
X133083476Y-116325327D01*
X133087076Y-116349595D01*
X133088280Y-116374099D01*
X133088280Y-117274101D01*
X133087076Y-117298605D01*
X133083476Y-117322873D01*
X133077515Y-117346672D01*
X133069250Y-117369771D01*
X133058760Y-117391950D01*
X133046148Y-117412993D01*
X133031533Y-117432699D01*
X133015057Y-117450877D01*
X132996879Y-117467353D01*
X132977173Y-117481968D01*
X132956130Y-117494580D01*
X132933951Y-117505070D01*
X132910852Y-117513335D01*
X132887053Y-117519296D01*
X132862785Y-117522896D01*
X132838281Y-117524100D01*
X132188279Y-117524100D01*
X132163775Y-117522896D01*
X132139507Y-117519296D01*
X132115708Y-117513335D01*
X132092609Y-117505070D01*
X132070430Y-117494580D01*
X132049387Y-117481968D01*
X132029681Y-117467353D01*
X132011503Y-117450877D01*
X131995027Y-117432699D01*
X131980412Y-117412993D01*
X131967800Y-117391950D01*
X131957310Y-117369771D01*
X131949045Y-117346672D01*
X131943084Y-117322873D01*
X131939484Y-117298605D01*
X131938280Y-117274101D01*
X131938280Y-116374099D01*
X131939484Y-116349595D01*
X131943084Y-116325327D01*
X131949045Y-116301528D01*
X131957310Y-116278429D01*
X131967800Y-116256250D01*
X131980412Y-116235207D01*
X131995027Y-116215501D01*
X132011503Y-116197323D01*
X132029681Y-116180847D01*
X132049387Y-116166232D01*
X132070430Y-116153620D01*
X132092609Y-116143130D01*
X132115708Y-116134865D01*
X132139507Y-116128904D01*
X132163775Y-116125304D01*
X132188279Y-116124100D01*
X132838281Y-116124100D01*
X132862785Y-116125304D01*
X132862785Y-116125304D01*
G37*
D15*
X132513280Y-116824100D03*
D14*
G36*
X131720325Y-97590084D02*
G01*
X131744593Y-97593684D01*
X131768392Y-97599645D01*
X131791491Y-97607910D01*
X131813670Y-97618400D01*
X131834713Y-97631012D01*
X131854419Y-97645627D01*
X131872597Y-97662103D01*
X131889073Y-97680281D01*
X131903688Y-97699987D01*
X131916300Y-97721030D01*
X131926790Y-97743209D01*
X131935055Y-97766308D01*
X131941016Y-97790107D01*
X131944616Y-97814375D01*
X131945820Y-97838879D01*
X131945820Y-98488881D01*
X131944616Y-98513385D01*
X131941016Y-98537653D01*
X131935055Y-98561452D01*
X131926790Y-98584551D01*
X131916300Y-98606730D01*
X131903688Y-98627773D01*
X131889073Y-98647479D01*
X131872597Y-98665657D01*
X131854419Y-98682133D01*
X131834713Y-98696748D01*
X131813670Y-98709360D01*
X131791491Y-98719850D01*
X131768392Y-98728115D01*
X131744593Y-98734076D01*
X131720325Y-98737676D01*
X131695821Y-98738880D01*
X130795819Y-98738880D01*
X130771315Y-98737676D01*
X130747047Y-98734076D01*
X130723248Y-98728115D01*
X130700149Y-98719850D01*
X130677970Y-98709360D01*
X130656927Y-98696748D01*
X130637221Y-98682133D01*
X130619043Y-98665657D01*
X130602567Y-98647479D01*
X130587952Y-98627773D01*
X130575340Y-98606730D01*
X130564850Y-98584551D01*
X130556585Y-98561452D01*
X130550624Y-98537653D01*
X130547024Y-98513385D01*
X130545820Y-98488881D01*
X130545820Y-97838879D01*
X130547024Y-97814375D01*
X130550624Y-97790107D01*
X130556585Y-97766308D01*
X130564850Y-97743209D01*
X130575340Y-97721030D01*
X130587952Y-97699987D01*
X130602567Y-97680281D01*
X130619043Y-97662103D01*
X130637221Y-97645627D01*
X130656927Y-97631012D01*
X130677970Y-97618400D01*
X130700149Y-97607910D01*
X130723248Y-97599645D01*
X130747047Y-97593684D01*
X130771315Y-97590084D01*
X130795819Y-97588880D01*
X131695821Y-97588880D01*
X131720325Y-97590084D01*
X131720325Y-97590084D01*
G37*
D15*
X131245820Y-98163880D03*
D14*
G36*
X131720325Y-99640084D02*
G01*
X131744593Y-99643684D01*
X131768392Y-99649645D01*
X131791491Y-99657910D01*
X131813670Y-99668400D01*
X131834713Y-99681012D01*
X131854419Y-99695627D01*
X131872597Y-99712103D01*
X131889073Y-99730281D01*
X131903688Y-99749987D01*
X131916300Y-99771030D01*
X131926790Y-99793209D01*
X131935055Y-99816308D01*
X131941016Y-99840107D01*
X131944616Y-99864375D01*
X131945820Y-99888879D01*
X131945820Y-100538881D01*
X131944616Y-100563385D01*
X131941016Y-100587653D01*
X131935055Y-100611452D01*
X131926790Y-100634551D01*
X131916300Y-100656730D01*
X131903688Y-100677773D01*
X131889073Y-100697479D01*
X131872597Y-100715657D01*
X131854419Y-100732133D01*
X131834713Y-100746748D01*
X131813670Y-100759360D01*
X131791491Y-100769850D01*
X131768392Y-100778115D01*
X131744593Y-100784076D01*
X131720325Y-100787676D01*
X131695821Y-100788880D01*
X130795819Y-100788880D01*
X130771315Y-100787676D01*
X130747047Y-100784076D01*
X130723248Y-100778115D01*
X130700149Y-100769850D01*
X130677970Y-100759360D01*
X130656927Y-100746748D01*
X130637221Y-100732133D01*
X130619043Y-100715657D01*
X130602567Y-100697479D01*
X130587952Y-100677773D01*
X130575340Y-100656730D01*
X130564850Y-100634551D01*
X130556585Y-100611452D01*
X130550624Y-100587653D01*
X130547024Y-100563385D01*
X130545820Y-100538881D01*
X130545820Y-99888879D01*
X130547024Y-99864375D01*
X130550624Y-99840107D01*
X130556585Y-99816308D01*
X130564850Y-99793209D01*
X130575340Y-99771030D01*
X130587952Y-99749987D01*
X130602567Y-99730281D01*
X130619043Y-99712103D01*
X130637221Y-99695627D01*
X130656927Y-99681012D01*
X130677970Y-99668400D01*
X130700149Y-99657910D01*
X130723248Y-99649645D01*
X130747047Y-99643684D01*
X130771315Y-99640084D01*
X130795819Y-99638880D01*
X131695821Y-99638880D01*
X131720325Y-99640084D01*
X131720325Y-99640084D01*
G37*
D15*
X131245820Y-100213880D03*
D14*
G36*
X104974505Y-125499204D02*
G01*
X104998773Y-125502804D01*
X105022572Y-125508765D01*
X105045671Y-125517030D01*
X105067850Y-125527520D01*
X105088893Y-125540132D01*
X105108599Y-125554747D01*
X105126777Y-125571223D01*
X105143253Y-125589401D01*
X105157868Y-125609107D01*
X105170480Y-125630150D01*
X105180970Y-125652329D01*
X105189235Y-125675428D01*
X105195196Y-125699227D01*
X105198796Y-125723495D01*
X105200000Y-125747999D01*
X105200000Y-126648001D01*
X105198796Y-126672505D01*
X105195196Y-126696773D01*
X105189235Y-126720572D01*
X105180970Y-126743671D01*
X105170480Y-126765850D01*
X105157868Y-126786893D01*
X105143253Y-126806599D01*
X105126777Y-126824777D01*
X105108599Y-126841253D01*
X105088893Y-126855868D01*
X105067850Y-126868480D01*
X105045671Y-126878970D01*
X105022572Y-126887235D01*
X104998773Y-126893196D01*
X104974505Y-126896796D01*
X104950001Y-126898000D01*
X104299999Y-126898000D01*
X104275495Y-126896796D01*
X104251227Y-126893196D01*
X104227428Y-126887235D01*
X104204329Y-126878970D01*
X104182150Y-126868480D01*
X104161107Y-126855868D01*
X104141401Y-126841253D01*
X104123223Y-126824777D01*
X104106747Y-126806599D01*
X104092132Y-126786893D01*
X104079520Y-126765850D01*
X104069030Y-126743671D01*
X104060765Y-126720572D01*
X104054804Y-126696773D01*
X104051204Y-126672505D01*
X104050000Y-126648001D01*
X104050000Y-125747999D01*
X104051204Y-125723495D01*
X104054804Y-125699227D01*
X104060765Y-125675428D01*
X104069030Y-125652329D01*
X104079520Y-125630150D01*
X104092132Y-125609107D01*
X104106747Y-125589401D01*
X104123223Y-125571223D01*
X104141401Y-125554747D01*
X104161107Y-125540132D01*
X104182150Y-125527520D01*
X104204329Y-125517030D01*
X104227428Y-125508765D01*
X104251227Y-125502804D01*
X104275495Y-125499204D01*
X104299999Y-125498000D01*
X104950001Y-125498000D01*
X104974505Y-125499204D01*
X104974505Y-125499204D01*
G37*
D15*
X104625000Y-126198000D03*
D14*
G36*
X102924505Y-125499204D02*
G01*
X102948773Y-125502804D01*
X102972572Y-125508765D01*
X102995671Y-125517030D01*
X103017850Y-125527520D01*
X103038893Y-125540132D01*
X103058599Y-125554747D01*
X103076777Y-125571223D01*
X103093253Y-125589401D01*
X103107868Y-125609107D01*
X103120480Y-125630150D01*
X103130970Y-125652329D01*
X103139235Y-125675428D01*
X103145196Y-125699227D01*
X103148796Y-125723495D01*
X103150000Y-125747999D01*
X103150000Y-126648001D01*
X103148796Y-126672505D01*
X103145196Y-126696773D01*
X103139235Y-126720572D01*
X103130970Y-126743671D01*
X103120480Y-126765850D01*
X103107868Y-126786893D01*
X103093253Y-126806599D01*
X103076777Y-126824777D01*
X103058599Y-126841253D01*
X103038893Y-126855868D01*
X103017850Y-126868480D01*
X102995671Y-126878970D01*
X102972572Y-126887235D01*
X102948773Y-126893196D01*
X102924505Y-126896796D01*
X102900001Y-126898000D01*
X102249999Y-126898000D01*
X102225495Y-126896796D01*
X102201227Y-126893196D01*
X102177428Y-126887235D01*
X102154329Y-126878970D01*
X102132150Y-126868480D01*
X102111107Y-126855868D01*
X102091401Y-126841253D01*
X102073223Y-126824777D01*
X102056747Y-126806599D01*
X102042132Y-126786893D01*
X102029520Y-126765850D01*
X102019030Y-126743671D01*
X102010765Y-126720572D01*
X102004804Y-126696773D01*
X102001204Y-126672505D01*
X102000000Y-126648001D01*
X102000000Y-125747999D01*
X102001204Y-125723495D01*
X102004804Y-125699227D01*
X102010765Y-125675428D01*
X102019030Y-125652329D01*
X102029520Y-125630150D01*
X102042132Y-125609107D01*
X102056747Y-125589401D01*
X102073223Y-125571223D01*
X102091401Y-125554747D01*
X102111107Y-125540132D01*
X102132150Y-125527520D01*
X102154329Y-125517030D01*
X102177428Y-125508765D01*
X102201227Y-125502804D01*
X102225495Y-125499204D01*
X102249999Y-125498000D01*
X102900001Y-125498000D01*
X102924505Y-125499204D01*
X102924505Y-125499204D01*
G37*
D15*
X102575000Y-126198000D03*
D14*
G36*
X109054505Y-125469204D02*
G01*
X109078773Y-125472804D01*
X109102572Y-125478765D01*
X109125671Y-125487030D01*
X109147850Y-125497520D01*
X109168893Y-125510132D01*
X109188599Y-125524747D01*
X109206777Y-125541223D01*
X109223253Y-125559401D01*
X109237868Y-125579107D01*
X109250480Y-125600150D01*
X109260970Y-125622329D01*
X109269235Y-125645428D01*
X109275196Y-125669227D01*
X109278796Y-125693495D01*
X109280000Y-125717999D01*
X109280000Y-126618001D01*
X109278796Y-126642505D01*
X109275196Y-126666773D01*
X109269235Y-126690572D01*
X109260970Y-126713671D01*
X109250480Y-126735850D01*
X109237868Y-126756893D01*
X109223253Y-126776599D01*
X109206777Y-126794777D01*
X109188599Y-126811253D01*
X109168893Y-126825868D01*
X109147850Y-126838480D01*
X109125671Y-126848970D01*
X109102572Y-126857235D01*
X109078773Y-126863196D01*
X109054505Y-126866796D01*
X109030001Y-126868000D01*
X108379999Y-126868000D01*
X108355495Y-126866796D01*
X108331227Y-126863196D01*
X108307428Y-126857235D01*
X108284329Y-126848970D01*
X108262150Y-126838480D01*
X108241107Y-126825868D01*
X108221401Y-126811253D01*
X108203223Y-126794777D01*
X108186747Y-126776599D01*
X108172132Y-126756893D01*
X108159520Y-126735850D01*
X108149030Y-126713671D01*
X108140765Y-126690572D01*
X108134804Y-126666773D01*
X108131204Y-126642505D01*
X108130000Y-126618001D01*
X108130000Y-125717999D01*
X108131204Y-125693495D01*
X108134804Y-125669227D01*
X108140765Y-125645428D01*
X108149030Y-125622329D01*
X108159520Y-125600150D01*
X108172132Y-125579107D01*
X108186747Y-125559401D01*
X108203223Y-125541223D01*
X108221401Y-125524747D01*
X108241107Y-125510132D01*
X108262150Y-125497520D01*
X108284329Y-125487030D01*
X108307428Y-125478765D01*
X108331227Y-125472804D01*
X108355495Y-125469204D01*
X108379999Y-125468000D01*
X109030001Y-125468000D01*
X109054505Y-125469204D01*
X109054505Y-125469204D01*
G37*
D15*
X108705000Y-126168000D03*
D14*
G36*
X107004505Y-125469204D02*
G01*
X107028773Y-125472804D01*
X107052572Y-125478765D01*
X107075671Y-125487030D01*
X107097850Y-125497520D01*
X107118893Y-125510132D01*
X107138599Y-125524747D01*
X107156777Y-125541223D01*
X107173253Y-125559401D01*
X107187868Y-125579107D01*
X107200480Y-125600150D01*
X107210970Y-125622329D01*
X107219235Y-125645428D01*
X107225196Y-125669227D01*
X107228796Y-125693495D01*
X107230000Y-125717999D01*
X107230000Y-126618001D01*
X107228796Y-126642505D01*
X107225196Y-126666773D01*
X107219235Y-126690572D01*
X107210970Y-126713671D01*
X107200480Y-126735850D01*
X107187868Y-126756893D01*
X107173253Y-126776599D01*
X107156777Y-126794777D01*
X107138599Y-126811253D01*
X107118893Y-126825868D01*
X107097850Y-126838480D01*
X107075671Y-126848970D01*
X107052572Y-126857235D01*
X107028773Y-126863196D01*
X107004505Y-126866796D01*
X106980001Y-126868000D01*
X106329999Y-126868000D01*
X106305495Y-126866796D01*
X106281227Y-126863196D01*
X106257428Y-126857235D01*
X106234329Y-126848970D01*
X106212150Y-126838480D01*
X106191107Y-126825868D01*
X106171401Y-126811253D01*
X106153223Y-126794777D01*
X106136747Y-126776599D01*
X106122132Y-126756893D01*
X106109520Y-126735850D01*
X106099030Y-126713671D01*
X106090765Y-126690572D01*
X106084804Y-126666773D01*
X106081204Y-126642505D01*
X106080000Y-126618001D01*
X106080000Y-125717999D01*
X106081204Y-125693495D01*
X106084804Y-125669227D01*
X106090765Y-125645428D01*
X106099030Y-125622329D01*
X106109520Y-125600150D01*
X106122132Y-125579107D01*
X106136747Y-125559401D01*
X106153223Y-125541223D01*
X106171401Y-125524747D01*
X106191107Y-125510132D01*
X106212150Y-125497520D01*
X106234329Y-125487030D01*
X106257428Y-125478765D01*
X106281227Y-125472804D01*
X106305495Y-125469204D01*
X106329999Y-125468000D01*
X106980001Y-125468000D01*
X107004505Y-125469204D01*
X107004505Y-125469204D01*
G37*
D15*
X106655000Y-126168000D03*
D14*
G36*
X114049505Y-118289604D02*
G01*
X114073773Y-118293204D01*
X114097572Y-118299165D01*
X114120671Y-118307430D01*
X114142850Y-118317920D01*
X114163893Y-118330532D01*
X114183599Y-118345147D01*
X114201777Y-118361623D01*
X114218253Y-118379801D01*
X114232868Y-118399507D01*
X114245480Y-118420550D01*
X114255970Y-118442729D01*
X114264235Y-118465828D01*
X114270196Y-118489627D01*
X114273796Y-118513895D01*
X114275000Y-118538399D01*
X114275000Y-119438401D01*
X114273796Y-119462905D01*
X114270196Y-119487173D01*
X114264235Y-119510972D01*
X114255970Y-119534071D01*
X114245480Y-119556250D01*
X114232868Y-119577293D01*
X114218253Y-119596999D01*
X114201777Y-119615177D01*
X114183599Y-119631653D01*
X114163893Y-119646268D01*
X114142850Y-119658880D01*
X114120671Y-119669370D01*
X114097572Y-119677635D01*
X114073773Y-119683596D01*
X114049505Y-119687196D01*
X114025001Y-119688400D01*
X113374999Y-119688400D01*
X113350495Y-119687196D01*
X113326227Y-119683596D01*
X113302428Y-119677635D01*
X113279329Y-119669370D01*
X113257150Y-119658880D01*
X113236107Y-119646268D01*
X113216401Y-119631653D01*
X113198223Y-119615177D01*
X113181747Y-119596999D01*
X113167132Y-119577293D01*
X113154520Y-119556250D01*
X113144030Y-119534071D01*
X113135765Y-119510972D01*
X113129804Y-119487173D01*
X113126204Y-119462905D01*
X113125000Y-119438401D01*
X113125000Y-118538399D01*
X113126204Y-118513895D01*
X113129804Y-118489627D01*
X113135765Y-118465828D01*
X113144030Y-118442729D01*
X113154520Y-118420550D01*
X113167132Y-118399507D01*
X113181747Y-118379801D01*
X113198223Y-118361623D01*
X113216401Y-118345147D01*
X113236107Y-118330532D01*
X113257150Y-118317920D01*
X113279329Y-118307430D01*
X113302428Y-118299165D01*
X113326227Y-118293204D01*
X113350495Y-118289604D01*
X113374999Y-118288400D01*
X114025001Y-118288400D01*
X114049505Y-118289604D01*
X114049505Y-118289604D01*
G37*
D15*
X113700000Y-118988400D03*
D14*
G36*
X116099505Y-118289604D02*
G01*
X116123773Y-118293204D01*
X116147572Y-118299165D01*
X116170671Y-118307430D01*
X116192850Y-118317920D01*
X116213893Y-118330532D01*
X116233599Y-118345147D01*
X116251777Y-118361623D01*
X116268253Y-118379801D01*
X116282868Y-118399507D01*
X116295480Y-118420550D01*
X116305970Y-118442729D01*
X116314235Y-118465828D01*
X116320196Y-118489627D01*
X116323796Y-118513895D01*
X116325000Y-118538399D01*
X116325000Y-119438401D01*
X116323796Y-119462905D01*
X116320196Y-119487173D01*
X116314235Y-119510972D01*
X116305970Y-119534071D01*
X116295480Y-119556250D01*
X116282868Y-119577293D01*
X116268253Y-119596999D01*
X116251777Y-119615177D01*
X116233599Y-119631653D01*
X116213893Y-119646268D01*
X116192850Y-119658880D01*
X116170671Y-119669370D01*
X116147572Y-119677635D01*
X116123773Y-119683596D01*
X116099505Y-119687196D01*
X116075001Y-119688400D01*
X115424999Y-119688400D01*
X115400495Y-119687196D01*
X115376227Y-119683596D01*
X115352428Y-119677635D01*
X115329329Y-119669370D01*
X115307150Y-119658880D01*
X115286107Y-119646268D01*
X115266401Y-119631653D01*
X115248223Y-119615177D01*
X115231747Y-119596999D01*
X115217132Y-119577293D01*
X115204520Y-119556250D01*
X115194030Y-119534071D01*
X115185765Y-119510972D01*
X115179804Y-119487173D01*
X115176204Y-119462905D01*
X115175000Y-119438401D01*
X115175000Y-118538399D01*
X115176204Y-118513895D01*
X115179804Y-118489627D01*
X115185765Y-118465828D01*
X115194030Y-118442729D01*
X115204520Y-118420550D01*
X115217132Y-118399507D01*
X115231747Y-118379801D01*
X115248223Y-118361623D01*
X115266401Y-118345147D01*
X115286107Y-118330532D01*
X115307150Y-118317920D01*
X115329329Y-118307430D01*
X115352428Y-118299165D01*
X115376227Y-118293204D01*
X115400495Y-118289604D01*
X115424999Y-118288400D01*
X116075001Y-118288400D01*
X116099505Y-118289604D01*
X116099505Y-118289604D01*
G37*
D15*
X115750000Y-118988400D03*
D14*
G36*
X114024505Y-110539204D02*
G01*
X114048773Y-110542804D01*
X114072572Y-110548765D01*
X114095671Y-110557030D01*
X114117850Y-110567520D01*
X114138893Y-110580132D01*
X114158599Y-110594747D01*
X114176777Y-110611223D01*
X114193253Y-110629401D01*
X114207868Y-110649107D01*
X114220480Y-110670150D01*
X114230970Y-110692329D01*
X114239235Y-110715428D01*
X114245196Y-110739227D01*
X114248796Y-110763495D01*
X114250000Y-110787999D01*
X114250000Y-111688001D01*
X114248796Y-111712505D01*
X114245196Y-111736773D01*
X114239235Y-111760572D01*
X114230970Y-111783671D01*
X114220480Y-111805850D01*
X114207868Y-111826893D01*
X114193253Y-111846599D01*
X114176777Y-111864777D01*
X114158599Y-111881253D01*
X114138893Y-111895868D01*
X114117850Y-111908480D01*
X114095671Y-111918970D01*
X114072572Y-111927235D01*
X114048773Y-111933196D01*
X114024505Y-111936796D01*
X114000001Y-111938000D01*
X113349999Y-111938000D01*
X113325495Y-111936796D01*
X113301227Y-111933196D01*
X113277428Y-111927235D01*
X113254329Y-111918970D01*
X113232150Y-111908480D01*
X113211107Y-111895868D01*
X113191401Y-111881253D01*
X113173223Y-111864777D01*
X113156747Y-111846599D01*
X113142132Y-111826893D01*
X113129520Y-111805850D01*
X113119030Y-111783671D01*
X113110765Y-111760572D01*
X113104804Y-111736773D01*
X113101204Y-111712505D01*
X113100000Y-111688001D01*
X113100000Y-110787999D01*
X113101204Y-110763495D01*
X113104804Y-110739227D01*
X113110765Y-110715428D01*
X113119030Y-110692329D01*
X113129520Y-110670150D01*
X113142132Y-110649107D01*
X113156747Y-110629401D01*
X113173223Y-110611223D01*
X113191401Y-110594747D01*
X113211107Y-110580132D01*
X113232150Y-110567520D01*
X113254329Y-110557030D01*
X113277428Y-110548765D01*
X113301227Y-110542804D01*
X113325495Y-110539204D01*
X113349999Y-110538000D01*
X114000001Y-110538000D01*
X114024505Y-110539204D01*
X114024505Y-110539204D01*
G37*
D15*
X113675000Y-111238000D03*
D14*
G36*
X116074505Y-110539204D02*
G01*
X116098773Y-110542804D01*
X116122572Y-110548765D01*
X116145671Y-110557030D01*
X116167850Y-110567520D01*
X116188893Y-110580132D01*
X116208599Y-110594747D01*
X116226777Y-110611223D01*
X116243253Y-110629401D01*
X116257868Y-110649107D01*
X116270480Y-110670150D01*
X116280970Y-110692329D01*
X116289235Y-110715428D01*
X116295196Y-110739227D01*
X116298796Y-110763495D01*
X116300000Y-110787999D01*
X116300000Y-111688001D01*
X116298796Y-111712505D01*
X116295196Y-111736773D01*
X116289235Y-111760572D01*
X116280970Y-111783671D01*
X116270480Y-111805850D01*
X116257868Y-111826893D01*
X116243253Y-111846599D01*
X116226777Y-111864777D01*
X116208599Y-111881253D01*
X116188893Y-111895868D01*
X116167850Y-111908480D01*
X116145671Y-111918970D01*
X116122572Y-111927235D01*
X116098773Y-111933196D01*
X116074505Y-111936796D01*
X116050001Y-111938000D01*
X115399999Y-111938000D01*
X115375495Y-111936796D01*
X115351227Y-111933196D01*
X115327428Y-111927235D01*
X115304329Y-111918970D01*
X115282150Y-111908480D01*
X115261107Y-111895868D01*
X115241401Y-111881253D01*
X115223223Y-111864777D01*
X115206747Y-111846599D01*
X115192132Y-111826893D01*
X115179520Y-111805850D01*
X115169030Y-111783671D01*
X115160765Y-111760572D01*
X115154804Y-111736773D01*
X115151204Y-111712505D01*
X115150000Y-111688001D01*
X115150000Y-110787999D01*
X115151204Y-110763495D01*
X115154804Y-110739227D01*
X115160765Y-110715428D01*
X115169030Y-110692329D01*
X115179520Y-110670150D01*
X115192132Y-110649107D01*
X115206747Y-110629401D01*
X115223223Y-110611223D01*
X115241401Y-110594747D01*
X115261107Y-110580132D01*
X115282150Y-110567520D01*
X115304329Y-110557030D01*
X115327428Y-110548765D01*
X115351227Y-110542804D01*
X115375495Y-110539204D01*
X115399999Y-110538000D01*
X116050001Y-110538000D01*
X116074505Y-110539204D01*
X116074505Y-110539204D01*
G37*
D15*
X115725000Y-111238000D03*
D14*
G36*
X113950485Y-128603704D02*
G01*
X113974753Y-128607304D01*
X113998552Y-128613265D01*
X114021651Y-128621530D01*
X114043830Y-128632020D01*
X114064873Y-128644632D01*
X114084579Y-128659247D01*
X114102757Y-128675723D01*
X114119233Y-128693901D01*
X114133848Y-128713607D01*
X114146460Y-128734650D01*
X114156950Y-128756829D01*
X114165215Y-128779928D01*
X114171176Y-128803727D01*
X114174776Y-128827995D01*
X114175980Y-128852499D01*
X114175980Y-129502501D01*
X114174776Y-129527005D01*
X114171176Y-129551273D01*
X114165215Y-129575072D01*
X114156950Y-129598171D01*
X114146460Y-129620350D01*
X114133848Y-129641393D01*
X114119233Y-129661099D01*
X114102757Y-129679277D01*
X114084579Y-129695753D01*
X114064873Y-129710368D01*
X114043830Y-129722980D01*
X114021651Y-129733470D01*
X113998552Y-129741735D01*
X113974753Y-129747696D01*
X113950485Y-129751296D01*
X113925981Y-129752500D01*
X113025979Y-129752500D01*
X113001475Y-129751296D01*
X112977207Y-129747696D01*
X112953408Y-129741735D01*
X112930309Y-129733470D01*
X112908130Y-129722980D01*
X112887087Y-129710368D01*
X112867381Y-129695753D01*
X112849203Y-129679277D01*
X112832727Y-129661099D01*
X112818112Y-129641393D01*
X112805500Y-129620350D01*
X112795010Y-129598171D01*
X112786745Y-129575072D01*
X112780784Y-129551273D01*
X112777184Y-129527005D01*
X112775980Y-129502501D01*
X112775980Y-128852499D01*
X112777184Y-128827995D01*
X112780784Y-128803727D01*
X112786745Y-128779928D01*
X112795010Y-128756829D01*
X112805500Y-128734650D01*
X112818112Y-128713607D01*
X112832727Y-128693901D01*
X112849203Y-128675723D01*
X112867381Y-128659247D01*
X112887087Y-128644632D01*
X112908130Y-128632020D01*
X112930309Y-128621530D01*
X112953408Y-128613265D01*
X112977207Y-128607304D01*
X113001475Y-128603704D01*
X113025979Y-128602500D01*
X113925981Y-128602500D01*
X113950485Y-128603704D01*
X113950485Y-128603704D01*
G37*
D15*
X113475980Y-129177500D03*
D14*
G36*
X113950485Y-126553704D02*
G01*
X113974753Y-126557304D01*
X113998552Y-126563265D01*
X114021651Y-126571530D01*
X114043830Y-126582020D01*
X114064873Y-126594632D01*
X114084579Y-126609247D01*
X114102757Y-126625723D01*
X114119233Y-126643901D01*
X114133848Y-126663607D01*
X114146460Y-126684650D01*
X114156950Y-126706829D01*
X114165215Y-126729928D01*
X114171176Y-126753727D01*
X114174776Y-126777995D01*
X114175980Y-126802499D01*
X114175980Y-127452501D01*
X114174776Y-127477005D01*
X114171176Y-127501273D01*
X114165215Y-127525072D01*
X114156950Y-127548171D01*
X114146460Y-127570350D01*
X114133848Y-127591393D01*
X114119233Y-127611099D01*
X114102757Y-127629277D01*
X114084579Y-127645753D01*
X114064873Y-127660368D01*
X114043830Y-127672980D01*
X114021651Y-127683470D01*
X113998552Y-127691735D01*
X113974753Y-127697696D01*
X113950485Y-127701296D01*
X113925981Y-127702500D01*
X113025979Y-127702500D01*
X113001475Y-127701296D01*
X112977207Y-127697696D01*
X112953408Y-127691735D01*
X112930309Y-127683470D01*
X112908130Y-127672980D01*
X112887087Y-127660368D01*
X112867381Y-127645753D01*
X112849203Y-127629277D01*
X112832727Y-127611099D01*
X112818112Y-127591393D01*
X112805500Y-127570350D01*
X112795010Y-127548171D01*
X112786745Y-127525072D01*
X112780784Y-127501273D01*
X112777184Y-127477005D01*
X112775980Y-127452501D01*
X112775980Y-126802499D01*
X112777184Y-126777995D01*
X112780784Y-126753727D01*
X112786745Y-126729928D01*
X112795010Y-126706829D01*
X112805500Y-126684650D01*
X112818112Y-126663607D01*
X112832727Y-126643901D01*
X112849203Y-126625723D01*
X112867381Y-126609247D01*
X112887087Y-126594632D01*
X112908130Y-126582020D01*
X112930309Y-126571530D01*
X112953408Y-126563265D01*
X112977207Y-126557304D01*
X113001475Y-126553704D01*
X113025979Y-126552500D01*
X113925981Y-126552500D01*
X113950485Y-126553704D01*
X113950485Y-126553704D01*
G37*
D15*
X113475980Y-127127500D03*
D14*
G36*
X130821785Y-122510864D02*
G01*
X130846053Y-122514464D01*
X130869852Y-122520425D01*
X130892951Y-122528690D01*
X130915130Y-122539180D01*
X130936173Y-122551792D01*
X130955879Y-122566407D01*
X130974057Y-122582883D01*
X130990533Y-122601061D01*
X131005148Y-122620767D01*
X131017760Y-122641810D01*
X131028250Y-122663989D01*
X131036515Y-122687088D01*
X131042476Y-122710887D01*
X131046076Y-122735155D01*
X131047280Y-122759659D01*
X131047280Y-123659661D01*
X131046076Y-123684165D01*
X131042476Y-123708433D01*
X131036515Y-123732232D01*
X131028250Y-123755331D01*
X131017760Y-123777510D01*
X131005148Y-123798553D01*
X130990533Y-123818259D01*
X130974057Y-123836437D01*
X130955879Y-123852913D01*
X130936173Y-123867528D01*
X130915130Y-123880140D01*
X130892951Y-123890630D01*
X130869852Y-123898895D01*
X130846053Y-123904856D01*
X130821785Y-123908456D01*
X130797281Y-123909660D01*
X130147279Y-123909660D01*
X130122775Y-123908456D01*
X130098507Y-123904856D01*
X130074708Y-123898895D01*
X130051609Y-123890630D01*
X130029430Y-123880140D01*
X130008387Y-123867528D01*
X129988681Y-123852913D01*
X129970503Y-123836437D01*
X129954027Y-123818259D01*
X129939412Y-123798553D01*
X129926800Y-123777510D01*
X129916310Y-123755331D01*
X129908045Y-123732232D01*
X129902084Y-123708433D01*
X129898484Y-123684165D01*
X129897280Y-123659661D01*
X129897280Y-122759659D01*
X129898484Y-122735155D01*
X129902084Y-122710887D01*
X129908045Y-122687088D01*
X129916310Y-122663989D01*
X129926800Y-122641810D01*
X129939412Y-122620767D01*
X129954027Y-122601061D01*
X129970503Y-122582883D01*
X129988681Y-122566407D01*
X130008387Y-122551792D01*
X130029430Y-122539180D01*
X130051609Y-122528690D01*
X130074708Y-122520425D01*
X130098507Y-122514464D01*
X130122775Y-122510864D01*
X130147279Y-122509660D01*
X130797281Y-122509660D01*
X130821785Y-122510864D01*
X130821785Y-122510864D01*
G37*
D15*
X130472280Y-123209660D03*
D14*
G36*
X132871785Y-122510864D02*
G01*
X132896053Y-122514464D01*
X132919852Y-122520425D01*
X132942951Y-122528690D01*
X132965130Y-122539180D01*
X132986173Y-122551792D01*
X133005879Y-122566407D01*
X133024057Y-122582883D01*
X133040533Y-122601061D01*
X133055148Y-122620767D01*
X133067760Y-122641810D01*
X133078250Y-122663989D01*
X133086515Y-122687088D01*
X133092476Y-122710887D01*
X133096076Y-122735155D01*
X133097280Y-122759659D01*
X133097280Y-123659661D01*
X133096076Y-123684165D01*
X133092476Y-123708433D01*
X133086515Y-123732232D01*
X133078250Y-123755331D01*
X133067760Y-123777510D01*
X133055148Y-123798553D01*
X133040533Y-123818259D01*
X133024057Y-123836437D01*
X133005879Y-123852913D01*
X132986173Y-123867528D01*
X132965130Y-123880140D01*
X132942951Y-123890630D01*
X132919852Y-123898895D01*
X132896053Y-123904856D01*
X132871785Y-123908456D01*
X132847281Y-123909660D01*
X132197279Y-123909660D01*
X132172775Y-123908456D01*
X132148507Y-123904856D01*
X132124708Y-123898895D01*
X132101609Y-123890630D01*
X132079430Y-123880140D01*
X132058387Y-123867528D01*
X132038681Y-123852913D01*
X132020503Y-123836437D01*
X132004027Y-123818259D01*
X131989412Y-123798553D01*
X131976800Y-123777510D01*
X131966310Y-123755331D01*
X131958045Y-123732232D01*
X131952084Y-123708433D01*
X131948484Y-123684165D01*
X131947280Y-123659661D01*
X131947280Y-122759659D01*
X131948484Y-122735155D01*
X131952084Y-122710887D01*
X131958045Y-122687088D01*
X131966310Y-122663989D01*
X131976800Y-122641810D01*
X131989412Y-122620767D01*
X132004027Y-122601061D01*
X132020503Y-122582883D01*
X132038681Y-122566407D01*
X132058387Y-122551792D01*
X132079430Y-122539180D01*
X132101609Y-122528690D01*
X132124708Y-122520425D01*
X132148507Y-122514464D01*
X132172775Y-122510864D01*
X132197279Y-122509660D01*
X132847281Y-122509660D01*
X132871785Y-122510864D01*
X132871785Y-122510864D01*
G37*
D15*
X132522280Y-123209660D03*
D14*
G36*
X132860245Y-120417904D02*
G01*
X132884513Y-120421504D01*
X132908312Y-120427465D01*
X132931411Y-120435730D01*
X132953590Y-120446220D01*
X132974633Y-120458832D01*
X132994339Y-120473447D01*
X133012517Y-120489923D01*
X133028993Y-120508101D01*
X133043608Y-120527807D01*
X133056220Y-120548850D01*
X133066710Y-120571029D01*
X133074975Y-120594128D01*
X133080936Y-120617927D01*
X133084536Y-120642195D01*
X133085740Y-120666699D01*
X133085740Y-121566701D01*
X133084536Y-121591205D01*
X133080936Y-121615473D01*
X133074975Y-121639272D01*
X133066710Y-121662371D01*
X133056220Y-121684550D01*
X133043608Y-121705593D01*
X133028993Y-121725299D01*
X133012517Y-121743477D01*
X132994339Y-121759953D01*
X132974633Y-121774568D01*
X132953590Y-121787180D01*
X132931411Y-121797670D01*
X132908312Y-121805935D01*
X132884513Y-121811896D01*
X132860245Y-121815496D01*
X132835741Y-121816700D01*
X132185739Y-121816700D01*
X132161235Y-121815496D01*
X132136967Y-121811896D01*
X132113168Y-121805935D01*
X132090069Y-121797670D01*
X132067890Y-121787180D01*
X132046847Y-121774568D01*
X132027141Y-121759953D01*
X132008963Y-121743477D01*
X131992487Y-121725299D01*
X131977872Y-121705593D01*
X131965260Y-121684550D01*
X131954770Y-121662371D01*
X131946505Y-121639272D01*
X131940544Y-121615473D01*
X131936944Y-121591205D01*
X131935740Y-121566701D01*
X131935740Y-120666699D01*
X131936944Y-120642195D01*
X131940544Y-120617927D01*
X131946505Y-120594128D01*
X131954770Y-120571029D01*
X131965260Y-120548850D01*
X131977872Y-120527807D01*
X131992487Y-120508101D01*
X132008963Y-120489923D01*
X132027141Y-120473447D01*
X132046847Y-120458832D01*
X132067890Y-120446220D01*
X132090069Y-120435730D01*
X132113168Y-120427465D01*
X132136967Y-120421504D01*
X132161235Y-120417904D01*
X132185739Y-120416700D01*
X132835741Y-120416700D01*
X132860245Y-120417904D01*
X132860245Y-120417904D01*
G37*
D15*
X132510740Y-121116700D03*
D14*
G36*
X130810245Y-120417904D02*
G01*
X130834513Y-120421504D01*
X130858312Y-120427465D01*
X130881411Y-120435730D01*
X130903590Y-120446220D01*
X130924633Y-120458832D01*
X130944339Y-120473447D01*
X130962517Y-120489923D01*
X130978993Y-120508101D01*
X130993608Y-120527807D01*
X131006220Y-120548850D01*
X131016710Y-120571029D01*
X131024975Y-120594128D01*
X131030936Y-120617927D01*
X131034536Y-120642195D01*
X131035740Y-120666699D01*
X131035740Y-121566701D01*
X131034536Y-121591205D01*
X131030936Y-121615473D01*
X131024975Y-121639272D01*
X131016710Y-121662371D01*
X131006220Y-121684550D01*
X130993608Y-121705593D01*
X130978993Y-121725299D01*
X130962517Y-121743477D01*
X130944339Y-121759953D01*
X130924633Y-121774568D01*
X130903590Y-121787180D01*
X130881411Y-121797670D01*
X130858312Y-121805935D01*
X130834513Y-121811896D01*
X130810245Y-121815496D01*
X130785741Y-121816700D01*
X130135739Y-121816700D01*
X130111235Y-121815496D01*
X130086967Y-121811896D01*
X130063168Y-121805935D01*
X130040069Y-121797670D01*
X130017890Y-121787180D01*
X129996847Y-121774568D01*
X129977141Y-121759953D01*
X129958963Y-121743477D01*
X129942487Y-121725299D01*
X129927872Y-121705593D01*
X129915260Y-121684550D01*
X129904770Y-121662371D01*
X129896505Y-121639272D01*
X129890544Y-121615473D01*
X129886944Y-121591205D01*
X129885740Y-121566701D01*
X129885740Y-120666699D01*
X129886944Y-120642195D01*
X129890544Y-120617927D01*
X129896505Y-120594128D01*
X129904770Y-120571029D01*
X129915260Y-120548850D01*
X129927872Y-120527807D01*
X129942487Y-120508101D01*
X129958963Y-120489923D01*
X129977141Y-120473447D01*
X129996847Y-120458832D01*
X130017890Y-120446220D01*
X130040069Y-120435730D01*
X130063168Y-120427465D01*
X130086967Y-120421504D01*
X130111235Y-120417904D01*
X130135739Y-120416700D01*
X130785741Y-120416700D01*
X130810245Y-120417904D01*
X130810245Y-120417904D01*
G37*
D15*
X130460740Y-121116700D03*
D14*
G36*
X130812785Y-118276684D02*
G01*
X130837053Y-118280284D01*
X130860852Y-118286245D01*
X130883951Y-118294510D01*
X130906130Y-118305000D01*
X130927173Y-118317612D01*
X130946879Y-118332227D01*
X130965057Y-118348703D01*
X130981533Y-118366881D01*
X130996148Y-118386587D01*
X131008760Y-118407630D01*
X131019250Y-118429809D01*
X131027515Y-118452908D01*
X131033476Y-118476707D01*
X131037076Y-118500975D01*
X131038280Y-118525479D01*
X131038280Y-119425481D01*
X131037076Y-119449985D01*
X131033476Y-119474253D01*
X131027515Y-119498052D01*
X131019250Y-119521151D01*
X131008760Y-119543330D01*
X130996148Y-119564373D01*
X130981533Y-119584079D01*
X130965057Y-119602257D01*
X130946879Y-119618733D01*
X130927173Y-119633348D01*
X130906130Y-119645960D01*
X130883951Y-119656450D01*
X130860852Y-119664715D01*
X130837053Y-119670676D01*
X130812785Y-119674276D01*
X130788281Y-119675480D01*
X130138279Y-119675480D01*
X130113775Y-119674276D01*
X130089507Y-119670676D01*
X130065708Y-119664715D01*
X130042609Y-119656450D01*
X130020430Y-119645960D01*
X129999387Y-119633348D01*
X129979681Y-119618733D01*
X129961503Y-119602257D01*
X129945027Y-119584079D01*
X129930412Y-119564373D01*
X129917800Y-119543330D01*
X129907310Y-119521151D01*
X129899045Y-119498052D01*
X129893084Y-119474253D01*
X129889484Y-119449985D01*
X129888280Y-119425481D01*
X129888280Y-118525479D01*
X129889484Y-118500975D01*
X129893084Y-118476707D01*
X129899045Y-118452908D01*
X129907310Y-118429809D01*
X129917800Y-118407630D01*
X129930412Y-118386587D01*
X129945027Y-118366881D01*
X129961503Y-118348703D01*
X129979681Y-118332227D01*
X129999387Y-118317612D01*
X130020430Y-118305000D01*
X130042609Y-118294510D01*
X130065708Y-118286245D01*
X130089507Y-118280284D01*
X130113775Y-118276684D01*
X130138279Y-118275480D01*
X130788281Y-118275480D01*
X130812785Y-118276684D01*
X130812785Y-118276684D01*
G37*
D15*
X130463280Y-118975480D03*
D14*
G36*
X132862785Y-118276684D02*
G01*
X132887053Y-118280284D01*
X132910852Y-118286245D01*
X132933951Y-118294510D01*
X132956130Y-118305000D01*
X132977173Y-118317612D01*
X132996879Y-118332227D01*
X133015057Y-118348703D01*
X133031533Y-118366881D01*
X133046148Y-118386587D01*
X133058760Y-118407630D01*
X133069250Y-118429809D01*
X133077515Y-118452908D01*
X133083476Y-118476707D01*
X133087076Y-118500975D01*
X133088280Y-118525479D01*
X133088280Y-119425481D01*
X133087076Y-119449985D01*
X133083476Y-119474253D01*
X133077515Y-119498052D01*
X133069250Y-119521151D01*
X133058760Y-119543330D01*
X133046148Y-119564373D01*
X133031533Y-119584079D01*
X133015057Y-119602257D01*
X132996879Y-119618733D01*
X132977173Y-119633348D01*
X132956130Y-119645960D01*
X132933951Y-119656450D01*
X132910852Y-119664715D01*
X132887053Y-119670676D01*
X132862785Y-119674276D01*
X132838281Y-119675480D01*
X132188279Y-119675480D01*
X132163775Y-119674276D01*
X132139507Y-119670676D01*
X132115708Y-119664715D01*
X132092609Y-119656450D01*
X132070430Y-119645960D01*
X132049387Y-119633348D01*
X132029681Y-119618733D01*
X132011503Y-119602257D01*
X131995027Y-119584079D01*
X131980412Y-119564373D01*
X131967800Y-119543330D01*
X131957310Y-119521151D01*
X131949045Y-119498052D01*
X131943084Y-119474253D01*
X131939484Y-119449985D01*
X131938280Y-119425481D01*
X131938280Y-118525479D01*
X131939484Y-118500975D01*
X131943084Y-118476707D01*
X131949045Y-118452908D01*
X131957310Y-118429809D01*
X131967800Y-118407630D01*
X131980412Y-118386587D01*
X131995027Y-118366881D01*
X132011503Y-118348703D01*
X132029681Y-118332227D01*
X132049387Y-118317612D01*
X132070430Y-118305000D01*
X132092609Y-118294510D01*
X132115708Y-118286245D01*
X132139507Y-118280284D01*
X132163775Y-118276684D01*
X132188279Y-118275480D01*
X132838281Y-118275480D01*
X132862785Y-118276684D01*
X132862785Y-118276684D01*
G37*
D15*
X132513280Y-118975480D03*
D10*
X150100000Y-121469600D03*
X150100000Y-118929600D03*
X150100000Y-116389600D03*
X150100000Y-113849600D03*
X150100000Y-111309600D03*
D11*
X150100000Y-108769600D03*
D14*
G36*
X121649505Y-108936804D02*
G01*
X121673773Y-108940404D01*
X121697572Y-108946365D01*
X121720671Y-108954630D01*
X121742850Y-108965120D01*
X121763893Y-108977732D01*
X121783599Y-108992347D01*
X121801777Y-109008823D01*
X121818253Y-109027001D01*
X121832868Y-109046707D01*
X121845480Y-109067750D01*
X121855970Y-109089929D01*
X121864235Y-109113028D01*
X121870196Y-109136827D01*
X121873796Y-109161095D01*
X121875000Y-109185599D01*
X121875000Y-110085601D01*
X121873796Y-110110105D01*
X121870196Y-110134373D01*
X121864235Y-110158172D01*
X121855970Y-110181271D01*
X121845480Y-110203450D01*
X121832868Y-110224493D01*
X121818253Y-110244199D01*
X121801777Y-110262377D01*
X121783599Y-110278853D01*
X121763893Y-110293468D01*
X121742850Y-110306080D01*
X121720671Y-110316570D01*
X121697572Y-110324835D01*
X121673773Y-110330796D01*
X121649505Y-110334396D01*
X121625001Y-110335600D01*
X120974999Y-110335600D01*
X120950495Y-110334396D01*
X120926227Y-110330796D01*
X120902428Y-110324835D01*
X120879329Y-110316570D01*
X120857150Y-110306080D01*
X120836107Y-110293468D01*
X120816401Y-110278853D01*
X120798223Y-110262377D01*
X120781747Y-110244199D01*
X120767132Y-110224493D01*
X120754520Y-110203450D01*
X120744030Y-110181271D01*
X120735765Y-110158172D01*
X120729804Y-110134373D01*
X120726204Y-110110105D01*
X120725000Y-110085601D01*
X120725000Y-109185599D01*
X120726204Y-109161095D01*
X120729804Y-109136827D01*
X120735765Y-109113028D01*
X120744030Y-109089929D01*
X120754520Y-109067750D01*
X120767132Y-109046707D01*
X120781747Y-109027001D01*
X120798223Y-109008823D01*
X120816401Y-108992347D01*
X120836107Y-108977732D01*
X120857150Y-108965120D01*
X120879329Y-108954630D01*
X120902428Y-108946365D01*
X120926227Y-108940404D01*
X120950495Y-108936804D01*
X120974999Y-108935600D01*
X121625001Y-108935600D01*
X121649505Y-108936804D01*
X121649505Y-108936804D01*
G37*
D15*
X121300000Y-109635600D03*
D14*
G36*
X123699505Y-108936804D02*
G01*
X123723773Y-108940404D01*
X123747572Y-108946365D01*
X123770671Y-108954630D01*
X123792850Y-108965120D01*
X123813893Y-108977732D01*
X123833599Y-108992347D01*
X123851777Y-109008823D01*
X123868253Y-109027001D01*
X123882868Y-109046707D01*
X123895480Y-109067750D01*
X123905970Y-109089929D01*
X123914235Y-109113028D01*
X123920196Y-109136827D01*
X123923796Y-109161095D01*
X123925000Y-109185599D01*
X123925000Y-110085601D01*
X123923796Y-110110105D01*
X123920196Y-110134373D01*
X123914235Y-110158172D01*
X123905970Y-110181271D01*
X123895480Y-110203450D01*
X123882868Y-110224493D01*
X123868253Y-110244199D01*
X123851777Y-110262377D01*
X123833599Y-110278853D01*
X123813893Y-110293468D01*
X123792850Y-110306080D01*
X123770671Y-110316570D01*
X123747572Y-110324835D01*
X123723773Y-110330796D01*
X123699505Y-110334396D01*
X123675001Y-110335600D01*
X123024999Y-110335600D01*
X123000495Y-110334396D01*
X122976227Y-110330796D01*
X122952428Y-110324835D01*
X122929329Y-110316570D01*
X122907150Y-110306080D01*
X122886107Y-110293468D01*
X122866401Y-110278853D01*
X122848223Y-110262377D01*
X122831747Y-110244199D01*
X122817132Y-110224493D01*
X122804520Y-110203450D01*
X122794030Y-110181271D01*
X122785765Y-110158172D01*
X122779804Y-110134373D01*
X122776204Y-110110105D01*
X122775000Y-110085601D01*
X122775000Y-109185599D01*
X122776204Y-109161095D01*
X122779804Y-109136827D01*
X122785765Y-109113028D01*
X122794030Y-109089929D01*
X122804520Y-109067750D01*
X122817132Y-109046707D01*
X122831747Y-109027001D01*
X122848223Y-109008823D01*
X122866401Y-108992347D01*
X122886107Y-108977732D01*
X122907150Y-108965120D01*
X122929329Y-108954630D01*
X122952428Y-108946365D01*
X122976227Y-108940404D01*
X123000495Y-108936804D01*
X123024999Y-108935600D01*
X123675001Y-108935600D01*
X123699505Y-108936804D01*
X123699505Y-108936804D01*
G37*
D15*
X123350000Y-109635600D03*
D16*
X118900000Y-112362000D03*
X118900000Y-113012000D03*
X118900000Y-113662000D03*
X118900000Y-114312000D03*
X118900000Y-114962000D03*
X118900000Y-115612000D03*
X118900000Y-116262000D03*
X118900000Y-116912000D03*
X118900000Y-117562000D03*
X118900000Y-118212000D03*
X126000000Y-118212000D03*
X126000000Y-117562000D03*
X126000000Y-116912000D03*
X126000000Y-116262000D03*
X126000000Y-115612000D03*
X126000000Y-114962000D03*
X126000000Y-114312000D03*
X126000000Y-113662000D03*
X126000000Y-113012000D03*
X126000000Y-112362000D03*
D14*
G36*
X114024505Y-113109204D02*
G01*
X114048773Y-113112804D01*
X114072572Y-113118765D01*
X114095671Y-113127030D01*
X114117850Y-113137520D01*
X114138893Y-113150132D01*
X114158599Y-113164747D01*
X114176777Y-113181223D01*
X114193253Y-113199401D01*
X114207868Y-113219107D01*
X114220480Y-113240150D01*
X114230970Y-113262329D01*
X114239235Y-113285428D01*
X114245196Y-113309227D01*
X114248796Y-113333495D01*
X114250000Y-113357999D01*
X114250000Y-114258001D01*
X114248796Y-114282505D01*
X114245196Y-114306773D01*
X114239235Y-114330572D01*
X114230970Y-114353671D01*
X114220480Y-114375850D01*
X114207868Y-114396893D01*
X114193253Y-114416599D01*
X114176777Y-114434777D01*
X114158599Y-114451253D01*
X114138893Y-114465868D01*
X114117850Y-114478480D01*
X114095671Y-114488970D01*
X114072572Y-114497235D01*
X114048773Y-114503196D01*
X114024505Y-114506796D01*
X114000001Y-114508000D01*
X113349999Y-114508000D01*
X113325495Y-114506796D01*
X113301227Y-114503196D01*
X113277428Y-114497235D01*
X113254329Y-114488970D01*
X113232150Y-114478480D01*
X113211107Y-114465868D01*
X113191401Y-114451253D01*
X113173223Y-114434777D01*
X113156747Y-114416599D01*
X113142132Y-114396893D01*
X113129520Y-114375850D01*
X113119030Y-114353671D01*
X113110765Y-114330572D01*
X113104804Y-114306773D01*
X113101204Y-114282505D01*
X113100000Y-114258001D01*
X113100000Y-113357999D01*
X113101204Y-113333495D01*
X113104804Y-113309227D01*
X113110765Y-113285428D01*
X113119030Y-113262329D01*
X113129520Y-113240150D01*
X113142132Y-113219107D01*
X113156747Y-113199401D01*
X113173223Y-113181223D01*
X113191401Y-113164747D01*
X113211107Y-113150132D01*
X113232150Y-113137520D01*
X113254329Y-113127030D01*
X113277428Y-113118765D01*
X113301227Y-113112804D01*
X113325495Y-113109204D01*
X113349999Y-113108000D01*
X114000001Y-113108000D01*
X114024505Y-113109204D01*
X114024505Y-113109204D01*
G37*
D15*
X113675000Y-113808000D03*
D14*
G36*
X116074505Y-113109204D02*
G01*
X116098773Y-113112804D01*
X116122572Y-113118765D01*
X116145671Y-113127030D01*
X116167850Y-113137520D01*
X116188893Y-113150132D01*
X116208599Y-113164747D01*
X116226777Y-113181223D01*
X116243253Y-113199401D01*
X116257868Y-113219107D01*
X116270480Y-113240150D01*
X116280970Y-113262329D01*
X116289235Y-113285428D01*
X116295196Y-113309227D01*
X116298796Y-113333495D01*
X116300000Y-113357999D01*
X116300000Y-114258001D01*
X116298796Y-114282505D01*
X116295196Y-114306773D01*
X116289235Y-114330572D01*
X116280970Y-114353671D01*
X116270480Y-114375850D01*
X116257868Y-114396893D01*
X116243253Y-114416599D01*
X116226777Y-114434777D01*
X116208599Y-114451253D01*
X116188893Y-114465868D01*
X116167850Y-114478480D01*
X116145671Y-114488970D01*
X116122572Y-114497235D01*
X116098773Y-114503196D01*
X116074505Y-114506796D01*
X116050001Y-114508000D01*
X115399999Y-114508000D01*
X115375495Y-114506796D01*
X115351227Y-114503196D01*
X115327428Y-114497235D01*
X115304329Y-114488970D01*
X115282150Y-114478480D01*
X115261107Y-114465868D01*
X115241401Y-114451253D01*
X115223223Y-114434777D01*
X115206747Y-114416599D01*
X115192132Y-114396893D01*
X115179520Y-114375850D01*
X115169030Y-114353671D01*
X115160765Y-114330572D01*
X115154804Y-114306773D01*
X115151204Y-114282505D01*
X115150000Y-114258001D01*
X115150000Y-113357999D01*
X115151204Y-113333495D01*
X115154804Y-113309227D01*
X115160765Y-113285428D01*
X115169030Y-113262329D01*
X115179520Y-113240150D01*
X115192132Y-113219107D01*
X115206747Y-113199401D01*
X115223223Y-113181223D01*
X115241401Y-113164747D01*
X115261107Y-113150132D01*
X115282150Y-113137520D01*
X115304329Y-113127030D01*
X115327428Y-113118765D01*
X115351227Y-113112804D01*
X115375495Y-113109204D01*
X115399999Y-113108000D01*
X116050001Y-113108000D01*
X116074505Y-113109204D01*
X116074505Y-113109204D01*
G37*
D15*
X115725000Y-113808000D03*
D14*
G36*
X123699505Y-106685204D02*
G01*
X123723773Y-106688804D01*
X123747572Y-106694765D01*
X123770671Y-106703030D01*
X123792850Y-106713520D01*
X123813893Y-106726132D01*
X123833599Y-106740747D01*
X123851777Y-106757223D01*
X123868253Y-106775401D01*
X123882868Y-106795107D01*
X123895480Y-106816150D01*
X123905970Y-106838329D01*
X123914235Y-106861428D01*
X123920196Y-106885227D01*
X123923796Y-106909495D01*
X123925000Y-106933999D01*
X123925000Y-107834001D01*
X123923796Y-107858505D01*
X123920196Y-107882773D01*
X123914235Y-107906572D01*
X123905970Y-107929671D01*
X123895480Y-107951850D01*
X123882868Y-107972893D01*
X123868253Y-107992599D01*
X123851777Y-108010777D01*
X123833599Y-108027253D01*
X123813893Y-108041868D01*
X123792850Y-108054480D01*
X123770671Y-108064970D01*
X123747572Y-108073235D01*
X123723773Y-108079196D01*
X123699505Y-108082796D01*
X123675001Y-108084000D01*
X123024999Y-108084000D01*
X123000495Y-108082796D01*
X122976227Y-108079196D01*
X122952428Y-108073235D01*
X122929329Y-108064970D01*
X122907150Y-108054480D01*
X122886107Y-108041868D01*
X122866401Y-108027253D01*
X122848223Y-108010777D01*
X122831747Y-107992599D01*
X122817132Y-107972893D01*
X122804520Y-107951850D01*
X122794030Y-107929671D01*
X122785765Y-107906572D01*
X122779804Y-107882773D01*
X122776204Y-107858505D01*
X122775000Y-107834001D01*
X122775000Y-106933999D01*
X122776204Y-106909495D01*
X122779804Y-106885227D01*
X122785765Y-106861428D01*
X122794030Y-106838329D01*
X122804520Y-106816150D01*
X122817132Y-106795107D01*
X122831747Y-106775401D01*
X122848223Y-106757223D01*
X122866401Y-106740747D01*
X122886107Y-106726132D01*
X122907150Y-106713520D01*
X122929329Y-106703030D01*
X122952428Y-106694765D01*
X122976227Y-106688804D01*
X123000495Y-106685204D01*
X123024999Y-106684000D01*
X123675001Y-106684000D01*
X123699505Y-106685204D01*
X123699505Y-106685204D01*
G37*
D15*
X123350000Y-107384000D03*
D14*
G36*
X121649505Y-106685204D02*
G01*
X121673773Y-106688804D01*
X121697572Y-106694765D01*
X121720671Y-106703030D01*
X121742850Y-106713520D01*
X121763893Y-106726132D01*
X121783599Y-106740747D01*
X121801777Y-106757223D01*
X121818253Y-106775401D01*
X121832868Y-106795107D01*
X121845480Y-106816150D01*
X121855970Y-106838329D01*
X121864235Y-106861428D01*
X121870196Y-106885227D01*
X121873796Y-106909495D01*
X121875000Y-106933999D01*
X121875000Y-107834001D01*
X121873796Y-107858505D01*
X121870196Y-107882773D01*
X121864235Y-107906572D01*
X121855970Y-107929671D01*
X121845480Y-107951850D01*
X121832868Y-107972893D01*
X121818253Y-107992599D01*
X121801777Y-108010777D01*
X121783599Y-108027253D01*
X121763893Y-108041868D01*
X121742850Y-108054480D01*
X121720671Y-108064970D01*
X121697572Y-108073235D01*
X121673773Y-108079196D01*
X121649505Y-108082796D01*
X121625001Y-108084000D01*
X120974999Y-108084000D01*
X120950495Y-108082796D01*
X120926227Y-108079196D01*
X120902428Y-108073235D01*
X120879329Y-108064970D01*
X120857150Y-108054480D01*
X120836107Y-108041868D01*
X120816401Y-108027253D01*
X120798223Y-108010777D01*
X120781747Y-107992599D01*
X120767132Y-107972893D01*
X120754520Y-107951850D01*
X120744030Y-107929671D01*
X120735765Y-107906572D01*
X120729804Y-107882773D01*
X120726204Y-107858505D01*
X120725000Y-107834001D01*
X120725000Y-106933999D01*
X120726204Y-106909495D01*
X120729804Y-106885227D01*
X120735765Y-106861428D01*
X120744030Y-106838329D01*
X120754520Y-106816150D01*
X120767132Y-106795107D01*
X120781747Y-106775401D01*
X120798223Y-106757223D01*
X120816401Y-106740747D01*
X120836107Y-106726132D01*
X120857150Y-106713520D01*
X120879329Y-106703030D01*
X120902428Y-106694765D01*
X120926227Y-106688804D01*
X120950495Y-106685204D01*
X120974999Y-106684000D01*
X121625001Y-106684000D01*
X121649505Y-106685204D01*
X121649505Y-106685204D01*
G37*
D15*
X121300000Y-107384000D03*
D14*
G36*
X114450865Y-97602784D02*
G01*
X114475133Y-97606384D01*
X114498932Y-97612345D01*
X114522031Y-97620610D01*
X114544210Y-97631100D01*
X114565253Y-97643712D01*
X114584959Y-97658327D01*
X114603137Y-97674803D01*
X114619613Y-97692981D01*
X114634228Y-97712687D01*
X114646840Y-97733730D01*
X114657330Y-97755909D01*
X114665595Y-97779008D01*
X114671556Y-97802807D01*
X114675156Y-97827075D01*
X114676360Y-97851579D01*
X114676360Y-98501581D01*
X114675156Y-98526085D01*
X114671556Y-98550353D01*
X114665595Y-98574152D01*
X114657330Y-98597251D01*
X114646840Y-98619430D01*
X114634228Y-98640473D01*
X114619613Y-98660179D01*
X114603137Y-98678357D01*
X114584959Y-98694833D01*
X114565253Y-98709448D01*
X114544210Y-98722060D01*
X114522031Y-98732550D01*
X114498932Y-98740815D01*
X114475133Y-98746776D01*
X114450865Y-98750376D01*
X114426361Y-98751580D01*
X113526359Y-98751580D01*
X113501855Y-98750376D01*
X113477587Y-98746776D01*
X113453788Y-98740815D01*
X113430689Y-98732550D01*
X113408510Y-98722060D01*
X113387467Y-98709448D01*
X113367761Y-98694833D01*
X113349583Y-98678357D01*
X113333107Y-98660179D01*
X113318492Y-98640473D01*
X113305880Y-98619430D01*
X113295390Y-98597251D01*
X113287125Y-98574152D01*
X113281164Y-98550353D01*
X113277564Y-98526085D01*
X113276360Y-98501581D01*
X113276360Y-97851579D01*
X113277564Y-97827075D01*
X113281164Y-97802807D01*
X113287125Y-97779008D01*
X113295390Y-97755909D01*
X113305880Y-97733730D01*
X113318492Y-97712687D01*
X113333107Y-97692981D01*
X113349583Y-97674803D01*
X113367761Y-97658327D01*
X113387467Y-97643712D01*
X113408510Y-97631100D01*
X113430689Y-97620610D01*
X113453788Y-97612345D01*
X113477587Y-97606384D01*
X113501855Y-97602784D01*
X113526359Y-97601580D01*
X114426361Y-97601580D01*
X114450865Y-97602784D01*
X114450865Y-97602784D01*
G37*
D15*
X113976360Y-98176580D03*
D14*
G36*
X114450865Y-99652784D02*
G01*
X114475133Y-99656384D01*
X114498932Y-99662345D01*
X114522031Y-99670610D01*
X114544210Y-99681100D01*
X114565253Y-99693712D01*
X114584959Y-99708327D01*
X114603137Y-99724803D01*
X114619613Y-99742981D01*
X114634228Y-99762687D01*
X114646840Y-99783730D01*
X114657330Y-99805909D01*
X114665595Y-99829008D01*
X114671556Y-99852807D01*
X114675156Y-99877075D01*
X114676360Y-99901579D01*
X114676360Y-100551581D01*
X114675156Y-100576085D01*
X114671556Y-100600353D01*
X114665595Y-100624152D01*
X114657330Y-100647251D01*
X114646840Y-100669430D01*
X114634228Y-100690473D01*
X114619613Y-100710179D01*
X114603137Y-100728357D01*
X114584959Y-100744833D01*
X114565253Y-100759448D01*
X114544210Y-100772060D01*
X114522031Y-100782550D01*
X114498932Y-100790815D01*
X114475133Y-100796776D01*
X114450865Y-100800376D01*
X114426361Y-100801580D01*
X113526359Y-100801580D01*
X113501855Y-100800376D01*
X113477587Y-100796776D01*
X113453788Y-100790815D01*
X113430689Y-100782550D01*
X113408510Y-100772060D01*
X113387467Y-100759448D01*
X113367761Y-100744833D01*
X113349583Y-100728357D01*
X113333107Y-100710179D01*
X113318492Y-100690473D01*
X113305880Y-100669430D01*
X113295390Y-100647251D01*
X113287125Y-100624152D01*
X113281164Y-100600353D01*
X113277564Y-100576085D01*
X113276360Y-100551581D01*
X113276360Y-99901579D01*
X113277564Y-99877075D01*
X113281164Y-99852807D01*
X113287125Y-99829008D01*
X113295390Y-99805909D01*
X113305880Y-99783730D01*
X113318492Y-99762687D01*
X113333107Y-99742981D01*
X113349583Y-99724803D01*
X113367761Y-99708327D01*
X113387467Y-99693712D01*
X113408510Y-99681100D01*
X113430689Y-99670610D01*
X113453788Y-99662345D01*
X113477587Y-99656384D01*
X113501855Y-99652784D01*
X113526359Y-99651580D01*
X114426361Y-99651580D01*
X114450865Y-99652784D01*
X114450865Y-99652784D01*
G37*
D15*
X113976360Y-100226580D03*
D17*
X124900000Y-109635600D03*
X107800000Y-121932800D03*
X125100000Y-105652000D03*
X133676600Y-116811400D03*
X112320280Y-116283080D03*
X115609580Y-130758540D03*
X123520000Y-135148000D03*
X117100001Y-113268001D03*
X145881600Y-108769600D03*
X128000000Y-115178000D03*
X99846582Y-123281418D03*
X128600000Y-112926400D03*
X145900000Y-118928000D03*
X128000000Y-112060400D03*
X145900000Y-116388000D03*
X122300000Y-111540800D03*
X110700000Y-117668800D03*
X117510000Y-135988000D03*
X128914110Y-117571074D03*
X111000000Y-108942800D03*
X102300000Y-108942800D03*
X132900000Y-102634400D03*
X114800000Y-102188000D03*
D18*
X118900000Y-112362000D02*
X118900000Y-109935600D01*
D19*
X119200000Y-109635600D02*
X121300000Y-109635600D01*
X118900000Y-109935600D02*
X119200000Y-109635600D01*
X125100000Y-94915300D02*
X125200000Y-94815300D01*
X125100000Y-95952800D02*
X125100000Y-94915300D01*
X107738000Y-107865600D02*
X108046400Y-107557200D01*
X107738000Y-110842800D02*
X107738000Y-107865600D01*
X111473200Y-107557200D02*
X108046400Y-107557200D01*
X125076000Y-125050400D02*
X127088500Y-125050400D01*
X134915480Y-117248280D02*
X137138220Y-117248280D01*
X133188280Y-118975480D02*
X134915480Y-117248280D01*
X132513280Y-118975480D02*
X133188280Y-118975480D01*
X111473200Y-102395640D02*
X111473200Y-107557200D01*
X118900000Y-108648960D02*
X118900000Y-109935600D01*
X117808240Y-107557200D02*
X118900000Y-108648960D01*
X128300000Y-125110160D02*
X128240240Y-125050400D01*
X128300000Y-127369600D02*
X128300000Y-125110160D01*
X128240240Y-125050400D02*
X127088500Y-125050400D01*
X129090120Y-125050400D02*
X128240240Y-125050400D01*
X128300000Y-127369600D02*
X128300000Y-136733200D01*
X133197280Y-123209660D02*
X133235380Y-123247760D01*
X132522280Y-123209660D02*
X133197280Y-123209660D01*
X137699960Y-123247760D02*
X139942780Y-121004940D01*
X133235380Y-123247760D02*
X137699960Y-123247760D01*
X139942780Y-121004940D02*
X139942780Y-120192140D01*
X131256740Y-125050400D02*
X131863800Y-125050400D01*
X131256740Y-125050400D02*
X129090120Y-125050400D01*
X132522280Y-124391920D02*
X132522280Y-123209660D01*
X131863800Y-125050400D02*
X132522280Y-124391920D01*
X139861500Y-117248280D02*
X139942780Y-117329560D01*
X137138220Y-117248280D02*
X139861500Y-117248280D01*
X139942780Y-117329560D02*
X139942780Y-120192140D01*
X139942780Y-117329560D02*
X140847020Y-117329560D01*
X142501000Y-115675580D02*
X142501000Y-110848000D01*
X140847020Y-117329560D02*
X142501000Y-115675580D01*
X113143240Y-100193460D02*
X111473200Y-100193460D01*
X113176360Y-100226580D02*
X113143240Y-100193460D01*
X113976360Y-100226580D02*
X113176360Y-100226580D01*
X111473200Y-100193460D02*
X111473200Y-102395640D01*
X116563640Y-107557200D02*
X117808240Y-107557200D01*
D18*
X128300000Y-136733200D02*
X128300000Y-137060000D01*
D19*
X126802000Y-139158000D02*
X125040000Y-139158000D01*
X128300000Y-137660000D02*
X126802000Y-139158000D01*
X128300000Y-136733200D02*
X128300000Y-137660000D01*
X150100000Y-111309600D02*
X148171600Y-111309600D01*
X125150000Y-93265300D02*
X125150000Y-93198000D01*
X125100000Y-93315300D02*
X125150000Y-93265300D01*
X125100000Y-95452800D02*
X125100000Y-93315300D01*
X130618400Y-93198000D02*
X134294200Y-96873800D01*
X125150000Y-93198000D02*
X130618400Y-93198000D01*
X115480000Y-93198000D02*
X125150000Y-93198000D01*
X111473200Y-97204800D02*
X115480000Y-93198000D01*
X111473200Y-100193460D02*
X111473200Y-97204800D01*
X101730800Y-107557200D02*
X99900000Y-109388000D01*
X99900000Y-109388000D02*
X99900000Y-120979200D01*
X108046400Y-107557200D02*
X101730800Y-107557200D01*
X99900000Y-120979200D02*
X102758800Y-123838000D01*
D18*
X113828400Y-114283600D02*
X113800000Y-114312000D01*
X115725000Y-112313000D02*
X115725000Y-111238000D01*
X115410000Y-112628000D02*
X115725000Y-112313000D01*
X113850000Y-112628000D02*
X115410000Y-112628000D01*
X113675000Y-113808000D02*
X113675000Y-112803000D01*
X113675000Y-112803000D02*
X113850000Y-112628000D01*
D19*
X115725000Y-107613000D02*
X115669200Y-107557200D01*
X115725000Y-111238000D02*
X115725000Y-107613000D01*
X111473200Y-107557200D02*
X115669200Y-107557200D01*
X115669200Y-107557200D02*
X116563640Y-107557200D01*
X102758800Y-123838000D02*
X102760000Y-123838000D01*
X102760000Y-123838000D02*
X103360000Y-124438000D01*
X103360000Y-124438000D02*
X107810000Y-124438000D01*
X108705000Y-125333000D02*
X107810000Y-124438000D01*
X108705000Y-126168000D02*
X108705000Y-125333000D01*
X150100000Y-111309600D02*
X145451600Y-111309600D01*
X144513500Y-110348000D02*
X142501000Y-110348000D01*
X145451600Y-111286100D02*
X144513500Y-110348000D01*
X145451600Y-111309600D02*
X145451600Y-111286100D01*
X134294200Y-100003700D02*
X134294200Y-99752200D01*
X142501000Y-108210500D02*
X134294200Y-100003700D01*
X142501000Y-110348000D02*
X142501000Y-108210500D01*
X134294200Y-96873800D02*
X134294200Y-99752200D01*
X125100000Y-105652000D02*
X125100000Y-105652000D01*
D18*
X125450000Y-133374400D02*
X125460400Y-133364000D01*
X125075000Y-133374400D02*
X125450000Y-133374400D01*
D19*
X125100000Y-105652000D02*
X125100000Y-104276800D01*
X123350000Y-109635600D02*
X124900000Y-109635600D01*
D18*
X126000000Y-109635600D02*
X126000000Y-112362000D01*
D19*
X124900000Y-109635600D02*
X126000000Y-109635600D01*
X107738000Y-119166800D02*
X107738000Y-121870800D01*
X107738000Y-121870800D02*
X107800000Y-121932800D01*
D18*
X131245820Y-100213880D02*
X131245820Y-104362938D01*
X132513280Y-116824100D02*
X133308300Y-116824100D01*
X133308300Y-116824100D02*
X133321000Y-116811400D01*
X133321000Y-116811400D02*
X133676600Y-116811400D01*
X113687960Y-116834260D02*
X112871460Y-116834260D01*
X112871460Y-116834260D02*
X112320280Y-116283080D01*
X115604500Y-129129240D02*
X115604500Y-130753460D01*
X115604500Y-130753460D02*
X115609580Y-130758540D01*
X125100000Y-105652000D02*
X125836000Y-106388000D01*
X129220758Y-106388000D02*
X131245820Y-104362938D01*
X125836000Y-106388000D02*
X129220758Y-106388000D01*
D19*
X142501000Y-117534500D02*
X142501000Y-119672000D01*
X144097500Y-115938000D02*
X142501000Y-117534500D01*
X144097500Y-115938000D02*
X144097500Y-115930500D01*
X144097500Y-115930500D02*
X146190000Y-113838000D01*
X146201600Y-113849600D02*
X150100000Y-113849600D01*
X146190000Y-113838000D02*
X146201600Y-113849600D01*
X122500000Y-139158000D02*
X122500000Y-136168000D01*
X122500000Y-136168000D02*
X123520000Y-135148000D01*
X123802400Y-135148000D02*
X125076000Y-133874400D01*
X123520000Y-135148000D02*
X123802400Y-135148000D01*
D18*
X115400000Y-114283600D02*
X115428400Y-114312000D01*
X116229000Y-114312000D02*
X115725000Y-113808000D01*
X118900000Y-114312000D02*
X116229000Y-114312000D01*
X116560002Y-113808000D02*
X117100001Y-113268001D01*
X115725000Y-113808000D02*
X116560002Y-113808000D01*
X150100000Y-108769600D02*
X145881600Y-108769600D01*
X126000000Y-115612000D02*
X127566000Y-115612000D01*
X127566000Y-115612000D02*
X128000000Y-115178000D01*
X99846582Y-123281418D02*
X99846582Y-124484582D01*
X99846582Y-124774582D02*
X99846582Y-123281418D01*
X102575000Y-126198000D02*
X101270000Y-126198000D01*
X101270000Y-126198000D02*
X99846582Y-124774582D01*
X127864400Y-113662000D02*
X128600000Y-112926400D01*
X126000000Y-113662000D02*
X127864400Y-113662000D01*
X150100000Y-118929600D02*
X145901600Y-118929600D01*
X145901600Y-118929600D02*
X145900000Y-118928000D01*
X126000000Y-113012000D02*
X127048400Y-113012000D01*
X127048400Y-113012000D02*
X128000000Y-112060400D01*
X150100000Y-116389600D02*
X145901600Y-116389600D01*
X145901600Y-116389600D02*
X145900000Y-116388000D01*
X120025000Y-105314300D02*
X120025000Y-104276800D01*
X120025000Y-106784000D02*
X120025000Y-105314300D01*
X120625000Y-107384000D02*
X120025000Y-106784000D01*
X121300000Y-107384000D02*
X120625000Y-107384000D01*
X122300000Y-111562000D02*
X122300000Y-111540800D01*
X118900000Y-113662000D02*
X120200000Y-113662000D01*
X120200000Y-113662000D02*
X122300000Y-111562000D01*
X112000000Y-134633200D02*
X116100000Y-138733200D01*
X112000000Y-134633200D02*
X112000000Y-134610400D01*
X112000000Y-134610400D02*
X110700000Y-133310400D01*
X110700000Y-133310400D02*
X110700000Y-117668800D01*
X116547600Y-139158000D02*
X119960000Y-139158000D01*
X110700000Y-133310400D02*
X116547600Y-139158000D01*
X118900000Y-118212000D02*
X118900000Y-118837000D01*
X111893560Y-132361280D02*
X111893560Y-122015860D01*
X113070950Y-120838470D02*
X116898530Y-120838470D01*
X111893560Y-122015860D02*
X113070950Y-120838470D01*
X118900000Y-118837000D02*
X116898530Y-120838470D01*
X111893560Y-132361280D02*
X115520280Y-135988000D01*
X117510000Y-135988000D02*
X115520280Y-135988000D01*
X126000000Y-117562000D02*
X128905036Y-117562000D01*
X128905036Y-117562000D02*
X128914110Y-117571074D01*
X118900000Y-114962000D02*
X120857200Y-114962000D01*
X121200000Y-115304800D02*
X121214400Y-115304800D01*
X121214400Y-115304800D02*
X122377800Y-116468200D01*
X120857200Y-114962000D02*
X121200000Y-115304800D01*
X122377800Y-116468200D02*
X122377800Y-119776600D01*
X123717900Y-121116700D02*
X122377800Y-119776600D01*
X130460740Y-121116700D02*
X123717900Y-121116700D01*
X120001000Y-124166320D02*
X121318340Y-122848980D01*
X120200000Y-115612000D02*
X118900000Y-115612000D01*
X120293544Y-115612000D02*
X120200000Y-115612000D01*
X121318340Y-116636796D02*
X120293544Y-115612000D01*
X115604500Y-125574400D02*
X115604500Y-127079240D01*
X116132820Y-125046080D02*
X115604500Y-125574400D01*
X129797280Y-123209660D02*
X128609300Y-122021680D01*
X130472280Y-123209660D02*
X129797280Y-123209660D01*
X128609300Y-122021680D02*
X122918120Y-122021680D01*
X121318340Y-120421900D02*
X121318340Y-116636796D01*
X116628500Y-124550400D02*
X120001000Y-124550400D01*
X116132820Y-125046080D02*
X116628500Y-124550400D01*
X121330360Y-122021680D02*
X121318340Y-122009660D01*
X122918120Y-122021680D02*
X121330360Y-122021680D01*
X121318340Y-122848980D02*
X121318340Y-122009660D01*
X121318340Y-122009660D02*
X121318340Y-120421900D01*
X118900000Y-116262000D02*
X120095002Y-116262000D01*
X120095002Y-116262000D02*
X120600000Y-116766998D01*
X120600000Y-116766998D02*
X120600000Y-118583640D01*
X114449480Y-121585920D02*
X117597720Y-121585920D01*
X113475980Y-122559420D02*
X114449480Y-121585920D01*
X113475980Y-127127500D02*
X113475980Y-122559420D01*
X117597720Y-121585920D02*
X120600000Y-118583640D01*
X102300000Y-108942800D02*
X102300000Y-110479800D01*
X102300000Y-110479800D02*
X102663000Y-110842800D01*
X115815700Y-116912000D02*
X115737960Y-116834260D01*
X118900000Y-116912000D02*
X115815700Y-116912000D01*
X117600000Y-116912000D02*
X118900000Y-116912000D01*
X115946610Y-115258610D02*
X117600000Y-116912000D01*
X112507390Y-115258610D02*
X115946610Y-115258610D01*
X111000000Y-113751220D02*
X112507390Y-115258610D01*
X111000000Y-113751220D02*
X111000000Y-108942800D01*
X113675000Y-109533000D02*
X113084800Y-108942800D01*
X113675000Y-111238000D02*
X113675000Y-109533000D01*
X113084800Y-108942800D02*
X111000000Y-108942800D01*
X117176400Y-117562000D02*
X118900000Y-117562000D01*
X115750000Y-118988400D02*
X117176400Y-117562000D01*
X126000000Y-116262000D02*
X128100002Y-116262000D01*
X128100002Y-116262000D02*
X132900000Y-111462002D01*
X132900000Y-109011700D02*
X132900000Y-102634400D01*
X132900000Y-111462002D02*
X132900000Y-109011700D01*
X114800000Y-102188000D02*
X115697100Y-101290900D01*
X132290920Y-98163880D02*
X131245820Y-98163880D01*
X132900000Y-102634400D02*
X132900000Y-98772960D01*
X132900000Y-98772960D02*
X132290920Y-98163880D01*
X113976360Y-98176580D02*
X113976360Y-96768260D01*
X113976360Y-96768260D02*
X114791820Y-95952800D01*
X115697100Y-101290900D02*
X115697100Y-98643940D01*
X115229740Y-98176580D02*
X113976360Y-98176580D01*
X115697100Y-98643940D02*
X115229740Y-98176580D01*
X115291820Y-95452800D02*
X120025000Y-95452800D01*
X114791820Y-95952800D02*
X115291820Y-95452800D01*
X129411160Y-120027600D02*
X130463280Y-118975480D01*
X124500000Y-120027600D02*
X129411160Y-120027600D01*
X123100000Y-118627600D02*
X124500000Y-120027600D01*
X123100000Y-116190400D02*
X123100000Y-118627600D01*
X126000000Y-114962000D02*
X124328400Y-114962000D01*
X124328400Y-114962000D02*
X123100000Y-116190400D01*
X130463280Y-115484720D02*
X135100000Y-110848000D01*
X130463280Y-116824100D02*
X130463280Y-115484720D01*
X130463280Y-118975480D02*
X130463280Y-116824100D01*
X135600000Y-110348000D02*
X137426000Y-110348000D01*
X135100000Y-110848000D02*
X135600000Y-110348000D01*
X126000000Y-114312000D02*
X128394800Y-114312000D01*
X128394800Y-114312000D02*
X130300000Y-112406800D01*
X123350000Y-107384000D02*
X128741200Y-107384000D01*
X130300000Y-108942800D02*
X130300000Y-112406800D01*
X128741200Y-107384000D02*
X130300000Y-108942800D01*
X137426000Y-120209500D02*
X137426000Y-119172000D01*
X132510740Y-121116700D02*
X136518800Y-121116700D01*
X136518800Y-121116700D02*
X137121300Y-121116700D01*
X137426000Y-120812000D02*
X137426000Y-119672000D01*
X137121300Y-121116700D02*
X137426000Y-120812000D01*
X115482240Y-133374400D02*
X113425180Y-131317340D01*
X113475980Y-131266540D02*
X113475980Y-129177500D01*
X113425180Y-131317340D02*
X113475980Y-131266540D01*
X115982240Y-133874400D02*
X120001000Y-133874400D01*
X115482240Y-133374400D02*
X115982240Y-133874400D01*
X113025000Y-118988400D02*
X112200000Y-118163400D01*
X113700000Y-118988400D02*
X113025000Y-118988400D01*
X112200000Y-118163400D02*
X112200000Y-117536800D01*
X112200000Y-117536800D02*
X111531999Y-116868799D01*
X111531999Y-116868799D02*
X110234001Y-116868799D01*
X110234001Y-116868799D02*
X109500000Y-117602800D01*
X109500000Y-117602800D02*
X109500000Y-121918400D01*
X108585591Y-122832809D02*
X103600009Y-122832809D01*
X109500000Y-121918400D02*
X108585591Y-122832809D01*
X102663000Y-121895800D02*
X102663000Y-119166800D01*
X103600009Y-122832809D02*
X102663000Y-121895800D01*
X106625000Y-126198000D02*
X106655000Y-126168000D01*
X104625000Y-126198000D02*
X106625000Y-126198000D01*
M02*
