G04 #@! TF.GenerationSoftware,KiCad,Pcbnew,(5.1.4)-1*
G04 #@! TF.CreationDate,2019-11-25T22:33:41+01:00*
G04 #@! TF.ProjectId,STEM,5354454d-2e6b-4696-9361-645f70636258,A*
G04 #@! TF.SameCoordinates,Original*
G04 #@! TF.FileFunction,Legend,Bot*
G04 #@! TF.FilePolarity,Positive*
%FSLAX46Y46*%
G04 Gerber Fmt 4.6, Leading zero omitted, Abs format (unit mm)*
G04 Created by KiCad (PCBNEW (5.1.4)-1) date 2019-11-25 22:33:41*
%MOMM*%
%LPD*%
G04 APERTURE LIST*
%ADD10C,0.125000*%
G04 APERTURE END LIST*
D10*
X120741428Y-135914190D02*
X120574761Y-136414190D01*
X120408095Y-135914190D01*
X120074761Y-136152285D02*
X120003333Y-136176095D01*
X119979523Y-136199904D01*
X119955714Y-136247523D01*
X119955714Y-136318952D01*
X119979523Y-136366571D01*
X120003333Y-136390380D01*
X120050952Y-136414190D01*
X120241428Y-136414190D01*
X120241428Y-135914190D01*
X120074761Y-135914190D01*
X120027142Y-135938000D01*
X120003333Y-135961809D01*
X119979523Y-136009428D01*
X119979523Y-136057047D01*
X120003333Y-136104666D01*
X120027142Y-136128476D01*
X120074761Y-136152285D01*
X120241428Y-136152285D01*
X119765238Y-136271333D02*
X119527142Y-136271333D01*
X119812857Y-136414190D02*
X119646190Y-135914190D01*
X119479523Y-136414190D01*
X119384285Y-135914190D02*
X119098571Y-135914190D01*
X119241428Y-136414190D02*
X119241428Y-135914190D01*
X125627142Y-136400380D02*
X125555714Y-136424190D01*
X125436666Y-136424190D01*
X125389047Y-136400380D01*
X125365238Y-136376571D01*
X125341428Y-136328952D01*
X125341428Y-136281333D01*
X125365238Y-136233714D01*
X125389047Y-136209904D01*
X125436666Y-136186095D01*
X125531904Y-136162285D01*
X125579523Y-136138476D01*
X125603333Y-136114666D01*
X125627142Y-136067047D01*
X125627142Y-136019428D01*
X125603333Y-135971809D01*
X125579523Y-135948000D01*
X125531904Y-135924190D01*
X125412857Y-135924190D01*
X125341428Y-135948000D01*
X125127142Y-136424190D02*
X125127142Y-135924190D01*
X125008095Y-135924190D01*
X124936666Y-135948000D01*
X124889047Y-135995619D01*
X124865238Y-136043238D01*
X124841428Y-136138476D01*
X124841428Y-136209904D01*
X124865238Y-136305142D01*
X124889047Y-136352761D01*
X124936666Y-136400380D01*
X125008095Y-136424190D01*
X125127142Y-136424190D01*
X124650952Y-136281333D02*
X124412857Y-136281333D01*
X124698571Y-136424190D02*
X124531904Y-135924190D01*
X124365238Y-136424190D01*
X123115238Y-136380380D02*
X123043809Y-136404190D01*
X122924761Y-136404190D01*
X122877142Y-136380380D01*
X122853333Y-136356571D01*
X122829523Y-136308952D01*
X122829523Y-136261333D01*
X122853333Y-136213714D01*
X122877142Y-136189904D01*
X122924761Y-136166095D01*
X123020000Y-136142285D01*
X123067619Y-136118476D01*
X123091428Y-136094666D01*
X123115238Y-136047047D01*
X123115238Y-135999428D01*
X123091428Y-135951809D01*
X123067619Y-135928000D01*
X123020000Y-135904190D01*
X122900952Y-135904190D01*
X122829523Y-135928000D01*
X122329523Y-136356571D02*
X122353333Y-136380380D01*
X122424761Y-136404190D01*
X122472380Y-136404190D01*
X122543809Y-136380380D01*
X122591428Y-136332761D01*
X122615238Y-136285142D01*
X122639047Y-136189904D01*
X122639047Y-136118476D01*
X122615238Y-136023238D01*
X122591428Y-135975619D01*
X122543809Y-135928000D01*
X122472380Y-135904190D01*
X122424761Y-135904190D01*
X122353333Y-135928000D01*
X122329523Y-135951809D01*
X121877142Y-136404190D02*
X122115238Y-136404190D01*
X122115238Y-135904190D01*
M02*
