G04 #@! TF.GenerationSoftware,KiCad,Pcbnew,(5.1.4)-1*
G04 #@! TF.CreationDate,2019-11-26T11:13:51+01:00*
G04 #@! TF.ProjectId,SoundModule,536f756e-644d-46f6-9475-6c652e6b6963,rev?*
G04 #@! TF.SameCoordinates,Original*
G04 #@! TF.FileFunction,Copper,L1,Top*
G04 #@! TF.FilePolarity,Positive*
%FSLAX46Y46*%
G04 Gerber Fmt 4.6, Leading zero omitted, Abs format (unit mm)*
G04 Created by KiCad (PCBNEW (5.1.4)-1) date 2019-11-26 11:13:51*
%MOMM*%
%LPD*%
G04 APERTURE LIST*
%ADD10C,0.100000*%
%ADD11C,1.150000*%
%ADD12R,1.524000X4.000000*%
%ADD13R,2.500000X0.450000*%
%ADD14R,1.700000X1.700000*%
%ADD15R,0.550000X1.400000*%
%ADD16O,1.700000X1.700000*%
%ADD17C,1.560000*%
%ADD18C,0.800000*%
%ADD19C,0.500000*%
%ADD20C,0.350000*%
%ADD21C,0.250000*%
%ADD22C,0.254000*%
G04 APERTURE END LIST*
D10*
G36*
X118276625Y-71797884D02*
G01*
X118300893Y-71801484D01*
X118324692Y-71807445D01*
X118347791Y-71815710D01*
X118369970Y-71826200D01*
X118391013Y-71838812D01*
X118410719Y-71853427D01*
X118428897Y-71869903D01*
X118445373Y-71888081D01*
X118459988Y-71907787D01*
X118472600Y-71928830D01*
X118483090Y-71951009D01*
X118491355Y-71974108D01*
X118497316Y-71997907D01*
X118500916Y-72022175D01*
X118502120Y-72046679D01*
X118502120Y-72946681D01*
X118500916Y-72971185D01*
X118497316Y-72995453D01*
X118491355Y-73019252D01*
X118483090Y-73042351D01*
X118472600Y-73064530D01*
X118459988Y-73085573D01*
X118445373Y-73105279D01*
X118428897Y-73123457D01*
X118410719Y-73139933D01*
X118391013Y-73154548D01*
X118369970Y-73167160D01*
X118347791Y-73177650D01*
X118324692Y-73185915D01*
X118300893Y-73191876D01*
X118276625Y-73195476D01*
X118252121Y-73196680D01*
X117602119Y-73196680D01*
X117577615Y-73195476D01*
X117553347Y-73191876D01*
X117529548Y-73185915D01*
X117506449Y-73177650D01*
X117484270Y-73167160D01*
X117463227Y-73154548D01*
X117443521Y-73139933D01*
X117425343Y-73123457D01*
X117408867Y-73105279D01*
X117394252Y-73085573D01*
X117381640Y-73064530D01*
X117371150Y-73042351D01*
X117362885Y-73019252D01*
X117356924Y-72995453D01*
X117353324Y-72971185D01*
X117352120Y-72946681D01*
X117352120Y-72046679D01*
X117353324Y-72022175D01*
X117356924Y-71997907D01*
X117362885Y-71974108D01*
X117371150Y-71951009D01*
X117381640Y-71928830D01*
X117394252Y-71907787D01*
X117408867Y-71888081D01*
X117425343Y-71869903D01*
X117443521Y-71853427D01*
X117463227Y-71838812D01*
X117484270Y-71826200D01*
X117506449Y-71815710D01*
X117529548Y-71807445D01*
X117553347Y-71801484D01*
X117577615Y-71797884D01*
X117602119Y-71796680D01*
X118252121Y-71796680D01*
X118276625Y-71797884D01*
X118276625Y-71797884D01*
G37*
D11*
X117927120Y-72496680D03*
D10*
G36*
X116226625Y-71797884D02*
G01*
X116250893Y-71801484D01*
X116274692Y-71807445D01*
X116297791Y-71815710D01*
X116319970Y-71826200D01*
X116341013Y-71838812D01*
X116360719Y-71853427D01*
X116378897Y-71869903D01*
X116395373Y-71888081D01*
X116409988Y-71907787D01*
X116422600Y-71928830D01*
X116433090Y-71951009D01*
X116441355Y-71974108D01*
X116447316Y-71997907D01*
X116450916Y-72022175D01*
X116452120Y-72046679D01*
X116452120Y-72946681D01*
X116450916Y-72971185D01*
X116447316Y-72995453D01*
X116441355Y-73019252D01*
X116433090Y-73042351D01*
X116422600Y-73064530D01*
X116409988Y-73085573D01*
X116395373Y-73105279D01*
X116378897Y-73123457D01*
X116360719Y-73139933D01*
X116341013Y-73154548D01*
X116319970Y-73167160D01*
X116297791Y-73177650D01*
X116274692Y-73185915D01*
X116250893Y-73191876D01*
X116226625Y-73195476D01*
X116202121Y-73196680D01*
X115552119Y-73196680D01*
X115527615Y-73195476D01*
X115503347Y-73191876D01*
X115479548Y-73185915D01*
X115456449Y-73177650D01*
X115434270Y-73167160D01*
X115413227Y-73154548D01*
X115393521Y-73139933D01*
X115375343Y-73123457D01*
X115358867Y-73105279D01*
X115344252Y-73085573D01*
X115331640Y-73064530D01*
X115321150Y-73042351D01*
X115312885Y-73019252D01*
X115306924Y-72995453D01*
X115303324Y-72971185D01*
X115302120Y-72946681D01*
X115302120Y-72046679D01*
X115303324Y-72022175D01*
X115306924Y-71997907D01*
X115312885Y-71974108D01*
X115321150Y-71951009D01*
X115331640Y-71928830D01*
X115344252Y-71907787D01*
X115358867Y-71888081D01*
X115375343Y-71869903D01*
X115393521Y-71853427D01*
X115413227Y-71838812D01*
X115434270Y-71826200D01*
X115456449Y-71815710D01*
X115479548Y-71807445D01*
X115503347Y-71801484D01*
X115527615Y-71797884D01*
X115552119Y-71796680D01*
X116202121Y-71796680D01*
X116226625Y-71797884D01*
X116226625Y-71797884D01*
G37*
D11*
X115877120Y-72496680D03*
D12*
X119941340Y-101918520D03*
X122481340Y-101918520D03*
X125021340Y-101918520D03*
D13*
X125861180Y-86720680D03*
X125861180Y-87370680D03*
X125861180Y-88020680D03*
X125861180Y-88670680D03*
X125861180Y-89320680D03*
X125861180Y-89970680D03*
X125861180Y-90620680D03*
X125861180Y-91270680D03*
X125861180Y-91920680D03*
X125861180Y-92570680D03*
X118661180Y-92570680D03*
X118661180Y-91920680D03*
X118661180Y-91270680D03*
X118661180Y-90620680D03*
X118661180Y-89970680D03*
X118661180Y-89320680D03*
X118661180Y-88670680D03*
X118661180Y-88020680D03*
X118661180Y-87370680D03*
X118661180Y-86720680D03*
D14*
X137993120Y-72242680D03*
D15*
X119588200Y-62382400D03*
X120538200Y-62382400D03*
X121488200Y-62382400D03*
X121488200Y-64998600D03*
X120538200Y-64998600D03*
X119588200Y-64998600D03*
X134620000Y-64211200D03*
X135570000Y-64211200D03*
X136520000Y-64211200D03*
X136520000Y-61595000D03*
X135570000Y-61595000D03*
X134620000Y-61595000D03*
D10*
G36*
X120745505Y-83608884D02*
G01*
X120769773Y-83612484D01*
X120793572Y-83618445D01*
X120816671Y-83626710D01*
X120838850Y-83637200D01*
X120859893Y-83649812D01*
X120879599Y-83664427D01*
X120897777Y-83680903D01*
X120914253Y-83699081D01*
X120928868Y-83718787D01*
X120941480Y-83739830D01*
X120951970Y-83762009D01*
X120960235Y-83785108D01*
X120966196Y-83808907D01*
X120969796Y-83833175D01*
X120971000Y-83857679D01*
X120971000Y-84757681D01*
X120969796Y-84782185D01*
X120966196Y-84806453D01*
X120960235Y-84830252D01*
X120951970Y-84853351D01*
X120941480Y-84875530D01*
X120928868Y-84896573D01*
X120914253Y-84916279D01*
X120897777Y-84934457D01*
X120879599Y-84950933D01*
X120859893Y-84965548D01*
X120838850Y-84978160D01*
X120816671Y-84988650D01*
X120793572Y-84996915D01*
X120769773Y-85002876D01*
X120745505Y-85006476D01*
X120721001Y-85007680D01*
X120070999Y-85007680D01*
X120046495Y-85006476D01*
X120022227Y-85002876D01*
X119998428Y-84996915D01*
X119975329Y-84988650D01*
X119953150Y-84978160D01*
X119932107Y-84965548D01*
X119912401Y-84950933D01*
X119894223Y-84934457D01*
X119877747Y-84916279D01*
X119863132Y-84896573D01*
X119850520Y-84875530D01*
X119840030Y-84853351D01*
X119831765Y-84830252D01*
X119825804Y-84806453D01*
X119822204Y-84782185D01*
X119821000Y-84757681D01*
X119821000Y-83857679D01*
X119822204Y-83833175D01*
X119825804Y-83808907D01*
X119831765Y-83785108D01*
X119840030Y-83762009D01*
X119850520Y-83739830D01*
X119863132Y-83718787D01*
X119877747Y-83699081D01*
X119894223Y-83680903D01*
X119912401Y-83664427D01*
X119932107Y-83649812D01*
X119953150Y-83637200D01*
X119975329Y-83626710D01*
X119998428Y-83618445D01*
X120022227Y-83612484D01*
X120046495Y-83608884D01*
X120070999Y-83607680D01*
X120721001Y-83607680D01*
X120745505Y-83608884D01*
X120745505Y-83608884D01*
G37*
D11*
X120396000Y-84307680D03*
D10*
G36*
X118695505Y-83608884D02*
G01*
X118719773Y-83612484D01*
X118743572Y-83618445D01*
X118766671Y-83626710D01*
X118788850Y-83637200D01*
X118809893Y-83649812D01*
X118829599Y-83664427D01*
X118847777Y-83680903D01*
X118864253Y-83699081D01*
X118878868Y-83718787D01*
X118891480Y-83739830D01*
X118901970Y-83762009D01*
X118910235Y-83785108D01*
X118916196Y-83808907D01*
X118919796Y-83833175D01*
X118921000Y-83857679D01*
X118921000Y-84757681D01*
X118919796Y-84782185D01*
X118916196Y-84806453D01*
X118910235Y-84830252D01*
X118901970Y-84853351D01*
X118891480Y-84875530D01*
X118878868Y-84896573D01*
X118864253Y-84916279D01*
X118847777Y-84934457D01*
X118829599Y-84950933D01*
X118809893Y-84965548D01*
X118788850Y-84978160D01*
X118766671Y-84988650D01*
X118743572Y-84996915D01*
X118719773Y-85002876D01*
X118695505Y-85006476D01*
X118671001Y-85007680D01*
X118020999Y-85007680D01*
X117996495Y-85006476D01*
X117972227Y-85002876D01*
X117948428Y-84996915D01*
X117925329Y-84988650D01*
X117903150Y-84978160D01*
X117882107Y-84965548D01*
X117862401Y-84950933D01*
X117844223Y-84934457D01*
X117827747Y-84916279D01*
X117813132Y-84896573D01*
X117800520Y-84875530D01*
X117790030Y-84853351D01*
X117781765Y-84830252D01*
X117775804Y-84806453D01*
X117772204Y-84782185D01*
X117771000Y-84757681D01*
X117771000Y-83857679D01*
X117772204Y-83833175D01*
X117775804Y-83808907D01*
X117781765Y-83785108D01*
X117790030Y-83762009D01*
X117800520Y-83739830D01*
X117813132Y-83718787D01*
X117827747Y-83699081D01*
X117844223Y-83680903D01*
X117862401Y-83664427D01*
X117882107Y-83649812D01*
X117903150Y-83637200D01*
X117925329Y-83626710D01*
X117948428Y-83618445D01*
X117972227Y-83612484D01*
X117996495Y-83608884D01*
X118020999Y-83607680D01*
X118671001Y-83607680D01*
X118695505Y-83608884D01*
X118695505Y-83608884D01*
G37*
D11*
X118346000Y-84307680D03*
D10*
G36*
X116323905Y-62037204D02*
G01*
X116348173Y-62040804D01*
X116371972Y-62046765D01*
X116395071Y-62055030D01*
X116417250Y-62065520D01*
X116438293Y-62078132D01*
X116457999Y-62092747D01*
X116476177Y-62109223D01*
X116492653Y-62127401D01*
X116507268Y-62147107D01*
X116519880Y-62168150D01*
X116530370Y-62190329D01*
X116538635Y-62213428D01*
X116544596Y-62237227D01*
X116548196Y-62261495D01*
X116549400Y-62285999D01*
X116549400Y-62936001D01*
X116548196Y-62960505D01*
X116544596Y-62984773D01*
X116538635Y-63008572D01*
X116530370Y-63031671D01*
X116519880Y-63053850D01*
X116507268Y-63074893D01*
X116492653Y-63094599D01*
X116476177Y-63112777D01*
X116457999Y-63129253D01*
X116438293Y-63143868D01*
X116417250Y-63156480D01*
X116395071Y-63166970D01*
X116371972Y-63175235D01*
X116348173Y-63181196D01*
X116323905Y-63184796D01*
X116299401Y-63186000D01*
X115399399Y-63186000D01*
X115374895Y-63184796D01*
X115350627Y-63181196D01*
X115326828Y-63175235D01*
X115303729Y-63166970D01*
X115281550Y-63156480D01*
X115260507Y-63143868D01*
X115240801Y-63129253D01*
X115222623Y-63112777D01*
X115206147Y-63094599D01*
X115191532Y-63074893D01*
X115178920Y-63053850D01*
X115168430Y-63031671D01*
X115160165Y-63008572D01*
X115154204Y-62984773D01*
X115150604Y-62960505D01*
X115149400Y-62936001D01*
X115149400Y-62285999D01*
X115150604Y-62261495D01*
X115154204Y-62237227D01*
X115160165Y-62213428D01*
X115168430Y-62190329D01*
X115178920Y-62168150D01*
X115191532Y-62147107D01*
X115206147Y-62127401D01*
X115222623Y-62109223D01*
X115240801Y-62092747D01*
X115260507Y-62078132D01*
X115281550Y-62065520D01*
X115303729Y-62055030D01*
X115326828Y-62046765D01*
X115350627Y-62040804D01*
X115374895Y-62037204D01*
X115399399Y-62036000D01*
X116299401Y-62036000D01*
X116323905Y-62037204D01*
X116323905Y-62037204D01*
G37*
D11*
X115849400Y-62611000D03*
D10*
G36*
X116323905Y-64087204D02*
G01*
X116348173Y-64090804D01*
X116371972Y-64096765D01*
X116395071Y-64105030D01*
X116417250Y-64115520D01*
X116438293Y-64128132D01*
X116457999Y-64142747D01*
X116476177Y-64159223D01*
X116492653Y-64177401D01*
X116507268Y-64197107D01*
X116519880Y-64218150D01*
X116530370Y-64240329D01*
X116538635Y-64263428D01*
X116544596Y-64287227D01*
X116548196Y-64311495D01*
X116549400Y-64335999D01*
X116549400Y-64986001D01*
X116548196Y-65010505D01*
X116544596Y-65034773D01*
X116538635Y-65058572D01*
X116530370Y-65081671D01*
X116519880Y-65103850D01*
X116507268Y-65124893D01*
X116492653Y-65144599D01*
X116476177Y-65162777D01*
X116457999Y-65179253D01*
X116438293Y-65193868D01*
X116417250Y-65206480D01*
X116395071Y-65216970D01*
X116371972Y-65225235D01*
X116348173Y-65231196D01*
X116323905Y-65234796D01*
X116299401Y-65236000D01*
X115399399Y-65236000D01*
X115374895Y-65234796D01*
X115350627Y-65231196D01*
X115326828Y-65225235D01*
X115303729Y-65216970D01*
X115281550Y-65206480D01*
X115260507Y-65193868D01*
X115240801Y-65179253D01*
X115222623Y-65162777D01*
X115206147Y-65144599D01*
X115191532Y-65124893D01*
X115178920Y-65103850D01*
X115168430Y-65081671D01*
X115160165Y-65058572D01*
X115154204Y-65034773D01*
X115150604Y-65010505D01*
X115149400Y-64986001D01*
X115149400Y-64335999D01*
X115150604Y-64311495D01*
X115154204Y-64287227D01*
X115160165Y-64263428D01*
X115168430Y-64240329D01*
X115178920Y-64218150D01*
X115191532Y-64197107D01*
X115206147Y-64177401D01*
X115222623Y-64159223D01*
X115240801Y-64142747D01*
X115260507Y-64128132D01*
X115281550Y-64115520D01*
X115303729Y-64105030D01*
X115326828Y-64096765D01*
X115350627Y-64090804D01*
X115374895Y-64087204D01*
X115399399Y-64086000D01*
X116299401Y-64086000D01*
X116323905Y-64087204D01*
X116323905Y-64087204D01*
G37*
D11*
X115849400Y-64661000D03*
D10*
G36*
X122269505Y-58843884D02*
G01*
X122293773Y-58847484D01*
X122317572Y-58853445D01*
X122340671Y-58861710D01*
X122362850Y-58872200D01*
X122383893Y-58884812D01*
X122403599Y-58899427D01*
X122421777Y-58915903D01*
X122438253Y-58934081D01*
X122452868Y-58953787D01*
X122465480Y-58974830D01*
X122475970Y-58997009D01*
X122484235Y-59020108D01*
X122490196Y-59043907D01*
X122493796Y-59068175D01*
X122495000Y-59092679D01*
X122495000Y-59992681D01*
X122493796Y-60017185D01*
X122490196Y-60041453D01*
X122484235Y-60065252D01*
X122475970Y-60088351D01*
X122465480Y-60110530D01*
X122452868Y-60131573D01*
X122438253Y-60151279D01*
X122421777Y-60169457D01*
X122403599Y-60185933D01*
X122383893Y-60200548D01*
X122362850Y-60213160D01*
X122340671Y-60223650D01*
X122317572Y-60231915D01*
X122293773Y-60237876D01*
X122269505Y-60241476D01*
X122245001Y-60242680D01*
X121594999Y-60242680D01*
X121570495Y-60241476D01*
X121546227Y-60237876D01*
X121522428Y-60231915D01*
X121499329Y-60223650D01*
X121477150Y-60213160D01*
X121456107Y-60200548D01*
X121436401Y-60185933D01*
X121418223Y-60169457D01*
X121401747Y-60151279D01*
X121387132Y-60131573D01*
X121374520Y-60110530D01*
X121364030Y-60088351D01*
X121355765Y-60065252D01*
X121349804Y-60041453D01*
X121346204Y-60017185D01*
X121345000Y-59992681D01*
X121345000Y-59092679D01*
X121346204Y-59068175D01*
X121349804Y-59043907D01*
X121355765Y-59020108D01*
X121364030Y-58997009D01*
X121374520Y-58974830D01*
X121387132Y-58953787D01*
X121401747Y-58934081D01*
X121418223Y-58915903D01*
X121436401Y-58899427D01*
X121456107Y-58884812D01*
X121477150Y-58872200D01*
X121499329Y-58861710D01*
X121522428Y-58853445D01*
X121546227Y-58847484D01*
X121570495Y-58843884D01*
X121594999Y-58842680D01*
X122245001Y-58842680D01*
X122269505Y-58843884D01*
X122269505Y-58843884D01*
G37*
D11*
X121920000Y-59542680D03*
D10*
G36*
X120219505Y-58843884D02*
G01*
X120243773Y-58847484D01*
X120267572Y-58853445D01*
X120290671Y-58861710D01*
X120312850Y-58872200D01*
X120333893Y-58884812D01*
X120353599Y-58899427D01*
X120371777Y-58915903D01*
X120388253Y-58934081D01*
X120402868Y-58953787D01*
X120415480Y-58974830D01*
X120425970Y-58997009D01*
X120434235Y-59020108D01*
X120440196Y-59043907D01*
X120443796Y-59068175D01*
X120445000Y-59092679D01*
X120445000Y-59992681D01*
X120443796Y-60017185D01*
X120440196Y-60041453D01*
X120434235Y-60065252D01*
X120425970Y-60088351D01*
X120415480Y-60110530D01*
X120402868Y-60131573D01*
X120388253Y-60151279D01*
X120371777Y-60169457D01*
X120353599Y-60185933D01*
X120333893Y-60200548D01*
X120312850Y-60213160D01*
X120290671Y-60223650D01*
X120267572Y-60231915D01*
X120243773Y-60237876D01*
X120219505Y-60241476D01*
X120195001Y-60242680D01*
X119544999Y-60242680D01*
X119520495Y-60241476D01*
X119496227Y-60237876D01*
X119472428Y-60231915D01*
X119449329Y-60223650D01*
X119427150Y-60213160D01*
X119406107Y-60200548D01*
X119386401Y-60185933D01*
X119368223Y-60169457D01*
X119351747Y-60151279D01*
X119337132Y-60131573D01*
X119324520Y-60110530D01*
X119314030Y-60088351D01*
X119305765Y-60065252D01*
X119299804Y-60041453D01*
X119296204Y-60017185D01*
X119295000Y-59992681D01*
X119295000Y-59092679D01*
X119296204Y-59068175D01*
X119299804Y-59043907D01*
X119305765Y-59020108D01*
X119314030Y-58997009D01*
X119324520Y-58974830D01*
X119337132Y-58953787D01*
X119351747Y-58934081D01*
X119368223Y-58915903D01*
X119386401Y-58899427D01*
X119406107Y-58884812D01*
X119427150Y-58872200D01*
X119449329Y-58861710D01*
X119472428Y-58853445D01*
X119496227Y-58847484D01*
X119520495Y-58843884D01*
X119544999Y-58842680D01*
X120195001Y-58842680D01*
X120219505Y-58843884D01*
X120219505Y-58843884D01*
G37*
D11*
X119870000Y-59542680D03*
D10*
G36*
X132872625Y-71543884D02*
G01*
X132896893Y-71547484D01*
X132920692Y-71553445D01*
X132943791Y-71561710D01*
X132965970Y-71572200D01*
X132987013Y-71584812D01*
X133006719Y-71599427D01*
X133024897Y-71615903D01*
X133041373Y-71634081D01*
X133055988Y-71653787D01*
X133068600Y-71674830D01*
X133079090Y-71697009D01*
X133087355Y-71720108D01*
X133093316Y-71743907D01*
X133096916Y-71768175D01*
X133098120Y-71792679D01*
X133098120Y-72692681D01*
X133096916Y-72717185D01*
X133093316Y-72741453D01*
X133087355Y-72765252D01*
X133079090Y-72788351D01*
X133068600Y-72810530D01*
X133055988Y-72831573D01*
X133041373Y-72851279D01*
X133024897Y-72869457D01*
X133006719Y-72885933D01*
X132987013Y-72900548D01*
X132965970Y-72913160D01*
X132943791Y-72923650D01*
X132920692Y-72931915D01*
X132896893Y-72937876D01*
X132872625Y-72941476D01*
X132848121Y-72942680D01*
X132198119Y-72942680D01*
X132173615Y-72941476D01*
X132149347Y-72937876D01*
X132125548Y-72931915D01*
X132102449Y-72923650D01*
X132080270Y-72913160D01*
X132059227Y-72900548D01*
X132039521Y-72885933D01*
X132021343Y-72869457D01*
X132004867Y-72851279D01*
X131990252Y-72831573D01*
X131977640Y-72810530D01*
X131967150Y-72788351D01*
X131958885Y-72765252D01*
X131952924Y-72741453D01*
X131949324Y-72717185D01*
X131948120Y-72692681D01*
X131948120Y-71792679D01*
X131949324Y-71768175D01*
X131952924Y-71743907D01*
X131958885Y-71720108D01*
X131967150Y-71697009D01*
X131977640Y-71674830D01*
X131990252Y-71653787D01*
X132004867Y-71634081D01*
X132021343Y-71615903D01*
X132039521Y-71599427D01*
X132059227Y-71584812D01*
X132080270Y-71572200D01*
X132102449Y-71561710D01*
X132125548Y-71553445D01*
X132149347Y-71547484D01*
X132173615Y-71543884D01*
X132198119Y-71542680D01*
X132848121Y-71542680D01*
X132872625Y-71543884D01*
X132872625Y-71543884D01*
G37*
D11*
X132523120Y-72242680D03*
D10*
G36*
X134922625Y-71543884D02*
G01*
X134946893Y-71547484D01*
X134970692Y-71553445D01*
X134993791Y-71561710D01*
X135015970Y-71572200D01*
X135037013Y-71584812D01*
X135056719Y-71599427D01*
X135074897Y-71615903D01*
X135091373Y-71634081D01*
X135105988Y-71653787D01*
X135118600Y-71674830D01*
X135129090Y-71697009D01*
X135137355Y-71720108D01*
X135143316Y-71743907D01*
X135146916Y-71768175D01*
X135148120Y-71792679D01*
X135148120Y-72692681D01*
X135146916Y-72717185D01*
X135143316Y-72741453D01*
X135137355Y-72765252D01*
X135129090Y-72788351D01*
X135118600Y-72810530D01*
X135105988Y-72831573D01*
X135091373Y-72851279D01*
X135074897Y-72869457D01*
X135056719Y-72885933D01*
X135037013Y-72900548D01*
X135015970Y-72913160D01*
X134993791Y-72923650D01*
X134970692Y-72931915D01*
X134946893Y-72937876D01*
X134922625Y-72941476D01*
X134898121Y-72942680D01*
X134248119Y-72942680D01*
X134223615Y-72941476D01*
X134199347Y-72937876D01*
X134175548Y-72931915D01*
X134152449Y-72923650D01*
X134130270Y-72913160D01*
X134109227Y-72900548D01*
X134089521Y-72885933D01*
X134071343Y-72869457D01*
X134054867Y-72851279D01*
X134040252Y-72831573D01*
X134027640Y-72810530D01*
X134017150Y-72788351D01*
X134008885Y-72765252D01*
X134002924Y-72741453D01*
X133999324Y-72717185D01*
X133998120Y-72692681D01*
X133998120Y-71792679D01*
X133999324Y-71768175D01*
X134002924Y-71743907D01*
X134008885Y-71720108D01*
X134017150Y-71697009D01*
X134027640Y-71674830D01*
X134040252Y-71653787D01*
X134054867Y-71634081D01*
X134071343Y-71615903D01*
X134089521Y-71599427D01*
X134109227Y-71584812D01*
X134130270Y-71572200D01*
X134152449Y-71561710D01*
X134175548Y-71553445D01*
X134199347Y-71547484D01*
X134223615Y-71543884D01*
X134248119Y-71542680D01*
X134898121Y-71542680D01*
X134922625Y-71543884D01*
X134922625Y-71543884D01*
G37*
D11*
X134573120Y-72242680D03*
D10*
G36*
X134951505Y-67373204D02*
G01*
X134975773Y-67376804D01*
X134999572Y-67382765D01*
X135022671Y-67391030D01*
X135044850Y-67401520D01*
X135065893Y-67414132D01*
X135085599Y-67428747D01*
X135103777Y-67445223D01*
X135120253Y-67463401D01*
X135134868Y-67483107D01*
X135147480Y-67504150D01*
X135157970Y-67526329D01*
X135166235Y-67549428D01*
X135172196Y-67573227D01*
X135175796Y-67597495D01*
X135177000Y-67621999D01*
X135177000Y-68522001D01*
X135175796Y-68546505D01*
X135172196Y-68570773D01*
X135166235Y-68594572D01*
X135157970Y-68617671D01*
X135147480Y-68639850D01*
X135134868Y-68660893D01*
X135120253Y-68680599D01*
X135103777Y-68698777D01*
X135085599Y-68715253D01*
X135065893Y-68729868D01*
X135044850Y-68742480D01*
X135022671Y-68752970D01*
X134999572Y-68761235D01*
X134975773Y-68767196D01*
X134951505Y-68770796D01*
X134927001Y-68772000D01*
X134276999Y-68772000D01*
X134252495Y-68770796D01*
X134228227Y-68767196D01*
X134204428Y-68761235D01*
X134181329Y-68752970D01*
X134159150Y-68742480D01*
X134138107Y-68729868D01*
X134118401Y-68715253D01*
X134100223Y-68698777D01*
X134083747Y-68680599D01*
X134069132Y-68660893D01*
X134056520Y-68639850D01*
X134046030Y-68617671D01*
X134037765Y-68594572D01*
X134031804Y-68570773D01*
X134028204Y-68546505D01*
X134027000Y-68522001D01*
X134027000Y-67621999D01*
X134028204Y-67597495D01*
X134031804Y-67573227D01*
X134037765Y-67549428D01*
X134046030Y-67526329D01*
X134056520Y-67504150D01*
X134069132Y-67483107D01*
X134083747Y-67463401D01*
X134100223Y-67445223D01*
X134118401Y-67428747D01*
X134138107Y-67414132D01*
X134159150Y-67401520D01*
X134181329Y-67391030D01*
X134204428Y-67382765D01*
X134228227Y-67376804D01*
X134252495Y-67373204D01*
X134276999Y-67372000D01*
X134927001Y-67372000D01*
X134951505Y-67373204D01*
X134951505Y-67373204D01*
G37*
D11*
X134602000Y-68072000D03*
D10*
G36*
X137001505Y-67373204D02*
G01*
X137025773Y-67376804D01*
X137049572Y-67382765D01*
X137072671Y-67391030D01*
X137094850Y-67401520D01*
X137115893Y-67414132D01*
X137135599Y-67428747D01*
X137153777Y-67445223D01*
X137170253Y-67463401D01*
X137184868Y-67483107D01*
X137197480Y-67504150D01*
X137207970Y-67526329D01*
X137216235Y-67549428D01*
X137222196Y-67573227D01*
X137225796Y-67597495D01*
X137227000Y-67621999D01*
X137227000Y-68522001D01*
X137225796Y-68546505D01*
X137222196Y-68570773D01*
X137216235Y-68594572D01*
X137207970Y-68617671D01*
X137197480Y-68639850D01*
X137184868Y-68660893D01*
X137170253Y-68680599D01*
X137153777Y-68698777D01*
X137135599Y-68715253D01*
X137115893Y-68729868D01*
X137094850Y-68742480D01*
X137072671Y-68752970D01*
X137049572Y-68761235D01*
X137025773Y-68767196D01*
X137001505Y-68770796D01*
X136977001Y-68772000D01*
X136326999Y-68772000D01*
X136302495Y-68770796D01*
X136278227Y-68767196D01*
X136254428Y-68761235D01*
X136231329Y-68752970D01*
X136209150Y-68742480D01*
X136188107Y-68729868D01*
X136168401Y-68715253D01*
X136150223Y-68698777D01*
X136133747Y-68680599D01*
X136119132Y-68660893D01*
X136106520Y-68639850D01*
X136096030Y-68617671D01*
X136087765Y-68594572D01*
X136081804Y-68570773D01*
X136078204Y-68546505D01*
X136077000Y-68522001D01*
X136077000Y-67621999D01*
X136078204Y-67597495D01*
X136081804Y-67573227D01*
X136087765Y-67549428D01*
X136096030Y-67526329D01*
X136106520Y-67504150D01*
X136119132Y-67483107D01*
X136133747Y-67463401D01*
X136150223Y-67445223D01*
X136168401Y-67428747D01*
X136188107Y-67414132D01*
X136209150Y-67401520D01*
X136231329Y-67391030D01*
X136254428Y-67382765D01*
X136278227Y-67376804D01*
X136302495Y-67373204D01*
X136326999Y-67372000D01*
X136977001Y-67372000D01*
X137001505Y-67373204D01*
X137001505Y-67373204D01*
G37*
D11*
X136652000Y-68072000D03*
D10*
G36*
X132554505Y-61384204D02*
G01*
X132578773Y-61387804D01*
X132602572Y-61393765D01*
X132625671Y-61402030D01*
X132647850Y-61412520D01*
X132668893Y-61425132D01*
X132688599Y-61439747D01*
X132706777Y-61456223D01*
X132723253Y-61474401D01*
X132737868Y-61494107D01*
X132750480Y-61515150D01*
X132760970Y-61537329D01*
X132769235Y-61560428D01*
X132775196Y-61584227D01*
X132778796Y-61608495D01*
X132780000Y-61632999D01*
X132780000Y-62283001D01*
X132778796Y-62307505D01*
X132775196Y-62331773D01*
X132769235Y-62355572D01*
X132760970Y-62378671D01*
X132750480Y-62400850D01*
X132737868Y-62421893D01*
X132723253Y-62441599D01*
X132706777Y-62459777D01*
X132688599Y-62476253D01*
X132668893Y-62490868D01*
X132647850Y-62503480D01*
X132625671Y-62513970D01*
X132602572Y-62522235D01*
X132578773Y-62528196D01*
X132554505Y-62531796D01*
X132530001Y-62533000D01*
X131629999Y-62533000D01*
X131605495Y-62531796D01*
X131581227Y-62528196D01*
X131557428Y-62522235D01*
X131534329Y-62513970D01*
X131512150Y-62503480D01*
X131491107Y-62490868D01*
X131471401Y-62476253D01*
X131453223Y-62459777D01*
X131436747Y-62441599D01*
X131422132Y-62421893D01*
X131409520Y-62400850D01*
X131399030Y-62378671D01*
X131390765Y-62355572D01*
X131384804Y-62331773D01*
X131381204Y-62307505D01*
X131380000Y-62283001D01*
X131380000Y-61632999D01*
X131381204Y-61608495D01*
X131384804Y-61584227D01*
X131390765Y-61560428D01*
X131399030Y-61537329D01*
X131409520Y-61515150D01*
X131422132Y-61494107D01*
X131436747Y-61474401D01*
X131453223Y-61456223D01*
X131471401Y-61439747D01*
X131491107Y-61425132D01*
X131512150Y-61412520D01*
X131534329Y-61402030D01*
X131557428Y-61393765D01*
X131581227Y-61387804D01*
X131605495Y-61384204D01*
X131629999Y-61383000D01*
X132530001Y-61383000D01*
X132554505Y-61384204D01*
X132554505Y-61384204D01*
G37*
D11*
X132080000Y-61958000D03*
D10*
G36*
X132554505Y-63434204D02*
G01*
X132578773Y-63437804D01*
X132602572Y-63443765D01*
X132625671Y-63452030D01*
X132647850Y-63462520D01*
X132668893Y-63475132D01*
X132688599Y-63489747D01*
X132706777Y-63506223D01*
X132723253Y-63524401D01*
X132737868Y-63544107D01*
X132750480Y-63565150D01*
X132760970Y-63587329D01*
X132769235Y-63610428D01*
X132775196Y-63634227D01*
X132778796Y-63658495D01*
X132780000Y-63682999D01*
X132780000Y-64333001D01*
X132778796Y-64357505D01*
X132775196Y-64381773D01*
X132769235Y-64405572D01*
X132760970Y-64428671D01*
X132750480Y-64450850D01*
X132737868Y-64471893D01*
X132723253Y-64491599D01*
X132706777Y-64509777D01*
X132688599Y-64526253D01*
X132668893Y-64540868D01*
X132647850Y-64553480D01*
X132625671Y-64563970D01*
X132602572Y-64572235D01*
X132578773Y-64578196D01*
X132554505Y-64581796D01*
X132530001Y-64583000D01*
X131629999Y-64583000D01*
X131605495Y-64581796D01*
X131581227Y-64578196D01*
X131557428Y-64572235D01*
X131534329Y-64563970D01*
X131512150Y-64553480D01*
X131491107Y-64540868D01*
X131471401Y-64526253D01*
X131453223Y-64509777D01*
X131436747Y-64491599D01*
X131422132Y-64471893D01*
X131409520Y-64450850D01*
X131399030Y-64428671D01*
X131390765Y-64405572D01*
X131384804Y-64381773D01*
X131381204Y-64357505D01*
X131380000Y-64333001D01*
X131380000Y-63682999D01*
X131381204Y-63658495D01*
X131384804Y-63634227D01*
X131390765Y-63610428D01*
X131399030Y-63587329D01*
X131409520Y-63565150D01*
X131422132Y-63544107D01*
X131436747Y-63524401D01*
X131453223Y-63506223D01*
X131471401Y-63489747D01*
X131491107Y-63475132D01*
X131512150Y-63462520D01*
X131534329Y-63452030D01*
X131557428Y-63443765D01*
X131581227Y-63437804D01*
X131605495Y-63434204D01*
X131629999Y-63433000D01*
X132530001Y-63433000D01*
X132554505Y-63434204D01*
X132554505Y-63434204D01*
G37*
D11*
X132080000Y-64008000D03*
D14*
X115646200Y-81483200D03*
D16*
X118186200Y-81483200D03*
X120726200Y-81483200D03*
X123266200Y-81483200D03*
X125806200Y-81483200D03*
X128346200Y-81483200D03*
D17*
X122748120Y-72497680D03*
D10*
G36*
X118276625Y-74083884D02*
G01*
X118300893Y-74087484D01*
X118324692Y-74093445D01*
X118347791Y-74101710D01*
X118369970Y-74112200D01*
X118391013Y-74124812D01*
X118410719Y-74139427D01*
X118428897Y-74155903D01*
X118445373Y-74174081D01*
X118459988Y-74193787D01*
X118472600Y-74214830D01*
X118483090Y-74237009D01*
X118491355Y-74260108D01*
X118497316Y-74283907D01*
X118500916Y-74308175D01*
X118502120Y-74332679D01*
X118502120Y-75232681D01*
X118500916Y-75257185D01*
X118497316Y-75281453D01*
X118491355Y-75305252D01*
X118483090Y-75328351D01*
X118472600Y-75350530D01*
X118459988Y-75371573D01*
X118445373Y-75391279D01*
X118428897Y-75409457D01*
X118410719Y-75425933D01*
X118391013Y-75440548D01*
X118369970Y-75453160D01*
X118347791Y-75463650D01*
X118324692Y-75471915D01*
X118300893Y-75477876D01*
X118276625Y-75481476D01*
X118252121Y-75482680D01*
X117602119Y-75482680D01*
X117577615Y-75481476D01*
X117553347Y-75477876D01*
X117529548Y-75471915D01*
X117506449Y-75463650D01*
X117484270Y-75453160D01*
X117463227Y-75440548D01*
X117443521Y-75425933D01*
X117425343Y-75409457D01*
X117408867Y-75391279D01*
X117394252Y-75371573D01*
X117381640Y-75350530D01*
X117371150Y-75328351D01*
X117362885Y-75305252D01*
X117356924Y-75281453D01*
X117353324Y-75257185D01*
X117352120Y-75232681D01*
X117352120Y-74332679D01*
X117353324Y-74308175D01*
X117356924Y-74283907D01*
X117362885Y-74260108D01*
X117371150Y-74237009D01*
X117381640Y-74214830D01*
X117394252Y-74193787D01*
X117408867Y-74174081D01*
X117425343Y-74155903D01*
X117443521Y-74139427D01*
X117463227Y-74124812D01*
X117484270Y-74112200D01*
X117506449Y-74101710D01*
X117529548Y-74093445D01*
X117553347Y-74087484D01*
X117577615Y-74083884D01*
X117602119Y-74082680D01*
X118252121Y-74082680D01*
X118276625Y-74083884D01*
X118276625Y-74083884D01*
G37*
D11*
X117927120Y-74782680D03*
D10*
G36*
X116226625Y-74083884D02*
G01*
X116250893Y-74087484D01*
X116274692Y-74093445D01*
X116297791Y-74101710D01*
X116319970Y-74112200D01*
X116341013Y-74124812D01*
X116360719Y-74139427D01*
X116378897Y-74155903D01*
X116395373Y-74174081D01*
X116409988Y-74193787D01*
X116422600Y-74214830D01*
X116433090Y-74237009D01*
X116441355Y-74260108D01*
X116447316Y-74283907D01*
X116450916Y-74308175D01*
X116452120Y-74332679D01*
X116452120Y-75232681D01*
X116450916Y-75257185D01*
X116447316Y-75281453D01*
X116441355Y-75305252D01*
X116433090Y-75328351D01*
X116422600Y-75350530D01*
X116409988Y-75371573D01*
X116395373Y-75391279D01*
X116378897Y-75409457D01*
X116360719Y-75425933D01*
X116341013Y-75440548D01*
X116319970Y-75453160D01*
X116297791Y-75463650D01*
X116274692Y-75471915D01*
X116250893Y-75477876D01*
X116226625Y-75481476D01*
X116202121Y-75482680D01*
X115552119Y-75482680D01*
X115527615Y-75481476D01*
X115503347Y-75477876D01*
X115479548Y-75471915D01*
X115456449Y-75463650D01*
X115434270Y-75453160D01*
X115413227Y-75440548D01*
X115393521Y-75425933D01*
X115375343Y-75409457D01*
X115358867Y-75391279D01*
X115344252Y-75371573D01*
X115331640Y-75350530D01*
X115321150Y-75328351D01*
X115312885Y-75305252D01*
X115306924Y-75281453D01*
X115303324Y-75257185D01*
X115302120Y-75232681D01*
X115302120Y-74332679D01*
X115303324Y-74308175D01*
X115306924Y-74283907D01*
X115312885Y-74260108D01*
X115321150Y-74237009D01*
X115331640Y-74214830D01*
X115344252Y-74193787D01*
X115358867Y-74174081D01*
X115375343Y-74155903D01*
X115393521Y-74139427D01*
X115413227Y-74124812D01*
X115434270Y-74112200D01*
X115456449Y-74101710D01*
X115479548Y-74093445D01*
X115503347Y-74087484D01*
X115527615Y-74083884D01*
X115552119Y-74082680D01*
X116202121Y-74082680D01*
X116226625Y-74083884D01*
X116226625Y-74083884D01*
G37*
D11*
X115877120Y-74782680D03*
D10*
G36*
X117214905Y-67881204D02*
G01*
X117239173Y-67884804D01*
X117262972Y-67890765D01*
X117286071Y-67899030D01*
X117308250Y-67909520D01*
X117329293Y-67922132D01*
X117348999Y-67936747D01*
X117367177Y-67953223D01*
X117383653Y-67971401D01*
X117398268Y-67991107D01*
X117410880Y-68012150D01*
X117421370Y-68034329D01*
X117429635Y-68057428D01*
X117435596Y-68081227D01*
X117439196Y-68105495D01*
X117440400Y-68129999D01*
X117440400Y-69030001D01*
X117439196Y-69054505D01*
X117435596Y-69078773D01*
X117429635Y-69102572D01*
X117421370Y-69125671D01*
X117410880Y-69147850D01*
X117398268Y-69168893D01*
X117383653Y-69188599D01*
X117367177Y-69206777D01*
X117348999Y-69223253D01*
X117329293Y-69237868D01*
X117308250Y-69250480D01*
X117286071Y-69260970D01*
X117262972Y-69269235D01*
X117239173Y-69275196D01*
X117214905Y-69278796D01*
X117190401Y-69280000D01*
X116540399Y-69280000D01*
X116515895Y-69278796D01*
X116491627Y-69275196D01*
X116467828Y-69269235D01*
X116444729Y-69260970D01*
X116422550Y-69250480D01*
X116401507Y-69237868D01*
X116381801Y-69223253D01*
X116363623Y-69206777D01*
X116347147Y-69188599D01*
X116332532Y-69168893D01*
X116319920Y-69147850D01*
X116309430Y-69125671D01*
X116301165Y-69102572D01*
X116295204Y-69078773D01*
X116291604Y-69054505D01*
X116290400Y-69030001D01*
X116290400Y-68129999D01*
X116291604Y-68105495D01*
X116295204Y-68081227D01*
X116301165Y-68057428D01*
X116309430Y-68034329D01*
X116319920Y-68012150D01*
X116332532Y-67991107D01*
X116347147Y-67971401D01*
X116363623Y-67953223D01*
X116381801Y-67936747D01*
X116401507Y-67922132D01*
X116422550Y-67909520D01*
X116444729Y-67899030D01*
X116467828Y-67890765D01*
X116491627Y-67884804D01*
X116515895Y-67881204D01*
X116540399Y-67880000D01*
X117190401Y-67880000D01*
X117214905Y-67881204D01*
X117214905Y-67881204D01*
G37*
D11*
X116865400Y-68580000D03*
D10*
G36*
X115164905Y-67881204D02*
G01*
X115189173Y-67884804D01*
X115212972Y-67890765D01*
X115236071Y-67899030D01*
X115258250Y-67909520D01*
X115279293Y-67922132D01*
X115298999Y-67936747D01*
X115317177Y-67953223D01*
X115333653Y-67971401D01*
X115348268Y-67991107D01*
X115360880Y-68012150D01*
X115371370Y-68034329D01*
X115379635Y-68057428D01*
X115385596Y-68081227D01*
X115389196Y-68105495D01*
X115390400Y-68129999D01*
X115390400Y-69030001D01*
X115389196Y-69054505D01*
X115385596Y-69078773D01*
X115379635Y-69102572D01*
X115371370Y-69125671D01*
X115360880Y-69147850D01*
X115348268Y-69168893D01*
X115333653Y-69188599D01*
X115317177Y-69206777D01*
X115298999Y-69223253D01*
X115279293Y-69237868D01*
X115258250Y-69250480D01*
X115236071Y-69260970D01*
X115212972Y-69269235D01*
X115189173Y-69275196D01*
X115164905Y-69278796D01*
X115140401Y-69280000D01*
X114490399Y-69280000D01*
X114465895Y-69278796D01*
X114441627Y-69275196D01*
X114417828Y-69269235D01*
X114394729Y-69260970D01*
X114372550Y-69250480D01*
X114351507Y-69237868D01*
X114331801Y-69223253D01*
X114313623Y-69206777D01*
X114297147Y-69188599D01*
X114282532Y-69168893D01*
X114269920Y-69147850D01*
X114259430Y-69125671D01*
X114251165Y-69102572D01*
X114245204Y-69078773D01*
X114241604Y-69054505D01*
X114240400Y-69030001D01*
X114240400Y-68129999D01*
X114241604Y-68105495D01*
X114245204Y-68081227D01*
X114251165Y-68057428D01*
X114259430Y-68034329D01*
X114269920Y-68012150D01*
X114282532Y-67991107D01*
X114297147Y-67971401D01*
X114313623Y-67953223D01*
X114331801Y-67936747D01*
X114351507Y-67922132D01*
X114372550Y-67909520D01*
X114394729Y-67899030D01*
X114417828Y-67890765D01*
X114441627Y-67884804D01*
X114465895Y-67881204D01*
X114490399Y-67880000D01*
X115140401Y-67880000D01*
X115164905Y-67881204D01*
X115164905Y-67881204D01*
G37*
D11*
X114815400Y-68580000D03*
D10*
G36*
X119729505Y-67881204D02*
G01*
X119753773Y-67884804D01*
X119777572Y-67890765D01*
X119800671Y-67899030D01*
X119822850Y-67909520D01*
X119843893Y-67922132D01*
X119863599Y-67936747D01*
X119881777Y-67953223D01*
X119898253Y-67971401D01*
X119912868Y-67991107D01*
X119925480Y-68012150D01*
X119935970Y-68034329D01*
X119944235Y-68057428D01*
X119950196Y-68081227D01*
X119953796Y-68105495D01*
X119955000Y-68129999D01*
X119955000Y-69030001D01*
X119953796Y-69054505D01*
X119950196Y-69078773D01*
X119944235Y-69102572D01*
X119935970Y-69125671D01*
X119925480Y-69147850D01*
X119912868Y-69168893D01*
X119898253Y-69188599D01*
X119881777Y-69206777D01*
X119863599Y-69223253D01*
X119843893Y-69237868D01*
X119822850Y-69250480D01*
X119800671Y-69260970D01*
X119777572Y-69269235D01*
X119753773Y-69275196D01*
X119729505Y-69278796D01*
X119705001Y-69280000D01*
X119054999Y-69280000D01*
X119030495Y-69278796D01*
X119006227Y-69275196D01*
X118982428Y-69269235D01*
X118959329Y-69260970D01*
X118937150Y-69250480D01*
X118916107Y-69237868D01*
X118896401Y-69223253D01*
X118878223Y-69206777D01*
X118861747Y-69188599D01*
X118847132Y-69168893D01*
X118834520Y-69147850D01*
X118824030Y-69125671D01*
X118815765Y-69102572D01*
X118809804Y-69078773D01*
X118806204Y-69054505D01*
X118805000Y-69030001D01*
X118805000Y-68129999D01*
X118806204Y-68105495D01*
X118809804Y-68081227D01*
X118815765Y-68057428D01*
X118824030Y-68034329D01*
X118834520Y-68012150D01*
X118847132Y-67991107D01*
X118861747Y-67971401D01*
X118878223Y-67953223D01*
X118896401Y-67936747D01*
X118916107Y-67922132D01*
X118937150Y-67909520D01*
X118959329Y-67899030D01*
X118982428Y-67890765D01*
X119006227Y-67884804D01*
X119030495Y-67881204D01*
X119054999Y-67880000D01*
X119705001Y-67880000D01*
X119729505Y-67881204D01*
X119729505Y-67881204D01*
G37*
D11*
X119380000Y-68580000D03*
D10*
G36*
X121779505Y-67881204D02*
G01*
X121803773Y-67884804D01*
X121827572Y-67890765D01*
X121850671Y-67899030D01*
X121872850Y-67909520D01*
X121893893Y-67922132D01*
X121913599Y-67936747D01*
X121931777Y-67953223D01*
X121948253Y-67971401D01*
X121962868Y-67991107D01*
X121975480Y-68012150D01*
X121985970Y-68034329D01*
X121994235Y-68057428D01*
X122000196Y-68081227D01*
X122003796Y-68105495D01*
X122005000Y-68129999D01*
X122005000Y-69030001D01*
X122003796Y-69054505D01*
X122000196Y-69078773D01*
X121994235Y-69102572D01*
X121985970Y-69125671D01*
X121975480Y-69147850D01*
X121962868Y-69168893D01*
X121948253Y-69188599D01*
X121931777Y-69206777D01*
X121913599Y-69223253D01*
X121893893Y-69237868D01*
X121872850Y-69250480D01*
X121850671Y-69260970D01*
X121827572Y-69269235D01*
X121803773Y-69275196D01*
X121779505Y-69278796D01*
X121755001Y-69280000D01*
X121104999Y-69280000D01*
X121080495Y-69278796D01*
X121056227Y-69275196D01*
X121032428Y-69269235D01*
X121009329Y-69260970D01*
X120987150Y-69250480D01*
X120966107Y-69237868D01*
X120946401Y-69223253D01*
X120928223Y-69206777D01*
X120911747Y-69188599D01*
X120897132Y-69168893D01*
X120884520Y-69147850D01*
X120874030Y-69125671D01*
X120865765Y-69102572D01*
X120859804Y-69078773D01*
X120856204Y-69054505D01*
X120855000Y-69030001D01*
X120855000Y-68129999D01*
X120856204Y-68105495D01*
X120859804Y-68081227D01*
X120865765Y-68057428D01*
X120874030Y-68034329D01*
X120884520Y-68012150D01*
X120897132Y-67991107D01*
X120911747Y-67971401D01*
X120928223Y-67953223D01*
X120946401Y-67936747D01*
X120966107Y-67922132D01*
X120987150Y-67909520D01*
X121009329Y-67899030D01*
X121032428Y-67890765D01*
X121056227Y-67884804D01*
X121080495Y-67881204D01*
X121104999Y-67880000D01*
X121755001Y-67880000D01*
X121779505Y-67881204D01*
X121779505Y-67881204D01*
G37*
D11*
X121430000Y-68580000D03*
D10*
G36*
X125950505Y-61910204D02*
G01*
X125974773Y-61913804D01*
X125998572Y-61919765D01*
X126021671Y-61928030D01*
X126043850Y-61938520D01*
X126064893Y-61951132D01*
X126084599Y-61965747D01*
X126102777Y-61982223D01*
X126119253Y-62000401D01*
X126133868Y-62020107D01*
X126146480Y-62041150D01*
X126156970Y-62063329D01*
X126165235Y-62086428D01*
X126171196Y-62110227D01*
X126174796Y-62134495D01*
X126176000Y-62158999D01*
X126176000Y-62809001D01*
X126174796Y-62833505D01*
X126171196Y-62857773D01*
X126165235Y-62881572D01*
X126156970Y-62904671D01*
X126146480Y-62926850D01*
X126133868Y-62947893D01*
X126119253Y-62967599D01*
X126102777Y-62985777D01*
X126084599Y-63002253D01*
X126064893Y-63016868D01*
X126043850Y-63029480D01*
X126021671Y-63039970D01*
X125998572Y-63048235D01*
X125974773Y-63054196D01*
X125950505Y-63057796D01*
X125926001Y-63059000D01*
X125025999Y-63059000D01*
X125001495Y-63057796D01*
X124977227Y-63054196D01*
X124953428Y-63048235D01*
X124930329Y-63039970D01*
X124908150Y-63029480D01*
X124887107Y-63016868D01*
X124867401Y-63002253D01*
X124849223Y-62985777D01*
X124832747Y-62967599D01*
X124818132Y-62947893D01*
X124805520Y-62926850D01*
X124795030Y-62904671D01*
X124786765Y-62881572D01*
X124780804Y-62857773D01*
X124777204Y-62833505D01*
X124776000Y-62809001D01*
X124776000Y-62158999D01*
X124777204Y-62134495D01*
X124780804Y-62110227D01*
X124786765Y-62086428D01*
X124795030Y-62063329D01*
X124805520Y-62041150D01*
X124818132Y-62020107D01*
X124832747Y-62000401D01*
X124849223Y-61982223D01*
X124867401Y-61965747D01*
X124887107Y-61951132D01*
X124908150Y-61938520D01*
X124930329Y-61928030D01*
X124953428Y-61919765D01*
X124977227Y-61913804D01*
X125001495Y-61910204D01*
X125025999Y-61909000D01*
X125926001Y-61909000D01*
X125950505Y-61910204D01*
X125950505Y-61910204D01*
G37*
D11*
X125476000Y-62484000D03*
D10*
G36*
X125950505Y-63960204D02*
G01*
X125974773Y-63963804D01*
X125998572Y-63969765D01*
X126021671Y-63978030D01*
X126043850Y-63988520D01*
X126064893Y-64001132D01*
X126084599Y-64015747D01*
X126102777Y-64032223D01*
X126119253Y-64050401D01*
X126133868Y-64070107D01*
X126146480Y-64091150D01*
X126156970Y-64113329D01*
X126165235Y-64136428D01*
X126171196Y-64160227D01*
X126174796Y-64184495D01*
X126176000Y-64208999D01*
X126176000Y-64859001D01*
X126174796Y-64883505D01*
X126171196Y-64907773D01*
X126165235Y-64931572D01*
X126156970Y-64954671D01*
X126146480Y-64976850D01*
X126133868Y-64997893D01*
X126119253Y-65017599D01*
X126102777Y-65035777D01*
X126084599Y-65052253D01*
X126064893Y-65066868D01*
X126043850Y-65079480D01*
X126021671Y-65089970D01*
X125998572Y-65098235D01*
X125974773Y-65104196D01*
X125950505Y-65107796D01*
X125926001Y-65109000D01*
X125025999Y-65109000D01*
X125001495Y-65107796D01*
X124977227Y-65104196D01*
X124953428Y-65098235D01*
X124930329Y-65089970D01*
X124908150Y-65079480D01*
X124887107Y-65066868D01*
X124867401Y-65052253D01*
X124849223Y-65035777D01*
X124832747Y-65017599D01*
X124818132Y-64997893D01*
X124805520Y-64976850D01*
X124795030Y-64954671D01*
X124786765Y-64931572D01*
X124780804Y-64907773D01*
X124777204Y-64883505D01*
X124776000Y-64859001D01*
X124776000Y-64208999D01*
X124777204Y-64184495D01*
X124780804Y-64160227D01*
X124786765Y-64136428D01*
X124795030Y-64113329D01*
X124805520Y-64091150D01*
X124818132Y-64070107D01*
X124832747Y-64050401D01*
X124849223Y-64032223D01*
X124867401Y-64015747D01*
X124887107Y-64001132D01*
X124908150Y-63988520D01*
X124930329Y-63978030D01*
X124953428Y-63969765D01*
X124977227Y-63963804D01*
X125001495Y-63960204D01*
X125025999Y-63959000D01*
X125926001Y-63959000D01*
X125950505Y-63960204D01*
X125950505Y-63960204D01*
G37*
D11*
X125476000Y-64534000D03*
D10*
G36*
X129506505Y-63960204D02*
G01*
X129530773Y-63963804D01*
X129554572Y-63969765D01*
X129577671Y-63978030D01*
X129599850Y-63988520D01*
X129620893Y-64001132D01*
X129640599Y-64015747D01*
X129658777Y-64032223D01*
X129675253Y-64050401D01*
X129689868Y-64070107D01*
X129702480Y-64091150D01*
X129712970Y-64113329D01*
X129721235Y-64136428D01*
X129727196Y-64160227D01*
X129730796Y-64184495D01*
X129732000Y-64208999D01*
X129732000Y-64859001D01*
X129730796Y-64883505D01*
X129727196Y-64907773D01*
X129721235Y-64931572D01*
X129712970Y-64954671D01*
X129702480Y-64976850D01*
X129689868Y-64997893D01*
X129675253Y-65017599D01*
X129658777Y-65035777D01*
X129640599Y-65052253D01*
X129620893Y-65066868D01*
X129599850Y-65079480D01*
X129577671Y-65089970D01*
X129554572Y-65098235D01*
X129530773Y-65104196D01*
X129506505Y-65107796D01*
X129482001Y-65109000D01*
X128581999Y-65109000D01*
X128557495Y-65107796D01*
X128533227Y-65104196D01*
X128509428Y-65098235D01*
X128486329Y-65089970D01*
X128464150Y-65079480D01*
X128443107Y-65066868D01*
X128423401Y-65052253D01*
X128405223Y-65035777D01*
X128388747Y-65017599D01*
X128374132Y-64997893D01*
X128361520Y-64976850D01*
X128351030Y-64954671D01*
X128342765Y-64931572D01*
X128336804Y-64907773D01*
X128333204Y-64883505D01*
X128332000Y-64859001D01*
X128332000Y-64208999D01*
X128333204Y-64184495D01*
X128336804Y-64160227D01*
X128342765Y-64136428D01*
X128351030Y-64113329D01*
X128361520Y-64091150D01*
X128374132Y-64070107D01*
X128388747Y-64050401D01*
X128405223Y-64032223D01*
X128423401Y-64015747D01*
X128443107Y-64001132D01*
X128464150Y-63988520D01*
X128486329Y-63978030D01*
X128509428Y-63969765D01*
X128533227Y-63963804D01*
X128557495Y-63960204D01*
X128581999Y-63959000D01*
X129482001Y-63959000D01*
X129506505Y-63960204D01*
X129506505Y-63960204D01*
G37*
D11*
X129032000Y-64534000D03*
D10*
G36*
X129506505Y-61910204D02*
G01*
X129530773Y-61913804D01*
X129554572Y-61919765D01*
X129577671Y-61928030D01*
X129599850Y-61938520D01*
X129620893Y-61951132D01*
X129640599Y-61965747D01*
X129658777Y-61982223D01*
X129675253Y-62000401D01*
X129689868Y-62020107D01*
X129702480Y-62041150D01*
X129712970Y-62063329D01*
X129721235Y-62086428D01*
X129727196Y-62110227D01*
X129730796Y-62134495D01*
X129732000Y-62158999D01*
X129732000Y-62809001D01*
X129730796Y-62833505D01*
X129727196Y-62857773D01*
X129721235Y-62881572D01*
X129712970Y-62904671D01*
X129702480Y-62926850D01*
X129689868Y-62947893D01*
X129675253Y-62967599D01*
X129658777Y-62985777D01*
X129640599Y-63002253D01*
X129620893Y-63016868D01*
X129599850Y-63029480D01*
X129577671Y-63039970D01*
X129554572Y-63048235D01*
X129530773Y-63054196D01*
X129506505Y-63057796D01*
X129482001Y-63059000D01*
X128581999Y-63059000D01*
X128557495Y-63057796D01*
X128533227Y-63054196D01*
X128509428Y-63048235D01*
X128486329Y-63039970D01*
X128464150Y-63029480D01*
X128443107Y-63016868D01*
X128423401Y-63002253D01*
X128405223Y-62985777D01*
X128388747Y-62967599D01*
X128374132Y-62947893D01*
X128361520Y-62926850D01*
X128351030Y-62904671D01*
X128342765Y-62881572D01*
X128336804Y-62857773D01*
X128333204Y-62833505D01*
X128332000Y-62809001D01*
X128332000Y-62158999D01*
X128333204Y-62134495D01*
X128336804Y-62110227D01*
X128342765Y-62086428D01*
X128351030Y-62063329D01*
X128361520Y-62041150D01*
X128374132Y-62020107D01*
X128388747Y-62000401D01*
X128405223Y-61982223D01*
X128423401Y-61965747D01*
X128443107Y-61951132D01*
X128464150Y-61938520D01*
X128486329Y-61928030D01*
X128509428Y-61919765D01*
X128533227Y-61913804D01*
X128557495Y-61910204D01*
X128581999Y-61909000D01*
X129482001Y-61909000D01*
X129506505Y-61910204D01*
X129506505Y-61910204D01*
G37*
D11*
X129032000Y-62484000D03*
D10*
G36*
X129381505Y-67373204D02*
G01*
X129405773Y-67376804D01*
X129429572Y-67382765D01*
X129452671Y-67391030D01*
X129474850Y-67401520D01*
X129495893Y-67414132D01*
X129515599Y-67428747D01*
X129533777Y-67445223D01*
X129550253Y-67463401D01*
X129564868Y-67483107D01*
X129577480Y-67504150D01*
X129587970Y-67526329D01*
X129596235Y-67549428D01*
X129602196Y-67573227D01*
X129605796Y-67597495D01*
X129607000Y-67621999D01*
X129607000Y-68522001D01*
X129605796Y-68546505D01*
X129602196Y-68570773D01*
X129596235Y-68594572D01*
X129587970Y-68617671D01*
X129577480Y-68639850D01*
X129564868Y-68660893D01*
X129550253Y-68680599D01*
X129533777Y-68698777D01*
X129515599Y-68715253D01*
X129495893Y-68729868D01*
X129474850Y-68742480D01*
X129452671Y-68752970D01*
X129429572Y-68761235D01*
X129405773Y-68767196D01*
X129381505Y-68770796D01*
X129357001Y-68772000D01*
X128706999Y-68772000D01*
X128682495Y-68770796D01*
X128658227Y-68767196D01*
X128634428Y-68761235D01*
X128611329Y-68752970D01*
X128589150Y-68742480D01*
X128568107Y-68729868D01*
X128548401Y-68715253D01*
X128530223Y-68698777D01*
X128513747Y-68680599D01*
X128499132Y-68660893D01*
X128486520Y-68639850D01*
X128476030Y-68617671D01*
X128467765Y-68594572D01*
X128461804Y-68570773D01*
X128458204Y-68546505D01*
X128457000Y-68522001D01*
X128457000Y-67621999D01*
X128458204Y-67597495D01*
X128461804Y-67573227D01*
X128467765Y-67549428D01*
X128476030Y-67526329D01*
X128486520Y-67504150D01*
X128499132Y-67483107D01*
X128513747Y-67463401D01*
X128530223Y-67445223D01*
X128548401Y-67428747D01*
X128568107Y-67414132D01*
X128589150Y-67401520D01*
X128611329Y-67391030D01*
X128634428Y-67382765D01*
X128658227Y-67376804D01*
X128682495Y-67373204D01*
X128706999Y-67372000D01*
X129357001Y-67372000D01*
X129381505Y-67373204D01*
X129381505Y-67373204D01*
G37*
D11*
X129032000Y-68072000D03*
D10*
G36*
X131431505Y-67373204D02*
G01*
X131455773Y-67376804D01*
X131479572Y-67382765D01*
X131502671Y-67391030D01*
X131524850Y-67401520D01*
X131545893Y-67414132D01*
X131565599Y-67428747D01*
X131583777Y-67445223D01*
X131600253Y-67463401D01*
X131614868Y-67483107D01*
X131627480Y-67504150D01*
X131637970Y-67526329D01*
X131646235Y-67549428D01*
X131652196Y-67573227D01*
X131655796Y-67597495D01*
X131657000Y-67621999D01*
X131657000Y-68522001D01*
X131655796Y-68546505D01*
X131652196Y-68570773D01*
X131646235Y-68594572D01*
X131637970Y-68617671D01*
X131627480Y-68639850D01*
X131614868Y-68660893D01*
X131600253Y-68680599D01*
X131583777Y-68698777D01*
X131565599Y-68715253D01*
X131545893Y-68729868D01*
X131524850Y-68742480D01*
X131502671Y-68752970D01*
X131479572Y-68761235D01*
X131455773Y-68767196D01*
X131431505Y-68770796D01*
X131407001Y-68772000D01*
X130756999Y-68772000D01*
X130732495Y-68770796D01*
X130708227Y-68767196D01*
X130684428Y-68761235D01*
X130661329Y-68752970D01*
X130639150Y-68742480D01*
X130618107Y-68729868D01*
X130598401Y-68715253D01*
X130580223Y-68698777D01*
X130563747Y-68680599D01*
X130549132Y-68660893D01*
X130536520Y-68639850D01*
X130526030Y-68617671D01*
X130517765Y-68594572D01*
X130511804Y-68570773D01*
X130508204Y-68546505D01*
X130507000Y-68522001D01*
X130507000Y-67621999D01*
X130508204Y-67597495D01*
X130511804Y-67573227D01*
X130517765Y-67549428D01*
X130526030Y-67526329D01*
X130536520Y-67504150D01*
X130549132Y-67483107D01*
X130563747Y-67463401D01*
X130580223Y-67445223D01*
X130598401Y-67428747D01*
X130618107Y-67414132D01*
X130639150Y-67401520D01*
X130661329Y-67391030D01*
X130684428Y-67382765D01*
X130708227Y-67376804D01*
X130732495Y-67373204D01*
X130756999Y-67372000D01*
X131407001Y-67372000D01*
X131431505Y-67373204D01*
X131431505Y-67373204D01*
G37*
D11*
X131082000Y-68072000D03*
D10*
G36*
X142081505Y-64833204D02*
G01*
X142105773Y-64836804D01*
X142129572Y-64842765D01*
X142152671Y-64851030D01*
X142174850Y-64861520D01*
X142195893Y-64874132D01*
X142215599Y-64888747D01*
X142233777Y-64905223D01*
X142250253Y-64923401D01*
X142264868Y-64943107D01*
X142277480Y-64964150D01*
X142287970Y-64986329D01*
X142296235Y-65009428D01*
X142302196Y-65033227D01*
X142305796Y-65057495D01*
X142307000Y-65081999D01*
X142307000Y-65982001D01*
X142305796Y-66006505D01*
X142302196Y-66030773D01*
X142296235Y-66054572D01*
X142287970Y-66077671D01*
X142277480Y-66099850D01*
X142264868Y-66120893D01*
X142250253Y-66140599D01*
X142233777Y-66158777D01*
X142215599Y-66175253D01*
X142195893Y-66189868D01*
X142174850Y-66202480D01*
X142152671Y-66212970D01*
X142129572Y-66221235D01*
X142105773Y-66227196D01*
X142081505Y-66230796D01*
X142057001Y-66232000D01*
X141406999Y-66232000D01*
X141382495Y-66230796D01*
X141358227Y-66227196D01*
X141334428Y-66221235D01*
X141311329Y-66212970D01*
X141289150Y-66202480D01*
X141268107Y-66189868D01*
X141248401Y-66175253D01*
X141230223Y-66158777D01*
X141213747Y-66140599D01*
X141199132Y-66120893D01*
X141186520Y-66099850D01*
X141176030Y-66077671D01*
X141167765Y-66054572D01*
X141161804Y-66030773D01*
X141158204Y-66006505D01*
X141157000Y-65982001D01*
X141157000Y-65081999D01*
X141158204Y-65057495D01*
X141161804Y-65033227D01*
X141167765Y-65009428D01*
X141176030Y-64986329D01*
X141186520Y-64964150D01*
X141199132Y-64943107D01*
X141213747Y-64923401D01*
X141230223Y-64905223D01*
X141248401Y-64888747D01*
X141268107Y-64874132D01*
X141289150Y-64861520D01*
X141311329Y-64851030D01*
X141334428Y-64842765D01*
X141358227Y-64836804D01*
X141382495Y-64833204D01*
X141406999Y-64832000D01*
X142057001Y-64832000D01*
X142081505Y-64833204D01*
X142081505Y-64833204D01*
G37*
D11*
X141732000Y-65532000D03*
D10*
G36*
X140031505Y-64833204D02*
G01*
X140055773Y-64836804D01*
X140079572Y-64842765D01*
X140102671Y-64851030D01*
X140124850Y-64861520D01*
X140145893Y-64874132D01*
X140165599Y-64888747D01*
X140183777Y-64905223D01*
X140200253Y-64923401D01*
X140214868Y-64943107D01*
X140227480Y-64964150D01*
X140237970Y-64986329D01*
X140246235Y-65009428D01*
X140252196Y-65033227D01*
X140255796Y-65057495D01*
X140257000Y-65081999D01*
X140257000Y-65982001D01*
X140255796Y-66006505D01*
X140252196Y-66030773D01*
X140246235Y-66054572D01*
X140237970Y-66077671D01*
X140227480Y-66099850D01*
X140214868Y-66120893D01*
X140200253Y-66140599D01*
X140183777Y-66158777D01*
X140165599Y-66175253D01*
X140145893Y-66189868D01*
X140124850Y-66202480D01*
X140102671Y-66212970D01*
X140079572Y-66221235D01*
X140055773Y-66227196D01*
X140031505Y-66230796D01*
X140007001Y-66232000D01*
X139356999Y-66232000D01*
X139332495Y-66230796D01*
X139308227Y-66227196D01*
X139284428Y-66221235D01*
X139261329Y-66212970D01*
X139239150Y-66202480D01*
X139218107Y-66189868D01*
X139198401Y-66175253D01*
X139180223Y-66158777D01*
X139163747Y-66140599D01*
X139149132Y-66120893D01*
X139136520Y-66099850D01*
X139126030Y-66077671D01*
X139117765Y-66054572D01*
X139111804Y-66030773D01*
X139108204Y-66006505D01*
X139107000Y-65982001D01*
X139107000Y-65081999D01*
X139108204Y-65057495D01*
X139111804Y-65033227D01*
X139117765Y-65009428D01*
X139126030Y-64986329D01*
X139136520Y-64964150D01*
X139149132Y-64943107D01*
X139163747Y-64923401D01*
X139180223Y-64905223D01*
X139198401Y-64888747D01*
X139218107Y-64874132D01*
X139239150Y-64861520D01*
X139261329Y-64851030D01*
X139284428Y-64842765D01*
X139308227Y-64836804D01*
X139332495Y-64833204D01*
X139356999Y-64832000D01*
X140007001Y-64832000D01*
X140031505Y-64833204D01*
X140031505Y-64833204D01*
G37*
D11*
X139682000Y-65532000D03*
D10*
G36*
X140040505Y-67881204D02*
G01*
X140064773Y-67884804D01*
X140088572Y-67890765D01*
X140111671Y-67899030D01*
X140133850Y-67909520D01*
X140154893Y-67922132D01*
X140174599Y-67936747D01*
X140192777Y-67953223D01*
X140209253Y-67971401D01*
X140223868Y-67991107D01*
X140236480Y-68012150D01*
X140246970Y-68034329D01*
X140255235Y-68057428D01*
X140261196Y-68081227D01*
X140264796Y-68105495D01*
X140266000Y-68129999D01*
X140266000Y-69030001D01*
X140264796Y-69054505D01*
X140261196Y-69078773D01*
X140255235Y-69102572D01*
X140246970Y-69125671D01*
X140236480Y-69147850D01*
X140223868Y-69168893D01*
X140209253Y-69188599D01*
X140192777Y-69206777D01*
X140174599Y-69223253D01*
X140154893Y-69237868D01*
X140133850Y-69250480D01*
X140111671Y-69260970D01*
X140088572Y-69269235D01*
X140064773Y-69275196D01*
X140040505Y-69278796D01*
X140016001Y-69280000D01*
X139365999Y-69280000D01*
X139341495Y-69278796D01*
X139317227Y-69275196D01*
X139293428Y-69269235D01*
X139270329Y-69260970D01*
X139248150Y-69250480D01*
X139227107Y-69237868D01*
X139207401Y-69223253D01*
X139189223Y-69206777D01*
X139172747Y-69188599D01*
X139158132Y-69168893D01*
X139145520Y-69147850D01*
X139135030Y-69125671D01*
X139126765Y-69102572D01*
X139120804Y-69078773D01*
X139117204Y-69054505D01*
X139116000Y-69030001D01*
X139116000Y-68129999D01*
X139117204Y-68105495D01*
X139120804Y-68081227D01*
X139126765Y-68057428D01*
X139135030Y-68034329D01*
X139145520Y-68012150D01*
X139158132Y-67991107D01*
X139172747Y-67971401D01*
X139189223Y-67953223D01*
X139207401Y-67936747D01*
X139227107Y-67922132D01*
X139248150Y-67909520D01*
X139270329Y-67899030D01*
X139293428Y-67890765D01*
X139317227Y-67884804D01*
X139341495Y-67881204D01*
X139365999Y-67880000D01*
X140016001Y-67880000D01*
X140040505Y-67881204D01*
X140040505Y-67881204D01*
G37*
D11*
X139691000Y-68580000D03*
D10*
G36*
X142090505Y-67881204D02*
G01*
X142114773Y-67884804D01*
X142138572Y-67890765D01*
X142161671Y-67899030D01*
X142183850Y-67909520D01*
X142204893Y-67922132D01*
X142224599Y-67936747D01*
X142242777Y-67953223D01*
X142259253Y-67971401D01*
X142273868Y-67991107D01*
X142286480Y-68012150D01*
X142296970Y-68034329D01*
X142305235Y-68057428D01*
X142311196Y-68081227D01*
X142314796Y-68105495D01*
X142316000Y-68129999D01*
X142316000Y-69030001D01*
X142314796Y-69054505D01*
X142311196Y-69078773D01*
X142305235Y-69102572D01*
X142296970Y-69125671D01*
X142286480Y-69147850D01*
X142273868Y-69168893D01*
X142259253Y-69188599D01*
X142242777Y-69206777D01*
X142224599Y-69223253D01*
X142204893Y-69237868D01*
X142183850Y-69250480D01*
X142161671Y-69260970D01*
X142138572Y-69269235D01*
X142114773Y-69275196D01*
X142090505Y-69278796D01*
X142066001Y-69280000D01*
X141415999Y-69280000D01*
X141391495Y-69278796D01*
X141367227Y-69275196D01*
X141343428Y-69269235D01*
X141320329Y-69260970D01*
X141298150Y-69250480D01*
X141277107Y-69237868D01*
X141257401Y-69223253D01*
X141239223Y-69206777D01*
X141222747Y-69188599D01*
X141208132Y-69168893D01*
X141195520Y-69147850D01*
X141185030Y-69125671D01*
X141176765Y-69102572D01*
X141170804Y-69078773D01*
X141167204Y-69054505D01*
X141166000Y-69030001D01*
X141166000Y-68129999D01*
X141167204Y-68105495D01*
X141170804Y-68081227D01*
X141176765Y-68057428D01*
X141185030Y-68034329D01*
X141195520Y-68012150D01*
X141208132Y-67991107D01*
X141222747Y-67971401D01*
X141239223Y-67953223D01*
X141257401Y-67936747D01*
X141277107Y-67922132D01*
X141298150Y-67909520D01*
X141320329Y-67899030D01*
X141343428Y-67890765D01*
X141367227Y-67884804D01*
X141391495Y-67881204D01*
X141415999Y-67880000D01*
X142066001Y-67880000D01*
X142090505Y-67881204D01*
X142090505Y-67881204D01*
G37*
D11*
X141741000Y-68580000D03*
D10*
G36*
X132773785Y-93817144D02*
G01*
X132798053Y-93820744D01*
X132821852Y-93826705D01*
X132844951Y-93834970D01*
X132867130Y-93845460D01*
X132888173Y-93858072D01*
X132907879Y-93872687D01*
X132926057Y-93889163D01*
X132942533Y-93907341D01*
X132957148Y-93927047D01*
X132969760Y-93948090D01*
X132980250Y-93970269D01*
X132988515Y-93993368D01*
X132994476Y-94017167D01*
X132998076Y-94041435D01*
X132999280Y-94065939D01*
X132999280Y-94965941D01*
X132998076Y-94990445D01*
X132994476Y-95014713D01*
X132988515Y-95038512D01*
X132980250Y-95061611D01*
X132969760Y-95083790D01*
X132957148Y-95104833D01*
X132942533Y-95124539D01*
X132926057Y-95142717D01*
X132907879Y-95159193D01*
X132888173Y-95173808D01*
X132867130Y-95186420D01*
X132844951Y-95196910D01*
X132821852Y-95205175D01*
X132798053Y-95211136D01*
X132773785Y-95214736D01*
X132749281Y-95215940D01*
X132099279Y-95215940D01*
X132074775Y-95214736D01*
X132050507Y-95211136D01*
X132026708Y-95205175D01*
X132003609Y-95196910D01*
X131981430Y-95186420D01*
X131960387Y-95173808D01*
X131940681Y-95159193D01*
X131922503Y-95142717D01*
X131906027Y-95124539D01*
X131891412Y-95104833D01*
X131878800Y-95083790D01*
X131868310Y-95061611D01*
X131860045Y-95038512D01*
X131854084Y-95014713D01*
X131850484Y-94990445D01*
X131849280Y-94965941D01*
X131849280Y-94065939D01*
X131850484Y-94041435D01*
X131854084Y-94017167D01*
X131860045Y-93993368D01*
X131868310Y-93970269D01*
X131878800Y-93948090D01*
X131891412Y-93927047D01*
X131906027Y-93907341D01*
X131922503Y-93889163D01*
X131940681Y-93872687D01*
X131960387Y-93858072D01*
X131981430Y-93845460D01*
X132003609Y-93834970D01*
X132026708Y-93826705D01*
X132050507Y-93820744D01*
X132074775Y-93817144D01*
X132099279Y-93815940D01*
X132749281Y-93815940D01*
X132773785Y-93817144D01*
X132773785Y-93817144D01*
G37*
D11*
X132424280Y-94515940D03*
D10*
G36*
X130723785Y-93817144D02*
G01*
X130748053Y-93820744D01*
X130771852Y-93826705D01*
X130794951Y-93834970D01*
X130817130Y-93845460D01*
X130838173Y-93858072D01*
X130857879Y-93872687D01*
X130876057Y-93889163D01*
X130892533Y-93907341D01*
X130907148Y-93927047D01*
X130919760Y-93948090D01*
X130930250Y-93970269D01*
X130938515Y-93993368D01*
X130944476Y-94017167D01*
X130948076Y-94041435D01*
X130949280Y-94065939D01*
X130949280Y-94965941D01*
X130948076Y-94990445D01*
X130944476Y-95014713D01*
X130938515Y-95038512D01*
X130930250Y-95061611D01*
X130919760Y-95083790D01*
X130907148Y-95104833D01*
X130892533Y-95124539D01*
X130876057Y-95142717D01*
X130857879Y-95159193D01*
X130838173Y-95173808D01*
X130817130Y-95186420D01*
X130794951Y-95196910D01*
X130771852Y-95205175D01*
X130748053Y-95211136D01*
X130723785Y-95214736D01*
X130699281Y-95215940D01*
X130049279Y-95215940D01*
X130024775Y-95214736D01*
X130000507Y-95211136D01*
X129976708Y-95205175D01*
X129953609Y-95196910D01*
X129931430Y-95186420D01*
X129910387Y-95173808D01*
X129890681Y-95159193D01*
X129872503Y-95142717D01*
X129856027Y-95124539D01*
X129841412Y-95104833D01*
X129828800Y-95083790D01*
X129818310Y-95061611D01*
X129810045Y-95038512D01*
X129804084Y-95014713D01*
X129800484Y-94990445D01*
X129799280Y-94965941D01*
X129799280Y-94065939D01*
X129800484Y-94041435D01*
X129804084Y-94017167D01*
X129810045Y-93993368D01*
X129818310Y-93970269D01*
X129828800Y-93948090D01*
X129841412Y-93927047D01*
X129856027Y-93907341D01*
X129872503Y-93889163D01*
X129890681Y-93872687D01*
X129910387Y-93858072D01*
X129931430Y-93845460D01*
X129953609Y-93834970D01*
X129976708Y-93826705D01*
X130000507Y-93820744D01*
X130024775Y-93817144D01*
X130049279Y-93815940D01*
X130699281Y-93815940D01*
X130723785Y-93817144D01*
X130723785Y-93817144D01*
G37*
D11*
X130374280Y-94515940D03*
D10*
G36*
X132808185Y-97032784D02*
G01*
X132832453Y-97036384D01*
X132856252Y-97042345D01*
X132879351Y-97050610D01*
X132901530Y-97061100D01*
X132922573Y-97073712D01*
X132942279Y-97088327D01*
X132960457Y-97104803D01*
X132976933Y-97122981D01*
X132991548Y-97142687D01*
X133004160Y-97163730D01*
X133014650Y-97185909D01*
X133022915Y-97209008D01*
X133028876Y-97232807D01*
X133032476Y-97257075D01*
X133033680Y-97281579D01*
X133033680Y-98181581D01*
X133032476Y-98206085D01*
X133028876Y-98230353D01*
X133022915Y-98254152D01*
X133014650Y-98277251D01*
X133004160Y-98299430D01*
X132991548Y-98320473D01*
X132976933Y-98340179D01*
X132960457Y-98358357D01*
X132942279Y-98374833D01*
X132922573Y-98389448D01*
X132901530Y-98402060D01*
X132879351Y-98412550D01*
X132856252Y-98420815D01*
X132832453Y-98426776D01*
X132808185Y-98430376D01*
X132783681Y-98431580D01*
X132133679Y-98431580D01*
X132109175Y-98430376D01*
X132084907Y-98426776D01*
X132061108Y-98420815D01*
X132038009Y-98412550D01*
X132015830Y-98402060D01*
X131994787Y-98389448D01*
X131975081Y-98374833D01*
X131956903Y-98358357D01*
X131940427Y-98340179D01*
X131925812Y-98320473D01*
X131913200Y-98299430D01*
X131902710Y-98277251D01*
X131894445Y-98254152D01*
X131888484Y-98230353D01*
X131884884Y-98206085D01*
X131883680Y-98181581D01*
X131883680Y-97281579D01*
X131884884Y-97257075D01*
X131888484Y-97232807D01*
X131894445Y-97209008D01*
X131902710Y-97185909D01*
X131913200Y-97163730D01*
X131925812Y-97142687D01*
X131940427Y-97122981D01*
X131956903Y-97104803D01*
X131975081Y-97088327D01*
X131994787Y-97073712D01*
X132015830Y-97061100D01*
X132038009Y-97050610D01*
X132061108Y-97042345D01*
X132084907Y-97036384D01*
X132109175Y-97032784D01*
X132133679Y-97031580D01*
X132783681Y-97031580D01*
X132808185Y-97032784D01*
X132808185Y-97032784D01*
G37*
D11*
X132458680Y-97731580D03*
D10*
G36*
X130758185Y-97032784D02*
G01*
X130782453Y-97036384D01*
X130806252Y-97042345D01*
X130829351Y-97050610D01*
X130851530Y-97061100D01*
X130872573Y-97073712D01*
X130892279Y-97088327D01*
X130910457Y-97104803D01*
X130926933Y-97122981D01*
X130941548Y-97142687D01*
X130954160Y-97163730D01*
X130964650Y-97185909D01*
X130972915Y-97209008D01*
X130978876Y-97232807D01*
X130982476Y-97257075D01*
X130983680Y-97281579D01*
X130983680Y-98181581D01*
X130982476Y-98206085D01*
X130978876Y-98230353D01*
X130972915Y-98254152D01*
X130964650Y-98277251D01*
X130954160Y-98299430D01*
X130941548Y-98320473D01*
X130926933Y-98340179D01*
X130910457Y-98358357D01*
X130892279Y-98374833D01*
X130872573Y-98389448D01*
X130851530Y-98402060D01*
X130829351Y-98412550D01*
X130806252Y-98420815D01*
X130782453Y-98426776D01*
X130758185Y-98430376D01*
X130733681Y-98431580D01*
X130083679Y-98431580D01*
X130059175Y-98430376D01*
X130034907Y-98426776D01*
X130011108Y-98420815D01*
X129988009Y-98412550D01*
X129965830Y-98402060D01*
X129944787Y-98389448D01*
X129925081Y-98374833D01*
X129906903Y-98358357D01*
X129890427Y-98340179D01*
X129875812Y-98320473D01*
X129863200Y-98299430D01*
X129852710Y-98277251D01*
X129844445Y-98254152D01*
X129838484Y-98230353D01*
X129834884Y-98206085D01*
X129833680Y-98181581D01*
X129833680Y-97281579D01*
X129834884Y-97257075D01*
X129838484Y-97232807D01*
X129844445Y-97209008D01*
X129852710Y-97185909D01*
X129863200Y-97163730D01*
X129875812Y-97142687D01*
X129890427Y-97122981D01*
X129906903Y-97104803D01*
X129925081Y-97088327D01*
X129944787Y-97073712D01*
X129965830Y-97061100D01*
X129988009Y-97050610D01*
X130011108Y-97042345D01*
X130034907Y-97036384D01*
X130059175Y-97032784D01*
X130083679Y-97031580D01*
X130733681Y-97031580D01*
X130758185Y-97032784D01*
X130758185Y-97032784D01*
G37*
D11*
X130408680Y-97731580D03*
D14*
X115641120Y-77830680D03*
D16*
X118181120Y-77830680D03*
X120721120Y-77830680D03*
X123261120Y-77830680D03*
X125801120Y-77830680D03*
X128341120Y-77830680D03*
D18*
X132588000Y-66040000D03*
X137739120Y-66400680D03*
X127071120Y-66908680D03*
X101671120Y-81640680D03*
X103703120Y-64368680D03*
X117419120Y-54716680D03*
X138755120Y-56748680D03*
X148915120Y-73512680D03*
X143327120Y-90276680D03*
X136723120Y-83164680D03*
X129103120Y-74528680D03*
X111323120Y-98912680D03*
X137739120Y-100436680D03*
X108148120Y-69067680D03*
X125293120Y-68432680D03*
X125928120Y-70972680D03*
X131643120Y-78592680D03*
X107513120Y-70972680D03*
X106243120Y-74147680D03*
X99893120Y-74147680D03*
X107513120Y-80497680D03*
X106243120Y-88117680D03*
X102433120Y-93197680D03*
X146883120Y-82402680D03*
X130373120Y-52557680D03*
X121483120Y-52557680D03*
X113863120Y-51287680D03*
X108148120Y-52557680D03*
X128468120Y-60812680D03*
X130373120Y-60812680D03*
X131008120Y-65892680D03*
X138628120Y-62717680D03*
X123388120Y-66527680D03*
X131643120Y-76687680D03*
X125293120Y-84307680D03*
X126563120Y-84942680D03*
X127833120Y-97642680D03*
X133548120Y-102087680D03*
X139263120Y-93832680D03*
X108783120Y-104627680D03*
X94178120Y-77322680D03*
X123906280Y-93868240D03*
X121483120Y-90784680D03*
X121991120Y-87228680D03*
X121991120Y-85196680D03*
X122499120Y-92308680D03*
X124023120Y-95737680D03*
X123560840Y-98193860D03*
X121226580Y-98036380D03*
X118018560Y-96286320D03*
X117457220Y-98407220D03*
X114333020Y-94726760D03*
X127782320Y-99441000D03*
X129832100Y-101310440D03*
X123372880Y-63665100D03*
X116509800Y-84856320D03*
X132727700Y-70068440D03*
X136067800Y-70083680D03*
X138498580Y-75559920D03*
X140848080Y-78265020D03*
X145547080Y-75460860D03*
X141587220Y-84706460D03*
X136098280Y-87863680D03*
X130319780Y-90779600D03*
X146347180Y-68049140D03*
X143141700Y-58188860D03*
X136441180Y-51595020D03*
X125249940Y-56548020D03*
X132186680Y-56197500D03*
X108524040Y-58064400D03*
X104736900Y-58005980D03*
X98209100Y-67388740D03*
X106075480Y-64764920D03*
X97444560Y-81290160D03*
X99006660Y-85412580D03*
X108531660Y-93261180D03*
X106514900Y-99326700D03*
X114871500Y-103319580D03*
X118170960Y-63085980D03*
X117624860Y-61003180D03*
X113906300Y-62641480D03*
X123499880Y-88168480D03*
X114117120Y-72496680D03*
X113863120Y-75036680D03*
X113609120Y-78592680D03*
X125031479Y-94729321D03*
X118661180Y-85732620D03*
X115768120Y-89387680D03*
X120776006Y-89459794D03*
X119451120Y-73512680D03*
X114907060Y-66321940D03*
X128275080Y-92433139D03*
X119673094Y-93832654D03*
X114498113Y-90657687D03*
D19*
X132080000Y-64008000D02*
X132080000Y-65532000D01*
X132080000Y-65532000D02*
X132588000Y-66040000D01*
X120396000Y-81813400D02*
X120726200Y-81483200D01*
X120396000Y-84180680D02*
X120396000Y-81813400D01*
X122481340Y-99568520D02*
X122486420Y-99563440D01*
X122481340Y-101918520D02*
X122481340Y-99568520D01*
X122481340Y-99568520D02*
X122481340Y-98351340D01*
D20*
X118063120Y-81360120D02*
X118186200Y-81483200D01*
X118186200Y-84020880D02*
X118346000Y-84180680D01*
X118435120Y-84269800D02*
X118346000Y-84180680D01*
X125031500Y-99123500D02*
X125031500Y-94729300D01*
X125031500Y-94729300D02*
X125031479Y-94729321D01*
X125031500Y-99558360D02*
X125031500Y-99123500D01*
X125021340Y-99568520D02*
X125031500Y-99558360D01*
X125021340Y-101918520D02*
X125021340Y-99568520D01*
X118661180Y-84622860D02*
X118346000Y-84307680D01*
X118346000Y-81643000D02*
X118186200Y-81483200D01*
X118346000Y-84307680D02*
X118346000Y-81643000D01*
X118181120Y-81478120D02*
X118186200Y-81483200D01*
X118181120Y-77830680D02*
X118181120Y-81478120D01*
X118181120Y-75036680D02*
X117927120Y-74782680D01*
X118181120Y-77830680D02*
X118181120Y-75036680D01*
X118661180Y-86720680D02*
X118661180Y-85732620D01*
X118661180Y-85732620D02*
X118661180Y-84622860D01*
X119588200Y-62382400D02*
X120538200Y-62382400D01*
X134620000Y-61595000D02*
X135570000Y-61595000D01*
X135570000Y-61595000D02*
X135570000Y-60010000D01*
X135570000Y-60010000D02*
X134996000Y-59436000D01*
X134996000Y-59436000D02*
X131572000Y-59436000D01*
X112293400Y-67444400D02*
X112293400Y-62382400D01*
X119588200Y-59824480D02*
X119870000Y-59542680D01*
X119588200Y-62382400D02*
X119588200Y-59824480D01*
X124968000Y-60960000D02*
X126492000Y-59436000D01*
X119960600Y-60960000D02*
X124968000Y-60960000D01*
X119588200Y-61332400D02*
X119960600Y-60960000D01*
X119588200Y-62382400D02*
X119588200Y-61332400D01*
X115133120Y-59542680D02*
X114498120Y-60177680D01*
X119870000Y-59542680D02*
X115133120Y-59542680D01*
X112293400Y-62382400D02*
X114498120Y-60177680D01*
X123951006Y-89459794D02*
X120776006Y-89459794D01*
X120915120Y-89320680D02*
X120776006Y-89459794D01*
X124122066Y-89459794D02*
X123951006Y-89459794D01*
X124261180Y-89320680D02*
X124122066Y-89459794D01*
X125861180Y-89320680D02*
X124261180Y-89320680D01*
X113228120Y-89387680D02*
X115768120Y-89387680D01*
X112593120Y-88752680D02*
X113228120Y-89387680D01*
X112293400Y-88452960D02*
X113228120Y-89387680D01*
X112293400Y-75717400D02*
X112293400Y-88452960D01*
X132080000Y-61036200D02*
X130479800Y-59436000D01*
X132080000Y-61958000D02*
X132080000Y-61036200D01*
X126492000Y-59436000D02*
X130479800Y-59436000D01*
X130479800Y-59436000D02*
X131572000Y-59436000D01*
X112293400Y-71434960D02*
X112384840Y-71434960D01*
X112293400Y-71434960D02*
X112293400Y-75717400D01*
X112293400Y-67444400D02*
X112293400Y-71434960D01*
X112384840Y-71434960D02*
X112847120Y-70972680D01*
X116403120Y-70972680D02*
X117927120Y-72496680D01*
X112847120Y-70972680D02*
X116403120Y-70972680D01*
X117927120Y-72496680D02*
X118435120Y-72496680D01*
X118435120Y-72496680D02*
X119451120Y-73512680D01*
D19*
X115798400Y-62662000D02*
X115849400Y-62611000D01*
X114507061Y-65921941D02*
X114907060Y-66321940D01*
X114507061Y-63953339D02*
X114507061Y-65921941D01*
X115849400Y-62611000D02*
X114507061Y-63953339D01*
X119250600Y-64661000D02*
X119588200Y-64998600D01*
X115849400Y-64661000D02*
X119250600Y-64661000D01*
X115849400Y-67546000D02*
X115849400Y-64661000D01*
X114815400Y-68580000D02*
X115849400Y-67546000D01*
X143256000Y-67065000D02*
X141741000Y-68580000D01*
X143256000Y-64170560D02*
X143256000Y-67065000D01*
X136520000Y-61595000D02*
X140680440Y-61595000D01*
X140680440Y-61595000D02*
X143256000Y-64170560D01*
D20*
X127461180Y-89970680D02*
X125861180Y-89970680D01*
D19*
X133688121Y-83743739D02*
X127461180Y-89970680D01*
X133688121Y-73127679D02*
X133688121Y-83743739D01*
X134573120Y-72242680D02*
X133688121Y-73127679D01*
X138078320Y-72242680D02*
X137993120Y-72242680D01*
X141741000Y-68580000D02*
X138078320Y-72242680D01*
X137993120Y-72242680D02*
X134573120Y-72242680D01*
X116013120Y-81116280D02*
X115646200Y-81483200D01*
X116839280Y-88670680D02*
X115646200Y-87477600D01*
D20*
X118661180Y-88670680D02*
X116839280Y-88670680D01*
D19*
X115646200Y-81483200D02*
X115646200Y-87477600D01*
X115877120Y-77594680D02*
X115641120Y-77830680D01*
X115877120Y-74782680D02*
X115877120Y-77594680D01*
X115641120Y-81478120D02*
X115646200Y-81483200D01*
X115641120Y-77830680D02*
X115641120Y-81478120D01*
X123266200Y-81483200D02*
X123266200Y-82685281D01*
D20*
X124261180Y-87370680D02*
X125861180Y-87370680D01*
D19*
X123266200Y-86375700D02*
X124261180Y-87370680D01*
X123266200Y-82685281D02*
X123266200Y-86375700D01*
D20*
X123303130Y-78820501D02*
X123303130Y-77830680D01*
X123303130Y-79684101D02*
X123303130Y-78820501D01*
X123266200Y-81483200D02*
X123266200Y-79721031D01*
X123266200Y-79721031D02*
X123303130Y-79684101D01*
X127295120Y-88020680D02*
X125861180Y-88020680D01*
X127833120Y-87482680D02*
X127295120Y-88020680D01*
D19*
X125806200Y-81483200D02*
X127833120Y-83510120D01*
X127833120Y-83510120D02*
X127833120Y-87482680D01*
X125806200Y-77835760D02*
X125801120Y-77830680D01*
X125806200Y-81483200D02*
X125806200Y-77835760D01*
X127762621Y-91920680D02*
X127875081Y-92033140D01*
X127875081Y-92033140D02*
X128275080Y-92433139D01*
D20*
X125861180Y-91920680D02*
X127762621Y-91920680D01*
X118661180Y-92570680D02*
X117636180Y-92570680D01*
X118661180Y-92570680D02*
X118661180Y-92820740D01*
D19*
X118661180Y-92820740D02*
X119673094Y-93832654D01*
X119941340Y-97568520D02*
X120718580Y-96791280D01*
X119941340Y-99918520D02*
X119941340Y-97568520D01*
X120718580Y-96791280D02*
X120718580Y-92171520D01*
D20*
X120467740Y-91920680D02*
X118661180Y-91920680D01*
D19*
X120718580Y-92171520D02*
X120467740Y-91920680D01*
D20*
X118661180Y-90620680D02*
X114535120Y-90620680D01*
D19*
X114535120Y-90620680D02*
X114498113Y-90657687D01*
X121430000Y-65056800D02*
X121488200Y-64998600D01*
X121430000Y-68580000D02*
X121430000Y-65056800D01*
X125011400Y-64998600D02*
X125476000Y-64534000D01*
X121488200Y-64998600D02*
X125011400Y-64998600D01*
D21*
X132424280Y-97697180D02*
X132458680Y-97731580D01*
X132424280Y-94515940D02*
X132424280Y-97697180D01*
X125861180Y-92570680D02*
X127361180Y-92570680D01*
X129306440Y-94515940D02*
X129699280Y-94515940D01*
X127361180Y-92570680D02*
X129306440Y-94515940D01*
X129699280Y-94515940D02*
X130374280Y-94515940D01*
X139691000Y-65541000D02*
X139682000Y-65532000D01*
X139691000Y-68580000D02*
X139691000Y-65541000D01*
X138361200Y-64211200D02*
X139682000Y-65532000D01*
X136520000Y-64211200D02*
X138361200Y-64211200D01*
X129032000Y-65209000D02*
X129032000Y-68072000D01*
X129032000Y-64534000D02*
X129032000Y-65209000D01*
X131008120Y-72242680D02*
X129032000Y-70266560D01*
X132523120Y-72242680D02*
X131008120Y-72242680D01*
X129032000Y-68072000D02*
X129032000Y-70266560D01*
X131082000Y-68072000D02*
X134602000Y-68072000D01*
X134602000Y-64229200D02*
X134620000Y-64211200D01*
X134602000Y-68072000D02*
X134602000Y-64229200D01*
X125374400Y-62382400D02*
X125476000Y-62484000D01*
X121488200Y-62382400D02*
X125374400Y-62382400D01*
X125476000Y-62484000D02*
X129032000Y-62484000D01*
D22*
G36*
X156737896Y-77941800D02*
G01*
X139618951Y-107592500D01*
X127731120Y-107592500D01*
X127731120Y-104369099D01*
X127734313Y-104336680D01*
X127721570Y-104207297D01*
X127683830Y-104082887D01*
X127622545Y-103968230D01*
X127540068Y-103867732D01*
X127439570Y-103785255D01*
X127325120Y-103724081D01*
X127325120Y-101579680D01*
X127322680Y-101554904D01*
X127315453Y-101531079D01*
X127303717Y-101509123D01*
X127287923Y-101489877D01*
X127268677Y-101474083D01*
X127246721Y-101462347D01*
X127222896Y-101455120D01*
X127198120Y-101452680D01*
X126421412Y-101452680D01*
X126421412Y-99918520D01*
X126409152Y-99794038D01*
X126372842Y-99674340D01*
X126313877Y-99564026D01*
X126234525Y-99467335D01*
X126137834Y-99387983D01*
X126027520Y-99329018D01*
X125907822Y-99292708D01*
X125841500Y-99286176D01*
X125841500Y-98431580D01*
X129195608Y-98431580D01*
X129207868Y-98556062D01*
X129244178Y-98675760D01*
X129303143Y-98786074D01*
X129382495Y-98882765D01*
X129479186Y-98962117D01*
X129589500Y-99021082D01*
X129709198Y-99057392D01*
X129833680Y-99069652D01*
X130122930Y-99066580D01*
X130281680Y-98907830D01*
X130281680Y-97858580D01*
X129357430Y-97858580D01*
X129198680Y-98017330D01*
X129195608Y-98431580D01*
X125841500Y-98431580D01*
X125841500Y-97031580D01*
X129195608Y-97031580D01*
X129198680Y-97445830D01*
X129357430Y-97604580D01*
X130281680Y-97604580D01*
X130281680Y-96555330D01*
X130122930Y-96396580D01*
X129833680Y-96393508D01*
X129709198Y-96405768D01*
X129589500Y-96442078D01*
X129479186Y-96501043D01*
X129382495Y-96580395D01*
X129303143Y-96677086D01*
X129244178Y-96787400D01*
X129207868Y-96907098D01*
X129195608Y-97031580D01*
X125841500Y-97031580D01*
X125841500Y-95379990D01*
X125948684Y-95219577D01*
X126026705Y-95031219D01*
X126066479Y-94831260D01*
X126066479Y-94627382D01*
X126026705Y-94427423D01*
X125948684Y-94239065D01*
X125835416Y-94069547D01*
X125691253Y-93925384D01*
X125521735Y-93812116D01*
X125333377Y-93734095D01*
X125133418Y-93694321D01*
X124929540Y-93694321D01*
X124729581Y-93734095D01*
X124541223Y-93812116D01*
X124371705Y-93925384D01*
X124227542Y-94069547D01*
X124114274Y-94239065D01*
X124036253Y-94427423D01*
X123996479Y-94627382D01*
X123996479Y-94831260D01*
X124036253Y-95031219D01*
X124114274Y-95219577D01*
X124221501Y-95380054D01*
X124221500Y-99083709D01*
X124221500Y-99284175D01*
X124134858Y-99292708D01*
X124015160Y-99329018D01*
X123904846Y-99387983D01*
X123808155Y-99467335D01*
X123751340Y-99536564D01*
X123694525Y-99467335D01*
X123597834Y-99387983D01*
X123487520Y-99329018D01*
X123367822Y-99292708D01*
X123243340Y-99280448D01*
X122767090Y-99283520D01*
X122608340Y-99442270D01*
X122608340Y-101452680D01*
X122354340Y-101452680D01*
X122354340Y-99442270D01*
X122195590Y-99283520D01*
X121719340Y-99280448D01*
X121594858Y-99292708D01*
X121475160Y-99329018D01*
X121364846Y-99387983D01*
X121268155Y-99467335D01*
X121211340Y-99536564D01*
X121154525Y-99467335D01*
X121057834Y-99387983D01*
X120947520Y-99329018D01*
X120827822Y-99292708D01*
X120826340Y-99292562D01*
X120826340Y-97935098D01*
X121313630Y-97447809D01*
X121347397Y-97420097D01*
X121457991Y-97285339D01*
X121540169Y-97131593D01*
X121590775Y-96964770D01*
X121603580Y-96834757D01*
X121603580Y-96834747D01*
X121607861Y-96791281D01*
X121603580Y-96747815D01*
X121603580Y-92214985D01*
X121607861Y-92171519D01*
X121603580Y-92128053D01*
X121603580Y-92128043D01*
X121590775Y-91998030D01*
X121540169Y-91831207D01*
X121457991Y-91677461D01*
X121347397Y-91542703D01*
X121313624Y-91514986D01*
X121062786Y-91264148D01*
X120961799Y-91181270D01*
X120808053Y-91099092D01*
X120641230Y-91048485D01*
X120548630Y-91039365D01*
X120539403Y-90945680D01*
X120549252Y-90845680D01*
X120549252Y-90469967D01*
X120674067Y-90494794D01*
X120877945Y-90494794D01*
X121077904Y-90455020D01*
X121266262Y-90376999D01*
X121426706Y-90269794D01*
X123980407Y-90269794D01*
X123982957Y-90295680D01*
X123973108Y-90395680D01*
X123973108Y-90845680D01*
X123982957Y-90945680D01*
X123973108Y-91045680D01*
X123973108Y-91495680D01*
X123982957Y-91595680D01*
X123973108Y-91695680D01*
X123973108Y-92145680D01*
X123982957Y-92245680D01*
X123973108Y-92345680D01*
X123973108Y-92795680D01*
X123985368Y-92920162D01*
X124021678Y-93039860D01*
X124080643Y-93150174D01*
X124159995Y-93246865D01*
X124256686Y-93326217D01*
X124367000Y-93385182D01*
X124486698Y-93421492D01*
X124611180Y-93433752D01*
X127111180Y-93433752D01*
X127146020Y-93430321D01*
X128742641Y-95026943D01*
X128766439Y-95055941D01*
X128795437Y-95079739D01*
X128882163Y-95150914D01*
X128939363Y-95181488D01*
X129014193Y-95221486D01*
X129157454Y-95264943D01*
X129218233Y-95270929D01*
X129228808Y-95305791D01*
X129310875Y-95459327D01*
X129421318Y-95593902D01*
X129555893Y-95704345D01*
X129709429Y-95786412D01*
X129876025Y-95836948D01*
X130049279Y-95854012D01*
X130699281Y-95854012D01*
X130872535Y-95836948D01*
X131039131Y-95786412D01*
X131192667Y-95704345D01*
X131327242Y-95593902D01*
X131399280Y-95506124D01*
X131471318Y-95593902D01*
X131605893Y-95704345D01*
X131664280Y-95735554D01*
X131664281Y-96530353D01*
X131640293Y-96543175D01*
X131505718Y-96653618D01*
X131500338Y-96660174D01*
X131434865Y-96580395D01*
X131338174Y-96501043D01*
X131227860Y-96442078D01*
X131108162Y-96405768D01*
X130983680Y-96393508D01*
X130694430Y-96396580D01*
X130535680Y-96555330D01*
X130535680Y-97604580D01*
X130555680Y-97604580D01*
X130555680Y-97858580D01*
X130535680Y-97858580D01*
X130535680Y-98907830D01*
X130694430Y-99066580D01*
X130983680Y-99069652D01*
X131108162Y-99057392D01*
X131227860Y-99021082D01*
X131338174Y-98962117D01*
X131434865Y-98882765D01*
X131500338Y-98802986D01*
X131505718Y-98809542D01*
X131640293Y-98919985D01*
X131793829Y-99002052D01*
X131960425Y-99052588D01*
X132133679Y-99069652D01*
X132783681Y-99069652D01*
X132956935Y-99052588D01*
X133123531Y-99002052D01*
X133277067Y-98919985D01*
X133411642Y-98809542D01*
X133522085Y-98674967D01*
X133604152Y-98521431D01*
X133654688Y-98354835D01*
X133671752Y-98181581D01*
X133671752Y-97281579D01*
X133654688Y-97108325D01*
X133604152Y-96941729D01*
X133522085Y-96788193D01*
X133411642Y-96653618D01*
X133277067Y-96543175D01*
X133184280Y-96493579D01*
X133184280Y-95735554D01*
X133242667Y-95704345D01*
X133377242Y-95593902D01*
X133487685Y-95459327D01*
X133569752Y-95305791D01*
X133620288Y-95139195D01*
X133637352Y-94965941D01*
X133637352Y-94065939D01*
X133620288Y-93892685D01*
X133569752Y-93726089D01*
X133487685Y-93572553D01*
X133377242Y-93437978D01*
X133242667Y-93327535D01*
X133089131Y-93245468D01*
X132922535Y-93194932D01*
X132749281Y-93177868D01*
X132099279Y-93177868D01*
X131926025Y-93194932D01*
X131759429Y-93245468D01*
X131605893Y-93327535D01*
X131471318Y-93437978D01*
X131399280Y-93525756D01*
X131327242Y-93437978D01*
X131192667Y-93327535D01*
X131039131Y-93245468D01*
X130872535Y-93194932D01*
X130699281Y-93177868D01*
X130049279Y-93177868D01*
X129876025Y-93194932D01*
X129709429Y-93245468D01*
X129555893Y-93327535D01*
X129421318Y-93437978D01*
X129368112Y-93502810D01*
X129018616Y-93153314D01*
X129079017Y-93092913D01*
X129192285Y-92923395D01*
X129270306Y-92735037D01*
X129310080Y-92535078D01*
X129310080Y-92331200D01*
X129270306Y-92131241D01*
X129192285Y-91942883D01*
X129079017Y-91773365D01*
X128934854Y-91629202D01*
X128765336Y-91515934D01*
X128576978Y-91437913D01*
X128520123Y-91426604D01*
X128357667Y-91264148D01*
X128256680Y-91181270D01*
X128102934Y-91099092D01*
X127936111Y-91048485D01*
X127762621Y-91031399D01*
X127747987Y-91032840D01*
X127739403Y-90945680D01*
X127749252Y-90845680D01*
X127749252Y-90808116D01*
X127801493Y-90792268D01*
X127955239Y-90710090D01*
X128056226Y-90627212D01*
X134283170Y-84400269D01*
X134316938Y-84372556D01*
X134350462Y-84331708D01*
X134427531Y-84237799D01*
X134427532Y-84237798D01*
X134509710Y-84084052D01*
X134560316Y-83917229D01*
X134573121Y-83787216D01*
X134573121Y-83787206D01*
X134577402Y-83743740D01*
X134573121Y-83700274D01*
X134573121Y-73580752D01*
X134898121Y-73580752D01*
X135071375Y-73563688D01*
X135237971Y-73513152D01*
X135391507Y-73431085D01*
X135526082Y-73320642D01*
X135636525Y-73186067D01*
X135667734Y-73127680D01*
X136508495Y-73127680D01*
X136517308Y-73217162D01*
X136553618Y-73336860D01*
X136612583Y-73447174D01*
X136691935Y-73543865D01*
X136788626Y-73623217D01*
X136898940Y-73682182D01*
X137018638Y-73718492D01*
X137143120Y-73730752D01*
X138843120Y-73730752D01*
X138967602Y-73718492D01*
X139087300Y-73682182D01*
X139197614Y-73623217D01*
X139294305Y-73543865D01*
X139373657Y-73447174D01*
X139432622Y-73336860D01*
X139468932Y-73217162D01*
X139481192Y-73092680D01*
X139481192Y-72091386D01*
X141654507Y-69918072D01*
X142066001Y-69918072D01*
X142239255Y-69901008D01*
X142405851Y-69850472D01*
X142559387Y-69768405D01*
X142693962Y-69657962D01*
X142804405Y-69523387D01*
X142886472Y-69369851D01*
X142937008Y-69203255D01*
X142954072Y-69030001D01*
X142954072Y-68618506D01*
X143851049Y-67721530D01*
X143884817Y-67693817D01*
X143932415Y-67635820D01*
X143995411Y-67559059D01*
X144077589Y-67405314D01*
X144128195Y-67238490D01*
X144131426Y-67205687D01*
X144141000Y-67108477D01*
X144141000Y-67108469D01*
X144145281Y-67065000D01*
X144141000Y-67021531D01*
X144141000Y-64214029D01*
X144145281Y-64170560D01*
X144141000Y-64127091D01*
X144141000Y-64127083D01*
X144128195Y-63997070D01*
X144077589Y-63830247D01*
X143995411Y-63676501D01*
X143884817Y-63541743D01*
X143851050Y-63514031D01*
X141336974Y-60999956D01*
X141309257Y-60966183D01*
X141174499Y-60855589D01*
X141020753Y-60773411D01*
X140853930Y-60722805D01*
X140723917Y-60710000D01*
X140723909Y-60710000D01*
X140680440Y-60705719D01*
X140636971Y-60710000D01*
X137402454Y-60710000D01*
X137384502Y-60650820D01*
X137325537Y-60540506D01*
X137246185Y-60443815D01*
X137149494Y-60364463D01*
X137039180Y-60305498D01*
X136919482Y-60269188D01*
X136795000Y-60256928D01*
X136380000Y-60256928D01*
X136380000Y-60049791D01*
X136383919Y-60010000D01*
X136368280Y-59851212D01*
X136321963Y-59698526D01*
X136246749Y-59557811D01*
X136234331Y-59542680D01*
X136145528Y-59434472D01*
X136114617Y-59409105D01*
X135596899Y-58891387D01*
X135571528Y-58860472D01*
X135448189Y-58759251D01*
X135307473Y-58684037D01*
X135154788Y-58637720D01*
X135035791Y-58626000D01*
X135035788Y-58626000D01*
X134996000Y-58622081D01*
X134956212Y-58626000D01*
X130519588Y-58626000D01*
X130479800Y-58622081D01*
X130440012Y-58626000D01*
X126531787Y-58626000D01*
X126491999Y-58622081D01*
X126452211Y-58626000D01*
X126452209Y-58626000D01*
X126333212Y-58637720D01*
X126180527Y-58684037D01*
X126039811Y-58759251D01*
X125916472Y-58860472D01*
X125891105Y-58891382D01*
X124632488Y-60150000D01*
X123132385Y-60150000D01*
X123130000Y-59828430D01*
X122971250Y-59669680D01*
X122047000Y-59669680D01*
X122047000Y-59689680D01*
X121793000Y-59689680D01*
X121793000Y-59669680D01*
X121773000Y-59669680D01*
X121773000Y-59415680D01*
X121793000Y-59415680D01*
X121793000Y-58366430D01*
X122047000Y-58366430D01*
X122047000Y-59415680D01*
X122971250Y-59415680D01*
X123130000Y-59256930D01*
X123133072Y-58842680D01*
X123120812Y-58718198D01*
X123084502Y-58598500D01*
X123025537Y-58488186D01*
X122946185Y-58391495D01*
X122849494Y-58312143D01*
X122739180Y-58253178D01*
X122619482Y-58216868D01*
X122495000Y-58204608D01*
X122205750Y-58207680D01*
X122047000Y-58366430D01*
X121793000Y-58366430D01*
X121634250Y-58207680D01*
X121345000Y-58204608D01*
X121220518Y-58216868D01*
X121100820Y-58253178D01*
X120990506Y-58312143D01*
X120893815Y-58391495D01*
X120828342Y-58471274D01*
X120822962Y-58464718D01*
X120688387Y-58354275D01*
X120534851Y-58272208D01*
X120368255Y-58221672D01*
X120195001Y-58204608D01*
X119544999Y-58204608D01*
X119371745Y-58221672D01*
X119205149Y-58272208D01*
X119051613Y-58354275D01*
X118917038Y-58464718D01*
X118806595Y-58599293D01*
X118735298Y-58732680D01*
X115172908Y-58732680D01*
X115133120Y-58728761D01*
X115093332Y-58732680D01*
X115093329Y-58732680D01*
X114974332Y-58744400D01*
X114857183Y-58779937D01*
X114821646Y-58790717D01*
X114691144Y-58860472D01*
X114680931Y-58865931D01*
X114557592Y-58967152D01*
X114532225Y-58998062D01*
X113953505Y-59576783D01*
X113953500Y-59576787D01*
X111748783Y-61781505D01*
X111717873Y-61806872D01*
X111672252Y-61862461D01*
X111616651Y-61930211D01*
X111554127Y-62047188D01*
X111541438Y-62070927D01*
X111504786Y-62191753D01*
X111495121Y-62223613D01*
X111479481Y-62382400D01*
X111483401Y-62422198D01*
X111483400Y-67404609D01*
X111483400Y-67404610D01*
X111483401Y-71395159D01*
X111479481Y-71434960D01*
X111483400Y-71474751D01*
X111483401Y-75677600D01*
X111483400Y-75677610D01*
X111483401Y-88413162D01*
X111479481Y-88452960D01*
X111490531Y-88565143D01*
X111495121Y-88611748D01*
X111510218Y-88661514D01*
X111541438Y-88764433D01*
X111616651Y-88905149D01*
X111669494Y-88969538D01*
X111717873Y-89028488D01*
X111748783Y-89053855D01*
X112354134Y-89659207D01*
X112627225Y-89932298D01*
X112652592Y-89963208D01*
X112740463Y-90035321D01*
X112775931Y-90064429D01*
X112916646Y-90139643D01*
X112931570Y-90144170D01*
X113069332Y-90185960D01*
X113188329Y-90197680D01*
X113188332Y-90197680D01*
X113228120Y-90201599D01*
X113267908Y-90197680D01*
X113568378Y-90197680D01*
X113502887Y-90355789D01*
X113463113Y-90555748D01*
X113463113Y-90759626D01*
X113502887Y-90959585D01*
X113580908Y-91147943D01*
X113694176Y-91317461D01*
X113838339Y-91461624D01*
X114007857Y-91574892D01*
X114196215Y-91652913D01*
X114396174Y-91692687D01*
X114600052Y-91692687D01*
X114800011Y-91652913D01*
X114988369Y-91574892D01*
X115157887Y-91461624D01*
X115188831Y-91430680D01*
X116773108Y-91430680D01*
X116773108Y-91495680D01*
X116782957Y-91595680D01*
X116773108Y-91695680D01*
X116773108Y-92145680D01*
X116782957Y-92245680D01*
X116773108Y-92345680D01*
X116773108Y-92795680D01*
X116785368Y-92920162D01*
X116821678Y-93039860D01*
X116880643Y-93150174D01*
X116959995Y-93246865D01*
X117056686Y-93326217D01*
X117167000Y-93385182D01*
X117286698Y-93421492D01*
X117411180Y-93433752D01*
X118022614Y-93433752D01*
X118666559Y-94077698D01*
X118677868Y-94134552D01*
X118755889Y-94322910D01*
X118869157Y-94492428D01*
X119013320Y-94636591D01*
X119182838Y-94749859D01*
X119371196Y-94827880D01*
X119571155Y-94867654D01*
X119775033Y-94867654D01*
X119833580Y-94856008D01*
X119833580Y-96424701D01*
X119346291Y-96911991D01*
X119312524Y-96939703D01*
X119284811Y-96973471D01*
X119284808Y-96973474D01*
X119201930Y-97074461D01*
X119119752Y-97228207D01*
X119069145Y-97395030D01*
X119052059Y-97568520D01*
X119056341Y-97611999D01*
X119056340Y-99292562D01*
X119054858Y-99292708D01*
X118935160Y-99329018D01*
X118824846Y-99387983D01*
X118728155Y-99467335D01*
X118648803Y-99564026D01*
X118589838Y-99674340D01*
X118553528Y-99794038D01*
X118541268Y-99918520D01*
X118541268Y-101452680D01*
X117800120Y-101452680D01*
X117775344Y-101455120D01*
X117751519Y-101462347D01*
X117729563Y-101474083D01*
X117710317Y-101489877D01*
X117694523Y-101509123D01*
X117682787Y-101531079D01*
X117675560Y-101554904D01*
X117673120Y-101579680D01*
X117673120Y-103724081D01*
X117558670Y-103785255D01*
X117458172Y-103867732D01*
X117375695Y-103968230D01*
X117314410Y-104082887D01*
X117276670Y-104207297D01*
X117263927Y-104336680D01*
X117267121Y-104369109D01*
X117267120Y-107592500D01*
X105381050Y-107592500D01*
X88262103Y-77941800D01*
X105381050Y-48291100D01*
X139618951Y-48291100D01*
X156737896Y-77941800D01*
X156737896Y-77941800D01*
G37*
X156737896Y-77941800D02*
X139618951Y-107592500D01*
X127731120Y-107592500D01*
X127731120Y-104369099D01*
X127734313Y-104336680D01*
X127721570Y-104207297D01*
X127683830Y-104082887D01*
X127622545Y-103968230D01*
X127540068Y-103867732D01*
X127439570Y-103785255D01*
X127325120Y-103724081D01*
X127325120Y-101579680D01*
X127322680Y-101554904D01*
X127315453Y-101531079D01*
X127303717Y-101509123D01*
X127287923Y-101489877D01*
X127268677Y-101474083D01*
X127246721Y-101462347D01*
X127222896Y-101455120D01*
X127198120Y-101452680D01*
X126421412Y-101452680D01*
X126421412Y-99918520D01*
X126409152Y-99794038D01*
X126372842Y-99674340D01*
X126313877Y-99564026D01*
X126234525Y-99467335D01*
X126137834Y-99387983D01*
X126027520Y-99329018D01*
X125907822Y-99292708D01*
X125841500Y-99286176D01*
X125841500Y-98431580D01*
X129195608Y-98431580D01*
X129207868Y-98556062D01*
X129244178Y-98675760D01*
X129303143Y-98786074D01*
X129382495Y-98882765D01*
X129479186Y-98962117D01*
X129589500Y-99021082D01*
X129709198Y-99057392D01*
X129833680Y-99069652D01*
X130122930Y-99066580D01*
X130281680Y-98907830D01*
X130281680Y-97858580D01*
X129357430Y-97858580D01*
X129198680Y-98017330D01*
X129195608Y-98431580D01*
X125841500Y-98431580D01*
X125841500Y-97031580D01*
X129195608Y-97031580D01*
X129198680Y-97445830D01*
X129357430Y-97604580D01*
X130281680Y-97604580D01*
X130281680Y-96555330D01*
X130122930Y-96396580D01*
X129833680Y-96393508D01*
X129709198Y-96405768D01*
X129589500Y-96442078D01*
X129479186Y-96501043D01*
X129382495Y-96580395D01*
X129303143Y-96677086D01*
X129244178Y-96787400D01*
X129207868Y-96907098D01*
X129195608Y-97031580D01*
X125841500Y-97031580D01*
X125841500Y-95379990D01*
X125948684Y-95219577D01*
X126026705Y-95031219D01*
X126066479Y-94831260D01*
X126066479Y-94627382D01*
X126026705Y-94427423D01*
X125948684Y-94239065D01*
X125835416Y-94069547D01*
X125691253Y-93925384D01*
X125521735Y-93812116D01*
X125333377Y-93734095D01*
X125133418Y-93694321D01*
X124929540Y-93694321D01*
X124729581Y-93734095D01*
X124541223Y-93812116D01*
X124371705Y-93925384D01*
X124227542Y-94069547D01*
X124114274Y-94239065D01*
X124036253Y-94427423D01*
X123996479Y-94627382D01*
X123996479Y-94831260D01*
X124036253Y-95031219D01*
X124114274Y-95219577D01*
X124221501Y-95380054D01*
X124221500Y-99083709D01*
X124221500Y-99284175D01*
X124134858Y-99292708D01*
X124015160Y-99329018D01*
X123904846Y-99387983D01*
X123808155Y-99467335D01*
X123751340Y-99536564D01*
X123694525Y-99467335D01*
X123597834Y-99387983D01*
X123487520Y-99329018D01*
X123367822Y-99292708D01*
X123243340Y-99280448D01*
X122767090Y-99283520D01*
X122608340Y-99442270D01*
X122608340Y-101452680D01*
X122354340Y-101452680D01*
X122354340Y-99442270D01*
X122195590Y-99283520D01*
X121719340Y-99280448D01*
X121594858Y-99292708D01*
X121475160Y-99329018D01*
X121364846Y-99387983D01*
X121268155Y-99467335D01*
X121211340Y-99536564D01*
X121154525Y-99467335D01*
X121057834Y-99387983D01*
X120947520Y-99329018D01*
X120827822Y-99292708D01*
X120826340Y-99292562D01*
X120826340Y-97935098D01*
X121313630Y-97447809D01*
X121347397Y-97420097D01*
X121457991Y-97285339D01*
X121540169Y-97131593D01*
X121590775Y-96964770D01*
X121603580Y-96834757D01*
X121603580Y-96834747D01*
X121607861Y-96791281D01*
X121603580Y-96747815D01*
X121603580Y-92214985D01*
X121607861Y-92171519D01*
X121603580Y-92128053D01*
X121603580Y-92128043D01*
X121590775Y-91998030D01*
X121540169Y-91831207D01*
X121457991Y-91677461D01*
X121347397Y-91542703D01*
X121313624Y-91514986D01*
X121062786Y-91264148D01*
X120961799Y-91181270D01*
X120808053Y-91099092D01*
X120641230Y-91048485D01*
X120548630Y-91039365D01*
X120539403Y-90945680D01*
X120549252Y-90845680D01*
X120549252Y-90469967D01*
X120674067Y-90494794D01*
X120877945Y-90494794D01*
X121077904Y-90455020D01*
X121266262Y-90376999D01*
X121426706Y-90269794D01*
X123980407Y-90269794D01*
X123982957Y-90295680D01*
X123973108Y-90395680D01*
X123973108Y-90845680D01*
X123982957Y-90945680D01*
X123973108Y-91045680D01*
X123973108Y-91495680D01*
X123982957Y-91595680D01*
X123973108Y-91695680D01*
X123973108Y-92145680D01*
X123982957Y-92245680D01*
X123973108Y-92345680D01*
X123973108Y-92795680D01*
X123985368Y-92920162D01*
X124021678Y-93039860D01*
X124080643Y-93150174D01*
X124159995Y-93246865D01*
X124256686Y-93326217D01*
X124367000Y-93385182D01*
X124486698Y-93421492D01*
X124611180Y-93433752D01*
X127111180Y-93433752D01*
X127146020Y-93430321D01*
X128742641Y-95026943D01*
X128766439Y-95055941D01*
X128795437Y-95079739D01*
X128882163Y-95150914D01*
X128939363Y-95181488D01*
X129014193Y-95221486D01*
X129157454Y-95264943D01*
X129218233Y-95270929D01*
X129228808Y-95305791D01*
X129310875Y-95459327D01*
X129421318Y-95593902D01*
X129555893Y-95704345D01*
X129709429Y-95786412D01*
X129876025Y-95836948D01*
X130049279Y-95854012D01*
X130699281Y-95854012D01*
X130872535Y-95836948D01*
X131039131Y-95786412D01*
X131192667Y-95704345D01*
X131327242Y-95593902D01*
X131399280Y-95506124D01*
X131471318Y-95593902D01*
X131605893Y-95704345D01*
X131664280Y-95735554D01*
X131664281Y-96530353D01*
X131640293Y-96543175D01*
X131505718Y-96653618D01*
X131500338Y-96660174D01*
X131434865Y-96580395D01*
X131338174Y-96501043D01*
X131227860Y-96442078D01*
X131108162Y-96405768D01*
X130983680Y-96393508D01*
X130694430Y-96396580D01*
X130535680Y-96555330D01*
X130535680Y-97604580D01*
X130555680Y-97604580D01*
X130555680Y-97858580D01*
X130535680Y-97858580D01*
X130535680Y-98907830D01*
X130694430Y-99066580D01*
X130983680Y-99069652D01*
X131108162Y-99057392D01*
X131227860Y-99021082D01*
X131338174Y-98962117D01*
X131434865Y-98882765D01*
X131500338Y-98802986D01*
X131505718Y-98809542D01*
X131640293Y-98919985D01*
X131793829Y-99002052D01*
X131960425Y-99052588D01*
X132133679Y-99069652D01*
X132783681Y-99069652D01*
X132956935Y-99052588D01*
X133123531Y-99002052D01*
X133277067Y-98919985D01*
X133411642Y-98809542D01*
X133522085Y-98674967D01*
X133604152Y-98521431D01*
X133654688Y-98354835D01*
X133671752Y-98181581D01*
X133671752Y-97281579D01*
X133654688Y-97108325D01*
X133604152Y-96941729D01*
X133522085Y-96788193D01*
X133411642Y-96653618D01*
X133277067Y-96543175D01*
X133184280Y-96493579D01*
X133184280Y-95735554D01*
X133242667Y-95704345D01*
X133377242Y-95593902D01*
X133487685Y-95459327D01*
X133569752Y-95305791D01*
X133620288Y-95139195D01*
X133637352Y-94965941D01*
X133637352Y-94065939D01*
X133620288Y-93892685D01*
X133569752Y-93726089D01*
X133487685Y-93572553D01*
X133377242Y-93437978D01*
X133242667Y-93327535D01*
X133089131Y-93245468D01*
X132922535Y-93194932D01*
X132749281Y-93177868D01*
X132099279Y-93177868D01*
X131926025Y-93194932D01*
X131759429Y-93245468D01*
X131605893Y-93327535D01*
X131471318Y-93437978D01*
X131399280Y-93525756D01*
X131327242Y-93437978D01*
X131192667Y-93327535D01*
X131039131Y-93245468D01*
X130872535Y-93194932D01*
X130699281Y-93177868D01*
X130049279Y-93177868D01*
X129876025Y-93194932D01*
X129709429Y-93245468D01*
X129555893Y-93327535D01*
X129421318Y-93437978D01*
X129368112Y-93502810D01*
X129018616Y-93153314D01*
X129079017Y-93092913D01*
X129192285Y-92923395D01*
X129270306Y-92735037D01*
X129310080Y-92535078D01*
X129310080Y-92331200D01*
X129270306Y-92131241D01*
X129192285Y-91942883D01*
X129079017Y-91773365D01*
X128934854Y-91629202D01*
X128765336Y-91515934D01*
X128576978Y-91437913D01*
X128520123Y-91426604D01*
X128357667Y-91264148D01*
X128256680Y-91181270D01*
X128102934Y-91099092D01*
X127936111Y-91048485D01*
X127762621Y-91031399D01*
X127747987Y-91032840D01*
X127739403Y-90945680D01*
X127749252Y-90845680D01*
X127749252Y-90808116D01*
X127801493Y-90792268D01*
X127955239Y-90710090D01*
X128056226Y-90627212D01*
X134283170Y-84400269D01*
X134316938Y-84372556D01*
X134350462Y-84331708D01*
X134427531Y-84237799D01*
X134427532Y-84237798D01*
X134509710Y-84084052D01*
X134560316Y-83917229D01*
X134573121Y-83787216D01*
X134573121Y-83787206D01*
X134577402Y-83743740D01*
X134573121Y-83700274D01*
X134573121Y-73580752D01*
X134898121Y-73580752D01*
X135071375Y-73563688D01*
X135237971Y-73513152D01*
X135391507Y-73431085D01*
X135526082Y-73320642D01*
X135636525Y-73186067D01*
X135667734Y-73127680D01*
X136508495Y-73127680D01*
X136517308Y-73217162D01*
X136553618Y-73336860D01*
X136612583Y-73447174D01*
X136691935Y-73543865D01*
X136788626Y-73623217D01*
X136898940Y-73682182D01*
X137018638Y-73718492D01*
X137143120Y-73730752D01*
X138843120Y-73730752D01*
X138967602Y-73718492D01*
X139087300Y-73682182D01*
X139197614Y-73623217D01*
X139294305Y-73543865D01*
X139373657Y-73447174D01*
X139432622Y-73336860D01*
X139468932Y-73217162D01*
X139481192Y-73092680D01*
X139481192Y-72091386D01*
X141654507Y-69918072D01*
X142066001Y-69918072D01*
X142239255Y-69901008D01*
X142405851Y-69850472D01*
X142559387Y-69768405D01*
X142693962Y-69657962D01*
X142804405Y-69523387D01*
X142886472Y-69369851D01*
X142937008Y-69203255D01*
X142954072Y-69030001D01*
X142954072Y-68618506D01*
X143851049Y-67721530D01*
X143884817Y-67693817D01*
X143932415Y-67635820D01*
X143995411Y-67559059D01*
X144077589Y-67405314D01*
X144128195Y-67238490D01*
X144131426Y-67205687D01*
X144141000Y-67108477D01*
X144141000Y-67108469D01*
X144145281Y-67065000D01*
X144141000Y-67021531D01*
X144141000Y-64214029D01*
X144145281Y-64170560D01*
X144141000Y-64127091D01*
X144141000Y-64127083D01*
X144128195Y-63997070D01*
X144077589Y-63830247D01*
X143995411Y-63676501D01*
X143884817Y-63541743D01*
X143851050Y-63514031D01*
X141336974Y-60999956D01*
X141309257Y-60966183D01*
X141174499Y-60855589D01*
X141020753Y-60773411D01*
X140853930Y-60722805D01*
X140723917Y-60710000D01*
X140723909Y-60710000D01*
X140680440Y-60705719D01*
X140636971Y-60710000D01*
X137402454Y-60710000D01*
X137384502Y-60650820D01*
X137325537Y-60540506D01*
X137246185Y-60443815D01*
X137149494Y-60364463D01*
X137039180Y-60305498D01*
X136919482Y-60269188D01*
X136795000Y-60256928D01*
X136380000Y-60256928D01*
X136380000Y-60049791D01*
X136383919Y-60010000D01*
X136368280Y-59851212D01*
X136321963Y-59698526D01*
X136246749Y-59557811D01*
X136234331Y-59542680D01*
X136145528Y-59434472D01*
X136114617Y-59409105D01*
X135596899Y-58891387D01*
X135571528Y-58860472D01*
X135448189Y-58759251D01*
X135307473Y-58684037D01*
X135154788Y-58637720D01*
X135035791Y-58626000D01*
X135035788Y-58626000D01*
X134996000Y-58622081D01*
X134956212Y-58626000D01*
X130519588Y-58626000D01*
X130479800Y-58622081D01*
X130440012Y-58626000D01*
X126531787Y-58626000D01*
X126491999Y-58622081D01*
X126452211Y-58626000D01*
X126452209Y-58626000D01*
X126333212Y-58637720D01*
X126180527Y-58684037D01*
X126039811Y-58759251D01*
X125916472Y-58860472D01*
X125891105Y-58891382D01*
X124632488Y-60150000D01*
X123132385Y-60150000D01*
X123130000Y-59828430D01*
X122971250Y-59669680D01*
X122047000Y-59669680D01*
X122047000Y-59689680D01*
X121793000Y-59689680D01*
X121793000Y-59669680D01*
X121773000Y-59669680D01*
X121773000Y-59415680D01*
X121793000Y-59415680D01*
X121793000Y-58366430D01*
X122047000Y-58366430D01*
X122047000Y-59415680D01*
X122971250Y-59415680D01*
X123130000Y-59256930D01*
X123133072Y-58842680D01*
X123120812Y-58718198D01*
X123084502Y-58598500D01*
X123025537Y-58488186D01*
X122946185Y-58391495D01*
X122849494Y-58312143D01*
X122739180Y-58253178D01*
X122619482Y-58216868D01*
X122495000Y-58204608D01*
X122205750Y-58207680D01*
X122047000Y-58366430D01*
X121793000Y-58366430D01*
X121634250Y-58207680D01*
X121345000Y-58204608D01*
X121220518Y-58216868D01*
X121100820Y-58253178D01*
X120990506Y-58312143D01*
X120893815Y-58391495D01*
X120828342Y-58471274D01*
X120822962Y-58464718D01*
X120688387Y-58354275D01*
X120534851Y-58272208D01*
X120368255Y-58221672D01*
X120195001Y-58204608D01*
X119544999Y-58204608D01*
X119371745Y-58221672D01*
X119205149Y-58272208D01*
X119051613Y-58354275D01*
X118917038Y-58464718D01*
X118806595Y-58599293D01*
X118735298Y-58732680D01*
X115172908Y-58732680D01*
X115133120Y-58728761D01*
X115093332Y-58732680D01*
X115093329Y-58732680D01*
X114974332Y-58744400D01*
X114857183Y-58779937D01*
X114821646Y-58790717D01*
X114691144Y-58860472D01*
X114680931Y-58865931D01*
X114557592Y-58967152D01*
X114532225Y-58998062D01*
X113953505Y-59576783D01*
X113953500Y-59576787D01*
X111748783Y-61781505D01*
X111717873Y-61806872D01*
X111672252Y-61862461D01*
X111616651Y-61930211D01*
X111554127Y-62047188D01*
X111541438Y-62070927D01*
X111504786Y-62191753D01*
X111495121Y-62223613D01*
X111479481Y-62382400D01*
X111483401Y-62422198D01*
X111483400Y-67404609D01*
X111483400Y-67404610D01*
X111483401Y-71395159D01*
X111479481Y-71434960D01*
X111483400Y-71474751D01*
X111483401Y-75677600D01*
X111483400Y-75677610D01*
X111483401Y-88413162D01*
X111479481Y-88452960D01*
X111490531Y-88565143D01*
X111495121Y-88611748D01*
X111510218Y-88661514D01*
X111541438Y-88764433D01*
X111616651Y-88905149D01*
X111669494Y-88969538D01*
X111717873Y-89028488D01*
X111748783Y-89053855D01*
X112354134Y-89659207D01*
X112627225Y-89932298D01*
X112652592Y-89963208D01*
X112740463Y-90035321D01*
X112775931Y-90064429D01*
X112916646Y-90139643D01*
X112931570Y-90144170D01*
X113069332Y-90185960D01*
X113188329Y-90197680D01*
X113188332Y-90197680D01*
X113228120Y-90201599D01*
X113267908Y-90197680D01*
X113568378Y-90197680D01*
X113502887Y-90355789D01*
X113463113Y-90555748D01*
X113463113Y-90759626D01*
X113502887Y-90959585D01*
X113580908Y-91147943D01*
X113694176Y-91317461D01*
X113838339Y-91461624D01*
X114007857Y-91574892D01*
X114196215Y-91652913D01*
X114396174Y-91692687D01*
X114600052Y-91692687D01*
X114800011Y-91652913D01*
X114988369Y-91574892D01*
X115157887Y-91461624D01*
X115188831Y-91430680D01*
X116773108Y-91430680D01*
X116773108Y-91495680D01*
X116782957Y-91595680D01*
X116773108Y-91695680D01*
X116773108Y-92145680D01*
X116782957Y-92245680D01*
X116773108Y-92345680D01*
X116773108Y-92795680D01*
X116785368Y-92920162D01*
X116821678Y-93039860D01*
X116880643Y-93150174D01*
X116959995Y-93246865D01*
X117056686Y-93326217D01*
X117167000Y-93385182D01*
X117286698Y-93421492D01*
X117411180Y-93433752D01*
X118022614Y-93433752D01*
X118666559Y-94077698D01*
X118677868Y-94134552D01*
X118755889Y-94322910D01*
X118869157Y-94492428D01*
X119013320Y-94636591D01*
X119182838Y-94749859D01*
X119371196Y-94827880D01*
X119571155Y-94867654D01*
X119775033Y-94867654D01*
X119833580Y-94856008D01*
X119833580Y-96424701D01*
X119346291Y-96911991D01*
X119312524Y-96939703D01*
X119284811Y-96973471D01*
X119284808Y-96973474D01*
X119201930Y-97074461D01*
X119119752Y-97228207D01*
X119069145Y-97395030D01*
X119052059Y-97568520D01*
X119056341Y-97611999D01*
X119056340Y-99292562D01*
X119054858Y-99292708D01*
X118935160Y-99329018D01*
X118824846Y-99387983D01*
X118728155Y-99467335D01*
X118648803Y-99564026D01*
X118589838Y-99674340D01*
X118553528Y-99794038D01*
X118541268Y-99918520D01*
X118541268Y-101452680D01*
X117800120Y-101452680D01*
X117775344Y-101455120D01*
X117751519Y-101462347D01*
X117729563Y-101474083D01*
X117710317Y-101489877D01*
X117694523Y-101509123D01*
X117682787Y-101531079D01*
X117675560Y-101554904D01*
X117673120Y-101579680D01*
X117673120Y-103724081D01*
X117558670Y-103785255D01*
X117458172Y-103867732D01*
X117375695Y-103968230D01*
X117314410Y-104082887D01*
X117276670Y-104207297D01*
X117263927Y-104336680D01*
X117267121Y-104369109D01*
X117267120Y-107592500D01*
X105381050Y-107592500D01*
X88262103Y-77941800D01*
X105381050Y-48291100D01*
X139618951Y-48291100D01*
X156737896Y-77941800D01*
G36*
X118778201Y-60432945D02*
G01*
X118778200Y-61292608D01*
X118774281Y-61332400D01*
X118775211Y-61341847D01*
X118723698Y-61438220D01*
X118687388Y-61557918D01*
X118675128Y-61682400D01*
X118675128Y-63082400D01*
X118687388Y-63206882D01*
X118723698Y-63326580D01*
X118782663Y-63436894D01*
X118862015Y-63533585D01*
X118958706Y-63612937D01*
X119069020Y-63671902D01*
X119130329Y-63690500D01*
X119069020Y-63709098D01*
X118958706Y-63768063D01*
X118949035Y-63776000D01*
X116983137Y-63776000D01*
X116927362Y-63708038D01*
X116839584Y-63636000D01*
X116927362Y-63563962D01*
X117037805Y-63429387D01*
X117119872Y-63275851D01*
X117170408Y-63109255D01*
X117187472Y-62936001D01*
X117187472Y-62285999D01*
X117170408Y-62112745D01*
X117119872Y-61946149D01*
X117037805Y-61792613D01*
X116927362Y-61658038D01*
X116792787Y-61547595D01*
X116639251Y-61465528D01*
X116472655Y-61414992D01*
X116299401Y-61397928D01*
X115399399Y-61397928D01*
X115226145Y-61414992D01*
X115059549Y-61465528D01*
X114906013Y-61547595D01*
X114771438Y-61658038D01*
X114660995Y-61792613D01*
X114578928Y-61946149D01*
X114528392Y-62112745D01*
X114511328Y-62285999D01*
X114511328Y-62697494D01*
X113912017Y-63296805D01*
X113878244Y-63324522D01*
X113767650Y-63459281D01*
X113685472Y-63613027D01*
X113656329Y-63709098D01*
X113637333Y-63771719D01*
X113634866Y-63779850D01*
X113622061Y-63909863D01*
X113622061Y-63909870D01*
X113617780Y-63953339D01*
X113622061Y-63996808D01*
X113622062Y-65878462D01*
X113617780Y-65921941D01*
X113634866Y-66095431D01*
X113685473Y-66262254D01*
X113767651Y-66416000D01*
X113850529Y-66516987D01*
X113850532Y-66516990D01*
X113878245Y-66550758D01*
X113901015Y-66569445D01*
X113911834Y-66623838D01*
X113989855Y-66812196D01*
X114103123Y-66981714D01*
X114247286Y-67125877D01*
X114416804Y-67239145D01*
X114436370Y-67247249D01*
X114317145Y-67258992D01*
X114150549Y-67309528D01*
X113997013Y-67391595D01*
X113862438Y-67502038D01*
X113751995Y-67636613D01*
X113669928Y-67790149D01*
X113619392Y-67956745D01*
X113602328Y-68129999D01*
X113602328Y-69030001D01*
X113619392Y-69203255D01*
X113669928Y-69369851D01*
X113751995Y-69523387D01*
X113862438Y-69657962D01*
X113997013Y-69768405D01*
X114150549Y-69850472D01*
X114317145Y-69901008D01*
X114490399Y-69918072D01*
X115140401Y-69918072D01*
X115313655Y-69901008D01*
X115480251Y-69850472D01*
X115633787Y-69768405D01*
X115768362Y-69657962D01*
X115773742Y-69651406D01*
X115839215Y-69731185D01*
X115935906Y-69810537D01*
X116046220Y-69869502D01*
X116165918Y-69905812D01*
X116290400Y-69918072D01*
X116579650Y-69915000D01*
X116738400Y-69756250D01*
X116738400Y-68707000D01*
X116992400Y-68707000D01*
X116992400Y-69756250D01*
X117151150Y-69915000D01*
X117440400Y-69918072D01*
X117564882Y-69905812D01*
X117684580Y-69869502D01*
X117794894Y-69810537D01*
X117891585Y-69731185D01*
X117970937Y-69634494D01*
X118029902Y-69524180D01*
X118066212Y-69404482D01*
X118078472Y-69280000D01*
X118166928Y-69280000D01*
X118179188Y-69404482D01*
X118215498Y-69524180D01*
X118274463Y-69634494D01*
X118353815Y-69731185D01*
X118450506Y-69810537D01*
X118560820Y-69869502D01*
X118680518Y-69905812D01*
X118805000Y-69918072D01*
X119094250Y-69915000D01*
X119253000Y-69756250D01*
X119253000Y-68707000D01*
X118328750Y-68707000D01*
X118170000Y-68865750D01*
X118166928Y-69280000D01*
X118078472Y-69280000D01*
X118075400Y-68865750D01*
X117916650Y-68707000D01*
X116992400Y-68707000D01*
X116738400Y-68707000D01*
X116718400Y-68707000D01*
X116718400Y-68453000D01*
X116738400Y-68453000D01*
X116738400Y-67548853D01*
X116738681Y-67546000D01*
X116738400Y-67543147D01*
X116738400Y-67403750D01*
X116992400Y-67403750D01*
X116992400Y-68453000D01*
X117916650Y-68453000D01*
X118075400Y-68294250D01*
X118078472Y-67880000D01*
X118166928Y-67880000D01*
X118170000Y-68294250D01*
X118328750Y-68453000D01*
X119253000Y-68453000D01*
X119253000Y-67403750D01*
X119094250Y-67245000D01*
X118805000Y-67241928D01*
X118680518Y-67254188D01*
X118560820Y-67290498D01*
X118450506Y-67349463D01*
X118353815Y-67428815D01*
X118274463Y-67525506D01*
X118215498Y-67635820D01*
X118179188Y-67755518D01*
X118166928Y-67880000D01*
X118078472Y-67880000D01*
X118066212Y-67755518D01*
X118029902Y-67635820D01*
X117970937Y-67525506D01*
X117891585Y-67428815D01*
X117794894Y-67349463D01*
X117684580Y-67290498D01*
X117564882Y-67254188D01*
X117440400Y-67241928D01*
X117151150Y-67245000D01*
X116992400Y-67403750D01*
X116738400Y-67403750D01*
X116734400Y-67399750D01*
X116734400Y-65755614D01*
X116792787Y-65724405D01*
X116927362Y-65613962D01*
X116983137Y-65546000D01*
X118675128Y-65546000D01*
X118675128Y-65698600D01*
X118687388Y-65823082D01*
X118723698Y-65942780D01*
X118782663Y-66053094D01*
X118862015Y-66149785D01*
X118958706Y-66229137D01*
X119069020Y-66288102D01*
X119188718Y-66324412D01*
X119313200Y-66336672D01*
X119863200Y-66336672D01*
X119987682Y-66324412D01*
X120063333Y-66301463D01*
X120135414Y-66323745D01*
X120252450Y-66333600D01*
X120411200Y-66174850D01*
X120411200Y-66020424D01*
X120452702Y-65942780D01*
X120489012Y-65823082D01*
X120501272Y-65698600D01*
X120501272Y-64851600D01*
X120567425Y-64851600D01*
X120557805Y-64883310D01*
X120540719Y-65056800D01*
X120545001Y-65100279D01*
X120545000Y-67446263D01*
X120477038Y-67502038D01*
X120471658Y-67508594D01*
X120406185Y-67428815D01*
X120309494Y-67349463D01*
X120199180Y-67290498D01*
X120079482Y-67254188D01*
X119955000Y-67241928D01*
X119665750Y-67245000D01*
X119507000Y-67403750D01*
X119507000Y-68453000D01*
X119527000Y-68453000D01*
X119527000Y-68707000D01*
X119507000Y-68707000D01*
X119507000Y-69756250D01*
X119665750Y-69915000D01*
X119955000Y-69918072D01*
X120079482Y-69905812D01*
X120199180Y-69869502D01*
X120309494Y-69810537D01*
X120406185Y-69731185D01*
X120471658Y-69651406D01*
X120477038Y-69657962D01*
X120611613Y-69768405D01*
X120765149Y-69850472D01*
X120931745Y-69901008D01*
X121104999Y-69918072D01*
X121755001Y-69918072D01*
X121928255Y-69901008D01*
X122094851Y-69850472D01*
X122248387Y-69768405D01*
X122382962Y-69657962D01*
X122493405Y-69523387D01*
X122575472Y-69369851D01*
X122626008Y-69203255D01*
X122643072Y-69030001D01*
X122643072Y-68129999D01*
X122626008Y-67956745D01*
X122575472Y-67790149D01*
X122493405Y-67636613D01*
X122382962Y-67502038D01*
X122315000Y-67446263D01*
X122315000Y-66013314D01*
X122352702Y-65942780D01*
X122370654Y-65883600D01*
X124967931Y-65883600D01*
X125011400Y-65887881D01*
X125054869Y-65883600D01*
X125054877Y-65883600D01*
X125184890Y-65870795D01*
X125351713Y-65820189D01*
X125488507Y-65747072D01*
X125926001Y-65747072D01*
X126099255Y-65730008D01*
X126265851Y-65679472D01*
X126419387Y-65597405D01*
X126553962Y-65486962D01*
X126664405Y-65352387D01*
X126746472Y-65198851D01*
X126797008Y-65032255D01*
X126814072Y-64859001D01*
X126814072Y-64208999D01*
X126797008Y-64035745D01*
X126746472Y-63869149D01*
X126664405Y-63715613D01*
X126553962Y-63581038D01*
X126466184Y-63509000D01*
X126553962Y-63436962D01*
X126664405Y-63302387D01*
X126695614Y-63244000D01*
X127812386Y-63244000D01*
X127843595Y-63302387D01*
X127954038Y-63436962D01*
X128041816Y-63509000D01*
X127954038Y-63581038D01*
X127843595Y-63715613D01*
X127761528Y-63869149D01*
X127710992Y-64035745D01*
X127693928Y-64208999D01*
X127693928Y-64859001D01*
X127710992Y-65032255D01*
X127761528Y-65198851D01*
X127843595Y-65352387D01*
X127954038Y-65486962D01*
X128088613Y-65597405D01*
X128242149Y-65679472D01*
X128272000Y-65688527D01*
X128272001Y-66852386D01*
X128213613Y-66883595D01*
X128079038Y-66994038D01*
X127968595Y-67128613D01*
X127886528Y-67282149D01*
X127835992Y-67448745D01*
X127818928Y-67621999D01*
X127818928Y-68522001D01*
X127835992Y-68695255D01*
X127886528Y-68861851D01*
X127968595Y-69015387D01*
X128079038Y-69149962D01*
X128213613Y-69260405D01*
X128272001Y-69291614D01*
X128272001Y-70229228D01*
X128268324Y-70266560D01*
X128272001Y-70303893D01*
X128281187Y-70397153D01*
X128282998Y-70415545D01*
X128326454Y-70558806D01*
X128397026Y-70690836D01*
X128449363Y-70754608D01*
X128492000Y-70806561D01*
X128520998Y-70830359D01*
X130444321Y-72753683D01*
X130468119Y-72782681D01*
X130583844Y-72877654D01*
X130715873Y-72948226D01*
X130859134Y-72991683D01*
X130970787Y-73002680D01*
X130970795Y-73002680D01*
X131008120Y-73006356D01*
X131045445Y-73002680D01*
X131368593Y-73002680D01*
X131377648Y-73032531D01*
X131459715Y-73186067D01*
X131570158Y-73320642D01*
X131704733Y-73431085D01*
X131858269Y-73513152D01*
X132024865Y-73563688D01*
X132198119Y-73580752D01*
X132803121Y-73580752D01*
X132803122Y-83377159D01*
X128718120Y-87462162D01*
X128718120Y-83553589D01*
X128722401Y-83510120D01*
X128718120Y-83466651D01*
X128718120Y-83466643D01*
X128705315Y-83336630D01*
X128654709Y-83169807D01*
X128572531Y-83016061D01*
X128524719Y-82957802D01*
X128637311Y-82946713D01*
X128917234Y-82861799D01*
X129175214Y-82723906D01*
X129401334Y-82538334D01*
X129586906Y-82312214D01*
X129724799Y-82054234D01*
X129809713Y-81774311D01*
X129838385Y-81483200D01*
X129809713Y-81192089D01*
X129724799Y-80912166D01*
X129586906Y-80654186D01*
X129401334Y-80428066D01*
X129175214Y-80242494D01*
X128917234Y-80104601D01*
X128637311Y-80019687D01*
X128419150Y-79998200D01*
X128273250Y-79998200D01*
X128055089Y-80019687D01*
X127775166Y-80104601D01*
X127517186Y-80242494D01*
X127291066Y-80428066D01*
X127105494Y-80654186D01*
X127076200Y-80708991D01*
X127046906Y-80654186D01*
X126861334Y-80428066D01*
X126691200Y-80288441D01*
X126691200Y-79021270D01*
X126856254Y-78885814D01*
X127041826Y-78659694D01*
X127071120Y-78604889D01*
X127100414Y-78659694D01*
X127285986Y-78885814D01*
X127512106Y-79071386D01*
X127770086Y-79209279D01*
X128050009Y-79294193D01*
X128268170Y-79315680D01*
X128414070Y-79315680D01*
X128632231Y-79294193D01*
X128912154Y-79209279D01*
X129170134Y-79071386D01*
X129396254Y-78885814D01*
X129581826Y-78659694D01*
X129719719Y-78401714D01*
X129804633Y-78121791D01*
X129833305Y-77830680D01*
X129804633Y-77539569D01*
X129719719Y-77259646D01*
X129581826Y-77001666D01*
X129396254Y-76775546D01*
X129170134Y-76589974D01*
X128912154Y-76452081D01*
X128632231Y-76367167D01*
X128414070Y-76345680D01*
X128268170Y-76345680D01*
X128050009Y-76367167D01*
X127770086Y-76452081D01*
X127512106Y-76589974D01*
X127285986Y-76775546D01*
X127100414Y-77001666D01*
X127071120Y-77056471D01*
X127041826Y-77001666D01*
X126856254Y-76775546D01*
X126630134Y-76589974D01*
X126372154Y-76452081D01*
X126092231Y-76367167D01*
X125874070Y-76345680D01*
X125728170Y-76345680D01*
X125510009Y-76367167D01*
X125230086Y-76452081D01*
X124972106Y-76589974D01*
X124745986Y-76775546D01*
X124560414Y-77001666D01*
X124531120Y-77056471D01*
X124501826Y-77001666D01*
X124316254Y-76775546D01*
X124090134Y-76589974D01*
X123832154Y-76452081D01*
X123552231Y-76367167D01*
X123334070Y-76345680D01*
X123188170Y-76345680D01*
X122970009Y-76367167D01*
X122690086Y-76452081D01*
X122432106Y-76589974D01*
X122205986Y-76775546D01*
X122020414Y-77001666D01*
X121985919Y-77066203D01*
X121916298Y-76949325D01*
X121721389Y-76733092D01*
X121488040Y-76559039D01*
X121225219Y-76433855D01*
X121078010Y-76389204D01*
X120848120Y-76510525D01*
X120848120Y-77703680D01*
X120868120Y-77703680D01*
X120868120Y-77957680D01*
X120848120Y-77957680D01*
X120848120Y-79150835D01*
X121078010Y-79272156D01*
X121225219Y-79227505D01*
X121488040Y-79102321D01*
X121721389Y-78928268D01*
X121916298Y-78712035D01*
X121985919Y-78595157D01*
X122020414Y-78659694D01*
X122205986Y-78885814D01*
X122432106Y-79071386D01*
X122493130Y-79104004D01*
X122493130Y-79479141D01*
X122479124Y-79525314D01*
X122467921Y-79562244D01*
X122452281Y-79721031D01*
X122456201Y-79760829D01*
X122456201Y-80232330D01*
X122437186Y-80242494D01*
X122211066Y-80428066D01*
X122025494Y-80654186D01*
X121990999Y-80718723D01*
X121921378Y-80601845D01*
X121726469Y-80385612D01*
X121493120Y-80211559D01*
X121230299Y-80086375D01*
X121083090Y-80041724D01*
X120853200Y-80163045D01*
X120853200Y-81356200D01*
X120873200Y-81356200D01*
X120873200Y-81610200D01*
X120853200Y-81610200D01*
X120853200Y-82803355D01*
X121083090Y-82924676D01*
X121230299Y-82880025D01*
X121493120Y-82754841D01*
X121726469Y-82580788D01*
X121921378Y-82364555D01*
X121990999Y-82247677D01*
X122025494Y-82312214D01*
X122211066Y-82538334D01*
X122381200Y-82677959D01*
X122381201Y-86332221D01*
X122376919Y-86375700D01*
X122394005Y-86549190D01*
X122444612Y-86716013D01*
X122526790Y-86869759D01*
X122609668Y-86970746D01*
X122609671Y-86970749D01*
X122637384Y-87004517D01*
X122671151Y-87032229D01*
X123666133Y-88027212D01*
X123767120Y-88110090D01*
X123920866Y-88192268D01*
X123973108Y-88208116D01*
X123973108Y-88245680D01*
X123982957Y-88345680D01*
X123973108Y-88445680D01*
X123973108Y-88561618D01*
X123949707Y-88568717D01*
X123808991Y-88643931D01*
X123801847Y-88649794D01*
X121426706Y-88649794D01*
X121266262Y-88542589D01*
X121077904Y-88464568D01*
X120877945Y-88424794D01*
X120674067Y-88424794D01*
X120549252Y-88449621D01*
X120549252Y-88445680D01*
X120539403Y-88345680D01*
X120549252Y-88245680D01*
X120549252Y-87795680D01*
X120539403Y-87695680D01*
X120549252Y-87595680D01*
X120549252Y-87145680D01*
X120539403Y-87045680D01*
X120549252Y-86945680D01*
X120549252Y-86495680D01*
X120536992Y-86371198D01*
X120500682Y-86251500D01*
X120441717Y-86141186D01*
X120362365Y-86044495D01*
X120265674Y-85965143D01*
X120155360Y-85906178D01*
X120035662Y-85869868D01*
X119911180Y-85857608D01*
X119691595Y-85857608D01*
X119696180Y-85834559D01*
X119696180Y-85633389D01*
X119696518Y-85633492D01*
X119821000Y-85645752D01*
X120110250Y-85642680D01*
X120269000Y-85483930D01*
X120269000Y-84434680D01*
X120523000Y-84434680D01*
X120523000Y-85483930D01*
X120681750Y-85642680D01*
X120971000Y-85645752D01*
X121095482Y-85633492D01*
X121215180Y-85597182D01*
X121325494Y-85538217D01*
X121422185Y-85458865D01*
X121501537Y-85362174D01*
X121560502Y-85251860D01*
X121596812Y-85132162D01*
X121609072Y-85007680D01*
X121606000Y-84593430D01*
X121447250Y-84434680D01*
X120523000Y-84434680D01*
X120269000Y-84434680D01*
X120249000Y-84434680D01*
X120249000Y-84180680D01*
X120269000Y-84180680D01*
X120269000Y-83131430D01*
X120523000Y-83131430D01*
X120523000Y-84180680D01*
X121447250Y-84180680D01*
X121606000Y-84021930D01*
X121609072Y-83607680D01*
X121596812Y-83483198D01*
X121560502Y-83363500D01*
X121501537Y-83253186D01*
X121422185Y-83156495D01*
X121325494Y-83077143D01*
X121215180Y-83018178D01*
X121095482Y-82981868D01*
X120971000Y-82969608D01*
X120681750Y-82972680D01*
X120523000Y-83131430D01*
X120269000Y-83131430D01*
X120110250Y-82972680D01*
X119821000Y-82969608D01*
X119696518Y-82981868D01*
X119576820Y-83018178D01*
X119466506Y-83077143D01*
X119369815Y-83156495D01*
X119304342Y-83236274D01*
X119298962Y-83229718D01*
X119164387Y-83119275D01*
X119156000Y-83114792D01*
X119156000Y-82608366D01*
X119241334Y-82538334D01*
X119426906Y-82312214D01*
X119461401Y-82247677D01*
X119531022Y-82364555D01*
X119725931Y-82580788D01*
X119959280Y-82754841D01*
X120222101Y-82880025D01*
X120369310Y-82924676D01*
X120599200Y-82803355D01*
X120599200Y-81610200D01*
X120579200Y-81610200D01*
X120579200Y-81356200D01*
X120599200Y-81356200D01*
X120599200Y-80163045D01*
X120369310Y-80041724D01*
X120222101Y-80086375D01*
X119959280Y-80211559D01*
X119725931Y-80385612D01*
X119531022Y-80601845D01*
X119461401Y-80718723D01*
X119426906Y-80654186D01*
X119241334Y-80428066D01*
X119015214Y-80242494D01*
X118991120Y-80229616D01*
X118991120Y-79081549D01*
X119010134Y-79071386D01*
X119236254Y-78885814D01*
X119421826Y-78659694D01*
X119456321Y-78595157D01*
X119525942Y-78712035D01*
X119720851Y-78928268D01*
X119954200Y-79102321D01*
X120217021Y-79227505D01*
X120364230Y-79272156D01*
X120594120Y-79150835D01*
X120594120Y-77957680D01*
X120574120Y-77957680D01*
X120574120Y-77703680D01*
X120594120Y-77703680D01*
X120594120Y-76510525D01*
X120364230Y-76389204D01*
X120217021Y-76433855D01*
X119954200Y-76559039D01*
X119720851Y-76733092D01*
X119525942Y-76949325D01*
X119456321Y-77066203D01*
X119421826Y-77001666D01*
X119236254Y-76775546D01*
X119010134Y-76589974D01*
X118991120Y-76579811D01*
X118991120Y-75724954D01*
X119072592Y-75572531D01*
X119123128Y-75405935D01*
X119140192Y-75232681D01*
X119140192Y-74504166D01*
X119149222Y-74507906D01*
X119349181Y-74547680D01*
X119553059Y-74547680D01*
X119753018Y-74507906D01*
X119941376Y-74429885D01*
X120110894Y-74316617D01*
X120255057Y-74172454D01*
X120368325Y-74002936D01*
X120446346Y-73814578D01*
X120486120Y-73614619D01*
X120486120Y-73476101D01*
X121949304Y-73476101D01*
X122018465Y-73718029D01*
X122270563Y-73836928D01*
X122541014Y-73904361D01*
X122819423Y-73917737D01*
X123095092Y-73876540D01*
X123357428Y-73782355D01*
X123477775Y-73718029D01*
X123546936Y-73476101D01*
X122748120Y-72677285D01*
X121949304Y-73476101D01*
X120486120Y-73476101D01*
X120486120Y-73410741D01*
X120446346Y-73210782D01*
X120368325Y-73022424D01*
X120255057Y-72852906D01*
X120110894Y-72708743D01*
X119941376Y-72595475D01*
X119877420Y-72568983D01*
X121328063Y-72568983D01*
X121369260Y-72844652D01*
X121463445Y-73106988D01*
X121527771Y-73227335D01*
X121769699Y-73296496D01*
X122568515Y-72497680D01*
X122927725Y-72497680D01*
X123726541Y-73296496D01*
X123968469Y-73227335D01*
X124087368Y-72975237D01*
X124154801Y-72704786D01*
X124168177Y-72426377D01*
X124126980Y-72150708D01*
X124032795Y-71888372D01*
X123968469Y-71768025D01*
X123726541Y-71698864D01*
X122927725Y-72497680D01*
X122568515Y-72497680D01*
X121769699Y-71698864D01*
X121527771Y-71768025D01*
X121408872Y-72020123D01*
X121341439Y-72290574D01*
X121328063Y-72568983D01*
X119877420Y-72568983D01*
X119753018Y-72517454D01*
X119563761Y-72479809D01*
X119140192Y-72056240D01*
X119140192Y-72046679D01*
X119123128Y-71873425D01*
X119072592Y-71706829D01*
X118990525Y-71553293D01*
X118962594Y-71519259D01*
X121949304Y-71519259D01*
X122748120Y-72318075D01*
X123546936Y-71519259D01*
X123477775Y-71277331D01*
X123225677Y-71158432D01*
X122955226Y-71090999D01*
X122676817Y-71077623D01*
X122401148Y-71118820D01*
X122138812Y-71213005D01*
X122018465Y-71277331D01*
X121949304Y-71519259D01*
X118962594Y-71519259D01*
X118880082Y-71418718D01*
X118745507Y-71308275D01*
X118591971Y-71226208D01*
X118425375Y-71175672D01*
X118252121Y-71158608D01*
X117734560Y-71158608D01*
X117004019Y-70428067D01*
X116978648Y-70397152D01*
X116855309Y-70295931D01*
X116714593Y-70220717D01*
X116561908Y-70174400D01*
X116442911Y-70162680D01*
X116442908Y-70162680D01*
X116403120Y-70158761D01*
X116363332Y-70162680D01*
X113103400Y-70162680D01*
X113103400Y-62717912D01*
X115099013Y-60722300D01*
X115099017Y-60722295D01*
X115468633Y-60352680D01*
X118735298Y-60352680D01*
X118778201Y-60432945D01*
X118778201Y-60432945D01*
G37*
X118778201Y-60432945D02*
X118778200Y-61292608D01*
X118774281Y-61332400D01*
X118775211Y-61341847D01*
X118723698Y-61438220D01*
X118687388Y-61557918D01*
X118675128Y-61682400D01*
X118675128Y-63082400D01*
X118687388Y-63206882D01*
X118723698Y-63326580D01*
X118782663Y-63436894D01*
X118862015Y-63533585D01*
X118958706Y-63612937D01*
X119069020Y-63671902D01*
X119130329Y-63690500D01*
X119069020Y-63709098D01*
X118958706Y-63768063D01*
X118949035Y-63776000D01*
X116983137Y-63776000D01*
X116927362Y-63708038D01*
X116839584Y-63636000D01*
X116927362Y-63563962D01*
X117037805Y-63429387D01*
X117119872Y-63275851D01*
X117170408Y-63109255D01*
X117187472Y-62936001D01*
X117187472Y-62285999D01*
X117170408Y-62112745D01*
X117119872Y-61946149D01*
X117037805Y-61792613D01*
X116927362Y-61658038D01*
X116792787Y-61547595D01*
X116639251Y-61465528D01*
X116472655Y-61414992D01*
X116299401Y-61397928D01*
X115399399Y-61397928D01*
X115226145Y-61414992D01*
X115059549Y-61465528D01*
X114906013Y-61547595D01*
X114771438Y-61658038D01*
X114660995Y-61792613D01*
X114578928Y-61946149D01*
X114528392Y-62112745D01*
X114511328Y-62285999D01*
X114511328Y-62697494D01*
X113912017Y-63296805D01*
X113878244Y-63324522D01*
X113767650Y-63459281D01*
X113685472Y-63613027D01*
X113656329Y-63709098D01*
X113637333Y-63771719D01*
X113634866Y-63779850D01*
X113622061Y-63909863D01*
X113622061Y-63909870D01*
X113617780Y-63953339D01*
X113622061Y-63996808D01*
X113622062Y-65878462D01*
X113617780Y-65921941D01*
X113634866Y-66095431D01*
X113685473Y-66262254D01*
X113767651Y-66416000D01*
X113850529Y-66516987D01*
X113850532Y-66516990D01*
X113878245Y-66550758D01*
X113901015Y-66569445D01*
X113911834Y-66623838D01*
X113989855Y-66812196D01*
X114103123Y-66981714D01*
X114247286Y-67125877D01*
X114416804Y-67239145D01*
X114436370Y-67247249D01*
X114317145Y-67258992D01*
X114150549Y-67309528D01*
X113997013Y-67391595D01*
X113862438Y-67502038D01*
X113751995Y-67636613D01*
X113669928Y-67790149D01*
X113619392Y-67956745D01*
X113602328Y-68129999D01*
X113602328Y-69030001D01*
X113619392Y-69203255D01*
X113669928Y-69369851D01*
X113751995Y-69523387D01*
X113862438Y-69657962D01*
X113997013Y-69768405D01*
X114150549Y-69850472D01*
X114317145Y-69901008D01*
X114490399Y-69918072D01*
X115140401Y-69918072D01*
X115313655Y-69901008D01*
X115480251Y-69850472D01*
X115633787Y-69768405D01*
X115768362Y-69657962D01*
X115773742Y-69651406D01*
X115839215Y-69731185D01*
X115935906Y-69810537D01*
X116046220Y-69869502D01*
X116165918Y-69905812D01*
X116290400Y-69918072D01*
X116579650Y-69915000D01*
X116738400Y-69756250D01*
X116738400Y-68707000D01*
X116992400Y-68707000D01*
X116992400Y-69756250D01*
X117151150Y-69915000D01*
X117440400Y-69918072D01*
X117564882Y-69905812D01*
X117684580Y-69869502D01*
X117794894Y-69810537D01*
X117891585Y-69731185D01*
X117970937Y-69634494D01*
X118029902Y-69524180D01*
X118066212Y-69404482D01*
X118078472Y-69280000D01*
X118166928Y-69280000D01*
X118179188Y-69404482D01*
X118215498Y-69524180D01*
X118274463Y-69634494D01*
X118353815Y-69731185D01*
X118450506Y-69810537D01*
X118560820Y-69869502D01*
X118680518Y-69905812D01*
X118805000Y-69918072D01*
X119094250Y-69915000D01*
X119253000Y-69756250D01*
X119253000Y-68707000D01*
X118328750Y-68707000D01*
X118170000Y-68865750D01*
X118166928Y-69280000D01*
X118078472Y-69280000D01*
X118075400Y-68865750D01*
X117916650Y-68707000D01*
X116992400Y-68707000D01*
X116738400Y-68707000D01*
X116718400Y-68707000D01*
X116718400Y-68453000D01*
X116738400Y-68453000D01*
X116738400Y-67548853D01*
X116738681Y-67546000D01*
X116738400Y-67543147D01*
X116738400Y-67403750D01*
X116992400Y-67403750D01*
X116992400Y-68453000D01*
X117916650Y-68453000D01*
X118075400Y-68294250D01*
X118078472Y-67880000D01*
X118166928Y-67880000D01*
X118170000Y-68294250D01*
X118328750Y-68453000D01*
X119253000Y-68453000D01*
X119253000Y-67403750D01*
X119094250Y-67245000D01*
X118805000Y-67241928D01*
X118680518Y-67254188D01*
X118560820Y-67290498D01*
X118450506Y-67349463D01*
X118353815Y-67428815D01*
X118274463Y-67525506D01*
X118215498Y-67635820D01*
X118179188Y-67755518D01*
X118166928Y-67880000D01*
X118078472Y-67880000D01*
X118066212Y-67755518D01*
X118029902Y-67635820D01*
X117970937Y-67525506D01*
X117891585Y-67428815D01*
X117794894Y-67349463D01*
X117684580Y-67290498D01*
X117564882Y-67254188D01*
X117440400Y-67241928D01*
X117151150Y-67245000D01*
X116992400Y-67403750D01*
X116738400Y-67403750D01*
X116734400Y-67399750D01*
X116734400Y-65755614D01*
X116792787Y-65724405D01*
X116927362Y-65613962D01*
X116983137Y-65546000D01*
X118675128Y-65546000D01*
X118675128Y-65698600D01*
X118687388Y-65823082D01*
X118723698Y-65942780D01*
X118782663Y-66053094D01*
X118862015Y-66149785D01*
X118958706Y-66229137D01*
X119069020Y-66288102D01*
X119188718Y-66324412D01*
X119313200Y-66336672D01*
X119863200Y-66336672D01*
X119987682Y-66324412D01*
X120063333Y-66301463D01*
X120135414Y-66323745D01*
X120252450Y-66333600D01*
X120411200Y-66174850D01*
X120411200Y-66020424D01*
X120452702Y-65942780D01*
X120489012Y-65823082D01*
X120501272Y-65698600D01*
X120501272Y-64851600D01*
X120567425Y-64851600D01*
X120557805Y-64883310D01*
X120540719Y-65056800D01*
X120545001Y-65100279D01*
X120545000Y-67446263D01*
X120477038Y-67502038D01*
X120471658Y-67508594D01*
X120406185Y-67428815D01*
X120309494Y-67349463D01*
X120199180Y-67290498D01*
X120079482Y-67254188D01*
X119955000Y-67241928D01*
X119665750Y-67245000D01*
X119507000Y-67403750D01*
X119507000Y-68453000D01*
X119527000Y-68453000D01*
X119527000Y-68707000D01*
X119507000Y-68707000D01*
X119507000Y-69756250D01*
X119665750Y-69915000D01*
X119955000Y-69918072D01*
X120079482Y-69905812D01*
X120199180Y-69869502D01*
X120309494Y-69810537D01*
X120406185Y-69731185D01*
X120471658Y-69651406D01*
X120477038Y-69657962D01*
X120611613Y-69768405D01*
X120765149Y-69850472D01*
X120931745Y-69901008D01*
X121104999Y-69918072D01*
X121755001Y-69918072D01*
X121928255Y-69901008D01*
X122094851Y-69850472D01*
X122248387Y-69768405D01*
X122382962Y-69657962D01*
X122493405Y-69523387D01*
X122575472Y-69369851D01*
X122626008Y-69203255D01*
X122643072Y-69030001D01*
X122643072Y-68129999D01*
X122626008Y-67956745D01*
X122575472Y-67790149D01*
X122493405Y-67636613D01*
X122382962Y-67502038D01*
X122315000Y-67446263D01*
X122315000Y-66013314D01*
X122352702Y-65942780D01*
X122370654Y-65883600D01*
X124967931Y-65883600D01*
X125011400Y-65887881D01*
X125054869Y-65883600D01*
X125054877Y-65883600D01*
X125184890Y-65870795D01*
X125351713Y-65820189D01*
X125488507Y-65747072D01*
X125926001Y-65747072D01*
X126099255Y-65730008D01*
X126265851Y-65679472D01*
X126419387Y-65597405D01*
X126553962Y-65486962D01*
X126664405Y-65352387D01*
X126746472Y-65198851D01*
X126797008Y-65032255D01*
X126814072Y-64859001D01*
X126814072Y-64208999D01*
X126797008Y-64035745D01*
X126746472Y-63869149D01*
X126664405Y-63715613D01*
X126553962Y-63581038D01*
X126466184Y-63509000D01*
X126553962Y-63436962D01*
X126664405Y-63302387D01*
X126695614Y-63244000D01*
X127812386Y-63244000D01*
X127843595Y-63302387D01*
X127954038Y-63436962D01*
X128041816Y-63509000D01*
X127954038Y-63581038D01*
X127843595Y-63715613D01*
X127761528Y-63869149D01*
X127710992Y-64035745D01*
X127693928Y-64208999D01*
X127693928Y-64859001D01*
X127710992Y-65032255D01*
X127761528Y-65198851D01*
X127843595Y-65352387D01*
X127954038Y-65486962D01*
X128088613Y-65597405D01*
X128242149Y-65679472D01*
X128272000Y-65688527D01*
X128272001Y-66852386D01*
X128213613Y-66883595D01*
X128079038Y-66994038D01*
X127968595Y-67128613D01*
X127886528Y-67282149D01*
X127835992Y-67448745D01*
X127818928Y-67621999D01*
X127818928Y-68522001D01*
X127835992Y-68695255D01*
X127886528Y-68861851D01*
X127968595Y-69015387D01*
X128079038Y-69149962D01*
X128213613Y-69260405D01*
X128272001Y-69291614D01*
X128272001Y-70229228D01*
X128268324Y-70266560D01*
X128272001Y-70303893D01*
X128281187Y-70397153D01*
X128282998Y-70415545D01*
X128326454Y-70558806D01*
X128397026Y-70690836D01*
X128449363Y-70754608D01*
X128492000Y-70806561D01*
X128520998Y-70830359D01*
X130444321Y-72753683D01*
X130468119Y-72782681D01*
X130583844Y-72877654D01*
X130715873Y-72948226D01*
X130859134Y-72991683D01*
X130970787Y-73002680D01*
X130970795Y-73002680D01*
X131008120Y-73006356D01*
X131045445Y-73002680D01*
X131368593Y-73002680D01*
X131377648Y-73032531D01*
X131459715Y-73186067D01*
X131570158Y-73320642D01*
X131704733Y-73431085D01*
X131858269Y-73513152D01*
X132024865Y-73563688D01*
X132198119Y-73580752D01*
X132803121Y-73580752D01*
X132803122Y-83377159D01*
X128718120Y-87462162D01*
X128718120Y-83553589D01*
X128722401Y-83510120D01*
X128718120Y-83466651D01*
X128718120Y-83466643D01*
X128705315Y-83336630D01*
X128654709Y-83169807D01*
X128572531Y-83016061D01*
X128524719Y-82957802D01*
X128637311Y-82946713D01*
X128917234Y-82861799D01*
X129175214Y-82723906D01*
X129401334Y-82538334D01*
X129586906Y-82312214D01*
X129724799Y-82054234D01*
X129809713Y-81774311D01*
X129838385Y-81483200D01*
X129809713Y-81192089D01*
X129724799Y-80912166D01*
X129586906Y-80654186D01*
X129401334Y-80428066D01*
X129175214Y-80242494D01*
X128917234Y-80104601D01*
X128637311Y-80019687D01*
X128419150Y-79998200D01*
X128273250Y-79998200D01*
X128055089Y-80019687D01*
X127775166Y-80104601D01*
X127517186Y-80242494D01*
X127291066Y-80428066D01*
X127105494Y-80654186D01*
X127076200Y-80708991D01*
X127046906Y-80654186D01*
X126861334Y-80428066D01*
X126691200Y-80288441D01*
X126691200Y-79021270D01*
X126856254Y-78885814D01*
X127041826Y-78659694D01*
X127071120Y-78604889D01*
X127100414Y-78659694D01*
X127285986Y-78885814D01*
X127512106Y-79071386D01*
X127770086Y-79209279D01*
X128050009Y-79294193D01*
X128268170Y-79315680D01*
X128414070Y-79315680D01*
X128632231Y-79294193D01*
X128912154Y-79209279D01*
X129170134Y-79071386D01*
X129396254Y-78885814D01*
X129581826Y-78659694D01*
X129719719Y-78401714D01*
X129804633Y-78121791D01*
X129833305Y-77830680D01*
X129804633Y-77539569D01*
X129719719Y-77259646D01*
X129581826Y-77001666D01*
X129396254Y-76775546D01*
X129170134Y-76589974D01*
X128912154Y-76452081D01*
X128632231Y-76367167D01*
X128414070Y-76345680D01*
X128268170Y-76345680D01*
X128050009Y-76367167D01*
X127770086Y-76452081D01*
X127512106Y-76589974D01*
X127285986Y-76775546D01*
X127100414Y-77001666D01*
X127071120Y-77056471D01*
X127041826Y-77001666D01*
X126856254Y-76775546D01*
X126630134Y-76589974D01*
X126372154Y-76452081D01*
X126092231Y-76367167D01*
X125874070Y-76345680D01*
X125728170Y-76345680D01*
X125510009Y-76367167D01*
X125230086Y-76452081D01*
X124972106Y-76589974D01*
X124745986Y-76775546D01*
X124560414Y-77001666D01*
X124531120Y-77056471D01*
X124501826Y-77001666D01*
X124316254Y-76775546D01*
X124090134Y-76589974D01*
X123832154Y-76452081D01*
X123552231Y-76367167D01*
X123334070Y-76345680D01*
X123188170Y-76345680D01*
X122970009Y-76367167D01*
X122690086Y-76452081D01*
X122432106Y-76589974D01*
X122205986Y-76775546D01*
X122020414Y-77001666D01*
X121985919Y-77066203D01*
X121916298Y-76949325D01*
X121721389Y-76733092D01*
X121488040Y-76559039D01*
X121225219Y-76433855D01*
X121078010Y-76389204D01*
X120848120Y-76510525D01*
X120848120Y-77703680D01*
X120868120Y-77703680D01*
X120868120Y-77957680D01*
X120848120Y-77957680D01*
X120848120Y-79150835D01*
X121078010Y-79272156D01*
X121225219Y-79227505D01*
X121488040Y-79102321D01*
X121721389Y-78928268D01*
X121916298Y-78712035D01*
X121985919Y-78595157D01*
X122020414Y-78659694D01*
X122205986Y-78885814D01*
X122432106Y-79071386D01*
X122493130Y-79104004D01*
X122493130Y-79479141D01*
X122479124Y-79525314D01*
X122467921Y-79562244D01*
X122452281Y-79721031D01*
X122456201Y-79760829D01*
X122456201Y-80232330D01*
X122437186Y-80242494D01*
X122211066Y-80428066D01*
X122025494Y-80654186D01*
X121990999Y-80718723D01*
X121921378Y-80601845D01*
X121726469Y-80385612D01*
X121493120Y-80211559D01*
X121230299Y-80086375D01*
X121083090Y-80041724D01*
X120853200Y-80163045D01*
X120853200Y-81356200D01*
X120873200Y-81356200D01*
X120873200Y-81610200D01*
X120853200Y-81610200D01*
X120853200Y-82803355D01*
X121083090Y-82924676D01*
X121230299Y-82880025D01*
X121493120Y-82754841D01*
X121726469Y-82580788D01*
X121921378Y-82364555D01*
X121990999Y-82247677D01*
X122025494Y-82312214D01*
X122211066Y-82538334D01*
X122381200Y-82677959D01*
X122381201Y-86332221D01*
X122376919Y-86375700D01*
X122394005Y-86549190D01*
X122444612Y-86716013D01*
X122526790Y-86869759D01*
X122609668Y-86970746D01*
X122609671Y-86970749D01*
X122637384Y-87004517D01*
X122671151Y-87032229D01*
X123666133Y-88027212D01*
X123767120Y-88110090D01*
X123920866Y-88192268D01*
X123973108Y-88208116D01*
X123973108Y-88245680D01*
X123982957Y-88345680D01*
X123973108Y-88445680D01*
X123973108Y-88561618D01*
X123949707Y-88568717D01*
X123808991Y-88643931D01*
X123801847Y-88649794D01*
X121426706Y-88649794D01*
X121266262Y-88542589D01*
X121077904Y-88464568D01*
X120877945Y-88424794D01*
X120674067Y-88424794D01*
X120549252Y-88449621D01*
X120549252Y-88445680D01*
X120539403Y-88345680D01*
X120549252Y-88245680D01*
X120549252Y-87795680D01*
X120539403Y-87695680D01*
X120549252Y-87595680D01*
X120549252Y-87145680D01*
X120539403Y-87045680D01*
X120549252Y-86945680D01*
X120549252Y-86495680D01*
X120536992Y-86371198D01*
X120500682Y-86251500D01*
X120441717Y-86141186D01*
X120362365Y-86044495D01*
X120265674Y-85965143D01*
X120155360Y-85906178D01*
X120035662Y-85869868D01*
X119911180Y-85857608D01*
X119691595Y-85857608D01*
X119696180Y-85834559D01*
X119696180Y-85633389D01*
X119696518Y-85633492D01*
X119821000Y-85645752D01*
X120110250Y-85642680D01*
X120269000Y-85483930D01*
X120269000Y-84434680D01*
X120523000Y-84434680D01*
X120523000Y-85483930D01*
X120681750Y-85642680D01*
X120971000Y-85645752D01*
X121095482Y-85633492D01*
X121215180Y-85597182D01*
X121325494Y-85538217D01*
X121422185Y-85458865D01*
X121501537Y-85362174D01*
X121560502Y-85251860D01*
X121596812Y-85132162D01*
X121609072Y-85007680D01*
X121606000Y-84593430D01*
X121447250Y-84434680D01*
X120523000Y-84434680D01*
X120269000Y-84434680D01*
X120249000Y-84434680D01*
X120249000Y-84180680D01*
X120269000Y-84180680D01*
X120269000Y-83131430D01*
X120523000Y-83131430D01*
X120523000Y-84180680D01*
X121447250Y-84180680D01*
X121606000Y-84021930D01*
X121609072Y-83607680D01*
X121596812Y-83483198D01*
X121560502Y-83363500D01*
X121501537Y-83253186D01*
X121422185Y-83156495D01*
X121325494Y-83077143D01*
X121215180Y-83018178D01*
X121095482Y-82981868D01*
X120971000Y-82969608D01*
X120681750Y-82972680D01*
X120523000Y-83131430D01*
X120269000Y-83131430D01*
X120110250Y-82972680D01*
X119821000Y-82969608D01*
X119696518Y-82981868D01*
X119576820Y-83018178D01*
X119466506Y-83077143D01*
X119369815Y-83156495D01*
X119304342Y-83236274D01*
X119298962Y-83229718D01*
X119164387Y-83119275D01*
X119156000Y-83114792D01*
X119156000Y-82608366D01*
X119241334Y-82538334D01*
X119426906Y-82312214D01*
X119461401Y-82247677D01*
X119531022Y-82364555D01*
X119725931Y-82580788D01*
X119959280Y-82754841D01*
X120222101Y-82880025D01*
X120369310Y-82924676D01*
X120599200Y-82803355D01*
X120599200Y-81610200D01*
X120579200Y-81610200D01*
X120579200Y-81356200D01*
X120599200Y-81356200D01*
X120599200Y-80163045D01*
X120369310Y-80041724D01*
X120222101Y-80086375D01*
X119959280Y-80211559D01*
X119725931Y-80385612D01*
X119531022Y-80601845D01*
X119461401Y-80718723D01*
X119426906Y-80654186D01*
X119241334Y-80428066D01*
X119015214Y-80242494D01*
X118991120Y-80229616D01*
X118991120Y-79081549D01*
X119010134Y-79071386D01*
X119236254Y-78885814D01*
X119421826Y-78659694D01*
X119456321Y-78595157D01*
X119525942Y-78712035D01*
X119720851Y-78928268D01*
X119954200Y-79102321D01*
X120217021Y-79227505D01*
X120364230Y-79272156D01*
X120594120Y-79150835D01*
X120594120Y-77957680D01*
X120574120Y-77957680D01*
X120574120Y-77703680D01*
X120594120Y-77703680D01*
X120594120Y-76510525D01*
X120364230Y-76389204D01*
X120217021Y-76433855D01*
X119954200Y-76559039D01*
X119720851Y-76733092D01*
X119525942Y-76949325D01*
X119456321Y-77066203D01*
X119421826Y-77001666D01*
X119236254Y-76775546D01*
X119010134Y-76589974D01*
X118991120Y-76579811D01*
X118991120Y-75724954D01*
X119072592Y-75572531D01*
X119123128Y-75405935D01*
X119140192Y-75232681D01*
X119140192Y-74504166D01*
X119149222Y-74507906D01*
X119349181Y-74547680D01*
X119553059Y-74547680D01*
X119753018Y-74507906D01*
X119941376Y-74429885D01*
X120110894Y-74316617D01*
X120255057Y-74172454D01*
X120368325Y-74002936D01*
X120446346Y-73814578D01*
X120486120Y-73614619D01*
X120486120Y-73476101D01*
X121949304Y-73476101D01*
X122018465Y-73718029D01*
X122270563Y-73836928D01*
X122541014Y-73904361D01*
X122819423Y-73917737D01*
X123095092Y-73876540D01*
X123357428Y-73782355D01*
X123477775Y-73718029D01*
X123546936Y-73476101D01*
X122748120Y-72677285D01*
X121949304Y-73476101D01*
X120486120Y-73476101D01*
X120486120Y-73410741D01*
X120446346Y-73210782D01*
X120368325Y-73022424D01*
X120255057Y-72852906D01*
X120110894Y-72708743D01*
X119941376Y-72595475D01*
X119877420Y-72568983D01*
X121328063Y-72568983D01*
X121369260Y-72844652D01*
X121463445Y-73106988D01*
X121527771Y-73227335D01*
X121769699Y-73296496D01*
X122568515Y-72497680D01*
X122927725Y-72497680D01*
X123726541Y-73296496D01*
X123968469Y-73227335D01*
X124087368Y-72975237D01*
X124154801Y-72704786D01*
X124168177Y-72426377D01*
X124126980Y-72150708D01*
X124032795Y-71888372D01*
X123968469Y-71768025D01*
X123726541Y-71698864D01*
X122927725Y-72497680D01*
X122568515Y-72497680D01*
X121769699Y-71698864D01*
X121527771Y-71768025D01*
X121408872Y-72020123D01*
X121341439Y-72290574D01*
X121328063Y-72568983D01*
X119877420Y-72568983D01*
X119753018Y-72517454D01*
X119563761Y-72479809D01*
X119140192Y-72056240D01*
X119140192Y-72046679D01*
X119123128Y-71873425D01*
X119072592Y-71706829D01*
X118990525Y-71553293D01*
X118962594Y-71519259D01*
X121949304Y-71519259D01*
X122748120Y-72318075D01*
X123546936Y-71519259D01*
X123477775Y-71277331D01*
X123225677Y-71158432D01*
X122955226Y-71090999D01*
X122676817Y-71077623D01*
X122401148Y-71118820D01*
X122138812Y-71213005D01*
X122018465Y-71277331D01*
X121949304Y-71519259D01*
X118962594Y-71519259D01*
X118880082Y-71418718D01*
X118745507Y-71308275D01*
X118591971Y-71226208D01*
X118425375Y-71175672D01*
X118252121Y-71158608D01*
X117734560Y-71158608D01*
X117004019Y-70428067D01*
X116978648Y-70397152D01*
X116855309Y-70295931D01*
X116714593Y-70220717D01*
X116561908Y-70174400D01*
X116442911Y-70162680D01*
X116442908Y-70162680D01*
X116403120Y-70158761D01*
X116363332Y-70162680D01*
X113103400Y-70162680D01*
X113103400Y-62717912D01*
X115099013Y-60722300D01*
X115099017Y-60722295D01*
X115468633Y-60352680D01*
X118735298Y-60352680D01*
X118778201Y-60432945D01*
G36*
X114664048Y-71796680D02*
G01*
X114667120Y-72210930D01*
X114825870Y-72369680D01*
X115750120Y-72369680D01*
X115750120Y-72349680D01*
X116004120Y-72349680D01*
X116004120Y-72369680D01*
X116024120Y-72369680D01*
X116024120Y-72623680D01*
X116004120Y-72623680D01*
X116004120Y-72643680D01*
X115750120Y-72643680D01*
X115750120Y-72623680D01*
X114825870Y-72623680D01*
X114667120Y-72782430D01*
X114664048Y-73196680D01*
X114676308Y-73321162D01*
X114712618Y-73440860D01*
X114771583Y-73551174D01*
X114850935Y-73647865D01*
X114922569Y-73706654D01*
X114813715Y-73839293D01*
X114731648Y-73992829D01*
X114681112Y-74159425D01*
X114664048Y-74332679D01*
X114664048Y-75232681D01*
X114681112Y-75405935D01*
X114731648Y-75572531D01*
X114813715Y-75726067D01*
X114924158Y-75860642D01*
X114992120Y-75916417D01*
X114992121Y-76342608D01*
X114791120Y-76342608D01*
X114666638Y-76354868D01*
X114546940Y-76391178D01*
X114436626Y-76450143D01*
X114339935Y-76529495D01*
X114260583Y-76626186D01*
X114201618Y-76736500D01*
X114165308Y-76856198D01*
X114153048Y-76980680D01*
X114153048Y-78680680D01*
X114165308Y-78805162D01*
X114201618Y-78924860D01*
X114260583Y-79035174D01*
X114339935Y-79131865D01*
X114436626Y-79211217D01*
X114546940Y-79270182D01*
X114666638Y-79306492D01*
X114756120Y-79315305D01*
X114756121Y-79999075D01*
X114671718Y-80007388D01*
X114552020Y-80043698D01*
X114441706Y-80102663D01*
X114345015Y-80182015D01*
X114265663Y-80278706D01*
X114206698Y-80389020D01*
X114170388Y-80508718D01*
X114158128Y-80633200D01*
X114158128Y-82333200D01*
X114170388Y-82457682D01*
X114206698Y-82577380D01*
X114265663Y-82687694D01*
X114345015Y-82784385D01*
X114441706Y-82863737D01*
X114552020Y-82922702D01*
X114671718Y-82959012D01*
X114761200Y-82967825D01*
X114761201Y-87434121D01*
X114756919Y-87477600D01*
X114774005Y-87651090D01*
X114824612Y-87817913D01*
X114906790Y-87971659D01*
X114989668Y-88072646D01*
X114989671Y-88072649D01*
X115017384Y-88106417D01*
X115051151Y-88134129D01*
X115355386Y-88438364D01*
X115277864Y-88470475D01*
X115117420Y-88577680D01*
X113563633Y-88577680D01*
X113103400Y-88117448D01*
X113103400Y-71861912D01*
X113182632Y-71782680D01*
X114665427Y-71782680D01*
X114664048Y-71796680D01*
X114664048Y-71796680D01*
G37*
X114664048Y-71796680D02*
X114667120Y-72210930D01*
X114825870Y-72369680D01*
X115750120Y-72369680D01*
X115750120Y-72349680D01*
X116004120Y-72349680D01*
X116004120Y-72369680D01*
X116024120Y-72369680D01*
X116024120Y-72623680D01*
X116004120Y-72623680D01*
X116004120Y-72643680D01*
X115750120Y-72643680D01*
X115750120Y-72623680D01*
X114825870Y-72623680D01*
X114667120Y-72782430D01*
X114664048Y-73196680D01*
X114676308Y-73321162D01*
X114712618Y-73440860D01*
X114771583Y-73551174D01*
X114850935Y-73647865D01*
X114922569Y-73706654D01*
X114813715Y-73839293D01*
X114731648Y-73992829D01*
X114681112Y-74159425D01*
X114664048Y-74332679D01*
X114664048Y-75232681D01*
X114681112Y-75405935D01*
X114731648Y-75572531D01*
X114813715Y-75726067D01*
X114924158Y-75860642D01*
X114992120Y-75916417D01*
X114992121Y-76342608D01*
X114791120Y-76342608D01*
X114666638Y-76354868D01*
X114546940Y-76391178D01*
X114436626Y-76450143D01*
X114339935Y-76529495D01*
X114260583Y-76626186D01*
X114201618Y-76736500D01*
X114165308Y-76856198D01*
X114153048Y-76980680D01*
X114153048Y-78680680D01*
X114165308Y-78805162D01*
X114201618Y-78924860D01*
X114260583Y-79035174D01*
X114339935Y-79131865D01*
X114436626Y-79211217D01*
X114546940Y-79270182D01*
X114666638Y-79306492D01*
X114756120Y-79315305D01*
X114756121Y-79999075D01*
X114671718Y-80007388D01*
X114552020Y-80043698D01*
X114441706Y-80102663D01*
X114345015Y-80182015D01*
X114265663Y-80278706D01*
X114206698Y-80389020D01*
X114170388Y-80508718D01*
X114158128Y-80633200D01*
X114158128Y-82333200D01*
X114170388Y-82457682D01*
X114206698Y-82577380D01*
X114265663Y-82687694D01*
X114345015Y-82784385D01*
X114441706Y-82863737D01*
X114552020Y-82922702D01*
X114671718Y-82959012D01*
X114761200Y-82967825D01*
X114761201Y-87434121D01*
X114756919Y-87477600D01*
X114774005Y-87651090D01*
X114824612Y-87817913D01*
X114906790Y-87971659D01*
X114989668Y-88072646D01*
X114989671Y-88072649D01*
X115017384Y-88106417D01*
X115051151Y-88134129D01*
X115355386Y-88438364D01*
X115277864Y-88470475D01*
X115117420Y-88577680D01*
X113563633Y-88577680D01*
X113103400Y-88117448D01*
X113103400Y-71861912D01*
X113182632Y-71782680D01*
X114665427Y-71782680D01*
X114664048Y-71796680D01*
G36*
X117131066Y-82538334D02*
G01*
X117357186Y-82723906D01*
X117536001Y-82819484D01*
X117536000Y-83114792D01*
X117527613Y-83119275D01*
X117393038Y-83229718D01*
X117282595Y-83364293D01*
X117200528Y-83517829D01*
X117149992Y-83684425D01*
X117132928Y-83857679D01*
X117132928Y-84757681D01*
X117149992Y-84930935D01*
X117200528Y-85097531D01*
X117282595Y-85251067D01*
X117393038Y-85385642D01*
X117527613Y-85496085D01*
X117640907Y-85556642D01*
X117626180Y-85630681D01*
X117626180Y-85834559D01*
X117630765Y-85857608D01*
X117411180Y-85857608D01*
X117286698Y-85869868D01*
X117167000Y-85906178D01*
X117056686Y-85965143D01*
X116959995Y-86044495D01*
X116880643Y-86141186D01*
X116821678Y-86251500D01*
X116785368Y-86371198D01*
X116773108Y-86495680D01*
X116773108Y-86945680D01*
X116782957Y-87045680D01*
X116773108Y-87145680D01*
X116773108Y-87352930D01*
X116531200Y-87111022D01*
X116531200Y-82967825D01*
X116620682Y-82959012D01*
X116740380Y-82922702D01*
X116850694Y-82863737D01*
X116947385Y-82784385D01*
X117026737Y-82687694D01*
X117085702Y-82577380D01*
X117106593Y-82508513D01*
X117131066Y-82538334D01*
X117131066Y-82538334D01*
G37*
X117131066Y-82538334D02*
X117357186Y-82723906D01*
X117536001Y-82819484D01*
X117536000Y-83114792D01*
X117527613Y-83119275D01*
X117393038Y-83229718D01*
X117282595Y-83364293D01*
X117200528Y-83517829D01*
X117149992Y-83684425D01*
X117132928Y-83857679D01*
X117132928Y-84757681D01*
X117149992Y-84930935D01*
X117200528Y-85097531D01*
X117282595Y-85251067D01*
X117393038Y-85385642D01*
X117527613Y-85496085D01*
X117640907Y-85556642D01*
X117626180Y-85630681D01*
X117626180Y-85834559D01*
X117630765Y-85857608D01*
X117411180Y-85857608D01*
X117286698Y-85869868D01*
X117167000Y-85906178D01*
X117056686Y-85965143D01*
X116959995Y-86044495D01*
X116880643Y-86141186D01*
X116821678Y-86251500D01*
X116785368Y-86371198D01*
X116773108Y-86495680D01*
X116773108Y-86945680D01*
X116782957Y-87045680D01*
X116773108Y-87145680D01*
X116773108Y-87352930D01*
X116531200Y-87111022D01*
X116531200Y-82967825D01*
X116620682Y-82959012D01*
X116740380Y-82922702D01*
X116850694Y-82863737D01*
X116947385Y-82784385D01*
X117026737Y-82687694D01*
X117085702Y-82577380D01*
X117106593Y-82508513D01*
X117131066Y-82538334D01*
G36*
X124565494Y-82312214D02*
G01*
X124751066Y-82538334D01*
X124977186Y-82723906D01*
X125235166Y-82861799D01*
X125515089Y-82946713D01*
X125733250Y-82968200D01*
X125879150Y-82968200D01*
X126025234Y-82953812D01*
X126948120Y-83876699D01*
X126948121Y-85858138D01*
X126146930Y-85860680D01*
X125988180Y-86019430D01*
X125988180Y-86507608D01*
X125734180Y-86507608D01*
X125734180Y-86019430D01*
X125575430Y-85860680D01*
X124617642Y-85857641D01*
X124493042Y-85868640D01*
X124372983Y-85903736D01*
X124262077Y-85961580D01*
X124174255Y-86032177D01*
X124151200Y-86009122D01*
X124151200Y-82677959D01*
X124321334Y-82538334D01*
X124506906Y-82312214D01*
X124536200Y-82257409D01*
X124565494Y-82312214D01*
X124565494Y-82312214D01*
G37*
X124565494Y-82312214D02*
X124751066Y-82538334D01*
X124977186Y-82723906D01*
X125235166Y-82861799D01*
X125515089Y-82946713D01*
X125733250Y-82968200D01*
X125879150Y-82968200D01*
X126025234Y-82953812D01*
X126948120Y-83876699D01*
X126948121Y-85858138D01*
X126146930Y-85860680D01*
X125988180Y-86019430D01*
X125988180Y-86507608D01*
X125734180Y-86507608D01*
X125734180Y-86019430D01*
X125575430Y-85860680D01*
X124617642Y-85857641D01*
X124493042Y-85868640D01*
X124372983Y-85903736D01*
X124262077Y-85961580D01*
X124174255Y-86032177D01*
X124151200Y-86009122D01*
X124151200Y-82677959D01*
X124321334Y-82538334D01*
X124506906Y-82312214D01*
X124536200Y-82257409D01*
X124565494Y-82312214D01*
G36*
X135606928Y-64911200D02*
G01*
X135619188Y-65035682D01*
X135655498Y-65155380D01*
X135697000Y-65233024D01*
X135697000Y-65387450D01*
X135855750Y-65546200D01*
X135972786Y-65536345D01*
X136044867Y-65514063D01*
X136120518Y-65537012D01*
X136245000Y-65549272D01*
X136795000Y-65549272D01*
X136919482Y-65537012D01*
X137039180Y-65500702D01*
X137149494Y-65441737D01*
X137246185Y-65362385D01*
X137325537Y-65265694D01*
X137384502Y-65155380D01*
X137420812Y-65035682D01*
X137427163Y-64971200D01*
X138046399Y-64971200D01*
X138468928Y-65393729D01*
X138468928Y-65982001D01*
X138485992Y-66155255D01*
X138536528Y-66321851D01*
X138618595Y-66475387D01*
X138729038Y-66609962D01*
X138863613Y-66720405D01*
X138931001Y-66756425D01*
X138931000Y-67360386D01*
X138872613Y-67391595D01*
X138738038Y-67502038D01*
X138627595Y-67636613D01*
X138545528Y-67790149D01*
X138494992Y-67956745D01*
X138477928Y-68129999D01*
X138477928Y-69030001D01*
X138494992Y-69203255D01*
X138545528Y-69369851D01*
X138627595Y-69523387D01*
X138738038Y-69657962D01*
X138872613Y-69768405D01*
X139026149Y-69850472D01*
X139174077Y-69895345D01*
X138314814Y-70754608D01*
X137143120Y-70754608D01*
X137018638Y-70766868D01*
X136898940Y-70803178D01*
X136788626Y-70862143D01*
X136691935Y-70941495D01*
X136612583Y-71038186D01*
X136553618Y-71148500D01*
X136517308Y-71268198D01*
X136508495Y-71357680D01*
X135667734Y-71357680D01*
X135636525Y-71299293D01*
X135526082Y-71164718D01*
X135391507Y-71054275D01*
X135237971Y-70972208D01*
X135071375Y-70921672D01*
X134898121Y-70904608D01*
X134248119Y-70904608D01*
X134074865Y-70921672D01*
X133908269Y-70972208D01*
X133754733Y-71054275D01*
X133620158Y-71164718D01*
X133548120Y-71252496D01*
X133476082Y-71164718D01*
X133341507Y-71054275D01*
X133187971Y-70972208D01*
X133021375Y-70921672D01*
X132848121Y-70904608D01*
X132198119Y-70904608D01*
X132024865Y-70921672D01*
X131858269Y-70972208D01*
X131704733Y-71054275D01*
X131570158Y-71164718D01*
X131459715Y-71299293D01*
X131377648Y-71452829D01*
X131368593Y-71482680D01*
X131322922Y-71482680D01*
X129792000Y-69951759D01*
X129792000Y-69291614D01*
X129850387Y-69260405D01*
X129984962Y-69149962D01*
X130057000Y-69062184D01*
X130129038Y-69149962D01*
X130263613Y-69260405D01*
X130417149Y-69342472D01*
X130583745Y-69393008D01*
X130756999Y-69410072D01*
X131407001Y-69410072D01*
X131580255Y-69393008D01*
X131746851Y-69342472D01*
X131900387Y-69260405D01*
X132034962Y-69149962D01*
X132145405Y-69015387D01*
X132227472Y-68861851D01*
X132236527Y-68832000D01*
X133447473Y-68832000D01*
X133456528Y-68861851D01*
X133538595Y-69015387D01*
X133649038Y-69149962D01*
X133783613Y-69260405D01*
X133937149Y-69342472D01*
X134103745Y-69393008D01*
X134276999Y-69410072D01*
X134927001Y-69410072D01*
X135100255Y-69393008D01*
X135266851Y-69342472D01*
X135420387Y-69260405D01*
X135554962Y-69149962D01*
X135560342Y-69143406D01*
X135625815Y-69223185D01*
X135722506Y-69302537D01*
X135832820Y-69361502D01*
X135952518Y-69397812D01*
X136077000Y-69410072D01*
X136366250Y-69407000D01*
X136525000Y-69248250D01*
X136525000Y-68199000D01*
X136779000Y-68199000D01*
X136779000Y-69248250D01*
X136937750Y-69407000D01*
X137227000Y-69410072D01*
X137351482Y-69397812D01*
X137471180Y-69361502D01*
X137581494Y-69302537D01*
X137678185Y-69223185D01*
X137757537Y-69126494D01*
X137816502Y-69016180D01*
X137852812Y-68896482D01*
X137865072Y-68772000D01*
X137862000Y-68357750D01*
X137703250Y-68199000D01*
X136779000Y-68199000D01*
X136525000Y-68199000D01*
X136505000Y-68199000D01*
X136505000Y-67945000D01*
X136525000Y-67945000D01*
X136525000Y-66895750D01*
X136779000Y-66895750D01*
X136779000Y-67945000D01*
X137703250Y-67945000D01*
X137862000Y-67786250D01*
X137865072Y-67372000D01*
X137852812Y-67247518D01*
X137816502Y-67127820D01*
X137757537Y-67017506D01*
X137678185Y-66920815D01*
X137581494Y-66841463D01*
X137471180Y-66782498D01*
X137351482Y-66746188D01*
X137227000Y-66733928D01*
X136937750Y-66737000D01*
X136779000Y-66895750D01*
X136525000Y-66895750D01*
X136366250Y-66737000D01*
X136077000Y-66733928D01*
X135952518Y-66746188D01*
X135832820Y-66782498D01*
X135722506Y-66841463D01*
X135625815Y-66920815D01*
X135560342Y-67000594D01*
X135554962Y-66994038D01*
X135420387Y-66883595D01*
X135362000Y-66852386D01*
X135362000Y-65468450D01*
X135443000Y-65387450D01*
X135443000Y-65233024D01*
X135484502Y-65155380D01*
X135520812Y-65035682D01*
X135533072Y-64911200D01*
X135533072Y-64064200D01*
X135606928Y-64064200D01*
X135606928Y-64911200D01*
X135606928Y-64911200D01*
G37*
X135606928Y-64911200D02*
X135619188Y-65035682D01*
X135655498Y-65155380D01*
X135697000Y-65233024D01*
X135697000Y-65387450D01*
X135855750Y-65546200D01*
X135972786Y-65536345D01*
X136044867Y-65514063D01*
X136120518Y-65537012D01*
X136245000Y-65549272D01*
X136795000Y-65549272D01*
X136919482Y-65537012D01*
X137039180Y-65500702D01*
X137149494Y-65441737D01*
X137246185Y-65362385D01*
X137325537Y-65265694D01*
X137384502Y-65155380D01*
X137420812Y-65035682D01*
X137427163Y-64971200D01*
X138046399Y-64971200D01*
X138468928Y-65393729D01*
X138468928Y-65982001D01*
X138485992Y-66155255D01*
X138536528Y-66321851D01*
X138618595Y-66475387D01*
X138729038Y-66609962D01*
X138863613Y-66720405D01*
X138931001Y-66756425D01*
X138931000Y-67360386D01*
X138872613Y-67391595D01*
X138738038Y-67502038D01*
X138627595Y-67636613D01*
X138545528Y-67790149D01*
X138494992Y-67956745D01*
X138477928Y-68129999D01*
X138477928Y-69030001D01*
X138494992Y-69203255D01*
X138545528Y-69369851D01*
X138627595Y-69523387D01*
X138738038Y-69657962D01*
X138872613Y-69768405D01*
X139026149Y-69850472D01*
X139174077Y-69895345D01*
X138314814Y-70754608D01*
X137143120Y-70754608D01*
X137018638Y-70766868D01*
X136898940Y-70803178D01*
X136788626Y-70862143D01*
X136691935Y-70941495D01*
X136612583Y-71038186D01*
X136553618Y-71148500D01*
X136517308Y-71268198D01*
X136508495Y-71357680D01*
X135667734Y-71357680D01*
X135636525Y-71299293D01*
X135526082Y-71164718D01*
X135391507Y-71054275D01*
X135237971Y-70972208D01*
X135071375Y-70921672D01*
X134898121Y-70904608D01*
X134248119Y-70904608D01*
X134074865Y-70921672D01*
X133908269Y-70972208D01*
X133754733Y-71054275D01*
X133620158Y-71164718D01*
X133548120Y-71252496D01*
X133476082Y-71164718D01*
X133341507Y-71054275D01*
X133187971Y-70972208D01*
X133021375Y-70921672D01*
X132848121Y-70904608D01*
X132198119Y-70904608D01*
X132024865Y-70921672D01*
X131858269Y-70972208D01*
X131704733Y-71054275D01*
X131570158Y-71164718D01*
X131459715Y-71299293D01*
X131377648Y-71452829D01*
X131368593Y-71482680D01*
X131322922Y-71482680D01*
X129792000Y-69951759D01*
X129792000Y-69291614D01*
X129850387Y-69260405D01*
X129984962Y-69149962D01*
X130057000Y-69062184D01*
X130129038Y-69149962D01*
X130263613Y-69260405D01*
X130417149Y-69342472D01*
X130583745Y-69393008D01*
X130756999Y-69410072D01*
X131407001Y-69410072D01*
X131580255Y-69393008D01*
X131746851Y-69342472D01*
X131900387Y-69260405D01*
X132034962Y-69149962D01*
X132145405Y-69015387D01*
X132227472Y-68861851D01*
X132236527Y-68832000D01*
X133447473Y-68832000D01*
X133456528Y-68861851D01*
X133538595Y-69015387D01*
X133649038Y-69149962D01*
X133783613Y-69260405D01*
X133937149Y-69342472D01*
X134103745Y-69393008D01*
X134276999Y-69410072D01*
X134927001Y-69410072D01*
X135100255Y-69393008D01*
X135266851Y-69342472D01*
X135420387Y-69260405D01*
X135554962Y-69149962D01*
X135560342Y-69143406D01*
X135625815Y-69223185D01*
X135722506Y-69302537D01*
X135832820Y-69361502D01*
X135952518Y-69397812D01*
X136077000Y-69410072D01*
X136366250Y-69407000D01*
X136525000Y-69248250D01*
X136525000Y-68199000D01*
X136779000Y-68199000D01*
X136779000Y-69248250D01*
X136937750Y-69407000D01*
X137227000Y-69410072D01*
X137351482Y-69397812D01*
X137471180Y-69361502D01*
X137581494Y-69302537D01*
X137678185Y-69223185D01*
X137757537Y-69126494D01*
X137816502Y-69016180D01*
X137852812Y-68896482D01*
X137865072Y-68772000D01*
X137862000Y-68357750D01*
X137703250Y-68199000D01*
X136779000Y-68199000D01*
X136525000Y-68199000D01*
X136505000Y-68199000D01*
X136505000Y-67945000D01*
X136525000Y-67945000D01*
X136525000Y-66895750D01*
X136779000Y-66895750D01*
X136779000Y-67945000D01*
X137703250Y-67945000D01*
X137862000Y-67786250D01*
X137865072Y-67372000D01*
X137852812Y-67247518D01*
X137816502Y-67127820D01*
X137757537Y-67017506D01*
X137678185Y-66920815D01*
X137581494Y-66841463D01*
X137471180Y-66782498D01*
X137351482Y-66746188D01*
X137227000Y-66733928D01*
X136937750Y-66737000D01*
X136779000Y-66895750D01*
X136525000Y-66895750D01*
X136366250Y-66737000D01*
X136077000Y-66733928D01*
X135952518Y-66746188D01*
X135832820Y-66782498D01*
X135722506Y-66841463D01*
X135625815Y-66920815D01*
X135560342Y-67000594D01*
X135554962Y-66994038D01*
X135420387Y-66883595D01*
X135362000Y-66852386D01*
X135362000Y-65468450D01*
X135443000Y-65387450D01*
X135443000Y-65233024D01*
X135484502Y-65155380D01*
X135520812Y-65035682D01*
X135533072Y-64911200D01*
X135533072Y-64064200D01*
X135606928Y-64064200D01*
X135606928Y-64911200D01*
G36*
X142030723Y-64196862D02*
G01*
X142017750Y-64197000D01*
X141859000Y-64355750D01*
X141859000Y-65405000D01*
X141879000Y-65405000D01*
X141879000Y-65659000D01*
X141859000Y-65659000D01*
X141859000Y-66708250D01*
X142017750Y-66867000D01*
X142200481Y-66868941D01*
X141827494Y-67241928D01*
X141415999Y-67241928D01*
X141242745Y-67258992D01*
X141076149Y-67309528D01*
X140922613Y-67391595D01*
X140788038Y-67502038D01*
X140716000Y-67589816D01*
X140643962Y-67502038D01*
X140509387Y-67391595D01*
X140451000Y-67360386D01*
X140451000Y-66746803D01*
X140500387Y-66720405D01*
X140634962Y-66609962D01*
X140640342Y-66603406D01*
X140705815Y-66683185D01*
X140802506Y-66762537D01*
X140912820Y-66821502D01*
X141032518Y-66857812D01*
X141157000Y-66870072D01*
X141446250Y-66867000D01*
X141605000Y-66708250D01*
X141605000Y-65659000D01*
X141585000Y-65659000D01*
X141585000Y-65405000D01*
X141605000Y-65405000D01*
X141605000Y-64355750D01*
X141446250Y-64197000D01*
X141157000Y-64193928D01*
X141032518Y-64206188D01*
X140912820Y-64242498D01*
X140802506Y-64301463D01*
X140705815Y-64380815D01*
X140640342Y-64460594D01*
X140634962Y-64454038D01*
X140500387Y-64343595D01*
X140346851Y-64261528D01*
X140180255Y-64210992D01*
X140007001Y-64193928D01*
X139418729Y-64193928D01*
X138925004Y-63700203D01*
X138901201Y-63671199D01*
X138785476Y-63576226D01*
X138653447Y-63505654D01*
X138510186Y-63462197D01*
X138398533Y-63451200D01*
X138398522Y-63451200D01*
X138361200Y-63447524D01*
X138323878Y-63451200D01*
X137427163Y-63451200D01*
X137420812Y-63386718D01*
X137384502Y-63267020D01*
X137325537Y-63156706D01*
X137246185Y-63060015D01*
X137149494Y-62980663D01*
X137039180Y-62921698D01*
X136977871Y-62903100D01*
X137039180Y-62884502D01*
X137149494Y-62825537D01*
X137246185Y-62746185D01*
X137325537Y-62649494D01*
X137384502Y-62539180D01*
X137402454Y-62480000D01*
X140313862Y-62480000D01*
X142030723Y-64196862D01*
X142030723Y-64196862D01*
G37*
X142030723Y-64196862D02*
X142017750Y-64197000D01*
X141859000Y-64355750D01*
X141859000Y-65405000D01*
X141879000Y-65405000D01*
X141879000Y-65659000D01*
X141859000Y-65659000D01*
X141859000Y-66708250D01*
X142017750Y-66867000D01*
X142200481Y-66868941D01*
X141827494Y-67241928D01*
X141415999Y-67241928D01*
X141242745Y-67258992D01*
X141076149Y-67309528D01*
X140922613Y-67391595D01*
X140788038Y-67502038D01*
X140716000Y-67589816D01*
X140643962Y-67502038D01*
X140509387Y-67391595D01*
X140451000Y-67360386D01*
X140451000Y-66746803D01*
X140500387Y-66720405D01*
X140634962Y-66609962D01*
X140640342Y-66603406D01*
X140705815Y-66683185D01*
X140802506Y-66762537D01*
X140912820Y-66821502D01*
X141032518Y-66857812D01*
X141157000Y-66870072D01*
X141446250Y-66867000D01*
X141605000Y-66708250D01*
X141605000Y-65659000D01*
X141585000Y-65659000D01*
X141585000Y-65405000D01*
X141605000Y-65405000D01*
X141605000Y-64355750D01*
X141446250Y-64197000D01*
X141157000Y-64193928D01*
X141032518Y-64206188D01*
X140912820Y-64242498D01*
X140802506Y-64301463D01*
X140705815Y-64380815D01*
X140640342Y-64460594D01*
X140634962Y-64454038D01*
X140500387Y-64343595D01*
X140346851Y-64261528D01*
X140180255Y-64210992D01*
X140007001Y-64193928D01*
X139418729Y-64193928D01*
X138925004Y-63700203D01*
X138901201Y-63671199D01*
X138785476Y-63576226D01*
X138653447Y-63505654D01*
X138510186Y-63462197D01*
X138398533Y-63451200D01*
X138398522Y-63451200D01*
X138361200Y-63447524D01*
X138323878Y-63451200D01*
X137427163Y-63451200D01*
X137420812Y-63386718D01*
X137384502Y-63267020D01*
X137325537Y-63156706D01*
X137246185Y-63060015D01*
X137149494Y-62980663D01*
X137039180Y-62921698D01*
X136977871Y-62903100D01*
X137039180Y-62884502D01*
X137149494Y-62825537D01*
X137246185Y-62746185D01*
X137325537Y-62649494D01*
X137384502Y-62539180D01*
X137402454Y-62480000D01*
X140313862Y-62480000D01*
X142030723Y-64196862D01*
G36*
X130957543Y-61059255D02*
G01*
X130891595Y-61139613D01*
X130809528Y-61293149D01*
X130758992Y-61459745D01*
X130741928Y-61632999D01*
X130741928Y-62283001D01*
X130758992Y-62456255D01*
X130809528Y-62622851D01*
X130891595Y-62776387D01*
X131002038Y-62910962D01*
X131008594Y-62916342D01*
X130928815Y-62981815D01*
X130849463Y-63078506D01*
X130790498Y-63188820D01*
X130754188Y-63308518D01*
X130741928Y-63433000D01*
X130745000Y-63722250D01*
X130903750Y-63881000D01*
X131953000Y-63881000D01*
X131953000Y-63861000D01*
X132207000Y-63861000D01*
X132207000Y-63881000D01*
X133256250Y-63881000D01*
X133415000Y-63722250D01*
X133418072Y-63433000D01*
X133405812Y-63308518D01*
X133369502Y-63188820D01*
X133310537Y-63078506D01*
X133231185Y-62981815D01*
X133151406Y-62916342D01*
X133157962Y-62910962D01*
X133268405Y-62776387D01*
X133350472Y-62622851D01*
X133401008Y-62456255D01*
X133418072Y-62283001D01*
X133418072Y-61632999D01*
X133401008Y-61459745D01*
X133350472Y-61293149D01*
X133268405Y-61139613D01*
X133157962Y-61005038D01*
X133023387Y-60894595D01*
X132869851Y-60812528D01*
X132857457Y-60808768D01*
X132831963Y-60724726D01*
X132756749Y-60584011D01*
X132750537Y-60576442D01*
X132655528Y-60460672D01*
X132624618Y-60435305D01*
X132435313Y-60246000D01*
X134660488Y-60246000D01*
X134671416Y-60256928D01*
X134345000Y-60256928D01*
X134220518Y-60269188D01*
X134100820Y-60305498D01*
X133990506Y-60364463D01*
X133893815Y-60443815D01*
X133814463Y-60540506D01*
X133755498Y-60650820D01*
X133719188Y-60770518D01*
X133706928Y-60895000D01*
X133706928Y-62295000D01*
X133719188Y-62419482D01*
X133755498Y-62539180D01*
X133814463Y-62649494D01*
X133893815Y-62746185D01*
X133990506Y-62825537D01*
X134100820Y-62884502D01*
X134162129Y-62903100D01*
X134100820Y-62921698D01*
X133990506Y-62980663D01*
X133893815Y-63060015D01*
X133814463Y-63156706D01*
X133755498Y-63267020D01*
X133719188Y-63386718D01*
X133706928Y-63511200D01*
X133706928Y-64911200D01*
X133719188Y-65035682D01*
X133755498Y-65155380D01*
X133814463Y-65265694D01*
X133842001Y-65299249D01*
X133842000Y-66852386D01*
X133783613Y-66883595D01*
X133649038Y-66994038D01*
X133538595Y-67128613D01*
X133456528Y-67282149D01*
X133447473Y-67312000D01*
X132236527Y-67312000D01*
X132227472Y-67282149D01*
X132145405Y-67128613D01*
X132034962Y-66994038D01*
X131900387Y-66883595D01*
X131746851Y-66801528D01*
X131580255Y-66750992D01*
X131407001Y-66733928D01*
X130756999Y-66733928D01*
X130583745Y-66750992D01*
X130417149Y-66801528D01*
X130263613Y-66883595D01*
X130129038Y-66994038D01*
X130057000Y-67081816D01*
X129984962Y-66994038D01*
X129850387Y-66883595D01*
X129792000Y-66852386D01*
X129792000Y-65688527D01*
X129821851Y-65679472D01*
X129975387Y-65597405D01*
X130109962Y-65486962D01*
X130220405Y-65352387D01*
X130302472Y-65198851D01*
X130353008Y-65032255D01*
X130370072Y-64859001D01*
X130370072Y-64583000D01*
X130741928Y-64583000D01*
X130754188Y-64707482D01*
X130790498Y-64827180D01*
X130849463Y-64937494D01*
X130928815Y-65034185D01*
X131025506Y-65113537D01*
X131135820Y-65172502D01*
X131255518Y-65208812D01*
X131380000Y-65221072D01*
X131794250Y-65218000D01*
X131953000Y-65059250D01*
X131953000Y-64135000D01*
X132207000Y-64135000D01*
X132207000Y-65059250D01*
X132365750Y-65218000D01*
X132780000Y-65221072D01*
X132904482Y-65208812D01*
X133024180Y-65172502D01*
X133134494Y-65113537D01*
X133231185Y-65034185D01*
X133310537Y-64937494D01*
X133369502Y-64827180D01*
X133405812Y-64707482D01*
X133418072Y-64583000D01*
X133415000Y-64293750D01*
X133256250Y-64135000D01*
X132207000Y-64135000D01*
X131953000Y-64135000D01*
X130903750Y-64135000D01*
X130745000Y-64293750D01*
X130741928Y-64583000D01*
X130370072Y-64583000D01*
X130370072Y-64208999D01*
X130353008Y-64035745D01*
X130302472Y-63869149D01*
X130220405Y-63715613D01*
X130109962Y-63581038D01*
X130022184Y-63509000D01*
X130109962Y-63436962D01*
X130220405Y-63302387D01*
X130302472Y-63148851D01*
X130353008Y-62982255D01*
X130370072Y-62809001D01*
X130370072Y-62158999D01*
X130353008Y-61985745D01*
X130302472Y-61819149D01*
X130220405Y-61665613D01*
X130109962Y-61531038D01*
X129975387Y-61420595D01*
X129821851Y-61338528D01*
X129655255Y-61287992D01*
X129482001Y-61270928D01*
X128581999Y-61270928D01*
X128408745Y-61287992D01*
X128242149Y-61338528D01*
X128088613Y-61420595D01*
X127954038Y-61531038D01*
X127843595Y-61665613D01*
X127812386Y-61724000D01*
X126695614Y-61724000D01*
X126664405Y-61665613D01*
X126553962Y-61531038D01*
X126419387Y-61420595D01*
X126265851Y-61338528D01*
X126099255Y-61287992D01*
X125926001Y-61270928D01*
X125802584Y-61270928D01*
X126827513Y-60246000D01*
X130144288Y-60246000D01*
X130957543Y-61059255D01*
X130957543Y-61059255D01*
G37*
X130957543Y-61059255D02*
X130891595Y-61139613D01*
X130809528Y-61293149D01*
X130758992Y-61459745D01*
X130741928Y-61632999D01*
X130741928Y-62283001D01*
X130758992Y-62456255D01*
X130809528Y-62622851D01*
X130891595Y-62776387D01*
X131002038Y-62910962D01*
X131008594Y-62916342D01*
X130928815Y-62981815D01*
X130849463Y-63078506D01*
X130790498Y-63188820D01*
X130754188Y-63308518D01*
X130741928Y-63433000D01*
X130745000Y-63722250D01*
X130903750Y-63881000D01*
X131953000Y-63881000D01*
X131953000Y-63861000D01*
X132207000Y-63861000D01*
X132207000Y-63881000D01*
X133256250Y-63881000D01*
X133415000Y-63722250D01*
X133418072Y-63433000D01*
X133405812Y-63308518D01*
X133369502Y-63188820D01*
X133310537Y-63078506D01*
X133231185Y-62981815D01*
X133151406Y-62916342D01*
X133157962Y-62910962D01*
X133268405Y-62776387D01*
X133350472Y-62622851D01*
X133401008Y-62456255D01*
X133418072Y-62283001D01*
X133418072Y-61632999D01*
X133401008Y-61459745D01*
X133350472Y-61293149D01*
X133268405Y-61139613D01*
X133157962Y-61005038D01*
X133023387Y-60894595D01*
X132869851Y-60812528D01*
X132857457Y-60808768D01*
X132831963Y-60724726D01*
X132756749Y-60584011D01*
X132750537Y-60576442D01*
X132655528Y-60460672D01*
X132624618Y-60435305D01*
X132435313Y-60246000D01*
X134660488Y-60246000D01*
X134671416Y-60256928D01*
X134345000Y-60256928D01*
X134220518Y-60269188D01*
X134100820Y-60305498D01*
X133990506Y-60364463D01*
X133893815Y-60443815D01*
X133814463Y-60540506D01*
X133755498Y-60650820D01*
X133719188Y-60770518D01*
X133706928Y-60895000D01*
X133706928Y-62295000D01*
X133719188Y-62419482D01*
X133755498Y-62539180D01*
X133814463Y-62649494D01*
X133893815Y-62746185D01*
X133990506Y-62825537D01*
X134100820Y-62884502D01*
X134162129Y-62903100D01*
X134100820Y-62921698D01*
X133990506Y-62980663D01*
X133893815Y-63060015D01*
X133814463Y-63156706D01*
X133755498Y-63267020D01*
X133719188Y-63386718D01*
X133706928Y-63511200D01*
X133706928Y-64911200D01*
X133719188Y-65035682D01*
X133755498Y-65155380D01*
X133814463Y-65265694D01*
X133842001Y-65299249D01*
X133842000Y-66852386D01*
X133783613Y-66883595D01*
X133649038Y-66994038D01*
X133538595Y-67128613D01*
X133456528Y-67282149D01*
X133447473Y-67312000D01*
X132236527Y-67312000D01*
X132227472Y-67282149D01*
X132145405Y-67128613D01*
X132034962Y-66994038D01*
X131900387Y-66883595D01*
X131746851Y-66801528D01*
X131580255Y-66750992D01*
X131407001Y-66733928D01*
X130756999Y-66733928D01*
X130583745Y-66750992D01*
X130417149Y-66801528D01*
X130263613Y-66883595D01*
X130129038Y-66994038D01*
X130057000Y-67081816D01*
X129984962Y-66994038D01*
X129850387Y-66883595D01*
X129792000Y-66852386D01*
X129792000Y-65688527D01*
X129821851Y-65679472D01*
X129975387Y-65597405D01*
X130109962Y-65486962D01*
X130220405Y-65352387D01*
X130302472Y-65198851D01*
X130353008Y-65032255D01*
X130370072Y-64859001D01*
X130370072Y-64583000D01*
X130741928Y-64583000D01*
X130754188Y-64707482D01*
X130790498Y-64827180D01*
X130849463Y-64937494D01*
X130928815Y-65034185D01*
X131025506Y-65113537D01*
X131135820Y-65172502D01*
X131255518Y-65208812D01*
X131380000Y-65221072D01*
X131794250Y-65218000D01*
X131953000Y-65059250D01*
X131953000Y-64135000D01*
X132207000Y-64135000D01*
X132207000Y-65059250D01*
X132365750Y-65218000D01*
X132780000Y-65221072D01*
X132904482Y-65208812D01*
X133024180Y-65172502D01*
X133134494Y-65113537D01*
X133231185Y-65034185D01*
X133310537Y-64937494D01*
X133369502Y-64827180D01*
X133405812Y-64707482D01*
X133418072Y-64583000D01*
X133415000Y-64293750D01*
X133256250Y-64135000D01*
X132207000Y-64135000D01*
X131953000Y-64135000D01*
X130903750Y-64135000D01*
X130745000Y-64293750D01*
X130741928Y-64583000D01*
X130370072Y-64583000D01*
X130370072Y-64208999D01*
X130353008Y-64035745D01*
X130302472Y-63869149D01*
X130220405Y-63715613D01*
X130109962Y-63581038D01*
X130022184Y-63509000D01*
X130109962Y-63436962D01*
X130220405Y-63302387D01*
X130302472Y-63148851D01*
X130353008Y-62982255D01*
X130370072Y-62809001D01*
X130370072Y-62158999D01*
X130353008Y-61985745D01*
X130302472Y-61819149D01*
X130220405Y-61665613D01*
X130109962Y-61531038D01*
X129975387Y-61420595D01*
X129821851Y-61338528D01*
X129655255Y-61287992D01*
X129482001Y-61270928D01*
X128581999Y-61270928D01*
X128408745Y-61287992D01*
X128242149Y-61338528D01*
X128088613Y-61420595D01*
X127954038Y-61531038D01*
X127843595Y-61665613D01*
X127812386Y-61724000D01*
X126695614Y-61724000D01*
X126664405Y-61665613D01*
X126553962Y-61531038D01*
X126419387Y-61420595D01*
X126265851Y-61338528D01*
X126099255Y-61287992D01*
X125926001Y-61270928D01*
X125802584Y-61270928D01*
X126827513Y-60246000D01*
X130144288Y-60246000D01*
X130957543Y-61059255D01*
G36*
X124205528Y-63148851D02*
G01*
X124287595Y-63302387D01*
X124398038Y-63436962D01*
X124485816Y-63509000D01*
X124398038Y-63581038D01*
X124287595Y-63715613D01*
X124205528Y-63869149D01*
X124154992Y-64035745D01*
X124147324Y-64113600D01*
X122370654Y-64113600D01*
X122352702Y-64054420D01*
X122293737Y-63944106D01*
X122214385Y-63847415D01*
X122117694Y-63768063D01*
X122007380Y-63709098D01*
X121946071Y-63690500D01*
X122007380Y-63671902D01*
X122117694Y-63612937D01*
X122214385Y-63533585D01*
X122293737Y-63436894D01*
X122352702Y-63326580D01*
X122389012Y-63206882D01*
X122395363Y-63142400D01*
X124203571Y-63142400D01*
X124205528Y-63148851D01*
X124205528Y-63148851D01*
G37*
X124205528Y-63148851D02*
X124287595Y-63302387D01*
X124398038Y-63436962D01*
X124485816Y-63509000D01*
X124398038Y-63581038D01*
X124287595Y-63715613D01*
X124205528Y-63869149D01*
X124154992Y-64035745D01*
X124147324Y-64113600D01*
X122370654Y-64113600D01*
X122352702Y-64054420D01*
X122293737Y-63944106D01*
X122214385Y-63847415D01*
X122117694Y-63768063D01*
X122007380Y-63709098D01*
X121946071Y-63690500D01*
X122007380Y-63671902D01*
X122117694Y-63612937D01*
X122214385Y-63533585D01*
X122293737Y-63436894D01*
X122352702Y-63326580D01*
X122389012Y-63206882D01*
X122395363Y-63142400D01*
X124203571Y-63142400D01*
X124205528Y-63148851D01*
M02*
