G04 #@! TF.GenerationSoftware,KiCad,Pcbnew,(5.1.5)-3*
G04 #@! TF.CreationDate,2020-08-17T10:15:17+02:00*
G04 #@! TF.ProjectId,Power_module_v1,506f7765-725f-46d6-9f64-756c655f7631,rev?*
G04 #@! TF.SameCoordinates,Original*
G04 #@! TF.FileFunction,Legend,Top*
G04 #@! TF.FilePolarity,Positive*
%FSLAX46Y46*%
G04 Gerber Fmt 4.6, Leading zero omitted, Abs format (unit mm)*
G04 Created by KiCad (PCBNEW (5.1.5)-3) date 2020-08-17 10:15:17*
%MOMM*%
%LPD*%
G04 APERTURE LIST*
%ADD10C,0.150000*%
%ADD11C,0.125000*%
%ADD12C,0.120000*%
G04 APERTURE END LIST*
D10*
X127723095Y-106878380D02*
X127723095Y-105878380D01*
X128104047Y-105878380D01*
X128199285Y-105926000D01*
X128246904Y-105973619D01*
X128294523Y-106068857D01*
X128294523Y-106211714D01*
X128246904Y-106306952D01*
X128199285Y-106354571D01*
X128104047Y-106402190D01*
X127723095Y-106402190D01*
X128865952Y-106878380D02*
X128770714Y-106830761D01*
X128723095Y-106783142D01*
X128675476Y-106687904D01*
X128675476Y-106402190D01*
X128723095Y-106306952D01*
X128770714Y-106259333D01*
X128865952Y-106211714D01*
X129008809Y-106211714D01*
X129104047Y-106259333D01*
X129151666Y-106306952D01*
X129199285Y-106402190D01*
X129199285Y-106687904D01*
X129151666Y-106783142D01*
X129104047Y-106830761D01*
X129008809Y-106878380D01*
X128865952Y-106878380D01*
X129532619Y-106211714D02*
X129723095Y-106878380D01*
X129913571Y-106402190D01*
X130104047Y-106878380D01*
X130294523Y-106211714D01*
X131056428Y-106830761D02*
X130961190Y-106878380D01*
X130770714Y-106878380D01*
X130675476Y-106830761D01*
X130627857Y-106735523D01*
X130627857Y-106354571D01*
X130675476Y-106259333D01*
X130770714Y-106211714D01*
X130961190Y-106211714D01*
X131056428Y-106259333D01*
X131104047Y-106354571D01*
X131104047Y-106449809D01*
X130627857Y-106545047D01*
X131532619Y-106878380D02*
X131532619Y-106211714D01*
X131532619Y-106402190D02*
X131580238Y-106306952D01*
X131627857Y-106259333D01*
X131723095Y-106211714D01*
X131818333Y-106211714D01*
X132913571Y-106878380D02*
X132913571Y-105878380D01*
X133246904Y-106592666D01*
X133580238Y-105878380D01*
X133580238Y-106878380D01*
X134199285Y-106878380D02*
X134104047Y-106830761D01*
X134056428Y-106783142D01*
X134008809Y-106687904D01*
X134008809Y-106402190D01*
X134056428Y-106306952D01*
X134104047Y-106259333D01*
X134199285Y-106211714D01*
X134342142Y-106211714D01*
X134437380Y-106259333D01*
X134485000Y-106306952D01*
X134532619Y-106402190D01*
X134532619Y-106687904D01*
X134485000Y-106783142D01*
X134437380Y-106830761D01*
X134342142Y-106878380D01*
X134199285Y-106878380D01*
X135389761Y-106878380D02*
X135389761Y-105878380D01*
X135389761Y-106830761D02*
X135294523Y-106878380D01*
X135104047Y-106878380D01*
X135008809Y-106830761D01*
X134961190Y-106783142D01*
X134913571Y-106687904D01*
X134913571Y-106402190D01*
X134961190Y-106306952D01*
X135008809Y-106259333D01*
X135104047Y-106211714D01*
X135294523Y-106211714D01*
X135389761Y-106259333D01*
X136294523Y-106211714D02*
X136294523Y-106878380D01*
X135865952Y-106211714D02*
X135865952Y-106735523D01*
X135913571Y-106830761D01*
X136008809Y-106878380D01*
X136151666Y-106878380D01*
X136246904Y-106830761D01*
X136294523Y-106783142D01*
X136913571Y-106878380D02*
X136818333Y-106830761D01*
X136770714Y-106735523D01*
X136770714Y-105878380D01*
X137675476Y-106830761D02*
X137580238Y-106878380D01*
X137389761Y-106878380D01*
X137294523Y-106830761D01*
X137246904Y-106735523D01*
X137246904Y-106354571D01*
X137294523Y-106259333D01*
X137389761Y-106211714D01*
X137580238Y-106211714D01*
X137675476Y-106259333D01*
X137723095Y-106354571D01*
X137723095Y-106449809D01*
X137246904Y-106545047D01*
X138770714Y-105878380D02*
X139104047Y-106878380D01*
X139437380Y-105878380D01*
X140294523Y-106878380D02*
X139723095Y-106878380D01*
X140008809Y-106878380D02*
X140008809Y-105878380D01*
X139913571Y-106021238D01*
X139818333Y-106116476D01*
X139723095Y-106164095D01*
D11*
X146431047Y-83062000D02*
X146383428Y-83038190D01*
X146312000Y-83038190D01*
X146240571Y-83062000D01*
X146192952Y-83109619D01*
X146169142Y-83157238D01*
X146145333Y-83252476D01*
X146145333Y-83323904D01*
X146169142Y-83419142D01*
X146192952Y-83466761D01*
X146240571Y-83514380D01*
X146312000Y-83538190D01*
X146359619Y-83538190D01*
X146431047Y-83514380D01*
X146454857Y-83490571D01*
X146454857Y-83323904D01*
X146359619Y-83323904D01*
X146669142Y-83538190D02*
X146669142Y-83038190D01*
X146954857Y-83538190D01*
X146954857Y-83038190D01*
X147192952Y-83538190D02*
X147192952Y-83038190D01*
X147312000Y-83038190D01*
X147383428Y-83062000D01*
X147431047Y-83109619D01*
X147454857Y-83157238D01*
X147478666Y-83252476D01*
X147478666Y-83323904D01*
X147454857Y-83419142D01*
X147431047Y-83466761D01*
X147383428Y-83514380D01*
X147312000Y-83538190D01*
X147192952Y-83538190D01*
X144172666Y-83617619D02*
X144101238Y-83593809D01*
X143982190Y-83593809D01*
X143934571Y-83617619D01*
X143910761Y-83641428D01*
X143886952Y-83689047D01*
X143886952Y-83736666D01*
X143910761Y-83784285D01*
X143934571Y-83808095D01*
X143982190Y-83831904D01*
X144077428Y-83855714D01*
X144125047Y-83879523D01*
X144148857Y-83903333D01*
X144172666Y-83950952D01*
X144172666Y-83998571D01*
X144148857Y-84046190D01*
X144125047Y-84070000D01*
X144077428Y-84093809D01*
X143958380Y-84093809D01*
X143886952Y-84070000D01*
X143577428Y-84093809D02*
X143482190Y-84093809D01*
X143434571Y-84070000D01*
X143386952Y-84022380D01*
X143363142Y-83927142D01*
X143363142Y-83760476D01*
X143386952Y-83665238D01*
X143434571Y-83617619D01*
X143482190Y-83593809D01*
X143577428Y-83593809D01*
X143625047Y-83617619D01*
X143672666Y-83665238D01*
X143696476Y-83760476D01*
X143696476Y-83927142D01*
X143672666Y-84022380D01*
X143625047Y-84070000D01*
X143577428Y-84093809D01*
X142910761Y-83593809D02*
X143148857Y-83593809D01*
X143148857Y-84093809D01*
X142744095Y-83784285D02*
X142363142Y-83784285D01*
X142553619Y-83593809D02*
X142553619Y-83974761D01*
X123444047Y-82300000D02*
X123396428Y-82276190D01*
X123325000Y-82276190D01*
X123253571Y-82300000D01*
X123205952Y-82347619D01*
X123182142Y-82395238D01*
X123158333Y-82490476D01*
X123158333Y-82561904D01*
X123182142Y-82657142D01*
X123205952Y-82704761D01*
X123253571Y-82752380D01*
X123325000Y-82776190D01*
X123372619Y-82776190D01*
X123444047Y-82752380D01*
X123467857Y-82728571D01*
X123467857Y-82561904D01*
X123372619Y-82561904D01*
X123682142Y-82776190D02*
X123682142Y-82276190D01*
X123967857Y-82776190D01*
X123967857Y-82276190D01*
X124205952Y-82776190D02*
X124205952Y-82276190D01*
X124325000Y-82276190D01*
X124396428Y-82300000D01*
X124444047Y-82347619D01*
X124467857Y-82395238D01*
X124491666Y-82490476D01*
X124491666Y-82561904D01*
X124467857Y-82657142D01*
X124444047Y-82704761D01*
X124396428Y-82752380D01*
X124325000Y-82776190D01*
X124205952Y-82776190D01*
X120098428Y-82514285D02*
X120169857Y-82538095D01*
X120193666Y-82561904D01*
X120217476Y-82609523D01*
X120217476Y-82680952D01*
X120193666Y-82728571D01*
X120169857Y-82752380D01*
X120122238Y-82776190D01*
X119931761Y-82776190D01*
X119931761Y-82276190D01*
X120098428Y-82276190D01*
X120146047Y-82300000D01*
X120169857Y-82323809D01*
X120193666Y-82371428D01*
X120193666Y-82419047D01*
X120169857Y-82466666D01*
X120146047Y-82490476D01*
X120098428Y-82514285D01*
X119931761Y-82514285D01*
X120407952Y-82633333D02*
X120646047Y-82633333D01*
X120360333Y-82776190D02*
X120527000Y-82276190D01*
X120693666Y-82776190D01*
X120788904Y-82276190D02*
X121074619Y-82276190D01*
X120931761Y-82776190D02*
X120931761Y-82276190D01*
X121241285Y-82585714D02*
X121622238Y-82585714D01*
X121431761Y-82776190D02*
X121431761Y-82395238D01*
D12*
X93472000Y-84709000D02*
X93472000Y-83947000D01*
X94107000Y-84328000D02*
X93472000Y-84709000D01*
X93472000Y-83947000D02*
X94107000Y-84328000D01*
D11*
X124702142Y-98905190D02*
X124702142Y-98405190D01*
X124987857Y-98905190D01*
X124987857Y-98405190D01*
X125511666Y-98857571D02*
X125487857Y-98881380D01*
X125416428Y-98905190D01*
X125368809Y-98905190D01*
X125297380Y-98881380D01*
X125249761Y-98833761D01*
X125225952Y-98786142D01*
X125202142Y-98690904D01*
X125202142Y-98619476D01*
X125225952Y-98524238D01*
X125249761Y-98476619D01*
X125297380Y-98429000D01*
X125368809Y-98405190D01*
X125416428Y-98405190D01*
X125487857Y-98429000D01*
X125511666Y-98452809D01*
X122174047Y-98429000D02*
X122126428Y-98405190D01*
X122055000Y-98405190D01*
X121983571Y-98429000D01*
X121935952Y-98476619D01*
X121912142Y-98524238D01*
X121888333Y-98619476D01*
X121888333Y-98690904D01*
X121912142Y-98786142D01*
X121935952Y-98833761D01*
X121983571Y-98881380D01*
X122055000Y-98905190D01*
X122102619Y-98905190D01*
X122174047Y-98881380D01*
X122197857Y-98857571D01*
X122197857Y-98690904D01*
X122102619Y-98690904D01*
X122412142Y-98905190D02*
X122412142Y-98405190D01*
X122697857Y-98905190D01*
X122697857Y-98405190D01*
X122935952Y-98905190D02*
X122935952Y-98405190D01*
X123055000Y-98405190D01*
X123126428Y-98429000D01*
X123174047Y-98476619D01*
X123197857Y-98524238D01*
X123221666Y-98619476D01*
X123221666Y-98690904D01*
X123197857Y-98786142D01*
X123174047Y-98833761D01*
X123126428Y-98881380D01*
X123055000Y-98905190D01*
X122935952Y-98905190D01*
X119562619Y-98905190D02*
X119562619Y-98405190D01*
X119800714Y-98905190D02*
X119800714Y-98405190D01*
X120086428Y-98905190D01*
X120086428Y-98405190D01*
X120253095Y-98405190D02*
X120538809Y-98405190D01*
X120395952Y-98905190D02*
X120395952Y-98405190D01*
D10*
X230084761Y-75347580D02*
X229608571Y-75347580D01*
X229560952Y-75823771D01*
X229608571Y-75776152D01*
X229703809Y-75728533D01*
X229941904Y-75728533D01*
X230037142Y-75776152D01*
X230084761Y-75823771D01*
X230132380Y-75919009D01*
X230132380Y-76157104D01*
X230084761Y-76252342D01*
X230037142Y-76299961D01*
X229941904Y-76347580D01*
X229703809Y-76347580D01*
X229608571Y-76299961D01*
X229560952Y-76252342D01*
X230465714Y-75347580D02*
X231084761Y-75347580D01*
X230751428Y-75728533D01*
X230894285Y-75728533D01*
X230989523Y-75776152D01*
X231037142Y-75823771D01*
X231084761Y-75919009D01*
X231084761Y-76157104D01*
X231037142Y-76252342D01*
X230989523Y-76299961D01*
X230894285Y-76347580D01*
X230608571Y-76347580D01*
X230513333Y-76299961D01*
X230465714Y-76252342D01*
X232180000Y-76347580D02*
X232703809Y-75680914D01*
X232180000Y-75680914D02*
X232703809Y-76347580D01*
X233751428Y-75347580D02*
X234370476Y-75347580D01*
X234037142Y-75728533D01*
X234180000Y-75728533D01*
X234275238Y-75776152D01*
X234322857Y-75823771D01*
X234370476Y-75919009D01*
X234370476Y-76157104D01*
X234322857Y-76252342D01*
X234275238Y-76299961D01*
X234180000Y-76347580D01*
X233894285Y-76347580D01*
X233799047Y-76299961D01*
X233751428Y-76252342D01*
X234989523Y-75347580D02*
X235084761Y-75347580D01*
X235180000Y-75395200D01*
X235227619Y-75442819D01*
X235275238Y-75538057D01*
X235322857Y-75728533D01*
X235322857Y-75966628D01*
X235275238Y-76157104D01*
X235227619Y-76252342D01*
X235180000Y-76299961D01*
X235084761Y-76347580D01*
X234989523Y-76347580D01*
X234894285Y-76299961D01*
X234846666Y-76252342D01*
X234799047Y-76157104D01*
X234751428Y-75966628D01*
X234751428Y-75728533D01*
X234799047Y-75538057D01*
X234846666Y-75442819D01*
X234894285Y-75395200D01*
X234989523Y-75347580D01*
X236656190Y-76347580D02*
X236560952Y-76299961D01*
X236513333Y-76252342D01*
X236465714Y-76157104D01*
X236465714Y-75871390D01*
X236513333Y-75776152D01*
X236560952Y-75728533D01*
X236656190Y-75680914D01*
X236799047Y-75680914D01*
X236894285Y-75728533D01*
X236941904Y-75776152D01*
X236989523Y-75871390D01*
X236989523Y-76157104D01*
X236941904Y-76252342D01*
X236894285Y-76299961D01*
X236799047Y-76347580D01*
X236656190Y-76347580D01*
X237418095Y-76347580D02*
X237418095Y-75347580D01*
X237513333Y-75966628D02*
X237799047Y-76347580D01*
X237799047Y-75680914D02*
X237418095Y-76061866D01*
X220242380Y-160837619D02*
X220290000Y-160790000D01*
X220385238Y-160742380D01*
X220623333Y-160742380D01*
X220718571Y-160790000D01*
X220766190Y-160837619D01*
X220813809Y-160932857D01*
X220813809Y-161028095D01*
X220766190Y-161170952D01*
X220194761Y-161742380D01*
X220813809Y-161742380D01*
X221718571Y-160742380D02*
X221242380Y-160742380D01*
X221194761Y-161218571D01*
X221242380Y-161170952D01*
X221337619Y-161123333D01*
X221575714Y-161123333D01*
X221670952Y-161170952D01*
X221718571Y-161218571D01*
X221766190Y-161313809D01*
X221766190Y-161551904D01*
X221718571Y-161647142D01*
X221670952Y-161694761D01*
X221575714Y-161742380D01*
X221337619Y-161742380D01*
X221242380Y-161694761D01*
X221194761Y-161647142D01*
X222861428Y-161742380D02*
X223385238Y-161075714D01*
X222861428Y-161075714D02*
X223385238Y-161742380D01*
X224432857Y-160742380D02*
X225051904Y-160742380D01*
X224718571Y-161123333D01*
X224861428Y-161123333D01*
X224956666Y-161170952D01*
X225004285Y-161218571D01*
X225051904Y-161313809D01*
X225051904Y-161551904D01*
X225004285Y-161647142D01*
X224956666Y-161694761D01*
X224861428Y-161742380D01*
X224575714Y-161742380D01*
X224480476Y-161694761D01*
X224432857Y-161647142D01*
X225670952Y-160742380D02*
X225766190Y-160742380D01*
X225861428Y-160790000D01*
X225909047Y-160837619D01*
X225956666Y-160932857D01*
X226004285Y-161123333D01*
X226004285Y-161361428D01*
X225956666Y-161551904D01*
X225909047Y-161647142D01*
X225861428Y-161694761D01*
X225766190Y-161742380D01*
X225670952Y-161742380D01*
X225575714Y-161694761D01*
X225528095Y-161647142D01*
X225480476Y-161551904D01*
X225432857Y-161361428D01*
X225432857Y-161123333D01*
X225480476Y-160932857D01*
X225528095Y-160837619D01*
X225575714Y-160790000D01*
X225670952Y-160742380D01*
X227337619Y-161742380D02*
X227242380Y-161694761D01*
X227194761Y-161647142D01*
X227147142Y-161551904D01*
X227147142Y-161266190D01*
X227194761Y-161170952D01*
X227242380Y-161123333D01*
X227337619Y-161075714D01*
X227480476Y-161075714D01*
X227575714Y-161123333D01*
X227623333Y-161170952D01*
X227670952Y-161266190D01*
X227670952Y-161551904D01*
X227623333Y-161647142D01*
X227575714Y-161694761D01*
X227480476Y-161742380D01*
X227337619Y-161742380D01*
X228099523Y-161742380D02*
X228099523Y-160742380D01*
X228194761Y-161361428D02*
X228480476Y-161742380D01*
X228480476Y-161075714D02*
X228099523Y-161456666D01*
X229290000Y-161694761D02*
X229194761Y-161742380D01*
X229004285Y-161742380D01*
X228909047Y-161694761D01*
X228861428Y-161599523D01*
X228861428Y-161218571D01*
X228909047Y-161123333D01*
X229004285Y-161075714D01*
X229194761Y-161075714D01*
X229290000Y-161123333D01*
X229337619Y-161218571D01*
X229337619Y-161313809D01*
X228861428Y-161409047D01*
D12*
X214636800Y-176573600D02*
X214636800Y-146573600D01*
X239636800Y-176573600D02*
X214636800Y-176573600D01*
X239636800Y-146573600D02*
X239636800Y-176573600D01*
X214636800Y-146573600D02*
X239636800Y-146573600D01*
D10*
X115594571Y-71318380D02*
X115594571Y-70318380D01*
X115832666Y-70318380D01*
X115975523Y-70366000D01*
X116070761Y-70461238D01*
X116118380Y-70556476D01*
X116166000Y-70746952D01*
X116166000Y-70889809D01*
X116118380Y-71080285D01*
X116070761Y-71175523D01*
X115975523Y-71270761D01*
X115832666Y-71318380D01*
X115594571Y-71318380D01*
X116594571Y-71318380D02*
X116594571Y-70651714D01*
X116594571Y-70318380D02*
X116546952Y-70366000D01*
X116594571Y-70413619D01*
X116642190Y-70366000D01*
X116594571Y-70318380D01*
X116594571Y-70413619D01*
X117499333Y-71318380D02*
X117499333Y-70794571D01*
X117451714Y-70699333D01*
X117356476Y-70651714D01*
X117166000Y-70651714D01*
X117070761Y-70699333D01*
X117499333Y-71270761D02*
X117404095Y-71318380D01*
X117166000Y-71318380D01*
X117070761Y-71270761D01*
X117023142Y-71175523D01*
X117023142Y-71080285D01*
X117070761Y-70985047D01*
X117166000Y-70937428D01*
X117404095Y-70937428D01*
X117499333Y-70889809D01*
X117975523Y-71318380D02*
X117975523Y-70651714D01*
X117975523Y-70746952D02*
X118023142Y-70699333D01*
X118118380Y-70651714D01*
X118261238Y-70651714D01*
X118356476Y-70699333D01*
X118404095Y-70794571D01*
X118404095Y-71318380D01*
X118404095Y-70794571D02*
X118451714Y-70699333D01*
X118546952Y-70651714D01*
X118689809Y-70651714D01*
X118785047Y-70699333D01*
X118832666Y-70794571D01*
X118832666Y-71318380D01*
X119689809Y-71270761D02*
X119594571Y-71318380D01*
X119404095Y-71318380D01*
X119308857Y-71270761D01*
X119261238Y-71175523D01*
X119261238Y-70794571D01*
X119308857Y-70699333D01*
X119404095Y-70651714D01*
X119594571Y-70651714D01*
X119689809Y-70699333D01*
X119737428Y-70794571D01*
X119737428Y-70889809D01*
X119261238Y-70985047D01*
X120023142Y-70651714D02*
X120404095Y-70651714D01*
X120166000Y-70318380D02*
X120166000Y-71175523D01*
X120213619Y-71270761D01*
X120308857Y-71318380D01*
X120404095Y-71318380D01*
X121118380Y-71270761D02*
X121023142Y-71318380D01*
X120832666Y-71318380D01*
X120737428Y-71270761D01*
X120689809Y-71175523D01*
X120689809Y-70794571D01*
X120737428Y-70699333D01*
X120832666Y-70651714D01*
X121023142Y-70651714D01*
X121118380Y-70699333D01*
X121166000Y-70794571D01*
X121166000Y-70889809D01*
X120689809Y-70985047D01*
X121594571Y-71318380D02*
X121594571Y-70651714D01*
X121594571Y-70842190D02*
X121642190Y-70746952D01*
X121689809Y-70699333D01*
X121785047Y-70651714D01*
X121880285Y-70651714D01*
X123404095Y-70651714D02*
X123404095Y-71318380D01*
X123166000Y-70270761D02*
X122927904Y-70985047D01*
X123546952Y-70985047D01*
X124404095Y-70318380D02*
X123927904Y-70318380D01*
X123880285Y-70794571D01*
X123927904Y-70746952D01*
X124023142Y-70699333D01*
X124261238Y-70699333D01*
X124356476Y-70746952D01*
X124404095Y-70794571D01*
X124451714Y-70889809D01*
X124451714Y-71127904D01*
X124404095Y-71223142D01*
X124356476Y-71270761D01*
X124261238Y-71318380D01*
X124023142Y-71318380D01*
X123927904Y-71270761D01*
X123880285Y-71223142D01*
X125785047Y-71318380D02*
X125689809Y-71270761D01*
X125642190Y-71223142D01*
X125594571Y-71127904D01*
X125594571Y-70842190D01*
X125642190Y-70746952D01*
X125689809Y-70699333D01*
X125785047Y-70651714D01*
X125927904Y-70651714D01*
X126023142Y-70699333D01*
X126070761Y-70746952D01*
X126118380Y-70842190D01*
X126118380Y-71127904D01*
X126070761Y-71223142D01*
X126023142Y-71270761D01*
X125927904Y-71318380D01*
X125785047Y-71318380D01*
X126546952Y-71318380D02*
X126546952Y-70318380D01*
X126642190Y-70937428D02*
X126927904Y-71318380D01*
X126927904Y-70651714D02*
X126546952Y-71032666D01*
X127737428Y-71270761D02*
X127642190Y-71318380D01*
X127451714Y-71318380D01*
X127356476Y-71270761D01*
X127308857Y-71175523D01*
X127308857Y-70794571D01*
X127356476Y-70699333D01*
X127451714Y-70651714D01*
X127642190Y-70651714D01*
X127737428Y-70699333D01*
X127785047Y-70794571D01*
X127785047Y-70889809D01*
X127308857Y-70985047D01*
X266152761Y-135088380D02*
X265676571Y-135088380D01*
X265628952Y-135564571D01*
X265676571Y-135516952D01*
X265771809Y-135469333D01*
X266009904Y-135469333D01*
X266105142Y-135516952D01*
X266152761Y-135564571D01*
X266200380Y-135659809D01*
X266200380Y-135897904D01*
X266152761Y-135993142D01*
X266105142Y-136040761D01*
X266009904Y-136088380D01*
X265771809Y-136088380D01*
X265676571Y-136040761D01*
X265628952Y-135993142D01*
X267057523Y-135421714D02*
X267057523Y-136088380D01*
X266819428Y-135040761D02*
X266581333Y-135755047D01*
X267200380Y-135755047D01*
X268248000Y-136088380D02*
X268771809Y-135421714D01*
X268248000Y-135421714D02*
X268771809Y-136088380D01*
X270438476Y-136088380D02*
X269867047Y-136088380D01*
X270152761Y-136088380D02*
X270152761Y-135088380D01*
X270057523Y-135231238D01*
X269962285Y-135326476D01*
X269867047Y-135374095D01*
X271009904Y-135516952D02*
X270914666Y-135469333D01*
X270867047Y-135421714D01*
X270819428Y-135326476D01*
X270819428Y-135278857D01*
X270867047Y-135183619D01*
X270914666Y-135136000D01*
X271009904Y-135088380D01*
X271200380Y-135088380D01*
X271295619Y-135136000D01*
X271343238Y-135183619D01*
X271390857Y-135278857D01*
X271390857Y-135326476D01*
X271343238Y-135421714D01*
X271295619Y-135469333D01*
X271200380Y-135516952D01*
X271009904Y-135516952D01*
X270914666Y-135564571D01*
X270867047Y-135612190D01*
X270819428Y-135707428D01*
X270819428Y-135897904D01*
X270867047Y-135993142D01*
X270914666Y-136040761D01*
X271009904Y-136088380D01*
X271200380Y-136088380D01*
X271295619Y-136040761D01*
X271343238Y-135993142D01*
X271390857Y-135897904D01*
X271390857Y-135707428D01*
X271343238Y-135612190D01*
X271295619Y-135564571D01*
X271200380Y-135516952D01*
X272724190Y-136088380D02*
X272628952Y-136040761D01*
X272581333Y-135993142D01*
X272533714Y-135897904D01*
X272533714Y-135612190D01*
X272581333Y-135516952D01*
X272628952Y-135469333D01*
X272724190Y-135421714D01*
X272867047Y-135421714D01*
X272962285Y-135469333D01*
X273009904Y-135516952D01*
X273057523Y-135612190D01*
X273057523Y-135897904D01*
X273009904Y-135993142D01*
X272962285Y-136040761D01*
X272867047Y-136088380D01*
X272724190Y-136088380D01*
X273486095Y-136088380D02*
X273486095Y-135088380D01*
X273581333Y-135707428D02*
X273867047Y-136088380D01*
X273867047Y-135421714D02*
X273486095Y-135802666D01*
D12*
X299976000Y-126120000D02*
X299976000Y-144120000D01*
X245976000Y-126120000D02*
X299976000Y-126120000D01*
X245976000Y-144120000D02*
X245976000Y-126120000D01*
X299976000Y-144120000D02*
X245976000Y-144120000D01*
X212598000Y-80010000D02*
G75*
G03X212598000Y-80010000I-22500000J0D01*
G01*
X250921400Y-107367600D02*
X250921400Y-54367600D01*
X220921400Y-107367600D02*
X250921400Y-107367600D01*
X220921400Y-54367600D02*
X220921400Y-107367600D01*
X250921400Y-54367600D02*
X220921400Y-54367600D01*
X113467000Y-99085000D02*
X113467000Y-101945000D01*
X113467000Y-101945000D02*
X115387000Y-101945000D01*
X115387000Y-101945000D02*
X115387000Y-99085000D01*
X115626000Y-99076000D02*
X115626000Y-101936000D01*
X115626000Y-101936000D02*
X117546000Y-101936000D01*
X117546000Y-101936000D02*
X117546000Y-99076000D01*
X133660000Y-102289000D02*
X133660000Y-105149000D01*
X135580000Y-102289000D02*
X133660000Y-102289000D01*
X135580000Y-105149000D02*
X135580000Y-102289000D01*
X135819000Y-102289000D02*
X135819000Y-105149000D01*
X137739000Y-102289000D02*
X135819000Y-102289000D01*
X137739000Y-105149000D02*
X137739000Y-102289000D01*
X124774000Y-82356000D02*
X124774000Y-79696000D01*
X122174000Y-82356000D02*
X124774000Y-82356000D01*
X122174000Y-79696000D02*
X124774000Y-79696000D01*
X122174000Y-82356000D02*
X122174000Y-79696000D01*
X120904000Y-82356000D02*
X119574000Y-82356000D01*
X119574000Y-82356000D02*
X119574000Y-81026000D01*
X109488900Y-102046740D02*
X110288900Y-102046740D01*
X107038900Y-105296740D02*
X107338900Y-105296740D01*
X109888900Y-102496740D02*
X109488900Y-102046740D01*
X110288900Y-102046740D02*
X109888900Y-102496740D01*
X115038900Y-108096740D02*
X115038900Y-105296740D01*
X107338900Y-108096740D02*
X107338900Y-105296740D01*
X115338900Y-105296740D02*
X115338900Y-103746740D01*
X115038900Y-105296740D02*
X115338900Y-105296740D01*
X107038900Y-105296740D02*
X107038900Y-103746740D01*
X119574000Y-86293000D02*
X119574000Y-84963000D01*
X120904000Y-86293000D02*
X119574000Y-86293000D01*
X122174000Y-86293000D02*
X122174000Y-83633000D01*
X122174000Y-83633000D02*
X124774000Y-83633000D01*
X122174000Y-86293000D02*
X124774000Y-86293000D01*
X124774000Y-86293000D02*
X124774000Y-83633000D01*
X97596000Y-70298000D02*
X94936000Y-70298000D01*
X97596000Y-83058000D02*
X97596000Y-70298000D01*
X94936000Y-83058000D02*
X94936000Y-70298000D01*
X97596000Y-83058000D02*
X94936000Y-83058000D01*
X97596000Y-84328000D02*
X97596000Y-85658000D01*
X97596000Y-85658000D02*
X96266000Y-85658000D01*
X101533000Y-85658000D02*
X100203000Y-85658000D01*
X101533000Y-84328000D02*
X101533000Y-85658000D01*
X101533000Y-83058000D02*
X98873000Y-83058000D01*
X98873000Y-83058000D02*
X98873000Y-70298000D01*
X101533000Y-83058000D02*
X101533000Y-70298000D01*
X101533000Y-70298000D02*
X98873000Y-70298000D01*
X126636780Y-99372420D02*
X118381780Y-99372420D01*
X126636780Y-99372420D02*
X126636780Y-112453420D01*
X118381780Y-99372420D02*
X118381780Y-112453420D01*
X126636780Y-104452420D02*
X118381780Y-104452420D01*
X126636780Y-112453420D02*
X118381780Y-112453420D01*
X146900000Y-75930000D02*
X146900000Y-80430000D01*
X150900000Y-74680000D02*
X149400000Y-74680000D01*
X153400000Y-80430000D02*
X153400000Y-75930000D01*
X149400000Y-81680000D02*
X150900000Y-81680000D01*
X101958000Y-87512000D02*
X98908000Y-87512000D01*
X101958000Y-91812000D02*
X98908000Y-91812000D01*
X101936234Y-91827526D02*
G75*
G03X101958000Y-87512000I-1528234J2165526D01*
G01*
X98863487Y-87543751D02*
G75*
G03X98908000Y-91812000I1544513J-2118249D01*
G01*
D11*
X114057952Y-98016190D02*
X114057952Y-97516190D01*
X114177000Y-97516190D01*
X114248428Y-97540000D01*
X114296047Y-97587619D01*
X114319857Y-97635238D01*
X114343666Y-97730476D01*
X114343666Y-97801904D01*
X114319857Y-97897142D01*
X114296047Y-97944761D01*
X114248428Y-97992380D01*
X114177000Y-98016190D01*
X114057952Y-98016190D01*
X114819857Y-98016190D02*
X114534142Y-98016190D01*
X114677000Y-98016190D02*
X114677000Y-97516190D01*
X114629380Y-97587619D01*
X114581761Y-97635238D01*
X114534142Y-97659047D01*
X116216952Y-98016190D02*
X116216952Y-97516190D01*
X116336000Y-97516190D01*
X116407428Y-97540000D01*
X116455047Y-97587619D01*
X116478857Y-97635238D01*
X116502666Y-97730476D01*
X116502666Y-97801904D01*
X116478857Y-97897142D01*
X116455047Y-97944761D01*
X116407428Y-97992380D01*
X116336000Y-98016190D01*
X116216952Y-98016190D01*
X116693142Y-97563809D02*
X116716952Y-97540000D01*
X116764571Y-97516190D01*
X116883619Y-97516190D01*
X116931238Y-97540000D01*
X116955047Y-97563809D01*
X116978857Y-97611428D01*
X116978857Y-97659047D01*
X116955047Y-97730476D01*
X116669333Y-98016190D01*
X116978857Y-98016190D01*
X134377952Y-101699190D02*
X134377952Y-101199190D01*
X134497000Y-101199190D01*
X134568428Y-101223000D01*
X134616047Y-101270619D01*
X134639857Y-101318238D01*
X134663666Y-101413476D01*
X134663666Y-101484904D01*
X134639857Y-101580142D01*
X134616047Y-101627761D01*
X134568428Y-101675380D01*
X134497000Y-101699190D01*
X134377952Y-101699190D01*
X134830333Y-101199190D02*
X135139857Y-101199190D01*
X134973190Y-101389666D01*
X135044619Y-101389666D01*
X135092238Y-101413476D01*
X135116047Y-101437285D01*
X135139857Y-101484904D01*
X135139857Y-101603952D01*
X135116047Y-101651571D01*
X135092238Y-101675380D01*
X135044619Y-101699190D01*
X134901761Y-101699190D01*
X134854142Y-101675380D01*
X134830333Y-101651571D01*
X136409952Y-101699190D02*
X136409952Y-101199190D01*
X136529000Y-101199190D01*
X136600428Y-101223000D01*
X136648047Y-101270619D01*
X136671857Y-101318238D01*
X136695666Y-101413476D01*
X136695666Y-101484904D01*
X136671857Y-101580142D01*
X136648047Y-101627761D01*
X136600428Y-101675380D01*
X136529000Y-101699190D01*
X136409952Y-101699190D01*
X137124238Y-101365857D02*
X137124238Y-101699190D01*
X137005190Y-101175380D02*
X136886142Y-101532523D01*
X137195666Y-101532523D01*
X118300190Y-81192666D02*
X118657333Y-81192666D01*
X118728761Y-81216476D01*
X118776380Y-81264095D01*
X118800190Y-81335523D01*
X118800190Y-81383142D01*
X118800190Y-80692666D02*
X118800190Y-80978380D01*
X118800190Y-80835523D02*
X118300190Y-80835523D01*
X118371619Y-80883142D01*
X118419238Y-80930761D01*
X118443047Y-80978380D01*
X106132333Y-103231190D02*
X106132333Y-103588333D01*
X106108523Y-103659761D01*
X106060904Y-103707380D01*
X105989476Y-103731190D01*
X105941857Y-103731190D01*
X106322809Y-103231190D02*
X106632333Y-103231190D01*
X106465666Y-103421666D01*
X106537095Y-103421666D01*
X106584714Y-103445476D01*
X106608523Y-103469285D01*
X106632333Y-103516904D01*
X106632333Y-103635952D01*
X106608523Y-103683571D01*
X106584714Y-103707380D01*
X106537095Y-103731190D01*
X106394238Y-103731190D01*
X106346619Y-103707380D01*
X106322809Y-103683571D01*
X118407333Y-84689190D02*
X118407333Y-85046333D01*
X118383523Y-85117761D01*
X118335904Y-85165380D01*
X118264476Y-85189190D01*
X118216857Y-85189190D01*
X118859714Y-84855857D02*
X118859714Y-85189190D01*
X118740666Y-84665380D02*
X118621619Y-85022523D01*
X118931142Y-85022523D01*
X96099333Y-86384190D02*
X96099333Y-86741333D01*
X96075523Y-86812761D01*
X96027904Y-86860380D01*
X95956476Y-86884190D01*
X95908857Y-86884190D01*
X96575523Y-86384190D02*
X96337428Y-86384190D01*
X96313619Y-86622285D01*
X96337428Y-86598476D01*
X96385047Y-86574666D01*
X96504095Y-86574666D01*
X96551714Y-86598476D01*
X96575523Y-86622285D01*
X96599333Y-86669904D01*
X96599333Y-86788952D01*
X96575523Y-86836571D01*
X96551714Y-86860380D01*
X96504095Y-86884190D01*
X96385047Y-86884190D01*
X96337428Y-86860380D01*
X96313619Y-86836571D01*
X100036333Y-86384190D02*
X100036333Y-86741333D01*
X100012523Y-86812761D01*
X99964904Y-86860380D01*
X99893476Y-86884190D01*
X99845857Y-86884190D01*
X100488714Y-86384190D02*
X100393476Y-86384190D01*
X100345857Y-86408000D01*
X100322047Y-86431809D01*
X100274428Y-86503238D01*
X100250619Y-86598476D01*
X100250619Y-86788952D01*
X100274428Y-86836571D01*
X100298238Y-86860380D01*
X100345857Y-86884190D01*
X100441095Y-86884190D01*
X100488714Y-86860380D01*
X100512523Y-86836571D01*
X100536333Y-86788952D01*
X100536333Y-86669904D01*
X100512523Y-86622285D01*
X100488714Y-86598476D01*
X100441095Y-86574666D01*
X100345857Y-86574666D01*
X100298238Y-86598476D01*
X100274428Y-86622285D01*
X100250619Y-86669904D01*
X127087333Y-103485190D02*
X127087333Y-103842333D01*
X127063523Y-103913761D01*
X127015904Y-103961380D01*
X126944476Y-103985190D01*
X126896857Y-103985190D01*
X127301619Y-103532809D02*
X127325428Y-103509000D01*
X127373047Y-103485190D01*
X127492095Y-103485190D01*
X127539714Y-103509000D01*
X127563523Y-103532809D01*
X127587333Y-103580428D01*
X127587333Y-103628047D01*
X127563523Y-103699476D01*
X127277809Y-103985190D01*
X127587333Y-103985190D01*
D10*
X154804761Y-79513333D02*
X154852380Y-79370476D01*
X154852380Y-79132380D01*
X154804761Y-79037142D01*
X154757142Y-78989523D01*
X154661904Y-78941904D01*
X154566666Y-78941904D01*
X154471428Y-78989523D01*
X154423809Y-79037142D01*
X154376190Y-79132380D01*
X154328571Y-79322857D01*
X154280952Y-79418095D01*
X154233333Y-79465714D01*
X154138095Y-79513333D01*
X154042857Y-79513333D01*
X153947619Y-79465714D01*
X153900000Y-79418095D01*
X153852380Y-79322857D01*
X153852380Y-79084761D01*
X153900000Y-78941904D01*
X153852380Y-78608571D02*
X154852380Y-78370476D01*
X154138095Y-78180000D01*
X154852380Y-77989523D01*
X153852380Y-77751428D01*
X154852380Y-76846666D02*
X154852380Y-77418095D01*
X154852380Y-77132380D02*
X153852380Y-77132380D01*
X153995238Y-77227619D01*
X154090476Y-77322857D01*
X154138095Y-77418095D01*
D11*
X100324666Y-92788190D02*
X100158000Y-92550095D01*
X100038952Y-92788190D02*
X100038952Y-92288190D01*
X100229428Y-92288190D01*
X100277047Y-92312000D01*
X100300857Y-92335809D01*
X100324666Y-92383428D01*
X100324666Y-92454857D01*
X100300857Y-92502476D01*
X100277047Y-92526285D01*
X100229428Y-92550095D01*
X100038952Y-92550095D01*
X100610380Y-92502476D02*
X100562761Y-92478666D01*
X100538952Y-92454857D01*
X100515142Y-92407238D01*
X100515142Y-92383428D01*
X100538952Y-92335809D01*
X100562761Y-92312000D01*
X100610380Y-92288190D01*
X100705619Y-92288190D01*
X100753238Y-92312000D01*
X100777047Y-92335809D01*
X100800857Y-92383428D01*
X100800857Y-92407238D01*
X100777047Y-92454857D01*
X100753238Y-92478666D01*
X100705619Y-92502476D01*
X100610380Y-92502476D01*
X100562761Y-92526285D01*
X100538952Y-92550095D01*
X100515142Y-92597714D01*
X100515142Y-92692952D01*
X100538952Y-92740571D01*
X100562761Y-92764380D01*
X100610380Y-92788190D01*
X100705619Y-92788190D01*
X100753238Y-92764380D01*
X100777047Y-92740571D01*
X100800857Y-92692952D01*
X100800857Y-92597714D01*
X100777047Y-92550095D01*
X100753238Y-92526285D01*
X100705619Y-92502476D01*
M02*
