G04 #@! TF.GenerationSoftware,KiCad,Pcbnew,(5.1.5)-3*
G04 #@! TF.CreationDate,2020-08-17T10:15:17+02:00*
G04 #@! TF.ProjectId,Power_module_v1,506f7765-725f-46d6-9f64-756c655f7631,rev?*
G04 #@! TF.SameCoordinates,Original*
G04 #@! TF.FileFunction,Copper,L1,Top*
G04 #@! TF.FilePolarity,Positive*
%FSLAX46Y46*%
G04 Gerber Fmt 4.6, Leading zero omitted, Abs format (unit mm)*
G04 Created by KiCad (PCBNEW (5.1.5)-3) date 2020-08-17 10:15:17*
%MOMM*%
%LPD*%
G04 APERTURE LIST*
%ADD10C,0.100000*%
%ADD11R,1.700000X1.700000*%
%ADD12O,1.700000X1.700000*%
%ADD13R,1.430000X2.500000*%
%ADD14R,2.000000X1.500000*%
%ADD15R,1.350000X2.000000*%
%ADD16R,0.400000X1.650000*%
%ADD17O,1.350000X1.700000*%
%ADD18O,1.100000X1.500000*%
%ADD19R,1.825000X0.700000*%
%ADD20R,1.524000X4.000000*%
%ADD21R,1.600000X1.600000*%
%ADD22C,1.600000*%
%ADD23C,2.000000*%
%ADD24C,1.500000*%
%ADD25C,0.400000*%
%ADD26C,0.800000*%
%ADD27C,0.250000*%
%ADD28C,0.500000*%
%ADD29C,0.350000*%
%ADD30C,0.254000*%
G04 APERTURE END LIST*
G04 #@! TA.AperFunction,SMDPad,CuDef*
D10*
G36*
X114901505Y-100536204D02*
G01*
X114925773Y-100539804D01*
X114949572Y-100545765D01*
X114972671Y-100554030D01*
X114994850Y-100564520D01*
X115015893Y-100577132D01*
X115035599Y-100591747D01*
X115053777Y-100608223D01*
X115070253Y-100626401D01*
X115084868Y-100646107D01*
X115097480Y-100667150D01*
X115107970Y-100689329D01*
X115116235Y-100712428D01*
X115122196Y-100736227D01*
X115125796Y-100760495D01*
X115127000Y-100784999D01*
X115127000Y-101435001D01*
X115125796Y-101459505D01*
X115122196Y-101483773D01*
X115116235Y-101507572D01*
X115107970Y-101530671D01*
X115097480Y-101552850D01*
X115084868Y-101573893D01*
X115070253Y-101593599D01*
X115053777Y-101611777D01*
X115035599Y-101628253D01*
X115015893Y-101642868D01*
X114994850Y-101655480D01*
X114972671Y-101665970D01*
X114949572Y-101674235D01*
X114925773Y-101680196D01*
X114901505Y-101683796D01*
X114877001Y-101685000D01*
X113976999Y-101685000D01*
X113952495Y-101683796D01*
X113928227Y-101680196D01*
X113904428Y-101674235D01*
X113881329Y-101665970D01*
X113859150Y-101655480D01*
X113838107Y-101642868D01*
X113818401Y-101628253D01*
X113800223Y-101611777D01*
X113783747Y-101593599D01*
X113769132Y-101573893D01*
X113756520Y-101552850D01*
X113746030Y-101530671D01*
X113737765Y-101507572D01*
X113731804Y-101483773D01*
X113728204Y-101459505D01*
X113727000Y-101435001D01*
X113727000Y-100784999D01*
X113728204Y-100760495D01*
X113731804Y-100736227D01*
X113737765Y-100712428D01*
X113746030Y-100689329D01*
X113756520Y-100667150D01*
X113769132Y-100646107D01*
X113783747Y-100626401D01*
X113800223Y-100608223D01*
X113818401Y-100591747D01*
X113838107Y-100577132D01*
X113859150Y-100564520D01*
X113881329Y-100554030D01*
X113904428Y-100545765D01*
X113928227Y-100539804D01*
X113952495Y-100536204D01*
X113976999Y-100535000D01*
X114877001Y-100535000D01*
X114901505Y-100536204D01*
G37*
G04 #@! TD.AperFunction*
G04 #@! TA.AperFunction,SMDPad,CuDef*
G36*
X114901505Y-98486204D02*
G01*
X114925773Y-98489804D01*
X114949572Y-98495765D01*
X114972671Y-98504030D01*
X114994850Y-98514520D01*
X115015893Y-98527132D01*
X115035599Y-98541747D01*
X115053777Y-98558223D01*
X115070253Y-98576401D01*
X115084868Y-98596107D01*
X115097480Y-98617150D01*
X115107970Y-98639329D01*
X115116235Y-98662428D01*
X115122196Y-98686227D01*
X115125796Y-98710495D01*
X115127000Y-98734999D01*
X115127000Y-99385001D01*
X115125796Y-99409505D01*
X115122196Y-99433773D01*
X115116235Y-99457572D01*
X115107970Y-99480671D01*
X115097480Y-99502850D01*
X115084868Y-99523893D01*
X115070253Y-99543599D01*
X115053777Y-99561777D01*
X115035599Y-99578253D01*
X115015893Y-99592868D01*
X114994850Y-99605480D01*
X114972671Y-99615970D01*
X114949572Y-99624235D01*
X114925773Y-99630196D01*
X114901505Y-99633796D01*
X114877001Y-99635000D01*
X113976999Y-99635000D01*
X113952495Y-99633796D01*
X113928227Y-99630196D01*
X113904428Y-99624235D01*
X113881329Y-99615970D01*
X113859150Y-99605480D01*
X113838107Y-99592868D01*
X113818401Y-99578253D01*
X113800223Y-99561777D01*
X113783747Y-99543599D01*
X113769132Y-99523893D01*
X113756520Y-99502850D01*
X113746030Y-99480671D01*
X113737765Y-99457572D01*
X113731804Y-99433773D01*
X113728204Y-99409505D01*
X113727000Y-99385001D01*
X113727000Y-98734999D01*
X113728204Y-98710495D01*
X113731804Y-98686227D01*
X113737765Y-98662428D01*
X113746030Y-98639329D01*
X113756520Y-98617150D01*
X113769132Y-98596107D01*
X113783747Y-98576401D01*
X113800223Y-98558223D01*
X113818401Y-98541747D01*
X113838107Y-98527132D01*
X113859150Y-98514520D01*
X113881329Y-98504030D01*
X113904428Y-98495765D01*
X113928227Y-98489804D01*
X113952495Y-98486204D01*
X113976999Y-98485000D01*
X114877001Y-98485000D01*
X114901505Y-98486204D01*
G37*
G04 #@! TD.AperFunction*
G04 #@! TA.AperFunction,SMDPad,CuDef*
G36*
X117060505Y-100527204D02*
G01*
X117084773Y-100530804D01*
X117108572Y-100536765D01*
X117131671Y-100545030D01*
X117153850Y-100555520D01*
X117174893Y-100568132D01*
X117194599Y-100582747D01*
X117212777Y-100599223D01*
X117229253Y-100617401D01*
X117243868Y-100637107D01*
X117256480Y-100658150D01*
X117266970Y-100680329D01*
X117275235Y-100703428D01*
X117281196Y-100727227D01*
X117284796Y-100751495D01*
X117286000Y-100775999D01*
X117286000Y-101426001D01*
X117284796Y-101450505D01*
X117281196Y-101474773D01*
X117275235Y-101498572D01*
X117266970Y-101521671D01*
X117256480Y-101543850D01*
X117243868Y-101564893D01*
X117229253Y-101584599D01*
X117212777Y-101602777D01*
X117194599Y-101619253D01*
X117174893Y-101633868D01*
X117153850Y-101646480D01*
X117131671Y-101656970D01*
X117108572Y-101665235D01*
X117084773Y-101671196D01*
X117060505Y-101674796D01*
X117036001Y-101676000D01*
X116135999Y-101676000D01*
X116111495Y-101674796D01*
X116087227Y-101671196D01*
X116063428Y-101665235D01*
X116040329Y-101656970D01*
X116018150Y-101646480D01*
X115997107Y-101633868D01*
X115977401Y-101619253D01*
X115959223Y-101602777D01*
X115942747Y-101584599D01*
X115928132Y-101564893D01*
X115915520Y-101543850D01*
X115905030Y-101521671D01*
X115896765Y-101498572D01*
X115890804Y-101474773D01*
X115887204Y-101450505D01*
X115886000Y-101426001D01*
X115886000Y-100775999D01*
X115887204Y-100751495D01*
X115890804Y-100727227D01*
X115896765Y-100703428D01*
X115905030Y-100680329D01*
X115915520Y-100658150D01*
X115928132Y-100637107D01*
X115942747Y-100617401D01*
X115959223Y-100599223D01*
X115977401Y-100582747D01*
X115997107Y-100568132D01*
X116018150Y-100555520D01*
X116040329Y-100545030D01*
X116063428Y-100536765D01*
X116087227Y-100530804D01*
X116111495Y-100527204D01*
X116135999Y-100526000D01*
X117036001Y-100526000D01*
X117060505Y-100527204D01*
G37*
G04 #@! TD.AperFunction*
G04 #@! TA.AperFunction,SMDPad,CuDef*
G36*
X117060505Y-98477204D02*
G01*
X117084773Y-98480804D01*
X117108572Y-98486765D01*
X117131671Y-98495030D01*
X117153850Y-98505520D01*
X117174893Y-98518132D01*
X117194599Y-98532747D01*
X117212777Y-98549223D01*
X117229253Y-98567401D01*
X117243868Y-98587107D01*
X117256480Y-98608150D01*
X117266970Y-98630329D01*
X117275235Y-98653428D01*
X117281196Y-98677227D01*
X117284796Y-98701495D01*
X117286000Y-98725999D01*
X117286000Y-99376001D01*
X117284796Y-99400505D01*
X117281196Y-99424773D01*
X117275235Y-99448572D01*
X117266970Y-99471671D01*
X117256480Y-99493850D01*
X117243868Y-99514893D01*
X117229253Y-99534599D01*
X117212777Y-99552777D01*
X117194599Y-99569253D01*
X117174893Y-99583868D01*
X117153850Y-99596480D01*
X117131671Y-99606970D01*
X117108572Y-99615235D01*
X117084773Y-99621196D01*
X117060505Y-99624796D01*
X117036001Y-99626000D01*
X116135999Y-99626000D01*
X116111495Y-99624796D01*
X116087227Y-99621196D01*
X116063428Y-99615235D01*
X116040329Y-99606970D01*
X116018150Y-99596480D01*
X115997107Y-99583868D01*
X115977401Y-99569253D01*
X115959223Y-99552777D01*
X115942747Y-99534599D01*
X115928132Y-99514893D01*
X115915520Y-99493850D01*
X115905030Y-99471671D01*
X115896765Y-99448572D01*
X115890804Y-99424773D01*
X115887204Y-99400505D01*
X115886000Y-99376001D01*
X115886000Y-98725999D01*
X115887204Y-98701495D01*
X115890804Y-98677227D01*
X115896765Y-98653428D01*
X115905030Y-98630329D01*
X115915520Y-98608150D01*
X115928132Y-98587107D01*
X115942747Y-98567401D01*
X115959223Y-98549223D01*
X115977401Y-98532747D01*
X115997107Y-98518132D01*
X116018150Y-98505520D01*
X116040329Y-98495030D01*
X116063428Y-98486765D01*
X116087227Y-98480804D01*
X116111495Y-98477204D01*
X116135999Y-98476000D01*
X117036001Y-98476000D01*
X117060505Y-98477204D01*
G37*
G04 #@! TD.AperFunction*
G04 #@! TA.AperFunction,SMDPad,CuDef*
G36*
X135094505Y-104600204D02*
G01*
X135118773Y-104603804D01*
X135142572Y-104609765D01*
X135165671Y-104618030D01*
X135187850Y-104628520D01*
X135208893Y-104641132D01*
X135228599Y-104655747D01*
X135246777Y-104672223D01*
X135263253Y-104690401D01*
X135277868Y-104710107D01*
X135290480Y-104731150D01*
X135300970Y-104753329D01*
X135309235Y-104776428D01*
X135315196Y-104800227D01*
X135318796Y-104824495D01*
X135320000Y-104848999D01*
X135320000Y-105499001D01*
X135318796Y-105523505D01*
X135315196Y-105547773D01*
X135309235Y-105571572D01*
X135300970Y-105594671D01*
X135290480Y-105616850D01*
X135277868Y-105637893D01*
X135263253Y-105657599D01*
X135246777Y-105675777D01*
X135228599Y-105692253D01*
X135208893Y-105706868D01*
X135187850Y-105719480D01*
X135165671Y-105729970D01*
X135142572Y-105738235D01*
X135118773Y-105744196D01*
X135094505Y-105747796D01*
X135070001Y-105749000D01*
X134169999Y-105749000D01*
X134145495Y-105747796D01*
X134121227Y-105744196D01*
X134097428Y-105738235D01*
X134074329Y-105729970D01*
X134052150Y-105719480D01*
X134031107Y-105706868D01*
X134011401Y-105692253D01*
X133993223Y-105675777D01*
X133976747Y-105657599D01*
X133962132Y-105637893D01*
X133949520Y-105616850D01*
X133939030Y-105594671D01*
X133930765Y-105571572D01*
X133924804Y-105547773D01*
X133921204Y-105523505D01*
X133920000Y-105499001D01*
X133920000Y-104848999D01*
X133921204Y-104824495D01*
X133924804Y-104800227D01*
X133930765Y-104776428D01*
X133939030Y-104753329D01*
X133949520Y-104731150D01*
X133962132Y-104710107D01*
X133976747Y-104690401D01*
X133993223Y-104672223D01*
X134011401Y-104655747D01*
X134031107Y-104641132D01*
X134052150Y-104628520D01*
X134074329Y-104618030D01*
X134097428Y-104609765D01*
X134121227Y-104603804D01*
X134145495Y-104600204D01*
X134169999Y-104599000D01*
X135070001Y-104599000D01*
X135094505Y-104600204D01*
G37*
G04 #@! TD.AperFunction*
G04 #@! TA.AperFunction,SMDPad,CuDef*
G36*
X135094505Y-102550204D02*
G01*
X135118773Y-102553804D01*
X135142572Y-102559765D01*
X135165671Y-102568030D01*
X135187850Y-102578520D01*
X135208893Y-102591132D01*
X135228599Y-102605747D01*
X135246777Y-102622223D01*
X135263253Y-102640401D01*
X135277868Y-102660107D01*
X135290480Y-102681150D01*
X135300970Y-102703329D01*
X135309235Y-102726428D01*
X135315196Y-102750227D01*
X135318796Y-102774495D01*
X135320000Y-102798999D01*
X135320000Y-103449001D01*
X135318796Y-103473505D01*
X135315196Y-103497773D01*
X135309235Y-103521572D01*
X135300970Y-103544671D01*
X135290480Y-103566850D01*
X135277868Y-103587893D01*
X135263253Y-103607599D01*
X135246777Y-103625777D01*
X135228599Y-103642253D01*
X135208893Y-103656868D01*
X135187850Y-103669480D01*
X135165671Y-103679970D01*
X135142572Y-103688235D01*
X135118773Y-103694196D01*
X135094505Y-103697796D01*
X135070001Y-103699000D01*
X134169999Y-103699000D01*
X134145495Y-103697796D01*
X134121227Y-103694196D01*
X134097428Y-103688235D01*
X134074329Y-103679970D01*
X134052150Y-103669480D01*
X134031107Y-103656868D01*
X134011401Y-103642253D01*
X133993223Y-103625777D01*
X133976747Y-103607599D01*
X133962132Y-103587893D01*
X133949520Y-103566850D01*
X133939030Y-103544671D01*
X133930765Y-103521572D01*
X133924804Y-103497773D01*
X133921204Y-103473505D01*
X133920000Y-103449001D01*
X133920000Y-102798999D01*
X133921204Y-102774495D01*
X133924804Y-102750227D01*
X133930765Y-102726428D01*
X133939030Y-102703329D01*
X133949520Y-102681150D01*
X133962132Y-102660107D01*
X133976747Y-102640401D01*
X133993223Y-102622223D01*
X134011401Y-102605747D01*
X134031107Y-102591132D01*
X134052150Y-102578520D01*
X134074329Y-102568030D01*
X134097428Y-102559765D01*
X134121227Y-102553804D01*
X134145495Y-102550204D01*
X134169999Y-102549000D01*
X135070001Y-102549000D01*
X135094505Y-102550204D01*
G37*
G04 #@! TD.AperFunction*
G04 #@! TA.AperFunction,SMDPad,CuDef*
G36*
X137253505Y-104600204D02*
G01*
X137277773Y-104603804D01*
X137301572Y-104609765D01*
X137324671Y-104618030D01*
X137346850Y-104628520D01*
X137367893Y-104641132D01*
X137387599Y-104655747D01*
X137405777Y-104672223D01*
X137422253Y-104690401D01*
X137436868Y-104710107D01*
X137449480Y-104731150D01*
X137459970Y-104753329D01*
X137468235Y-104776428D01*
X137474196Y-104800227D01*
X137477796Y-104824495D01*
X137479000Y-104848999D01*
X137479000Y-105499001D01*
X137477796Y-105523505D01*
X137474196Y-105547773D01*
X137468235Y-105571572D01*
X137459970Y-105594671D01*
X137449480Y-105616850D01*
X137436868Y-105637893D01*
X137422253Y-105657599D01*
X137405777Y-105675777D01*
X137387599Y-105692253D01*
X137367893Y-105706868D01*
X137346850Y-105719480D01*
X137324671Y-105729970D01*
X137301572Y-105738235D01*
X137277773Y-105744196D01*
X137253505Y-105747796D01*
X137229001Y-105749000D01*
X136328999Y-105749000D01*
X136304495Y-105747796D01*
X136280227Y-105744196D01*
X136256428Y-105738235D01*
X136233329Y-105729970D01*
X136211150Y-105719480D01*
X136190107Y-105706868D01*
X136170401Y-105692253D01*
X136152223Y-105675777D01*
X136135747Y-105657599D01*
X136121132Y-105637893D01*
X136108520Y-105616850D01*
X136098030Y-105594671D01*
X136089765Y-105571572D01*
X136083804Y-105547773D01*
X136080204Y-105523505D01*
X136079000Y-105499001D01*
X136079000Y-104848999D01*
X136080204Y-104824495D01*
X136083804Y-104800227D01*
X136089765Y-104776428D01*
X136098030Y-104753329D01*
X136108520Y-104731150D01*
X136121132Y-104710107D01*
X136135747Y-104690401D01*
X136152223Y-104672223D01*
X136170401Y-104655747D01*
X136190107Y-104641132D01*
X136211150Y-104628520D01*
X136233329Y-104618030D01*
X136256428Y-104609765D01*
X136280227Y-104603804D01*
X136304495Y-104600204D01*
X136328999Y-104599000D01*
X137229001Y-104599000D01*
X137253505Y-104600204D01*
G37*
G04 #@! TD.AperFunction*
G04 #@! TA.AperFunction,SMDPad,CuDef*
G36*
X137253505Y-102550204D02*
G01*
X137277773Y-102553804D01*
X137301572Y-102559765D01*
X137324671Y-102568030D01*
X137346850Y-102578520D01*
X137367893Y-102591132D01*
X137387599Y-102605747D01*
X137405777Y-102622223D01*
X137422253Y-102640401D01*
X137436868Y-102660107D01*
X137449480Y-102681150D01*
X137459970Y-102703329D01*
X137468235Y-102726428D01*
X137474196Y-102750227D01*
X137477796Y-102774495D01*
X137479000Y-102798999D01*
X137479000Y-103449001D01*
X137477796Y-103473505D01*
X137474196Y-103497773D01*
X137468235Y-103521572D01*
X137459970Y-103544671D01*
X137449480Y-103566850D01*
X137436868Y-103587893D01*
X137422253Y-103607599D01*
X137405777Y-103625777D01*
X137387599Y-103642253D01*
X137367893Y-103656868D01*
X137346850Y-103669480D01*
X137324671Y-103679970D01*
X137301572Y-103688235D01*
X137277773Y-103694196D01*
X137253505Y-103697796D01*
X137229001Y-103699000D01*
X136328999Y-103699000D01*
X136304495Y-103697796D01*
X136280227Y-103694196D01*
X136256428Y-103688235D01*
X136233329Y-103679970D01*
X136211150Y-103669480D01*
X136190107Y-103656868D01*
X136170401Y-103642253D01*
X136152223Y-103625777D01*
X136135747Y-103607599D01*
X136121132Y-103587893D01*
X136108520Y-103566850D01*
X136098030Y-103544671D01*
X136089765Y-103521572D01*
X136083804Y-103497773D01*
X136080204Y-103473505D01*
X136079000Y-103449001D01*
X136079000Y-102798999D01*
X136080204Y-102774495D01*
X136083804Y-102750227D01*
X136089765Y-102726428D01*
X136098030Y-102703329D01*
X136108520Y-102681150D01*
X136121132Y-102660107D01*
X136135747Y-102640401D01*
X136152223Y-102622223D01*
X136170401Y-102605747D01*
X136190107Y-102591132D01*
X136211150Y-102578520D01*
X136233329Y-102568030D01*
X136256428Y-102559765D01*
X136280227Y-102553804D01*
X136304495Y-102550204D01*
X136328999Y-102549000D01*
X137229001Y-102549000D01*
X137253505Y-102550204D01*
G37*
G04 #@! TD.AperFunction*
D11*
X120904000Y-81026000D03*
D12*
X123444000Y-81026000D03*
D13*
X110228900Y-106746740D03*
D14*
X108338900Y-103496740D03*
D15*
X113938900Y-105546740D03*
X108458900Y-105546740D03*
D16*
X111188900Y-103596740D03*
D17*
X114688900Y-106476740D03*
D18*
X108768900Y-103476740D03*
X113608900Y-103476740D03*
D16*
X112488900Y-103596740D03*
X111838900Y-103596740D03*
D19*
X114188900Y-104796740D03*
D16*
X109888900Y-103596740D03*
D14*
X114088900Y-103476740D03*
D19*
X108238900Y-104796740D03*
D16*
X110538900Y-103596740D03*
D17*
X107688900Y-106476740D03*
D13*
X112148900Y-106746740D03*
D12*
X123444000Y-84963000D03*
D11*
X120904000Y-84963000D03*
X96266000Y-84328000D03*
D12*
X96266000Y-81788000D03*
X96266000Y-79248000D03*
X96266000Y-76708000D03*
X96266000Y-74168000D03*
X96266000Y-71628000D03*
X100203000Y-71628000D03*
X100203000Y-74168000D03*
X100203000Y-76708000D03*
X100203000Y-79248000D03*
X100203000Y-81788000D03*
D11*
X100203000Y-84328000D03*
D20*
X125049280Y-101912420D03*
X122509280Y-101912420D03*
X119969280Y-101912420D03*
D21*
X145288000Y-77978000D03*
D22*
X142788000Y-77978000D03*
X113498000Y-77978000D03*
D21*
X110998000Y-77978000D03*
D23*
X147900000Y-74930000D03*
X152400000Y-74930000D03*
X147900000Y-81430000D03*
X152400000Y-81430000D03*
D24*
X102108000Y-89662000D03*
X98708000Y-89662000D03*
D25*
X137160000Y-89154000D03*
X137160000Y-88392000D03*
X137160000Y-87630000D03*
D26*
X135382000Y-100076000D03*
X137922000Y-98298000D03*
X132588000Y-97790000D03*
X146558000Y-89408000D03*
X132588000Y-107442000D03*
X129540000Y-106426000D03*
D25*
X106426000Y-97282000D03*
X106807000Y-96774000D03*
X106426000Y-96266000D03*
X137922000Y-89154000D03*
X137922000Y-88392000D03*
X136398000Y-89154000D03*
X136398000Y-88392000D03*
X137922000Y-87630000D03*
X136398000Y-87630000D03*
D26*
X130429000Y-94869000D03*
X140208000Y-90932000D03*
X112522000Y-101854000D03*
X127221979Y-99568000D03*
X132715000Y-83693000D03*
X139446000Y-83693000D03*
X142367000Y-89408000D03*
X133350000Y-90424000D03*
X119126000Y-87249000D03*
X118999000Y-85217000D03*
X114300000Y-95453200D03*
X116687600Y-95910400D03*
X135402499Y-90505176D03*
X143256000Y-85471000D03*
X144399000Y-85471000D03*
X142113000Y-85471000D03*
X118872000Y-69723000D03*
X131191000Y-69342000D03*
X106680000Y-50673000D03*
X137541000Y-50927000D03*
X111887000Y-57150000D03*
X126238000Y-57277000D03*
X135636000Y-61722000D03*
X123063000Y-62357000D03*
X115697000Y-61976000D03*
X107061000Y-65278000D03*
X112903000Y-72771000D03*
X123063000Y-73787000D03*
X132588000Y-75438000D03*
X145161000Y-71120000D03*
X143256000Y-69088000D03*
X137795000Y-65786000D03*
X140335000Y-60579000D03*
X135128000Y-54991000D03*
X122428000Y-50927000D03*
X118110000Y-56388000D03*
X100711000Y-64516000D03*
X108458000Y-73660000D03*
X104394000Y-69977000D03*
X105664000Y-79502000D03*
X106934000Y-83820000D03*
X96266000Y-87630000D03*
X104394000Y-101981000D03*
X116840000Y-103124000D03*
X112141000Y-92583000D03*
X141097000Y-103124000D03*
X148082000Y-92075000D03*
X150241000Y-87249000D03*
X114554000Y-82296000D03*
X92329000Y-75819000D03*
X91948000Y-79375000D03*
X101981000Y-87376000D03*
X129159000Y-63119000D03*
X125603000Y-68199000D03*
X137541000Y-71247000D03*
X127381000Y-84836000D03*
X107569000Y-94615000D03*
X104013000Y-93726000D03*
X102870000Y-93472000D03*
X102489000Y-92329000D03*
X101854000Y-93472000D03*
X100965000Y-94107000D03*
X101219000Y-92456000D03*
X141723000Y-82804000D03*
X138287393Y-104282607D03*
X119761000Y-88011000D03*
X134112000Y-97790000D03*
X147574000Y-84074000D03*
X131318000Y-102108000D03*
X129032000Y-85090000D03*
X105791000Y-92065680D03*
X106290000Y-99568000D03*
X132588000Y-85979000D03*
X126034800Y-91033600D03*
X127254000Y-88341200D03*
X138049000Y-91440000D03*
X128651000Y-92202000D03*
X114680996Y-90043000D03*
X105119010Y-89902941D03*
X135984000Y-94615000D03*
X125222000Y-79248000D03*
X120396000Y-79121000D03*
X122359930Y-97600033D03*
X121146637Y-98485063D03*
X138684000Y-79248000D03*
X143773000Y-82804000D03*
X133049000Y-93919000D03*
X126111000Y-92153998D03*
X135728996Y-86519010D03*
X131318000Y-89662000D03*
X136795409Y-91225751D03*
X106172000Y-95250000D03*
X110236000Y-95486000D03*
X112268000Y-95486000D03*
X118911000Y-98354002D03*
X139065010Y-99695000D03*
X120890990Y-95202315D03*
X139827000Y-100838000D03*
X123825012Y-97155000D03*
X124079000Y-98298000D03*
X122411854Y-99050045D03*
X123647200Y-93116396D03*
X108712000Y-93725998D03*
X104521000Y-92456000D03*
X111506000Y-84328000D03*
X103632000Y-84464000D03*
X114427000Y-89027000D03*
X116950042Y-92803246D03*
X114286990Y-91493011D03*
X117348000Y-88519000D03*
X123083045Y-95019937D03*
X134112000Y-101092000D03*
X128968964Y-93980000D03*
X140970000Y-88265000D03*
X137413980Y-84963000D03*
X134493000Y-95631000D03*
X134493000Y-93345000D03*
X117703600Y-87528400D03*
X134239000Y-91680990D03*
X124974150Y-91503988D03*
X122529600Y-93776800D03*
X138953628Y-80359658D03*
X144272000Y-84328000D03*
X108712000Y-94996000D03*
X128270000Y-82296000D03*
X114554000Y-83820000D03*
X113030000Y-85344000D03*
X104140000Y-86360000D03*
D27*
X96266000Y-79248000D02*
X100203000Y-79248000D01*
D28*
X112488900Y-101887100D02*
X112522000Y-101854000D01*
X112488900Y-103596740D02*
X112488900Y-101887100D01*
X124015699Y-99168001D02*
X126821980Y-99168001D01*
X122509280Y-100674420D02*
X124015699Y-99168001D01*
X126821980Y-99168001D02*
X127221979Y-99568000D01*
X122509280Y-101912420D02*
X122509280Y-100674420D01*
D27*
X119126000Y-87249000D02*
X119126000Y-85344000D01*
X119126000Y-85344000D02*
X118999000Y-85217000D01*
X114300000Y-95453200D02*
X116230400Y-95453200D01*
X116230400Y-95453200D02*
X116687600Y-95910400D01*
X135321323Y-90424000D02*
X135402499Y-90505176D01*
X133350000Y-90424000D02*
X135321323Y-90424000D01*
X137862421Y-104282607D02*
X138287393Y-104282607D01*
X139520393Y-104282607D02*
X139917000Y-103886000D01*
X138287393Y-104282607D02*
X139520393Y-104282607D01*
X106290000Y-99686000D02*
X106290000Y-99568000D01*
D28*
X109888900Y-102271740D02*
X109217160Y-101600000D01*
X109888900Y-103596740D02*
X109888900Y-102271740D01*
X109217160Y-101600000D02*
X106934000Y-101600000D01*
X106290000Y-100956000D02*
X106290000Y-99568000D01*
X106934000Y-101600000D02*
X106290000Y-100956000D01*
D27*
X127653999Y-87941201D02*
X127254000Y-88341200D01*
X132588000Y-85979000D02*
X129616200Y-85979000D01*
X129616200Y-85979000D02*
X127653999Y-87941201D01*
X125769204Y-90768004D02*
X126034800Y-91033600D01*
X114058008Y-90493010D02*
X114333002Y-90768004D01*
X114333002Y-90768004D02*
X125769204Y-90768004D01*
X106290000Y-99568000D02*
X105715000Y-99568000D01*
X105715000Y-99568000D02*
X103886000Y-97739000D01*
X103886000Y-97739000D02*
X103886000Y-94996000D01*
X108388990Y-90493010D02*
X114058008Y-90493010D01*
X103886000Y-94996000D02*
X108388990Y-90493010D01*
D29*
X121031000Y-84963000D02*
X121031000Y-86063000D01*
D27*
X128646531Y-92197531D02*
X128651000Y-92202000D01*
D29*
X121031000Y-86063000D02*
X123825000Y-88900000D01*
D27*
X128519531Y-92197531D02*
X128646531Y-92197531D01*
X128646531Y-92197531D02*
X128905000Y-92456000D01*
D29*
X128519531Y-92117327D02*
X128519531Y-92197531D01*
X123825000Y-88900000D02*
X125302204Y-88900000D01*
X125302204Y-88900000D02*
X128519531Y-92117327D01*
X128905000Y-92456000D02*
X134366000Y-92456000D01*
D27*
X134677002Y-92456000D02*
X134366000Y-92456000D01*
X135693002Y-93472000D02*
X134677002Y-92456000D01*
X138049000Y-91440000D02*
X136017000Y-93472000D01*
X136017000Y-93472000D02*
X135693002Y-93472000D01*
D29*
X105684695Y-89902941D02*
X105119010Y-89902941D01*
X123825000Y-88900000D02*
X122822059Y-89902941D01*
X122822059Y-89902941D02*
X105684695Y-89902941D01*
D27*
X120904000Y-81026000D02*
X121158000Y-81026000D01*
X121246002Y-81026000D02*
X124040002Y-83820000D01*
X121158000Y-81026000D02*
X121246002Y-81026000D01*
X131768998Y-83820000D02*
X133292998Y-85344000D01*
X124040002Y-83820000D02*
X131768998Y-83820000D01*
X133292998Y-85344000D02*
X133313001Y-85364003D01*
X138774001Y-91824999D02*
X135984000Y-94615000D01*
X138774001Y-87704999D02*
X138774001Y-91824999D01*
X136413002Y-85344000D02*
X138774001Y-87704999D01*
X133292998Y-85344000D02*
X136413002Y-85344000D01*
D29*
X125222000Y-79248000D02*
X124656315Y-79248000D01*
X124656315Y-79248000D02*
X120523000Y-79248000D01*
D27*
X120523000Y-79248000D02*
X120396000Y-79121000D01*
X97468081Y-81788000D02*
X100203000Y-81788000D01*
X96266000Y-81788000D02*
X97468081Y-81788000D01*
D29*
X122359930Y-97600033D02*
X121474900Y-98485063D01*
D27*
X121474900Y-98485063D02*
X121146637Y-98485063D01*
X138684000Y-79248000D02*
X139249685Y-79248000D01*
X142805685Y-82804000D02*
X143773000Y-82804000D01*
X139249685Y-79248000D02*
X142805685Y-82804000D01*
X127212001Y-93254999D02*
X126111000Y-92153998D01*
X133049000Y-93919000D02*
X133049000Y-93344000D01*
X132959999Y-93254999D02*
X127212001Y-93254999D01*
X133049000Y-93344000D02*
X132959999Y-93254999D01*
X133223000Y-89025006D02*
X135728996Y-86519010D01*
X133223000Y-89535000D02*
X133223000Y-89025006D01*
X133096000Y-89662000D02*
X131883685Y-89662000D01*
X131883685Y-89662000D02*
X131318000Y-89662000D01*
X133223000Y-89535000D02*
X133096000Y-89662000D01*
X136795409Y-90660066D02*
X136795409Y-91225751D01*
X133223000Y-89535000D02*
X135670344Y-89535000D01*
X135670344Y-89535000D02*
X136795409Y-90660066D01*
X105664000Y-96181998D02*
X106299000Y-95546998D01*
X114427000Y-101110000D02*
X113727000Y-101110000D01*
X113727000Y-101110000D02*
X113201000Y-100584000D01*
X113201000Y-100584000D02*
X108610400Y-100584000D01*
X108610400Y-100584000D02*
X105664000Y-97637600D01*
X105664000Y-97637600D02*
X105664000Y-96181998D01*
X110236000Y-95569000D02*
X110236000Y-95486000D01*
X113727000Y-99060000D02*
X110236000Y-95569000D01*
X114427000Y-99060000D02*
X113727000Y-99060000D01*
X113164400Y-95486000D02*
X112268000Y-95486000D01*
X116586000Y-99051000D02*
X116586000Y-98907600D01*
X116586000Y-98907600D02*
X113164400Y-95486000D01*
X119310999Y-97954003D02*
X118911000Y-98354002D01*
X120999002Y-96266000D02*
X119310999Y-97954003D01*
X123883413Y-96266000D02*
X120999002Y-96266000D01*
X129032000Y-96139000D02*
X128937012Y-96044012D01*
X128937012Y-96044012D02*
X124105401Y-96044012D01*
X134620000Y-105174000D02*
X130763810Y-105174000D01*
X124105401Y-96044012D02*
X123883413Y-96266000D01*
X129032000Y-103442190D02*
X129032000Y-96139000D01*
X130763810Y-105174000D02*
X129032000Y-103442190D01*
X138499325Y-99695000D02*
X139065010Y-99695000D01*
X137474000Y-99695000D02*
X138499325Y-99695000D01*
X134620000Y-102549000D02*
X137474000Y-99695000D01*
X134620000Y-103124000D02*
X134620000Y-102549000D01*
X136779000Y-105749000D02*
X136229000Y-106299000D01*
X136779000Y-105174000D02*
X136779000Y-105749000D01*
X136229000Y-106299000D02*
X131191000Y-106299000D01*
X136453990Y-104273990D02*
X130689990Y-104273990D01*
X129667000Y-103251000D02*
X129667000Y-96012000D01*
X129667000Y-96012000D02*
X129249001Y-95594001D01*
X123919001Y-95594001D02*
X123697013Y-95815989D01*
X121290989Y-95602314D02*
X120890990Y-95202315D01*
X121504664Y-95815989D02*
X121290989Y-95602314D01*
X123697013Y-95815989D02*
X121504664Y-95815989D01*
X130689990Y-104273990D02*
X129667000Y-103251000D01*
X136779000Y-104599000D02*
X136453990Y-104273990D01*
X136779000Y-105174000D02*
X136779000Y-104599000D01*
X129249001Y-95594001D02*
X123919001Y-95594001D01*
X137541000Y-103124000D02*
X139427001Y-101237999D01*
X136779000Y-103124000D02*
X137541000Y-103124000D01*
X139427001Y-101237999D02*
X139827000Y-100838000D01*
X121056977Y-96875023D02*
X119969280Y-97962720D01*
X119969280Y-97962720D02*
X119969280Y-101912420D01*
X123545035Y-96875023D02*
X121056977Y-96875023D01*
X123825012Y-97155000D02*
X123545035Y-96875023D01*
X124079000Y-98298000D02*
X123163899Y-98298000D01*
X123163899Y-98298000D02*
X122411854Y-99050045D01*
X113608900Y-103476740D02*
X114088900Y-103476740D01*
X114688900Y-106296740D02*
X113938900Y-105546740D01*
X114688900Y-106476740D02*
X114688900Y-106296740D01*
X107688900Y-106316740D02*
X108458900Y-105546740D01*
X107688900Y-106476740D02*
X107688900Y-106316740D01*
X108748900Y-103496740D02*
X108768900Y-103476740D01*
X108338900Y-103496740D02*
X108748900Y-103496740D01*
X108768900Y-104266740D02*
X108238900Y-104796740D01*
X108768900Y-103476740D02*
X108768900Y-104266740D01*
X109028900Y-105546740D02*
X110228900Y-106746740D01*
X108458900Y-105546740D02*
X109028900Y-105546740D01*
X110228900Y-106746740D02*
X112148900Y-106746740D01*
X113348900Y-105546740D02*
X112148900Y-106746740D01*
X113938900Y-105546740D02*
X113348900Y-105546740D01*
X113608900Y-105216740D02*
X113938900Y-105546740D01*
X113608900Y-103476740D02*
X113608900Y-105216740D01*
X97466000Y-84328000D02*
X100203000Y-84328000D01*
X96266000Y-84328000D02*
X97466000Y-84328000D01*
X117100292Y-93725998D02*
X109277685Y-93725998D01*
X109277685Y-93725998D02*
X108712000Y-93725998D01*
X118109893Y-92716397D02*
X117100292Y-93725998D01*
X123247201Y-92716397D02*
X118109893Y-92716397D01*
X123647200Y-93116396D02*
X123247201Y-92716397D01*
X103895999Y-84727999D02*
X103632000Y-84464000D01*
X111106001Y-84727999D02*
X103895999Y-84727999D01*
X111506000Y-84328000D02*
X111106001Y-84727999D01*
X103886000Y-91821000D02*
X104521000Y-92456000D01*
X103886000Y-87376000D02*
X103886000Y-91821000D01*
X100203000Y-84328000D02*
X100838000Y-84328000D01*
X100838000Y-84328000D02*
X103886000Y-87376000D01*
X96266000Y-76708000D02*
X100203000Y-76708000D01*
X114427000Y-89027000D02*
X114427000Y-85598000D01*
X105537000Y-76708000D02*
X100203000Y-76708000D01*
X114427000Y-85598000D02*
X105537000Y-76708000D01*
X116950042Y-92803246D02*
X115597225Y-92803246D01*
X115597225Y-92803246D02*
X114286990Y-91493011D01*
X97468081Y-74168000D02*
X100203000Y-74168000D01*
X96266000Y-74168000D02*
X97468081Y-74168000D01*
X116826199Y-87360789D02*
X103633410Y-74168000D01*
X116826199Y-87997199D02*
X116826199Y-87360789D01*
X117348000Y-88519000D02*
X116826199Y-87997199D01*
X101405081Y-74168000D02*
X100203000Y-74168000D01*
X103633410Y-74168000D02*
X101405081Y-74168000D01*
X129534649Y-93980000D02*
X128968964Y-93980000D01*
X130613002Y-93980000D02*
X129534649Y-93980000D01*
X133350000Y-96716998D02*
X130613002Y-93980000D01*
X133350000Y-100330000D02*
X133350000Y-96716998D01*
X127929027Y-95019937D02*
X128968964Y-93980000D01*
X123083045Y-95019937D02*
X127929027Y-95019937D01*
X134112000Y-101092000D02*
X133350000Y-100330000D01*
X140970000Y-88265000D02*
X137668000Y-84963000D01*
X137668000Y-84963000D02*
X137413980Y-84963000D01*
X134493000Y-95631000D02*
X134493000Y-93345000D01*
X124574203Y-94176799D02*
X122929599Y-94176799D01*
X124974150Y-91503988D02*
X124974150Y-93776852D01*
X124974150Y-93776852D02*
X124574203Y-94176799D01*
X122929599Y-94176799D02*
X122529600Y-93776800D01*
X141732000Y-84328000D02*
X144272000Y-84328000D01*
X138953628Y-80359658D02*
X138953628Y-81549628D01*
X138953628Y-81549628D02*
X141732000Y-84328000D01*
X116020010Y-99960010D02*
X112787010Y-99960010D01*
X116586000Y-101101000D02*
X116586000Y-100526000D01*
X116586000Y-100526000D02*
X116020010Y-99960010D01*
X112787010Y-99960010D02*
X109474000Y-96647000D01*
X109474000Y-96647000D02*
X109474000Y-95816743D01*
X109474000Y-95816743D02*
X108922075Y-95264818D01*
X128270000Y-82296000D02*
X128270000Y-78994000D01*
X126802001Y-80461999D02*
X124619001Y-80461999D01*
X128270000Y-78994000D02*
X126802001Y-80461999D01*
X118523001Y-79850999D02*
X114554000Y-83820000D01*
X124619001Y-80461999D02*
X124008001Y-79850999D01*
X124008001Y-79850999D02*
X118523001Y-79850999D01*
X113030000Y-85344000D02*
X112014000Y-86360000D01*
X112014000Y-86360000D02*
X104140000Y-86360000D01*
X122174000Y-85852000D02*
X122682000Y-86360000D01*
X122682000Y-86360000D02*
X124199796Y-86360000D01*
X122174000Y-83820998D02*
X122174000Y-85852000D01*
X121538002Y-83185000D02*
X122174000Y-83820998D01*
X133673315Y-91680990D02*
X134239000Y-91680990D01*
X129520786Y-91680990D02*
X133673315Y-91680990D01*
X117703600Y-87528400D02*
X117703600Y-84099400D01*
X117703600Y-84099400D02*
X118618000Y-83185000D01*
X118618000Y-83185000D02*
X121538002Y-83185000D01*
X124199796Y-86360000D02*
X129520786Y-91680990D01*
D30*
G36*
X156737896Y-77941800D02*
G01*
X139618951Y-107592500D01*
X127731120Y-107592500D01*
X127731120Y-104369099D01*
X127734313Y-104336680D01*
X127721570Y-104207297D01*
X127683830Y-104082887D01*
X127622545Y-103968230D01*
X127540068Y-103867732D01*
X127439570Y-103785255D01*
X127324913Y-103723970D01*
X127200503Y-103686230D01*
X127103539Y-103676680D01*
X127071120Y-103673487D01*
X127038701Y-103676680D01*
X126449352Y-103676680D01*
X126449352Y-99912420D01*
X126437092Y-99787938D01*
X126400782Y-99668240D01*
X126341817Y-99557926D01*
X126262465Y-99461235D01*
X126165774Y-99381883D01*
X126055460Y-99322918D01*
X125935762Y-99286608D01*
X125811280Y-99274348D01*
X124426473Y-99274348D01*
X124569256Y-99215205D01*
X124738774Y-99101937D01*
X124882937Y-98957774D01*
X124996205Y-98788256D01*
X125074226Y-98599898D01*
X125114000Y-98399939D01*
X125114000Y-98196061D01*
X125074226Y-97996102D01*
X124996205Y-97807744D01*
X124882937Y-97638226D01*
X124785492Y-97540781D01*
X124820238Y-97456898D01*
X124860012Y-97256939D01*
X124860012Y-97053061D01*
X124820238Y-96853102D01*
X124799904Y-96804012D01*
X128272001Y-96804012D01*
X128272000Y-103404867D01*
X128268324Y-103442190D01*
X128272000Y-103479512D01*
X128272000Y-103479522D01*
X128282997Y-103591175D01*
X128323279Y-103723970D01*
X128326454Y-103734436D01*
X128397026Y-103866466D01*
X128410177Y-103882490D01*
X128491999Y-103982191D01*
X128521003Y-104005994D01*
X130200011Y-105685003D01*
X130223809Y-105714001D01*
X130339534Y-105808974D01*
X130471563Y-105879546D01*
X130542024Y-105900920D01*
X130485454Y-106006753D01*
X130441997Y-106150014D01*
X130427323Y-106299000D01*
X130441997Y-106447986D01*
X130485454Y-106591247D01*
X130556026Y-106723276D01*
X130650999Y-106839001D01*
X130766724Y-106933974D01*
X130898753Y-107004546D01*
X131042014Y-107048003D01*
X131153667Y-107059000D01*
X136191678Y-107059000D01*
X136229000Y-107062676D01*
X136266322Y-107059000D01*
X136266333Y-107059000D01*
X136377986Y-107048003D01*
X136521247Y-107004546D01*
X136653276Y-106933974D01*
X136769001Y-106839001D01*
X136792803Y-106809998D01*
X137215731Y-106387072D01*
X137229001Y-106387072D01*
X137402255Y-106370008D01*
X137568851Y-106319472D01*
X137722387Y-106237405D01*
X137856962Y-106126962D01*
X137967405Y-105992387D01*
X138049472Y-105838851D01*
X138100008Y-105672255D01*
X138117072Y-105499001D01*
X138117072Y-104848999D01*
X138100008Y-104675745D01*
X138049472Y-104509149D01*
X137967405Y-104355613D01*
X137856962Y-104221038D01*
X137769184Y-104149000D01*
X137856962Y-104076962D01*
X137967405Y-103942387D01*
X138049472Y-103788851D01*
X138091064Y-103651739D01*
X138104804Y-103634997D01*
X139866802Y-101873000D01*
X139928939Y-101873000D01*
X140128898Y-101833226D01*
X140317256Y-101755205D01*
X140486774Y-101641937D01*
X140630937Y-101497774D01*
X140744205Y-101328256D01*
X140822226Y-101139898D01*
X140862000Y-100939939D01*
X140862000Y-100736061D01*
X140822226Y-100536102D01*
X140744205Y-100347744D01*
X140630937Y-100178226D01*
X140486774Y-100034063D01*
X140317256Y-99920795D01*
X140128898Y-99842774D01*
X140092339Y-99835502D01*
X140100010Y-99796939D01*
X140100010Y-99593061D01*
X140060236Y-99393102D01*
X139982215Y-99204744D01*
X139868947Y-99035226D01*
X139724784Y-98891063D01*
X139555266Y-98777795D01*
X139366908Y-98699774D01*
X139166949Y-98660000D01*
X138963071Y-98660000D01*
X138763112Y-98699774D01*
X138574754Y-98777795D01*
X138405236Y-98891063D01*
X138361299Y-98935000D01*
X137511333Y-98935000D01*
X137474000Y-98931323D01*
X137436667Y-98935000D01*
X137325014Y-98945997D01*
X137181753Y-98989454D01*
X137049724Y-99060026D01*
X136933999Y-99154999D01*
X136910201Y-99183997D01*
X135139889Y-100954310D01*
X135107226Y-100790102D01*
X135029205Y-100601744D01*
X134915937Y-100432226D01*
X134771774Y-100288063D01*
X134602256Y-100174795D01*
X134413898Y-100096774D01*
X134213939Y-100057000D01*
X134151801Y-100057000D01*
X134110000Y-100015199D01*
X134110000Y-96754323D01*
X134113676Y-96716998D01*
X134110000Y-96679673D01*
X134110000Y-96679665D01*
X134101063Y-96588930D01*
X134191102Y-96626226D01*
X134391061Y-96666000D01*
X134594939Y-96666000D01*
X134794898Y-96626226D01*
X134983256Y-96548205D01*
X135152774Y-96434937D01*
X135296937Y-96290774D01*
X135410205Y-96121256D01*
X135488226Y-95932898D01*
X135528000Y-95732939D01*
X135528000Y-95546394D01*
X135682102Y-95610226D01*
X135882061Y-95650000D01*
X136085939Y-95650000D01*
X136285898Y-95610226D01*
X136474256Y-95532205D01*
X136643774Y-95418937D01*
X136787937Y-95274774D01*
X136901205Y-95105256D01*
X136979226Y-94916898D01*
X137019000Y-94716939D01*
X137019000Y-94654801D01*
X139285004Y-92388798D01*
X139314002Y-92365000D01*
X139408975Y-92249275D01*
X139479547Y-92117246D01*
X139523004Y-91973985D01*
X139534001Y-91862332D01*
X139534001Y-91862323D01*
X139537677Y-91825000D01*
X139534001Y-91787677D01*
X139534001Y-87903803D01*
X139935000Y-88304802D01*
X139935000Y-88366939D01*
X139974774Y-88566898D01*
X140052795Y-88755256D01*
X140166063Y-88924774D01*
X140310226Y-89068937D01*
X140479744Y-89182205D01*
X140668102Y-89260226D01*
X140868061Y-89300000D01*
X141071939Y-89300000D01*
X141271898Y-89260226D01*
X141460256Y-89182205D01*
X141629774Y-89068937D01*
X141773937Y-88924774D01*
X141887205Y-88755256D01*
X141965226Y-88566898D01*
X142005000Y-88366939D01*
X142005000Y-88163061D01*
X141965226Y-87963102D01*
X141887205Y-87774744D01*
X141773937Y-87605226D01*
X141629774Y-87461063D01*
X141460256Y-87347795D01*
X141271898Y-87269774D01*
X141071939Y-87230000D01*
X141009802Y-87230000D01*
X138386793Y-84606991D01*
X138331185Y-84472744D01*
X138217917Y-84303226D01*
X138073754Y-84159063D01*
X137904236Y-84045795D01*
X137715878Y-83967774D01*
X137515919Y-83928000D01*
X137312041Y-83928000D01*
X137112082Y-83967774D01*
X136923724Y-84045795D01*
X136754206Y-84159063D01*
X136610043Y-84303226D01*
X136496775Y-84472744D01*
X136450677Y-84584034D01*
X136450335Y-84584000D01*
X136450324Y-84584000D01*
X136413002Y-84580324D01*
X136375680Y-84584000D01*
X133607801Y-84584000D01*
X132332801Y-83309002D01*
X132308999Y-83279999D01*
X132193274Y-83185026D01*
X132061245Y-83114454D01*
X131917984Y-83070997D01*
X131806331Y-83060000D01*
X131806320Y-83060000D01*
X131768998Y-83056324D01*
X131731676Y-83060000D01*
X128969711Y-83060000D01*
X129073937Y-82955774D01*
X129187205Y-82786256D01*
X129265226Y-82597898D01*
X129305000Y-82397939D01*
X129305000Y-82194061D01*
X129265226Y-81994102D01*
X129187205Y-81805744D01*
X129073937Y-81636226D01*
X129030000Y-81592289D01*
X129030000Y-79146061D01*
X137649000Y-79146061D01*
X137649000Y-79349939D01*
X137688774Y-79549898D01*
X137766795Y-79738256D01*
X137880063Y-79907774D01*
X137979387Y-80007098D01*
X137958402Y-80057760D01*
X137918628Y-80257719D01*
X137918628Y-80461597D01*
X137958402Y-80661556D01*
X138036423Y-80849914D01*
X138149691Y-81019432D01*
X138193629Y-81063370D01*
X138193629Y-81512296D01*
X138189952Y-81549628D01*
X138193629Y-81586961D01*
X138203669Y-81688892D01*
X138204626Y-81698613D01*
X138248082Y-81841874D01*
X138318654Y-81973904D01*
X138376181Y-82044000D01*
X138413628Y-82089629D01*
X138442626Y-82113427D01*
X141168200Y-84839002D01*
X141191999Y-84868001D01*
X141307724Y-84962974D01*
X141439753Y-85033546D01*
X141583014Y-85077003D01*
X141694667Y-85088000D01*
X141694676Y-85088000D01*
X141731999Y-85091676D01*
X141769322Y-85088000D01*
X143568289Y-85088000D01*
X143612226Y-85131937D01*
X143781744Y-85245205D01*
X143970102Y-85323226D01*
X144170061Y-85363000D01*
X144373939Y-85363000D01*
X144573898Y-85323226D01*
X144762256Y-85245205D01*
X144931774Y-85131937D01*
X145075937Y-84987774D01*
X145189205Y-84818256D01*
X145267226Y-84629898D01*
X145307000Y-84429939D01*
X145307000Y-84226061D01*
X145267226Y-84026102D01*
X145189205Y-83837744D01*
X145075937Y-83668226D01*
X144931774Y-83524063D01*
X144762256Y-83410795D01*
X144644835Y-83362157D01*
X144690205Y-83294256D01*
X144768226Y-83105898D01*
X144808000Y-82905939D01*
X144808000Y-82702061D01*
X144768226Y-82502102D01*
X144690205Y-82313744D01*
X144576937Y-82144226D01*
X144432774Y-82000063D01*
X144263256Y-81886795D01*
X144074898Y-81808774D01*
X143874939Y-81769000D01*
X143671061Y-81769000D01*
X143471102Y-81808774D01*
X143282744Y-81886795D01*
X143113226Y-82000063D01*
X143094888Y-82018401D01*
X142345454Y-81268967D01*
X146265000Y-81268967D01*
X146265000Y-81591033D01*
X146327832Y-81906912D01*
X146451082Y-82204463D01*
X146630013Y-82472252D01*
X146857748Y-82699987D01*
X147125537Y-82878918D01*
X147423088Y-83002168D01*
X147738967Y-83065000D01*
X148061033Y-83065000D01*
X148376912Y-83002168D01*
X148674463Y-82878918D01*
X148942252Y-82699987D01*
X149076826Y-82565413D01*
X151444192Y-82565413D01*
X151539956Y-82829814D01*
X151829571Y-82970704D01*
X152141108Y-83052384D01*
X152462595Y-83071718D01*
X152781675Y-83027961D01*
X153086088Y-82922795D01*
X153260044Y-82829814D01*
X153355808Y-82565413D01*
X152400000Y-81609605D01*
X151444192Y-82565413D01*
X149076826Y-82565413D01*
X149169987Y-82472252D01*
X149348918Y-82204463D01*
X149472168Y-81906912D01*
X149535000Y-81591033D01*
X149535000Y-81492595D01*
X150758282Y-81492595D01*
X150802039Y-81811675D01*
X150907205Y-82116088D01*
X151000186Y-82290044D01*
X151264587Y-82385808D01*
X152220395Y-81430000D01*
X152579605Y-81430000D01*
X153535413Y-82385808D01*
X153799814Y-82290044D01*
X153940704Y-82000429D01*
X154022384Y-81688892D01*
X154041718Y-81367405D01*
X153997961Y-81048325D01*
X153892795Y-80743912D01*
X153799814Y-80569956D01*
X153535413Y-80474192D01*
X152579605Y-81430000D01*
X152220395Y-81430000D01*
X151264587Y-80474192D01*
X151000186Y-80569956D01*
X150859296Y-80859571D01*
X150777616Y-81171108D01*
X150758282Y-81492595D01*
X149535000Y-81492595D01*
X149535000Y-81268967D01*
X149472168Y-80953088D01*
X149348918Y-80655537D01*
X149169987Y-80387748D01*
X149076826Y-80294587D01*
X151444192Y-80294587D01*
X152400000Y-81250395D01*
X153355808Y-80294587D01*
X153260044Y-80030186D01*
X152970429Y-79889296D01*
X152658892Y-79807616D01*
X152337405Y-79788282D01*
X152018325Y-79832039D01*
X151713912Y-79937205D01*
X151539956Y-80030186D01*
X151444192Y-80294587D01*
X149076826Y-80294587D01*
X148942252Y-80160013D01*
X148674463Y-79981082D01*
X148376912Y-79857832D01*
X148061033Y-79795000D01*
X147738967Y-79795000D01*
X147423088Y-79857832D01*
X147125537Y-79981082D01*
X146857748Y-80160013D01*
X146630013Y-80387748D01*
X146451082Y-80655537D01*
X146327832Y-80953088D01*
X146265000Y-81268967D01*
X142345454Y-81268967D01*
X140047189Y-78970702D01*
X141974903Y-78970702D01*
X142046486Y-79214671D01*
X142301996Y-79335571D01*
X142576184Y-79404300D01*
X142858512Y-79418217D01*
X143138130Y-79376787D01*
X143404292Y-79281603D01*
X143529514Y-79214671D01*
X143601097Y-78970702D01*
X142788000Y-78157605D01*
X141974903Y-78970702D01*
X140047189Y-78970702D01*
X139813489Y-78737003D01*
X139789686Y-78707999D01*
X139673961Y-78613026D01*
X139541932Y-78542454D01*
X139398724Y-78499013D01*
X139343774Y-78444063D01*
X139174256Y-78330795D01*
X138985898Y-78252774D01*
X138785939Y-78213000D01*
X138582061Y-78213000D01*
X138382102Y-78252774D01*
X138193744Y-78330795D01*
X138024226Y-78444063D01*
X137880063Y-78588226D01*
X137766795Y-78757744D01*
X137688774Y-78946102D01*
X137649000Y-79146061D01*
X129030000Y-79146061D01*
X129030000Y-79031324D01*
X129033676Y-78994001D01*
X129030000Y-78956678D01*
X129030000Y-78956667D01*
X129019003Y-78845014D01*
X128975546Y-78701753D01*
X128904974Y-78569724D01*
X128810001Y-78453999D01*
X128694276Y-78359026D01*
X128562247Y-78288454D01*
X128418986Y-78244997D01*
X128270000Y-78230323D01*
X128121015Y-78244997D01*
X128040132Y-78269532D01*
X127977753Y-78288454D01*
X127845723Y-78359026D01*
X127758997Y-78430201D01*
X127758993Y-78430205D01*
X127730000Y-78453999D01*
X127706206Y-78482992D01*
X126487200Y-79701999D01*
X126154223Y-79701999D01*
X126217226Y-79549898D01*
X126257000Y-79349939D01*
X126257000Y-79146061D01*
X126217226Y-78946102D01*
X126139205Y-78757744D01*
X126025937Y-78588226D01*
X125881774Y-78444063D01*
X125712256Y-78330795D01*
X125523898Y-78252774D01*
X125323939Y-78213000D01*
X125120061Y-78213000D01*
X124920102Y-78252774D01*
X124731744Y-78330795D01*
X124571300Y-78438000D01*
X121176711Y-78438000D01*
X121055774Y-78317063D01*
X120886256Y-78203795D01*
X120697898Y-78125774D01*
X120497939Y-78086000D01*
X120294061Y-78086000D01*
X120094102Y-78125774D01*
X119905744Y-78203795D01*
X119736226Y-78317063D01*
X119592063Y-78461226D01*
X119478795Y-78630744D01*
X119400774Y-78819102D01*
X119361000Y-79019061D01*
X119361000Y-79090999D01*
X118560323Y-79090999D01*
X118523000Y-79087323D01*
X118485677Y-79090999D01*
X118485668Y-79090999D01*
X118374015Y-79101996D01*
X118230754Y-79145453D01*
X118098724Y-79216025D01*
X118018818Y-79281603D01*
X117983000Y-79310998D01*
X117959202Y-79339996D01*
X114514199Y-82785000D01*
X114452061Y-82785000D01*
X114252102Y-82824774D01*
X114063744Y-82902795D01*
X113894226Y-83016063D01*
X113750063Y-83160226D01*
X113730186Y-83189974D01*
X109854768Y-79314557D01*
X109953820Y-79367502D01*
X110073518Y-79403812D01*
X110198000Y-79416072D01*
X111798000Y-79416072D01*
X111922482Y-79403812D01*
X112042180Y-79367502D01*
X112152494Y-79308537D01*
X112249185Y-79229185D01*
X112328537Y-79132494D01*
X112387502Y-79022180D01*
X112403117Y-78970702D01*
X112684903Y-78970702D01*
X112756486Y-79214671D01*
X113011996Y-79335571D01*
X113286184Y-79404300D01*
X113568512Y-79418217D01*
X113848130Y-79376787D01*
X114114292Y-79281603D01*
X114239514Y-79214671D01*
X114311097Y-78970702D01*
X113498000Y-78157605D01*
X112684903Y-78970702D01*
X112403117Y-78970702D01*
X112423812Y-78902482D01*
X112436072Y-78778000D01*
X112436072Y-78770785D01*
X112505298Y-78791097D01*
X113318395Y-77978000D01*
X113677605Y-77978000D01*
X114490702Y-78791097D01*
X114734671Y-78719514D01*
X114855571Y-78464004D01*
X114924300Y-78189816D01*
X114931265Y-78048512D01*
X141347783Y-78048512D01*
X141389213Y-78328130D01*
X141484397Y-78594292D01*
X141551329Y-78719514D01*
X141795298Y-78791097D01*
X142608395Y-77978000D01*
X142967605Y-77978000D01*
X143780702Y-78791097D01*
X143849928Y-78770785D01*
X143849928Y-78778000D01*
X143862188Y-78902482D01*
X143898498Y-79022180D01*
X143957463Y-79132494D01*
X144036815Y-79229185D01*
X144133506Y-79308537D01*
X144243820Y-79367502D01*
X144363518Y-79403812D01*
X144488000Y-79416072D01*
X146088000Y-79416072D01*
X146212482Y-79403812D01*
X146332180Y-79367502D01*
X146442494Y-79308537D01*
X146539185Y-79229185D01*
X146618537Y-79132494D01*
X146677502Y-79022180D01*
X146713812Y-78902482D01*
X146726072Y-78778000D01*
X146726072Y-77178000D01*
X146713812Y-77053518D01*
X146677502Y-76933820D01*
X146618537Y-76823506D01*
X146539185Y-76726815D01*
X146442494Y-76647463D01*
X146332180Y-76588498D01*
X146212482Y-76552188D01*
X146088000Y-76539928D01*
X144488000Y-76539928D01*
X144363518Y-76552188D01*
X144243820Y-76588498D01*
X144133506Y-76647463D01*
X144036815Y-76726815D01*
X143957463Y-76823506D01*
X143898498Y-76933820D01*
X143862188Y-77053518D01*
X143849928Y-77178000D01*
X143849928Y-77185215D01*
X143780702Y-77164903D01*
X142967605Y-77978000D01*
X142608395Y-77978000D01*
X141795298Y-77164903D01*
X141551329Y-77236486D01*
X141430429Y-77491996D01*
X141361700Y-77766184D01*
X141347783Y-78048512D01*
X114931265Y-78048512D01*
X114938217Y-77907488D01*
X114896787Y-77627870D01*
X114801603Y-77361708D01*
X114734671Y-77236486D01*
X114490702Y-77164903D01*
X113677605Y-77978000D01*
X113318395Y-77978000D01*
X112505298Y-77164903D01*
X112436072Y-77185215D01*
X112436072Y-77178000D01*
X112423812Y-77053518D01*
X112403118Y-76985298D01*
X112684903Y-76985298D01*
X113498000Y-77798395D01*
X114311097Y-76985298D01*
X141974903Y-76985298D01*
X142788000Y-77798395D01*
X143601097Y-76985298D01*
X143529514Y-76741329D01*
X143274004Y-76620429D01*
X142999816Y-76551700D01*
X142717488Y-76537783D01*
X142437870Y-76579213D01*
X142171708Y-76674397D01*
X142046486Y-76741329D01*
X141974903Y-76985298D01*
X114311097Y-76985298D01*
X114239514Y-76741329D01*
X113984004Y-76620429D01*
X113709816Y-76551700D01*
X113427488Y-76537783D01*
X113147870Y-76579213D01*
X112881708Y-76674397D01*
X112756486Y-76741329D01*
X112684903Y-76985298D01*
X112403118Y-76985298D01*
X112387502Y-76933820D01*
X112328537Y-76823506D01*
X112249185Y-76726815D01*
X112152494Y-76647463D01*
X112042180Y-76588498D01*
X111922482Y-76552188D01*
X111798000Y-76539928D01*
X110198000Y-76539928D01*
X110073518Y-76552188D01*
X109953820Y-76588498D01*
X109843506Y-76647463D01*
X109746815Y-76726815D01*
X109667463Y-76823506D01*
X109608498Y-76933820D01*
X109572188Y-77053518D01*
X109559928Y-77178000D01*
X109559928Y-78778000D01*
X109572188Y-78902482D01*
X109608498Y-79022180D01*
X109661443Y-79121232D01*
X105309178Y-74768967D01*
X146265000Y-74768967D01*
X146265000Y-75091033D01*
X146327832Y-75406912D01*
X146451082Y-75704463D01*
X146630013Y-75972252D01*
X146857748Y-76199987D01*
X147125537Y-76378918D01*
X147423088Y-76502168D01*
X147738967Y-76565000D01*
X148061033Y-76565000D01*
X148376912Y-76502168D01*
X148674463Y-76378918D01*
X148942252Y-76199987D01*
X149076826Y-76065413D01*
X151444192Y-76065413D01*
X151539956Y-76329814D01*
X151829571Y-76470704D01*
X152141108Y-76552384D01*
X152462595Y-76571718D01*
X152781675Y-76527961D01*
X153086088Y-76422795D01*
X153260044Y-76329814D01*
X153355808Y-76065413D01*
X152400000Y-75109605D01*
X151444192Y-76065413D01*
X149076826Y-76065413D01*
X149169987Y-75972252D01*
X149348918Y-75704463D01*
X149472168Y-75406912D01*
X149535000Y-75091033D01*
X149535000Y-74992595D01*
X150758282Y-74992595D01*
X150802039Y-75311675D01*
X150907205Y-75616088D01*
X151000186Y-75790044D01*
X151264587Y-75885808D01*
X152220395Y-74930000D01*
X152579605Y-74930000D01*
X153535413Y-75885808D01*
X153799814Y-75790044D01*
X153940704Y-75500429D01*
X154022384Y-75188892D01*
X154041718Y-74867405D01*
X153997961Y-74548325D01*
X153892795Y-74243912D01*
X153799814Y-74069956D01*
X153535413Y-73974192D01*
X152579605Y-74930000D01*
X152220395Y-74930000D01*
X151264587Y-73974192D01*
X151000186Y-74069956D01*
X150859296Y-74359571D01*
X150777616Y-74671108D01*
X150758282Y-74992595D01*
X149535000Y-74992595D01*
X149535000Y-74768967D01*
X149472168Y-74453088D01*
X149348918Y-74155537D01*
X149169987Y-73887748D01*
X149076826Y-73794587D01*
X151444192Y-73794587D01*
X152400000Y-74750395D01*
X153355808Y-73794587D01*
X153260044Y-73530186D01*
X152970429Y-73389296D01*
X152658892Y-73307616D01*
X152337405Y-73288282D01*
X152018325Y-73332039D01*
X151713912Y-73437205D01*
X151539956Y-73530186D01*
X151444192Y-73794587D01*
X149076826Y-73794587D01*
X148942252Y-73660013D01*
X148674463Y-73481082D01*
X148376912Y-73357832D01*
X148061033Y-73295000D01*
X147738967Y-73295000D01*
X147423088Y-73357832D01*
X147125537Y-73481082D01*
X146857748Y-73660013D01*
X146630013Y-73887748D01*
X146451082Y-74155537D01*
X146327832Y-74453088D01*
X146265000Y-74768967D01*
X105309178Y-74768967D01*
X104197214Y-73657003D01*
X104173411Y-73627999D01*
X104057686Y-73533026D01*
X103925657Y-73462454D01*
X103782396Y-73418997D01*
X103670743Y-73408000D01*
X103670732Y-73408000D01*
X103633410Y-73404324D01*
X103596088Y-73408000D01*
X101481178Y-73408000D01*
X101356475Y-73221368D01*
X101149632Y-73014525D01*
X100975240Y-72898000D01*
X101149632Y-72781475D01*
X101356475Y-72574632D01*
X101518990Y-72331411D01*
X101630932Y-72061158D01*
X101688000Y-71774260D01*
X101688000Y-71481740D01*
X101630932Y-71194842D01*
X101518990Y-70924589D01*
X101356475Y-70681368D01*
X101149632Y-70474525D01*
X100906411Y-70312010D01*
X100636158Y-70200068D01*
X100349260Y-70143000D01*
X100056740Y-70143000D01*
X99769842Y-70200068D01*
X99499589Y-70312010D01*
X99256368Y-70474525D01*
X99049525Y-70681368D01*
X98887010Y-70924589D01*
X98775068Y-71194842D01*
X98718000Y-71481740D01*
X98718000Y-71774260D01*
X98775068Y-72061158D01*
X98887010Y-72331411D01*
X99049525Y-72574632D01*
X99256368Y-72781475D01*
X99430760Y-72898000D01*
X99256368Y-73014525D01*
X99049525Y-73221368D01*
X98924822Y-73408000D01*
X97544178Y-73408000D01*
X97419475Y-73221368D01*
X97212632Y-73014525D01*
X97038240Y-72898000D01*
X97212632Y-72781475D01*
X97419475Y-72574632D01*
X97581990Y-72331411D01*
X97693932Y-72061158D01*
X97751000Y-71774260D01*
X97751000Y-71481740D01*
X97693932Y-71194842D01*
X97581990Y-70924589D01*
X97419475Y-70681368D01*
X97212632Y-70474525D01*
X96969411Y-70312010D01*
X96699158Y-70200068D01*
X96412260Y-70143000D01*
X96119740Y-70143000D01*
X95832842Y-70200068D01*
X95562589Y-70312010D01*
X95319368Y-70474525D01*
X95112525Y-70681368D01*
X94950010Y-70924589D01*
X94838068Y-71194842D01*
X94781000Y-71481740D01*
X94781000Y-71774260D01*
X94838068Y-72061158D01*
X94950010Y-72331411D01*
X95112525Y-72574632D01*
X95319368Y-72781475D01*
X95493760Y-72898000D01*
X95319368Y-73014525D01*
X95112525Y-73221368D01*
X94950010Y-73464589D01*
X94838068Y-73734842D01*
X94781000Y-74021740D01*
X94781000Y-74314260D01*
X94838068Y-74601158D01*
X94950010Y-74871411D01*
X95112525Y-75114632D01*
X95319368Y-75321475D01*
X95493760Y-75438000D01*
X95319368Y-75554525D01*
X95112525Y-75761368D01*
X94950010Y-76004589D01*
X94838068Y-76274842D01*
X94781000Y-76561740D01*
X94781000Y-76854260D01*
X94838068Y-77141158D01*
X94950010Y-77411411D01*
X95112525Y-77654632D01*
X95319368Y-77861475D01*
X95501534Y-77983195D01*
X95384645Y-78052822D01*
X95168412Y-78247731D01*
X94994359Y-78481080D01*
X94869175Y-78743901D01*
X94824524Y-78891110D01*
X94945845Y-79121000D01*
X96139000Y-79121000D01*
X96139000Y-79101000D01*
X96393000Y-79101000D01*
X96393000Y-79121000D01*
X97586155Y-79121000D01*
X97707476Y-78891110D01*
X97662825Y-78743901D01*
X97537641Y-78481080D01*
X97363588Y-78247731D01*
X97147355Y-78052822D01*
X97030466Y-77983195D01*
X97212632Y-77861475D01*
X97419475Y-77654632D01*
X97544178Y-77468000D01*
X98924822Y-77468000D01*
X99049525Y-77654632D01*
X99256368Y-77861475D01*
X99438534Y-77983195D01*
X99321645Y-78052822D01*
X99105412Y-78247731D01*
X98931359Y-78481080D01*
X98806175Y-78743901D01*
X98761524Y-78891110D01*
X98882845Y-79121000D01*
X100076000Y-79121000D01*
X100076000Y-79101000D01*
X100330000Y-79101000D01*
X100330000Y-79121000D01*
X101523155Y-79121000D01*
X101644476Y-78891110D01*
X101599825Y-78743901D01*
X101474641Y-78481080D01*
X101300588Y-78247731D01*
X101084355Y-78052822D01*
X100967466Y-77983195D01*
X101149632Y-77861475D01*
X101356475Y-77654632D01*
X101481178Y-77468000D01*
X105222199Y-77468000D01*
X111121279Y-83367081D01*
X111015744Y-83410795D01*
X110846226Y-83524063D01*
X110702063Y-83668226D01*
X110588795Y-83837744D01*
X110534841Y-83967999D01*
X104545366Y-83967999D01*
X104435937Y-83804226D01*
X104291774Y-83660063D01*
X104122256Y-83546795D01*
X103933898Y-83468774D01*
X103733939Y-83429000D01*
X103530061Y-83429000D01*
X103330102Y-83468774D01*
X103141744Y-83546795D01*
X102972226Y-83660063D01*
X102828063Y-83804226D01*
X102714795Y-83973744D01*
X102636774Y-84162102D01*
X102597000Y-84362061D01*
X102597000Y-84565939D01*
X102636774Y-84765898D01*
X102714795Y-84954256D01*
X102828063Y-85123774D01*
X102972226Y-85267937D01*
X103141744Y-85381205D01*
X103330102Y-85459226D01*
X103530061Y-85499000D01*
X103565627Y-85499000D01*
X103480226Y-85556063D01*
X103336063Y-85700226D01*
X103315621Y-85730819D01*
X101691072Y-84106271D01*
X101691072Y-83478000D01*
X101678812Y-83353518D01*
X101642502Y-83233820D01*
X101583537Y-83123506D01*
X101504185Y-83026815D01*
X101407494Y-82947463D01*
X101297180Y-82888498D01*
X101224620Y-82866487D01*
X101356475Y-82734632D01*
X101518990Y-82491411D01*
X101630932Y-82221158D01*
X101688000Y-81934260D01*
X101688000Y-81641740D01*
X101630932Y-81354842D01*
X101518990Y-81084589D01*
X101356475Y-80841368D01*
X101149632Y-80634525D01*
X100967466Y-80512805D01*
X101084355Y-80443178D01*
X101300588Y-80248269D01*
X101474641Y-80014920D01*
X101599825Y-79752099D01*
X101644476Y-79604890D01*
X101523155Y-79375000D01*
X100330000Y-79375000D01*
X100330000Y-79395000D01*
X100076000Y-79395000D01*
X100076000Y-79375000D01*
X98882845Y-79375000D01*
X98761524Y-79604890D01*
X98806175Y-79752099D01*
X98931359Y-80014920D01*
X99105412Y-80248269D01*
X99321645Y-80443178D01*
X99438534Y-80512805D01*
X99256368Y-80634525D01*
X99049525Y-80841368D01*
X98924822Y-81028000D01*
X97544178Y-81028000D01*
X97419475Y-80841368D01*
X97212632Y-80634525D01*
X97030466Y-80512805D01*
X97147355Y-80443178D01*
X97363588Y-80248269D01*
X97537641Y-80014920D01*
X97662825Y-79752099D01*
X97707476Y-79604890D01*
X97586155Y-79375000D01*
X96393000Y-79375000D01*
X96393000Y-79395000D01*
X96139000Y-79395000D01*
X96139000Y-79375000D01*
X94945845Y-79375000D01*
X94824524Y-79604890D01*
X94869175Y-79752099D01*
X94994359Y-80014920D01*
X95168412Y-80248269D01*
X95384645Y-80443178D01*
X95501534Y-80512805D01*
X95319368Y-80634525D01*
X95112525Y-80841368D01*
X94950010Y-81084589D01*
X94838068Y-81354842D01*
X94781000Y-81641740D01*
X94781000Y-81934260D01*
X94838068Y-82221158D01*
X94950010Y-82491411D01*
X95112525Y-82734632D01*
X95244380Y-82866487D01*
X95171820Y-82888498D01*
X95061506Y-82947463D01*
X94964815Y-83026815D01*
X94885463Y-83123506D01*
X94826498Y-83233820D01*
X94790188Y-83353518D01*
X94777928Y-83478000D01*
X94777928Y-85178000D01*
X94790188Y-85302482D01*
X94826498Y-85422180D01*
X94885463Y-85532494D01*
X94964815Y-85629185D01*
X95061506Y-85708537D01*
X95171820Y-85767502D01*
X95291518Y-85803812D01*
X95416000Y-85816072D01*
X97116000Y-85816072D01*
X97240482Y-85803812D01*
X97360180Y-85767502D01*
X97470494Y-85708537D01*
X97567185Y-85629185D01*
X97646537Y-85532494D01*
X97705502Y-85422180D01*
X97741812Y-85302482D01*
X97754072Y-85178000D01*
X97754072Y-85088000D01*
X98714928Y-85088000D01*
X98714928Y-85178000D01*
X98727188Y-85302482D01*
X98763498Y-85422180D01*
X98822463Y-85532494D01*
X98901815Y-85629185D01*
X98998506Y-85708537D01*
X99108820Y-85767502D01*
X99228518Y-85803812D01*
X99353000Y-85816072D01*
X101053000Y-85816072D01*
X101177482Y-85803812D01*
X101224690Y-85789492D01*
X103126000Y-87690802D01*
X103126000Y-88721315D01*
X102990886Y-88586201D01*
X102764043Y-88434629D01*
X102511989Y-88330225D01*
X102244411Y-88277000D01*
X101971589Y-88277000D01*
X101704011Y-88330225D01*
X101451957Y-88434629D01*
X101225114Y-88586201D01*
X101032201Y-88779114D01*
X100880629Y-89005957D01*
X100776225Y-89258011D01*
X100723000Y-89525589D01*
X100723000Y-89798411D01*
X100776225Y-90065989D01*
X100880629Y-90318043D01*
X101032201Y-90544886D01*
X101225114Y-90737799D01*
X101451957Y-90889371D01*
X101704011Y-90993775D01*
X101971589Y-91047000D01*
X102244411Y-91047000D01*
X102511989Y-90993775D01*
X102764043Y-90889371D01*
X102990886Y-90737799D01*
X103126001Y-90602684D01*
X103126001Y-91783668D01*
X103122324Y-91821000D01*
X103126001Y-91858333D01*
X103136998Y-91969986D01*
X103145893Y-91999309D01*
X103180454Y-92113246D01*
X103251026Y-92245276D01*
X103306598Y-92312990D01*
X103346000Y-92361001D01*
X103374998Y-92384799D01*
X103486000Y-92495801D01*
X103486000Y-92557939D01*
X103525774Y-92757898D01*
X103603795Y-92946256D01*
X103717063Y-93115774D01*
X103861226Y-93259937D01*
X104030744Y-93373205D01*
X104219102Y-93451226D01*
X104333265Y-93473934D01*
X103374998Y-94432201D01*
X103346000Y-94455999D01*
X103322202Y-94484997D01*
X103322201Y-94484998D01*
X103251026Y-94571724D01*
X103180454Y-94703754D01*
X103163090Y-94760998D01*
X103137610Y-94844999D01*
X103136998Y-94847015D01*
X103122324Y-94996000D01*
X103126001Y-95033332D01*
X103126000Y-97701677D01*
X103122324Y-97739000D01*
X103126000Y-97776322D01*
X103126000Y-97776332D01*
X103136997Y-97887985D01*
X103169943Y-97996595D01*
X103180454Y-98031246D01*
X103251026Y-98163276D01*
X103282851Y-98202054D01*
X103345999Y-98279001D01*
X103375003Y-98302804D01*
X105151201Y-100079003D01*
X105174999Y-100108001D01*
X105203997Y-100131799D01*
X105290724Y-100202974D01*
X105405000Y-100264057D01*
X105405000Y-100912530D01*
X105400719Y-100956000D01*
X105405000Y-100999469D01*
X105405000Y-100999476D01*
X105405867Y-101008276D01*
X105417805Y-101129490D01*
X105423359Y-101147799D01*
X105468411Y-101296312D01*
X105550589Y-101450058D01*
X105661183Y-101584817D01*
X105694956Y-101612534D01*
X106277470Y-102195049D01*
X106305183Y-102228817D01*
X106338951Y-102256530D01*
X106338953Y-102256532D01*
X106439941Y-102339411D01*
X106593686Y-102421589D01*
X106717504Y-102459149D01*
X106760510Y-102472195D01*
X106765373Y-102472674D01*
X106749398Y-102502560D01*
X106713088Y-102622258D01*
X106700828Y-102746740D01*
X106700828Y-104246740D01*
X106706384Y-104303152D01*
X106700588Y-104322258D01*
X106688328Y-104446740D01*
X106688328Y-105146740D01*
X106700588Y-105271222D01*
X106736898Y-105390920D01*
X106738799Y-105394476D01*
X106594405Y-105570423D01*
X106472762Y-105798000D01*
X106397855Y-106044936D01*
X106378900Y-106237390D01*
X106378900Y-106716091D01*
X106397855Y-106908545D01*
X106472762Y-107155481D01*
X106594405Y-107383058D01*
X106758109Y-107582532D01*
X106770255Y-107592500D01*
X105381050Y-107592500D01*
X95581331Y-90618993D01*
X97930612Y-90618993D01*
X97996137Y-90857860D01*
X98243116Y-90973760D01*
X98507960Y-91039250D01*
X98780492Y-91051812D01*
X99050238Y-91010965D01*
X99306832Y-90918277D01*
X99419863Y-90857860D01*
X99485388Y-90618993D01*
X98708000Y-89841605D01*
X97930612Y-90618993D01*
X95581331Y-90618993D01*
X95070660Y-89734492D01*
X97318188Y-89734492D01*
X97359035Y-90004238D01*
X97451723Y-90260832D01*
X97512140Y-90373863D01*
X97751007Y-90439388D01*
X98528395Y-89662000D01*
X98887605Y-89662000D01*
X99664993Y-90439388D01*
X99903860Y-90373863D01*
X100019760Y-90126884D01*
X100085250Y-89862040D01*
X100097812Y-89589508D01*
X100056965Y-89319762D01*
X99964277Y-89063168D01*
X99903860Y-88950137D01*
X99664993Y-88884612D01*
X98887605Y-89662000D01*
X98528395Y-89662000D01*
X97751007Y-88884612D01*
X97512140Y-88950137D01*
X97396240Y-89197116D01*
X97330750Y-89461960D01*
X97318188Y-89734492D01*
X95070660Y-89734492D01*
X94476283Y-88705007D01*
X97930612Y-88705007D01*
X98708000Y-89482395D01*
X99485388Y-88705007D01*
X99419863Y-88466140D01*
X99172884Y-88350240D01*
X98908040Y-88284750D01*
X98635508Y-88272188D01*
X98365762Y-88313035D01*
X98109168Y-88405723D01*
X97996137Y-88466140D01*
X97930612Y-88705007D01*
X94476283Y-88705007D01*
X88262103Y-77941800D01*
X105381050Y-48291100D01*
X139618951Y-48291100D01*
X156737896Y-77941800D01*
G37*
X156737896Y-77941800D02*
X139618951Y-107592500D01*
X127731120Y-107592500D01*
X127731120Y-104369099D01*
X127734313Y-104336680D01*
X127721570Y-104207297D01*
X127683830Y-104082887D01*
X127622545Y-103968230D01*
X127540068Y-103867732D01*
X127439570Y-103785255D01*
X127324913Y-103723970D01*
X127200503Y-103686230D01*
X127103539Y-103676680D01*
X127071120Y-103673487D01*
X127038701Y-103676680D01*
X126449352Y-103676680D01*
X126449352Y-99912420D01*
X126437092Y-99787938D01*
X126400782Y-99668240D01*
X126341817Y-99557926D01*
X126262465Y-99461235D01*
X126165774Y-99381883D01*
X126055460Y-99322918D01*
X125935762Y-99286608D01*
X125811280Y-99274348D01*
X124426473Y-99274348D01*
X124569256Y-99215205D01*
X124738774Y-99101937D01*
X124882937Y-98957774D01*
X124996205Y-98788256D01*
X125074226Y-98599898D01*
X125114000Y-98399939D01*
X125114000Y-98196061D01*
X125074226Y-97996102D01*
X124996205Y-97807744D01*
X124882937Y-97638226D01*
X124785492Y-97540781D01*
X124820238Y-97456898D01*
X124860012Y-97256939D01*
X124860012Y-97053061D01*
X124820238Y-96853102D01*
X124799904Y-96804012D01*
X128272001Y-96804012D01*
X128272000Y-103404867D01*
X128268324Y-103442190D01*
X128272000Y-103479512D01*
X128272000Y-103479522D01*
X128282997Y-103591175D01*
X128323279Y-103723970D01*
X128326454Y-103734436D01*
X128397026Y-103866466D01*
X128410177Y-103882490D01*
X128491999Y-103982191D01*
X128521003Y-104005994D01*
X130200011Y-105685003D01*
X130223809Y-105714001D01*
X130339534Y-105808974D01*
X130471563Y-105879546D01*
X130542024Y-105900920D01*
X130485454Y-106006753D01*
X130441997Y-106150014D01*
X130427323Y-106299000D01*
X130441997Y-106447986D01*
X130485454Y-106591247D01*
X130556026Y-106723276D01*
X130650999Y-106839001D01*
X130766724Y-106933974D01*
X130898753Y-107004546D01*
X131042014Y-107048003D01*
X131153667Y-107059000D01*
X136191678Y-107059000D01*
X136229000Y-107062676D01*
X136266322Y-107059000D01*
X136266333Y-107059000D01*
X136377986Y-107048003D01*
X136521247Y-107004546D01*
X136653276Y-106933974D01*
X136769001Y-106839001D01*
X136792803Y-106809998D01*
X137215731Y-106387072D01*
X137229001Y-106387072D01*
X137402255Y-106370008D01*
X137568851Y-106319472D01*
X137722387Y-106237405D01*
X137856962Y-106126962D01*
X137967405Y-105992387D01*
X138049472Y-105838851D01*
X138100008Y-105672255D01*
X138117072Y-105499001D01*
X138117072Y-104848999D01*
X138100008Y-104675745D01*
X138049472Y-104509149D01*
X137967405Y-104355613D01*
X137856962Y-104221038D01*
X137769184Y-104149000D01*
X137856962Y-104076962D01*
X137967405Y-103942387D01*
X138049472Y-103788851D01*
X138091064Y-103651739D01*
X138104804Y-103634997D01*
X139866802Y-101873000D01*
X139928939Y-101873000D01*
X140128898Y-101833226D01*
X140317256Y-101755205D01*
X140486774Y-101641937D01*
X140630937Y-101497774D01*
X140744205Y-101328256D01*
X140822226Y-101139898D01*
X140862000Y-100939939D01*
X140862000Y-100736061D01*
X140822226Y-100536102D01*
X140744205Y-100347744D01*
X140630937Y-100178226D01*
X140486774Y-100034063D01*
X140317256Y-99920795D01*
X140128898Y-99842774D01*
X140092339Y-99835502D01*
X140100010Y-99796939D01*
X140100010Y-99593061D01*
X140060236Y-99393102D01*
X139982215Y-99204744D01*
X139868947Y-99035226D01*
X139724784Y-98891063D01*
X139555266Y-98777795D01*
X139366908Y-98699774D01*
X139166949Y-98660000D01*
X138963071Y-98660000D01*
X138763112Y-98699774D01*
X138574754Y-98777795D01*
X138405236Y-98891063D01*
X138361299Y-98935000D01*
X137511333Y-98935000D01*
X137474000Y-98931323D01*
X137436667Y-98935000D01*
X137325014Y-98945997D01*
X137181753Y-98989454D01*
X137049724Y-99060026D01*
X136933999Y-99154999D01*
X136910201Y-99183997D01*
X135139889Y-100954310D01*
X135107226Y-100790102D01*
X135029205Y-100601744D01*
X134915937Y-100432226D01*
X134771774Y-100288063D01*
X134602256Y-100174795D01*
X134413898Y-100096774D01*
X134213939Y-100057000D01*
X134151801Y-100057000D01*
X134110000Y-100015199D01*
X134110000Y-96754323D01*
X134113676Y-96716998D01*
X134110000Y-96679673D01*
X134110000Y-96679665D01*
X134101063Y-96588930D01*
X134191102Y-96626226D01*
X134391061Y-96666000D01*
X134594939Y-96666000D01*
X134794898Y-96626226D01*
X134983256Y-96548205D01*
X135152774Y-96434937D01*
X135296937Y-96290774D01*
X135410205Y-96121256D01*
X135488226Y-95932898D01*
X135528000Y-95732939D01*
X135528000Y-95546394D01*
X135682102Y-95610226D01*
X135882061Y-95650000D01*
X136085939Y-95650000D01*
X136285898Y-95610226D01*
X136474256Y-95532205D01*
X136643774Y-95418937D01*
X136787937Y-95274774D01*
X136901205Y-95105256D01*
X136979226Y-94916898D01*
X137019000Y-94716939D01*
X137019000Y-94654801D01*
X139285004Y-92388798D01*
X139314002Y-92365000D01*
X139408975Y-92249275D01*
X139479547Y-92117246D01*
X139523004Y-91973985D01*
X139534001Y-91862332D01*
X139534001Y-91862323D01*
X139537677Y-91825000D01*
X139534001Y-91787677D01*
X139534001Y-87903803D01*
X139935000Y-88304802D01*
X139935000Y-88366939D01*
X139974774Y-88566898D01*
X140052795Y-88755256D01*
X140166063Y-88924774D01*
X140310226Y-89068937D01*
X140479744Y-89182205D01*
X140668102Y-89260226D01*
X140868061Y-89300000D01*
X141071939Y-89300000D01*
X141271898Y-89260226D01*
X141460256Y-89182205D01*
X141629774Y-89068937D01*
X141773937Y-88924774D01*
X141887205Y-88755256D01*
X141965226Y-88566898D01*
X142005000Y-88366939D01*
X142005000Y-88163061D01*
X141965226Y-87963102D01*
X141887205Y-87774744D01*
X141773937Y-87605226D01*
X141629774Y-87461063D01*
X141460256Y-87347795D01*
X141271898Y-87269774D01*
X141071939Y-87230000D01*
X141009802Y-87230000D01*
X138386793Y-84606991D01*
X138331185Y-84472744D01*
X138217917Y-84303226D01*
X138073754Y-84159063D01*
X137904236Y-84045795D01*
X137715878Y-83967774D01*
X137515919Y-83928000D01*
X137312041Y-83928000D01*
X137112082Y-83967774D01*
X136923724Y-84045795D01*
X136754206Y-84159063D01*
X136610043Y-84303226D01*
X136496775Y-84472744D01*
X136450677Y-84584034D01*
X136450335Y-84584000D01*
X136450324Y-84584000D01*
X136413002Y-84580324D01*
X136375680Y-84584000D01*
X133607801Y-84584000D01*
X132332801Y-83309002D01*
X132308999Y-83279999D01*
X132193274Y-83185026D01*
X132061245Y-83114454D01*
X131917984Y-83070997D01*
X131806331Y-83060000D01*
X131806320Y-83060000D01*
X131768998Y-83056324D01*
X131731676Y-83060000D01*
X128969711Y-83060000D01*
X129073937Y-82955774D01*
X129187205Y-82786256D01*
X129265226Y-82597898D01*
X129305000Y-82397939D01*
X129305000Y-82194061D01*
X129265226Y-81994102D01*
X129187205Y-81805744D01*
X129073937Y-81636226D01*
X129030000Y-81592289D01*
X129030000Y-79146061D01*
X137649000Y-79146061D01*
X137649000Y-79349939D01*
X137688774Y-79549898D01*
X137766795Y-79738256D01*
X137880063Y-79907774D01*
X137979387Y-80007098D01*
X137958402Y-80057760D01*
X137918628Y-80257719D01*
X137918628Y-80461597D01*
X137958402Y-80661556D01*
X138036423Y-80849914D01*
X138149691Y-81019432D01*
X138193629Y-81063370D01*
X138193629Y-81512296D01*
X138189952Y-81549628D01*
X138193629Y-81586961D01*
X138203669Y-81688892D01*
X138204626Y-81698613D01*
X138248082Y-81841874D01*
X138318654Y-81973904D01*
X138376181Y-82044000D01*
X138413628Y-82089629D01*
X138442626Y-82113427D01*
X141168200Y-84839002D01*
X141191999Y-84868001D01*
X141307724Y-84962974D01*
X141439753Y-85033546D01*
X141583014Y-85077003D01*
X141694667Y-85088000D01*
X141694676Y-85088000D01*
X141731999Y-85091676D01*
X141769322Y-85088000D01*
X143568289Y-85088000D01*
X143612226Y-85131937D01*
X143781744Y-85245205D01*
X143970102Y-85323226D01*
X144170061Y-85363000D01*
X144373939Y-85363000D01*
X144573898Y-85323226D01*
X144762256Y-85245205D01*
X144931774Y-85131937D01*
X145075937Y-84987774D01*
X145189205Y-84818256D01*
X145267226Y-84629898D01*
X145307000Y-84429939D01*
X145307000Y-84226061D01*
X145267226Y-84026102D01*
X145189205Y-83837744D01*
X145075937Y-83668226D01*
X144931774Y-83524063D01*
X144762256Y-83410795D01*
X144644835Y-83362157D01*
X144690205Y-83294256D01*
X144768226Y-83105898D01*
X144808000Y-82905939D01*
X144808000Y-82702061D01*
X144768226Y-82502102D01*
X144690205Y-82313744D01*
X144576937Y-82144226D01*
X144432774Y-82000063D01*
X144263256Y-81886795D01*
X144074898Y-81808774D01*
X143874939Y-81769000D01*
X143671061Y-81769000D01*
X143471102Y-81808774D01*
X143282744Y-81886795D01*
X143113226Y-82000063D01*
X143094888Y-82018401D01*
X142345454Y-81268967D01*
X146265000Y-81268967D01*
X146265000Y-81591033D01*
X146327832Y-81906912D01*
X146451082Y-82204463D01*
X146630013Y-82472252D01*
X146857748Y-82699987D01*
X147125537Y-82878918D01*
X147423088Y-83002168D01*
X147738967Y-83065000D01*
X148061033Y-83065000D01*
X148376912Y-83002168D01*
X148674463Y-82878918D01*
X148942252Y-82699987D01*
X149076826Y-82565413D01*
X151444192Y-82565413D01*
X151539956Y-82829814D01*
X151829571Y-82970704D01*
X152141108Y-83052384D01*
X152462595Y-83071718D01*
X152781675Y-83027961D01*
X153086088Y-82922795D01*
X153260044Y-82829814D01*
X153355808Y-82565413D01*
X152400000Y-81609605D01*
X151444192Y-82565413D01*
X149076826Y-82565413D01*
X149169987Y-82472252D01*
X149348918Y-82204463D01*
X149472168Y-81906912D01*
X149535000Y-81591033D01*
X149535000Y-81492595D01*
X150758282Y-81492595D01*
X150802039Y-81811675D01*
X150907205Y-82116088D01*
X151000186Y-82290044D01*
X151264587Y-82385808D01*
X152220395Y-81430000D01*
X152579605Y-81430000D01*
X153535413Y-82385808D01*
X153799814Y-82290044D01*
X153940704Y-82000429D01*
X154022384Y-81688892D01*
X154041718Y-81367405D01*
X153997961Y-81048325D01*
X153892795Y-80743912D01*
X153799814Y-80569956D01*
X153535413Y-80474192D01*
X152579605Y-81430000D01*
X152220395Y-81430000D01*
X151264587Y-80474192D01*
X151000186Y-80569956D01*
X150859296Y-80859571D01*
X150777616Y-81171108D01*
X150758282Y-81492595D01*
X149535000Y-81492595D01*
X149535000Y-81268967D01*
X149472168Y-80953088D01*
X149348918Y-80655537D01*
X149169987Y-80387748D01*
X149076826Y-80294587D01*
X151444192Y-80294587D01*
X152400000Y-81250395D01*
X153355808Y-80294587D01*
X153260044Y-80030186D01*
X152970429Y-79889296D01*
X152658892Y-79807616D01*
X152337405Y-79788282D01*
X152018325Y-79832039D01*
X151713912Y-79937205D01*
X151539956Y-80030186D01*
X151444192Y-80294587D01*
X149076826Y-80294587D01*
X148942252Y-80160013D01*
X148674463Y-79981082D01*
X148376912Y-79857832D01*
X148061033Y-79795000D01*
X147738967Y-79795000D01*
X147423088Y-79857832D01*
X147125537Y-79981082D01*
X146857748Y-80160013D01*
X146630013Y-80387748D01*
X146451082Y-80655537D01*
X146327832Y-80953088D01*
X146265000Y-81268967D01*
X142345454Y-81268967D01*
X140047189Y-78970702D01*
X141974903Y-78970702D01*
X142046486Y-79214671D01*
X142301996Y-79335571D01*
X142576184Y-79404300D01*
X142858512Y-79418217D01*
X143138130Y-79376787D01*
X143404292Y-79281603D01*
X143529514Y-79214671D01*
X143601097Y-78970702D01*
X142788000Y-78157605D01*
X141974903Y-78970702D01*
X140047189Y-78970702D01*
X139813489Y-78737003D01*
X139789686Y-78707999D01*
X139673961Y-78613026D01*
X139541932Y-78542454D01*
X139398724Y-78499013D01*
X139343774Y-78444063D01*
X139174256Y-78330795D01*
X138985898Y-78252774D01*
X138785939Y-78213000D01*
X138582061Y-78213000D01*
X138382102Y-78252774D01*
X138193744Y-78330795D01*
X138024226Y-78444063D01*
X137880063Y-78588226D01*
X137766795Y-78757744D01*
X137688774Y-78946102D01*
X137649000Y-79146061D01*
X129030000Y-79146061D01*
X129030000Y-79031324D01*
X129033676Y-78994001D01*
X129030000Y-78956678D01*
X129030000Y-78956667D01*
X129019003Y-78845014D01*
X128975546Y-78701753D01*
X128904974Y-78569724D01*
X128810001Y-78453999D01*
X128694276Y-78359026D01*
X128562247Y-78288454D01*
X128418986Y-78244997D01*
X128270000Y-78230323D01*
X128121015Y-78244997D01*
X128040132Y-78269532D01*
X127977753Y-78288454D01*
X127845723Y-78359026D01*
X127758997Y-78430201D01*
X127758993Y-78430205D01*
X127730000Y-78453999D01*
X127706206Y-78482992D01*
X126487200Y-79701999D01*
X126154223Y-79701999D01*
X126217226Y-79549898D01*
X126257000Y-79349939D01*
X126257000Y-79146061D01*
X126217226Y-78946102D01*
X126139205Y-78757744D01*
X126025937Y-78588226D01*
X125881774Y-78444063D01*
X125712256Y-78330795D01*
X125523898Y-78252774D01*
X125323939Y-78213000D01*
X125120061Y-78213000D01*
X124920102Y-78252774D01*
X124731744Y-78330795D01*
X124571300Y-78438000D01*
X121176711Y-78438000D01*
X121055774Y-78317063D01*
X120886256Y-78203795D01*
X120697898Y-78125774D01*
X120497939Y-78086000D01*
X120294061Y-78086000D01*
X120094102Y-78125774D01*
X119905744Y-78203795D01*
X119736226Y-78317063D01*
X119592063Y-78461226D01*
X119478795Y-78630744D01*
X119400774Y-78819102D01*
X119361000Y-79019061D01*
X119361000Y-79090999D01*
X118560323Y-79090999D01*
X118523000Y-79087323D01*
X118485677Y-79090999D01*
X118485668Y-79090999D01*
X118374015Y-79101996D01*
X118230754Y-79145453D01*
X118098724Y-79216025D01*
X118018818Y-79281603D01*
X117983000Y-79310998D01*
X117959202Y-79339996D01*
X114514199Y-82785000D01*
X114452061Y-82785000D01*
X114252102Y-82824774D01*
X114063744Y-82902795D01*
X113894226Y-83016063D01*
X113750063Y-83160226D01*
X113730186Y-83189974D01*
X109854768Y-79314557D01*
X109953820Y-79367502D01*
X110073518Y-79403812D01*
X110198000Y-79416072D01*
X111798000Y-79416072D01*
X111922482Y-79403812D01*
X112042180Y-79367502D01*
X112152494Y-79308537D01*
X112249185Y-79229185D01*
X112328537Y-79132494D01*
X112387502Y-79022180D01*
X112403117Y-78970702D01*
X112684903Y-78970702D01*
X112756486Y-79214671D01*
X113011996Y-79335571D01*
X113286184Y-79404300D01*
X113568512Y-79418217D01*
X113848130Y-79376787D01*
X114114292Y-79281603D01*
X114239514Y-79214671D01*
X114311097Y-78970702D01*
X113498000Y-78157605D01*
X112684903Y-78970702D01*
X112403117Y-78970702D01*
X112423812Y-78902482D01*
X112436072Y-78778000D01*
X112436072Y-78770785D01*
X112505298Y-78791097D01*
X113318395Y-77978000D01*
X113677605Y-77978000D01*
X114490702Y-78791097D01*
X114734671Y-78719514D01*
X114855571Y-78464004D01*
X114924300Y-78189816D01*
X114931265Y-78048512D01*
X141347783Y-78048512D01*
X141389213Y-78328130D01*
X141484397Y-78594292D01*
X141551329Y-78719514D01*
X141795298Y-78791097D01*
X142608395Y-77978000D01*
X142967605Y-77978000D01*
X143780702Y-78791097D01*
X143849928Y-78770785D01*
X143849928Y-78778000D01*
X143862188Y-78902482D01*
X143898498Y-79022180D01*
X143957463Y-79132494D01*
X144036815Y-79229185D01*
X144133506Y-79308537D01*
X144243820Y-79367502D01*
X144363518Y-79403812D01*
X144488000Y-79416072D01*
X146088000Y-79416072D01*
X146212482Y-79403812D01*
X146332180Y-79367502D01*
X146442494Y-79308537D01*
X146539185Y-79229185D01*
X146618537Y-79132494D01*
X146677502Y-79022180D01*
X146713812Y-78902482D01*
X146726072Y-78778000D01*
X146726072Y-77178000D01*
X146713812Y-77053518D01*
X146677502Y-76933820D01*
X146618537Y-76823506D01*
X146539185Y-76726815D01*
X146442494Y-76647463D01*
X146332180Y-76588498D01*
X146212482Y-76552188D01*
X146088000Y-76539928D01*
X144488000Y-76539928D01*
X144363518Y-76552188D01*
X144243820Y-76588498D01*
X144133506Y-76647463D01*
X144036815Y-76726815D01*
X143957463Y-76823506D01*
X143898498Y-76933820D01*
X143862188Y-77053518D01*
X143849928Y-77178000D01*
X143849928Y-77185215D01*
X143780702Y-77164903D01*
X142967605Y-77978000D01*
X142608395Y-77978000D01*
X141795298Y-77164903D01*
X141551329Y-77236486D01*
X141430429Y-77491996D01*
X141361700Y-77766184D01*
X141347783Y-78048512D01*
X114931265Y-78048512D01*
X114938217Y-77907488D01*
X114896787Y-77627870D01*
X114801603Y-77361708D01*
X114734671Y-77236486D01*
X114490702Y-77164903D01*
X113677605Y-77978000D01*
X113318395Y-77978000D01*
X112505298Y-77164903D01*
X112436072Y-77185215D01*
X112436072Y-77178000D01*
X112423812Y-77053518D01*
X112403118Y-76985298D01*
X112684903Y-76985298D01*
X113498000Y-77798395D01*
X114311097Y-76985298D01*
X141974903Y-76985298D01*
X142788000Y-77798395D01*
X143601097Y-76985298D01*
X143529514Y-76741329D01*
X143274004Y-76620429D01*
X142999816Y-76551700D01*
X142717488Y-76537783D01*
X142437870Y-76579213D01*
X142171708Y-76674397D01*
X142046486Y-76741329D01*
X141974903Y-76985298D01*
X114311097Y-76985298D01*
X114239514Y-76741329D01*
X113984004Y-76620429D01*
X113709816Y-76551700D01*
X113427488Y-76537783D01*
X113147870Y-76579213D01*
X112881708Y-76674397D01*
X112756486Y-76741329D01*
X112684903Y-76985298D01*
X112403118Y-76985298D01*
X112387502Y-76933820D01*
X112328537Y-76823506D01*
X112249185Y-76726815D01*
X112152494Y-76647463D01*
X112042180Y-76588498D01*
X111922482Y-76552188D01*
X111798000Y-76539928D01*
X110198000Y-76539928D01*
X110073518Y-76552188D01*
X109953820Y-76588498D01*
X109843506Y-76647463D01*
X109746815Y-76726815D01*
X109667463Y-76823506D01*
X109608498Y-76933820D01*
X109572188Y-77053518D01*
X109559928Y-77178000D01*
X109559928Y-78778000D01*
X109572188Y-78902482D01*
X109608498Y-79022180D01*
X109661443Y-79121232D01*
X105309178Y-74768967D01*
X146265000Y-74768967D01*
X146265000Y-75091033D01*
X146327832Y-75406912D01*
X146451082Y-75704463D01*
X146630013Y-75972252D01*
X146857748Y-76199987D01*
X147125537Y-76378918D01*
X147423088Y-76502168D01*
X147738967Y-76565000D01*
X148061033Y-76565000D01*
X148376912Y-76502168D01*
X148674463Y-76378918D01*
X148942252Y-76199987D01*
X149076826Y-76065413D01*
X151444192Y-76065413D01*
X151539956Y-76329814D01*
X151829571Y-76470704D01*
X152141108Y-76552384D01*
X152462595Y-76571718D01*
X152781675Y-76527961D01*
X153086088Y-76422795D01*
X153260044Y-76329814D01*
X153355808Y-76065413D01*
X152400000Y-75109605D01*
X151444192Y-76065413D01*
X149076826Y-76065413D01*
X149169987Y-75972252D01*
X149348918Y-75704463D01*
X149472168Y-75406912D01*
X149535000Y-75091033D01*
X149535000Y-74992595D01*
X150758282Y-74992595D01*
X150802039Y-75311675D01*
X150907205Y-75616088D01*
X151000186Y-75790044D01*
X151264587Y-75885808D01*
X152220395Y-74930000D01*
X152579605Y-74930000D01*
X153535413Y-75885808D01*
X153799814Y-75790044D01*
X153940704Y-75500429D01*
X154022384Y-75188892D01*
X154041718Y-74867405D01*
X153997961Y-74548325D01*
X153892795Y-74243912D01*
X153799814Y-74069956D01*
X153535413Y-73974192D01*
X152579605Y-74930000D01*
X152220395Y-74930000D01*
X151264587Y-73974192D01*
X151000186Y-74069956D01*
X150859296Y-74359571D01*
X150777616Y-74671108D01*
X150758282Y-74992595D01*
X149535000Y-74992595D01*
X149535000Y-74768967D01*
X149472168Y-74453088D01*
X149348918Y-74155537D01*
X149169987Y-73887748D01*
X149076826Y-73794587D01*
X151444192Y-73794587D01*
X152400000Y-74750395D01*
X153355808Y-73794587D01*
X153260044Y-73530186D01*
X152970429Y-73389296D01*
X152658892Y-73307616D01*
X152337405Y-73288282D01*
X152018325Y-73332039D01*
X151713912Y-73437205D01*
X151539956Y-73530186D01*
X151444192Y-73794587D01*
X149076826Y-73794587D01*
X148942252Y-73660013D01*
X148674463Y-73481082D01*
X148376912Y-73357832D01*
X148061033Y-73295000D01*
X147738967Y-73295000D01*
X147423088Y-73357832D01*
X147125537Y-73481082D01*
X146857748Y-73660013D01*
X146630013Y-73887748D01*
X146451082Y-74155537D01*
X146327832Y-74453088D01*
X146265000Y-74768967D01*
X105309178Y-74768967D01*
X104197214Y-73657003D01*
X104173411Y-73627999D01*
X104057686Y-73533026D01*
X103925657Y-73462454D01*
X103782396Y-73418997D01*
X103670743Y-73408000D01*
X103670732Y-73408000D01*
X103633410Y-73404324D01*
X103596088Y-73408000D01*
X101481178Y-73408000D01*
X101356475Y-73221368D01*
X101149632Y-73014525D01*
X100975240Y-72898000D01*
X101149632Y-72781475D01*
X101356475Y-72574632D01*
X101518990Y-72331411D01*
X101630932Y-72061158D01*
X101688000Y-71774260D01*
X101688000Y-71481740D01*
X101630932Y-71194842D01*
X101518990Y-70924589D01*
X101356475Y-70681368D01*
X101149632Y-70474525D01*
X100906411Y-70312010D01*
X100636158Y-70200068D01*
X100349260Y-70143000D01*
X100056740Y-70143000D01*
X99769842Y-70200068D01*
X99499589Y-70312010D01*
X99256368Y-70474525D01*
X99049525Y-70681368D01*
X98887010Y-70924589D01*
X98775068Y-71194842D01*
X98718000Y-71481740D01*
X98718000Y-71774260D01*
X98775068Y-72061158D01*
X98887010Y-72331411D01*
X99049525Y-72574632D01*
X99256368Y-72781475D01*
X99430760Y-72898000D01*
X99256368Y-73014525D01*
X99049525Y-73221368D01*
X98924822Y-73408000D01*
X97544178Y-73408000D01*
X97419475Y-73221368D01*
X97212632Y-73014525D01*
X97038240Y-72898000D01*
X97212632Y-72781475D01*
X97419475Y-72574632D01*
X97581990Y-72331411D01*
X97693932Y-72061158D01*
X97751000Y-71774260D01*
X97751000Y-71481740D01*
X97693932Y-71194842D01*
X97581990Y-70924589D01*
X97419475Y-70681368D01*
X97212632Y-70474525D01*
X96969411Y-70312010D01*
X96699158Y-70200068D01*
X96412260Y-70143000D01*
X96119740Y-70143000D01*
X95832842Y-70200068D01*
X95562589Y-70312010D01*
X95319368Y-70474525D01*
X95112525Y-70681368D01*
X94950010Y-70924589D01*
X94838068Y-71194842D01*
X94781000Y-71481740D01*
X94781000Y-71774260D01*
X94838068Y-72061158D01*
X94950010Y-72331411D01*
X95112525Y-72574632D01*
X95319368Y-72781475D01*
X95493760Y-72898000D01*
X95319368Y-73014525D01*
X95112525Y-73221368D01*
X94950010Y-73464589D01*
X94838068Y-73734842D01*
X94781000Y-74021740D01*
X94781000Y-74314260D01*
X94838068Y-74601158D01*
X94950010Y-74871411D01*
X95112525Y-75114632D01*
X95319368Y-75321475D01*
X95493760Y-75438000D01*
X95319368Y-75554525D01*
X95112525Y-75761368D01*
X94950010Y-76004589D01*
X94838068Y-76274842D01*
X94781000Y-76561740D01*
X94781000Y-76854260D01*
X94838068Y-77141158D01*
X94950010Y-77411411D01*
X95112525Y-77654632D01*
X95319368Y-77861475D01*
X95501534Y-77983195D01*
X95384645Y-78052822D01*
X95168412Y-78247731D01*
X94994359Y-78481080D01*
X94869175Y-78743901D01*
X94824524Y-78891110D01*
X94945845Y-79121000D01*
X96139000Y-79121000D01*
X96139000Y-79101000D01*
X96393000Y-79101000D01*
X96393000Y-79121000D01*
X97586155Y-79121000D01*
X97707476Y-78891110D01*
X97662825Y-78743901D01*
X97537641Y-78481080D01*
X97363588Y-78247731D01*
X97147355Y-78052822D01*
X97030466Y-77983195D01*
X97212632Y-77861475D01*
X97419475Y-77654632D01*
X97544178Y-77468000D01*
X98924822Y-77468000D01*
X99049525Y-77654632D01*
X99256368Y-77861475D01*
X99438534Y-77983195D01*
X99321645Y-78052822D01*
X99105412Y-78247731D01*
X98931359Y-78481080D01*
X98806175Y-78743901D01*
X98761524Y-78891110D01*
X98882845Y-79121000D01*
X100076000Y-79121000D01*
X100076000Y-79101000D01*
X100330000Y-79101000D01*
X100330000Y-79121000D01*
X101523155Y-79121000D01*
X101644476Y-78891110D01*
X101599825Y-78743901D01*
X101474641Y-78481080D01*
X101300588Y-78247731D01*
X101084355Y-78052822D01*
X100967466Y-77983195D01*
X101149632Y-77861475D01*
X101356475Y-77654632D01*
X101481178Y-77468000D01*
X105222199Y-77468000D01*
X111121279Y-83367081D01*
X111015744Y-83410795D01*
X110846226Y-83524063D01*
X110702063Y-83668226D01*
X110588795Y-83837744D01*
X110534841Y-83967999D01*
X104545366Y-83967999D01*
X104435937Y-83804226D01*
X104291774Y-83660063D01*
X104122256Y-83546795D01*
X103933898Y-83468774D01*
X103733939Y-83429000D01*
X103530061Y-83429000D01*
X103330102Y-83468774D01*
X103141744Y-83546795D01*
X102972226Y-83660063D01*
X102828063Y-83804226D01*
X102714795Y-83973744D01*
X102636774Y-84162102D01*
X102597000Y-84362061D01*
X102597000Y-84565939D01*
X102636774Y-84765898D01*
X102714795Y-84954256D01*
X102828063Y-85123774D01*
X102972226Y-85267937D01*
X103141744Y-85381205D01*
X103330102Y-85459226D01*
X103530061Y-85499000D01*
X103565627Y-85499000D01*
X103480226Y-85556063D01*
X103336063Y-85700226D01*
X103315621Y-85730819D01*
X101691072Y-84106271D01*
X101691072Y-83478000D01*
X101678812Y-83353518D01*
X101642502Y-83233820D01*
X101583537Y-83123506D01*
X101504185Y-83026815D01*
X101407494Y-82947463D01*
X101297180Y-82888498D01*
X101224620Y-82866487D01*
X101356475Y-82734632D01*
X101518990Y-82491411D01*
X101630932Y-82221158D01*
X101688000Y-81934260D01*
X101688000Y-81641740D01*
X101630932Y-81354842D01*
X101518990Y-81084589D01*
X101356475Y-80841368D01*
X101149632Y-80634525D01*
X100967466Y-80512805D01*
X101084355Y-80443178D01*
X101300588Y-80248269D01*
X101474641Y-80014920D01*
X101599825Y-79752099D01*
X101644476Y-79604890D01*
X101523155Y-79375000D01*
X100330000Y-79375000D01*
X100330000Y-79395000D01*
X100076000Y-79395000D01*
X100076000Y-79375000D01*
X98882845Y-79375000D01*
X98761524Y-79604890D01*
X98806175Y-79752099D01*
X98931359Y-80014920D01*
X99105412Y-80248269D01*
X99321645Y-80443178D01*
X99438534Y-80512805D01*
X99256368Y-80634525D01*
X99049525Y-80841368D01*
X98924822Y-81028000D01*
X97544178Y-81028000D01*
X97419475Y-80841368D01*
X97212632Y-80634525D01*
X97030466Y-80512805D01*
X97147355Y-80443178D01*
X97363588Y-80248269D01*
X97537641Y-80014920D01*
X97662825Y-79752099D01*
X97707476Y-79604890D01*
X97586155Y-79375000D01*
X96393000Y-79375000D01*
X96393000Y-79395000D01*
X96139000Y-79395000D01*
X96139000Y-79375000D01*
X94945845Y-79375000D01*
X94824524Y-79604890D01*
X94869175Y-79752099D01*
X94994359Y-80014920D01*
X95168412Y-80248269D01*
X95384645Y-80443178D01*
X95501534Y-80512805D01*
X95319368Y-80634525D01*
X95112525Y-80841368D01*
X94950010Y-81084589D01*
X94838068Y-81354842D01*
X94781000Y-81641740D01*
X94781000Y-81934260D01*
X94838068Y-82221158D01*
X94950010Y-82491411D01*
X95112525Y-82734632D01*
X95244380Y-82866487D01*
X95171820Y-82888498D01*
X95061506Y-82947463D01*
X94964815Y-83026815D01*
X94885463Y-83123506D01*
X94826498Y-83233820D01*
X94790188Y-83353518D01*
X94777928Y-83478000D01*
X94777928Y-85178000D01*
X94790188Y-85302482D01*
X94826498Y-85422180D01*
X94885463Y-85532494D01*
X94964815Y-85629185D01*
X95061506Y-85708537D01*
X95171820Y-85767502D01*
X95291518Y-85803812D01*
X95416000Y-85816072D01*
X97116000Y-85816072D01*
X97240482Y-85803812D01*
X97360180Y-85767502D01*
X97470494Y-85708537D01*
X97567185Y-85629185D01*
X97646537Y-85532494D01*
X97705502Y-85422180D01*
X97741812Y-85302482D01*
X97754072Y-85178000D01*
X97754072Y-85088000D01*
X98714928Y-85088000D01*
X98714928Y-85178000D01*
X98727188Y-85302482D01*
X98763498Y-85422180D01*
X98822463Y-85532494D01*
X98901815Y-85629185D01*
X98998506Y-85708537D01*
X99108820Y-85767502D01*
X99228518Y-85803812D01*
X99353000Y-85816072D01*
X101053000Y-85816072D01*
X101177482Y-85803812D01*
X101224690Y-85789492D01*
X103126000Y-87690802D01*
X103126000Y-88721315D01*
X102990886Y-88586201D01*
X102764043Y-88434629D01*
X102511989Y-88330225D01*
X102244411Y-88277000D01*
X101971589Y-88277000D01*
X101704011Y-88330225D01*
X101451957Y-88434629D01*
X101225114Y-88586201D01*
X101032201Y-88779114D01*
X100880629Y-89005957D01*
X100776225Y-89258011D01*
X100723000Y-89525589D01*
X100723000Y-89798411D01*
X100776225Y-90065989D01*
X100880629Y-90318043D01*
X101032201Y-90544886D01*
X101225114Y-90737799D01*
X101451957Y-90889371D01*
X101704011Y-90993775D01*
X101971589Y-91047000D01*
X102244411Y-91047000D01*
X102511989Y-90993775D01*
X102764043Y-90889371D01*
X102990886Y-90737799D01*
X103126001Y-90602684D01*
X103126001Y-91783668D01*
X103122324Y-91821000D01*
X103126001Y-91858333D01*
X103136998Y-91969986D01*
X103145893Y-91999309D01*
X103180454Y-92113246D01*
X103251026Y-92245276D01*
X103306598Y-92312990D01*
X103346000Y-92361001D01*
X103374998Y-92384799D01*
X103486000Y-92495801D01*
X103486000Y-92557939D01*
X103525774Y-92757898D01*
X103603795Y-92946256D01*
X103717063Y-93115774D01*
X103861226Y-93259937D01*
X104030744Y-93373205D01*
X104219102Y-93451226D01*
X104333265Y-93473934D01*
X103374998Y-94432201D01*
X103346000Y-94455999D01*
X103322202Y-94484997D01*
X103322201Y-94484998D01*
X103251026Y-94571724D01*
X103180454Y-94703754D01*
X103163090Y-94760998D01*
X103137610Y-94844999D01*
X103136998Y-94847015D01*
X103122324Y-94996000D01*
X103126001Y-95033332D01*
X103126000Y-97701677D01*
X103122324Y-97739000D01*
X103126000Y-97776322D01*
X103126000Y-97776332D01*
X103136997Y-97887985D01*
X103169943Y-97996595D01*
X103180454Y-98031246D01*
X103251026Y-98163276D01*
X103282851Y-98202054D01*
X103345999Y-98279001D01*
X103375003Y-98302804D01*
X105151201Y-100079003D01*
X105174999Y-100108001D01*
X105203997Y-100131799D01*
X105290724Y-100202974D01*
X105405000Y-100264057D01*
X105405000Y-100912530D01*
X105400719Y-100956000D01*
X105405000Y-100999469D01*
X105405000Y-100999476D01*
X105405867Y-101008276D01*
X105417805Y-101129490D01*
X105423359Y-101147799D01*
X105468411Y-101296312D01*
X105550589Y-101450058D01*
X105661183Y-101584817D01*
X105694956Y-101612534D01*
X106277470Y-102195049D01*
X106305183Y-102228817D01*
X106338951Y-102256530D01*
X106338953Y-102256532D01*
X106439941Y-102339411D01*
X106593686Y-102421589D01*
X106717504Y-102459149D01*
X106760510Y-102472195D01*
X106765373Y-102472674D01*
X106749398Y-102502560D01*
X106713088Y-102622258D01*
X106700828Y-102746740D01*
X106700828Y-104246740D01*
X106706384Y-104303152D01*
X106700588Y-104322258D01*
X106688328Y-104446740D01*
X106688328Y-105146740D01*
X106700588Y-105271222D01*
X106736898Y-105390920D01*
X106738799Y-105394476D01*
X106594405Y-105570423D01*
X106472762Y-105798000D01*
X106397855Y-106044936D01*
X106378900Y-106237390D01*
X106378900Y-106716091D01*
X106397855Y-106908545D01*
X106472762Y-107155481D01*
X106594405Y-107383058D01*
X106758109Y-107582532D01*
X106770255Y-107592500D01*
X105381050Y-107592500D01*
X95581331Y-90618993D01*
X97930612Y-90618993D01*
X97996137Y-90857860D01*
X98243116Y-90973760D01*
X98507960Y-91039250D01*
X98780492Y-91051812D01*
X99050238Y-91010965D01*
X99306832Y-90918277D01*
X99419863Y-90857860D01*
X99485388Y-90618993D01*
X98708000Y-89841605D01*
X97930612Y-90618993D01*
X95581331Y-90618993D01*
X95070660Y-89734492D01*
X97318188Y-89734492D01*
X97359035Y-90004238D01*
X97451723Y-90260832D01*
X97512140Y-90373863D01*
X97751007Y-90439388D01*
X98528395Y-89662000D01*
X98887605Y-89662000D01*
X99664993Y-90439388D01*
X99903860Y-90373863D01*
X100019760Y-90126884D01*
X100085250Y-89862040D01*
X100097812Y-89589508D01*
X100056965Y-89319762D01*
X99964277Y-89063168D01*
X99903860Y-88950137D01*
X99664993Y-88884612D01*
X98887605Y-89662000D01*
X98528395Y-89662000D01*
X97751007Y-88884612D01*
X97512140Y-88950137D01*
X97396240Y-89197116D01*
X97330750Y-89461960D01*
X97318188Y-89734492D01*
X95070660Y-89734492D01*
X94476283Y-88705007D01*
X97930612Y-88705007D01*
X98708000Y-89482395D01*
X99485388Y-88705007D01*
X99419863Y-88466140D01*
X99172884Y-88350240D01*
X98908040Y-88284750D01*
X98635508Y-88272188D01*
X98365762Y-88313035D01*
X98109168Y-88405723D01*
X97996137Y-88466140D01*
X97930612Y-88705007D01*
X94476283Y-88705007D01*
X88262103Y-77941800D01*
X105381050Y-48291100D01*
X139618951Y-48291100D01*
X156737896Y-77941800D01*
G36*
X142241890Y-83315008D02*
G01*
X142265684Y-83344001D01*
X142294677Y-83367795D01*
X142294681Y-83367799D01*
X142347073Y-83410795D01*
X142381409Y-83438974D01*
X142513438Y-83509546D01*
X142656699Y-83553003D01*
X142768352Y-83564000D01*
X142768361Y-83564000D01*
X142805684Y-83567676D01*
X142843007Y-83564000D01*
X143069289Y-83564000D01*
X143073289Y-83568000D01*
X142046802Y-83568000D01*
X139713628Y-81234827D01*
X139713628Y-81063369D01*
X139757565Y-81019432D01*
X139833168Y-80906284D01*
X142241890Y-83315008D01*
G37*
X142241890Y-83315008D02*
X142265684Y-83344001D01*
X142294677Y-83367795D01*
X142294681Y-83367799D01*
X142347073Y-83410795D01*
X142381409Y-83438974D01*
X142513438Y-83509546D01*
X142656699Y-83553003D01*
X142768352Y-83564000D01*
X142768361Y-83564000D01*
X142805684Y-83567676D01*
X142843007Y-83564000D01*
X143069289Y-83564000D01*
X143073289Y-83568000D01*
X142046802Y-83568000D01*
X139713628Y-81234827D01*
X139713628Y-81063369D01*
X139757565Y-81019432D01*
X139833168Y-80906284D01*
X142241890Y-83315008D01*
G36*
X117993795Y-98844258D02*
G01*
X118107063Y-99013776D01*
X118251226Y-99157939D01*
X118420744Y-99271207D01*
X118609102Y-99349228D01*
X118809061Y-99389002D01*
X118844111Y-99389002D01*
X118756095Y-99461235D01*
X118676743Y-99557926D01*
X118617778Y-99668240D01*
X118581468Y-99787938D01*
X118569208Y-99912420D01*
X118569208Y-103676680D01*
X117959539Y-103676680D01*
X117927120Y-103673487D01*
X117894701Y-103676680D01*
X117797737Y-103686230D01*
X117673327Y-103723970D01*
X117558670Y-103785255D01*
X117458172Y-103867732D01*
X117375695Y-103968230D01*
X117314410Y-104082887D01*
X117276670Y-104207297D01*
X117263927Y-104336680D01*
X117267121Y-104369109D01*
X117267120Y-107592500D01*
X115607546Y-107592500D01*
X115619692Y-107582532D01*
X115783395Y-107383058D01*
X115905038Y-107155480D01*
X115979945Y-106908544D01*
X115998900Y-106716090D01*
X115998900Y-106237389D01*
X115979945Y-106044935D01*
X115905038Y-105797999D01*
X115783395Y-105570422D01*
X115669280Y-105431371D01*
X115690902Y-105390920D01*
X115727212Y-105271222D01*
X115739472Y-105146740D01*
X115739472Y-104446740D01*
X115727212Y-104322258D01*
X115719929Y-104298250D01*
X115726972Y-104226740D01*
X115726972Y-102726740D01*
X115714712Y-102602258D01*
X115678402Y-102482560D01*
X115619437Y-102372246D01*
X115540085Y-102275555D01*
X115443394Y-102196203D01*
X115382360Y-102163579D01*
X115504962Y-102062962D01*
X115510613Y-102056076D01*
X115642613Y-102164405D01*
X115796149Y-102246472D01*
X115962745Y-102297008D01*
X116135999Y-102314072D01*
X117036001Y-102314072D01*
X117209255Y-102297008D01*
X117375851Y-102246472D01*
X117529387Y-102164405D01*
X117663962Y-102053962D01*
X117774405Y-101919387D01*
X117856472Y-101765851D01*
X117907008Y-101599255D01*
X117924072Y-101426001D01*
X117924072Y-100775999D01*
X117907008Y-100602745D01*
X117856472Y-100436149D01*
X117774405Y-100282613D01*
X117663962Y-100148038D01*
X117576184Y-100076000D01*
X117663962Y-100003962D01*
X117774405Y-99869387D01*
X117856472Y-99715851D01*
X117907008Y-99549255D01*
X117924072Y-99376001D01*
X117924072Y-98725999D01*
X117917603Y-98660315D01*
X117993795Y-98844258D01*
G37*
X117993795Y-98844258D02*
X118107063Y-99013776D01*
X118251226Y-99157939D01*
X118420744Y-99271207D01*
X118609102Y-99349228D01*
X118809061Y-99389002D01*
X118844111Y-99389002D01*
X118756095Y-99461235D01*
X118676743Y-99557926D01*
X118617778Y-99668240D01*
X118581468Y-99787938D01*
X118569208Y-99912420D01*
X118569208Y-103676680D01*
X117959539Y-103676680D01*
X117927120Y-103673487D01*
X117894701Y-103676680D01*
X117797737Y-103686230D01*
X117673327Y-103723970D01*
X117558670Y-103785255D01*
X117458172Y-103867732D01*
X117375695Y-103968230D01*
X117314410Y-104082887D01*
X117276670Y-104207297D01*
X117263927Y-104336680D01*
X117267121Y-104369109D01*
X117267120Y-107592500D01*
X115607546Y-107592500D01*
X115619692Y-107582532D01*
X115783395Y-107383058D01*
X115905038Y-107155480D01*
X115979945Y-106908544D01*
X115998900Y-106716090D01*
X115998900Y-106237389D01*
X115979945Y-106044935D01*
X115905038Y-105797999D01*
X115783395Y-105570422D01*
X115669280Y-105431371D01*
X115690902Y-105390920D01*
X115727212Y-105271222D01*
X115739472Y-105146740D01*
X115739472Y-104446740D01*
X115727212Y-104322258D01*
X115719929Y-104298250D01*
X115726972Y-104226740D01*
X115726972Y-102726740D01*
X115714712Y-102602258D01*
X115678402Y-102482560D01*
X115619437Y-102372246D01*
X115540085Y-102275555D01*
X115443394Y-102196203D01*
X115382360Y-102163579D01*
X115504962Y-102062962D01*
X115510613Y-102056076D01*
X115642613Y-102164405D01*
X115796149Y-102246472D01*
X115962745Y-102297008D01*
X116135999Y-102314072D01*
X117036001Y-102314072D01*
X117209255Y-102297008D01*
X117375851Y-102246472D01*
X117529387Y-102164405D01*
X117663962Y-102053962D01*
X117774405Y-101919387D01*
X117856472Y-101765851D01*
X117907008Y-101599255D01*
X117924072Y-101426001D01*
X117924072Y-100775999D01*
X117907008Y-100602745D01*
X117856472Y-100436149D01*
X117774405Y-100282613D01*
X117663962Y-100148038D01*
X117576184Y-100076000D01*
X117663962Y-100003962D01*
X117774405Y-99869387D01*
X117856472Y-99715851D01*
X117907008Y-99549255D01*
X117924072Y-99376001D01*
X117924072Y-98725999D01*
X117917603Y-98660315D01*
X117993795Y-98844258D01*
G36*
X132590001Y-97031801D02*
G01*
X132590000Y-100292677D01*
X132586324Y-100330000D01*
X132590000Y-100367322D01*
X132590000Y-100367332D01*
X132600997Y-100478985D01*
X132636184Y-100594984D01*
X132644454Y-100622246D01*
X132715026Y-100754276D01*
X132740240Y-100784999D01*
X132809999Y-100870001D01*
X132839002Y-100893803D01*
X133077000Y-101131801D01*
X133077000Y-101193939D01*
X133116774Y-101393898D01*
X133194795Y-101582256D01*
X133308063Y-101751774D01*
X133452226Y-101895937D01*
X133621744Y-102009205D01*
X133706824Y-102044447D01*
X133676613Y-102060595D01*
X133542038Y-102171038D01*
X133431595Y-102305613D01*
X133349528Y-102459149D01*
X133298992Y-102625745D01*
X133281928Y-102798999D01*
X133281928Y-103449001D01*
X133288329Y-103513990D01*
X131004792Y-103513990D01*
X130427000Y-102936199D01*
X130427000Y-96049323D01*
X130430676Y-96012000D01*
X130427000Y-95974677D01*
X130427000Y-95974667D01*
X130416003Y-95863014D01*
X130372546Y-95719753D01*
X130301974Y-95587724D01*
X130207001Y-95471999D01*
X130177997Y-95448196D01*
X129812805Y-95083004D01*
X129789002Y-95054000D01*
X129673277Y-94959027D01*
X129541248Y-94888455D01*
X129493838Y-94874074D01*
X129628738Y-94783937D01*
X129672675Y-94740000D01*
X130298201Y-94740000D01*
X132590001Y-97031801D01*
G37*
X132590001Y-97031801D02*
X132590000Y-100292677D01*
X132586324Y-100330000D01*
X132590000Y-100367322D01*
X132590000Y-100367332D01*
X132600997Y-100478985D01*
X132636184Y-100594984D01*
X132644454Y-100622246D01*
X132715026Y-100754276D01*
X132740240Y-100784999D01*
X132809999Y-100870001D01*
X132839002Y-100893803D01*
X133077000Y-101131801D01*
X133077000Y-101193939D01*
X133116774Y-101393898D01*
X133194795Y-101582256D01*
X133308063Y-101751774D01*
X133452226Y-101895937D01*
X133621744Y-102009205D01*
X133706824Y-102044447D01*
X133676613Y-102060595D01*
X133542038Y-102171038D01*
X133431595Y-102305613D01*
X133349528Y-102459149D01*
X133298992Y-102625745D01*
X133281928Y-102798999D01*
X133281928Y-103449001D01*
X133288329Y-103513990D01*
X131004792Y-103513990D01*
X130427000Y-102936199D01*
X130427000Y-96049323D01*
X130430676Y-96012000D01*
X130427000Y-95974677D01*
X130427000Y-95974667D01*
X130416003Y-95863014D01*
X130372546Y-95719753D01*
X130301974Y-95587724D01*
X130207001Y-95471999D01*
X130177997Y-95448196D01*
X129812805Y-95083004D01*
X129789002Y-95054000D01*
X129673277Y-94959027D01*
X129541248Y-94888455D01*
X129493838Y-94874074D01*
X129628738Y-94783937D01*
X129672675Y-94740000D01*
X130298201Y-94740000D01*
X132590001Y-97031801D01*
G36*
X113101135Y-101558936D02*
G01*
X113105992Y-101608255D01*
X113156528Y-101774851D01*
X113238595Y-101928387D01*
X113349038Y-102062962D01*
X113380361Y-102088668D01*
X113088900Y-102088668D01*
X112964418Y-102100928D01*
X112844720Y-102137238D01*
X112823975Y-102148327D01*
X112822064Y-102147718D01*
X112720650Y-102136740D01*
X112561900Y-102295490D01*
X112561900Y-102367936D01*
X112558363Y-102372246D01*
X112548165Y-102391325D01*
X112490085Y-102320555D01*
X112393394Y-102241203D01*
X112325118Y-102204708D01*
X112257150Y-102136740D01*
X112165720Y-102146637D01*
X112163382Y-102145928D01*
X112038900Y-102133668D01*
X111638900Y-102133668D01*
X111514418Y-102145928D01*
X111513900Y-102146085D01*
X111513382Y-102145928D01*
X111388900Y-102133668D01*
X110988900Y-102133668D01*
X110864418Y-102145928D01*
X110863900Y-102146085D01*
X110863382Y-102145928D01*
X110764835Y-102136222D01*
X110761095Y-102098250D01*
X110710489Y-101931427D01*
X110628311Y-101777681D01*
X110609865Y-101755205D01*
X110545432Y-101676693D01*
X110545430Y-101676691D01*
X110517717Y-101642923D01*
X110483949Y-101615210D01*
X110212739Y-101344000D01*
X112886199Y-101344000D01*
X113101135Y-101558936D01*
G37*
X113101135Y-101558936D02*
X113105992Y-101608255D01*
X113156528Y-101774851D01*
X113238595Y-101928387D01*
X113349038Y-102062962D01*
X113380361Y-102088668D01*
X113088900Y-102088668D01*
X112964418Y-102100928D01*
X112844720Y-102137238D01*
X112823975Y-102148327D01*
X112822064Y-102147718D01*
X112720650Y-102136740D01*
X112561900Y-102295490D01*
X112561900Y-102367936D01*
X112558363Y-102372246D01*
X112548165Y-102391325D01*
X112490085Y-102320555D01*
X112393394Y-102241203D01*
X112325118Y-102204708D01*
X112257150Y-102136740D01*
X112165720Y-102146637D01*
X112163382Y-102145928D01*
X112038900Y-102133668D01*
X111638900Y-102133668D01*
X111514418Y-102145928D01*
X111513900Y-102146085D01*
X111513382Y-102145928D01*
X111388900Y-102133668D01*
X110988900Y-102133668D01*
X110864418Y-102145928D01*
X110863900Y-102146085D01*
X110863382Y-102145928D01*
X110764835Y-102136222D01*
X110761095Y-102098250D01*
X110710489Y-101931427D01*
X110628311Y-101777681D01*
X110609865Y-101755205D01*
X110545432Y-101676693D01*
X110545430Y-101676691D01*
X110517717Y-101642923D01*
X110483949Y-101615210D01*
X110212739Y-101344000D01*
X112886199Y-101344000D01*
X113101135Y-101558936D01*
G36*
X122636280Y-101785420D02*
G01*
X122656280Y-101785420D01*
X122656280Y-102039420D01*
X122636280Y-102039420D01*
X122636280Y-102059420D01*
X122382280Y-102059420D01*
X122382280Y-102039420D01*
X122362280Y-102039420D01*
X122362280Y-101785420D01*
X122382280Y-101785420D01*
X122382280Y-101765420D01*
X122636280Y-101765420D01*
X122636280Y-101785420D01*
G37*
X122636280Y-101785420D02*
X122656280Y-101785420D01*
X122656280Y-102039420D01*
X122636280Y-102039420D01*
X122636280Y-102059420D01*
X122382280Y-102059420D01*
X122382280Y-102039420D01*
X122362280Y-102039420D01*
X122362280Y-101785420D01*
X122382280Y-101785420D01*
X122382280Y-101765420D01*
X122636280Y-101765420D01*
X122636280Y-101785420D01*
G36*
X113251990Y-91391072D02*
G01*
X113251990Y-91594950D01*
X113291764Y-91794909D01*
X113369785Y-91983267D01*
X113483053Y-92152785D01*
X113627216Y-92296948D01*
X113796734Y-92410216D01*
X113985092Y-92488237D01*
X114185051Y-92528011D01*
X114247189Y-92528011D01*
X114685175Y-92965998D01*
X109415711Y-92965998D01*
X109371774Y-92922061D01*
X109202256Y-92808793D01*
X109013898Y-92730772D01*
X108813939Y-92690998D01*
X108610061Y-92690998D01*
X108410102Y-92730772D01*
X108221744Y-92808793D01*
X108052226Y-92922061D01*
X107908063Y-93066224D01*
X107794795Y-93235742D01*
X107716774Y-93424100D01*
X107677000Y-93624059D01*
X107677000Y-93827937D01*
X107716774Y-94027896D01*
X107794795Y-94216254D01*
X107891510Y-94360999D01*
X107794795Y-94505744D01*
X107716774Y-94694102D01*
X107677000Y-94894061D01*
X107677000Y-95097939D01*
X107716774Y-95297898D01*
X107794795Y-95486256D01*
X107908063Y-95655774D01*
X108052226Y-95799937D01*
X108221744Y-95913205D01*
X108410102Y-95991226D01*
X108610061Y-96031000D01*
X108613456Y-96031000D01*
X108714000Y-96131545D01*
X108714000Y-96609678D01*
X108710324Y-96647000D01*
X108714000Y-96684322D01*
X108714000Y-96684332D01*
X108724997Y-96795985D01*
X108756845Y-96900974D01*
X108768454Y-96939246D01*
X108839026Y-97071276D01*
X108860629Y-97097599D01*
X108933999Y-97187001D01*
X108963003Y-97210804D01*
X111576198Y-99824000D01*
X108925202Y-99824000D01*
X106424000Y-97322799D01*
X106424000Y-96496799D01*
X106862799Y-96058001D01*
X106933974Y-95971274D01*
X106956409Y-95929302D01*
X106975937Y-95909774D01*
X107089205Y-95740256D01*
X107167226Y-95551898D01*
X107207000Y-95351939D01*
X107207000Y-95148061D01*
X107167226Y-94948102D01*
X107089205Y-94759744D01*
X106975937Y-94590226D01*
X106831774Y-94446063D01*
X106662256Y-94332795D01*
X106473898Y-94254774D01*
X106273939Y-94215000D01*
X106070061Y-94215000D01*
X105870102Y-94254774D01*
X105681744Y-94332795D01*
X105512226Y-94446063D01*
X105368063Y-94590226D01*
X105254795Y-94759744D01*
X105176774Y-94948102D01*
X105137000Y-95148061D01*
X105137000Y-95351939D01*
X105176774Y-95551898D01*
X105189229Y-95581968D01*
X105152998Y-95618199D01*
X105124000Y-95641997D01*
X105100202Y-95670995D01*
X105100201Y-95670996D01*
X105029026Y-95757722D01*
X104958454Y-95889752D01*
X104935637Y-95964974D01*
X104914998Y-96033012D01*
X104904001Y-96144665D01*
X104900324Y-96181998D01*
X104904001Y-96219330D01*
X104904000Y-97600277D01*
X104900324Y-97637600D01*
X104904000Y-97674922D01*
X104904000Y-97674932D01*
X104904794Y-97682993D01*
X104646000Y-97424199D01*
X104646000Y-95310801D01*
X108703792Y-91253010D01*
X113279452Y-91253010D01*
X113251990Y-91391072D01*
G37*
X113251990Y-91391072D02*
X113251990Y-91594950D01*
X113291764Y-91794909D01*
X113369785Y-91983267D01*
X113483053Y-92152785D01*
X113627216Y-92296948D01*
X113796734Y-92410216D01*
X113985092Y-92488237D01*
X114185051Y-92528011D01*
X114247189Y-92528011D01*
X114685175Y-92965998D01*
X109415711Y-92965998D01*
X109371774Y-92922061D01*
X109202256Y-92808793D01*
X109013898Y-92730772D01*
X108813939Y-92690998D01*
X108610061Y-92690998D01*
X108410102Y-92730772D01*
X108221744Y-92808793D01*
X108052226Y-92922061D01*
X107908063Y-93066224D01*
X107794795Y-93235742D01*
X107716774Y-93424100D01*
X107677000Y-93624059D01*
X107677000Y-93827937D01*
X107716774Y-94027896D01*
X107794795Y-94216254D01*
X107891510Y-94360999D01*
X107794795Y-94505744D01*
X107716774Y-94694102D01*
X107677000Y-94894061D01*
X107677000Y-95097939D01*
X107716774Y-95297898D01*
X107794795Y-95486256D01*
X107908063Y-95655774D01*
X108052226Y-95799937D01*
X108221744Y-95913205D01*
X108410102Y-95991226D01*
X108610061Y-96031000D01*
X108613456Y-96031000D01*
X108714000Y-96131545D01*
X108714000Y-96609678D01*
X108710324Y-96647000D01*
X108714000Y-96684322D01*
X108714000Y-96684332D01*
X108724997Y-96795985D01*
X108756845Y-96900974D01*
X108768454Y-96939246D01*
X108839026Y-97071276D01*
X108860629Y-97097599D01*
X108933999Y-97187001D01*
X108963003Y-97210804D01*
X111576198Y-99824000D01*
X108925202Y-99824000D01*
X106424000Y-97322799D01*
X106424000Y-96496799D01*
X106862799Y-96058001D01*
X106933974Y-95971274D01*
X106956409Y-95929302D01*
X106975937Y-95909774D01*
X107089205Y-95740256D01*
X107167226Y-95551898D01*
X107207000Y-95351939D01*
X107207000Y-95148061D01*
X107167226Y-94948102D01*
X107089205Y-94759744D01*
X106975937Y-94590226D01*
X106831774Y-94446063D01*
X106662256Y-94332795D01*
X106473898Y-94254774D01*
X106273939Y-94215000D01*
X106070061Y-94215000D01*
X105870102Y-94254774D01*
X105681744Y-94332795D01*
X105512226Y-94446063D01*
X105368063Y-94590226D01*
X105254795Y-94759744D01*
X105176774Y-94948102D01*
X105137000Y-95148061D01*
X105137000Y-95351939D01*
X105176774Y-95551898D01*
X105189229Y-95581968D01*
X105152998Y-95618199D01*
X105124000Y-95641997D01*
X105100202Y-95670995D01*
X105100201Y-95670996D01*
X105029026Y-95757722D01*
X104958454Y-95889752D01*
X104935637Y-95964974D01*
X104914998Y-96033012D01*
X104904001Y-96144665D01*
X104900324Y-96181998D01*
X104904001Y-96219330D01*
X104904000Y-97600277D01*
X104900324Y-97637600D01*
X104904000Y-97674922D01*
X104904000Y-97674932D01*
X104904794Y-97682993D01*
X104646000Y-97424199D01*
X104646000Y-95310801D01*
X108703792Y-91253010D01*
X113279452Y-91253010D01*
X113251990Y-91391072D01*
G36*
X121494600Y-93674861D02*
G01*
X121494600Y-93878739D01*
X121534374Y-94078698D01*
X121612395Y-94267056D01*
X121725663Y-94436574D01*
X121869826Y-94580737D01*
X122039344Y-94694005D01*
X122089217Y-94714663D01*
X122087819Y-94718039D01*
X122048045Y-94917998D01*
X122048045Y-95055989D01*
X121917161Y-95055989D01*
X121886216Y-94900417D01*
X121808195Y-94712059D01*
X121694927Y-94542541D01*
X121550764Y-94398378D01*
X121381246Y-94285110D01*
X121192888Y-94207089D01*
X120992929Y-94167315D01*
X120789051Y-94167315D01*
X120589092Y-94207089D01*
X120400734Y-94285110D01*
X120231216Y-94398378D01*
X120087053Y-94542541D01*
X119973785Y-94712059D01*
X119895764Y-94900417D01*
X119855990Y-95100376D01*
X119855990Y-95304254D01*
X119895764Y-95504213D01*
X119973785Y-95692571D01*
X120087053Y-95862089D01*
X120207582Y-95982618D01*
X118871199Y-97319002D01*
X118809061Y-97319002D01*
X118609102Y-97358776D01*
X118420744Y-97436797D01*
X118251226Y-97550065D01*
X118107063Y-97694228D01*
X117993795Y-97863746D01*
X117915774Y-98052104D01*
X117876000Y-98252063D01*
X117876000Y-98450525D01*
X117856472Y-98386149D01*
X117774405Y-98232613D01*
X117663962Y-98098038D01*
X117529387Y-97987595D01*
X117375851Y-97905528D01*
X117209255Y-97854992D01*
X117036001Y-97837928D01*
X116591130Y-97837928D01*
X113728204Y-94975003D01*
X113704401Y-94945999D01*
X113588676Y-94851026D01*
X113456647Y-94780454D01*
X113313386Y-94736997D01*
X113201733Y-94726000D01*
X113201722Y-94726000D01*
X113164400Y-94722324D01*
X113127078Y-94726000D01*
X112971711Y-94726000D01*
X112927774Y-94682063D01*
X112758256Y-94568795D01*
X112569898Y-94490774D01*
X112545887Y-94485998D01*
X117062970Y-94485998D01*
X117100292Y-94489674D01*
X117137614Y-94485998D01*
X117137625Y-94485998D01*
X117249278Y-94475001D01*
X117392539Y-94431544D01*
X117524568Y-94360972D01*
X117640293Y-94265999D01*
X117664095Y-94236996D01*
X118424696Y-93476397D01*
X121534077Y-93476397D01*
X121494600Y-93674861D01*
G37*
X121494600Y-93674861D02*
X121494600Y-93878739D01*
X121534374Y-94078698D01*
X121612395Y-94267056D01*
X121725663Y-94436574D01*
X121869826Y-94580737D01*
X122039344Y-94694005D01*
X122089217Y-94714663D01*
X122087819Y-94718039D01*
X122048045Y-94917998D01*
X122048045Y-95055989D01*
X121917161Y-95055989D01*
X121886216Y-94900417D01*
X121808195Y-94712059D01*
X121694927Y-94542541D01*
X121550764Y-94398378D01*
X121381246Y-94285110D01*
X121192888Y-94207089D01*
X120992929Y-94167315D01*
X120789051Y-94167315D01*
X120589092Y-94207089D01*
X120400734Y-94285110D01*
X120231216Y-94398378D01*
X120087053Y-94542541D01*
X119973785Y-94712059D01*
X119895764Y-94900417D01*
X119855990Y-95100376D01*
X119855990Y-95304254D01*
X119895764Y-95504213D01*
X119973785Y-95692571D01*
X120087053Y-95862089D01*
X120207582Y-95982618D01*
X118871199Y-97319002D01*
X118809061Y-97319002D01*
X118609102Y-97358776D01*
X118420744Y-97436797D01*
X118251226Y-97550065D01*
X118107063Y-97694228D01*
X117993795Y-97863746D01*
X117915774Y-98052104D01*
X117876000Y-98252063D01*
X117876000Y-98450525D01*
X117856472Y-98386149D01*
X117774405Y-98232613D01*
X117663962Y-98098038D01*
X117529387Y-97987595D01*
X117375851Y-97905528D01*
X117209255Y-97854992D01*
X117036001Y-97837928D01*
X116591130Y-97837928D01*
X113728204Y-94975003D01*
X113704401Y-94945999D01*
X113588676Y-94851026D01*
X113456647Y-94780454D01*
X113313386Y-94736997D01*
X113201733Y-94726000D01*
X113201722Y-94726000D01*
X113164400Y-94722324D01*
X113127078Y-94726000D01*
X112971711Y-94726000D01*
X112927774Y-94682063D01*
X112758256Y-94568795D01*
X112569898Y-94490774D01*
X112545887Y-94485998D01*
X117062970Y-94485998D01*
X117100292Y-94489674D01*
X117137614Y-94485998D01*
X117137625Y-94485998D01*
X117249278Y-94475001D01*
X117392539Y-94431544D01*
X117524568Y-94360972D01*
X117640293Y-94265999D01*
X117664095Y-94236996D01*
X118424696Y-93476397D01*
X121534077Y-93476397D01*
X121494600Y-93674861D01*
G36*
X134733770Y-86217112D02*
G01*
X134693996Y-86417071D01*
X134693996Y-86479208D01*
X132711998Y-88461207D01*
X132683000Y-88485005D01*
X132588026Y-88600730D01*
X132517454Y-88732759D01*
X132473997Y-88876020D01*
X132471438Y-88902000D01*
X132021711Y-88902000D01*
X131977774Y-88858063D01*
X131808256Y-88744795D01*
X131619898Y-88666774D01*
X131419939Y-88627000D01*
X131216061Y-88627000D01*
X131016102Y-88666774D01*
X130827744Y-88744795D01*
X130658226Y-88858063D01*
X130514063Y-89002226D01*
X130400795Y-89171744D01*
X130322774Y-89360102D01*
X130283000Y-89560061D01*
X130283000Y-89763939D01*
X130322774Y-89963898D01*
X130400795Y-90152256D01*
X130514063Y-90321774D01*
X130658226Y-90465937D01*
X130827744Y-90579205D01*
X131016102Y-90657226D01*
X131216061Y-90697000D01*
X131419939Y-90697000D01*
X131619898Y-90657226D01*
X131808256Y-90579205D01*
X131977774Y-90465937D01*
X132021711Y-90422000D01*
X133058678Y-90422000D01*
X133096000Y-90425676D01*
X133133322Y-90422000D01*
X133133333Y-90422000D01*
X133244986Y-90411003D01*
X133388247Y-90367546D01*
X133520276Y-90296974D01*
X133522681Y-90295000D01*
X135355543Y-90295000D01*
X135854138Y-90793596D01*
X135800183Y-90923853D01*
X135760409Y-91123812D01*
X135760409Y-91327690D01*
X135800183Y-91527649D01*
X135878204Y-91716007D01*
X135991472Y-91885525D01*
X136135635Y-92029688D01*
X136284825Y-92129373D01*
X135855001Y-92559198D01*
X135241603Y-91945800D01*
X135274000Y-91782929D01*
X135274000Y-91579051D01*
X135234226Y-91379092D01*
X135156205Y-91190734D01*
X135042937Y-91021216D01*
X134898774Y-90877053D01*
X134729256Y-90763785D01*
X134540898Y-90685764D01*
X134340939Y-90645990D01*
X134137061Y-90645990D01*
X133937102Y-90685764D01*
X133748744Y-90763785D01*
X133579226Y-90877053D01*
X133535289Y-90920990D01*
X129835588Y-90920990D01*
X127986754Y-89072157D01*
X128057937Y-89000974D01*
X128171205Y-88831456D01*
X128249226Y-88643098D01*
X128289000Y-88443139D01*
X128289000Y-88381001D01*
X129931002Y-86739000D01*
X131884289Y-86739000D01*
X131928226Y-86782937D01*
X132097744Y-86896205D01*
X132286102Y-86974226D01*
X132486061Y-87014000D01*
X132689939Y-87014000D01*
X132889898Y-86974226D01*
X133078256Y-86896205D01*
X133247774Y-86782937D01*
X133391937Y-86638774D01*
X133505205Y-86469256D01*
X133583226Y-86280898D01*
X133618413Y-86104000D01*
X134780623Y-86104000D01*
X134733770Y-86217112D01*
G37*
X134733770Y-86217112D02*
X134693996Y-86417071D01*
X134693996Y-86479208D01*
X132711998Y-88461207D01*
X132683000Y-88485005D01*
X132588026Y-88600730D01*
X132517454Y-88732759D01*
X132473997Y-88876020D01*
X132471438Y-88902000D01*
X132021711Y-88902000D01*
X131977774Y-88858063D01*
X131808256Y-88744795D01*
X131619898Y-88666774D01*
X131419939Y-88627000D01*
X131216061Y-88627000D01*
X131016102Y-88666774D01*
X130827744Y-88744795D01*
X130658226Y-88858063D01*
X130514063Y-89002226D01*
X130400795Y-89171744D01*
X130322774Y-89360102D01*
X130283000Y-89560061D01*
X130283000Y-89763939D01*
X130322774Y-89963898D01*
X130400795Y-90152256D01*
X130514063Y-90321774D01*
X130658226Y-90465937D01*
X130827744Y-90579205D01*
X131016102Y-90657226D01*
X131216061Y-90697000D01*
X131419939Y-90697000D01*
X131619898Y-90657226D01*
X131808256Y-90579205D01*
X131977774Y-90465937D01*
X132021711Y-90422000D01*
X133058678Y-90422000D01*
X133096000Y-90425676D01*
X133133322Y-90422000D01*
X133133333Y-90422000D01*
X133244986Y-90411003D01*
X133388247Y-90367546D01*
X133520276Y-90296974D01*
X133522681Y-90295000D01*
X135355543Y-90295000D01*
X135854138Y-90793596D01*
X135800183Y-90923853D01*
X135760409Y-91123812D01*
X135760409Y-91327690D01*
X135800183Y-91527649D01*
X135878204Y-91716007D01*
X135991472Y-91885525D01*
X136135635Y-92029688D01*
X136284825Y-92129373D01*
X135855001Y-92559198D01*
X135241603Y-91945800D01*
X135274000Y-91782929D01*
X135274000Y-91579051D01*
X135234226Y-91379092D01*
X135156205Y-91190734D01*
X135042937Y-91021216D01*
X134898774Y-90877053D01*
X134729256Y-90763785D01*
X134540898Y-90685764D01*
X134340939Y-90645990D01*
X134137061Y-90645990D01*
X133937102Y-90685764D01*
X133748744Y-90763785D01*
X133579226Y-90877053D01*
X133535289Y-90920990D01*
X129835588Y-90920990D01*
X127986754Y-89072157D01*
X128057937Y-89000974D01*
X128171205Y-88831456D01*
X128249226Y-88643098D01*
X128289000Y-88443139D01*
X128289000Y-88381001D01*
X129931002Y-86739000D01*
X131884289Y-86739000D01*
X131928226Y-86782937D01*
X132097744Y-86896205D01*
X132286102Y-86974226D01*
X132486061Y-87014000D01*
X132689939Y-87014000D01*
X132889898Y-86974226D01*
X133078256Y-86896205D01*
X133247774Y-86782937D01*
X133391937Y-86638774D01*
X133505205Y-86469256D01*
X133583226Y-86280898D01*
X133618413Y-86104000D01*
X134780623Y-86104000D01*
X134733770Y-86217112D01*
G36*
X105538934Y-92268264D02*
G01*
X105516226Y-92154102D01*
X105438205Y-91965744D01*
X105324937Y-91796226D01*
X105180774Y-91652063D01*
X105011256Y-91538795D01*
X104822898Y-91460774D01*
X104646000Y-91425587D01*
X104646000Y-90827290D01*
X104817112Y-90898167D01*
X105017071Y-90937941D01*
X105220949Y-90937941D01*
X105420908Y-90898167D01*
X105609266Y-90820146D01*
X105769710Y-90712941D01*
X107094257Y-90712941D01*
X105538934Y-92268264D01*
G37*
X105538934Y-92268264D02*
X105516226Y-92154102D01*
X105438205Y-91965744D01*
X105324937Y-91796226D01*
X105180774Y-91652063D01*
X105011256Y-91538795D01*
X104822898Y-91460774D01*
X104646000Y-91425587D01*
X104646000Y-90827290D01*
X104817112Y-90898167D01*
X105017071Y-90937941D01*
X105220949Y-90937941D01*
X105420908Y-90898167D01*
X105609266Y-90820146D01*
X105769710Y-90712941D01*
X107094257Y-90712941D01*
X105538934Y-92268264D01*
G36*
X138014001Y-88019801D02*
G01*
X138014002Y-90405000D01*
X137947061Y-90405000D01*
X137747102Y-90444774D01*
X137558744Y-90522795D01*
X137557197Y-90523828D01*
X137544396Y-90511027D01*
X137500955Y-90367819D01*
X137430383Y-90235790D01*
X137335410Y-90120065D01*
X137306413Y-90096268D01*
X136234148Y-89024003D01*
X136210345Y-88994999D01*
X136094620Y-88900026D01*
X135962591Y-88829454D01*
X135819330Y-88785997D01*
X135707677Y-88775000D01*
X135707667Y-88775000D01*
X135670344Y-88771324D01*
X135633022Y-88775000D01*
X134547807Y-88775000D01*
X135768798Y-87554010D01*
X135830935Y-87554010D01*
X136030894Y-87514236D01*
X136219252Y-87436215D01*
X136388770Y-87322947D01*
X136532933Y-87178784D01*
X136646201Y-87009266D01*
X136724222Y-86820908D01*
X136739301Y-86745100D01*
X138014001Y-88019801D01*
G37*
X138014001Y-88019801D02*
X138014002Y-90405000D01*
X137947061Y-90405000D01*
X137747102Y-90444774D01*
X137558744Y-90522795D01*
X137557197Y-90523828D01*
X137544396Y-90511027D01*
X137500955Y-90367819D01*
X137430383Y-90235790D01*
X137335410Y-90120065D01*
X137306413Y-90096268D01*
X136234148Y-89024003D01*
X136210345Y-88994999D01*
X136094620Y-88900026D01*
X135962591Y-88829454D01*
X135819330Y-88785997D01*
X135707677Y-88775000D01*
X135707667Y-88775000D01*
X135670344Y-88771324D01*
X135633022Y-88775000D01*
X134547807Y-88775000D01*
X135768798Y-87554010D01*
X135830935Y-87554010D01*
X136030894Y-87514236D01*
X136219252Y-87436215D01*
X136388770Y-87322947D01*
X136532933Y-87178784D01*
X136646201Y-87009266D01*
X136724222Y-86820908D01*
X136739301Y-86745100D01*
X138014001Y-88019801D01*
G36*
X119428188Y-83988518D02*
G01*
X119415928Y-84113000D01*
X119415928Y-85813000D01*
X119428188Y-85937482D01*
X119464498Y-86057180D01*
X119523463Y-86167494D01*
X119602815Y-86264185D01*
X119699506Y-86343537D01*
X119809820Y-86402502D01*
X119929518Y-86438812D01*
X120054000Y-86451072D01*
X120319893Y-86451072D01*
X120350818Y-86510008D01*
X120352782Y-86512439D01*
X120354252Y-86515189D01*
X120402891Y-86574456D01*
X120425966Y-86603015D01*
X120428140Y-86605223D01*
X120455473Y-86638528D01*
X120483986Y-86661927D01*
X122683845Y-88895643D01*
X122486547Y-89092941D01*
X118209289Y-89092941D01*
X118265205Y-89009256D01*
X118343226Y-88820898D01*
X118383000Y-88620939D01*
X118383000Y-88417061D01*
X118365687Y-88330024D01*
X118507537Y-88188174D01*
X118620805Y-88018656D01*
X118698826Y-87830298D01*
X118738600Y-87630339D01*
X118738600Y-87426461D01*
X118698826Y-87226502D01*
X118620805Y-87038144D01*
X118507537Y-86868626D01*
X118463600Y-86824689D01*
X118463600Y-84414201D01*
X118932802Y-83945000D01*
X119441389Y-83945000D01*
X119428188Y-83988518D01*
G37*
X119428188Y-83988518D02*
X119415928Y-84113000D01*
X119415928Y-85813000D01*
X119428188Y-85937482D01*
X119464498Y-86057180D01*
X119523463Y-86167494D01*
X119602815Y-86264185D01*
X119699506Y-86343537D01*
X119809820Y-86402502D01*
X119929518Y-86438812D01*
X120054000Y-86451072D01*
X120319893Y-86451072D01*
X120350818Y-86510008D01*
X120352782Y-86512439D01*
X120354252Y-86515189D01*
X120402891Y-86574456D01*
X120425966Y-86603015D01*
X120428140Y-86605223D01*
X120455473Y-86638528D01*
X120483986Y-86661927D01*
X122683845Y-88895643D01*
X122486547Y-89092941D01*
X118209289Y-89092941D01*
X118265205Y-89009256D01*
X118343226Y-88820898D01*
X118383000Y-88620939D01*
X118383000Y-88417061D01*
X118365687Y-88330024D01*
X118507537Y-88188174D01*
X118620805Y-88018656D01*
X118698826Y-87830298D01*
X118738600Y-87630339D01*
X118738600Y-87426461D01*
X118698826Y-87226502D01*
X118620805Y-87038144D01*
X118507537Y-86868626D01*
X118463600Y-86824689D01*
X118463600Y-84414201D01*
X118932802Y-83945000D01*
X119441389Y-83945000D01*
X119428188Y-83988518D01*
G36*
X132000780Y-85126584D02*
G01*
X131928226Y-85175063D01*
X131884289Y-85219000D01*
X129653522Y-85219000D01*
X129616199Y-85215324D01*
X129578876Y-85219000D01*
X129578867Y-85219000D01*
X129467214Y-85229997D01*
X129323953Y-85273454D01*
X129191924Y-85344026D01*
X129076199Y-85438999D01*
X129052401Y-85467997D01*
X127214199Y-87306200D01*
X127152061Y-87306200D01*
X126952102Y-87345974D01*
X126763744Y-87423995D01*
X126594226Y-87537263D01*
X126523043Y-87608446D01*
X124763600Y-85849003D01*
X124739797Y-85819999D01*
X124681960Y-85772533D01*
X124788157Y-85594252D01*
X124885481Y-85319891D01*
X124764814Y-85090000D01*
X123571000Y-85090000D01*
X123571000Y-85110000D01*
X123317000Y-85110000D01*
X123317000Y-85090000D01*
X123297000Y-85090000D01*
X123297000Y-84836000D01*
X123317000Y-84836000D01*
X123317000Y-84816000D01*
X123571000Y-84816000D01*
X123571000Y-84836000D01*
X124764814Y-84836000D01*
X124885481Y-84606109D01*
X124876219Y-84580000D01*
X131454197Y-84580000D01*
X132000780Y-85126584D01*
G37*
X132000780Y-85126584D02*
X131928226Y-85175063D01*
X131884289Y-85219000D01*
X129653522Y-85219000D01*
X129616199Y-85215324D01*
X129578876Y-85219000D01*
X129578867Y-85219000D01*
X129467214Y-85229997D01*
X129323953Y-85273454D01*
X129191924Y-85344026D01*
X129076199Y-85438999D01*
X129052401Y-85467997D01*
X127214199Y-87306200D01*
X127152061Y-87306200D01*
X126952102Y-87345974D01*
X126763744Y-87423995D01*
X126594226Y-87537263D01*
X126523043Y-87608446D01*
X124763600Y-85849003D01*
X124739797Y-85819999D01*
X124681960Y-85772533D01*
X124788157Y-85594252D01*
X124885481Y-85319891D01*
X124764814Y-85090000D01*
X123571000Y-85090000D01*
X123571000Y-85110000D01*
X123317000Y-85110000D01*
X123317000Y-85090000D01*
X123297000Y-85090000D01*
X123297000Y-84836000D01*
X123317000Y-84836000D01*
X123317000Y-84816000D01*
X123571000Y-84816000D01*
X123571000Y-84836000D01*
X124764814Y-84836000D01*
X124885481Y-84606109D01*
X124876219Y-84580000D01*
X131454197Y-84580000D01*
X132000780Y-85126584D01*
G36*
X123571000Y-80899000D02*
G01*
X123591000Y-80899000D01*
X123591000Y-81153000D01*
X123571000Y-81153000D01*
X123571000Y-81173000D01*
X123317000Y-81173000D01*
X123317000Y-81153000D01*
X123297000Y-81153000D01*
X123297000Y-80899000D01*
X123317000Y-80899000D01*
X123317000Y-80879000D01*
X123571000Y-80879000D01*
X123571000Y-80899000D01*
G37*
X123571000Y-80899000D02*
X123591000Y-80899000D01*
X123591000Y-81153000D01*
X123571000Y-81153000D01*
X123571000Y-81173000D01*
X123317000Y-81173000D01*
X123317000Y-81153000D01*
X123297000Y-81153000D01*
X123297000Y-80899000D01*
X123317000Y-80899000D01*
X123317000Y-80879000D01*
X123571000Y-80879000D01*
X123571000Y-80899000D01*
M02*
