G04 #@! TF.GenerationSoftware,KiCad,Pcbnew,(5.1.6)-1*
G04 #@! TF.CreationDate,2020-12-08T10:00:41+01:00*
G04 #@! TF.ProjectId,Power_module_v1,506f7765-725f-46d6-9f64-756c655f7631,rev?*
G04 #@! TF.SameCoordinates,Original*
G04 #@! TF.FileFunction,Copper,L1,Top*
G04 #@! TF.FilePolarity,Positive*
%FSLAX46Y46*%
G04 Gerber Fmt 4.6, Leading zero omitted, Abs format (unit mm)*
G04 Created by KiCad (PCBNEW (5.1.6)-1) date 2020-12-08 10:00:41*
%MOMM*%
%LPD*%
G01*
G04 APERTURE LIST*
G04 #@! TA.AperFunction,ComponentPad*
%ADD10R,1.700000X1.700000*%
G04 #@! TD*
G04 #@! TA.AperFunction,ComponentPad*
%ADD11O,1.700000X1.700000*%
G04 #@! TD*
G04 #@! TA.AperFunction,SMDPad,CuDef*
%ADD12R,1.430000X2.500000*%
G04 #@! TD*
G04 #@! TA.AperFunction,SMDPad,CuDef*
%ADD13R,2.000000X1.500000*%
G04 #@! TD*
G04 #@! TA.AperFunction,SMDPad,CuDef*
%ADD14R,1.350000X2.000000*%
G04 #@! TD*
G04 #@! TA.AperFunction,SMDPad,CuDef*
%ADD15R,0.400000X1.650000*%
G04 #@! TD*
G04 #@! TA.AperFunction,ComponentPad*
%ADD16O,1.350000X1.700000*%
G04 #@! TD*
G04 #@! TA.AperFunction,ComponentPad*
%ADD17O,1.100000X1.500000*%
G04 #@! TD*
G04 #@! TA.AperFunction,SMDPad,CuDef*
%ADD18R,1.825000X0.700000*%
G04 #@! TD*
G04 #@! TA.AperFunction,SMDPad,CuDef*
%ADD19R,1.700000X1.700000*%
G04 #@! TD*
G04 #@! TA.AperFunction,SMDPad,CuDef*
%ADD20O,1.700000X1.700000*%
G04 #@! TD*
G04 #@! TA.AperFunction,SMDPad,CuDef*
%ADD21R,1.524000X4.000000*%
G04 #@! TD*
G04 #@! TA.AperFunction,ComponentPad*
%ADD22R,1.600000X1.600000*%
G04 #@! TD*
G04 #@! TA.AperFunction,ComponentPad*
%ADD23C,1.600000*%
G04 #@! TD*
G04 #@! TA.AperFunction,ComponentPad*
%ADD24C,1.500000*%
G04 #@! TD*
G04 #@! TA.AperFunction,ViaPad*
%ADD25C,0.800000*%
G04 #@! TD*
G04 #@! TA.AperFunction,ViaPad*
%ADD26C,0.400000*%
G04 #@! TD*
G04 #@! TA.AperFunction,Conductor*
%ADD27C,0.254000*%
G04 #@! TD*
G04 #@! TA.AperFunction,Conductor*
%ADD28C,0.500000*%
G04 #@! TD*
G04 #@! TA.AperFunction,Conductor*
%ADD29C,0.250000*%
G04 #@! TD*
G04 #@! TA.AperFunction,Conductor*
%ADD30C,0.200000*%
G04 #@! TD*
G04 #@! TA.AperFunction,Conductor*
%ADD31C,0.300000*%
G04 #@! TD*
G04 APERTURE END LIST*
D10*
X150876000Y-80010000D03*
D11*
X150876000Y-82550000D03*
G04 #@! TA.AperFunction,SMDPad,CuDef*
G36*
G01*
X109153000Y-100780001D02*
X109153000Y-99879999D01*
G75*
G02*
X109402999Y-99630000I249999J0D01*
G01*
X110053001Y-99630000D01*
G75*
G02*
X110303000Y-99879999I0J-249999D01*
G01*
X110303000Y-100780001D01*
G75*
G02*
X110053001Y-101030000I-249999J0D01*
G01*
X109402999Y-101030000D01*
G75*
G02*
X109153000Y-100780001I0J249999D01*
G01*
G37*
G04 #@! TD.AperFunction*
G04 #@! TA.AperFunction,SMDPad,CuDef*
G36*
G01*
X111203000Y-100780001D02*
X111203000Y-99879999D01*
G75*
G02*
X111452999Y-99630000I249999J0D01*
G01*
X112103001Y-99630000D01*
G75*
G02*
X112353000Y-99879999I0J-249999D01*
G01*
X112353000Y-100780001D01*
G75*
G02*
X112103001Y-101030000I-249999J0D01*
G01*
X111452999Y-101030000D01*
G75*
G02*
X111203000Y-100780001I0J249999D01*
G01*
G37*
G04 #@! TD.AperFunction*
G04 #@! TA.AperFunction,SMDPad,CuDef*
G36*
G01*
X109135000Y-98494001D02*
X109135000Y-97593999D01*
G75*
G02*
X109384999Y-97344000I249999J0D01*
G01*
X110035001Y-97344000D01*
G75*
G02*
X110285000Y-97593999I0J-249999D01*
G01*
X110285000Y-98494001D01*
G75*
G02*
X110035001Y-98744000I-249999J0D01*
G01*
X109384999Y-98744000D01*
G75*
G02*
X109135000Y-98494001I0J249999D01*
G01*
G37*
G04 #@! TD.AperFunction*
G04 #@! TA.AperFunction,SMDPad,CuDef*
G36*
G01*
X111185000Y-98494001D02*
X111185000Y-97593999D01*
G75*
G02*
X111434999Y-97344000I249999J0D01*
G01*
X112085001Y-97344000D01*
G75*
G02*
X112335000Y-97593999I0J-249999D01*
G01*
X112335000Y-98494001D01*
G75*
G02*
X112085001Y-98744000I-249999J0D01*
G01*
X111434999Y-98744000D01*
G75*
G02*
X111185000Y-98494001I0J249999D01*
G01*
G37*
G04 #@! TD.AperFunction*
G04 #@! TA.AperFunction,SMDPad,CuDef*
G36*
G01*
X133408000Y-103689999D02*
X133408000Y-104590001D01*
G75*
G02*
X133158001Y-104840000I-249999J0D01*
G01*
X132507999Y-104840000D01*
G75*
G02*
X132258000Y-104590001I0J249999D01*
G01*
X132258000Y-103689999D01*
G75*
G02*
X132507999Y-103440000I249999J0D01*
G01*
X133158001Y-103440000D01*
G75*
G02*
X133408000Y-103689999I0J-249999D01*
G01*
G37*
G04 #@! TD.AperFunction*
G04 #@! TA.AperFunction,SMDPad,CuDef*
G36*
G01*
X135458000Y-103689999D02*
X135458000Y-104590001D01*
G75*
G02*
X135208001Y-104840000I-249999J0D01*
G01*
X134557999Y-104840000D01*
G75*
G02*
X134308000Y-104590001I0J249999D01*
G01*
X134308000Y-103689999D01*
G75*
G02*
X134557999Y-103440000I249999J0D01*
G01*
X135208001Y-103440000D01*
G75*
G02*
X135458000Y-103689999I0J-249999D01*
G01*
G37*
G04 #@! TD.AperFunction*
G04 #@! TA.AperFunction,SMDPad,CuDef*
G36*
G01*
X133408000Y-101403999D02*
X133408000Y-102304001D01*
G75*
G02*
X133158001Y-102554000I-249999J0D01*
G01*
X132507999Y-102554000D01*
G75*
G02*
X132258000Y-102304001I0J249999D01*
G01*
X132258000Y-101403999D01*
G75*
G02*
X132507999Y-101154000I249999J0D01*
G01*
X133158001Y-101154000D01*
G75*
G02*
X133408000Y-101403999I0J-249999D01*
G01*
G37*
G04 #@! TD.AperFunction*
G04 #@! TA.AperFunction,SMDPad,CuDef*
G36*
G01*
X135458000Y-101403999D02*
X135458000Y-102304001D01*
G75*
G02*
X135208001Y-102554000I-249999J0D01*
G01*
X134557999Y-102554000D01*
G75*
G02*
X134308000Y-102304001I0J249999D01*
G01*
X134308000Y-101403999D01*
G75*
G02*
X134557999Y-101154000I249999J0D01*
G01*
X135208001Y-101154000D01*
G75*
G02*
X135458000Y-101403999I0J-249999D01*
G01*
G37*
G04 #@! TD.AperFunction*
D12*
X110228900Y-106746740D03*
D13*
X108338900Y-103496740D03*
D14*
X113938900Y-105546740D03*
X108458900Y-105546740D03*
D15*
X111188900Y-103596740D03*
D16*
X114688900Y-106476740D03*
D17*
X108768900Y-103476740D03*
X113608900Y-103476740D03*
D15*
X112488900Y-103596740D03*
X111838900Y-103596740D03*
D18*
X114188900Y-104796740D03*
D15*
X109888900Y-103596740D03*
D13*
X114088900Y-103476740D03*
D18*
X108238900Y-104796740D03*
D15*
X110538900Y-103596740D03*
D16*
X107688900Y-106476740D03*
D12*
X112148900Y-106746740D03*
D11*
X146304000Y-73660000D03*
D10*
X143764000Y-73660000D03*
D19*
X96266000Y-84328000D03*
D20*
X96266000Y-81788000D03*
X96266000Y-79248000D03*
X96266000Y-76708000D03*
X96266000Y-74168000D03*
X96266000Y-71628000D03*
D11*
X100203000Y-71628000D03*
X100203000Y-74168000D03*
X100203000Y-76708000D03*
X100203000Y-79248000D03*
X100203000Y-81788000D03*
D10*
X100203000Y-84328000D03*
D21*
X125049280Y-101912420D03*
X122509280Y-101912420D03*
X119969280Y-101912420D03*
D22*
X120904000Y-82296000D03*
D23*
X120904000Y-79796000D03*
D24*
X101600000Y-91440000D03*
X98200000Y-91440000D03*
D25*
X104140000Y-71120000D03*
X153670000Y-74930000D03*
D26*
X106680000Y-96012000D03*
X106680000Y-94996000D03*
X136652000Y-88900000D03*
X138176000Y-88900000D03*
X136652000Y-89662000D03*
X136652000Y-90424000D03*
X138176000Y-89662000D03*
X138176000Y-90424000D03*
X137414000Y-88900000D03*
X137414000Y-89662000D03*
X137414000Y-90424000D03*
D25*
X141224000Y-87884000D03*
X132334000Y-88392000D03*
X132080000Y-86868000D03*
X132842000Y-87630000D03*
X133604000Y-88392000D03*
X140208000Y-87884000D03*
X141478000Y-86868000D03*
X129286000Y-98552000D03*
X103378000Y-91948000D03*
X106680000Y-93980000D03*
X102870000Y-81026000D03*
X114808000Y-96520000D03*
X120650000Y-93726000D03*
X113586576Y-101140576D03*
X103886000Y-90170000D03*
X149860000Y-73660000D03*
X90170000Y-77470000D03*
X154940000Y-78740000D03*
X140970000Y-101600000D03*
X138430000Y-105410000D03*
X129540000Y-105410000D03*
X95250000Y-88900000D03*
X128270000Y-78740000D03*
X125730000Y-78740000D03*
X148336000Y-90170000D03*
X151130000Y-85090000D03*
X113030000Y-78740000D03*
X149860000Y-71120000D03*
X143510000Y-71120000D03*
X137160000Y-71120000D03*
X130810000Y-71120000D03*
X124460000Y-71120000D03*
X118110000Y-71120000D03*
X106680000Y-71120000D03*
X90170000Y-80010000D03*
X93218000Y-70358000D03*
X90932000Y-74930000D03*
X108204000Y-75946000D03*
X104648000Y-101346000D03*
X144018000Y-92456000D03*
X140970000Y-92927000D03*
X103632000Y-100838000D03*
X109751402Y-104896738D03*
X117348000Y-102108000D03*
X133858000Y-78994000D03*
X133858000Y-80010000D03*
X113284000Y-98806000D03*
X106680000Y-80264000D03*
X137330343Y-86387491D03*
X136753600Y-85725000D03*
X103347999Y-70327999D03*
X143764000Y-86360000D03*
X145034000Y-85852000D03*
X140617923Y-88937000D03*
X120396000Y-98806000D03*
X123444000Y-91186000D03*
X93472000Y-81026000D03*
X116446067Y-90817933D03*
X139446000Y-92202000D03*
X139446000Y-79248000D03*
X141032228Y-89848685D03*
X140716000Y-91186000D03*
X109220000Y-92202000D03*
X108204000Y-100496000D03*
X128778000Y-97028000D03*
X136398000Y-104140000D03*
X131318000Y-101854000D03*
X136398000Y-101854000D03*
X117602000Y-98298000D03*
X122417363Y-98054637D03*
X124181273Y-97038443D03*
X121666000Y-91694000D03*
X104901999Y-85344000D03*
X117173067Y-89963463D03*
X113284000Y-87630000D03*
X125215933Y-87382067D03*
X104902000Y-80518000D03*
X126238000Y-87376000D03*
X111506000Y-83566000D03*
X133096000Y-90932000D03*
X118364000Y-85090000D03*
X129540000Y-89408000D03*
X133858000Y-89387000D03*
X129032000Y-88392000D03*
X132842000Y-89895000D03*
X121653147Y-98699598D03*
X128778000Y-95250000D03*
X114046000Y-92964000D03*
X121666000Y-93472000D03*
X137414000Y-93472000D03*
X134366000Y-93980000D03*
X112776000Y-93218000D03*
X114046001Y-94488000D03*
D27*
X100203000Y-79248000D02*
X96266000Y-79248000D01*
X122509280Y-101912420D02*
X122509280Y-99740720D01*
X123659347Y-99740720D02*
X124848067Y-98552000D01*
X122509280Y-99740720D02*
X123659347Y-99740720D01*
X124848067Y-98552000D02*
X129032000Y-98552000D01*
X129032000Y-98552000D02*
X129286000Y-98552000D01*
X105410000Y-93980000D02*
X103378000Y-91948000D01*
X106680000Y-93980000D02*
X105410000Y-93980000D01*
D28*
X112488900Y-102153098D02*
X116078000Y-98563998D01*
X112488900Y-103596740D02*
X112488900Y-102153098D01*
D27*
X100203000Y-79248000D02*
X101981000Y-81026000D01*
X101981000Y-81026000D02*
X102870000Y-81026000D01*
X114808000Y-96520000D02*
X116078000Y-96520000D01*
D28*
X116078000Y-98563998D02*
X116078000Y-96520000D01*
X116078000Y-96520000D02*
X117856000Y-96520000D01*
X117856000Y-96520000D02*
X120650000Y-93726000D01*
D29*
X103378000Y-90678000D02*
X103886000Y-90170000D01*
X103378000Y-91948000D02*
X103378000Y-90678000D01*
D28*
X108204000Y-72644000D02*
X106680000Y-71120000D01*
X108204000Y-75946000D02*
X108204000Y-72644000D01*
D30*
X140970000Y-92927000D02*
X143547000Y-92927000D01*
X143547000Y-92927000D02*
X144018000Y-92456000D01*
D28*
X104140000Y-101346000D02*
X105156000Y-101346000D01*
X103632000Y-100838000D02*
X104140000Y-101346000D01*
X105156000Y-101346000D02*
X104902000Y-101346000D01*
X109888900Y-103596740D02*
X109888900Y-102486738D01*
X109698901Y-102296739D02*
X109888900Y-102486738D01*
X105156000Y-101346000D02*
X108458000Y-101346000D01*
X109698901Y-102296739D02*
X109662739Y-102296739D01*
X108712000Y-101346000D02*
X108458000Y-101346000D01*
X109662739Y-102296739D02*
X108712000Y-101346000D01*
D27*
X109888900Y-103596740D02*
X109888900Y-104808900D01*
X109888900Y-104808900D02*
X109982000Y-104902000D01*
X140570001Y-93326999D02*
X140570001Y-93363999D01*
X140970000Y-92927000D02*
X140570001Y-93326999D01*
X140570001Y-93363999D02*
X138430000Y-95504000D01*
X130844999Y-95977001D02*
X131318000Y-95504000D01*
X122074932Y-99533001D02*
X123099286Y-98508647D01*
X120047039Y-99533001D02*
X122074932Y-99533001D01*
X118085037Y-97570999D02*
X120047039Y-99533001D01*
X117253039Y-97570999D02*
X118085037Y-97570999D01*
X126781000Y-95977001D02*
X130844999Y-95977001D01*
X124249354Y-98508647D02*
X126781000Y-95977001D01*
X116874999Y-97949039D02*
X117253039Y-97570999D01*
X117348000Y-102108000D02*
X116874999Y-101634999D01*
X123099286Y-98508647D02*
X124249354Y-98508647D01*
X116874999Y-101634999D02*
X116874999Y-97949039D01*
X138430000Y-95504000D02*
X131318000Y-95504000D01*
X111760000Y-100312000D02*
X111778000Y-100330000D01*
X113284000Y-98806000D02*
X111760000Y-98806000D01*
X111760000Y-98044000D02*
X111760000Y-98806000D01*
X111760000Y-98806000D02*
X111760000Y-100312000D01*
X106680000Y-80264000D02*
X105156000Y-78740000D01*
D28*
X133858000Y-78994000D02*
X133858000Y-82888000D01*
X133858000Y-82888000D02*
X136457600Y-85487600D01*
D27*
X137332434Y-86385400D02*
X137330343Y-86387491D01*
X137414000Y-86385400D02*
X137332434Y-86385400D01*
X136457600Y-85505200D02*
X136533800Y-85505200D01*
X136457600Y-85487600D02*
X136457600Y-85505200D01*
X136533800Y-85505200D02*
X136753600Y-85725000D01*
D31*
X136753600Y-85725000D02*
X137414000Y-86385400D01*
D28*
X92621999Y-83194001D02*
X92621999Y-73347999D01*
X111760000Y-98044000D02*
X110609990Y-96893990D01*
X96100001Y-91116003D02*
X96100001Y-86672003D01*
X110609990Y-96893990D02*
X101877988Y-96893990D01*
X96100001Y-86672003D02*
X92621999Y-83194001D01*
X101877988Y-96893990D02*
X96100001Y-91116003D01*
X133858000Y-76962000D02*
X133858000Y-80010000D01*
X134620000Y-76200000D02*
X133858000Y-76962000D01*
X133858000Y-76708000D02*
X133350000Y-76200000D01*
X133858000Y-76962000D02*
X133858000Y-76708000D01*
X133350000Y-76200000D02*
X134620000Y-76200000D01*
X95641999Y-70327999D02*
X103347999Y-70327999D01*
X92621999Y-73347999D02*
X95641999Y-70327999D01*
X137160000Y-73660000D02*
X133858000Y-76962000D01*
X143764000Y-73660000D02*
X137160000Y-73660000D01*
X132753999Y-76796001D02*
X105498001Y-76796001D01*
X133350000Y-76200000D02*
X132753999Y-76796001D01*
X105498001Y-76796001D02*
X103347999Y-74645999D01*
D27*
X105156000Y-77138002D02*
X105498001Y-76796001D01*
X105156000Y-78740000D02*
X105156000Y-77138002D01*
D28*
X103347999Y-70327999D02*
X104140000Y-71120000D01*
X103632000Y-71120000D02*
X103347999Y-71404001D01*
X104140000Y-71120000D02*
X103632000Y-71120000D01*
X103347999Y-74645999D02*
X103347999Y-71404001D01*
X103347999Y-71404001D02*
X103347999Y-70327999D01*
X143510000Y-87376000D02*
X145034000Y-85852000D01*
X143764000Y-87122000D02*
X141986000Y-88900000D01*
X143764000Y-86360000D02*
X143764000Y-87122000D01*
D29*
X141949000Y-88937000D02*
X141986000Y-88900000D01*
D28*
X140617923Y-88937000D02*
X141949000Y-88937000D01*
X93472000Y-81026000D02*
X94488000Y-82042000D01*
X96012000Y-82042000D02*
X96266000Y-81788000D01*
X94488000Y-82042000D02*
X96012000Y-82042000D01*
X96266000Y-81788000D02*
X100203000Y-81788000D01*
X122936000Y-91694000D02*
X123444000Y-91186000D01*
X122936000Y-93460002D02*
X122936000Y-91694000D01*
X122074001Y-94322001D02*
X122936000Y-93460002D01*
X121831999Y-94322001D02*
X122074001Y-94322001D01*
X120904000Y-94996000D02*
X120904000Y-98298000D01*
X122074001Y-94322001D02*
X121577999Y-94322001D01*
X120904000Y-98298000D02*
X120396000Y-98806000D01*
X121577999Y-94322001D02*
X120904000Y-94996000D01*
D27*
X116366999Y-90897001D02*
X116446067Y-90817933D01*
X100203000Y-81788000D02*
X102362000Y-83947000D01*
X102362000Y-83947000D02*
X102362000Y-87376000D01*
X105883001Y-90897001D02*
X109762999Y-90897001D01*
X102362000Y-87376000D02*
X105883001Y-90897001D01*
X109312001Y-90897001D02*
X109762999Y-90897001D01*
X109762999Y-90897001D02*
X116366999Y-90897001D01*
D28*
X143546999Y-89625001D02*
X146340999Y-89625001D01*
X141478000Y-92202000D02*
X143546999Y-90133001D01*
X143546999Y-90133001D02*
X143546999Y-89625001D01*
D29*
X139446000Y-92202000D02*
X141478000Y-92202000D01*
X144272000Y-79502000D02*
X139700000Y-79502000D01*
X139700000Y-79502000D02*
X139446000Y-79248000D01*
X147066000Y-82296000D02*
X144272000Y-79502000D01*
D28*
X147066000Y-88900000D02*
X147066000Y-82296000D01*
X146340999Y-89625001D02*
X147066000Y-88900000D01*
D29*
X143323315Y-89848685D02*
X143546999Y-89625001D01*
D28*
X141032228Y-89848685D02*
X143323315Y-89848685D01*
D27*
X109562000Y-100496000D02*
X109728000Y-100330000D01*
X108204000Y-100496000D02*
X109562000Y-100496000D01*
X132833000Y-104140000D02*
X131318000Y-104140000D01*
X130590999Y-98275314D02*
X130590999Y-103412999D01*
X130590999Y-103412999D02*
X131318000Y-104140000D01*
X129343685Y-97028000D02*
X130590999Y-98275314D01*
X128778000Y-97028000D02*
X129343685Y-97028000D01*
X136398000Y-104140000D02*
X134883000Y-104140000D01*
X131318000Y-101854000D02*
X132833000Y-101854000D01*
X134883000Y-101854000D02*
X136398000Y-101854000D01*
X119969280Y-100665280D02*
X119969280Y-101912420D01*
X117602000Y-98298000D02*
X119969280Y-100665280D01*
X122417363Y-98054637D02*
X123179363Y-98054637D01*
X123179363Y-98054637D02*
X123826497Y-97407503D01*
X123826497Y-97407503D02*
X123826497Y-97393219D01*
X123826497Y-97393219D02*
X124181273Y-97038443D01*
X108338900Y-104696740D02*
X108238900Y-104796740D01*
X108338900Y-103496740D02*
X108338900Y-104696740D01*
X108238900Y-105926740D02*
X107688900Y-106476740D01*
X108238900Y-104796740D02*
X108238900Y-105926740D01*
X109028900Y-105546740D02*
X110228900Y-106746740D01*
X108458900Y-105546740D02*
X109028900Y-105546740D01*
X110228900Y-106746740D02*
X112148900Y-106746740D01*
X112738900Y-106746740D02*
X113938900Y-105546740D01*
X112148900Y-106746740D02*
X112738900Y-106746740D01*
X113938900Y-103626740D02*
X114088900Y-103476740D01*
X113938900Y-105546740D02*
X113938900Y-103626740D01*
X113938900Y-105726740D02*
X114688900Y-106476740D01*
X113938900Y-105546740D02*
X113938900Y-105726740D01*
X114088900Y-103476740D02*
X113608900Y-103476740D01*
X108748900Y-103496740D02*
X108768900Y-103476740D01*
X108338900Y-103496740D02*
X108748900Y-103496740D01*
X107688900Y-106316740D02*
X108458900Y-105546740D01*
X107688900Y-106476740D02*
X107688900Y-106316740D01*
X100237999Y-84362999D02*
X100203000Y-84328000D01*
X100203000Y-84328000D02*
X96266000Y-84328000D01*
X121666000Y-91694000D02*
X115316000Y-85344000D01*
X115316000Y-85344000D02*
X104901999Y-85344000D01*
X100203000Y-76708000D02*
X96266000Y-76708000D01*
X103720989Y-80225989D02*
X103720989Y-86448989D01*
X100203000Y-76708000D02*
X103720989Y-80225989D01*
X103720989Y-86448989D02*
X105410000Y-88138000D01*
X105410000Y-88138000D02*
X112268000Y-88138000D01*
X112268000Y-88138000D02*
X114093463Y-89963463D01*
X114093463Y-89963463D02*
X117173067Y-89963463D01*
X100203000Y-74168000D02*
X96266000Y-74168000D01*
X102816010Y-77416010D02*
X102816010Y-76781010D01*
X112874157Y-87220157D02*
X105254157Y-87220157D01*
X113284000Y-87630000D02*
X112874157Y-87220157D01*
X102816010Y-76781010D02*
X100203000Y-74168000D01*
X104174999Y-86140999D02*
X104174999Y-78774999D01*
X105254157Y-87220157D02*
X104174999Y-86140999D01*
X104174999Y-78774999D02*
X102816010Y-77416010D01*
X125215933Y-87382067D02*
X122196865Y-84362999D01*
X108746999Y-84362999D02*
X122196865Y-84362999D01*
X104902000Y-80518000D02*
X108746999Y-84362999D01*
X126238000Y-87376000D02*
X122428000Y-83566000D01*
X122428000Y-83566000D02*
X111506000Y-83566000D01*
X133096000Y-90932000D02*
X129540000Y-90932000D01*
X127396999Y-90932000D02*
X121554999Y-85090000D01*
X129540000Y-90932000D02*
X127396999Y-90932000D01*
X121554999Y-85090000D02*
X118364000Y-85090000D01*
D28*
X132842000Y-89916000D02*
X130048000Y-89916000D01*
X130048000Y-89916000D02*
X129540000Y-89408000D01*
X133371000Y-89387000D02*
X132842000Y-89916000D01*
X133858000Y-89387000D02*
X133371000Y-89387000D01*
X129032000Y-88900000D02*
X129032000Y-88392000D01*
X129540000Y-89408000D02*
X129032000Y-88900000D01*
X129561000Y-89387000D02*
X129540000Y-89408000D01*
D27*
X124146038Y-95250000D02*
X128778000Y-95250000D01*
X121653147Y-98699598D02*
X121653147Y-97742891D01*
X121653147Y-97742891D02*
X124146038Y-95250000D01*
X120650000Y-92964000D02*
X121158000Y-92964000D01*
X120650000Y-92964000D02*
X120849985Y-92964000D01*
X121158000Y-92964000D02*
X121666000Y-93472000D01*
X114046000Y-92964000D02*
X120650000Y-92964000D01*
D29*
X136906000Y-93980000D02*
X137414000Y-93472000D01*
X134366000Y-93980000D02*
X136906000Y-93980000D01*
D27*
X109710000Y-98044000D02*
X110875990Y-99209990D01*
X114046001Y-99653017D02*
X114046001Y-94488000D01*
X111213992Y-101357010D02*
X112342008Y-101357010D01*
X110875990Y-99209990D02*
X110875990Y-101019008D01*
X110875990Y-101019008D02*
X111213992Y-101357010D01*
X112342008Y-101357010D02*
X114046001Y-99653017D01*
G36*
X157031326Y-77941566D02*
G01*
X139765597Y-107846500D01*
X127477120Y-107846500D01*
X127477120Y-104356621D01*
X127479084Y-104336680D01*
X127471245Y-104257090D01*
X127448030Y-104180559D01*
X127410330Y-104110027D01*
X127359594Y-104048206D01*
X127297773Y-103997470D01*
X127227241Y-103959770D01*
X127150710Y-103936555D01*
X127091061Y-103930680D01*
X127091060Y-103930680D01*
X127071120Y-103928716D01*
X127051179Y-103930680D01*
X126192325Y-103930680D01*
X126194123Y-103912420D01*
X126194123Y-99912420D01*
X126186767Y-99837731D01*
X126164981Y-99765912D01*
X126129602Y-99699724D01*
X126081991Y-99641709D01*
X126023976Y-99594098D01*
X125957788Y-99558719D01*
X125885969Y-99536933D01*
X125811280Y-99529577D01*
X124287280Y-99529577D01*
X124212591Y-99536933D01*
X124140772Y-99558719D01*
X124074584Y-99594098D01*
X124016569Y-99641709D01*
X123968958Y-99699724D01*
X123933579Y-99765912D01*
X123911793Y-99837731D01*
X123904437Y-99912420D01*
X123904437Y-103912420D01*
X123906235Y-103930680D01*
X121112325Y-103930680D01*
X121114123Y-103912420D01*
X121114123Y-100041001D01*
X122049988Y-100041001D01*
X122074932Y-100043458D01*
X122099876Y-100041001D01*
X122099879Y-100041001D01*
X122174517Y-100033650D01*
X122270275Y-100004602D01*
X122358527Y-99957430D01*
X122435880Y-99893949D01*
X122451787Y-99874566D01*
X123309707Y-99016647D01*
X124224410Y-99016647D01*
X124249354Y-99019104D01*
X124274298Y-99016647D01*
X124274301Y-99016647D01*
X124348939Y-99009296D01*
X124444697Y-98980248D01*
X124532949Y-98933076D01*
X124610302Y-98869595D01*
X124626209Y-98850212D01*
X126991421Y-96485001D01*
X128216498Y-96485001D01*
X128171358Y-96530141D01*
X128085887Y-96658058D01*
X128027013Y-96800191D01*
X127997000Y-96951078D01*
X127997000Y-97104922D01*
X128027013Y-97255809D01*
X128085887Y-97397942D01*
X128171358Y-97525859D01*
X128280141Y-97634642D01*
X128408058Y-97720113D01*
X128550191Y-97778987D01*
X128701078Y-97809000D01*
X128854922Y-97809000D01*
X129005809Y-97778987D01*
X129147942Y-97720113D01*
X129249512Y-97652247D01*
X130082999Y-98485735D01*
X130083000Y-103388045D01*
X130080542Y-103412999D01*
X130089473Y-103503673D01*
X130090351Y-103512584D01*
X130109687Y-103576325D01*
X130119399Y-103608342D01*
X130166570Y-103696594D01*
X130187807Y-103722471D01*
X130230052Y-103773947D01*
X130249429Y-103789849D01*
X130941145Y-104481565D01*
X130957052Y-104500948D01*
X131034405Y-104564429D01*
X131122657Y-104611601D01*
X131218415Y-104640649D01*
X131293053Y-104648000D01*
X131293056Y-104648000D01*
X131318000Y-104650457D01*
X131342944Y-104648000D01*
X131880869Y-104648000D01*
X131887317Y-104713462D01*
X131923329Y-104832179D01*
X131981810Y-104941589D01*
X132060512Y-105037488D01*
X132156411Y-105116190D01*
X132265821Y-105174671D01*
X132384538Y-105210683D01*
X132507999Y-105222843D01*
X133158001Y-105222843D01*
X133281462Y-105210683D01*
X133400179Y-105174671D01*
X133509589Y-105116190D01*
X133605488Y-105037488D01*
X133684190Y-104941589D01*
X133742671Y-104832179D01*
X133778683Y-104713462D01*
X133790843Y-104590001D01*
X133790843Y-103689999D01*
X133925157Y-103689999D01*
X133925157Y-104590001D01*
X133937317Y-104713462D01*
X133973329Y-104832179D01*
X134031810Y-104941589D01*
X134110512Y-105037488D01*
X134206411Y-105116190D01*
X134315821Y-105174671D01*
X134434538Y-105210683D01*
X134557999Y-105222843D01*
X135208001Y-105222843D01*
X135331462Y-105210683D01*
X135450179Y-105174671D01*
X135559589Y-105116190D01*
X135655488Y-105037488D01*
X135734190Y-104941589D01*
X135792671Y-104832179D01*
X135828683Y-104713462D01*
X135832115Y-104678616D01*
X135900141Y-104746642D01*
X136028058Y-104832113D01*
X136170191Y-104890987D01*
X136321078Y-104921000D01*
X136474922Y-104921000D01*
X136625809Y-104890987D01*
X136767942Y-104832113D01*
X136895859Y-104746642D01*
X137004642Y-104637859D01*
X137090113Y-104509942D01*
X137148987Y-104367809D01*
X137179000Y-104216922D01*
X137179000Y-104063078D01*
X137148987Y-103912191D01*
X137090113Y-103770058D01*
X137004642Y-103642141D01*
X136895859Y-103533358D01*
X136767942Y-103447887D01*
X136625809Y-103389013D01*
X136474922Y-103359000D01*
X136321078Y-103359000D01*
X136170191Y-103389013D01*
X136028058Y-103447887D01*
X135900141Y-103533358D01*
X135832115Y-103601384D01*
X135828683Y-103566538D01*
X135792671Y-103447821D01*
X135734190Y-103338411D01*
X135655488Y-103242512D01*
X135559589Y-103163810D01*
X135450179Y-103105329D01*
X135331462Y-103069317D01*
X135208001Y-103057157D01*
X134557999Y-103057157D01*
X134434538Y-103069317D01*
X134315821Y-103105329D01*
X134206411Y-103163810D01*
X134110512Y-103242512D01*
X134031810Y-103338411D01*
X133973329Y-103447821D01*
X133937317Y-103566538D01*
X133925157Y-103689999D01*
X133790843Y-103689999D01*
X133778683Y-103566538D01*
X133742671Y-103447821D01*
X133684190Y-103338411D01*
X133605488Y-103242512D01*
X133509589Y-103163810D01*
X133400179Y-103105329D01*
X133281462Y-103069317D01*
X133158001Y-103057157D01*
X132507999Y-103057157D01*
X132384538Y-103069317D01*
X132265821Y-103105329D01*
X132156411Y-103163810D01*
X132060512Y-103242512D01*
X131981810Y-103338411D01*
X131923329Y-103447821D01*
X131887317Y-103566538D01*
X131880869Y-103632000D01*
X131528420Y-103632000D01*
X131098999Y-103202579D01*
X131098999Y-102606739D01*
X131241078Y-102635000D01*
X131394922Y-102635000D01*
X131545809Y-102604987D01*
X131687942Y-102546113D01*
X131815859Y-102460642D01*
X131883885Y-102392616D01*
X131887317Y-102427462D01*
X131923329Y-102546179D01*
X131981810Y-102655589D01*
X132060512Y-102751488D01*
X132156411Y-102830190D01*
X132265821Y-102888671D01*
X132384538Y-102924683D01*
X132507999Y-102936843D01*
X133158001Y-102936843D01*
X133281462Y-102924683D01*
X133400179Y-102888671D01*
X133509589Y-102830190D01*
X133605488Y-102751488D01*
X133684190Y-102655589D01*
X133742671Y-102546179D01*
X133778683Y-102427462D01*
X133790843Y-102304001D01*
X133790843Y-101403999D01*
X133925157Y-101403999D01*
X133925157Y-102304001D01*
X133937317Y-102427462D01*
X133973329Y-102546179D01*
X134031810Y-102655589D01*
X134110512Y-102751488D01*
X134206411Y-102830190D01*
X134315821Y-102888671D01*
X134434538Y-102924683D01*
X134557999Y-102936843D01*
X135208001Y-102936843D01*
X135331462Y-102924683D01*
X135450179Y-102888671D01*
X135559589Y-102830190D01*
X135655488Y-102751488D01*
X135734190Y-102655589D01*
X135792671Y-102546179D01*
X135828683Y-102427462D01*
X135832115Y-102392616D01*
X135900141Y-102460642D01*
X136028058Y-102546113D01*
X136170191Y-102604987D01*
X136321078Y-102635000D01*
X136474922Y-102635000D01*
X136625809Y-102604987D01*
X136767942Y-102546113D01*
X136895859Y-102460642D01*
X137004642Y-102351859D01*
X137090113Y-102223942D01*
X137148987Y-102081809D01*
X137179000Y-101930922D01*
X137179000Y-101777078D01*
X137148987Y-101626191D01*
X137090113Y-101484058D01*
X137004642Y-101356141D01*
X136895859Y-101247358D01*
X136767942Y-101161887D01*
X136625809Y-101103013D01*
X136474922Y-101073000D01*
X136321078Y-101073000D01*
X136170191Y-101103013D01*
X136028058Y-101161887D01*
X135900141Y-101247358D01*
X135832115Y-101315384D01*
X135828683Y-101280538D01*
X135792671Y-101161821D01*
X135734190Y-101052411D01*
X135655488Y-100956512D01*
X135559589Y-100877810D01*
X135450179Y-100819329D01*
X135331462Y-100783317D01*
X135208001Y-100771157D01*
X134557999Y-100771157D01*
X134434538Y-100783317D01*
X134315821Y-100819329D01*
X134206411Y-100877810D01*
X134110512Y-100956512D01*
X134031810Y-101052411D01*
X133973329Y-101161821D01*
X133937317Y-101280538D01*
X133925157Y-101403999D01*
X133790843Y-101403999D01*
X133778683Y-101280538D01*
X133742671Y-101161821D01*
X133684190Y-101052411D01*
X133605488Y-100956512D01*
X133509589Y-100877810D01*
X133400179Y-100819329D01*
X133281462Y-100783317D01*
X133158001Y-100771157D01*
X132507999Y-100771157D01*
X132384538Y-100783317D01*
X132265821Y-100819329D01*
X132156411Y-100877810D01*
X132060512Y-100956512D01*
X131981810Y-101052411D01*
X131923329Y-101161821D01*
X131887317Y-101280538D01*
X131883885Y-101315384D01*
X131815859Y-101247358D01*
X131687942Y-101161887D01*
X131545809Y-101103013D01*
X131394922Y-101073000D01*
X131241078Y-101073000D01*
X131098999Y-101101261D01*
X131098999Y-98300257D01*
X131101456Y-98275313D01*
X131098961Y-98249980D01*
X131091648Y-98175729D01*
X131062600Y-98079971D01*
X131062599Y-98079969D01*
X131015428Y-97991718D01*
X130967849Y-97933743D01*
X130951947Y-97914366D01*
X130932570Y-97898464D01*
X129720540Y-96686435D01*
X129704633Y-96667052D01*
X129627280Y-96603571D01*
X129539028Y-96556399D01*
X129443270Y-96527351D01*
X129375142Y-96520641D01*
X129339502Y-96485001D01*
X130820055Y-96485001D01*
X130844999Y-96487458D01*
X130869943Y-96485001D01*
X130869946Y-96485001D01*
X130944584Y-96477650D01*
X131040342Y-96448602D01*
X131128594Y-96401430D01*
X131205947Y-96337949D01*
X131221854Y-96318567D01*
X131528421Y-96012000D01*
X138405056Y-96012000D01*
X138430000Y-96014457D01*
X138454944Y-96012000D01*
X138454947Y-96012000D01*
X138529585Y-96004649D01*
X138625343Y-95975601D01*
X138713595Y-95928429D01*
X138790948Y-95864948D01*
X138806855Y-95845565D01*
X140911572Y-93740849D01*
X140930949Y-93724947D01*
X140944857Y-93708000D01*
X141046922Y-93708000D01*
X141197809Y-93677987D01*
X141339942Y-93619113D01*
X141467859Y-93533642D01*
X141576642Y-93424859D01*
X141587907Y-93408000D01*
X143523374Y-93408000D01*
X143547000Y-93410327D01*
X143570626Y-93408000D01*
X143641292Y-93401040D01*
X143731961Y-93373536D01*
X143815522Y-93328872D01*
X143888764Y-93268764D01*
X143903830Y-93250406D01*
X143921192Y-93233044D01*
X143941078Y-93237000D01*
X144094922Y-93237000D01*
X144245809Y-93206987D01*
X144387942Y-93148113D01*
X144515859Y-93062642D01*
X144624642Y-92953859D01*
X144710113Y-92825942D01*
X144768987Y-92683809D01*
X144799000Y-92532922D01*
X144799000Y-92379078D01*
X144768987Y-92228191D01*
X144710113Y-92086058D01*
X144624642Y-91958141D01*
X144515859Y-91849358D01*
X144387942Y-91763887D01*
X144245809Y-91705013D01*
X144094922Y-91675000D01*
X143941078Y-91675000D01*
X143790191Y-91705013D01*
X143648058Y-91763887D01*
X143520141Y-91849358D01*
X143411358Y-91958141D01*
X143325887Y-92086058D01*
X143267013Y-92228191D01*
X143237000Y-92379078D01*
X143237000Y-92446000D01*
X142126368Y-92446000D01*
X143971263Y-90601105D01*
X143995342Y-90581344D01*
X144074195Y-90485262D01*
X144132788Y-90375643D01*
X144168869Y-90256699D01*
X144168938Y-90256001D01*
X146310009Y-90256001D01*
X146340999Y-90259053D01*
X146371989Y-90256001D01*
X146371997Y-90256001D01*
X146464697Y-90246871D01*
X146583641Y-90210790D01*
X146693260Y-90152197D01*
X146789342Y-90073344D01*
X146809104Y-90049264D01*
X147490269Y-89368100D01*
X147514343Y-89348343D01*
X147534104Y-89324265D01*
X147593196Y-89252261D01*
X147651789Y-89142642D01*
X147656739Y-89126323D01*
X147687870Y-89023698D01*
X147697000Y-88930998D01*
X147697000Y-88930989D01*
X147700052Y-88900001D01*
X147697000Y-88869013D01*
X147697000Y-82265002D01*
X147687870Y-82172302D01*
X147651789Y-82053358D01*
X147593196Y-81943739D01*
X147514343Y-81847657D01*
X147418261Y-81768804D01*
X147308642Y-81710211D01*
X147189698Y-81674130D01*
X147156447Y-81670855D01*
X144647376Y-79161785D01*
X144645912Y-79160000D01*
X149643157Y-79160000D01*
X149643157Y-80860000D01*
X149650513Y-80934689D01*
X149672299Y-81006508D01*
X149707678Y-81072696D01*
X149755289Y-81130711D01*
X149813304Y-81178322D01*
X149879492Y-81213701D01*
X149951311Y-81235487D01*
X150026000Y-81242843D01*
X151726000Y-81242843D01*
X151800689Y-81235487D01*
X151872508Y-81213701D01*
X151938696Y-81178322D01*
X151996711Y-81130711D01*
X152044322Y-81072696D01*
X152079701Y-81006508D01*
X152101487Y-80934689D01*
X152108843Y-80860000D01*
X152108843Y-79160000D01*
X152101487Y-79085311D01*
X152079701Y-79013492D01*
X152044322Y-78947304D01*
X151996711Y-78889289D01*
X151938696Y-78841678D01*
X151872508Y-78806299D01*
X151800689Y-78784513D01*
X151726000Y-78777157D01*
X150026000Y-78777157D01*
X149951311Y-78784513D01*
X149879492Y-78806299D01*
X149813304Y-78841678D01*
X149755289Y-78889289D01*
X149707678Y-78947304D01*
X149672299Y-79013492D01*
X149650513Y-79085311D01*
X149643157Y-79160000D01*
X144645912Y-79160000D01*
X144631527Y-79142473D01*
X144554479Y-79079241D01*
X144466575Y-79032255D01*
X144371193Y-79003322D01*
X144296854Y-78996000D01*
X144296846Y-78996000D01*
X144272000Y-78993553D01*
X144247154Y-78996000D01*
X140186967Y-78996000D01*
X140138113Y-78878058D01*
X140052642Y-78750141D01*
X139943859Y-78641358D01*
X139815942Y-78555887D01*
X139673809Y-78497013D01*
X139522922Y-78467000D01*
X139369078Y-78467000D01*
X139218191Y-78497013D01*
X139076058Y-78555887D01*
X138948141Y-78641358D01*
X138839358Y-78750141D01*
X138753887Y-78878058D01*
X138695013Y-79020191D01*
X138665000Y-79171078D01*
X138665000Y-79324922D01*
X138695013Y-79475809D01*
X138753887Y-79617942D01*
X138839358Y-79745859D01*
X138948141Y-79854642D01*
X139076058Y-79940113D01*
X139218191Y-79998987D01*
X139369078Y-80029000D01*
X139522922Y-80029000D01*
X139643946Y-80004927D01*
X139675146Y-80008000D01*
X139675153Y-80008000D01*
X139699999Y-80010447D01*
X139724845Y-80008000D01*
X144062409Y-80008000D01*
X146435001Y-82380593D01*
X146435000Y-88638631D01*
X146079631Y-88994001D01*
X143577997Y-88994001D01*
X143546999Y-88990948D01*
X143516001Y-88994001D01*
X143423301Y-89003131D01*
X143304357Y-89039212D01*
X143194738Y-89097805D01*
X143098656Y-89176658D01*
X143064986Y-89217685D01*
X142560683Y-89217685D01*
X144188268Y-87590101D01*
X144212343Y-87570343D01*
X144232105Y-87546263D01*
X145153921Y-86624447D01*
X145261809Y-86602987D01*
X145403942Y-86544113D01*
X145531859Y-86458642D01*
X145640642Y-86349859D01*
X145726113Y-86221942D01*
X145784987Y-86079809D01*
X145815000Y-85928922D01*
X145815000Y-85775078D01*
X145784987Y-85624191D01*
X145726113Y-85482058D01*
X145640642Y-85354141D01*
X145531859Y-85245358D01*
X145403942Y-85159887D01*
X145261809Y-85101013D01*
X145110922Y-85071000D01*
X144957078Y-85071000D01*
X144806191Y-85101013D01*
X144664058Y-85159887D01*
X144536141Y-85245358D01*
X144427358Y-85354141D01*
X144341887Y-85482058D01*
X144283013Y-85624191D01*
X144261553Y-85732079D01*
X144248920Y-85744712D01*
X144133942Y-85667887D01*
X143991809Y-85609013D01*
X143840922Y-85579000D01*
X143687078Y-85579000D01*
X143536191Y-85609013D01*
X143394058Y-85667887D01*
X143266141Y-85753358D01*
X143157358Y-85862141D01*
X143071887Y-85990058D01*
X143013013Y-86132191D01*
X142983000Y-86283078D01*
X142983000Y-86436922D01*
X143013013Y-86587809D01*
X143071887Y-86729942D01*
X143133000Y-86821405D01*
X143133000Y-86860631D01*
X141687632Y-88306000D01*
X141079328Y-88306000D01*
X140987865Y-88244887D01*
X140845732Y-88186013D01*
X140694845Y-88156000D01*
X140541001Y-88156000D01*
X140390114Y-88186013D01*
X140247981Y-88244887D01*
X140120064Y-88330358D01*
X140011281Y-88439141D01*
X139925810Y-88567058D01*
X139866936Y-88709191D01*
X139836923Y-88860078D01*
X139836923Y-89013922D01*
X139866936Y-89164809D01*
X139925810Y-89306942D01*
X140011281Y-89434859D01*
X140120064Y-89543642D01*
X140247981Y-89629113D01*
X140277196Y-89641214D01*
X140251228Y-89771763D01*
X140251228Y-89925607D01*
X140281241Y-90076494D01*
X140340115Y-90218627D01*
X140425586Y-90346544D01*
X140509764Y-90430722D01*
X140488191Y-90435013D01*
X140346058Y-90493887D01*
X140218141Y-90579358D01*
X140109358Y-90688141D01*
X140023887Y-90816058D01*
X139965013Y-90958191D01*
X139935000Y-91109078D01*
X139935000Y-91262922D01*
X139965013Y-91413809D01*
X140023887Y-91555942D01*
X140109358Y-91683859D01*
X140121499Y-91696000D01*
X140044501Y-91696000D01*
X139943859Y-91595358D01*
X139815942Y-91509887D01*
X139673809Y-91451013D01*
X139522922Y-91421000D01*
X139369078Y-91421000D01*
X139218191Y-91451013D01*
X139076058Y-91509887D01*
X138948141Y-91595358D01*
X138839358Y-91704141D01*
X138753887Y-91832058D01*
X138695013Y-91974191D01*
X138665000Y-92125078D01*
X138665000Y-92278922D01*
X138695013Y-92429809D01*
X138753887Y-92571942D01*
X138839358Y-92699859D01*
X138948141Y-92808642D01*
X139076058Y-92894113D01*
X139218191Y-92952987D01*
X139369078Y-92983000D01*
X139522922Y-92983000D01*
X139673809Y-92952987D01*
X139815942Y-92894113D01*
X139943859Y-92808642D01*
X140044501Y-92708000D01*
X140217261Y-92708000D01*
X140189000Y-92850078D01*
X140189000Y-92990486D01*
X140145572Y-93043404D01*
X140115025Y-93100554D01*
X138219580Y-94996000D01*
X131342943Y-94996000D01*
X131317999Y-94993543D01*
X131293055Y-94996000D01*
X131293053Y-94996000D01*
X131218415Y-95003351D01*
X131122657Y-95032399D01*
X131122655Y-95032400D01*
X131034404Y-95079571D01*
X130979810Y-95124376D01*
X130957052Y-95143052D01*
X130941149Y-95162430D01*
X130634579Y-95469001D01*
X129530739Y-95469001D01*
X129559000Y-95326922D01*
X129559000Y-95173078D01*
X129528987Y-95022191D01*
X129470113Y-94880058D01*
X129384642Y-94752141D01*
X129275859Y-94643358D01*
X129147942Y-94557887D01*
X129005809Y-94499013D01*
X128854922Y-94469000D01*
X128701078Y-94469000D01*
X128550191Y-94499013D01*
X128408058Y-94557887D01*
X128280141Y-94643358D01*
X128181499Y-94742000D01*
X124170981Y-94742000D01*
X124146037Y-94739543D01*
X124121093Y-94742000D01*
X124121091Y-94742000D01*
X124046453Y-94749351D01*
X123950695Y-94778399D01*
X123950693Y-94778400D01*
X123862442Y-94825571D01*
X123833654Y-94849197D01*
X123785090Y-94889052D01*
X123769188Y-94908429D01*
X121535000Y-97142618D01*
X121535000Y-95257368D01*
X121839368Y-94953001D01*
X122043011Y-94953001D01*
X122074001Y-94956053D01*
X122104991Y-94953001D01*
X122104999Y-94953001D01*
X122197699Y-94943871D01*
X122316643Y-94907790D01*
X122426262Y-94849197D01*
X122522344Y-94770344D01*
X122542106Y-94746264D01*
X123360269Y-93928102D01*
X123384343Y-93908345D01*
X123388665Y-93903078D01*
X133585000Y-93903078D01*
X133585000Y-94056922D01*
X133615013Y-94207809D01*
X133673887Y-94349942D01*
X133759358Y-94477859D01*
X133868141Y-94586642D01*
X133996058Y-94672113D01*
X134138191Y-94730987D01*
X134289078Y-94761000D01*
X134442922Y-94761000D01*
X134593809Y-94730987D01*
X134735942Y-94672113D01*
X134863859Y-94586642D01*
X134964501Y-94486000D01*
X136881154Y-94486000D01*
X136906000Y-94488447D01*
X136930846Y-94486000D01*
X136930854Y-94486000D01*
X137005193Y-94478678D01*
X137100575Y-94449745D01*
X137188479Y-94402759D01*
X137265527Y-94339527D01*
X137281376Y-94320215D01*
X137348591Y-94253000D01*
X137490922Y-94253000D01*
X137641809Y-94222987D01*
X137783942Y-94164113D01*
X137911859Y-94078642D01*
X138020642Y-93969859D01*
X138106113Y-93841942D01*
X138164987Y-93699809D01*
X138195000Y-93548922D01*
X138195000Y-93395078D01*
X138164987Y-93244191D01*
X138106113Y-93102058D01*
X138020642Y-92974141D01*
X137911859Y-92865358D01*
X137783942Y-92779887D01*
X137641809Y-92721013D01*
X137490922Y-92691000D01*
X137337078Y-92691000D01*
X137186191Y-92721013D01*
X137044058Y-92779887D01*
X136916141Y-92865358D01*
X136807358Y-92974141D01*
X136721887Y-93102058D01*
X136663013Y-93244191D01*
X136633000Y-93395078D01*
X136633000Y-93474000D01*
X134964501Y-93474000D01*
X134863859Y-93373358D01*
X134735942Y-93287887D01*
X134593809Y-93229013D01*
X134442922Y-93199000D01*
X134289078Y-93199000D01*
X134138191Y-93229013D01*
X133996058Y-93287887D01*
X133868141Y-93373358D01*
X133759358Y-93482141D01*
X133673887Y-93610058D01*
X133615013Y-93752191D01*
X133585000Y-93903078D01*
X123388665Y-93903078D01*
X123406943Y-93880808D01*
X123463196Y-93812263D01*
X123521789Y-93702644D01*
X123557870Y-93583700D01*
X123563913Y-93522342D01*
X123567000Y-93491000D01*
X123567000Y-93490993D01*
X123570052Y-93460002D01*
X123567000Y-93429012D01*
X123567000Y-91957835D01*
X123671809Y-91936987D01*
X123813942Y-91878113D01*
X123941859Y-91792642D01*
X124050642Y-91683859D01*
X124136113Y-91555942D01*
X124194987Y-91413809D01*
X124225000Y-91262922D01*
X124225000Y-91109078D01*
X124194987Y-90958191D01*
X124136113Y-90816058D01*
X124050642Y-90688141D01*
X123941859Y-90579358D01*
X123813942Y-90493887D01*
X123671809Y-90435013D01*
X123520922Y-90405000D01*
X123367078Y-90405000D01*
X123216191Y-90435013D01*
X123074058Y-90493887D01*
X122946141Y-90579358D01*
X122837358Y-90688141D01*
X122751887Y-90816058D01*
X122693013Y-90958191D01*
X122671553Y-91066079D01*
X122511733Y-91225899D01*
X122487658Y-91245657D01*
X122467900Y-91269732D01*
X122467897Y-91269735D01*
X122408804Y-91341740D01*
X122384371Y-91387450D01*
X122358113Y-91324058D01*
X122272642Y-91196141D01*
X122163859Y-91087358D01*
X122035942Y-91001887D01*
X121893809Y-90943013D01*
X121742922Y-90913000D01*
X121603421Y-90913000D01*
X115692855Y-85002435D01*
X115676948Y-84983052D01*
X115599595Y-84919571D01*
X115511343Y-84872399D01*
X115506728Y-84870999D01*
X117611261Y-84870999D01*
X117583000Y-85013078D01*
X117583000Y-85166922D01*
X117613013Y-85317809D01*
X117671887Y-85459942D01*
X117757358Y-85587859D01*
X117866141Y-85696642D01*
X117994058Y-85782113D01*
X118136191Y-85840987D01*
X118287078Y-85871000D01*
X118440922Y-85871000D01*
X118591809Y-85840987D01*
X118733942Y-85782113D01*
X118861859Y-85696642D01*
X118960501Y-85598000D01*
X121344579Y-85598000D01*
X127020144Y-91273565D01*
X127036051Y-91292948D01*
X127113404Y-91356429D01*
X127201656Y-91403601D01*
X127297414Y-91432649D01*
X127372052Y-91440000D01*
X127372055Y-91440000D01*
X127396999Y-91442457D01*
X127421943Y-91440000D01*
X132499499Y-91440000D01*
X132598141Y-91538642D01*
X132726058Y-91624113D01*
X132868191Y-91682987D01*
X133019078Y-91713000D01*
X133172922Y-91713000D01*
X133323809Y-91682987D01*
X133465942Y-91624113D01*
X133593859Y-91538642D01*
X133702642Y-91429859D01*
X133788113Y-91301942D01*
X133846987Y-91159809D01*
X133877000Y-91008922D01*
X133877000Y-90855078D01*
X133846987Y-90704191D01*
X133788113Y-90562058D01*
X133702642Y-90434141D01*
X133593859Y-90325358D01*
X133524645Y-90279111D01*
X133534113Y-90264942D01*
X133592987Y-90122809D01*
X133593030Y-90122594D01*
X133630191Y-90137987D01*
X133781078Y-90168000D01*
X133934922Y-90168000D01*
X134085809Y-90137987D01*
X134227942Y-90079113D01*
X134355859Y-89993642D01*
X134464642Y-89884859D01*
X134550113Y-89756942D01*
X134608987Y-89614809D01*
X134639000Y-89463922D01*
X134639000Y-89310078D01*
X134608987Y-89159191D01*
X134550113Y-89017058D01*
X134464642Y-88889141D01*
X134355859Y-88780358D01*
X134227942Y-88694887D01*
X134085809Y-88636013D01*
X133934922Y-88606000D01*
X133781078Y-88606000D01*
X133630191Y-88636013D01*
X133488058Y-88694887D01*
X133397288Y-88755537D01*
X133371000Y-88752948D01*
X133340009Y-88756000D01*
X133340002Y-88756000D01*
X133247302Y-88765130D01*
X133128358Y-88801211D01*
X133018739Y-88859804D01*
X132957404Y-88910141D01*
X132922657Y-88938657D01*
X132902899Y-88962732D01*
X132748293Y-89117339D01*
X132614191Y-89144013D01*
X132472058Y-89202887D01*
X132349167Y-89285000D01*
X130311835Y-89285000D01*
X130290987Y-89180191D01*
X130232113Y-89038058D01*
X130146642Y-88910141D01*
X130037859Y-88801358D01*
X129909942Y-88715887D01*
X129767809Y-88657013D01*
X129767594Y-88656970D01*
X129782987Y-88619809D01*
X129813000Y-88468922D01*
X129813000Y-88315078D01*
X129782987Y-88164191D01*
X129724113Y-88022058D01*
X129638642Y-87894141D01*
X129529859Y-87785358D01*
X129401942Y-87699887D01*
X129259809Y-87641013D01*
X129108922Y-87611000D01*
X128955078Y-87611000D01*
X128804191Y-87641013D01*
X128662058Y-87699887D01*
X128534141Y-87785358D01*
X128425358Y-87894141D01*
X128339887Y-88022058D01*
X128281013Y-88164191D01*
X128251000Y-88315078D01*
X128251000Y-88468922D01*
X128281013Y-88619809D01*
X128339887Y-88761942D01*
X128401000Y-88853405D01*
X128401000Y-88869010D01*
X128397948Y-88900000D01*
X128401000Y-88930990D01*
X128401000Y-88930997D01*
X128410130Y-89023697D01*
X128446211Y-89142641D01*
X128504804Y-89252260D01*
X128583657Y-89348343D01*
X128607737Y-89368105D01*
X128767553Y-89527921D01*
X128789013Y-89635809D01*
X128847887Y-89777942D01*
X128933358Y-89905859D01*
X129042141Y-90014642D01*
X129170058Y-90100113D01*
X129312191Y-90158987D01*
X129420079Y-90180447D01*
X129579895Y-90340263D01*
X129599657Y-90364343D01*
X129672349Y-90424000D01*
X127607419Y-90424000D01*
X125337588Y-88154169D01*
X125443742Y-88133054D01*
X125585875Y-88074180D01*
X125713792Y-87988709D01*
X125730000Y-87972501D01*
X125740141Y-87982642D01*
X125868058Y-88068113D01*
X126010191Y-88126987D01*
X126161078Y-88157000D01*
X126314922Y-88157000D01*
X126465809Y-88126987D01*
X126607942Y-88068113D01*
X126735859Y-87982642D01*
X126844642Y-87873859D01*
X126930113Y-87745942D01*
X126988987Y-87603809D01*
X127019000Y-87452922D01*
X127019000Y-87299078D01*
X126988987Y-87148191D01*
X126930113Y-87006058D01*
X126844642Y-86878141D01*
X126735859Y-86769358D01*
X126607942Y-86683887D01*
X126465809Y-86625013D01*
X126314922Y-86595000D01*
X126175420Y-86595000D01*
X122804855Y-83224435D01*
X122788948Y-83205052D01*
X122711595Y-83141571D01*
X122623343Y-83094399D01*
X122527585Y-83065351D01*
X122452947Y-83058000D01*
X122452944Y-83058000D01*
X122428000Y-83055543D01*
X122403056Y-83058000D01*
X122086843Y-83058000D01*
X122086843Y-81496000D01*
X122079487Y-81421311D01*
X122057701Y-81349492D01*
X122022322Y-81283304D01*
X121974711Y-81225289D01*
X121916696Y-81177678D01*
X121850508Y-81142299D01*
X121778689Y-81120513D01*
X121704000Y-81113157D01*
X120104000Y-81113157D01*
X120029311Y-81120513D01*
X119957492Y-81142299D01*
X119891304Y-81177678D01*
X119833289Y-81225289D01*
X119785678Y-81283304D01*
X119750299Y-81349492D01*
X119728513Y-81421311D01*
X119721157Y-81496000D01*
X119721157Y-83058000D01*
X112102501Y-83058000D01*
X112003859Y-82959358D01*
X111875942Y-82873887D01*
X111733809Y-82815013D01*
X111582922Y-82785000D01*
X111429078Y-82785000D01*
X111278191Y-82815013D01*
X111136058Y-82873887D01*
X111008141Y-82959358D01*
X110899358Y-83068141D01*
X110813887Y-83196058D01*
X110755013Y-83338191D01*
X110725000Y-83489078D01*
X110725000Y-83642922D01*
X110755013Y-83793809D01*
X110780359Y-83854999D01*
X108957419Y-83854999D01*
X105683000Y-80580580D01*
X105683000Y-80441078D01*
X105652987Y-80290191D01*
X105594113Y-80148058D01*
X105508642Y-80020141D01*
X105399859Y-79911358D01*
X105271942Y-79825887D01*
X105129809Y-79767013D01*
X104978922Y-79737000D01*
X104825078Y-79737000D01*
X104682999Y-79765261D01*
X104682999Y-78930727D01*
X104684399Y-78935342D01*
X104731571Y-79023595D01*
X104795052Y-79100948D01*
X104814435Y-79116855D01*
X105899000Y-80201421D01*
X105899000Y-80340922D01*
X105929013Y-80491809D01*
X105987887Y-80633942D01*
X106073358Y-80761859D01*
X106182141Y-80870642D01*
X106310058Y-80956113D01*
X106452191Y-81014987D01*
X106603078Y-81045000D01*
X106756922Y-81045000D01*
X106907809Y-81014987D01*
X107049942Y-80956113D01*
X107177859Y-80870642D01*
X107286642Y-80761859D01*
X107372113Y-80633942D01*
X107430987Y-80491809D01*
X107461000Y-80340922D01*
X107461000Y-80187078D01*
X107430987Y-80036191D01*
X107372113Y-79894058D01*
X107286642Y-79766141D01*
X107177859Y-79657358D01*
X107049942Y-79571887D01*
X106907809Y-79513013D01*
X106756922Y-79483000D01*
X106617421Y-79483000D01*
X105664000Y-78529580D01*
X105664000Y-77427001D01*
X132723009Y-77427001D01*
X132753999Y-77430053D01*
X132784989Y-77427001D01*
X132784997Y-77427001D01*
X132877697Y-77417871D01*
X132996641Y-77381790D01*
X133106260Y-77323197D01*
X133202342Y-77244344D01*
X133222104Y-77220264D01*
X133227000Y-77215368D01*
X133227001Y-78532595D01*
X133165887Y-78624058D01*
X133107013Y-78766191D01*
X133077000Y-78917078D01*
X133077000Y-79070922D01*
X133107013Y-79221809D01*
X133165887Y-79363942D01*
X133227000Y-79455405D01*
X133227000Y-79548595D01*
X133165887Y-79640058D01*
X133107013Y-79782191D01*
X133077000Y-79933078D01*
X133077000Y-80086922D01*
X133107013Y-80237809D01*
X133165887Y-80379942D01*
X133227000Y-80471405D01*
X133227001Y-82857000D01*
X133223948Y-82888000D01*
X133236130Y-83011697D01*
X133272211Y-83130641D01*
X133330804Y-83240260D01*
X133389897Y-83312265D01*
X133389900Y-83312268D01*
X133409658Y-83336343D01*
X133433733Y-83356101D01*
X135995704Y-85918073D01*
X136002613Y-85952809D01*
X136061487Y-86094942D01*
X136146958Y-86222859D01*
X136255741Y-86331642D01*
X136383658Y-86417113D01*
X136525791Y-86475987D01*
X136552710Y-86481342D01*
X136579356Y-86615300D01*
X136638230Y-86757433D01*
X136723701Y-86885350D01*
X136832484Y-86994133D01*
X136960401Y-87079604D01*
X137102534Y-87138478D01*
X137253421Y-87168491D01*
X137407265Y-87168491D01*
X137558152Y-87138478D01*
X137700285Y-87079604D01*
X137828202Y-86994133D01*
X137936985Y-86885350D01*
X138022456Y-86757433D01*
X138081330Y-86615300D01*
X138111343Y-86464413D01*
X138111343Y-86310569D01*
X138081330Y-86159682D01*
X138022456Y-86017549D01*
X137936985Y-85889632D01*
X137828202Y-85780849D01*
X137700285Y-85695378D01*
X137558152Y-85636504D01*
X137531233Y-85631149D01*
X137504587Y-85497191D01*
X137445713Y-85355058D01*
X137360242Y-85227141D01*
X137251459Y-85118358D01*
X137123542Y-85032887D01*
X136981409Y-84974013D01*
X136830522Y-84944000D01*
X136806369Y-84944000D01*
X134489000Y-82626632D01*
X134489000Y-80471405D01*
X134550113Y-80379942D01*
X134608987Y-80237809D01*
X134639000Y-80086922D01*
X134639000Y-79933078D01*
X134608987Y-79782191D01*
X134550113Y-79640058D01*
X134489000Y-79548595D01*
X134489000Y-79455405D01*
X134550113Y-79363942D01*
X134608987Y-79221809D01*
X134639000Y-79070922D01*
X134639000Y-78917078D01*
X134608987Y-78766191D01*
X134550113Y-78624058D01*
X134489000Y-78532595D01*
X134489000Y-77223368D01*
X135044268Y-76668101D01*
X135068343Y-76648343D01*
X135088104Y-76624265D01*
X135088106Y-76624262D01*
X137421369Y-74291000D01*
X142531157Y-74291000D01*
X142531157Y-74510000D01*
X142538513Y-74584689D01*
X142560299Y-74656508D01*
X142595678Y-74722696D01*
X142643289Y-74780711D01*
X142701304Y-74828322D01*
X142767492Y-74863701D01*
X142839311Y-74885487D01*
X142914000Y-74892843D01*
X144614000Y-74892843D01*
X144688689Y-74885487D01*
X144760508Y-74863701D01*
X144826696Y-74828322D01*
X144884711Y-74780711D01*
X144932322Y-74722696D01*
X144967701Y-74656508D01*
X144989487Y-74584689D01*
X144996843Y-74510000D01*
X144996843Y-72810000D01*
X144989487Y-72735311D01*
X144967701Y-72663492D01*
X144932322Y-72597304D01*
X144884711Y-72539289D01*
X144826696Y-72491678D01*
X144760508Y-72456299D01*
X144688689Y-72434513D01*
X144614000Y-72427157D01*
X142914000Y-72427157D01*
X142839311Y-72434513D01*
X142767492Y-72456299D01*
X142701304Y-72491678D01*
X142643289Y-72539289D01*
X142595678Y-72597304D01*
X142560299Y-72663492D01*
X142538513Y-72735311D01*
X142531157Y-72810000D01*
X142531157Y-73029000D01*
X137190987Y-73029000D01*
X137159999Y-73025948D01*
X137129011Y-73029000D01*
X137129002Y-73029000D01*
X137036302Y-73038130D01*
X136917358Y-73074211D01*
X136807739Y-73132804D01*
X136711657Y-73211657D01*
X136691899Y-73235732D01*
X134358632Y-75569000D01*
X133380990Y-75569000D01*
X133350000Y-75565948D01*
X133319009Y-75569000D01*
X133319002Y-75569000D01*
X133226302Y-75578130D01*
X133107358Y-75614211D01*
X132997739Y-75672804D01*
X132901657Y-75751657D01*
X132881899Y-75775732D01*
X132492631Y-76165001D01*
X105759370Y-76165001D01*
X103978999Y-74384631D01*
X103978999Y-71884276D01*
X104063078Y-71901000D01*
X104216922Y-71901000D01*
X104367809Y-71870987D01*
X104509942Y-71812113D01*
X104637859Y-71726642D01*
X104746642Y-71617859D01*
X104832113Y-71489942D01*
X104890987Y-71347809D01*
X104921000Y-71196922D01*
X104921000Y-71043078D01*
X104890987Y-70892191D01*
X104832113Y-70750058D01*
X104746642Y-70622141D01*
X104637859Y-70513358D01*
X104509942Y-70427887D01*
X104367809Y-70369013D01*
X104259922Y-70347553D01*
X104120446Y-70208078D01*
X104098986Y-70100190D01*
X104040112Y-69958057D01*
X103954641Y-69830140D01*
X103845858Y-69721357D01*
X103717941Y-69635886D01*
X103575808Y-69577012D01*
X103424921Y-69546999D01*
X103271077Y-69546999D01*
X103120190Y-69577012D01*
X102978057Y-69635886D01*
X102886594Y-69696999D01*
X95672989Y-69696999D01*
X95641999Y-69693947D01*
X95611008Y-69696999D01*
X95611001Y-69696999D01*
X95518301Y-69706129D01*
X95399357Y-69742210D01*
X95289738Y-69800803D01*
X95193656Y-69879656D01*
X95173898Y-69903731D01*
X92197732Y-72879898D01*
X92173657Y-72899656D01*
X92153899Y-72923731D01*
X92153896Y-72923734D01*
X92094803Y-72995739D01*
X92036210Y-73105358D01*
X92000129Y-73224302D01*
X91987947Y-73347999D01*
X91991000Y-73378999D01*
X91990999Y-83163011D01*
X91987947Y-83194001D01*
X91990999Y-83224991D01*
X91990999Y-83224998D01*
X92000129Y-83317698D01*
X92036210Y-83436642D01*
X92094803Y-83546261D01*
X92173656Y-83642344D01*
X92197736Y-83662106D01*
X95469002Y-86933373D01*
X95469001Y-90932433D01*
X87968770Y-77941733D01*
X92842881Y-69494000D01*
X152165327Y-69494000D01*
X157031326Y-77941566D01*
G37*
X157031326Y-77941566D02*
X139765597Y-107846500D01*
X127477120Y-107846500D01*
X127477120Y-104356621D01*
X127479084Y-104336680D01*
X127471245Y-104257090D01*
X127448030Y-104180559D01*
X127410330Y-104110027D01*
X127359594Y-104048206D01*
X127297773Y-103997470D01*
X127227241Y-103959770D01*
X127150710Y-103936555D01*
X127091061Y-103930680D01*
X127091060Y-103930680D01*
X127071120Y-103928716D01*
X127051179Y-103930680D01*
X126192325Y-103930680D01*
X126194123Y-103912420D01*
X126194123Y-99912420D01*
X126186767Y-99837731D01*
X126164981Y-99765912D01*
X126129602Y-99699724D01*
X126081991Y-99641709D01*
X126023976Y-99594098D01*
X125957788Y-99558719D01*
X125885969Y-99536933D01*
X125811280Y-99529577D01*
X124287280Y-99529577D01*
X124212591Y-99536933D01*
X124140772Y-99558719D01*
X124074584Y-99594098D01*
X124016569Y-99641709D01*
X123968958Y-99699724D01*
X123933579Y-99765912D01*
X123911793Y-99837731D01*
X123904437Y-99912420D01*
X123904437Y-103912420D01*
X123906235Y-103930680D01*
X121112325Y-103930680D01*
X121114123Y-103912420D01*
X121114123Y-100041001D01*
X122049988Y-100041001D01*
X122074932Y-100043458D01*
X122099876Y-100041001D01*
X122099879Y-100041001D01*
X122174517Y-100033650D01*
X122270275Y-100004602D01*
X122358527Y-99957430D01*
X122435880Y-99893949D01*
X122451787Y-99874566D01*
X123309707Y-99016647D01*
X124224410Y-99016647D01*
X124249354Y-99019104D01*
X124274298Y-99016647D01*
X124274301Y-99016647D01*
X124348939Y-99009296D01*
X124444697Y-98980248D01*
X124532949Y-98933076D01*
X124610302Y-98869595D01*
X124626209Y-98850212D01*
X126991421Y-96485001D01*
X128216498Y-96485001D01*
X128171358Y-96530141D01*
X128085887Y-96658058D01*
X128027013Y-96800191D01*
X127997000Y-96951078D01*
X127997000Y-97104922D01*
X128027013Y-97255809D01*
X128085887Y-97397942D01*
X128171358Y-97525859D01*
X128280141Y-97634642D01*
X128408058Y-97720113D01*
X128550191Y-97778987D01*
X128701078Y-97809000D01*
X128854922Y-97809000D01*
X129005809Y-97778987D01*
X129147942Y-97720113D01*
X129249512Y-97652247D01*
X130082999Y-98485735D01*
X130083000Y-103388045D01*
X130080542Y-103412999D01*
X130089473Y-103503673D01*
X130090351Y-103512584D01*
X130109687Y-103576325D01*
X130119399Y-103608342D01*
X130166570Y-103696594D01*
X130187807Y-103722471D01*
X130230052Y-103773947D01*
X130249429Y-103789849D01*
X130941145Y-104481565D01*
X130957052Y-104500948D01*
X131034405Y-104564429D01*
X131122657Y-104611601D01*
X131218415Y-104640649D01*
X131293053Y-104648000D01*
X131293056Y-104648000D01*
X131318000Y-104650457D01*
X131342944Y-104648000D01*
X131880869Y-104648000D01*
X131887317Y-104713462D01*
X131923329Y-104832179D01*
X131981810Y-104941589D01*
X132060512Y-105037488D01*
X132156411Y-105116190D01*
X132265821Y-105174671D01*
X132384538Y-105210683D01*
X132507999Y-105222843D01*
X133158001Y-105222843D01*
X133281462Y-105210683D01*
X133400179Y-105174671D01*
X133509589Y-105116190D01*
X133605488Y-105037488D01*
X133684190Y-104941589D01*
X133742671Y-104832179D01*
X133778683Y-104713462D01*
X133790843Y-104590001D01*
X133790843Y-103689999D01*
X133925157Y-103689999D01*
X133925157Y-104590001D01*
X133937317Y-104713462D01*
X133973329Y-104832179D01*
X134031810Y-104941589D01*
X134110512Y-105037488D01*
X134206411Y-105116190D01*
X134315821Y-105174671D01*
X134434538Y-105210683D01*
X134557999Y-105222843D01*
X135208001Y-105222843D01*
X135331462Y-105210683D01*
X135450179Y-105174671D01*
X135559589Y-105116190D01*
X135655488Y-105037488D01*
X135734190Y-104941589D01*
X135792671Y-104832179D01*
X135828683Y-104713462D01*
X135832115Y-104678616D01*
X135900141Y-104746642D01*
X136028058Y-104832113D01*
X136170191Y-104890987D01*
X136321078Y-104921000D01*
X136474922Y-104921000D01*
X136625809Y-104890987D01*
X136767942Y-104832113D01*
X136895859Y-104746642D01*
X137004642Y-104637859D01*
X137090113Y-104509942D01*
X137148987Y-104367809D01*
X137179000Y-104216922D01*
X137179000Y-104063078D01*
X137148987Y-103912191D01*
X137090113Y-103770058D01*
X137004642Y-103642141D01*
X136895859Y-103533358D01*
X136767942Y-103447887D01*
X136625809Y-103389013D01*
X136474922Y-103359000D01*
X136321078Y-103359000D01*
X136170191Y-103389013D01*
X136028058Y-103447887D01*
X135900141Y-103533358D01*
X135832115Y-103601384D01*
X135828683Y-103566538D01*
X135792671Y-103447821D01*
X135734190Y-103338411D01*
X135655488Y-103242512D01*
X135559589Y-103163810D01*
X135450179Y-103105329D01*
X135331462Y-103069317D01*
X135208001Y-103057157D01*
X134557999Y-103057157D01*
X134434538Y-103069317D01*
X134315821Y-103105329D01*
X134206411Y-103163810D01*
X134110512Y-103242512D01*
X134031810Y-103338411D01*
X133973329Y-103447821D01*
X133937317Y-103566538D01*
X133925157Y-103689999D01*
X133790843Y-103689999D01*
X133778683Y-103566538D01*
X133742671Y-103447821D01*
X133684190Y-103338411D01*
X133605488Y-103242512D01*
X133509589Y-103163810D01*
X133400179Y-103105329D01*
X133281462Y-103069317D01*
X133158001Y-103057157D01*
X132507999Y-103057157D01*
X132384538Y-103069317D01*
X132265821Y-103105329D01*
X132156411Y-103163810D01*
X132060512Y-103242512D01*
X131981810Y-103338411D01*
X131923329Y-103447821D01*
X131887317Y-103566538D01*
X131880869Y-103632000D01*
X131528420Y-103632000D01*
X131098999Y-103202579D01*
X131098999Y-102606739D01*
X131241078Y-102635000D01*
X131394922Y-102635000D01*
X131545809Y-102604987D01*
X131687942Y-102546113D01*
X131815859Y-102460642D01*
X131883885Y-102392616D01*
X131887317Y-102427462D01*
X131923329Y-102546179D01*
X131981810Y-102655589D01*
X132060512Y-102751488D01*
X132156411Y-102830190D01*
X132265821Y-102888671D01*
X132384538Y-102924683D01*
X132507999Y-102936843D01*
X133158001Y-102936843D01*
X133281462Y-102924683D01*
X133400179Y-102888671D01*
X133509589Y-102830190D01*
X133605488Y-102751488D01*
X133684190Y-102655589D01*
X133742671Y-102546179D01*
X133778683Y-102427462D01*
X133790843Y-102304001D01*
X133790843Y-101403999D01*
X133925157Y-101403999D01*
X133925157Y-102304001D01*
X133937317Y-102427462D01*
X133973329Y-102546179D01*
X134031810Y-102655589D01*
X134110512Y-102751488D01*
X134206411Y-102830190D01*
X134315821Y-102888671D01*
X134434538Y-102924683D01*
X134557999Y-102936843D01*
X135208001Y-102936843D01*
X135331462Y-102924683D01*
X135450179Y-102888671D01*
X135559589Y-102830190D01*
X135655488Y-102751488D01*
X135734190Y-102655589D01*
X135792671Y-102546179D01*
X135828683Y-102427462D01*
X135832115Y-102392616D01*
X135900141Y-102460642D01*
X136028058Y-102546113D01*
X136170191Y-102604987D01*
X136321078Y-102635000D01*
X136474922Y-102635000D01*
X136625809Y-102604987D01*
X136767942Y-102546113D01*
X136895859Y-102460642D01*
X137004642Y-102351859D01*
X137090113Y-102223942D01*
X137148987Y-102081809D01*
X137179000Y-101930922D01*
X137179000Y-101777078D01*
X137148987Y-101626191D01*
X137090113Y-101484058D01*
X137004642Y-101356141D01*
X136895859Y-101247358D01*
X136767942Y-101161887D01*
X136625809Y-101103013D01*
X136474922Y-101073000D01*
X136321078Y-101073000D01*
X136170191Y-101103013D01*
X136028058Y-101161887D01*
X135900141Y-101247358D01*
X135832115Y-101315384D01*
X135828683Y-101280538D01*
X135792671Y-101161821D01*
X135734190Y-101052411D01*
X135655488Y-100956512D01*
X135559589Y-100877810D01*
X135450179Y-100819329D01*
X135331462Y-100783317D01*
X135208001Y-100771157D01*
X134557999Y-100771157D01*
X134434538Y-100783317D01*
X134315821Y-100819329D01*
X134206411Y-100877810D01*
X134110512Y-100956512D01*
X134031810Y-101052411D01*
X133973329Y-101161821D01*
X133937317Y-101280538D01*
X133925157Y-101403999D01*
X133790843Y-101403999D01*
X133778683Y-101280538D01*
X133742671Y-101161821D01*
X133684190Y-101052411D01*
X133605488Y-100956512D01*
X133509589Y-100877810D01*
X133400179Y-100819329D01*
X133281462Y-100783317D01*
X133158001Y-100771157D01*
X132507999Y-100771157D01*
X132384538Y-100783317D01*
X132265821Y-100819329D01*
X132156411Y-100877810D01*
X132060512Y-100956512D01*
X131981810Y-101052411D01*
X131923329Y-101161821D01*
X131887317Y-101280538D01*
X131883885Y-101315384D01*
X131815859Y-101247358D01*
X131687942Y-101161887D01*
X131545809Y-101103013D01*
X131394922Y-101073000D01*
X131241078Y-101073000D01*
X131098999Y-101101261D01*
X131098999Y-98300257D01*
X131101456Y-98275313D01*
X131098961Y-98249980D01*
X131091648Y-98175729D01*
X131062600Y-98079971D01*
X131062599Y-98079969D01*
X131015428Y-97991718D01*
X130967849Y-97933743D01*
X130951947Y-97914366D01*
X130932570Y-97898464D01*
X129720540Y-96686435D01*
X129704633Y-96667052D01*
X129627280Y-96603571D01*
X129539028Y-96556399D01*
X129443270Y-96527351D01*
X129375142Y-96520641D01*
X129339502Y-96485001D01*
X130820055Y-96485001D01*
X130844999Y-96487458D01*
X130869943Y-96485001D01*
X130869946Y-96485001D01*
X130944584Y-96477650D01*
X131040342Y-96448602D01*
X131128594Y-96401430D01*
X131205947Y-96337949D01*
X131221854Y-96318567D01*
X131528421Y-96012000D01*
X138405056Y-96012000D01*
X138430000Y-96014457D01*
X138454944Y-96012000D01*
X138454947Y-96012000D01*
X138529585Y-96004649D01*
X138625343Y-95975601D01*
X138713595Y-95928429D01*
X138790948Y-95864948D01*
X138806855Y-95845565D01*
X140911572Y-93740849D01*
X140930949Y-93724947D01*
X140944857Y-93708000D01*
X141046922Y-93708000D01*
X141197809Y-93677987D01*
X141339942Y-93619113D01*
X141467859Y-93533642D01*
X141576642Y-93424859D01*
X141587907Y-93408000D01*
X143523374Y-93408000D01*
X143547000Y-93410327D01*
X143570626Y-93408000D01*
X143641292Y-93401040D01*
X143731961Y-93373536D01*
X143815522Y-93328872D01*
X143888764Y-93268764D01*
X143903830Y-93250406D01*
X143921192Y-93233044D01*
X143941078Y-93237000D01*
X144094922Y-93237000D01*
X144245809Y-93206987D01*
X144387942Y-93148113D01*
X144515859Y-93062642D01*
X144624642Y-92953859D01*
X144710113Y-92825942D01*
X144768987Y-92683809D01*
X144799000Y-92532922D01*
X144799000Y-92379078D01*
X144768987Y-92228191D01*
X144710113Y-92086058D01*
X144624642Y-91958141D01*
X144515859Y-91849358D01*
X144387942Y-91763887D01*
X144245809Y-91705013D01*
X144094922Y-91675000D01*
X143941078Y-91675000D01*
X143790191Y-91705013D01*
X143648058Y-91763887D01*
X143520141Y-91849358D01*
X143411358Y-91958141D01*
X143325887Y-92086058D01*
X143267013Y-92228191D01*
X143237000Y-92379078D01*
X143237000Y-92446000D01*
X142126368Y-92446000D01*
X143971263Y-90601105D01*
X143995342Y-90581344D01*
X144074195Y-90485262D01*
X144132788Y-90375643D01*
X144168869Y-90256699D01*
X144168938Y-90256001D01*
X146310009Y-90256001D01*
X146340999Y-90259053D01*
X146371989Y-90256001D01*
X146371997Y-90256001D01*
X146464697Y-90246871D01*
X146583641Y-90210790D01*
X146693260Y-90152197D01*
X146789342Y-90073344D01*
X146809104Y-90049264D01*
X147490269Y-89368100D01*
X147514343Y-89348343D01*
X147534104Y-89324265D01*
X147593196Y-89252261D01*
X147651789Y-89142642D01*
X147656739Y-89126323D01*
X147687870Y-89023698D01*
X147697000Y-88930998D01*
X147697000Y-88930989D01*
X147700052Y-88900001D01*
X147697000Y-88869013D01*
X147697000Y-82265002D01*
X147687870Y-82172302D01*
X147651789Y-82053358D01*
X147593196Y-81943739D01*
X147514343Y-81847657D01*
X147418261Y-81768804D01*
X147308642Y-81710211D01*
X147189698Y-81674130D01*
X147156447Y-81670855D01*
X144647376Y-79161785D01*
X144645912Y-79160000D01*
X149643157Y-79160000D01*
X149643157Y-80860000D01*
X149650513Y-80934689D01*
X149672299Y-81006508D01*
X149707678Y-81072696D01*
X149755289Y-81130711D01*
X149813304Y-81178322D01*
X149879492Y-81213701D01*
X149951311Y-81235487D01*
X150026000Y-81242843D01*
X151726000Y-81242843D01*
X151800689Y-81235487D01*
X151872508Y-81213701D01*
X151938696Y-81178322D01*
X151996711Y-81130711D01*
X152044322Y-81072696D01*
X152079701Y-81006508D01*
X152101487Y-80934689D01*
X152108843Y-80860000D01*
X152108843Y-79160000D01*
X152101487Y-79085311D01*
X152079701Y-79013492D01*
X152044322Y-78947304D01*
X151996711Y-78889289D01*
X151938696Y-78841678D01*
X151872508Y-78806299D01*
X151800689Y-78784513D01*
X151726000Y-78777157D01*
X150026000Y-78777157D01*
X149951311Y-78784513D01*
X149879492Y-78806299D01*
X149813304Y-78841678D01*
X149755289Y-78889289D01*
X149707678Y-78947304D01*
X149672299Y-79013492D01*
X149650513Y-79085311D01*
X149643157Y-79160000D01*
X144645912Y-79160000D01*
X144631527Y-79142473D01*
X144554479Y-79079241D01*
X144466575Y-79032255D01*
X144371193Y-79003322D01*
X144296854Y-78996000D01*
X144296846Y-78996000D01*
X144272000Y-78993553D01*
X144247154Y-78996000D01*
X140186967Y-78996000D01*
X140138113Y-78878058D01*
X140052642Y-78750141D01*
X139943859Y-78641358D01*
X139815942Y-78555887D01*
X139673809Y-78497013D01*
X139522922Y-78467000D01*
X139369078Y-78467000D01*
X139218191Y-78497013D01*
X139076058Y-78555887D01*
X138948141Y-78641358D01*
X138839358Y-78750141D01*
X138753887Y-78878058D01*
X138695013Y-79020191D01*
X138665000Y-79171078D01*
X138665000Y-79324922D01*
X138695013Y-79475809D01*
X138753887Y-79617942D01*
X138839358Y-79745859D01*
X138948141Y-79854642D01*
X139076058Y-79940113D01*
X139218191Y-79998987D01*
X139369078Y-80029000D01*
X139522922Y-80029000D01*
X139643946Y-80004927D01*
X139675146Y-80008000D01*
X139675153Y-80008000D01*
X139699999Y-80010447D01*
X139724845Y-80008000D01*
X144062409Y-80008000D01*
X146435001Y-82380593D01*
X146435000Y-88638631D01*
X146079631Y-88994001D01*
X143577997Y-88994001D01*
X143546999Y-88990948D01*
X143516001Y-88994001D01*
X143423301Y-89003131D01*
X143304357Y-89039212D01*
X143194738Y-89097805D01*
X143098656Y-89176658D01*
X143064986Y-89217685D01*
X142560683Y-89217685D01*
X144188268Y-87590101D01*
X144212343Y-87570343D01*
X144232105Y-87546263D01*
X145153921Y-86624447D01*
X145261809Y-86602987D01*
X145403942Y-86544113D01*
X145531859Y-86458642D01*
X145640642Y-86349859D01*
X145726113Y-86221942D01*
X145784987Y-86079809D01*
X145815000Y-85928922D01*
X145815000Y-85775078D01*
X145784987Y-85624191D01*
X145726113Y-85482058D01*
X145640642Y-85354141D01*
X145531859Y-85245358D01*
X145403942Y-85159887D01*
X145261809Y-85101013D01*
X145110922Y-85071000D01*
X144957078Y-85071000D01*
X144806191Y-85101013D01*
X144664058Y-85159887D01*
X144536141Y-85245358D01*
X144427358Y-85354141D01*
X144341887Y-85482058D01*
X144283013Y-85624191D01*
X144261553Y-85732079D01*
X144248920Y-85744712D01*
X144133942Y-85667887D01*
X143991809Y-85609013D01*
X143840922Y-85579000D01*
X143687078Y-85579000D01*
X143536191Y-85609013D01*
X143394058Y-85667887D01*
X143266141Y-85753358D01*
X143157358Y-85862141D01*
X143071887Y-85990058D01*
X143013013Y-86132191D01*
X142983000Y-86283078D01*
X142983000Y-86436922D01*
X143013013Y-86587809D01*
X143071887Y-86729942D01*
X143133000Y-86821405D01*
X143133000Y-86860631D01*
X141687632Y-88306000D01*
X141079328Y-88306000D01*
X140987865Y-88244887D01*
X140845732Y-88186013D01*
X140694845Y-88156000D01*
X140541001Y-88156000D01*
X140390114Y-88186013D01*
X140247981Y-88244887D01*
X140120064Y-88330358D01*
X140011281Y-88439141D01*
X139925810Y-88567058D01*
X139866936Y-88709191D01*
X139836923Y-88860078D01*
X139836923Y-89013922D01*
X139866936Y-89164809D01*
X139925810Y-89306942D01*
X140011281Y-89434859D01*
X140120064Y-89543642D01*
X140247981Y-89629113D01*
X140277196Y-89641214D01*
X140251228Y-89771763D01*
X140251228Y-89925607D01*
X140281241Y-90076494D01*
X140340115Y-90218627D01*
X140425586Y-90346544D01*
X140509764Y-90430722D01*
X140488191Y-90435013D01*
X140346058Y-90493887D01*
X140218141Y-90579358D01*
X140109358Y-90688141D01*
X140023887Y-90816058D01*
X139965013Y-90958191D01*
X139935000Y-91109078D01*
X139935000Y-91262922D01*
X139965013Y-91413809D01*
X140023887Y-91555942D01*
X140109358Y-91683859D01*
X140121499Y-91696000D01*
X140044501Y-91696000D01*
X139943859Y-91595358D01*
X139815942Y-91509887D01*
X139673809Y-91451013D01*
X139522922Y-91421000D01*
X139369078Y-91421000D01*
X139218191Y-91451013D01*
X139076058Y-91509887D01*
X138948141Y-91595358D01*
X138839358Y-91704141D01*
X138753887Y-91832058D01*
X138695013Y-91974191D01*
X138665000Y-92125078D01*
X138665000Y-92278922D01*
X138695013Y-92429809D01*
X138753887Y-92571942D01*
X138839358Y-92699859D01*
X138948141Y-92808642D01*
X139076058Y-92894113D01*
X139218191Y-92952987D01*
X139369078Y-92983000D01*
X139522922Y-92983000D01*
X139673809Y-92952987D01*
X139815942Y-92894113D01*
X139943859Y-92808642D01*
X140044501Y-92708000D01*
X140217261Y-92708000D01*
X140189000Y-92850078D01*
X140189000Y-92990486D01*
X140145572Y-93043404D01*
X140115025Y-93100554D01*
X138219580Y-94996000D01*
X131342943Y-94996000D01*
X131317999Y-94993543D01*
X131293055Y-94996000D01*
X131293053Y-94996000D01*
X131218415Y-95003351D01*
X131122657Y-95032399D01*
X131122655Y-95032400D01*
X131034404Y-95079571D01*
X130979810Y-95124376D01*
X130957052Y-95143052D01*
X130941149Y-95162430D01*
X130634579Y-95469001D01*
X129530739Y-95469001D01*
X129559000Y-95326922D01*
X129559000Y-95173078D01*
X129528987Y-95022191D01*
X129470113Y-94880058D01*
X129384642Y-94752141D01*
X129275859Y-94643358D01*
X129147942Y-94557887D01*
X129005809Y-94499013D01*
X128854922Y-94469000D01*
X128701078Y-94469000D01*
X128550191Y-94499013D01*
X128408058Y-94557887D01*
X128280141Y-94643358D01*
X128181499Y-94742000D01*
X124170981Y-94742000D01*
X124146037Y-94739543D01*
X124121093Y-94742000D01*
X124121091Y-94742000D01*
X124046453Y-94749351D01*
X123950695Y-94778399D01*
X123950693Y-94778400D01*
X123862442Y-94825571D01*
X123833654Y-94849197D01*
X123785090Y-94889052D01*
X123769188Y-94908429D01*
X121535000Y-97142618D01*
X121535000Y-95257368D01*
X121839368Y-94953001D01*
X122043011Y-94953001D01*
X122074001Y-94956053D01*
X122104991Y-94953001D01*
X122104999Y-94953001D01*
X122197699Y-94943871D01*
X122316643Y-94907790D01*
X122426262Y-94849197D01*
X122522344Y-94770344D01*
X122542106Y-94746264D01*
X123360269Y-93928102D01*
X123384343Y-93908345D01*
X123388665Y-93903078D01*
X133585000Y-93903078D01*
X133585000Y-94056922D01*
X133615013Y-94207809D01*
X133673887Y-94349942D01*
X133759358Y-94477859D01*
X133868141Y-94586642D01*
X133996058Y-94672113D01*
X134138191Y-94730987D01*
X134289078Y-94761000D01*
X134442922Y-94761000D01*
X134593809Y-94730987D01*
X134735942Y-94672113D01*
X134863859Y-94586642D01*
X134964501Y-94486000D01*
X136881154Y-94486000D01*
X136906000Y-94488447D01*
X136930846Y-94486000D01*
X136930854Y-94486000D01*
X137005193Y-94478678D01*
X137100575Y-94449745D01*
X137188479Y-94402759D01*
X137265527Y-94339527D01*
X137281376Y-94320215D01*
X137348591Y-94253000D01*
X137490922Y-94253000D01*
X137641809Y-94222987D01*
X137783942Y-94164113D01*
X137911859Y-94078642D01*
X138020642Y-93969859D01*
X138106113Y-93841942D01*
X138164987Y-93699809D01*
X138195000Y-93548922D01*
X138195000Y-93395078D01*
X138164987Y-93244191D01*
X138106113Y-93102058D01*
X138020642Y-92974141D01*
X137911859Y-92865358D01*
X137783942Y-92779887D01*
X137641809Y-92721013D01*
X137490922Y-92691000D01*
X137337078Y-92691000D01*
X137186191Y-92721013D01*
X137044058Y-92779887D01*
X136916141Y-92865358D01*
X136807358Y-92974141D01*
X136721887Y-93102058D01*
X136663013Y-93244191D01*
X136633000Y-93395078D01*
X136633000Y-93474000D01*
X134964501Y-93474000D01*
X134863859Y-93373358D01*
X134735942Y-93287887D01*
X134593809Y-93229013D01*
X134442922Y-93199000D01*
X134289078Y-93199000D01*
X134138191Y-93229013D01*
X133996058Y-93287887D01*
X133868141Y-93373358D01*
X133759358Y-93482141D01*
X133673887Y-93610058D01*
X133615013Y-93752191D01*
X133585000Y-93903078D01*
X123388665Y-93903078D01*
X123406943Y-93880808D01*
X123463196Y-93812263D01*
X123521789Y-93702644D01*
X123557870Y-93583700D01*
X123563913Y-93522342D01*
X123567000Y-93491000D01*
X123567000Y-93490993D01*
X123570052Y-93460002D01*
X123567000Y-93429012D01*
X123567000Y-91957835D01*
X123671809Y-91936987D01*
X123813942Y-91878113D01*
X123941859Y-91792642D01*
X124050642Y-91683859D01*
X124136113Y-91555942D01*
X124194987Y-91413809D01*
X124225000Y-91262922D01*
X124225000Y-91109078D01*
X124194987Y-90958191D01*
X124136113Y-90816058D01*
X124050642Y-90688141D01*
X123941859Y-90579358D01*
X123813942Y-90493887D01*
X123671809Y-90435013D01*
X123520922Y-90405000D01*
X123367078Y-90405000D01*
X123216191Y-90435013D01*
X123074058Y-90493887D01*
X122946141Y-90579358D01*
X122837358Y-90688141D01*
X122751887Y-90816058D01*
X122693013Y-90958191D01*
X122671553Y-91066079D01*
X122511733Y-91225899D01*
X122487658Y-91245657D01*
X122467900Y-91269732D01*
X122467897Y-91269735D01*
X122408804Y-91341740D01*
X122384371Y-91387450D01*
X122358113Y-91324058D01*
X122272642Y-91196141D01*
X122163859Y-91087358D01*
X122035942Y-91001887D01*
X121893809Y-90943013D01*
X121742922Y-90913000D01*
X121603421Y-90913000D01*
X115692855Y-85002435D01*
X115676948Y-84983052D01*
X115599595Y-84919571D01*
X115511343Y-84872399D01*
X115506728Y-84870999D01*
X117611261Y-84870999D01*
X117583000Y-85013078D01*
X117583000Y-85166922D01*
X117613013Y-85317809D01*
X117671887Y-85459942D01*
X117757358Y-85587859D01*
X117866141Y-85696642D01*
X117994058Y-85782113D01*
X118136191Y-85840987D01*
X118287078Y-85871000D01*
X118440922Y-85871000D01*
X118591809Y-85840987D01*
X118733942Y-85782113D01*
X118861859Y-85696642D01*
X118960501Y-85598000D01*
X121344579Y-85598000D01*
X127020144Y-91273565D01*
X127036051Y-91292948D01*
X127113404Y-91356429D01*
X127201656Y-91403601D01*
X127297414Y-91432649D01*
X127372052Y-91440000D01*
X127372055Y-91440000D01*
X127396999Y-91442457D01*
X127421943Y-91440000D01*
X132499499Y-91440000D01*
X132598141Y-91538642D01*
X132726058Y-91624113D01*
X132868191Y-91682987D01*
X133019078Y-91713000D01*
X133172922Y-91713000D01*
X133323809Y-91682987D01*
X133465942Y-91624113D01*
X133593859Y-91538642D01*
X133702642Y-91429859D01*
X133788113Y-91301942D01*
X133846987Y-91159809D01*
X133877000Y-91008922D01*
X133877000Y-90855078D01*
X133846987Y-90704191D01*
X133788113Y-90562058D01*
X133702642Y-90434141D01*
X133593859Y-90325358D01*
X133524645Y-90279111D01*
X133534113Y-90264942D01*
X133592987Y-90122809D01*
X133593030Y-90122594D01*
X133630191Y-90137987D01*
X133781078Y-90168000D01*
X133934922Y-90168000D01*
X134085809Y-90137987D01*
X134227942Y-90079113D01*
X134355859Y-89993642D01*
X134464642Y-89884859D01*
X134550113Y-89756942D01*
X134608987Y-89614809D01*
X134639000Y-89463922D01*
X134639000Y-89310078D01*
X134608987Y-89159191D01*
X134550113Y-89017058D01*
X134464642Y-88889141D01*
X134355859Y-88780358D01*
X134227942Y-88694887D01*
X134085809Y-88636013D01*
X133934922Y-88606000D01*
X133781078Y-88606000D01*
X133630191Y-88636013D01*
X133488058Y-88694887D01*
X133397288Y-88755537D01*
X133371000Y-88752948D01*
X133340009Y-88756000D01*
X133340002Y-88756000D01*
X133247302Y-88765130D01*
X133128358Y-88801211D01*
X133018739Y-88859804D01*
X132957404Y-88910141D01*
X132922657Y-88938657D01*
X132902899Y-88962732D01*
X132748293Y-89117339D01*
X132614191Y-89144013D01*
X132472058Y-89202887D01*
X132349167Y-89285000D01*
X130311835Y-89285000D01*
X130290987Y-89180191D01*
X130232113Y-89038058D01*
X130146642Y-88910141D01*
X130037859Y-88801358D01*
X129909942Y-88715887D01*
X129767809Y-88657013D01*
X129767594Y-88656970D01*
X129782987Y-88619809D01*
X129813000Y-88468922D01*
X129813000Y-88315078D01*
X129782987Y-88164191D01*
X129724113Y-88022058D01*
X129638642Y-87894141D01*
X129529859Y-87785358D01*
X129401942Y-87699887D01*
X129259809Y-87641013D01*
X129108922Y-87611000D01*
X128955078Y-87611000D01*
X128804191Y-87641013D01*
X128662058Y-87699887D01*
X128534141Y-87785358D01*
X128425358Y-87894141D01*
X128339887Y-88022058D01*
X128281013Y-88164191D01*
X128251000Y-88315078D01*
X128251000Y-88468922D01*
X128281013Y-88619809D01*
X128339887Y-88761942D01*
X128401000Y-88853405D01*
X128401000Y-88869010D01*
X128397948Y-88900000D01*
X128401000Y-88930990D01*
X128401000Y-88930997D01*
X128410130Y-89023697D01*
X128446211Y-89142641D01*
X128504804Y-89252260D01*
X128583657Y-89348343D01*
X128607737Y-89368105D01*
X128767553Y-89527921D01*
X128789013Y-89635809D01*
X128847887Y-89777942D01*
X128933358Y-89905859D01*
X129042141Y-90014642D01*
X129170058Y-90100113D01*
X129312191Y-90158987D01*
X129420079Y-90180447D01*
X129579895Y-90340263D01*
X129599657Y-90364343D01*
X129672349Y-90424000D01*
X127607419Y-90424000D01*
X125337588Y-88154169D01*
X125443742Y-88133054D01*
X125585875Y-88074180D01*
X125713792Y-87988709D01*
X125730000Y-87972501D01*
X125740141Y-87982642D01*
X125868058Y-88068113D01*
X126010191Y-88126987D01*
X126161078Y-88157000D01*
X126314922Y-88157000D01*
X126465809Y-88126987D01*
X126607942Y-88068113D01*
X126735859Y-87982642D01*
X126844642Y-87873859D01*
X126930113Y-87745942D01*
X126988987Y-87603809D01*
X127019000Y-87452922D01*
X127019000Y-87299078D01*
X126988987Y-87148191D01*
X126930113Y-87006058D01*
X126844642Y-86878141D01*
X126735859Y-86769358D01*
X126607942Y-86683887D01*
X126465809Y-86625013D01*
X126314922Y-86595000D01*
X126175420Y-86595000D01*
X122804855Y-83224435D01*
X122788948Y-83205052D01*
X122711595Y-83141571D01*
X122623343Y-83094399D01*
X122527585Y-83065351D01*
X122452947Y-83058000D01*
X122452944Y-83058000D01*
X122428000Y-83055543D01*
X122403056Y-83058000D01*
X122086843Y-83058000D01*
X122086843Y-81496000D01*
X122079487Y-81421311D01*
X122057701Y-81349492D01*
X122022322Y-81283304D01*
X121974711Y-81225289D01*
X121916696Y-81177678D01*
X121850508Y-81142299D01*
X121778689Y-81120513D01*
X121704000Y-81113157D01*
X120104000Y-81113157D01*
X120029311Y-81120513D01*
X119957492Y-81142299D01*
X119891304Y-81177678D01*
X119833289Y-81225289D01*
X119785678Y-81283304D01*
X119750299Y-81349492D01*
X119728513Y-81421311D01*
X119721157Y-81496000D01*
X119721157Y-83058000D01*
X112102501Y-83058000D01*
X112003859Y-82959358D01*
X111875942Y-82873887D01*
X111733809Y-82815013D01*
X111582922Y-82785000D01*
X111429078Y-82785000D01*
X111278191Y-82815013D01*
X111136058Y-82873887D01*
X111008141Y-82959358D01*
X110899358Y-83068141D01*
X110813887Y-83196058D01*
X110755013Y-83338191D01*
X110725000Y-83489078D01*
X110725000Y-83642922D01*
X110755013Y-83793809D01*
X110780359Y-83854999D01*
X108957419Y-83854999D01*
X105683000Y-80580580D01*
X105683000Y-80441078D01*
X105652987Y-80290191D01*
X105594113Y-80148058D01*
X105508642Y-80020141D01*
X105399859Y-79911358D01*
X105271942Y-79825887D01*
X105129809Y-79767013D01*
X104978922Y-79737000D01*
X104825078Y-79737000D01*
X104682999Y-79765261D01*
X104682999Y-78930727D01*
X104684399Y-78935342D01*
X104731571Y-79023595D01*
X104795052Y-79100948D01*
X104814435Y-79116855D01*
X105899000Y-80201421D01*
X105899000Y-80340922D01*
X105929013Y-80491809D01*
X105987887Y-80633942D01*
X106073358Y-80761859D01*
X106182141Y-80870642D01*
X106310058Y-80956113D01*
X106452191Y-81014987D01*
X106603078Y-81045000D01*
X106756922Y-81045000D01*
X106907809Y-81014987D01*
X107049942Y-80956113D01*
X107177859Y-80870642D01*
X107286642Y-80761859D01*
X107372113Y-80633942D01*
X107430987Y-80491809D01*
X107461000Y-80340922D01*
X107461000Y-80187078D01*
X107430987Y-80036191D01*
X107372113Y-79894058D01*
X107286642Y-79766141D01*
X107177859Y-79657358D01*
X107049942Y-79571887D01*
X106907809Y-79513013D01*
X106756922Y-79483000D01*
X106617421Y-79483000D01*
X105664000Y-78529580D01*
X105664000Y-77427001D01*
X132723009Y-77427001D01*
X132753999Y-77430053D01*
X132784989Y-77427001D01*
X132784997Y-77427001D01*
X132877697Y-77417871D01*
X132996641Y-77381790D01*
X133106260Y-77323197D01*
X133202342Y-77244344D01*
X133222104Y-77220264D01*
X133227000Y-77215368D01*
X133227001Y-78532595D01*
X133165887Y-78624058D01*
X133107013Y-78766191D01*
X133077000Y-78917078D01*
X133077000Y-79070922D01*
X133107013Y-79221809D01*
X133165887Y-79363942D01*
X133227000Y-79455405D01*
X133227000Y-79548595D01*
X133165887Y-79640058D01*
X133107013Y-79782191D01*
X133077000Y-79933078D01*
X133077000Y-80086922D01*
X133107013Y-80237809D01*
X133165887Y-80379942D01*
X133227000Y-80471405D01*
X133227001Y-82857000D01*
X133223948Y-82888000D01*
X133236130Y-83011697D01*
X133272211Y-83130641D01*
X133330804Y-83240260D01*
X133389897Y-83312265D01*
X133389900Y-83312268D01*
X133409658Y-83336343D01*
X133433733Y-83356101D01*
X135995704Y-85918073D01*
X136002613Y-85952809D01*
X136061487Y-86094942D01*
X136146958Y-86222859D01*
X136255741Y-86331642D01*
X136383658Y-86417113D01*
X136525791Y-86475987D01*
X136552710Y-86481342D01*
X136579356Y-86615300D01*
X136638230Y-86757433D01*
X136723701Y-86885350D01*
X136832484Y-86994133D01*
X136960401Y-87079604D01*
X137102534Y-87138478D01*
X137253421Y-87168491D01*
X137407265Y-87168491D01*
X137558152Y-87138478D01*
X137700285Y-87079604D01*
X137828202Y-86994133D01*
X137936985Y-86885350D01*
X138022456Y-86757433D01*
X138081330Y-86615300D01*
X138111343Y-86464413D01*
X138111343Y-86310569D01*
X138081330Y-86159682D01*
X138022456Y-86017549D01*
X137936985Y-85889632D01*
X137828202Y-85780849D01*
X137700285Y-85695378D01*
X137558152Y-85636504D01*
X137531233Y-85631149D01*
X137504587Y-85497191D01*
X137445713Y-85355058D01*
X137360242Y-85227141D01*
X137251459Y-85118358D01*
X137123542Y-85032887D01*
X136981409Y-84974013D01*
X136830522Y-84944000D01*
X136806369Y-84944000D01*
X134489000Y-82626632D01*
X134489000Y-80471405D01*
X134550113Y-80379942D01*
X134608987Y-80237809D01*
X134639000Y-80086922D01*
X134639000Y-79933078D01*
X134608987Y-79782191D01*
X134550113Y-79640058D01*
X134489000Y-79548595D01*
X134489000Y-79455405D01*
X134550113Y-79363942D01*
X134608987Y-79221809D01*
X134639000Y-79070922D01*
X134639000Y-78917078D01*
X134608987Y-78766191D01*
X134550113Y-78624058D01*
X134489000Y-78532595D01*
X134489000Y-77223368D01*
X135044268Y-76668101D01*
X135068343Y-76648343D01*
X135088104Y-76624265D01*
X135088106Y-76624262D01*
X137421369Y-74291000D01*
X142531157Y-74291000D01*
X142531157Y-74510000D01*
X142538513Y-74584689D01*
X142560299Y-74656508D01*
X142595678Y-74722696D01*
X142643289Y-74780711D01*
X142701304Y-74828322D01*
X142767492Y-74863701D01*
X142839311Y-74885487D01*
X142914000Y-74892843D01*
X144614000Y-74892843D01*
X144688689Y-74885487D01*
X144760508Y-74863701D01*
X144826696Y-74828322D01*
X144884711Y-74780711D01*
X144932322Y-74722696D01*
X144967701Y-74656508D01*
X144989487Y-74584689D01*
X144996843Y-74510000D01*
X144996843Y-72810000D01*
X144989487Y-72735311D01*
X144967701Y-72663492D01*
X144932322Y-72597304D01*
X144884711Y-72539289D01*
X144826696Y-72491678D01*
X144760508Y-72456299D01*
X144688689Y-72434513D01*
X144614000Y-72427157D01*
X142914000Y-72427157D01*
X142839311Y-72434513D01*
X142767492Y-72456299D01*
X142701304Y-72491678D01*
X142643289Y-72539289D01*
X142595678Y-72597304D01*
X142560299Y-72663492D01*
X142538513Y-72735311D01*
X142531157Y-72810000D01*
X142531157Y-73029000D01*
X137190987Y-73029000D01*
X137159999Y-73025948D01*
X137129011Y-73029000D01*
X137129002Y-73029000D01*
X137036302Y-73038130D01*
X136917358Y-73074211D01*
X136807739Y-73132804D01*
X136711657Y-73211657D01*
X136691899Y-73235732D01*
X134358632Y-75569000D01*
X133380990Y-75569000D01*
X133350000Y-75565948D01*
X133319009Y-75569000D01*
X133319002Y-75569000D01*
X133226302Y-75578130D01*
X133107358Y-75614211D01*
X132997739Y-75672804D01*
X132901657Y-75751657D01*
X132881899Y-75775732D01*
X132492631Y-76165001D01*
X105759370Y-76165001D01*
X103978999Y-74384631D01*
X103978999Y-71884276D01*
X104063078Y-71901000D01*
X104216922Y-71901000D01*
X104367809Y-71870987D01*
X104509942Y-71812113D01*
X104637859Y-71726642D01*
X104746642Y-71617859D01*
X104832113Y-71489942D01*
X104890987Y-71347809D01*
X104921000Y-71196922D01*
X104921000Y-71043078D01*
X104890987Y-70892191D01*
X104832113Y-70750058D01*
X104746642Y-70622141D01*
X104637859Y-70513358D01*
X104509942Y-70427887D01*
X104367809Y-70369013D01*
X104259922Y-70347553D01*
X104120446Y-70208078D01*
X104098986Y-70100190D01*
X104040112Y-69958057D01*
X103954641Y-69830140D01*
X103845858Y-69721357D01*
X103717941Y-69635886D01*
X103575808Y-69577012D01*
X103424921Y-69546999D01*
X103271077Y-69546999D01*
X103120190Y-69577012D01*
X102978057Y-69635886D01*
X102886594Y-69696999D01*
X95672989Y-69696999D01*
X95641999Y-69693947D01*
X95611008Y-69696999D01*
X95611001Y-69696999D01*
X95518301Y-69706129D01*
X95399357Y-69742210D01*
X95289738Y-69800803D01*
X95193656Y-69879656D01*
X95173898Y-69903731D01*
X92197732Y-72879898D01*
X92173657Y-72899656D01*
X92153899Y-72923731D01*
X92153896Y-72923734D01*
X92094803Y-72995739D01*
X92036210Y-73105358D01*
X92000129Y-73224302D01*
X91987947Y-73347999D01*
X91991000Y-73378999D01*
X91990999Y-83163011D01*
X91987947Y-83194001D01*
X91990999Y-83224991D01*
X91990999Y-83224998D01*
X92000129Y-83317698D01*
X92036210Y-83436642D01*
X92094803Y-83546261D01*
X92173656Y-83642344D01*
X92197736Y-83662106D01*
X95469002Y-86933373D01*
X95469001Y-90932433D01*
X87968770Y-77941733D01*
X92842881Y-69494000D01*
X152165327Y-69494000D01*
X157031326Y-77941566D01*
G36*
X120885000Y-93548922D02*
G01*
X120915013Y-93699809D01*
X120973887Y-93841942D01*
X121050712Y-93956919D01*
X120479737Y-94527895D01*
X120455657Y-94547657D01*
X120376804Y-94643740D01*
X120318211Y-94753359D01*
X120282130Y-94872303D01*
X120273000Y-94965003D01*
X120273000Y-94965010D01*
X120269948Y-94996000D01*
X120273000Y-95026990D01*
X120273001Y-98034165D01*
X120168191Y-98055013D01*
X120026058Y-98113887D01*
X119898141Y-98199358D01*
X119789358Y-98308141D01*
X119703887Y-98436058D01*
X119693527Y-98461069D01*
X118461892Y-97229434D01*
X118445985Y-97210051D01*
X118368632Y-97146570D01*
X118280380Y-97099398D01*
X118184622Y-97070350D01*
X118109984Y-97062999D01*
X118109981Y-97062999D01*
X118085037Y-97060542D01*
X118060093Y-97062999D01*
X117277982Y-97062999D01*
X117253038Y-97060542D01*
X117228094Y-97062999D01*
X117228092Y-97062999D01*
X117153454Y-97070350D01*
X117057696Y-97099398D01*
X117057694Y-97099399D01*
X116969443Y-97146570D01*
X116914849Y-97191375D01*
X116892091Y-97210051D01*
X116876188Y-97229429D01*
X116533429Y-97572189D01*
X116514052Y-97588091D01*
X116498150Y-97607468D01*
X116498149Y-97607469D01*
X116450570Y-97665444D01*
X116409174Y-97742891D01*
X116403399Y-97753696D01*
X116374593Y-97848658D01*
X116374351Y-97849455D01*
X116364542Y-97949039D01*
X116367000Y-97973993D01*
X116366999Y-101610055D01*
X116364542Y-101634999D01*
X116366999Y-101659943D01*
X116366999Y-101659945D01*
X116374350Y-101734583D01*
X116403398Y-101830341D01*
X116450570Y-101918594D01*
X116514051Y-101995947D01*
X116533433Y-102011854D01*
X116567000Y-102045420D01*
X116567000Y-102184922D01*
X116597013Y-102335809D01*
X116655887Y-102477942D01*
X116741358Y-102605859D01*
X116850141Y-102714642D01*
X116978058Y-102800113D01*
X117120191Y-102858987D01*
X117271078Y-102889000D01*
X117424922Y-102889000D01*
X117575809Y-102858987D01*
X117717942Y-102800113D01*
X117845859Y-102714642D01*
X117954642Y-102605859D01*
X118040113Y-102477942D01*
X118098987Y-102335809D01*
X118129000Y-102184922D01*
X118129000Y-102031078D01*
X118098987Y-101880191D01*
X118040113Y-101738058D01*
X117954642Y-101610141D01*
X117845859Y-101501358D01*
X117717942Y-101415887D01*
X117575809Y-101357013D01*
X117424922Y-101327000D01*
X117382999Y-101327000D01*
X117382999Y-99050739D01*
X117525078Y-99079000D01*
X117664580Y-99079000D01*
X118824437Y-100238858D01*
X118824437Y-103912420D01*
X118826235Y-103930680D01*
X117947061Y-103930680D01*
X117927120Y-103928716D01*
X117907180Y-103930680D01*
X117907179Y-103930680D01*
X117847530Y-103936555D01*
X117770999Y-103959770D01*
X117700467Y-103997470D01*
X117638646Y-104048206D01*
X117587910Y-104110027D01*
X117550210Y-104180559D01*
X117526995Y-104257090D01*
X117519156Y-104336680D01*
X117521121Y-104356631D01*
X117521120Y-107846500D01*
X113246743Y-107846500D01*
X113246743Y-106957317D01*
X113274477Y-106929583D01*
X113669666Y-106929583D01*
X113708563Y-107057809D01*
X113806620Y-107241261D01*
X113938584Y-107402057D01*
X114099380Y-107534020D01*
X114282832Y-107632077D01*
X114481889Y-107692460D01*
X114688900Y-107712849D01*
X114895912Y-107692460D01*
X115094969Y-107632077D01*
X115278421Y-107534020D01*
X115439217Y-107402057D01*
X115571180Y-107241261D01*
X115669237Y-107057808D01*
X115729620Y-106858751D01*
X115744900Y-106703611D01*
X115744900Y-106249868D01*
X115729620Y-106094728D01*
X115669237Y-105895671D01*
X115571180Y-105712219D01*
X115439217Y-105551423D01*
X115324041Y-105456900D01*
X115372111Y-105417451D01*
X115419722Y-105359436D01*
X115455101Y-105293248D01*
X115476887Y-105221429D01*
X115484243Y-105146740D01*
X115484243Y-104446740D01*
X115476887Y-104372051D01*
X115459926Y-104316136D01*
X115464387Y-104301429D01*
X115471743Y-104226740D01*
X115471743Y-102726740D01*
X115464387Y-102652051D01*
X115442601Y-102580232D01*
X115407222Y-102514044D01*
X115359611Y-102456029D01*
X115301596Y-102408418D01*
X115235408Y-102373039D01*
X115163589Y-102351253D01*
X115088900Y-102343897D01*
X113635918Y-102343897D01*
X113608900Y-102341236D01*
X113581882Y-102343897D01*
X113088900Y-102343897D01*
X113014211Y-102351253D01*
X112942392Y-102373039D01*
X112876204Y-102408418D01*
X112818189Y-102456029D01*
X112770578Y-102514044D01*
X112735199Y-102580232D01*
X112713413Y-102652051D01*
X112706057Y-102726740D01*
X112706057Y-103045820D01*
X112691371Y-103094233D01*
X112677900Y-103231010D01*
X112677900Y-103722471D01*
X112691371Y-103859248D01*
X112706057Y-103907661D01*
X112706057Y-104226740D01*
X112713413Y-104301429D01*
X112735199Y-104373248D01*
X112770578Y-104439436D01*
X112818189Y-104497451D01*
X112876204Y-104545062D01*
X112881057Y-104547656D01*
X112881057Y-105115587D01*
X112863900Y-105113897D01*
X111433900Y-105113897D01*
X111359211Y-105121253D01*
X111287392Y-105143039D01*
X111221204Y-105178418D01*
X111188900Y-105204929D01*
X111156596Y-105178418D01*
X111090408Y-105143039D01*
X111018589Y-105121253D01*
X110943900Y-105113897D01*
X110504507Y-105113897D01*
X110532402Y-104973660D01*
X110532402Y-104819816D01*
X110529372Y-104804583D01*
X110738900Y-104804583D01*
X110813589Y-104797227D01*
X110863900Y-104781965D01*
X110914211Y-104797227D01*
X110988900Y-104804583D01*
X111388900Y-104804583D01*
X111463589Y-104797227D01*
X111513900Y-104781965D01*
X111564211Y-104797227D01*
X111638900Y-104804583D01*
X112038900Y-104804583D01*
X112113589Y-104797227D01*
X112185408Y-104775441D01*
X112251596Y-104740062D01*
X112309611Y-104692451D01*
X112357222Y-104634436D01*
X112392601Y-104568248D01*
X112414387Y-104496429D01*
X112421743Y-104421740D01*
X112421743Y-102771740D01*
X112414387Y-102697051D01*
X112392601Y-102625232D01*
X112357222Y-102559044D01*
X112309611Y-102501029D01*
X112251596Y-102453418D01*
X112185408Y-102418039D01*
X112113589Y-102396253D01*
X112038900Y-102388897D01*
X111638900Y-102388897D01*
X111564211Y-102396253D01*
X111513900Y-102411515D01*
X111463589Y-102396253D01*
X111388900Y-102388897D01*
X110988900Y-102388897D01*
X110914211Y-102396253D01*
X110863900Y-102411515D01*
X110813589Y-102396253D01*
X110738900Y-102388897D01*
X110513317Y-102388897D01*
X110510770Y-102363040D01*
X110474689Y-102244096D01*
X110416096Y-102134477D01*
X110337243Y-102038395D01*
X110313163Y-102018633D01*
X110167006Y-101872476D01*
X110147244Y-101848396D01*
X110051162Y-101769543D01*
X110001214Y-101742845D01*
X109671212Y-101412843D01*
X110053001Y-101412843D01*
X110176462Y-101400683D01*
X110295179Y-101364671D01*
X110404589Y-101306190D01*
X110438572Y-101278301D01*
X110451561Y-101302603D01*
X110487176Y-101346000D01*
X110515043Y-101379956D01*
X110534420Y-101395858D01*
X110837137Y-101698575D01*
X110853044Y-101717958D01*
X110897468Y-101754415D01*
X110930396Y-101781439D01*
X110977568Y-101806653D01*
X111018649Y-101828611D01*
X111114407Y-101857659D01*
X111189045Y-101865010D01*
X111189047Y-101865010D01*
X111213991Y-101867467D01*
X111238935Y-101865010D01*
X112317064Y-101865010D01*
X112342008Y-101867467D01*
X112366952Y-101865010D01*
X112366955Y-101865010D01*
X112441593Y-101857659D01*
X112537351Y-101828611D01*
X112625603Y-101781439D01*
X112702956Y-101717958D01*
X112718863Y-101698575D01*
X114387572Y-100029867D01*
X114406949Y-100013965D01*
X114443807Y-99969053D01*
X114470430Y-99936613D01*
X114517601Y-99848361D01*
X114517602Y-99848360D01*
X114546650Y-99752602D01*
X114554001Y-99677964D01*
X114554001Y-99677962D01*
X114556458Y-99653018D01*
X114554001Y-99628074D01*
X114554001Y-95084501D01*
X114652643Y-94985859D01*
X114738114Y-94857942D01*
X114796988Y-94715809D01*
X114827001Y-94564922D01*
X114827001Y-94411078D01*
X114796988Y-94260191D01*
X114738114Y-94118058D01*
X114652643Y-93990141D01*
X114543860Y-93881358D01*
X114415943Y-93795887D01*
X114273810Y-93737013D01*
X114218443Y-93726000D01*
X114273809Y-93714987D01*
X114415942Y-93656113D01*
X114543859Y-93570642D01*
X114642501Y-93472000D01*
X120885000Y-93472000D01*
X120885000Y-93548922D01*
G37*
X120885000Y-93548922D02*
X120915013Y-93699809D01*
X120973887Y-93841942D01*
X121050712Y-93956919D01*
X120479737Y-94527895D01*
X120455657Y-94547657D01*
X120376804Y-94643740D01*
X120318211Y-94753359D01*
X120282130Y-94872303D01*
X120273000Y-94965003D01*
X120273000Y-94965010D01*
X120269948Y-94996000D01*
X120273000Y-95026990D01*
X120273001Y-98034165D01*
X120168191Y-98055013D01*
X120026058Y-98113887D01*
X119898141Y-98199358D01*
X119789358Y-98308141D01*
X119703887Y-98436058D01*
X119693527Y-98461069D01*
X118461892Y-97229434D01*
X118445985Y-97210051D01*
X118368632Y-97146570D01*
X118280380Y-97099398D01*
X118184622Y-97070350D01*
X118109984Y-97062999D01*
X118109981Y-97062999D01*
X118085037Y-97060542D01*
X118060093Y-97062999D01*
X117277982Y-97062999D01*
X117253038Y-97060542D01*
X117228094Y-97062999D01*
X117228092Y-97062999D01*
X117153454Y-97070350D01*
X117057696Y-97099398D01*
X117057694Y-97099399D01*
X116969443Y-97146570D01*
X116914849Y-97191375D01*
X116892091Y-97210051D01*
X116876188Y-97229429D01*
X116533429Y-97572189D01*
X116514052Y-97588091D01*
X116498150Y-97607468D01*
X116498149Y-97607469D01*
X116450570Y-97665444D01*
X116409174Y-97742891D01*
X116403399Y-97753696D01*
X116374593Y-97848658D01*
X116374351Y-97849455D01*
X116364542Y-97949039D01*
X116367000Y-97973993D01*
X116366999Y-101610055D01*
X116364542Y-101634999D01*
X116366999Y-101659943D01*
X116366999Y-101659945D01*
X116374350Y-101734583D01*
X116403398Y-101830341D01*
X116450570Y-101918594D01*
X116514051Y-101995947D01*
X116533433Y-102011854D01*
X116567000Y-102045420D01*
X116567000Y-102184922D01*
X116597013Y-102335809D01*
X116655887Y-102477942D01*
X116741358Y-102605859D01*
X116850141Y-102714642D01*
X116978058Y-102800113D01*
X117120191Y-102858987D01*
X117271078Y-102889000D01*
X117424922Y-102889000D01*
X117575809Y-102858987D01*
X117717942Y-102800113D01*
X117845859Y-102714642D01*
X117954642Y-102605859D01*
X118040113Y-102477942D01*
X118098987Y-102335809D01*
X118129000Y-102184922D01*
X118129000Y-102031078D01*
X118098987Y-101880191D01*
X118040113Y-101738058D01*
X117954642Y-101610141D01*
X117845859Y-101501358D01*
X117717942Y-101415887D01*
X117575809Y-101357013D01*
X117424922Y-101327000D01*
X117382999Y-101327000D01*
X117382999Y-99050739D01*
X117525078Y-99079000D01*
X117664580Y-99079000D01*
X118824437Y-100238858D01*
X118824437Y-103912420D01*
X118826235Y-103930680D01*
X117947061Y-103930680D01*
X117927120Y-103928716D01*
X117907180Y-103930680D01*
X117907179Y-103930680D01*
X117847530Y-103936555D01*
X117770999Y-103959770D01*
X117700467Y-103997470D01*
X117638646Y-104048206D01*
X117587910Y-104110027D01*
X117550210Y-104180559D01*
X117526995Y-104257090D01*
X117519156Y-104336680D01*
X117521121Y-104356631D01*
X117521120Y-107846500D01*
X113246743Y-107846500D01*
X113246743Y-106957317D01*
X113274477Y-106929583D01*
X113669666Y-106929583D01*
X113708563Y-107057809D01*
X113806620Y-107241261D01*
X113938584Y-107402057D01*
X114099380Y-107534020D01*
X114282832Y-107632077D01*
X114481889Y-107692460D01*
X114688900Y-107712849D01*
X114895912Y-107692460D01*
X115094969Y-107632077D01*
X115278421Y-107534020D01*
X115439217Y-107402057D01*
X115571180Y-107241261D01*
X115669237Y-107057808D01*
X115729620Y-106858751D01*
X115744900Y-106703611D01*
X115744900Y-106249868D01*
X115729620Y-106094728D01*
X115669237Y-105895671D01*
X115571180Y-105712219D01*
X115439217Y-105551423D01*
X115324041Y-105456900D01*
X115372111Y-105417451D01*
X115419722Y-105359436D01*
X115455101Y-105293248D01*
X115476887Y-105221429D01*
X115484243Y-105146740D01*
X115484243Y-104446740D01*
X115476887Y-104372051D01*
X115459926Y-104316136D01*
X115464387Y-104301429D01*
X115471743Y-104226740D01*
X115471743Y-102726740D01*
X115464387Y-102652051D01*
X115442601Y-102580232D01*
X115407222Y-102514044D01*
X115359611Y-102456029D01*
X115301596Y-102408418D01*
X115235408Y-102373039D01*
X115163589Y-102351253D01*
X115088900Y-102343897D01*
X113635918Y-102343897D01*
X113608900Y-102341236D01*
X113581882Y-102343897D01*
X113088900Y-102343897D01*
X113014211Y-102351253D01*
X112942392Y-102373039D01*
X112876204Y-102408418D01*
X112818189Y-102456029D01*
X112770578Y-102514044D01*
X112735199Y-102580232D01*
X112713413Y-102652051D01*
X112706057Y-102726740D01*
X112706057Y-103045820D01*
X112691371Y-103094233D01*
X112677900Y-103231010D01*
X112677900Y-103722471D01*
X112691371Y-103859248D01*
X112706057Y-103907661D01*
X112706057Y-104226740D01*
X112713413Y-104301429D01*
X112735199Y-104373248D01*
X112770578Y-104439436D01*
X112818189Y-104497451D01*
X112876204Y-104545062D01*
X112881057Y-104547656D01*
X112881057Y-105115587D01*
X112863900Y-105113897D01*
X111433900Y-105113897D01*
X111359211Y-105121253D01*
X111287392Y-105143039D01*
X111221204Y-105178418D01*
X111188900Y-105204929D01*
X111156596Y-105178418D01*
X111090408Y-105143039D01*
X111018589Y-105121253D01*
X110943900Y-105113897D01*
X110504507Y-105113897D01*
X110532402Y-104973660D01*
X110532402Y-104819816D01*
X110529372Y-104804583D01*
X110738900Y-104804583D01*
X110813589Y-104797227D01*
X110863900Y-104781965D01*
X110914211Y-104797227D01*
X110988900Y-104804583D01*
X111388900Y-104804583D01*
X111463589Y-104797227D01*
X111513900Y-104781965D01*
X111564211Y-104797227D01*
X111638900Y-104804583D01*
X112038900Y-104804583D01*
X112113589Y-104797227D01*
X112185408Y-104775441D01*
X112251596Y-104740062D01*
X112309611Y-104692451D01*
X112357222Y-104634436D01*
X112392601Y-104568248D01*
X112414387Y-104496429D01*
X112421743Y-104421740D01*
X112421743Y-102771740D01*
X112414387Y-102697051D01*
X112392601Y-102625232D01*
X112357222Y-102559044D01*
X112309611Y-102501029D01*
X112251596Y-102453418D01*
X112185408Y-102418039D01*
X112113589Y-102396253D01*
X112038900Y-102388897D01*
X111638900Y-102388897D01*
X111564211Y-102396253D01*
X111513900Y-102411515D01*
X111463589Y-102396253D01*
X111388900Y-102388897D01*
X110988900Y-102388897D01*
X110914211Y-102396253D01*
X110863900Y-102411515D01*
X110813589Y-102396253D01*
X110738900Y-102388897D01*
X110513317Y-102388897D01*
X110510770Y-102363040D01*
X110474689Y-102244096D01*
X110416096Y-102134477D01*
X110337243Y-102038395D01*
X110313163Y-102018633D01*
X110167006Y-101872476D01*
X110147244Y-101848396D01*
X110051162Y-101769543D01*
X110001214Y-101742845D01*
X109671212Y-101412843D01*
X110053001Y-101412843D01*
X110176462Y-101400683D01*
X110295179Y-101364671D01*
X110404589Y-101306190D01*
X110438572Y-101278301D01*
X110451561Y-101302603D01*
X110487176Y-101346000D01*
X110515043Y-101379956D01*
X110534420Y-101395858D01*
X110837137Y-101698575D01*
X110853044Y-101717958D01*
X110897468Y-101754415D01*
X110930396Y-101781439D01*
X110977568Y-101806653D01*
X111018649Y-101828611D01*
X111114407Y-101857659D01*
X111189045Y-101865010D01*
X111189047Y-101865010D01*
X111213991Y-101867467D01*
X111238935Y-101865010D01*
X112317064Y-101865010D01*
X112342008Y-101867467D01*
X112366952Y-101865010D01*
X112366955Y-101865010D01*
X112441593Y-101857659D01*
X112537351Y-101828611D01*
X112625603Y-101781439D01*
X112702956Y-101717958D01*
X112718863Y-101698575D01*
X114387572Y-100029867D01*
X114406949Y-100013965D01*
X114443807Y-99969053D01*
X114470430Y-99936613D01*
X114517601Y-99848361D01*
X114517602Y-99848360D01*
X114546650Y-99752602D01*
X114554001Y-99677964D01*
X114554001Y-99677962D01*
X114556458Y-99653018D01*
X114554001Y-99628074D01*
X114554001Y-95084501D01*
X114652643Y-94985859D01*
X114738114Y-94857942D01*
X114796988Y-94715809D01*
X114827001Y-94564922D01*
X114827001Y-94411078D01*
X114796988Y-94260191D01*
X114738114Y-94118058D01*
X114652643Y-93990141D01*
X114543860Y-93881358D01*
X114415943Y-93795887D01*
X114273810Y-93737013D01*
X114218443Y-93726000D01*
X114273809Y-93714987D01*
X114415942Y-93656113D01*
X114543859Y-93570642D01*
X114642501Y-93472000D01*
X120885000Y-93472000D01*
X120885000Y-93548922D01*
G36*
X101854000Y-84157421D02*
G01*
X101854001Y-87351046D01*
X101851543Y-87376000D01*
X101855434Y-87415500D01*
X101861352Y-87475585D01*
X101877985Y-87530415D01*
X101890400Y-87571343D01*
X101937571Y-87659595D01*
X101977123Y-87707789D01*
X102001053Y-87736948D01*
X102020430Y-87752850D01*
X105506151Y-91238572D01*
X105522053Y-91257949D01*
X105541430Y-91273851D01*
X105599405Y-91321430D01*
X105664884Y-91356429D01*
X105687658Y-91368602D01*
X105783416Y-91397650D01*
X105858054Y-91405001D01*
X105858056Y-91405001D01*
X105883000Y-91407458D01*
X105907944Y-91405001D01*
X115928634Y-91405001D01*
X115948208Y-91424575D01*
X116076125Y-91510046D01*
X116218258Y-91568920D01*
X116369145Y-91598933D01*
X116522989Y-91598933D01*
X116673876Y-91568920D01*
X116816009Y-91510046D01*
X116943926Y-91424575D01*
X117052709Y-91315792D01*
X117138180Y-91187875D01*
X117197054Y-91045742D01*
X117227067Y-90894855D01*
X117227067Y-90744463D01*
X117249989Y-90744463D01*
X117400876Y-90714450D01*
X117543009Y-90655576D01*
X117670926Y-90570105D01*
X117779709Y-90461322D01*
X117865180Y-90333405D01*
X117924054Y-90191272D01*
X117954067Y-90040385D01*
X117954067Y-89886541D01*
X117924054Y-89735654D01*
X117865180Y-89593521D01*
X117779709Y-89465604D01*
X117670926Y-89356821D01*
X117543009Y-89271350D01*
X117400876Y-89212476D01*
X117249989Y-89182463D01*
X117096145Y-89182463D01*
X116945258Y-89212476D01*
X116803125Y-89271350D01*
X116675208Y-89356821D01*
X116576566Y-89455463D01*
X114303883Y-89455463D01*
X113259420Y-88411000D01*
X113360922Y-88411000D01*
X113511809Y-88380987D01*
X113653942Y-88322113D01*
X113781859Y-88236642D01*
X113890642Y-88127859D01*
X113976113Y-87999942D01*
X114034987Y-87857809D01*
X114065000Y-87706922D01*
X114065000Y-87553078D01*
X114034987Y-87402191D01*
X113976113Y-87260058D01*
X113890642Y-87132141D01*
X113781859Y-87023358D01*
X113653942Y-86937887D01*
X113511809Y-86879013D01*
X113360922Y-86849000D01*
X113222665Y-86849000D01*
X113157752Y-86795728D01*
X113069500Y-86748556D01*
X112973742Y-86719508D01*
X112899104Y-86712157D01*
X112899101Y-86712157D01*
X112874157Y-86709700D01*
X112849213Y-86712157D01*
X105464577Y-86712157D01*
X104877420Y-86125000D01*
X104978921Y-86125000D01*
X105129808Y-86094987D01*
X105271941Y-86036113D01*
X105399858Y-85950642D01*
X105498500Y-85852000D01*
X115105580Y-85852000D01*
X120885000Y-91631421D01*
X120885000Y-91770922D01*
X120915013Y-91921809D01*
X120973887Y-92063942D01*
X121059358Y-92191859D01*
X121168141Y-92300642D01*
X121296058Y-92386113D01*
X121438191Y-92444987D01*
X121589078Y-92475000D01*
X121742922Y-92475000D01*
X121893809Y-92444987D01*
X122035942Y-92386113D01*
X122163859Y-92300642D01*
X122272642Y-92191859D01*
X122305001Y-92143430D01*
X122305000Y-93022569D01*
X122272642Y-92974141D01*
X122163859Y-92865358D01*
X122035942Y-92779887D01*
X121893809Y-92721013D01*
X121742922Y-92691000D01*
X121603420Y-92691000D01*
X121534855Y-92622434D01*
X121518948Y-92603052D01*
X121441595Y-92539571D01*
X121353343Y-92492399D01*
X121257585Y-92463351D01*
X121182947Y-92456000D01*
X121182944Y-92456000D01*
X121158000Y-92453543D01*
X121133056Y-92456000D01*
X114642501Y-92456000D01*
X114543859Y-92357358D01*
X114415942Y-92271887D01*
X114273809Y-92213013D01*
X114122922Y-92183000D01*
X113969078Y-92183000D01*
X113818191Y-92213013D01*
X113676058Y-92271887D01*
X113548141Y-92357358D01*
X113439358Y-92466141D01*
X113353887Y-92594058D01*
X113325380Y-92662879D01*
X113273859Y-92611358D01*
X113145942Y-92525887D01*
X113003809Y-92467013D01*
X112852922Y-92437000D01*
X112699078Y-92437000D01*
X112548191Y-92467013D01*
X112406058Y-92525887D01*
X112278141Y-92611358D01*
X112169358Y-92720141D01*
X112083887Y-92848058D01*
X112025013Y-92990191D01*
X111995000Y-93141078D01*
X111995000Y-93294922D01*
X112025013Y-93445809D01*
X112083887Y-93587942D01*
X112169358Y-93715859D01*
X112278141Y-93824642D01*
X112406058Y-93910113D01*
X112548191Y-93968987D01*
X112699078Y-93999000D01*
X112852922Y-93999000D01*
X113003809Y-93968987D01*
X113145942Y-93910113D01*
X113273859Y-93824642D01*
X113382642Y-93715859D01*
X113468113Y-93587942D01*
X113496620Y-93519121D01*
X113548141Y-93570642D01*
X113676058Y-93656113D01*
X113818191Y-93714987D01*
X113873558Y-93726000D01*
X113818192Y-93737013D01*
X113676059Y-93795887D01*
X113548142Y-93881358D01*
X113439359Y-93990141D01*
X113353888Y-94118058D01*
X113295014Y-94260191D01*
X113265001Y-94411078D01*
X113265001Y-94564922D01*
X113295014Y-94715809D01*
X113353888Y-94857942D01*
X113439359Y-94985859D01*
X113538002Y-95084502D01*
X113538001Y-98065862D01*
X113511809Y-98055013D01*
X113360922Y-98025000D01*
X113207078Y-98025000D01*
X113056191Y-98055013D01*
X112914058Y-98113887D01*
X112786141Y-98199358D01*
X112717843Y-98267656D01*
X112717843Y-97593999D01*
X112705683Y-97470538D01*
X112669671Y-97351821D01*
X112611190Y-97242411D01*
X112532488Y-97146512D01*
X112436589Y-97067810D01*
X112327179Y-97009329D01*
X112208462Y-96973317D01*
X112085001Y-96961157D01*
X111569525Y-96961157D01*
X111078095Y-96469727D01*
X111058333Y-96445647D01*
X110962251Y-96366794D01*
X110852632Y-96308201D01*
X110733688Y-96272120D01*
X110640988Y-96262990D01*
X110640980Y-96262990D01*
X110609990Y-96259938D01*
X110579000Y-96262990D01*
X102139357Y-96262990D01*
X98424807Y-92548441D01*
X98529900Y-92527536D01*
X98735729Y-92442279D01*
X98920970Y-92318505D01*
X99078505Y-92160970D01*
X99202279Y-91975729D01*
X99287536Y-91769900D01*
X99331000Y-91551394D01*
X99331000Y-91328606D01*
X100469000Y-91328606D01*
X100469000Y-91551394D01*
X100512464Y-91769900D01*
X100597721Y-91975729D01*
X100721495Y-92160970D01*
X100879030Y-92318505D01*
X101064271Y-92442279D01*
X101270100Y-92527536D01*
X101488606Y-92571000D01*
X101711394Y-92571000D01*
X101929900Y-92527536D01*
X102135729Y-92442279D01*
X102320970Y-92318505D01*
X102478505Y-92160970D01*
X102502487Y-92125078D01*
X108439000Y-92125078D01*
X108439000Y-92278922D01*
X108469013Y-92429809D01*
X108527887Y-92571942D01*
X108613358Y-92699859D01*
X108722141Y-92808642D01*
X108850058Y-92894113D01*
X108992191Y-92952987D01*
X109143078Y-92983000D01*
X109296922Y-92983000D01*
X109447809Y-92952987D01*
X109589942Y-92894113D01*
X109717859Y-92808642D01*
X109826642Y-92699859D01*
X109912113Y-92571942D01*
X109970987Y-92429809D01*
X110001000Y-92278922D01*
X110001000Y-92125078D01*
X109970987Y-91974191D01*
X109912113Y-91832058D01*
X109826642Y-91704141D01*
X109717859Y-91595358D01*
X109589942Y-91509887D01*
X109447809Y-91451013D01*
X109296922Y-91421000D01*
X109143078Y-91421000D01*
X108992191Y-91451013D01*
X108850058Y-91509887D01*
X108722141Y-91595358D01*
X108613358Y-91704141D01*
X108527887Y-91832058D01*
X108469013Y-91974191D01*
X108439000Y-92125078D01*
X102502487Y-92125078D01*
X102602279Y-91975729D01*
X102687536Y-91769900D01*
X102731000Y-91551394D01*
X102731000Y-91328606D01*
X102687536Y-91110100D01*
X102602279Y-90904271D01*
X102478505Y-90719030D01*
X102320970Y-90561495D01*
X102135729Y-90437721D01*
X101929900Y-90352464D01*
X101711394Y-90309000D01*
X101488606Y-90309000D01*
X101270100Y-90352464D01*
X101064271Y-90437721D01*
X100879030Y-90561495D01*
X100721495Y-90719030D01*
X100597721Y-90904271D01*
X100512464Y-91110100D01*
X100469000Y-91328606D01*
X99331000Y-91328606D01*
X99287536Y-91110100D01*
X99202279Y-90904271D01*
X99078505Y-90719030D01*
X98920970Y-90561495D01*
X98735729Y-90437721D01*
X98529900Y-90352464D01*
X98311394Y-90309000D01*
X98088606Y-90309000D01*
X97870100Y-90352464D01*
X97664271Y-90437721D01*
X97479030Y-90561495D01*
X97321495Y-90719030D01*
X97197721Y-90904271D01*
X97112464Y-91110100D01*
X97091559Y-91215193D01*
X96731001Y-90854635D01*
X96731001Y-86703001D01*
X96734054Y-86672003D01*
X96721871Y-86548305D01*
X96685790Y-86429361D01*
X96627197Y-86319742D01*
X96568104Y-86247737D01*
X96568102Y-86247735D01*
X96548344Y-86223660D01*
X96524269Y-86203902D01*
X95881210Y-85560843D01*
X97116000Y-85560843D01*
X97190689Y-85553487D01*
X97262508Y-85531701D01*
X97328696Y-85496322D01*
X97386711Y-85448711D01*
X97434322Y-85390696D01*
X97469701Y-85324508D01*
X97491487Y-85252689D01*
X97498843Y-85178000D01*
X97498843Y-84836000D01*
X98970157Y-84836000D01*
X98970157Y-85178000D01*
X98977513Y-85252689D01*
X98999299Y-85324508D01*
X99034678Y-85390696D01*
X99082289Y-85448711D01*
X99140304Y-85496322D01*
X99206492Y-85531701D01*
X99278311Y-85553487D01*
X99353000Y-85560843D01*
X101053000Y-85560843D01*
X101127689Y-85553487D01*
X101199508Y-85531701D01*
X101265696Y-85496322D01*
X101323711Y-85448711D01*
X101371322Y-85390696D01*
X101406701Y-85324508D01*
X101428487Y-85252689D01*
X101435843Y-85178000D01*
X101435843Y-83739264D01*
X101854000Y-84157421D01*
G37*
X101854000Y-84157421D02*
X101854001Y-87351046D01*
X101851543Y-87376000D01*
X101855434Y-87415500D01*
X101861352Y-87475585D01*
X101877985Y-87530415D01*
X101890400Y-87571343D01*
X101937571Y-87659595D01*
X101977123Y-87707789D01*
X102001053Y-87736948D01*
X102020430Y-87752850D01*
X105506151Y-91238572D01*
X105522053Y-91257949D01*
X105541430Y-91273851D01*
X105599405Y-91321430D01*
X105664884Y-91356429D01*
X105687658Y-91368602D01*
X105783416Y-91397650D01*
X105858054Y-91405001D01*
X105858056Y-91405001D01*
X105883000Y-91407458D01*
X105907944Y-91405001D01*
X115928634Y-91405001D01*
X115948208Y-91424575D01*
X116076125Y-91510046D01*
X116218258Y-91568920D01*
X116369145Y-91598933D01*
X116522989Y-91598933D01*
X116673876Y-91568920D01*
X116816009Y-91510046D01*
X116943926Y-91424575D01*
X117052709Y-91315792D01*
X117138180Y-91187875D01*
X117197054Y-91045742D01*
X117227067Y-90894855D01*
X117227067Y-90744463D01*
X117249989Y-90744463D01*
X117400876Y-90714450D01*
X117543009Y-90655576D01*
X117670926Y-90570105D01*
X117779709Y-90461322D01*
X117865180Y-90333405D01*
X117924054Y-90191272D01*
X117954067Y-90040385D01*
X117954067Y-89886541D01*
X117924054Y-89735654D01*
X117865180Y-89593521D01*
X117779709Y-89465604D01*
X117670926Y-89356821D01*
X117543009Y-89271350D01*
X117400876Y-89212476D01*
X117249989Y-89182463D01*
X117096145Y-89182463D01*
X116945258Y-89212476D01*
X116803125Y-89271350D01*
X116675208Y-89356821D01*
X116576566Y-89455463D01*
X114303883Y-89455463D01*
X113259420Y-88411000D01*
X113360922Y-88411000D01*
X113511809Y-88380987D01*
X113653942Y-88322113D01*
X113781859Y-88236642D01*
X113890642Y-88127859D01*
X113976113Y-87999942D01*
X114034987Y-87857809D01*
X114065000Y-87706922D01*
X114065000Y-87553078D01*
X114034987Y-87402191D01*
X113976113Y-87260058D01*
X113890642Y-87132141D01*
X113781859Y-87023358D01*
X113653942Y-86937887D01*
X113511809Y-86879013D01*
X113360922Y-86849000D01*
X113222665Y-86849000D01*
X113157752Y-86795728D01*
X113069500Y-86748556D01*
X112973742Y-86719508D01*
X112899104Y-86712157D01*
X112899101Y-86712157D01*
X112874157Y-86709700D01*
X112849213Y-86712157D01*
X105464577Y-86712157D01*
X104877420Y-86125000D01*
X104978921Y-86125000D01*
X105129808Y-86094987D01*
X105271941Y-86036113D01*
X105399858Y-85950642D01*
X105498500Y-85852000D01*
X115105580Y-85852000D01*
X120885000Y-91631421D01*
X120885000Y-91770922D01*
X120915013Y-91921809D01*
X120973887Y-92063942D01*
X121059358Y-92191859D01*
X121168141Y-92300642D01*
X121296058Y-92386113D01*
X121438191Y-92444987D01*
X121589078Y-92475000D01*
X121742922Y-92475000D01*
X121893809Y-92444987D01*
X122035942Y-92386113D01*
X122163859Y-92300642D01*
X122272642Y-92191859D01*
X122305001Y-92143430D01*
X122305000Y-93022569D01*
X122272642Y-92974141D01*
X122163859Y-92865358D01*
X122035942Y-92779887D01*
X121893809Y-92721013D01*
X121742922Y-92691000D01*
X121603420Y-92691000D01*
X121534855Y-92622434D01*
X121518948Y-92603052D01*
X121441595Y-92539571D01*
X121353343Y-92492399D01*
X121257585Y-92463351D01*
X121182947Y-92456000D01*
X121182944Y-92456000D01*
X121158000Y-92453543D01*
X121133056Y-92456000D01*
X114642501Y-92456000D01*
X114543859Y-92357358D01*
X114415942Y-92271887D01*
X114273809Y-92213013D01*
X114122922Y-92183000D01*
X113969078Y-92183000D01*
X113818191Y-92213013D01*
X113676058Y-92271887D01*
X113548141Y-92357358D01*
X113439358Y-92466141D01*
X113353887Y-92594058D01*
X113325380Y-92662879D01*
X113273859Y-92611358D01*
X113145942Y-92525887D01*
X113003809Y-92467013D01*
X112852922Y-92437000D01*
X112699078Y-92437000D01*
X112548191Y-92467013D01*
X112406058Y-92525887D01*
X112278141Y-92611358D01*
X112169358Y-92720141D01*
X112083887Y-92848058D01*
X112025013Y-92990191D01*
X111995000Y-93141078D01*
X111995000Y-93294922D01*
X112025013Y-93445809D01*
X112083887Y-93587942D01*
X112169358Y-93715859D01*
X112278141Y-93824642D01*
X112406058Y-93910113D01*
X112548191Y-93968987D01*
X112699078Y-93999000D01*
X112852922Y-93999000D01*
X113003809Y-93968987D01*
X113145942Y-93910113D01*
X113273859Y-93824642D01*
X113382642Y-93715859D01*
X113468113Y-93587942D01*
X113496620Y-93519121D01*
X113548141Y-93570642D01*
X113676058Y-93656113D01*
X113818191Y-93714987D01*
X113873558Y-93726000D01*
X113818192Y-93737013D01*
X113676059Y-93795887D01*
X113548142Y-93881358D01*
X113439359Y-93990141D01*
X113353888Y-94118058D01*
X113295014Y-94260191D01*
X113265001Y-94411078D01*
X113265001Y-94564922D01*
X113295014Y-94715809D01*
X113353888Y-94857942D01*
X113439359Y-94985859D01*
X113538002Y-95084502D01*
X113538001Y-98065862D01*
X113511809Y-98055013D01*
X113360922Y-98025000D01*
X113207078Y-98025000D01*
X113056191Y-98055013D01*
X112914058Y-98113887D01*
X112786141Y-98199358D01*
X112717843Y-98267656D01*
X112717843Y-97593999D01*
X112705683Y-97470538D01*
X112669671Y-97351821D01*
X112611190Y-97242411D01*
X112532488Y-97146512D01*
X112436589Y-97067810D01*
X112327179Y-97009329D01*
X112208462Y-96973317D01*
X112085001Y-96961157D01*
X111569525Y-96961157D01*
X111078095Y-96469727D01*
X111058333Y-96445647D01*
X110962251Y-96366794D01*
X110852632Y-96308201D01*
X110733688Y-96272120D01*
X110640988Y-96262990D01*
X110640980Y-96262990D01*
X110609990Y-96259938D01*
X110579000Y-96262990D01*
X102139357Y-96262990D01*
X98424807Y-92548441D01*
X98529900Y-92527536D01*
X98735729Y-92442279D01*
X98920970Y-92318505D01*
X99078505Y-92160970D01*
X99202279Y-91975729D01*
X99287536Y-91769900D01*
X99331000Y-91551394D01*
X99331000Y-91328606D01*
X100469000Y-91328606D01*
X100469000Y-91551394D01*
X100512464Y-91769900D01*
X100597721Y-91975729D01*
X100721495Y-92160970D01*
X100879030Y-92318505D01*
X101064271Y-92442279D01*
X101270100Y-92527536D01*
X101488606Y-92571000D01*
X101711394Y-92571000D01*
X101929900Y-92527536D01*
X102135729Y-92442279D01*
X102320970Y-92318505D01*
X102478505Y-92160970D01*
X102502487Y-92125078D01*
X108439000Y-92125078D01*
X108439000Y-92278922D01*
X108469013Y-92429809D01*
X108527887Y-92571942D01*
X108613358Y-92699859D01*
X108722141Y-92808642D01*
X108850058Y-92894113D01*
X108992191Y-92952987D01*
X109143078Y-92983000D01*
X109296922Y-92983000D01*
X109447809Y-92952987D01*
X109589942Y-92894113D01*
X109717859Y-92808642D01*
X109826642Y-92699859D01*
X109912113Y-92571942D01*
X109970987Y-92429809D01*
X110001000Y-92278922D01*
X110001000Y-92125078D01*
X109970987Y-91974191D01*
X109912113Y-91832058D01*
X109826642Y-91704141D01*
X109717859Y-91595358D01*
X109589942Y-91509887D01*
X109447809Y-91451013D01*
X109296922Y-91421000D01*
X109143078Y-91421000D01*
X108992191Y-91451013D01*
X108850058Y-91509887D01*
X108722141Y-91595358D01*
X108613358Y-91704141D01*
X108527887Y-91832058D01*
X108469013Y-91974191D01*
X108439000Y-92125078D01*
X102502487Y-92125078D01*
X102602279Y-91975729D01*
X102687536Y-91769900D01*
X102731000Y-91551394D01*
X102731000Y-91328606D01*
X102687536Y-91110100D01*
X102602279Y-90904271D01*
X102478505Y-90719030D01*
X102320970Y-90561495D01*
X102135729Y-90437721D01*
X101929900Y-90352464D01*
X101711394Y-90309000D01*
X101488606Y-90309000D01*
X101270100Y-90352464D01*
X101064271Y-90437721D01*
X100879030Y-90561495D01*
X100721495Y-90719030D01*
X100597721Y-90904271D01*
X100512464Y-91110100D01*
X100469000Y-91328606D01*
X99331000Y-91328606D01*
X99287536Y-91110100D01*
X99202279Y-90904271D01*
X99078505Y-90719030D01*
X98920970Y-90561495D01*
X98735729Y-90437721D01*
X98529900Y-90352464D01*
X98311394Y-90309000D01*
X98088606Y-90309000D01*
X97870100Y-90352464D01*
X97664271Y-90437721D01*
X97479030Y-90561495D01*
X97321495Y-90719030D01*
X97197721Y-90904271D01*
X97112464Y-91110100D01*
X97091559Y-91215193D01*
X96731001Y-90854635D01*
X96731001Y-86703001D01*
X96734054Y-86672003D01*
X96721871Y-86548305D01*
X96685790Y-86429361D01*
X96627197Y-86319742D01*
X96568104Y-86247737D01*
X96568102Y-86247735D01*
X96548344Y-86223660D01*
X96524269Y-86203902D01*
X95881210Y-85560843D01*
X97116000Y-85560843D01*
X97190689Y-85553487D01*
X97262508Y-85531701D01*
X97328696Y-85496322D01*
X97386711Y-85448711D01*
X97434322Y-85390696D01*
X97469701Y-85324508D01*
X97491487Y-85252689D01*
X97498843Y-85178000D01*
X97498843Y-84836000D01*
X98970157Y-84836000D01*
X98970157Y-85178000D01*
X98977513Y-85252689D01*
X98999299Y-85324508D01*
X99034678Y-85390696D01*
X99082289Y-85448711D01*
X99140304Y-85496322D01*
X99206492Y-85531701D01*
X99278311Y-85553487D01*
X99353000Y-85560843D01*
X101053000Y-85560843D01*
X101127689Y-85553487D01*
X101199508Y-85531701D01*
X101265696Y-85496322D01*
X101323711Y-85448711D01*
X101371322Y-85390696D01*
X101406701Y-85324508D01*
X101428487Y-85252689D01*
X101435843Y-85178000D01*
X101435843Y-83739264D01*
X101854000Y-84157421D01*
G36*
X99112102Y-71044903D02*
G01*
X99019307Y-71268931D01*
X98972000Y-71506757D01*
X98972000Y-71749243D01*
X99019307Y-71987069D01*
X99112102Y-72211097D01*
X99246820Y-72412717D01*
X99418283Y-72584180D01*
X99619903Y-72718898D01*
X99843931Y-72811693D01*
X100081757Y-72859000D01*
X100324243Y-72859000D01*
X100562069Y-72811693D01*
X100786097Y-72718898D01*
X100987717Y-72584180D01*
X101159180Y-72412717D01*
X101293898Y-72211097D01*
X101386693Y-71987069D01*
X101434000Y-71749243D01*
X101434000Y-71506757D01*
X101386693Y-71268931D01*
X101293898Y-71044903D01*
X101236499Y-70958999D01*
X102716999Y-70958999D01*
X102716999Y-71373010D01*
X102713947Y-71404001D01*
X102716999Y-71434991D01*
X102716999Y-71434998D01*
X102717000Y-71435008D01*
X102716999Y-74615009D01*
X102713947Y-74645999D01*
X102716999Y-74676989D01*
X102716999Y-74676996D01*
X102726129Y-74769696D01*
X102762210Y-74888640D01*
X102820803Y-74998259D01*
X102899656Y-75094342D01*
X102923736Y-75114104D01*
X104708048Y-76898417D01*
X104696673Y-76919698D01*
X104684400Y-76942659D01*
X104669556Y-76991595D01*
X104655352Y-77038418D01*
X104645543Y-77138002D01*
X104648001Y-77162956D01*
X104648000Y-78584272D01*
X104646600Y-78579656D01*
X104599428Y-78491404D01*
X104535947Y-78414051D01*
X104516564Y-78398144D01*
X103324010Y-77205590D01*
X103324010Y-76805953D01*
X103326467Y-76781009D01*
X103324010Y-76756063D01*
X103316659Y-76681425D01*
X103287611Y-76585667D01*
X103286881Y-76584301D01*
X103240439Y-76497414D01*
X103192860Y-76439439D01*
X103176958Y-76420062D01*
X103157581Y-76404160D01*
X101355587Y-74602166D01*
X101386693Y-74527069D01*
X101434000Y-74289243D01*
X101434000Y-74046757D01*
X101386693Y-73808931D01*
X101293898Y-73584903D01*
X101159180Y-73383283D01*
X100987717Y-73211820D01*
X100786097Y-73077102D01*
X100562069Y-72984307D01*
X100324243Y-72937000D01*
X100081757Y-72937000D01*
X99843931Y-72984307D01*
X99619903Y-73077102D01*
X99418283Y-73211820D01*
X99246820Y-73383283D01*
X99112102Y-73584903D01*
X99080996Y-73660000D01*
X97388004Y-73660000D01*
X97356898Y-73584903D01*
X97222180Y-73383283D01*
X97050717Y-73211820D01*
X96849097Y-73077102D01*
X96625069Y-72984307D01*
X96387243Y-72937000D01*
X96144757Y-72937000D01*
X95906931Y-72984307D01*
X95682903Y-73077102D01*
X95481283Y-73211820D01*
X95309820Y-73383283D01*
X95175102Y-73584903D01*
X95082307Y-73808931D01*
X95035000Y-74046757D01*
X95035000Y-74289243D01*
X95082307Y-74527069D01*
X95175102Y-74751097D01*
X95309820Y-74952717D01*
X95481283Y-75124180D01*
X95682903Y-75258898D01*
X95906931Y-75351693D01*
X96144757Y-75399000D01*
X96387243Y-75399000D01*
X96625069Y-75351693D01*
X96849097Y-75258898D01*
X97050717Y-75124180D01*
X97222180Y-74952717D01*
X97356898Y-74751097D01*
X97388004Y-74676000D01*
X99080996Y-74676000D01*
X99112102Y-74751097D01*
X99246820Y-74952717D01*
X99418283Y-75124180D01*
X99619903Y-75258898D01*
X99843931Y-75351693D01*
X100081757Y-75399000D01*
X100324243Y-75399000D01*
X100562069Y-75351693D01*
X100637166Y-75320587D01*
X102308011Y-76991432D01*
X102308010Y-77391065D01*
X102305553Y-77416010D01*
X102308010Y-77440954D01*
X102308010Y-77440956D01*
X102315361Y-77515594D01*
X102344409Y-77611352D01*
X102391581Y-77699605D01*
X102455062Y-77776958D01*
X102474445Y-77792865D01*
X103667000Y-78985420D01*
X103667000Y-79453580D01*
X101355587Y-77142167D01*
X101386693Y-77067069D01*
X101434000Y-76829243D01*
X101434000Y-76586757D01*
X101386693Y-76348931D01*
X101293898Y-76124903D01*
X101159180Y-75923283D01*
X100987717Y-75751820D01*
X100786097Y-75617102D01*
X100562069Y-75524307D01*
X100324243Y-75477000D01*
X100081757Y-75477000D01*
X99843931Y-75524307D01*
X99619903Y-75617102D01*
X99418283Y-75751820D01*
X99246820Y-75923283D01*
X99112102Y-76124903D01*
X99080996Y-76200000D01*
X97388004Y-76200000D01*
X97356898Y-76124903D01*
X97222180Y-75923283D01*
X97050717Y-75751820D01*
X96849097Y-75617102D01*
X96625069Y-75524307D01*
X96387243Y-75477000D01*
X96144757Y-75477000D01*
X95906931Y-75524307D01*
X95682903Y-75617102D01*
X95481283Y-75751820D01*
X95309820Y-75923283D01*
X95175102Y-76124903D01*
X95082307Y-76348931D01*
X95035000Y-76586757D01*
X95035000Y-76829243D01*
X95082307Y-77067069D01*
X95175102Y-77291097D01*
X95309820Y-77492717D01*
X95481283Y-77664180D01*
X95682903Y-77798898D01*
X95906931Y-77891693D01*
X96144757Y-77939000D01*
X96387243Y-77939000D01*
X96625069Y-77891693D01*
X96849097Y-77798898D01*
X97050717Y-77664180D01*
X97222180Y-77492717D01*
X97356898Y-77291097D01*
X97388004Y-77216000D01*
X99080996Y-77216000D01*
X99112102Y-77291097D01*
X99246820Y-77492717D01*
X99418283Y-77664180D01*
X99619903Y-77798898D01*
X99843931Y-77891693D01*
X100081757Y-77939000D01*
X100324243Y-77939000D01*
X100562069Y-77891693D01*
X100637167Y-77860587D01*
X103212989Y-80436409D01*
X103212990Y-86424035D01*
X103210532Y-86448989D01*
X103216148Y-86506000D01*
X103220341Y-86548574D01*
X103230734Y-86582834D01*
X103249389Y-86644332D01*
X103296560Y-86732584D01*
X103331719Y-86775425D01*
X103360042Y-86809937D01*
X103379419Y-86825839D01*
X105033149Y-88479570D01*
X105049052Y-88498948D01*
X105068429Y-88514850D01*
X105126404Y-88562429D01*
X105190669Y-88596779D01*
X105214657Y-88609601D01*
X105310415Y-88638649D01*
X105385053Y-88646000D01*
X105385055Y-88646000D01*
X105409999Y-88648457D01*
X105434943Y-88646000D01*
X112057580Y-88646000D01*
X113716608Y-90305028D01*
X113732515Y-90324411D01*
X113809868Y-90387892D01*
X113811943Y-90389001D01*
X106093422Y-90389001D01*
X102870000Y-87165580D01*
X102870000Y-83971943D01*
X102872457Y-83946999D01*
X102870000Y-83922053D01*
X102862649Y-83847415D01*
X102833601Y-83751657D01*
X102811643Y-83710576D01*
X102786429Y-83663404D01*
X102738850Y-83605429D01*
X102722948Y-83586052D01*
X102703571Y-83570150D01*
X101355587Y-82222166D01*
X101386693Y-82147069D01*
X101434000Y-81909243D01*
X101434000Y-81666757D01*
X101386693Y-81428931D01*
X101293898Y-81204903D01*
X101159180Y-81003283D01*
X100987717Y-80831820D01*
X100786097Y-80697102D01*
X100562069Y-80604307D01*
X100324243Y-80557000D01*
X100081757Y-80557000D01*
X99843931Y-80604307D01*
X99619903Y-80697102D01*
X99418283Y-80831820D01*
X99246820Y-81003283D01*
X99144110Y-81157000D01*
X97324890Y-81157000D01*
X97222180Y-81003283D01*
X97050717Y-80831820D01*
X96849097Y-80697102D01*
X96625069Y-80604307D01*
X96387243Y-80557000D01*
X96144757Y-80557000D01*
X95906931Y-80604307D01*
X95682903Y-80697102D01*
X95481283Y-80831820D01*
X95309820Y-81003283D01*
X95175102Y-81204903D01*
X95089734Y-81411000D01*
X94749369Y-81411000D01*
X94244447Y-80906079D01*
X94222987Y-80798191D01*
X94164113Y-80656058D01*
X94078642Y-80528141D01*
X93969859Y-80419358D01*
X93841942Y-80333887D01*
X93699809Y-80275013D01*
X93548922Y-80245000D01*
X93395078Y-80245000D01*
X93252999Y-80273261D01*
X93252999Y-73609367D01*
X95047962Y-71814405D01*
X95082307Y-71987069D01*
X95175102Y-72211097D01*
X95309820Y-72412717D01*
X95481283Y-72584180D01*
X95682903Y-72718898D01*
X95906931Y-72811693D01*
X96144757Y-72859000D01*
X96387243Y-72859000D01*
X96625069Y-72811693D01*
X96849097Y-72718898D01*
X97050717Y-72584180D01*
X97222180Y-72412717D01*
X97356898Y-72211097D01*
X97449693Y-71987069D01*
X97497000Y-71749243D01*
X97497000Y-71506757D01*
X97449693Y-71268931D01*
X97356898Y-71044903D01*
X97299499Y-70958999D01*
X99169501Y-70958999D01*
X99112102Y-71044903D01*
G37*
X99112102Y-71044903D02*
X99019307Y-71268931D01*
X98972000Y-71506757D01*
X98972000Y-71749243D01*
X99019307Y-71987069D01*
X99112102Y-72211097D01*
X99246820Y-72412717D01*
X99418283Y-72584180D01*
X99619903Y-72718898D01*
X99843931Y-72811693D01*
X100081757Y-72859000D01*
X100324243Y-72859000D01*
X100562069Y-72811693D01*
X100786097Y-72718898D01*
X100987717Y-72584180D01*
X101159180Y-72412717D01*
X101293898Y-72211097D01*
X101386693Y-71987069D01*
X101434000Y-71749243D01*
X101434000Y-71506757D01*
X101386693Y-71268931D01*
X101293898Y-71044903D01*
X101236499Y-70958999D01*
X102716999Y-70958999D01*
X102716999Y-71373010D01*
X102713947Y-71404001D01*
X102716999Y-71434991D01*
X102716999Y-71434998D01*
X102717000Y-71435008D01*
X102716999Y-74615009D01*
X102713947Y-74645999D01*
X102716999Y-74676989D01*
X102716999Y-74676996D01*
X102726129Y-74769696D01*
X102762210Y-74888640D01*
X102820803Y-74998259D01*
X102899656Y-75094342D01*
X102923736Y-75114104D01*
X104708048Y-76898417D01*
X104696673Y-76919698D01*
X104684400Y-76942659D01*
X104669556Y-76991595D01*
X104655352Y-77038418D01*
X104645543Y-77138002D01*
X104648001Y-77162956D01*
X104648000Y-78584272D01*
X104646600Y-78579656D01*
X104599428Y-78491404D01*
X104535947Y-78414051D01*
X104516564Y-78398144D01*
X103324010Y-77205590D01*
X103324010Y-76805953D01*
X103326467Y-76781009D01*
X103324010Y-76756063D01*
X103316659Y-76681425D01*
X103287611Y-76585667D01*
X103286881Y-76584301D01*
X103240439Y-76497414D01*
X103192860Y-76439439D01*
X103176958Y-76420062D01*
X103157581Y-76404160D01*
X101355587Y-74602166D01*
X101386693Y-74527069D01*
X101434000Y-74289243D01*
X101434000Y-74046757D01*
X101386693Y-73808931D01*
X101293898Y-73584903D01*
X101159180Y-73383283D01*
X100987717Y-73211820D01*
X100786097Y-73077102D01*
X100562069Y-72984307D01*
X100324243Y-72937000D01*
X100081757Y-72937000D01*
X99843931Y-72984307D01*
X99619903Y-73077102D01*
X99418283Y-73211820D01*
X99246820Y-73383283D01*
X99112102Y-73584903D01*
X99080996Y-73660000D01*
X97388004Y-73660000D01*
X97356898Y-73584903D01*
X97222180Y-73383283D01*
X97050717Y-73211820D01*
X96849097Y-73077102D01*
X96625069Y-72984307D01*
X96387243Y-72937000D01*
X96144757Y-72937000D01*
X95906931Y-72984307D01*
X95682903Y-73077102D01*
X95481283Y-73211820D01*
X95309820Y-73383283D01*
X95175102Y-73584903D01*
X95082307Y-73808931D01*
X95035000Y-74046757D01*
X95035000Y-74289243D01*
X95082307Y-74527069D01*
X95175102Y-74751097D01*
X95309820Y-74952717D01*
X95481283Y-75124180D01*
X95682903Y-75258898D01*
X95906931Y-75351693D01*
X96144757Y-75399000D01*
X96387243Y-75399000D01*
X96625069Y-75351693D01*
X96849097Y-75258898D01*
X97050717Y-75124180D01*
X97222180Y-74952717D01*
X97356898Y-74751097D01*
X97388004Y-74676000D01*
X99080996Y-74676000D01*
X99112102Y-74751097D01*
X99246820Y-74952717D01*
X99418283Y-75124180D01*
X99619903Y-75258898D01*
X99843931Y-75351693D01*
X100081757Y-75399000D01*
X100324243Y-75399000D01*
X100562069Y-75351693D01*
X100637166Y-75320587D01*
X102308011Y-76991432D01*
X102308010Y-77391065D01*
X102305553Y-77416010D01*
X102308010Y-77440954D01*
X102308010Y-77440956D01*
X102315361Y-77515594D01*
X102344409Y-77611352D01*
X102391581Y-77699605D01*
X102455062Y-77776958D01*
X102474445Y-77792865D01*
X103667000Y-78985420D01*
X103667000Y-79453580D01*
X101355587Y-77142167D01*
X101386693Y-77067069D01*
X101434000Y-76829243D01*
X101434000Y-76586757D01*
X101386693Y-76348931D01*
X101293898Y-76124903D01*
X101159180Y-75923283D01*
X100987717Y-75751820D01*
X100786097Y-75617102D01*
X100562069Y-75524307D01*
X100324243Y-75477000D01*
X100081757Y-75477000D01*
X99843931Y-75524307D01*
X99619903Y-75617102D01*
X99418283Y-75751820D01*
X99246820Y-75923283D01*
X99112102Y-76124903D01*
X99080996Y-76200000D01*
X97388004Y-76200000D01*
X97356898Y-76124903D01*
X97222180Y-75923283D01*
X97050717Y-75751820D01*
X96849097Y-75617102D01*
X96625069Y-75524307D01*
X96387243Y-75477000D01*
X96144757Y-75477000D01*
X95906931Y-75524307D01*
X95682903Y-75617102D01*
X95481283Y-75751820D01*
X95309820Y-75923283D01*
X95175102Y-76124903D01*
X95082307Y-76348931D01*
X95035000Y-76586757D01*
X95035000Y-76829243D01*
X95082307Y-77067069D01*
X95175102Y-77291097D01*
X95309820Y-77492717D01*
X95481283Y-77664180D01*
X95682903Y-77798898D01*
X95906931Y-77891693D01*
X96144757Y-77939000D01*
X96387243Y-77939000D01*
X96625069Y-77891693D01*
X96849097Y-77798898D01*
X97050717Y-77664180D01*
X97222180Y-77492717D01*
X97356898Y-77291097D01*
X97388004Y-77216000D01*
X99080996Y-77216000D01*
X99112102Y-77291097D01*
X99246820Y-77492717D01*
X99418283Y-77664180D01*
X99619903Y-77798898D01*
X99843931Y-77891693D01*
X100081757Y-77939000D01*
X100324243Y-77939000D01*
X100562069Y-77891693D01*
X100637167Y-77860587D01*
X103212989Y-80436409D01*
X103212990Y-86424035D01*
X103210532Y-86448989D01*
X103216148Y-86506000D01*
X103220341Y-86548574D01*
X103230734Y-86582834D01*
X103249389Y-86644332D01*
X103296560Y-86732584D01*
X103331719Y-86775425D01*
X103360042Y-86809937D01*
X103379419Y-86825839D01*
X105033149Y-88479570D01*
X105049052Y-88498948D01*
X105068429Y-88514850D01*
X105126404Y-88562429D01*
X105190669Y-88596779D01*
X105214657Y-88609601D01*
X105310415Y-88638649D01*
X105385053Y-88646000D01*
X105385055Y-88646000D01*
X105409999Y-88648457D01*
X105434943Y-88646000D01*
X112057580Y-88646000D01*
X113716608Y-90305028D01*
X113732515Y-90324411D01*
X113809868Y-90387892D01*
X113811943Y-90389001D01*
X106093422Y-90389001D01*
X102870000Y-87165580D01*
X102870000Y-83971943D01*
X102872457Y-83946999D01*
X102870000Y-83922053D01*
X102862649Y-83847415D01*
X102833601Y-83751657D01*
X102811643Y-83710576D01*
X102786429Y-83663404D01*
X102738850Y-83605429D01*
X102722948Y-83586052D01*
X102703571Y-83570150D01*
X101355587Y-82222166D01*
X101386693Y-82147069D01*
X101434000Y-81909243D01*
X101434000Y-81666757D01*
X101386693Y-81428931D01*
X101293898Y-81204903D01*
X101159180Y-81003283D01*
X100987717Y-80831820D01*
X100786097Y-80697102D01*
X100562069Y-80604307D01*
X100324243Y-80557000D01*
X100081757Y-80557000D01*
X99843931Y-80604307D01*
X99619903Y-80697102D01*
X99418283Y-80831820D01*
X99246820Y-81003283D01*
X99144110Y-81157000D01*
X97324890Y-81157000D01*
X97222180Y-81003283D01*
X97050717Y-80831820D01*
X96849097Y-80697102D01*
X96625069Y-80604307D01*
X96387243Y-80557000D01*
X96144757Y-80557000D01*
X95906931Y-80604307D01*
X95682903Y-80697102D01*
X95481283Y-80831820D01*
X95309820Y-81003283D01*
X95175102Y-81204903D01*
X95089734Y-81411000D01*
X94749369Y-81411000D01*
X94244447Y-80906079D01*
X94222987Y-80798191D01*
X94164113Y-80656058D01*
X94078642Y-80528141D01*
X93969859Y-80419358D01*
X93841942Y-80333887D01*
X93699809Y-80275013D01*
X93548922Y-80245000D01*
X93395078Y-80245000D01*
X93252999Y-80273261D01*
X93252999Y-73609367D01*
X95047962Y-71814405D01*
X95082307Y-71987069D01*
X95175102Y-72211097D01*
X95309820Y-72412717D01*
X95481283Y-72584180D01*
X95682903Y-72718898D01*
X95906931Y-72811693D01*
X96144757Y-72859000D01*
X96387243Y-72859000D01*
X96625069Y-72811693D01*
X96849097Y-72718898D01*
X97050717Y-72584180D01*
X97222180Y-72412717D01*
X97356898Y-72211097D01*
X97449693Y-71987069D01*
X97497000Y-71749243D01*
X97497000Y-71506757D01*
X97449693Y-71268931D01*
X97356898Y-71044903D01*
X97299499Y-70958999D01*
X99169501Y-70958999D01*
X99112102Y-71044903D01*
M02*
