G04 #@! TF.GenerationSoftware,KiCad,Pcbnew,(5.1.6)-1*
G04 #@! TF.CreationDate,2021-11-15T16:14:39+01:00*
G04 #@! TF.ProjectId,SoundModulev2,536f756e-644d-46f6-9475-6c6576322e6b,rev?*
G04 #@! TF.SameCoordinates,Original*
G04 #@! TF.FileFunction,Copper,L1,Top*
G04 #@! TF.FilePolarity,Positive*
%FSLAX46Y46*%
G04 Gerber Fmt 4.6, Leading zero omitted, Abs format (unit mm)*
G04 Created by KiCad (PCBNEW (5.1.6)-1) date 2021-11-15 16:14:39*
%MOMM*%
%LPD*%
G01*
G04 APERTURE LIST*
G04 #@! TA.AperFunction,SMDPad,CuDef*
%ADD10C,2.500000*%
G04 #@! TD*
G04 #@! TA.AperFunction,SMDPad,CuDef*
%ADD11R,0.850000X0.300000*%
G04 #@! TD*
G04 #@! TA.AperFunction,ComponentPad*
%ADD12R,1.700000X1.700000*%
G04 #@! TD*
G04 #@! TA.AperFunction,ComponentPad*
%ADD13O,1.700000X1.700000*%
G04 #@! TD*
G04 #@! TA.AperFunction,SMDPad,CuDef*
%ADD14C,0.460000*%
G04 #@! TD*
G04 #@! TA.AperFunction,ComponentPad*
%ADD15C,1.560000*%
G04 #@! TD*
G04 #@! TA.AperFunction,SMDPad,CuDef*
%ADD16C,0.600000*%
G04 #@! TD*
G04 #@! TA.AperFunction,SMDPad,CuDef*
%ADD17C,0.650000*%
G04 #@! TD*
G04 #@! TA.AperFunction,SMDPad,CuDef*
%ADD18R,2.500000X0.450000*%
G04 #@! TD*
G04 #@! TA.AperFunction,SMDPad,CuDef*
%ADD19R,0.550000X1.200000*%
G04 #@! TD*
G04 #@! TA.AperFunction,SMDPad,CuDef*
%ADD20R,1.200000X0.550000*%
G04 #@! TD*
G04 #@! TA.AperFunction,ViaPad*
%ADD21C,0.800000*%
G04 #@! TD*
G04 #@! TA.AperFunction,Conductor*
%ADD22C,0.350000*%
G04 #@! TD*
G04 #@! TA.AperFunction,Conductor*
%ADD23C,0.250000*%
G04 #@! TD*
G04 #@! TA.AperFunction,Conductor*
%ADD24C,0.254000*%
G04 #@! TD*
G04 APERTURE END LIST*
G04 #@! TA.AperFunction,SMDPad,CuDef*
G36*
G01*
X123574120Y-76229680D02*
X123574120Y-74859680D01*
G75*
G02*
X123764120Y-74669680I190000J0D01*
G01*
X124334120Y-74669680D01*
G75*
G02*
X124524120Y-74859680I0J-190000D01*
G01*
X124524120Y-76229680D01*
G75*
G02*
X124334120Y-76419680I-190000J0D01*
G01*
X123764120Y-76419680D01*
G75*
G02*
X123574120Y-76229680I0J190000D01*
G01*
G37*
G04 #@! TD.AperFunction*
G04 #@! TA.AperFunction,SMDPad,CuDef*
G36*
G01*
X120474120Y-76229680D02*
X120474120Y-74859680D01*
G75*
G02*
X120664120Y-74669680I190000J0D01*
G01*
X121234120Y-74669680D01*
G75*
G02*
X121424120Y-74859680I0J-190000D01*
G01*
X121424120Y-76229680D01*
G75*
G02*
X121234120Y-76419680I-190000J0D01*
G01*
X120664120Y-76419680D01*
G75*
G02*
X120474120Y-76229680I0J190000D01*
G01*
G37*
G04 #@! TD.AperFunction*
D10*
X133167120Y-93705680D03*
X110307120Y-92054680D03*
X110307120Y-88371680D03*
G04 #@! TA.AperFunction,SMDPad,CuDef*
G36*
G01*
X119266121Y-80827680D02*
X118366119Y-80827680D01*
G75*
G02*
X118116120Y-80577681I0J249999D01*
G01*
X118116120Y-79927679D01*
G75*
G02*
X118366119Y-79677680I249999J0D01*
G01*
X119266121Y-79677680D01*
G75*
G02*
X119516120Y-79927679I0J-249999D01*
G01*
X119516120Y-80577681D01*
G75*
G02*
X119266121Y-80827680I-249999J0D01*
G01*
G37*
G04 #@! TD.AperFunction*
G04 #@! TA.AperFunction,SMDPad,CuDef*
G36*
G01*
X119266121Y-78777680D02*
X118366119Y-78777680D01*
G75*
G02*
X118116120Y-78527681I0J249999D01*
G01*
X118116120Y-77877679D01*
G75*
G02*
X118366119Y-77627680I249999J0D01*
G01*
X119266121Y-77627680D01*
G75*
G02*
X119516120Y-77877679I0J-249999D01*
G01*
X119516120Y-78527681D01*
G75*
G02*
X119266121Y-78777680I-249999J0D01*
G01*
G37*
G04 #@! TD.AperFunction*
G04 #@! TA.AperFunction,SMDPad,CuDef*
G36*
G01*
X136146120Y-81825679D02*
X136146120Y-82725681D01*
G75*
G02*
X135896121Y-82975680I-249999J0D01*
G01*
X135246119Y-82975680D01*
G75*
G02*
X134996120Y-82725681I0J249999D01*
G01*
X134996120Y-81825679D01*
G75*
G02*
X135246119Y-81575680I249999J0D01*
G01*
X135896121Y-81575680D01*
G75*
G02*
X136146120Y-81825679I0J-249999D01*
G01*
G37*
G04 #@! TD.AperFunction*
G04 #@! TA.AperFunction,SMDPad,CuDef*
G36*
G01*
X138196120Y-81825679D02*
X138196120Y-82725681D01*
G75*
G02*
X137946121Y-82975680I-249999J0D01*
G01*
X137296119Y-82975680D01*
G75*
G02*
X137046120Y-82725681I0J249999D01*
G01*
X137046120Y-81825679D01*
G75*
G02*
X137296119Y-81575680I249999J0D01*
G01*
X137946121Y-81575680D01*
G75*
G02*
X138196120Y-81825679I0J-249999D01*
G01*
G37*
G04 #@! TD.AperFunction*
G04 #@! TA.AperFunction,SMDPad,CuDef*
G36*
G01*
X122176120Y-83222679D02*
X122176120Y-84122681D01*
G75*
G02*
X121926121Y-84372680I-249999J0D01*
G01*
X121276119Y-84372680D01*
G75*
G02*
X121026120Y-84122681I0J249999D01*
G01*
X121026120Y-83222679D01*
G75*
G02*
X121276119Y-82972680I249999J0D01*
G01*
X121926121Y-82972680D01*
G75*
G02*
X122176120Y-83222679I0J-249999D01*
G01*
G37*
G04 #@! TD.AperFunction*
G04 #@! TA.AperFunction,SMDPad,CuDef*
G36*
G01*
X124226120Y-83222679D02*
X124226120Y-84122681D01*
G75*
G02*
X123976121Y-84372680I-249999J0D01*
G01*
X123326119Y-84372680D01*
G75*
G02*
X123076120Y-84122681I0J249999D01*
G01*
X123076120Y-83222679D01*
G75*
G02*
X123326119Y-82972680I249999J0D01*
G01*
X123976121Y-82972680D01*
G75*
G02*
X124226120Y-83222679I0J-249999D01*
G01*
G37*
G04 #@! TD.AperFunction*
D11*
X135021120Y-77945680D03*
X135021120Y-77445680D03*
X135021120Y-76945680D03*
X135021120Y-76445680D03*
X138171120Y-76445680D03*
X138171120Y-76945680D03*
X138171120Y-77445680D03*
X138171120Y-77945680D03*
G04 #@! TA.AperFunction,SMDPad,CuDef*
G36*
G01*
X136019120Y-71919679D02*
X136019120Y-72819681D01*
G75*
G02*
X135769121Y-73069680I-249999J0D01*
G01*
X135119119Y-73069680D01*
G75*
G02*
X134869120Y-72819681I0J249999D01*
G01*
X134869120Y-71919679D01*
G75*
G02*
X135119119Y-71669680I249999J0D01*
G01*
X135769121Y-71669680D01*
G75*
G02*
X136019120Y-71919679I0J-249999D01*
G01*
G37*
G04 #@! TD.AperFunction*
G04 #@! TA.AperFunction,SMDPad,CuDef*
G36*
G01*
X138069120Y-71919679D02*
X138069120Y-72819681D01*
G75*
G02*
X137819121Y-73069680I-249999J0D01*
G01*
X137169119Y-73069680D01*
G75*
G02*
X136919120Y-72819681I0J249999D01*
G01*
X136919120Y-71919679D01*
G75*
G02*
X137169119Y-71669680I249999J0D01*
G01*
X137819121Y-71669680D01*
G75*
G02*
X138069120Y-71919679I0J-249999D01*
G01*
G37*
G04 #@! TD.AperFunction*
G04 #@! TA.AperFunction,SMDPad,CuDef*
G36*
G01*
X137046120Y-80693681D02*
X137046120Y-79793679D01*
G75*
G02*
X137296119Y-79543680I249999J0D01*
G01*
X137946121Y-79543680D01*
G75*
G02*
X138196120Y-79793679I0J-249999D01*
G01*
X138196120Y-80693681D01*
G75*
G02*
X137946121Y-80943680I-249999J0D01*
G01*
X137296119Y-80943680D01*
G75*
G02*
X137046120Y-80693681I0J249999D01*
G01*
G37*
G04 #@! TD.AperFunction*
G04 #@! TA.AperFunction,SMDPad,CuDef*
G36*
G01*
X134996120Y-80693681D02*
X134996120Y-79793679D01*
G75*
G02*
X135246119Y-79543680I249999J0D01*
G01*
X135896121Y-79543680D01*
G75*
G02*
X136146120Y-79793679I0J-249999D01*
G01*
X136146120Y-80693681D01*
G75*
G02*
X135896121Y-80943680I-249999J0D01*
G01*
X135246119Y-80943680D01*
G75*
G02*
X134996120Y-80693681I0J249999D01*
G01*
G37*
G04 #@! TD.AperFunction*
G04 #@! TA.AperFunction,SMDPad,CuDef*
G36*
G01*
X136919120Y-74851681D02*
X136919120Y-73951679D01*
G75*
G02*
X137169119Y-73701680I249999J0D01*
G01*
X137819121Y-73701680D01*
G75*
G02*
X138069120Y-73951679I0J-249999D01*
G01*
X138069120Y-74851681D01*
G75*
G02*
X137819121Y-75101680I-249999J0D01*
G01*
X137169119Y-75101680D01*
G75*
G02*
X136919120Y-74851681I0J249999D01*
G01*
G37*
G04 #@! TD.AperFunction*
G04 #@! TA.AperFunction,SMDPad,CuDef*
G36*
G01*
X134869120Y-74851681D02*
X134869120Y-73951679D01*
G75*
G02*
X135119119Y-73701680I249999J0D01*
G01*
X135769121Y-73701680D01*
G75*
G02*
X136019120Y-73951679I0J-249999D01*
G01*
X136019120Y-74851681D01*
G75*
G02*
X135769121Y-75101680I-249999J0D01*
G01*
X135119119Y-75101680D01*
G75*
G02*
X134869120Y-74851681I0J249999D01*
G01*
G37*
G04 #@! TD.AperFunction*
G04 #@! TA.AperFunction,SMDPad,CuDef*
G36*
G01*
X132855121Y-76745680D02*
X131955119Y-76745680D01*
G75*
G02*
X131705120Y-76495681I0J249999D01*
G01*
X131705120Y-75845679D01*
G75*
G02*
X131955119Y-75595680I249999J0D01*
G01*
X132855121Y-75595680D01*
G75*
G02*
X133105120Y-75845679I0J-249999D01*
G01*
X133105120Y-76495681D01*
G75*
G02*
X132855121Y-76745680I-249999J0D01*
G01*
G37*
G04 #@! TD.AperFunction*
G04 #@! TA.AperFunction,SMDPad,CuDef*
G36*
G01*
X132855121Y-78795680D02*
X131955119Y-78795680D01*
G75*
G02*
X131705120Y-78545681I0J249999D01*
G01*
X131705120Y-77895679D01*
G75*
G02*
X131955119Y-77645680I249999J0D01*
G01*
X132855121Y-77645680D01*
G75*
G02*
X133105120Y-77895679I0J-249999D01*
G01*
X133105120Y-78545681D01*
G75*
G02*
X132855121Y-78795680I-249999J0D01*
G01*
G37*
G04 #@! TD.AperFunction*
G04 #@! TA.AperFunction,SMDPad,CuDef*
G36*
G01*
X123076120Y-86281681D02*
X123076120Y-85381679D01*
G75*
G02*
X123326119Y-85131680I249999J0D01*
G01*
X123976121Y-85131680D01*
G75*
G02*
X124226120Y-85381679I0J-249999D01*
G01*
X124226120Y-86281681D01*
G75*
G02*
X123976121Y-86531680I-249999J0D01*
G01*
X123326119Y-86531680D01*
G75*
G02*
X123076120Y-86281681I0J249999D01*
G01*
G37*
G04 #@! TD.AperFunction*
G04 #@! TA.AperFunction,SMDPad,CuDef*
G36*
G01*
X121026120Y-86281681D02*
X121026120Y-85381679D01*
G75*
G02*
X121276119Y-85131680I249999J0D01*
G01*
X121926121Y-85131680D01*
G75*
G02*
X122176120Y-85381679I0J-249999D01*
G01*
X122176120Y-86281681D01*
G75*
G02*
X121926121Y-86531680I-249999J0D01*
G01*
X121276119Y-86531680D01*
G75*
G02*
X121026120Y-86281681I0J249999D01*
G01*
G37*
G04 #@! TD.AperFunction*
G04 #@! TA.AperFunction,SMDPad,CuDef*
G36*
G01*
X128283121Y-71819680D02*
X127383119Y-71819680D01*
G75*
G02*
X127133120Y-71569681I0J249999D01*
G01*
X127133120Y-70919679D01*
G75*
G02*
X127383119Y-70669680I249999J0D01*
G01*
X128283121Y-70669680D01*
G75*
G02*
X128533120Y-70919679I0J-249999D01*
G01*
X128533120Y-71569681D01*
G75*
G02*
X128283121Y-71819680I-249999J0D01*
G01*
G37*
G04 #@! TD.AperFunction*
G04 #@! TA.AperFunction,SMDPad,CuDef*
G36*
G01*
X128283121Y-69769680D02*
X127383119Y-69769680D01*
G75*
G02*
X127133120Y-69519681I0J249999D01*
G01*
X127133120Y-68869679D01*
G75*
G02*
X127383119Y-68619680I249999J0D01*
G01*
X128283121Y-68619680D01*
G75*
G02*
X128533120Y-68869679I0J-249999D01*
G01*
X128533120Y-69519681D01*
G75*
G02*
X128283121Y-69769680I-249999J0D01*
G01*
G37*
G04 #@! TD.AperFunction*
G04 #@! TA.AperFunction,SMDPad,CuDef*
G36*
G01*
X115699119Y-68601680D02*
X116599121Y-68601680D01*
G75*
G02*
X116849120Y-68851679I0J-249999D01*
G01*
X116849120Y-69501681D01*
G75*
G02*
X116599121Y-69751680I-249999J0D01*
G01*
X115699119Y-69751680D01*
G75*
G02*
X115449120Y-69501681I0J249999D01*
G01*
X115449120Y-68851679D01*
G75*
G02*
X115699119Y-68601680I249999J0D01*
G01*
G37*
G04 #@! TD.AperFunction*
G04 #@! TA.AperFunction,SMDPad,CuDef*
G36*
G01*
X115699119Y-70651680D02*
X116599121Y-70651680D01*
G75*
G02*
X116849120Y-70901679I0J-249999D01*
G01*
X116849120Y-71551681D01*
G75*
G02*
X116599121Y-71801680I-249999J0D01*
G01*
X115699119Y-71801680D01*
G75*
G02*
X115449120Y-71551681I0J249999D01*
G01*
X115449120Y-70901679D01*
G75*
G02*
X115699119Y-70651680I249999J0D01*
G01*
G37*
G04 #@! TD.AperFunction*
G04 #@! TA.AperFunction,SMDPad,CuDef*
G36*
G01*
X128283121Y-63927680D02*
X127383119Y-63927680D01*
G75*
G02*
X127133120Y-63677681I0J249999D01*
G01*
X127133120Y-63027679D01*
G75*
G02*
X127383119Y-62777680I249999J0D01*
G01*
X128283121Y-62777680D01*
G75*
G02*
X128533120Y-63027679I0J-249999D01*
G01*
X128533120Y-63677681D01*
G75*
G02*
X128283121Y-63927680I-249999J0D01*
G01*
G37*
G04 #@! TD.AperFunction*
G04 #@! TA.AperFunction,SMDPad,CuDef*
G36*
G01*
X128283121Y-65977680D02*
X127383119Y-65977680D01*
G75*
G02*
X127133120Y-65727681I0J249999D01*
G01*
X127133120Y-65077679D01*
G75*
G02*
X127383119Y-64827680I249999J0D01*
G01*
X128283121Y-64827680D01*
G75*
G02*
X128533120Y-65077679I0J-249999D01*
G01*
X128533120Y-65727681D01*
G75*
G02*
X128283121Y-65977680I-249999J0D01*
G01*
G37*
G04 #@! TD.AperFunction*
G04 #@! TA.AperFunction,SMDPad,CuDef*
G36*
G01*
X111274120Y-64564681D02*
X111274120Y-63664679D01*
G75*
G02*
X111524119Y-63414680I249999J0D01*
G01*
X112174121Y-63414680D01*
G75*
G02*
X112424120Y-63664679I0J-249999D01*
G01*
X112424120Y-64564681D01*
G75*
G02*
X112174121Y-64814680I-249999J0D01*
G01*
X111524119Y-64814680D01*
G75*
G02*
X111274120Y-64564681I0J249999D01*
G01*
G37*
G04 #@! TD.AperFunction*
G04 #@! TA.AperFunction,SMDPad,CuDef*
G36*
G01*
X109224120Y-64564681D02*
X109224120Y-63664679D01*
G75*
G02*
X109474119Y-63414680I249999J0D01*
G01*
X110124121Y-63414680D01*
G75*
G02*
X110374120Y-63664679I0J-249999D01*
G01*
X110374120Y-64564681D01*
G75*
G02*
X110124121Y-64814680I-249999J0D01*
G01*
X109474119Y-64814680D01*
G75*
G02*
X109224120Y-64564681I0J249999D01*
G01*
G37*
G04 #@! TD.AperFunction*
G04 #@! TA.AperFunction,SMDPad,CuDef*
G36*
G01*
X118123121Y-65977680D02*
X117223119Y-65977680D01*
G75*
G02*
X116973120Y-65727681I0J249999D01*
G01*
X116973120Y-65077679D01*
G75*
G02*
X117223119Y-64827680I249999J0D01*
G01*
X118123121Y-64827680D01*
G75*
G02*
X118373120Y-65077679I0J-249999D01*
G01*
X118373120Y-65727681D01*
G75*
G02*
X118123121Y-65977680I-249999J0D01*
G01*
G37*
G04 #@! TD.AperFunction*
G04 #@! TA.AperFunction,SMDPad,CuDef*
G36*
G01*
X118123121Y-63927680D02*
X117223119Y-63927680D01*
G75*
G02*
X116973120Y-63677681I0J249999D01*
G01*
X116973120Y-63027679D01*
G75*
G02*
X117223119Y-62777680I249999J0D01*
G01*
X118123121Y-62777680D01*
G75*
G02*
X118373120Y-63027679I0J-249999D01*
G01*
X118373120Y-63677681D01*
G75*
G02*
X118123121Y-63927680I-249999J0D01*
G01*
G37*
G04 #@! TD.AperFunction*
G04 #@! TA.AperFunction,SMDPad,CuDef*
G36*
G01*
X120155121Y-63927680D02*
X119255119Y-63927680D01*
G75*
G02*
X119005120Y-63677681I0J249999D01*
G01*
X119005120Y-63027679D01*
G75*
G02*
X119255119Y-62777680I249999J0D01*
G01*
X120155121Y-62777680D01*
G75*
G02*
X120405120Y-63027679I0J-249999D01*
G01*
X120405120Y-63677681D01*
G75*
G02*
X120155121Y-63927680I-249999J0D01*
G01*
G37*
G04 #@! TD.AperFunction*
G04 #@! TA.AperFunction,SMDPad,CuDef*
G36*
G01*
X120155121Y-65977680D02*
X119255119Y-65977680D01*
G75*
G02*
X119005120Y-65727681I0J249999D01*
G01*
X119005120Y-65077679D01*
G75*
G02*
X119255119Y-64827680I249999J0D01*
G01*
X120155121Y-64827680D01*
G75*
G02*
X120405120Y-65077679I0J-249999D01*
G01*
X120405120Y-65727681D01*
G75*
G02*
X120155121Y-65977680I-249999J0D01*
G01*
G37*
G04 #@! TD.AperFunction*
G04 #@! TA.AperFunction,SMDPad,CuDef*
G36*
G01*
X120155121Y-56543680D02*
X119255119Y-56543680D01*
G75*
G02*
X119005120Y-56293681I0J249999D01*
G01*
X119005120Y-55643679D01*
G75*
G02*
X119255119Y-55393680I249999J0D01*
G01*
X120155121Y-55393680D01*
G75*
G02*
X120405120Y-55643679I0J-249999D01*
G01*
X120405120Y-56293681D01*
G75*
G02*
X120155121Y-56543680I-249999J0D01*
G01*
G37*
G04 #@! TD.AperFunction*
G04 #@! TA.AperFunction,SMDPad,CuDef*
G36*
G01*
X120155121Y-58593680D02*
X119255119Y-58593680D01*
G75*
G02*
X119005120Y-58343681I0J249999D01*
G01*
X119005120Y-57693679D01*
G75*
G02*
X119255119Y-57443680I249999J0D01*
G01*
X120155121Y-57443680D01*
G75*
G02*
X120405120Y-57693679I0J-249999D01*
G01*
X120405120Y-58343681D01*
G75*
G02*
X120155121Y-58593680I-249999J0D01*
G01*
G37*
G04 #@! TD.AperFunction*
G04 #@! TA.AperFunction,SMDPad,CuDef*
G36*
G01*
X125351119Y-57443680D02*
X126251121Y-57443680D01*
G75*
G02*
X126501120Y-57693679I0J-249999D01*
G01*
X126501120Y-58343681D01*
G75*
G02*
X126251121Y-58593680I-249999J0D01*
G01*
X125351119Y-58593680D01*
G75*
G02*
X125101120Y-58343681I0J249999D01*
G01*
X125101120Y-57693679D01*
G75*
G02*
X125351119Y-57443680I249999J0D01*
G01*
G37*
G04 #@! TD.AperFunction*
G04 #@! TA.AperFunction,SMDPad,CuDef*
G36*
G01*
X125351119Y-55393680D02*
X126251121Y-55393680D01*
G75*
G02*
X126501120Y-55643679I0J-249999D01*
G01*
X126501120Y-56293681D01*
G75*
G02*
X126251121Y-56543680I-249999J0D01*
G01*
X125351119Y-56543680D01*
G75*
G02*
X125101120Y-56293681I0J249999D01*
G01*
X125101120Y-55643679D01*
G75*
G02*
X125351119Y-55393680I249999J0D01*
G01*
G37*
G04 #@! TD.AperFunction*
D12*
X103195120Y-84434680D03*
D13*
X103195120Y-81894680D03*
X103195120Y-79354680D03*
X103195120Y-76814680D03*
X103195120Y-74274680D03*
X103195120Y-71734680D03*
D14*
X121484120Y-77825680D03*
X123514120Y-77825680D03*
X123514120Y-79465680D03*
X121484120Y-79465680D03*
D15*
X122499120Y-78465680D03*
D16*
X122499120Y-80565680D03*
D17*
X123464120Y-80565680D03*
X121534120Y-80565680D03*
G04 #@! TA.AperFunction,SMDPad,CuDef*
G36*
G01*
X106174119Y-83741680D02*
X107074121Y-83741680D01*
G75*
G02*
X107324120Y-83991679I0J-249999D01*
G01*
X107324120Y-84641681D01*
G75*
G02*
X107074121Y-84891680I-249999J0D01*
G01*
X106174119Y-84891680D01*
G75*
G02*
X105924120Y-84641681I0J249999D01*
G01*
X105924120Y-83991679D01*
G75*
G02*
X106174119Y-83741680I249999J0D01*
G01*
G37*
G04 #@! TD.AperFunction*
G04 #@! TA.AperFunction,SMDPad,CuDef*
G36*
G01*
X106174119Y-81691680D02*
X107074121Y-81691680D01*
G75*
G02*
X107324120Y-81941679I0J-249999D01*
G01*
X107324120Y-82591681D01*
G75*
G02*
X107074121Y-82841680I-249999J0D01*
G01*
X106174119Y-82841680D01*
G75*
G02*
X105924120Y-82591681I0J249999D01*
G01*
X105924120Y-81941679D01*
G75*
G02*
X106174119Y-81691680I249999J0D01*
G01*
G37*
G04 #@! TD.AperFunction*
G04 #@! TA.AperFunction,SMDPad,CuDef*
G36*
G01*
X117731120Y-75094679D02*
X117731120Y-75994681D01*
G75*
G02*
X117481121Y-76244680I-249999J0D01*
G01*
X116831119Y-76244680D01*
G75*
G02*
X116581120Y-75994681I0J249999D01*
G01*
X116581120Y-75094679D01*
G75*
G02*
X116831119Y-74844680I249999J0D01*
G01*
X117481121Y-74844680D01*
G75*
G02*
X117731120Y-75094679I0J-249999D01*
G01*
G37*
G04 #@! TD.AperFunction*
G04 #@! TA.AperFunction,SMDPad,CuDef*
G36*
G01*
X119781120Y-75094679D02*
X119781120Y-75994681D01*
G75*
G02*
X119531121Y-76244680I-249999J0D01*
G01*
X118881119Y-76244680D01*
G75*
G02*
X118631120Y-75994681I0J249999D01*
G01*
X118631120Y-75094679D01*
G75*
G02*
X118881119Y-74844680I249999J0D01*
G01*
X119531121Y-74844680D01*
G75*
G02*
X119781120Y-75094679I0J-249999D01*
G01*
G37*
G04 #@! TD.AperFunction*
G04 #@! TA.AperFunction,SMDPad,CuDef*
G36*
G01*
X126251121Y-69769680D02*
X125351119Y-69769680D01*
G75*
G02*
X125101120Y-69519681I0J249999D01*
G01*
X125101120Y-68869679D01*
G75*
G02*
X125351119Y-68619680I249999J0D01*
G01*
X126251121Y-68619680D01*
G75*
G02*
X126501120Y-68869679I0J-249999D01*
G01*
X126501120Y-69519681D01*
G75*
G02*
X126251121Y-69769680I-249999J0D01*
G01*
G37*
G04 #@! TD.AperFunction*
G04 #@! TA.AperFunction,SMDPad,CuDef*
G36*
G01*
X126251121Y-71819680D02*
X125351119Y-71819680D01*
G75*
G02*
X125101120Y-71569681I0J249999D01*
G01*
X125101120Y-70919679D01*
G75*
G02*
X125351119Y-70669680I249999J0D01*
G01*
X126251121Y-70669680D01*
G75*
G02*
X126501120Y-70919679I0J-249999D01*
G01*
X126501120Y-71569681D01*
G75*
G02*
X126251121Y-71819680I-249999J0D01*
G01*
G37*
G04 #@! TD.AperFunction*
G04 #@! TA.AperFunction,SMDPad,CuDef*
G36*
G01*
X123319119Y-68619680D02*
X124219121Y-68619680D01*
G75*
G02*
X124469120Y-68869679I0J-249999D01*
G01*
X124469120Y-69519681D01*
G75*
G02*
X124219121Y-69769680I-249999J0D01*
G01*
X123319119Y-69769680D01*
G75*
G02*
X123069120Y-69519681I0J249999D01*
G01*
X123069120Y-68869679D01*
G75*
G02*
X123319119Y-68619680I249999J0D01*
G01*
G37*
G04 #@! TD.AperFunction*
G04 #@! TA.AperFunction,SMDPad,CuDef*
G36*
G01*
X123319119Y-70669680D02*
X124219121Y-70669680D01*
G75*
G02*
X124469120Y-70919679I0J-249999D01*
G01*
X124469120Y-71569681D01*
G75*
G02*
X124219121Y-71819680I-249999J0D01*
G01*
X123319119Y-71819680D01*
G75*
G02*
X123069120Y-71569681I0J249999D01*
G01*
X123069120Y-70919679D01*
G75*
G02*
X123319119Y-70669680I249999J0D01*
G01*
G37*
G04 #@! TD.AperFunction*
G04 #@! TA.AperFunction,SMDPad,CuDef*
G36*
G01*
X112424120Y-61632679D02*
X112424120Y-62532681D01*
G75*
G02*
X112174121Y-62782680I-249999J0D01*
G01*
X111524119Y-62782680D01*
G75*
G02*
X111274120Y-62532681I0J249999D01*
G01*
X111274120Y-61632679D01*
G75*
G02*
X111524119Y-61382680I249999J0D01*
G01*
X112174121Y-61382680D01*
G75*
G02*
X112424120Y-61632679I0J-249999D01*
G01*
G37*
G04 #@! TD.AperFunction*
G04 #@! TA.AperFunction,SMDPad,CuDef*
G36*
G01*
X110374120Y-61632679D02*
X110374120Y-62532681D01*
G75*
G02*
X110124121Y-62782680I-249999J0D01*
G01*
X109474119Y-62782680D01*
G75*
G02*
X109224120Y-62532681I0J249999D01*
G01*
X109224120Y-61632679D01*
G75*
G02*
X109474119Y-61382680I249999J0D01*
G01*
X110124121Y-61382680D01*
G75*
G02*
X110374120Y-61632679I0J-249999D01*
G01*
G37*
G04 #@! TD.AperFunction*
G04 #@! TA.AperFunction,SMDPad,CuDef*
G36*
G01*
X109224120Y-60500681D02*
X109224120Y-59600679D01*
G75*
G02*
X109474119Y-59350680I249999J0D01*
G01*
X110124121Y-59350680D01*
G75*
G02*
X110374120Y-59600679I0J-249999D01*
G01*
X110374120Y-60500681D01*
G75*
G02*
X110124121Y-60750680I-249999J0D01*
G01*
X109474119Y-60750680D01*
G75*
G02*
X109224120Y-60500681I0J249999D01*
G01*
G37*
G04 #@! TD.AperFunction*
G04 #@! TA.AperFunction,SMDPad,CuDef*
G36*
G01*
X111274120Y-60500681D02*
X111274120Y-59600679D01*
G75*
G02*
X111524119Y-59350680I249999J0D01*
G01*
X112174121Y-59350680D01*
G75*
G02*
X112424120Y-59600679I0J-249999D01*
G01*
X112424120Y-60500681D01*
G75*
G02*
X112174121Y-60750680I-249999J0D01*
G01*
X111524119Y-60750680D01*
G75*
G02*
X111274120Y-60500681I0J249999D01*
G01*
G37*
G04 #@! TD.AperFunction*
G04 #@! TA.AperFunction,SMDPad,CuDef*
G36*
G01*
X121287119Y-68619680D02*
X122187121Y-68619680D01*
G75*
G02*
X122437120Y-68869679I0J-249999D01*
G01*
X122437120Y-69519681D01*
G75*
G02*
X122187121Y-69769680I-249999J0D01*
G01*
X121287119Y-69769680D01*
G75*
G02*
X121037120Y-69519681I0J249999D01*
G01*
X121037120Y-68869679D01*
G75*
G02*
X121287119Y-68619680I249999J0D01*
G01*
G37*
G04 #@! TD.AperFunction*
G04 #@! TA.AperFunction,SMDPad,CuDef*
G36*
G01*
X121287119Y-70669680D02*
X122187121Y-70669680D01*
G75*
G02*
X122437120Y-70919679I0J-249999D01*
G01*
X122437120Y-71569681D01*
G75*
G02*
X122187121Y-71819680I-249999J0D01*
G01*
X121287119Y-71819680D01*
G75*
G02*
X121037120Y-71569681I0J249999D01*
G01*
X121037120Y-70919679D01*
G75*
G02*
X121287119Y-70669680I249999J0D01*
G01*
G37*
G04 #@! TD.AperFunction*
G04 #@! TA.AperFunction,SMDPad,CuDef*
G36*
G01*
X126251121Y-65977680D02*
X125351119Y-65977680D01*
G75*
G02*
X125101120Y-65727681I0J249999D01*
G01*
X125101120Y-65077679D01*
G75*
G02*
X125351119Y-64827680I249999J0D01*
G01*
X126251121Y-64827680D01*
G75*
G02*
X126501120Y-65077679I0J-249999D01*
G01*
X126501120Y-65727681D01*
G75*
G02*
X126251121Y-65977680I-249999J0D01*
G01*
G37*
G04 #@! TD.AperFunction*
G04 #@! TA.AperFunction,SMDPad,CuDef*
G36*
G01*
X126251121Y-63927680D02*
X125351119Y-63927680D01*
G75*
G02*
X125101120Y-63677681I0J249999D01*
G01*
X125101120Y-63027679D01*
G75*
G02*
X125351119Y-62777680I249999J0D01*
G01*
X126251121Y-62777680D01*
G75*
G02*
X126501120Y-63027679I0J-249999D01*
G01*
X126501120Y-63677681D01*
G75*
G02*
X126251121Y-63927680I-249999J0D01*
G01*
G37*
G04 #@! TD.AperFunction*
G04 #@! TA.AperFunction,SMDPad,CuDef*
G36*
G01*
X123319119Y-64827680D02*
X124219121Y-64827680D01*
G75*
G02*
X124469120Y-65077679I0J-249999D01*
G01*
X124469120Y-65727681D01*
G75*
G02*
X124219121Y-65977680I-249999J0D01*
G01*
X123319119Y-65977680D01*
G75*
G02*
X123069120Y-65727681I0J249999D01*
G01*
X123069120Y-65077679D01*
G75*
G02*
X123319119Y-64827680I249999J0D01*
G01*
G37*
G04 #@! TD.AperFunction*
G04 #@! TA.AperFunction,SMDPad,CuDef*
G36*
G01*
X123319119Y-62777680D02*
X124219121Y-62777680D01*
G75*
G02*
X124469120Y-63027679I0J-249999D01*
G01*
X124469120Y-63677681D01*
G75*
G02*
X124219121Y-63927680I-249999J0D01*
G01*
X123319119Y-63927680D01*
G75*
G02*
X123069120Y-63677681I0J249999D01*
G01*
X123069120Y-63027679D01*
G75*
G02*
X123319119Y-62777680I249999J0D01*
G01*
G37*
G04 #@! TD.AperFunction*
G04 #@! TA.AperFunction,SMDPad,CuDef*
G36*
G01*
X122187121Y-65977680D02*
X121287119Y-65977680D01*
G75*
G02*
X121037120Y-65727681I0J249999D01*
G01*
X121037120Y-65077679D01*
G75*
G02*
X121287119Y-64827680I249999J0D01*
G01*
X122187121Y-64827680D01*
G75*
G02*
X122437120Y-65077679I0J-249999D01*
G01*
X122437120Y-65727681D01*
G75*
G02*
X122187121Y-65977680I-249999J0D01*
G01*
G37*
G04 #@! TD.AperFunction*
G04 #@! TA.AperFunction,SMDPad,CuDef*
G36*
G01*
X122187121Y-63927680D02*
X121287119Y-63927680D01*
G75*
G02*
X121037120Y-63677681I0J249999D01*
G01*
X121037120Y-63027679D01*
G75*
G02*
X121287119Y-62777680I249999J0D01*
G01*
X122187121Y-62777680D01*
G75*
G02*
X122437120Y-63027679I0J-249999D01*
G01*
X122437120Y-63677681D01*
G75*
G02*
X122187121Y-63927680I-249999J0D01*
G01*
G37*
G04 #@! TD.AperFunction*
G04 #@! TA.AperFunction,SMDPad,CuDef*
G36*
G01*
X121287119Y-57443680D02*
X122187121Y-57443680D01*
G75*
G02*
X122437120Y-57693679I0J-249999D01*
G01*
X122437120Y-58343681D01*
G75*
G02*
X122187121Y-58593680I-249999J0D01*
G01*
X121287119Y-58593680D01*
G75*
G02*
X121037120Y-58343681I0J249999D01*
G01*
X121037120Y-57693679D01*
G75*
G02*
X121287119Y-57443680I249999J0D01*
G01*
G37*
G04 #@! TD.AperFunction*
G04 #@! TA.AperFunction,SMDPad,CuDef*
G36*
G01*
X121287119Y-55393680D02*
X122187121Y-55393680D01*
G75*
G02*
X122437120Y-55643679I0J-249999D01*
G01*
X122437120Y-56293681D01*
G75*
G02*
X122187121Y-56543680I-249999J0D01*
G01*
X121287119Y-56543680D01*
G75*
G02*
X121037120Y-56293681I0J249999D01*
G01*
X121037120Y-55643679D01*
G75*
G02*
X121287119Y-55393680I249999J0D01*
G01*
G37*
G04 #@! TD.AperFunction*
G04 #@! TA.AperFunction,SMDPad,CuDef*
G36*
G01*
X124219121Y-56543680D02*
X123319119Y-56543680D01*
G75*
G02*
X123069120Y-56293681I0J249999D01*
G01*
X123069120Y-55643679D01*
G75*
G02*
X123319119Y-55393680I249999J0D01*
G01*
X124219121Y-55393680D01*
G75*
G02*
X124469120Y-55643679I0J-249999D01*
G01*
X124469120Y-56293681D01*
G75*
G02*
X124219121Y-56543680I-249999J0D01*
G01*
G37*
G04 #@! TD.AperFunction*
G04 #@! TA.AperFunction,SMDPad,CuDef*
G36*
G01*
X124219121Y-58593680D02*
X123319119Y-58593680D01*
G75*
G02*
X123069120Y-58343681I0J249999D01*
G01*
X123069120Y-57693679D01*
G75*
G02*
X123319119Y-57443680I249999J0D01*
G01*
X124219121Y-57443680D01*
G75*
G02*
X124469120Y-57693679I0J-249999D01*
G01*
X124469120Y-58343681D01*
G75*
G02*
X124219121Y-58593680I-249999J0D01*
G01*
G37*
G04 #@! TD.AperFunction*
G04 #@! TA.AperFunction,SMDPad,CuDef*
G36*
G01*
X127383119Y-55393680D02*
X128283121Y-55393680D01*
G75*
G02*
X128533120Y-55643679I0J-249999D01*
G01*
X128533120Y-56293681D01*
G75*
G02*
X128283121Y-56543680I-249999J0D01*
G01*
X127383119Y-56543680D01*
G75*
G02*
X127133120Y-56293681I0J249999D01*
G01*
X127133120Y-55643679D01*
G75*
G02*
X127383119Y-55393680I249999J0D01*
G01*
G37*
G04 #@! TD.AperFunction*
G04 #@! TA.AperFunction,SMDPad,CuDef*
G36*
G01*
X127383119Y-57443680D02*
X128283121Y-57443680D01*
G75*
G02*
X128533120Y-57693679I0J-249999D01*
G01*
X128533120Y-58343681D01*
G75*
G02*
X128283121Y-58593680I-249999J0D01*
G01*
X127383119Y-58593680D01*
G75*
G02*
X127133120Y-58343681I0J249999D01*
G01*
X127133120Y-57693679D01*
G75*
G02*
X127383119Y-57443680I249999J0D01*
G01*
G37*
G04 #@! TD.AperFunction*
D18*
X119133620Y-87990680D03*
X119133620Y-88640680D03*
X119133620Y-89290680D03*
X119133620Y-89940680D03*
X119133620Y-90590680D03*
X119133620Y-91240680D03*
X119133620Y-91890680D03*
X119133620Y-92540680D03*
X119133620Y-93190680D03*
X119133620Y-93840680D03*
X126333620Y-93840680D03*
X126333620Y-93190680D03*
X126333620Y-92540680D03*
X126333620Y-91890680D03*
X126333620Y-91240680D03*
X126333620Y-90590680D03*
X126333620Y-89940680D03*
X126333620Y-89290680D03*
X126333620Y-88640680D03*
X126333620Y-87990680D03*
D19*
X117927120Y-71429880D03*
X118877120Y-71429880D03*
X119827120Y-71429880D03*
X119827120Y-68813680D03*
X118877120Y-68813680D03*
X117927120Y-68813680D03*
D20*
X109341920Y-67670680D03*
X109341920Y-68620680D03*
X109341920Y-69570680D03*
X111958120Y-69570680D03*
X111958120Y-68620680D03*
X111958120Y-67670680D03*
D19*
X117927120Y-58399680D03*
X116977120Y-58399680D03*
X116027120Y-58399680D03*
X116027120Y-55783480D03*
X116977120Y-55783480D03*
X117927120Y-55783480D03*
G04 #@! TA.AperFunction,SMDPad,CuDef*
G36*
G01*
X109215120Y-66596681D02*
X109215120Y-65696679D01*
G75*
G02*
X109465119Y-65446680I249999J0D01*
G01*
X110115121Y-65446680D01*
G75*
G02*
X110365120Y-65696679I0J-249999D01*
G01*
X110365120Y-66596681D01*
G75*
G02*
X110115121Y-66846680I-249999J0D01*
G01*
X109465119Y-66846680D01*
G75*
G02*
X109215120Y-66596681I0J249999D01*
G01*
G37*
G04 #@! TD.AperFunction*
G04 #@! TA.AperFunction,SMDPad,CuDef*
G36*
G01*
X111265120Y-66596681D02*
X111265120Y-65696679D01*
G75*
G02*
X111515119Y-65446680I249999J0D01*
G01*
X112165121Y-65446680D01*
G75*
G02*
X112415120Y-65696679I0J-249999D01*
G01*
X112415120Y-66596681D01*
G75*
G02*
X112165121Y-66846680I-249999J0D01*
G01*
X111515119Y-66846680D01*
G75*
G02*
X111265120Y-66596681I0J249999D01*
G01*
G37*
G04 #@! TD.AperFunction*
G04 #@! TA.AperFunction,SMDPad,CuDef*
G36*
G01*
X111256120Y-71676681D02*
X111256120Y-70776679D01*
G75*
G02*
X111506119Y-70526680I249999J0D01*
G01*
X112156121Y-70526680D01*
G75*
G02*
X112406120Y-70776679I0J-249999D01*
G01*
X112406120Y-71676681D01*
G75*
G02*
X112156121Y-71926680I-249999J0D01*
G01*
X111506119Y-71926680D01*
G75*
G02*
X111256120Y-71676681I0J249999D01*
G01*
G37*
G04 #@! TD.AperFunction*
G04 #@! TA.AperFunction,SMDPad,CuDef*
G36*
G01*
X109206120Y-71676681D02*
X109206120Y-70776679D01*
G75*
G02*
X109456119Y-70526680I249999J0D01*
G01*
X110106121Y-70526680D01*
G75*
G02*
X110356120Y-70776679I0J-249999D01*
G01*
X110356120Y-71676681D01*
G75*
G02*
X110106121Y-71926680I-249999J0D01*
G01*
X109456119Y-71926680D01*
G75*
G02*
X109206120Y-71676681I0J249999D01*
G01*
G37*
G04 #@! TD.AperFunction*
D21*
X118943120Y-72496680D03*
X107767120Y-68686680D03*
X108529120Y-63860680D03*
X113355120Y-60304680D03*
X114752120Y-71226680D03*
X118435120Y-52049680D03*
X113101120Y-71226680D03*
X113101120Y-66146680D03*
X129103120Y-106532680D03*
X133548120Y-106532680D03*
X116403120Y-106532680D03*
X111323120Y-106532680D03*
X113863120Y-49382680D03*
X121483120Y-49382680D03*
X128341120Y-49408080D03*
X141930120Y-54411880D03*
X144978120Y-60558680D03*
X148407120Y-66400680D03*
X151455120Y-71734680D03*
X151963120Y-83418680D03*
X148407120Y-89768680D03*
X144851120Y-95864680D03*
X141803120Y-101198680D03*
X102941120Y-101071680D03*
X99385120Y-94721680D03*
X95575120Y-88244680D03*
X92527120Y-82402680D03*
X92781120Y-73258680D03*
X95575120Y-68432680D03*
X98623120Y-63098680D03*
X102560120Y-57129680D03*
X125801120Y-85323680D03*
X133167120Y-87482680D03*
X130881120Y-83672680D03*
X135453120Y-84434680D03*
X137485120Y-86974680D03*
X140025120Y-84434680D03*
X144597120Y-83545680D03*
X139898120Y-89641680D03*
X103957120Y-89768680D03*
X106878120Y-58018680D03*
X126055120Y-52811680D03*
X135453120Y-54208680D03*
X136215120Y-101833680D03*
X134437120Y-59669680D03*
X139771120Y-58526680D03*
X131643120Y-63733680D03*
X135707120Y-95864680D03*
X111831120Y-78338680D03*
X107767120Y-75544680D03*
X106751120Y-73004680D03*
X105735120Y-80243680D03*
X137104120Y-63225680D03*
X104465120Y-65638680D03*
X134183120Y-83672680D03*
X139644120Y-75925680D03*
X136977120Y-68940680D03*
X131389120Y-76687680D03*
X117165120Y-74274680D03*
X117419120Y-76941680D03*
X119959120Y-77449680D03*
X116403120Y-73131680D03*
X126563120Y-74528680D03*
X127833120Y-73258680D03*
X127833120Y-81894680D03*
X144343120Y-74020680D03*
X113482120Y-55986680D03*
X107132120Y-87228680D03*
X112847120Y-94975680D03*
X116657120Y-98277680D03*
X131262120Y-68432680D03*
X139898120Y-66273680D03*
X129992120Y-59542680D03*
X129357120Y-82402680D03*
X132024120Y-71988680D03*
X135072120Y-89006680D03*
X133395720Y-49585880D03*
X123515120Y-96245680D03*
X123515120Y-97896680D03*
X123515120Y-97134680D03*
X134564120Y-66019680D03*
X128087120Y-99166680D03*
X148661120Y-77830680D03*
X95575120Y-77830680D03*
X105862120Y-95483680D03*
X108376720Y-53040280D03*
X110027720Y-100335080D03*
X117546120Y-86720680D03*
X131262120Y-77830680D03*
X118308120Y-85958680D03*
X129230120Y-90403680D03*
X125168121Y-83543679D03*
X121483120Y-82148680D03*
X129611120Y-72242680D03*
X126690120Y-80624680D03*
X125547120Y-80624680D03*
X129611120Y-71353680D03*
X116543120Y-86593680D03*
X114538128Y-84855688D03*
X124023120Y-88117680D03*
X114583240Y-75786112D03*
X123769120Y-89260680D03*
X113551129Y-74782680D03*
X121102120Y-100944680D03*
X118689120Y-99420680D03*
X121864120Y-95356679D03*
X124912120Y-75544680D03*
X130119120Y-86974680D03*
X131897120Y-90530680D03*
X130627120Y-92181680D03*
X122753120Y-59542680D03*
X127833120Y-59542680D03*
X114625120Y-68125680D03*
X125801120Y-67797680D03*
X117673120Y-83672680D03*
X113482120Y-88625680D03*
X115895120Y-54462680D03*
X121229140Y-53954680D03*
X116403120Y-61828680D03*
X119705120Y-58018680D03*
X121570112Y-90871672D03*
X114801967Y-79667833D03*
X111958120Y-68620680D03*
X111831120Y-64114680D03*
X123261120Y-92435680D03*
X113101120Y-67924680D03*
X121483120Y-62349680D03*
X118181120Y-61574680D03*
X115387120Y-66654680D03*
X117165120Y-66908680D03*
X118435120Y-54729680D03*
X122499120Y-66654680D03*
X113228120Y-62336680D03*
X123586121Y-91038680D03*
X116911120Y-90657680D03*
X139898120Y-77322680D03*
X130640120Y-89303680D03*
X133929120Y-79227680D03*
D22*
X118877120Y-71429880D02*
X118877120Y-72430680D01*
X118877120Y-72430680D02*
X118943120Y-72496680D01*
X109341920Y-68620680D02*
X107833120Y-68620680D01*
X107833120Y-68620680D02*
X107767120Y-68686680D01*
X109799120Y-64114680D02*
X108783120Y-64114680D01*
X108783120Y-64114680D02*
X108529120Y-63860680D01*
X111849120Y-60050680D02*
X113101120Y-60050680D01*
X113101120Y-60050680D02*
X113355120Y-60304680D01*
X116977120Y-52496680D02*
X116911120Y-52430680D01*
X116977120Y-55783480D02*
X116977120Y-52496680D01*
X119705120Y-55968680D02*
X119705120Y-52430680D01*
X119188120Y-77449680D02*
X118816120Y-77821680D01*
X124174620Y-85831680D02*
X126333620Y-87990680D01*
X123651120Y-85831680D02*
X124174620Y-85831680D01*
X113101120Y-66146680D02*
X111840120Y-66146680D01*
X116149120Y-71226680D02*
X114752120Y-71226680D01*
X111831120Y-71226680D02*
X113101120Y-71226680D01*
X139149121Y-76420679D02*
X138171120Y-76420679D01*
X139644120Y-75925680D02*
X139149121Y-76420679D01*
X132405120Y-76170680D02*
X131906120Y-76170680D01*
X131906120Y-76170680D02*
X131389120Y-76687680D01*
X119959120Y-77449680D02*
X119188120Y-77449680D01*
X117156120Y-74283680D02*
X117165120Y-74274680D01*
X117156120Y-75544680D02*
X117156120Y-74283680D01*
X118816120Y-78202680D02*
X118816120Y-77821680D01*
X120335120Y-77825680D02*
X119959120Y-77449680D01*
X121484120Y-77825680D02*
X120335120Y-77825680D01*
X106252120Y-81894680D02*
X106624120Y-82266680D01*
X103195120Y-81894680D02*
X106252120Y-81894680D01*
X134771121Y-78220680D02*
X135021120Y-77970681D01*
X132405120Y-78220680D02*
X134771121Y-78220680D01*
X121292620Y-85831680D02*
X119133620Y-87990680D01*
X121601120Y-85831680D02*
X121292620Y-85831680D01*
X132405120Y-78220680D02*
X131652120Y-78220680D01*
X131652120Y-78220680D02*
X131262120Y-77830680D01*
X121601120Y-85831680D02*
X118435120Y-85831680D01*
X118435120Y-85831680D02*
X118308120Y-85958680D01*
X118308120Y-85958680D02*
X117546120Y-86720680D01*
X126333620Y-90590680D02*
X129043120Y-90590680D01*
X129043120Y-90590680D02*
X129230120Y-90403680D01*
X120086120Y-80370680D02*
X119905120Y-80189680D01*
X119905120Y-80189680D02*
X119134120Y-80189680D01*
X125039120Y-83672680D02*
X125168121Y-83543679D01*
X123651120Y-83672680D02*
X125039120Y-83672680D01*
X120086120Y-80370680D02*
X120086120Y-80624680D01*
X120086120Y-80624680D02*
X120086120Y-80751680D01*
X120086120Y-80751680D02*
X121483120Y-82148680D01*
X119071120Y-80252680D02*
X119134120Y-80189680D01*
X118816120Y-80252680D02*
X119071120Y-80252680D01*
X121348120Y-80751680D02*
X121534120Y-80565680D01*
X120086120Y-80751680D02*
X121348120Y-80751680D01*
X129611120Y-71353680D02*
X129611120Y-71099680D01*
X129611120Y-71353680D02*
X129611120Y-72242680D01*
X125547120Y-80624680D02*
X126690120Y-80624680D01*
X129611120Y-69702680D02*
X129611120Y-71353680D01*
X127833120Y-69194680D02*
X129103120Y-69194680D01*
X129103120Y-69194680D02*
X129611120Y-69702680D01*
X125488120Y-80565680D02*
X125547120Y-80624680D01*
X123464120Y-80565680D02*
X125488120Y-80565680D01*
X117927120Y-72379880D02*
X117927120Y-71429880D01*
X125801120Y-72750680D02*
X125251110Y-73300690D01*
X118477130Y-73300690D02*
X117927120Y-72750680D01*
X117927120Y-72750680D02*
X117927120Y-72379880D01*
X125801120Y-71244680D02*
X125801120Y-72750680D01*
X125251110Y-73300690D02*
X118477130Y-73300690D01*
X127833120Y-71244680D02*
X125801120Y-71244680D01*
X125801120Y-55968680D02*
X127833120Y-55968680D01*
X126333620Y-91240680D02*
X131206118Y-91240680D01*
X131206118Y-91240680D02*
X131271119Y-91305681D01*
X133053121Y-93591681D02*
X133167120Y-93705680D01*
X133053121Y-91305681D02*
X133053121Y-93591681D01*
X131271119Y-91305681D02*
X133053121Y-91305681D01*
X142184120Y-83799680D02*
X134678119Y-91305681D01*
X134678119Y-91305681D02*
X133053121Y-91305681D01*
X134296122Y-55968680D02*
X141562121Y-63234679D01*
X127833120Y-55968680D02*
X134296122Y-55968680D01*
X141562121Y-63234679D02*
X141562121Y-63238681D01*
X141562121Y-63238681D02*
X142184120Y-63860680D01*
X142184120Y-63860680D02*
X142184120Y-83799680D01*
X103313120Y-84316680D02*
X103195120Y-84434680D01*
X106624120Y-84316680D02*
X103313120Y-84316680D01*
X116543120Y-88950180D02*
X116543120Y-86593680D01*
X119133620Y-89940680D02*
X117533620Y-89940680D01*
X117533620Y-89940680D02*
X116543120Y-88950180D01*
X111599120Y-84316680D02*
X106624120Y-84316680D01*
X111599120Y-84316680D02*
X113999120Y-84316680D01*
X113999120Y-84316680D02*
X114538128Y-84855688D01*
X126333620Y-88640680D02*
X124546120Y-88640680D01*
X124546120Y-88640680D02*
X124023120Y-88117680D01*
X103690119Y-76319681D02*
X103195120Y-76814680D01*
X114049671Y-76319681D02*
X103690119Y-76319681D01*
X114583240Y-75786112D02*
X114049671Y-76319681D01*
X126333620Y-89290680D02*
X123799120Y-89290680D01*
X123799120Y-89290680D02*
X123769120Y-89260680D01*
X113551129Y-74782680D02*
X113043129Y-74274680D01*
X113043129Y-74274680D02*
X111704120Y-74274680D01*
X112095836Y-74274680D02*
X111704120Y-74274680D01*
X111704120Y-74274680D02*
X103195120Y-74274680D01*
X126333620Y-93190680D02*
X124733620Y-93190680D01*
X124733620Y-93190680D02*
X123388120Y-94536180D01*
X123388120Y-94536180D02*
X123388120Y-95102680D01*
X121102120Y-97388680D02*
X121102120Y-98023680D01*
X123388120Y-95102680D02*
X121102120Y-97388680D01*
X121102120Y-98023680D02*
X121102120Y-100944680D01*
X118689120Y-94285180D02*
X119133620Y-93840680D01*
X118689120Y-99420680D02*
X118689120Y-94285180D01*
X121864120Y-94321180D02*
X121864120Y-95356679D01*
X119133620Y-93190680D02*
X120733620Y-93190680D01*
X120733620Y-93190680D02*
X121864120Y-94321180D01*
X116874120Y-91890680D02*
X119133620Y-91890680D01*
X115768120Y-90784680D02*
X116874120Y-91890680D01*
X115768120Y-80370680D02*
X115768120Y-82402680D01*
X111831120Y-86847680D02*
X110307120Y-88371680D01*
X115768120Y-86847680D02*
X115768120Y-90784680D01*
X115768120Y-86847680D02*
X111831120Y-86847680D01*
X115768120Y-82402680D02*
X115768120Y-86847680D01*
X116986110Y-79152690D02*
X116784120Y-79354680D01*
X121171130Y-79152690D02*
X116986110Y-79152690D01*
X121484120Y-79465680D02*
X121171130Y-79152690D01*
X116784120Y-79354680D02*
X115768120Y-80370680D01*
X120949120Y-75544680D02*
X119587120Y-75544680D01*
X119206120Y-75544680D02*
X119587120Y-75544680D01*
X130119120Y-86974680D02*
X131897120Y-88752680D01*
X131897120Y-88752680D02*
X131897120Y-90530680D01*
X128968120Y-93840680D02*
X126333620Y-93840680D01*
X130627120Y-92181680D02*
X128968120Y-93840680D01*
X124049120Y-75544680D02*
X124912120Y-75544680D01*
X129357120Y-63352680D02*
X127833120Y-63352680D01*
X129611120Y-63606680D02*
X129357120Y-63352680D01*
X122245120Y-67670680D02*
X121737120Y-68178680D01*
X121737120Y-69194680D02*
X121737120Y-68178680D01*
X121356120Y-68813680D02*
X121737120Y-69194680D01*
X119827120Y-68813680D02*
X121356120Y-68813680D01*
X129611120Y-66019680D02*
X128722120Y-66908680D01*
X129611120Y-66019680D02*
X129611120Y-63606680D01*
X128722120Y-66908680D02*
X123642120Y-66908680D01*
X122630122Y-67670680D02*
X122245120Y-67670680D01*
X123011122Y-67289680D02*
X122630122Y-67670680D01*
X123261120Y-67289680D02*
X123011122Y-67289680D01*
X123642120Y-66908680D02*
X123261120Y-67289680D01*
X125783120Y-69176680D02*
X125801120Y-69194680D01*
X123769120Y-69176680D02*
X125783120Y-69176680D01*
X120467120Y-61574680D02*
X119705120Y-62336680D01*
X124598120Y-61574680D02*
X120467120Y-61574680D01*
X119705120Y-62336680D02*
X119705120Y-63352680D01*
X125801120Y-63352680D02*
X125801120Y-62777680D01*
X125801120Y-62777680D02*
X124598120Y-61574680D01*
X127325120Y-61574680D02*
X127833120Y-61066680D01*
X124598120Y-61574680D02*
X127325120Y-61574680D01*
X121737120Y-58018680D02*
X121737120Y-58526680D01*
X121737120Y-58526680D02*
X122753120Y-59542680D01*
X127833120Y-58018680D02*
X127833120Y-59542680D01*
X127833120Y-59542680D02*
X127833120Y-61066680D01*
X111958120Y-69570680D02*
X109341920Y-69570680D01*
X109341920Y-70787480D02*
X109781120Y-71226680D01*
X109341920Y-69570680D02*
X109341920Y-70787480D01*
X125801120Y-67797680D02*
X125801120Y-69194680D01*
X113180120Y-69570680D02*
X111958120Y-69570680D01*
X114625120Y-68125680D02*
X113180120Y-69570680D01*
X122498120Y-82775680D02*
X121601120Y-83672680D01*
X121601120Y-83672680D02*
X117673120Y-83672680D01*
X116746290Y-92540680D02*
X119133620Y-92540680D01*
X110307120Y-92054680D02*
X112339120Y-92054680D01*
X112339120Y-92054680D02*
X114299705Y-90094095D01*
X114117120Y-89911510D02*
X114299705Y-90094095D01*
X114299705Y-90094095D02*
X116746290Y-92540680D01*
X113482120Y-89276510D02*
X114117120Y-89911510D01*
X113482120Y-88625680D02*
X113482120Y-89276510D01*
X122499120Y-82774680D02*
X122498120Y-82775680D01*
X122499120Y-80565680D02*
X122499120Y-82774680D01*
X123769120Y-72242680D02*
X123769120Y-71226680D01*
X123261120Y-72750680D02*
X123769120Y-72242680D01*
X120345120Y-72750680D02*
X123261120Y-72750680D01*
X119827120Y-71429880D02*
X119827120Y-72232680D01*
X119827120Y-72232680D02*
X120345120Y-72750680D01*
X120806120Y-72750680D02*
X120345120Y-72750680D01*
X121737120Y-71819680D02*
X120806120Y-72750680D01*
X121737120Y-71244680D02*
X121737120Y-71819680D01*
X115895120Y-55651480D02*
X116027120Y-55783480D01*
X115895120Y-54462680D02*
X115895120Y-55651480D01*
X121737120Y-55968680D02*
X123769120Y-55968680D01*
X121737120Y-55968680D02*
X121737120Y-54462660D01*
X121737120Y-54462660D02*
X121229140Y-53954680D01*
X108391920Y-67670680D02*
X107513120Y-66791880D01*
X109341920Y-67670680D02*
X108391920Y-67670680D01*
X107513120Y-66791880D02*
X107513120Y-62590680D01*
X108021120Y-62082680D02*
X109799120Y-62082680D01*
X107513120Y-62590680D02*
X108021120Y-62082680D01*
X109799120Y-60050680D02*
X109799120Y-62082680D01*
D23*
X109790120Y-67222480D02*
X109341920Y-67670680D01*
X109790120Y-66146680D02*
X109790120Y-67222480D01*
X116977120Y-58399680D02*
X117927120Y-58399680D01*
X118308120Y-58018680D02*
X117927120Y-58399680D01*
X119705120Y-58018680D02*
X118308120Y-58018680D01*
X118877120Y-68813680D02*
X117927120Y-68813680D01*
X116512120Y-68813680D02*
X116149120Y-69176680D01*
X117927120Y-68813680D02*
X116512120Y-68813680D01*
X116149120Y-69176680D02*
X116149120Y-62018490D01*
X116149120Y-63288490D02*
X116149120Y-62082680D01*
X116149120Y-62082680D02*
X116403120Y-61828680D01*
X119133620Y-91240680D02*
X121201104Y-91240680D01*
X121201104Y-91240680D02*
X121570112Y-90871672D01*
X116149120Y-69176680D02*
X115449120Y-69176680D01*
X115308241Y-73814801D02*
X115308241Y-79161559D01*
X115308241Y-79161559D02*
X114801967Y-79667833D01*
X115449120Y-69176680D02*
X114027119Y-70598681D01*
X114027119Y-70598681D02*
X114027119Y-72533679D01*
X114027119Y-72533679D02*
X115308241Y-73814801D01*
X111958120Y-67670680D02*
X111958120Y-68620680D01*
X111849120Y-64114680D02*
X111831120Y-64114680D01*
X126333620Y-92540680D02*
X123366120Y-92540680D01*
X123366120Y-92540680D02*
X123261120Y-92435680D01*
X112212120Y-67924680D02*
X111958120Y-67670680D01*
X113101120Y-67924680D02*
X112212120Y-67924680D01*
X112654120Y-67924680D02*
X111958120Y-68620680D01*
X113101120Y-67924680D02*
X112654120Y-67924680D01*
D22*
X125801120Y-65402680D02*
X127833120Y-65402680D01*
X125783120Y-65384680D02*
X125801120Y-65402680D01*
X123769120Y-65384680D02*
X125783120Y-65384680D01*
X121737120Y-63352680D02*
X123769120Y-63352680D01*
X121737120Y-63352680D02*
X121737120Y-62603680D01*
X121737120Y-62603680D02*
X121483120Y-62349680D01*
X117673120Y-62777680D02*
X117673120Y-63352680D01*
X118181120Y-61574680D02*
X117673120Y-62082680D01*
X117673120Y-62082680D02*
X117673120Y-62777680D01*
X125801120Y-58018680D02*
X123769120Y-58018680D01*
X123769120Y-58018680D02*
X123769120Y-59796680D01*
X123769120Y-59796680D02*
X123007120Y-60558680D01*
X116027120Y-59035678D02*
X116027120Y-58399680D01*
X123007120Y-60558680D02*
X117550122Y-60558680D01*
X116214621Y-59223179D02*
X116214621Y-60493179D01*
X116214621Y-59223179D02*
X116027120Y-59035678D01*
X117550122Y-60558680D02*
X116214621Y-59223179D01*
X116214621Y-60493179D02*
X115387120Y-61320680D01*
X115387120Y-61320680D02*
X115387120Y-66654680D01*
X117673120Y-65402680D02*
X117673120Y-66400680D01*
X117673120Y-66400680D02*
X117165120Y-66908680D01*
X119705120Y-65402680D02*
X121737120Y-65402680D01*
X117927120Y-55783480D02*
X117927120Y-55237680D01*
X117927120Y-55237680D02*
X118435120Y-54729680D01*
X121737120Y-65892680D02*
X122499120Y-66654680D01*
X121737120Y-65402680D02*
X121737120Y-65892680D01*
D23*
X111849120Y-62082680D02*
X112974120Y-62082680D01*
X112974120Y-62082680D02*
X113228120Y-62336680D01*
X124438121Y-91890680D02*
X126333620Y-91890680D01*
X123586121Y-91038680D02*
X124438121Y-91890680D01*
X134183120Y-72369680D02*
X135444120Y-72369680D01*
X123514120Y-77825680D02*
X128727120Y-77825680D01*
X128727120Y-77825680D02*
X134183120Y-72369680D01*
X135571120Y-82275680D02*
X132659120Y-82275680D01*
X129849120Y-79465680D02*
X130055620Y-79672180D01*
X123514120Y-79465680D02*
X129849120Y-79465680D01*
X132659120Y-82275680D02*
X130055620Y-79672180D01*
X137494120Y-74401680D02*
X137494120Y-72369680D01*
X137496120Y-77445680D02*
X137104120Y-77053680D01*
X138171120Y-77445680D02*
X137496120Y-77445680D01*
X137104120Y-74791680D02*
X137494120Y-74401680D01*
X137104120Y-77053680D02*
X137104120Y-74791680D01*
X135444120Y-74401680D02*
X134818120Y-74401680D01*
X135021120Y-76945680D02*
X134060120Y-76945680D01*
X134060120Y-76945680D02*
X133675120Y-76560680D01*
X133675120Y-76560680D02*
X133675120Y-75417680D01*
X134691120Y-74401680D02*
X135444120Y-74401680D01*
X133675120Y-75417680D02*
X134691120Y-74401680D01*
X138171120Y-77945680D02*
X139251120Y-77945680D01*
X139251120Y-77945680D02*
X139517120Y-78211680D01*
X139517120Y-78211680D02*
X139517120Y-79227680D01*
X138501120Y-80243680D02*
X137621120Y-80243680D01*
X139517120Y-79227680D02*
X138501120Y-80243680D01*
X137621120Y-82275680D02*
X137621120Y-80243680D01*
X135571120Y-79490680D02*
X135571120Y-80243680D01*
X136850120Y-78211680D02*
X135571120Y-79490680D01*
X135696120Y-76445680D02*
X136342120Y-77091680D01*
X135021120Y-76445680D02*
X135696120Y-76445680D01*
X136850120Y-77832090D02*
X136850120Y-78211680D01*
X136342120Y-77091680D02*
X136342120Y-77324090D01*
X136342120Y-77324090D02*
X136850120Y-77832090D01*
X119133620Y-90590680D02*
X116978120Y-90590680D01*
X116978120Y-90590680D02*
X116911120Y-90657680D01*
X139521120Y-76945680D02*
X138171120Y-76945680D01*
X139898120Y-77322680D02*
X139521120Y-76945680D01*
X129257118Y-89303680D02*
X130640120Y-89303680D01*
X126333620Y-89940680D02*
X128620118Y-89940680D01*
X128620118Y-89940680D02*
X129257118Y-89303680D01*
X135703120Y-77445680D02*
X135021120Y-77445680D01*
X134899122Y-79227680D02*
X133929120Y-79227680D01*
X135961120Y-78165682D02*
X134899122Y-79227680D01*
X135961120Y-77579500D02*
X135961120Y-78165682D01*
X135703120Y-77445680D02*
X135827300Y-77445680D01*
X135827300Y-77445680D02*
X135961120Y-77579500D01*
D24*
G36*
X139616873Y-48306980D02*
G01*
X154020157Y-73254055D01*
X154031801Y-73299406D01*
X154035474Y-73365085D01*
X154026320Y-73430219D01*
X154004686Y-73492341D01*
X153971400Y-73549076D01*
X153927730Y-73598262D01*
X153875334Y-73638034D01*
X153795063Y-73677185D01*
X153794238Y-73677510D01*
X153750629Y-73695043D01*
X153721501Y-73710208D01*
X153691058Y-73722508D01*
X153682921Y-73726834D01*
X153425263Y-73866150D01*
X153375662Y-73899606D01*
X153325615Y-73932356D01*
X153318474Y-73938180D01*
X153092783Y-74124890D01*
X153050644Y-74167324D01*
X153007895Y-74209187D01*
X153002021Y-74216287D01*
X152816893Y-74443276D01*
X152783792Y-74493098D01*
X152749993Y-74542460D01*
X152745610Y-74550566D01*
X152608097Y-74809192D01*
X152585318Y-74864458D01*
X152561736Y-74919479D01*
X152559012Y-74928282D01*
X152474352Y-75208691D01*
X152462732Y-75267379D01*
X152450296Y-75325882D01*
X152449333Y-75335046D01*
X152420750Y-75626560D01*
X152417600Y-75658546D01*
X152417602Y-77890855D01*
X152417391Y-77893163D01*
X152417602Y-77923283D01*
X152417602Y-77953377D01*
X152417829Y-77955681D01*
X152433177Y-80146859D01*
X152433175Y-80146878D01*
X152433178Y-80147058D01*
X152433389Y-80177167D01*
X152433979Y-80182758D01*
X152435071Y-80227875D01*
X152439406Y-80263246D01*
X152440632Y-80298875D01*
X152441911Y-80308002D01*
X152484092Y-80594629D01*
X152498535Y-80652681D01*
X152512165Y-80710922D01*
X152515191Y-80719626D01*
X152612241Y-80992604D01*
X152637688Y-81046751D01*
X152662369Y-81101232D01*
X152667029Y-81109183D01*
X152815253Y-81358109D01*
X152850703Y-81406242D01*
X152885523Y-81454930D01*
X152891638Y-81461824D01*
X153085390Y-81677221D01*
X153129520Y-81717558D01*
X153173130Y-81758551D01*
X153180468Y-81764126D01*
X153412367Y-81937787D01*
X153463516Y-81968798D01*
X153514232Y-82000524D01*
X153522512Y-82004568D01*
X153783726Y-82129879D01*
X153783745Y-82129886D01*
X153784020Y-82130020D01*
X153901703Y-82186404D01*
X153954368Y-82225803D01*
X153998386Y-82274690D01*
X154032064Y-82331183D01*
X154054130Y-82393153D01*
X154063739Y-82458228D01*
X154060526Y-82523924D01*
X154044430Y-82588478D01*
X154044024Y-82589323D01*
X154029792Y-82644619D01*
X139616871Y-107608380D01*
X127735880Y-107608380D01*
X127735880Y-106987381D01*
X127739073Y-106954962D01*
X127726330Y-106825579D01*
X127688590Y-106701169D01*
X127627305Y-106586512D01*
X127544828Y-106486014D01*
X127444330Y-106403537D01*
X127329673Y-106342252D01*
X127205263Y-106304512D01*
X127108299Y-106294962D01*
X127075880Y-106291769D01*
X127043461Y-106294962D01*
X125095879Y-106294962D01*
X125187437Y-106073922D01*
X125244120Y-105788955D01*
X125244120Y-105498405D01*
X125187437Y-105213438D01*
X125099691Y-105001601D01*
X136112120Y-105001601D01*
X136112120Y-105422159D01*
X136194167Y-105834636D01*
X136355108Y-106223182D01*
X136588757Y-106572863D01*
X136886137Y-106870243D01*
X137235818Y-107103892D01*
X137624364Y-107264833D01*
X138036841Y-107346880D01*
X138457399Y-107346880D01*
X138869876Y-107264833D01*
X139258422Y-107103892D01*
X139608103Y-106870243D01*
X139905483Y-106572863D01*
X140139132Y-106223182D01*
X140300073Y-105834636D01*
X140382120Y-105422159D01*
X140382120Y-105001601D01*
X140300073Y-104589124D01*
X140139132Y-104200578D01*
X139905483Y-103850897D01*
X139608103Y-103553517D01*
X139258422Y-103319868D01*
X138869876Y-103158927D01*
X138457399Y-103076880D01*
X138036841Y-103076880D01*
X137624364Y-103158927D01*
X137235818Y-103319868D01*
X136886137Y-103553517D01*
X136588757Y-103850897D01*
X136355108Y-104200578D01*
X136194167Y-104589124D01*
X136112120Y-105001601D01*
X125099691Y-105001601D01*
X125076248Y-104945005D01*
X124914827Y-104703422D01*
X124709378Y-104497973D01*
X124467795Y-104336552D01*
X124199362Y-104225363D01*
X123914395Y-104168680D01*
X123623845Y-104168680D01*
X123338878Y-104225363D01*
X123070445Y-104336552D01*
X122828862Y-104497973D01*
X122623413Y-104703422D01*
X122499120Y-104889439D01*
X122374827Y-104703422D01*
X122169378Y-104497973D01*
X121927795Y-104336552D01*
X121659362Y-104225363D01*
X121374395Y-104168680D01*
X121083845Y-104168680D01*
X120798878Y-104225363D01*
X120530445Y-104336552D01*
X120288862Y-104497973D01*
X120083413Y-104703422D01*
X119921992Y-104945005D01*
X119810803Y-105213438D01*
X119754120Y-105498405D01*
X119754120Y-105788955D01*
X119810803Y-106073922D01*
X119902361Y-106294962D01*
X117964291Y-106294962D01*
X117931879Y-106291770D01*
X117899470Y-106294962D01*
X117899460Y-106294962D01*
X117802496Y-106304512D01*
X117678086Y-106342252D01*
X117563429Y-106403537D01*
X117462931Y-106486014D01*
X117380454Y-106586512D01*
X117319169Y-106701169D01*
X117281429Y-106825579D01*
X117268686Y-106954962D01*
X117271879Y-106987382D01*
X117271880Y-107608378D01*
X110829877Y-107608382D01*
X110743828Y-107584357D01*
X110685116Y-107554699D01*
X110633282Y-107514202D01*
X110590302Y-107464409D01*
X110557811Y-107407215D01*
X110537048Y-107344799D01*
X110528804Y-107279538D01*
X110535036Y-107190408D01*
X110535161Y-107189572D01*
X110541782Y-107143039D01*
X110543212Y-107110232D01*
X110547782Y-107077718D01*
X110548104Y-107068508D01*
X110556283Y-106775713D01*
X110552111Y-106716059D01*
X110548771Y-106656311D01*
X110547297Y-106647214D01*
X110498448Y-106358405D01*
X110482768Y-106300695D01*
X110467888Y-106242739D01*
X110464675Y-106234102D01*
X110360661Y-105960282D01*
X110334054Y-105906683D01*
X110308217Y-105852756D01*
X110303388Y-105844908D01*
X110148169Y-105596505D01*
X110111673Y-105549114D01*
X110075837Y-105501211D01*
X110069576Y-105494449D01*
X109869065Y-105280927D01*
X109824062Y-105241530D01*
X109779603Y-105201499D01*
X109772147Y-105196083D01*
X109533981Y-105025572D01*
X109533975Y-105025569D01*
X109507855Y-105006851D01*
X107574616Y-103890695D01*
X107572722Y-103889358D01*
X107546521Y-103874475D01*
X107520470Y-103859434D01*
X107518362Y-103858479D01*
X105586722Y-102761213D01*
X105581501Y-102758891D01*
X105541961Y-102737321D01*
X105509162Y-102723389D01*
X105477694Y-102706637D01*
X105469151Y-102703181D01*
X105199834Y-102596396D01*
X105142302Y-102579868D01*
X105085082Y-102562561D01*
X105076036Y-102560831D01*
X105076032Y-102560830D01*
X105076028Y-102560830D01*
X104791102Y-102508390D01*
X104731492Y-102503355D01*
X104671966Y-102497488D01*
X104662751Y-102497548D01*
X104662749Y-102497548D01*
X104373062Y-102501449D01*
X104313648Y-102508084D01*
X104254074Y-102513895D01*
X104245046Y-102515744D01*
X103961633Y-102575839D01*
X103904636Y-102593889D01*
X103847330Y-102611159D01*
X103838833Y-102614726D01*
X103572490Y-102728725D01*
X103520053Y-102757519D01*
X103467226Y-102785574D01*
X103459584Y-102790723D01*
X103220455Y-102954284D01*
X103220434Y-102954302D01*
X103220186Y-102954469D01*
X103112517Y-103028191D01*
X103052056Y-103054105D01*
X102987715Y-103067781D01*
X102921945Y-103068699D01*
X102857245Y-103056824D01*
X102796091Y-103032612D01*
X102740800Y-102996980D01*
X102686019Y-102944078D01*
X91508794Y-83584680D01*
X101707048Y-83584680D01*
X101707048Y-85284680D01*
X101719308Y-85409162D01*
X101755618Y-85528860D01*
X101814583Y-85639174D01*
X101893935Y-85735865D01*
X101990626Y-85815217D01*
X102100940Y-85874182D01*
X102220638Y-85910492D01*
X102345120Y-85922752D01*
X104045120Y-85922752D01*
X104169602Y-85910492D01*
X104289300Y-85874182D01*
X104399614Y-85815217D01*
X104496305Y-85735865D01*
X104575657Y-85639174D01*
X104634622Y-85528860D01*
X104670932Y-85409162D01*
X104683192Y-85284680D01*
X104683192Y-85126680D01*
X105431232Y-85126680D01*
X105435715Y-85135067D01*
X105546158Y-85269642D01*
X105680733Y-85380085D01*
X105834269Y-85462152D01*
X106000865Y-85512688D01*
X106174119Y-85529752D01*
X107074121Y-85529752D01*
X107247375Y-85512688D01*
X107413971Y-85462152D01*
X107567507Y-85380085D01*
X107702082Y-85269642D01*
X107812525Y-85135067D01*
X107817008Y-85126680D01*
X113536754Y-85126680D01*
X113542902Y-85157586D01*
X113620923Y-85345944D01*
X113734191Y-85515462D01*
X113878354Y-85659625D01*
X114047872Y-85772893D01*
X114236230Y-85850914D01*
X114436189Y-85890688D01*
X114640067Y-85890688D01*
X114840026Y-85850914D01*
X114958121Y-85801997D01*
X114958121Y-86037680D01*
X111870907Y-86037680D01*
X111831119Y-86033761D01*
X111791331Y-86037680D01*
X111791329Y-86037680D01*
X111672332Y-86049400D01*
X111519647Y-86095717D01*
X111378931Y-86170931D01*
X111255592Y-86272152D01*
X111230225Y-86303062D01*
X110939837Y-86593450D01*
X110856954Y-86559119D01*
X110492776Y-86486680D01*
X110121464Y-86486680D01*
X109757286Y-86559119D01*
X109414238Y-86701214D01*
X109105502Y-86907505D01*
X108842945Y-87170062D01*
X108636654Y-87478798D01*
X108494559Y-87821846D01*
X108422120Y-88186024D01*
X108422120Y-88557336D01*
X108494559Y-88921514D01*
X108636654Y-89264562D01*
X108842945Y-89573298D01*
X109105502Y-89835855D01*
X109414238Y-90042146D01*
X109757286Y-90184241D01*
X109902773Y-90213180D01*
X109757286Y-90242119D01*
X109414238Y-90384214D01*
X109105502Y-90590505D01*
X108842945Y-90853062D01*
X108636654Y-91161798D01*
X108494559Y-91504846D01*
X108422120Y-91869024D01*
X108422120Y-92240336D01*
X108494559Y-92604514D01*
X108636654Y-92947562D01*
X108842945Y-93256298D01*
X109105502Y-93518855D01*
X109414238Y-93725146D01*
X109757286Y-93867241D01*
X110121464Y-93939680D01*
X110492776Y-93939680D01*
X110856954Y-93867241D01*
X111200002Y-93725146D01*
X111508738Y-93518855D01*
X111771295Y-93256298D01*
X111977586Y-92947562D01*
X112011917Y-92864680D01*
X112299332Y-92864680D01*
X112339120Y-92868599D01*
X112378908Y-92864680D01*
X112378911Y-92864680D01*
X112497908Y-92852960D01*
X112650593Y-92806643D01*
X112791309Y-92731429D01*
X112914648Y-92630208D01*
X112940019Y-92599293D01*
X114299705Y-91239607D01*
X116145395Y-93085298D01*
X116170762Y-93116208D01*
X116243198Y-93175654D01*
X116294101Y-93217429D01*
X116434816Y-93292643D01*
X116461311Y-93300680D01*
X116587502Y-93338960D01*
X116706499Y-93350680D01*
X116706502Y-93350680D01*
X116746290Y-93354599D01*
X116786078Y-93350680D01*
X117245548Y-93350680D01*
X117245548Y-93415680D01*
X117255397Y-93515680D01*
X117245548Y-93615680D01*
X117245548Y-94065680D01*
X117257808Y-94190162D01*
X117294118Y-94309860D01*
X117353083Y-94420174D01*
X117432435Y-94516865D01*
X117529126Y-94596217D01*
X117639440Y-94655182D01*
X117759138Y-94691492D01*
X117879121Y-94703309D01*
X117879120Y-98769980D01*
X117771915Y-98930424D01*
X117693894Y-99118782D01*
X117654120Y-99318741D01*
X117654120Y-99522619D01*
X117693894Y-99722578D01*
X117771915Y-99910936D01*
X117885183Y-100080454D01*
X118029346Y-100224617D01*
X118198864Y-100337885D01*
X118387222Y-100415906D01*
X118587181Y-100455680D01*
X118791059Y-100455680D01*
X118991018Y-100415906D01*
X119179376Y-100337885D01*
X119348894Y-100224617D01*
X119493057Y-100080454D01*
X119606325Y-99910936D01*
X119684346Y-99722578D01*
X119724120Y-99522619D01*
X119724120Y-99318741D01*
X119684346Y-99118782D01*
X119606325Y-98930424D01*
X119499120Y-98769980D01*
X119499120Y-94703752D01*
X120383620Y-94703752D01*
X120508102Y-94691492D01*
X120627800Y-94655182D01*
X120738114Y-94596217D01*
X120834805Y-94516865D01*
X120870634Y-94473207D01*
X121054120Y-94656693D01*
X121054120Y-94705978D01*
X120946915Y-94866423D01*
X120868894Y-95054781D01*
X120829120Y-95254740D01*
X120829120Y-95458618D01*
X120868894Y-95658577D01*
X120946915Y-95846935D01*
X121060183Y-96016453D01*
X121194509Y-96150779D01*
X120557507Y-96787781D01*
X120526592Y-96813152D01*
X120456823Y-96898167D01*
X120425371Y-96936491D01*
X120385169Y-97011705D01*
X120350157Y-97077208D01*
X120303840Y-97229893D01*
X120299721Y-97271717D01*
X120288201Y-97388680D01*
X120292120Y-97428468D01*
X120292120Y-97983890D01*
X120292121Y-100293979D01*
X120184915Y-100454424D01*
X120106894Y-100642782D01*
X120067120Y-100842741D01*
X120067120Y-101046619D01*
X120106894Y-101246578D01*
X120184915Y-101434936D01*
X120298183Y-101604454D01*
X120442346Y-101748617D01*
X120611864Y-101861885D01*
X120800222Y-101939906D01*
X121000181Y-101979680D01*
X121204059Y-101979680D01*
X121404018Y-101939906D01*
X121592376Y-101861885D01*
X121761894Y-101748617D01*
X121906057Y-101604454D01*
X122019325Y-101434936D01*
X122097346Y-101246578D01*
X122137120Y-101046619D01*
X122137120Y-100842741D01*
X122097346Y-100642782D01*
X122019325Y-100454424D01*
X121912120Y-100293980D01*
X121912120Y-97724192D01*
X123932738Y-95703575D01*
X123963648Y-95678208D01*
X124035480Y-95590680D01*
X124064869Y-95554870D01*
X124140082Y-95414154D01*
X124140083Y-95414153D01*
X124186400Y-95261468D01*
X124198120Y-95142471D01*
X124198120Y-95142469D01*
X124202039Y-95102681D01*
X124198120Y-95062893D01*
X124198120Y-94871692D01*
X124596606Y-94473207D01*
X124632435Y-94516865D01*
X124729126Y-94596217D01*
X124839440Y-94655182D01*
X124959138Y-94691492D01*
X125083620Y-94703752D01*
X127583620Y-94703752D01*
X127708102Y-94691492D01*
X127827800Y-94655182D01*
X127836223Y-94650680D01*
X128928332Y-94650680D01*
X128968120Y-94654599D01*
X129007908Y-94650680D01*
X129007911Y-94650680D01*
X129126908Y-94638960D01*
X129279593Y-94592643D01*
X129420309Y-94517429D01*
X129543648Y-94416208D01*
X129569019Y-94385293D01*
X130739762Y-93214551D01*
X130929018Y-93176906D01*
X131117376Y-93098885D01*
X131286894Y-92985617D01*
X131431057Y-92841454D01*
X131544325Y-92671936D01*
X131622346Y-92483578D01*
X131662120Y-92283619D01*
X131662120Y-92115681D01*
X132153811Y-92115681D01*
X131965502Y-92241505D01*
X131702945Y-92504062D01*
X131496654Y-92812798D01*
X131354559Y-93155846D01*
X131282120Y-93520024D01*
X131282120Y-93891336D01*
X131354559Y-94255514D01*
X131496654Y-94598562D01*
X131702945Y-94907298D01*
X131965502Y-95169855D01*
X132274238Y-95376146D01*
X132617286Y-95518241D01*
X132981464Y-95590680D01*
X133352776Y-95590680D01*
X133716954Y-95518241D01*
X134060002Y-95376146D01*
X134368738Y-95169855D01*
X134631295Y-94907298D01*
X134837586Y-94598562D01*
X134979681Y-94255514D01*
X135052120Y-93891336D01*
X135052120Y-93520024D01*
X134979681Y-93155846D01*
X134837586Y-92812798D01*
X134631295Y-92504062D01*
X134368738Y-92241505D01*
X134180429Y-92115681D01*
X134638331Y-92115681D01*
X134678119Y-92119600D01*
X134717907Y-92115681D01*
X134717910Y-92115681D01*
X134836907Y-92103961D01*
X134989592Y-92057644D01*
X135130308Y-91982430D01*
X135253647Y-91881209D01*
X135279019Y-91850293D01*
X142728738Y-84400575D01*
X142759648Y-84375208D01*
X142860869Y-84251869D01*
X142936083Y-84111153D01*
X142982400Y-83958468D01*
X142994120Y-83839471D01*
X142994120Y-83839469D01*
X142998039Y-83799681D01*
X142994120Y-83759893D01*
X142994120Y-63900467D01*
X142998039Y-63860679D01*
X142993462Y-63814209D01*
X142982400Y-63701892D01*
X142936083Y-63549207D01*
X142860869Y-63408491D01*
X142759648Y-63285152D01*
X142728739Y-63259786D01*
X142181334Y-62712382D01*
X142176043Y-62705935D01*
X142137649Y-62659151D01*
X142106740Y-62633785D01*
X134897022Y-55424068D01*
X134871650Y-55393152D01*
X134748311Y-55291931D01*
X134607595Y-55216717D01*
X134454910Y-55170400D01*
X134335913Y-55158680D01*
X134335910Y-55158680D01*
X134296122Y-55154761D01*
X134256334Y-55158680D01*
X129026008Y-55158680D01*
X129021525Y-55150293D01*
X128911082Y-55015718D01*
X128776507Y-54905275D01*
X128622971Y-54823208D01*
X128456375Y-54772672D01*
X128283121Y-54755608D01*
X127383119Y-54755608D01*
X127209865Y-54772672D01*
X127043269Y-54823208D01*
X126889733Y-54905275D01*
X126817120Y-54964867D01*
X126744507Y-54905275D01*
X126590971Y-54823208D01*
X126424375Y-54772672D01*
X126251121Y-54755608D01*
X125351119Y-54755608D01*
X125177865Y-54772672D01*
X125011269Y-54823208D01*
X124857733Y-54905275D01*
X124785120Y-54964867D01*
X124712507Y-54905275D01*
X124558971Y-54823208D01*
X124392375Y-54772672D01*
X124219121Y-54755608D01*
X123319119Y-54755608D01*
X123145865Y-54772672D01*
X122979269Y-54823208D01*
X122825733Y-54905275D01*
X122753120Y-54964867D01*
X122680507Y-54905275D01*
X122547120Y-54833978D01*
X122547120Y-54502447D01*
X122551039Y-54462659D01*
X122545544Y-54406869D01*
X122535400Y-54303872D01*
X122489083Y-54151187D01*
X122436565Y-54052932D01*
X122413869Y-54010470D01*
X122382645Y-53972424D01*
X122312648Y-53887132D01*
X122281732Y-53861760D01*
X122262011Y-53842039D01*
X122224366Y-53652782D01*
X122146345Y-53464424D01*
X122033077Y-53294906D01*
X121888914Y-53150743D01*
X121719396Y-53037475D01*
X121531038Y-52959454D01*
X121331079Y-52919680D01*
X121127201Y-52919680D01*
X120927242Y-52959454D01*
X120738884Y-53037475D01*
X120569366Y-53150743D01*
X120425203Y-53294906D01*
X120311935Y-53464424D01*
X120233914Y-53652782D01*
X120194140Y-53852741D01*
X120194140Y-54056619D01*
X120233914Y-54256578D01*
X120311935Y-54444936D01*
X120425203Y-54614454D01*
X120569366Y-54758617D01*
X120627786Y-54797652D01*
X120529602Y-54767868D01*
X120405120Y-54755608D01*
X119990870Y-54758680D01*
X119832120Y-54917430D01*
X119832120Y-55841680D01*
X119852120Y-55841680D01*
X119852120Y-56095680D01*
X119832120Y-56095680D01*
X119832120Y-56115680D01*
X119578120Y-56115680D01*
X119578120Y-56095680D01*
X119558120Y-56095680D01*
X119558120Y-55841680D01*
X119578120Y-55841680D01*
X119578120Y-54917430D01*
X119470120Y-54809430D01*
X119470120Y-54627741D01*
X119430346Y-54427782D01*
X119352325Y-54239424D01*
X119239057Y-54069906D01*
X119094894Y-53925743D01*
X118925376Y-53812475D01*
X118737018Y-53734454D01*
X118537059Y-53694680D01*
X118333181Y-53694680D01*
X118133222Y-53734454D01*
X117944864Y-53812475D01*
X117775346Y-53925743D01*
X117631183Y-54069906D01*
X117517915Y-54239424D01*
X117439894Y-54427782D01*
X117411958Y-54568225D01*
X117380266Y-54558408D01*
X117262870Y-54548480D01*
X117104120Y-54707230D01*
X117104120Y-54861656D01*
X117062618Y-54939300D01*
X117026308Y-55058998D01*
X117014048Y-55183480D01*
X117014048Y-56383480D01*
X117026308Y-56507962D01*
X117062618Y-56627660D01*
X117104120Y-56705304D01*
X117104120Y-56859730D01*
X117262870Y-57018480D01*
X117380266Y-57008552D01*
X117451974Y-56986340D01*
X117527638Y-57009292D01*
X117652120Y-57021552D01*
X118202120Y-57021552D01*
X118326602Y-57009292D01*
X118446300Y-56972982D01*
X118508633Y-56939664D01*
X118553935Y-56994865D01*
X118633714Y-57060338D01*
X118627158Y-57065718D01*
X118516715Y-57200293D01*
X118496958Y-57237256D01*
X118446300Y-57210178D01*
X118326602Y-57173868D01*
X118202120Y-57161608D01*
X117652120Y-57161608D01*
X117527638Y-57173868D01*
X117452120Y-57196776D01*
X117376602Y-57173868D01*
X117252120Y-57161608D01*
X116702120Y-57161608D01*
X116577638Y-57173868D01*
X116502120Y-57196776D01*
X116426602Y-57173868D01*
X116302120Y-57161608D01*
X115752120Y-57161608D01*
X115627638Y-57173868D01*
X115507940Y-57210178D01*
X115397626Y-57269143D01*
X115300935Y-57348495D01*
X115221583Y-57445186D01*
X115162618Y-57555500D01*
X115126308Y-57675198D01*
X115114048Y-57799680D01*
X115114048Y-58999680D01*
X115126308Y-59124162D01*
X115162618Y-59243860D01*
X115221583Y-59354174D01*
X115300935Y-59450865D01*
X115359342Y-59498799D01*
X115381823Y-59526191D01*
X115404621Y-59553971D01*
X115404622Y-60157666D01*
X114842507Y-60719781D01*
X114811592Y-60745152D01*
X114747937Y-60822717D01*
X114710371Y-60868491D01*
X114694635Y-60897932D01*
X114635157Y-61009208D01*
X114588840Y-61161893D01*
X114578862Y-61263207D01*
X114573201Y-61320680D01*
X114577120Y-61360468D01*
X114577121Y-66003979D01*
X114469915Y-66164424D01*
X114391894Y-66352782D01*
X114352120Y-66552741D01*
X114352120Y-66756619D01*
X114391894Y-66956578D01*
X114453207Y-67104599D01*
X114323222Y-67130454D01*
X114134864Y-67208475D01*
X113965346Y-67321743D01*
X113951971Y-67335118D01*
X113905057Y-67264906D01*
X113760894Y-67120743D01*
X113591376Y-67007475D01*
X113403018Y-66929454D01*
X113203059Y-66889680D01*
X113048957Y-66889680D01*
X113053192Y-66846680D01*
X113050120Y-66432430D01*
X112891370Y-66273680D01*
X111967120Y-66273680D01*
X111967120Y-66293680D01*
X111713120Y-66293680D01*
X111713120Y-66273680D01*
X111693120Y-66273680D01*
X111693120Y-66019680D01*
X111713120Y-66019680D01*
X111713120Y-65999680D01*
X111967120Y-65999680D01*
X111967120Y-66019680D01*
X112891370Y-66019680D01*
X113050120Y-65860930D01*
X113053192Y-65446680D01*
X113040932Y-65322198D01*
X113004622Y-65202500D01*
X112945657Y-65092186D01*
X112914549Y-65054281D01*
X112994592Y-64904531D01*
X113045128Y-64737935D01*
X113062192Y-64564681D01*
X113062192Y-63664679D01*
X113045128Y-63491425D01*
X113001267Y-63346833D01*
X113126181Y-63371680D01*
X113330059Y-63371680D01*
X113530018Y-63331906D01*
X113718376Y-63253885D01*
X113887894Y-63140617D01*
X114032057Y-62996454D01*
X114145325Y-62826936D01*
X114223346Y-62638578D01*
X114263120Y-62438619D01*
X114263120Y-62234741D01*
X114223346Y-62034782D01*
X114145325Y-61846424D01*
X114032057Y-61676906D01*
X113887894Y-61532743D01*
X113718376Y-61419475D01*
X113530018Y-61341454D01*
X113330059Y-61301680D01*
X113126181Y-61301680D01*
X113017575Y-61323283D01*
X113011453Y-61322680D01*
X113011442Y-61322680D01*
X113003407Y-61321889D01*
X112994592Y-61292829D01*
X112918099Y-61149721D01*
X112954657Y-61105174D01*
X113013622Y-60994860D01*
X113049932Y-60875162D01*
X113062192Y-60750680D01*
X113059120Y-60336430D01*
X112900370Y-60177680D01*
X111976120Y-60177680D01*
X111976120Y-60197680D01*
X111722120Y-60197680D01*
X111722120Y-60177680D01*
X111702120Y-60177680D01*
X111702120Y-59923680D01*
X111722120Y-59923680D01*
X111722120Y-58874430D01*
X111976120Y-58874430D01*
X111976120Y-59923680D01*
X112900370Y-59923680D01*
X113059120Y-59764930D01*
X113062192Y-59350680D01*
X113049932Y-59226198D01*
X113013622Y-59106500D01*
X112954657Y-58996186D01*
X112875305Y-58899495D01*
X112778614Y-58820143D01*
X112668300Y-58761178D01*
X112548602Y-58724868D01*
X112424120Y-58712608D01*
X112134870Y-58715680D01*
X111976120Y-58874430D01*
X111722120Y-58874430D01*
X111563370Y-58715680D01*
X111274120Y-58712608D01*
X111149638Y-58724868D01*
X111029940Y-58761178D01*
X110919626Y-58820143D01*
X110822935Y-58899495D01*
X110757462Y-58979274D01*
X110752082Y-58972718D01*
X110617507Y-58862275D01*
X110463971Y-58780208D01*
X110297375Y-58729672D01*
X110124121Y-58712608D01*
X109474119Y-58712608D01*
X109300865Y-58729672D01*
X109134269Y-58780208D01*
X108980733Y-58862275D01*
X108846158Y-58972718D01*
X108735715Y-59107293D01*
X108653648Y-59260829D01*
X108603112Y-59427425D01*
X108586048Y-59600679D01*
X108586048Y-60500681D01*
X108603112Y-60673935D01*
X108653648Y-60840531D01*
X108735715Y-60994067D01*
X108795307Y-61066680D01*
X108735715Y-61139293D01*
X108664418Y-61272680D01*
X108060907Y-61272680D01*
X108021119Y-61268761D01*
X107981331Y-61272680D01*
X107981329Y-61272680D01*
X107862332Y-61284400D01*
X107709647Y-61330717D01*
X107568931Y-61405931D01*
X107445592Y-61507152D01*
X107420220Y-61538068D01*
X106968503Y-61989785D01*
X106937593Y-62015152D01*
X106901559Y-62059060D01*
X106836371Y-62138491D01*
X106775189Y-62252956D01*
X106761158Y-62279207D01*
X106714841Y-62431892D01*
X106714003Y-62440402D01*
X106699201Y-62590680D01*
X106703121Y-62630478D01*
X106703120Y-66752092D01*
X106699201Y-66791880D01*
X106703120Y-66831668D01*
X106703120Y-66831670D01*
X106714840Y-66950667D01*
X106761157Y-67103352D01*
X106791264Y-67159678D01*
X106836371Y-67244069D01*
X106867823Y-67282393D01*
X106937592Y-67367408D01*
X106968507Y-67392779D01*
X107791025Y-68215298D01*
X107816392Y-68246208D01*
X107847300Y-68271573D01*
X107939730Y-68347429D01*
X107993732Y-68376293D01*
X108080447Y-68422643D01*
X108233132Y-68468960D01*
X108241804Y-68469814D01*
X108265670Y-68493680D01*
X108420096Y-68493680D01*
X108497740Y-68535182D01*
X108617438Y-68571492D01*
X108741920Y-68583752D01*
X109941920Y-68583752D01*
X110066402Y-68571492D01*
X110186100Y-68535182D01*
X110263744Y-68493680D01*
X110418170Y-68493680D01*
X110576920Y-68334930D01*
X110566992Y-68217534D01*
X110544780Y-68145826D01*
X110567732Y-68070162D01*
X110579992Y-67945680D01*
X110579992Y-67395680D01*
X110575749Y-67352595D01*
X110608507Y-67335085D01*
X110743082Y-67224642D01*
X110748394Y-67218169D01*
X110732308Y-67271198D01*
X110720048Y-67395680D01*
X110720048Y-67945680D01*
X110732308Y-68070162D01*
X110755216Y-68145680D01*
X110732308Y-68221198D01*
X110720048Y-68345680D01*
X110720048Y-68760680D01*
X110431170Y-68760680D01*
X110418170Y-68747680D01*
X110263744Y-68747680D01*
X110186100Y-68706178D01*
X110066402Y-68669868D01*
X109941920Y-68657608D01*
X108741920Y-68657608D01*
X108617438Y-68669868D01*
X108497740Y-68706178D01*
X108420096Y-68747680D01*
X108265670Y-68747680D01*
X108106920Y-68906430D01*
X108116848Y-69023826D01*
X108139060Y-69095534D01*
X108116108Y-69171198D01*
X108103848Y-69295680D01*
X108103848Y-69845680D01*
X108116108Y-69970162D01*
X108152418Y-70089860D01*
X108211383Y-70200174D01*
X108290735Y-70296865D01*
X108387426Y-70376217D01*
X108497740Y-70435182D01*
X108531921Y-70445551D01*
X108531921Y-70747682D01*
X108528001Y-70787480D01*
X108538190Y-70890927D01*
X108543641Y-70946268D01*
X108568048Y-71026726D01*
X108568048Y-71676681D01*
X108585112Y-71849935D01*
X108635648Y-72016531D01*
X108717715Y-72170067D01*
X108828158Y-72304642D01*
X108962733Y-72415085D01*
X109116269Y-72497152D01*
X109282865Y-72547688D01*
X109456119Y-72564752D01*
X110106121Y-72564752D01*
X110279375Y-72547688D01*
X110445971Y-72497152D01*
X110599507Y-72415085D01*
X110734082Y-72304642D01*
X110739462Y-72298086D01*
X110804935Y-72377865D01*
X110901626Y-72457217D01*
X111011940Y-72516182D01*
X111131638Y-72552492D01*
X111256120Y-72564752D01*
X111545370Y-72561680D01*
X111704120Y-72402930D01*
X111704120Y-71353680D01*
X111958120Y-71353680D01*
X111958120Y-72402930D01*
X112116870Y-72561680D01*
X112406120Y-72564752D01*
X112530602Y-72552492D01*
X112650300Y-72516182D01*
X112760614Y-72457217D01*
X112857305Y-72377865D01*
X112936657Y-72281174D01*
X112995622Y-72170860D01*
X113031932Y-72051162D01*
X113044192Y-71926680D01*
X113041120Y-71512430D01*
X112882370Y-71353680D01*
X111958120Y-71353680D01*
X111704120Y-71353680D01*
X111684120Y-71353680D01*
X111684120Y-71099680D01*
X111704120Y-71099680D01*
X111704120Y-71079680D01*
X111958120Y-71079680D01*
X111958120Y-71099680D01*
X112882370Y-71099680D01*
X113041120Y-70940930D01*
X113044192Y-70526680D01*
X113031932Y-70402198D01*
X113025405Y-70380680D01*
X113140332Y-70380680D01*
X113180120Y-70384599D01*
X113219908Y-70380680D01*
X113219911Y-70380680D01*
X113301489Y-70372645D01*
X113278116Y-70449696D01*
X113267119Y-70561349D01*
X113267119Y-70561359D01*
X113263443Y-70598681D01*
X113267119Y-70636004D01*
X113267120Y-72496347D01*
X113263443Y-72533679D01*
X113267120Y-72571012D01*
X113278117Y-72682665D01*
X113285643Y-72707476D01*
X113321573Y-72825925D01*
X113392145Y-72957955D01*
X113460266Y-73040960D01*
X113487119Y-73073680D01*
X113516117Y-73097478D01*
X114548241Y-74129603D01*
X114548241Y-74490264D01*
X114546355Y-74480782D01*
X114468334Y-74292424D01*
X114355066Y-74122906D01*
X114210903Y-73978743D01*
X114041385Y-73865475D01*
X113853027Y-73787454D01*
X113663770Y-73749809D01*
X113644029Y-73730068D01*
X113618657Y-73699152D01*
X113495318Y-73597931D01*
X113354602Y-73522717D01*
X113201917Y-73476400D01*
X113082920Y-73464680D01*
X113082917Y-73464680D01*
X113043129Y-73460761D01*
X113003341Y-73464680D01*
X104439890Y-73464680D01*
X104348595Y-73328048D01*
X104141752Y-73121205D01*
X103967360Y-73004680D01*
X104141752Y-72888155D01*
X104348595Y-72681312D01*
X104511110Y-72438091D01*
X104623052Y-72167838D01*
X104680120Y-71880940D01*
X104680120Y-71588420D01*
X104623052Y-71301522D01*
X104511110Y-71031269D01*
X104348595Y-70788048D01*
X104141752Y-70581205D01*
X103898531Y-70418690D01*
X103628278Y-70306748D01*
X103341380Y-70249680D01*
X103048860Y-70249680D01*
X102761962Y-70306748D01*
X102491709Y-70418690D01*
X102248488Y-70581205D01*
X102041645Y-70788048D01*
X101879130Y-71031269D01*
X101767188Y-71301522D01*
X101710120Y-71588420D01*
X101710120Y-71880940D01*
X101767188Y-72167838D01*
X101879130Y-72438091D01*
X102041645Y-72681312D01*
X102248488Y-72888155D01*
X102422880Y-73004680D01*
X102248488Y-73121205D01*
X102041645Y-73328048D01*
X101879130Y-73571269D01*
X101767188Y-73841522D01*
X101710120Y-74128420D01*
X101710120Y-74420940D01*
X101767188Y-74707838D01*
X101879130Y-74978091D01*
X102041645Y-75221312D01*
X102248488Y-75428155D01*
X102422880Y-75544680D01*
X102248488Y-75661205D01*
X102041645Y-75868048D01*
X101879130Y-76111269D01*
X101767188Y-76381522D01*
X101710120Y-76668420D01*
X101710120Y-76960940D01*
X101767188Y-77247838D01*
X101879130Y-77518091D01*
X102041645Y-77761312D01*
X102248488Y-77968155D01*
X102430654Y-78089875D01*
X102313765Y-78159502D01*
X102097532Y-78354411D01*
X101923479Y-78587760D01*
X101798295Y-78850581D01*
X101753644Y-78997790D01*
X101874965Y-79227680D01*
X103068120Y-79227680D01*
X103068120Y-79207680D01*
X103322120Y-79207680D01*
X103322120Y-79227680D01*
X104515275Y-79227680D01*
X104636596Y-78997790D01*
X104591945Y-78850581D01*
X104466761Y-78587760D01*
X104292708Y-78354411D01*
X104076475Y-78159502D01*
X103959586Y-78089875D01*
X104141752Y-77968155D01*
X104348595Y-77761312D01*
X104511110Y-77518091D01*
X104623052Y-77247838D01*
X104646555Y-77129681D01*
X114009883Y-77129681D01*
X114049671Y-77133600D01*
X114089459Y-77129681D01*
X114089462Y-77129681D01*
X114208459Y-77117961D01*
X114361144Y-77071644D01*
X114501860Y-76996430D01*
X114548242Y-76958366D01*
X114548242Y-78663025D01*
X114500069Y-78672607D01*
X114311711Y-78750628D01*
X114142193Y-78863896D01*
X113998030Y-79008059D01*
X113884762Y-79177577D01*
X113806741Y-79365935D01*
X113766967Y-79565894D01*
X113766967Y-79769772D01*
X113806741Y-79969731D01*
X113884762Y-80158089D01*
X113998030Y-80327607D01*
X114142193Y-80471770D01*
X114311711Y-80585038D01*
X114500069Y-80663059D01*
X114700028Y-80702833D01*
X114903906Y-80702833D01*
X114958120Y-80692049D01*
X114958121Y-82362880D01*
X114958120Y-82362890D01*
X114958120Y-83909379D01*
X114840026Y-83860462D01*
X114650769Y-83822817D01*
X114600020Y-83772068D01*
X114574648Y-83741152D01*
X114451309Y-83639931D01*
X114310593Y-83564717D01*
X114157908Y-83518400D01*
X114038911Y-83506680D01*
X114038908Y-83506680D01*
X113999120Y-83502761D01*
X113959332Y-83506680D01*
X107817008Y-83506680D01*
X107812525Y-83498293D01*
X107702082Y-83363718D01*
X107614304Y-83291680D01*
X107702082Y-83219642D01*
X107812525Y-83085067D01*
X107894592Y-82931531D01*
X107945128Y-82764935D01*
X107962192Y-82591681D01*
X107962192Y-81941679D01*
X107945128Y-81768425D01*
X107894592Y-81601829D01*
X107812525Y-81448293D01*
X107702082Y-81313718D01*
X107567507Y-81203275D01*
X107413971Y-81121208D01*
X107247375Y-81070672D01*
X107074121Y-81053608D01*
X106174119Y-81053608D01*
X106000865Y-81070672D01*
X105954686Y-81084680D01*
X104439890Y-81084680D01*
X104348595Y-80948048D01*
X104141752Y-80741205D01*
X103959586Y-80619485D01*
X104076475Y-80549858D01*
X104292708Y-80354949D01*
X104466761Y-80121600D01*
X104591945Y-79858779D01*
X104636596Y-79711570D01*
X104515275Y-79481680D01*
X103322120Y-79481680D01*
X103322120Y-79501680D01*
X103068120Y-79501680D01*
X103068120Y-79481680D01*
X101874965Y-79481680D01*
X101753644Y-79711570D01*
X101798295Y-79858779D01*
X101923479Y-80121600D01*
X102097532Y-80354949D01*
X102313765Y-80549858D01*
X102430654Y-80619485D01*
X102248488Y-80741205D01*
X102041645Y-80948048D01*
X101879130Y-81191269D01*
X101767188Y-81461522D01*
X101710120Y-81748420D01*
X101710120Y-82040940D01*
X101767188Y-82327838D01*
X101879130Y-82598091D01*
X102041645Y-82841312D01*
X102173500Y-82973167D01*
X102100940Y-82995178D01*
X101990626Y-83054143D01*
X101893935Y-83133495D01*
X101814583Y-83230186D01*
X101755618Y-83340500D01*
X101719308Y-83460198D01*
X101707048Y-83584680D01*
X91508794Y-83584680D01*
X88260022Y-77957678D01*
X88366761Y-77772801D01*
X88868120Y-77772801D01*
X88868120Y-78193359D01*
X88950167Y-78605836D01*
X89111108Y-78994382D01*
X89344757Y-79344063D01*
X89642137Y-79641443D01*
X89991818Y-79875092D01*
X90380364Y-80036033D01*
X90792841Y-80118080D01*
X91213399Y-80118080D01*
X91625876Y-80036033D01*
X92014422Y-79875092D01*
X92364103Y-79641443D01*
X92661483Y-79344063D01*
X92895132Y-78994382D01*
X93056073Y-78605836D01*
X93138120Y-78193359D01*
X93138120Y-77772801D01*
X93056073Y-77360324D01*
X92895132Y-76971778D01*
X92661483Y-76622097D01*
X92364103Y-76324717D01*
X92014422Y-76091068D01*
X91625876Y-75930127D01*
X91213399Y-75848080D01*
X90792841Y-75848080D01*
X90380364Y-75930127D01*
X89991818Y-76091068D01*
X89642137Y-76324717D01*
X89344757Y-76622097D01*
X89111108Y-76971778D01*
X88950167Y-77360324D01*
X88868120Y-77772801D01*
X88366761Y-77772801D01*
X101883809Y-54360741D01*
X114860120Y-54360741D01*
X114860120Y-54564619D01*
X114899894Y-54764578D01*
X114977915Y-54952936D01*
X115085121Y-55113381D01*
X115085121Y-55611682D01*
X115081201Y-55651480D01*
X115095425Y-55795890D01*
X115096841Y-55810268D01*
X115105427Y-55838572D01*
X115114048Y-55866991D01*
X115114048Y-56383480D01*
X115126308Y-56507962D01*
X115162618Y-56627660D01*
X115221583Y-56737974D01*
X115300935Y-56834665D01*
X115397626Y-56914017D01*
X115507940Y-56972982D01*
X115627638Y-57009292D01*
X115752120Y-57021552D01*
X116302120Y-57021552D01*
X116426602Y-57009292D01*
X116502266Y-56986340D01*
X116573974Y-57008552D01*
X116691370Y-57018480D01*
X116850120Y-56859730D01*
X116850120Y-56705304D01*
X116891622Y-56627660D01*
X116927932Y-56507962D01*
X116940192Y-56383480D01*
X116940192Y-55183480D01*
X116927932Y-55058998D01*
X116891622Y-54939300D01*
X116850128Y-54861672D01*
X116890346Y-54764578D01*
X116930120Y-54564619D01*
X116930120Y-54360741D01*
X116890346Y-54160782D01*
X116812325Y-53972424D01*
X116699057Y-53802906D01*
X116554894Y-53658743D01*
X116385376Y-53545475D01*
X116197018Y-53467454D01*
X115997059Y-53427680D01*
X115793181Y-53427680D01*
X115593222Y-53467454D01*
X115404864Y-53545475D01*
X115235346Y-53658743D01*
X115091183Y-53802906D01*
X114977915Y-53972424D01*
X114899894Y-54160782D01*
X114860120Y-54360741D01*
X101883809Y-54360741D01*
X102654848Y-53025272D01*
X102720771Y-52960715D01*
X102775814Y-52924696D01*
X102836802Y-52900054D01*
X102901412Y-52887729D01*
X102967190Y-52888188D01*
X103031624Y-52901414D01*
X103092264Y-52926905D01*
X103166315Y-52976852D01*
X103166993Y-52977392D01*
X103203981Y-53006392D01*
X103231679Y-53024036D01*
X103257559Y-53044256D01*
X103265374Y-53049139D01*
X103514855Y-53202620D01*
X103568607Y-53228837D01*
X103622013Y-53255814D01*
X103630628Y-53259086D01*
X103905167Y-53361186D01*
X103963006Y-53376468D01*
X104020616Y-53392553D01*
X104029702Y-53394090D01*
X104318845Y-53440921D01*
X104378520Y-53444675D01*
X104438188Y-53449267D01*
X104447400Y-53449009D01*
X104447401Y-53449009D01*
X104740131Y-53438787D01*
X104799417Y-53430877D01*
X104858824Y-53423793D01*
X104867810Y-53421751D01*
X105152981Y-53354865D01*
X105209625Y-53335582D01*
X105266501Y-53317102D01*
X105274919Y-53313354D01*
X105541669Y-53192351D01*
X105541682Y-53192344D01*
X105570944Y-53179085D01*
X107504200Y-52062918D01*
X107506286Y-52061955D01*
X107532042Y-52046843D01*
X107558328Y-52031667D01*
X107560226Y-52030307D01*
X109476292Y-50906098D01*
X109480920Y-50902733D01*
X109519356Y-50879284D01*
X109547829Y-50857839D01*
X109578064Y-50838967D01*
X109585328Y-50833297D01*
X109812465Y-50653455D01*
X109855501Y-50611937D01*
X109899143Y-50570996D01*
X109905168Y-50564023D01*
X109965503Y-50493201D01*
X136112120Y-50493201D01*
X136112120Y-50913759D01*
X136194167Y-51326236D01*
X136355108Y-51714782D01*
X136588757Y-52064463D01*
X136886137Y-52361843D01*
X137235818Y-52595492D01*
X137624364Y-52756433D01*
X138036841Y-52838480D01*
X138457399Y-52838480D01*
X138869876Y-52756433D01*
X139258422Y-52595492D01*
X139608103Y-52361843D01*
X139905483Y-52064463D01*
X140139132Y-51714782D01*
X140300073Y-51326236D01*
X140382120Y-50913759D01*
X140382120Y-50493201D01*
X140300073Y-50080724D01*
X140139132Y-49692178D01*
X139905483Y-49342497D01*
X139608103Y-49045117D01*
X139258422Y-48811468D01*
X138869876Y-48650527D01*
X138457399Y-48568480D01*
X138036841Y-48568480D01*
X137624364Y-48650527D01*
X137235818Y-48811468D01*
X136886137Y-49045117D01*
X136588757Y-49342497D01*
X136355108Y-49692178D01*
X136194167Y-50080724D01*
X136112120Y-50493201D01*
X109965503Y-50493201D01*
X110093048Y-50343488D01*
X110127202Y-50294398D01*
X110162059Y-50245763D01*
X110166614Y-50237752D01*
X110308080Y-49984924D01*
X110332044Y-49930147D01*
X110356795Y-49875657D01*
X110359708Y-49866914D01*
X110449371Y-49591424D01*
X110462236Y-49533051D01*
X110475935Y-49474776D01*
X110477094Y-49465634D01*
X110511541Y-49177975D01*
X110512823Y-49118182D01*
X110514942Y-49058387D01*
X110514303Y-49049194D01*
X110492220Y-48760322D01*
X110492217Y-48760303D01*
X110492195Y-48759994D01*
X110482184Y-48629885D01*
X110489972Y-48564573D01*
X110510299Y-48502014D01*
X110542388Y-48444597D01*
X110585023Y-48394500D01*
X110636571Y-48353644D01*
X110695072Y-48323579D01*
X110752970Y-48306977D01*
X139616873Y-48306980D01*
G37*
X139616873Y-48306980D02*
X154020157Y-73254055D01*
X154031801Y-73299406D01*
X154035474Y-73365085D01*
X154026320Y-73430219D01*
X154004686Y-73492341D01*
X153971400Y-73549076D01*
X153927730Y-73598262D01*
X153875334Y-73638034D01*
X153795063Y-73677185D01*
X153794238Y-73677510D01*
X153750629Y-73695043D01*
X153721501Y-73710208D01*
X153691058Y-73722508D01*
X153682921Y-73726834D01*
X153425263Y-73866150D01*
X153375662Y-73899606D01*
X153325615Y-73932356D01*
X153318474Y-73938180D01*
X153092783Y-74124890D01*
X153050644Y-74167324D01*
X153007895Y-74209187D01*
X153002021Y-74216287D01*
X152816893Y-74443276D01*
X152783792Y-74493098D01*
X152749993Y-74542460D01*
X152745610Y-74550566D01*
X152608097Y-74809192D01*
X152585318Y-74864458D01*
X152561736Y-74919479D01*
X152559012Y-74928282D01*
X152474352Y-75208691D01*
X152462732Y-75267379D01*
X152450296Y-75325882D01*
X152449333Y-75335046D01*
X152420750Y-75626560D01*
X152417600Y-75658546D01*
X152417602Y-77890855D01*
X152417391Y-77893163D01*
X152417602Y-77923283D01*
X152417602Y-77953377D01*
X152417829Y-77955681D01*
X152433177Y-80146859D01*
X152433175Y-80146878D01*
X152433178Y-80147058D01*
X152433389Y-80177167D01*
X152433979Y-80182758D01*
X152435071Y-80227875D01*
X152439406Y-80263246D01*
X152440632Y-80298875D01*
X152441911Y-80308002D01*
X152484092Y-80594629D01*
X152498535Y-80652681D01*
X152512165Y-80710922D01*
X152515191Y-80719626D01*
X152612241Y-80992604D01*
X152637688Y-81046751D01*
X152662369Y-81101232D01*
X152667029Y-81109183D01*
X152815253Y-81358109D01*
X152850703Y-81406242D01*
X152885523Y-81454930D01*
X152891638Y-81461824D01*
X153085390Y-81677221D01*
X153129520Y-81717558D01*
X153173130Y-81758551D01*
X153180468Y-81764126D01*
X153412367Y-81937787D01*
X153463516Y-81968798D01*
X153514232Y-82000524D01*
X153522512Y-82004568D01*
X153783726Y-82129879D01*
X153783745Y-82129886D01*
X153784020Y-82130020D01*
X153901703Y-82186404D01*
X153954368Y-82225803D01*
X153998386Y-82274690D01*
X154032064Y-82331183D01*
X154054130Y-82393153D01*
X154063739Y-82458228D01*
X154060526Y-82523924D01*
X154044430Y-82588478D01*
X154044024Y-82589323D01*
X154029792Y-82644619D01*
X139616871Y-107608380D01*
X127735880Y-107608380D01*
X127735880Y-106987381D01*
X127739073Y-106954962D01*
X127726330Y-106825579D01*
X127688590Y-106701169D01*
X127627305Y-106586512D01*
X127544828Y-106486014D01*
X127444330Y-106403537D01*
X127329673Y-106342252D01*
X127205263Y-106304512D01*
X127108299Y-106294962D01*
X127075880Y-106291769D01*
X127043461Y-106294962D01*
X125095879Y-106294962D01*
X125187437Y-106073922D01*
X125244120Y-105788955D01*
X125244120Y-105498405D01*
X125187437Y-105213438D01*
X125099691Y-105001601D01*
X136112120Y-105001601D01*
X136112120Y-105422159D01*
X136194167Y-105834636D01*
X136355108Y-106223182D01*
X136588757Y-106572863D01*
X136886137Y-106870243D01*
X137235818Y-107103892D01*
X137624364Y-107264833D01*
X138036841Y-107346880D01*
X138457399Y-107346880D01*
X138869876Y-107264833D01*
X139258422Y-107103892D01*
X139608103Y-106870243D01*
X139905483Y-106572863D01*
X140139132Y-106223182D01*
X140300073Y-105834636D01*
X140382120Y-105422159D01*
X140382120Y-105001601D01*
X140300073Y-104589124D01*
X140139132Y-104200578D01*
X139905483Y-103850897D01*
X139608103Y-103553517D01*
X139258422Y-103319868D01*
X138869876Y-103158927D01*
X138457399Y-103076880D01*
X138036841Y-103076880D01*
X137624364Y-103158927D01*
X137235818Y-103319868D01*
X136886137Y-103553517D01*
X136588757Y-103850897D01*
X136355108Y-104200578D01*
X136194167Y-104589124D01*
X136112120Y-105001601D01*
X125099691Y-105001601D01*
X125076248Y-104945005D01*
X124914827Y-104703422D01*
X124709378Y-104497973D01*
X124467795Y-104336552D01*
X124199362Y-104225363D01*
X123914395Y-104168680D01*
X123623845Y-104168680D01*
X123338878Y-104225363D01*
X123070445Y-104336552D01*
X122828862Y-104497973D01*
X122623413Y-104703422D01*
X122499120Y-104889439D01*
X122374827Y-104703422D01*
X122169378Y-104497973D01*
X121927795Y-104336552D01*
X121659362Y-104225363D01*
X121374395Y-104168680D01*
X121083845Y-104168680D01*
X120798878Y-104225363D01*
X120530445Y-104336552D01*
X120288862Y-104497973D01*
X120083413Y-104703422D01*
X119921992Y-104945005D01*
X119810803Y-105213438D01*
X119754120Y-105498405D01*
X119754120Y-105788955D01*
X119810803Y-106073922D01*
X119902361Y-106294962D01*
X117964291Y-106294962D01*
X117931879Y-106291770D01*
X117899470Y-106294962D01*
X117899460Y-106294962D01*
X117802496Y-106304512D01*
X117678086Y-106342252D01*
X117563429Y-106403537D01*
X117462931Y-106486014D01*
X117380454Y-106586512D01*
X117319169Y-106701169D01*
X117281429Y-106825579D01*
X117268686Y-106954962D01*
X117271879Y-106987382D01*
X117271880Y-107608378D01*
X110829877Y-107608382D01*
X110743828Y-107584357D01*
X110685116Y-107554699D01*
X110633282Y-107514202D01*
X110590302Y-107464409D01*
X110557811Y-107407215D01*
X110537048Y-107344799D01*
X110528804Y-107279538D01*
X110535036Y-107190408D01*
X110535161Y-107189572D01*
X110541782Y-107143039D01*
X110543212Y-107110232D01*
X110547782Y-107077718D01*
X110548104Y-107068508D01*
X110556283Y-106775713D01*
X110552111Y-106716059D01*
X110548771Y-106656311D01*
X110547297Y-106647214D01*
X110498448Y-106358405D01*
X110482768Y-106300695D01*
X110467888Y-106242739D01*
X110464675Y-106234102D01*
X110360661Y-105960282D01*
X110334054Y-105906683D01*
X110308217Y-105852756D01*
X110303388Y-105844908D01*
X110148169Y-105596505D01*
X110111673Y-105549114D01*
X110075837Y-105501211D01*
X110069576Y-105494449D01*
X109869065Y-105280927D01*
X109824062Y-105241530D01*
X109779603Y-105201499D01*
X109772147Y-105196083D01*
X109533981Y-105025572D01*
X109533975Y-105025569D01*
X109507855Y-105006851D01*
X107574616Y-103890695D01*
X107572722Y-103889358D01*
X107546521Y-103874475D01*
X107520470Y-103859434D01*
X107518362Y-103858479D01*
X105586722Y-102761213D01*
X105581501Y-102758891D01*
X105541961Y-102737321D01*
X105509162Y-102723389D01*
X105477694Y-102706637D01*
X105469151Y-102703181D01*
X105199834Y-102596396D01*
X105142302Y-102579868D01*
X105085082Y-102562561D01*
X105076036Y-102560831D01*
X105076032Y-102560830D01*
X105076028Y-102560830D01*
X104791102Y-102508390D01*
X104731492Y-102503355D01*
X104671966Y-102497488D01*
X104662751Y-102497548D01*
X104662749Y-102497548D01*
X104373062Y-102501449D01*
X104313648Y-102508084D01*
X104254074Y-102513895D01*
X104245046Y-102515744D01*
X103961633Y-102575839D01*
X103904636Y-102593889D01*
X103847330Y-102611159D01*
X103838833Y-102614726D01*
X103572490Y-102728725D01*
X103520053Y-102757519D01*
X103467226Y-102785574D01*
X103459584Y-102790723D01*
X103220455Y-102954284D01*
X103220434Y-102954302D01*
X103220186Y-102954469D01*
X103112517Y-103028191D01*
X103052056Y-103054105D01*
X102987715Y-103067781D01*
X102921945Y-103068699D01*
X102857245Y-103056824D01*
X102796091Y-103032612D01*
X102740800Y-102996980D01*
X102686019Y-102944078D01*
X91508794Y-83584680D01*
X101707048Y-83584680D01*
X101707048Y-85284680D01*
X101719308Y-85409162D01*
X101755618Y-85528860D01*
X101814583Y-85639174D01*
X101893935Y-85735865D01*
X101990626Y-85815217D01*
X102100940Y-85874182D01*
X102220638Y-85910492D01*
X102345120Y-85922752D01*
X104045120Y-85922752D01*
X104169602Y-85910492D01*
X104289300Y-85874182D01*
X104399614Y-85815217D01*
X104496305Y-85735865D01*
X104575657Y-85639174D01*
X104634622Y-85528860D01*
X104670932Y-85409162D01*
X104683192Y-85284680D01*
X104683192Y-85126680D01*
X105431232Y-85126680D01*
X105435715Y-85135067D01*
X105546158Y-85269642D01*
X105680733Y-85380085D01*
X105834269Y-85462152D01*
X106000865Y-85512688D01*
X106174119Y-85529752D01*
X107074121Y-85529752D01*
X107247375Y-85512688D01*
X107413971Y-85462152D01*
X107567507Y-85380085D01*
X107702082Y-85269642D01*
X107812525Y-85135067D01*
X107817008Y-85126680D01*
X113536754Y-85126680D01*
X113542902Y-85157586D01*
X113620923Y-85345944D01*
X113734191Y-85515462D01*
X113878354Y-85659625D01*
X114047872Y-85772893D01*
X114236230Y-85850914D01*
X114436189Y-85890688D01*
X114640067Y-85890688D01*
X114840026Y-85850914D01*
X114958121Y-85801997D01*
X114958121Y-86037680D01*
X111870907Y-86037680D01*
X111831119Y-86033761D01*
X111791331Y-86037680D01*
X111791329Y-86037680D01*
X111672332Y-86049400D01*
X111519647Y-86095717D01*
X111378931Y-86170931D01*
X111255592Y-86272152D01*
X111230225Y-86303062D01*
X110939837Y-86593450D01*
X110856954Y-86559119D01*
X110492776Y-86486680D01*
X110121464Y-86486680D01*
X109757286Y-86559119D01*
X109414238Y-86701214D01*
X109105502Y-86907505D01*
X108842945Y-87170062D01*
X108636654Y-87478798D01*
X108494559Y-87821846D01*
X108422120Y-88186024D01*
X108422120Y-88557336D01*
X108494559Y-88921514D01*
X108636654Y-89264562D01*
X108842945Y-89573298D01*
X109105502Y-89835855D01*
X109414238Y-90042146D01*
X109757286Y-90184241D01*
X109902773Y-90213180D01*
X109757286Y-90242119D01*
X109414238Y-90384214D01*
X109105502Y-90590505D01*
X108842945Y-90853062D01*
X108636654Y-91161798D01*
X108494559Y-91504846D01*
X108422120Y-91869024D01*
X108422120Y-92240336D01*
X108494559Y-92604514D01*
X108636654Y-92947562D01*
X108842945Y-93256298D01*
X109105502Y-93518855D01*
X109414238Y-93725146D01*
X109757286Y-93867241D01*
X110121464Y-93939680D01*
X110492776Y-93939680D01*
X110856954Y-93867241D01*
X111200002Y-93725146D01*
X111508738Y-93518855D01*
X111771295Y-93256298D01*
X111977586Y-92947562D01*
X112011917Y-92864680D01*
X112299332Y-92864680D01*
X112339120Y-92868599D01*
X112378908Y-92864680D01*
X112378911Y-92864680D01*
X112497908Y-92852960D01*
X112650593Y-92806643D01*
X112791309Y-92731429D01*
X112914648Y-92630208D01*
X112940019Y-92599293D01*
X114299705Y-91239607D01*
X116145395Y-93085298D01*
X116170762Y-93116208D01*
X116243198Y-93175654D01*
X116294101Y-93217429D01*
X116434816Y-93292643D01*
X116461311Y-93300680D01*
X116587502Y-93338960D01*
X116706499Y-93350680D01*
X116706502Y-93350680D01*
X116746290Y-93354599D01*
X116786078Y-93350680D01*
X117245548Y-93350680D01*
X117245548Y-93415680D01*
X117255397Y-93515680D01*
X117245548Y-93615680D01*
X117245548Y-94065680D01*
X117257808Y-94190162D01*
X117294118Y-94309860D01*
X117353083Y-94420174D01*
X117432435Y-94516865D01*
X117529126Y-94596217D01*
X117639440Y-94655182D01*
X117759138Y-94691492D01*
X117879121Y-94703309D01*
X117879120Y-98769980D01*
X117771915Y-98930424D01*
X117693894Y-99118782D01*
X117654120Y-99318741D01*
X117654120Y-99522619D01*
X117693894Y-99722578D01*
X117771915Y-99910936D01*
X117885183Y-100080454D01*
X118029346Y-100224617D01*
X118198864Y-100337885D01*
X118387222Y-100415906D01*
X118587181Y-100455680D01*
X118791059Y-100455680D01*
X118991018Y-100415906D01*
X119179376Y-100337885D01*
X119348894Y-100224617D01*
X119493057Y-100080454D01*
X119606325Y-99910936D01*
X119684346Y-99722578D01*
X119724120Y-99522619D01*
X119724120Y-99318741D01*
X119684346Y-99118782D01*
X119606325Y-98930424D01*
X119499120Y-98769980D01*
X119499120Y-94703752D01*
X120383620Y-94703752D01*
X120508102Y-94691492D01*
X120627800Y-94655182D01*
X120738114Y-94596217D01*
X120834805Y-94516865D01*
X120870634Y-94473207D01*
X121054120Y-94656693D01*
X121054120Y-94705978D01*
X120946915Y-94866423D01*
X120868894Y-95054781D01*
X120829120Y-95254740D01*
X120829120Y-95458618D01*
X120868894Y-95658577D01*
X120946915Y-95846935D01*
X121060183Y-96016453D01*
X121194509Y-96150779D01*
X120557507Y-96787781D01*
X120526592Y-96813152D01*
X120456823Y-96898167D01*
X120425371Y-96936491D01*
X120385169Y-97011705D01*
X120350157Y-97077208D01*
X120303840Y-97229893D01*
X120299721Y-97271717D01*
X120288201Y-97388680D01*
X120292120Y-97428468D01*
X120292120Y-97983890D01*
X120292121Y-100293979D01*
X120184915Y-100454424D01*
X120106894Y-100642782D01*
X120067120Y-100842741D01*
X120067120Y-101046619D01*
X120106894Y-101246578D01*
X120184915Y-101434936D01*
X120298183Y-101604454D01*
X120442346Y-101748617D01*
X120611864Y-101861885D01*
X120800222Y-101939906D01*
X121000181Y-101979680D01*
X121204059Y-101979680D01*
X121404018Y-101939906D01*
X121592376Y-101861885D01*
X121761894Y-101748617D01*
X121906057Y-101604454D01*
X122019325Y-101434936D01*
X122097346Y-101246578D01*
X122137120Y-101046619D01*
X122137120Y-100842741D01*
X122097346Y-100642782D01*
X122019325Y-100454424D01*
X121912120Y-100293980D01*
X121912120Y-97724192D01*
X123932738Y-95703575D01*
X123963648Y-95678208D01*
X124035480Y-95590680D01*
X124064869Y-95554870D01*
X124140082Y-95414154D01*
X124140083Y-95414153D01*
X124186400Y-95261468D01*
X124198120Y-95142471D01*
X124198120Y-95142469D01*
X124202039Y-95102681D01*
X124198120Y-95062893D01*
X124198120Y-94871692D01*
X124596606Y-94473207D01*
X124632435Y-94516865D01*
X124729126Y-94596217D01*
X124839440Y-94655182D01*
X124959138Y-94691492D01*
X125083620Y-94703752D01*
X127583620Y-94703752D01*
X127708102Y-94691492D01*
X127827800Y-94655182D01*
X127836223Y-94650680D01*
X128928332Y-94650680D01*
X128968120Y-94654599D01*
X129007908Y-94650680D01*
X129007911Y-94650680D01*
X129126908Y-94638960D01*
X129279593Y-94592643D01*
X129420309Y-94517429D01*
X129543648Y-94416208D01*
X129569019Y-94385293D01*
X130739762Y-93214551D01*
X130929018Y-93176906D01*
X131117376Y-93098885D01*
X131286894Y-92985617D01*
X131431057Y-92841454D01*
X131544325Y-92671936D01*
X131622346Y-92483578D01*
X131662120Y-92283619D01*
X131662120Y-92115681D01*
X132153811Y-92115681D01*
X131965502Y-92241505D01*
X131702945Y-92504062D01*
X131496654Y-92812798D01*
X131354559Y-93155846D01*
X131282120Y-93520024D01*
X131282120Y-93891336D01*
X131354559Y-94255514D01*
X131496654Y-94598562D01*
X131702945Y-94907298D01*
X131965502Y-95169855D01*
X132274238Y-95376146D01*
X132617286Y-95518241D01*
X132981464Y-95590680D01*
X133352776Y-95590680D01*
X133716954Y-95518241D01*
X134060002Y-95376146D01*
X134368738Y-95169855D01*
X134631295Y-94907298D01*
X134837586Y-94598562D01*
X134979681Y-94255514D01*
X135052120Y-93891336D01*
X135052120Y-93520024D01*
X134979681Y-93155846D01*
X134837586Y-92812798D01*
X134631295Y-92504062D01*
X134368738Y-92241505D01*
X134180429Y-92115681D01*
X134638331Y-92115681D01*
X134678119Y-92119600D01*
X134717907Y-92115681D01*
X134717910Y-92115681D01*
X134836907Y-92103961D01*
X134989592Y-92057644D01*
X135130308Y-91982430D01*
X135253647Y-91881209D01*
X135279019Y-91850293D01*
X142728738Y-84400575D01*
X142759648Y-84375208D01*
X142860869Y-84251869D01*
X142936083Y-84111153D01*
X142982400Y-83958468D01*
X142994120Y-83839471D01*
X142994120Y-83839469D01*
X142998039Y-83799681D01*
X142994120Y-83759893D01*
X142994120Y-63900467D01*
X142998039Y-63860679D01*
X142993462Y-63814209D01*
X142982400Y-63701892D01*
X142936083Y-63549207D01*
X142860869Y-63408491D01*
X142759648Y-63285152D01*
X142728739Y-63259786D01*
X142181334Y-62712382D01*
X142176043Y-62705935D01*
X142137649Y-62659151D01*
X142106740Y-62633785D01*
X134897022Y-55424068D01*
X134871650Y-55393152D01*
X134748311Y-55291931D01*
X134607595Y-55216717D01*
X134454910Y-55170400D01*
X134335913Y-55158680D01*
X134335910Y-55158680D01*
X134296122Y-55154761D01*
X134256334Y-55158680D01*
X129026008Y-55158680D01*
X129021525Y-55150293D01*
X128911082Y-55015718D01*
X128776507Y-54905275D01*
X128622971Y-54823208D01*
X128456375Y-54772672D01*
X128283121Y-54755608D01*
X127383119Y-54755608D01*
X127209865Y-54772672D01*
X127043269Y-54823208D01*
X126889733Y-54905275D01*
X126817120Y-54964867D01*
X126744507Y-54905275D01*
X126590971Y-54823208D01*
X126424375Y-54772672D01*
X126251121Y-54755608D01*
X125351119Y-54755608D01*
X125177865Y-54772672D01*
X125011269Y-54823208D01*
X124857733Y-54905275D01*
X124785120Y-54964867D01*
X124712507Y-54905275D01*
X124558971Y-54823208D01*
X124392375Y-54772672D01*
X124219121Y-54755608D01*
X123319119Y-54755608D01*
X123145865Y-54772672D01*
X122979269Y-54823208D01*
X122825733Y-54905275D01*
X122753120Y-54964867D01*
X122680507Y-54905275D01*
X122547120Y-54833978D01*
X122547120Y-54502447D01*
X122551039Y-54462659D01*
X122545544Y-54406869D01*
X122535400Y-54303872D01*
X122489083Y-54151187D01*
X122436565Y-54052932D01*
X122413869Y-54010470D01*
X122382645Y-53972424D01*
X122312648Y-53887132D01*
X122281732Y-53861760D01*
X122262011Y-53842039D01*
X122224366Y-53652782D01*
X122146345Y-53464424D01*
X122033077Y-53294906D01*
X121888914Y-53150743D01*
X121719396Y-53037475D01*
X121531038Y-52959454D01*
X121331079Y-52919680D01*
X121127201Y-52919680D01*
X120927242Y-52959454D01*
X120738884Y-53037475D01*
X120569366Y-53150743D01*
X120425203Y-53294906D01*
X120311935Y-53464424D01*
X120233914Y-53652782D01*
X120194140Y-53852741D01*
X120194140Y-54056619D01*
X120233914Y-54256578D01*
X120311935Y-54444936D01*
X120425203Y-54614454D01*
X120569366Y-54758617D01*
X120627786Y-54797652D01*
X120529602Y-54767868D01*
X120405120Y-54755608D01*
X119990870Y-54758680D01*
X119832120Y-54917430D01*
X119832120Y-55841680D01*
X119852120Y-55841680D01*
X119852120Y-56095680D01*
X119832120Y-56095680D01*
X119832120Y-56115680D01*
X119578120Y-56115680D01*
X119578120Y-56095680D01*
X119558120Y-56095680D01*
X119558120Y-55841680D01*
X119578120Y-55841680D01*
X119578120Y-54917430D01*
X119470120Y-54809430D01*
X119470120Y-54627741D01*
X119430346Y-54427782D01*
X119352325Y-54239424D01*
X119239057Y-54069906D01*
X119094894Y-53925743D01*
X118925376Y-53812475D01*
X118737018Y-53734454D01*
X118537059Y-53694680D01*
X118333181Y-53694680D01*
X118133222Y-53734454D01*
X117944864Y-53812475D01*
X117775346Y-53925743D01*
X117631183Y-54069906D01*
X117517915Y-54239424D01*
X117439894Y-54427782D01*
X117411958Y-54568225D01*
X117380266Y-54558408D01*
X117262870Y-54548480D01*
X117104120Y-54707230D01*
X117104120Y-54861656D01*
X117062618Y-54939300D01*
X117026308Y-55058998D01*
X117014048Y-55183480D01*
X117014048Y-56383480D01*
X117026308Y-56507962D01*
X117062618Y-56627660D01*
X117104120Y-56705304D01*
X117104120Y-56859730D01*
X117262870Y-57018480D01*
X117380266Y-57008552D01*
X117451974Y-56986340D01*
X117527638Y-57009292D01*
X117652120Y-57021552D01*
X118202120Y-57021552D01*
X118326602Y-57009292D01*
X118446300Y-56972982D01*
X118508633Y-56939664D01*
X118553935Y-56994865D01*
X118633714Y-57060338D01*
X118627158Y-57065718D01*
X118516715Y-57200293D01*
X118496958Y-57237256D01*
X118446300Y-57210178D01*
X118326602Y-57173868D01*
X118202120Y-57161608D01*
X117652120Y-57161608D01*
X117527638Y-57173868D01*
X117452120Y-57196776D01*
X117376602Y-57173868D01*
X117252120Y-57161608D01*
X116702120Y-57161608D01*
X116577638Y-57173868D01*
X116502120Y-57196776D01*
X116426602Y-57173868D01*
X116302120Y-57161608D01*
X115752120Y-57161608D01*
X115627638Y-57173868D01*
X115507940Y-57210178D01*
X115397626Y-57269143D01*
X115300935Y-57348495D01*
X115221583Y-57445186D01*
X115162618Y-57555500D01*
X115126308Y-57675198D01*
X115114048Y-57799680D01*
X115114048Y-58999680D01*
X115126308Y-59124162D01*
X115162618Y-59243860D01*
X115221583Y-59354174D01*
X115300935Y-59450865D01*
X115359342Y-59498799D01*
X115381823Y-59526191D01*
X115404621Y-59553971D01*
X115404622Y-60157666D01*
X114842507Y-60719781D01*
X114811592Y-60745152D01*
X114747937Y-60822717D01*
X114710371Y-60868491D01*
X114694635Y-60897932D01*
X114635157Y-61009208D01*
X114588840Y-61161893D01*
X114578862Y-61263207D01*
X114573201Y-61320680D01*
X114577120Y-61360468D01*
X114577121Y-66003979D01*
X114469915Y-66164424D01*
X114391894Y-66352782D01*
X114352120Y-66552741D01*
X114352120Y-66756619D01*
X114391894Y-66956578D01*
X114453207Y-67104599D01*
X114323222Y-67130454D01*
X114134864Y-67208475D01*
X113965346Y-67321743D01*
X113951971Y-67335118D01*
X113905057Y-67264906D01*
X113760894Y-67120743D01*
X113591376Y-67007475D01*
X113403018Y-66929454D01*
X113203059Y-66889680D01*
X113048957Y-66889680D01*
X113053192Y-66846680D01*
X113050120Y-66432430D01*
X112891370Y-66273680D01*
X111967120Y-66273680D01*
X111967120Y-66293680D01*
X111713120Y-66293680D01*
X111713120Y-66273680D01*
X111693120Y-66273680D01*
X111693120Y-66019680D01*
X111713120Y-66019680D01*
X111713120Y-65999680D01*
X111967120Y-65999680D01*
X111967120Y-66019680D01*
X112891370Y-66019680D01*
X113050120Y-65860930D01*
X113053192Y-65446680D01*
X113040932Y-65322198D01*
X113004622Y-65202500D01*
X112945657Y-65092186D01*
X112914549Y-65054281D01*
X112994592Y-64904531D01*
X113045128Y-64737935D01*
X113062192Y-64564681D01*
X113062192Y-63664679D01*
X113045128Y-63491425D01*
X113001267Y-63346833D01*
X113126181Y-63371680D01*
X113330059Y-63371680D01*
X113530018Y-63331906D01*
X113718376Y-63253885D01*
X113887894Y-63140617D01*
X114032057Y-62996454D01*
X114145325Y-62826936D01*
X114223346Y-62638578D01*
X114263120Y-62438619D01*
X114263120Y-62234741D01*
X114223346Y-62034782D01*
X114145325Y-61846424D01*
X114032057Y-61676906D01*
X113887894Y-61532743D01*
X113718376Y-61419475D01*
X113530018Y-61341454D01*
X113330059Y-61301680D01*
X113126181Y-61301680D01*
X113017575Y-61323283D01*
X113011453Y-61322680D01*
X113011442Y-61322680D01*
X113003407Y-61321889D01*
X112994592Y-61292829D01*
X112918099Y-61149721D01*
X112954657Y-61105174D01*
X113013622Y-60994860D01*
X113049932Y-60875162D01*
X113062192Y-60750680D01*
X113059120Y-60336430D01*
X112900370Y-60177680D01*
X111976120Y-60177680D01*
X111976120Y-60197680D01*
X111722120Y-60197680D01*
X111722120Y-60177680D01*
X111702120Y-60177680D01*
X111702120Y-59923680D01*
X111722120Y-59923680D01*
X111722120Y-58874430D01*
X111976120Y-58874430D01*
X111976120Y-59923680D01*
X112900370Y-59923680D01*
X113059120Y-59764930D01*
X113062192Y-59350680D01*
X113049932Y-59226198D01*
X113013622Y-59106500D01*
X112954657Y-58996186D01*
X112875305Y-58899495D01*
X112778614Y-58820143D01*
X112668300Y-58761178D01*
X112548602Y-58724868D01*
X112424120Y-58712608D01*
X112134870Y-58715680D01*
X111976120Y-58874430D01*
X111722120Y-58874430D01*
X111563370Y-58715680D01*
X111274120Y-58712608D01*
X111149638Y-58724868D01*
X111029940Y-58761178D01*
X110919626Y-58820143D01*
X110822935Y-58899495D01*
X110757462Y-58979274D01*
X110752082Y-58972718D01*
X110617507Y-58862275D01*
X110463971Y-58780208D01*
X110297375Y-58729672D01*
X110124121Y-58712608D01*
X109474119Y-58712608D01*
X109300865Y-58729672D01*
X109134269Y-58780208D01*
X108980733Y-58862275D01*
X108846158Y-58972718D01*
X108735715Y-59107293D01*
X108653648Y-59260829D01*
X108603112Y-59427425D01*
X108586048Y-59600679D01*
X108586048Y-60500681D01*
X108603112Y-60673935D01*
X108653648Y-60840531D01*
X108735715Y-60994067D01*
X108795307Y-61066680D01*
X108735715Y-61139293D01*
X108664418Y-61272680D01*
X108060907Y-61272680D01*
X108021119Y-61268761D01*
X107981331Y-61272680D01*
X107981329Y-61272680D01*
X107862332Y-61284400D01*
X107709647Y-61330717D01*
X107568931Y-61405931D01*
X107445592Y-61507152D01*
X107420220Y-61538068D01*
X106968503Y-61989785D01*
X106937593Y-62015152D01*
X106901559Y-62059060D01*
X106836371Y-62138491D01*
X106775189Y-62252956D01*
X106761158Y-62279207D01*
X106714841Y-62431892D01*
X106714003Y-62440402D01*
X106699201Y-62590680D01*
X106703121Y-62630478D01*
X106703120Y-66752092D01*
X106699201Y-66791880D01*
X106703120Y-66831668D01*
X106703120Y-66831670D01*
X106714840Y-66950667D01*
X106761157Y-67103352D01*
X106791264Y-67159678D01*
X106836371Y-67244069D01*
X106867823Y-67282393D01*
X106937592Y-67367408D01*
X106968507Y-67392779D01*
X107791025Y-68215298D01*
X107816392Y-68246208D01*
X107847300Y-68271573D01*
X107939730Y-68347429D01*
X107993732Y-68376293D01*
X108080447Y-68422643D01*
X108233132Y-68468960D01*
X108241804Y-68469814D01*
X108265670Y-68493680D01*
X108420096Y-68493680D01*
X108497740Y-68535182D01*
X108617438Y-68571492D01*
X108741920Y-68583752D01*
X109941920Y-68583752D01*
X110066402Y-68571492D01*
X110186100Y-68535182D01*
X110263744Y-68493680D01*
X110418170Y-68493680D01*
X110576920Y-68334930D01*
X110566992Y-68217534D01*
X110544780Y-68145826D01*
X110567732Y-68070162D01*
X110579992Y-67945680D01*
X110579992Y-67395680D01*
X110575749Y-67352595D01*
X110608507Y-67335085D01*
X110743082Y-67224642D01*
X110748394Y-67218169D01*
X110732308Y-67271198D01*
X110720048Y-67395680D01*
X110720048Y-67945680D01*
X110732308Y-68070162D01*
X110755216Y-68145680D01*
X110732308Y-68221198D01*
X110720048Y-68345680D01*
X110720048Y-68760680D01*
X110431170Y-68760680D01*
X110418170Y-68747680D01*
X110263744Y-68747680D01*
X110186100Y-68706178D01*
X110066402Y-68669868D01*
X109941920Y-68657608D01*
X108741920Y-68657608D01*
X108617438Y-68669868D01*
X108497740Y-68706178D01*
X108420096Y-68747680D01*
X108265670Y-68747680D01*
X108106920Y-68906430D01*
X108116848Y-69023826D01*
X108139060Y-69095534D01*
X108116108Y-69171198D01*
X108103848Y-69295680D01*
X108103848Y-69845680D01*
X108116108Y-69970162D01*
X108152418Y-70089860D01*
X108211383Y-70200174D01*
X108290735Y-70296865D01*
X108387426Y-70376217D01*
X108497740Y-70435182D01*
X108531921Y-70445551D01*
X108531921Y-70747682D01*
X108528001Y-70787480D01*
X108538190Y-70890927D01*
X108543641Y-70946268D01*
X108568048Y-71026726D01*
X108568048Y-71676681D01*
X108585112Y-71849935D01*
X108635648Y-72016531D01*
X108717715Y-72170067D01*
X108828158Y-72304642D01*
X108962733Y-72415085D01*
X109116269Y-72497152D01*
X109282865Y-72547688D01*
X109456119Y-72564752D01*
X110106121Y-72564752D01*
X110279375Y-72547688D01*
X110445971Y-72497152D01*
X110599507Y-72415085D01*
X110734082Y-72304642D01*
X110739462Y-72298086D01*
X110804935Y-72377865D01*
X110901626Y-72457217D01*
X111011940Y-72516182D01*
X111131638Y-72552492D01*
X111256120Y-72564752D01*
X111545370Y-72561680D01*
X111704120Y-72402930D01*
X111704120Y-71353680D01*
X111958120Y-71353680D01*
X111958120Y-72402930D01*
X112116870Y-72561680D01*
X112406120Y-72564752D01*
X112530602Y-72552492D01*
X112650300Y-72516182D01*
X112760614Y-72457217D01*
X112857305Y-72377865D01*
X112936657Y-72281174D01*
X112995622Y-72170860D01*
X113031932Y-72051162D01*
X113044192Y-71926680D01*
X113041120Y-71512430D01*
X112882370Y-71353680D01*
X111958120Y-71353680D01*
X111704120Y-71353680D01*
X111684120Y-71353680D01*
X111684120Y-71099680D01*
X111704120Y-71099680D01*
X111704120Y-71079680D01*
X111958120Y-71079680D01*
X111958120Y-71099680D01*
X112882370Y-71099680D01*
X113041120Y-70940930D01*
X113044192Y-70526680D01*
X113031932Y-70402198D01*
X113025405Y-70380680D01*
X113140332Y-70380680D01*
X113180120Y-70384599D01*
X113219908Y-70380680D01*
X113219911Y-70380680D01*
X113301489Y-70372645D01*
X113278116Y-70449696D01*
X113267119Y-70561349D01*
X113267119Y-70561359D01*
X113263443Y-70598681D01*
X113267119Y-70636004D01*
X113267120Y-72496347D01*
X113263443Y-72533679D01*
X113267120Y-72571012D01*
X113278117Y-72682665D01*
X113285643Y-72707476D01*
X113321573Y-72825925D01*
X113392145Y-72957955D01*
X113460266Y-73040960D01*
X113487119Y-73073680D01*
X113516117Y-73097478D01*
X114548241Y-74129603D01*
X114548241Y-74490264D01*
X114546355Y-74480782D01*
X114468334Y-74292424D01*
X114355066Y-74122906D01*
X114210903Y-73978743D01*
X114041385Y-73865475D01*
X113853027Y-73787454D01*
X113663770Y-73749809D01*
X113644029Y-73730068D01*
X113618657Y-73699152D01*
X113495318Y-73597931D01*
X113354602Y-73522717D01*
X113201917Y-73476400D01*
X113082920Y-73464680D01*
X113082917Y-73464680D01*
X113043129Y-73460761D01*
X113003341Y-73464680D01*
X104439890Y-73464680D01*
X104348595Y-73328048D01*
X104141752Y-73121205D01*
X103967360Y-73004680D01*
X104141752Y-72888155D01*
X104348595Y-72681312D01*
X104511110Y-72438091D01*
X104623052Y-72167838D01*
X104680120Y-71880940D01*
X104680120Y-71588420D01*
X104623052Y-71301522D01*
X104511110Y-71031269D01*
X104348595Y-70788048D01*
X104141752Y-70581205D01*
X103898531Y-70418690D01*
X103628278Y-70306748D01*
X103341380Y-70249680D01*
X103048860Y-70249680D01*
X102761962Y-70306748D01*
X102491709Y-70418690D01*
X102248488Y-70581205D01*
X102041645Y-70788048D01*
X101879130Y-71031269D01*
X101767188Y-71301522D01*
X101710120Y-71588420D01*
X101710120Y-71880940D01*
X101767188Y-72167838D01*
X101879130Y-72438091D01*
X102041645Y-72681312D01*
X102248488Y-72888155D01*
X102422880Y-73004680D01*
X102248488Y-73121205D01*
X102041645Y-73328048D01*
X101879130Y-73571269D01*
X101767188Y-73841522D01*
X101710120Y-74128420D01*
X101710120Y-74420940D01*
X101767188Y-74707838D01*
X101879130Y-74978091D01*
X102041645Y-75221312D01*
X102248488Y-75428155D01*
X102422880Y-75544680D01*
X102248488Y-75661205D01*
X102041645Y-75868048D01*
X101879130Y-76111269D01*
X101767188Y-76381522D01*
X101710120Y-76668420D01*
X101710120Y-76960940D01*
X101767188Y-77247838D01*
X101879130Y-77518091D01*
X102041645Y-77761312D01*
X102248488Y-77968155D01*
X102430654Y-78089875D01*
X102313765Y-78159502D01*
X102097532Y-78354411D01*
X101923479Y-78587760D01*
X101798295Y-78850581D01*
X101753644Y-78997790D01*
X101874965Y-79227680D01*
X103068120Y-79227680D01*
X103068120Y-79207680D01*
X103322120Y-79207680D01*
X103322120Y-79227680D01*
X104515275Y-79227680D01*
X104636596Y-78997790D01*
X104591945Y-78850581D01*
X104466761Y-78587760D01*
X104292708Y-78354411D01*
X104076475Y-78159502D01*
X103959586Y-78089875D01*
X104141752Y-77968155D01*
X104348595Y-77761312D01*
X104511110Y-77518091D01*
X104623052Y-77247838D01*
X104646555Y-77129681D01*
X114009883Y-77129681D01*
X114049671Y-77133600D01*
X114089459Y-77129681D01*
X114089462Y-77129681D01*
X114208459Y-77117961D01*
X114361144Y-77071644D01*
X114501860Y-76996430D01*
X114548242Y-76958366D01*
X114548242Y-78663025D01*
X114500069Y-78672607D01*
X114311711Y-78750628D01*
X114142193Y-78863896D01*
X113998030Y-79008059D01*
X113884762Y-79177577D01*
X113806741Y-79365935D01*
X113766967Y-79565894D01*
X113766967Y-79769772D01*
X113806741Y-79969731D01*
X113884762Y-80158089D01*
X113998030Y-80327607D01*
X114142193Y-80471770D01*
X114311711Y-80585038D01*
X114500069Y-80663059D01*
X114700028Y-80702833D01*
X114903906Y-80702833D01*
X114958120Y-80692049D01*
X114958121Y-82362880D01*
X114958120Y-82362890D01*
X114958120Y-83909379D01*
X114840026Y-83860462D01*
X114650769Y-83822817D01*
X114600020Y-83772068D01*
X114574648Y-83741152D01*
X114451309Y-83639931D01*
X114310593Y-83564717D01*
X114157908Y-83518400D01*
X114038911Y-83506680D01*
X114038908Y-83506680D01*
X113999120Y-83502761D01*
X113959332Y-83506680D01*
X107817008Y-83506680D01*
X107812525Y-83498293D01*
X107702082Y-83363718D01*
X107614304Y-83291680D01*
X107702082Y-83219642D01*
X107812525Y-83085067D01*
X107894592Y-82931531D01*
X107945128Y-82764935D01*
X107962192Y-82591681D01*
X107962192Y-81941679D01*
X107945128Y-81768425D01*
X107894592Y-81601829D01*
X107812525Y-81448293D01*
X107702082Y-81313718D01*
X107567507Y-81203275D01*
X107413971Y-81121208D01*
X107247375Y-81070672D01*
X107074121Y-81053608D01*
X106174119Y-81053608D01*
X106000865Y-81070672D01*
X105954686Y-81084680D01*
X104439890Y-81084680D01*
X104348595Y-80948048D01*
X104141752Y-80741205D01*
X103959586Y-80619485D01*
X104076475Y-80549858D01*
X104292708Y-80354949D01*
X104466761Y-80121600D01*
X104591945Y-79858779D01*
X104636596Y-79711570D01*
X104515275Y-79481680D01*
X103322120Y-79481680D01*
X103322120Y-79501680D01*
X103068120Y-79501680D01*
X103068120Y-79481680D01*
X101874965Y-79481680D01*
X101753644Y-79711570D01*
X101798295Y-79858779D01*
X101923479Y-80121600D01*
X102097532Y-80354949D01*
X102313765Y-80549858D01*
X102430654Y-80619485D01*
X102248488Y-80741205D01*
X102041645Y-80948048D01*
X101879130Y-81191269D01*
X101767188Y-81461522D01*
X101710120Y-81748420D01*
X101710120Y-82040940D01*
X101767188Y-82327838D01*
X101879130Y-82598091D01*
X102041645Y-82841312D01*
X102173500Y-82973167D01*
X102100940Y-82995178D01*
X101990626Y-83054143D01*
X101893935Y-83133495D01*
X101814583Y-83230186D01*
X101755618Y-83340500D01*
X101719308Y-83460198D01*
X101707048Y-83584680D01*
X91508794Y-83584680D01*
X88260022Y-77957678D01*
X88366761Y-77772801D01*
X88868120Y-77772801D01*
X88868120Y-78193359D01*
X88950167Y-78605836D01*
X89111108Y-78994382D01*
X89344757Y-79344063D01*
X89642137Y-79641443D01*
X89991818Y-79875092D01*
X90380364Y-80036033D01*
X90792841Y-80118080D01*
X91213399Y-80118080D01*
X91625876Y-80036033D01*
X92014422Y-79875092D01*
X92364103Y-79641443D01*
X92661483Y-79344063D01*
X92895132Y-78994382D01*
X93056073Y-78605836D01*
X93138120Y-78193359D01*
X93138120Y-77772801D01*
X93056073Y-77360324D01*
X92895132Y-76971778D01*
X92661483Y-76622097D01*
X92364103Y-76324717D01*
X92014422Y-76091068D01*
X91625876Y-75930127D01*
X91213399Y-75848080D01*
X90792841Y-75848080D01*
X90380364Y-75930127D01*
X89991818Y-76091068D01*
X89642137Y-76324717D01*
X89344757Y-76622097D01*
X89111108Y-76971778D01*
X88950167Y-77360324D01*
X88868120Y-77772801D01*
X88366761Y-77772801D01*
X101883809Y-54360741D01*
X114860120Y-54360741D01*
X114860120Y-54564619D01*
X114899894Y-54764578D01*
X114977915Y-54952936D01*
X115085121Y-55113381D01*
X115085121Y-55611682D01*
X115081201Y-55651480D01*
X115095425Y-55795890D01*
X115096841Y-55810268D01*
X115105427Y-55838572D01*
X115114048Y-55866991D01*
X115114048Y-56383480D01*
X115126308Y-56507962D01*
X115162618Y-56627660D01*
X115221583Y-56737974D01*
X115300935Y-56834665D01*
X115397626Y-56914017D01*
X115507940Y-56972982D01*
X115627638Y-57009292D01*
X115752120Y-57021552D01*
X116302120Y-57021552D01*
X116426602Y-57009292D01*
X116502266Y-56986340D01*
X116573974Y-57008552D01*
X116691370Y-57018480D01*
X116850120Y-56859730D01*
X116850120Y-56705304D01*
X116891622Y-56627660D01*
X116927932Y-56507962D01*
X116940192Y-56383480D01*
X116940192Y-55183480D01*
X116927932Y-55058998D01*
X116891622Y-54939300D01*
X116850128Y-54861672D01*
X116890346Y-54764578D01*
X116930120Y-54564619D01*
X116930120Y-54360741D01*
X116890346Y-54160782D01*
X116812325Y-53972424D01*
X116699057Y-53802906D01*
X116554894Y-53658743D01*
X116385376Y-53545475D01*
X116197018Y-53467454D01*
X115997059Y-53427680D01*
X115793181Y-53427680D01*
X115593222Y-53467454D01*
X115404864Y-53545475D01*
X115235346Y-53658743D01*
X115091183Y-53802906D01*
X114977915Y-53972424D01*
X114899894Y-54160782D01*
X114860120Y-54360741D01*
X101883809Y-54360741D01*
X102654848Y-53025272D01*
X102720771Y-52960715D01*
X102775814Y-52924696D01*
X102836802Y-52900054D01*
X102901412Y-52887729D01*
X102967190Y-52888188D01*
X103031624Y-52901414D01*
X103092264Y-52926905D01*
X103166315Y-52976852D01*
X103166993Y-52977392D01*
X103203981Y-53006392D01*
X103231679Y-53024036D01*
X103257559Y-53044256D01*
X103265374Y-53049139D01*
X103514855Y-53202620D01*
X103568607Y-53228837D01*
X103622013Y-53255814D01*
X103630628Y-53259086D01*
X103905167Y-53361186D01*
X103963006Y-53376468D01*
X104020616Y-53392553D01*
X104029702Y-53394090D01*
X104318845Y-53440921D01*
X104378520Y-53444675D01*
X104438188Y-53449267D01*
X104447400Y-53449009D01*
X104447401Y-53449009D01*
X104740131Y-53438787D01*
X104799417Y-53430877D01*
X104858824Y-53423793D01*
X104867810Y-53421751D01*
X105152981Y-53354865D01*
X105209625Y-53335582D01*
X105266501Y-53317102D01*
X105274919Y-53313354D01*
X105541669Y-53192351D01*
X105541682Y-53192344D01*
X105570944Y-53179085D01*
X107504200Y-52062918D01*
X107506286Y-52061955D01*
X107532042Y-52046843D01*
X107558328Y-52031667D01*
X107560226Y-52030307D01*
X109476292Y-50906098D01*
X109480920Y-50902733D01*
X109519356Y-50879284D01*
X109547829Y-50857839D01*
X109578064Y-50838967D01*
X109585328Y-50833297D01*
X109812465Y-50653455D01*
X109855501Y-50611937D01*
X109899143Y-50570996D01*
X109905168Y-50564023D01*
X109965503Y-50493201D01*
X136112120Y-50493201D01*
X136112120Y-50913759D01*
X136194167Y-51326236D01*
X136355108Y-51714782D01*
X136588757Y-52064463D01*
X136886137Y-52361843D01*
X137235818Y-52595492D01*
X137624364Y-52756433D01*
X138036841Y-52838480D01*
X138457399Y-52838480D01*
X138869876Y-52756433D01*
X139258422Y-52595492D01*
X139608103Y-52361843D01*
X139905483Y-52064463D01*
X140139132Y-51714782D01*
X140300073Y-51326236D01*
X140382120Y-50913759D01*
X140382120Y-50493201D01*
X140300073Y-50080724D01*
X140139132Y-49692178D01*
X139905483Y-49342497D01*
X139608103Y-49045117D01*
X139258422Y-48811468D01*
X138869876Y-48650527D01*
X138457399Y-48568480D01*
X138036841Y-48568480D01*
X137624364Y-48650527D01*
X137235818Y-48811468D01*
X136886137Y-49045117D01*
X136588757Y-49342497D01*
X136355108Y-49692178D01*
X136194167Y-50080724D01*
X136112120Y-50493201D01*
X109965503Y-50493201D01*
X110093048Y-50343488D01*
X110127202Y-50294398D01*
X110162059Y-50245763D01*
X110166614Y-50237752D01*
X110308080Y-49984924D01*
X110332044Y-49930147D01*
X110356795Y-49875657D01*
X110359708Y-49866914D01*
X110449371Y-49591424D01*
X110462236Y-49533051D01*
X110475935Y-49474776D01*
X110477094Y-49465634D01*
X110511541Y-49177975D01*
X110512823Y-49118182D01*
X110514942Y-49058387D01*
X110514303Y-49049194D01*
X110492220Y-48760322D01*
X110492217Y-48760303D01*
X110492195Y-48759994D01*
X110482184Y-48629885D01*
X110489972Y-48564573D01*
X110510299Y-48502014D01*
X110542388Y-48444597D01*
X110585023Y-48394500D01*
X110636571Y-48353644D01*
X110695072Y-48323579D01*
X110752970Y-48306977D01*
X139616873Y-48306980D01*
G36*
X140942911Y-63760982D02*
G01*
X140986593Y-63814209D01*
X141017507Y-63839579D01*
X141374120Y-64196193D01*
X141374121Y-83464166D01*
X134342607Y-90495681D01*
X133092912Y-90495681D01*
X133053121Y-90491762D01*
X133013330Y-90495681D01*
X132932120Y-90495681D01*
X132932120Y-90428741D01*
X132892346Y-90228782D01*
X132814325Y-90040424D01*
X132707120Y-89879980D01*
X132707120Y-88792468D01*
X132711039Y-88752680D01*
X132705947Y-88700983D01*
X132695400Y-88593892D01*
X132656875Y-88466892D01*
X132649083Y-88441206D01*
X132573869Y-88300491D01*
X132554153Y-88276467D01*
X132472648Y-88177152D01*
X132441739Y-88151786D01*
X131151991Y-86862039D01*
X131114346Y-86672782D01*
X131036325Y-86484424D01*
X130923057Y-86314906D01*
X130778894Y-86170743D01*
X130609376Y-86057475D01*
X130421018Y-85979454D01*
X130221059Y-85939680D01*
X130017181Y-85939680D01*
X129817222Y-85979454D01*
X129628864Y-86057475D01*
X129459346Y-86170743D01*
X129315183Y-86314906D01*
X129201915Y-86484424D01*
X129123894Y-86672782D01*
X129084120Y-86872741D01*
X129084120Y-87076619D01*
X129123894Y-87276578D01*
X129201915Y-87464936D01*
X129315183Y-87634454D01*
X129459346Y-87778617D01*
X129628864Y-87891885D01*
X129817222Y-87969906D01*
X130006479Y-88007551D01*
X130316415Y-88317487D01*
X130149864Y-88386475D01*
X129980346Y-88499743D01*
X129936409Y-88543680D01*
X129294440Y-88543680D01*
X129257117Y-88540004D01*
X129219794Y-88543680D01*
X129219785Y-88543680D01*
X129108132Y-88554677D01*
X128978855Y-88593892D01*
X128964871Y-88598134D01*
X128832841Y-88668706D01*
X128776247Y-88715152D01*
X128717117Y-88763679D01*
X128693318Y-88792678D01*
X128305317Y-89180680D01*
X128221692Y-89180680D01*
X128221692Y-89065680D01*
X128211843Y-88965680D01*
X128221692Y-88865680D01*
X128221692Y-88415680D01*
X128211629Y-88313506D01*
X128218620Y-88247430D01*
X128186373Y-88215183D01*
X128173122Y-88171500D01*
X128114157Y-88061186D01*
X128034805Y-87964495D01*
X127947298Y-87892680D01*
X128059870Y-87892680D01*
X128218620Y-87733930D01*
X128208139Y-87634867D01*
X128170619Y-87515543D01*
X128110540Y-87405832D01*
X128030213Y-87309949D01*
X127932723Y-87231580D01*
X127821817Y-87173736D01*
X127701758Y-87138640D01*
X127577158Y-87127641D01*
X126619370Y-87130680D01*
X126460620Y-87289430D01*
X126460620Y-87777608D01*
X126206620Y-87777608D01*
X126206620Y-87289430D01*
X126047870Y-87130680D01*
X125090082Y-87127641D01*
X124965482Y-87138640D01*
X124845423Y-87173736D01*
X124734517Y-87231580D01*
X124655269Y-87295285D01*
X124513376Y-87200475D01*
X124384663Y-87147160D01*
X124470300Y-87121182D01*
X124580614Y-87062217D01*
X124677305Y-86982865D01*
X124756657Y-86886174D01*
X124815622Y-86775860D01*
X124851932Y-86656162D01*
X124864192Y-86531680D01*
X124861120Y-86117430D01*
X124702370Y-85958680D01*
X123778120Y-85958680D01*
X123778120Y-85978680D01*
X123524120Y-85978680D01*
X123524120Y-85958680D01*
X123504120Y-85958680D01*
X123504120Y-85704680D01*
X123524120Y-85704680D01*
X123524120Y-85684680D01*
X123778120Y-85684680D01*
X123778120Y-85704680D01*
X124702370Y-85704680D01*
X124861120Y-85545930D01*
X124864192Y-85131680D01*
X124851932Y-85007198D01*
X124815622Y-84887500D01*
X124756657Y-84777186D01*
X124677305Y-84680495D01*
X124667951Y-84672818D01*
X124714525Y-84616067D01*
X124775791Y-84501447D01*
X124866223Y-84538905D01*
X125066182Y-84578679D01*
X125270060Y-84578679D01*
X125470019Y-84538905D01*
X125658377Y-84460884D01*
X125827895Y-84347616D01*
X125972058Y-84203453D01*
X126085326Y-84033935D01*
X126163347Y-83845577D01*
X126203121Y-83645618D01*
X126203121Y-83441740D01*
X126163347Y-83241781D01*
X126085326Y-83053423D01*
X125972058Y-82883905D01*
X125827895Y-82739742D01*
X125658377Y-82626474D01*
X125470019Y-82548453D01*
X125270060Y-82508679D01*
X125066182Y-82508679D01*
X124866223Y-82548453D01*
X124677865Y-82626474D01*
X124647044Y-82647068D01*
X124604082Y-82594718D01*
X124469507Y-82484275D01*
X124315971Y-82402208D01*
X124149375Y-82351672D01*
X123976121Y-82334608D01*
X123326119Y-82334608D01*
X123309120Y-82336282D01*
X123309120Y-81513656D01*
X123369568Y-81525680D01*
X123558672Y-81525680D01*
X123744142Y-81488788D01*
X123918851Y-81416421D01*
X123979824Y-81375680D01*
X124834409Y-81375680D01*
X124887346Y-81428617D01*
X125056864Y-81541885D01*
X125245222Y-81619906D01*
X125445181Y-81659680D01*
X125649059Y-81659680D01*
X125849018Y-81619906D01*
X126037376Y-81541885D01*
X126118620Y-81487600D01*
X126199864Y-81541885D01*
X126388222Y-81619906D01*
X126588181Y-81659680D01*
X126792059Y-81659680D01*
X126992018Y-81619906D01*
X127180376Y-81541885D01*
X127349894Y-81428617D01*
X127494057Y-81284454D01*
X127607325Y-81114936D01*
X127685346Y-80926578D01*
X127694804Y-80879030D01*
X128023548Y-80898040D01*
X128350269Y-80955228D01*
X128668207Y-81049690D01*
X128973153Y-81180177D01*
X129261019Y-81344940D01*
X129527981Y-81541788D01*
X129773155Y-81770600D01*
X130682592Y-82723343D01*
X130687711Y-82728411D01*
X130936164Y-82960763D01*
X130947223Y-82969987D01*
X131220382Y-83172719D01*
X131232414Y-83180632D01*
X131526769Y-83351137D01*
X131539619Y-83357637D01*
X131851383Y-83493722D01*
X131864886Y-83498725D01*
X132190052Y-83598641D01*
X132204035Y-83602084D01*
X132538422Y-83664546D01*
X132552705Y-83666383D01*
X132892014Y-83690589D01*
X132899211Y-83690898D01*
X137360806Y-83755559D01*
X137367995Y-83755459D01*
X137707217Y-83741160D01*
X137721519Y-83739743D01*
X138056953Y-83687207D01*
X138071005Y-83684183D01*
X138398354Y-83594081D01*
X138411974Y-83589489D01*
X138727047Y-83462976D01*
X138740060Y-83456874D01*
X139038819Y-83295570D01*
X139051060Y-83288037D01*
X139329679Y-83094009D01*
X139340990Y-83085141D01*
X139595902Y-82860873D01*
X139606139Y-82850783D01*
X139834077Y-82599148D01*
X139843108Y-82587967D01*
X140041154Y-82312188D01*
X140048864Y-82300057D01*
X140214480Y-82003667D01*
X140220770Y-81990743D01*
X140351835Y-81677537D01*
X140356624Y-81663986D01*
X140451460Y-81337977D01*
X140454687Y-81323971D01*
X140512079Y-80989334D01*
X140513703Y-80975053D01*
X140532916Y-80636074D01*
X140533120Y-80628887D01*
X140533120Y-78143170D01*
X140557894Y-78126617D01*
X140702057Y-77982454D01*
X140815325Y-77812936D01*
X140893346Y-77624578D01*
X140933120Y-77424619D01*
X140933120Y-77220741D01*
X140893346Y-77020782D01*
X140815325Y-76832424D01*
X140702057Y-76662906D01*
X140557894Y-76518743D01*
X140533120Y-76502190D01*
X140533120Y-73972680D01*
X140532920Y-73965559D01*
X140514057Y-73629666D01*
X140512463Y-73615514D01*
X140456110Y-73283844D01*
X140452940Y-73269959D01*
X140359806Y-72946685D01*
X140355103Y-72933242D01*
X140226360Y-72622428D01*
X140220180Y-72609597D01*
X140057446Y-72315152D01*
X140049869Y-72303093D01*
X139855190Y-72028720D01*
X139846311Y-72017585D01*
X139622137Y-71766734D01*
X139612066Y-71756663D01*
X139361215Y-71532489D01*
X139350080Y-71523610D01*
X139075707Y-71328931D01*
X139063648Y-71321354D01*
X138769203Y-71158620D01*
X138756372Y-71152440D01*
X138445558Y-71023697D01*
X138432115Y-71018994D01*
X138108841Y-70925860D01*
X138094956Y-70922690D01*
X137763286Y-70866337D01*
X137749134Y-70864743D01*
X137413241Y-70845880D01*
X137406120Y-70845680D01*
X134704822Y-70845680D01*
X134697490Y-70845892D01*
X134351696Y-70865888D01*
X134337131Y-70867578D01*
X133995947Y-70927298D01*
X133981674Y-70930656D01*
X133649647Y-71029304D01*
X133635855Y-71034284D01*
X133317412Y-71170546D01*
X133304287Y-71177083D01*
X133003673Y-71349142D01*
X132991389Y-71357148D01*
X132712610Y-71562710D01*
X132701330Y-71572080D01*
X132448104Y-71808406D01*
X132442889Y-71813563D01*
X128884155Y-75541760D01*
X128638981Y-75770572D01*
X128372019Y-75967420D01*
X128084153Y-76132183D01*
X127779207Y-76262670D01*
X127461269Y-76357132D01*
X127134548Y-76414320D01*
X126799752Y-76433680D01*
X125444588Y-76433680D01*
X125571894Y-76348617D01*
X125716057Y-76204454D01*
X125829325Y-76034936D01*
X125907346Y-75846578D01*
X125947120Y-75646619D01*
X125947120Y-75442741D01*
X125907346Y-75242782D01*
X125829325Y-75054424D01*
X125716057Y-74884906D01*
X125571894Y-74740743D01*
X125402376Y-74627475D01*
X125214018Y-74549454D01*
X125089480Y-74524682D01*
X125022637Y-74399628D01*
X124919655Y-74274145D01*
X124794172Y-74171163D01*
X124681035Y-74110690D01*
X125211322Y-74110690D01*
X125251110Y-74114609D01*
X125290898Y-74110690D01*
X125290901Y-74110690D01*
X125409898Y-74098970D01*
X125562583Y-74052653D01*
X125703299Y-73977439D01*
X125826638Y-73876218D01*
X125852009Y-73845303D01*
X126345740Y-73351573D01*
X126376648Y-73326208D01*
X126477869Y-73202869D01*
X126500190Y-73161110D01*
X126553083Y-73062154D01*
X126575282Y-72988972D01*
X126599400Y-72909468D01*
X126611120Y-72790471D01*
X126611120Y-72790468D01*
X126615039Y-72750680D01*
X126611120Y-72710892D01*
X126611120Y-72379382D01*
X126744507Y-72308085D01*
X126817120Y-72248493D01*
X126889733Y-72308085D01*
X127043269Y-72390152D01*
X127209865Y-72440688D01*
X127383119Y-72457752D01*
X128283121Y-72457752D01*
X128456375Y-72440688D01*
X128587328Y-72400964D01*
X128615894Y-72544578D01*
X128693915Y-72732936D01*
X128807183Y-72902454D01*
X128951346Y-73046617D01*
X129120864Y-73159885D01*
X129309222Y-73237906D01*
X129509181Y-73277680D01*
X129713059Y-73277680D01*
X129913018Y-73237906D01*
X130101376Y-73159885D01*
X130270894Y-73046617D01*
X130415057Y-72902454D01*
X130528325Y-72732936D01*
X130606346Y-72544578D01*
X130646120Y-72344619D01*
X130646120Y-72140741D01*
X130606346Y-71940782D01*
X130547278Y-71798180D01*
X130606346Y-71655578D01*
X130646120Y-71455619D01*
X130646120Y-71251741D01*
X130606346Y-71051782D01*
X130528325Y-70863424D01*
X130421120Y-70702980D01*
X130421120Y-69742467D01*
X130425039Y-69702679D01*
X130417258Y-69623680D01*
X130409400Y-69543892D01*
X130363083Y-69391207D01*
X130287869Y-69250491D01*
X130186648Y-69127152D01*
X130155734Y-69101782D01*
X129704020Y-68650068D01*
X129678648Y-68619152D01*
X129555309Y-68517931D01*
X129414593Y-68442717D01*
X129261908Y-68396400D01*
X129142911Y-68384680D01*
X129142908Y-68384680D01*
X129103120Y-68380761D01*
X129063332Y-68384680D01*
X129026008Y-68384680D01*
X129021525Y-68376293D01*
X128911082Y-68241718D01*
X128776507Y-68131275D01*
X128622971Y-68049208D01*
X128456375Y-67998672D01*
X128283121Y-67981608D01*
X127383119Y-67981608D01*
X127209865Y-67998672D01*
X127043269Y-68049208D01*
X126889733Y-68131275D01*
X126817120Y-68190867D01*
X126773396Y-68154984D01*
X126796346Y-68099578D01*
X126836120Y-67899619D01*
X126836120Y-67718680D01*
X128682332Y-67718680D01*
X128722120Y-67722599D01*
X128761908Y-67718680D01*
X128761911Y-67718680D01*
X128880908Y-67706960D01*
X129033593Y-67660643D01*
X129174309Y-67585429D01*
X129297648Y-67484208D01*
X129323019Y-67453293D01*
X130155739Y-66620574D01*
X130186648Y-66595208D01*
X130235334Y-66535884D01*
X130287869Y-66471870D01*
X130351522Y-66352782D01*
X130363083Y-66331153D01*
X130409400Y-66178468D01*
X130421120Y-66059471D01*
X130421120Y-66059468D01*
X130425039Y-66019680D01*
X130421120Y-65979892D01*
X130421120Y-63646467D01*
X130425039Y-63606679D01*
X130419472Y-63550154D01*
X130409400Y-63447892D01*
X130363083Y-63295207D01*
X130287869Y-63154491D01*
X130186648Y-63031152D01*
X130155732Y-63005780D01*
X129958020Y-62808068D01*
X129932648Y-62777152D01*
X129809309Y-62675931D01*
X129668593Y-62600717D01*
X129515908Y-62554400D01*
X129396911Y-62542680D01*
X129396908Y-62542680D01*
X129357120Y-62538761D01*
X129317332Y-62542680D01*
X129026008Y-62542680D01*
X129021525Y-62534293D01*
X128911082Y-62399718D01*
X128776507Y-62289275D01*
X128622971Y-62207208D01*
X128456375Y-62156672D01*
X128283121Y-62139608D01*
X127909347Y-62139608D01*
X127926020Y-62119292D01*
X128377732Y-61667580D01*
X128408648Y-61642208D01*
X128509869Y-61518869D01*
X128585083Y-61378153D01*
X128631400Y-61225468D01*
X128643120Y-61106471D01*
X128643120Y-61106469D01*
X128647039Y-61066681D01*
X128643120Y-61026893D01*
X128643120Y-60193380D01*
X128750325Y-60032936D01*
X128828346Y-59844578D01*
X128868120Y-59644619D01*
X128868120Y-59440741D01*
X128828346Y-59240782D01*
X128765130Y-59088166D01*
X128776507Y-59082085D01*
X128911082Y-58971642D01*
X129021525Y-58837067D01*
X129103592Y-58683531D01*
X129154128Y-58516935D01*
X129171192Y-58343681D01*
X129171192Y-57693679D01*
X129154128Y-57520425D01*
X129103592Y-57353829D01*
X129021525Y-57200293D01*
X128911082Y-57065718D01*
X128823304Y-56993680D01*
X128911082Y-56921642D01*
X129021525Y-56787067D01*
X129026008Y-56778680D01*
X133960610Y-56778680D01*
X140942911Y-63760982D01*
G37*
X140942911Y-63760982D02*
X140986593Y-63814209D01*
X141017507Y-63839579D01*
X141374120Y-64196193D01*
X141374121Y-83464166D01*
X134342607Y-90495681D01*
X133092912Y-90495681D01*
X133053121Y-90491762D01*
X133013330Y-90495681D01*
X132932120Y-90495681D01*
X132932120Y-90428741D01*
X132892346Y-90228782D01*
X132814325Y-90040424D01*
X132707120Y-89879980D01*
X132707120Y-88792468D01*
X132711039Y-88752680D01*
X132705947Y-88700983D01*
X132695400Y-88593892D01*
X132656875Y-88466892D01*
X132649083Y-88441206D01*
X132573869Y-88300491D01*
X132554153Y-88276467D01*
X132472648Y-88177152D01*
X132441739Y-88151786D01*
X131151991Y-86862039D01*
X131114346Y-86672782D01*
X131036325Y-86484424D01*
X130923057Y-86314906D01*
X130778894Y-86170743D01*
X130609376Y-86057475D01*
X130421018Y-85979454D01*
X130221059Y-85939680D01*
X130017181Y-85939680D01*
X129817222Y-85979454D01*
X129628864Y-86057475D01*
X129459346Y-86170743D01*
X129315183Y-86314906D01*
X129201915Y-86484424D01*
X129123894Y-86672782D01*
X129084120Y-86872741D01*
X129084120Y-87076619D01*
X129123894Y-87276578D01*
X129201915Y-87464936D01*
X129315183Y-87634454D01*
X129459346Y-87778617D01*
X129628864Y-87891885D01*
X129817222Y-87969906D01*
X130006479Y-88007551D01*
X130316415Y-88317487D01*
X130149864Y-88386475D01*
X129980346Y-88499743D01*
X129936409Y-88543680D01*
X129294440Y-88543680D01*
X129257117Y-88540004D01*
X129219794Y-88543680D01*
X129219785Y-88543680D01*
X129108132Y-88554677D01*
X128978855Y-88593892D01*
X128964871Y-88598134D01*
X128832841Y-88668706D01*
X128776247Y-88715152D01*
X128717117Y-88763679D01*
X128693318Y-88792678D01*
X128305317Y-89180680D01*
X128221692Y-89180680D01*
X128221692Y-89065680D01*
X128211843Y-88965680D01*
X128221692Y-88865680D01*
X128221692Y-88415680D01*
X128211629Y-88313506D01*
X128218620Y-88247430D01*
X128186373Y-88215183D01*
X128173122Y-88171500D01*
X128114157Y-88061186D01*
X128034805Y-87964495D01*
X127947298Y-87892680D01*
X128059870Y-87892680D01*
X128218620Y-87733930D01*
X128208139Y-87634867D01*
X128170619Y-87515543D01*
X128110540Y-87405832D01*
X128030213Y-87309949D01*
X127932723Y-87231580D01*
X127821817Y-87173736D01*
X127701758Y-87138640D01*
X127577158Y-87127641D01*
X126619370Y-87130680D01*
X126460620Y-87289430D01*
X126460620Y-87777608D01*
X126206620Y-87777608D01*
X126206620Y-87289430D01*
X126047870Y-87130680D01*
X125090082Y-87127641D01*
X124965482Y-87138640D01*
X124845423Y-87173736D01*
X124734517Y-87231580D01*
X124655269Y-87295285D01*
X124513376Y-87200475D01*
X124384663Y-87147160D01*
X124470300Y-87121182D01*
X124580614Y-87062217D01*
X124677305Y-86982865D01*
X124756657Y-86886174D01*
X124815622Y-86775860D01*
X124851932Y-86656162D01*
X124864192Y-86531680D01*
X124861120Y-86117430D01*
X124702370Y-85958680D01*
X123778120Y-85958680D01*
X123778120Y-85978680D01*
X123524120Y-85978680D01*
X123524120Y-85958680D01*
X123504120Y-85958680D01*
X123504120Y-85704680D01*
X123524120Y-85704680D01*
X123524120Y-85684680D01*
X123778120Y-85684680D01*
X123778120Y-85704680D01*
X124702370Y-85704680D01*
X124861120Y-85545930D01*
X124864192Y-85131680D01*
X124851932Y-85007198D01*
X124815622Y-84887500D01*
X124756657Y-84777186D01*
X124677305Y-84680495D01*
X124667951Y-84672818D01*
X124714525Y-84616067D01*
X124775791Y-84501447D01*
X124866223Y-84538905D01*
X125066182Y-84578679D01*
X125270060Y-84578679D01*
X125470019Y-84538905D01*
X125658377Y-84460884D01*
X125827895Y-84347616D01*
X125972058Y-84203453D01*
X126085326Y-84033935D01*
X126163347Y-83845577D01*
X126203121Y-83645618D01*
X126203121Y-83441740D01*
X126163347Y-83241781D01*
X126085326Y-83053423D01*
X125972058Y-82883905D01*
X125827895Y-82739742D01*
X125658377Y-82626474D01*
X125470019Y-82548453D01*
X125270060Y-82508679D01*
X125066182Y-82508679D01*
X124866223Y-82548453D01*
X124677865Y-82626474D01*
X124647044Y-82647068D01*
X124604082Y-82594718D01*
X124469507Y-82484275D01*
X124315971Y-82402208D01*
X124149375Y-82351672D01*
X123976121Y-82334608D01*
X123326119Y-82334608D01*
X123309120Y-82336282D01*
X123309120Y-81513656D01*
X123369568Y-81525680D01*
X123558672Y-81525680D01*
X123744142Y-81488788D01*
X123918851Y-81416421D01*
X123979824Y-81375680D01*
X124834409Y-81375680D01*
X124887346Y-81428617D01*
X125056864Y-81541885D01*
X125245222Y-81619906D01*
X125445181Y-81659680D01*
X125649059Y-81659680D01*
X125849018Y-81619906D01*
X126037376Y-81541885D01*
X126118620Y-81487600D01*
X126199864Y-81541885D01*
X126388222Y-81619906D01*
X126588181Y-81659680D01*
X126792059Y-81659680D01*
X126992018Y-81619906D01*
X127180376Y-81541885D01*
X127349894Y-81428617D01*
X127494057Y-81284454D01*
X127607325Y-81114936D01*
X127685346Y-80926578D01*
X127694804Y-80879030D01*
X128023548Y-80898040D01*
X128350269Y-80955228D01*
X128668207Y-81049690D01*
X128973153Y-81180177D01*
X129261019Y-81344940D01*
X129527981Y-81541788D01*
X129773155Y-81770600D01*
X130682592Y-82723343D01*
X130687711Y-82728411D01*
X130936164Y-82960763D01*
X130947223Y-82969987D01*
X131220382Y-83172719D01*
X131232414Y-83180632D01*
X131526769Y-83351137D01*
X131539619Y-83357637D01*
X131851383Y-83493722D01*
X131864886Y-83498725D01*
X132190052Y-83598641D01*
X132204035Y-83602084D01*
X132538422Y-83664546D01*
X132552705Y-83666383D01*
X132892014Y-83690589D01*
X132899211Y-83690898D01*
X137360806Y-83755559D01*
X137367995Y-83755459D01*
X137707217Y-83741160D01*
X137721519Y-83739743D01*
X138056953Y-83687207D01*
X138071005Y-83684183D01*
X138398354Y-83594081D01*
X138411974Y-83589489D01*
X138727047Y-83462976D01*
X138740060Y-83456874D01*
X139038819Y-83295570D01*
X139051060Y-83288037D01*
X139329679Y-83094009D01*
X139340990Y-83085141D01*
X139595902Y-82860873D01*
X139606139Y-82850783D01*
X139834077Y-82599148D01*
X139843108Y-82587967D01*
X140041154Y-82312188D01*
X140048864Y-82300057D01*
X140214480Y-82003667D01*
X140220770Y-81990743D01*
X140351835Y-81677537D01*
X140356624Y-81663986D01*
X140451460Y-81337977D01*
X140454687Y-81323971D01*
X140512079Y-80989334D01*
X140513703Y-80975053D01*
X140532916Y-80636074D01*
X140533120Y-80628887D01*
X140533120Y-78143170D01*
X140557894Y-78126617D01*
X140702057Y-77982454D01*
X140815325Y-77812936D01*
X140893346Y-77624578D01*
X140933120Y-77424619D01*
X140933120Y-77220741D01*
X140893346Y-77020782D01*
X140815325Y-76832424D01*
X140702057Y-76662906D01*
X140557894Y-76518743D01*
X140533120Y-76502190D01*
X140533120Y-73972680D01*
X140532920Y-73965559D01*
X140514057Y-73629666D01*
X140512463Y-73615514D01*
X140456110Y-73283844D01*
X140452940Y-73269959D01*
X140359806Y-72946685D01*
X140355103Y-72933242D01*
X140226360Y-72622428D01*
X140220180Y-72609597D01*
X140057446Y-72315152D01*
X140049869Y-72303093D01*
X139855190Y-72028720D01*
X139846311Y-72017585D01*
X139622137Y-71766734D01*
X139612066Y-71756663D01*
X139361215Y-71532489D01*
X139350080Y-71523610D01*
X139075707Y-71328931D01*
X139063648Y-71321354D01*
X138769203Y-71158620D01*
X138756372Y-71152440D01*
X138445558Y-71023697D01*
X138432115Y-71018994D01*
X138108841Y-70925860D01*
X138094956Y-70922690D01*
X137763286Y-70866337D01*
X137749134Y-70864743D01*
X137413241Y-70845880D01*
X137406120Y-70845680D01*
X134704822Y-70845680D01*
X134697490Y-70845892D01*
X134351696Y-70865888D01*
X134337131Y-70867578D01*
X133995947Y-70927298D01*
X133981674Y-70930656D01*
X133649647Y-71029304D01*
X133635855Y-71034284D01*
X133317412Y-71170546D01*
X133304287Y-71177083D01*
X133003673Y-71349142D01*
X132991389Y-71357148D01*
X132712610Y-71562710D01*
X132701330Y-71572080D01*
X132448104Y-71808406D01*
X132442889Y-71813563D01*
X128884155Y-75541760D01*
X128638981Y-75770572D01*
X128372019Y-75967420D01*
X128084153Y-76132183D01*
X127779207Y-76262670D01*
X127461269Y-76357132D01*
X127134548Y-76414320D01*
X126799752Y-76433680D01*
X125444588Y-76433680D01*
X125571894Y-76348617D01*
X125716057Y-76204454D01*
X125829325Y-76034936D01*
X125907346Y-75846578D01*
X125947120Y-75646619D01*
X125947120Y-75442741D01*
X125907346Y-75242782D01*
X125829325Y-75054424D01*
X125716057Y-74884906D01*
X125571894Y-74740743D01*
X125402376Y-74627475D01*
X125214018Y-74549454D01*
X125089480Y-74524682D01*
X125022637Y-74399628D01*
X124919655Y-74274145D01*
X124794172Y-74171163D01*
X124681035Y-74110690D01*
X125211322Y-74110690D01*
X125251110Y-74114609D01*
X125290898Y-74110690D01*
X125290901Y-74110690D01*
X125409898Y-74098970D01*
X125562583Y-74052653D01*
X125703299Y-73977439D01*
X125826638Y-73876218D01*
X125852009Y-73845303D01*
X126345740Y-73351573D01*
X126376648Y-73326208D01*
X126477869Y-73202869D01*
X126500190Y-73161110D01*
X126553083Y-73062154D01*
X126575282Y-72988972D01*
X126599400Y-72909468D01*
X126611120Y-72790471D01*
X126611120Y-72790468D01*
X126615039Y-72750680D01*
X126611120Y-72710892D01*
X126611120Y-72379382D01*
X126744507Y-72308085D01*
X126817120Y-72248493D01*
X126889733Y-72308085D01*
X127043269Y-72390152D01*
X127209865Y-72440688D01*
X127383119Y-72457752D01*
X128283121Y-72457752D01*
X128456375Y-72440688D01*
X128587328Y-72400964D01*
X128615894Y-72544578D01*
X128693915Y-72732936D01*
X128807183Y-72902454D01*
X128951346Y-73046617D01*
X129120864Y-73159885D01*
X129309222Y-73237906D01*
X129509181Y-73277680D01*
X129713059Y-73277680D01*
X129913018Y-73237906D01*
X130101376Y-73159885D01*
X130270894Y-73046617D01*
X130415057Y-72902454D01*
X130528325Y-72732936D01*
X130606346Y-72544578D01*
X130646120Y-72344619D01*
X130646120Y-72140741D01*
X130606346Y-71940782D01*
X130547278Y-71798180D01*
X130606346Y-71655578D01*
X130646120Y-71455619D01*
X130646120Y-71251741D01*
X130606346Y-71051782D01*
X130528325Y-70863424D01*
X130421120Y-70702980D01*
X130421120Y-69742467D01*
X130425039Y-69702679D01*
X130417258Y-69623680D01*
X130409400Y-69543892D01*
X130363083Y-69391207D01*
X130287869Y-69250491D01*
X130186648Y-69127152D01*
X130155734Y-69101782D01*
X129704020Y-68650068D01*
X129678648Y-68619152D01*
X129555309Y-68517931D01*
X129414593Y-68442717D01*
X129261908Y-68396400D01*
X129142911Y-68384680D01*
X129142908Y-68384680D01*
X129103120Y-68380761D01*
X129063332Y-68384680D01*
X129026008Y-68384680D01*
X129021525Y-68376293D01*
X128911082Y-68241718D01*
X128776507Y-68131275D01*
X128622971Y-68049208D01*
X128456375Y-67998672D01*
X128283121Y-67981608D01*
X127383119Y-67981608D01*
X127209865Y-67998672D01*
X127043269Y-68049208D01*
X126889733Y-68131275D01*
X126817120Y-68190867D01*
X126773396Y-68154984D01*
X126796346Y-68099578D01*
X126836120Y-67899619D01*
X126836120Y-67718680D01*
X128682332Y-67718680D01*
X128722120Y-67722599D01*
X128761908Y-67718680D01*
X128761911Y-67718680D01*
X128880908Y-67706960D01*
X129033593Y-67660643D01*
X129174309Y-67585429D01*
X129297648Y-67484208D01*
X129323019Y-67453293D01*
X130155739Y-66620574D01*
X130186648Y-66595208D01*
X130235334Y-66535884D01*
X130287869Y-66471870D01*
X130351522Y-66352782D01*
X130363083Y-66331153D01*
X130409400Y-66178468D01*
X130421120Y-66059471D01*
X130421120Y-66059468D01*
X130425039Y-66019680D01*
X130421120Y-65979892D01*
X130421120Y-63646467D01*
X130425039Y-63606679D01*
X130419472Y-63550154D01*
X130409400Y-63447892D01*
X130363083Y-63295207D01*
X130287869Y-63154491D01*
X130186648Y-63031152D01*
X130155732Y-63005780D01*
X129958020Y-62808068D01*
X129932648Y-62777152D01*
X129809309Y-62675931D01*
X129668593Y-62600717D01*
X129515908Y-62554400D01*
X129396911Y-62542680D01*
X129396908Y-62542680D01*
X129357120Y-62538761D01*
X129317332Y-62542680D01*
X129026008Y-62542680D01*
X129021525Y-62534293D01*
X128911082Y-62399718D01*
X128776507Y-62289275D01*
X128622971Y-62207208D01*
X128456375Y-62156672D01*
X128283121Y-62139608D01*
X127909347Y-62139608D01*
X127926020Y-62119292D01*
X128377732Y-61667580D01*
X128408648Y-61642208D01*
X128509869Y-61518869D01*
X128585083Y-61378153D01*
X128631400Y-61225468D01*
X128643120Y-61106471D01*
X128643120Y-61106469D01*
X128647039Y-61066681D01*
X128643120Y-61026893D01*
X128643120Y-60193380D01*
X128750325Y-60032936D01*
X128828346Y-59844578D01*
X128868120Y-59644619D01*
X128868120Y-59440741D01*
X128828346Y-59240782D01*
X128765130Y-59088166D01*
X128776507Y-59082085D01*
X128911082Y-58971642D01*
X129021525Y-58837067D01*
X129103592Y-58683531D01*
X129154128Y-58516935D01*
X129171192Y-58343681D01*
X129171192Y-57693679D01*
X129154128Y-57520425D01*
X129103592Y-57353829D01*
X129021525Y-57200293D01*
X128911082Y-57065718D01*
X128823304Y-56993680D01*
X128911082Y-56921642D01*
X129021525Y-56787067D01*
X129026008Y-56778680D01*
X133960610Y-56778680D01*
X140942911Y-63760982D01*
G36*
X114814120Y-70940930D02*
G01*
X114972870Y-71099680D01*
X116022120Y-71099680D01*
X116022120Y-71079680D01*
X116276120Y-71079680D01*
X116276120Y-71099680D01*
X116296120Y-71099680D01*
X116296120Y-71353680D01*
X116276120Y-71353680D01*
X116276120Y-72277930D01*
X116434870Y-72436680D01*
X116849120Y-72439752D01*
X116973602Y-72427492D01*
X117093300Y-72391182D01*
X117117120Y-72378450D01*
X117117120Y-72710892D01*
X117113201Y-72750680D01*
X117117120Y-72790468D01*
X117117120Y-72790470D01*
X117128840Y-72909467D01*
X117175157Y-73062152D01*
X117199491Y-73107677D01*
X117250371Y-73202869D01*
X117280208Y-73239225D01*
X117351592Y-73326208D01*
X117382507Y-73351579D01*
X117876235Y-73845307D01*
X117901602Y-73876218D01*
X117993552Y-73951679D01*
X118024941Y-73977439D01*
X118165656Y-74052653D01*
X118201193Y-74063433D01*
X118318342Y-74098970D01*
X118437339Y-74110690D01*
X118437342Y-74110690D01*
X118477130Y-74114609D01*
X118516918Y-74110690D01*
X120317205Y-74110690D01*
X120204068Y-74171163D01*
X120078585Y-74274145D01*
X120015245Y-74351324D01*
X119870971Y-74274208D01*
X119704375Y-74223672D01*
X119531121Y-74206608D01*
X118881119Y-74206608D01*
X118707865Y-74223672D01*
X118541269Y-74274208D01*
X118387733Y-74356275D01*
X118253158Y-74466718D01*
X118247778Y-74473274D01*
X118182305Y-74393495D01*
X118085614Y-74314143D01*
X117975300Y-74255178D01*
X117855602Y-74218868D01*
X117731120Y-74206608D01*
X117441870Y-74209680D01*
X117283120Y-74368430D01*
X117283120Y-75417680D01*
X117303120Y-75417680D01*
X117303120Y-75671680D01*
X117283120Y-75671680D01*
X117283120Y-76720930D01*
X117441870Y-76879680D01*
X117731120Y-76882752D01*
X117855602Y-76870492D01*
X117975300Y-76834182D01*
X118085614Y-76775217D01*
X118182305Y-76695865D01*
X118247778Y-76616086D01*
X118253158Y-76622642D01*
X118387733Y-76733085D01*
X118541269Y-76815152D01*
X118707865Y-76865688D01*
X118881119Y-76882752D01*
X119531121Y-76882752D01*
X119704375Y-76865688D01*
X119870971Y-76815152D01*
X120015245Y-76738036D01*
X120078585Y-76815215D01*
X120204068Y-76918197D01*
X120347231Y-76994719D01*
X120502571Y-77041841D01*
X120664120Y-77057752D01*
X121077282Y-77057752D01*
X121060154Y-77066907D01*
X121059906Y-77255802D01*
X121244364Y-77440260D01*
X121181734Y-77513591D01*
X121170021Y-77529713D01*
X121121564Y-77608788D01*
X120914242Y-77401466D01*
X120725347Y-77401714D01*
X120657214Y-77557889D01*
X120620860Y-77724356D01*
X120617679Y-77894716D01*
X120647797Y-78062424D01*
X120710053Y-78221033D01*
X120725347Y-78249646D01*
X120871499Y-78249838D01*
X120871174Y-78251192D01*
X120869702Y-78260490D01*
X120787502Y-78342690D01*
X120005380Y-78342690D01*
X119992370Y-78329680D01*
X118943120Y-78329680D01*
X118943120Y-78342690D01*
X118689120Y-78342690D01*
X118689120Y-78329680D01*
X117639870Y-78329680D01*
X117626860Y-78342690D01*
X117025898Y-78342690D01*
X116986110Y-78338771D01*
X116946322Y-78342690D01*
X116946319Y-78342690D01*
X116827322Y-78354410D01*
X116674637Y-78400727D01*
X116533921Y-78475941D01*
X116410582Y-78577162D01*
X116385210Y-78608078D01*
X116068241Y-78925047D01*
X116068241Y-77627680D01*
X117478048Y-77627680D01*
X117481120Y-77916930D01*
X117639870Y-78075680D01*
X118689120Y-78075680D01*
X118689120Y-77151430D01*
X118943120Y-77151430D01*
X118943120Y-78075680D01*
X119992370Y-78075680D01*
X120151120Y-77916930D01*
X120154192Y-77627680D01*
X120141932Y-77503198D01*
X120105622Y-77383500D01*
X120046657Y-77273186D01*
X119967305Y-77176495D01*
X119870614Y-77097143D01*
X119760300Y-77038178D01*
X119640602Y-77001868D01*
X119516120Y-76989608D01*
X119101870Y-76992680D01*
X118943120Y-77151430D01*
X118689120Y-77151430D01*
X118530370Y-76992680D01*
X118116120Y-76989608D01*
X117991638Y-77001868D01*
X117871940Y-77038178D01*
X117761626Y-77097143D01*
X117664935Y-77176495D01*
X117585583Y-77273186D01*
X117526618Y-77383500D01*
X117490308Y-77503198D01*
X117478048Y-77627680D01*
X116068241Y-77627680D01*
X116068241Y-76620690D01*
X116129935Y-76695865D01*
X116226626Y-76775217D01*
X116336940Y-76834182D01*
X116456638Y-76870492D01*
X116581120Y-76882752D01*
X116870370Y-76879680D01*
X117029120Y-76720930D01*
X117029120Y-75671680D01*
X117009120Y-75671680D01*
X117009120Y-75417680D01*
X117029120Y-75417680D01*
X117029120Y-74368430D01*
X116870370Y-74209680D01*
X116581120Y-74206608D01*
X116456638Y-74218868D01*
X116336940Y-74255178D01*
X116226626Y-74314143D01*
X116129935Y-74393495D01*
X116068241Y-74468670D01*
X116068241Y-73852123D01*
X116071917Y-73814800D01*
X116068241Y-73777477D01*
X116068241Y-73777468D01*
X116057244Y-73665815D01*
X116013787Y-73522554D01*
X115992715Y-73483132D01*
X115943215Y-73390524D01*
X115872040Y-73303798D01*
X115848242Y-73274800D01*
X115819245Y-73251003D01*
X114787119Y-72218878D01*
X114787119Y-71801680D01*
X114811048Y-71801680D01*
X114823308Y-71926162D01*
X114859618Y-72045860D01*
X114918583Y-72156174D01*
X114997935Y-72252865D01*
X115094626Y-72332217D01*
X115204940Y-72391182D01*
X115324638Y-72427492D01*
X115449120Y-72439752D01*
X115863370Y-72436680D01*
X116022120Y-72277930D01*
X116022120Y-71353680D01*
X114972870Y-71353680D01*
X114814120Y-71512430D01*
X114811048Y-71801680D01*
X114787119Y-71801680D01*
X114787119Y-70913482D01*
X114813548Y-70887053D01*
X114814120Y-70940930D01*
G37*
X114814120Y-70940930D02*
X114972870Y-71099680D01*
X116022120Y-71099680D01*
X116022120Y-71079680D01*
X116276120Y-71079680D01*
X116276120Y-71099680D01*
X116296120Y-71099680D01*
X116296120Y-71353680D01*
X116276120Y-71353680D01*
X116276120Y-72277930D01*
X116434870Y-72436680D01*
X116849120Y-72439752D01*
X116973602Y-72427492D01*
X117093300Y-72391182D01*
X117117120Y-72378450D01*
X117117120Y-72710892D01*
X117113201Y-72750680D01*
X117117120Y-72790468D01*
X117117120Y-72790470D01*
X117128840Y-72909467D01*
X117175157Y-73062152D01*
X117199491Y-73107677D01*
X117250371Y-73202869D01*
X117280208Y-73239225D01*
X117351592Y-73326208D01*
X117382507Y-73351579D01*
X117876235Y-73845307D01*
X117901602Y-73876218D01*
X117993552Y-73951679D01*
X118024941Y-73977439D01*
X118165656Y-74052653D01*
X118201193Y-74063433D01*
X118318342Y-74098970D01*
X118437339Y-74110690D01*
X118437342Y-74110690D01*
X118477130Y-74114609D01*
X118516918Y-74110690D01*
X120317205Y-74110690D01*
X120204068Y-74171163D01*
X120078585Y-74274145D01*
X120015245Y-74351324D01*
X119870971Y-74274208D01*
X119704375Y-74223672D01*
X119531121Y-74206608D01*
X118881119Y-74206608D01*
X118707865Y-74223672D01*
X118541269Y-74274208D01*
X118387733Y-74356275D01*
X118253158Y-74466718D01*
X118247778Y-74473274D01*
X118182305Y-74393495D01*
X118085614Y-74314143D01*
X117975300Y-74255178D01*
X117855602Y-74218868D01*
X117731120Y-74206608D01*
X117441870Y-74209680D01*
X117283120Y-74368430D01*
X117283120Y-75417680D01*
X117303120Y-75417680D01*
X117303120Y-75671680D01*
X117283120Y-75671680D01*
X117283120Y-76720930D01*
X117441870Y-76879680D01*
X117731120Y-76882752D01*
X117855602Y-76870492D01*
X117975300Y-76834182D01*
X118085614Y-76775217D01*
X118182305Y-76695865D01*
X118247778Y-76616086D01*
X118253158Y-76622642D01*
X118387733Y-76733085D01*
X118541269Y-76815152D01*
X118707865Y-76865688D01*
X118881119Y-76882752D01*
X119531121Y-76882752D01*
X119704375Y-76865688D01*
X119870971Y-76815152D01*
X120015245Y-76738036D01*
X120078585Y-76815215D01*
X120204068Y-76918197D01*
X120347231Y-76994719D01*
X120502571Y-77041841D01*
X120664120Y-77057752D01*
X121077282Y-77057752D01*
X121060154Y-77066907D01*
X121059906Y-77255802D01*
X121244364Y-77440260D01*
X121181734Y-77513591D01*
X121170021Y-77529713D01*
X121121564Y-77608788D01*
X120914242Y-77401466D01*
X120725347Y-77401714D01*
X120657214Y-77557889D01*
X120620860Y-77724356D01*
X120617679Y-77894716D01*
X120647797Y-78062424D01*
X120710053Y-78221033D01*
X120725347Y-78249646D01*
X120871499Y-78249838D01*
X120871174Y-78251192D01*
X120869702Y-78260490D01*
X120787502Y-78342690D01*
X120005380Y-78342690D01*
X119992370Y-78329680D01*
X118943120Y-78329680D01*
X118943120Y-78342690D01*
X118689120Y-78342690D01*
X118689120Y-78329680D01*
X117639870Y-78329680D01*
X117626860Y-78342690D01*
X117025898Y-78342690D01*
X116986110Y-78338771D01*
X116946322Y-78342690D01*
X116946319Y-78342690D01*
X116827322Y-78354410D01*
X116674637Y-78400727D01*
X116533921Y-78475941D01*
X116410582Y-78577162D01*
X116385210Y-78608078D01*
X116068241Y-78925047D01*
X116068241Y-77627680D01*
X117478048Y-77627680D01*
X117481120Y-77916930D01*
X117639870Y-78075680D01*
X118689120Y-78075680D01*
X118689120Y-77151430D01*
X118943120Y-77151430D01*
X118943120Y-78075680D01*
X119992370Y-78075680D01*
X120151120Y-77916930D01*
X120154192Y-77627680D01*
X120141932Y-77503198D01*
X120105622Y-77383500D01*
X120046657Y-77273186D01*
X119967305Y-77176495D01*
X119870614Y-77097143D01*
X119760300Y-77038178D01*
X119640602Y-77001868D01*
X119516120Y-76989608D01*
X119101870Y-76992680D01*
X118943120Y-77151430D01*
X118689120Y-77151430D01*
X118530370Y-76992680D01*
X118116120Y-76989608D01*
X117991638Y-77001868D01*
X117871940Y-77038178D01*
X117761626Y-77097143D01*
X117664935Y-77176495D01*
X117585583Y-77273186D01*
X117526618Y-77383500D01*
X117490308Y-77503198D01*
X117478048Y-77627680D01*
X116068241Y-77627680D01*
X116068241Y-76620690D01*
X116129935Y-76695865D01*
X116226626Y-76775217D01*
X116336940Y-76834182D01*
X116456638Y-76870492D01*
X116581120Y-76882752D01*
X116870370Y-76879680D01*
X117029120Y-76720930D01*
X117029120Y-75671680D01*
X117009120Y-75671680D01*
X117009120Y-75417680D01*
X117029120Y-75417680D01*
X117029120Y-74368430D01*
X116870370Y-74209680D01*
X116581120Y-74206608D01*
X116456638Y-74218868D01*
X116336940Y-74255178D01*
X116226626Y-74314143D01*
X116129935Y-74393495D01*
X116068241Y-74468670D01*
X116068241Y-73852123D01*
X116071917Y-73814800D01*
X116068241Y-73777477D01*
X116068241Y-73777468D01*
X116057244Y-73665815D01*
X116013787Y-73522554D01*
X115992715Y-73483132D01*
X115943215Y-73390524D01*
X115872040Y-73303798D01*
X115848242Y-73274800D01*
X115819245Y-73251003D01*
X114787119Y-72218878D01*
X114787119Y-71801680D01*
X114811048Y-71801680D01*
X114823308Y-71926162D01*
X114859618Y-72045860D01*
X114918583Y-72156174D01*
X114997935Y-72252865D01*
X115094626Y-72332217D01*
X115204940Y-72391182D01*
X115324638Y-72427492D01*
X115449120Y-72439752D01*
X115863370Y-72436680D01*
X116022120Y-72277930D01*
X116022120Y-71353680D01*
X114972870Y-71353680D01*
X114814120Y-71512430D01*
X114811048Y-71801680D01*
X114787119Y-71801680D01*
X114787119Y-70913482D01*
X114813548Y-70887053D01*
X114814120Y-70940930D01*
G36*
X120548715Y-70013067D02*
G01*
X120659158Y-70147642D01*
X120746936Y-70219680D01*
X120659158Y-70291718D01*
X120570541Y-70399698D01*
X120553305Y-70378695D01*
X120456614Y-70299343D01*
X120346300Y-70240378D01*
X120226602Y-70204068D01*
X120102120Y-70191808D01*
X119552120Y-70191808D01*
X119427638Y-70204068D01*
X119351974Y-70227020D01*
X119280266Y-70204808D01*
X119162870Y-70194880D01*
X119004120Y-70353630D01*
X119004120Y-70508056D01*
X118962618Y-70585700D01*
X118926308Y-70705398D01*
X118914048Y-70829880D01*
X118914048Y-71576880D01*
X118840192Y-71576880D01*
X118840192Y-70829880D01*
X118827932Y-70705398D01*
X118791622Y-70585700D01*
X118750120Y-70508056D01*
X118750120Y-70353630D01*
X118591370Y-70194880D01*
X118473974Y-70204808D01*
X118402266Y-70227020D01*
X118326602Y-70204068D01*
X118202120Y-70191808D01*
X117652120Y-70191808D01*
X117527638Y-70204068D01*
X117407940Y-70240378D01*
X117355875Y-70268208D01*
X117300305Y-70200495D01*
X117220526Y-70135022D01*
X117227082Y-70129642D01*
X117337525Y-69995067D01*
X117349799Y-69972104D01*
X117407940Y-70003182D01*
X117527638Y-70039492D01*
X117652120Y-70051752D01*
X118202120Y-70051752D01*
X118326602Y-70039492D01*
X118402120Y-70016584D01*
X118477638Y-70039492D01*
X118602120Y-70051752D01*
X119152120Y-70051752D01*
X119276602Y-70039492D01*
X119352120Y-70016584D01*
X119427638Y-70039492D01*
X119552120Y-70051752D01*
X120102120Y-70051752D01*
X120226602Y-70039492D01*
X120346300Y-70003182D01*
X120456614Y-69944217D01*
X120495052Y-69912672D01*
X120548715Y-70013067D01*
G37*
X120548715Y-70013067D02*
X120659158Y-70147642D01*
X120746936Y-70219680D01*
X120659158Y-70291718D01*
X120570541Y-70399698D01*
X120553305Y-70378695D01*
X120456614Y-70299343D01*
X120346300Y-70240378D01*
X120226602Y-70204068D01*
X120102120Y-70191808D01*
X119552120Y-70191808D01*
X119427638Y-70204068D01*
X119351974Y-70227020D01*
X119280266Y-70204808D01*
X119162870Y-70194880D01*
X119004120Y-70353630D01*
X119004120Y-70508056D01*
X118962618Y-70585700D01*
X118926308Y-70705398D01*
X118914048Y-70829880D01*
X118914048Y-71576880D01*
X118840192Y-71576880D01*
X118840192Y-70829880D01*
X118827932Y-70705398D01*
X118791622Y-70585700D01*
X118750120Y-70508056D01*
X118750120Y-70353630D01*
X118591370Y-70194880D01*
X118473974Y-70204808D01*
X118402266Y-70227020D01*
X118326602Y-70204068D01*
X118202120Y-70191808D01*
X117652120Y-70191808D01*
X117527638Y-70204068D01*
X117407940Y-70240378D01*
X117355875Y-70268208D01*
X117300305Y-70200495D01*
X117220526Y-70135022D01*
X117227082Y-70129642D01*
X117337525Y-69995067D01*
X117349799Y-69972104D01*
X117407940Y-70003182D01*
X117527638Y-70039492D01*
X117652120Y-70051752D01*
X118202120Y-70051752D01*
X118326602Y-70039492D01*
X118402120Y-70016584D01*
X118477638Y-70039492D01*
X118602120Y-70051752D01*
X119152120Y-70051752D01*
X119276602Y-70039492D01*
X119352120Y-70016584D01*
X119427638Y-70039492D01*
X119552120Y-70051752D01*
X120102120Y-70051752D01*
X120226602Y-70039492D01*
X120346300Y-70003182D01*
X120456614Y-69944217D01*
X120495052Y-69912672D01*
X120548715Y-70013067D01*
G36*
X108730141Y-63015639D02*
G01*
X108693583Y-63060186D01*
X108634618Y-63170500D01*
X108598308Y-63290198D01*
X108586048Y-63414680D01*
X108589120Y-63828930D01*
X108747870Y-63987680D01*
X109672120Y-63987680D01*
X109672120Y-63967680D01*
X109926120Y-63967680D01*
X109926120Y-63987680D01*
X109946120Y-63987680D01*
X109946120Y-64241680D01*
X109926120Y-64241680D01*
X109926120Y-64261680D01*
X109672120Y-64261680D01*
X109672120Y-64241680D01*
X108747870Y-64241680D01*
X108589120Y-64400430D01*
X108586048Y-64814680D01*
X108598308Y-64939162D01*
X108634618Y-65058860D01*
X108693583Y-65169174D01*
X108724691Y-65207079D01*
X108644648Y-65356829D01*
X108594112Y-65523425D01*
X108577048Y-65696679D01*
X108577048Y-66596681D01*
X108589461Y-66722708D01*
X108323120Y-66456368D01*
X108323120Y-62926192D01*
X108356632Y-62892680D01*
X108664418Y-62892680D01*
X108730141Y-63015639D01*
G37*
X108730141Y-63015639D02*
X108693583Y-63060186D01*
X108634618Y-63170500D01*
X108598308Y-63290198D01*
X108586048Y-63414680D01*
X108589120Y-63828930D01*
X108747870Y-63987680D01*
X109672120Y-63987680D01*
X109672120Y-63967680D01*
X109926120Y-63967680D01*
X109926120Y-63987680D01*
X109946120Y-63987680D01*
X109946120Y-64241680D01*
X109926120Y-64241680D01*
X109926120Y-64261680D01*
X109672120Y-64261680D01*
X109672120Y-64241680D01*
X108747870Y-64241680D01*
X108589120Y-64400430D01*
X108586048Y-64814680D01*
X108598308Y-64939162D01*
X108634618Y-65058860D01*
X108693583Y-65169174D01*
X108724691Y-65207079D01*
X108644648Y-65356829D01*
X108594112Y-65523425D01*
X108577048Y-65696679D01*
X108577048Y-66596681D01*
X108589461Y-66722708D01*
X108323120Y-66456368D01*
X108323120Y-62926192D01*
X108356632Y-62892680D01*
X108664418Y-62892680D01*
X108730141Y-63015639D01*
M02*
