G04 #@! TF.GenerationSoftware,KiCad,Pcbnew,(5.1.6)-1*
G04 #@! TF.CreationDate,2021-11-15T15:55:18+01:00*
G04 #@! TF.ProjectId,SoundModulev2,536f756e-644d-46f6-9475-6c6576322e6b,rev?*
G04 #@! TF.SameCoordinates,Original*
G04 #@! TF.FileFunction,Soldermask,Bot*
G04 #@! TF.FilePolarity,Negative*
%FSLAX46Y46*%
G04 Gerber Fmt 4.6, Leading zero omitted, Abs format (unit mm)*
G04 Created by KiCad (PCBNEW (5.1.6)-1) date 2021-11-15 15:55:18*
%MOMM*%
%LPD*%
G01*
G04 APERTURE LIST*
%ADD10C,0.100000*%
G04 APERTURE END LIST*
D10*
G36*
X121489015Y-104786920D02*
G01*
X121651165Y-104854085D01*
X121651167Y-104854086D01*
X121797099Y-104951595D01*
X121921205Y-105075701D01*
X122018715Y-105221635D01*
X122085880Y-105383785D01*
X122120120Y-105555923D01*
X122120120Y-105731437D01*
X122085880Y-105903575D01*
X122018715Y-106065725D01*
X122018714Y-106065727D01*
X121921205Y-106211659D01*
X121797099Y-106335765D01*
X121651167Y-106433274D01*
X121651166Y-106433275D01*
X121651165Y-106433275D01*
X121489015Y-106500440D01*
X121316877Y-106534680D01*
X121141363Y-106534680D01*
X120969225Y-106500440D01*
X120807075Y-106433275D01*
X120807074Y-106433275D01*
X120807073Y-106433274D01*
X120661141Y-106335765D01*
X120537035Y-106211659D01*
X120439526Y-106065727D01*
X120439525Y-106065725D01*
X120372360Y-105903575D01*
X120338120Y-105731437D01*
X120338120Y-105555923D01*
X120372360Y-105383785D01*
X120439525Y-105221635D01*
X120537035Y-105075701D01*
X120661141Y-104951595D01*
X120807073Y-104854086D01*
X120807075Y-104854085D01*
X120969225Y-104786920D01*
X121141363Y-104752680D01*
X121316877Y-104752680D01*
X121489015Y-104786920D01*
G37*
G36*
X124029015Y-104786920D02*
G01*
X124191165Y-104854085D01*
X124191167Y-104854086D01*
X124337099Y-104951595D01*
X124461205Y-105075701D01*
X124558715Y-105221635D01*
X124625880Y-105383785D01*
X124660120Y-105555923D01*
X124660120Y-105731437D01*
X124625880Y-105903575D01*
X124558715Y-106065725D01*
X124558714Y-106065727D01*
X124461205Y-106211659D01*
X124337099Y-106335765D01*
X124191167Y-106433274D01*
X124191166Y-106433275D01*
X124191165Y-106433275D01*
X124029015Y-106500440D01*
X123856877Y-106534680D01*
X123681363Y-106534680D01*
X123509225Y-106500440D01*
X123347075Y-106433275D01*
X123347074Y-106433275D01*
X123347073Y-106433274D01*
X123201141Y-106335765D01*
X123077035Y-106211659D01*
X122979526Y-106065727D01*
X122979525Y-106065725D01*
X122912360Y-105903575D01*
X122878120Y-105731437D01*
X122878120Y-105555923D01*
X122912360Y-105383785D01*
X122979525Y-105221635D01*
X123077035Y-105075701D01*
X123201141Y-104951595D01*
X123347073Y-104854086D01*
X123347075Y-104854085D01*
X123509225Y-104786920D01*
X123681363Y-104752680D01*
X123856877Y-104752680D01*
X124029015Y-104786920D01*
G37*
G36*
X120510120Y-102494680D02*
G01*
X119408120Y-102494680D01*
X119408120Y-99892680D01*
X120510120Y-99892680D01*
X120510120Y-102494680D01*
G37*
G36*
X123050120Y-102494680D02*
G01*
X121948120Y-102494680D01*
X121948120Y-99892680D01*
X123050120Y-99892680D01*
X123050120Y-102494680D01*
G37*
G36*
X125590120Y-102494680D02*
G01*
X124488120Y-102494680D01*
X124488120Y-99892680D01*
X125590120Y-99892680D01*
X125590120Y-102494680D01*
G37*
G36*
X120510120Y-98794680D02*
G01*
X119408120Y-98794680D01*
X119408120Y-96192680D01*
X120510120Y-96192680D01*
X120510120Y-98794680D01*
G37*
G36*
X123050120Y-98794680D02*
G01*
X121948120Y-98794680D01*
X121948120Y-96192680D01*
X123050120Y-96192680D01*
X123050120Y-98794680D01*
G37*
G36*
X125590120Y-98794680D02*
G01*
X124488120Y-98794680D01*
X124488120Y-96192680D01*
X125590120Y-96192680D01*
X125590120Y-98794680D01*
G37*
G36*
X104096120Y-85335680D02*
G01*
X102294120Y-85335680D01*
X102294120Y-83533680D01*
X104096120Y-83533680D01*
X104096120Y-85335680D01*
G37*
G36*
X103308632Y-80998607D02*
G01*
X103457932Y-81028304D01*
X103621904Y-81096224D01*
X103769474Y-81194827D01*
X103894973Y-81320326D01*
X103993576Y-81467896D01*
X104061496Y-81631868D01*
X104096120Y-81805939D01*
X104096120Y-81983421D01*
X104061496Y-82157492D01*
X103993576Y-82321464D01*
X103894973Y-82469034D01*
X103769474Y-82594533D01*
X103621904Y-82693136D01*
X103457932Y-82761056D01*
X103308632Y-82790753D01*
X103283862Y-82795680D01*
X103106378Y-82795680D01*
X103081608Y-82790753D01*
X102932308Y-82761056D01*
X102768336Y-82693136D01*
X102620766Y-82594533D01*
X102495267Y-82469034D01*
X102396664Y-82321464D01*
X102328744Y-82157492D01*
X102294120Y-81983421D01*
X102294120Y-81805939D01*
X102328744Y-81631868D01*
X102396664Y-81467896D01*
X102495267Y-81320326D01*
X102620766Y-81194827D01*
X102768336Y-81096224D01*
X102932308Y-81028304D01*
X103081608Y-80998607D01*
X103106378Y-80993680D01*
X103283862Y-80993680D01*
X103308632Y-80998607D01*
G37*
G36*
X103308632Y-78458607D02*
G01*
X103457932Y-78488304D01*
X103621904Y-78556224D01*
X103769474Y-78654827D01*
X103894973Y-78780326D01*
X103993576Y-78927896D01*
X104061496Y-79091868D01*
X104096120Y-79265939D01*
X104096120Y-79443421D01*
X104061496Y-79617492D01*
X103993576Y-79781464D01*
X103894973Y-79929034D01*
X103769474Y-80054533D01*
X103621904Y-80153136D01*
X103457932Y-80221056D01*
X103308632Y-80250753D01*
X103283862Y-80255680D01*
X103106378Y-80255680D01*
X103081608Y-80250753D01*
X102932308Y-80221056D01*
X102768336Y-80153136D01*
X102620766Y-80054533D01*
X102495267Y-79929034D01*
X102396664Y-79781464D01*
X102328744Y-79617492D01*
X102294120Y-79443421D01*
X102294120Y-79265939D01*
X102328744Y-79091868D01*
X102396664Y-78927896D01*
X102495267Y-78780326D01*
X102620766Y-78654827D01*
X102768336Y-78556224D01*
X102932308Y-78488304D01*
X103081608Y-78458607D01*
X103106378Y-78453680D01*
X103283862Y-78453680D01*
X103308632Y-78458607D01*
G37*
G36*
X122741514Y-77666614D02*
G01*
X122892744Y-77729256D01*
X122892746Y-77729257D01*
X123028852Y-77820200D01*
X123144600Y-77935948D01*
X123235543Y-78072054D01*
X123235544Y-78072056D01*
X123298186Y-78223286D01*
X123330120Y-78383832D01*
X123330120Y-78547528D01*
X123298186Y-78708074D01*
X123235544Y-78859304D01*
X123235543Y-78859306D01*
X123144600Y-78995412D01*
X123028852Y-79111160D01*
X122892746Y-79202103D01*
X122892745Y-79202104D01*
X122892744Y-79202104D01*
X122741514Y-79264746D01*
X122580968Y-79296680D01*
X122417272Y-79296680D01*
X122256726Y-79264746D01*
X122105496Y-79202104D01*
X122105495Y-79202104D01*
X122105494Y-79202103D01*
X121969388Y-79111160D01*
X121853640Y-78995412D01*
X121762697Y-78859306D01*
X121762696Y-78859304D01*
X121700054Y-78708074D01*
X121668120Y-78547528D01*
X121668120Y-78383832D01*
X121700054Y-78223286D01*
X121762696Y-78072056D01*
X121762697Y-78072054D01*
X121853640Y-77935948D01*
X121969388Y-77820200D01*
X122105494Y-77729257D01*
X122105496Y-77729256D01*
X122256726Y-77666614D01*
X122417272Y-77634680D01*
X122580968Y-77634680D01*
X122741514Y-77666614D01*
G37*
G36*
X103308632Y-75918607D02*
G01*
X103457932Y-75948304D01*
X103621904Y-76016224D01*
X103769474Y-76114827D01*
X103894973Y-76240326D01*
X103993576Y-76387896D01*
X104061496Y-76551868D01*
X104096120Y-76725939D01*
X104096120Y-76903421D01*
X104061496Y-77077492D01*
X103993576Y-77241464D01*
X103894973Y-77389034D01*
X103769474Y-77514533D01*
X103621904Y-77613136D01*
X103457932Y-77681056D01*
X103308632Y-77710753D01*
X103283862Y-77715680D01*
X103106378Y-77715680D01*
X103081608Y-77710753D01*
X102932308Y-77681056D01*
X102768336Y-77613136D01*
X102620766Y-77514533D01*
X102495267Y-77389034D01*
X102396664Y-77241464D01*
X102328744Y-77077492D01*
X102294120Y-76903421D01*
X102294120Y-76725939D01*
X102328744Y-76551868D01*
X102396664Y-76387896D01*
X102495267Y-76240326D01*
X102620766Y-76114827D01*
X102768336Y-76016224D01*
X102932308Y-75948304D01*
X103081608Y-75918607D01*
X103106378Y-75913680D01*
X103283862Y-75913680D01*
X103308632Y-75918607D01*
G37*
G36*
X122685544Y-74307440D02*
G01*
X122685547Y-74307441D01*
X122685548Y-74307441D01*
X122864812Y-74361820D01*
X122864815Y-74361822D01*
X122864816Y-74361822D01*
X123030023Y-74450126D01*
X123174832Y-74568968D01*
X123293674Y-74713777D01*
X123365969Y-74849033D01*
X123381980Y-74878987D01*
X123381980Y-74878988D01*
X123436360Y-75058255D01*
X123450120Y-75197962D01*
X123450120Y-75891397D01*
X123436360Y-76031104D01*
X123436359Y-76031106D01*
X123436359Y-76031109D01*
X123381980Y-76210373D01*
X123381978Y-76210376D01*
X123293674Y-76375583D01*
X123174832Y-76520392D01*
X123030023Y-76639234D01*
X122864817Y-76727538D01*
X122864813Y-76727540D01*
X122685549Y-76781919D01*
X122685548Y-76781919D01*
X122685545Y-76781920D01*
X122499120Y-76800281D01*
X122312696Y-76781920D01*
X122312693Y-76781919D01*
X122312692Y-76781919D01*
X122133428Y-76727540D01*
X122133424Y-76727538D01*
X121968218Y-76639234D01*
X121823409Y-76520392D01*
X121704567Y-76375583D01*
X121616260Y-76210372D01*
X121561880Y-76031110D01*
X121548120Y-75891398D01*
X121548120Y-75197963D01*
X121561880Y-75058256D01*
X121561881Y-75058252D01*
X121616260Y-74878988D01*
X121616263Y-74878983D01*
X121704566Y-74713777D01*
X121823408Y-74568968D01*
X121968217Y-74450126D01*
X122133423Y-74361822D01*
X122133424Y-74361822D01*
X122133427Y-74361820D01*
X122312691Y-74307441D01*
X122312692Y-74307441D01*
X122312695Y-74307440D01*
X122499120Y-74289079D01*
X122685544Y-74307440D01*
G37*
G36*
X103308632Y-73378607D02*
G01*
X103457932Y-73408304D01*
X103621904Y-73476224D01*
X103769474Y-73574827D01*
X103894973Y-73700326D01*
X103993576Y-73847896D01*
X104061496Y-74011868D01*
X104096120Y-74185939D01*
X104096120Y-74363421D01*
X104061496Y-74537492D01*
X103993576Y-74701464D01*
X103894973Y-74849034D01*
X103769474Y-74974533D01*
X103621904Y-75073136D01*
X103457932Y-75141056D01*
X103308632Y-75170753D01*
X103283862Y-75175680D01*
X103106378Y-75175680D01*
X103081608Y-75170753D01*
X102932308Y-75141056D01*
X102768336Y-75073136D01*
X102620766Y-74974533D01*
X102495267Y-74849034D01*
X102396664Y-74701464D01*
X102328744Y-74537492D01*
X102294120Y-74363421D01*
X102294120Y-74185939D01*
X102328744Y-74011868D01*
X102396664Y-73847896D01*
X102495267Y-73700326D01*
X102620766Y-73574827D01*
X102768336Y-73476224D01*
X102932308Y-73408304D01*
X103081608Y-73378607D01*
X103106378Y-73373680D01*
X103283862Y-73373680D01*
X103308632Y-73378607D01*
G37*
G36*
X103308632Y-70838607D02*
G01*
X103457932Y-70868304D01*
X103621904Y-70936224D01*
X103769474Y-71034827D01*
X103894973Y-71160326D01*
X103993576Y-71307896D01*
X104061496Y-71471868D01*
X104096120Y-71645939D01*
X104096120Y-71823421D01*
X104061496Y-71997492D01*
X103993576Y-72161464D01*
X103894973Y-72309034D01*
X103769474Y-72434533D01*
X103621904Y-72533136D01*
X103457932Y-72601056D01*
X103308632Y-72630753D01*
X103283862Y-72635680D01*
X103106378Y-72635680D01*
X103081608Y-72630753D01*
X102932308Y-72601056D01*
X102768336Y-72533136D01*
X102620766Y-72434533D01*
X102495267Y-72309034D01*
X102396664Y-72161464D01*
X102328744Y-71997492D01*
X102294120Y-71823421D01*
X102294120Y-71645939D01*
X102328744Y-71471868D01*
X102396664Y-71307896D01*
X102495267Y-71160326D01*
X102620766Y-71034827D01*
X102768336Y-70936224D01*
X102932308Y-70868304D01*
X103081608Y-70838607D01*
X103106378Y-70833680D01*
X103283862Y-70833680D01*
X103308632Y-70838607D01*
G37*
M02*
