G04 #@! TF.GenerationSoftware,KiCad,Pcbnew,(5.1.6)-1*
G04 #@! TF.CreationDate,2021-11-15T15:55:18+01:00*
G04 #@! TF.ProjectId,SoundModulev2,536f756e-644d-46f6-9475-6c6576322e6b,rev?*
G04 #@! TF.SameCoordinates,Original*
G04 #@! TF.FileFunction,Profile,NP*
%FSLAX46Y46*%
G04 Gerber Fmt 4.6, Leading zero omitted, Abs format (unit mm)*
G04 Created by KiCad (PCBNEW (5.1.6)-1) date 2021-11-15 15:55:18*
%MOMM*%
%LPD*%
G01*
G04 APERTURE LIST*
G04 #@! TA.AperFunction,Profile*
%ADD10C,0.050000*%
G04 #@! TD*
G04 APERTURE END LIST*
D10*
X117931880Y-108250360D02*
X117926797Y-108268378D01*
X117931879Y-106954962D02*
X117931880Y-108250360D01*
X139997920Y-108268380D02*
X128087922Y-108268380D01*
X89989802Y-93304361D02*
X89989802Y-93304361D01*
X87497919Y-77957678D02*
X102156260Y-103346509D01*
X127075880Y-108250360D02*
X127075880Y-106954962D01*
X127075880Y-106954962D02*
X117931879Y-106954962D01*
X139997920Y-108268380D02*
X154657634Y-82877166D01*
X139997922Y-47646980D02*
X110687800Y-47646978D01*
X154666987Y-82816777D02*
G75*
G03*
X154069196Y-81534810I-939879J342088D01*
G01*
X154040823Y-74290852D02*
G75*
G03*
X154638614Y-73008881I-342090J939881D01*
G01*
X153093141Y-80140126D02*
G75*
G03*
X154069196Y-81534810I1484459J0D01*
G01*
X154040442Y-74289869D02*
G75*
G03*
X153077600Y-75690964I537989J-1401093D01*
G01*
X117926797Y-108268378D02*
X110738601Y-108268381D01*
X128087922Y-108268380D02*
X127096200Y-108268380D01*
X102183950Y-103375763D02*
G75*
G03*
X103593063Y-103499044I766197J642916D01*
G01*
X102165762Y-52580462D02*
X102125159Y-52622720D01*
X105269019Y-52591300D02*
X107200252Y-51476299D01*
X103574217Y-52458000D02*
G75*
G03*
X105269019Y-52591300I944388J1166456D01*
G01*
X109880703Y-107096447D02*
G75*
G03*
X110692026Y-108255136I985006J-173683D01*
G01*
X110692026Y-108255136D02*
X110738601Y-108268381D01*
X105288918Y-103351100D02*
G75*
G03*
X103593063Y-103499044I-742229J-1285575D01*
G01*
X109881741Y-107096611D02*
G75*
G03*
X109149780Y-105562219I-1482375J234635D01*
G01*
X109149780Y-105562219D02*
X107218546Y-104447220D01*
X110645462Y-47651941D02*
X110687800Y-47646978D01*
X107200252Y-51476299D02*
X109114336Y-50353252D01*
X103574876Y-52457178D02*
G75*
G03*
X102165762Y-52580462I-642915J-766199D01*
G01*
X153077600Y-75690964D02*
X153077601Y-77920958D01*
X154621042Y-72974818D02*
X139997922Y-47646980D01*
X154666991Y-82816779D02*
X154657634Y-82877166D01*
X110645463Y-47651940D02*
G75*
G03*
X109834140Y-48810629I173683J-985006D01*
G01*
X102125159Y-52622720D02*
X87497919Y-77957678D01*
X153077601Y-77920958D02*
X153093145Y-80140127D01*
X109114332Y-50353250D02*
G75*
G03*
X109834140Y-48810629I-742221J1285577D01*
G01*
X154621042Y-72974818D02*
X154638614Y-73008881D01*
X127075880Y-108250360D02*
X127096200Y-108268380D01*
X102156260Y-103346509D02*
X102183946Y-103375761D01*
X107218546Y-104447220D02*
X105288922Y-103351099D01*
M02*
