G04 #@! TF.GenerationSoftware,KiCad,Pcbnew,(5.1.6)-1*
G04 #@! TF.CreationDate,2021-11-15T16:14:39+01:00*
G04 #@! TF.ProjectId,SoundModulev2,536f756e-644d-46f6-9475-6c6576322e6b,rev?*
G04 #@! TF.SameCoordinates,Original*
G04 #@! TF.FileFunction,Legend,Top*
G04 #@! TF.FilePolarity,Positive*
%FSLAX46Y46*%
G04 Gerber Fmt 4.6, Leading zero omitted, Abs format (unit mm)*
G04 Created by KiCad (PCBNEW (5.1.6)-1) date 2021-11-15 16:14:39*
%MOMM*%
%LPD*%
G01*
G04 APERTURE LIST*
%ADD10C,0.125000*%
%ADD11C,0.120000*%
%ADD12C,0.200000*%
%ADD13C,0.150000*%
%ADD14C,0.070000*%
G04 APERTURE END LIST*
D10*
X135159596Y-93789013D02*
X135397691Y-93789013D01*
X135111977Y-93931870D02*
X135278643Y-93431870D01*
X135445310Y-93931870D01*
X135611977Y-93931870D02*
X135611977Y-93431870D01*
X135897691Y-93931870D01*
X135897691Y-93431870D01*
X136111977Y-93789013D02*
X136350072Y-93789013D01*
X136064358Y-93931870D02*
X136231024Y-93431870D01*
X136397691Y-93931870D01*
X136802453Y-93931870D02*
X136564358Y-93931870D01*
X136564358Y-93431870D01*
X137064358Y-93431870D02*
X137159596Y-93431870D01*
X137207215Y-93455680D01*
X137254834Y-93503299D01*
X137278643Y-93598537D01*
X137278643Y-93765203D01*
X137254834Y-93860441D01*
X137207215Y-93908060D01*
X137159596Y-93931870D01*
X137064358Y-93931870D01*
X137016739Y-93908060D01*
X136969120Y-93860441D01*
X136945310Y-93765203D01*
X136945310Y-93598537D01*
X136969120Y-93503299D01*
X137016739Y-93455680D01*
X137064358Y-93431870D01*
X137754834Y-93455680D02*
X137707215Y-93431870D01*
X137635786Y-93431870D01*
X137564358Y-93455680D01*
X137516739Y-93503299D01*
X137492929Y-93550918D01*
X137469120Y-93646156D01*
X137469120Y-93717584D01*
X137492929Y-93812822D01*
X137516739Y-93860441D01*
X137564358Y-93908060D01*
X137635786Y-93931870D01*
X137683405Y-93931870D01*
X137754834Y-93908060D01*
X137778643Y-93884251D01*
X137778643Y-93717584D01*
X137683405Y-93717584D01*
X106286881Y-92153870D02*
X106286881Y-91653870D01*
X106405929Y-91653870D01*
X106477358Y-91677680D01*
X106524977Y-91725299D01*
X106548786Y-91772918D01*
X106572596Y-91868156D01*
X106572596Y-91939584D01*
X106548786Y-92034822D01*
X106524977Y-92082441D01*
X106477358Y-92130060D01*
X106405929Y-92153870D01*
X106286881Y-92153870D01*
X106882120Y-91653870D02*
X106977358Y-91653870D01*
X107024977Y-91677680D01*
X107072596Y-91725299D01*
X107096405Y-91820537D01*
X107096405Y-91987203D01*
X107072596Y-92082441D01*
X107024977Y-92130060D01*
X106977358Y-92153870D01*
X106882120Y-92153870D01*
X106834500Y-92130060D01*
X106786881Y-92082441D01*
X106763072Y-91987203D01*
X106763072Y-91820537D01*
X106786881Y-91725299D01*
X106834500Y-91677680D01*
X106882120Y-91653870D01*
X107310691Y-91653870D02*
X107310691Y-92058632D01*
X107334500Y-92106251D01*
X107358310Y-92130060D01*
X107405929Y-92153870D01*
X107501167Y-92153870D01*
X107548786Y-92130060D01*
X107572596Y-92106251D01*
X107596405Y-92058632D01*
X107596405Y-91653870D01*
X107763072Y-91653870D02*
X108048786Y-91653870D01*
X107905929Y-92153870D02*
X107905929Y-91653870D01*
X107716748Y-100785965D02*
X107716748Y-100035965D01*
X107895320Y-100035965D01*
X108002462Y-100071680D01*
X108073891Y-100143108D01*
X108109605Y-100214537D01*
X108145320Y-100357394D01*
X108145320Y-100464537D01*
X108109605Y-100607394D01*
X108073891Y-100678822D01*
X108002462Y-100750251D01*
X107895320Y-100785965D01*
X107716748Y-100785965D01*
X108752462Y-100750251D02*
X108681034Y-100785965D01*
X108538177Y-100785965D01*
X108466748Y-100750251D01*
X108431034Y-100678822D01*
X108431034Y-100393108D01*
X108466748Y-100321680D01*
X108538177Y-100285965D01*
X108681034Y-100285965D01*
X108752462Y-100321680D01*
X108788177Y-100393108D01*
X108788177Y-100464537D01*
X108431034Y-100535965D01*
X109073891Y-100750251D02*
X109145320Y-100785965D01*
X109288177Y-100785965D01*
X109359605Y-100750251D01*
X109395320Y-100678822D01*
X109395320Y-100643108D01*
X109359605Y-100571680D01*
X109288177Y-100535965D01*
X109181034Y-100535965D01*
X109109605Y-100500251D01*
X109073891Y-100428822D01*
X109073891Y-100393108D01*
X109109605Y-100321680D01*
X109181034Y-100285965D01*
X109288177Y-100285965D01*
X109359605Y-100321680D01*
X109716748Y-100785965D02*
X109716748Y-100285965D01*
X109716748Y-100035965D02*
X109681034Y-100071680D01*
X109716748Y-100107394D01*
X109752462Y-100071680D01*
X109716748Y-100035965D01*
X109716748Y-100107394D01*
X110395320Y-100285965D02*
X110395320Y-100893108D01*
X110359605Y-100964537D01*
X110323891Y-101000251D01*
X110252462Y-101035965D01*
X110145320Y-101035965D01*
X110073891Y-101000251D01*
X110395320Y-100750251D02*
X110323891Y-100785965D01*
X110181034Y-100785965D01*
X110109605Y-100750251D01*
X110073891Y-100714537D01*
X110038177Y-100643108D01*
X110038177Y-100428822D01*
X110073891Y-100357394D01*
X110109605Y-100321680D01*
X110181034Y-100285965D01*
X110323891Y-100285965D01*
X110395320Y-100321680D01*
X110752462Y-100285965D02*
X110752462Y-100785965D01*
X110752462Y-100357394D02*
X110788177Y-100321680D01*
X110859605Y-100285965D01*
X110966748Y-100285965D01*
X111038177Y-100321680D01*
X111073891Y-100393108D01*
X111073891Y-100785965D01*
X111716748Y-100750251D02*
X111645320Y-100785965D01*
X111502462Y-100785965D01*
X111431034Y-100750251D01*
X111395320Y-100678822D01*
X111395320Y-100393108D01*
X111431034Y-100321680D01*
X111502462Y-100285965D01*
X111645320Y-100285965D01*
X111716748Y-100321680D01*
X111752462Y-100393108D01*
X111752462Y-100464537D01*
X111395320Y-100535965D01*
X112395320Y-100785965D02*
X112395320Y-100035965D01*
X112395320Y-100750251D02*
X112323891Y-100785965D01*
X112181034Y-100785965D01*
X112109605Y-100750251D01*
X112073891Y-100714537D01*
X112038177Y-100643108D01*
X112038177Y-100428822D01*
X112073891Y-100357394D01*
X112109605Y-100321680D01*
X112181034Y-100285965D01*
X112323891Y-100285965D01*
X112395320Y-100321680D01*
X113323891Y-100785965D02*
X113323891Y-100035965D01*
X113323891Y-100321680D02*
X113395320Y-100285965D01*
X113538177Y-100285965D01*
X113609605Y-100321680D01*
X113645320Y-100357394D01*
X113681034Y-100428822D01*
X113681034Y-100643108D01*
X113645320Y-100714537D01*
X113609605Y-100750251D01*
X113538177Y-100785965D01*
X113395320Y-100785965D01*
X113323891Y-100750251D01*
X113931034Y-100285965D02*
X114109605Y-100785965D01*
X114288177Y-100285965D02*
X114109605Y-100785965D01*
X114038177Y-100964537D01*
X114002462Y-101000251D01*
X113931034Y-101035965D01*
X114573891Y-100714537D02*
X114609605Y-100750251D01*
X114573891Y-100785965D01*
X114538177Y-100750251D01*
X114573891Y-100714537D01*
X114573891Y-100785965D01*
X114573891Y-100321680D02*
X114609605Y-100357394D01*
X114573891Y-100393108D01*
X114538177Y-100357394D01*
X114573891Y-100321680D01*
X114573891Y-100393108D01*
X107520320Y-101285965D02*
X107520320Y-101821680D01*
X107484605Y-101928822D01*
X107413177Y-102000251D01*
X107306034Y-102035965D01*
X107234605Y-102035965D01*
X107984605Y-102035965D02*
X107913177Y-102000251D01*
X107877462Y-101964537D01*
X107841748Y-101893108D01*
X107841748Y-101678822D01*
X107877462Y-101607394D01*
X107913177Y-101571680D01*
X107984605Y-101535965D01*
X108091748Y-101535965D01*
X108163177Y-101571680D01*
X108198891Y-101607394D01*
X108234605Y-101678822D01*
X108234605Y-101893108D01*
X108198891Y-101964537D01*
X108163177Y-102000251D01*
X108091748Y-102035965D01*
X107984605Y-102035965D01*
X108556034Y-101535965D02*
X108556034Y-102035965D01*
X108556034Y-101607394D02*
X108591748Y-101571680D01*
X108663177Y-101535965D01*
X108770320Y-101535965D01*
X108841748Y-101571680D01*
X108877462Y-101643108D01*
X108877462Y-102035965D01*
X109556034Y-102035965D02*
X109556034Y-101643108D01*
X109520320Y-101571680D01*
X109448891Y-101535965D01*
X109306034Y-101535965D01*
X109234605Y-101571680D01*
X109556034Y-102000251D02*
X109484605Y-102035965D01*
X109306034Y-102035965D01*
X109234605Y-102000251D01*
X109198891Y-101928822D01*
X109198891Y-101857394D01*
X109234605Y-101785965D01*
X109306034Y-101750251D01*
X109484605Y-101750251D01*
X109556034Y-101714537D01*
X110913177Y-101964537D02*
X110877462Y-102000251D01*
X110770320Y-102035965D01*
X110698891Y-102035965D01*
X110591748Y-102000251D01*
X110520320Y-101928822D01*
X110484605Y-101857394D01*
X110448891Y-101714537D01*
X110448891Y-101607394D01*
X110484605Y-101464537D01*
X110520320Y-101393108D01*
X110591748Y-101321680D01*
X110698891Y-101285965D01*
X110770320Y-101285965D01*
X110877462Y-101321680D01*
X110913177Y-101357394D01*
X111556034Y-102035965D02*
X111556034Y-101643108D01*
X111520320Y-101571680D01*
X111448891Y-101535965D01*
X111306034Y-101535965D01*
X111234605Y-101571680D01*
X111556034Y-102000251D02*
X111484605Y-102035965D01*
X111306034Y-102035965D01*
X111234605Y-102000251D01*
X111198891Y-101928822D01*
X111198891Y-101857394D01*
X111234605Y-101785965D01*
X111306034Y-101750251D01*
X111484605Y-101750251D01*
X111556034Y-101714537D01*
X111913177Y-101535965D02*
X111913177Y-102285965D01*
X111913177Y-101571680D02*
X111984605Y-101535965D01*
X112127462Y-101535965D01*
X112198891Y-101571680D01*
X112234605Y-101607394D01*
X112270320Y-101678822D01*
X112270320Y-101893108D01*
X112234605Y-101964537D01*
X112198891Y-102000251D01*
X112127462Y-102035965D01*
X111984605Y-102035965D01*
X111913177Y-102000251D01*
X112591748Y-101535965D02*
X112591748Y-102285965D01*
X112591748Y-101571680D02*
X112663177Y-101535965D01*
X112806034Y-101535965D01*
X112877462Y-101571680D01*
X112913177Y-101607394D01*
X112948891Y-101678822D01*
X112948891Y-101893108D01*
X112913177Y-101964537D01*
X112877462Y-102000251D01*
X112806034Y-102035965D01*
X112663177Y-102035965D01*
X112591748Y-102000251D01*
X113556034Y-102000251D02*
X113484605Y-102035965D01*
X113341748Y-102035965D01*
X113270320Y-102000251D01*
X113234605Y-101928822D01*
X113234605Y-101643108D01*
X113270320Y-101571680D01*
X113341748Y-101535965D01*
X113484605Y-101535965D01*
X113556034Y-101571680D01*
X113591748Y-101643108D01*
X113591748Y-101714537D01*
X113234605Y-101785965D01*
X114020320Y-102035965D02*
X113948891Y-102000251D01*
X113913177Y-101928822D01*
X113913177Y-101285965D01*
X114413177Y-102035965D02*
X114341748Y-102000251D01*
X114306034Y-101928822D01*
X114306034Y-101285965D01*
X114984605Y-102000251D02*
X114913177Y-102035965D01*
X114770320Y-102035965D01*
X114698891Y-102000251D01*
X114663177Y-101928822D01*
X114663177Y-101643108D01*
X114698891Y-101571680D01*
X114770320Y-101535965D01*
X114913177Y-101535965D01*
X114984605Y-101571680D01*
X115020320Y-101643108D01*
X115020320Y-101714537D01*
X114663177Y-101785965D01*
X106227358Y-88597870D02*
X106227358Y-88097870D01*
X106394024Y-88455013D01*
X106560691Y-88097870D01*
X106560691Y-88597870D01*
X106894024Y-88097870D02*
X106989262Y-88097870D01*
X107036881Y-88121680D01*
X107084500Y-88169299D01*
X107108310Y-88264537D01*
X107108310Y-88431203D01*
X107084500Y-88526441D01*
X107036881Y-88574060D01*
X106989262Y-88597870D01*
X106894024Y-88597870D01*
X106846405Y-88574060D01*
X106798786Y-88526441D01*
X106774977Y-88431203D01*
X106774977Y-88264537D01*
X106798786Y-88169299D01*
X106846405Y-88121680D01*
X106894024Y-88097870D01*
X107322596Y-88597870D02*
X107322596Y-88097870D01*
X107441643Y-88097870D01*
X107513072Y-88121680D01*
X107560691Y-88169299D01*
X107584500Y-88216918D01*
X107608310Y-88312156D01*
X107608310Y-88383584D01*
X107584500Y-88478822D01*
X107560691Y-88526441D01*
X107513072Y-88574060D01*
X107441643Y-88597870D01*
X107322596Y-88597870D01*
X107822596Y-88335965D02*
X107989262Y-88335965D01*
X108060691Y-88597870D02*
X107822596Y-88597870D01*
X107822596Y-88097870D01*
X108060691Y-88097870D01*
D11*
X101417120Y-84307680D02*
X100655120Y-83799680D01*
X100655120Y-84815680D02*
X101417120Y-84307680D01*
X100655120Y-83799680D02*
X100655120Y-84815680D01*
X120214120Y-77004680D02*
X124099120Y-77004680D01*
X120214120Y-74084680D02*
X120214120Y-77004680D01*
X124099120Y-74084680D02*
X120214120Y-74084680D01*
X134617120Y-93705680D02*
G75*
G03*
X134617120Y-93705680I-1450000J0D01*
G01*
X111757120Y-92054680D02*
G75*
G03*
X111757120Y-92054680I-1450000J0D01*
G01*
X111757120Y-88371680D02*
G75*
G03*
X111757120Y-88371680I-1450000J0D01*
G01*
X118106120Y-79488932D02*
X118106120Y-78966428D01*
X119526120Y-79488932D02*
X119526120Y-78966428D01*
X136857372Y-82985680D02*
X136334868Y-82985680D01*
X136857372Y-81565680D02*
X136334868Y-81565680D01*
X122887372Y-82962680D02*
X122364868Y-82962680D01*
X122887372Y-84382680D02*
X122364868Y-84382680D01*
D12*
X137396120Y-78195680D02*
X135796120Y-78195680D01*
X135796120Y-78195680D02*
X135796120Y-76195680D01*
X135796120Y-76195680D02*
X137396120Y-76195680D01*
X137396120Y-76195680D02*
X137396120Y-78195680D01*
X138596120Y-78445680D02*
X137746120Y-78445680D01*
D11*
X136730372Y-73079680D02*
X136207868Y-73079680D01*
X136730372Y-71659680D02*
X136207868Y-71659680D01*
X136334868Y-79533680D02*
X136857372Y-79533680D01*
X136334868Y-80953680D02*
X136857372Y-80953680D01*
X136207868Y-73691680D02*
X136730372Y-73691680D01*
X136207868Y-75111680D02*
X136730372Y-75111680D01*
X131695120Y-77456932D02*
X131695120Y-76934428D01*
X133115120Y-77456932D02*
X133115120Y-76934428D01*
X122364868Y-86541680D02*
X122887372Y-86541680D01*
X122364868Y-85121680D02*
X122887372Y-85121680D01*
X127123120Y-70480932D02*
X127123120Y-69958428D01*
X128543120Y-70480932D02*
X128543120Y-69958428D01*
X116859120Y-69940428D02*
X116859120Y-70462932D01*
X115439120Y-69940428D02*
X115439120Y-70462932D01*
X128543120Y-64638932D02*
X128543120Y-64116428D01*
X127123120Y-64638932D02*
X127123120Y-64116428D01*
X110562868Y-64824680D02*
X111085372Y-64824680D01*
X110562868Y-63404680D02*
X111085372Y-63404680D01*
X116963120Y-64638932D02*
X116963120Y-64116428D01*
X118383120Y-64638932D02*
X118383120Y-64116428D01*
X120415120Y-64638932D02*
X120415120Y-64116428D01*
X118995120Y-64638932D02*
X118995120Y-64116428D01*
X120415120Y-57254932D02*
X120415120Y-56732428D01*
X118995120Y-57254932D02*
X118995120Y-56732428D01*
X125091120Y-56732428D02*
X125091120Y-57254932D01*
X126511120Y-56732428D02*
X126511120Y-57254932D01*
D13*
X121024120Y-77315680D02*
X121024120Y-81075680D01*
X121024120Y-81075680D02*
X123974120Y-81075680D01*
X123974120Y-81075680D02*
X123974120Y-77315680D01*
X123974120Y-77315680D02*
X121024120Y-77315680D01*
D11*
X105914120Y-83030428D02*
X105914120Y-83552932D01*
X107334120Y-83030428D02*
X107334120Y-83552932D01*
X118442372Y-74834680D02*
X117919868Y-74834680D01*
X118442372Y-76254680D02*
X117919868Y-76254680D01*
X126511120Y-70480932D02*
X126511120Y-69958428D01*
X125091120Y-70480932D02*
X125091120Y-69958428D01*
X124479120Y-69958428D02*
X124479120Y-70480932D01*
X123059120Y-69958428D02*
X123059120Y-70480932D01*
X111085372Y-62792680D02*
X110562868Y-62792680D01*
X111085372Y-61372680D02*
X110562868Y-61372680D01*
X110562868Y-59340680D02*
X111085372Y-59340680D01*
X110562868Y-60760680D02*
X111085372Y-60760680D01*
X122447120Y-69958428D02*
X122447120Y-70480932D01*
X121027120Y-69958428D02*
X121027120Y-70480932D01*
X125091120Y-64638932D02*
X125091120Y-64116428D01*
X126511120Y-64638932D02*
X126511120Y-64116428D01*
X123059120Y-64116428D02*
X123059120Y-64638932D01*
X124479120Y-64116428D02*
X124479120Y-64638932D01*
X121027120Y-64638932D02*
X121027120Y-64116428D01*
X122447120Y-64638932D02*
X122447120Y-64116428D01*
X121027120Y-56732428D02*
X121027120Y-57254932D01*
X122447120Y-56732428D02*
X122447120Y-57254932D01*
X124479120Y-57254932D02*
X124479120Y-56732428D01*
X123059120Y-57254932D02*
X123059120Y-56732428D01*
X128543120Y-56732428D02*
X128543120Y-57254932D01*
X127123120Y-56732428D02*
X127123120Y-57254932D01*
X120403620Y-87355680D02*
X124848620Y-87355680D01*
X124848620Y-87355680D02*
X124848620Y-94340680D01*
X124848620Y-94340680D02*
X120403620Y-94340680D01*
X120403620Y-94340680D02*
X120403620Y-87355680D01*
X121165620Y-87736680D02*
G75*
G03*
X121165620Y-87736680I-254000J0D01*
G01*
D14*
X117419120Y-69575680D02*
X120233440Y-69575680D01*
X120213120Y-69575680D02*
X120213120Y-70655180D01*
X120213120Y-70655180D02*
X117419120Y-70655180D01*
X117419120Y-69575680D02*
X117419120Y-70655180D01*
X117421272Y-70317717D02*
G75*
G03*
X117685820Y-70096380I58808J198477D01*
G01*
X117685820Y-70091300D02*
G75*
G03*
X117475000Y-69875400I-213360J2540D01*
G01*
X111196120Y-67162680D02*
X111196120Y-69977000D01*
X111196120Y-69956680D02*
X110116620Y-69956680D01*
X110116620Y-69956680D02*
X110116620Y-67162680D01*
X111196120Y-67162680D02*
X110116620Y-67162680D01*
X110454083Y-67164832D02*
G75*
G03*
X110675420Y-67429380I198477J-58808D01*
G01*
X110680500Y-67429380D02*
G75*
G03*
X110896400Y-67218560I2540J213360D01*
G01*
X118435120Y-57637680D02*
X118435120Y-56558180D01*
X115641120Y-56558180D02*
X118435120Y-56558180D01*
X115641120Y-57637680D02*
X115641120Y-56558180D01*
X118435120Y-57637680D02*
X115620800Y-57637680D01*
X118168420Y-57122060D02*
G75*
G03*
X118379240Y-57337960I213360J-2540D01*
G01*
X118432968Y-56895643D02*
G75*
G03*
X118168420Y-57116980I-58808J-198477D01*
G01*
D11*
X110553868Y-65436680D02*
X111076372Y-65436680D01*
X110553868Y-66856680D02*
X111076372Y-66856680D01*
X110544868Y-71936680D02*
X111067372Y-71936680D01*
X110544868Y-70516680D02*
X111067372Y-70516680D01*
D10*
X122130072Y-73625870D02*
X122130072Y-73125870D01*
X122249120Y-73125870D01*
X122320548Y-73149680D01*
X122368167Y-73197299D01*
X122391977Y-73244918D01*
X122415786Y-73340156D01*
X122415786Y-73411584D01*
X122391977Y-73506822D01*
X122368167Y-73554441D01*
X122320548Y-73602060D01*
X122249120Y-73625870D01*
X122130072Y-73625870D01*
X122891977Y-73625870D02*
X122606262Y-73625870D01*
X122749120Y-73625870D02*
X122749120Y-73125870D01*
X122701500Y-73197299D01*
X122653881Y-73244918D01*
X122606262Y-73268727D01*
X133000453Y-90891870D02*
X133000453Y-91249013D01*
X132976643Y-91320441D01*
X132929024Y-91368060D01*
X132857596Y-91391870D01*
X132809977Y-91391870D01*
X133190929Y-90891870D02*
X133524262Y-90891870D01*
X133309977Y-91391870D01*
X112553453Y-91780870D02*
X112553453Y-92138013D01*
X112529643Y-92209441D01*
X112482024Y-92257060D01*
X112410596Y-92280870D01*
X112362977Y-92280870D01*
X113005834Y-91780870D02*
X112910596Y-91780870D01*
X112862977Y-91804680D01*
X112839167Y-91828489D01*
X112791548Y-91899918D01*
X112767739Y-91995156D01*
X112767739Y-92185632D01*
X112791548Y-92233251D01*
X112815358Y-92257060D01*
X112862977Y-92280870D01*
X112958215Y-92280870D01*
X113005834Y-92257060D01*
X113029643Y-92233251D01*
X113053453Y-92185632D01*
X113053453Y-92066584D01*
X113029643Y-92018965D01*
X113005834Y-91995156D01*
X112958215Y-91971346D01*
X112862977Y-91971346D01*
X112815358Y-91995156D01*
X112791548Y-92018965D01*
X112767739Y-92066584D01*
X112426453Y-87970870D02*
X112426453Y-88328013D01*
X112402643Y-88399441D01*
X112355024Y-88447060D01*
X112283596Y-88470870D01*
X112235977Y-88470870D01*
X112878834Y-88137537D02*
X112878834Y-88470870D01*
X112759786Y-87947060D02*
X112640739Y-88304203D01*
X112950262Y-88304203D01*
X118732786Y-81955251D02*
X118708977Y-81979060D01*
X118637548Y-82002870D01*
X118589929Y-82002870D01*
X118518500Y-81979060D01*
X118470881Y-81931441D01*
X118447072Y-81883822D01*
X118423262Y-81788584D01*
X118423262Y-81717156D01*
X118447072Y-81621918D01*
X118470881Y-81574299D01*
X118518500Y-81526680D01*
X118589929Y-81502870D01*
X118637548Y-81502870D01*
X118708977Y-81526680D01*
X118732786Y-81550489D01*
X118923262Y-81550489D02*
X118947072Y-81526680D01*
X118994691Y-81502870D01*
X119113739Y-81502870D01*
X119161358Y-81526680D01*
X119185167Y-81550489D01*
X119208977Y-81598108D01*
X119208977Y-81645727D01*
X119185167Y-81717156D01*
X118899453Y-82002870D01*
X119208977Y-82002870D01*
X139195691Y-82501870D02*
X139029024Y-82263775D01*
X138909977Y-82501870D02*
X138909977Y-82001870D01*
X139100453Y-82001870D01*
X139148072Y-82025680D01*
X139171881Y-82049489D01*
X139195691Y-82097108D01*
X139195691Y-82168537D01*
X139171881Y-82216156D01*
X139148072Y-82239965D01*
X139100453Y-82263775D01*
X138909977Y-82263775D01*
X139671881Y-82501870D02*
X139386167Y-82501870D01*
X139529024Y-82501870D02*
X139529024Y-82001870D01*
X139481405Y-82073299D01*
X139433786Y-82120918D01*
X139386167Y-82144727D01*
X139838548Y-82001870D02*
X140171881Y-82001870D01*
X139957596Y-82501870D01*
X119510691Y-83898870D02*
X119344024Y-83660775D01*
X119224977Y-83898870D02*
X119224977Y-83398870D01*
X119415453Y-83398870D01*
X119463072Y-83422680D01*
X119486881Y-83446489D01*
X119510691Y-83494108D01*
X119510691Y-83565537D01*
X119486881Y-83613156D01*
X119463072Y-83636965D01*
X119415453Y-83660775D01*
X119224977Y-83660775D01*
X119986881Y-83898870D02*
X119701167Y-83898870D01*
X119844024Y-83898870D02*
X119844024Y-83398870D01*
X119796405Y-83470299D01*
X119748786Y-83517918D01*
X119701167Y-83541727D01*
X120272596Y-83613156D02*
X120224977Y-83589346D01*
X120201167Y-83565537D01*
X120177358Y-83517918D01*
X120177358Y-83494108D01*
X120201167Y-83446489D01*
X120224977Y-83422680D01*
X120272596Y-83398870D01*
X120367834Y-83398870D01*
X120415453Y-83422680D01*
X120439262Y-83446489D01*
X120463072Y-83494108D01*
X120463072Y-83517918D01*
X120439262Y-83565537D01*
X120415453Y-83589346D01*
X120367834Y-83613156D01*
X120272596Y-83613156D01*
X120224977Y-83636965D01*
X120201167Y-83660775D01*
X120177358Y-83708394D01*
X120177358Y-83803632D01*
X120201167Y-83851251D01*
X120224977Y-83875060D01*
X120272596Y-83898870D01*
X120367834Y-83898870D01*
X120415453Y-83875060D01*
X120439262Y-83851251D01*
X120463072Y-83803632D01*
X120463072Y-83708394D01*
X120439262Y-83660775D01*
X120415453Y-83636965D01*
X120367834Y-83613156D01*
X139918024Y-76786870D02*
X139918024Y-76286870D01*
X140441834Y-76739251D02*
X140418024Y-76763060D01*
X140346596Y-76786870D01*
X140298977Y-76786870D01*
X140227548Y-76763060D01*
X140179929Y-76715441D01*
X140156120Y-76667822D01*
X140132310Y-76572584D01*
X140132310Y-76501156D01*
X140156120Y-76405918D01*
X140179929Y-76358299D01*
X140227548Y-76310680D01*
X140298977Y-76286870D01*
X140346596Y-76286870D01*
X140418024Y-76310680D01*
X140441834Y-76334489D01*
X140918024Y-76786870D02*
X140632310Y-76786870D01*
X140775167Y-76786870D02*
X140775167Y-76286870D01*
X140727548Y-76358299D01*
X140679929Y-76405918D01*
X140632310Y-76429727D01*
X139052786Y-74373870D02*
X138886120Y-74135775D01*
X138767072Y-74373870D02*
X138767072Y-73873870D01*
X138957548Y-73873870D01*
X139005167Y-73897680D01*
X139028977Y-73921489D01*
X139052786Y-73969108D01*
X139052786Y-74040537D01*
X139028977Y-74088156D01*
X139005167Y-74111965D01*
X138957548Y-74135775D01*
X138767072Y-74135775D01*
X139219453Y-73873870D02*
X139528977Y-73873870D01*
X139362310Y-74064346D01*
X139433739Y-74064346D01*
X139481358Y-74088156D01*
X139505167Y-74111965D01*
X139528977Y-74159584D01*
X139528977Y-74278632D01*
X139505167Y-74326251D01*
X139481358Y-74350060D01*
X139433739Y-74373870D01*
X139290881Y-74373870D01*
X139243262Y-74350060D01*
X139219453Y-74326251D01*
X139179786Y-80596870D02*
X139013120Y-80358775D01*
X138894072Y-80596870D02*
X138894072Y-80096870D01*
X139084548Y-80096870D01*
X139132167Y-80120680D01*
X139155977Y-80144489D01*
X139179786Y-80192108D01*
X139179786Y-80263537D01*
X139155977Y-80311156D01*
X139132167Y-80334965D01*
X139084548Y-80358775D01*
X138894072Y-80358775D01*
X139370262Y-80144489D02*
X139394072Y-80120680D01*
X139441691Y-80096870D01*
X139560739Y-80096870D01*
X139608358Y-80120680D01*
X139632167Y-80144489D01*
X139655977Y-80192108D01*
X139655977Y-80239727D01*
X139632167Y-80311156D01*
X139346453Y-80596870D01*
X139655977Y-80596870D01*
X139052786Y-72722870D02*
X138886120Y-72484775D01*
X138767072Y-72722870D02*
X138767072Y-72222870D01*
X138957548Y-72222870D01*
X139005167Y-72246680D01*
X139028977Y-72270489D01*
X139052786Y-72318108D01*
X139052786Y-72389537D01*
X139028977Y-72437156D01*
X139005167Y-72460965D01*
X138957548Y-72484775D01*
X138767072Y-72484775D01*
X139528977Y-72722870D02*
X139243262Y-72722870D01*
X139386120Y-72722870D02*
X139386120Y-72222870D01*
X139338500Y-72294299D01*
X139290881Y-72341918D01*
X139243262Y-72365727D01*
X130051691Y-77501251D02*
X130027881Y-77525060D01*
X129956453Y-77548870D01*
X129908834Y-77548870D01*
X129837405Y-77525060D01*
X129789786Y-77477441D01*
X129765977Y-77429822D01*
X129742167Y-77334584D01*
X129742167Y-77263156D01*
X129765977Y-77167918D01*
X129789786Y-77120299D01*
X129837405Y-77072680D01*
X129908834Y-77048870D01*
X129956453Y-77048870D01*
X130027881Y-77072680D01*
X130051691Y-77096489D01*
X130527881Y-77548870D02*
X130242167Y-77548870D01*
X130385024Y-77548870D02*
X130385024Y-77048870D01*
X130337405Y-77120299D01*
X130289786Y-77167918D01*
X130242167Y-77191727D01*
X130694548Y-77048870D02*
X131004072Y-77048870D01*
X130837405Y-77239346D01*
X130908834Y-77239346D01*
X130956453Y-77263156D01*
X130980262Y-77286965D01*
X131004072Y-77334584D01*
X131004072Y-77453632D01*
X130980262Y-77501251D01*
X130956453Y-77525060D01*
X130908834Y-77548870D01*
X130765977Y-77548870D01*
X130718358Y-77525060D01*
X130694548Y-77501251D01*
X120002786Y-85883251D02*
X119978977Y-85907060D01*
X119907548Y-85930870D01*
X119859929Y-85930870D01*
X119788500Y-85907060D01*
X119740881Y-85859441D01*
X119717072Y-85811822D01*
X119693262Y-85716584D01*
X119693262Y-85645156D01*
X119717072Y-85549918D01*
X119740881Y-85502299D01*
X119788500Y-85454680D01*
X119859929Y-85430870D01*
X119907548Y-85430870D01*
X119978977Y-85454680D01*
X120002786Y-85478489D01*
X120478977Y-85930870D02*
X120193262Y-85930870D01*
X120336120Y-85930870D02*
X120336120Y-85430870D01*
X120288500Y-85502299D01*
X120240881Y-85549918D01*
X120193262Y-85573727D01*
X127749786Y-68103251D02*
X127725977Y-68127060D01*
X127654548Y-68150870D01*
X127606929Y-68150870D01*
X127535500Y-68127060D01*
X127487881Y-68079441D01*
X127464072Y-68031822D01*
X127440262Y-67936584D01*
X127440262Y-67865156D01*
X127464072Y-67769918D01*
X127487881Y-67722299D01*
X127535500Y-67674680D01*
X127606929Y-67650870D01*
X127654548Y-67650870D01*
X127725977Y-67674680D01*
X127749786Y-67698489D01*
X127916453Y-67650870D02*
X128225977Y-67650870D01*
X128059310Y-67841346D01*
X128130739Y-67841346D01*
X128178358Y-67865156D01*
X128202167Y-67888965D01*
X128225977Y-67936584D01*
X128225977Y-68055632D01*
X128202167Y-68103251D01*
X128178358Y-68127060D01*
X128130739Y-68150870D01*
X127987881Y-68150870D01*
X127940262Y-68127060D01*
X127916453Y-68103251D01*
X116065786Y-68103251D02*
X116041977Y-68127060D01*
X115970548Y-68150870D01*
X115922929Y-68150870D01*
X115851500Y-68127060D01*
X115803881Y-68079441D01*
X115780072Y-68031822D01*
X115756262Y-67936584D01*
X115756262Y-67865156D01*
X115780072Y-67769918D01*
X115803881Y-67722299D01*
X115851500Y-67674680D01*
X115922929Y-67650870D01*
X115970548Y-67650870D01*
X116041977Y-67674680D01*
X116065786Y-67698489D01*
X116518167Y-67650870D02*
X116280072Y-67650870D01*
X116256262Y-67888965D01*
X116280072Y-67865156D01*
X116327691Y-67841346D01*
X116446739Y-67841346D01*
X116494358Y-67865156D01*
X116518167Y-67888965D01*
X116541977Y-67936584D01*
X116541977Y-68055632D01*
X116518167Y-68103251D01*
X116494358Y-68127060D01*
X116446739Y-68150870D01*
X116327691Y-68150870D01*
X116280072Y-68127060D01*
X116256262Y-68103251D01*
X127749786Y-62261251D02*
X127725977Y-62285060D01*
X127654548Y-62308870D01*
X127606929Y-62308870D01*
X127535500Y-62285060D01*
X127487881Y-62237441D01*
X127464072Y-62189822D01*
X127440262Y-62094584D01*
X127440262Y-62023156D01*
X127464072Y-61927918D01*
X127487881Y-61880299D01*
X127535500Y-61832680D01*
X127606929Y-61808870D01*
X127654548Y-61808870D01*
X127725977Y-61832680D01*
X127749786Y-61856489D01*
X127916453Y-61808870D02*
X128249786Y-61808870D01*
X128035500Y-62308870D01*
X108191786Y-64293251D02*
X108167977Y-64317060D01*
X108096548Y-64340870D01*
X108048929Y-64340870D01*
X107977500Y-64317060D01*
X107929881Y-64269441D01*
X107906072Y-64221822D01*
X107882262Y-64126584D01*
X107882262Y-64055156D01*
X107906072Y-63959918D01*
X107929881Y-63912299D01*
X107977500Y-63864680D01*
X108048929Y-63840870D01*
X108096548Y-63840870D01*
X108167977Y-63864680D01*
X108191786Y-63888489D01*
X108620358Y-63840870D02*
X108525120Y-63840870D01*
X108477500Y-63864680D01*
X108453691Y-63888489D01*
X108406072Y-63959918D01*
X108382262Y-64055156D01*
X108382262Y-64245632D01*
X108406072Y-64293251D01*
X108429881Y-64317060D01*
X108477500Y-64340870D01*
X108572739Y-64340870D01*
X108620358Y-64317060D01*
X108644167Y-64293251D01*
X108667977Y-64245632D01*
X108667977Y-64126584D01*
X108644167Y-64078965D01*
X108620358Y-64055156D01*
X108572739Y-64031346D01*
X108477500Y-64031346D01*
X108429881Y-64055156D01*
X108406072Y-64078965D01*
X108382262Y-64126584D01*
X117589786Y-62261251D02*
X117565977Y-62285060D01*
X117494548Y-62308870D01*
X117446929Y-62308870D01*
X117375500Y-62285060D01*
X117327881Y-62237441D01*
X117304072Y-62189822D01*
X117280262Y-62094584D01*
X117280262Y-62023156D01*
X117304072Y-61927918D01*
X117327881Y-61880299D01*
X117375500Y-61832680D01*
X117446929Y-61808870D01*
X117494548Y-61808870D01*
X117565977Y-61832680D01*
X117589786Y-61856489D01*
X117827881Y-62308870D02*
X117923120Y-62308870D01*
X117970739Y-62285060D01*
X117994548Y-62261251D01*
X118042167Y-62189822D01*
X118065977Y-62094584D01*
X118065977Y-61904108D01*
X118042167Y-61856489D01*
X118018358Y-61832680D01*
X117970739Y-61808870D01*
X117875500Y-61808870D01*
X117827881Y-61832680D01*
X117804072Y-61856489D01*
X117780262Y-61904108D01*
X117780262Y-62023156D01*
X117804072Y-62070775D01*
X117827881Y-62094584D01*
X117875500Y-62118394D01*
X117970739Y-62118394D01*
X118018358Y-62094584D01*
X118042167Y-62070775D01*
X118065977Y-62023156D01*
X119383691Y-62261251D02*
X119359881Y-62285060D01*
X119288453Y-62308870D01*
X119240834Y-62308870D01*
X119169405Y-62285060D01*
X119121786Y-62237441D01*
X119097977Y-62189822D01*
X119074167Y-62094584D01*
X119074167Y-62023156D01*
X119097977Y-61927918D01*
X119121786Y-61880299D01*
X119169405Y-61832680D01*
X119240834Y-61808870D01*
X119288453Y-61808870D01*
X119359881Y-61832680D01*
X119383691Y-61856489D01*
X119859881Y-62308870D02*
X119574167Y-62308870D01*
X119717024Y-62308870D02*
X119717024Y-61808870D01*
X119669405Y-61880299D01*
X119621786Y-61927918D01*
X119574167Y-61951727D01*
X120169405Y-61808870D02*
X120217024Y-61808870D01*
X120264643Y-61832680D01*
X120288453Y-61856489D01*
X120312262Y-61904108D01*
X120336072Y-61999346D01*
X120336072Y-62118394D01*
X120312262Y-62213632D01*
X120288453Y-62261251D01*
X120264643Y-62285060D01*
X120217024Y-62308870D01*
X120169405Y-62308870D01*
X120121786Y-62285060D01*
X120097977Y-62261251D01*
X120074167Y-62213632D01*
X120050358Y-62118394D01*
X120050358Y-61999346D01*
X120074167Y-61904108D01*
X120097977Y-61856489D01*
X120121786Y-61832680D01*
X120169405Y-61808870D01*
X119383691Y-54895251D02*
X119359881Y-54919060D01*
X119288453Y-54942870D01*
X119240834Y-54942870D01*
X119169405Y-54919060D01*
X119121786Y-54871441D01*
X119097977Y-54823822D01*
X119074167Y-54728584D01*
X119074167Y-54657156D01*
X119097977Y-54561918D01*
X119121786Y-54514299D01*
X119169405Y-54466680D01*
X119240834Y-54442870D01*
X119288453Y-54442870D01*
X119359881Y-54466680D01*
X119383691Y-54490489D01*
X119859881Y-54942870D02*
X119574167Y-54942870D01*
X119717024Y-54942870D02*
X119717024Y-54442870D01*
X119669405Y-54514299D01*
X119621786Y-54561918D01*
X119574167Y-54585727D01*
X120336072Y-54942870D02*
X120050358Y-54942870D01*
X120193215Y-54942870D02*
X120193215Y-54442870D01*
X120145596Y-54514299D01*
X120097977Y-54561918D01*
X120050358Y-54585727D01*
X125479691Y-54895251D02*
X125455881Y-54919060D01*
X125384453Y-54942870D01*
X125336834Y-54942870D01*
X125265405Y-54919060D01*
X125217786Y-54871441D01*
X125193977Y-54823822D01*
X125170167Y-54728584D01*
X125170167Y-54657156D01*
X125193977Y-54561918D01*
X125217786Y-54514299D01*
X125265405Y-54466680D01*
X125336834Y-54442870D01*
X125384453Y-54442870D01*
X125455881Y-54466680D01*
X125479691Y-54490489D01*
X125955881Y-54942870D02*
X125670167Y-54942870D01*
X125813024Y-54942870D02*
X125813024Y-54442870D01*
X125765405Y-54514299D01*
X125717786Y-54561918D01*
X125670167Y-54585727D01*
X126146358Y-54490489D02*
X126170167Y-54466680D01*
X126217786Y-54442870D01*
X126336834Y-54442870D01*
X126384453Y-54466680D01*
X126408262Y-54490489D01*
X126432072Y-54538108D01*
X126432072Y-54585727D01*
X126408262Y-54657156D01*
X126122548Y-54942870D01*
X126432072Y-54942870D01*
X124639358Y-79067870D02*
X124639358Y-78567870D01*
X124806024Y-78925013D01*
X124972691Y-78567870D01*
X124972691Y-79067870D01*
X125210786Y-79067870D02*
X125210786Y-78567870D01*
X125496500Y-79067870D02*
X125282215Y-78782156D01*
X125496500Y-78567870D02*
X125210786Y-78853584D01*
X125972691Y-79067870D02*
X125686977Y-79067870D01*
X125829834Y-79067870D02*
X125829834Y-78567870D01*
X125782215Y-78639299D01*
X125734596Y-78686918D01*
X125686977Y-78710727D01*
X106540786Y-81240870D02*
X106374120Y-81002775D01*
X106255072Y-81240870D02*
X106255072Y-80740870D01*
X106445548Y-80740870D01*
X106493167Y-80764680D01*
X106516977Y-80788489D01*
X106540786Y-80836108D01*
X106540786Y-80907537D01*
X106516977Y-80955156D01*
X106493167Y-80978965D01*
X106445548Y-81002775D01*
X106255072Y-81002775D01*
X106969358Y-80907537D02*
X106969358Y-81240870D01*
X106850310Y-80717060D02*
X106731262Y-81074203D01*
X107040786Y-81074203D01*
X118097786Y-74373870D02*
X117931120Y-74135775D01*
X117812072Y-74373870D02*
X117812072Y-73873870D01*
X118002548Y-73873870D01*
X118050167Y-73897680D01*
X118073977Y-73921489D01*
X118097786Y-73969108D01*
X118097786Y-74040537D01*
X118073977Y-74088156D01*
X118050167Y-74111965D01*
X118002548Y-74135775D01*
X117812072Y-74135775D01*
X118526358Y-73873870D02*
X118431120Y-73873870D01*
X118383500Y-73897680D01*
X118359691Y-73921489D01*
X118312072Y-73992918D01*
X118288262Y-74088156D01*
X118288262Y-74278632D01*
X118312072Y-74326251D01*
X118335881Y-74350060D01*
X118383500Y-74373870D01*
X118478739Y-74373870D01*
X118526358Y-74350060D01*
X118550167Y-74326251D01*
X118573977Y-74278632D01*
X118573977Y-74159584D01*
X118550167Y-74111965D01*
X118526358Y-74088156D01*
X118478739Y-74064346D01*
X118383500Y-74064346D01*
X118335881Y-74088156D01*
X118312072Y-74111965D01*
X118288262Y-74159584D01*
X125717786Y-68150870D02*
X125551120Y-67912775D01*
X125432072Y-68150870D02*
X125432072Y-67650870D01*
X125622548Y-67650870D01*
X125670167Y-67674680D01*
X125693977Y-67698489D01*
X125717786Y-67746108D01*
X125717786Y-67817537D01*
X125693977Y-67865156D01*
X125670167Y-67888965D01*
X125622548Y-67912775D01*
X125432072Y-67912775D01*
X126170167Y-67650870D02*
X125932072Y-67650870D01*
X125908262Y-67888965D01*
X125932072Y-67865156D01*
X125979691Y-67841346D01*
X126098739Y-67841346D01*
X126146358Y-67865156D01*
X126170167Y-67888965D01*
X126193977Y-67936584D01*
X126193977Y-68055632D01*
X126170167Y-68103251D01*
X126146358Y-68127060D01*
X126098739Y-68150870D01*
X125979691Y-68150870D01*
X125932072Y-68127060D01*
X125908262Y-68103251D01*
X123685786Y-68150870D02*
X123519120Y-67912775D01*
X123400072Y-68150870D02*
X123400072Y-67650870D01*
X123590548Y-67650870D01*
X123638167Y-67674680D01*
X123661977Y-67698489D01*
X123685786Y-67746108D01*
X123685786Y-67817537D01*
X123661977Y-67865156D01*
X123638167Y-67888965D01*
X123590548Y-67912775D01*
X123400072Y-67912775D01*
X123852453Y-67650870D02*
X124185786Y-67650870D01*
X123971500Y-68150870D01*
X108191786Y-62308870D02*
X108025120Y-62070775D01*
X107906072Y-62308870D02*
X107906072Y-61808870D01*
X108096548Y-61808870D01*
X108144167Y-61832680D01*
X108167977Y-61856489D01*
X108191786Y-61904108D01*
X108191786Y-61975537D01*
X108167977Y-62023156D01*
X108144167Y-62046965D01*
X108096548Y-62070775D01*
X107906072Y-62070775D01*
X108477500Y-62023156D02*
X108429881Y-61999346D01*
X108406072Y-61975537D01*
X108382262Y-61927918D01*
X108382262Y-61904108D01*
X108406072Y-61856489D01*
X108429881Y-61832680D01*
X108477500Y-61808870D01*
X108572739Y-61808870D01*
X108620358Y-61832680D01*
X108644167Y-61856489D01*
X108667977Y-61904108D01*
X108667977Y-61927918D01*
X108644167Y-61975537D01*
X108620358Y-61999346D01*
X108572739Y-62023156D01*
X108477500Y-62023156D01*
X108429881Y-62046965D01*
X108406072Y-62070775D01*
X108382262Y-62118394D01*
X108382262Y-62213632D01*
X108406072Y-62261251D01*
X108429881Y-62285060D01*
X108477500Y-62308870D01*
X108572739Y-62308870D01*
X108620358Y-62285060D01*
X108644167Y-62261251D01*
X108667977Y-62213632D01*
X108667977Y-62118394D01*
X108644167Y-62070775D01*
X108620358Y-62046965D01*
X108572739Y-62023156D01*
X108191786Y-60276870D02*
X108025120Y-60038775D01*
X107906072Y-60276870D02*
X107906072Y-59776870D01*
X108096548Y-59776870D01*
X108144167Y-59800680D01*
X108167977Y-59824489D01*
X108191786Y-59872108D01*
X108191786Y-59943537D01*
X108167977Y-59991156D01*
X108144167Y-60014965D01*
X108096548Y-60038775D01*
X107906072Y-60038775D01*
X108429881Y-60276870D02*
X108525120Y-60276870D01*
X108572739Y-60253060D01*
X108596548Y-60229251D01*
X108644167Y-60157822D01*
X108667977Y-60062584D01*
X108667977Y-59872108D01*
X108644167Y-59824489D01*
X108620358Y-59800680D01*
X108572739Y-59776870D01*
X108477500Y-59776870D01*
X108429881Y-59800680D01*
X108406072Y-59824489D01*
X108382262Y-59872108D01*
X108382262Y-59991156D01*
X108406072Y-60038775D01*
X108429881Y-60062584D01*
X108477500Y-60086394D01*
X108572739Y-60086394D01*
X108620358Y-60062584D01*
X108644167Y-60038775D01*
X108667977Y-59991156D01*
X121415691Y-68150870D02*
X121249024Y-67912775D01*
X121129977Y-68150870D02*
X121129977Y-67650870D01*
X121320453Y-67650870D01*
X121368072Y-67674680D01*
X121391881Y-67698489D01*
X121415691Y-67746108D01*
X121415691Y-67817537D01*
X121391881Y-67865156D01*
X121368072Y-67888965D01*
X121320453Y-67912775D01*
X121129977Y-67912775D01*
X121891881Y-68150870D02*
X121606167Y-68150870D01*
X121749024Y-68150870D02*
X121749024Y-67650870D01*
X121701405Y-67722299D01*
X121653786Y-67769918D01*
X121606167Y-67793727D01*
X122201405Y-67650870D02*
X122249024Y-67650870D01*
X122296643Y-67674680D01*
X122320453Y-67698489D01*
X122344262Y-67746108D01*
X122368072Y-67841346D01*
X122368072Y-67960394D01*
X122344262Y-68055632D01*
X122320453Y-68103251D01*
X122296643Y-68127060D01*
X122249024Y-68150870D01*
X122201405Y-68150870D01*
X122153786Y-68127060D01*
X122129977Y-68103251D01*
X122106167Y-68055632D01*
X122082358Y-67960394D01*
X122082358Y-67841346D01*
X122106167Y-67746108D01*
X122129977Y-67698489D01*
X122153786Y-67674680D01*
X122201405Y-67650870D01*
X125479691Y-62308870D02*
X125313024Y-62070775D01*
X125193977Y-62308870D02*
X125193977Y-61808870D01*
X125384453Y-61808870D01*
X125432072Y-61832680D01*
X125455881Y-61856489D01*
X125479691Y-61904108D01*
X125479691Y-61975537D01*
X125455881Y-62023156D01*
X125432072Y-62046965D01*
X125384453Y-62070775D01*
X125193977Y-62070775D01*
X125955881Y-62308870D02*
X125670167Y-62308870D01*
X125813024Y-62308870D02*
X125813024Y-61808870D01*
X125765405Y-61880299D01*
X125717786Y-61927918D01*
X125670167Y-61951727D01*
X126432072Y-62308870D02*
X126146358Y-62308870D01*
X126289215Y-62308870D02*
X126289215Y-61808870D01*
X126241596Y-61880299D01*
X126193977Y-61927918D01*
X126146358Y-61951727D01*
X123447691Y-62308870D02*
X123281024Y-62070775D01*
X123161977Y-62308870D02*
X123161977Y-61808870D01*
X123352453Y-61808870D01*
X123400072Y-61832680D01*
X123423881Y-61856489D01*
X123447691Y-61904108D01*
X123447691Y-61975537D01*
X123423881Y-62023156D01*
X123400072Y-62046965D01*
X123352453Y-62070775D01*
X123161977Y-62070775D01*
X123923881Y-62308870D02*
X123638167Y-62308870D01*
X123781024Y-62308870D02*
X123781024Y-61808870D01*
X123733405Y-61880299D01*
X123685786Y-61927918D01*
X123638167Y-61951727D01*
X124114358Y-61856489D02*
X124138167Y-61832680D01*
X124185786Y-61808870D01*
X124304834Y-61808870D01*
X124352453Y-61832680D01*
X124376262Y-61856489D01*
X124400072Y-61904108D01*
X124400072Y-61951727D01*
X124376262Y-62023156D01*
X124090548Y-62308870D01*
X124400072Y-62308870D01*
X121415691Y-62308870D02*
X121249024Y-62070775D01*
X121129977Y-62308870D02*
X121129977Y-61808870D01*
X121320453Y-61808870D01*
X121368072Y-61832680D01*
X121391881Y-61856489D01*
X121415691Y-61904108D01*
X121415691Y-61975537D01*
X121391881Y-62023156D01*
X121368072Y-62046965D01*
X121320453Y-62070775D01*
X121129977Y-62070775D01*
X121891881Y-62308870D02*
X121606167Y-62308870D01*
X121749024Y-62308870D02*
X121749024Y-61808870D01*
X121701405Y-61880299D01*
X121653786Y-61927918D01*
X121606167Y-61951727D01*
X122058548Y-61808870D02*
X122368072Y-61808870D01*
X122201405Y-61999346D01*
X122272834Y-61999346D01*
X122320453Y-62023156D01*
X122344262Y-62046965D01*
X122368072Y-62094584D01*
X122368072Y-62213632D01*
X122344262Y-62261251D01*
X122320453Y-62285060D01*
X122272834Y-62308870D01*
X122129977Y-62308870D01*
X122082358Y-62285060D01*
X122058548Y-62261251D01*
X121415691Y-54942870D02*
X121249024Y-54704775D01*
X121129977Y-54942870D02*
X121129977Y-54442870D01*
X121320453Y-54442870D01*
X121368072Y-54466680D01*
X121391881Y-54490489D01*
X121415691Y-54538108D01*
X121415691Y-54609537D01*
X121391881Y-54657156D01*
X121368072Y-54680965D01*
X121320453Y-54704775D01*
X121129977Y-54704775D01*
X121891881Y-54942870D02*
X121606167Y-54942870D01*
X121749024Y-54942870D02*
X121749024Y-54442870D01*
X121701405Y-54514299D01*
X121653786Y-54561918D01*
X121606167Y-54585727D01*
X122320453Y-54609537D02*
X122320453Y-54942870D01*
X122201405Y-54419060D02*
X122082358Y-54776203D01*
X122391881Y-54776203D01*
X123447691Y-54942870D02*
X123281024Y-54704775D01*
X123161977Y-54942870D02*
X123161977Y-54442870D01*
X123352453Y-54442870D01*
X123400072Y-54466680D01*
X123423881Y-54490489D01*
X123447691Y-54538108D01*
X123447691Y-54609537D01*
X123423881Y-54657156D01*
X123400072Y-54680965D01*
X123352453Y-54704775D01*
X123161977Y-54704775D01*
X123923881Y-54942870D02*
X123638167Y-54942870D01*
X123781024Y-54942870D02*
X123781024Y-54442870D01*
X123733405Y-54514299D01*
X123685786Y-54561918D01*
X123638167Y-54585727D01*
X124376262Y-54442870D02*
X124138167Y-54442870D01*
X124114358Y-54680965D01*
X124138167Y-54657156D01*
X124185786Y-54633346D01*
X124304834Y-54633346D01*
X124352453Y-54657156D01*
X124376262Y-54680965D01*
X124400072Y-54728584D01*
X124400072Y-54847632D01*
X124376262Y-54895251D01*
X124352453Y-54919060D01*
X124304834Y-54942870D01*
X124185786Y-54942870D01*
X124138167Y-54919060D01*
X124114358Y-54895251D01*
X127511691Y-54942870D02*
X127345024Y-54704775D01*
X127225977Y-54942870D02*
X127225977Y-54442870D01*
X127416453Y-54442870D01*
X127464072Y-54466680D01*
X127487881Y-54490489D01*
X127511691Y-54538108D01*
X127511691Y-54609537D01*
X127487881Y-54657156D01*
X127464072Y-54680965D01*
X127416453Y-54704775D01*
X127225977Y-54704775D01*
X127987881Y-54942870D02*
X127702167Y-54942870D01*
X127845024Y-54942870D02*
X127845024Y-54442870D01*
X127797405Y-54514299D01*
X127749786Y-54561918D01*
X127702167Y-54585727D01*
X128416453Y-54442870D02*
X128321215Y-54442870D01*
X128273596Y-54466680D01*
X128249786Y-54490489D01*
X128202167Y-54561918D01*
X128178358Y-54657156D01*
X128178358Y-54847632D01*
X128202167Y-54895251D01*
X128225977Y-54919060D01*
X128273596Y-54942870D01*
X128368834Y-54942870D01*
X128416453Y-54919060D01*
X128440262Y-54895251D01*
X128464072Y-54847632D01*
X128464072Y-54728584D01*
X128440262Y-54680965D01*
X128416453Y-54657156D01*
X128368834Y-54633346D01*
X128273596Y-54633346D01*
X128225977Y-54657156D01*
X128202167Y-54680965D01*
X128178358Y-54728584D01*
X119324167Y-86573870D02*
X119324167Y-86978632D01*
X119347977Y-87026251D01*
X119371786Y-87050060D01*
X119419405Y-87073870D01*
X119514643Y-87073870D01*
X119562262Y-87050060D01*
X119586072Y-87026251D01*
X119609881Y-86978632D01*
X119609881Y-86573870D01*
X120109881Y-87073870D02*
X119824167Y-87073870D01*
X119967024Y-87073870D02*
X119967024Y-86573870D01*
X119919405Y-86645299D01*
X119871786Y-86692918D01*
X119824167Y-86716727D01*
X118308167Y-67396870D02*
X118308167Y-67801632D01*
X118331977Y-67849251D01*
X118355786Y-67873060D01*
X118403405Y-67896870D01*
X118498643Y-67896870D01*
X118546262Y-67873060D01*
X118570072Y-67849251D01*
X118593881Y-67801632D01*
X118593881Y-67396870D01*
X118808167Y-67444489D02*
X118831977Y-67420680D01*
X118879596Y-67396870D01*
X118998643Y-67396870D01*
X119046262Y-67420680D01*
X119070072Y-67444489D01*
X119093881Y-67492108D01*
X119093881Y-67539727D01*
X119070072Y-67611156D01*
X118784358Y-67896870D01*
X119093881Y-67896870D01*
X107386167Y-67396870D02*
X107386167Y-67801632D01*
X107409977Y-67849251D01*
X107433786Y-67873060D01*
X107481405Y-67896870D01*
X107576643Y-67896870D01*
X107624262Y-67873060D01*
X107648072Y-67849251D01*
X107671881Y-67801632D01*
X107671881Y-67396870D01*
X107862358Y-67396870D02*
X108171881Y-67396870D01*
X108005215Y-67587346D01*
X108076643Y-67587346D01*
X108124262Y-67611156D01*
X108148072Y-67634965D01*
X108171881Y-67682584D01*
X108171881Y-67801632D01*
X108148072Y-67849251D01*
X108124262Y-67873060D01*
X108076643Y-67896870D01*
X107933786Y-67896870D01*
X107886167Y-67873060D01*
X107862358Y-67849251D01*
X116530167Y-54188870D02*
X116530167Y-54593632D01*
X116553977Y-54641251D01*
X116577786Y-54665060D01*
X116625405Y-54688870D01*
X116720643Y-54688870D01*
X116768262Y-54665060D01*
X116792072Y-54641251D01*
X116815881Y-54593632D01*
X116815881Y-54188870D01*
X117268262Y-54355537D02*
X117268262Y-54688870D01*
X117149215Y-54165060D02*
X117030167Y-54522203D01*
X117339691Y-54522203D01*
X108191786Y-66325251D02*
X108167977Y-66349060D01*
X108096548Y-66372870D01*
X108048929Y-66372870D01*
X107977500Y-66349060D01*
X107929881Y-66301441D01*
X107906072Y-66253822D01*
X107882262Y-66158584D01*
X107882262Y-66087156D01*
X107906072Y-65991918D01*
X107929881Y-65944299D01*
X107977500Y-65896680D01*
X108048929Y-65872870D01*
X108096548Y-65872870D01*
X108167977Y-65896680D01*
X108191786Y-65920489D01*
X108620358Y-66039537D02*
X108620358Y-66372870D01*
X108501310Y-65849060D02*
X108382262Y-66206203D01*
X108691786Y-66206203D01*
X108191786Y-71405251D02*
X108167977Y-71429060D01*
X108096548Y-71452870D01*
X108048929Y-71452870D01*
X107977500Y-71429060D01*
X107929881Y-71381441D01*
X107906072Y-71333822D01*
X107882262Y-71238584D01*
X107882262Y-71167156D01*
X107906072Y-71071918D01*
X107929881Y-71024299D01*
X107977500Y-70976680D01*
X108048929Y-70952870D01*
X108096548Y-70952870D01*
X108167977Y-70976680D01*
X108191786Y-71000489D01*
X108477500Y-71167156D02*
X108429881Y-71143346D01*
X108406072Y-71119537D01*
X108382262Y-71071918D01*
X108382262Y-71048108D01*
X108406072Y-71000489D01*
X108429881Y-70976680D01*
X108477500Y-70952870D01*
X108572739Y-70952870D01*
X108620358Y-70976680D01*
X108644167Y-71000489D01*
X108667977Y-71048108D01*
X108667977Y-71071918D01*
X108644167Y-71119537D01*
X108620358Y-71143346D01*
X108572739Y-71167156D01*
X108477500Y-71167156D01*
X108429881Y-71190965D01*
X108406072Y-71214775D01*
X108382262Y-71262394D01*
X108382262Y-71357632D01*
X108406072Y-71405251D01*
X108429881Y-71429060D01*
X108477500Y-71452870D01*
X108572739Y-71452870D01*
X108620358Y-71429060D01*
X108644167Y-71405251D01*
X108667977Y-71357632D01*
X108667977Y-71262394D01*
X108644167Y-71214775D01*
X108620358Y-71190965D01*
X108572739Y-71167156D01*
M02*
