G04 #@! TF.GenerationSoftware,KiCad,Pcbnew,(5.1.4)-1*
G04 #@! TF.CreationDate,2021-09-05T23:12:11+02:00*
G04 #@! TF.ProjectId,BME680,424d4536-3830-42e6-9b69-6361645f7063,A*
G04 #@! TF.SameCoordinates,Original*
G04 #@! TF.FileFunction,Copper,L1,Top*
G04 #@! TF.FilePolarity,Positive*
%FSLAX46Y46*%
G04 Gerber Fmt 4.6, Leading zero omitted, Abs format (unit mm)*
G04 Created by KiCad (PCBNEW (5.1.4)-1) date 2021-09-05 23:12:11*
%MOMM*%
%LPD*%
G04 APERTURE LIST*
%ADD10R,1.700000X1.700000*%
%ADD11O,1.700000X1.700000*%
%ADD12C,0.100000*%
%ADD13C,1.150000*%
%ADD14R,1.524000X4.000000*%
%ADD15C,0.500000*%
%ADD16R,0.500000X0.500000*%
%ADD17R,1.300000X1.900000*%
%ADD18C,0.800000*%
%ADD19C,1.000000*%
%ADD20C,0.500000*%
%ADD21C,0.300000*%
%ADD22C,0.400000*%
G04 APERTURE END LIST*
D10*
X101469400Y-121840600D03*
D11*
X101469400Y-119300600D03*
X101469400Y-116760600D03*
X101469400Y-114220600D03*
X101469400Y-111680600D03*
X101469400Y-109140600D03*
X97837200Y-109140600D03*
X97837200Y-111680600D03*
X97837200Y-114220600D03*
X97837200Y-116760600D03*
X97837200Y-119300600D03*
D10*
X97837200Y-121840600D03*
D12*
G36*
X124145505Y-117865204D02*
G01*
X124169773Y-117868804D01*
X124193572Y-117874765D01*
X124216671Y-117883030D01*
X124238850Y-117893520D01*
X124259893Y-117906132D01*
X124279599Y-117920747D01*
X124297777Y-117937223D01*
X124314253Y-117955401D01*
X124328868Y-117975107D01*
X124341480Y-117996150D01*
X124351970Y-118018329D01*
X124360235Y-118041428D01*
X124366196Y-118065227D01*
X124369796Y-118089495D01*
X124371000Y-118113999D01*
X124371000Y-119014001D01*
X124369796Y-119038505D01*
X124366196Y-119062773D01*
X124360235Y-119086572D01*
X124351970Y-119109671D01*
X124341480Y-119131850D01*
X124328868Y-119152893D01*
X124314253Y-119172599D01*
X124297777Y-119190777D01*
X124279599Y-119207253D01*
X124259893Y-119221868D01*
X124238850Y-119234480D01*
X124216671Y-119244970D01*
X124193572Y-119253235D01*
X124169773Y-119259196D01*
X124145505Y-119262796D01*
X124121001Y-119264000D01*
X123470999Y-119264000D01*
X123446495Y-119262796D01*
X123422227Y-119259196D01*
X123398428Y-119253235D01*
X123375329Y-119244970D01*
X123353150Y-119234480D01*
X123332107Y-119221868D01*
X123312401Y-119207253D01*
X123294223Y-119190777D01*
X123277747Y-119172599D01*
X123263132Y-119152893D01*
X123250520Y-119131850D01*
X123240030Y-119109671D01*
X123231765Y-119086572D01*
X123225804Y-119062773D01*
X123222204Y-119038505D01*
X123221000Y-119014001D01*
X123221000Y-118113999D01*
X123222204Y-118089495D01*
X123225804Y-118065227D01*
X123231765Y-118041428D01*
X123240030Y-118018329D01*
X123250520Y-117996150D01*
X123263132Y-117975107D01*
X123277747Y-117955401D01*
X123294223Y-117937223D01*
X123312401Y-117920747D01*
X123332107Y-117906132D01*
X123353150Y-117893520D01*
X123375329Y-117883030D01*
X123398428Y-117874765D01*
X123422227Y-117868804D01*
X123446495Y-117865204D01*
X123470999Y-117864000D01*
X124121001Y-117864000D01*
X124145505Y-117865204D01*
X124145505Y-117865204D01*
G37*
D13*
X123796000Y-118564000D03*
D12*
G36*
X122095505Y-117865204D02*
G01*
X122119773Y-117868804D01*
X122143572Y-117874765D01*
X122166671Y-117883030D01*
X122188850Y-117893520D01*
X122209893Y-117906132D01*
X122229599Y-117920747D01*
X122247777Y-117937223D01*
X122264253Y-117955401D01*
X122278868Y-117975107D01*
X122291480Y-117996150D01*
X122301970Y-118018329D01*
X122310235Y-118041428D01*
X122316196Y-118065227D01*
X122319796Y-118089495D01*
X122321000Y-118113999D01*
X122321000Y-119014001D01*
X122319796Y-119038505D01*
X122316196Y-119062773D01*
X122310235Y-119086572D01*
X122301970Y-119109671D01*
X122291480Y-119131850D01*
X122278868Y-119152893D01*
X122264253Y-119172599D01*
X122247777Y-119190777D01*
X122229599Y-119207253D01*
X122209893Y-119221868D01*
X122188850Y-119234480D01*
X122166671Y-119244970D01*
X122143572Y-119253235D01*
X122119773Y-119259196D01*
X122095505Y-119262796D01*
X122071001Y-119264000D01*
X121420999Y-119264000D01*
X121396495Y-119262796D01*
X121372227Y-119259196D01*
X121348428Y-119253235D01*
X121325329Y-119244970D01*
X121303150Y-119234480D01*
X121282107Y-119221868D01*
X121262401Y-119207253D01*
X121244223Y-119190777D01*
X121227747Y-119172599D01*
X121213132Y-119152893D01*
X121200520Y-119131850D01*
X121190030Y-119109671D01*
X121181765Y-119086572D01*
X121175804Y-119062773D01*
X121172204Y-119038505D01*
X121171000Y-119014001D01*
X121171000Y-118113999D01*
X121172204Y-118089495D01*
X121175804Y-118065227D01*
X121181765Y-118041428D01*
X121190030Y-118018329D01*
X121200520Y-117996150D01*
X121213132Y-117975107D01*
X121227747Y-117955401D01*
X121244223Y-117937223D01*
X121262401Y-117920747D01*
X121282107Y-117906132D01*
X121303150Y-117893520D01*
X121325329Y-117883030D01*
X121348428Y-117874765D01*
X121372227Y-117868804D01*
X121396495Y-117865204D01*
X121420999Y-117864000D01*
X122071001Y-117864000D01*
X122095505Y-117865204D01*
X122095505Y-117865204D01*
G37*
D13*
X121746000Y-118564000D03*
D12*
G36*
X129158305Y-114258404D02*
G01*
X129182573Y-114262004D01*
X129206372Y-114267965D01*
X129229471Y-114276230D01*
X129251650Y-114286720D01*
X129272693Y-114299332D01*
X129292399Y-114313947D01*
X129310577Y-114330423D01*
X129327053Y-114348601D01*
X129341668Y-114368307D01*
X129354280Y-114389350D01*
X129364770Y-114411529D01*
X129373035Y-114434628D01*
X129378996Y-114458427D01*
X129382596Y-114482695D01*
X129383800Y-114507199D01*
X129383800Y-115407201D01*
X129382596Y-115431705D01*
X129378996Y-115455973D01*
X129373035Y-115479772D01*
X129364770Y-115502871D01*
X129354280Y-115525050D01*
X129341668Y-115546093D01*
X129327053Y-115565799D01*
X129310577Y-115583977D01*
X129292399Y-115600453D01*
X129272693Y-115615068D01*
X129251650Y-115627680D01*
X129229471Y-115638170D01*
X129206372Y-115646435D01*
X129182573Y-115652396D01*
X129158305Y-115655996D01*
X129133801Y-115657200D01*
X128483799Y-115657200D01*
X128459295Y-115655996D01*
X128435027Y-115652396D01*
X128411228Y-115646435D01*
X128388129Y-115638170D01*
X128365950Y-115627680D01*
X128344907Y-115615068D01*
X128325201Y-115600453D01*
X128307023Y-115583977D01*
X128290547Y-115565799D01*
X128275932Y-115546093D01*
X128263320Y-115525050D01*
X128252830Y-115502871D01*
X128244565Y-115479772D01*
X128238604Y-115455973D01*
X128235004Y-115431705D01*
X128233800Y-115407201D01*
X128233800Y-114507199D01*
X128235004Y-114482695D01*
X128238604Y-114458427D01*
X128244565Y-114434628D01*
X128252830Y-114411529D01*
X128263320Y-114389350D01*
X128275932Y-114368307D01*
X128290547Y-114348601D01*
X128307023Y-114330423D01*
X128325201Y-114313947D01*
X128344907Y-114299332D01*
X128365950Y-114286720D01*
X128388129Y-114276230D01*
X128411228Y-114267965D01*
X128435027Y-114262004D01*
X128459295Y-114258404D01*
X128483799Y-114257200D01*
X129133801Y-114257200D01*
X129158305Y-114258404D01*
X129158305Y-114258404D01*
G37*
D13*
X128808800Y-114957200D03*
D12*
G36*
X127108305Y-114258404D02*
G01*
X127132573Y-114262004D01*
X127156372Y-114267965D01*
X127179471Y-114276230D01*
X127201650Y-114286720D01*
X127222693Y-114299332D01*
X127242399Y-114313947D01*
X127260577Y-114330423D01*
X127277053Y-114348601D01*
X127291668Y-114368307D01*
X127304280Y-114389350D01*
X127314770Y-114411529D01*
X127323035Y-114434628D01*
X127328996Y-114458427D01*
X127332596Y-114482695D01*
X127333800Y-114507199D01*
X127333800Y-115407201D01*
X127332596Y-115431705D01*
X127328996Y-115455973D01*
X127323035Y-115479772D01*
X127314770Y-115502871D01*
X127304280Y-115525050D01*
X127291668Y-115546093D01*
X127277053Y-115565799D01*
X127260577Y-115583977D01*
X127242399Y-115600453D01*
X127222693Y-115615068D01*
X127201650Y-115627680D01*
X127179471Y-115638170D01*
X127156372Y-115646435D01*
X127132573Y-115652396D01*
X127108305Y-115655996D01*
X127083801Y-115657200D01*
X126433799Y-115657200D01*
X126409295Y-115655996D01*
X126385027Y-115652396D01*
X126361228Y-115646435D01*
X126338129Y-115638170D01*
X126315950Y-115627680D01*
X126294907Y-115615068D01*
X126275201Y-115600453D01*
X126257023Y-115583977D01*
X126240547Y-115565799D01*
X126225932Y-115546093D01*
X126213320Y-115525050D01*
X126202830Y-115502871D01*
X126194565Y-115479772D01*
X126188604Y-115455973D01*
X126185004Y-115431705D01*
X126183800Y-115407201D01*
X126183800Y-114507199D01*
X126185004Y-114482695D01*
X126188604Y-114458427D01*
X126194565Y-114434628D01*
X126202830Y-114411529D01*
X126213320Y-114389350D01*
X126225932Y-114368307D01*
X126240547Y-114348601D01*
X126257023Y-114330423D01*
X126275201Y-114313947D01*
X126294907Y-114299332D01*
X126315950Y-114286720D01*
X126338129Y-114276230D01*
X126361228Y-114267965D01*
X126385027Y-114262004D01*
X126409295Y-114258404D01*
X126433799Y-114257200D01*
X127083801Y-114257200D01*
X127108305Y-114258404D01*
X127108305Y-114258404D01*
G37*
D13*
X126758800Y-114957200D03*
D12*
G36*
X131026905Y-126524604D02*
G01*
X131051173Y-126528204D01*
X131074972Y-126534165D01*
X131098071Y-126542430D01*
X131120250Y-126552920D01*
X131141293Y-126565532D01*
X131160999Y-126580147D01*
X131179177Y-126596623D01*
X131195653Y-126614801D01*
X131210268Y-126634507D01*
X131222880Y-126655550D01*
X131233370Y-126677729D01*
X131241635Y-126700828D01*
X131247596Y-126724627D01*
X131251196Y-126748895D01*
X131252400Y-126773399D01*
X131252400Y-127423401D01*
X131251196Y-127447905D01*
X131247596Y-127472173D01*
X131241635Y-127495972D01*
X131233370Y-127519071D01*
X131222880Y-127541250D01*
X131210268Y-127562293D01*
X131195653Y-127581999D01*
X131179177Y-127600177D01*
X131160999Y-127616653D01*
X131141293Y-127631268D01*
X131120250Y-127643880D01*
X131098071Y-127654370D01*
X131074972Y-127662635D01*
X131051173Y-127668596D01*
X131026905Y-127672196D01*
X131002401Y-127673400D01*
X130102399Y-127673400D01*
X130077895Y-127672196D01*
X130053627Y-127668596D01*
X130029828Y-127662635D01*
X130006729Y-127654370D01*
X129984550Y-127643880D01*
X129963507Y-127631268D01*
X129943801Y-127616653D01*
X129925623Y-127600177D01*
X129909147Y-127581999D01*
X129894532Y-127562293D01*
X129881920Y-127541250D01*
X129871430Y-127519071D01*
X129863165Y-127495972D01*
X129857204Y-127472173D01*
X129853604Y-127447905D01*
X129852400Y-127423401D01*
X129852400Y-126773399D01*
X129853604Y-126748895D01*
X129857204Y-126724627D01*
X129863165Y-126700828D01*
X129871430Y-126677729D01*
X129881920Y-126655550D01*
X129894532Y-126634507D01*
X129909147Y-126614801D01*
X129925623Y-126596623D01*
X129943801Y-126580147D01*
X129963507Y-126565532D01*
X129984550Y-126552920D01*
X130006729Y-126542430D01*
X130029828Y-126534165D01*
X130053627Y-126528204D01*
X130077895Y-126524604D01*
X130102399Y-126523400D01*
X131002401Y-126523400D01*
X131026905Y-126524604D01*
X131026905Y-126524604D01*
G37*
D13*
X130552400Y-127098400D03*
D12*
G36*
X131026905Y-128574604D02*
G01*
X131051173Y-128578204D01*
X131074972Y-128584165D01*
X131098071Y-128592430D01*
X131120250Y-128602920D01*
X131141293Y-128615532D01*
X131160999Y-128630147D01*
X131179177Y-128646623D01*
X131195653Y-128664801D01*
X131210268Y-128684507D01*
X131222880Y-128705550D01*
X131233370Y-128727729D01*
X131241635Y-128750828D01*
X131247596Y-128774627D01*
X131251196Y-128798895D01*
X131252400Y-128823399D01*
X131252400Y-129473401D01*
X131251196Y-129497905D01*
X131247596Y-129522173D01*
X131241635Y-129545972D01*
X131233370Y-129569071D01*
X131222880Y-129591250D01*
X131210268Y-129612293D01*
X131195653Y-129631999D01*
X131179177Y-129650177D01*
X131160999Y-129666653D01*
X131141293Y-129681268D01*
X131120250Y-129693880D01*
X131098071Y-129704370D01*
X131074972Y-129712635D01*
X131051173Y-129718596D01*
X131026905Y-129722196D01*
X131002401Y-129723400D01*
X130102399Y-129723400D01*
X130077895Y-129722196D01*
X130053627Y-129718596D01*
X130029828Y-129712635D01*
X130006729Y-129704370D01*
X129984550Y-129693880D01*
X129963507Y-129681268D01*
X129943801Y-129666653D01*
X129925623Y-129650177D01*
X129909147Y-129631999D01*
X129894532Y-129612293D01*
X129881920Y-129591250D01*
X129871430Y-129569071D01*
X129863165Y-129545972D01*
X129857204Y-129522173D01*
X129853604Y-129497905D01*
X129852400Y-129473401D01*
X129852400Y-128823399D01*
X129853604Y-128798895D01*
X129857204Y-128774627D01*
X129863165Y-128750828D01*
X129871430Y-128727729D01*
X129881920Y-128705550D01*
X129894532Y-128684507D01*
X129909147Y-128664801D01*
X129925623Y-128646623D01*
X129943801Y-128630147D01*
X129963507Y-128615532D01*
X129984550Y-128602920D01*
X130006729Y-128592430D01*
X130029828Y-128584165D01*
X130053627Y-128578204D01*
X130077895Y-128574604D01*
X130102399Y-128573400D01*
X131002401Y-128573400D01*
X131026905Y-128574604D01*
X131026905Y-128574604D01*
G37*
D13*
X130552400Y-129148400D03*
D12*
G36*
X127930105Y-131022404D02*
G01*
X127954373Y-131026004D01*
X127978172Y-131031965D01*
X128001271Y-131040230D01*
X128023450Y-131050720D01*
X128044493Y-131063332D01*
X128064199Y-131077947D01*
X128082377Y-131094423D01*
X128098853Y-131112601D01*
X128113468Y-131132307D01*
X128126080Y-131153350D01*
X128136570Y-131175529D01*
X128144835Y-131198628D01*
X128150796Y-131222427D01*
X128154396Y-131246695D01*
X128155600Y-131271199D01*
X128155600Y-132171201D01*
X128154396Y-132195705D01*
X128150796Y-132219973D01*
X128144835Y-132243772D01*
X128136570Y-132266871D01*
X128126080Y-132289050D01*
X128113468Y-132310093D01*
X128098853Y-132329799D01*
X128082377Y-132347977D01*
X128064199Y-132364453D01*
X128044493Y-132379068D01*
X128023450Y-132391680D01*
X128001271Y-132402170D01*
X127978172Y-132410435D01*
X127954373Y-132416396D01*
X127930105Y-132419996D01*
X127905601Y-132421200D01*
X127255599Y-132421200D01*
X127231095Y-132419996D01*
X127206827Y-132416396D01*
X127183028Y-132410435D01*
X127159929Y-132402170D01*
X127137750Y-132391680D01*
X127116707Y-132379068D01*
X127097001Y-132364453D01*
X127078823Y-132347977D01*
X127062347Y-132329799D01*
X127047732Y-132310093D01*
X127035120Y-132289050D01*
X127024630Y-132266871D01*
X127016365Y-132243772D01*
X127010404Y-132219973D01*
X127006804Y-132195705D01*
X127005600Y-132171201D01*
X127005600Y-131271199D01*
X127006804Y-131246695D01*
X127010404Y-131222427D01*
X127016365Y-131198628D01*
X127024630Y-131175529D01*
X127035120Y-131153350D01*
X127047732Y-131132307D01*
X127062347Y-131112601D01*
X127078823Y-131094423D01*
X127097001Y-131077947D01*
X127116707Y-131063332D01*
X127137750Y-131050720D01*
X127159929Y-131040230D01*
X127183028Y-131031965D01*
X127206827Y-131026004D01*
X127231095Y-131022404D01*
X127255599Y-131021200D01*
X127905601Y-131021200D01*
X127930105Y-131022404D01*
X127930105Y-131022404D01*
G37*
D13*
X127580600Y-131721200D03*
D12*
G36*
X129980105Y-131022404D02*
G01*
X130004373Y-131026004D01*
X130028172Y-131031965D01*
X130051271Y-131040230D01*
X130073450Y-131050720D01*
X130094493Y-131063332D01*
X130114199Y-131077947D01*
X130132377Y-131094423D01*
X130148853Y-131112601D01*
X130163468Y-131132307D01*
X130176080Y-131153350D01*
X130186570Y-131175529D01*
X130194835Y-131198628D01*
X130200796Y-131222427D01*
X130204396Y-131246695D01*
X130205600Y-131271199D01*
X130205600Y-132171201D01*
X130204396Y-132195705D01*
X130200796Y-132219973D01*
X130194835Y-132243772D01*
X130186570Y-132266871D01*
X130176080Y-132289050D01*
X130163468Y-132310093D01*
X130148853Y-132329799D01*
X130132377Y-132347977D01*
X130114199Y-132364453D01*
X130094493Y-132379068D01*
X130073450Y-132391680D01*
X130051271Y-132402170D01*
X130028172Y-132410435D01*
X130004373Y-132416396D01*
X129980105Y-132419996D01*
X129955601Y-132421200D01*
X129305599Y-132421200D01*
X129281095Y-132419996D01*
X129256827Y-132416396D01*
X129233028Y-132410435D01*
X129209929Y-132402170D01*
X129187750Y-132391680D01*
X129166707Y-132379068D01*
X129147001Y-132364453D01*
X129128823Y-132347977D01*
X129112347Y-132329799D01*
X129097732Y-132310093D01*
X129085120Y-132289050D01*
X129074630Y-132266871D01*
X129066365Y-132243772D01*
X129060404Y-132219973D01*
X129056804Y-132195705D01*
X129055600Y-132171201D01*
X129055600Y-131271199D01*
X129056804Y-131246695D01*
X129060404Y-131222427D01*
X129066365Y-131198628D01*
X129074630Y-131175529D01*
X129085120Y-131153350D01*
X129097732Y-131132307D01*
X129112347Y-131112601D01*
X129128823Y-131094423D01*
X129147001Y-131077947D01*
X129166707Y-131063332D01*
X129187750Y-131050720D01*
X129209929Y-131040230D01*
X129233028Y-131031965D01*
X129256827Y-131026004D01*
X129281095Y-131022404D01*
X129305599Y-131021200D01*
X129955601Y-131021200D01*
X129980105Y-131022404D01*
X129980105Y-131022404D01*
G37*
D13*
X129630600Y-131721200D03*
D12*
G36*
X126505705Y-116355604D02*
G01*
X126529973Y-116359204D01*
X126553772Y-116365165D01*
X126576871Y-116373430D01*
X126599050Y-116383920D01*
X126620093Y-116396532D01*
X126639799Y-116411147D01*
X126657977Y-116427623D01*
X126674453Y-116445801D01*
X126689068Y-116465507D01*
X126701680Y-116486550D01*
X126712170Y-116508729D01*
X126720435Y-116531828D01*
X126726396Y-116555627D01*
X126729996Y-116579895D01*
X126731200Y-116604399D01*
X126731200Y-117254401D01*
X126729996Y-117278905D01*
X126726396Y-117303173D01*
X126720435Y-117326972D01*
X126712170Y-117350071D01*
X126701680Y-117372250D01*
X126689068Y-117393293D01*
X126674453Y-117412999D01*
X126657977Y-117431177D01*
X126639799Y-117447653D01*
X126620093Y-117462268D01*
X126599050Y-117474880D01*
X126576871Y-117485370D01*
X126553772Y-117493635D01*
X126529973Y-117499596D01*
X126505705Y-117503196D01*
X126481201Y-117504400D01*
X125581199Y-117504400D01*
X125556695Y-117503196D01*
X125532427Y-117499596D01*
X125508628Y-117493635D01*
X125485529Y-117485370D01*
X125463350Y-117474880D01*
X125442307Y-117462268D01*
X125422601Y-117447653D01*
X125404423Y-117431177D01*
X125387947Y-117412999D01*
X125373332Y-117393293D01*
X125360720Y-117372250D01*
X125350230Y-117350071D01*
X125341965Y-117326972D01*
X125336004Y-117303173D01*
X125332404Y-117278905D01*
X125331200Y-117254401D01*
X125331200Y-116604399D01*
X125332404Y-116579895D01*
X125336004Y-116555627D01*
X125341965Y-116531828D01*
X125350230Y-116508729D01*
X125360720Y-116486550D01*
X125373332Y-116465507D01*
X125387947Y-116445801D01*
X125404423Y-116427623D01*
X125422601Y-116411147D01*
X125442307Y-116396532D01*
X125463350Y-116383920D01*
X125485529Y-116373430D01*
X125508628Y-116365165D01*
X125532427Y-116359204D01*
X125556695Y-116355604D01*
X125581199Y-116354400D01*
X126481201Y-116354400D01*
X126505705Y-116355604D01*
X126505705Y-116355604D01*
G37*
D13*
X126031200Y-116929400D03*
D12*
G36*
X126505705Y-118405604D02*
G01*
X126529973Y-118409204D01*
X126553772Y-118415165D01*
X126576871Y-118423430D01*
X126599050Y-118433920D01*
X126620093Y-118446532D01*
X126639799Y-118461147D01*
X126657977Y-118477623D01*
X126674453Y-118495801D01*
X126689068Y-118515507D01*
X126701680Y-118536550D01*
X126712170Y-118558729D01*
X126720435Y-118581828D01*
X126726396Y-118605627D01*
X126729996Y-118629895D01*
X126731200Y-118654399D01*
X126731200Y-119304401D01*
X126729996Y-119328905D01*
X126726396Y-119353173D01*
X126720435Y-119376972D01*
X126712170Y-119400071D01*
X126701680Y-119422250D01*
X126689068Y-119443293D01*
X126674453Y-119462999D01*
X126657977Y-119481177D01*
X126639799Y-119497653D01*
X126620093Y-119512268D01*
X126599050Y-119524880D01*
X126576871Y-119535370D01*
X126553772Y-119543635D01*
X126529973Y-119549596D01*
X126505705Y-119553196D01*
X126481201Y-119554400D01*
X125581199Y-119554400D01*
X125556695Y-119553196D01*
X125532427Y-119549596D01*
X125508628Y-119543635D01*
X125485529Y-119535370D01*
X125463350Y-119524880D01*
X125442307Y-119512268D01*
X125422601Y-119497653D01*
X125404423Y-119481177D01*
X125387947Y-119462999D01*
X125373332Y-119443293D01*
X125360720Y-119422250D01*
X125350230Y-119400071D01*
X125341965Y-119376972D01*
X125336004Y-119353173D01*
X125332404Y-119328905D01*
X125331200Y-119304401D01*
X125331200Y-118654399D01*
X125332404Y-118629895D01*
X125336004Y-118605627D01*
X125341965Y-118581828D01*
X125350230Y-118558729D01*
X125360720Y-118536550D01*
X125373332Y-118515507D01*
X125387947Y-118495801D01*
X125404423Y-118477623D01*
X125422601Y-118461147D01*
X125442307Y-118446532D01*
X125463350Y-118433920D01*
X125485529Y-118423430D01*
X125508628Y-118415165D01*
X125532427Y-118409204D01*
X125556695Y-118405604D01*
X125581199Y-118404400D01*
X126481201Y-118404400D01*
X126505705Y-118405604D01*
X126505705Y-118405604D01*
G37*
D13*
X126031200Y-118979400D03*
D12*
G36*
X131026905Y-124831804D02*
G01*
X131051173Y-124835404D01*
X131074972Y-124841365D01*
X131098071Y-124849630D01*
X131120250Y-124860120D01*
X131141293Y-124872732D01*
X131160999Y-124887347D01*
X131179177Y-124903823D01*
X131195653Y-124922001D01*
X131210268Y-124941707D01*
X131222880Y-124962750D01*
X131233370Y-124984929D01*
X131241635Y-125008028D01*
X131247596Y-125031827D01*
X131251196Y-125056095D01*
X131252400Y-125080599D01*
X131252400Y-125730601D01*
X131251196Y-125755105D01*
X131247596Y-125779373D01*
X131241635Y-125803172D01*
X131233370Y-125826271D01*
X131222880Y-125848450D01*
X131210268Y-125869493D01*
X131195653Y-125889199D01*
X131179177Y-125907377D01*
X131160999Y-125923853D01*
X131141293Y-125938468D01*
X131120250Y-125951080D01*
X131098071Y-125961570D01*
X131074972Y-125969835D01*
X131051173Y-125975796D01*
X131026905Y-125979396D01*
X131002401Y-125980600D01*
X130102399Y-125980600D01*
X130077895Y-125979396D01*
X130053627Y-125975796D01*
X130029828Y-125969835D01*
X130006729Y-125961570D01*
X129984550Y-125951080D01*
X129963507Y-125938468D01*
X129943801Y-125923853D01*
X129925623Y-125907377D01*
X129909147Y-125889199D01*
X129894532Y-125869493D01*
X129881920Y-125848450D01*
X129871430Y-125826271D01*
X129863165Y-125803172D01*
X129857204Y-125779373D01*
X129853604Y-125755105D01*
X129852400Y-125730601D01*
X129852400Y-125080599D01*
X129853604Y-125056095D01*
X129857204Y-125031827D01*
X129863165Y-125008028D01*
X129871430Y-124984929D01*
X129881920Y-124962750D01*
X129894532Y-124941707D01*
X129909147Y-124922001D01*
X129925623Y-124903823D01*
X129943801Y-124887347D01*
X129963507Y-124872732D01*
X129984550Y-124860120D01*
X130006729Y-124849630D01*
X130029828Y-124841365D01*
X130053627Y-124835404D01*
X130077895Y-124831804D01*
X130102399Y-124830600D01*
X131002401Y-124830600D01*
X131026905Y-124831804D01*
X131026905Y-124831804D01*
G37*
D13*
X130552400Y-125405600D03*
D12*
G36*
X131026905Y-122781804D02*
G01*
X131051173Y-122785404D01*
X131074972Y-122791365D01*
X131098071Y-122799630D01*
X131120250Y-122810120D01*
X131141293Y-122822732D01*
X131160999Y-122837347D01*
X131179177Y-122853823D01*
X131195653Y-122872001D01*
X131210268Y-122891707D01*
X131222880Y-122912750D01*
X131233370Y-122934929D01*
X131241635Y-122958028D01*
X131247596Y-122981827D01*
X131251196Y-123006095D01*
X131252400Y-123030599D01*
X131252400Y-123680601D01*
X131251196Y-123705105D01*
X131247596Y-123729373D01*
X131241635Y-123753172D01*
X131233370Y-123776271D01*
X131222880Y-123798450D01*
X131210268Y-123819493D01*
X131195653Y-123839199D01*
X131179177Y-123857377D01*
X131160999Y-123873853D01*
X131141293Y-123888468D01*
X131120250Y-123901080D01*
X131098071Y-123911570D01*
X131074972Y-123919835D01*
X131051173Y-123925796D01*
X131026905Y-123929396D01*
X131002401Y-123930600D01*
X130102399Y-123930600D01*
X130077895Y-123929396D01*
X130053627Y-123925796D01*
X130029828Y-123919835D01*
X130006729Y-123911570D01*
X129984550Y-123901080D01*
X129963507Y-123888468D01*
X129943801Y-123873853D01*
X129925623Y-123857377D01*
X129909147Y-123839199D01*
X129894532Y-123819493D01*
X129881920Y-123798450D01*
X129871430Y-123776271D01*
X129863165Y-123753172D01*
X129857204Y-123729373D01*
X129853604Y-123705105D01*
X129852400Y-123680601D01*
X129852400Y-123030599D01*
X129853604Y-123006095D01*
X129857204Y-122981827D01*
X129863165Y-122958028D01*
X129871430Y-122934929D01*
X129881920Y-122912750D01*
X129894532Y-122891707D01*
X129909147Y-122872001D01*
X129925623Y-122853823D01*
X129943801Y-122837347D01*
X129963507Y-122822732D01*
X129984550Y-122810120D01*
X130006729Y-122799630D01*
X130029828Y-122791365D01*
X130053627Y-122785404D01*
X130077895Y-122781804D01*
X130102399Y-122780600D01*
X131002401Y-122780600D01*
X131026905Y-122781804D01*
X131026905Y-122781804D01*
G37*
D13*
X130552400Y-123355600D03*
D12*
G36*
X127921105Y-132978204D02*
G01*
X127945373Y-132981804D01*
X127969172Y-132987765D01*
X127992271Y-132996030D01*
X128014450Y-133006520D01*
X128035493Y-133019132D01*
X128055199Y-133033747D01*
X128073377Y-133050223D01*
X128089853Y-133068401D01*
X128104468Y-133088107D01*
X128117080Y-133109150D01*
X128127570Y-133131329D01*
X128135835Y-133154428D01*
X128141796Y-133178227D01*
X128145396Y-133202495D01*
X128146600Y-133226999D01*
X128146600Y-134127001D01*
X128145396Y-134151505D01*
X128141796Y-134175773D01*
X128135835Y-134199572D01*
X128127570Y-134222671D01*
X128117080Y-134244850D01*
X128104468Y-134265893D01*
X128089853Y-134285599D01*
X128073377Y-134303777D01*
X128055199Y-134320253D01*
X128035493Y-134334868D01*
X128014450Y-134347480D01*
X127992271Y-134357970D01*
X127969172Y-134366235D01*
X127945373Y-134372196D01*
X127921105Y-134375796D01*
X127896601Y-134377000D01*
X127246599Y-134377000D01*
X127222095Y-134375796D01*
X127197827Y-134372196D01*
X127174028Y-134366235D01*
X127150929Y-134357970D01*
X127128750Y-134347480D01*
X127107707Y-134334868D01*
X127088001Y-134320253D01*
X127069823Y-134303777D01*
X127053347Y-134285599D01*
X127038732Y-134265893D01*
X127026120Y-134244850D01*
X127015630Y-134222671D01*
X127007365Y-134199572D01*
X127001404Y-134175773D01*
X126997804Y-134151505D01*
X126996600Y-134127001D01*
X126996600Y-133226999D01*
X126997804Y-133202495D01*
X127001404Y-133178227D01*
X127007365Y-133154428D01*
X127015630Y-133131329D01*
X127026120Y-133109150D01*
X127038732Y-133088107D01*
X127053347Y-133068401D01*
X127069823Y-133050223D01*
X127088001Y-133033747D01*
X127107707Y-133019132D01*
X127128750Y-133006520D01*
X127150929Y-132996030D01*
X127174028Y-132987765D01*
X127197827Y-132981804D01*
X127222095Y-132978204D01*
X127246599Y-132977000D01*
X127896601Y-132977000D01*
X127921105Y-132978204D01*
X127921105Y-132978204D01*
G37*
D13*
X127571600Y-133677000D03*
D12*
G36*
X129971105Y-132978204D02*
G01*
X129995373Y-132981804D01*
X130019172Y-132987765D01*
X130042271Y-132996030D01*
X130064450Y-133006520D01*
X130085493Y-133019132D01*
X130105199Y-133033747D01*
X130123377Y-133050223D01*
X130139853Y-133068401D01*
X130154468Y-133088107D01*
X130167080Y-133109150D01*
X130177570Y-133131329D01*
X130185835Y-133154428D01*
X130191796Y-133178227D01*
X130195396Y-133202495D01*
X130196600Y-133226999D01*
X130196600Y-134127001D01*
X130195396Y-134151505D01*
X130191796Y-134175773D01*
X130185835Y-134199572D01*
X130177570Y-134222671D01*
X130167080Y-134244850D01*
X130154468Y-134265893D01*
X130139853Y-134285599D01*
X130123377Y-134303777D01*
X130105199Y-134320253D01*
X130085493Y-134334868D01*
X130064450Y-134347480D01*
X130042271Y-134357970D01*
X130019172Y-134366235D01*
X129995373Y-134372196D01*
X129971105Y-134375796D01*
X129946601Y-134377000D01*
X129296599Y-134377000D01*
X129272095Y-134375796D01*
X129247827Y-134372196D01*
X129224028Y-134366235D01*
X129200929Y-134357970D01*
X129178750Y-134347480D01*
X129157707Y-134334868D01*
X129138001Y-134320253D01*
X129119823Y-134303777D01*
X129103347Y-134285599D01*
X129088732Y-134265893D01*
X129076120Y-134244850D01*
X129065630Y-134222671D01*
X129057365Y-134199572D01*
X129051404Y-134175773D01*
X129047804Y-134151505D01*
X129046600Y-134127001D01*
X129046600Y-133226999D01*
X129047804Y-133202495D01*
X129051404Y-133178227D01*
X129057365Y-133154428D01*
X129065630Y-133131329D01*
X129076120Y-133109150D01*
X129088732Y-133088107D01*
X129103347Y-133068401D01*
X129119823Y-133050223D01*
X129138001Y-133033747D01*
X129157707Y-133019132D01*
X129178750Y-133006520D01*
X129200929Y-132996030D01*
X129224028Y-132987765D01*
X129247827Y-132981804D01*
X129272095Y-132978204D01*
X129296599Y-132977000D01*
X129946601Y-132977000D01*
X129971105Y-132978204D01*
X129971105Y-132978204D01*
G37*
D13*
X129621600Y-133677000D03*
D12*
G36*
X118473905Y-118652604D02*
G01*
X118498173Y-118656204D01*
X118521972Y-118662165D01*
X118545071Y-118670430D01*
X118567250Y-118680920D01*
X118588293Y-118693532D01*
X118607999Y-118708147D01*
X118626177Y-118724623D01*
X118642653Y-118742801D01*
X118657268Y-118762507D01*
X118669880Y-118783550D01*
X118680370Y-118805729D01*
X118688635Y-118828828D01*
X118694596Y-118852627D01*
X118698196Y-118876895D01*
X118699400Y-118901399D01*
X118699400Y-119801401D01*
X118698196Y-119825905D01*
X118694596Y-119850173D01*
X118688635Y-119873972D01*
X118680370Y-119897071D01*
X118669880Y-119919250D01*
X118657268Y-119940293D01*
X118642653Y-119959999D01*
X118626177Y-119978177D01*
X118607999Y-119994653D01*
X118588293Y-120009268D01*
X118567250Y-120021880D01*
X118545071Y-120032370D01*
X118521972Y-120040635D01*
X118498173Y-120046596D01*
X118473905Y-120050196D01*
X118449401Y-120051400D01*
X117799399Y-120051400D01*
X117774895Y-120050196D01*
X117750627Y-120046596D01*
X117726828Y-120040635D01*
X117703729Y-120032370D01*
X117681550Y-120021880D01*
X117660507Y-120009268D01*
X117640801Y-119994653D01*
X117622623Y-119978177D01*
X117606147Y-119959999D01*
X117591532Y-119940293D01*
X117578920Y-119919250D01*
X117568430Y-119897071D01*
X117560165Y-119873972D01*
X117554204Y-119850173D01*
X117550604Y-119825905D01*
X117549400Y-119801401D01*
X117549400Y-118901399D01*
X117550604Y-118876895D01*
X117554204Y-118852627D01*
X117560165Y-118828828D01*
X117568430Y-118805729D01*
X117578920Y-118783550D01*
X117591532Y-118762507D01*
X117606147Y-118742801D01*
X117622623Y-118724623D01*
X117640801Y-118708147D01*
X117660507Y-118693532D01*
X117681550Y-118680920D01*
X117703729Y-118670430D01*
X117726828Y-118662165D01*
X117750627Y-118656204D01*
X117774895Y-118652604D01*
X117799399Y-118651400D01*
X118449401Y-118651400D01*
X118473905Y-118652604D01*
X118473905Y-118652604D01*
G37*
D13*
X118124400Y-119351400D03*
D12*
G36*
X116423905Y-118652604D02*
G01*
X116448173Y-118656204D01*
X116471972Y-118662165D01*
X116495071Y-118670430D01*
X116517250Y-118680920D01*
X116538293Y-118693532D01*
X116557999Y-118708147D01*
X116576177Y-118724623D01*
X116592653Y-118742801D01*
X116607268Y-118762507D01*
X116619880Y-118783550D01*
X116630370Y-118805729D01*
X116638635Y-118828828D01*
X116644596Y-118852627D01*
X116648196Y-118876895D01*
X116649400Y-118901399D01*
X116649400Y-119801401D01*
X116648196Y-119825905D01*
X116644596Y-119850173D01*
X116638635Y-119873972D01*
X116630370Y-119897071D01*
X116619880Y-119919250D01*
X116607268Y-119940293D01*
X116592653Y-119959999D01*
X116576177Y-119978177D01*
X116557999Y-119994653D01*
X116538293Y-120009268D01*
X116517250Y-120021880D01*
X116495071Y-120032370D01*
X116471972Y-120040635D01*
X116448173Y-120046596D01*
X116423905Y-120050196D01*
X116399401Y-120051400D01*
X115749399Y-120051400D01*
X115724895Y-120050196D01*
X115700627Y-120046596D01*
X115676828Y-120040635D01*
X115653729Y-120032370D01*
X115631550Y-120021880D01*
X115610507Y-120009268D01*
X115590801Y-119994653D01*
X115572623Y-119978177D01*
X115556147Y-119959999D01*
X115541532Y-119940293D01*
X115528920Y-119919250D01*
X115518430Y-119897071D01*
X115510165Y-119873972D01*
X115504204Y-119850173D01*
X115500604Y-119825905D01*
X115499400Y-119801401D01*
X115499400Y-118901399D01*
X115500604Y-118876895D01*
X115504204Y-118852627D01*
X115510165Y-118828828D01*
X115518430Y-118805729D01*
X115528920Y-118783550D01*
X115541532Y-118762507D01*
X115556147Y-118742801D01*
X115572623Y-118724623D01*
X115590801Y-118708147D01*
X115610507Y-118693532D01*
X115631550Y-118680920D01*
X115653729Y-118670430D01*
X115676828Y-118662165D01*
X115700627Y-118656204D01*
X115724895Y-118652604D01*
X115749399Y-118651400D01*
X116399401Y-118651400D01*
X116423905Y-118652604D01*
X116423905Y-118652604D01*
G37*
D13*
X116074400Y-119351400D03*
D12*
G36*
X116440305Y-120710004D02*
G01*
X116464573Y-120713604D01*
X116488372Y-120719565D01*
X116511471Y-120727830D01*
X116533650Y-120738320D01*
X116554693Y-120750932D01*
X116574399Y-120765547D01*
X116592577Y-120782023D01*
X116609053Y-120800201D01*
X116623668Y-120819907D01*
X116636280Y-120840950D01*
X116646770Y-120863129D01*
X116655035Y-120886228D01*
X116660996Y-120910027D01*
X116664596Y-120934295D01*
X116665800Y-120958799D01*
X116665800Y-121858801D01*
X116664596Y-121883305D01*
X116660996Y-121907573D01*
X116655035Y-121931372D01*
X116646770Y-121954471D01*
X116636280Y-121976650D01*
X116623668Y-121997693D01*
X116609053Y-122017399D01*
X116592577Y-122035577D01*
X116574399Y-122052053D01*
X116554693Y-122066668D01*
X116533650Y-122079280D01*
X116511471Y-122089770D01*
X116488372Y-122098035D01*
X116464573Y-122103996D01*
X116440305Y-122107596D01*
X116415801Y-122108800D01*
X115765799Y-122108800D01*
X115741295Y-122107596D01*
X115717027Y-122103996D01*
X115693228Y-122098035D01*
X115670129Y-122089770D01*
X115647950Y-122079280D01*
X115626907Y-122066668D01*
X115607201Y-122052053D01*
X115589023Y-122035577D01*
X115572547Y-122017399D01*
X115557932Y-121997693D01*
X115545320Y-121976650D01*
X115534830Y-121954471D01*
X115526565Y-121931372D01*
X115520604Y-121907573D01*
X115517004Y-121883305D01*
X115515800Y-121858801D01*
X115515800Y-120958799D01*
X115517004Y-120934295D01*
X115520604Y-120910027D01*
X115526565Y-120886228D01*
X115534830Y-120863129D01*
X115545320Y-120840950D01*
X115557932Y-120819907D01*
X115572547Y-120800201D01*
X115589023Y-120782023D01*
X115607201Y-120765547D01*
X115626907Y-120750932D01*
X115647950Y-120738320D01*
X115670129Y-120727830D01*
X115693228Y-120719565D01*
X115717027Y-120713604D01*
X115741295Y-120710004D01*
X115765799Y-120708800D01*
X116415801Y-120708800D01*
X116440305Y-120710004D01*
X116440305Y-120710004D01*
G37*
D13*
X116090800Y-121408800D03*
D12*
G36*
X118490305Y-120710004D02*
G01*
X118514573Y-120713604D01*
X118538372Y-120719565D01*
X118561471Y-120727830D01*
X118583650Y-120738320D01*
X118604693Y-120750932D01*
X118624399Y-120765547D01*
X118642577Y-120782023D01*
X118659053Y-120800201D01*
X118673668Y-120819907D01*
X118686280Y-120840950D01*
X118696770Y-120863129D01*
X118705035Y-120886228D01*
X118710996Y-120910027D01*
X118714596Y-120934295D01*
X118715800Y-120958799D01*
X118715800Y-121858801D01*
X118714596Y-121883305D01*
X118710996Y-121907573D01*
X118705035Y-121931372D01*
X118696770Y-121954471D01*
X118686280Y-121976650D01*
X118673668Y-121997693D01*
X118659053Y-122017399D01*
X118642577Y-122035577D01*
X118624399Y-122052053D01*
X118604693Y-122066668D01*
X118583650Y-122079280D01*
X118561471Y-122089770D01*
X118538372Y-122098035D01*
X118514573Y-122103996D01*
X118490305Y-122107596D01*
X118465801Y-122108800D01*
X117815799Y-122108800D01*
X117791295Y-122107596D01*
X117767027Y-122103996D01*
X117743228Y-122098035D01*
X117720129Y-122089770D01*
X117697950Y-122079280D01*
X117676907Y-122066668D01*
X117657201Y-122052053D01*
X117639023Y-122035577D01*
X117622547Y-122017399D01*
X117607932Y-121997693D01*
X117595320Y-121976650D01*
X117584830Y-121954471D01*
X117576565Y-121931372D01*
X117570604Y-121907573D01*
X117567004Y-121883305D01*
X117565800Y-121858801D01*
X117565800Y-120958799D01*
X117567004Y-120934295D01*
X117570604Y-120910027D01*
X117576565Y-120886228D01*
X117584830Y-120863129D01*
X117595320Y-120840950D01*
X117607932Y-120819907D01*
X117622547Y-120800201D01*
X117639023Y-120782023D01*
X117657201Y-120765547D01*
X117676907Y-120750932D01*
X117697950Y-120738320D01*
X117720129Y-120727830D01*
X117743228Y-120719565D01*
X117767027Y-120713604D01*
X117791295Y-120710004D01*
X117815799Y-120708800D01*
X118465801Y-120708800D01*
X118490305Y-120710004D01*
X118490305Y-120710004D01*
G37*
D13*
X118140800Y-121408800D03*
D12*
G36*
X120469905Y-111210404D02*
G01*
X120494173Y-111214004D01*
X120517972Y-111219965D01*
X120541071Y-111228230D01*
X120563250Y-111238720D01*
X120584293Y-111251332D01*
X120603999Y-111265947D01*
X120622177Y-111282423D01*
X120638653Y-111300601D01*
X120653268Y-111320307D01*
X120665880Y-111341350D01*
X120676370Y-111363529D01*
X120684635Y-111386628D01*
X120690596Y-111410427D01*
X120694196Y-111434695D01*
X120695400Y-111459199D01*
X120695400Y-112359201D01*
X120694196Y-112383705D01*
X120690596Y-112407973D01*
X120684635Y-112431772D01*
X120676370Y-112454871D01*
X120665880Y-112477050D01*
X120653268Y-112498093D01*
X120638653Y-112517799D01*
X120622177Y-112535977D01*
X120603999Y-112552453D01*
X120584293Y-112567068D01*
X120563250Y-112579680D01*
X120541071Y-112590170D01*
X120517972Y-112598435D01*
X120494173Y-112604396D01*
X120469905Y-112607996D01*
X120445401Y-112609200D01*
X119795399Y-112609200D01*
X119770895Y-112607996D01*
X119746627Y-112604396D01*
X119722828Y-112598435D01*
X119699729Y-112590170D01*
X119677550Y-112579680D01*
X119656507Y-112567068D01*
X119636801Y-112552453D01*
X119618623Y-112535977D01*
X119602147Y-112517799D01*
X119587532Y-112498093D01*
X119574920Y-112477050D01*
X119564430Y-112454871D01*
X119556165Y-112431772D01*
X119550204Y-112407973D01*
X119546604Y-112383705D01*
X119545400Y-112359201D01*
X119545400Y-111459199D01*
X119546604Y-111434695D01*
X119550204Y-111410427D01*
X119556165Y-111386628D01*
X119564430Y-111363529D01*
X119574920Y-111341350D01*
X119587532Y-111320307D01*
X119602147Y-111300601D01*
X119618623Y-111282423D01*
X119636801Y-111265947D01*
X119656507Y-111251332D01*
X119677550Y-111238720D01*
X119699729Y-111228230D01*
X119722828Y-111219965D01*
X119746627Y-111214004D01*
X119770895Y-111210404D01*
X119795399Y-111209200D01*
X120445401Y-111209200D01*
X120469905Y-111210404D01*
X120469905Y-111210404D01*
G37*
D13*
X120120400Y-111909200D03*
D12*
G36*
X122519905Y-111210404D02*
G01*
X122544173Y-111214004D01*
X122567972Y-111219965D01*
X122591071Y-111228230D01*
X122613250Y-111238720D01*
X122634293Y-111251332D01*
X122653999Y-111265947D01*
X122672177Y-111282423D01*
X122688653Y-111300601D01*
X122703268Y-111320307D01*
X122715880Y-111341350D01*
X122726370Y-111363529D01*
X122734635Y-111386628D01*
X122740596Y-111410427D01*
X122744196Y-111434695D01*
X122745400Y-111459199D01*
X122745400Y-112359201D01*
X122744196Y-112383705D01*
X122740596Y-112407973D01*
X122734635Y-112431772D01*
X122726370Y-112454871D01*
X122715880Y-112477050D01*
X122703268Y-112498093D01*
X122688653Y-112517799D01*
X122672177Y-112535977D01*
X122653999Y-112552453D01*
X122634293Y-112567068D01*
X122613250Y-112579680D01*
X122591071Y-112590170D01*
X122567972Y-112598435D01*
X122544173Y-112604396D01*
X122519905Y-112607996D01*
X122495401Y-112609200D01*
X121845399Y-112609200D01*
X121820895Y-112607996D01*
X121796627Y-112604396D01*
X121772828Y-112598435D01*
X121749729Y-112590170D01*
X121727550Y-112579680D01*
X121706507Y-112567068D01*
X121686801Y-112552453D01*
X121668623Y-112535977D01*
X121652147Y-112517799D01*
X121637532Y-112498093D01*
X121624920Y-112477050D01*
X121614430Y-112454871D01*
X121606165Y-112431772D01*
X121600204Y-112407973D01*
X121596604Y-112383705D01*
X121595400Y-112359201D01*
X121595400Y-111459199D01*
X121596604Y-111434695D01*
X121600204Y-111410427D01*
X121606165Y-111386628D01*
X121614430Y-111363529D01*
X121624920Y-111341350D01*
X121637532Y-111320307D01*
X121652147Y-111300601D01*
X121668623Y-111282423D01*
X121686801Y-111265947D01*
X121706507Y-111251332D01*
X121727550Y-111238720D01*
X121749729Y-111228230D01*
X121772828Y-111219965D01*
X121796627Y-111214004D01*
X121820895Y-111210404D01*
X121845399Y-111209200D01*
X122495401Y-111209200D01*
X122519905Y-111210404D01*
X122519905Y-111210404D01*
G37*
D13*
X122170400Y-111909200D03*
D12*
G36*
X124221705Y-111210404D02*
G01*
X124245973Y-111214004D01*
X124269772Y-111219965D01*
X124292871Y-111228230D01*
X124315050Y-111238720D01*
X124336093Y-111251332D01*
X124355799Y-111265947D01*
X124373977Y-111282423D01*
X124390453Y-111300601D01*
X124405068Y-111320307D01*
X124417680Y-111341350D01*
X124428170Y-111363529D01*
X124436435Y-111386628D01*
X124442396Y-111410427D01*
X124445996Y-111434695D01*
X124447200Y-111459199D01*
X124447200Y-112359201D01*
X124445996Y-112383705D01*
X124442396Y-112407973D01*
X124436435Y-112431772D01*
X124428170Y-112454871D01*
X124417680Y-112477050D01*
X124405068Y-112498093D01*
X124390453Y-112517799D01*
X124373977Y-112535977D01*
X124355799Y-112552453D01*
X124336093Y-112567068D01*
X124315050Y-112579680D01*
X124292871Y-112590170D01*
X124269772Y-112598435D01*
X124245973Y-112604396D01*
X124221705Y-112607996D01*
X124197201Y-112609200D01*
X123547199Y-112609200D01*
X123522695Y-112607996D01*
X123498427Y-112604396D01*
X123474628Y-112598435D01*
X123451529Y-112590170D01*
X123429350Y-112579680D01*
X123408307Y-112567068D01*
X123388601Y-112552453D01*
X123370423Y-112535977D01*
X123353947Y-112517799D01*
X123339332Y-112498093D01*
X123326720Y-112477050D01*
X123316230Y-112454871D01*
X123307965Y-112431772D01*
X123302004Y-112407973D01*
X123298404Y-112383705D01*
X123297200Y-112359201D01*
X123297200Y-111459199D01*
X123298404Y-111434695D01*
X123302004Y-111410427D01*
X123307965Y-111386628D01*
X123316230Y-111363529D01*
X123326720Y-111341350D01*
X123339332Y-111320307D01*
X123353947Y-111300601D01*
X123370423Y-111282423D01*
X123388601Y-111265947D01*
X123408307Y-111251332D01*
X123429350Y-111238720D01*
X123451529Y-111228230D01*
X123474628Y-111219965D01*
X123498427Y-111214004D01*
X123522695Y-111210404D01*
X123547199Y-111209200D01*
X124197201Y-111209200D01*
X124221705Y-111210404D01*
X124221705Y-111210404D01*
G37*
D13*
X123872200Y-111909200D03*
D12*
G36*
X126271705Y-111210404D02*
G01*
X126295973Y-111214004D01*
X126319772Y-111219965D01*
X126342871Y-111228230D01*
X126365050Y-111238720D01*
X126386093Y-111251332D01*
X126405799Y-111265947D01*
X126423977Y-111282423D01*
X126440453Y-111300601D01*
X126455068Y-111320307D01*
X126467680Y-111341350D01*
X126478170Y-111363529D01*
X126486435Y-111386628D01*
X126492396Y-111410427D01*
X126495996Y-111434695D01*
X126497200Y-111459199D01*
X126497200Y-112359201D01*
X126495996Y-112383705D01*
X126492396Y-112407973D01*
X126486435Y-112431772D01*
X126478170Y-112454871D01*
X126467680Y-112477050D01*
X126455068Y-112498093D01*
X126440453Y-112517799D01*
X126423977Y-112535977D01*
X126405799Y-112552453D01*
X126386093Y-112567068D01*
X126365050Y-112579680D01*
X126342871Y-112590170D01*
X126319772Y-112598435D01*
X126295973Y-112604396D01*
X126271705Y-112607996D01*
X126247201Y-112609200D01*
X125597199Y-112609200D01*
X125572695Y-112607996D01*
X125548427Y-112604396D01*
X125524628Y-112598435D01*
X125501529Y-112590170D01*
X125479350Y-112579680D01*
X125458307Y-112567068D01*
X125438601Y-112552453D01*
X125420423Y-112535977D01*
X125403947Y-112517799D01*
X125389332Y-112498093D01*
X125376720Y-112477050D01*
X125366230Y-112454871D01*
X125357965Y-112431772D01*
X125352004Y-112407973D01*
X125348404Y-112383705D01*
X125347200Y-112359201D01*
X125347200Y-111459199D01*
X125348404Y-111434695D01*
X125352004Y-111410427D01*
X125357965Y-111386628D01*
X125366230Y-111363529D01*
X125376720Y-111341350D01*
X125389332Y-111320307D01*
X125403947Y-111300601D01*
X125420423Y-111282423D01*
X125438601Y-111265947D01*
X125458307Y-111251332D01*
X125479350Y-111238720D01*
X125501529Y-111228230D01*
X125524628Y-111219965D01*
X125548427Y-111214004D01*
X125572695Y-111210404D01*
X125597199Y-111209200D01*
X126247201Y-111209200D01*
X126271705Y-111210404D01*
X126271705Y-111210404D01*
G37*
D13*
X125922200Y-111909200D03*
D12*
G36*
X126152105Y-132978204D02*
G01*
X126176373Y-132981804D01*
X126200172Y-132987765D01*
X126223271Y-132996030D01*
X126245450Y-133006520D01*
X126266493Y-133019132D01*
X126286199Y-133033747D01*
X126304377Y-133050223D01*
X126320853Y-133068401D01*
X126335468Y-133088107D01*
X126348080Y-133109150D01*
X126358570Y-133131329D01*
X126366835Y-133154428D01*
X126372796Y-133178227D01*
X126376396Y-133202495D01*
X126377600Y-133226999D01*
X126377600Y-134127001D01*
X126376396Y-134151505D01*
X126372796Y-134175773D01*
X126366835Y-134199572D01*
X126358570Y-134222671D01*
X126348080Y-134244850D01*
X126335468Y-134265893D01*
X126320853Y-134285599D01*
X126304377Y-134303777D01*
X126286199Y-134320253D01*
X126266493Y-134334868D01*
X126245450Y-134347480D01*
X126223271Y-134357970D01*
X126200172Y-134366235D01*
X126176373Y-134372196D01*
X126152105Y-134375796D01*
X126127601Y-134377000D01*
X125477599Y-134377000D01*
X125453095Y-134375796D01*
X125428827Y-134372196D01*
X125405028Y-134366235D01*
X125381929Y-134357970D01*
X125359750Y-134347480D01*
X125338707Y-134334868D01*
X125319001Y-134320253D01*
X125300823Y-134303777D01*
X125284347Y-134285599D01*
X125269732Y-134265893D01*
X125257120Y-134244850D01*
X125246630Y-134222671D01*
X125238365Y-134199572D01*
X125232404Y-134175773D01*
X125228804Y-134151505D01*
X125227600Y-134127001D01*
X125227600Y-133226999D01*
X125228804Y-133202495D01*
X125232404Y-133178227D01*
X125238365Y-133154428D01*
X125246630Y-133131329D01*
X125257120Y-133109150D01*
X125269732Y-133088107D01*
X125284347Y-133068401D01*
X125300823Y-133050223D01*
X125319001Y-133033747D01*
X125338707Y-133019132D01*
X125359750Y-133006520D01*
X125381929Y-132996030D01*
X125405028Y-132987765D01*
X125428827Y-132981804D01*
X125453095Y-132978204D01*
X125477599Y-132977000D01*
X126127601Y-132977000D01*
X126152105Y-132978204D01*
X126152105Y-132978204D01*
G37*
D13*
X125802600Y-133677000D03*
D12*
G36*
X124102105Y-132978204D02*
G01*
X124126373Y-132981804D01*
X124150172Y-132987765D01*
X124173271Y-132996030D01*
X124195450Y-133006520D01*
X124216493Y-133019132D01*
X124236199Y-133033747D01*
X124254377Y-133050223D01*
X124270853Y-133068401D01*
X124285468Y-133088107D01*
X124298080Y-133109150D01*
X124308570Y-133131329D01*
X124316835Y-133154428D01*
X124322796Y-133178227D01*
X124326396Y-133202495D01*
X124327600Y-133226999D01*
X124327600Y-134127001D01*
X124326396Y-134151505D01*
X124322796Y-134175773D01*
X124316835Y-134199572D01*
X124308570Y-134222671D01*
X124298080Y-134244850D01*
X124285468Y-134265893D01*
X124270853Y-134285599D01*
X124254377Y-134303777D01*
X124236199Y-134320253D01*
X124216493Y-134334868D01*
X124195450Y-134347480D01*
X124173271Y-134357970D01*
X124150172Y-134366235D01*
X124126373Y-134372196D01*
X124102105Y-134375796D01*
X124077601Y-134377000D01*
X123427599Y-134377000D01*
X123403095Y-134375796D01*
X123378827Y-134372196D01*
X123355028Y-134366235D01*
X123331929Y-134357970D01*
X123309750Y-134347480D01*
X123288707Y-134334868D01*
X123269001Y-134320253D01*
X123250823Y-134303777D01*
X123234347Y-134285599D01*
X123219732Y-134265893D01*
X123207120Y-134244850D01*
X123196630Y-134222671D01*
X123188365Y-134199572D01*
X123182404Y-134175773D01*
X123178804Y-134151505D01*
X123177600Y-134127001D01*
X123177600Y-133226999D01*
X123178804Y-133202495D01*
X123182404Y-133178227D01*
X123188365Y-133154428D01*
X123196630Y-133131329D01*
X123207120Y-133109150D01*
X123219732Y-133088107D01*
X123234347Y-133068401D01*
X123250823Y-133050223D01*
X123269001Y-133033747D01*
X123288707Y-133019132D01*
X123309750Y-133006520D01*
X123331929Y-132996030D01*
X123355028Y-132987765D01*
X123378827Y-132981804D01*
X123403095Y-132978204D01*
X123427599Y-132977000D01*
X124077601Y-132977000D01*
X124102105Y-132978204D01*
X124102105Y-132978204D01*
G37*
D13*
X123752600Y-133677000D03*
D11*
X132025600Y-118056000D03*
X132025600Y-120596000D03*
X129485600Y-118056000D03*
D10*
X129485600Y-120596000D03*
D14*
X125040600Y-138985600D03*
X122500600Y-138985600D03*
X119960600Y-138985600D03*
D12*
G36*
X125787252Y-129517402D02*
G01*
X125799386Y-129519202D01*
X125811286Y-129522182D01*
X125822835Y-129526315D01*
X125833925Y-129531560D01*
X125844446Y-129537866D01*
X125854299Y-129545174D01*
X125863388Y-129553412D01*
X125871626Y-129562501D01*
X125878934Y-129572354D01*
X125885240Y-129582875D01*
X125890485Y-129593965D01*
X125894618Y-129605514D01*
X125897598Y-129617414D01*
X125899398Y-129629548D01*
X125900000Y-129641800D01*
X125900000Y-130891800D01*
X125899398Y-130904052D01*
X125897598Y-130916186D01*
X125894618Y-130928086D01*
X125890485Y-130939635D01*
X125885240Y-130950725D01*
X125878934Y-130961246D01*
X125871626Y-130971099D01*
X125863388Y-130980188D01*
X125854299Y-130988426D01*
X125844446Y-130995734D01*
X125833925Y-131002040D01*
X125822835Y-131007285D01*
X125811286Y-131011418D01*
X125799386Y-131014398D01*
X125787252Y-131016198D01*
X125775000Y-131016800D01*
X125525000Y-131016800D01*
X125512748Y-131016198D01*
X125500614Y-131014398D01*
X125488714Y-131011418D01*
X125477165Y-131007285D01*
X125466075Y-131002040D01*
X125455554Y-130995734D01*
X125445701Y-130988426D01*
X125436612Y-130980188D01*
X125428374Y-130971099D01*
X125421066Y-130961246D01*
X125414760Y-130950725D01*
X125409515Y-130939635D01*
X125405382Y-130928086D01*
X125402402Y-130916186D01*
X125400602Y-130904052D01*
X125400000Y-130891800D01*
X125400000Y-129641800D01*
X125400602Y-129629548D01*
X125402402Y-129617414D01*
X125405382Y-129605514D01*
X125409515Y-129593965D01*
X125414760Y-129582875D01*
X125421066Y-129572354D01*
X125428374Y-129562501D01*
X125436612Y-129553412D01*
X125445701Y-129545174D01*
X125455554Y-129537866D01*
X125466075Y-129531560D01*
X125477165Y-129526315D01*
X125488714Y-129522182D01*
X125500614Y-129519202D01*
X125512748Y-129517402D01*
X125525000Y-129516800D01*
X125775000Y-129516800D01*
X125787252Y-129517402D01*
X125787252Y-129517402D01*
G37*
D15*
X125650000Y-130266800D03*
D12*
G36*
X124987252Y-129517402D02*
G01*
X124999386Y-129519202D01*
X125011286Y-129522182D01*
X125022835Y-129526315D01*
X125033925Y-129531560D01*
X125044446Y-129537866D01*
X125054299Y-129545174D01*
X125063388Y-129553412D01*
X125071626Y-129562501D01*
X125078934Y-129572354D01*
X125085240Y-129582875D01*
X125090485Y-129593965D01*
X125094618Y-129605514D01*
X125097598Y-129617414D01*
X125099398Y-129629548D01*
X125100000Y-129641800D01*
X125100000Y-130891800D01*
X125099398Y-130904052D01*
X125097598Y-130916186D01*
X125094618Y-130928086D01*
X125090485Y-130939635D01*
X125085240Y-130950725D01*
X125078934Y-130961246D01*
X125071626Y-130971099D01*
X125063388Y-130980188D01*
X125054299Y-130988426D01*
X125044446Y-130995734D01*
X125033925Y-131002040D01*
X125022835Y-131007285D01*
X125011286Y-131011418D01*
X124999386Y-131014398D01*
X124987252Y-131016198D01*
X124975000Y-131016800D01*
X124725000Y-131016800D01*
X124712748Y-131016198D01*
X124700614Y-131014398D01*
X124688714Y-131011418D01*
X124677165Y-131007285D01*
X124666075Y-131002040D01*
X124655554Y-130995734D01*
X124645701Y-130988426D01*
X124636612Y-130980188D01*
X124628374Y-130971099D01*
X124621066Y-130961246D01*
X124614760Y-130950725D01*
X124609515Y-130939635D01*
X124605382Y-130928086D01*
X124602402Y-130916186D01*
X124600602Y-130904052D01*
X124600000Y-130891800D01*
X124600000Y-129641800D01*
X124600602Y-129629548D01*
X124602402Y-129617414D01*
X124605382Y-129605514D01*
X124609515Y-129593965D01*
X124614760Y-129582875D01*
X124621066Y-129572354D01*
X124628374Y-129562501D01*
X124636612Y-129553412D01*
X124645701Y-129545174D01*
X124655554Y-129537866D01*
X124666075Y-129531560D01*
X124677165Y-129526315D01*
X124688714Y-129522182D01*
X124700614Y-129519202D01*
X124712748Y-129517402D01*
X124725000Y-129516800D01*
X124975000Y-129516800D01*
X124987252Y-129517402D01*
X124987252Y-129517402D01*
G37*
D15*
X124850000Y-130266800D03*
D12*
G36*
X124187252Y-129517402D02*
G01*
X124199386Y-129519202D01*
X124211286Y-129522182D01*
X124222835Y-129526315D01*
X124233925Y-129531560D01*
X124244446Y-129537866D01*
X124254299Y-129545174D01*
X124263388Y-129553412D01*
X124271626Y-129562501D01*
X124278934Y-129572354D01*
X124285240Y-129582875D01*
X124290485Y-129593965D01*
X124294618Y-129605514D01*
X124297598Y-129617414D01*
X124299398Y-129629548D01*
X124300000Y-129641800D01*
X124300000Y-130891800D01*
X124299398Y-130904052D01*
X124297598Y-130916186D01*
X124294618Y-130928086D01*
X124290485Y-130939635D01*
X124285240Y-130950725D01*
X124278934Y-130961246D01*
X124271626Y-130971099D01*
X124263388Y-130980188D01*
X124254299Y-130988426D01*
X124244446Y-130995734D01*
X124233925Y-131002040D01*
X124222835Y-131007285D01*
X124211286Y-131011418D01*
X124199386Y-131014398D01*
X124187252Y-131016198D01*
X124175000Y-131016800D01*
X123925000Y-131016800D01*
X123912748Y-131016198D01*
X123900614Y-131014398D01*
X123888714Y-131011418D01*
X123877165Y-131007285D01*
X123866075Y-131002040D01*
X123855554Y-130995734D01*
X123845701Y-130988426D01*
X123836612Y-130980188D01*
X123828374Y-130971099D01*
X123821066Y-130961246D01*
X123814760Y-130950725D01*
X123809515Y-130939635D01*
X123805382Y-130928086D01*
X123802402Y-130916186D01*
X123800602Y-130904052D01*
X123800000Y-130891800D01*
X123800000Y-129641800D01*
X123800602Y-129629548D01*
X123802402Y-129617414D01*
X123805382Y-129605514D01*
X123809515Y-129593965D01*
X123814760Y-129582875D01*
X123821066Y-129572354D01*
X123828374Y-129562501D01*
X123836612Y-129553412D01*
X123845701Y-129545174D01*
X123855554Y-129537866D01*
X123866075Y-129531560D01*
X123877165Y-129526315D01*
X123888714Y-129522182D01*
X123900614Y-129519202D01*
X123912748Y-129517402D01*
X123925000Y-129516800D01*
X124175000Y-129516800D01*
X124187252Y-129517402D01*
X124187252Y-129517402D01*
G37*
D15*
X124050000Y-130266800D03*
D12*
G36*
X123387252Y-129517402D02*
G01*
X123399386Y-129519202D01*
X123411286Y-129522182D01*
X123422835Y-129526315D01*
X123433925Y-129531560D01*
X123444446Y-129537866D01*
X123454299Y-129545174D01*
X123463388Y-129553412D01*
X123471626Y-129562501D01*
X123478934Y-129572354D01*
X123485240Y-129582875D01*
X123490485Y-129593965D01*
X123494618Y-129605514D01*
X123497598Y-129617414D01*
X123499398Y-129629548D01*
X123500000Y-129641800D01*
X123500000Y-130891800D01*
X123499398Y-130904052D01*
X123497598Y-130916186D01*
X123494618Y-130928086D01*
X123490485Y-130939635D01*
X123485240Y-130950725D01*
X123478934Y-130961246D01*
X123471626Y-130971099D01*
X123463388Y-130980188D01*
X123454299Y-130988426D01*
X123444446Y-130995734D01*
X123433925Y-131002040D01*
X123422835Y-131007285D01*
X123411286Y-131011418D01*
X123399386Y-131014398D01*
X123387252Y-131016198D01*
X123375000Y-131016800D01*
X123125000Y-131016800D01*
X123112748Y-131016198D01*
X123100614Y-131014398D01*
X123088714Y-131011418D01*
X123077165Y-131007285D01*
X123066075Y-131002040D01*
X123055554Y-130995734D01*
X123045701Y-130988426D01*
X123036612Y-130980188D01*
X123028374Y-130971099D01*
X123021066Y-130961246D01*
X123014760Y-130950725D01*
X123009515Y-130939635D01*
X123005382Y-130928086D01*
X123002402Y-130916186D01*
X123000602Y-130904052D01*
X123000000Y-130891800D01*
X123000000Y-129641800D01*
X123000602Y-129629548D01*
X123002402Y-129617414D01*
X123005382Y-129605514D01*
X123009515Y-129593965D01*
X123014760Y-129582875D01*
X123021066Y-129572354D01*
X123028374Y-129562501D01*
X123036612Y-129553412D01*
X123045701Y-129545174D01*
X123055554Y-129537866D01*
X123066075Y-129531560D01*
X123077165Y-129526315D01*
X123088714Y-129522182D01*
X123100614Y-129519202D01*
X123112748Y-129517402D01*
X123125000Y-129516800D01*
X123375000Y-129516800D01*
X123387252Y-129517402D01*
X123387252Y-129517402D01*
G37*
D15*
X123250000Y-130266800D03*
D12*
G36*
X122587252Y-129517402D02*
G01*
X122599386Y-129519202D01*
X122611286Y-129522182D01*
X122622835Y-129526315D01*
X122633925Y-129531560D01*
X122644446Y-129537866D01*
X122654299Y-129545174D01*
X122663388Y-129553412D01*
X122671626Y-129562501D01*
X122678934Y-129572354D01*
X122685240Y-129582875D01*
X122690485Y-129593965D01*
X122694618Y-129605514D01*
X122697598Y-129617414D01*
X122699398Y-129629548D01*
X122700000Y-129641800D01*
X122700000Y-130891800D01*
X122699398Y-130904052D01*
X122697598Y-130916186D01*
X122694618Y-130928086D01*
X122690485Y-130939635D01*
X122685240Y-130950725D01*
X122678934Y-130961246D01*
X122671626Y-130971099D01*
X122663388Y-130980188D01*
X122654299Y-130988426D01*
X122644446Y-130995734D01*
X122633925Y-131002040D01*
X122622835Y-131007285D01*
X122611286Y-131011418D01*
X122599386Y-131014398D01*
X122587252Y-131016198D01*
X122575000Y-131016800D01*
X122325000Y-131016800D01*
X122312748Y-131016198D01*
X122300614Y-131014398D01*
X122288714Y-131011418D01*
X122277165Y-131007285D01*
X122266075Y-131002040D01*
X122255554Y-130995734D01*
X122245701Y-130988426D01*
X122236612Y-130980188D01*
X122228374Y-130971099D01*
X122221066Y-130961246D01*
X122214760Y-130950725D01*
X122209515Y-130939635D01*
X122205382Y-130928086D01*
X122202402Y-130916186D01*
X122200602Y-130904052D01*
X122200000Y-130891800D01*
X122200000Y-129641800D01*
X122200602Y-129629548D01*
X122202402Y-129617414D01*
X122205382Y-129605514D01*
X122209515Y-129593965D01*
X122214760Y-129582875D01*
X122221066Y-129572354D01*
X122228374Y-129562501D01*
X122236612Y-129553412D01*
X122245701Y-129545174D01*
X122255554Y-129537866D01*
X122266075Y-129531560D01*
X122277165Y-129526315D01*
X122288714Y-129522182D01*
X122300614Y-129519202D01*
X122312748Y-129517402D01*
X122325000Y-129516800D01*
X122575000Y-129516800D01*
X122587252Y-129517402D01*
X122587252Y-129517402D01*
G37*
D15*
X122450000Y-130266800D03*
D12*
G36*
X121787252Y-129517402D02*
G01*
X121799386Y-129519202D01*
X121811286Y-129522182D01*
X121822835Y-129526315D01*
X121833925Y-129531560D01*
X121844446Y-129537866D01*
X121854299Y-129545174D01*
X121863388Y-129553412D01*
X121871626Y-129562501D01*
X121878934Y-129572354D01*
X121885240Y-129582875D01*
X121890485Y-129593965D01*
X121894618Y-129605514D01*
X121897598Y-129617414D01*
X121899398Y-129629548D01*
X121900000Y-129641800D01*
X121900000Y-130891800D01*
X121899398Y-130904052D01*
X121897598Y-130916186D01*
X121894618Y-130928086D01*
X121890485Y-130939635D01*
X121885240Y-130950725D01*
X121878934Y-130961246D01*
X121871626Y-130971099D01*
X121863388Y-130980188D01*
X121854299Y-130988426D01*
X121844446Y-130995734D01*
X121833925Y-131002040D01*
X121822835Y-131007285D01*
X121811286Y-131011418D01*
X121799386Y-131014398D01*
X121787252Y-131016198D01*
X121775000Y-131016800D01*
X121525000Y-131016800D01*
X121512748Y-131016198D01*
X121500614Y-131014398D01*
X121488714Y-131011418D01*
X121477165Y-131007285D01*
X121466075Y-131002040D01*
X121455554Y-130995734D01*
X121445701Y-130988426D01*
X121436612Y-130980188D01*
X121428374Y-130971099D01*
X121421066Y-130961246D01*
X121414760Y-130950725D01*
X121409515Y-130939635D01*
X121405382Y-130928086D01*
X121402402Y-130916186D01*
X121400602Y-130904052D01*
X121400000Y-130891800D01*
X121400000Y-129641800D01*
X121400602Y-129629548D01*
X121402402Y-129617414D01*
X121405382Y-129605514D01*
X121409515Y-129593965D01*
X121414760Y-129582875D01*
X121421066Y-129572354D01*
X121428374Y-129562501D01*
X121436612Y-129553412D01*
X121445701Y-129545174D01*
X121455554Y-129537866D01*
X121466075Y-129531560D01*
X121477165Y-129526315D01*
X121488714Y-129522182D01*
X121500614Y-129519202D01*
X121512748Y-129517402D01*
X121525000Y-129516800D01*
X121775000Y-129516800D01*
X121787252Y-129517402D01*
X121787252Y-129517402D01*
G37*
D15*
X121650000Y-130266800D03*
D12*
G36*
X120987252Y-129517402D02*
G01*
X120999386Y-129519202D01*
X121011286Y-129522182D01*
X121022835Y-129526315D01*
X121033925Y-129531560D01*
X121044446Y-129537866D01*
X121054299Y-129545174D01*
X121063388Y-129553412D01*
X121071626Y-129562501D01*
X121078934Y-129572354D01*
X121085240Y-129582875D01*
X121090485Y-129593965D01*
X121094618Y-129605514D01*
X121097598Y-129617414D01*
X121099398Y-129629548D01*
X121100000Y-129641800D01*
X121100000Y-130891800D01*
X121099398Y-130904052D01*
X121097598Y-130916186D01*
X121094618Y-130928086D01*
X121090485Y-130939635D01*
X121085240Y-130950725D01*
X121078934Y-130961246D01*
X121071626Y-130971099D01*
X121063388Y-130980188D01*
X121054299Y-130988426D01*
X121044446Y-130995734D01*
X121033925Y-131002040D01*
X121022835Y-131007285D01*
X121011286Y-131011418D01*
X120999386Y-131014398D01*
X120987252Y-131016198D01*
X120975000Y-131016800D01*
X120725000Y-131016800D01*
X120712748Y-131016198D01*
X120700614Y-131014398D01*
X120688714Y-131011418D01*
X120677165Y-131007285D01*
X120666075Y-131002040D01*
X120655554Y-130995734D01*
X120645701Y-130988426D01*
X120636612Y-130980188D01*
X120628374Y-130971099D01*
X120621066Y-130961246D01*
X120614760Y-130950725D01*
X120609515Y-130939635D01*
X120605382Y-130928086D01*
X120602402Y-130916186D01*
X120600602Y-130904052D01*
X120600000Y-130891800D01*
X120600000Y-129641800D01*
X120600602Y-129629548D01*
X120602402Y-129617414D01*
X120605382Y-129605514D01*
X120609515Y-129593965D01*
X120614760Y-129582875D01*
X120621066Y-129572354D01*
X120628374Y-129562501D01*
X120636612Y-129553412D01*
X120645701Y-129545174D01*
X120655554Y-129537866D01*
X120666075Y-129531560D01*
X120677165Y-129526315D01*
X120688714Y-129522182D01*
X120700614Y-129519202D01*
X120712748Y-129517402D01*
X120725000Y-129516800D01*
X120975000Y-129516800D01*
X120987252Y-129517402D01*
X120987252Y-129517402D01*
G37*
D15*
X120850000Y-130266800D03*
D12*
G36*
X120187252Y-129517402D02*
G01*
X120199386Y-129519202D01*
X120211286Y-129522182D01*
X120222835Y-129526315D01*
X120233925Y-129531560D01*
X120244446Y-129537866D01*
X120254299Y-129545174D01*
X120263388Y-129553412D01*
X120271626Y-129562501D01*
X120278934Y-129572354D01*
X120285240Y-129582875D01*
X120290485Y-129593965D01*
X120294618Y-129605514D01*
X120297598Y-129617414D01*
X120299398Y-129629548D01*
X120300000Y-129641800D01*
X120300000Y-130891800D01*
X120299398Y-130904052D01*
X120297598Y-130916186D01*
X120294618Y-130928086D01*
X120290485Y-130939635D01*
X120285240Y-130950725D01*
X120278934Y-130961246D01*
X120271626Y-130971099D01*
X120263388Y-130980188D01*
X120254299Y-130988426D01*
X120244446Y-130995734D01*
X120233925Y-131002040D01*
X120222835Y-131007285D01*
X120211286Y-131011418D01*
X120199386Y-131014398D01*
X120187252Y-131016198D01*
X120175000Y-131016800D01*
X119925000Y-131016800D01*
X119912748Y-131016198D01*
X119900614Y-131014398D01*
X119888714Y-131011418D01*
X119877165Y-131007285D01*
X119866075Y-131002040D01*
X119855554Y-130995734D01*
X119845701Y-130988426D01*
X119836612Y-130980188D01*
X119828374Y-130971099D01*
X119821066Y-130961246D01*
X119814760Y-130950725D01*
X119809515Y-130939635D01*
X119805382Y-130928086D01*
X119802402Y-130916186D01*
X119800602Y-130904052D01*
X119800000Y-130891800D01*
X119800000Y-129641800D01*
X119800602Y-129629548D01*
X119802402Y-129617414D01*
X119805382Y-129605514D01*
X119809515Y-129593965D01*
X119814760Y-129582875D01*
X119821066Y-129572354D01*
X119828374Y-129562501D01*
X119836612Y-129553412D01*
X119845701Y-129545174D01*
X119855554Y-129537866D01*
X119866075Y-129531560D01*
X119877165Y-129526315D01*
X119888714Y-129522182D01*
X119900614Y-129519202D01*
X119912748Y-129517402D01*
X119925000Y-129516800D01*
X120175000Y-129516800D01*
X120187252Y-129517402D01*
X120187252Y-129517402D01*
G37*
D15*
X120050000Y-130266800D03*
D12*
G36*
X119312252Y-128642402D02*
G01*
X119324386Y-128644202D01*
X119336286Y-128647182D01*
X119347835Y-128651315D01*
X119358925Y-128656560D01*
X119369446Y-128662866D01*
X119379299Y-128670174D01*
X119388388Y-128678412D01*
X119396626Y-128687501D01*
X119403934Y-128697354D01*
X119410240Y-128707875D01*
X119415485Y-128718965D01*
X119419618Y-128730514D01*
X119422598Y-128742414D01*
X119424398Y-128754548D01*
X119425000Y-128766800D01*
X119425000Y-129016800D01*
X119424398Y-129029052D01*
X119422598Y-129041186D01*
X119419618Y-129053086D01*
X119415485Y-129064635D01*
X119410240Y-129075725D01*
X119403934Y-129086246D01*
X119396626Y-129096099D01*
X119388388Y-129105188D01*
X119379299Y-129113426D01*
X119369446Y-129120734D01*
X119358925Y-129127040D01*
X119347835Y-129132285D01*
X119336286Y-129136418D01*
X119324386Y-129139398D01*
X119312252Y-129141198D01*
X119300000Y-129141800D01*
X118050000Y-129141800D01*
X118037748Y-129141198D01*
X118025614Y-129139398D01*
X118013714Y-129136418D01*
X118002165Y-129132285D01*
X117991075Y-129127040D01*
X117980554Y-129120734D01*
X117970701Y-129113426D01*
X117961612Y-129105188D01*
X117953374Y-129096099D01*
X117946066Y-129086246D01*
X117939760Y-129075725D01*
X117934515Y-129064635D01*
X117930382Y-129053086D01*
X117927402Y-129041186D01*
X117925602Y-129029052D01*
X117925000Y-129016800D01*
X117925000Y-128766800D01*
X117925602Y-128754548D01*
X117927402Y-128742414D01*
X117930382Y-128730514D01*
X117934515Y-128718965D01*
X117939760Y-128707875D01*
X117946066Y-128697354D01*
X117953374Y-128687501D01*
X117961612Y-128678412D01*
X117970701Y-128670174D01*
X117980554Y-128662866D01*
X117991075Y-128656560D01*
X118002165Y-128651315D01*
X118013714Y-128647182D01*
X118025614Y-128644202D01*
X118037748Y-128642402D01*
X118050000Y-128641800D01*
X119300000Y-128641800D01*
X119312252Y-128642402D01*
X119312252Y-128642402D01*
G37*
D15*
X118675000Y-128891800D03*
D12*
G36*
X119312252Y-127842402D02*
G01*
X119324386Y-127844202D01*
X119336286Y-127847182D01*
X119347835Y-127851315D01*
X119358925Y-127856560D01*
X119369446Y-127862866D01*
X119379299Y-127870174D01*
X119388388Y-127878412D01*
X119396626Y-127887501D01*
X119403934Y-127897354D01*
X119410240Y-127907875D01*
X119415485Y-127918965D01*
X119419618Y-127930514D01*
X119422598Y-127942414D01*
X119424398Y-127954548D01*
X119425000Y-127966800D01*
X119425000Y-128216800D01*
X119424398Y-128229052D01*
X119422598Y-128241186D01*
X119419618Y-128253086D01*
X119415485Y-128264635D01*
X119410240Y-128275725D01*
X119403934Y-128286246D01*
X119396626Y-128296099D01*
X119388388Y-128305188D01*
X119379299Y-128313426D01*
X119369446Y-128320734D01*
X119358925Y-128327040D01*
X119347835Y-128332285D01*
X119336286Y-128336418D01*
X119324386Y-128339398D01*
X119312252Y-128341198D01*
X119300000Y-128341800D01*
X118050000Y-128341800D01*
X118037748Y-128341198D01*
X118025614Y-128339398D01*
X118013714Y-128336418D01*
X118002165Y-128332285D01*
X117991075Y-128327040D01*
X117980554Y-128320734D01*
X117970701Y-128313426D01*
X117961612Y-128305188D01*
X117953374Y-128296099D01*
X117946066Y-128286246D01*
X117939760Y-128275725D01*
X117934515Y-128264635D01*
X117930382Y-128253086D01*
X117927402Y-128241186D01*
X117925602Y-128229052D01*
X117925000Y-128216800D01*
X117925000Y-127966800D01*
X117925602Y-127954548D01*
X117927402Y-127942414D01*
X117930382Y-127930514D01*
X117934515Y-127918965D01*
X117939760Y-127907875D01*
X117946066Y-127897354D01*
X117953374Y-127887501D01*
X117961612Y-127878412D01*
X117970701Y-127870174D01*
X117980554Y-127862866D01*
X117991075Y-127856560D01*
X118002165Y-127851315D01*
X118013714Y-127847182D01*
X118025614Y-127844202D01*
X118037748Y-127842402D01*
X118050000Y-127841800D01*
X119300000Y-127841800D01*
X119312252Y-127842402D01*
X119312252Y-127842402D01*
G37*
D15*
X118675000Y-128091800D03*
D12*
G36*
X119312252Y-127042402D02*
G01*
X119324386Y-127044202D01*
X119336286Y-127047182D01*
X119347835Y-127051315D01*
X119358925Y-127056560D01*
X119369446Y-127062866D01*
X119379299Y-127070174D01*
X119388388Y-127078412D01*
X119396626Y-127087501D01*
X119403934Y-127097354D01*
X119410240Y-127107875D01*
X119415485Y-127118965D01*
X119419618Y-127130514D01*
X119422598Y-127142414D01*
X119424398Y-127154548D01*
X119425000Y-127166800D01*
X119425000Y-127416800D01*
X119424398Y-127429052D01*
X119422598Y-127441186D01*
X119419618Y-127453086D01*
X119415485Y-127464635D01*
X119410240Y-127475725D01*
X119403934Y-127486246D01*
X119396626Y-127496099D01*
X119388388Y-127505188D01*
X119379299Y-127513426D01*
X119369446Y-127520734D01*
X119358925Y-127527040D01*
X119347835Y-127532285D01*
X119336286Y-127536418D01*
X119324386Y-127539398D01*
X119312252Y-127541198D01*
X119300000Y-127541800D01*
X118050000Y-127541800D01*
X118037748Y-127541198D01*
X118025614Y-127539398D01*
X118013714Y-127536418D01*
X118002165Y-127532285D01*
X117991075Y-127527040D01*
X117980554Y-127520734D01*
X117970701Y-127513426D01*
X117961612Y-127505188D01*
X117953374Y-127496099D01*
X117946066Y-127486246D01*
X117939760Y-127475725D01*
X117934515Y-127464635D01*
X117930382Y-127453086D01*
X117927402Y-127441186D01*
X117925602Y-127429052D01*
X117925000Y-127416800D01*
X117925000Y-127166800D01*
X117925602Y-127154548D01*
X117927402Y-127142414D01*
X117930382Y-127130514D01*
X117934515Y-127118965D01*
X117939760Y-127107875D01*
X117946066Y-127097354D01*
X117953374Y-127087501D01*
X117961612Y-127078412D01*
X117970701Y-127070174D01*
X117980554Y-127062866D01*
X117991075Y-127056560D01*
X118002165Y-127051315D01*
X118013714Y-127047182D01*
X118025614Y-127044202D01*
X118037748Y-127042402D01*
X118050000Y-127041800D01*
X119300000Y-127041800D01*
X119312252Y-127042402D01*
X119312252Y-127042402D01*
G37*
D15*
X118675000Y-127291800D03*
D12*
G36*
X119312252Y-126242402D02*
G01*
X119324386Y-126244202D01*
X119336286Y-126247182D01*
X119347835Y-126251315D01*
X119358925Y-126256560D01*
X119369446Y-126262866D01*
X119379299Y-126270174D01*
X119388388Y-126278412D01*
X119396626Y-126287501D01*
X119403934Y-126297354D01*
X119410240Y-126307875D01*
X119415485Y-126318965D01*
X119419618Y-126330514D01*
X119422598Y-126342414D01*
X119424398Y-126354548D01*
X119425000Y-126366800D01*
X119425000Y-126616800D01*
X119424398Y-126629052D01*
X119422598Y-126641186D01*
X119419618Y-126653086D01*
X119415485Y-126664635D01*
X119410240Y-126675725D01*
X119403934Y-126686246D01*
X119396626Y-126696099D01*
X119388388Y-126705188D01*
X119379299Y-126713426D01*
X119369446Y-126720734D01*
X119358925Y-126727040D01*
X119347835Y-126732285D01*
X119336286Y-126736418D01*
X119324386Y-126739398D01*
X119312252Y-126741198D01*
X119300000Y-126741800D01*
X118050000Y-126741800D01*
X118037748Y-126741198D01*
X118025614Y-126739398D01*
X118013714Y-126736418D01*
X118002165Y-126732285D01*
X117991075Y-126727040D01*
X117980554Y-126720734D01*
X117970701Y-126713426D01*
X117961612Y-126705188D01*
X117953374Y-126696099D01*
X117946066Y-126686246D01*
X117939760Y-126675725D01*
X117934515Y-126664635D01*
X117930382Y-126653086D01*
X117927402Y-126641186D01*
X117925602Y-126629052D01*
X117925000Y-126616800D01*
X117925000Y-126366800D01*
X117925602Y-126354548D01*
X117927402Y-126342414D01*
X117930382Y-126330514D01*
X117934515Y-126318965D01*
X117939760Y-126307875D01*
X117946066Y-126297354D01*
X117953374Y-126287501D01*
X117961612Y-126278412D01*
X117970701Y-126270174D01*
X117980554Y-126262866D01*
X117991075Y-126256560D01*
X118002165Y-126251315D01*
X118013714Y-126247182D01*
X118025614Y-126244202D01*
X118037748Y-126242402D01*
X118050000Y-126241800D01*
X119300000Y-126241800D01*
X119312252Y-126242402D01*
X119312252Y-126242402D01*
G37*
D15*
X118675000Y-126491800D03*
D12*
G36*
X119312252Y-125442402D02*
G01*
X119324386Y-125444202D01*
X119336286Y-125447182D01*
X119347835Y-125451315D01*
X119358925Y-125456560D01*
X119369446Y-125462866D01*
X119379299Y-125470174D01*
X119388388Y-125478412D01*
X119396626Y-125487501D01*
X119403934Y-125497354D01*
X119410240Y-125507875D01*
X119415485Y-125518965D01*
X119419618Y-125530514D01*
X119422598Y-125542414D01*
X119424398Y-125554548D01*
X119425000Y-125566800D01*
X119425000Y-125816800D01*
X119424398Y-125829052D01*
X119422598Y-125841186D01*
X119419618Y-125853086D01*
X119415485Y-125864635D01*
X119410240Y-125875725D01*
X119403934Y-125886246D01*
X119396626Y-125896099D01*
X119388388Y-125905188D01*
X119379299Y-125913426D01*
X119369446Y-125920734D01*
X119358925Y-125927040D01*
X119347835Y-125932285D01*
X119336286Y-125936418D01*
X119324386Y-125939398D01*
X119312252Y-125941198D01*
X119300000Y-125941800D01*
X118050000Y-125941800D01*
X118037748Y-125941198D01*
X118025614Y-125939398D01*
X118013714Y-125936418D01*
X118002165Y-125932285D01*
X117991075Y-125927040D01*
X117980554Y-125920734D01*
X117970701Y-125913426D01*
X117961612Y-125905188D01*
X117953374Y-125896099D01*
X117946066Y-125886246D01*
X117939760Y-125875725D01*
X117934515Y-125864635D01*
X117930382Y-125853086D01*
X117927402Y-125841186D01*
X117925602Y-125829052D01*
X117925000Y-125816800D01*
X117925000Y-125566800D01*
X117925602Y-125554548D01*
X117927402Y-125542414D01*
X117930382Y-125530514D01*
X117934515Y-125518965D01*
X117939760Y-125507875D01*
X117946066Y-125497354D01*
X117953374Y-125487501D01*
X117961612Y-125478412D01*
X117970701Y-125470174D01*
X117980554Y-125462866D01*
X117991075Y-125456560D01*
X118002165Y-125451315D01*
X118013714Y-125447182D01*
X118025614Y-125444202D01*
X118037748Y-125442402D01*
X118050000Y-125441800D01*
X119300000Y-125441800D01*
X119312252Y-125442402D01*
X119312252Y-125442402D01*
G37*
D15*
X118675000Y-125691800D03*
D12*
G36*
X119312252Y-124642402D02*
G01*
X119324386Y-124644202D01*
X119336286Y-124647182D01*
X119347835Y-124651315D01*
X119358925Y-124656560D01*
X119369446Y-124662866D01*
X119379299Y-124670174D01*
X119388388Y-124678412D01*
X119396626Y-124687501D01*
X119403934Y-124697354D01*
X119410240Y-124707875D01*
X119415485Y-124718965D01*
X119419618Y-124730514D01*
X119422598Y-124742414D01*
X119424398Y-124754548D01*
X119425000Y-124766800D01*
X119425000Y-125016800D01*
X119424398Y-125029052D01*
X119422598Y-125041186D01*
X119419618Y-125053086D01*
X119415485Y-125064635D01*
X119410240Y-125075725D01*
X119403934Y-125086246D01*
X119396626Y-125096099D01*
X119388388Y-125105188D01*
X119379299Y-125113426D01*
X119369446Y-125120734D01*
X119358925Y-125127040D01*
X119347835Y-125132285D01*
X119336286Y-125136418D01*
X119324386Y-125139398D01*
X119312252Y-125141198D01*
X119300000Y-125141800D01*
X118050000Y-125141800D01*
X118037748Y-125141198D01*
X118025614Y-125139398D01*
X118013714Y-125136418D01*
X118002165Y-125132285D01*
X117991075Y-125127040D01*
X117980554Y-125120734D01*
X117970701Y-125113426D01*
X117961612Y-125105188D01*
X117953374Y-125096099D01*
X117946066Y-125086246D01*
X117939760Y-125075725D01*
X117934515Y-125064635D01*
X117930382Y-125053086D01*
X117927402Y-125041186D01*
X117925602Y-125029052D01*
X117925000Y-125016800D01*
X117925000Y-124766800D01*
X117925602Y-124754548D01*
X117927402Y-124742414D01*
X117930382Y-124730514D01*
X117934515Y-124718965D01*
X117939760Y-124707875D01*
X117946066Y-124697354D01*
X117953374Y-124687501D01*
X117961612Y-124678412D01*
X117970701Y-124670174D01*
X117980554Y-124662866D01*
X117991075Y-124656560D01*
X118002165Y-124651315D01*
X118013714Y-124647182D01*
X118025614Y-124644202D01*
X118037748Y-124642402D01*
X118050000Y-124641800D01*
X119300000Y-124641800D01*
X119312252Y-124642402D01*
X119312252Y-124642402D01*
G37*
D15*
X118675000Y-124891800D03*
D12*
G36*
X119312252Y-123842402D02*
G01*
X119324386Y-123844202D01*
X119336286Y-123847182D01*
X119347835Y-123851315D01*
X119358925Y-123856560D01*
X119369446Y-123862866D01*
X119379299Y-123870174D01*
X119388388Y-123878412D01*
X119396626Y-123887501D01*
X119403934Y-123897354D01*
X119410240Y-123907875D01*
X119415485Y-123918965D01*
X119419618Y-123930514D01*
X119422598Y-123942414D01*
X119424398Y-123954548D01*
X119425000Y-123966800D01*
X119425000Y-124216800D01*
X119424398Y-124229052D01*
X119422598Y-124241186D01*
X119419618Y-124253086D01*
X119415485Y-124264635D01*
X119410240Y-124275725D01*
X119403934Y-124286246D01*
X119396626Y-124296099D01*
X119388388Y-124305188D01*
X119379299Y-124313426D01*
X119369446Y-124320734D01*
X119358925Y-124327040D01*
X119347835Y-124332285D01*
X119336286Y-124336418D01*
X119324386Y-124339398D01*
X119312252Y-124341198D01*
X119300000Y-124341800D01*
X118050000Y-124341800D01*
X118037748Y-124341198D01*
X118025614Y-124339398D01*
X118013714Y-124336418D01*
X118002165Y-124332285D01*
X117991075Y-124327040D01*
X117980554Y-124320734D01*
X117970701Y-124313426D01*
X117961612Y-124305188D01*
X117953374Y-124296099D01*
X117946066Y-124286246D01*
X117939760Y-124275725D01*
X117934515Y-124264635D01*
X117930382Y-124253086D01*
X117927402Y-124241186D01*
X117925602Y-124229052D01*
X117925000Y-124216800D01*
X117925000Y-123966800D01*
X117925602Y-123954548D01*
X117927402Y-123942414D01*
X117930382Y-123930514D01*
X117934515Y-123918965D01*
X117939760Y-123907875D01*
X117946066Y-123897354D01*
X117953374Y-123887501D01*
X117961612Y-123878412D01*
X117970701Y-123870174D01*
X117980554Y-123862866D01*
X117991075Y-123856560D01*
X118002165Y-123851315D01*
X118013714Y-123847182D01*
X118025614Y-123844202D01*
X118037748Y-123842402D01*
X118050000Y-123841800D01*
X119300000Y-123841800D01*
X119312252Y-123842402D01*
X119312252Y-123842402D01*
G37*
D15*
X118675000Y-124091800D03*
D12*
G36*
X119312252Y-123042402D02*
G01*
X119324386Y-123044202D01*
X119336286Y-123047182D01*
X119347835Y-123051315D01*
X119358925Y-123056560D01*
X119369446Y-123062866D01*
X119379299Y-123070174D01*
X119388388Y-123078412D01*
X119396626Y-123087501D01*
X119403934Y-123097354D01*
X119410240Y-123107875D01*
X119415485Y-123118965D01*
X119419618Y-123130514D01*
X119422598Y-123142414D01*
X119424398Y-123154548D01*
X119425000Y-123166800D01*
X119425000Y-123416800D01*
X119424398Y-123429052D01*
X119422598Y-123441186D01*
X119419618Y-123453086D01*
X119415485Y-123464635D01*
X119410240Y-123475725D01*
X119403934Y-123486246D01*
X119396626Y-123496099D01*
X119388388Y-123505188D01*
X119379299Y-123513426D01*
X119369446Y-123520734D01*
X119358925Y-123527040D01*
X119347835Y-123532285D01*
X119336286Y-123536418D01*
X119324386Y-123539398D01*
X119312252Y-123541198D01*
X119300000Y-123541800D01*
X118050000Y-123541800D01*
X118037748Y-123541198D01*
X118025614Y-123539398D01*
X118013714Y-123536418D01*
X118002165Y-123532285D01*
X117991075Y-123527040D01*
X117980554Y-123520734D01*
X117970701Y-123513426D01*
X117961612Y-123505188D01*
X117953374Y-123496099D01*
X117946066Y-123486246D01*
X117939760Y-123475725D01*
X117934515Y-123464635D01*
X117930382Y-123453086D01*
X117927402Y-123441186D01*
X117925602Y-123429052D01*
X117925000Y-123416800D01*
X117925000Y-123166800D01*
X117925602Y-123154548D01*
X117927402Y-123142414D01*
X117930382Y-123130514D01*
X117934515Y-123118965D01*
X117939760Y-123107875D01*
X117946066Y-123097354D01*
X117953374Y-123087501D01*
X117961612Y-123078412D01*
X117970701Y-123070174D01*
X117980554Y-123062866D01*
X117991075Y-123056560D01*
X118002165Y-123051315D01*
X118013714Y-123047182D01*
X118025614Y-123044202D01*
X118037748Y-123042402D01*
X118050000Y-123041800D01*
X119300000Y-123041800D01*
X119312252Y-123042402D01*
X119312252Y-123042402D01*
G37*
D15*
X118675000Y-123291800D03*
D12*
G36*
X120187252Y-121167402D02*
G01*
X120199386Y-121169202D01*
X120211286Y-121172182D01*
X120222835Y-121176315D01*
X120233925Y-121181560D01*
X120244446Y-121187866D01*
X120254299Y-121195174D01*
X120263388Y-121203412D01*
X120271626Y-121212501D01*
X120278934Y-121222354D01*
X120285240Y-121232875D01*
X120290485Y-121243965D01*
X120294618Y-121255514D01*
X120297598Y-121267414D01*
X120299398Y-121279548D01*
X120300000Y-121291800D01*
X120300000Y-122541800D01*
X120299398Y-122554052D01*
X120297598Y-122566186D01*
X120294618Y-122578086D01*
X120290485Y-122589635D01*
X120285240Y-122600725D01*
X120278934Y-122611246D01*
X120271626Y-122621099D01*
X120263388Y-122630188D01*
X120254299Y-122638426D01*
X120244446Y-122645734D01*
X120233925Y-122652040D01*
X120222835Y-122657285D01*
X120211286Y-122661418D01*
X120199386Y-122664398D01*
X120187252Y-122666198D01*
X120175000Y-122666800D01*
X119925000Y-122666800D01*
X119912748Y-122666198D01*
X119900614Y-122664398D01*
X119888714Y-122661418D01*
X119877165Y-122657285D01*
X119866075Y-122652040D01*
X119855554Y-122645734D01*
X119845701Y-122638426D01*
X119836612Y-122630188D01*
X119828374Y-122621099D01*
X119821066Y-122611246D01*
X119814760Y-122600725D01*
X119809515Y-122589635D01*
X119805382Y-122578086D01*
X119802402Y-122566186D01*
X119800602Y-122554052D01*
X119800000Y-122541800D01*
X119800000Y-121291800D01*
X119800602Y-121279548D01*
X119802402Y-121267414D01*
X119805382Y-121255514D01*
X119809515Y-121243965D01*
X119814760Y-121232875D01*
X119821066Y-121222354D01*
X119828374Y-121212501D01*
X119836612Y-121203412D01*
X119845701Y-121195174D01*
X119855554Y-121187866D01*
X119866075Y-121181560D01*
X119877165Y-121176315D01*
X119888714Y-121172182D01*
X119900614Y-121169202D01*
X119912748Y-121167402D01*
X119925000Y-121166800D01*
X120175000Y-121166800D01*
X120187252Y-121167402D01*
X120187252Y-121167402D01*
G37*
D15*
X120050000Y-121916800D03*
D12*
G36*
X120987252Y-121167402D02*
G01*
X120999386Y-121169202D01*
X121011286Y-121172182D01*
X121022835Y-121176315D01*
X121033925Y-121181560D01*
X121044446Y-121187866D01*
X121054299Y-121195174D01*
X121063388Y-121203412D01*
X121071626Y-121212501D01*
X121078934Y-121222354D01*
X121085240Y-121232875D01*
X121090485Y-121243965D01*
X121094618Y-121255514D01*
X121097598Y-121267414D01*
X121099398Y-121279548D01*
X121100000Y-121291800D01*
X121100000Y-122541800D01*
X121099398Y-122554052D01*
X121097598Y-122566186D01*
X121094618Y-122578086D01*
X121090485Y-122589635D01*
X121085240Y-122600725D01*
X121078934Y-122611246D01*
X121071626Y-122621099D01*
X121063388Y-122630188D01*
X121054299Y-122638426D01*
X121044446Y-122645734D01*
X121033925Y-122652040D01*
X121022835Y-122657285D01*
X121011286Y-122661418D01*
X120999386Y-122664398D01*
X120987252Y-122666198D01*
X120975000Y-122666800D01*
X120725000Y-122666800D01*
X120712748Y-122666198D01*
X120700614Y-122664398D01*
X120688714Y-122661418D01*
X120677165Y-122657285D01*
X120666075Y-122652040D01*
X120655554Y-122645734D01*
X120645701Y-122638426D01*
X120636612Y-122630188D01*
X120628374Y-122621099D01*
X120621066Y-122611246D01*
X120614760Y-122600725D01*
X120609515Y-122589635D01*
X120605382Y-122578086D01*
X120602402Y-122566186D01*
X120600602Y-122554052D01*
X120600000Y-122541800D01*
X120600000Y-121291800D01*
X120600602Y-121279548D01*
X120602402Y-121267414D01*
X120605382Y-121255514D01*
X120609515Y-121243965D01*
X120614760Y-121232875D01*
X120621066Y-121222354D01*
X120628374Y-121212501D01*
X120636612Y-121203412D01*
X120645701Y-121195174D01*
X120655554Y-121187866D01*
X120666075Y-121181560D01*
X120677165Y-121176315D01*
X120688714Y-121172182D01*
X120700614Y-121169202D01*
X120712748Y-121167402D01*
X120725000Y-121166800D01*
X120975000Y-121166800D01*
X120987252Y-121167402D01*
X120987252Y-121167402D01*
G37*
D15*
X120850000Y-121916800D03*
D12*
G36*
X121787252Y-121167402D02*
G01*
X121799386Y-121169202D01*
X121811286Y-121172182D01*
X121822835Y-121176315D01*
X121833925Y-121181560D01*
X121844446Y-121187866D01*
X121854299Y-121195174D01*
X121863388Y-121203412D01*
X121871626Y-121212501D01*
X121878934Y-121222354D01*
X121885240Y-121232875D01*
X121890485Y-121243965D01*
X121894618Y-121255514D01*
X121897598Y-121267414D01*
X121899398Y-121279548D01*
X121900000Y-121291800D01*
X121900000Y-122541800D01*
X121899398Y-122554052D01*
X121897598Y-122566186D01*
X121894618Y-122578086D01*
X121890485Y-122589635D01*
X121885240Y-122600725D01*
X121878934Y-122611246D01*
X121871626Y-122621099D01*
X121863388Y-122630188D01*
X121854299Y-122638426D01*
X121844446Y-122645734D01*
X121833925Y-122652040D01*
X121822835Y-122657285D01*
X121811286Y-122661418D01*
X121799386Y-122664398D01*
X121787252Y-122666198D01*
X121775000Y-122666800D01*
X121525000Y-122666800D01*
X121512748Y-122666198D01*
X121500614Y-122664398D01*
X121488714Y-122661418D01*
X121477165Y-122657285D01*
X121466075Y-122652040D01*
X121455554Y-122645734D01*
X121445701Y-122638426D01*
X121436612Y-122630188D01*
X121428374Y-122621099D01*
X121421066Y-122611246D01*
X121414760Y-122600725D01*
X121409515Y-122589635D01*
X121405382Y-122578086D01*
X121402402Y-122566186D01*
X121400602Y-122554052D01*
X121400000Y-122541800D01*
X121400000Y-121291800D01*
X121400602Y-121279548D01*
X121402402Y-121267414D01*
X121405382Y-121255514D01*
X121409515Y-121243965D01*
X121414760Y-121232875D01*
X121421066Y-121222354D01*
X121428374Y-121212501D01*
X121436612Y-121203412D01*
X121445701Y-121195174D01*
X121455554Y-121187866D01*
X121466075Y-121181560D01*
X121477165Y-121176315D01*
X121488714Y-121172182D01*
X121500614Y-121169202D01*
X121512748Y-121167402D01*
X121525000Y-121166800D01*
X121775000Y-121166800D01*
X121787252Y-121167402D01*
X121787252Y-121167402D01*
G37*
D15*
X121650000Y-121916800D03*
D12*
G36*
X122587252Y-121167402D02*
G01*
X122599386Y-121169202D01*
X122611286Y-121172182D01*
X122622835Y-121176315D01*
X122633925Y-121181560D01*
X122644446Y-121187866D01*
X122654299Y-121195174D01*
X122663388Y-121203412D01*
X122671626Y-121212501D01*
X122678934Y-121222354D01*
X122685240Y-121232875D01*
X122690485Y-121243965D01*
X122694618Y-121255514D01*
X122697598Y-121267414D01*
X122699398Y-121279548D01*
X122700000Y-121291800D01*
X122700000Y-122541800D01*
X122699398Y-122554052D01*
X122697598Y-122566186D01*
X122694618Y-122578086D01*
X122690485Y-122589635D01*
X122685240Y-122600725D01*
X122678934Y-122611246D01*
X122671626Y-122621099D01*
X122663388Y-122630188D01*
X122654299Y-122638426D01*
X122644446Y-122645734D01*
X122633925Y-122652040D01*
X122622835Y-122657285D01*
X122611286Y-122661418D01*
X122599386Y-122664398D01*
X122587252Y-122666198D01*
X122575000Y-122666800D01*
X122325000Y-122666800D01*
X122312748Y-122666198D01*
X122300614Y-122664398D01*
X122288714Y-122661418D01*
X122277165Y-122657285D01*
X122266075Y-122652040D01*
X122255554Y-122645734D01*
X122245701Y-122638426D01*
X122236612Y-122630188D01*
X122228374Y-122621099D01*
X122221066Y-122611246D01*
X122214760Y-122600725D01*
X122209515Y-122589635D01*
X122205382Y-122578086D01*
X122202402Y-122566186D01*
X122200602Y-122554052D01*
X122200000Y-122541800D01*
X122200000Y-121291800D01*
X122200602Y-121279548D01*
X122202402Y-121267414D01*
X122205382Y-121255514D01*
X122209515Y-121243965D01*
X122214760Y-121232875D01*
X122221066Y-121222354D01*
X122228374Y-121212501D01*
X122236612Y-121203412D01*
X122245701Y-121195174D01*
X122255554Y-121187866D01*
X122266075Y-121181560D01*
X122277165Y-121176315D01*
X122288714Y-121172182D01*
X122300614Y-121169202D01*
X122312748Y-121167402D01*
X122325000Y-121166800D01*
X122575000Y-121166800D01*
X122587252Y-121167402D01*
X122587252Y-121167402D01*
G37*
D15*
X122450000Y-121916800D03*
D12*
G36*
X123387252Y-121167402D02*
G01*
X123399386Y-121169202D01*
X123411286Y-121172182D01*
X123422835Y-121176315D01*
X123433925Y-121181560D01*
X123444446Y-121187866D01*
X123454299Y-121195174D01*
X123463388Y-121203412D01*
X123471626Y-121212501D01*
X123478934Y-121222354D01*
X123485240Y-121232875D01*
X123490485Y-121243965D01*
X123494618Y-121255514D01*
X123497598Y-121267414D01*
X123499398Y-121279548D01*
X123500000Y-121291800D01*
X123500000Y-122541800D01*
X123499398Y-122554052D01*
X123497598Y-122566186D01*
X123494618Y-122578086D01*
X123490485Y-122589635D01*
X123485240Y-122600725D01*
X123478934Y-122611246D01*
X123471626Y-122621099D01*
X123463388Y-122630188D01*
X123454299Y-122638426D01*
X123444446Y-122645734D01*
X123433925Y-122652040D01*
X123422835Y-122657285D01*
X123411286Y-122661418D01*
X123399386Y-122664398D01*
X123387252Y-122666198D01*
X123375000Y-122666800D01*
X123125000Y-122666800D01*
X123112748Y-122666198D01*
X123100614Y-122664398D01*
X123088714Y-122661418D01*
X123077165Y-122657285D01*
X123066075Y-122652040D01*
X123055554Y-122645734D01*
X123045701Y-122638426D01*
X123036612Y-122630188D01*
X123028374Y-122621099D01*
X123021066Y-122611246D01*
X123014760Y-122600725D01*
X123009515Y-122589635D01*
X123005382Y-122578086D01*
X123002402Y-122566186D01*
X123000602Y-122554052D01*
X123000000Y-122541800D01*
X123000000Y-121291800D01*
X123000602Y-121279548D01*
X123002402Y-121267414D01*
X123005382Y-121255514D01*
X123009515Y-121243965D01*
X123014760Y-121232875D01*
X123021066Y-121222354D01*
X123028374Y-121212501D01*
X123036612Y-121203412D01*
X123045701Y-121195174D01*
X123055554Y-121187866D01*
X123066075Y-121181560D01*
X123077165Y-121176315D01*
X123088714Y-121172182D01*
X123100614Y-121169202D01*
X123112748Y-121167402D01*
X123125000Y-121166800D01*
X123375000Y-121166800D01*
X123387252Y-121167402D01*
X123387252Y-121167402D01*
G37*
D15*
X123250000Y-121916800D03*
D12*
G36*
X124187252Y-121167402D02*
G01*
X124199386Y-121169202D01*
X124211286Y-121172182D01*
X124222835Y-121176315D01*
X124233925Y-121181560D01*
X124244446Y-121187866D01*
X124254299Y-121195174D01*
X124263388Y-121203412D01*
X124271626Y-121212501D01*
X124278934Y-121222354D01*
X124285240Y-121232875D01*
X124290485Y-121243965D01*
X124294618Y-121255514D01*
X124297598Y-121267414D01*
X124299398Y-121279548D01*
X124300000Y-121291800D01*
X124300000Y-122541800D01*
X124299398Y-122554052D01*
X124297598Y-122566186D01*
X124294618Y-122578086D01*
X124290485Y-122589635D01*
X124285240Y-122600725D01*
X124278934Y-122611246D01*
X124271626Y-122621099D01*
X124263388Y-122630188D01*
X124254299Y-122638426D01*
X124244446Y-122645734D01*
X124233925Y-122652040D01*
X124222835Y-122657285D01*
X124211286Y-122661418D01*
X124199386Y-122664398D01*
X124187252Y-122666198D01*
X124175000Y-122666800D01*
X123925000Y-122666800D01*
X123912748Y-122666198D01*
X123900614Y-122664398D01*
X123888714Y-122661418D01*
X123877165Y-122657285D01*
X123866075Y-122652040D01*
X123855554Y-122645734D01*
X123845701Y-122638426D01*
X123836612Y-122630188D01*
X123828374Y-122621099D01*
X123821066Y-122611246D01*
X123814760Y-122600725D01*
X123809515Y-122589635D01*
X123805382Y-122578086D01*
X123802402Y-122566186D01*
X123800602Y-122554052D01*
X123800000Y-122541800D01*
X123800000Y-121291800D01*
X123800602Y-121279548D01*
X123802402Y-121267414D01*
X123805382Y-121255514D01*
X123809515Y-121243965D01*
X123814760Y-121232875D01*
X123821066Y-121222354D01*
X123828374Y-121212501D01*
X123836612Y-121203412D01*
X123845701Y-121195174D01*
X123855554Y-121187866D01*
X123866075Y-121181560D01*
X123877165Y-121176315D01*
X123888714Y-121172182D01*
X123900614Y-121169202D01*
X123912748Y-121167402D01*
X123925000Y-121166800D01*
X124175000Y-121166800D01*
X124187252Y-121167402D01*
X124187252Y-121167402D01*
G37*
D15*
X124050000Y-121916800D03*
D12*
G36*
X124987252Y-121167402D02*
G01*
X124999386Y-121169202D01*
X125011286Y-121172182D01*
X125022835Y-121176315D01*
X125033925Y-121181560D01*
X125044446Y-121187866D01*
X125054299Y-121195174D01*
X125063388Y-121203412D01*
X125071626Y-121212501D01*
X125078934Y-121222354D01*
X125085240Y-121232875D01*
X125090485Y-121243965D01*
X125094618Y-121255514D01*
X125097598Y-121267414D01*
X125099398Y-121279548D01*
X125100000Y-121291800D01*
X125100000Y-122541800D01*
X125099398Y-122554052D01*
X125097598Y-122566186D01*
X125094618Y-122578086D01*
X125090485Y-122589635D01*
X125085240Y-122600725D01*
X125078934Y-122611246D01*
X125071626Y-122621099D01*
X125063388Y-122630188D01*
X125054299Y-122638426D01*
X125044446Y-122645734D01*
X125033925Y-122652040D01*
X125022835Y-122657285D01*
X125011286Y-122661418D01*
X124999386Y-122664398D01*
X124987252Y-122666198D01*
X124975000Y-122666800D01*
X124725000Y-122666800D01*
X124712748Y-122666198D01*
X124700614Y-122664398D01*
X124688714Y-122661418D01*
X124677165Y-122657285D01*
X124666075Y-122652040D01*
X124655554Y-122645734D01*
X124645701Y-122638426D01*
X124636612Y-122630188D01*
X124628374Y-122621099D01*
X124621066Y-122611246D01*
X124614760Y-122600725D01*
X124609515Y-122589635D01*
X124605382Y-122578086D01*
X124602402Y-122566186D01*
X124600602Y-122554052D01*
X124600000Y-122541800D01*
X124600000Y-121291800D01*
X124600602Y-121279548D01*
X124602402Y-121267414D01*
X124605382Y-121255514D01*
X124609515Y-121243965D01*
X124614760Y-121232875D01*
X124621066Y-121222354D01*
X124628374Y-121212501D01*
X124636612Y-121203412D01*
X124645701Y-121195174D01*
X124655554Y-121187866D01*
X124666075Y-121181560D01*
X124677165Y-121176315D01*
X124688714Y-121172182D01*
X124700614Y-121169202D01*
X124712748Y-121167402D01*
X124725000Y-121166800D01*
X124975000Y-121166800D01*
X124987252Y-121167402D01*
X124987252Y-121167402D01*
G37*
D15*
X124850000Y-121916800D03*
D12*
G36*
X125787252Y-121167402D02*
G01*
X125799386Y-121169202D01*
X125811286Y-121172182D01*
X125822835Y-121176315D01*
X125833925Y-121181560D01*
X125844446Y-121187866D01*
X125854299Y-121195174D01*
X125863388Y-121203412D01*
X125871626Y-121212501D01*
X125878934Y-121222354D01*
X125885240Y-121232875D01*
X125890485Y-121243965D01*
X125894618Y-121255514D01*
X125897598Y-121267414D01*
X125899398Y-121279548D01*
X125900000Y-121291800D01*
X125900000Y-122541800D01*
X125899398Y-122554052D01*
X125897598Y-122566186D01*
X125894618Y-122578086D01*
X125890485Y-122589635D01*
X125885240Y-122600725D01*
X125878934Y-122611246D01*
X125871626Y-122621099D01*
X125863388Y-122630188D01*
X125854299Y-122638426D01*
X125844446Y-122645734D01*
X125833925Y-122652040D01*
X125822835Y-122657285D01*
X125811286Y-122661418D01*
X125799386Y-122664398D01*
X125787252Y-122666198D01*
X125775000Y-122666800D01*
X125525000Y-122666800D01*
X125512748Y-122666198D01*
X125500614Y-122664398D01*
X125488714Y-122661418D01*
X125477165Y-122657285D01*
X125466075Y-122652040D01*
X125455554Y-122645734D01*
X125445701Y-122638426D01*
X125436612Y-122630188D01*
X125428374Y-122621099D01*
X125421066Y-122611246D01*
X125414760Y-122600725D01*
X125409515Y-122589635D01*
X125405382Y-122578086D01*
X125402402Y-122566186D01*
X125400602Y-122554052D01*
X125400000Y-122541800D01*
X125400000Y-121291800D01*
X125400602Y-121279548D01*
X125402402Y-121267414D01*
X125405382Y-121255514D01*
X125409515Y-121243965D01*
X125414760Y-121232875D01*
X125421066Y-121222354D01*
X125428374Y-121212501D01*
X125436612Y-121203412D01*
X125445701Y-121195174D01*
X125455554Y-121187866D01*
X125466075Y-121181560D01*
X125477165Y-121176315D01*
X125488714Y-121172182D01*
X125500614Y-121169202D01*
X125512748Y-121167402D01*
X125525000Y-121166800D01*
X125775000Y-121166800D01*
X125787252Y-121167402D01*
X125787252Y-121167402D01*
G37*
D15*
X125650000Y-121916800D03*
D12*
G36*
X127662252Y-123042402D02*
G01*
X127674386Y-123044202D01*
X127686286Y-123047182D01*
X127697835Y-123051315D01*
X127708925Y-123056560D01*
X127719446Y-123062866D01*
X127729299Y-123070174D01*
X127738388Y-123078412D01*
X127746626Y-123087501D01*
X127753934Y-123097354D01*
X127760240Y-123107875D01*
X127765485Y-123118965D01*
X127769618Y-123130514D01*
X127772598Y-123142414D01*
X127774398Y-123154548D01*
X127775000Y-123166800D01*
X127775000Y-123416800D01*
X127774398Y-123429052D01*
X127772598Y-123441186D01*
X127769618Y-123453086D01*
X127765485Y-123464635D01*
X127760240Y-123475725D01*
X127753934Y-123486246D01*
X127746626Y-123496099D01*
X127738388Y-123505188D01*
X127729299Y-123513426D01*
X127719446Y-123520734D01*
X127708925Y-123527040D01*
X127697835Y-123532285D01*
X127686286Y-123536418D01*
X127674386Y-123539398D01*
X127662252Y-123541198D01*
X127650000Y-123541800D01*
X126400000Y-123541800D01*
X126387748Y-123541198D01*
X126375614Y-123539398D01*
X126363714Y-123536418D01*
X126352165Y-123532285D01*
X126341075Y-123527040D01*
X126330554Y-123520734D01*
X126320701Y-123513426D01*
X126311612Y-123505188D01*
X126303374Y-123496099D01*
X126296066Y-123486246D01*
X126289760Y-123475725D01*
X126284515Y-123464635D01*
X126280382Y-123453086D01*
X126277402Y-123441186D01*
X126275602Y-123429052D01*
X126275000Y-123416800D01*
X126275000Y-123166800D01*
X126275602Y-123154548D01*
X126277402Y-123142414D01*
X126280382Y-123130514D01*
X126284515Y-123118965D01*
X126289760Y-123107875D01*
X126296066Y-123097354D01*
X126303374Y-123087501D01*
X126311612Y-123078412D01*
X126320701Y-123070174D01*
X126330554Y-123062866D01*
X126341075Y-123056560D01*
X126352165Y-123051315D01*
X126363714Y-123047182D01*
X126375614Y-123044202D01*
X126387748Y-123042402D01*
X126400000Y-123041800D01*
X127650000Y-123041800D01*
X127662252Y-123042402D01*
X127662252Y-123042402D01*
G37*
D15*
X127025000Y-123291800D03*
D12*
G36*
X127662252Y-123842402D02*
G01*
X127674386Y-123844202D01*
X127686286Y-123847182D01*
X127697835Y-123851315D01*
X127708925Y-123856560D01*
X127719446Y-123862866D01*
X127729299Y-123870174D01*
X127738388Y-123878412D01*
X127746626Y-123887501D01*
X127753934Y-123897354D01*
X127760240Y-123907875D01*
X127765485Y-123918965D01*
X127769618Y-123930514D01*
X127772598Y-123942414D01*
X127774398Y-123954548D01*
X127775000Y-123966800D01*
X127775000Y-124216800D01*
X127774398Y-124229052D01*
X127772598Y-124241186D01*
X127769618Y-124253086D01*
X127765485Y-124264635D01*
X127760240Y-124275725D01*
X127753934Y-124286246D01*
X127746626Y-124296099D01*
X127738388Y-124305188D01*
X127729299Y-124313426D01*
X127719446Y-124320734D01*
X127708925Y-124327040D01*
X127697835Y-124332285D01*
X127686286Y-124336418D01*
X127674386Y-124339398D01*
X127662252Y-124341198D01*
X127650000Y-124341800D01*
X126400000Y-124341800D01*
X126387748Y-124341198D01*
X126375614Y-124339398D01*
X126363714Y-124336418D01*
X126352165Y-124332285D01*
X126341075Y-124327040D01*
X126330554Y-124320734D01*
X126320701Y-124313426D01*
X126311612Y-124305188D01*
X126303374Y-124296099D01*
X126296066Y-124286246D01*
X126289760Y-124275725D01*
X126284515Y-124264635D01*
X126280382Y-124253086D01*
X126277402Y-124241186D01*
X126275602Y-124229052D01*
X126275000Y-124216800D01*
X126275000Y-123966800D01*
X126275602Y-123954548D01*
X126277402Y-123942414D01*
X126280382Y-123930514D01*
X126284515Y-123918965D01*
X126289760Y-123907875D01*
X126296066Y-123897354D01*
X126303374Y-123887501D01*
X126311612Y-123878412D01*
X126320701Y-123870174D01*
X126330554Y-123862866D01*
X126341075Y-123856560D01*
X126352165Y-123851315D01*
X126363714Y-123847182D01*
X126375614Y-123844202D01*
X126387748Y-123842402D01*
X126400000Y-123841800D01*
X127650000Y-123841800D01*
X127662252Y-123842402D01*
X127662252Y-123842402D01*
G37*
D15*
X127025000Y-124091800D03*
D12*
G36*
X127662252Y-124642402D02*
G01*
X127674386Y-124644202D01*
X127686286Y-124647182D01*
X127697835Y-124651315D01*
X127708925Y-124656560D01*
X127719446Y-124662866D01*
X127729299Y-124670174D01*
X127738388Y-124678412D01*
X127746626Y-124687501D01*
X127753934Y-124697354D01*
X127760240Y-124707875D01*
X127765485Y-124718965D01*
X127769618Y-124730514D01*
X127772598Y-124742414D01*
X127774398Y-124754548D01*
X127775000Y-124766800D01*
X127775000Y-125016800D01*
X127774398Y-125029052D01*
X127772598Y-125041186D01*
X127769618Y-125053086D01*
X127765485Y-125064635D01*
X127760240Y-125075725D01*
X127753934Y-125086246D01*
X127746626Y-125096099D01*
X127738388Y-125105188D01*
X127729299Y-125113426D01*
X127719446Y-125120734D01*
X127708925Y-125127040D01*
X127697835Y-125132285D01*
X127686286Y-125136418D01*
X127674386Y-125139398D01*
X127662252Y-125141198D01*
X127650000Y-125141800D01*
X126400000Y-125141800D01*
X126387748Y-125141198D01*
X126375614Y-125139398D01*
X126363714Y-125136418D01*
X126352165Y-125132285D01*
X126341075Y-125127040D01*
X126330554Y-125120734D01*
X126320701Y-125113426D01*
X126311612Y-125105188D01*
X126303374Y-125096099D01*
X126296066Y-125086246D01*
X126289760Y-125075725D01*
X126284515Y-125064635D01*
X126280382Y-125053086D01*
X126277402Y-125041186D01*
X126275602Y-125029052D01*
X126275000Y-125016800D01*
X126275000Y-124766800D01*
X126275602Y-124754548D01*
X126277402Y-124742414D01*
X126280382Y-124730514D01*
X126284515Y-124718965D01*
X126289760Y-124707875D01*
X126296066Y-124697354D01*
X126303374Y-124687501D01*
X126311612Y-124678412D01*
X126320701Y-124670174D01*
X126330554Y-124662866D01*
X126341075Y-124656560D01*
X126352165Y-124651315D01*
X126363714Y-124647182D01*
X126375614Y-124644202D01*
X126387748Y-124642402D01*
X126400000Y-124641800D01*
X127650000Y-124641800D01*
X127662252Y-124642402D01*
X127662252Y-124642402D01*
G37*
D15*
X127025000Y-124891800D03*
D12*
G36*
X127662252Y-125442402D02*
G01*
X127674386Y-125444202D01*
X127686286Y-125447182D01*
X127697835Y-125451315D01*
X127708925Y-125456560D01*
X127719446Y-125462866D01*
X127729299Y-125470174D01*
X127738388Y-125478412D01*
X127746626Y-125487501D01*
X127753934Y-125497354D01*
X127760240Y-125507875D01*
X127765485Y-125518965D01*
X127769618Y-125530514D01*
X127772598Y-125542414D01*
X127774398Y-125554548D01*
X127775000Y-125566800D01*
X127775000Y-125816800D01*
X127774398Y-125829052D01*
X127772598Y-125841186D01*
X127769618Y-125853086D01*
X127765485Y-125864635D01*
X127760240Y-125875725D01*
X127753934Y-125886246D01*
X127746626Y-125896099D01*
X127738388Y-125905188D01*
X127729299Y-125913426D01*
X127719446Y-125920734D01*
X127708925Y-125927040D01*
X127697835Y-125932285D01*
X127686286Y-125936418D01*
X127674386Y-125939398D01*
X127662252Y-125941198D01*
X127650000Y-125941800D01*
X126400000Y-125941800D01*
X126387748Y-125941198D01*
X126375614Y-125939398D01*
X126363714Y-125936418D01*
X126352165Y-125932285D01*
X126341075Y-125927040D01*
X126330554Y-125920734D01*
X126320701Y-125913426D01*
X126311612Y-125905188D01*
X126303374Y-125896099D01*
X126296066Y-125886246D01*
X126289760Y-125875725D01*
X126284515Y-125864635D01*
X126280382Y-125853086D01*
X126277402Y-125841186D01*
X126275602Y-125829052D01*
X126275000Y-125816800D01*
X126275000Y-125566800D01*
X126275602Y-125554548D01*
X126277402Y-125542414D01*
X126280382Y-125530514D01*
X126284515Y-125518965D01*
X126289760Y-125507875D01*
X126296066Y-125497354D01*
X126303374Y-125487501D01*
X126311612Y-125478412D01*
X126320701Y-125470174D01*
X126330554Y-125462866D01*
X126341075Y-125456560D01*
X126352165Y-125451315D01*
X126363714Y-125447182D01*
X126375614Y-125444202D01*
X126387748Y-125442402D01*
X126400000Y-125441800D01*
X127650000Y-125441800D01*
X127662252Y-125442402D01*
X127662252Y-125442402D01*
G37*
D15*
X127025000Y-125691800D03*
D12*
G36*
X127662252Y-126242402D02*
G01*
X127674386Y-126244202D01*
X127686286Y-126247182D01*
X127697835Y-126251315D01*
X127708925Y-126256560D01*
X127719446Y-126262866D01*
X127729299Y-126270174D01*
X127738388Y-126278412D01*
X127746626Y-126287501D01*
X127753934Y-126297354D01*
X127760240Y-126307875D01*
X127765485Y-126318965D01*
X127769618Y-126330514D01*
X127772598Y-126342414D01*
X127774398Y-126354548D01*
X127775000Y-126366800D01*
X127775000Y-126616800D01*
X127774398Y-126629052D01*
X127772598Y-126641186D01*
X127769618Y-126653086D01*
X127765485Y-126664635D01*
X127760240Y-126675725D01*
X127753934Y-126686246D01*
X127746626Y-126696099D01*
X127738388Y-126705188D01*
X127729299Y-126713426D01*
X127719446Y-126720734D01*
X127708925Y-126727040D01*
X127697835Y-126732285D01*
X127686286Y-126736418D01*
X127674386Y-126739398D01*
X127662252Y-126741198D01*
X127650000Y-126741800D01*
X126400000Y-126741800D01*
X126387748Y-126741198D01*
X126375614Y-126739398D01*
X126363714Y-126736418D01*
X126352165Y-126732285D01*
X126341075Y-126727040D01*
X126330554Y-126720734D01*
X126320701Y-126713426D01*
X126311612Y-126705188D01*
X126303374Y-126696099D01*
X126296066Y-126686246D01*
X126289760Y-126675725D01*
X126284515Y-126664635D01*
X126280382Y-126653086D01*
X126277402Y-126641186D01*
X126275602Y-126629052D01*
X126275000Y-126616800D01*
X126275000Y-126366800D01*
X126275602Y-126354548D01*
X126277402Y-126342414D01*
X126280382Y-126330514D01*
X126284515Y-126318965D01*
X126289760Y-126307875D01*
X126296066Y-126297354D01*
X126303374Y-126287501D01*
X126311612Y-126278412D01*
X126320701Y-126270174D01*
X126330554Y-126262866D01*
X126341075Y-126256560D01*
X126352165Y-126251315D01*
X126363714Y-126247182D01*
X126375614Y-126244202D01*
X126387748Y-126242402D01*
X126400000Y-126241800D01*
X127650000Y-126241800D01*
X127662252Y-126242402D01*
X127662252Y-126242402D01*
G37*
D15*
X127025000Y-126491800D03*
D12*
G36*
X127662252Y-127042402D02*
G01*
X127674386Y-127044202D01*
X127686286Y-127047182D01*
X127697835Y-127051315D01*
X127708925Y-127056560D01*
X127719446Y-127062866D01*
X127729299Y-127070174D01*
X127738388Y-127078412D01*
X127746626Y-127087501D01*
X127753934Y-127097354D01*
X127760240Y-127107875D01*
X127765485Y-127118965D01*
X127769618Y-127130514D01*
X127772598Y-127142414D01*
X127774398Y-127154548D01*
X127775000Y-127166800D01*
X127775000Y-127416800D01*
X127774398Y-127429052D01*
X127772598Y-127441186D01*
X127769618Y-127453086D01*
X127765485Y-127464635D01*
X127760240Y-127475725D01*
X127753934Y-127486246D01*
X127746626Y-127496099D01*
X127738388Y-127505188D01*
X127729299Y-127513426D01*
X127719446Y-127520734D01*
X127708925Y-127527040D01*
X127697835Y-127532285D01*
X127686286Y-127536418D01*
X127674386Y-127539398D01*
X127662252Y-127541198D01*
X127650000Y-127541800D01*
X126400000Y-127541800D01*
X126387748Y-127541198D01*
X126375614Y-127539398D01*
X126363714Y-127536418D01*
X126352165Y-127532285D01*
X126341075Y-127527040D01*
X126330554Y-127520734D01*
X126320701Y-127513426D01*
X126311612Y-127505188D01*
X126303374Y-127496099D01*
X126296066Y-127486246D01*
X126289760Y-127475725D01*
X126284515Y-127464635D01*
X126280382Y-127453086D01*
X126277402Y-127441186D01*
X126275602Y-127429052D01*
X126275000Y-127416800D01*
X126275000Y-127166800D01*
X126275602Y-127154548D01*
X126277402Y-127142414D01*
X126280382Y-127130514D01*
X126284515Y-127118965D01*
X126289760Y-127107875D01*
X126296066Y-127097354D01*
X126303374Y-127087501D01*
X126311612Y-127078412D01*
X126320701Y-127070174D01*
X126330554Y-127062866D01*
X126341075Y-127056560D01*
X126352165Y-127051315D01*
X126363714Y-127047182D01*
X126375614Y-127044202D01*
X126387748Y-127042402D01*
X126400000Y-127041800D01*
X127650000Y-127041800D01*
X127662252Y-127042402D01*
X127662252Y-127042402D01*
G37*
D15*
X127025000Y-127291800D03*
D12*
G36*
X127662252Y-127842402D02*
G01*
X127674386Y-127844202D01*
X127686286Y-127847182D01*
X127697835Y-127851315D01*
X127708925Y-127856560D01*
X127719446Y-127862866D01*
X127729299Y-127870174D01*
X127738388Y-127878412D01*
X127746626Y-127887501D01*
X127753934Y-127897354D01*
X127760240Y-127907875D01*
X127765485Y-127918965D01*
X127769618Y-127930514D01*
X127772598Y-127942414D01*
X127774398Y-127954548D01*
X127775000Y-127966800D01*
X127775000Y-128216800D01*
X127774398Y-128229052D01*
X127772598Y-128241186D01*
X127769618Y-128253086D01*
X127765485Y-128264635D01*
X127760240Y-128275725D01*
X127753934Y-128286246D01*
X127746626Y-128296099D01*
X127738388Y-128305188D01*
X127729299Y-128313426D01*
X127719446Y-128320734D01*
X127708925Y-128327040D01*
X127697835Y-128332285D01*
X127686286Y-128336418D01*
X127674386Y-128339398D01*
X127662252Y-128341198D01*
X127650000Y-128341800D01*
X126400000Y-128341800D01*
X126387748Y-128341198D01*
X126375614Y-128339398D01*
X126363714Y-128336418D01*
X126352165Y-128332285D01*
X126341075Y-128327040D01*
X126330554Y-128320734D01*
X126320701Y-128313426D01*
X126311612Y-128305188D01*
X126303374Y-128296099D01*
X126296066Y-128286246D01*
X126289760Y-128275725D01*
X126284515Y-128264635D01*
X126280382Y-128253086D01*
X126277402Y-128241186D01*
X126275602Y-128229052D01*
X126275000Y-128216800D01*
X126275000Y-127966800D01*
X126275602Y-127954548D01*
X126277402Y-127942414D01*
X126280382Y-127930514D01*
X126284515Y-127918965D01*
X126289760Y-127907875D01*
X126296066Y-127897354D01*
X126303374Y-127887501D01*
X126311612Y-127878412D01*
X126320701Y-127870174D01*
X126330554Y-127862866D01*
X126341075Y-127856560D01*
X126352165Y-127851315D01*
X126363714Y-127847182D01*
X126375614Y-127844202D01*
X126387748Y-127842402D01*
X126400000Y-127841800D01*
X127650000Y-127841800D01*
X127662252Y-127842402D01*
X127662252Y-127842402D01*
G37*
D15*
X127025000Y-128091800D03*
D12*
G36*
X127662252Y-128642402D02*
G01*
X127674386Y-128644202D01*
X127686286Y-128647182D01*
X127697835Y-128651315D01*
X127708925Y-128656560D01*
X127719446Y-128662866D01*
X127729299Y-128670174D01*
X127738388Y-128678412D01*
X127746626Y-128687501D01*
X127753934Y-128697354D01*
X127760240Y-128707875D01*
X127765485Y-128718965D01*
X127769618Y-128730514D01*
X127772598Y-128742414D01*
X127774398Y-128754548D01*
X127775000Y-128766800D01*
X127775000Y-129016800D01*
X127774398Y-129029052D01*
X127772598Y-129041186D01*
X127769618Y-129053086D01*
X127765485Y-129064635D01*
X127760240Y-129075725D01*
X127753934Y-129086246D01*
X127746626Y-129096099D01*
X127738388Y-129105188D01*
X127729299Y-129113426D01*
X127719446Y-129120734D01*
X127708925Y-129127040D01*
X127697835Y-129132285D01*
X127686286Y-129136418D01*
X127674386Y-129139398D01*
X127662252Y-129141198D01*
X127650000Y-129141800D01*
X126400000Y-129141800D01*
X126387748Y-129141198D01*
X126375614Y-129139398D01*
X126363714Y-129136418D01*
X126352165Y-129132285D01*
X126341075Y-129127040D01*
X126330554Y-129120734D01*
X126320701Y-129113426D01*
X126311612Y-129105188D01*
X126303374Y-129096099D01*
X126296066Y-129086246D01*
X126289760Y-129075725D01*
X126284515Y-129064635D01*
X126280382Y-129053086D01*
X126277402Y-129041186D01*
X126275602Y-129029052D01*
X126275000Y-129016800D01*
X126275000Y-128766800D01*
X126275602Y-128754548D01*
X126277402Y-128742414D01*
X126280382Y-128730514D01*
X126284515Y-128718965D01*
X126289760Y-128707875D01*
X126296066Y-128697354D01*
X126303374Y-128687501D01*
X126311612Y-128678412D01*
X126320701Y-128670174D01*
X126330554Y-128662866D01*
X126341075Y-128656560D01*
X126352165Y-128651315D01*
X126363714Y-128647182D01*
X126375614Y-128644202D01*
X126387748Y-128642402D01*
X126400000Y-128641800D01*
X127650000Y-128641800D01*
X127662252Y-128642402D01*
X127662252Y-128642402D01*
G37*
D15*
X127025000Y-128891800D03*
D16*
X123675200Y-116335000D03*
X122875200Y-116335000D03*
X122075200Y-116335000D03*
X121275200Y-116335000D03*
X121255200Y-113935000D03*
X122075200Y-113935000D03*
X122875200Y-113935000D03*
X123675200Y-113935000D03*
D17*
X133752800Y-128190200D03*
X139252800Y-128190200D03*
X139252800Y-124990200D03*
X133752800Y-124990200D03*
D18*
X130552400Y-129232000D03*
X123643600Y-117243200D03*
X123796000Y-118564000D03*
X122754600Y-119910200D03*
X123034000Y-111909200D03*
X131602000Y-122306000D03*
X118124400Y-120476400D03*
X125748790Y-135077010D03*
X124808990Y-135077010D03*
X123869190Y-135077010D03*
X116455400Y-125777600D03*
X116455400Y-137791800D03*
X120951200Y-133499200D03*
X122297400Y-133550000D03*
X105406400Y-121586600D03*
X105406400Y-113865000D03*
X128749000Y-124939400D03*
X111756400Y-124939400D03*
X119986000Y-113915800D03*
X115261600Y-124101200D03*
D19*
X122500000Y-139168000D02*
X122500000Y-137685998D01*
D20*
X122500000Y-139168000D02*
X122500000Y-137930000D01*
D21*
X123681600Y-116338000D02*
X123681600Y-117205200D01*
X123681600Y-117205200D02*
X123643600Y-117243200D01*
X126031200Y-115684800D02*
X126758800Y-114957200D01*
X126031200Y-116929400D02*
X126031200Y-115684800D01*
D20*
X123675200Y-113935000D02*
X125250000Y-113935000D01*
X125922200Y-113262800D02*
X125922200Y-111909200D01*
X125250000Y-113935000D02*
X125922200Y-113262800D01*
X120743772Y-112532572D02*
X120120400Y-111909200D01*
X121446199Y-113234999D02*
X120743772Y-112532572D01*
X121865201Y-113234999D02*
X121446199Y-113234999D01*
X122075200Y-113444998D02*
X121865201Y-113234999D01*
X122075200Y-113935000D02*
X122075200Y-113444998D01*
X120470410Y-110759190D02*
X125643190Y-110759190D01*
X120120400Y-111909200D02*
X120120400Y-111109200D01*
X120120400Y-111109200D02*
X120470410Y-110759190D01*
X125922200Y-111038200D02*
X125922200Y-111909200D01*
X125643190Y-110759190D02*
X125922200Y-111038200D01*
D19*
X129621600Y-131730200D02*
X129630600Y-131721200D01*
X129621600Y-133677000D02*
X129621600Y-131730200D01*
D20*
X129630600Y-131497400D02*
X129630600Y-131721200D01*
X127025000Y-128891800D02*
X129630600Y-131497400D01*
X127025000Y-128891800D02*
X126148200Y-128891800D01*
X126148200Y-128891800D02*
X125421600Y-128165200D01*
X126175000Y-125691800D02*
X127025000Y-125691800D01*
X125421600Y-126445200D02*
X126175000Y-125691800D01*
D19*
X116074400Y-121392400D02*
X116090800Y-121408800D01*
X116074400Y-119351400D02*
X116074400Y-121392400D01*
D20*
X123509400Y-127276200D02*
X125421600Y-127276200D01*
X119525000Y-123291800D02*
X123509400Y-127276200D01*
X118675000Y-123291800D02*
X119525000Y-123291800D01*
X125421600Y-128165200D02*
X125421600Y-127276200D01*
X125421600Y-127276200D02*
X125421600Y-126445200D01*
X118675000Y-123291800D02*
X116814400Y-123291800D01*
X116090800Y-122568200D02*
X116090800Y-121408800D01*
X116814400Y-123291800D02*
X116090800Y-122568200D01*
D19*
X97847600Y-109140600D02*
X101444000Y-109140600D01*
D20*
X128808800Y-114957200D02*
X130654000Y-114957200D01*
X132025600Y-116328800D02*
X132025600Y-118056000D01*
X130654000Y-114957200D02*
X132025600Y-116328800D01*
X128808800Y-113162800D02*
X128808800Y-114957200D01*
X125922200Y-111909200D02*
X127555200Y-111909200D01*
X127555200Y-111909200D02*
X128808800Y-113162800D01*
X116074400Y-119351400D02*
X116074400Y-113763400D01*
X117928600Y-111909200D02*
X120120400Y-111909200D01*
X116074400Y-113763400D02*
X117928600Y-111909200D01*
D19*
X101444000Y-109140600D02*
X104746000Y-109140600D01*
X104746000Y-109140600D02*
X109902200Y-114296800D01*
X109902200Y-114296800D02*
X109902200Y-116811400D01*
X112442200Y-119351400D02*
X116074400Y-119351400D01*
X109902200Y-116811400D02*
X112442200Y-119351400D01*
X129656000Y-131695800D02*
X129630600Y-131721200D01*
X129621600Y-134477000D02*
X129612600Y-134486000D01*
X129621600Y-133677000D02*
X129621600Y-134477000D01*
X129612600Y-134486000D02*
X129612600Y-136852000D01*
X127479000Y-138985600D02*
X125040600Y-138985600D01*
X129612600Y-136852000D02*
X127479000Y-138985600D01*
D21*
X123796000Y-118564000D02*
X123801400Y-118569400D01*
D22*
X122081600Y-116338000D02*
X122081600Y-117179600D01*
X121746000Y-117515200D02*
X121746000Y-118564000D01*
X122081600Y-117179600D02*
X121746000Y-117515200D01*
D20*
X123059400Y-113000800D02*
X123059400Y-111909200D01*
X122875200Y-113185000D02*
X123059400Y-113000800D01*
X122875200Y-113935000D02*
X122875200Y-113185000D01*
D19*
X122170400Y-111909200D02*
X123034000Y-111909200D01*
X123059400Y-111909200D02*
X123872200Y-111909200D01*
X125802600Y-133677000D02*
X126640800Y-133677000D01*
X127571600Y-131730200D02*
X127580600Y-131721200D01*
X127571600Y-133677000D02*
X127571600Y-132619200D01*
D20*
X125650000Y-130266800D02*
X127269200Y-130266800D01*
X127580600Y-130578200D02*
X127580600Y-131721200D01*
X127269200Y-130266800D02*
X127580600Y-130578200D01*
D19*
X118124400Y-121392400D02*
X118140800Y-121408800D01*
X118124400Y-119351400D02*
X118124400Y-120476400D01*
D20*
X118648800Y-121916800D02*
X118140800Y-121408800D01*
X120050000Y-121916800D02*
X118648800Y-121916800D01*
D19*
X97847600Y-114220600D02*
X101444000Y-114220600D01*
X123034000Y-111909200D02*
X123059400Y-111909200D01*
X132025600Y-121882400D02*
X132025600Y-120596000D01*
X130552400Y-123355600D02*
X131602000Y-122306000D01*
X131602000Y-122306000D02*
X132025600Y-121882400D01*
X127571600Y-132619200D02*
X127571600Y-131730200D01*
X126640800Y-133677000D02*
X127571600Y-133677000D01*
X118124400Y-120476400D02*
X118124400Y-121392400D01*
X122500600Y-135582000D02*
X122500600Y-138985600D01*
X123005590Y-135077010D02*
X122500600Y-135582000D01*
X123005590Y-135077010D02*
X123869190Y-135077010D01*
X126640800Y-134642200D02*
X126640800Y-133677000D01*
X126205990Y-135077010D02*
X126640800Y-134642200D01*
X125748790Y-135077010D02*
X126205990Y-135077010D01*
X124808990Y-135077010D02*
X125748790Y-135077010D01*
X123869190Y-135077010D02*
X124808990Y-135077010D01*
D20*
X132661000Y-127098400D02*
X133752800Y-128190200D01*
X130552400Y-127098400D02*
X132661000Y-127098400D01*
X129559000Y-128091800D02*
X130552400Y-127098400D01*
X127025000Y-128091800D02*
X129559000Y-128091800D01*
D21*
X121281600Y-115338000D02*
X121281600Y-116338000D01*
X124050000Y-120672200D02*
X124721010Y-120001190D01*
X124050000Y-121916800D02*
X124050000Y-120672200D01*
X124721010Y-120001190D02*
X124721010Y-115755210D01*
X124721010Y-115755210D02*
X124151600Y-115185800D01*
X124151600Y-115185800D02*
X121433800Y-115185800D01*
X121433800Y-115185800D02*
X121281600Y-115338000D01*
X126031200Y-119654400D02*
X126031200Y-118979400D01*
X126031200Y-119885600D02*
X126031200Y-119654400D01*
X124850000Y-121066800D02*
X126031200Y-119885600D01*
X124850000Y-121916800D02*
X124850000Y-121066800D01*
D20*
X118675000Y-124891800D02*
X117341200Y-124891800D01*
X117341200Y-124891800D02*
X116455400Y-125777600D01*
X117649200Y-138985600D02*
X119960600Y-138985600D01*
X116455400Y-137791800D02*
X117649200Y-138985600D01*
D21*
X123250000Y-130266800D02*
X123250000Y-130888566D01*
D20*
X122649198Y-131630790D02*
X122083010Y-131630790D01*
X123250000Y-130266800D02*
X123250000Y-131029988D01*
X123250000Y-131029988D02*
X122649198Y-131630790D01*
X122083010Y-131630790D02*
X120951200Y-132762600D01*
X120951200Y-132762600D02*
X120951200Y-133499200D01*
X122297400Y-133550000D02*
X122297400Y-132737200D01*
X122297400Y-132737200D02*
X122703800Y-132330800D01*
X122703800Y-132330800D02*
X123643600Y-132330800D01*
X124050000Y-131924400D02*
X124050000Y-130266800D01*
X123643600Y-132330800D02*
X124050000Y-131924400D01*
X118675000Y-128891800D02*
X114007000Y-128891800D01*
D19*
X97847600Y-111680600D02*
X101444000Y-111680600D01*
D20*
X114007000Y-128891800D02*
X112711600Y-128891800D01*
X112711600Y-128891800D02*
X105406400Y-121586600D01*
X103222000Y-111680600D02*
X105406400Y-113865000D01*
X101469400Y-111680600D02*
X103222000Y-111680600D01*
X118675000Y-128091800D02*
X116585200Y-128091800D01*
X105254000Y-116760600D02*
X101444000Y-116760600D01*
X116585200Y-128091800D02*
X105254000Y-116760600D01*
D19*
X97847600Y-116760600D02*
X101444000Y-116760600D01*
X97847600Y-119300600D02*
X101444000Y-119300600D01*
D21*
X127025000Y-126491800D02*
X128288800Y-126491800D01*
X128288800Y-126491800D02*
X128288800Y-125399600D01*
X128288800Y-125399600D02*
X128749000Y-124939400D01*
D20*
X106117600Y-119300600D02*
X111756400Y-124939400D01*
X101444000Y-119300600D02*
X106117600Y-119300600D01*
X120850000Y-131116800D02*
X119864600Y-132102200D01*
X120850000Y-130266800D02*
X120850000Y-131116800D01*
X119864600Y-132102200D02*
X107844800Y-132102200D01*
X101444000Y-125701400D02*
X101444000Y-121840600D01*
X107844800Y-132102200D02*
X101444000Y-125701400D01*
D19*
X97847600Y-121840600D02*
X101444000Y-121840600D01*
D21*
X123250000Y-121916800D02*
X123250000Y-120608600D01*
X123796000Y-120062600D02*
X123796000Y-118564000D01*
X123250000Y-120608600D02*
X123796000Y-120062600D01*
X120705200Y-113935000D02*
X120686000Y-113915800D01*
X121255200Y-113935000D02*
X120705200Y-113935000D01*
X120686000Y-113915800D02*
X119986000Y-113915800D01*
D20*
X124850000Y-131116800D02*
X124862800Y-131129600D01*
X124850000Y-130266800D02*
X124850000Y-131116800D01*
X124862800Y-132566800D02*
X123752600Y-133677000D01*
X124862800Y-131129600D02*
X124862800Y-132566800D01*
D21*
X122450000Y-120697800D02*
X122450000Y-121916800D01*
X121746000Y-118564000D02*
X121746000Y-119993800D01*
X121746000Y-119993800D02*
X122450000Y-120697800D01*
X122754600Y-119344515D02*
X122754600Y-119910200D01*
X122754600Y-117005600D02*
X122754600Y-119344515D01*
X122875200Y-116885000D02*
X122754600Y-117005600D01*
X122875200Y-116335000D02*
X122875200Y-116885000D01*
X118675000Y-124091800D02*
X115271000Y-124091800D01*
X115271000Y-124091800D02*
X115261600Y-124101200D01*
D20*
X133337400Y-125405600D02*
X133752800Y-124990200D01*
X130552400Y-125405600D02*
X133337400Y-125405600D01*
X128594034Y-127291800D02*
X129130000Y-126755834D01*
X127025000Y-127291800D02*
X128594034Y-127291800D01*
X129130000Y-126755834D02*
X129130000Y-125904600D01*
X129629000Y-125405600D02*
X130552400Y-125405600D01*
X129130000Y-125904600D02*
X129629000Y-125405600D01*
X128190200Y-118056000D02*
X129485600Y-118056000D01*
X127733000Y-118513200D02*
X128190200Y-118056000D01*
X127733000Y-120183800D02*
X127733000Y-118513200D01*
X125650000Y-121916800D02*
X126000000Y-121916800D01*
X126000000Y-121916800D02*
X127733000Y-120183800D01*
X129485600Y-121946000D02*
X129485600Y-120596000D01*
X128139800Y-123291800D02*
X129485600Y-121946000D01*
X127025000Y-123291800D02*
X128139800Y-123291800D01*
M02*
