G04 #@! TF.GenerationSoftware,KiCad,Pcbnew,(5.1.4)-1*
G04 #@! TF.CreationDate,2021-09-05T23:12:11+02:00*
G04 #@! TF.ProjectId,BME680,424d4536-3830-42e6-9b69-6361645f7063,A*
G04 #@! TF.SameCoordinates,Original*
G04 #@! TF.FileFunction,Soldermask,Top*
G04 #@! TF.FilePolarity,Negative*
%FSLAX46Y46*%
G04 Gerber Fmt 4.6, Leading zero omitted, Abs format (unit mm)*
G04 Created by KiCad (PCBNEW (5.1.4)-1) date 2021-09-05 23:12:11*
%MOMM*%
%LPD*%
G04 APERTURE LIST*
%ADD10C,0.100000*%
G04 APERTURE END LIST*
D10*
G36*
X120773600Y-141036600D02*
G01*
X119147600Y-141036600D01*
X119147600Y-136934600D01*
X120773600Y-136934600D01*
X120773600Y-141036600D01*
X120773600Y-141036600D01*
G37*
G36*
X123313600Y-141036600D02*
G01*
X121687600Y-141036600D01*
X121687600Y-136934600D01*
X123313600Y-136934600D01*
X123313600Y-141036600D01*
X123313600Y-141036600D01*
G37*
G36*
X125853600Y-141036600D02*
G01*
X124227600Y-141036600D01*
X124227600Y-136934600D01*
X125853600Y-136934600D01*
X125853600Y-141036600D01*
X125853600Y-141036600D01*
G37*
G36*
X124216274Y-132930465D02*
G01*
X124253967Y-132941899D01*
X124288703Y-132960466D01*
X124319148Y-132985452D01*
X124344134Y-133015897D01*
X124362701Y-133050633D01*
X124374135Y-133088326D01*
X124378600Y-133133661D01*
X124378600Y-134220339D01*
X124374135Y-134265674D01*
X124362701Y-134303367D01*
X124344134Y-134338103D01*
X124319148Y-134368548D01*
X124288703Y-134393534D01*
X124253967Y-134412101D01*
X124216274Y-134423535D01*
X124170939Y-134428000D01*
X123334261Y-134428000D01*
X123288926Y-134423535D01*
X123251233Y-134412101D01*
X123216497Y-134393534D01*
X123186052Y-134368548D01*
X123161066Y-134338103D01*
X123142499Y-134303367D01*
X123131065Y-134265674D01*
X123126600Y-134220339D01*
X123126600Y-133133661D01*
X123131065Y-133088326D01*
X123142499Y-133050633D01*
X123161066Y-133015897D01*
X123186052Y-132985452D01*
X123216497Y-132960466D01*
X123251233Y-132941899D01*
X123288926Y-132930465D01*
X123334261Y-132926000D01*
X124170939Y-132926000D01*
X124216274Y-132930465D01*
X124216274Y-132930465D01*
G37*
G36*
X126266274Y-132930465D02*
G01*
X126303967Y-132941899D01*
X126338703Y-132960466D01*
X126369148Y-132985452D01*
X126394134Y-133015897D01*
X126412701Y-133050633D01*
X126424135Y-133088326D01*
X126428600Y-133133661D01*
X126428600Y-134220339D01*
X126424135Y-134265674D01*
X126412701Y-134303367D01*
X126394134Y-134338103D01*
X126369148Y-134368548D01*
X126338703Y-134393534D01*
X126303967Y-134412101D01*
X126266274Y-134423535D01*
X126220939Y-134428000D01*
X125384261Y-134428000D01*
X125338926Y-134423535D01*
X125301233Y-134412101D01*
X125266497Y-134393534D01*
X125236052Y-134368548D01*
X125211066Y-134338103D01*
X125192499Y-134303367D01*
X125181065Y-134265674D01*
X125176600Y-134220339D01*
X125176600Y-133133661D01*
X125181065Y-133088326D01*
X125192499Y-133050633D01*
X125211066Y-133015897D01*
X125236052Y-132985452D01*
X125266497Y-132960466D01*
X125301233Y-132941899D01*
X125338926Y-132930465D01*
X125384261Y-132926000D01*
X126220939Y-132926000D01*
X126266274Y-132930465D01*
X126266274Y-132930465D01*
G37*
G36*
X130085274Y-132930465D02*
G01*
X130122967Y-132941899D01*
X130157703Y-132960466D01*
X130188148Y-132985452D01*
X130213134Y-133015897D01*
X130231701Y-133050633D01*
X130243135Y-133088326D01*
X130247600Y-133133661D01*
X130247600Y-134220339D01*
X130243135Y-134265674D01*
X130231701Y-134303367D01*
X130213134Y-134338103D01*
X130188148Y-134368548D01*
X130157703Y-134393534D01*
X130122967Y-134412101D01*
X130085274Y-134423535D01*
X130039939Y-134428000D01*
X129203261Y-134428000D01*
X129157926Y-134423535D01*
X129120233Y-134412101D01*
X129085497Y-134393534D01*
X129055052Y-134368548D01*
X129030066Y-134338103D01*
X129011499Y-134303367D01*
X129000065Y-134265674D01*
X128995600Y-134220339D01*
X128995600Y-133133661D01*
X129000065Y-133088326D01*
X129011499Y-133050633D01*
X129030066Y-133015897D01*
X129055052Y-132985452D01*
X129085497Y-132960466D01*
X129120233Y-132941899D01*
X129157926Y-132930465D01*
X129203261Y-132926000D01*
X130039939Y-132926000D01*
X130085274Y-132930465D01*
X130085274Y-132930465D01*
G37*
G36*
X128035274Y-132930465D02*
G01*
X128072967Y-132941899D01*
X128107703Y-132960466D01*
X128138148Y-132985452D01*
X128163134Y-133015897D01*
X128181701Y-133050633D01*
X128193135Y-133088326D01*
X128197600Y-133133661D01*
X128197600Y-134220339D01*
X128193135Y-134265674D01*
X128181701Y-134303367D01*
X128163134Y-134338103D01*
X128138148Y-134368548D01*
X128107703Y-134393534D01*
X128072967Y-134412101D01*
X128035274Y-134423535D01*
X127989939Y-134428000D01*
X127153261Y-134428000D01*
X127107926Y-134423535D01*
X127070233Y-134412101D01*
X127035497Y-134393534D01*
X127005052Y-134368548D01*
X126980066Y-134338103D01*
X126961499Y-134303367D01*
X126950065Y-134265674D01*
X126945600Y-134220339D01*
X126945600Y-133133661D01*
X126950065Y-133088326D01*
X126961499Y-133050633D01*
X126980066Y-133015897D01*
X127005052Y-132985452D01*
X127035497Y-132960466D01*
X127070233Y-132941899D01*
X127107926Y-132930465D01*
X127153261Y-132926000D01*
X127989939Y-132926000D01*
X128035274Y-132930465D01*
X128035274Y-132930465D01*
G37*
G36*
X130094274Y-130974665D02*
G01*
X130131967Y-130986099D01*
X130166703Y-131004666D01*
X130197148Y-131029652D01*
X130222134Y-131060097D01*
X130240701Y-131094833D01*
X130252135Y-131132526D01*
X130256600Y-131177861D01*
X130256600Y-132264539D01*
X130252135Y-132309874D01*
X130240701Y-132347567D01*
X130222134Y-132382303D01*
X130197148Y-132412748D01*
X130166703Y-132437734D01*
X130131967Y-132456301D01*
X130094274Y-132467735D01*
X130048939Y-132472200D01*
X129212261Y-132472200D01*
X129166926Y-132467735D01*
X129129233Y-132456301D01*
X129094497Y-132437734D01*
X129064052Y-132412748D01*
X129039066Y-132382303D01*
X129020499Y-132347567D01*
X129009065Y-132309874D01*
X129004600Y-132264539D01*
X129004600Y-131177861D01*
X129009065Y-131132526D01*
X129020499Y-131094833D01*
X129039066Y-131060097D01*
X129064052Y-131029652D01*
X129094497Y-131004666D01*
X129129233Y-130986099D01*
X129166926Y-130974665D01*
X129212261Y-130970200D01*
X130048939Y-130970200D01*
X130094274Y-130974665D01*
X130094274Y-130974665D01*
G37*
G36*
X128044274Y-130974665D02*
G01*
X128081967Y-130986099D01*
X128116703Y-131004666D01*
X128147148Y-131029652D01*
X128172134Y-131060097D01*
X128190701Y-131094833D01*
X128202135Y-131132526D01*
X128206600Y-131177861D01*
X128206600Y-132264539D01*
X128202135Y-132309874D01*
X128190701Y-132347567D01*
X128172134Y-132382303D01*
X128147148Y-132412748D01*
X128116703Y-132437734D01*
X128081967Y-132456301D01*
X128044274Y-132467735D01*
X127998939Y-132472200D01*
X127162261Y-132472200D01*
X127116926Y-132467735D01*
X127079233Y-132456301D01*
X127044497Y-132437734D01*
X127014052Y-132412748D01*
X126989066Y-132382303D01*
X126970499Y-132347567D01*
X126959065Y-132309874D01*
X126954600Y-132264539D01*
X126954600Y-131177861D01*
X126959065Y-131132526D01*
X126970499Y-131094833D01*
X126989066Y-131060097D01*
X127014052Y-131029652D01*
X127044497Y-131004666D01*
X127079233Y-130986099D01*
X127116926Y-130974665D01*
X127162261Y-130970200D01*
X127998939Y-130970200D01*
X128044274Y-130974665D01*
X128044274Y-130974665D01*
G37*
G36*
X120280051Y-129468084D02*
G01*
X120296443Y-129473057D01*
X120311555Y-129481134D01*
X120324798Y-129492002D01*
X120335667Y-129505247D01*
X120339761Y-129512906D01*
X120353374Y-129533280D01*
X120370701Y-129550607D01*
X120391076Y-129564221D01*
X120413714Y-129573598D01*
X120437748Y-129578379D01*
X120462252Y-129578379D01*
X120486285Y-129573599D01*
X120508924Y-129564221D01*
X120529298Y-129550608D01*
X120546625Y-129533281D01*
X120560239Y-129512906D01*
X120564333Y-129505247D01*
X120575202Y-129492002D01*
X120588445Y-129481134D01*
X120603557Y-129473057D01*
X120619949Y-129468084D01*
X120643141Y-129465800D01*
X121056859Y-129465800D01*
X121080051Y-129468084D01*
X121096443Y-129473057D01*
X121111555Y-129481134D01*
X121124798Y-129492002D01*
X121135667Y-129505247D01*
X121139761Y-129512906D01*
X121153374Y-129533280D01*
X121170701Y-129550607D01*
X121191076Y-129564221D01*
X121213714Y-129573598D01*
X121237748Y-129578379D01*
X121262252Y-129578379D01*
X121286285Y-129573599D01*
X121308924Y-129564221D01*
X121329298Y-129550608D01*
X121346625Y-129533281D01*
X121360239Y-129512906D01*
X121364333Y-129505247D01*
X121375202Y-129492002D01*
X121388445Y-129481134D01*
X121403557Y-129473057D01*
X121419949Y-129468084D01*
X121443141Y-129465800D01*
X121856859Y-129465800D01*
X121880051Y-129468084D01*
X121896443Y-129473057D01*
X121911555Y-129481134D01*
X121924798Y-129492002D01*
X121935667Y-129505247D01*
X121939761Y-129512906D01*
X121953374Y-129533280D01*
X121970701Y-129550607D01*
X121991076Y-129564221D01*
X122013714Y-129573598D01*
X122037748Y-129578379D01*
X122062252Y-129578379D01*
X122086285Y-129573599D01*
X122108924Y-129564221D01*
X122129298Y-129550608D01*
X122146625Y-129533281D01*
X122160239Y-129512906D01*
X122164333Y-129505247D01*
X122175202Y-129492002D01*
X122188445Y-129481134D01*
X122203557Y-129473057D01*
X122219949Y-129468084D01*
X122243141Y-129465800D01*
X122656859Y-129465800D01*
X122680051Y-129468084D01*
X122696443Y-129473057D01*
X122711555Y-129481134D01*
X122724798Y-129492002D01*
X122735667Y-129505247D01*
X122739761Y-129512906D01*
X122753374Y-129533280D01*
X122770701Y-129550607D01*
X122791076Y-129564221D01*
X122813714Y-129573598D01*
X122837748Y-129578379D01*
X122862252Y-129578379D01*
X122886285Y-129573599D01*
X122908924Y-129564221D01*
X122929298Y-129550608D01*
X122946625Y-129533281D01*
X122960239Y-129512906D01*
X122964333Y-129505247D01*
X122975202Y-129492002D01*
X122988445Y-129481134D01*
X123003557Y-129473057D01*
X123019949Y-129468084D01*
X123043141Y-129465800D01*
X123456859Y-129465800D01*
X123480051Y-129468084D01*
X123496443Y-129473057D01*
X123511555Y-129481134D01*
X123524798Y-129492002D01*
X123535667Y-129505247D01*
X123539761Y-129512906D01*
X123553374Y-129533280D01*
X123570701Y-129550607D01*
X123591076Y-129564221D01*
X123613714Y-129573598D01*
X123637748Y-129578379D01*
X123662252Y-129578379D01*
X123686285Y-129573599D01*
X123708924Y-129564221D01*
X123729298Y-129550608D01*
X123746625Y-129533281D01*
X123760239Y-129512906D01*
X123764333Y-129505247D01*
X123775202Y-129492002D01*
X123788445Y-129481134D01*
X123803557Y-129473057D01*
X123819949Y-129468084D01*
X123843141Y-129465800D01*
X124256859Y-129465800D01*
X124280051Y-129468084D01*
X124296443Y-129473057D01*
X124311555Y-129481134D01*
X124324798Y-129492002D01*
X124335667Y-129505247D01*
X124339761Y-129512906D01*
X124353374Y-129533280D01*
X124370701Y-129550607D01*
X124391076Y-129564221D01*
X124413714Y-129573598D01*
X124437748Y-129578379D01*
X124462252Y-129578379D01*
X124486285Y-129573599D01*
X124508924Y-129564221D01*
X124529298Y-129550608D01*
X124546625Y-129533281D01*
X124560239Y-129512906D01*
X124564333Y-129505247D01*
X124575202Y-129492002D01*
X124588445Y-129481134D01*
X124603557Y-129473057D01*
X124619949Y-129468084D01*
X124643141Y-129465800D01*
X125056859Y-129465800D01*
X125080051Y-129468084D01*
X125096443Y-129473057D01*
X125111555Y-129481134D01*
X125124798Y-129492002D01*
X125135667Y-129505247D01*
X125139761Y-129512906D01*
X125153374Y-129533280D01*
X125170701Y-129550607D01*
X125191076Y-129564221D01*
X125213714Y-129573598D01*
X125237748Y-129578379D01*
X125262252Y-129578379D01*
X125286285Y-129573599D01*
X125308924Y-129564221D01*
X125329298Y-129550608D01*
X125346625Y-129533281D01*
X125360239Y-129512906D01*
X125364333Y-129505247D01*
X125375202Y-129492002D01*
X125388445Y-129481134D01*
X125403557Y-129473057D01*
X125419949Y-129468084D01*
X125443141Y-129465800D01*
X125856859Y-129465800D01*
X125880051Y-129468084D01*
X125896443Y-129473057D01*
X125911555Y-129481134D01*
X125924798Y-129492002D01*
X125935666Y-129505245D01*
X125943743Y-129520357D01*
X125948716Y-129536749D01*
X125951000Y-129559941D01*
X125951000Y-130973659D01*
X125948716Y-130996851D01*
X125943743Y-131013243D01*
X125935666Y-131028355D01*
X125924798Y-131041598D01*
X125911555Y-131052466D01*
X125896443Y-131060543D01*
X125880051Y-131065516D01*
X125856859Y-131067800D01*
X125443141Y-131067800D01*
X125419949Y-131065516D01*
X125403557Y-131060543D01*
X125388445Y-131052466D01*
X125375202Y-131041598D01*
X125364333Y-131028353D01*
X125360239Y-131020694D01*
X125346626Y-131000320D01*
X125329299Y-130982993D01*
X125308924Y-130969379D01*
X125286286Y-130960002D01*
X125262252Y-130955221D01*
X125237748Y-130955221D01*
X125213715Y-130960001D01*
X125191076Y-130969379D01*
X125170702Y-130982992D01*
X125153375Y-131000319D01*
X125139761Y-131020694D01*
X125135667Y-131028353D01*
X125124798Y-131041598D01*
X125111555Y-131052466D01*
X125096443Y-131060543D01*
X125080051Y-131065516D01*
X125056859Y-131067800D01*
X124643141Y-131067800D01*
X124619949Y-131065516D01*
X124603557Y-131060543D01*
X124588445Y-131052466D01*
X124575202Y-131041598D01*
X124564333Y-131028353D01*
X124560239Y-131020694D01*
X124546626Y-131000320D01*
X124529299Y-130982993D01*
X124508924Y-130969379D01*
X124486286Y-130960002D01*
X124462252Y-130955221D01*
X124437748Y-130955221D01*
X124413715Y-130960001D01*
X124391076Y-130969379D01*
X124370702Y-130982992D01*
X124353375Y-131000319D01*
X124339761Y-131020694D01*
X124335667Y-131028353D01*
X124324798Y-131041598D01*
X124311555Y-131052466D01*
X124296443Y-131060543D01*
X124280051Y-131065516D01*
X124256859Y-131067800D01*
X123843141Y-131067800D01*
X123819949Y-131065516D01*
X123803557Y-131060543D01*
X123788445Y-131052466D01*
X123775202Y-131041598D01*
X123764333Y-131028353D01*
X123760239Y-131020694D01*
X123746626Y-131000320D01*
X123729299Y-130982993D01*
X123708924Y-130969379D01*
X123686286Y-130960002D01*
X123662252Y-130955221D01*
X123637748Y-130955221D01*
X123613715Y-130960001D01*
X123591076Y-130969379D01*
X123570702Y-130982992D01*
X123553375Y-131000319D01*
X123539761Y-131020694D01*
X123535667Y-131028353D01*
X123524798Y-131041598D01*
X123511555Y-131052466D01*
X123496443Y-131060543D01*
X123480051Y-131065516D01*
X123456859Y-131067800D01*
X123043141Y-131067800D01*
X123019949Y-131065516D01*
X123003557Y-131060543D01*
X122988445Y-131052466D01*
X122975202Y-131041598D01*
X122964333Y-131028353D01*
X122960239Y-131020694D01*
X122946626Y-131000320D01*
X122929299Y-130982993D01*
X122908924Y-130969379D01*
X122886286Y-130960002D01*
X122862252Y-130955221D01*
X122837748Y-130955221D01*
X122813715Y-130960001D01*
X122791076Y-130969379D01*
X122770702Y-130982992D01*
X122753375Y-131000319D01*
X122739761Y-131020694D01*
X122735667Y-131028353D01*
X122724798Y-131041598D01*
X122711555Y-131052466D01*
X122696443Y-131060543D01*
X122680051Y-131065516D01*
X122656859Y-131067800D01*
X122243141Y-131067800D01*
X122219949Y-131065516D01*
X122203557Y-131060543D01*
X122188445Y-131052466D01*
X122175202Y-131041598D01*
X122164333Y-131028353D01*
X122160239Y-131020694D01*
X122146626Y-131000320D01*
X122129299Y-130982993D01*
X122108924Y-130969379D01*
X122086286Y-130960002D01*
X122062252Y-130955221D01*
X122037748Y-130955221D01*
X122013715Y-130960001D01*
X121991076Y-130969379D01*
X121970702Y-130982992D01*
X121953375Y-131000319D01*
X121939761Y-131020694D01*
X121935667Y-131028353D01*
X121924798Y-131041598D01*
X121911555Y-131052466D01*
X121896443Y-131060543D01*
X121880051Y-131065516D01*
X121856859Y-131067800D01*
X121443141Y-131067800D01*
X121419949Y-131065516D01*
X121403557Y-131060543D01*
X121388445Y-131052466D01*
X121375202Y-131041598D01*
X121364333Y-131028353D01*
X121360239Y-131020694D01*
X121346626Y-131000320D01*
X121329299Y-130982993D01*
X121308924Y-130969379D01*
X121286286Y-130960002D01*
X121262252Y-130955221D01*
X121237748Y-130955221D01*
X121213715Y-130960001D01*
X121191076Y-130969379D01*
X121170702Y-130982992D01*
X121153375Y-131000319D01*
X121139761Y-131020694D01*
X121135667Y-131028353D01*
X121124798Y-131041598D01*
X121111555Y-131052466D01*
X121096443Y-131060543D01*
X121080051Y-131065516D01*
X121056859Y-131067800D01*
X120643141Y-131067800D01*
X120619949Y-131065516D01*
X120603557Y-131060543D01*
X120588445Y-131052466D01*
X120575202Y-131041598D01*
X120564333Y-131028353D01*
X120560239Y-131020694D01*
X120546626Y-131000320D01*
X120529299Y-130982993D01*
X120508924Y-130969379D01*
X120486286Y-130960002D01*
X120462252Y-130955221D01*
X120437748Y-130955221D01*
X120413715Y-130960001D01*
X120391076Y-130969379D01*
X120370702Y-130982992D01*
X120353375Y-131000319D01*
X120339761Y-131020694D01*
X120335667Y-131028353D01*
X120324798Y-131041598D01*
X120311555Y-131052466D01*
X120296443Y-131060543D01*
X120280051Y-131065516D01*
X120256859Y-131067800D01*
X119843141Y-131067800D01*
X119819949Y-131065516D01*
X119803557Y-131060543D01*
X119788445Y-131052466D01*
X119775202Y-131041598D01*
X119764334Y-131028355D01*
X119756257Y-131013243D01*
X119751284Y-130996851D01*
X119749000Y-130973659D01*
X119749000Y-129559941D01*
X119751284Y-129536749D01*
X119756257Y-129520357D01*
X119764334Y-129505245D01*
X119775202Y-129492002D01*
X119788445Y-129481134D01*
X119803557Y-129473057D01*
X119819949Y-129468084D01*
X119843141Y-129465800D01*
X120256859Y-129465800D01*
X120280051Y-129468084D01*
X120280051Y-129468084D01*
G37*
G36*
X131141074Y-128526865D02*
G01*
X131178767Y-128538299D01*
X131213503Y-128556866D01*
X131243948Y-128581852D01*
X131268934Y-128612297D01*
X131287501Y-128647033D01*
X131298935Y-128684726D01*
X131303400Y-128730061D01*
X131303400Y-129566739D01*
X131298935Y-129612074D01*
X131287501Y-129649767D01*
X131268934Y-129684503D01*
X131243948Y-129714948D01*
X131213503Y-129739934D01*
X131178767Y-129758501D01*
X131141074Y-129769935D01*
X131095739Y-129774400D01*
X130009061Y-129774400D01*
X129963726Y-129769935D01*
X129926033Y-129758501D01*
X129891297Y-129739934D01*
X129860852Y-129714948D01*
X129835866Y-129684503D01*
X129817299Y-129649767D01*
X129805865Y-129612074D01*
X129801400Y-129566739D01*
X129801400Y-128730061D01*
X129805865Y-128684726D01*
X129817299Y-128647033D01*
X129835866Y-128612297D01*
X129860852Y-128581852D01*
X129891297Y-128556866D01*
X129926033Y-128538299D01*
X129963726Y-128526865D01*
X130009061Y-128522400D01*
X131095739Y-128522400D01*
X131141074Y-128526865D01*
X131141074Y-128526865D01*
G37*
G36*
X119405051Y-122993084D02*
G01*
X119421443Y-122998057D01*
X119436555Y-123006134D01*
X119449798Y-123017002D01*
X119460666Y-123030245D01*
X119468743Y-123045357D01*
X119473716Y-123061749D01*
X119476000Y-123084941D01*
X119476000Y-123498659D01*
X119473716Y-123521851D01*
X119468743Y-123538243D01*
X119460666Y-123553355D01*
X119449798Y-123566598D01*
X119436553Y-123577467D01*
X119428894Y-123581561D01*
X119408520Y-123595174D01*
X119391193Y-123612501D01*
X119377579Y-123632876D01*
X119368202Y-123655514D01*
X119363421Y-123679548D01*
X119363421Y-123704052D01*
X119368201Y-123728085D01*
X119377579Y-123750724D01*
X119391192Y-123771098D01*
X119408519Y-123788425D01*
X119428894Y-123802039D01*
X119436553Y-123806133D01*
X119449798Y-123817002D01*
X119460666Y-123830245D01*
X119468743Y-123845357D01*
X119473716Y-123861749D01*
X119476000Y-123884941D01*
X119476000Y-124298659D01*
X119473716Y-124321851D01*
X119468743Y-124338243D01*
X119460666Y-124353355D01*
X119449798Y-124366598D01*
X119436553Y-124377467D01*
X119428894Y-124381561D01*
X119408520Y-124395174D01*
X119391193Y-124412501D01*
X119377579Y-124432876D01*
X119368202Y-124455514D01*
X119363421Y-124479548D01*
X119363421Y-124504052D01*
X119368201Y-124528085D01*
X119377579Y-124550724D01*
X119391192Y-124571098D01*
X119408519Y-124588425D01*
X119428894Y-124602039D01*
X119436553Y-124606133D01*
X119449798Y-124617002D01*
X119460666Y-124630245D01*
X119468743Y-124645357D01*
X119473716Y-124661749D01*
X119476000Y-124684941D01*
X119476000Y-125098659D01*
X119473716Y-125121851D01*
X119468743Y-125138243D01*
X119460666Y-125153355D01*
X119449798Y-125166598D01*
X119436553Y-125177467D01*
X119428894Y-125181561D01*
X119408520Y-125195174D01*
X119391193Y-125212501D01*
X119377579Y-125232876D01*
X119368202Y-125255514D01*
X119363421Y-125279548D01*
X119363421Y-125304052D01*
X119368201Y-125328085D01*
X119377579Y-125350724D01*
X119391192Y-125371098D01*
X119408519Y-125388425D01*
X119428894Y-125402039D01*
X119436553Y-125406133D01*
X119449798Y-125417002D01*
X119460666Y-125430245D01*
X119468743Y-125445357D01*
X119473716Y-125461749D01*
X119476000Y-125484941D01*
X119476000Y-125898659D01*
X119473716Y-125921851D01*
X119468743Y-125938243D01*
X119460666Y-125953355D01*
X119449798Y-125966598D01*
X119436553Y-125977467D01*
X119428894Y-125981561D01*
X119408520Y-125995174D01*
X119391193Y-126012501D01*
X119377579Y-126032876D01*
X119368202Y-126055514D01*
X119363421Y-126079548D01*
X119363421Y-126104052D01*
X119368201Y-126128085D01*
X119377579Y-126150724D01*
X119391192Y-126171098D01*
X119408519Y-126188425D01*
X119428894Y-126202039D01*
X119436553Y-126206133D01*
X119449798Y-126217002D01*
X119460666Y-126230245D01*
X119468743Y-126245357D01*
X119473716Y-126261749D01*
X119476000Y-126284941D01*
X119476000Y-126698659D01*
X119473716Y-126721851D01*
X119468743Y-126738243D01*
X119460666Y-126753355D01*
X119449798Y-126766598D01*
X119436553Y-126777467D01*
X119428894Y-126781561D01*
X119408520Y-126795174D01*
X119391193Y-126812501D01*
X119377579Y-126832876D01*
X119368202Y-126855514D01*
X119363421Y-126879548D01*
X119363421Y-126904052D01*
X119368201Y-126928085D01*
X119377579Y-126950724D01*
X119391192Y-126971098D01*
X119408519Y-126988425D01*
X119428894Y-127002039D01*
X119436553Y-127006133D01*
X119449798Y-127017002D01*
X119460666Y-127030245D01*
X119468743Y-127045357D01*
X119473716Y-127061749D01*
X119476000Y-127084941D01*
X119476000Y-127498659D01*
X119473716Y-127521851D01*
X119468743Y-127538243D01*
X119460666Y-127553355D01*
X119449798Y-127566598D01*
X119436553Y-127577467D01*
X119428894Y-127581561D01*
X119408520Y-127595174D01*
X119391193Y-127612501D01*
X119377579Y-127632876D01*
X119368202Y-127655514D01*
X119363421Y-127679548D01*
X119363421Y-127704052D01*
X119368201Y-127728085D01*
X119377579Y-127750724D01*
X119391192Y-127771098D01*
X119408519Y-127788425D01*
X119428894Y-127802039D01*
X119436553Y-127806133D01*
X119449798Y-127817002D01*
X119460666Y-127830245D01*
X119468743Y-127845357D01*
X119473716Y-127861749D01*
X119476000Y-127884941D01*
X119476000Y-128298659D01*
X119473716Y-128321851D01*
X119468743Y-128338243D01*
X119460666Y-128353355D01*
X119449798Y-128366598D01*
X119436553Y-128377467D01*
X119428894Y-128381561D01*
X119408520Y-128395174D01*
X119391193Y-128412501D01*
X119377579Y-128432876D01*
X119368202Y-128455514D01*
X119363421Y-128479548D01*
X119363421Y-128504052D01*
X119368201Y-128528085D01*
X119377579Y-128550724D01*
X119391192Y-128571098D01*
X119408519Y-128588425D01*
X119428894Y-128602039D01*
X119436553Y-128606133D01*
X119449798Y-128617002D01*
X119460666Y-128630245D01*
X119468743Y-128645357D01*
X119473716Y-128661749D01*
X119476000Y-128684941D01*
X119476000Y-129098659D01*
X119473716Y-129121851D01*
X119468743Y-129138243D01*
X119460666Y-129153355D01*
X119449798Y-129166598D01*
X119436555Y-129177466D01*
X119421443Y-129185543D01*
X119405051Y-129190516D01*
X119381859Y-129192800D01*
X117968141Y-129192800D01*
X117944949Y-129190516D01*
X117928557Y-129185543D01*
X117913445Y-129177466D01*
X117900202Y-129166598D01*
X117889334Y-129153355D01*
X117881257Y-129138243D01*
X117876284Y-129121851D01*
X117874000Y-129098659D01*
X117874000Y-128684941D01*
X117876284Y-128661749D01*
X117881257Y-128645357D01*
X117889334Y-128630245D01*
X117900202Y-128617002D01*
X117913447Y-128606133D01*
X117921106Y-128602039D01*
X117941480Y-128588426D01*
X117958807Y-128571099D01*
X117972421Y-128550724D01*
X117981798Y-128528086D01*
X117986579Y-128504052D01*
X117986579Y-128479548D01*
X117981799Y-128455515D01*
X117972421Y-128432876D01*
X117958808Y-128412502D01*
X117941481Y-128395175D01*
X117921106Y-128381561D01*
X117913447Y-128377467D01*
X117900202Y-128366598D01*
X117889334Y-128353355D01*
X117881257Y-128338243D01*
X117876284Y-128321851D01*
X117874000Y-128298659D01*
X117874000Y-127884941D01*
X117876284Y-127861749D01*
X117881257Y-127845357D01*
X117889334Y-127830245D01*
X117900202Y-127817002D01*
X117913447Y-127806133D01*
X117921106Y-127802039D01*
X117941480Y-127788426D01*
X117958807Y-127771099D01*
X117972421Y-127750724D01*
X117981798Y-127728086D01*
X117986579Y-127704052D01*
X117986579Y-127679548D01*
X117981799Y-127655515D01*
X117972421Y-127632876D01*
X117958808Y-127612502D01*
X117941481Y-127595175D01*
X117921106Y-127581561D01*
X117913447Y-127577467D01*
X117900202Y-127566598D01*
X117889334Y-127553355D01*
X117881257Y-127538243D01*
X117876284Y-127521851D01*
X117874000Y-127498659D01*
X117874000Y-127084941D01*
X117876284Y-127061749D01*
X117881257Y-127045357D01*
X117889334Y-127030245D01*
X117900202Y-127017002D01*
X117913447Y-127006133D01*
X117921106Y-127002039D01*
X117941480Y-126988426D01*
X117958807Y-126971099D01*
X117972421Y-126950724D01*
X117981798Y-126928086D01*
X117986579Y-126904052D01*
X117986579Y-126879548D01*
X117981799Y-126855515D01*
X117972421Y-126832876D01*
X117958808Y-126812502D01*
X117941481Y-126795175D01*
X117921106Y-126781561D01*
X117913447Y-126777467D01*
X117900202Y-126766598D01*
X117889334Y-126753355D01*
X117881257Y-126738243D01*
X117876284Y-126721851D01*
X117874000Y-126698659D01*
X117874000Y-126284941D01*
X117876284Y-126261749D01*
X117881257Y-126245357D01*
X117889334Y-126230245D01*
X117900202Y-126217002D01*
X117913447Y-126206133D01*
X117921106Y-126202039D01*
X117941480Y-126188426D01*
X117958807Y-126171099D01*
X117972421Y-126150724D01*
X117981798Y-126128086D01*
X117986579Y-126104052D01*
X117986579Y-126079548D01*
X117981799Y-126055515D01*
X117972421Y-126032876D01*
X117958808Y-126012502D01*
X117941481Y-125995175D01*
X117921106Y-125981561D01*
X117913447Y-125977467D01*
X117900202Y-125966598D01*
X117889334Y-125953355D01*
X117881257Y-125938243D01*
X117876284Y-125921851D01*
X117874000Y-125898659D01*
X117874000Y-125484941D01*
X117876284Y-125461749D01*
X117881257Y-125445357D01*
X117889334Y-125430245D01*
X117900202Y-125417002D01*
X117913447Y-125406133D01*
X117921106Y-125402039D01*
X117941480Y-125388426D01*
X117958807Y-125371099D01*
X117972421Y-125350724D01*
X117981798Y-125328086D01*
X117986579Y-125304052D01*
X117986579Y-125279548D01*
X117981799Y-125255515D01*
X117972421Y-125232876D01*
X117958808Y-125212502D01*
X117941481Y-125195175D01*
X117921106Y-125181561D01*
X117913447Y-125177467D01*
X117900202Y-125166598D01*
X117889334Y-125153355D01*
X117881257Y-125138243D01*
X117876284Y-125121851D01*
X117874000Y-125098659D01*
X117874000Y-124684941D01*
X117876284Y-124661749D01*
X117881257Y-124645357D01*
X117889334Y-124630245D01*
X117900202Y-124617002D01*
X117913447Y-124606133D01*
X117921106Y-124602039D01*
X117941480Y-124588426D01*
X117958807Y-124571099D01*
X117972421Y-124550724D01*
X117981798Y-124528086D01*
X117986579Y-124504052D01*
X117986579Y-124479548D01*
X117981799Y-124455515D01*
X117972421Y-124432876D01*
X117958808Y-124412502D01*
X117941481Y-124395175D01*
X117921106Y-124381561D01*
X117913447Y-124377467D01*
X117900202Y-124366598D01*
X117889334Y-124353355D01*
X117881257Y-124338243D01*
X117876284Y-124321851D01*
X117874000Y-124298659D01*
X117874000Y-123884941D01*
X117876284Y-123861749D01*
X117881257Y-123845357D01*
X117889334Y-123830245D01*
X117900202Y-123817002D01*
X117913447Y-123806133D01*
X117921106Y-123802039D01*
X117941480Y-123788426D01*
X117958807Y-123771099D01*
X117972421Y-123750724D01*
X117981798Y-123728086D01*
X117986579Y-123704052D01*
X117986579Y-123679548D01*
X117981799Y-123655515D01*
X117972421Y-123632876D01*
X117958808Y-123612502D01*
X117941481Y-123595175D01*
X117921106Y-123581561D01*
X117913447Y-123577467D01*
X117900202Y-123566598D01*
X117889334Y-123553355D01*
X117881257Y-123538243D01*
X117876284Y-123521851D01*
X117874000Y-123498659D01*
X117874000Y-123084941D01*
X117876284Y-123061749D01*
X117881257Y-123045357D01*
X117889334Y-123030245D01*
X117900202Y-123017002D01*
X117913445Y-123006134D01*
X117928557Y-122998057D01*
X117944949Y-122993084D01*
X117968141Y-122990800D01*
X119381859Y-122990800D01*
X119405051Y-122993084D01*
X119405051Y-122993084D01*
G37*
G36*
X127755051Y-122993084D02*
G01*
X127771443Y-122998057D01*
X127786555Y-123006134D01*
X127799798Y-123017002D01*
X127810666Y-123030245D01*
X127818743Y-123045357D01*
X127823716Y-123061749D01*
X127826000Y-123084941D01*
X127826000Y-123498659D01*
X127823716Y-123521851D01*
X127818743Y-123538243D01*
X127810666Y-123553355D01*
X127799798Y-123566598D01*
X127786553Y-123577467D01*
X127778894Y-123581561D01*
X127758520Y-123595174D01*
X127741193Y-123612501D01*
X127727579Y-123632876D01*
X127718202Y-123655514D01*
X127713421Y-123679548D01*
X127713421Y-123704052D01*
X127718201Y-123728085D01*
X127727579Y-123750724D01*
X127741192Y-123771098D01*
X127758519Y-123788425D01*
X127778894Y-123802039D01*
X127786553Y-123806133D01*
X127799798Y-123817002D01*
X127810666Y-123830245D01*
X127818743Y-123845357D01*
X127823716Y-123861749D01*
X127826000Y-123884941D01*
X127826000Y-124298659D01*
X127823716Y-124321851D01*
X127818743Y-124338243D01*
X127810666Y-124353355D01*
X127799798Y-124366598D01*
X127786553Y-124377467D01*
X127778894Y-124381561D01*
X127758520Y-124395174D01*
X127741193Y-124412501D01*
X127727579Y-124432876D01*
X127718202Y-124455514D01*
X127713421Y-124479548D01*
X127713421Y-124504052D01*
X127718201Y-124528085D01*
X127727579Y-124550724D01*
X127741192Y-124571098D01*
X127758519Y-124588425D01*
X127778894Y-124602039D01*
X127786553Y-124606133D01*
X127799798Y-124617002D01*
X127810666Y-124630245D01*
X127818743Y-124645357D01*
X127823716Y-124661749D01*
X127826000Y-124684941D01*
X127826000Y-125098659D01*
X127823716Y-125121851D01*
X127818743Y-125138243D01*
X127810666Y-125153355D01*
X127799798Y-125166598D01*
X127786553Y-125177467D01*
X127778894Y-125181561D01*
X127758520Y-125195174D01*
X127741193Y-125212501D01*
X127727579Y-125232876D01*
X127718202Y-125255514D01*
X127713421Y-125279548D01*
X127713421Y-125304052D01*
X127718201Y-125328085D01*
X127727579Y-125350724D01*
X127741192Y-125371098D01*
X127758519Y-125388425D01*
X127778894Y-125402039D01*
X127786553Y-125406133D01*
X127799798Y-125417002D01*
X127810666Y-125430245D01*
X127818743Y-125445357D01*
X127823716Y-125461749D01*
X127826000Y-125484941D01*
X127826000Y-125898659D01*
X127823716Y-125921851D01*
X127818743Y-125938243D01*
X127810666Y-125953355D01*
X127799798Y-125966598D01*
X127786553Y-125977467D01*
X127778894Y-125981561D01*
X127758520Y-125995174D01*
X127741193Y-126012501D01*
X127727579Y-126032876D01*
X127718202Y-126055514D01*
X127713421Y-126079548D01*
X127713421Y-126104052D01*
X127718201Y-126128085D01*
X127727579Y-126150724D01*
X127741192Y-126171098D01*
X127758519Y-126188425D01*
X127778894Y-126202039D01*
X127786553Y-126206133D01*
X127799798Y-126217002D01*
X127810666Y-126230245D01*
X127818743Y-126245357D01*
X127823716Y-126261749D01*
X127826000Y-126284941D01*
X127826000Y-126698659D01*
X127823716Y-126721851D01*
X127818743Y-126738243D01*
X127810666Y-126753355D01*
X127799798Y-126766598D01*
X127786553Y-126777467D01*
X127778894Y-126781561D01*
X127758520Y-126795174D01*
X127741193Y-126812501D01*
X127727579Y-126832876D01*
X127718202Y-126855514D01*
X127713421Y-126879548D01*
X127713421Y-126904052D01*
X127718201Y-126928085D01*
X127727579Y-126950724D01*
X127741192Y-126971098D01*
X127758519Y-126988425D01*
X127778894Y-127002039D01*
X127786553Y-127006133D01*
X127799798Y-127017002D01*
X127810666Y-127030245D01*
X127818743Y-127045357D01*
X127823716Y-127061749D01*
X127826000Y-127084941D01*
X127826000Y-127498659D01*
X127823716Y-127521851D01*
X127818743Y-127538243D01*
X127810666Y-127553355D01*
X127799798Y-127566598D01*
X127786553Y-127577467D01*
X127778894Y-127581561D01*
X127758520Y-127595174D01*
X127741193Y-127612501D01*
X127727579Y-127632876D01*
X127718202Y-127655514D01*
X127713421Y-127679548D01*
X127713421Y-127704052D01*
X127718201Y-127728085D01*
X127727579Y-127750724D01*
X127741192Y-127771098D01*
X127758519Y-127788425D01*
X127778894Y-127802039D01*
X127786553Y-127806133D01*
X127799798Y-127817002D01*
X127810666Y-127830245D01*
X127818743Y-127845357D01*
X127823716Y-127861749D01*
X127826000Y-127884941D01*
X127826000Y-128298659D01*
X127823716Y-128321851D01*
X127818743Y-128338243D01*
X127810666Y-128353355D01*
X127799798Y-128366598D01*
X127786553Y-128377467D01*
X127778894Y-128381561D01*
X127758520Y-128395174D01*
X127741193Y-128412501D01*
X127727579Y-128432876D01*
X127718202Y-128455514D01*
X127713421Y-128479548D01*
X127713421Y-128504052D01*
X127718201Y-128528085D01*
X127727579Y-128550724D01*
X127741192Y-128571098D01*
X127758519Y-128588425D01*
X127778894Y-128602039D01*
X127786553Y-128606133D01*
X127799798Y-128617002D01*
X127810666Y-128630245D01*
X127818743Y-128645357D01*
X127823716Y-128661749D01*
X127826000Y-128684941D01*
X127826000Y-129098659D01*
X127823716Y-129121851D01*
X127818743Y-129138243D01*
X127810666Y-129153355D01*
X127799798Y-129166598D01*
X127786555Y-129177466D01*
X127771443Y-129185543D01*
X127755051Y-129190516D01*
X127731859Y-129192800D01*
X126318141Y-129192800D01*
X126294949Y-129190516D01*
X126278557Y-129185543D01*
X126263445Y-129177466D01*
X126250202Y-129166598D01*
X126239334Y-129153355D01*
X126231257Y-129138243D01*
X126226284Y-129121851D01*
X126224000Y-129098659D01*
X126224000Y-128684941D01*
X126226284Y-128661749D01*
X126231257Y-128645357D01*
X126239334Y-128630245D01*
X126250202Y-128617002D01*
X126263447Y-128606133D01*
X126271106Y-128602039D01*
X126291480Y-128588426D01*
X126308807Y-128571099D01*
X126322421Y-128550724D01*
X126331798Y-128528086D01*
X126336579Y-128504052D01*
X126336579Y-128479548D01*
X126331799Y-128455515D01*
X126322421Y-128432876D01*
X126308808Y-128412502D01*
X126291481Y-128395175D01*
X126271106Y-128381561D01*
X126263447Y-128377467D01*
X126250202Y-128366598D01*
X126239334Y-128353355D01*
X126231257Y-128338243D01*
X126226284Y-128321851D01*
X126224000Y-128298659D01*
X126224000Y-127884941D01*
X126226284Y-127861749D01*
X126231257Y-127845357D01*
X126239334Y-127830245D01*
X126250202Y-127817002D01*
X126263447Y-127806133D01*
X126271106Y-127802039D01*
X126291480Y-127788426D01*
X126308807Y-127771099D01*
X126322421Y-127750724D01*
X126331798Y-127728086D01*
X126336579Y-127704052D01*
X126336579Y-127679548D01*
X126331799Y-127655515D01*
X126322421Y-127632876D01*
X126308808Y-127612502D01*
X126291481Y-127595175D01*
X126271106Y-127581561D01*
X126263447Y-127577467D01*
X126250202Y-127566598D01*
X126239334Y-127553355D01*
X126231257Y-127538243D01*
X126226284Y-127521851D01*
X126224000Y-127498659D01*
X126224000Y-127084941D01*
X126226284Y-127061749D01*
X126231257Y-127045357D01*
X126239334Y-127030245D01*
X126250202Y-127017002D01*
X126263447Y-127006133D01*
X126271106Y-127002039D01*
X126291480Y-126988426D01*
X126308807Y-126971099D01*
X126322421Y-126950724D01*
X126331798Y-126928086D01*
X126336579Y-126904052D01*
X126336579Y-126879548D01*
X126331799Y-126855515D01*
X126322421Y-126832876D01*
X126308808Y-126812502D01*
X126291481Y-126795175D01*
X126271106Y-126781561D01*
X126263447Y-126777467D01*
X126250202Y-126766598D01*
X126239334Y-126753355D01*
X126231257Y-126738243D01*
X126226284Y-126721851D01*
X126224000Y-126698659D01*
X126224000Y-126284941D01*
X126226284Y-126261749D01*
X126231257Y-126245357D01*
X126239334Y-126230245D01*
X126250202Y-126217002D01*
X126263447Y-126206133D01*
X126271106Y-126202039D01*
X126291480Y-126188426D01*
X126308807Y-126171099D01*
X126322421Y-126150724D01*
X126331798Y-126128086D01*
X126336579Y-126104052D01*
X126336579Y-126079548D01*
X126331799Y-126055515D01*
X126322421Y-126032876D01*
X126308808Y-126012502D01*
X126291481Y-125995175D01*
X126271106Y-125981561D01*
X126263447Y-125977467D01*
X126250202Y-125966598D01*
X126239334Y-125953355D01*
X126231257Y-125938243D01*
X126226284Y-125921851D01*
X126224000Y-125898659D01*
X126224000Y-125484941D01*
X126226284Y-125461749D01*
X126231257Y-125445357D01*
X126239334Y-125430245D01*
X126250202Y-125417002D01*
X126263447Y-125406133D01*
X126271106Y-125402039D01*
X126291480Y-125388426D01*
X126308807Y-125371099D01*
X126322421Y-125350724D01*
X126331798Y-125328086D01*
X126336579Y-125304052D01*
X126336579Y-125279548D01*
X126331799Y-125255515D01*
X126322421Y-125232876D01*
X126308808Y-125212502D01*
X126291481Y-125195175D01*
X126271106Y-125181561D01*
X126263447Y-125177467D01*
X126250202Y-125166598D01*
X126239334Y-125153355D01*
X126231257Y-125138243D01*
X126226284Y-125121851D01*
X126224000Y-125098659D01*
X126224000Y-124684941D01*
X126226284Y-124661749D01*
X126231257Y-124645357D01*
X126239334Y-124630245D01*
X126250202Y-124617002D01*
X126263447Y-124606133D01*
X126271106Y-124602039D01*
X126291480Y-124588426D01*
X126308807Y-124571099D01*
X126322421Y-124550724D01*
X126331798Y-124528086D01*
X126336579Y-124504052D01*
X126336579Y-124479548D01*
X126331799Y-124455515D01*
X126322421Y-124432876D01*
X126308808Y-124412502D01*
X126291481Y-124395175D01*
X126271106Y-124381561D01*
X126263447Y-124377467D01*
X126250202Y-124366598D01*
X126239334Y-124353355D01*
X126231257Y-124338243D01*
X126226284Y-124321851D01*
X126224000Y-124298659D01*
X126224000Y-123884941D01*
X126226284Y-123861749D01*
X126231257Y-123845357D01*
X126239334Y-123830245D01*
X126250202Y-123817002D01*
X126263447Y-123806133D01*
X126271106Y-123802039D01*
X126291480Y-123788426D01*
X126308807Y-123771099D01*
X126322421Y-123750724D01*
X126331798Y-123728086D01*
X126336579Y-123704052D01*
X126336579Y-123679548D01*
X126331799Y-123655515D01*
X126322421Y-123632876D01*
X126308808Y-123612502D01*
X126291481Y-123595175D01*
X126271106Y-123581561D01*
X126263447Y-123577467D01*
X126250202Y-123566598D01*
X126239334Y-123553355D01*
X126231257Y-123538243D01*
X126226284Y-123521851D01*
X126224000Y-123498659D01*
X126224000Y-123084941D01*
X126226284Y-123061749D01*
X126231257Y-123045357D01*
X126239334Y-123030245D01*
X126250202Y-123017002D01*
X126263445Y-123006134D01*
X126278557Y-122998057D01*
X126294949Y-122993084D01*
X126318141Y-122990800D01*
X127731859Y-122990800D01*
X127755051Y-122993084D01*
X127755051Y-122993084D01*
G37*
G36*
X139953800Y-129191200D02*
G01*
X138551800Y-129191200D01*
X138551800Y-127189200D01*
X139953800Y-127189200D01*
X139953800Y-129191200D01*
X139953800Y-129191200D01*
G37*
G36*
X134453800Y-129191200D02*
G01*
X133051800Y-129191200D01*
X133051800Y-127189200D01*
X134453800Y-127189200D01*
X134453800Y-129191200D01*
X134453800Y-129191200D01*
G37*
G36*
X131141074Y-126476865D02*
G01*
X131178767Y-126488299D01*
X131213503Y-126506866D01*
X131243948Y-126531852D01*
X131268934Y-126562297D01*
X131287501Y-126597033D01*
X131298935Y-126634726D01*
X131303400Y-126680061D01*
X131303400Y-127516739D01*
X131298935Y-127562074D01*
X131287501Y-127599767D01*
X131268934Y-127634503D01*
X131243948Y-127664948D01*
X131213503Y-127689934D01*
X131178767Y-127708501D01*
X131141074Y-127719935D01*
X131095739Y-127724400D01*
X130009061Y-127724400D01*
X129963726Y-127719935D01*
X129926033Y-127708501D01*
X129891297Y-127689934D01*
X129860852Y-127664948D01*
X129835866Y-127634503D01*
X129817299Y-127599767D01*
X129805865Y-127562074D01*
X129801400Y-127516739D01*
X129801400Y-126680061D01*
X129805865Y-126634726D01*
X129817299Y-126597033D01*
X129835866Y-126562297D01*
X129860852Y-126531852D01*
X129891297Y-126506866D01*
X129926033Y-126488299D01*
X129963726Y-126476865D01*
X130009061Y-126472400D01*
X131095739Y-126472400D01*
X131141074Y-126476865D01*
X131141074Y-126476865D01*
G37*
G36*
X131141074Y-124784065D02*
G01*
X131178767Y-124795499D01*
X131213503Y-124814066D01*
X131243948Y-124839052D01*
X131268934Y-124869497D01*
X131287501Y-124904233D01*
X131298935Y-124941926D01*
X131303400Y-124987261D01*
X131303400Y-125823939D01*
X131298935Y-125869274D01*
X131287501Y-125906967D01*
X131268934Y-125941703D01*
X131243948Y-125972148D01*
X131213503Y-125997134D01*
X131178767Y-126015701D01*
X131141074Y-126027135D01*
X131095739Y-126031600D01*
X130009061Y-126031600D01*
X129963726Y-126027135D01*
X129926033Y-126015701D01*
X129891297Y-125997134D01*
X129860852Y-125972148D01*
X129835866Y-125941703D01*
X129817299Y-125906967D01*
X129805865Y-125869274D01*
X129801400Y-125823939D01*
X129801400Y-124987261D01*
X129805865Y-124941926D01*
X129817299Y-124904233D01*
X129835866Y-124869497D01*
X129860852Y-124839052D01*
X129891297Y-124814066D01*
X129926033Y-124795499D01*
X129963726Y-124784065D01*
X130009061Y-124779600D01*
X131095739Y-124779600D01*
X131141074Y-124784065D01*
X131141074Y-124784065D01*
G37*
G36*
X139953800Y-125991200D02*
G01*
X138551800Y-125991200D01*
X138551800Y-123989200D01*
X139953800Y-123989200D01*
X139953800Y-125991200D01*
X139953800Y-125991200D01*
G37*
G36*
X134453800Y-125991200D02*
G01*
X133051800Y-125991200D01*
X133051800Y-123989200D01*
X134453800Y-123989200D01*
X134453800Y-125991200D01*
X134453800Y-125991200D01*
G37*
G36*
X131141074Y-122734065D02*
G01*
X131178767Y-122745499D01*
X131213503Y-122764066D01*
X131243948Y-122789052D01*
X131268934Y-122819497D01*
X131287501Y-122854233D01*
X131298935Y-122891926D01*
X131303400Y-122937261D01*
X131303400Y-123773939D01*
X131298935Y-123819274D01*
X131287501Y-123856967D01*
X131268934Y-123891703D01*
X131243948Y-123922148D01*
X131213503Y-123947134D01*
X131178767Y-123965701D01*
X131141074Y-123977135D01*
X131095739Y-123981600D01*
X130009061Y-123981600D01*
X129963726Y-123977135D01*
X129926033Y-123965701D01*
X129891297Y-123947134D01*
X129860852Y-123922148D01*
X129835866Y-123891703D01*
X129817299Y-123856967D01*
X129805865Y-123819274D01*
X129801400Y-123773939D01*
X129801400Y-122937261D01*
X129805865Y-122891926D01*
X129817299Y-122854233D01*
X129835866Y-122819497D01*
X129860852Y-122789052D01*
X129891297Y-122764066D01*
X129926033Y-122745499D01*
X129963726Y-122734065D01*
X130009061Y-122729600D01*
X131095739Y-122729600D01*
X131141074Y-122734065D01*
X131141074Y-122734065D01*
G37*
G36*
X98738200Y-122741600D02*
G01*
X96936200Y-122741600D01*
X96936200Y-120939600D01*
X98738200Y-120939600D01*
X98738200Y-122741600D01*
X98738200Y-122741600D01*
G37*
G36*
X102370400Y-122741600D02*
G01*
X100568400Y-122741600D01*
X100568400Y-120939600D01*
X102370400Y-120939600D01*
X102370400Y-122741600D01*
X102370400Y-122741600D01*
G37*
G36*
X120280051Y-121118084D02*
G01*
X120296443Y-121123057D01*
X120311555Y-121131134D01*
X120324798Y-121142002D01*
X120335667Y-121155247D01*
X120339761Y-121162906D01*
X120353374Y-121183280D01*
X120370701Y-121200607D01*
X120391076Y-121214221D01*
X120413714Y-121223598D01*
X120437748Y-121228379D01*
X120462252Y-121228379D01*
X120486285Y-121223599D01*
X120508924Y-121214221D01*
X120529298Y-121200608D01*
X120546625Y-121183281D01*
X120560239Y-121162906D01*
X120564333Y-121155247D01*
X120575202Y-121142002D01*
X120588445Y-121131134D01*
X120603557Y-121123057D01*
X120619949Y-121118084D01*
X120643141Y-121115800D01*
X121056859Y-121115800D01*
X121080051Y-121118084D01*
X121096443Y-121123057D01*
X121111555Y-121131134D01*
X121124798Y-121142002D01*
X121135667Y-121155247D01*
X121139761Y-121162906D01*
X121153374Y-121183280D01*
X121170701Y-121200607D01*
X121191076Y-121214221D01*
X121213714Y-121223598D01*
X121237748Y-121228379D01*
X121262252Y-121228379D01*
X121286285Y-121223599D01*
X121308924Y-121214221D01*
X121329298Y-121200608D01*
X121346625Y-121183281D01*
X121360239Y-121162906D01*
X121364333Y-121155247D01*
X121375202Y-121142002D01*
X121388445Y-121131134D01*
X121403557Y-121123057D01*
X121419949Y-121118084D01*
X121443141Y-121115800D01*
X121856859Y-121115800D01*
X121880051Y-121118084D01*
X121896443Y-121123057D01*
X121911555Y-121131134D01*
X121924798Y-121142002D01*
X121935667Y-121155247D01*
X121939761Y-121162906D01*
X121953374Y-121183280D01*
X121970701Y-121200607D01*
X121991076Y-121214221D01*
X122013714Y-121223598D01*
X122037748Y-121228379D01*
X122062252Y-121228379D01*
X122086285Y-121223599D01*
X122108924Y-121214221D01*
X122129298Y-121200608D01*
X122146625Y-121183281D01*
X122160239Y-121162906D01*
X122164333Y-121155247D01*
X122175202Y-121142002D01*
X122188445Y-121131134D01*
X122203557Y-121123057D01*
X122219949Y-121118084D01*
X122243141Y-121115800D01*
X122656859Y-121115800D01*
X122680051Y-121118084D01*
X122696443Y-121123057D01*
X122711555Y-121131134D01*
X122724798Y-121142002D01*
X122735667Y-121155247D01*
X122739761Y-121162906D01*
X122753374Y-121183280D01*
X122770701Y-121200607D01*
X122791076Y-121214221D01*
X122813714Y-121223598D01*
X122837748Y-121228379D01*
X122862252Y-121228379D01*
X122886285Y-121223599D01*
X122908924Y-121214221D01*
X122929298Y-121200608D01*
X122946625Y-121183281D01*
X122960239Y-121162906D01*
X122964333Y-121155247D01*
X122975202Y-121142002D01*
X122988445Y-121131134D01*
X123003557Y-121123057D01*
X123019949Y-121118084D01*
X123043141Y-121115800D01*
X123456859Y-121115800D01*
X123480051Y-121118084D01*
X123496443Y-121123057D01*
X123511555Y-121131134D01*
X123524798Y-121142002D01*
X123535667Y-121155247D01*
X123539761Y-121162906D01*
X123553374Y-121183280D01*
X123570701Y-121200607D01*
X123591076Y-121214221D01*
X123613714Y-121223598D01*
X123637748Y-121228379D01*
X123662252Y-121228379D01*
X123686285Y-121223599D01*
X123708924Y-121214221D01*
X123729298Y-121200608D01*
X123746625Y-121183281D01*
X123760239Y-121162906D01*
X123764333Y-121155247D01*
X123775202Y-121142002D01*
X123788445Y-121131134D01*
X123803557Y-121123057D01*
X123819949Y-121118084D01*
X123843141Y-121115800D01*
X124256859Y-121115800D01*
X124280051Y-121118084D01*
X124296443Y-121123057D01*
X124311555Y-121131134D01*
X124324798Y-121142002D01*
X124335667Y-121155247D01*
X124339761Y-121162906D01*
X124353374Y-121183280D01*
X124370701Y-121200607D01*
X124391076Y-121214221D01*
X124413714Y-121223598D01*
X124437748Y-121228379D01*
X124462252Y-121228379D01*
X124486285Y-121223599D01*
X124508924Y-121214221D01*
X124529298Y-121200608D01*
X124546625Y-121183281D01*
X124560239Y-121162906D01*
X124564333Y-121155247D01*
X124575202Y-121142002D01*
X124588445Y-121131134D01*
X124603557Y-121123057D01*
X124619949Y-121118084D01*
X124643141Y-121115800D01*
X125056859Y-121115800D01*
X125080051Y-121118084D01*
X125096443Y-121123057D01*
X125111555Y-121131134D01*
X125124798Y-121142002D01*
X125135667Y-121155247D01*
X125139761Y-121162906D01*
X125153374Y-121183280D01*
X125170701Y-121200607D01*
X125191076Y-121214221D01*
X125213714Y-121223598D01*
X125237748Y-121228379D01*
X125262252Y-121228379D01*
X125286285Y-121223599D01*
X125308924Y-121214221D01*
X125329298Y-121200608D01*
X125346625Y-121183281D01*
X125360239Y-121162906D01*
X125364333Y-121155247D01*
X125375202Y-121142002D01*
X125388445Y-121131134D01*
X125403557Y-121123057D01*
X125419949Y-121118084D01*
X125443141Y-121115800D01*
X125856859Y-121115800D01*
X125880051Y-121118084D01*
X125896443Y-121123057D01*
X125911555Y-121131134D01*
X125924798Y-121142002D01*
X125935666Y-121155245D01*
X125943743Y-121170357D01*
X125948716Y-121186749D01*
X125951000Y-121209941D01*
X125951000Y-122623659D01*
X125948716Y-122646851D01*
X125943743Y-122663243D01*
X125935666Y-122678355D01*
X125924798Y-122691598D01*
X125911555Y-122702466D01*
X125896443Y-122710543D01*
X125880051Y-122715516D01*
X125856859Y-122717800D01*
X125443141Y-122717800D01*
X125419949Y-122715516D01*
X125403557Y-122710543D01*
X125388445Y-122702466D01*
X125375202Y-122691598D01*
X125364333Y-122678353D01*
X125360239Y-122670694D01*
X125346626Y-122650320D01*
X125329299Y-122632993D01*
X125308924Y-122619379D01*
X125286286Y-122610002D01*
X125262252Y-122605221D01*
X125237748Y-122605221D01*
X125213715Y-122610001D01*
X125191076Y-122619379D01*
X125170702Y-122632992D01*
X125153375Y-122650319D01*
X125139761Y-122670694D01*
X125135667Y-122678353D01*
X125124798Y-122691598D01*
X125111555Y-122702466D01*
X125096443Y-122710543D01*
X125080051Y-122715516D01*
X125056859Y-122717800D01*
X124643141Y-122717800D01*
X124619949Y-122715516D01*
X124603557Y-122710543D01*
X124588445Y-122702466D01*
X124575202Y-122691598D01*
X124564333Y-122678353D01*
X124560239Y-122670694D01*
X124546626Y-122650320D01*
X124529299Y-122632993D01*
X124508924Y-122619379D01*
X124486286Y-122610002D01*
X124462252Y-122605221D01*
X124437748Y-122605221D01*
X124413715Y-122610001D01*
X124391076Y-122619379D01*
X124370702Y-122632992D01*
X124353375Y-122650319D01*
X124339761Y-122670694D01*
X124335667Y-122678353D01*
X124324798Y-122691598D01*
X124311555Y-122702466D01*
X124296443Y-122710543D01*
X124280051Y-122715516D01*
X124256859Y-122717800D01*
X123843141Y-122717800D01*
X123819949Y-122715516D01*
X123803557Y-122710543D01*
X123788445Y-122702466D01*
X123775202Y-122691598D01*
X123764333Y-122678353D01*
X123760239Y-122670694D01*
X123746626Y-122650320D01*
X123729299Y-122632993D01*
X123708924Y-122619379D01*
X123686286Y-122610002D01*
X123662252Y-122605221D01*
X123637748Y-122605221D01*
X123613715Y-122610001D01*
X123591076Y-122619379D01*
X123570702Y-122632992D01*
X123553375Y-122650319D01*
X123539761Y-122670694D01*
X123535667Y-122678353D01*
X123524798Y-122691598D01*
X123511555Y-122702466D01*
X123496443Y-122710543D01*
X123480051Y-122715516D01*
X123456859Y-122717800D01*
X123043141Y-122717800D01*
X123019949Y-122715516D01*
X123003557Y-122710543D01*
X122988445Y-122702466D01*
X122975202Y-122691598D01*
X122964333Y-122678353D01*
X122960239Y-122670694D01*
X122946626Y-122650320D01*
X122929299Y-122632993D01*
X122908924Y-122619379D01*
X122886286Y-122610002D01*
X122862252Y-122605221D01*
X122837748Y-122605221D01*
X122813715Y-122610001D01*
X122791076Y-122619379D01*
X122770702Y-122632992D01*
X122753375Y-122650319D01*
X122739761Y-122670694D01*
X122735667Y-122678353D01*
X122724798Y-122691598D01*
X122711555Y-122702466D01*
X122696443Y-122710543D01*
X122680051Y-122715516D01*
X122656859Y-122717800D01*
X122243141Y-122717800D01*
X122219949Y-122715516D01*
X122203557Y-122710543D01*
X122188445Y-122702466D01*
X122175202Y-122691598D01*
X122164333Y-122678353D01*
X122160239Y-122670694D01*
X122146626Y-122650320D01*
X122129299Y-122632993D01*
X122108924Y-122619379D01*
X122086286Y-122610002D01*
X122062252Y-122605221D01*
X122037748Y-122605221D01*
X122013715Y-122610001D01*
X121991076Y-122619379D01*
X121970702Y-122632992D01*
X121953375Y-122650319D01*
X121939761Y-122670694D01*
X121935667Y-122678353D01*
X121924798Y-122691598D01*
X121911555Y-122702466D01*
X121896443Y-122710543D01*
X121880051Y-122715516D01*
X121856859Y-122717800D01*
X121443141Y-122717800D01*
X121419949Y-122715516D01*
X121403557Y-122710543D01*
X121388445Y-122702466D01*
X121375202Y-122691598D01*
X121364333Y-122678353D01*
X121360239Y-122670694D01*
X121346626Y-122650320D01*
X121329299Y-122632993D01*
X121308924Y-122619379D01*
X121286286Y-122610002D01*
X121262252Y-122605221D01*
X121237748Y-122605221D01*
X121213715Y-122610001D01*
X121191076Y-122619379D01*
X121170702Y-122632992D01*
X121153375Y-122650319D01*
X121139761Y-122670694D01*
X121135667Y-122678353D01*
X121124798Y-122691598D01*
X121111555Y-122702466D01*
X121096443Y-122710543D01*
X121080051Y-122715516D01*
X121056859Y-122717800D01*
X120643141Y-122717800D01*
X120619949Y-122715516D01*
X120603557Y-122710543D01*
X120588445Y-122702466D01*
X120575202Y-122691598D01*
X120564333Y-122678353D01*
X120560239Y-122670694D01*
X120546626Y-122650320D01*
X120529299Y-122632993D01*
X120508924Y-122619379D01*
X120486286Y-122610002D01*
X120462252Y-122605221D01*
X120437748Y-122605221D01*
X120413715Y-122610001D01*
X120391076Y-122619379D01*
X120370702Y-122632992D01*
X120353375Y-122650319D01*
X120339761Y-122670694D01*
X120335667Y-122678353D01*
X120324798Y-122691598D01*
X120311555Y-122702466D01*
X120296443Y-122710543D01*
X120280051Y-122715516D01*
X120256859Y-122717800D01*
X119843141Y-122717800D01*
X119819949Y-122715516D01*
X119803557Y-122710543D01*
X119788445Y-122702466D01*
X119775202Y-122691598D01*
X119764334Y-122678355D01*
X119756257Y-122663243D01*
X119751284Y-122646851D01*
X119749000Y-122623659D01*
X119749000Y-121209941D01*
X119751284Y-121186749D01*
X119756257Y-121170357D01*
X119764334Y-121155245D01*
X119775202Y-121142002D01*
X119788445Y-121131134D01*
X119803557Y-121123057D01*
X119819949Y-121118084D01*
X119843141Y-121115800D01*
X120256859Y-121115800D01*
X120280051Y-121118084D01*
X120280051Y-121118084D01*
G37*
G36*
X118604474Y-120662265D02*
G01*
X118642167Y-120673699D01*
X118676903Y-120692266D01*
X118707348Y-120717252D01*
X118732334Y-120747697D01*
X118750901Y-120782433D01*
X118762335Y-120820126D01*
X118766800Y-120865461D01*
X118766800Y-121952139D01*
X118762335Y-121997474D01*
X118750901Y-122035167D01*
X118732334Y-122069903D01*
X118707348Y-122100348D01*
X118676903Y-122125334D01*
X118642167Y-122143901D01*
X118604474Y-122155335D01*
X118559139Y-122159800D01*
X117722461Y-122159800D01*
X117677126Y-122155335D01*
X117639433Y-122143901D01*
X117604697Y-122125334D01*
X117574252Y-122100348D01*
X117549266Y-122069903D01*
X117530699Y-122035167D01*
X117519265Y-121997474D01*
X117514800Y-121952139D01*
X117514800Y-120865461D01*
X117519265Y-120820126D01*
X117530699Y-120782433D01*
X117549266Y-120747697D01*
X117574252Y-120717252D01*
X117604697Y-120692266D01*
X117639433Y-120673699D01*
X117677126Y-120662265D01*
X117722461Y-120657800D01*
X118559139Y-120657800D01*
X118604474Y-120662265D01*
X118604474Y-120662265D01*
G37*
G36*
X116554474Y-120662265D02*
G01*
X116592167Y-120673699D01*
X116626903Y-120692266D01*
X116657348Y-120717252D01*
X116682334Y-120747697D01*
X116700901Y-120782433D01*
X116712335Y-120820126D01*
X116716800Y-120865461D01*
X116716800Y-121952139D01*
X116712335Y-121997474D01*
X116700901Y-122035167D01*
X116682334Y-122069903D01*
X116657348Y-122100348D01*
X116626903Y-122125334D01*
X116592167Y-122143901D01*
X116554474Y-122155335D01*
X116509139Y-122159800D01*
X115672461Y-122159800D01*
X115627126Y-122155335D01*
X115589433Y-122143901D01*
X115554697Y-122125334D01*
X115524252Y-122100348D01*
X115499266Y-122069903D01*
X115480699Y-122035167D01*
X115469265Y-121997474D01*
X115464800Y-121952139D01*
X115464800Y-120865461D01*
X115469265Y-120820126D01*
X115480699Y-120782433D01*
X115499266Y-120747697D01*
X115524252Y-120717252D01*
X115554697Y-120692266D01*
X115589433Y-120673699D01*
X115627126Y-120662265D01*
X115672461Y-120657800D01*
X116509139Y-120657800D01*
X116554474Y-120662265D01*
X116554474Y-120662265D01*
G37*
G36*
X130386600Y-121497000D02*
G01*
X128584600Y-121497000D01*
X128584600Y-119695000D01*
X130386600Y-119695000D01*
X130386600Y-121497000D01*
X130386600Y-121497000D01*
G37*
G36*
X132136043Y-119701519D02*
G01*
X132202227Y-119708037D01*
X132372066Y-119759557D01*
X132528591Y-119843222D01*
X132564329Y-119872552D01*
X132665786Y-119955814D01*
X132745854Y-120053379D01*
X132778378Y-120093009D01*
X132862043Y-120249534D01*
X132913563Y-120419373D01*
X132930959Y-120596000D01*
X132913563Y-120772627D01*
X132862043Y-120942466D01*
X132778378Y-121098991D01*
X132758627Y-121123057D01*
X132665786Y-121236186D01*
X132564329Y-121319448D01*
X132528591Y-121348778D01*
X132372066Y-121432443D01*
X132202227Y-121483963D01*
X132136043Y-121490481D01*
X132069860Y-121497000D01*
X131981340Y-121497000D01*
X131915157Y-121490481D01*
X131848973Y-121483963D01*
X131679134Y-121432443D01*
X131522609Y-121348778D01*
X131486871Y-121319448D01*
X131385414Y-121236186D01*
X131292573Y-121123057D01*
X131272822Y-121098991D01*
X131189157Y-120942466D01*
X131137637Y-120772627D01*
X131120241Y-120596000D01*
X131137637Y-120419373D01*
X131189157Y-120249534D01*
X131272822Y-120093009D01*
X131305346Y-120053379D01*
X131385414Y-119955814D01*
X131486871Y-119872552D01*
X131522609Y-119843222D01*
X131679134Y-119759557D01*
X131848973Y-119708037D01*
X131915157Y-119701519D01*
X131981340Y-119695000D01*
X132069860Y-119695000D01*
X132136043Y-119701519D01*
X132136043Y-119701519D01*
G37*
G36*
X101579842Y-118406118D02*
G01*
X101646027Y-118412637D01*
X101815866Y-118464157D01*
X101972391Y-118547822D01*
X102008129Y-118577152D01*
X102109586Y-118660414D01*
X102192848Y-118761871D01*
X102222178Y-118797609D01*
X102233866Y-118819475D01*
X102300407Y-118943963D01*
X102305843Y-118954134D01*
X102357363Y-119123973D01*
X102374759Y-119300600D01*
X102357363Y-119477227D01*
X102305843Y-119647066D01*
X102222178Y-119803591D01*
X102200318Y-119830227D01*
X102109586Y-119940786D01*
X102022197Y-120012503D01*
X101972391Y-120053378D01*
X101815866Y-120137043D01*
X101646027Y-120188563D01*
X101579842Y-120195082D01*
X101513660Y-120201600D01*
X101425140Y-120201600D01*
X101358958Y-120195082D01*
X101292773Y-120188563D01*
X101122934Y-120137043D01*
X100966409Y-120053378D01*
X100916603Y-120012503D01*
X100829214Y-119940786D01*
X100738482Y-119830227D01*
X100716622Y-119803591D01*
X100632957Y-119647066D01*
X100581437Y-119477227D01*
X100564041Y-119300600D01*
X100581437Y-119123973D01*
X100632957Y-118954134D01*
X100638394Y-118943963D01*
X100704934Y-118819475D01*
X100716622Y-118797609D01*
X100745952Y-118761871D01*
X100829214Y-118660414D01*
X100930671Y-118577152D01*
X100966409Y-118547822D01*
X101122934Y-118464157D01*
X101292773Y-118412637D01*
X101358958Y-118406118D01*
X101425140Y-118399600D01*
X101513660Y-118399600D01*
X101579842Y-118406118D01*
X101579842Y-118406118D01*
G37*
G36*
X97947642Y-118406118D02*
G01*
X98013827Y-118412637D01*
X98183666Y-118464157D01*
X98340191Y-118547822D01*
X98375929Y-118577152D01*
X98477386Y-118660414D01*
X98560648Y-118761871D01*
X98589978Y-118797609D01*
X98601666Y-118819475D01*
X98668207Y-118943963D01*
X98673643Y-118954134D01*
X98725163Y-119123973D01*
X98742559Y-119300600D01*
X98725163Y-119477227D01*
X98673643Y-119647066D01*
X98589978Y-119803591D01*
X98568118Y-119830227D01*
X98477386Y-119940786D01*
X98389997Y-120012503D01*
X98340191Y-120053378D01*
X98183666Y-120137043D01*
X98013827Y-120188563D01*
X97947642Y-120195082D01*
X97881460Y-120201600D01*
X97792940Y-120201600D01*
X97726758Y-120195082D01*
X97660573Y-120188563D01*
X97490734Y-120137043D01*
X97334209Y-120053378D01*
X97284403Y-120012503D01*
X97197014Y-119940786D01*
X97106282Y-119830227D01*
X97084422Y-119803591D01*
X97000757Y-119647066D01*
X96949237Y-119477227D01*
X96931841Y-119300600D01*
X96949237Y-119123973D01*
X97000757Y-118954134D01*
X97006194Y-118943963D01*
X97072734Y-118819475D01*
X97084422Y-118797609D01*
X97113752Y-118761871D01*
X97197014Y-118660414D01*
X97298471Y-118577152D01*
X97334209Y-118547822D01*
X97490734Y-118464157D01*
X97660573Y-118412637D01*
X97726758Y-118406118D01*
X97792940Y-118399600D01*
X97881460Y-118399600D01*
X97947642Y-118406118D01*
X97947642Y-118406118D01*
G37*
G36*
X118588074Y-118604865D02*
G01*
X118625767Y-118616299D01*
X118660503Y-118634866D01*
X118690948Y-118659852D01*
X118715934Y-118690297D01*
X118734501Y-118725033D01*
X118745935Y-118762726D01*
X118750400Y-118808061D01*
X118750400Y-119894739D01*
X118745935Y-119940074D01*
X118734501Y-119977767D01*
X118715934Y-120012503D01*
X118690948Y-120042948D01*
X118660503Y-120067934D01*
X118625767Y-120086501D01*
X118588074Y-120097935D01*
X118542739Y-120102400D01*
X117706061Y-120102400D01*
X117660726Y-120097935D01*
X117623033Y-120086501D01*
X117588297Y-120067934D01*
X117557852Y-120042948D01*
X117532866Y-120012503D01*
X117514299Y-119977767D01*
X117502865Y-119940074D01*
X117498400Y-119894739D01*
X117498400Y-118808061D01*
X117502865Y-118762726D01*
X117514299Y-118725033D01*
X117532866Y-118690297D01*
X117557852Y-118659852D01*
X117588297Y-118634866D01*
X117623033Y-118616299D01*
X117660726Y-118604865D01*
X117706061Y-118600400D01*
X118542739Y-118600400D01*
X118588074Y-118604865D01*
X118588074Y-118604865D01*
G37*
G36*
X116538074Y-118604865D02*
G01*
X116575767Y-118616299D01*
X116610503Y-118634866D01*
X116640948Y-118659852D01*
X116665934Y-118690297D01*
X116684501Y-118725033D01*
X116695935Y-118762726D01*
X116700400Y-118808061D01*
X116700400Y-119894739D01*
X116695935Y-119940074D01*
X116684501Y-119977767D01*
X116665934Y-120012503D01*
X116640948Y-120042948D01*
X116610503Y-120067934D01*
X116575767Y-120086501D01*
X116538074Y-120097935D01*
X116492739Y-120102400D01*
X115656061Y-120102400D01*
X115610726Y-120097935D01*
X115573033Y-120086501D01*
X115538297Y-120067934D01*
X115507852Y-120042948D01*
X115482866Y-120012503D01*
X115464299Y-119977767D01*
X115452865Y-119940074D01*
X115448400Y-119894739D01*
X115448400Y-118808061D01*
X115452865Y-118762726D01*
X115464299Y-118725033D01*
X115482866Y-118690297D01*
X115507852Y-118659852D01*
X115538297Y-118634866D01*
X115573033Y-118616299D01*
X115610726Y-118604865D01*
X115656061Y-118600400D01*
X116492739Y-118600400D01*
X116538074Y-118604865D01*
X116538074Y-118604865D01*
G37*
G36*
X126619874Y-118357865D02*
G01*
X126657567Y-118369299D01*
X126692303Y-118387866D01*
X126722748Y-118412852D01*
X126747734Y-118443297D01*
X126766301Y-118478033D01*
X126777735Y-118515726D01*
X126782200Y-118561061D01*
X126782200Y-119397739D01*
X126777735Y-119443074D01*
X126766301Y-119480767D01*
X126747734Y-119515503D01*
X126722748Y-119545948D01*
X126692303Y-119570934D01*
X126657567Y-119589501D01*
X126619874Y-119600935D01*
X126574539Y-119605400D01*
X125487861Y-119605400D01*
X125442526Y-119600935D01*
X125404833Y-119589501D01*
X125370097Y-119570934D01*
X125339652Y-119545948D01*
X125314666Y-119515503D01*
X125296099Y-119480767D01*
X125284665Y-119443074D01*
X125280200Y-119397739D01*
X125280200Y-118561061D01*
X125284665Y-118515726D01*
X125296099Y-118478033D01*
X125314666Y-118443297D01*
X125339652Y-118412852D01*
X125370097Y-118387866D01*
X125404833Y-118369299D01*
X125442526Y-118357865D01*
X125487861Y-118353400D01*
X126574539Y-118353400D01*
X126619874Y-118357865D01*
X126619874Y-118357865D01*
G37*
G36*
X122209674Y-117817465D02*
G01*
X122247367Y-117828899D01*
X122282103Y-117847466D01*
X122312548Y-117872452D01*
X122337534Y-117902897D01*
X122356101Y-117937633D01*
X122367535Y-117975326D01*
X122372000Y-118020661D01*
X122372000Y-119107339D01*
X122367535Y-119152674D01*
X122356101Y-119190367D01*
X122337534Y-119225103D01*
X122312548Y-119255548D01*
X122282103Y-119280534D01*
X122247367Y-119299101D01*
X122209674Y-119310535D01*
X122164339Y-119315000D01*
X121327661Y-119315000D01*
X121282326Y-119310535D01*
X121244633Y-119299101D01*
X121209897Y-119280534D01*
X121179452Y-119255548D01*
X121154466Y-119225103D01*
X121135899Y-119190367D01*
X121124465Y-119152674D01*
X121120000Y-119107339D01*
X121120000Y-118020661D01*
X121124465Y-117975326D01*
X121135899Y-117937633D01*
X121154466Y-117902897D01*
X121179452Y-117872452D01*
X121209897Y-117847466D01*
X121244633Y-117828899D01*
X121282326Y-117817465D01*
X121327661Y-117813000D01*
X122164339Y-117813000D01*
X122209674Y-117817465D01*
X122209674Y-117817465D01*
G37*
G36*
X124259674Y-117817465D02*
G01*
X124297367Y-117828899D01*
X124332103Y-117847466D01*
X124362548Y-117872452D01*
X124387534Y-117902897D01*
X124406101Y-117937633D01*
X124417535Y-117975326D01*
X124422000Y-118020661D01*
X124422000Y-119107339D01*
X124417535Y-119152674D01*
X124406101Y-119190367D01*
X124387534Y-119225103D01*
X124362548Y-119255548D01*
X124332103Y-119280534D01*
X124297367Y-119299101D01*
X124259674Y-119310535D01*
X124214339Y-119315000D01*
X123377661Y-119315000D01*
X123332326Y-119310535D01*
X123294633Y-119299101D01*
X123259897Y-119280534D01*
X123229452Y-119255548D01*
X123204466Y-119225103D01*
X123185899Y-119190367D01*
X123174465Y-119152674D01*
X123170000Y-119107339D01*
X123170000Y-118020661D01*
X123174465Y-117975326D01*
X123185899Y-117937633D01*
X123204466Y-117902897D01*
X123229452Y-117872452D01*
X123259897Y-117847466D01*
X123294633Y-117828899D01*
X123332326Y-117817465D01*
X123377661Y-117813000D01*
X124214339Y-117813000D01*
X124259674Y-117817465D01*
X124259674Y-117817465D01*
G37*
G36*
X129596042Y-117161518D02*
G01*
X129662227Y-117168037D01*
X129832066Y-117219557D01*
X129988591Y-117303222D01*
X130024329Y-117332552D01*
X130125786Y-117415814D01*
X130205854Y-117513379D01*
X130238378Y-117553009D01*
X130322043Y-117709534D01*
X130373563Y-117879373D01*
X130390959Y-118056000D01*
X130373563Y-118232627D01*
X130322912Y-118399600D01*
X130322042Y-118402468D01*
X130316492Y-118412852D01*
X130238378Y-118558991D01*
X130209048Y-118594729D01*
X130125786Y-118696186D01*
X130037771Y-118768417D01*
X129988591Y-118808778D01*
X129832066Y-118892443D01*
X129662227Y-118943963D01*
X129596043Y-118950481D01*
X129529860Y-118957000D01*
X129441340Y-118957000D01*
X129375157Y-118950481D01*
X129308973Y-118943963D01*
X129139134Y-118892443D01*
X128982609Y-118808778D01*
X128933429Y-118768417D01*
X128845414Y-118696186D01*
X128762152Y-118594729D01*
X128732822Y-118558991D01*
X128654708Y-118412852D01*
X128649158Y-118402468D01*
X128648288Y-118399600D01*
X128597637Y-118232627D01*
X128580241Y-118056000D01*
X128597637Y-117879373D01*
X128649157Y-117709534D01*
X128732822Y-117553009D01*
X128765346Y-117513379D01*
X128845414Y-117415814D01*
X128946871Y-117332552D01*
X128982609Y-117303222D01*
X129139134Y-117219557D01*
X129308973Y-117168037D01*
X129375158Y-117161518D01*
X129441340Y-117155000D01*
X129529860Y-117155000D01*
X129596042Y-117161518D01*
X129596042Y-117161518D01*
G37*
G36*
X132136042Y-117161518D02*
G01*
X132202227Y-117168037D01*
X132372066Y-117219557D01*
X132528591Y-117303222D01*
X132564329Y-117332552D01*
X132665786Y-117415814D01*
X132745854Y-117513379D01*
X132778378Y-117553009D01*
X132862043Y-117709534D01*
X132913563Y-117879373D01*
X132930959Y-118056000D01*
X132913563Y-118232627D01*
X132862912Y-118399600D01*
X132862042Y-118402468D01*
X132856492Y-118412852D01*
X132778378Y-118558991D01*
X132749048Y-118594729D01*
X132665786Y-118696186D01*
X132577771Y-118768417D01*
X132528591Y-118808778D01*
X132372066Y-118892443D01*
X132202227Y-118943963D01*
X132136043Y-118950481D01*
X132069860Y-118957000D01*
X131981340Y-118957000D01*
X131915157Y-118950481D01*
X131848973Y-118943963D01*
X131679134Y-118892443D01*
X131522609Y-118808778D01*
X131473429Y-118768417D01*
X131385414Y-118696186D01*
X131302152Y-118594729D01*
X131272822Y-118558991D01*
X131194708Y-118412852D01*
X131189158Y-118402468D01*
X131188288Y-118399600D01*
X131137637Y-118232627D01*
X131120241Y-118056000D01*
X131137637Y-117879373D01*
X131189157Y-117709534D01*
X131272822Y-117553009D01*
X131305346Y-117513379D01*
X131385414Y-117415814D01*
X131486871Y-117332552D01*
X131522609Y-117303222D01*
X131679134Y-117219557D01*
X131848973Y-117168037D01*
X131915158Y-117161518D01*
X131981340Y-117155000D01*
X132069860Y-117155000D01*
X132136042Y-117161518D01*
X132136042Y-117161518D01*
G37*
G36*
X97947643Y-115866119D02*
G01*
X98013827Y-115872637D01*
X98183666Y-115924157D01*
X98340191Y-116007822D01*
X98372089Y-116034000D01*
X98477386Y-116120414D01*
X98560648Y-116221871D01*
X98589978Y-116257609D01*
X98622952Y-116319299D01*
X98657065Y-116383118D01*
X98673643Y-116414134D01*
X98725163Y-116583973D01*
X98742559Y-116760600D01*
X98725163Y-116937227D01*
X98673643Y-117107066D01*
X98589978Y-117263591D01*
X98573863Y-117283227D01*
X98477386Y-117400786D01*
X98375929Y-117484048D01*
X98340191Y-117513378D01*
X98183666Y-117597043D01*
X98013827Y-117648563D01*
X97947643Y-117655081D01*
X97881460Y-117661600D01*
X97792940Y-117661600D01*
X97726757Y-117655081D01*
X97660573Y-117648563D01*
X97490734Y-117597043D01*
X97334209Y-117513378D01*
X97298471Y-117484048D01*
X97197014Y-117400786D01*
X97100537Y-117283227D01*
X97084422Y-117263591D01*
X97000757Y-117107066D01*
X96949237Y-116937227D01*
X96931841Y-116760600D01*
X96949237Y-116583973D01*
X97000757Y-116414134D01*
X97017336Y-116383118D01*
X97051448Y-116319299D01*
X97084422Y-116257609D01*
X97113752Y-116221871D01*
X97197014Y-116120414D01*
X97302311Y-116034000D01*
X97334209Y-116007822D01*
X97490734Y-115924157D01*
X97660573Y-115872637D01*
X97726757Y-115866119D01*
X97792940Y-115859600D01*
X97881460Y-115859600D01*
X97947643Y-115866119D01*
X97947643Y-115866119D01*
G37*
G36*
X101579843Y-115866119D02*
G01*
X101646027Y-115872637D01*
X101815866Y-115924157D01*
X101972391Y-116007822D01*
X102004289Y-116034000D01*
X102109586Y-116120414D01*
X102192848Y-116221871D01*
X102222178Y-116257609D01*
X102255152Y-116319299D01*
X102289265Y-116383118D01*
X102305843Y-116414134D01*
X102357363Y-116583973D01*
X102374759Y-116760600D01*
X102357363Y-116937227D01*
X102305843Y-117107066D01*
X102222178Y-117263591D01*
X102206063Y-117283227D01*
X102109586Y-117400786D01*
X102008129Y-117484048D01*
X101972391Y-117513378D01*
X101815866Y-117597043D01*
X101646027Y-117648563D01*
X101579843Y-117655081D01*
X101513660Y-117661600D01*
X101425140Y-117661600D01*
X101358957Y-117655081D01*
X101292773Y-117648563D01*
X101122934Y-117597043D01*
X100966409Y-117513378D01*
X100930671Y-117484048D01*
X100829214Y-117400786D01*
X100732737Y-117283227D01*
X100716622Y-117263591D01*
X100632957Y-117107066D01*
X100581437Y-116937227D01*
X100564041Y-116760600D01*
X100581437Y-116583973D01*
X100632957Y-116414134D01*
X100649536Y-116383118D01*
X100683648Y-116319299D01*
X100716622Y-116257609D01*
X100745952Y-116221871D01*
X100829214Y-116120414D01*
X100934511Y-116034000D01*
X100966409Y-116007822D01*
X101122934Y-115924157D01*
X101292773Y-115872637D01*
X101358957Y-115866119D01*
X101425140Y-115859600D01*
X101513660Y-115859600D01*
X101579843Y-115866119D01*
X101579843Y-115866119D01*
G37*
G36*
X126619874Y-116307865D02*
G01*
X126657567Y-116319299D01*
X126692303Y-116337866D01*
X126722748Y-116362852D01*
X126747734Y-116393297D01*
X126766301Y-116428033D01*
X126777735Y-116465726D01*
X126782200Y-116511061D01*
X126782200Y-117347739D01*
X126777735Y-117393074D01*
X126766301Y-117430767D01*
X126747734Y-117465503D01*
X126722748Y-117495948D01*
X126692303Y-117520934D01*
X126657567Y-117539501D01*
X126619874Y-117550935D01*
X126574539Y-117555400D01*
X125487861Y-117555400D01*
X125442526Y-117550935D01*
X125404833Y-117539501D01*
X125370097Y-117520934D01*
X125339652Y-117495948D01*
X125314666Y-117465503D01*
X125296099Y-117430767D01*
X125284665Y-117393074D01*
X125280200Y-117347739D01*
X125280200Y-116511061D01*
X125284665Y-116465726D01*
X125296099Y-116428033D01*
X125314666Y-116393297D01*
X125339652Y-116362852D01*
X125370097Y-116337866D01*
X125404833Y-116319299D01*
X125442526Y-116307865D01*
X125487861Y-116303400D01*
X126574539Y-116303400D01*
X126619874Y-116307865D01*
X126619874Y-116307865D01*
G37*
G36*
X123976200Y-116636000D02*
G01*
X120974200Y-116636000D01*
X120974200Y-116034000D01*
X123976200Y-116034000D01*
X123976200Y-116636000D01*
X123976200Y-116636000D01*
G37*
G36*
X129272474Y-114210665D02*
G01*
X129310167Y-114222099D01*
X129344903Y-114240666D01*
X129375348Y-114265652D01*
X129400334Y-114296097D01*
X129418901Y-114330833D01*
X129430335Y-114368526D01*
X129434800Y-114413861D01*
X129434800Y-115500539D01*
X129430335Y-115545874D01*
X129418901Y-115583567D01*
X129400334Y-115618303D01*
X129375348Y-115648748D01*
X129344903Y-115673734D01*
X129310167Y-115692301D01*
X129272474Y-115703735D01*
X129227139Y-115708200D01*
X128390461Y-115708200D01*
X128345126Y-115703735D01*
X128307433Y-115692301D01*
X128272697Y-115673734D01*
X128242252Y-115648748D01*
X128217266Y-115618303D01*
X128198699Y-115583567D01*
X128187265Y-115545874D01*
X128182800Y-115500539D01*
X128182800Y-114413861D01*
X128187265Y-114368526D01*
X128198699Y-114330833D01*
X128217266Y-114296097D01*
X128242252Y-114265652D01*
X128272697Y-114240666D01*
X128307433Y-114222099D01*
X128345126Y-114210665D01*
X128390461Y-114206200D01*
X129227139Y-114206200D01*
X129272474Y-114210665D01*
X129272474Y-114210665D01*
G37*
G36*
X127222474Y-114210665D02*
G01*
X127260167Y-114222099D01*
X127294903Y-114240666D01*
X127325348Y-114265652D01*
X127350334Y-114296097D01*
X127368901Y-114330833D01*
X127380335Y-114368526D01*
X127384800Y-114413861D01*
X127384800Y-115500539D01*
X127380335Y-115545874D01*
X127368901Y-115583567D01*
X127350334Y-115618303D01*
X127325348Y-115648748D01*
X127294903Y-115673734D01*
X127260167Y-115692301D01*
X127222474Y-115703735D01*
X127177139Y-115708200D01*
X126340461Y-115708200D01*
X126295126Y-115703735D01*
X126257433Y-115692301D01*
X126222697Y-115673734D01*
X126192252Y-115648748D01*
X126167266Y-115618303D01*
X126148699Y-115583567D01*
X126137265Y-115545874D01*
X126132800Y-115500539D01*
X126132800Y-114413861D01*
X126137265Y-114368526D01*
X126148699Y-114330833D01*
X126167266Y-114296097D01*
X126192252Y-114265652D01*
X126222697Y-114240666D01*
X126257433Y-114222099D01*
X126295126Y-114210665D01*
X126340461Y-114206200D01*
X127177139Y-114206200D01*
X127222474Y-114210665D01*
X127222474Y-114210665D01*
G37*
G36*
X97947643Y-113326119D02*
G01*
X98013827Y-113332637D01*
X98183666Y-113384157D01*
X98340191Y-113467822D01*
X98375929Y-113497152D01*
X98477386Y-113580414D01*
X98560648Y-113681871D01*
X98589978Y-113717609D01*
X98673643Y-113874134D01*
X98725163Y-114043973D01*
X98742559Y-114220600D01*
X98725163Y-114397227D01*
X98673643Y-114567066D01*
X98589978Y-114723591D01*
X98560648Y-114759329D01*
X98477386Y-114860786D01*
X98375929Y-114944048D01*
X98340191Y-114973378D01*
X98183666Y-115057043D01*
X98013827Y-115108563D01*
X97947642Y-115115082D01*
X97881460Y-115121600D01*
X97792940Y-115121600D01*
X97726758Y-115115082D01*
X97660573Y-115108563D01*
X97490734Y-115057043D01*
X97334209Y-114973378D01*
X97298471Y-114944048D01*
X97197014Y-114860786D01*
X97113752Y-114759329D01*
X97084422Y-114723591D01*
X97000757Y-114567066D01*
X96949237Y-114397227D01*
X96931841Y-114220600D01*
X96949237Y-114043973D01*
X97000757Y-113874134D01*
X97084422Y-113717609D01*
X97113752Y-113681871D01*
X97197014Y-113580414D01*
X97298471Y-113497152D01*
X97334209Y-113467822D01*
X97490734Y-113384157D01*
X97660573Y-113332637D01*
X97726757Y-113326119D01*
X97792940Y-113319600D01*
X97881460Y-113319600D01*
X97947643Y-113326119D01*
X97947643Y-113326119D01*
G37*
G36*
X101579843Y-113326119D02*
G01*
X101646027Y-113332637D01*
X101815866Y-113384157D01*
X101972391Y-113467822D01*
X102008129Y-113497152D01*
X102109586Y-113580414D01*
X102192848Y-113681871D01*
X102222178Y-113717609D01*
X102305843Y-113874134D01*
X102357363Y-114043973D01*
X102374759Y-114220600D01*
X102357363Y-114397227D01*
X102305843Y-114567066D01*
X102222178Y-114723591D01*
X102192848Y-114759329D01*
X102109586Y-114860786D01*
X102008129Y-114944048D01*
X101972391Y-114973378D01*
X101815866Y-115057043D01*
X101646027Y-115108563D01*
X101579842Y-115115082D01*
X101513660Y-115121600D01*
X101425140Y-115121600D01*
X101358958Y-115115082D01*
X101292773Y-115108563D01*
X101122934Y-115057043D01*
X100966409Y-114973378D01*
X100930671Y-114944048D01*
X100829214Y-114860786D01*
X100745952Y-114759329D01*
X100716622Y-114723591D01*
X100632957Y-114567066D01*
X100581437Y-114397227D01*
X100564041Y-114220600D01*
X100581437Y-114043973D01*
X100632957Y-113874134D01*
X100716622Y-113717609D01*
X100745952Y-113681871D01*
X100829214Y-113580414D01*
X100930671Y-113497152D01*
X100966409Y-113467822D01*
X101122934Y-113384157D01*
X101292773Y-113332637D01*
X101358957Y-113326119D01*
X101425140Y-113319600D01*
X101513660Y-113319600D01*
X101579843Y-113326119D01*
X101579843Y-113326119D01*
G37*
G36*
X123976200Y-114236000D02*
G01*
X120954200Y-114236000D01*
X120954200Y-113634000D01*
X123976200Y-113634000D01*
X123976200Y-114236000D01*
X123976200Y-114236000D01*
G37*
G36*
X124335874Y-111162665D02*
G01*
X124373567Y-111174099D01*
X124408303Y-111192666D01*
X124438748Y-111217652D01*
X124463734Y-111248097D01*
X124482301Y-111282833D01*
X124493735Y-111320526D01*
X124498200Y-111365861D01*
X124498200Y-112452539D01*
X124493735Y-112497874D01*
X124482301Y-112535567D01*
X124463734Y-112570303D01*
X124438748Y-112600748D01*
X124408303Y-112625734D01*
X124373567Y-112644301D01*
X124335874Y-112655735D01*
X124290539Y-112660200D01*
X123453861Y-112660200D01*
X123408526Y-112655735D01*
X123370833Y-112644301D01*
X123336097Y-112625734D01*
X123305652Y-112600748D01*
X123280666Y-112570303D01*
X123262099Y-112535567D01*
X123250665Y-112497874D01*
X123246200Y-112452539D01*
X123246200Y-111365861D01*
X123250665Y-111320526D01*
X123262099Y-111282833D01*
X123280666Y-111248097D01*
X123305652Y-111217652D01*
X123336097Y-111192666D01*
X123370833Y-111174099D01*
X123408526Y-111162665D01*
X123453861Y-111158200D01*
X124290539Y-111158200D01*
X124335874Y-111162665D01*
X124335874Y-111162665D01*
G37*
G36*
X126385874Y-111162665D02*
G01*
X126423567Y-111174099D01*
X126458303Y-111192666D01*
X126488748Y-111217652D01*
X126513734Y-111248097D01*
X126532301Y-111282833D01*
X126543735Y-111320526D01*
X126548200Y-111365861D01*
X126548200Y-112452539D01*
X126543735Y-112497874D01*
X126532301Y-112535567D01*
X126513734Y-112570303D01*
X126488748Y-112600748D01*
X126458303Y-112625734D01*
X126423567Y-112644301D01*
X126385874Y-112655735D01*
X126340539Y-112660200D01*
X125503861Y-112660200D01*
X125458526Y-112655735D01*
X125420833Y-112644301D01*
X125386097Y-112625734D01*
X125355652Y-112600748D01*
X125330666Y-112570303D01*
X125312099Y-112535567D01*
X125300665Y-112497874D01*
X125296200Y-112452539D01*
X125296200Y-111365861D01*
X125300665Y-111320526D01*
X125312099Y-111282833D01*
X125330666Y-111248097D01*
X125355652Y-111217652D01*
X125386097Y-111192666D01*
X125420833Y-111174099D01*
X125458526Y-111162665D01*
X125503861Y-111158200D01*
X126340539Y-111158200D01*
X126385874Y-111162665D01*
X126385874Y-111162665D01*
G37*
G36*
X122634074Y-111162665D02*
G01*
X122671767Y-111174099D01*
X122706503Y-111192666D01*
X122736948Y-111217652D01*
X122761934Y-111248097D01*
X122780501Y-111282833D01*
X122791935Y-111320526D01*
X122796400Y-111365861D01*
X122796400Y-112452539D01*
X122791935Y-112497874D01*
X122780501Y-112535567D01*
X122761934Y-112570303D01*
X122736948Y-112600748D01*
X122706503Y-112625734D01*
X122671767Y-112644301D01*
X122634074Y-112655735D01*
X122588739Y-112660200D01*
X121752061Y-112660200D01*
X121706726Y-112655735D01*
X121669033Y-112644301D01*
X121634297Y-112625734D01*
X121603852Y-112600748D01*
X121578866Y-112570303D01*
X121560299Y-112535567D01*
X121548865Y-112497874D01*
X121544400Y-112452539D01*
X121544400Y-111365861D01*
X121548865Y-111320526D01*
X121560299Y-111282833D01*
X121578866Y-111248097D01*
X121603852Y-111217652D01*
X121634297Y-111192666D01*
X121669033Y-111174099D01*
X121706726Y-111162665D01*
X121752061Y-111158200D01*
X122588739Y-111158200D01*
X122634074Y-111162665D01*
X122634074Y-111162665D01*
G37*
G36*
X120584074Y-111162665D02*
G01*
X120621767Y-111174099D01*
X120656503Y-111192666D01*
X120686948Y-111217652D01*
X120711934Y-111248097D01*
X120730501Y-111282833D01*
X120741935Y-111320526D01*
X120746400Y-111365861D01*
X120746400Y-112452539D01*
X120741935Y-112497874D01*
X120730501Y-112535567D01*
X120711934Y-112570303D01*
X120686948Y-112600748D01*
X120656503Y-112625734D01*
X120621767Y-112644301D01*
X120584074Y-112655735D01*
X120538739Y-112660200D01*
X119702061Y-112660200D01*
X119656726Y-112655735D01*
X119619033Y-112644301D01*
X119584297Y-112625734D01*
X119553852Y-112600748D01*
X119528866Y-112570303D01*
X119510299Y-112535567D01*
X119498865Y-112497874D01*
X119494400Y-112452539D01*
X119494400Y-111365861D01*
X119498865Y-111320526D01*
X119510299Y-111282833D01*
X119528866Y-111248097D01*
X119553852Y-111217652D01*
X119584297Y-111192666D01*
X119619033Y-111174099D01*
X119656726Y-111162665D01*
X119702061Y-111158200D01*
X120538739Y-111158200D01*
X120584074Y-111162665D01*
X120584074Y-111162665D01*
G37*
G36*
X101579843Y-110786119D02*
G01*
X101646027Y-110792637D01*
X101815866Y-110844157D01*
X101972391Y-110927822D01*
X102008129Y-110957152D01*
X102109586Y-111040414D01*
X102192848Y-111141871D01*
X102222178Y-111177609D01*
X102305843Y-111334134D01*
X102357363Y-111503973D01*
X102374759Y-111680600D01*
X102357363Y-111857227D01*
X102305843Y-112027066D01*
X102222178Y-112183591D01*
X102192848Y-112219329D01*
X102109586Y-112320786D01*
X102027651Y-112388027D01*
X101972391Y-112433378D01*
X101815866Y-112517043D01*
X101646027Y-112568563D01*
X101579843Y-112575081D01*
X101513660Y-112581600D01*
X101425140Y-112581600D01*
X101358957Y-112575081D01*
X101292773Y-112568563D01*
X101122934Y-112517043D01*
X100966409Y-112433378D01*
X100911149Y-112388027D01*
X100829214Y-112320786D01*
X100745952Y-112219329D01*
X100716622Y-112183591D01*
X100632957Y-112027066D01*
X100581437Y-111857227D01*
X100564041Y-111680600D01*
X100581437Y-111503973D01*
X100632957Y-111334134D01*
X100716622Y-111177609D01*
X100745952Y-111141871D01*
X100829214Y-111040414D01*
X100930671Y-110957152D01*
X100966409Y-110927822D01*
X101122934Y-110844157D01*
X101292773Y-110792637D01*
X101358957Y-110786119D01*
X101425140Y-110779600D01*
X101513660Y-110779600D01*
X101579843Y-110786119D01*
X101579843Y-110786119D01*
G37*
G36*
X97947643Y-110786119D02*
G01*
X98013827Y-110792637D01*
X98183666Y-110844157D01*
X98340191Y-110927822D01*
X98375929Y-110957152D01*
X98477386Y-111040414D01*
X98560648Y-111141871D01*
X98589978Y-111177609D01*
X98673643Y-111334134D01*
X98725163Y-111503973D01*
X98742559Y-111680600D01*
X98725163Y-111857227D01*
X98673643Y-112027066D01*
X98589978Y-112183591D01*
X98560648Y-112219329D01*
X98477386Y-112320786D01*
X98395451Y-112388027D01*
X98340191Y-112433378D01*
X98183666Y-112517043D01*
X98013827Y-112568563D01*
X97947643Y-112575081D01*
X97881460Y-112581600D01*
X97792940Y-112581600D01*
X97726757Y-112575081D01*
X97660573Y-112568563D01*
X97490734Y-112517043D01*
X97334209Y-112433378D01*
X97278949Y-112388027D01*
X97197014Y-112320786D01*
X97113752Y-112219329D01*
X97084422Y-112183591D01*
X97000757Y-112027066D01*
X96949237Y-111857227D01*
X96931841Y-111680600D01*
X96949237Y-111503973D01*
X97000757Y-111334134D01*
X97084422Y-111177609D01*
X97113752Y-111141871D01*
X97197014Y-111040414D01*
X97298471Y-110957152D01*
X97334209Y-110927822D01*
X97490734Y-110844157D01*
X97660573Y-110792637D01*
X97726757Y-110786119D01*
X97792940Y-110779600D01*
X97881460Y-110779600D01*
X97947643Y-110786119D01*
X97947643Y-110786119D01*
G37*
G36*
X101579842Y-108246118D02*
G01*
X101646027Y-108252637D01*
X101815866Y-108304157D01*
X101972391Y-108387822D01*
X102008129Y-108417152D01*
X102109586Y-108500414D01*
X102192848Y-108601871D01*
X102222178Y-108637609D01*
X102305843Y-108794134D01*
X102357363Y-108963973D01*
X102374759Y-109140600D01*
X102357363Y-109317227D01*
X102305843Y-109487066D01*
X102222178Y-109643591D01*
X102192848Y-109679329D01*
X102109586Y-109780786D01*
X102008129Y-109864048D01*
X101972391Y-109893378D01*
X101815866Y-109977043D01*
X101646027Y-110028563D01*
X101579843Y-110035081D01*
X101513660Y-110041600D01*
X101425140Y-110041600D01*
X101358957Y-110035081D01*
X101292773Y-110028563D01*
X101122934Y-109977043D01*
X100966409Y-109893378D01*
X100930671Y-109864048D01*
X100829214Y-109780786D01*
X100745952Y-109679329D01*
X100716622Y-109643591D01*
X100632957Y-109487066D01*
X100581437Y-109317227D01*
X100564041Y-109140600D01*
X100581437Y-108963973D01*
X100632957Y-108794134D01*
X100716622Y-108637609D01*
X100745952Y-108601871D01*
X100829214Y-108500414D01*
X100930671Y-108417152D01*
X100966409Y-108387822D01*
X101122934Y-108304157D01*
X101292773Y-108252637D01*
X101358958Y-108246118D01*
X101425140Y-108239600D01*
X101513660Y-108239600D01*
X101579842Y-108246118D01*
X101579842Y-108246118D01*
G37*
G36*
X97947642Y-108246118D02*
G01*
X98013827Y-108252637D01*
X98183666Y-108304157D01*
X98340191Y-108387822D01*
X98375929Y-108417152D01*
X98477386Y-108500414D01*
X98560648Y-108601871D01*
X98589978Y-108637609D01*
X98673643Y-108794134D01*
X98725163Y-108963973D01*
X98742559Y-109140600D01*
X98725163Y-109317227D01*
X98673643Y-109487066D01*
X98589978Y-109643591D01*
X98560648Y-109679329D01*
X98477386Y-109780786D01*
X98375929Y-109864048D01*
X98340191Y-109893378D01*
X98183666Y-109977043D01*
X98013827Y-110028563D01*
X97947643Y-110035081D01*
X97881460Y-110041600D01*
X97792940Y-110041600D01*
X97726757Y-110035081D01*
X97660573Y-110028563D01*
X97490734Y-109977043D01*
X97334209Y-109893378D01*
X97298471Y-109864048D01*
X97197014Y-109780786D01*
X97113752Y-109679329D01*
X97084422Y-109643591D01*
X97000757Y-109487066D01*
X96949237Y-109317227D01*
X96931841Y-109140600D01*
X96949237Y-108963973D01*
X97000757Y-108794134D01*
X97084422Y-108637609D01*
X97113752Y-108601871D01*
X97197014Y-108500414D01*
X97298471Y-108417152D01*
X97334209Y-108387822D01*
X97490734Y-108304157D01*
X97660573Y-108252637D01*
X97726758Y-108246118D01*
X97792940Y-108239600D01*
X97881460Y-108239600D01*
X97947642Y-108246118D01*
X97947642Y-108246118D01*
G37*
M02*
