G04 #@! TF.GenerationSoftware,KiCad,Pcbnew,(5.1.4)-1*
G04 #@! TF.CreationDate,2021-09-05T23:12:11+02:00*
G04 #@! TF.ProjectId,BME680,424d4536-3830-42e6-9b69-6361645f7063,A*
G04 #@! TF.SameCoordinates,Original*
G04 #@! TF.FileFunction,Soldermask,Bot*
G04 #@! TF.FilePolarity,Negative*
%FSLAX46Y46*%
G04 Gerber Fmt 4.6, Leading zero omitted, Abs format (unit mm)*
G04 Created by KiCad (PCBNEW (5.1.4)-1) date 2021-09-05 23:12:11*
%MOMM*%
%LPD*%
G04 APERTURE LIST*
%ADD10C,0.100000*%
G04 APERTURE END LIST*
D10*
G36*
X123313600Y-141036600D02*
G01*
X121687600Y-141036600D01*
X121687600Y-136934600D01*
X123313600Y-136934600D01*
X123313600Y-141036600D01*
X123313600Y-141036600D01*
G37*
G36*
X120773600Y-141036600D02*
G01*
X119147600Y-141036600D01*
X119147600Y-136934600D01*
X120773600Y-136934600D01*
X120773600Y-141036600D01*
X120773600Y-141036600D01*
G37*
G36*
X125853600Y-141036600D02*
G01*
X124227600Y-141036600D01*
X124227600Y-136934600D01*
X125853600Y-136934600D01*
X125853600Y-141036600D01*
X125853600Y-141036600D01*
G37*
G36*
X98738200Y-122741600D02*
G01*
X96936200Y-122741600D01*
X96936200Y-120939600D01*
X98738200Y-120939600D01*
X98738200Y-122741600D01*
X98738200Y-122741600D01*
G37*
G36*
X97947642Y-118406118D02*
G01*
X98013827Y-118412637D01*
X98183666Y-118464157D01*
X98340191Y-118547822D01*
X98375929Y-118577152D01*
X98477386Y-118660414D01*
X98560648Y-118761871D01*
X98589978Y-118797609D01*
X98673643Y-118954134D01*
X98725163Y-119123973D01*
X98742559Y-119300600D01*
X98725163Y-119477227D01*
X98673643Y-119647066D01*
X98589978Y-119803591D01*
X98560648Y-119839329D01*
X98477386Y-119940786D01*
X98375929Y-120024048D01*
X98340191Y-120053378D01*
X98183666Y-120137043D01*
X98013827Y-120188563D01*
X97947642Y-120195082D01*
X97881460Y-120201600D01*
X97792940Y-120201600D01*
X97726758Y-120195082D01*
X97660573Y-120188563D01*
X97490734Y-120137043D01*
X97334209Y-120053378D01*
X97298471Y-120024048D01*
X97197014Y-119940786D01*
X97113752Y-119839329D01*
X97084422Y-119803591D01*
X97000757Y-119647066D01*
X96949237Y-119477227D01*
X96931841Y-119300600D01*
X96949237Y-119123973D01*
X97000757Y-118954134D01*
X97084422Y-118797609D01*
X97113752Y-118761871D01*
X97197014Y-118660414D01*
X97298471Y-118577152D01*
X97334209Y-118547822D01*
X97490734Y-118464157D01*
X97660573Y-118412637D01*
X97726758Y-118406118D01*
X97792940Y-118399600D01*
X97881460Y-118399600D01*
X97947642Y-118406118D01*
X97947642Y-118406118D01*
G37*
G36*
X97947643Y-115866119D02*
G01*
X98013827Y-115872637D01*
X98183666Y-115924157D01*
X98340191Y-116007822D01*
X98375929Y-116037152D01*
X98477386Y-116120414D01*
X98560648Y-116221871D01*
X98589978Y-116257609D01*
X98673643Y-116414134D01*
X98725163Y-116583973D01*
X98742559Y-116760600D01*
X98725163Y-116937227D01*
X98673643Y-117107066D01*
X98589978Y-117263591D01*
X98560648Y-117299329D01*
X98477386Y-117400786D01*
X98375929Y-117484048D01*
X98340191Y-117513378D01*
X98183666Y-117597043D01*
X98013827Y-117648563D01*
X97947643Y-117655081D01*
X97881460Y-117661600D01*
X97792940Y-117661600D01*
X97726757Y-117655081D01*
X97660573Y-117648563D01*
X97490734Y-117597043D01*
X97334209Y-117513378D01*
X97298471Y-117484048D01*
X97197014Y-117400786D01*
X97113752Y-117299329D01*
X97084422Y-117263591D01*
X97000757Y-117107066D01*
X96949237Y-116937227D01*
X96931841Y-116760600D01*
X96949237Y-116583973D01*
X97000757Y-116414134D01*
X97084422Y-116257609D01*
X97113752Y-116221871D01*
X97197014Y-116120414D01*
X97298471Y-116037152D01*
X97334209Y-116007822D01*
X97490734Y-115924157D01*
X97660573Y-115872637D01*
X97726757Y-115866119D01*
X97792940Y-115859600D01*
X97881460Y-115859600D01*
X97947643Y-115866119D01*
X97947643Y-115866119D01*
G37*
G36*
X97947643Y-113326119D02*
G01*
X98013827Y-113332637D01*
X98183666Y-113384157D01*
X98340191Y-113467822D01*
X98375929Y-113497152D01*
X98477386Y-113580414D01*
X98560648Y-113681871D01*
X98589978Y-113717609D01*
X98673643Y-113874134D01*
X98725163Y-114043973D01*
X98742559Y-114220600D01*
X98725163Y-114397227D01*
X98673643Y-114567066D01*
X98589978Y-114723591D01*
X98560648Y-114759329D01*
X98477386Y-114860786D01*
X98375929Y-114944048D01*
X98340191Y-114973378D01*
X98183666Y-115057043D01*
X98013827Y-115108563D01*
X97947642Y-115115082D01*
X97881460Y-115121600D01*
X97792940Y-115121600D01*
X97726758Y-115115082D01*
X97660573Y-115108563D01*
X97490734Y-115057043D01*
X97334209Y-114973378D01*
X97298471Y-114944048D01*
X97197014Y-114860786D01*
X97113752Y-114759329D01*
X97084422Y-114723591D01*
X97000757Y-114567066D01*
X96949237Y-114397227D01*
X96931841Y-114220600D01*
X96949237Y-114043973D01*
X97000757Y-113874134D01*
X97084422Y-113717609D01*
X97113752Y-113681871D01*
X97197014Y-113580414D01*
X97298471Y-113497152D01*
X97334209Y-113467822D01*
X97490734Y-113384157D01*
X97660573Y-113332637D01*
X97726757Y-113326119D01*
X97792940Y-113319600D01*
X97881460Y-113319600D01*
X97947643Y-113326119D01*
X97947643Y-113326119D01*
G37*
G36*
X97947643Y-110786119D02*
G01*
X98013827Y-110792637D01*
X98183666Y-110844157D01*
X98340191Y-110927822D01*
X98375929Y-110957152D01*
X98477386Y-111040414D01*
X98560648Y-111141871D01*
X98589978Y-111177609D01*
X98673643Y-111334134D01*
X98725163Y-111503973D01*
X98742559Y-111680600D01*
X98725163Y-111857227D01*
X98673643Y-112027066D01*
X98589978Y-112183591D01*
X98560648Y-112219329D01*
X98477386Y-112320786D01*
X98375929Y-112404048D01*
X98340191Y-112433378D01*
X98183666Y-112517043D01*
X98013827Y-112568563D01*
X97947643Y-112575081D01*
X97881460Y-112581600D01*
X97792940Y-112581600D01*
X97726757Y-112575081D01*
X97660573Y-112568563D01*
X97490734Y-112517043D01*
X97334209Y-112433378D01*
X97298471Y-112404048D01*
X97197014Y-112320786D01*
X97113752Y-112219329D01*
X97084422Y-112183591D01*
X97000757Y-112027066D01*
X96949237Y-111857227D01*
X96931841Y-111680600D01*
X96949237Y-111503973D01*
X97000757Y-111334134D01*
X97084422Y-111177609D01*
X97113752Y-111141871D01*
X97197014Y-111040414D01*
X97298471Y-110957152D01*
X97334209Y-110927822D01*
X97490734Y-110844157D01*
X97660573Y-110792637D01*
X97726757Y-110786119D01*
X97792940Y-110779600D01*
X97881460Y-110779600D01*
X97947643Y-110786119D01*
X97947643Y-110786119D01*
G37*
G36*
X97947642Y-108246118D02*
G01*
X98013827Y-108252637D01*
X98183666Y-108304157D01*
X98340191Y-108387822D01*
X98375929Y-108417152D01*
X98477386Y-108500414D01*
X98560648Y-108601871D01*
X98589978Y-108637609D01*
X98673643Y-108794134D01*
X98725163Y-108963973D01*
X98742559Y-109140600D01*
X98725163Y-109317227D01*
X98673643Y-109487066D01*
X98589978Y-109643591D01*
X98560648Y-109679329D01*
X98477386Y-109780786D01*
X98375929Y-109864048D01*
X98340191Y-109893378D01*
X98183666Y-109977043D01*
X98013827Y-110028563D01*
X97947643Y-110035081D01*
X97881460Y-110041600D01*
X97792940Y-110041600D01*
X97726757Y-110035081D01*
X97660573Y-110028563D01*
X97490734Y-109977043D01*
X97334209Y-109893378D01*
X97298471Y-109864048D01*
X97197014Y-109780786D01*
X97113752Y-109679329D01*
X97084422Y-109643591D01*
X97000757Y-109487066D01*
X96949237Y-109317227D01*
X96931841Y-109140600D01*
X96949237Y-108963973D01*
X97000757Y-108794134D01*
X97084422Y-108637609D01*
X97113752Y-108601871D01*
X97197014Y-108500414D01*
X97298471Y-108417152D01*
X97334209Y-108387822D01*
X97490734Y-108304157D01*
X97660573Y-108252637D01*
X97726758Y-108246118D01*
X97792940Y-108239600D01*
X97881460Y-108239600D01*
X97947642Y-108246118D01*
X97947642Y-108246118D01*
G37*
M02*
