M48
INCH,TZ
T1C0.0118
T2C0.0157
T3C0.0256
T4C0.0276
T5C0.0394
T6C0.0472
%
G90
G05
T1
X42100Y-36500
X42100Y-36900
X53800Y-35000
X53800Y-35300
X53800Y-35600
X54100Y-35000
X54100Y-35300
X54100Y-35600
X54400Y-35000
X54400Y-35300
X54400Y-35600
T2
X35866Y-32480
X35984Y-28819
X36700Y-27700
X36800Y-31900
X36890Y-30472
X37100Y-36200
X37500Y-35000
X37500Y-36900
X37900Y-37600
X38000Y-36100
X38718Y-36282
X39300Y-34200
X39700Y-35400
X39800Y-39100
X40000Y-38500
X40300Y-37700
X40448Y-30952
X40500Y-31900
X40700Y-33900
X40700Y-40500
X40800Y-29400
X41200Y-41300
X41600Y-36100
X41700Y-42200
X42000Y-28000
X42000Y-31600
X42100Y-36200
X42100Y-38100
X42400Y-34600
X43100Y-29400
X43200Y-36200
X44000Y-34600
X44200Y-28000
X44200Y-37900
X44300Y-32200
X44300Y-33500
X44400Y-34800
X44500Y-31000
X44700Y-37900
X45300Y-38400
X45500Y-37100
X45600Y-39500
X45700Y-29500
X45800Y-40200
X45845Y-35755
X45900Y-41100
X45900Y-42200
X46100Y-39100
X46100Y-39600
X46500Y-28000
X46500Y-40100
X46500Y-40600
X46900Y-34700
X46900Y-41500
X47000Y-35500
X47600Y-39400
X47633Y-38100
X47700Y-36400
X48000Y-36844
X48200Y-36200
X48300Y-29500
X48600Y-30900
X48600Y-31500
X48600Y-39700
X48700Y-35800
X48702Y-37102
X48735Y-38365
X48777Y-37723
X49000Y-28000
X49000Y-31200
X49500Y-41600
X50000Y-39200
X50000Y-39900
X50000Y-40500
X50300Y-35700
X50400Y-42300
X50800Y-34800
X50900Y-31000
X51000Y-35200
X51000Y-35800
X51100Y-31600
X51200Y-41900
X51300Y-40000
X51500Y-28000
X51500Y-31000
X51800Y-28300
X52000Y-34200
X52100Y-28600
X52100Y-29000
X52100Y-34800
X52300Y-34500
X52300Y-35392
X52400Y-35800
X52600Y-34800
X52700Y-31100
X52700Y-31500
X52700Y-35192
X52900Y-37000
X52900Y-40000
X53800Y-42300
X53840Y-33750
X54000Y-28000
X54067Y-34011
X54100Y-36800
X54400Y-40000
X54500Y-42100
X54900Y-31200
X54900Y-36300
X55200Y-34600
X55361Y-35015
X55400Y-35900
X55400Y-41200
X55500Y-36585
X55524Y-35373
X55600Y-34600
X55700Y-34200
X55700Y-40000
X56500Y-28000
X56600Y-34000
X56700Y-36400
X57100Y-33800
X58000Y-29800
X58000Y-30300
X58000Y-31100
X58400Y-28500
X58400Y-35500
X58500Y-37700
X58900Y-36900
X59200Y-34200
X59400Y-36200
X59700Y-27900
X60000Y-32800
X60500Y-29500
T5
X49100Y-28900
X50100Y-28900
X46400Y-28900
X47400Y-28900
X39450Y-28200
X39450Y-29200
X39450Y-30200
X39450Y-31200
X39450Y-32200
X39450Y-33200
T6
X47600Y-31416
X47600Y-32400
T3
G00X42769Y-40818
M15
G01X42769Y-40660
M16
G05
G00X44675Y-40818
M15
G01X44675Y-40660
M16
G05
T4
G00X42344Y-42018
M15
G01X42344Y-41822
M16
G05
G00X45100Y-42018
M15
G01X45100Y-41822
M16
G05
T0
M30
