G04 #@! TF.GenerationSoftware,KiCad,Pcbnew,(5.1.7)-1*
G04 #@! TF.CreationDate,2021-10-27T14:05:11+02:00*
G04 #@! TF.ProjectId,Power_module_v1,506f7765-725f-46d6-9f64-756c655f7631,rev?*
G04 #@! TF.SameCoordinates,Original*
G04 #@! TF.FileFunction,Soldermask,Top*
G04 #@! TF.FilePolarity,Negative*
%FSLAX46Y46*%
G04 Gerber Fmt 4.6, Leading zero omitted, Abs format (unit mm)*
G04 Created by KiCad (PCBNEW (5.1.7)-1) date 2021-10-27 14:05:11*
%MOMM*%
%LPD*%
G01*
G04 APERTURE LIST*
%ADD10C,3.102000*%
%ADD11C,1.782000*%
%ADD12O,2.502000X1.902000*%
%ADD13O,1.802000X1.802000*%
%ADD14O,1.452000X1.802000*%
%ADD15O,1.202000X1.602000*%
%ADD16C,1.702000*%
%ADD17C,0.150000*%
G04 APERTURE END LIST*
D10*
X154000000Y-78000000D03*
D11*
X121158000Y-105664000D03*
X123698000Y-105664000D03*
G36*
G01*
X119337000Y-102464000D02*
X119337000Y-99964000D01*
G75*
G02*
X119388000Y-99913000I51000J0D01*
G01*
X120388000Y-99913000D01*
G75*
G02*
X120439000Y-99964000I0J-51000D01*
G01*
X120439000Y-102464000D01*
G75*
G02*
X120388000Y-102515000I-51000J0D01*
G01*
X119388000Y-102515000D01*
G75*
G02*
X119337000Y-102464000I0J51000D01*
G01*
G37*
G36*
G01*
X119337000Y-98764000D02*
X119337000Y-96264000D01*
G75*
G02*
X119388000Y-96213000I51000J0D01*
G01*
X120388000Y-96213000D01*
G75*
G02*
X120439000Y-96264000I0J-51000D01*
G01*
X120439000Y-98764000D01*
G75*
G02*
X120388000Y-98815000I-51000J0D01*
G01*
X119388000Y-98815000D01*
G75*
G02*
X119337000Y-98764000I0J51000D01*
G01*
G37*
G36*
G01*
X121877000Y-102464000D02*
X121877000Y-99964000D01*
G75*
G02*
X121928000Y-99913000I51000J0D01*
G01*
X122928000Y-99913000D01*
G75*
G02*
X122979000Y-99964000I0J-51000D01*
G01*
X122979000Y-102464000D01*
G75*
G02*
X122928000Y-102515000I-51000J0D01*
G01*
X121928000Y-102515000D01*
G75*
G02*
X121877000Y-102464000I0J51000D01*
G01*
G37*
G36*
G01*
X121877000Y-98764000D02*
X121877000Y-96264000D01*
G75*
G02*
X121928000Y-96213000I51000J0D01*
G01*
X122928000Y-96213000D01*
G75*
G02*
X122979000Y-96264000I0J-51000D01*
G01*
X122979000Y-98764000D01*
G75*
G02*
X122928000Y-98815000I-51000J0D01*
G01*
X121928000Y-98815000D01*
G75*
G02*
X121877000Y-98764000I0J51000D01*
G01*
G37*
G36*
G01*
X124417000Y-102464000D02*
X124417000Y-99964000D01*
G75*
G02*
X124468000Y-99913000I51000J0D01*
G01*
X125468000Y-99913000D01*
G75*
G02*
X125519000Y-99964000I0J-51000D01*
G01*
X125519000Y-102464000D01*
G75*
G02*
X125468000Y-102515000I-51000J0D01*
G01*
X124468000Y-102515000D01*
G75*
G02*
X124417000Y-102464000I0J51000D01*
G01*
G37*
G36*
G01*
X124417000Y-98764000D02*
X124417000Y-96264000D01*
G75*
G02*
X124468000Y-96213000I51000J0D01*
G01*
X125468000Y-96213000D01*
G75*
G02*
X125519000Y-96264000I0J-51000D01*
G01*
X125519000Y-98764000D01*
G75*
G02*
X125468000Y-98815000I-51000J0D01*
G01*
X124468000Y-98815000D01*
G75*
G02*
X124417000Y-98764000I0J51000D01*
G01*
G37*
D12*
X132588000Y-104394000D03*
X135890000Y-104394000D03*
X113030000Y-99314000D03*
X109474000Y-99314000D03*
G36*
G01*
X144665000Y-76423001D02*
X144665000Y-75722999D01*
G75*
G02*
X144715999Y-75672000I50999J0D01*
G01*
X146316001Y-75672000D01*
G75*
G02*
X146367000Y-75722999I0J-50999D01*
G01*
X146367000Y-76423001D01*
G75*
G02*
X146316001Y-76474000I-50999J0D01*
G01*
X144715999Y-76474000D01*
G75*
G02*
X144665000Y-76423001I0J50999D01*
G01*
G37*
G36*
G01*
X144665000Y-77693001D02*
X144665000Y-76992999D01*
G75*
G02*
X144715999Y-76942000I50999J0D01*
G01*
X146316001Y-76942000D01*
G75*
G02*
X146367000Y-76992999I0J-50999D01*
G01*
X146367000Y-77693001D01*
G75*
G02*
X146316001Y-77744000I-50999J0D01*
G01*
X144715999Y-77744000D01*
G75*
G02*
X144665000Y-77693001I0J50999D01*
G01*
G37*
G36*
G01*
X144665000Y-78963001D02*
X144665000Y-78262999D01*
G75*
G02*
X144715999Y-78212000I50999J0D01*
G01*
X146316001Y-78212000D01*
G75*
G02*
X146367000Y-78262999I0J-50999D01*
G01*
X146367000Y-78963001D01*
G75*
G02*
X146316001Y-79014000I-50999J0D01*
G01*
X144715999Y-79014000D01*
G75*
G02*
X144665000Y-78963001I0J50999D01*
G01*
G37*
G36*
G01*
X144665000Y-80233001D02*
X144665000Y-79532999D01*
G75*
G02*
X144715999Y-79482000I50999J0D01*
G01*
X146316001Y-79482000D01*
G75*
G02*
X146367000Y-79532999I0J-50999D01*
G01*
X146367000Y-80233001D01*
G75*
G02*
X146316001Y-80284000I-50999J0D01*
G01*
X144715999Y-80284000D01*
G75*
G02*
X144665000Y-80233001I0J50999D01*
G01*
G37*
G36*
G01*
X126404000Y-72505000D02*
X128104000Y-72505000D01*
G75*
G02*
X128155000Y-72556000I0J-51000D01*
G01*
X128155000Y-74256000D01*
G75*
G02*
X128104000Y-74307000I-51000J0D01*
G01*
X126404000Y-74307000D01*
G75*
G02*
X126353000Y-74256000I0J51000D01*
G01*
X126353000Y-72556000D01*
G75*
G02*
X126404000Y-72505000I51000J0D01*
G01*
G37*
D13*
X124714000Y-73406000D03*
G36*
G01*
X110809000Y-108047740D02*
X109379000Y-108047740D01*
G75*
G02*
X109328000Y-107996740I0J51000D01*
G01*
X109328000Y-105496740D01*
G75*
G02*
X109379000Y-105445740I51000J0D01*
G01*
X110809000Y-105445740D01*
G75*
G02*
X110860000Y-105496740I0J-51000D01*
G01*
X110860000Y-107996740D01*
G75*
G02*
X110809000Y-108047740I-51000J0D01*
G01*
G37*
G36*
G01*
X107153000Y-104246740D02*
X107153000Y-102746740D01*
G75*
G02*
X107204000Y-102695740I51000J0D01*
G01*
X109204000Y-102695740D01*
G75*
G02*
X109255000Y-102746740I0J-51000D01*
G01*
X109255000Y-104246740D01*
G75*
G02*
X109204000Y-104297740I-51000J0D01*
G01*
X107204000Y-104297740D01*
G75*
G02*
X107153000Y-104246740I0J51000D01*
G01*
G37*
G36*
G01*
X113078000Y-106546740D02*
X113078000Y-104546740D01*
G75*
G02*
X113129000Y-104495740I51000J0D01*
G01*
X114479000Y-104495740D01*
G75*
G02*
X114530000Y-104546740I0J-51000D01*
G01*
X114530000Y-106546740D01*
G75*
G02*
X114479000Y-106597740I-51000J0D01*
G01*
X113129000Y-106597740D01*
G75*
G02*
X113078000Y-106546740I0J51000D01*
G01*
G37*
G36*
G01*
X107598000Y-106546740D02*
X107598000Y-104546740D01*
G75*
G02*
X107649000Y-104495740I51000J0D01*
G01*
X108999000Y-104495740D01*
G75*
G02*
X109050000Y-104546740I0J-51000D01*
G01*
X109050000Y-106546740D01*
G75*
G02*
X108999000Y-106597740I-51000J0D01*
G01*
X107649000Y-106597740D01*
G75*
G02*
X107598000Y-106546740I0J51000D01*
G01*
G37*
G36*
G01*
X111254000Y-104472740D02*
X110854000Y-104472740D01*
G75*
G02*
X110803000Y-104421740I0J51000D01*
G01*
X110803000Y-102771740D01*
G75*
G02*
X110854000Y-102720740I51000J0D01*
G01*
X111254000Y-102720740D01*
G75*
G02*
X111305000Y-102771740I0J-51000D01*
G01*
X111305000Y-104421740D01*
G75*
G02*
X111254000Y-104472740I-51000J0D01*
G01*
G37*
D14*
X114554000Y-106476740D03*
D15*
X108634000Y-103476740D03*
X113474000Y-103476740D03*
G36*
G01*
X112554000Y-104472740D02*
X112154000Y-104472740D01*
G75*
G02*
X112103000Y-104421740I0J51000D01*
G01*
X112103000Y-102771740D01*
G75*
G02*
X112154000Y-102720740I51000J0D01*
G01*
X112554000Y-102720740D01*
G75*
G02*
X112605000Y-102771740I0J-51000D01*
G01*
X112605000Y-104421740D01*
G75*
G02*
X112554000Y-104472740I-51000J0D01*
G01*
G37*
G36*
G01*
X111904000Y-104472740D02*
X111504000Y-104472740D01*
G75*
G02*
X111453000Y-104421740I0J51000D01*
G01*
X111453000Y-102771740D01*
G75*
G02*
X111504000Y-102720740I51000J0D01*
G01*
X111904000Y-102720740D01*
G75*
G02*
X111955000Y-102771740I0J-51000D01*
G01*
X111955000Y-104421740D01*
G75*
G02*
X111904000Y-104472740I-51000J0D01*
G01*
G37*
G36*
G01*
X113090500Y-105146741D02*
X113090500Y-104446739D01*
G75*
G02*
X113141499Y-104395740I50999J0D01*
G01*
X114966501Y-104395740D01*
G75*
G02*
X115017500Y-104446739I0J-50999D01*
G01*
X115017500Y-105146741D01*
G75*
G02*
X114966501Y-105197740I-50999J0D01*
G01*
X113141499Y-105197740D01*
G75*
G02*
X113090500Y-105146741I0J50999D01*
G01*
G37*
G36*
G01*
X109954000Y-104472740D02*
X109554000Y-104472740D01*
G75*
G02*
X109503000Y-104421740I0J51000D01*
G01*
X109503000Y-102771740D01*
G75*
G02*
X109554000Y-102720740I51000J0D01*
G01*
X109954000Y-102720740D01*
G75*
G02*
X110005000Y-102771740I0J-51000D01*
G01*
X110005000Y-104421740D01*
G75*
G02*
X109954000Y-104472740I-51000J0D01*
G01*
G37*
G36*
G01*
X112903000Y-104226740D02*
X112903000Y-102726740D01*
G75*
G02*
X112954000Y-102675740I51000J0D01*
G01*
X114954000Y-102675740D01*
G75*
G02*
X115005000Y-102726740I0J-51000D01*
G01*
X115005000Y-104226740D01*
G75*
G02*
X114954000Y-104277740I-51000J0D01*
G01*
X112954000Y-104277740D01*
G75*
G02*
X112903000Y-104226740I0J51000D01*
G01*
G37*
G36*
G01*
X107140500Y-105146741D02*
X107140500Y-104446739D01*
G75*
G02*
X107191499Y-104395740I50999J0D01*
G01*
X109016501Y-104395740D01*
G75*
G02*
X109067500Y-104446739I0J-50999D01*
G01*
X109067500Y-105146741D01*
G75*
G02*
X109016501Y-105197740I-50999J0D01*
G01*
X107191499Y-105197740D01*
G75*
G02*
X107140500Y-105146741I0J50999D01*
G01*
G37*
G36*
G01*
X110604000Y-104472740D02*
X110204000Y-104472740D01*
G75*
G02*
X110153000Y-104421740I0J51000D01*
G01*
X110153000Y-102771740D01*
G75*
G02*
X110204000Y-102720740I51000J0D01*
G01*
X110604000Y-102720740D01*
G75*
G02*
X110655000Y-102771740I0J-51000D01*
G01*
X110655000Y-104421740D01*
G75*
G02*
X110604000Y-104472740I-51000J0D01*
G01*
G37*
D14*
X107554000Y-106476740D03*
G36*
G01*
X112729000Y-108047740D02*
X111299000Y-108047740D01*
G75*
G02*
X111248000Y-107996740I0J51000D01*
G01*
X111248000Y-105496740D01*
G75*
G02*
X111299000Y-105445740I51000J0D01*
G01*
X112729000Y-105445740D01*
G75*
G02*
X112780000Y-105496740I0J-51000D01*
G01*
X112780000Y-107996740D01*
G75*
G02*
X112729000Y-108047740I-51000J0D01*
G01*
G37*
D13*
X120396000Y-73406000D03*
G36*
G01*
X118706000Y-74307000D02*
X117006000Y-74307000D01*
G75*
G02*
X116955000Y-74256000I0J51000D01*
G01*
X116955000Y-72556000D01*
G75*
G02*
X117006000Y-72505000I51000J0D01*
G01*
X118706000Y-72505000D01*
G75*
G02*
X118757000Y-72556000I0J-51000D01*
G01*
X118757000Y-74256000D01*
G75*
G02*
X118706000Y-74307000I-51000J0D01*
G01*
G37*
G36*
G01*
X97167000Y-83478000D02*
X97167000Y-85178000D01*
G75*
G02*
X97116000Y-85229000I-51000J0D01*
G01*
X95416000Y-85229000D01*
G75*
G02*
X95365000Y-85178000I0J51000D01*
G01*
X95365000Y-83478000D01*
G75*
G02*
X95416000Y-83427000I51000J0D01*
G01*
X97116000Y-83427000D01*
G75*
G02*
X97167000Y-83478000I0J-51000D01*
G01*
G37*
X96266000Y-81788000D03*
X96266000Y-79248000D03*
X96266000Y-76708000D03*
X96266000Y-74168000D03*
X96266000Y-71628000D03*
X100203000Y-71628000D03*
X100203000Y-74168000D03*
X100203000Y-76708000D03*
X100203000Y-79248000D03*
X100203000Y-81788000D03*
G36*
G01*
X101104000Y-83478000D02*
X101104000Y-85178000D01*
G75*
G02*
X101053000Y-85229000I-51000J0D01*
G01*
X99353000Y-85229000D01*
G75*
G02*
X99302000Y-85178000I0J51000D01*
G01*
X99302000Y-83478000D01*
G75*
G02*
X99353000Y-83427000I51000J0D01*
G01*
X101053000Y-83427000D01*
G75*
G02*
X101104000Y-83478000I0J-51000D01*
G01*
G37*
G36*
G01*
X121704000Y-83147000D02*
X120104000Y-83147000D01*
G75*
G02*
X120053000Y-83096000I0J51000D01*
G01*
X120053000Y-81496000D01*
G75*
G02*
X120104000Y-81445000I51000J0D01*
G01*
X121704000Y-81445000D01*
G75*
G02*
X121755000Y-81496000I0J-51000D01*
G01*
X121755000Y-83096000D01*
G75*
G02*
X121704000Y-83147000I-51000J0D01*
G01*
G37*
D16*
X120904000Y-79796000D03*
D17*
G36*
X115006990Y-104270545D02*
G01*
X115009372Y-104294732D01*
X115016372Y-104317807D01*
X115019264Y-104323218D01*
X115019500Y-104324161D01*
X115019500Y-104395740D01*
X115018500Y-104397472D01*
X115017500Y-104397740D01*
X113092500Y-104397740D01*
X113092500Y-104495740D01*
X113091500Y-104497472D01*
X113090500Y-104497740D01*
X113078000Y-104497740D01*
X113076268Y-104496740D01*
X113076000Y-104495740D01*
X113076000Y-104402833D01*
X113073628Y-104378748D01*
X113066628Y-104355673D01*
X113055263Y-104334409D01*
X113039968Y-104315772D01*
X113021331Y-104300477D01*
X113000067Y-104289112D01*
X112976992Y-104282112D01*
X112952805Y-104279730D01*
X112951179Y-104278565D01*
X112951375Y-104276575D01*
X112953001Y-104275740D01*
X115003000Y-104275740D01*
X115003000Y-104270741D01*
X115004000Y-104269009D01*
X115006000Y-104269009D01*
X115006990Y-104270545D01*
G37*
G36*
X112104732Y-102719740D02*
G01*
X112105000Y-102720740D01*
X112105000Y-104472740D01*
X112104000Y-104474472D01*
X112103000Y-104474740D01*
X111955000Y-104474740D01*
X111953268Y-104473740D01*
X111953000Y-104472740D01*
X111953000Y-102720740D01*
X111954000Y-102719008D01*
X111955000Y-102718740D01*
X112103000Y-102718740D01*
X112104732Y-102719740D01*
G37*
G36*
X110154732Y-102719740D02*
G01*
X110155000Y-102720740D01*
X110155000Y-104472740D01*
X110154000Y-104474472D01*
X110153000Y-104474740D01*
X110005000Y-104474740D01*
X110003268Y-104473740D01*
X110003000Y-104472740D01*
X110003000Y-102720740D01*
X110004000Y-102719008D01*
X110005000Y-102718740D01*
X110153000Y-102718740D01*
X110154732Y-102719740D01*
G37*
G36*
X110804732Y-102719740D02*
G01*
X110805000Y-102720740D01*
X110805000Y-104472740D01*
X110804000Y-104474472D01*
X110803000Y-104474740D01*
X110655000Y-104474740D01*
X110653268Y-104473740D01*
X110653000Y-104472740D01*
X110653000Y-102720740D01*
X110654000Y-102719008D01*
X110655000Y-102718740D01*
X110803000Y-102718740D01*
X110804732Y-102719740D01*
G37*
G36*
X111454732Y-102719740D02*
G01*
X111455000Y-102720740D01*
X111455000Y-104472740D01*
X111454000Y-104474472D01*
X111453000Y-104474740D01*
X111305000Y-104474740D01*
X111303268Y-104473740D01*
X111303000Y-104472740D01*
X111303000Y-102720740D01*
X111304000Y-102719008D01*
X111305000Y-102718740D01*
X111453000Y-102718740D01*
X111454732Y-102719740D01*
G37*
G36*
X107154165Y-104269115D02*
G01*
X107155000Y-104270741D01*
X107155000Y-104295740D01*
X109192499Y-104295740D01*
X109194231Y-104296740D01*
X109194231Y-104298740D01*
X109192695Y-104299730D01*
X109168508Y-104302112D01*
X109145433Y-104309112D01*
X109124169Y-104320477D01*
X109105532Y-104335772D01*
X109090237Y-104354409D01*
X109078872Y-104375673D01*
X109071872Y-104398748D01*
X109069490Y-104422935D01*
X109068325Y-104424561D01*
X109066335Y-104424365D01*
X109065500Y-104422739D01*
X109065500Y-104397740D01*
X107140500Y-104397740D01*
X107138768Y-104396740D01*
X107138500Y-104395740D01*
X107138500Y-104324161D01*
X107138736Y-104323218D01*
X107141628Y-104317807D01*
X107148628Y-104294732D01*
X107151010Y-104270545D01*
X107152175Y-104268919D01*
X107154165Y-104269115D01*
G37*
G36*
X109307028Y-102694194D02*
G01*
X109311669Y-102698003D01*
X109332933Y-102709368D01*
X109356008Y-102716368D01*
X109380093Y-102718740D01*
X109503000Y-102718740D01*
X109504732Y-102719740D01*
X109505000Y-102720740D01*
X109505000Y-104422739D01*
X109504000Y-104424471D01*
X109502000Y-104424471D01*
X109501010Y-104422935D01*
X109498628Y-104398748D01*
X109491628Y-104375673D01*
X109480263Y-104354409D01*
X109464968Y-104335772D01*
X109446331Y-104320477D01*
X109425067Y-104309112D01*
X109401992Y-104302112D01*
X109377907Y-104299740D01*
X109255000Y-104299740D01*
X109253268Y-104298740D01*
X109253000Y-104297740D01*
X109253000Y-102695740D01*
X109254000Y-102694008D01*
X109255000Y-102693740D01*
X109305759Y-102693740D01*
X109307028Y-102694194D01*
G37*
M02*
