G04 #@! TF.GenerationSoftware,KiCad,Pcbnew,(5.1.7)-1*
G04 #@! TF.CreationDate,2021-10-27T14:05:12+02:00*
G04 #@! TF.ProjectId,Power_module_v1,506f7765-725f-46d6-9f64-756c655f7631,rev?*
G04 #@! TF.SameCoordinates,Original*
G04 #@! TF.FileFunction,Soldermask,Bot*
G04 #@! TF.FilePolarity,Negative*
%FSLAX46Y46*%
G04 Gerber Fmt 4.6, Leading zero omitted, Abs format (unit mm)*
G04 Created by KiCad (PCBNEW (5.1.7)-1) date 2021-10-27 14:05:12*
%MOMM*%
%LPD*%
G01*
G04 APERTURE LIST*
%ADD10C,3.102000*%
%ADD11C,1.782000*%
%ADD12O,2.502000X1.902000*%
%ADD13O,1.802000X1.802000*%
%ADD14O,1.452000X1.802000*%
%ADD15O,1.202000X1.602000*%
%ADD16C,1.702000*%
%ADD17C,0.150000*%
G04 APERTURE END LIST*
D10*
X154000000Y-78000000D03*
D11*
X121158000Y-105664000D03*
X123698000Y-105664000D03*
G36*
G01*
X122954000Y-87753298D02*
X122954000Y-86744702D01*
G75*
G02*
X123225702Y-86473000I271702J0D01*
G01*
X123959298Y-86473000D01*
G75*
G02*
X124231000Y-86744702I0J-271702D01*
G01*
X124231000Y-87753298D01*
G75*
G02*
X123959298Y-88025000I-271702J0D01*
G01*
X123225702Y-88025000D01*
G75*
G02*
X122954000Y-87753298I0J271702D01*
G01*
G37*
G36*
G01*
X120879000Y-87753298D02*
X120879000Y-86744702D01*
G75*
G02*
X121150702Y-86473000I271702J0D01*
G01*
X121884298Y-86473000D01*
G75*
G02*
X122156000Y-86744702I0J-271702D01*
G01*
X122156000Y-87753298D01*
G75*
G02*
X121884298Y-88025000I-271702J0D01*
G01*
X121150702Y-88025000D01*
G75*
G02*
X120879000Y-87753298I0J271702D01*
G01*
G37*
G36*
G01*
X105133000Y-94118000D02*
X105133000Y-93918000D01*
G75*
G02*
X105184000Y-93867000I51000J0D01*
G01*
X106184000Y-93867000D01*
G75*
G02*
X106235000Y-93918000I0J-51000D01*
G01*
X106235000Y-94118000D01*
G75*
G02*
X106184000Y-94169000I-51000J0D01*
G01*
X105184000Y-94169000D01*
G75*
G02*
X105133000Y-94118000I0J51000D01*
G01*
G37*
G36*
G01*
X105133000Y-93718000D02*
X105133000Y-93518000D01*
G75*
G02*
X105184000Y-93467000I51000J0D01*
G01*
X106184000Y-93467000D01*
G75*
G02*
X106235000Y-93518000I0J-51000D01*
G01*
X106235000Y-93718000D01*
G75*
G02*
X106184000Y-93769000I-51000J0D01*
G01*
X105184000Y-93769000D01*
G75*
G02*
X105133000Y-93718000I0J51000D01*
G01*
G37*
G36*
G01*
X105133000Y-93318000D02*
X105133000Y-93118000D01*
G75*
G02*
X105184000Y-93067000I51000J0D01*
G01*
X106184000Y-93067000D01*
G75*
G02*
X106235000Y-93118000I0J-51000D01*
G01*
X106235000Y-93318000D01*
G75*
G02*
X106184000Y-93369000I-51000J0D01*
G01*
X105184000Y-93369000D01*
G75*
G02*
X105133000Y-93318000I0J51000D01*
G01*
G37*
G36*
G01*
X105133000Y-92918000D02*
X105133000Y-92718000D01*
G75*
G02*
X105184000Y-92667000I51000J0D01*
G01*
X106184000Y-92667000D01*
G75*
G02*
X106235000Y-92718000I0J-51000D01*
G01*
X106235000Y-92918000D01*
G75*
G02*
X106184000Y-92969000I-51000J0D01*
G01*
X105184000Y-92969000D01*
G75*
G02*
X105133000Y-92918000I0J51000D01*
G01*
G37*
G36*
G01*
X105133000Y-92518000D02*
X105133000Y-92318000D01*
G75*
G02*
X105184000Y-92267000I51000J0D01*
G01*
X106184000Y-92267000D01*
G75*
G02*
X106235000Y-92318000I0J-51000D01*
G01*
X106235000Y-92518000D01*
G75*
G02*
X106184000Y-92569000I-51000J0D01*
G01*
X105184000Y-92569000D01*
G75*
G02*
X105133000Y-92518000I0J51000D01*
G01*
G37*
G36*
G01*
X107633000Y-92518000D02*
X107633000Y-92318000D01*
G75*
G02*
X107684000Y-92267000I51000J0D01*
G01*
X108684000Y-92267000D01*
G75*
G02*
X108735000Y-92318000I0J-51000D01*
G01*
X108735000Y-92518000D01*
G75*
G02*
X108684000Y-92569000I-51000J0D01*
G01*
X107684000Y-92569000D01*
G75*
G02*
X107633000Y-92518000I0J51000D01*
G01*
G37*
G36*
G01*
X107633000Y-92918000D02*
X107633000Y-92718000D01*
G75*
G02*
X107684000Y-92667000I51000J0D01*
G01*
X108684000Y-92667000D01*
G75*
G02*
X108735000Y-92718000I0J-51000D01*
G01*
X108735000Y-92918000D01*
G75*
G02*
X108684000Y-92969000I-51000J0D01*
G01*
X107684000Y-92969000D01*
G75*
G02*
X107633000Y-92918000I0J51000D01*
G01*
G37*
G36*
G01*
X107633000Y-93318000D02*
X107633000Y-93118000D01*
G75*
G02*
X107684000Y-93067000I51000J0D01*
G01*
X108684000Y-93067000D01*
G75*
G02*
X108735000Y-93118000I0J-51000D01*
G01*
X108735000Y-93318000D01*
G75*
G02*
X108684000Y-93369000I-51000J0D01*
G01*
X107684000Y-93369000D01*
G75*
G02*
X107633000Y-93318000I0J51000D01*
G01*
G37*
G36*
G01*
X107633000Y-93718000D02*
X107633000Y-93518000D01*
G75*
G02*
X107684000Y-93467000I51000J0D01*
G01*
X108684000Y-93467000D01*
G75*
G02*
X108735000Y-93518000I0J-51000D01*
G01*
X108735000Y-93718000D01*
G75*
G02*
X108684000Y-93769000I-51000J0D01*
G01*
X107684000Y-93769000D01*
G75*
G02*
X107633000Y-93718000I0J51000D01*
G01*
G37*
G36*
G01*
X107633000Y-94118000D02*
X107633000Y-93918000D01*
G75*
G02*
X107684000Y-93867000I51000J0D01*
G01*
X108684000Y-93867000D01*
G75*
G02*
X108735000Y-93918000I0J-51000D01*
G01*
X108735000Y-94118000D01*
G75*
G02*
X108684000Y-94169000I-51000J0D01*
G01*
X107684000Y-94169000D01*
G75*
G02*
X107633000Y-94118000I0J51000D01*
G01*
G37*
G36*
G01*
X106433000Y-93968000D02*
X106433000Y-92468000D01*
G75*
G02*
X106484000Y-92417000I51000J0D01*
G01*
X107384000Y-92417000D01*
G75*
G02*
X107435000Y-92468000I0J-51000D01*
G01*
X107435000Y-93968000D01*
G75*
G02*
X107384000Y-94019000I-51000J0D01*
G01*
X106484000Y-94019000D01*
G75*
G02*
X106433000Y-93968000I0J51000D01*
G01*
G37*
D12*
X132588000Y-104394000D03*
G36*
G01*
X131872400Y-105418000D02*
X133303600Y-105418000D01*
G75*
G02*
X133514000Y-105628400I0J-210400D01*
G01*
X133514000Y-106259600D01*
G75*
G02*
X133303600Y-106470000I-210400J0D01*
G01*
X131872400Y-106470000D01*
G75*
G02*
X131662000Y-106259600I0J210400D01*
G01*
X131662000Y-105628400D01*
G75*
G02*
X131872400Y-105418000I210400J0D01*
G01*
G37*
G36*
G01*
X131872400Y-102318000D02*
X133303600Y-102318000D01*
G75*
G02*
X133514000Y-102528400I0J-210400D01*
G01*
X133514000Y-103159600D01*
G75*
G02*
X133303600Y-103370000I-210400J0D01*
G01*
X131872400Y-103370000D01*
G75*
G02*
X131662000Y-103159600I0J210400D01*
G01*
X131662000Y-102528400D01*
G75*
G02*
X131872400Y-102318000I210400J0D01*
G01*
G37*
X135890000Y-104394000D03*
G36*
G01*
X135174400Y-105418000D02*
X136605600Y-105418000D01*
G75*
G02*
X136816000Y-105628400I0J-210400D01*
G01*
X136816000Y-106259600D01*
G75*
G02*
X136605600Y-106470000I-210400J0D01*
G01*
X135174400Y-106470000D01*
G75*
G02*
X134964000Y-106259600I0J210400D01*
G01*
X134964000Y-105628400D01*
G75*
G02*
X135174400Y-105418000I210400J0D01*
G01*
G37*
G36*
G01*
X135174400Y-102318000D02*
X136605600Y-102318000D01*
G75*
G02*
X136816000Y-102528400I0J-210400D01*
G01*
X136816000Y-103159600D01*
G75*
G02*
X136605600Y-103370000I-210400J0D01*
G01*
X135174400Y-103370000D01*
G75*
G02*
X134964000Y-103159600I0J210400D01*
G01*
X134964000Y-102528400D01*
G75*
G02*
X135174400Y-102318000I210400J0D01*
G01*
G37*
X113030000Y-99314000D03*
G36*
G01*
X113745600Y-98290000D02*
X112314400Y-98290000D01*
G75*
G02*
X112104000Y-98079600I0J210400D01*
G01*
X112104000Y-97448400D01*
G75*
G02*
X112314400Y-97238000I210400J0D01*
G01*
X113745600Y-97238000D01*
G75*
G02*
X113956000Y-97448400I0J-210400D01*
G01*
X113956000Y-98079600D01*
G75*
G02*
X113745600Y-98290000I-210400J0D01*
G01*
G37*
G36*
G01*
X113745600Y-101390000D02*
X112314400Y-101390000D01*
G75*
G02*
X112104000Y-101179600I0J210400D01*
G01*
X112104000Y-100548400D01*
G75*
G02*
X112314400Y-100338000I210400J0D01*
G01*
X113745600Y-100338000D01*
G75*
G02*
X113956000Y-100548400I0J-210400D01*
G01*
X113956000Y-101179600D01*
G75*
G02*
X113745600Y-101390000I-210400J0D01*
G01*
G37*
X109474000Y-99314000D03*
G36*
G01*
X110189600Y-98290000D02*
X108758400Y-98290000D01*
G75*
G02*
X108548000Y-98079600I0J210400D01*
G01*
X108548000Y-97448400D01*
G75*
G02*
X108758400Y-97238000I210400J0D01*
G01*
X110189600Y-97238000D01*
G75*
G02*
X110400000Y-97448400I0J-210400D01*
G01*
X110400000Y-98079600D01*
G75*
G02*
X110189600Y-98290000I-210400J0D01*
G01*
G37*
G36*
G01*
X110189600Y-101390000D02*
X108758400Y-101390000D01*
G75*
G02*
X108548000Y-101179600I0J210400D01*
G01*
X108548000Y-100548400D01*
G75*
G02*
X108758400Y-100338000I210400J0D01*
G01*
X110189600Y-100338000D01*
G75*
G02*
X110400000Y-100548400I0J-210400D01*
G01*
X110400000Y-101179600D01*
G75*
G02*
X110189600Y-101390000I-210400J0D01*
G01*
G37*
G36*
G01*
X127285000Y-91155000D02*
X127285000Y-91605000D01*
G75*
G02*
X127234000Y-91656000I-51000J0D01*
G01*
X124734000Y-91656000D01*
G75*
G02*
X124683000Y-91605000I0J51000D01*
G01*
X124683000Y-91155000D01*
G75*
G02*
X124734000Y-91104000I51000J0D01*
G01*
X127234000Y-91104000D01*
G75*
G02*
X127285000Y-91155000I0J-51000D01*
G01*
G37*
G36*
G01*
X127285000Y-91805000D02*
X127285000Y-92255000D01*
G75*
G02*
X127234000Y-92306000I-51000J0D01*
G01*
X124734000Y-92306000D01*
G75*
G02*
X124683000Y-92255000I0J51000D01*
G01*
X124683000Y-91805000D01*
G75*
G02*
X124734000Y-91754000I51000J0D01*
G01*
X127234000Y-91754000D01*
G75*
G02*
X127285000Y-91805000I0J-51000D01*
G01*
G37*
G36*
G01*
X127285000Y-92455000D02*
X127285000Y-92905000D01*
G75*
G02*
X127234000Y-92956000I-51000J0D01*
G01*
X124734000Y-92956000D01*
G75*
G02*
X124683000Y-92905000I0J51000D01*
G01*
X124683000Y-92455000D01*
G75*
G02*
X124734000Y-92404000I51000J0D01*
G01*
X127234000Y-92404000D01*
G75*
G02*
X127285000Y-92455000I0J-51000D01*
G01*
G37*
G36*
G01*
X127285000Y-93105000D02*
X127285000Y-93555000D01*
G75*
G02*
X127234000Y-93606000I-51000J0D01*
G01*
X124734000Y-93606000D01*
G75*
G02*
X124683000Y-93555000I0J51000D01*
G01*
X124683000Y-93105000D01*
G75*
G02*
X124734000Y-93054000I51000J0D01*
G01*
X127234000Y-93054000D01*
G75*
G02*
X127285000Y-93105000I0J-51000D01*
G01*
G37*
G36*
G01*
X127285000Y-93755000D02*
X127285000Y-94205000D01*
G75*
G02*
X127234000Y-94256000I-51000J0D01*
G01*
X124734000Y-94256000D01*
G75*
G02*
X124683000Y-94205000I0J51000D01*
G01*
X124683000Y-93755000D01*
G75*
G02*
X124734000Y-93704000I51000J0D01*
G01*
X127234000Y-93704000D01*
G75*
G02*
X127285000Y-93755000I0J-51000D01*
G01*
G37*
G36*
G01*
X127285000Y-94405000D02*
X127285000Y-94855000D01*
G75*
G02*
X127234000Y-94906000I-51000J0D01*
G01*
X124734000Y-94906000D01*
G75*
G02*
X124683000Y-94855000I0J51000D01*
G01*
X124683000Y-94405000D01*
G75*
G02*
X124734000Y-94354000I51000J0D01*
G01*
X127234000Y-94354000D01*
G75*
G02*
X127285000Y-94405000I0J-51000D01*
G01*
G37*
G36*
G01*
X127285000Y-95055000D02*
X127285000Y-95505000D01*
G75*
G02*
X127234000Y-95556000I-51000J0D01*
G01*
X124734000Y-95556000D01*
G75*
G02*
X124683000Y-95505000I0J51000D01*
G01*
X124683000Y-95055000D01*
G75*
G02*
X124734000Y-95004000I51000J0D01*
G01*
X127234000Y-95004000D01*
G75*
G02*
X127285000Y-95055000I0J-51000D01*
G01*
G37*
G36*
G01*
X127285000Y-95705000D02*
X127285000Y-96155000D01*
G75*
G02*
X127234000Y-96206000I-51000J0D01*
G01*
X124734000Y-96206000D01*
G75*
G02*
X124683000Y-96155000I0J51000D01*
G01*
X124683000Y-95705000D01*
G75*
G02*
X124734000Y-95654000I51000J0D01*
G01*
X127234000Y-95654000D01*
G75*
G02*
X127285000Y-95705000I0J-51000D01*
G01*
G37*
G36*
G01*
X127285000Y-96355000D02*
X127285000Y-96805000D01*
G75*
G02*
X127234000Y-96856000I-51000J0D01*
G01*
X124734000Y-96856000D01*
G75*
G02*
X124683000Y-96805000I0J51000D01*
G01*
X124683000Y-96355000D01*
G75*
G02*
X124734000Y-96304000I51000J0D01*
G01*
X127234000Y-96304000D01*
G75*
G02*
X127285000Y-96355000I0J-51000D01*
G01*
G37*
G36*
G01*
X127285000Y-97005000D02*
X127285000Y-97455000D01*
G75*
G02*
X127234000Y-97506000I-51000J0D01*
G01*
X124734000Y-97506000D01*
G75*
G02*
X124683000Y-97455000I0J51000D01*
G01*
X124683000Y-97005000D01*
G75*
G02*
X124734000Y-96954000I51000J0D01*
G01*
X127234000Y-96954000D01*
G75*
G02*
X127285000Y-97005000I0J-51000D01*
G01*
G37*
G36*
G01*
X120085000Y-97005000D02*
X120085000Y-97455000D01*
G75*
G02*
X120034000Y-97506000I-51000J0D01*
G01*
X117534000Y-97506000D01*
G75*
G02*
X117483000Y-97455000I0J51000D01*
G01*
X117483000Y-97005000D01*
G75*
G02*
X117534000Y-96954000I51000J0D01*
G01*
X120034000Y-96954000D01*
G75*
G02*
X120085000Y-97005000I0J-51000D01*
G01*
G37*
G36*
G01*
X120085000Y-96355000D02*
X120085000Y-96805000D01*
G75*
G02*
X120034000Y-96856000I-51000J0D01*
G01*
X117534000Y-96856000D01*
G75*
G02*
X117483000Y-96805000I0J51000D01*
G01*
X117483000Y-96355000D01*
G75*
G02*
X117534000Y-96304000I51000J0D01*
G01*
X120034000Y-96304000D01*
G75*
G02*
X120085000Y-96355000I0J-51000D01*
G01*
G37*
G36*
G01*
X120085000Y-95705000D02*
X120085000Y-96155000D01*
G75*
G02*
X120034000Y-96206000I-51000J0D01*
G01*
X117534000Y-96206000D01*
G75*
G02*
X117483000Y-96155000I0J51000D01*
G01*
X117483000Y-95705000D01*
G75*
G02*
X117534000Y-95654000I51000J0D01*
G01*
X120034000Y-95654000D01*
G75*
G02*
X120085000Y-95705000I0J-51000D01*
G01*
G37*
G36*
G01*
X120085000Y-95055000D02*
X120085000Y-95505000D01*
G75*
G02*
X120034000Y-95556000I-51000J0D01*
G01*
X117534000Y-95556000D01*
G75*
G02*
X117483000Y-95505000I0J51000D01*
G01*
X117483000Y-95055000D01*
G75*
G02*
X117534000Y-95004000I51000J0D01*
G01*
X120034000Y-95004000D01*
G75*
G02*
X120085000Y-95055000I0J-51000D01*
G01*
G37*
G36*
G01*
X120085000Y-94405000D02*
X120085000Y-94855000D01*
G75*
G02*
X120034000Y-94906000I-51000J0D01*
G01*
X117534000Y-94906000D01*
G75*
G02*
X117483000Y-94855000I0J51000D01*
G01*
X117483000Y-94405000D01*
G75*
G02*
X117534000Y-94354000I51000J0D01*
G01*
X120034000Y-94354000D01*
G75*
G02*
X120085000Y-94405000I0J-51000D01*
G01*
G37*
G36*
G01*
X120085000Y-93755000D02*
X120085000Y-94205000D01*
G75*
G02*
X120034000Y-94256000I-51000J0D01*
G01*
X117534000Y-94256000D01*
G75*
G02*
X117483000Y-94205000I0J51000D01*
G01*
X117483000Y-93755000D01*
G75*
G02*
X117534000Y-93704000I51000J0D01*
G01*
X120034000Y-93704000D01*
G75*
G02*
X120085000Y-93755000I0J-51000D01*
G01*
G37*
G36*
G01*
X120085000Y-93105000D02*
X120085000Y-93555000D01*
G75*
G02*
X120034000Y-93606000I-51000J0D01*
G01*
X117534000Y-93606000D01*
G75*
G02*
X117483000Y-93555000I0J51000D01*
G01*
X117483000Y-93105000D01*
G75*
G02*
X117534000Y-93054000I51000J0D01*
G01*
X120034000Y-93054000D01*
G75*
G02*
X120085000Y-93105000I0J-51000D01*
G01*
G37*
G36*
G01*
X120085000Y-92455000D02*
X120085000Y-92905000D01*
G75*
G02*
X120034000Y-92956000I-51000J0D01*
G01*
X117534000Y-92956000D01*
G75*
G02*
X117483000Y-92905000I0J51000D01*
G01*
X117483000Y-92455000D01*
G75*
G02*
X117534000Y-92404000I51000J0D01*
G01*
X120034000Y-92404000D01*
G75*
G02*
X120085000Y-92455000I0J-51000D01*
G01*
G37*
G36*
G01*
X120085000Y-91805000D02*
X120085000Y-92255000D01*
G75*
G02*
X120034000Y-92306000I-51000J0D01*
G01*
X117534000Y-92306000D01*
G75*
G02*
X117483000Y-92255000I0J51000D01*
G01*
X117483000Y-91805000D01*
G75*
G02*
X117534000Y-91754000I51000J0D01*
G01*
X120034000Y-91754000D01*
G75*
G02*
X120085000Y-91805000I0J-51000D01*
G01*
G37*
G36*
G01*
X120085000Y-91155000D02*
X120085000Y-91605000D01*
G75*
G02*
X120034000Y-91656000I-51000J0D01*
G01*
X117534000Y-91656000D01*
G75*
G02*
X117483000Y-91605000I0J51000D01*
G01*
X117483000Y-91155000D01*
G75*
G02*
X117534000Y-91104000I51000J0D01*
G01*
X120034000Y-91104000D01*
G75*
G02*
X120085000Y-91155000I0J-51000D01*
G01*
G37*
G36*
G01*
X148321172Y-78377000D02*
X149278828Y-78377000D01*
G75*
G02*
X149551000Y-78649172I0J-272172D01*
G01*
X149551000Y-79356828D01*
G75*
G02*
X149278828Y-79629000I-272172J0D01*
G01*
X148321172Y-79629000D01*
G75*
G02*
X148049000Y-79356828I0J272172D01*
G01*
X148049000Y-78649172D01*
G75*
G02*
X148321172Y-78377000I272172J0D01*
G01*
G37*
G36*
G01*
X148321172Y-76327000D02*
X149278828Y-76327000D01*
G75*
G02*
X149551000Y-76599172I0J-272172D01*
G01*
X149551000Y-77306828D01*
G75*
G02*
X149278828Y-77579000I-272172J0D01*
G01*
X148321172Y-77579000D01*
G75*
G02*
X148049000Y-77306828I0J272172D01*
G01*
X148049000Y-76599172D01*
G75*
G02*
X148321172Y-76327000I272172J0D01*
G01*
G37*
G36*
G01*
X150321172Y-78377000D02*
X151278828Y-78377000D01*
G75*
G02*
X151551000Y-78649172I0J-272172D01*
G01*
X151551000Y-79356828D01*
G75*
G02*
X151278828Y-79629000I-272172J0D01*
G01*
X150321172Y-79629000D01*
G75*
G02*
X150049000Y-79356828I0J272172D01*
G01*
X150049000Y-78649172D01*
G75*
G02*
X150321172Y-78377000I272172J0D01*
G01*
G37*
G36*
G01*
X150321172Y-76327000D02*
X151278828Y-76327000D01*
G75*
G02*
X151551000Y-76599172I0J-272172D01*
G01*
X151551000Y-77306828D01*
G75*
G02*
X151278828Y-77579000I-272172J0D01*
G01*
X150321172Y-77579000D01*
G75*
G02*
X150049000Y-77306828I0J272172D01*
G01*
X150049000Y-76599172D01*
G75*
G02*
X150321172Y-76327000I272172J0D01*
G01*
G37*
G36*
G01*
X150223000Y-71911172D02*
X150223000Y-72868828D01*
G75*
G02*
X149950828Y-73141000I-272172J0D01*
G01*
X149243172Y-73141000D01*
G75*
G02*
X148971000Y-72868828I0J272172D01*
G01*
X148971000Y-71911172D01*
G75*
G02*
X149243172Y-71639000I272172J0D01*
G01*
X149950828Y-71639000D01*
G75*
G02*
X150223000Y-71911172I0J-272172D01*
G01*
G37*
G36*
G01*
X152273000Y-71911172D02*
X152273000Y-72868828D01*
G75*
G02*
X152000828Y-73141000I-272172J0D01*
G01*
X151293172Y-73141000D01*
G75*
G02*
X151021000Y-72868828I0J272172D01*
G01*
X151021000Y-71911172D01*
G75*
G02*
X151293172Y-71639000I272172J0D01*
G01*
X152000828Y-71639000D01*
G75*
G02*
X152273000Y-71911172I0J-272172D01*
G01*
G37*
G36*
G01*
X150223000Y-74197172D02*
X150223000Y-75154828D01*
G75*
G02*
X149950828Y-75427000I-272172J0D01*
G01*
X149243172Y-75427000D01*
G75*
G02*
X148971000Y-75154828I0J272172D01*
G01*
X148971000Y-74197172D01*
G75*
G02*
X149243172Y-73925000I272172J0D01*
G01*
X149950828Y-73925000D01*
G75*
G02*
X150223000Y-74197172I0J-272172D01*
G01*
G37*
G36*
G01*
X152273000Y-74197172D02*
X152273000Y-75154828D01*
G75*
G02*
X152000828Y-75427000I-272172J0D01*
G01*
X151293172Y-75427000D01*
G75*
G02*
X151021000Y-75154828I0J272172D01*
G01*
X151021000Y-74197172D01*
G75*
G02*
X151293172Y-73925000I272172J0D01*
G01*
X152000828Y-73925000D01*
G75*
G02*
X152273000Y-74197172I0J-272172D01*
G01*
G37*
G36*
G01*
X149003000Y-82962000D02*
X149003000Y-83662000D01*
G75*
G02*
X148952000Y-83713000I-51000J0D01*
G01*
X148352000Y-83713000D01*
G75*
G02*
X148301000Y-83662000I0J51000D01*
G01*
X148301000Y-82962000D01*
G75*
G02*
X148352000Y-82911000I51000J0D01*
G01*
X148952000Y-82911000D01*
G75*
G02*
X149003000Y-82962000I0J-51000D01*
G01*
G37*
G36*
G01*
X150403000Y-82962000D02*
X150403000Y-83662000D01*
G75*
G02*
X150352000Y-83713000I-51000J0D01*
G01*
X149752000Y-83713000D01*
G75*
G02*
X149701000Y-83662000I0J51000D01*
G01*
X149701000Y-82962000D01*
G75*
G02*
X149752000Y-82911000I51000J0D01*
G01*
X150352000Y-82911000D01*
G75*
G02*
X150403000Y-82962000I0J-51000D01*
G01*
G37*
G36*
G01*
X104677172Y-99976000D02*
X105634828Y-99976000D01*
G75*
G02*
X105907000Y-100248172I0J-272172D01*
G01*
X105907000Y-100955828D01*
G75*
G02*
X105634828Y-101228000I-272172J0D01*
G01*
X104677172Y-101228000D01*
G75*
G02*
X104405000Y-100955828I0J272172D01*
G01*
X104405000Y-100248172D01*
G75*
G02*
X104677172Y-99976000I272172J0D01*
G01*
G37*
G36*
G01*
X104677172Y-97926000D02*
X105634828Y-97926000D01*
G75*
G02*
X105907000Y-98198172I0J-272172D01*
G01*
X105907000Y-98905828D01*
G75*
G02*
X105634828Y-99178000I-272172J0D01*
G01*
X104677172Y-99178000D01*
G75*
G02*
X104405000Y-98905828I0J272172D01*
G01*
X104405000Y-98198172D01*
G75*
G02*
X104677172Y-97926000I272172J0D01*
G01*
G37*
G36*
G01*
X102391172Y-99976000D02*
X103348828Y-99976000D01*
G75*
G02*
X103621000Y-100248172I0J-272172D01*
G01*
X103621000Y-100955828D01*
G75*
G02*
X103348828Y-101228000I-272172J0D01*
G01*
X102391172Y-101228000D01*
G75*
G02*
X102119000Y-100955828I0J272172D01*
G01*
X102119000Y-100248172D01*
G75*
G02*
X102391172Y-99976000I272172J0D01*
G01*
G37*
G36*
G01*
X102391172Y-97926000D02*
X103348828Y-97926000D01*
G75*
G02*
X103621000Y-98198172I0J-272172D01*
G01*
X103621000Y-98905828D01*
G75*
G02*
X103348828Y-99178000I-272172J0D01*
G01*
X102391172Y-99178000D01*
G75*
G02*
X102119000Y-98905828I0J272172D01*
G01*
X102119000Y-98198172D01*
G75*
G02*
X102391172Y-97926000I272172J0D01*
G01*
G37*
G36*
G01*
X126404000Y-72505000D02*
X128104000Y-72505000D01*
G75*
G02*
X128155000Y-72556000I0J-51000D01*
G01*
X128155000Y-74256000D01*
G75*
G02*
X128104000Y-74307000I-51000J0D01*
G01*
X126404000Y-74307000D01*
G75*
G02*
X126353000Y-74256000I0J51000D01*
G01*
X126353000Y-72556000D01*
G75*
G02*
X126404000Y-72505000I51000J0D01*
G01*
G37*
D13*
X124714000Y-73406000D03*
G36*
G01*
X136507000Y-81537702D02*
X136507000Y-82546298D01*
G75*
G02*
X136235298Y-82818000I-271702J0D01*
G01*
X135501702Y-82818000D01*
G75*
G02*
X135230000Y-82546298I0J271702D01*
G01*
X135230000Y-81537702D01*
G75*
G02*
X135501702Y-81266000I271702J0D01*
G01*
X136235298Y-81266000D01*
G75*
G02*
X136507000Y-81537702I0J-271702D01*
G01*
G37*
G36*
G01*
X138582000Y-81537702D02*
X138582000Y-82546298D01*
G75*
G02*
X138310298Y-82818000I-271702J0D01*
G01*
X137576702Y-82818000D01*
G75*
G02*
X137305000Y-82546298I0J271702D01*
G01*
X137305000Y-81537702D01*
G75*
G02*
X137576702Y-81266000I271702J0D01*
G01*
X138310298Y-81266000D01*
G75*
G02*
X138582000Y-81537702I0J-271702D01*
G01*
G37*
G36*
G01*
X142751702Y-96178500D02*
X143760298Y-96178500D01*
G75*
G02*
X144032000Y-96450202I0J-271702D01*
G01*
X144032000Y-97183798D01*
G75*
G02*
X143760298Y-97455500I-271702J0D01*
G01*
X142751702Y-97455500D01*
G75*
G02*
X142480000Y-97183798I0J271702D01*
G01*
X142480000Y-96450202D01*
G75*
G02*
X142751702Y-96178500I271702J0D01*
G01*
G37*
G36*
G01*
X142751702Y-94103500D02*
X143760298Y-94103500D01*
G75*
G02*
X144032000Y-94375202I0J-271702D01*
G01*
X144032000Y-95108798D01*
G75*
G02*
X143760298Y-95380500I-271702J0D01*
G01*
X142751702Y-95380500D01*
G75*
G02*
X142480000Y-95108798I0J271702D01*
G01*
X142480000Y-94375202D01*
G75*
G02*
X142751702Y-94103500I271702J0D01*
G01*
G37*
G36*
G01*
X126488298Y-80627000D02*
X125479702Y-80627000D01*
G75*
G02*
X125208000Y-80355298I0J271702D01*
G01*
X125208000Y-79621702D01*
G75*
G02*
X125479702Y-79350000I271702J0D01*
G01*
X126488298Y-79350000D01*
G75*
G02*
X126760000Y-79621702I0J-271702D01*
G01*
X126760000Y-80355298D01*
G75*
G02*
X126488298Y-80627000I-271702J0D01*
G01*
G37*
G36*
G01*
X126488298Y-82702000D02*
X125479702Y-82702000D01*
G75*
G02*
X125208000Y-82430298I0J271702D01*
G01*
X125208000Y-81696702D01*
G75*
G02*
X125479702Y-81425000I271702J0D01*
G01*
X126488298Y-81425000D01*
G75*
G02*
X126760000Y-81696702I0J-271702D01*
G01*
X126760000Y-82430298D01*
G75*
G02*
X126488298Y-82702000I-271702J0D01*
G01*
G37*
G36*
G01*
X142497702Y-89045000D02*
X143506298Y-89045000D01*
G75*
G02*
X143778000Y-89316702I0J-271702D01*
G01*
X143778000Y-90050298D01*
G75*
G02*
X143506298Y-90322000I-271702J0D01*
G01*
X142497702Y-90322000D01*
G75*
G02*
X142226000Y-90050298I0J271702D01*
G01*
X142226000Y-89316702D01*
G75*
G02*
X142497702Y-89045000I271702J0D01*
G01*
G37*
G36*
G01*
X142497702Y-86970000D02*
X143506298Y-86970000D01*
G75*
G02*
X143778000Y-87241702I0J-271702D01*
G01*
X143778000Y-87975298D01*
G75*
G02*
X143506298Y-88247000I-271702J0D01*
G01*
X142497702Y-88247000D01*
G75*
G02*
X142226000Y-87975298I0J271702D01*
G01*
X142226000Y-87241702D01*
G75*
G02*
X142497702Y-86970000I271702J0D01*
G01*
G37*
G36*
G01*
X136507000Y-84077702D02*
X136507000Y-85086298D01*
G75*
G02*
X136235298Y-85358000I-271702J0D01*
G01*
X135501702Y-85358000D01*
G75*
G02*
X135230000Y-85086298I0J271702D01*
G01*
X135230000Y-84077702D01*
G75*
G02*
X135501702Y-83806000I271702J0D01*
G01*
X136235298Y-83806000D01*
G75*
G02*
X136507000Y-84077702I0J-271702D01*
G01*
G37*
G36*
G01*
X138582000Y-84077702D02*
X138582000Y-85086298D01*
G75*
G02*
X138310298Y-85358000I-271702J0D01*
G01*
X137576702Y-85358000D01*
G75*
G02*
X137305000Y-85086298I0J271702D01*
G01*
X137305000Y-84077702D01*
G75*
G02*
X137576702Y-83806000I271702J0D01*
G01*
X138310298Y-83806000D01*
G75*
G02*
X138582000Y-84077702I0J-271702D01*
G01*
G37*
G36*
G01*
X122945000Y-89785298D02*
X122945000Y-88776702D01*
G75*
G02*
X123216702Y-88505000I271702J0D01*
G01*
X123950298Y-88505000D01*
G75*
G02*
X124222000Y-88776702I0J-271702D01*
G01*
X124222000Y-89785298D01*
G75*
G02*
X123950298Y-90057000I-271702J0D01*
G01*
X123216702Y-90057000D01*
G75*
G02*
X122945000Y-89785298I0J271702D01*
G01*
G37*
G36*
G01*
X120870000Y-89785298D02*
X120870000Y-88776702D01*
G75*
G02*
X121141702Y-88505000I271702J0D01*
G01*
X121875298Y-88505000D01*
G75*
G02*
X122147000Y-88776702I0J-271702D01*
G01*
X122147000Y-89785298D01*
G75*
G02*
X121875298Y-90057000I-271702J0D01*
G01*
X121141702Y-90057000D01*
G75*
G02*
X120870000Y-89785298I0J271702D01*
G01*
G37*
G36*
G01*
X109597500Y-81530298D02*
X109597500Y-80521702D01*
G75*
G02*
X109869202Y-80250000I271702J0D01*
G01*
X110602798Y-80250000D01*
G75*
G02*
X110874500Y-80521702I0J-271702D01*
G01*
X110874500Y-81530298D01*
G75*
G02*
X110602798Y-81802000I-271702J0D01*
G01*
X109869202Y-81802000D01*
G75*
G02*
X109597500Y-81530298I0J271702D01*
G01*
G37*
G36*
G01*
X107522500Y-81530298D02*
X107522500Y-80521702D01*
G75*
G02*
X107794202Y-80250000I271702J0D01*
G01*
X108527798Y-80250000D01*
G75*
G02*
X108799500Y-80521702I0J-271702D01*
G01*
X108799500Y-81530298D01*
G75*
G02*
X108527798Y-81802000I-271702J0D01*
G01*
X107794202Y-81802000D01*
G75*
G02*
X107522500Y-81530298I0J271702D01*
G01*
G37*
G36*
G01*
X115566298Y-79611000D02*
X114557702Y-79611000D01*
G75*
G02*
X114286000Y-79339298I0J271702D01*
G01*
X114286000Y-78605702D01*
G75*
G02*
X114557702Y-78334000I271702J0D01*
G01*
X115566298Y-78334000D01*
G75*
G02*
X115838000Y-78605702I0J-271702D01*
G01*
X115838000Y-79339298D01*
G75*
G02*
X115566298Y-79611000I-271702J0D01*
G01*
G37*
G36*
G01*
X115566298Y-81686000D02*
X114557702Y-81686000D01*
G75*
G02*
X114286000Y-81414298I0J271702D01*
G01*
X114286000Y-80680702D01*
G75*
G02*
X114557702Y-80409000I271702J0D01*
G01*
X115566298Y-80409000D01*
G75*
G02*
X115838000Y-80680702I0J-271702D01*
G01*
X115838000Y-81414298D01*
G75*
G02*
X115566298Y-81686000I-271702J0D01*
G01*
G37*
G36*
G01*
X108821000Y-88649702D02*
X108821000Y-89658298D01*
G75*
G02*
X108549298Y-89930000I-271702J0D01*
G01*
X107815702Y-89930000D01*
G75*
G02*
X107544000Y-89658298I0J271702D01*
G01*
X107544000Y-88649702D01*
G75*
G02*
X107815702Y-88378000I271702J0D01*
G01*
X108549298Y-88378000D01*
G75*
G02*
X108821000Y-88649702I0J-271702D01*
G01*
G37*
G36*
G01*
X110896000Y-88649702D02*
X110896000Y-89658298D01*
G75*
G02*
X110624298Y-89930000I-271702J0D01*
G01*
X109890702Y-89930000D01*
G75*
G02*
X109619000Y-89658298I0J271702D01*
G01*
X109619000Y-88649702D01*
G75*
G02*
X109890702Y-88378000I271702J0D01*
G01*
X110624298Y-88378000D01*
G75*
G02*
X110896000Y-88649702I0J-271702D01*
G01*
G37*
G36*
G01*
X115171000Y-87633702D02*
X115171000Y-88642298D01*
G75*
G02*
X114899298Y-88914000I-271702J0D01*
G01*
X114165702Y-88914000D01*
G75*
G02*
X113894000Y-88642298I0J271702D01*
G01*
X113894000Y-87633702D01*
G75*
G02*
X114165702Y-87362000I271702J0D01*
G01*
X114899298Y-87362000D01*
G75*
G02*
X115171000Y-87633702I0J-271702D01*
G01*
G37*
G36*
G01*
X117246000Y-87633702D02*
X117246000Y-88642298D01*
G75*
G02*
X116974298Y-88914000I-271702J0D01*
G01*
X116240702Y-88914000D01*
G75*
G02*
X115969000Y-88642298I0J271702D01*
G01*
X115969000Y-87633702D01*
G75*
G02*
X116240702Y-87362000I271702J0D01*
G01*
X116974298Y-87362000D01*
G75*
G02*
X117246000Y-87633702I0J-271702D01*
G01*
G37*
G36*
G01*
X108567000Y-95253702D02*
X108567000Y-96262298D01*
G75*
G02*
X108295298Y-96534000I-271702J0D01*
G01*
X107561702Y-96534000D01*
G75*
G02*
X107290000Y-96262298I0J271702D01*
G01*
X107290000Y-95253702D01*
G75*
G02*
X107561702Y-94982000I271702J0D01*
G01*
X108295298Y-94982000D01*
G75*
G02*
X108567000Y-95253702I0J-271702D01*
G01*
G37*
G36*
G01*
X110642000Y-95253702D02*
X110642000Y-96262298D01*
G75*
G02*
X110370298Y-96534000I-271702J0D01*
G01*
X109636702Y-96534000D01*
G75*
G02*
X109365000Y-96262298I0J271702D01*
G01*
X109365000Y-95253702D01*
G75*
G02*
X109636702Y-94982000I271702J0D01*
G01*
X110370298Y-94982000D01*
G75*
G02*
X110642000Y-95253702I0J-271702D01*
G01*
G37*
G36*
G01*
X105301000Y-96262298D02*
X105301000Y-95253702D01*
G75*
G02*
X105572702Y-94982000I271702J0D01*
G01*
X106306298Y-94982000D01*
G75*
G02*
X106578000Y-95253702I0J-271702D01*
G01*
X106578000Y-96262298D01*
G75*
G02*
X106306298Y-96534000I-271702J0D01*
G01*
X105572702Y-96534000D01*
G75*
G02*
X105301000Y-96262298I0J271702D01*
G01*
G37*
G36*
G01*
X103226000Y-96262298D02*
X103226000Y-95253702D01*
G75*
G02*
X103497702Y-94982000I271702J0D01*
G01*
X104231298Y-94982000D01*
G75*
G02*
X104503000Y-95253702I0J-271702D01*
G01*
X104503000Y-96262298D01*
G75*
G02*
X104231298Y-96534000I-271702J0D01*
G01*
X103497702Y-96534000D01*
G75*
G02*
X103226000Y-96262298I0J271702D01*
G01*
G37*
G36*
G01*
X128372000Y-87626298D02*
X128372000Y-86617702D01*
G75*
G02*
X128643702Y-86346000I271702J0D01*
G01*
X129377298Y-86346000D01*
G75*
G02*
X129649000Y-86617702I0J-271702D01*
G01*
X129649000Y-87626298D01*
G75*
G02*
X129377298Y-87898000I-271702J0D01*
G01*
X128643702Y-87898000D01*
G75*
G02*
X128372000Y-87626298I0J271702D01*
G01*
G37*
G36*
G01*
X130447000Y-87626298D02*
X130447000Y-86617702D01*
G75*
G02*
X130718702Y-86346000I271702J0D01*
G01*
X131452298Y-86346000D01*
G75*
G02*
X131724000Y-86617702I0J-271702D01*
G01*
X131724000Y-87626298D01*
G75*
G02*
X131452298Y-87898000I-271702J0D01*
G01*
X130718702Y-87898000D01*
G75*
G02*
X130447000Y-87626298I0J271702D01*
G01*
G37*
G36*
G01*
X145037702Y-86970000D02*
X146046298Y-86970000D01*
G75*
G02*
X146318000Y-87241702I0J-271702D01*
G01*
X146318000Y-87975298D01*
G75*
G02*
X146046298Y-88247000I-271702J0D01*
G01*
X145037702Y-88247000D01*
G75*
G02*
X144766000Y-87975298I0J271702D01*
G01*
X144766000Y-87241702D01*
G75*
G02*
X145037702Y-86970000I271702J0D01*
G01*
G37*
G36*
G01*
X145037702Y-89045000D02*
X146046298Y-89045000D01*
G75*
G02*
X146318000Y-89316702I0J-271702D01*
G01*
X146318000Y-90050298D01*
G75*
G02*
X146046298Y-90322000I-271702J0D01*
G01*
X145037702Y-90322000D01*
G75*
G02*
X144766000Y-90050298I0J271702D01*
G01*
X144766000Y-89316702D01*
G75*
G02*
X145037702Y-89045000I271702J0D01*
G01*
G37*
G36*
G01*
X136507000Y-78997702D02*
X136507000Y-80006298D01*
G75*
G02*
X136235298Y-80278000I-271702J0D01*
G01*
X135501702Y-80278000D01*
G75*
G02*
X135230000Y-80006298I0J271702D01*
G01*
X135230000Y-78997702D01*
G75*
G02*
X135501702Y-78726000I271702J0D01*
G01*
X136235298Y-78726000D01*
G75*
G02*
X136507000Y-78997702I0J-271702D01*
G01*
G37*
G36*
G01*
X138582000Y-78997702D02*
X138582000Y-80006298D01*
G75*
G02*
X138310298Y-80278000I-271702J0D01*
G01*
X137576702Y-80278000D01*
G75*
G02*
X137305000Y-80006298I0J271702D01*
G01*
X137305000Y-78997702D01*
G75*
G02*
X137576702Y-78726000I271702J0D01*
G01*
X138310298Y-78726000D01*
G75*
G02*
X138582000Y-78997702I0J-271702D01*
G01*
G37*
G36*
G01*
X135273000Y-77720298D02*
X135273000Y-76711702D01*
G75*
G02*
X135544702Y-76440000I271702J0D01*
G01*
X136278298Y-76440000D01*
G75*
G02*
X136550000Y-76711702I0J-271702D01*
G01*
X136550000Y-77720298D01*
G75*
G02*
X136278298Y-77992000I-271702J0D01*
G01*
X135544702Y-77992000D01*
G75*
G02*
X135273000Y-77720298I0J271702D01*
G01*
G37*
G36*
G01*
X133198000Y-77720298D02*
X133198000Y-76711702D01*
G75*
G02*
X133469702Y-76440000I271702J0D01*
G01*
X134203298Y-76440000D01*
G75*
G02*
X134475000Y-76711702I0J-271702D01*
G01*
X134475000Y-77720298D01*
G75*
G02*
X134203298Y-77992000I-271702J0D01*
G01*
X133469702Y-77992000D01*
G75*
G02*
X133198000Y-77720298I0J271702D01*
G01*
G37*
G36*
G01*
X129028298Y-80627000D02*
X128019702Y-80627000D01*
G75*
G02*
X127748000Y-80355298I0J271702D01*
G01*
X127748000Y-79621702D01*
G75*
G02*
X128019702Y-79350000I271702J0D01*
G01*
X129028298Y-79350000D01*
G75*
G02*
X129300000Y-79621702I0J-271702D01*
G01*
X129300000Y-80355298D01*
G75*
G02*
X129028298Y-80627000I-271702J0D01*
G01*
G37*
G36*
G01*
X129028298Y-82702000D02*
X128019702Y-82702000D01*
G75*
G02*
X127748000Y-82430298I0J271702D01*
G01*
X127748000Y-81696702D01*
G75*
G02*
X128019702Y-81425000I271702J0D01*
G01*
X129028298Y-81425000D01*
G75*
G02*
X129300000Y-81696702I0J-271702D01*
G01*
X129300000Y-82430298D01*
G75*
G02*
X129028298Y-82702000I-271702J0D01*
G01*
G37*
D14*
X114554000Y-106476740D03*
D15*
X108634000Y-103476740D03*
X113474000Y-103476740D03*
D14*
X107554000Y-106476740D03*
D13*
X120396000Y-73406000D03*
G36*
G01*
X118706000Y-74307000D02*
X117006000Y-74307000D01*
G75*
G02*
X116955000Y-74256000I0J51000D01*
G01*
X116955000Y-72556000D01*
G75*
G02*
X117006000Y-72505000I51000J0D01*
G01*
X118706000Y-72505000D01*
G75*
G02*
X118757000Y-72556000I0J-51000D01*
G01*
X118757000Y-74256000D01*
G75*
G02*
X118706000Y-74307000I-51000J0D01*
G01*
G37*
X100203000Y-71628000D03*
X100203000Y-74168000D03*
X100203000Y-76708000D03*
X100203000Y-79248000D03*
X100203000Y-81788000D03*
G36*
G01*
X101104000Y-83478000D02*
X101104000Y-85178000D01*
G75*
G02*
X101053000Y-85229000I-51000J0D01*
G01*
X99353000Y-85229000D01*
G75*
G02*
X99302000Y-85178000I0J51000D01*
G01*
X99302000Y-83478000D01*
G75*
G02*
X99353000Y-83427000I51000J0D01*
G01*
X101053000Y-83427000D01*
G75*
G02*
X101104000Y-83478000I0J-51000D01*
G01*
G37*
G36*
G01*
X139916000Y-81111000D02*
X141516000Y-81111000D01*
G75*
G02*
X141567000Y-81162000I0J-51000D01*
G01*
X141567000Y-85462000D01*
G75*
G02*
X141516000Y-85513000I-51000J0D01*
G01*
X139916000Y-85513000D01*
G75*
G02*
X139865000Y-85462000I0J51000D01*
G01*
X139865000Y-81162000D01*
G75*
G02*
X139916000Y-81111000I51000J0D01*
G01*
G37*
G36*
G01*
X142616000Y-81111000D02*
X144216000Y-81111000D01*
G75*
G02*
X144267000Y-81162000I0J-51000D01*
G01*
X144267000Y-85462000D01*
G75*
G02*
X144216000Y-85513000I-51000J0D01*
G01*
X142616000Y-85513000D01*
G75*
G02*
X142565000Y-85462000I0J51000D01*
G01*
X142565000Y-81162000D01*
G75*
G02*
X142616000Y-81111000I51000J0D01*
G01*
G37*
G36*
G01*
X130564000Y-82169000D02*
X131564000Y-82169000D01*
G75*
G02*
X131615000Y-82220000I0J-51000D01*
G01*
X131615000Y-85420000D01*
G75*
G02*
X131564000Y-85471000I-51000J0D01*
G01*
X130564000Y-85471000D01*
G75*
G02*
X130513000Y-85420000I0J51000D01*
G01*
X130513000Y-82220000D01*
G75*
G02*
X130564000Y-82169000I51000J0D01*
G01*
G37*
G36*
G01*
X132764000Y-82169000D02*
X133764000Y-82169000D01*
G75*
G02*
X133815000Y-82220000I0J-51000D01*
G01*
X133815000Y-85420000D01*
G75*
G02*
X133764000Y-85471000I-51000J0D01*
G01*
X132764000Y-85471000D01*
G75*
G02*
X132713000Y-85420000I0J51000D01*
G01*
X132713000Y-82220000D01*
G75*
G02*
X132764000Y-82169000I51000J0D01*
G01*
G37*
G36*
G01*
X145063172Y-91567000D02*
X146020828Y-91567000D01*
G75*
G02*
X146293000Y-91839172I0J-272172D01*
G01*
X146293000Y-92546828D01*
G75*
G02*
X146020828Y-92819000I-272172J0D01*
G01*
X145063172Y-92819000D01*
G75*
G02*
X144791000Y-92546828I0J272172D01*
G01*
X144791000Y-91839172D01*
G75*
G02*
X145063172Y-91567000I272172J0D01*
G01*
G37*
G36*
G01*
X145063172Y-93617000D02*
X146020828Y-93617000D01*
G75*
G02*
X146293000Y-93889172I0J-272172D01*
G01*
X146293000Y-94596828D01*
G75*
G02*
X146020828Y-94869000I-272172J0D01*
G01*
X145063172Y-94869000D01*
G75*
G02*
X144791000Y-94596828I0J272172D01*
G01*
X144791000Y-93889172D01*
G75*
G02*
X145063172Y-93617000I272172J0D01*
G01*
G37*
G36*
G01*
X101455000Y-92993172D02*
X101455000Y-93950828D01*
G75*
G02*
X101182828Y-94223000I-272172J0D01*
G01*
X100475172Y-94223000D01*
G75*
G02*
X100203000Y-93950828I0J272172D01*
G01*
X100203000Y-92993172D01*
G75*
G02*
X100475172Y-92721000I272172J0D01*
G01*
X101182828Y-92721000D01*
G75*
G02*
X101455000Y-92993172I0J-272172D01*
G01*
G37*
G36*
G01*
X103505000Y-92993172D02*
X103505000Y-93950828D01*
G75*
G02*
X103232828Y-94223000I-272172J0D01*
G01*
X102525172Y-94223000D01*
G75*
G02*
X102253000Y-93950828I0J272172D01*
G01*
X102253000Y-92993172D01*
G75*
G02*
X102525172Y-92721000I272172J0D01*
G01*
X103232828Y-92721000D01*
G75*
G02*
X103505000Y-92993172I0J-272172D01*
G01*
G37*
G36*
G01*
X103505000Y-90961172D02*
X103505000Y-91918828D01*
G75*
G02*
X103232828Y-92191000I-272172J0D01*
G01*
X102525172Y-92191000D01*
G75*
G02*
X102253000Y-91918828I0J272172D01*
G01*
X102253000Y-90961172D01*
G75*
G02*
X102525172Y-90689000I272172J0D01*
G01*
X103232828Y-90689000D01*
G75*
G02*
X103505000Y-90961172I0J-272172D01*
G01*
G37*
G36*
G01*
X101455000Y-90961172D02*
X101455000Y-91918828D01*
G75*
G02*
X101182828Y-92191000I-272172J0D01*
G01*
X100475172Y-92191000D01*
G75*
G02*
X100203000Y-91918828I0J272172D01*
G01*
X100203000Y-90961172D01*
G75*
G02*
X100475172Y-90689000I272172J0D01*
G01*
X101182828Y-90689000D01*
G75*
G02*
X101455000Y-90961172I0J-272172D01*
G01*
G37*
G36*
G01*
X109855000Y-93950828D02*
X109855000Y-92993172D01*
G75*
G02*
X110127172Y-92721000I272172J0D01*
G01*
X110834828Y-92721000D01*
G75*
G02*
X111107000Y-92993172I0J-272172D01*
G01*
X111107000Y-93950828D01*
G75*
G02*
X110834828Y-94223000I-272172J0D01*
G01*
X110127172Y-94223000D01*
G75*
G02*
X109855000Y-93950828I0J272172D01*
G01*
G37*
G36*
G01*
X111905000Y-93950828D02*
X111905000Y-92993172D01*
G75*
G02*
X112177172Y-92721000I272172J0D01*
G01*
X112884828Y-92721000D01*
G75*
G02*
X113157000Y-92993172I0J-272172D01*
G01*
X113157000Y-93950828D01*
G75*
G02*
X112884828Y-94223000I-272172J0D01*
G01*
X112177172Y-94223000D01*
G75*
G02*
X111905000Y-93950828I0J272172D01*
G01*
G37*
G36*
G01*
X106396828Y-86968000D02*
X105439172Y-86968000D01*
G75*
G02*
X105167000Y-86695828I0J272172D01*
G01*
X105167000Y-85988172D01*
G75*
G02*
X105439172Y-85716000I272172J0D01*
G01*
X106396828Y-85716000D01*
G75*
G02*
X106669000Y-85988172I0J-272172D01*
G01*
X106669000Y-86695828D01*
G75*
G02*
X106396828Y-86968000I-272172J0D01*
G01*
G37*
G36*
G01*
X106396828Y-89018000D02*
X105439172Y-89018000D01*
G75*
G02*
X105167000Y-88745828I0J272172D01*
G01*
X105167000Y-88038172D01*
G75*
G02*
X105439172Y-87766000I272172J0D01*
G01*
X106396828Y-87766000D01*
G75*
G02*
X106669000Y-88038172I0J-272172D01*
G01*
X106669000Y-88745828D01*
G75*
G02*
X106396828Y-89018000I-272172J0D01*
G01*
G37*
G36*
G01*
X106396828Y-84963000D02*
X105439172Y-84963000D01*
G75*
G02*
X105167000Y-84690828I0J272172D01*
G01*
X105167000Y-83983172D01*
G75*
G02*
X105439172Y-83711000I272172J0D01*
G01*
X106396828Y-83711000D01*
G75*
G02*
X106669000Y-83983172I0J-272172D01*
G01*
X106669000Y-84690828D01*
G75*
G02*
X106396828Y-84963000I-272172J0D01*
G01*
G37*
G36*
G01*
X106396828Y-82913000D02*
X105439172Y-82913000D01*
G75*
G02*
X105167000Y-82640828I0J272172D01*
G01*
X105167000Y-81933172D01*
G75*
G02*
X105439172Y-81661000I272172J0D01*
G01*
X106396828Y-81661000D01*
G75*
G02*
X106669000Y-81933172I0J-272172D01*
G01*
X106669000Y-82640828D01*
G75*
G02*
X106396828Y-82913000I-272172J0D01*
G01*
G37*
G36*
G01*
X92739172Y-83720000D02*
X93696828Y-83720000D01*
G75*
G02*
X93969000Y-83992172I0J-272172D01*
G01*
X93969000Y-84699828D01*
G75*
G02*
X93696828Y-84972000I-272172J0D01*
G01*
X92739172Y-84972000D01*
G75*
G02*
X92467000Y-84699828I0J272172D01*
G01*
X92467000Y-83992172D01*
G75*
G02*
X92739172Y-83720000I272172J0D01*
G01*
G37*
G36*
G01*
X92739172Y-81670000D02*
X93696828Y-81670000D01*
G75*
G02*
X93969000Y-81942172I0J-272172D01*
G01*
X93969000Y-82649828D01*
G75*
G02*
X93696828Y-82922000I-272172J0D01*
G01*
X92739172Y-82922000D01*
G75*
G02*
X92467000Y-82649828I0J272172D01*
G01*
X92467000Y-81942172D01*
G75*
G02*
X92739172Y-81670000I272172J0D01*
G01*
G37*
G36*
G01*
X137951172Y-104793000D02*
X138908828Y-104793000D01*
G75*
G02*
X139181000Y-105065172I0J-272172D01*
G01*
X139181000Y-105772828D01*
G75*
G02*
X138908828Y-106045000I-272172J0D01*
G01*
X137951172Y-106045000D01*
G75*
G02*
X137679000Y-105772828I0J272172D01*
G01*
X137679000Y-105065172D01*
G75*
G02*
X137951172Y-104793000I272172J0D01*
G01*
G37*
G36*
G01*
X137951172Y-102743000D02*
X138908828Y-102743000D01*
G75*
G02*
X139181000Y-103015172I0J-272172D01*
G01*
X139181000Y-103722828D01*
G75*
G02*
X138908828Y-103995000I-272172J0D01*
G01*
X137951172Y-103995000D01*
G75*
G02*
X137679000Y-103722828I0J272172D01*
G01*
X137679000Y-103015172D01*
G75*
G02*
X137951172Y-102743000I272172J0D01*
G01*
G37*
G36*
G01*
X129569172Y-102743000D02*
X130526828Y-102743000D01*
G75*
G02*
X130799000Y-103015172I0J-272172D01*
G01*
X130799000Y-103722828D01*
G75*
G02*
X130526828Y-103995000I-272172J0D01*
G01*
X129569172Y-103995000D01*
G75*
G02*
X129297000Y-103722828I0J272172D01*
G01*
X129297000Y-103015172D01*
G75*
G02*
X129569172Y-102743000I272172J0D01*
G01*
G37*
G36*
G01*
X129569172Y-104793000D02*
X130526828Y-104793000D01*
G75*
G02*
X130799000Y-105065172I0J-272172D01*
G01*
X130799000Y-105772828D01*
G75*
G02*
X130526828Y-106045000I-272172J0D01*
G01*
X129569172Y-106045000D01*
G75*
G02*
X129297000Y-105772828I0J272172D01*
G01*
X129297000Y-105065172D01*
G75*
G02*
X129569172Y-104793000I272172J0D01*
G01*
G37*
G36*
G01*
X136622828Y-96883000D02*
X135665172Y-96883000D01*
G75*
G02*
X135393000Y-96610828I0J272172D01*
G01*
X135393000Y-95903172D01*
G75*
G02*
X135665172Y-95631000I272172J0D01*
G01*
X136622828Y-95631000D01*
G75*
G02*
X136895000Y-95903172I0J-272172D01*
G01*
X136895000Y-96610828D01*
G75*
G02*
X136622828Y-96883000I-272172J0D01*
G01*
G37*
G36*
G01*
X136622828Y-98933000D02*
X135665172Y-98933000D01*
G75*
G02*
X135393000Y-98660828I0J272172D01*
G01*
X135393000Y-97953172D01*
G75*
G02*
X135665172Y-97681000I272172J0D01*
G01*
X136622828Y-97681000D01*
G75*
G02*
X136895000Y-97953172I0J-272172D01*
G01*
X136895000Y-98660828D01*
G75*
G02*
X136622828Y-98933000I-272172J0D01*
G01*
G37*
G36*
G01*
X134082828Y-98933000D02*
X133125172Y-98933000D01*
G75*
G02*
X132853000Y-98660828I0J272172D01*
G01*
X132853000Y-97953172D01*
G75*
G02*
X133125172Y-97681000I272172J0D01*
G01*
X134082828Y-97681000D01*
G75*
G02*
X134355000Y-97953172I0J-272172D01*
G01*
X134355000Y-98660828D01*
G75*
G02*
X134082828Y-98933000I-272172J0D01*
G01*
G37*
G36*
G01*
X134082828Y-96883000D02*
X133125172Y-96883000D01*
G75*
G02*
X132853000Y-96610828I0J272172D01*
G01*
X132853000Y-95903172D01*
G75*
G02*
X133125172Y-95631000I272172J0D01*
G01*
X134082828Y-95631000D01*
G75*
G02*
X134355000Y-95903172I0J-272172D01*
G01*
X134355000Y-96610828D01*
G75*
G02*
X134082828Y-96883000I-272172J0D01*
G01*
G37*
G36*
G01*
X130585172Y-97681000D02*
X131542828Y-97681000D01*
G75*
G02*
X131815000Y-97953172I0J-272172D01*
G01*
X131815000Y-98660828D01*
G75*
G02*
X131542828Y-98933000I-272172J0D01*
G01*
X130585172Y-98933000D01*
G75*
G02*
X130313000Y-98660828I0J272172D01*
G01*
X130313000Y-97953172D01*
G75*
G02*
X130585172Y-97681000I272172J0D01*
G01*
G37*
G36*
G01*
X130585172Y-95631000D02*
X131542828Y-95631000D01*
G75*
G02*
X131815000Y-95903172I0J-272172D01*
G01*
X131815000Y-96610828D01*
G75*
G02*
X131542828Y-96883000I-272172J0D01*
G01*
X130585172Y-96883000D01*
G75*
G02*
X130313000Y-96610828I0J272172D01*
G01*
X130313000Y-95903172D01*
G75*
G02*
X130585172Y-95631000I272172J0D01*
G01*
G37*
G36*
G01*
X133477000Y-93501172D02*
X133477000Y-94458828D01*
G75*
G02*
X133204828Y-94731000I-272172J0D01*
G01*
X132497172Y-94731000D01*
G75*
G02*
X132225000Y-94458828I0J272172D01*
G01*
X132225000Y-93501172D01*
G75*
G02*
X132497172Y-93229000I272172J0D01*
G01*
X133204828Y-93229000D01*
G75*
G02*
X133477000Y-93501172I0J-272172D01*
G01*
G37*
G36*
G01*
X131427000Y-93501172D02*
X131427000Y-94458828D01*
G75*
G02*
X131154828Y-94731000I-272172J0D01*
G01*
X130447172Y-94731000D01*
G75*
G02*
X130175000Y-94458828I0J272172D01*
G01*
X130175000Y-93501172D01*
G75*
G02*
X130447172Y-93229000I272172J0D01*
G01*
X131154828Y-93229000D01*
G75*
G02*
X131427000Y-93501172I0J-272172D01*
G01*
G37*
G36*
G01*
X131542828Y-90279000D02*
X130585172Y-90279000D01*
G75*
G02*
X130313000Y-90006828I0J272172D01*
G01*
X130313000Y-89299172D01*
G75*
G02*
X130585172Y-89027000I272172J0D01*
G01*
X131542828Y-89027000D01*
G75*
G02*
X131815000Y-89299172I0J-272172D01*
G01*
X131815000Y-90006828D01*
G75*
G02*
X131542828Y-90279000I-272172J0D01*
G01*
G37*
G36*
G01*
X131542828Y-92329000D02*
X130585172Y-92329000D01*
G75*
G02*
X130313000Y-92056828I0J272172D01*
G01*
X130313000Y-91349172D01*
G75*
G02*
X130585172Y-91077000I272172J0D01*
G01*
X131542828Y-91077000D01*
G75*
G02*
X131815000Y-91349172I0J-272172D01*
G01*
X131815000Y-92056828D01*
G75*
G02*
X131542828Y-92329000I-272172J0D01*
G01*
G37*
G36*
G01*
X138908828Y-96883000D02*
X137951172Y-96883000D01*
G75*
G02*
X137679000Y-96610828I0J272172D01*
G01*
X137679000Y-95903172D01*
G75*
G02*
X137951172Y-95631000I272172J0D01*
G01*
X138908828Y-95631000D01*
G75*
G02*
X139181000Y-95903172I0J-272172D01*
G01*
X139181000Y-96610828D01*
G75*
G02*
X138908828Y-96883000I-272172J0D01*
G01*
G37*
G36*
G01*
X138908828Y-98933000D02*
X137951172Y-98933000D01*
G75*
G02*
X137679000Y-98660828I0J272172D01*
G01*
X137679000Y-97953172D01*
G75*
G02*
X137951172Y-97681000I272172J0D01*
G01*
X138908828Y-97681000D01*
G75*
G02*
X139181000Y-97953172I0J-272172D01*
G01*
X139181000Y-98660828D01*
G75*
G02*
X138908828Y-98933000I-272172J0D01*
G01*
G37*
G36*
G01*
X140491172Y-95631000D02*
X141448828Y-95631000D01*
G75*
G02*
X141721000Y-95903172I0J-272172D01*
G01*
X141721000Y-96610828D01*
G75*
G02*
X141448828Y-96883000I-272172J0D01*
G01*
X140491172Y-96883000D01*
G75*
G02*
X140219000Y-96610828I0J272172D01*
G01*
X140219000Y-95903172D01*
G75*
G02*
X140491172Y-95631000I272172J0D01*
G01*
G37*
G36*
G01*
X140491172Y-97681000D02*
X141448828Y-97681000D01*
G75*
G02*
X141721000Y-97953172I0J-272172D01*
G01*
X141721000Y-98660828D01*
G75*
G02*
X141448828Y-98933000I-272172J0D01*
G01*
X140491172Y-98933000D01*
G75*
G02*
X140219000Y-98660828I0J272172D01*
G01*
X140219000Y-97953172D01*
G75*
G02*
X140491172Y-97681000I272172J0D01*
G01*
G37*
G36*
G01*
X109545001Y-84491000D02*
X108894999Y-84491000D01*
G75*
G02*
X108844000Y-84440001I0J50999D01*
G01*
X108844000Y-82879999D01*
G75*
G02*
X108894999Y-82829000I50999J0D01*
G01*
X109545001Y-82829000D01*
G75*
G02*
X109596000Y-82879999I0J-50999D01*
G01*
X109596000Y-84440001D01*
G75*
G02*
X109545001Y-84491000I-50999J0D01*
G01*
G37*
G36*
G01*
X110495001Y-84491000D02*
X109844999Y-84491000D01*
G75*
G02*
X109794000Y-84440001I0J50999D01*
G01*
X109794000Y-82879999D01*
G75*
G02*
X109844999Y-82829000I50999J0D01*
G01*
X110495001Y-82829000D01*
G75*
G02*
X110546000Y-82879999I0J-50999D01*
G01*
X110546000Y-84440001D01*
G75*
G02*
X110495001Y-84491000I-50999J0D01*
G01*
G37*
G36*
G01*
X108595001Y-84491000D02*
X107944999Y-84491000D01*
G75*
G02*
X107894000Y-84440001I0J50999D01*
G01*
X107894000Y-82879999D01*
G75*
G02*
X107944999Y-82829000I50999J0D01*
G01*
X108595001Y-82829000D01*
G75*
G02*
X108646000Y-82879999I0J-50999D01*
G01*
X108646000Y-84440001D01*
G75*
G02*
X108595001Y-84491000I-50999J0D01*
G01*
G37*
G36*
G01*
X108595001Y-87191000D02*
X107944999Y-87191000D01*
G75*
G02*
X107894000Y-87140001I0J50999D01*
G01*
X107894000Y-85579999D01*
G75*
G02*
X107944999Y-85529000I50999J0D01*
G01*
X108595001Y-85529000D01*
G75*
G02*
X108646000Y-85579999I0J-50999D01*
G01*
X108646000Y-87140001D01*
G75*
G02*
X108595001Y-87191000I-50999J0D01*
G01*
G37*
G36*
G01*
X109545001Y-87191000D02*
X108894999Y-87191000D01*
G75*
G02*
X108844000Y-87140001I0J50999D01*
G01*
X108844000Y-85579999D01*
G75*
G02*
X108894999Y-85529000I50999J0D01*
G01*
X109545001Y-85529000D01*
G75*
G02*
X109596000Y-85579999I0J-50999D01*
G01*
X109596000Y-87140001D01*
G75*
G02*
X109545001Y-87191000I-50999J0D01*
G01*
G37*
G36*
G01*
X110495001Y-87191000D02*
X109844999Y-87191000D01*
G75*
G02*
X109794000Y-87140001I0J50999D01*
G01*
X109794000Y-85579999D01*
G75*
G02*
X109844999Y-85529000I50999J0D01*
G01*
X110495001Y-85529000D01*
G75*
G02*
X110546000Y-85579999I0J-50999D01*
G01*
X110546000Y-87140001D01*
G75*
G02*
X110495001Y-87191000I-50999J0D01*
G01*
G37*
G36*
G01*
X138590000Y-87574000D02*
X138590000Y-88375000D01*
G75*
G02*
X138502000Y-88463000I-88000J0D01*
G01*
X138326000Y-88463000D01*
G75*
G02*
X138238000Y-88375000I0J88000D01*
G01*
X138238000Y-87574000D01*
G75*
G02*
X138326000Y-87486000I88000J0D01*
G01*
X138502000Y-87486000D01*
G75*
G02*
X138590000Y-87574000I0J-88000D01*
G01*
G37*
G36*
G01*
X138090000Y-87574000D02*
X138090000Y-88375000D01*
G75*
G02*
X138002000Y-88463000I-88000J0D01*
G01*
X137826000Y-88463000D01*
G75*
G02*
X137738000Y-88375000I0J88000D01*
G01*
X137738000Y-87574000D01*
G75*
G02*
X137826000Y-87486000I88000J0D01*
G01*
X138002000Y-87486000D01*
G75*
G02*
X138090000Y-87574000I0J-88000D01*
G01*
G37*
G36*
G01*
X137590000Y-87574000D02*
X137590000Y-88375000D01*
G75*
G02*
X137502000Y-88463000I-88000J0D01*
G01*
X137326000Y-88463000D01*
G75*
G02*
X137238000Y-88375000I0J88000D01*
G01*
X137238000Y-87574000D01*
G75*
G02*
X137326000Y-87486000I88000J0D01*
G01*
X137502000Y-87486000D01*
G75*
G02*
X137590000Y-87574000I0J-88000D01*
G01*
G37*
G36*
G01*
X137090000Y-87574000D02*
X137090000Y-88375000D01*
G75*
G02*
X137002000Y-88463000I-88000J0D01*
G01*
X136826000Y-88463000D01*
G75*
G02*
X136738000Y-88375000I0J88000D01*
G01*
X136738000Y-87574000D01*
G75*
G02*
X136826000Y-87486000I88000J0D01*
G01*
X137002000Y-87486000D01*
G75*
G02*
X137090000Y-87574000I0J-88000D01*
G01*
G37*
G36*
G01*
X136590000Y-87574000D02*
X136590000Y-88375000D01*
G75*
G02*
X136502000Y-88463000I-88000J0D01*
G01*
X136326000Y-88463000D01*
G75*
G02*
X136238000Y-88375000I0J88000D01*
G01*
X136238000Y-87574000D01*
G75*
G02*
X136326000Y-87486000I88000J0D01*
G01*
X136502000Y-87486000D01*
G75*
G02*
X136590000Y-87574000I0J-88000D01*
G01*
G37*
G36*
G01*
X136215000Y-88574000D02*
X136215000Y-88750000D01*
G75*
G02*
X136127000Y-88838000I-88000J0D01*
G01*
X135326000Y-88838000D01*
G75*
G02*
X135238000Y-88750000I0J88000D01*
G01*
X135238000Y-88574000D01*
G75*
G02*
X135326000Y-88486000I88000J0D01*
G01*
X136127000Y-88486000D01*
G75*
G02*
X136215000Y-88574000I0J-88000D01*
G01*
G37*
G36*
G01*
X136215000Y-89074000D02*
X136215000Y-89250000D01*
G75*
G02*
X136127000Y-89338000I-88000J0D01*
G01*
X135326000Y-89338000D01*
G75*
G02*
X135238000Y-89250000I0J88000D01*
G01*
X135238000Y-89074000D01*
G75*
G02*
X135326000Y-88986000I88000J0D01*
G01*
X136127000Y-88986000D01*
G75*
G02*
X136215000Y-89074000I0J-88000D01*
G01*
G37*
G36*
G01*
X136215000Y-89574000D02*
X136215000Y-89750000D01*
G75*
G02*
X136127000Y-89838000I-88000J0D01*
G01*
X135326000Y-89838000D01*
G75*
G02*
X135238000Y-89750000I0J88000D01*
G01*
X135238000Y-89574000D01*
G75*
G02*
X135326000Y-89486000I88000J0D01*
G01*
X136127000Y-89486000D01*
G75*
G02*
X136215000Y-89574000I0J-88000D01*
G01*
G37*
G36*
G01*
X136215000Y-90074000D02*
X136215000Y-90250000D01*
G75*
G02*
X136127000Y-90338000I-88000J0D01*
G01*
X135326000Y-90338000D01*
G75*
G02*
X135238000Y-90250000I0J88000D01*
G01*
X135238000Y-90074000D01*
G75*
G02*
X135326000Y-89986000I88000J0D01*
G01*
X136127000Y-89986000D01*
G75*
G02*
X136215000Y-90074000I0J-88000D01*
G01*
G37*
G36*
G01*
X136215000Y-90574000D02*
X136215000Y-90750000D01*
G75*
G02*
X136127000Y-90838000I-88000J0D01*
G01*
X135326000Y-90838000D01*
G75*
G02*
X135238000Y-90750000I0J88000D01*
G01*
X135238000Y-90574000D01*
G75*
G02*
X135326000Y-90486000I88000J0D01*
G01*
X136127000Y-90486000D01*
G75*
G02*
X136215000Y-90574000I0J-88000D01*
G01*
G37*
G36*
G01*
X136590000Y-90949000D02*
X136590000Y-91750000D01*
G75*
G02*
X136502000Y-91838000I-88000J0D01*
G01*
X136326000Y-91838000D01*
G75*
G02*
X136238000Y-91750000I0J88000D01*
G01*
X136238000Y-90949000D01*
G75*
G02*
X136326000Y-90861000I88000J0D01*
G01*
X136502000Y-90861000D01*
G75*
G02*
X136590000Y-90949000I0J-88000D01*
G01*
G37*
G36*
G01*
X137090000Y-90949000D02*
X137090000Y-91750000D01*
G75*
G02*
X137002000Y-91838000I-88000J0D01*
G01*
X136826000Y-91838000D01*
G75*
G02*
X136738000Y-91750000I0J88000D01*
G01*
X136738000Y-90949000D01*
G75*
G02*
X136826000Y-90861000I88000J0D01*
G01*
X137002000Y-90861000D01*
G75*
G02*
X137090000Y-90949000I0J-88000D01*
G01*
G37*
G36*
G01*
X137590000Y-90949000D02*
X137590000Y-91750000D01*
G75*
G02*
X137502000Y-91838000I-88000J0D01*
G01*
X137326000Y-91838000D01*
G75*
G02*
X137238000Y-91750000I0J88000D01*
G01*
X137238000Y-90949000D01*
G75*
G02*
X137326000Y-90861000I88000J0D01*
G01*
X137502000Y-90861000D01*
G75*
G02*
X137590000Y-90949000I0J-88000D01*
G01*
G37*
G36*
G01*
X138090000Y-90949000D02*
X138090000Y-91750000D01*
G75*
G02*
X138002000Y-91838000I-88000J0D01*
G01*
X137826000Y-91838000D01*
G75*
G02*
X137738000Y-91750000I0J88000D01*
G01*
X137738000Y-90949000D01*
G75*
G02*
X137826000Y-90861000I88000J0D01*
G01*
X138002000Y-90861000D01*
G75*
G02*
X138090000Y-90949000I0J-88000D01*
G01*
G37*
G36*
G01*
X138590000Y-90949000D02*
X138590000Y-91750000D01*
G75*
G02*
X138502000Y-91838000I-88000J0D01*
G01*
X138326000Y-91838000D01*
G75*
G02*
X138238000Y-91750000I0J88000D01*
G01*
X138238000Y-90949000D01*
G75*
G02*
X138326000Y-90861000I88000J0D01*
G01*
X138502000Y-90861000D01*
G75*
G02*
X138590000Y-90949000I0J-88000D01*
G01*
G37*
G36*
G01*
X139590000Y-90574000D02*
X139590000Y-90750000D01*
G75*
G02*
X139502000Y-90838000I-88000J0D01*
G01*
X138701000Y-90838000D01*
G75*
G02*
X138613000Y-90750000I0J88000D01*
G01*
X138613000Y-90574000D01*
G75*
G02*
X138701000Y-90486000I88000J0D01*
G01*
X139502000Y-90486000D01*
G75*
G02*
X139590000Y-90574000I0J-88000D01*
G01*
G37*
G36*
G01*
X139590000Y-90074000D02*
X139590000Y-90250000D01*
G75*
G02*
X139502000Y-90338000I-88000J0D01*
G01*
X138701000Y-90338000D01*
G75*
G02*
X138613000Y-90250000I0J88000D01*
G01*
X138613000Y-90074000D01*
G75*
G02*
X138701000Y-89986000I88000J0D01*
G01*
X139502000Y-89986000D01*
G75*
G02*
X139590000Y-90074000I0J-88000D01*
G01*
G37*
G36*
G01*
X139590000Y-89574000D02*
X139590000Y-89750000D01*
G75*
G02*
X139502000Y-89838000I-88000J0D01*
G01*
X138701000Y-89838000D01*
G75*
G02*
X138613000Y-89750000I0J88000D01*
G01*
X138613000Y-89574000D01*
G75*
G02*
X138701000Y-89486000I88000J0D01*
G01*
X139502000Y-89486000D01*
G75*
G02*
X139590000Y-89574000I0J-88000D01*
G01*
G37*
G36*
G01*
X139590000Y-89074000D02*
X139590000Y-89250000D01*
G75*
G02*
X139502000Y-89338000I-88000J0D01*
G01*
X138701000Y-89338000D01*
G75*
G02*
X138613000Y-89250000I0J88000D01*
G01*
X138613000Y-89074000D01*
G75*
G02*
X138701000Y-88986000I88000J0D01*
G01*
X139502000Y-88986000D01*
G75*
G02*
X139590000Y-89074000I0J-88000D01*
G01*
G37*
G36*
G01*
X139590000Y-88574000D02*
X139590000Y-88750000D01*
G75*
G02*
X139502000Y-88838000I-88000J0D01*
G01*
X138701000Y-88838000D01*
G75*
G02*
X138613000Y-88750000I0J88000D01*
G01*
X138613000Y-88574000D01*
G75*
G02*
X138701000Y-88486000I88000J0D01*
G01*
X139502000Y-88486000D01*
G75*
G02*
X139590000Y-88574000I0J-88000D01*
G01*
G37*
G36*
G01*
X138465000Y-88873750D02*
X138465000Y-90450250D01*
G75*
G02*
X138202250Y-90713000I-262750J0D01*
G01*
X136625750Y-90713000D01*
G75*
G02*
X136363000Y-90450250I0J262750D01*
G01*
X136363000Y-88873750D01*
G75*
G02*
X136625750Y-88611000I262750J0D01*
G01*
X138202250Y-88611000D01*
G75*
G02*
X138465000Y-88873750I0J-262750D01*
G01*
G37*
G36*
G01*
X121704000Y-83147000D02*
X120104000Y-83147000D01*
G75*
G02*
X120053000Y-83096000I0J51000D01*
G01*
X120053000Y-81496000D01*
G75*
G02*
X120104000Y-81445000I51000J0D01*
G01*
X121704000Y-81445000D01*
G75*
G02*
X121755000Y-81496000I0J-51000D01*
G01*
X121755000Y-83096000D01*
G75*
G02*
X121704000Y-83147000I-51000J0D01*
G01*
G37*
D16*
X120904000Y-79796000D03*
G36*
G01*
X110862000Y-78261172D02*
X110862000Y-79218828D01*
G75*
G02*
X110589828Y-79491000I-272172J0D01*
G01*
X109882172Y-79491000D01*
G75*
G02*
X109610000Y-79218828I0J272172D01*
G01*
X109610000Y-78261172D01*
G75*
G02*
X109882172Y-77989000I272172J0D01*
G01*
X110589828Y-77989000D01*
G75*
G02*
X110862000Y-78261172I0J-272172D01*
G01*
G37*
G36*
G01*
X108812000Y-78261172D02*
X108812000Y-79218828D01*
G75*
G02*
X108539828Y-79491000I-272172J0D01*
G01*
X107832172Y-79491000D01*
G75*
G02*
X107560000Y-79218828I0J272172D01*
G01*
X107560000Y-78261172D01*
G75*
G02*
X107832172Y-77989000I272172J0D01*
G01*
X108539828Y-77989000D01*
G75*
G02*
X108812000Y-78261172I0J-272172D01*
G01*
G37*
G36*
G01*
X116845001Y-86763000D02*
X116194999Y-86763000D01*
G75*
G02*
X116144000Y-86712001I0J50999D01*
G01*
X116144000Y-85151999D01*
G75*
G02*
X116194999Y-85101000I50999J0D01*
G01*
X116845001Y-85101000D01*
G75*
G02*
X116896000Y-85151999I0J-50999D01*
G01*
X116896000Y-86712001D01*
G75*
G02*
X116845001Y-86763000I-50999J0D01*
G01*
G37*
G36*
G01*
X115895001Y-86763000D02*
X115244999Y-86763000D01*
G75*
G02*
X115194000Y-86712001I0J50999D01*
G01*
X115194000Y-85151999D01*
G75*
G02*
X115244999Y-85101000I50999J0D01*
G01*
X115895001Y-85101000D01*
G75*
G02*
X115946000Y-85151999I0J-50999D01*
G01*
X115946000Y-86712001D01*
G75*
G02*
X115895001Y-86763000I-50999J0D01*
G01*
G37*
G36*
G01*
X114945001Y-86763000D02*
X114294999Y-86763000D01*
G75*
G02*
X114244000Y-86712001I0J50999D01*
G01*
X114244000Y-85151999D01*
G75*
G02*
X114294999Y-85101000I50999J0D01*
G01*
X114945001Y-85101000D01*
G75*
G02*
X114996000Y-85151999I0J-50999D01*
G01*
X114996000Y-86712001D01*
G75*
G02*
X114945001Y-86763000I-50999J0D01*
G01*
G37*
G36*
G01*
X114945001Y-84063000D02*
X114294999Y-84063000D01*
G75*
G02*
X114244000Y-84012001I0J50999D01*
G01*
X114244000Y-82451999D01*
G75*
G02*
X114294999Y-82401000I50999J0D01*
G01*
X114945001Y-82401000D01*
G75*
G02*
X114996000Y-82451999I0J-50999D01*
G01*
X114996000Y-84012001D01*
G75*
G02*
X114945001Y-84063000I-50999J0D01*
G01*
G37*
G36*
G01*
X116845001Y-84063000D02*
X116194999Y-84063000D01*
G75*
G02*
X116144000Y-84012001I0J50999D01*
G01*
X116144000Y-82451999D01*
G75*
G02*
X116194999Y-82401000I50999J0D01*
G01*
X116845001Y-82401000D01*
G75*
G02*
X116896000Y-82451999I0J-50999D01*
G01*
X116896000Y-84012001D01*
G75*
G02*
X116845001Y-84063000I-50999J0D01*
G01*
G37*
G36*
G01*
X115895001Y-84063000D02*
X115244999Y-84063000D01*
G75*
G02*
X115194000Y-84012001I0J50999D01*
G01*
X115194000Y-82451999D01*
G75*
G02*
X115244999Y-82401000I50999J0D01*
G01*
X115895001Y-82401000D01*
G75*
G02*
X115946000Y-82451999I0J-50999D01*
G01*
X115946000Y-84012001D01*
G75*
G02*
X115895001Y-84063000I-50999J0D01*
G01*
G37*
D17*
G36*
X131786753Y-105196945D02*
G01*
X131924837Y-105270752D01*
X132102864Y-105324757D01*
X132288094Y-105343000D01*
X132887906Y-105343000D01*
X133073136Y-105324757D01*
X133251163Y-105270752D01*
X133389249Y-105196944D01*
X133391248Y-105197010D01*
X133392191Y-105198773D01*
X133391303Y-105200371D01*
X133376199Y-105210463D01*
X133359152Y-105227510D01*
X133345758Y-105247557D01*
X133336531Y-105269831D01*
X133331827Y-105293481D01*
X133331827Y-105317587D01*
X133336531Y-105341237D01*
X133345758Y-105363511D01*
X133359153Y-105383559D01*
X133376200Y-105400606D01*
X133396247Y-105414000D01*
X133418608Y-105423263D01*
X133430761Y-105426950D01*
X133431123Y-105427100D01*
X133454429Y-105439557D01*
X133454755Y-105439775D01*
X133475183Y-105456540D01*
X133475460Y-105456817D01*
X133492225Y-105477245D01*
X133492443Y-105477571D01*
X133504899Y-105500874D01*
X133505049Y-105501236D01*
X133512720Y-105526523D01*
X133512796Y-105526908D01*
X133515990Y-105559342D01*
X133516000Y-105559538D01*
X133516000Y-105628400D01*
X133515000Y-105630132D01*
X133513000Y-105630132D01*
X133512010Y-105628596D01*
X133507987Y-105587748D01*
X133496127Y-105548652D01*
X133476870Y-105512624D01*
X133450954Y-105481046D01*
X133419376Y-105455130D01*
X133383348Y-105435873D01*
X133344252Y-105424013D01*
X133303506Y-105420000D01*
X131872494Y-105420000D01*
X131831748Y-105424013D01*
X131792652Y-105435873D01*
X131756624Y-105455130D01*
X131725046Y-105481046D01*
X131699130Y-105512624D01*
X131679873Y-105548652D01*
X131668013Y-105587748D01*
X131663990Y-105628596D01*
X131662825Y-105630222D01*
X131660835Y-105630026D01*
X131660000Y-105628400D01*
X131660000Y-105559538D01*
X131660010Y-105559342D01*
X131663204Y-105526908D01*
X131663280Y-105526523D01*
X131670951Y-105501236D01*
X131671101Y-105500874D01*
X131683557Y-105477571D01*
X131683775Y-105477245D01*
X131700540Y-105456817D01*
X131700817Y-105456540D01*
X131721245Y-105439775D01*
X131721571Y-105439557D01*
X131744877Y-105427100D01*
X131745239Y-105426950D01*
X131757392Y-105423263D01*
X131779756Y-105413998D01*
X131799803Y-105400603D01*
X131816850Y-105383556D01*
X131830244Y-105363508D01*
X131839470Y-105341234D01*
X131844173Y-105317583D01*
X131844173Y-105293477D01*
X131839467Y-105269827D01*
X131830240Y-105247554D01*
X131816845Y-105227507D01*
X131799798Y-105210460D01*
X131784699Y-105200372D01*
X131783814Y-105198578D01*
X131784925Y-105196915D01*
X131786753Y-105196945D01*
G37*
G36*
X135088753Y-105196945D02*
G01*
X135226837Y-105270752D01*
X135404864Y-105324757D01*
X135590094Y-105343000D01*
X136189906Y-105343000D01*
X136375136Y-105324757D01*
X136553163Y-105270752D01*
X136691249Y-105196944D01*
X136693248Y-105197010D01*
X136694191Y-105198773D01*
X136693303Y-105200371D01*
X136678199Y-105210463D01*
X136661152Y-105227510D01*
X136647758Y-105247557D01*
X136638531Y-105269831D01*
X136633827Y-105293481D01*
X136633827Y-105317587D01*
X136638531Y-105341237D01*
X136647758Y-105363511D01*
X136661153Y-105383559D01*
X136678200Y-105400606D01*
X136698247Y-105414000D01*
X136720608Y-105423263D01*
X136732761Y-105426950D01*
X136733123Y-105427100D01*
X136756429Y-105439557D01*
X136756755Y-105439775D01*
X136777183Y-105456540D01*
X136777460Y-105456817D01*
X136794225Y-105477245D01*
X136794443Y-105477571D01*
X136806899Y-105500874D01*
X136807049Y-105501236D01*
X136814720Y-105526523D01*
X136814796Y-105526908D01*
X136817990Y-105559342D01*
X136818000Y-105559538D01*
X136818000Y-105628400D01*
X136817000Y-105630132D01*
X136815000Y-105630132D01*
X136814010Y-105628596D01*
X136809987Y-105587748D01*
X136798127Y-105548652D01*
X136778870Y-105512624D01*
X136752954Y-105481046D01*
X136721376Y-105455130D01*
X136685348Y-105435873D01*
X136646252Y-105424013D01*
X136605506Y-105420000D01*
X135174494Y-105420000D01*
X135133748Y-105424013D01*
X135094652Y-105435873D01*
X135058624Y-105455130D01*
X135027046Y-105481046D01*
X135001130Y-105512624D01*
X134981873Y-105548652D01*
X134970013Y-105587748D01*
X134965990Y-105628596D01*
X134964825Y-105630222D01*
X134962835Y-105630026D01*
X134962000Y-105628400D01*
X134962000Y-105559538D01*
X134962010Y-105559342D01*
X134965204Y-105526908D01*
X134965280Y-105526523D01*
X134972951Y-105501236D01*
X134973101Y-105500874D01*
X134985557Y-105477571D01*
X134985775Y-105477245D01*
X135002540Y-105456817D01*
X135002817Y-105456540D01*
X135023245Y-105439775D01*
X135023571Y-105439557D01*
X135046877Y-105427100D01*
X135047239Y-105426950D01*
X135059392Y-105423263D01*
X135081756Y-105413998D01*
X135101803Y-105400603D01*
X135118850Y-105383556D01*
X135132244Y-105363508D01*
X135141470Y-105341234D01*
X135146173Y-105317583D01*
X135146173Y-105293477D01*
X135141467Y-105269827D01*
X135132240Y-105247554D01*
X135118845Y-105227507D01*
X135101798Y-105210460D01*
X135086699Y-105200372D01*
X135085814Y-105198578D01*
X135086925Y-105196915D01*
X135088753Y-105196945D01*
G37*
G36*
X136817165Y-103157974D02*
G01*
X136818000Y-103159600D01*
X136818000Y-103228462D01*
X136817990Y-103228658D01*
X136814796Y-103261092D01*
X136814720Y-103261477D01*
X136807049Y-103286764D01*
X136806899Y-103287126D01*
X136794443Y-103310429D01*
X136794225Y-103310755D01*
X136777460Y-103331183D01*
X136777183Y-103331460D01*
X136756755Y-103348225D01*
X136756429Y-103348443D01*
X136733123Y-103360900D01*
X136732761Y-103361050D01*
X136720608Y-103364737D01*
X136698244Y-103374002D01*
X136678197Y-103387397D01*
X136661150Y-103404444D01*
X136647756Y-103424492D01*
X136638530Y-103446766D01*
X136633827Y-103470417D01*
X136633827Y-103494523D01*
X136638533Y-103518173D01*
X136647760Y-103540446D01*
X136661155Y-103560493D01*
X136678202Y-103577540D01*
X136693301Y-103587628D01*
X136694186Y-103589422D01*
X136693075Y-103591085D01*
X136691247Y-103591055D01*
X136553163Y-103517248D01*
X136375136Y-103463243D01*
X136189906Y-103445000D01*
X135590094Y-103445000D01*
X135404864Y-103463243D01*
X135226837Y-103517248D01*
X135088751Y-103591056D01*
X135086752Y-103590990D01*
X135085809Y-103589227D01*
X135086697Y-103587629D01*
X135101801Y-103577537D01*
X135118848Y-103560490D01*
X135132242Y-103540443D01*
X135141469Y-103518169D01*
X135146173Y-103494519D01*
X135146173Y-103470413D01*
X135141469Y-103446763D01*
X135132242Y-103424489D01*
X135118847Y-103404441D01*
X135101800Y-103387394D01*
X135081753Y-103374000D01*
X135059392Y-103364737D01*
X135047239Y-103361050D01*
X135046877Y-103360900D01*
X135023571Y-103348443D01*
X135023245Y-103348225D01*
X135002817Y-103331460D01*
X135002540Y-103331183D01*
X134985775Y-103310755D01*
X134985557Y-103310429D01*
X134973101Y-103287126D01*
X134972951Y-103286764D01*
X134965280Y-103261477D01*
X134965204Y-103261092D01*
X134962010Y-103228658D01*
X134962000Y-103228462D01*
X134962000Y-103159600D01*
X134963000Y-103157868D01*
X134965000Y-103157868D01*
X134965990Y-103159404D01*
X134970013Y-103200252D01*
X134981873Y-103239348D01*
X135001130Y-103275376D01*
X135027046Y-103306954D01*
X135058624Y-103332870D01*
X135094652Y-103352127D01*
X135133748Y-103363987D01*
X135174494Y-103368000D01*
X136605506Y-103368000D01*
X136646252Y-103363987D01*
X136685348Y-103352127D01*
X136721376Y-103332870D01*
X136752954Y-103306954D01*
X136778870Y-103275376D01*
X136798127Y-103239348D01*
X136809987Y-103200252D01*
X136814010Y-103159404D01*
X136815175Y-103157778D01*
X136817165Y-103157974D01*
G37*
G36*
X133515165Y-103157974D02*
G01*
X133516000Y-103159600D01*
X133516000Y-103228462D01*
X133515990Y-103228658D01*
X133512796Y-103261092D01*
X133512720Y-103261477D01*
X133505049Y-103286764D01*
X133504899Y-103287126D01*
X133492443Y-103310429D01*
X133492225Y-103310755D01*
X133475460Y-103331183D01*
X133475183Y-103331460D01*
X133454755Y-103348225D01*
X133454429Y-103348443D01*
X133431123Y-103360900D01*
X133430761Y-103361050D01*
X133418608Y-103364737D01*
X133396244Y-103374002D01*
X133376197Y-103387397D01*
X133359150Y-103404444D01*
X133345756Y-103424492D01*
X133336530Y-103446766D01*
X133331827Y-103470417D01*
X133331827Y-103494523D01*
X133336533Y-103518173D01*
X133345760Y-103540446D01*
X133359155Y-103560493D01*
X133376202Y-103577540D01*
X133391301Y-103587628D01*
X133392186Y-103589422D01*
X133391075Y-103591085D01*
X133389247Y-103591055D01*
X133251163Y-103517248D01*
X133073136Y-103463243D01*
X132887906Y-103445000D01*
X132288094Y-103445000D01*
X132102864Y-103463243D01*
X131924837Y-103517248D01*
X131786751Y-103591056D01*
X131784752Y-103590990D01*
X131783809Y-103589227D01*
X131784697Y-103587629D01*
X131799801Y-103577537D01*
X131816848Y-103560490D01*
X131830242Y-103540443D01*
X131839469Y-103518169D01*
X131844173Y-103494519D01*
X131844173Y-103470413D01*
X131839469Y-103446763D01*
X131830242Y-103424489D01*
X131816847Y-103404441D01*
X131799800Y-103387394D01*
X131779753Y-103374000D01*
X131757392Y-103364737D01*
X131745239Y-103361050D01*
X131744877Y-103360900D01*
X131721571Y-103348443D01*
X131721245Y-103348225D01*
X131700817Y-103331460D01*
X131700540Y-103331183D01*
X131683775Y-103310755D01*
X131683557Y-103310429D01*
X131671101Y-103287126D01*
X131670951Y-103286764D01*
X131663280Y-103261477D01*
X131663204Y-103261092D01*
X131660010Y-103228658D01*
X131660000Y-103228462D01*
X131660000Y-103159600D01*
X131661000Y-103157868D01*
X131663000Y-103157868D01*
X131663990Y-103159404D01*
X131668013Y-103200252D01*
X131679873Y-103239348D01*
X131699130Y-103275376D01*
X131725046Y-103306954D01*
X131756624Y-103332870D01*
X131792652Y-103352127D01*
X131831748Y-103363987D01*
X131872494Y-103368000D01*
X133303506Y-103368000D01*
X133344252Y-103363987D01*
X133383348Y-103352127D01*
X133419376Y-103332870D01*
X133450954Y-103306954D01*
X133476870Y-103275376D01*
X133496127Y-103239348D01*
X133507987Y-103200252D01*
X133512010Y-103159404D01*
X133513175Y-103157778D01*
X133515165Y-103157974D01*
G37*
G36*
X108672753Y-100116945D02*
G01*
X108810837Y-100190752D01*
X108988864Y-100244757D01*
X109174094Y-100263000D01*
X109773906Y-100263000D01*
X109959136Y-100244757D01*
X110137163Y-100190752D01*
X110275249Y-100116944D01*
X110277248Y-100117010D01*
X110278191Y-100118773D01*
X110277303Y-100120371D01*
X110262199Y-100130463D01*
X110245152Y-100147510D01*
X110231758Y-100167557D01*
X110222531Y-100189831D01*
X110217827Y-100213481D01*
X110217827Y-100237587D01*
X110222531Y-100261237D01*
X110231758Y-100283511D01*
X110245153Y-100303559D01*
X110262200Y-100320606D01*
X110282247Y-100334000D01*
X110304608Y-100343263D01*
X110316761Y-100346950D01*
X110317123Y-100347100D01*
X110340429Y-100359557D01*
X110340755Y-100359775D01*
X110361183Y-100376540D01*
X110361460Y-100376817D01*
X110378225Y-100397245D01*
X110378443Y-100397571D01*
X110390899Y-100420874D01*
X110391049Y-100421236D01*
X110398720Y-100446523D01*
X110398796Y-100446908D01*
X110401990Y-100479342D01*
X110402000Y-100479538D01*
X110402000Y-100548400D01*
X110401000Y-100550132D01*
X110399000Y-100550132D01*
X110398010Y-100548596D01*
X110393987Y-100507748D01*
X110382127Y-100468652D01*
X110362870Y-100432624D01*
X110336954Y-100401046D01*
X110305376Y-100375130D01*
X110269348Y-100355873D01*
X110230252Y-100344013D01*
X110189506Y-100340000D01*
X108758494Y-100340000D01*
X108717748Y-100344013D01*
X108678652Y-100355873D01*
X108642624Y-100375130D01*
X108611046Y-100401046D01*
X108585130Y-100432624D01*
X108565873Y-100468652D01*
X108554013Y-100507748D01*
X108549990Y-100548596D01*
X108548825Y-100550222D01*
X108546835Y-100550026D01*
X108546000Y-100548400D01*
X108546000Y-100479538D01*
X108546010Y-100479342D01*
X108549204Y-100446908D01*
X108549280Y-100446523D01*
X108556951Y-100421236D01*
X108557101Y-100420874D01*
X108569557Y-100397571D01*
X108569775Y-100397245D01*
X108586540Y-100376817D01*
X108586817Y-100376540D01*
X108607245Y-100359775D01*
X108607571Y-100359557D01*
X108630877Y-100347100D01*
X108631239Y-100346950D01*
X108643392Y-100343263D01*
X108665756Y-100333998D01*
X108685803Y-100320603D01*
X108702850Y-100303556D01*
X108716244Y-100283508D01*
X108725470Y-100261234D01*
X108730173Y-100237583D01*
X108730173Y-100213477D01*
X108725467Y-100189827D01*
X108716240Y-100167554D01*
X108702845Y-100147507D01*
X108685798Y-100130460D01*
X108670699Y-100120372D01*
X108669814Y-100118578D01*
X108670925Y-100116915D01*
X108672753Y-100116945D01*
G37*
G36*
X112228753Y-100116945D02*
G01*
X112366837Y-100190752D01*
X112544864Y-100244757D01*
X112730094Y-100263000D01*
X113329906Y-100263000D01*
X113515136Y-100244757D01*
X113693163Y-100190752D01*
X113831249Y-100116944D01*
X113833248Y-100117010D01*
X113834191Y-100118773D01*
X113833303Y-100120371D01*
X113818199Y-100130463D01*
X113801152Y-100147510D01*
X113787758Y-100167557D01*
X113778531Y-100189831D01*
X113773827Y-100213481D01*
X113773827Y-100237587D01*
X113778531Y-100261237D01*
X113787758Y-100283511D01*
X113801153Y-100303559D01*
X113818200Y-100320606D01*
X113838247Y-100334000D01*
X113860608Y-100343263D01*
X113872761Y-100346950D01*
X113873123Y-100347100D01*
X113896429Y-100359557D01*
X113896755Y-100359775D01*
X113917183Y-100376540D01*
X113917460Y-100376817D01*
X113934225Y-100397245D01*
X113934443Y-100397571D01*
X113946899Y-100420874D01*
X113947049Y-100421236D01*
X113954720Y-100446523D01*
X113954796Y-100446908D01*
X113957990Y-100479342D01*
X113958000Y-100479538D01*
X113958000Y-100548400D01*
X113957000Y-100550132D01*
X113955000Y-100550132D01*
X113954010Y-100548596D01*
X113949987Y-100507748D01*
X113938127Y-100468652D01*
X113918870Y-100432624D01*
X113892954Y-100401046D01*
X113861376Y-100375130D01*
X113825348Y-100355873D01*
X113786252Y-100344013D01*
X113745506Y-100340000D01*
X112314494Y-100340000D01*
X112273748Y-100344013D01*
X112234652Y-100355873D01*
X112198624Y-100375130D01*
X112167046Y-100401046D01*
X112141130Y-100432624D01*
X112121873Y-100468652D01*
X112110013Y-100507748D01*
X112105990Y-100548596D01*
X112104825Y-100550222D01*
X112102835Y-100550026D01*
X112102000Y-100548400D01*
X112102000Y-100479538D01*
X112102010Y-100479342D01*
X112105204Y-100446908D01*
X112105280Y-100446523D01*
X112112951Y-100421236D01*
X112113101Y-100420874D01*
X112125557Y-100397571D01*
X112125775Y-100397245D01*
X112142540Y-100376817D01*
X112142817Y-100376540D01*
X112163245Y-100359775D01*
X112163571Y-100359557D01*
X112186877Y-100347100D01*
X112187239Y-100346950D01*
X112199392Y-100343263D01*
X112221756Y-100333998D01*
X112241803Y-100320603D01*
X112258850Y-100303556D01*
X112272244Y-100283508D01*
X112281470Y-100261234D01*
X112286173Y-100237583D01*
X112286173Y-100213477D01*
X112281467Y-100189827D01*
X112272240Y-100167554D01*
X112258845Y-100147507D01*
X112241798Y-100130460D01*
X112226699Y-100120372D01*
X112225814Y-100118578D01*
X112226925Y-100116915D01*
X112228753Y-100116945D01*
G37*
G36*
X113957165Y-98077974D02*
G01*
X113958000Y-98079600D01*
X113958000Y-98148462D01*
X113957990Y-98148658D01*
X113954796Y-98181092D01*
X113954720Y-98181477D01*
X113947049Y-98206764D01*
X113946899Y-98207126D01*
X113934443Y-98230429D01*
X113934225Y-98230755D01*
X113917460Y-98251183D01*
X113917183Y-98251460D01*
X113896755Y-98268225D01*
X113896429Y-98268443D01*
X113873123Y-98280900D01*
X113872761Y-98281050D01*
X113860608Y-98284737D01*
X113838244Y-98294002D01*
X113818197Y-98307397D01*
X113801150Y-98324444D01*
X113787756Y-98344492D01*
X113778530Y-98366766D01*
X113773827Y-98390417D01*
X113773827Y-98414523D01*
X113778533Y-98438173D01*
X113787760Y-98460446D01*
X113801155Y-98480493D01*
X113818202Y-98497540D01*
X113833301Y-98507628D01*
X113834186Y-98509422D01*
X113833075Y-98511085D01*
X113831247Y-98511055D01*
X113693163Y-98437248D01*
X113515136Y-98383243D01*
X113329906Y-98365000D01*
X112730094Y-98365000D01*
X112544864Y-98383243D01*
X112366837Y-98437248D01*
X112228751Y-98511056D01*
X112226752Y-98510990D01*
X112225809Y-98509227D01*
X112226697Y-98507629D01*
X112241801Y-98497537D01*
X112258848Y-98480490D01*
X112272242Y-98460443D01*
X112281469Y-98438169D01*
X112286173Y-98414519D01*
X112286173Y-98390413D01*
X112281469Y-98366763D01*
X112272242Y-98344489D01*
X112258847Y-98324441D01*
X112241800Y-98307394D01*
X112221753Y-98294000D01*
X112199392Y-98284737D01*
X112187239Y-98281050D01*
X112186877Y-98280900D01*
X112163571Y-98268443D01*
X112163245Y-98268225D01*
X112142817Y-98251460D01*
X112142540Y-98251183D01*
X112125775Y-98230755D01*
X112125557Y-98230429D01*
X112113101Y-98207126D01*
X112112951Y-98206764D01*
X112105280Y-98181477D01*
X112105204Y-98181092D01*
X112102010Y-98148658D01*
X112102000Y-98148462D01*
X112102000Y-98079600D01*
X112103000Y-98077868D01*
X112105000Y-98077868D01*
X112105990Y-98079404D01*
X112110013Y-98120252D01*
X112121873Y-98159348D01*
X112141130Y-98195376D01*
X112167046Y-98226954D01*
X112198624Y-98252870D01*
X112234652Y-98272127D01*
X112273748Y-98283987D01*
X112314494Y-98288000D01*
X113745506Y-98288000D01*
X113786252Y-98283987D01*
X113825348Y-98272127D01*
X113861376Y-98252870D01*
X113892954Y-98226954D01*
X113918870Y-98195376D01*
X113938127Y-98159348D01*
X113949987Y-98120252D01*
X113954010Y-98079404D01*
X113955175Y-98077778D01*
X113957165Y-98077974D01*
G37*
G36*
X110401165Y-98077974D02*
G01*
X110402000Y-98079600D01*
X110402000Y-98148462D01*
X110401990Y-98148658D01*
X110398796Y-98181092D01*
X110398720Y-98181477D01*
X110391049Y-98206764D01*
X110390899Y-98207126D01*
X110378443Y-98230429D01*
X110378225Y-98230755D01*
X110361460Y-98251183D01*
X110361183Y-98251460D01*
X110340755Y-98268225D01*
X110340429Y-98268443D01*
X110317123Y-98280900D01*
X110316761Y-98281050D01*
X110304608Y-98284737D01*
X110282244Y-98294002D01*
X110262197Y-98307397D01*
X110245150Y-98324444D01*
X110231756Y-98344492D01*
X110222530Y-98366766D01*
X110217827Y-98390417D01*
X110217827Y-98414523D01*
X110222533Y-98438173D01*
X110231760Y-98460446D01*
X110245155Y-98480493D01*
X110262202Y-98497540D01*
X110277301Y-98507628D01*
X110278186Y-98509422D01*
X110277075Y-98511085D01*
X110275247Y-98511055D01*
X110137163Y-98437248D01*
X109959136Y-98383243D01*
X109773906Y-98365000D01*
X109174094Y-98365000D01*
X108988864Y-98383243D01*
X108810837Y-98437248D01*
X108672751Y-98511056D01*
X108670752Y-98510990D01*
X108669809Y-98509227D01*
X108670697Y-98507629D01*
X108685801Y-98497537D01*
X108702848Y-98480490D01*
X108716242Y-98460443D01*
X108725469Y-98438169D01*
X108730173Y-98414519D01*
X108730173Y-98390413D01*
X108725469Y-98366763D01*
X108716242Y-98344489D01*
X108702847Y-98324441D01*
X108685800Y-98307394D01*
X108665753Y-98294000D01*
X108643392Y-98284737D01*
X108631239Y-98281050D01*
X108630877Y-98280900D01*
X108607571Y-98268443D01*
X108607245Y-98268225D01*
X108586817Y-98251460D01*
X108586540Y-98251183D01*
X108569775Y-98230755D01*
X108569557Y-98230429D01*
X108557101Y-98207126D01*
X108556951Y-98206764D01*
X108549280Y-98181477D01*
X108549204Y-98181092D01*
X108546010Y-98148658D01*
X108546000Y-98148462D01*
X108546000Y-98079600D01*
X108547000Y-98077868D01*
X108549000Y-98077868D01*
X108549990Y-98079404D01*
X108554013Y-98120252D01*
X108565873Y-98159348D01*
X108585130Y-98195376D01*
X108611046Y-98226954D01*
X108642624Y-98252870D01*
X108678652Y-98272127D01*
X108717748Y-98283987D01*
X108758494Y-98288000D01*
X110189506Y-98288000D01*
X110230252Y-98283987D01*
X110269348Y-98272127D01*
X110305376Y-98252870D01*
X110336954Y-98226954D01*
X110362870Y-98195376D01*
X110382127Y-98159348D01*
X110393987Y-98120252D01*
X110398010Y-98079404D01*
X110399175Y-98077778D01*
X110401165Y-98077974D01*
G37*
G36*
X127286732Y-96855000D02*
G01*
X127287000Y-96856000D01*
X127287000Y-96954000D01*
X127286000Y-96955732D01*
X127285000Y-96956000D01*
X124683000Y-96956000D01*
X124681268Y-96955000D01*
X124681000Y-96954000D01*
X124681000Y-96856000D01*
X124682000Y-96854268D01*
X124683000Y-96854000D01*
X127285000Y-96854000D01*
X127286732Y-96855000D01*
G37*
G36*
X120086732Y-96855000D02*
G01*
X120087000Y-96856000D01*
X120087000Y-96954000D01*
X120086000Y-96955732D01*
X120085000Y-96956000D01*
X117483000Y-96956000D01*
X117481268Y-96955000D01*
X117481000Y-96954000D01*
X117481000Y-96856000D01*
X117482000Y-96854268D01*
X117483000Y-96854000D01*
X120085000Y-96854000D01*
X120086732Y-96855000D01*
G37*
G36*
X120086732Y-96205000D02*
G01*
X120087000Y-96206000D01*
X120087000Y-96304000D01*
X120086000Y-96305732D01*
X120085000Y-96306000D01*
X117483000Y-96306000D01*
X117481268Y-96305000D01*
X117481000Y-96304000D01*
X117481000Y-96206000D01*
X117482000Y-96204268D01*
X117483000Y-96204000D01*
X120085000Y-96204000D01*
X120086732Y-96205000D01*
G37*
G36*
X127286732Y-96205000D02*
G01*
X127287000Y-96206000D01*
X127287000Y-96304000D01*
X127286000Y-96305732D01*
X127285000Y-96306000D01*
X124683000Y-96306000D01*
X124681268Y-96305000D01*
X124681000Y-96304000D01*
X124681000Y-96206000D01*
X124682000Y-96204268D01*
X124683000Y-96204000D01*
X127285000Y-96204000D01*
X127286732Y-96205000D01*
G37*
G36*
X127286732Y-95555000D02*
G01*
X127287000Y-95556000D01*
X127287000Y-95654000D01*
X127286000Y-95655732D01*
X127285000Y-95656000D01*
X124683000Y-95656000D01*
X124681268Y-95655000D01*
X124681000Y-95654000D01*
X124681000Y-95556000D01*
X124682000Y-95554268D01*
X124683000Y-95554000D01*
X127285000Y-95554000D01*
X127286732Y-95555000D01*
G37*
G36*
X120086732Y-95555000D02*
G01*
X120087000Y-95556000D01*
X120087000Y-95654000D01*
X120086000Y-95655732D01*
X120085000Y-95656000D01*
X117483000Y-95656000D01*
X117481268Y-95655000D01*
X117481000Y-95654000D01*
X117481000Y-95556000D01*
X117482000Y-95554268D01*
X117483000Y-95554000D01*
X120085000Y-95554000D01*
X120086732Y-95555000D01*
G37*
G36*
X127286732Y-94905000D02*
G01*
X127287000Y-94906000D01*
X127287000Y-95004000D01*
X127286000Y-95005732D01*
X127285000Y-95006000D01*
X124683000Y-95006000D01*
X124681268Y-95005000D01*
X124681000Y-95004000D01*
X124681000Y-94906000D01*
X124682000Y-94904268D01*
X124683000Y-94904000D01*
X127285000Y-94904000D01*
X127286732Y-94905000D01*
G37*
G36*
X120086732Y-94905000D02*
G01*
X120087000Y-94906000D01*
X120087000Y-95004000D01*
X120086000Y-95005732D01*
X120085000Y-95006000D01*
X117483000Y-95006000D01*
X117481268Y-95005000D01*
X117481000Y-95004000D01*
X117481000Y-94906000D01*
X117482000Y-94904268D01*
X117483000Y-94904000D01*
X120085000Y-94904000D01*
X120086732Y-94905000D01*
G37*
G36*
X127286732Y-94255000D02*
G01*
X127287000Y-94256000D01*
X127287000Y-94354000D01*
X127286000Y-94355732D01*
X127285000Y-94356000D01*
X124683000Y-94356000D01*
X124681268Y-94355000D01*
X124681000Y-94354000D01*
X124681000Y-94256000D01*
X124682000Y-94254268D01*
X124683000Y-94254000D01*
X127285000Y-94254000D01*
X127286732Y-94255000D01*
G37*
G36*
X120086732Y-94255000D02*
G01*
X120087000Y-94256000D01*
X120087000Y-94354000D01*
X120086000Y-94355732D01*
X120085000Y-94356000D01*
X117483000Y-94356000D01*
X117481268Y-94355000D01*
X117481000Y-94354000D01*
X117481000Y-94256000D01*
X117482000Y-94254268D01*
X117483000Y-94254000D01*
X120085000Y-94254000D01*
X120086732Y-94255000D01*
G37*
G36*
X106236990Y-92291805D02*
G01*
X106239372Y-92315992D01*
X106246372Y-92339067D01*
X106257737Y-92360331D01*
X106273032Y-92378968D01*
X106291669Y-92394263D01*
X106312933Y-92405628D01*
X106336008Y-92412628D01*
X106360093Y-92415000D01*
X106433000Y-92415000D01*
X106434732Y-92416000D01*
X106435000Y-92417000D01*
X106435000Y-94019000D01*
X106434000Y-94020732D01*
X106433000Y-94021000D01*
X106360093Y-94021000D01*
X106336008Y-94023372D01*
X106312933Y-94030372D01*
X106291669Y-94041737D01*
X106273032Y-94057032D01*
X106257737Y-94075669D01*
X106246372Y-94096933D01*
X106239372Y-94120008D01*
X106236990Y-94144195D01*
X106235825Y-94145821D01*
X106233835Y-94145625D01*
X106233000Y-94143999D01*
X106233000Y-93869000D01*
X105133000Y-93869000D01*
X105131268Y-93868000D01*
X105131000Y-93867000D01*
X105131000Y-93769000D01*
X105132000Y-93767268D01*
X105133000Y-93767000D01*
X106233000Y-93767000D01*
X106233000Y-93469000D01*
X105133000Y-93469000D01*
X105131268Y-93468000D01*
X105131000Y-93467000D01*
X105131000Y-93369000D01*
X105132000Y-93367268D01*
X105133000Y-93367000D01*
X106233000Y-93367000D01*
X106233000Y-93069000D01*
X105133000Y-93069000D01*
X105131268Y-93068000D01*
X105131000Y-93067000D01*
X105131000Y-92969000D01*
X105132000Y-92967268D01*
X105133000Y-92967000D01*
X106233000Y-92967000D01*
X106233000Y-92669000D01*
X105133000Y-92669000D01*
X105131268Y-92668000D01*
X105131000Y-92667000D01*
X105131000Y-92569000D01*
X105132000Y-92567268D01*
X105133000Y-92567000D01*
X106233000Y-92567000D01*
X106233000Y-92292001D01*
X106234000Y-92290269D01*
X106236000Y-92290269D01*
X106236990Y-92291805D01*
G37*
G36*
X107634165Y-92290375D02*
G01*
X107635000Y-92292001D01*
X107635000Y-92567000D01*
X108735000Y-92567000D01*
X108736732Y-92568000D01*
X108737000Y-92569000D01*
X108737000Y-92667000D01*
X108736000Y-92668732D01*
X108735000Y-92669000D01*
X107635000Y-92669000D01*
X107635000Y-92967000D01*
X108735000Y-92967000D01*
X108736732Y-92968000D01*
X108737000Y-92969000D01*
X108737000Y-93067000D01*
X108736000Y-93068732D01*
X108735000Y-93069000D01*
X107635000Y-93069000D01*
X107635000Y-93367000D01*
X108735000Y-93367000D01*
X108736732Y-93368000D01*
X108737000Y-93369000D01*
X108737000Y-93467000D01*
X108736000Y-93468732D01*
X108735000Y-93469000D01*
X107635000Y-93469000D01*
X107635000Y-93767000D01*
X108735000Y-93767000D01*
X108736732Y-93768000D01*
X108737000Y-93769000D01*
X108737000Y-93867000D01*
X108736000Y-93868732D01*
X108735000Y-93869000D01*
X107635000Y-93869000D01*
X107635000Y-94143999D01*
X107634000Y-94145731D01*
X107632000Y-94145731D01*
X107631010Y-94144195D01*
X107628628Y-94120008D01*
X107621628Y-94096933D01*
X107610263Y-94075669D01*
X107594968Y-94057032D01*
X107576331Y-94041737D01*
X107555067Y-94030372D01*
X107531992Y-94023372D01*
X107507907Y-94021000D01*
X107435000Y-94021000D01*
X107433268Y-94020000D01*
X107433000Y-94019000D01*
X107433000Y-92417000D01*
X107434000Y-92415268D01*
X107435000Y-92415000D01*
X107507907Y-92415000D01*
X107531992Y-92412628D01*
X107555067Y-92405628D01*
X107576331Y-92394263D01*
X107594968Y-92378968D01*
X107610263Y-92360331D01*
X107621628Y-92339067D01*
X107628628Y-92315992D01*
X107631010Y-92291805D01*
X107632175Y-92290179D01*
X107634165Y-92290375D01*
G37*
G36*
X120086732Y-93605000D02*
G01*
X120087000Y-93606000D01*
X120087000Y-93704000D01*
X120086000Y-93705732D01*
X120085000Y-93706000D01*
X117483000Y-93706000D01*
X117481268Y-93705000D01*
X117481000Y-93704000D01*
X117481000Y-93606000D01*
X117482000Y-93604268D01*
X117483000Y-93604000D01*
X120085000Y-93604000D01*
X120086732Y-93605000D01*
G37*
G36*
X127286732Y-93605000D02*
G01*
X127287000Y-93606000D01*
X127287000Y-93704000D01*
X127286000Y-93705732D01*
X127285000Y-93706000D01*
X124683000Y-93706000D01*
X124681268Y-93705000D01*
X124681000Y-93704000D01*
X124681000Y-93606000D01*
X124682000Y-93604268D01*
X124683000Y-93604000D01*
X127285000Y-93604000D01*
X127286732Y-93605000D01*
G37*
G36*
X120086732Y-92955000D02*
G01*
X120087000Y-92956000D01*
X120087000Y-93054000D01*
X120086000Y-93055732D01*
X120085000Y-93056000D01*
X117483000Y-93056000D01*
X117481268Y-93055000D01*
X117481000Y-93054000D01*
X117481000Y-92956000D01*
X117482000Y-92954268D01*
X117483000Y-92954000D01*
X120085000Y-92954000D01*
X120086732Y-92955000D01*
G37*
G36*
X127286732Y-92955000D02*
G01*
X127287000Y-92956000D01*
X127287000Y-93054000D01*
X127286000Y-93055732D01*
X127285000Y-93056000D01*
X124683000Y-93056000D01*
X124681268Y-93055000D01*
X124681000Y-93054000D01*
X124681000Y-92956000D01*
X124682000Y-92954268D01*
X124683000Y-92954000D01*
X127285000Y-92954000D01*
X127286732Y-92955000D01*
G37*
G36*
X120086732Y-92305000D02*
G01*
X120087000Y-92306000D01*
X120087000Y-92404000D01*
X120086000Y-92405732D01*
X120085000Y-92406000D01*
X117483000Y-92406000D01*
X117481268Y-92405000D01*
X117481000Y-92404000D01*
X117481000Y-92306000D01*
X117482000Y-92304268D01*
X117483000Y-92304000D01*
X120085000Y-92304000D01*
X120086732Y-92305000D01*
G37*
G36*
X127286732Y-92305000D02*
G01*
X127287000Y-92306000D01*
X127287000Y-92404000D01*
X127286000Y-92405732D01*
X127285000Y-92406000D01*
X124683000Y-92406000D01*
X124681268Y-92405000D01*
X124681000Y-92404000D01*
X124681000Y-92306000D01*
X124682000Y-92304268D01*
X124683000Y-92304000D01*
X127285000Y-92304000D01*
X127286732Y-92305000D01*
G37*
G36*
X136558555Y-87484010D02*
G01*
X136569551Y-87485093D01*
X136569936Y-87485169D01*
X136574610Y-87486587D01*
X136574972Y-87486737D01*
X136579273Y-87489036D01*
X136579599Y-87489254D01*
X136585896Y-87494421D01*
X136606023Y-87507870D01*
X136628297Y-87517096D01*
X136651948Y-87521800D01*
X136676054Y-87521800D01*
X136699704Y-87517095D01*
X136721978Y-87507869D01*
X136742104Y-87494421D01*
X136748401Y-87489254D01*
X136748727Y-87489036D01*
X136753028Y-87486737D01*
X136753390Y-87486587D01*
X136758064Y-87485169D01*
X136758449Y-87485093D01*
X136769445Y-87484010D01*
X136769641Y-87484000D01*
X136826000Y-87484000D01*
X136827732Y-87485000D01*
X136827732Y-87487000D01*
X136826196Y-87487990D01*
X136809227Y-87489661D01*
X136793093Y-87494556D01*
X136778226Y-87502502D01*
X136765196Y-87513196D01*
X136754502Y-87526226D01*
X136746556Y-87541093D01*
X136741661Y-87557227D01*
X136740000Y-87574094D01*
X136740000Y-88374906D01*
X136741661Y-88391773D01*
X136746556Y-88407907D01*
X136754502Y-88422774D01*
X136765196Y-88435804D01*
X136778226Y-88446498D01*
X136793093Y-88454444D01*
X136809227Y-88459339D01*
X136826094Y-88461000D01*
X137001906Y-88461000D01*
X137018773Y-88459339D01*
X137034907Y-88454444D01*
X137049774Y-88446498D01*
X137062804Y-88435804D01*
X137073498Y-88422774D01*
X137081444Y-88407907D01*
X137086339Y-88391773D01*
X137088000Y-88374906D01*
X137088000Y-87574094D01*
X137086339Y-87557227D01*
X137081444Y-87541093D01*
X137073498Y-87526226D01*
X137062804Y-87513196D01*
X137049774Y-87502502D01*
X137034907Y-87494556D01*
X137018773Y-87489661D01*
X137001804Y-87487990D01*
X137000178Y-87486825D01*
X137000374Y-87484835D01*
X137002000Y-87484000D01*
X137058359Y-87484000D01*
X137058555Y-87484010D01*
X137069551Y-87485093D01*
X137069936Y-87485169D01*
X137074610Y-87486587D01*
X137074972Y-87486737D01*
X137079273Y-87489036D01*
X137079599Y-87489254D01*
X137085896Y-87494421D01*
X137106023Y-87507870D01*
X137128297Y-87517096D01*
X137151948Y-87521800D01*
X137176054Y-87521800D01*
X137199704Y-87517095D01*
X137221978Y-87507869D01*
X137242104Y-87494421D01*
X137248401Y-87489254D01*
X137248727Y-87489036D01*
X137253028Y-87486737D01*
X137253390Y-87486587D01*
X137258064Y-87485169D01*
X137258449Y-87485093D01*
X137269445Y-87484010D01*
X137269641Y-87484000D01*
X137326000Y-87484000D01*
X137327732Y-87485000D01*
X137327732Y-87487000D01*
X137326196Y-87487990D01*
X137309227Y-87489661D01*
X137293093Y-87494556D01*
X137278226Y-87502502D01*
X137265196Y-87513196D01*
X137254502Y-87526226D01*
X137246556Y-87541093D01*
X137241661Y-87557227D01*
X137240000Y-87574094D01*
X137240000Y-88374906D01*
X137241661Y-88391773D01*
X137246556Y-88407907D01*
X137254502Y-88422774D01*
X137265196Y-88435804D01*
X137278226Y-88446498D01*
X137293093Y-88454444D01*
X137309227Y-88459339D01*
X137326094Y-88461000D01*
X137501906Y-88461000D01*
X137518773Y-88459339D01*
X137534907Y-88454444D01*
X137549774Y-88446498D01*
X137562804Y-88435804D01*
X137573498Y-88422774D01*
X137581444Y-88407907D01*
X137586339Y-88391773D01*
X137588000Y-88374906D01*
X137588000Y-87574094D01*
X137586339Y-87557227D01*
X137581444Y-87541093D01*
X137573498Y-87526226D01*
X137562804Y-87513196D01*
X137549774Y-87502502D01*
X137534907Y-87494556D01*
X137518773Y-87489661D01*
X137501804Y-87487990D01*
X137500178Y-87486825D01*
X137500374Y-87484835D01*
X137502000Y-87484000D01*
X137558359Y-87484000D01*
X137558555Y-87484010D01*
X137569551Y-87485093D01*
X137569936Y-87485169D01*
X137574610Y-87486587D01*
X137574972Y-87486737D01*
X137579273Y-87489036D01*
X137579599Y-87489254D01*
X137585896Y-87494421D01*
X137606023Y-87507870D01*
X137628297Y-87517096D01*
X137651948Y-87521800D01*
X137676054Y-87521800D01*
X137699704Y-87517095D01*
X137721978Y-87507869D01*
X137742104Y-87494421D01*
X137748401Y-87489254D01*
X137748727Y-87489036D01*
X137753028Y-87486737D01*
X137753390Y-87486587D01*
X137758064Y-87485169D01*
X137758449Y-87485093D01*
X137769445Y-87484010D01*
X137769641Y-87484000D01*
X137826000Y-87484000D01*
X137827732Y-87485000D01*
X137827732Y-87487000D01*
X137826196Y-87487990D01*
X137809227Y-87489661D01*
X137793093Y-87494556D01*
X137778226Y-87502502D01*
X137765196Y-87513196D01*
X137754502Y-87526226D01*
X137746556Y-87541093D01*
X137741661Y-87557227D01*
X137740000Y-87574094D01*
X137740000Y-88374906D01*
X137741661Y-88391773D01*
X137746556Y-88407907D01*
X137754502Y-88422774D01*
X137765196Y-88435804D01*
X137778226Y-88446498D01*
X137793093Y-88454444D01*
X137809227Y-88459339D01*
X137826094Y-88461000D01*
X138001906Y-88461000D01*
X138018773Y-88459339D01*
X138034907Y-88454444D01*
X138049774Y-88446498D01*
X138062804Y-88435804D01*
X138073498Y-88422774D01*
X138081444Y-88407907D01*
X138086339Y-88391773D01*
X138088000Y-88374906D01*
X138088000Y-87574094D01*
X138086339Y-87557227D01*
X138081444Y-87541093D01*
X138073498Y-87526226D01*
X138062804Y-87513196D01*
X138049774Y-87502502D01*
X138034907Y-87494556D01*
X138018773Y-87489661D01*
X138001804Y-87487990D01*
X138000178Y-87486825D01*
X138000374Y-87484835D01*
X138002000Y-87484000D01*
X138058359Y-87484000D01*
X138058555Y-87484010D01*
X138069551Y-87485093D01*
X138069936Y-87485169D01*
X138074610Y-87486587D01*
X138074972Y-87486737D01*
X138079273Y-87489036D01*
X138079599Y-87489254D01*
X138085896Y-87494421D01*
X138106023Y-87507870D01*
X138128297Y-87517096D01*
X138151948Y-87521800D01*
X138176054Y-87521800D01*
X138199704Y-87517095D01*
X138221978Y-87507869D01*
X138242104Y-87494421D01*
X138248401Y-87489254D01*
X138248727Y-87489036D01*
X138253028Y-87486737D01*
X138253390Y-87486587D01*
X138258064Y-87485169D01*
X138258449Y-87485093D01*
X138269445Y-87484010D01*
X138269641Y-87484000D01*
X138326000Y-87484000D01*
X138327732Y-87485000D01*
X138327732Y-87487000D01*
X138326196Y-87487990D01*
X138309227Y-87489661D01*
X138293093Y-87494556D01*
X138278226Y-87502502D01*
X138265196Y-87513196D01*
X138254502Y-87526226D01*
X138246556Y-87541093D01*
X138241661Y-87557227D01*
X138240000Y-87574094D01*
X138240000Y-88374906D01*
X138241661Y-88391773D01*
X138246556Y-88407907D01*
X138254502Y-88422774D01*
X138265196Y-88435804D01*
X138278226Y-88446498D01*
X138293093Y-88454444D01*
X138309227Y-88459339D01*
X138326094Y-88461000D01*
X138501906Y-88461000D01*
X138518773Y-88459339D01*
X138534907Y-88454444D01*
X138549774Y-88446498D01*
X138562804Y-88435804D01*
X138573498Y-88422774D01*
X138581444Y-88407907D01*
X138586339Y-88391773D01*
X138588000Y-88374906D01*
X138588000Y-88361001D01*
X138589000Y-88359269D01*
X138591000Y-88359269D01*
X138591990Y-88360805D01*
X138594372Y-88384992D01*
X138601372Y-88408067D01*
X138612737Y-88429331D01*
X138628032Y-88447968D01*
X138646669Y-88463263D01*
X138667933Y-88474628D01*
X138691008Y-88481628D01*
X138715195Y-88484010D01*
X138716821Y-88485175D01*
X138716625Y-88487165D01*
X138714999Y-88488000D01*
X138701094Y-88488000D01*
X138684227Y-88489661D01*
X138668093Y-88494556D01*
X138653226Y-88502502D01*
X138640196Y-88513196D01*
X138629502Y-88526226D01*
X138621556Y-88541093D01*
X138616661Y-88557227D01*
X138615000Y-88574094D01*
X138615000Y-88749906D01*
X138616661Y-88766773D01*
X138621556Y-88782907D01*
X138629502Y-88797774D01*
X138640196Y-88810804D01*
X138653226Y-88821498D01*
X138668093Y-88829444D01*
X138684227Y-88834339D01*
X138701094Y-88836000D01*
X139501906Y-88836000D01*
X139518773Y-88834339D01*
X139534907Y-88829444D01*
X139549774Y-88821498D01*
X139562804Y-88810804D01*
X139573498Y-88797774D01*
X139581444Y-88782907D01*
X139586339Y-88766773D01*
X139588010Y-88749804D01*
X139589175Y-88748178D01*
X139591165Y-88748374D01*
X139592000Y-88750000D01*
X139592000Y-88806359D01*
X139591990Y-88806555D01*
X139590907Y-88817551D01*
X139590831Y-88817936D01*
X139589413Y-88822610D01*
X139589263Y-88822972D01*
X139586964Y-88827273D01*
X139586746Y-88827599D01*
X139581579Y-88833896D01*
X139568130Y-88854023D01*
X139558904Y-88876297D01*
X139554200Y-88899948D01*
X139554200Y-88924054D01*
X139558905Y-88947704D01*
X139568131Y-88969978D01*
X139581579Y-88990104D01*
X139586746Y-88996401D01*
X139586964Y-88996727D01*
X139589263Y-89001028D01*
X139589413Y-89001390D01*
X139590831Y-89006064D01*
X139590907Y-89006449D01*
X139591990Y-89017445D01*
X139592000Y-89017641D01*
X139592000Y-89074000D01*
X139591000Y-89075732D01*
X139589000Y-89075732D01*
X139588010Y-89074196D01*
X139586339Y-89057227D01*
X139581444Y-89041093D01*
X139573498Y-89026226D01*
X139562804Y-89013196D01*
X139549774Y-89002502D01*
X139534907Y-88994556D01*
X139518773Y-88989661D01*
X139501906Y-88988000D01*
X138701094Y-88988000D01*
X138684227Y-88989661D01*
X138668093Y-88994556D01*
X138653226Y-89002502D01*
X138640196Y-89013196D01*
X138629502Y-89026226D01*
X138621556Y-89041093D01*
X138616661Y-89057227D01*
X138615000Y-89074094D01*
X138615000Y-89249906D01*
X138616661Y-89266773D01*
X138621556Y-89282907D01*
X138629502Y-89297774D01*
X138640196Y-89310804D01*
X138653226Y-89321498D01*
X138668093Y-89329444D01*
X138684227Y-89334339D01*
X138701094Y-89336000D01*
X139501906Y-89336000D01*
X139518773Y-89334339D01*
X139534907Y-89329444D01*
X139549774Y-89321498D01*
X139562804Y-89310804D01*
X139573498Y-89297774D01*
X139581444Y-89282907D01*
X139586339Y-89266773D01*
X139588010Y-89249804D01*
X139589175Y-89248178D01*
X139591165Y-89248374D01*
X139592000Y-89250000D01*
X139592000Y-89306359D01*
X139591990Y-89306555D01*
X139590907Y-89317551D01*
X139590831Y-89317936D01*
X139589413Y-89322610D01*
X139589263Y-89322972D01*
X139586964Y-89327273D01*
X139586746Y-89327599D01*
X139581579Y-89333896D01*
X139568130Y-89354023D01*
X139558904Y-89376297D01*
X139554200Y-89399948D01*
X139554200Y-89424054D01*
X139558905Y-89447704D01*
X139568131Y-89469978D01*
X139581579Y-89490104D01*
X139586746Y-89496401D01*
X139586964Y-89496727D01*
X139589263Y-89501028D01*
X139589413Y-89501390D01*
X139590831Y-89506064D01*
X139590907Y-89506449D01*
X139591990Y-89517445D01*
X139592000Y-89517641D01*
X139592000Y-89574000D01*
X139591000Y-89575732D01*
X139589000Y-89575732D01*
X139588010Y-89574196D01*
X139586339Y-89557227D01*
X139581444Y-89541093D01*
X139573498Y-89526226D01*
X139562804Y-89513196D01*
X139549774Y-89502502D01*
X139534907Y-89494556D01*
X139518773Y-89489661D01*
X139501906Y-89488000D01*
X138701094Y-89488000D01*
X138684227Y-89489661D01*
X138668093Y-89494556D01*
X138653226Y-89502502D01*
X138640196Y-89513196D01*
X138629502Y-89526226D01*
X138621556Y-89541093D01*
X138616661Y-89557227D01*
X138615000Y-89574094D01*
X138615000Y-89749906D01*
X138616661Y-89766773D01*
X138621556Y-89782907D01*
X138629502Y-89797774D01*
X138640196Y-89810804D01*
X138653226Y-89821498D01*
X138668093Y-89829444D01*
X138684227Y-89834339D01*
X138701094Y-89836000D01*
X139501906Y-89836000D01*
X139518773Y-89834339D01*
X139534907Y-89829444D01*
X139549774Y-89821498D01*
X139562804Y-89810804D01*
X139573498Y-89797774D01*
X139581444Y-89782907D01*
X139586339Y-89766773D01*
X139588010Y-89749804D01*
X139589175Y-89748178D01*
X139591165Y-89748374D01*
X139592000Y-89750000D01*
X139592000Y-89806359D01*
X139591990Y-89806555D01*
X139590907Y-89817551D01*
X139590831Y-89817936D01*
X139589413Y-89822610D01*
X139589263Y-89822972D01*
X139586964Y-89827273D01*
X139586746Y-89827599D01*
X139581579Y-89833896D01*
X139568130Y-89854023D01*
X139558904Y-89876297D01*
X139554200Y-89899948D01*
X139554200Y-89924054D01*
X139558905Y-89947704D01*
X139568131Y-89969978D01*
X139581579Y-89990104D01*
X139586746Y-89996401D01*
X139586964Y-89996727D01*
X139589263Y-90001028D01*
X139589413Y-90001390D01*
X139590831Y-90006064D01*
X139590907Y-90006449D01*
X139591990Y-90017445D01*
X139592000Y-90017641D01*
X139592000Y-90074000D01*
X139591000Y-90075732D01*
X139589000Y-90075732D01*
X139588010Y-90074196D01*
X139586339Y-90057227D01*
X139581444Y-90041093D01*
X139573498Y-90026226D01*
X139562804Y-90013196D01*
X139549774Y-90002502D01*
X139534907Y-89994556D01*
X139518773Y-89989661D01*
X139501906Y-89988000D01*
X138701094Y-89988000D01*
X138684227Y-89989661D01*
X138668093Y-89994556D01*
X138653226Y-90002502D01*
X138640196Y-90013196D01*
X138629502Y-90026226D01*
X138621556Y-90041093D01*
X138616661Y-90057227D01*
X138615000Y-90074094D01*
X138615000Y-90249906D01*
X138616661Y-90266773D01*
X138621556Y-90282907D01*
X138629502Y-90297774D01*
X138640196Y-90310804D01*
X138653226Y-90321498D01*
X138668093Y-90329444D01*
X138684227Y-90334339D01*
X138701094Y-90336000D01*
X139501906Y-90336000D01*
X139518773Y-90334339D01*
X139534907Y-90329444D01*
X139549774Y-90321498D01*
X139562804Y-90310804D01*
X139573498Y-90297774D01*
X139581444Y-90282907D01*
X139586339Y-90266773D01*
X139588010Y-90249804D01*
X139589175Y-90248178D01*
X139591165Y-90248374D01*
X139592000Y-90250000D01*
X139592000Y-90306359D01*
X139591990Y-90306555D01*
X139590907Y-90317551D01*
X139590831Y-90317936D01*
X139589413Y-90322610D01*
X139589263Y-90322972D01*
X139586964Y-90327273D01*
X139586746Y-90327599D01*
X139581579Y-90333896D01*
X139568130Y-90354023D01*
X139558904Y-90376297D01*
X139554200Y-90399948D01*
X139554200Y-90424054D01*
X139558905Y-90447704D01*
X139568131Y-90469978D01*
X139581579Y-90490104D01*
X139586746Y-90496401D01*
X139586964Y-90496727D01*
X139589263Y-90501028D01*
X139589413Y-90501390D01*
X139590831Y-90506064D01*
X139590907Y-90506449D01*
X139591990Y-90517445D01*
X139592000Y-90517641D01*
X139592000Y-90574000D01*
X139591000Y-90575732D01*
X139589000Y-90575732D01*
X139588010Y-90574196D01*
X139586339Y-90557227D01*
X139581444Y-90541093D01*
X139573498Y-90526226D01*
X139562804Y-90513196D01*
X139549774Y-90502502D01*
X139534907Y-90494556D01*
X139518773Y-90489661D01*
X139501906Y-90488000D01*
X138701094Y-90488000D01*
X138684227Y-90489661D01*
X138668093Y-90494556D01*
X138653226Y-90502502D01*
X138640196Y-90513196D01*
X138629502Y-90526226D01*
X138621556Y-90541093D01*
X138616661Y-90557227D01*
X138615000Y-90574094D01*
X138615000Y-90749906D01*
X138616661Y-90766773D01*
X138621556Y-90782907D01*
X138629502Y-90797774D01*
X138640196Y-90810804D01*
X138653226Y-90821498D01*
X138668093Y-90829444D01*
X138684227Y-90834339D01*
X138701094Y-90836000D01*
X138714999Y-90836000D01*
X138716731Y-90837000D01*
X138716731Y-90839000D01*
X138715195Y-90839990D01*
X138691008Y-90842372D01*
X138667933Y-90849372D01*
X138646669Y-90860737D01*
X138628032Y-90876032D01*
X138612737Y-90894669D01*
X138601372Y-90915933D01*
X138594372Y-90939008D01*
X138591990Y-90963195D01*
X138590825Y-90964821D01*
X138588835Y-90964625D01*
X138588000Y-90962999D01*
X138588000Y-90949094D01*
X138586339Y-90932227D01*
X138581444Y-90916093D01*
X138573498Y-90901226D01*
X138562804Y-90888196D01*
X138549774Y-90877502D01*
X138534907Y-90869556D01*
X138518773Y-90864661D01*
X138501906Y-90863000D01*
X138326094Y-90863000D01*
X138309227Y-90864661D01*
X138293093Y-90869556D01*
X138278226Y-90877502D01*
X138265196Y-90888196D01*
X138254502Y-90901226D01*
X138246556Y-90916093D01*
X138241661Y-90932227D01*
X138240000Y-90949094D01*
X138240000Y-91749906D01*
X138241661Y-91766773D01*
X138246556Y-91782907D01*
X138254502Y-91797774D01*
X138265196Y-91810804D01*
X138278226Y-91821498D01*
X138293093Y-91829444D01*
X138309227Y-91834339D01*
X138326196Y-91836010D01*
X138327822Y-91837175D01*
X138327626Y-91839165D01*
X138326000Y-91840000D01*
X138269641Y-91840000D01*
X138269445Y-91839990D01*
X138258449Y-91838907D01*
X138258064Y-91838831D01*
X138253390Y-91837413D01*
X138253028Y-91837263D01*
X138248727Y-91834964D01*
X138248401Y-91834746D01*
X138242104Y-91829579D01*
X138221977Y-91816130D01*
X138199703Y-91806904D01*
X138176052Y-91802200D01*
X138151946Y-91802200D01*
X138128296Y-91806905D01*
X138106022Y-91816131D01*
X138085896Y-91829579D01*
X138079599Y-91834746D01*
X138079273Y-91834964D01*
X138074972Y-91837263D01*
X138074610Y-91837413D01*
X138069936Y-91838831D01*
X138069551Y-91838907D01*
X138058555Y-91839990D01*
X138058359Y-91840000D01*
X138002000Y-91840000D01*
X138000268Y-91839000D01*
X138000268Y-91837000D01*
X138001804Y-91836010D01*
X138018773Y-91834339D01*
X138034907Y-91829444D01*
X138049774Y-91821498D01*
X138062804Y-91810804D01*
X138073498Y-91797774D01*
X138081444Y-91782907D01*
X138086339Y-91766773D01*
X138088000Y-91749906D01*
X138088000Y-90949094D01*
X138086339Y-90932227D01*
X138081444Y-90916093D01*
X138073498Y-90901226D01*
X138062804Y-90888196D01*
X138049774Y-90877502D01*
X138034907Y-90869556D01*
X138018773Y-90864661D01*
X138001906Y-90863000D01*
X137826094Y-90863000D01*
X137809227Y-90864661D01*
X137793093Y-90869556D01*
X137778226Y-90877502D01*
X137765196Y-90888196D01*
X137754502Y-90901226D01*
X137746556Y-90916093D01*
X137741661Y-90932227D01*
X137740000Y-90949094D01*
X137740000Y-91749906D01*
X137741661Y-91766773D01*
X137746556Y-91782907D01*
X137754502Y-91797774D01*
X137765196Y-91810804D01*
X137778226Y-91821498D01*
X137793093Y-91829444D01*
X137809227Y-91834339D01*
X137826196Y-91836010D01*
X137827822Y-91837175D01*
X137827626Y-91839165D01*
X137826000Y-91840000D01*
X137769641Y-91840000D01*
X137769445Y-91839990D01*
X137758449Y-91838907D01*
X137758064Y-91838831D01*
X137753390Y-91837413D01*
X137753028Y-91837263D01*
X137748727Y-91834964D01*
X137748401Y-91834746D01*
X137742104Y-91829579D01*
X137721977Y-91816130D01*
X137699703Y-91806904D01*
X137676052Y-91802200D01*
X137651946Y-91802200D01*
X137628296Y-91806905D01*
X137606022Y-91816131D01*
X137585896Y-91829579D01*
X137579599Y-91834746D01*
X137579273Y-91834964D01*
X137574972Y-91837263D01*
X137574610Y-91837413D01*
X137569936Y-91838831D01*
X137569551Y-91838907D01*
X137558555Y-91839990D01*
X137558359Y-91840000D01*
X137502000Y-91840000D01*
X137500268Y-91839000D01*
X137500268Y-91837000D01*
X137501804Y-91836010D01*
X137518773Y-91834339D01*
X137534907Y-91829444D01*
X137549774Y-91821498D01*
X137562804Y-91810804D01*
X137573498Y-91797774D01*
X137581444Y-91782907D01*
X137586339Y-91766773D01*
X137588000Y-91749906D01*
X137588000Y-90949094D01*
X137586339Y-90932227D01*
X137581444Y-90916093D01*
X137573498Y-90901226D01*
X137562804Y-90888196D01*
X137549774Y-90877502D01*
X137534907Y-90869556D01*
X137518773Y-90864661D01*
X137501906Y-90863000D01*
X137326094Y-90863000D01*
X137309227Y-90864661D01*
X137293093Y-90869556D01*
X137278226Y-90877502D01*
X137265196Y-90888196D01*
X137254502Y-90901226D01*
X137246556Y-90916093D01*
X137241661Y-90932227D01*
X137240000Y-90949094D01*
X137240000Y-91749906D01*
X137241661Y-91766773D01*
X137246556Y-91782907D01*
X137254502Y-91797774D01*
X137265196Y-91810804D01*
X137278226Y-91821498D01*
X137293093Y-91829444D01*
X137309227Y-91834339D01*
X137326196Y-91836010D01*
X137327822Y-91837175D01*
X137327626Y-91839165D01*
X137326000Y-91840000D01*
X137269641Y-91840000D01*
X137269445Y-91839990D01*
X137258449Y-91838907D01*
X137258064Y-91838831D01*
X137253390Y-91837413D01*
X137253028Y-91837263D01*
X137248727Y-91834964D01*
X137248401Y-91834746D01*
X137242104Y-91829579D01*
X137221977Y-91816130D01*
X137199703Y-91806904D01*
X137176052Y-91802200D01*
X137151946Y-91802200D01*
X137128296Y-91806905D01*
X137106022Y-91816131D01*
X137085896Y-91829579D01*
X137079599Y-91834746D01*
X137079273Y-91834964D01*
X137074972Y-91837263D01*
X137074610Y-91837413D01*
X137069936Y-91838831D01*
X137069551Y-91838907D01*
X137058555Y-91839990D01*
X137058359Y-91840000D01*
X137002000Y-91840000D01*
X137000268Y-91839000D01*
X137000268Y-91837000D01*
X137001804Y-91836010D01*
X137018773Y-91834339D01*
X137034907Y-91829444D01*
X137049774Y-91821498D01*
X137062804Y-91810804D01*
X137073498Y-91797774D01*
X137081444Y-91782907D01*
X137086339Y-91766773D01*
X137088000Y-91749906D01*
X137088000Y-90949094D01*
X137086339Y-90932227D01*
X137081444Y-90916093D01*
X137073498Y-90901226D01*
X137062804Y-90888196D01*
X137049774Y-90877502D01*
X137034907Y-90869556D01*
X137018773Y-90864661D01*
X137001906Y-90863000D01*
X136826094Y-90863000D01*
X136809227Y-90864661D01*
X136793093Y-90869556D01*
X136778226Y-90877502D01*
X136765196Y-90888196D01*
X136754502Y-90901226D01*
X136746556Y-90916093D01*
X136741661Y-90932227D01*
X136740000Y-90949094D01*
X136740000Y-91749906D01*
X136741661Y-91766773D01*
X136746556Y-91782907D01*
X136754502Y-91797774D01*
X136765196Y-91810804D01*
X136778226Y-91821498D01*
X136793093Y-91829444D01*
X136809227Y-91834339D01*
X136826196Y-91836010D01*
X136827822Y-91837175D01*
X136827626Y-91839165D01*
X136826000Y-91840000D01*
X136769641Y-91840000D01*
X136769445Y-91839990D01*
X136758449Y-91838907D01*
X136758064Y-91838831D01*
X136753390Y-91837413D01*
X136753028Y-91837263D01*
X136748727Y-91834964D01*
X136748401Y-91834746D01*
X136742104Y-91829579D01*
X136721977Y-91816130D01*
X136699703Y-91806904D01*
X136676052Y-91802200D01*
X136651946Y-91802200D01*
X136628296Y-91806905D01*
X136606022Y-91816131D01*
X136585896Y-91829579D01*
X136579599Y-91834746D01*
X136579273Y-91834964D01*
X136574972Y-91837263D01*
X136574610Y-91837413D01*
X136569936Y-91838831D01*
X136569551Y-91838907D01*
X136558555Y-91839990D01*
X136558359Y-91840000D01*
X136502000Y-91840000D01*
X136500268Y-91839000D01*
X136500268Y-91837000D01*
X136501804Y-91836010D01*
X136518773Y-91834339D01*
X136534907Y-91829444D01*
X136549774Y-91821498D01*
X136562804Y-91810804D01*
X136573498Y-91797774D01*
X136581444Y-91782907D01*
X136586339Y-91766773D01*
X136588000Y-91749906D01*
X136588000Y-90949094D01*
X136586339Y-90932227D01*
X136581444Y-90916093D01*
X136573498Y-90901226D01*
X136562804Y-90888196D01*
X136549774Y-90877502D01*
X136534907Y-90869556D01*
X136518773Y-90864661D01*
X136501906Y-90863000D01*
X136326094Y-90863000D01*
X136309227Y-90864661D01*
X136293093Y-90869556D01*
X136278226Y-90877502D01*
X136265196Y-90888196D01*
X136254502Y-90901226D01*
X136246556Y-90916093D01*
X136241661Y-90932227D01*
X136240000Y-90949094D01*
X136240000Y-90962999D01*
X136239000Y-90964731D01*
X136237000Y-90964731D01*
X136236010Y-90963195D01*
X136233628Y-90939008D01*
X136226628Y-90915933D01*
X136215263Y-90894669D01*
X136199968Y-90876032D01*
X136181331Y-90860737D01*
X136160067Y-90849372D01*
X136136992Y-90842372D01*
X136112805Y-90839990D01*
X136111179Y-90838825D01*
X136111375Y-90836835D01*
X136113001Y-90836000D01*
X136126906Y-90836000D01*
X136143773Y-90834339D01*
X136159907Y-90829444D01*
X136174774Y-90821498D01*
X136187804Y-90810804D01*
X136198498Y-90797774D01*
X136206444Y-90782907D01*
X136211339Y-90766773D01*
X136213000Y-90749906D01*
X136213000Y-90574094D01*
X136211339Y-90557227D01*
X136206444Y-90541093D01*
X136198498Y-90526226D01*
X136187804Y-90513196D01*
X136174774Y-90502502D01*
X136159907Y-90494556D01*
X136143773Y-90489661D01*
X136126906Y-90488000D01*
X135326094Y-90488000D01*
X135309227Y-90489661D01*
X135293093Y-90494556D01*
X135278226Y-90502502D01*
X135265196Y-90513196D01*
X135254502Y-90526226D01*
X135246556Y-90541093D01*
X135241661Y-90557227D01*
X135239990Y-90574196D01*
X135238825Y-90575822D01*
X135236835Y-90575626D01*
X135236000Y-90574000D01*
X135236000Y-90517641D01*
X135236010Y-90517445D01*
X135237093Y-90506449D01*
X135237169Y-90506064D01*
X135238587Y-90501390D01*
X135238737Y-90501028D01*
X135241036Y-90496727D01*
X135241254Y-90496401D01*
X135246421Y-90490104D01*
X135259870Y-90469977D01*
X135269096Y-90447703D01*
X135273800Y-90424052D01*
X135273800Y-90399946D01*
X135269095Y-90376296D01*
X135259869Y-90354022D01*
X135246421Y-90333896D01*
X135241254Y-90327599D01*
X135241036Y-90327273D01*
X135238737Y-90322972D01*
X135238587Y-90322610D01*
X135237169Y-90317936D01*
X135237093Y-90317551D01*
X135236010Y-90306555D01*
X135236000Y-90306359D01*
X135236000Y-90250000D01*
X135237000Y-90248268D01*
X135239000Y-90248268D01*
X135239990Y-90249804D01*
X135241661Y-90266773D01*
X135246556Y-90282907D01*
X135254502Y-90297774D01*
X135265196Y-90310804D01*
X135278226Y-90321498D01*
X135293093Y-90329444D01*
X135309227Y-90334339D01*
X135326094Y-90336000D01*
X136126906Y-90336000D01*
X136143773Y-90334339D01*
X136159907Y-90329444D01*
X136174774Y-90321498D01*
X136187804Y-90310804D01*
X136198498Y-90297774D01*
X136206444Y-90282907D01*
X136211339Y-90266773D01*
X136213000Y-90249906D01*
X136213000Y-90074094D01*
X136211339Y-90057227D01*
X136206444Y-90041093D01*
X136198498Y-90026226D01*
X136187804Y-90013196D01*
X136174774Y-90002502D01*
X136159907Y-89994556D01*
X136143773Y-89989661D01*
X136126906Y-89988000D01*
X135326094Y-89988000D01*
X135309227Y-89989661D01*
X135293093Y-89994556D01*
X135278226Y-90002502D01*
X135265196Y-90013196D01*
X135254502Y-90026226D01*
X135246556Y-90041093D01*
X135241661Y-90057227D01*
X135239990Y-90074196D01*
X135238825Y-90075822D01*
X135236835Y-90075626D01*
X135236000Y-90074000D01*
X135236000Y-90017641D01*
X135236010Y-90017445D01*
X135237093Y-90006449D01*
X135237169Y-90006064D01*
X135238587Y-90001390D01*
X135238737Y-90001028D01*
X135241036Y-89996727D01*
X135241254Y-89996401D01*
X135246421Y-89990104D01*
X135259870Y-89969977D01*
X135269096Y-89947703D01*
X135273800Y-89924052D01*
X135273800Y-89899946D01*
X135269095Y-89876296D01*
X135259869Y-89854022D01*
X135246421Y-89833896D01*
X135241254Y-89827599D01*
X135241036Y-89827273D01*
X135238737Y-89822972D01*
X135238587Y-89822610D01*
X135237169Y-89817936D01*
X135237093Y-89817551D01*
X135236010Y-89806555D01*
X135236000Y-89806359D01*
X135236000Y-89750000D01*
X135237000Y-89748268D01*
X135239000Y-89748268D01*
X135239990Y-89749804D01*
X135241661Y-89766773D01*
X135246556Y-89782907D01*
X135254502Y-89797774D01*
X135265196Y-89810804D01*
X135278226Y-89821498D01*
X135293093Y-89829444D01*
X135309227Y-89834339D01*
X135326094Y-89836000D01*
X136126906Y-89836000D01*
X136143773Y-89834339D01*
X136159907Y-89829444D01*
X136174774Y-89821498D01*
X136187804Y-89810804D01*
X136198498Y-89797774D01*
X136206444Y-89782907D01*
X136211339Y-89766773D01*
X136213000Y-89749906D01*
X136213000Y-89574094D01*
X136211339Y-89557227D01*
X136206444Y-89541093D01*
X136198498Y-89526226D01*
X136187804Y-89513196D01*
X136174774Y-89502502D01*
X136159907Y-89494556D01*
X136143773Y-89489661D01*
X136126906Y-89488000D01*
X135326094Y-89488000D01*
X135309227Y-89489661D01*
X135293093Y-89494556D01*
X135278226Y-89502502D01*
X135265196Y-89513196D01*
X135254502Y-89526226D01*
X135246556Y-89541093D01*
X135241661Y-89557227D01*
X135239990Y-89574196D01*
X135238825Y-89575822D01*
X135236835Y-89575626D01*
X135236000Y-89574000D01*
X135236000Y-89517641D01*
X135236010Y-89517445D01*
X135237093Y-89506449D01*
X135237169Y-89506064D01*
X135238587Y-89501390D01*
X135238737Y-89501028D01*
X135241036Y-89496727D01*
X135241254Y-89496401D01*
X135246421Y-89490104D01*
X135259870Y-89469977D01*
X135269096Y-89447703D01*
X135273800Y-89424052D01*
X135273800Y-89399946D01*
X135269095Y-89376296D01*
X135259869Y-89354022D01*
X135246421Y-89333896D01*
X135241254Y-89327599D01*
X135241036Y-89327273D01*
X135238737Y-89322972D01*
X135238587Y-89322610D01*
X135237169Y-89317936D01*
X135237093Y-89317551D01*
X135236010Y-89306555D01*
X135236000Y-89306359D01*
X135236000Y-89250000D01*
X135237000Y-89248268D01*
X135239000Y-89248268D01*
X135239990Y-89249804D01*
X135241661Y-89266773D01*
X135246556Y-89282907D01*
X135254502Y-89297774D01*
X135265196Y-89310804D01*
X135278226Y-89321498D01*
X135293093Y-89329444D01*
X135309227Y-89334339D01*
X135326094Y-89336000D01*
X136126906Y-89336000D01*
X136143773Y-89334339D01*
X136159907Y-89329444D01*
X136174774Y-89321498D01*
X136187804Y-89310804D01*
X136198498Y-89297774D01*
X136206444Y-89282907D01*
X136211339Y-89266773D01*
X136213000Y-89249906D01*
X136213000Y-89074094D01*
X136211339Y-89057227D01*
X136206444Y-89041093D01*
X136198498Y-89026226D01*
X136187804Y-89013196D01*
X136174774Y-89002502D01*
X136159907Y-88994556D01*
X136143773Y-88989661D01*
X136126906Y-88988000D01*
X135326094Y-88988000D01*
X135309227Y-88989661D01*
X135293093Y-88994556D01*
X135278226Y-89002502D01*
X135265196Y-89013196D01*
X135254502Y-89026226D01*
X135246556Y-89041093D01*
X135241661Y-89057227D01*
X135239990Y-89074196D01*
X135238825Y-89075822D01*
X135236835Y-89075626D01*
X135236000Y-89074000D01*
X135236000Y-89017641D01*
X135236010Y-89017445D01*
X135237093Y-89006449D01*
X135237169Y-89006064D01*
X135238587Y-89001390D01*
X135238737Y-89001028D01*
X135241036Y-88996727D01*
X135241254Y-88996401D01*
X135246421Y-88990104D01*
X135259870Y-88969977D01*
X135269096Y-88947703D01*
X135273800Y-88924052D01*
X135273800Y-88899946D01*
X135269095Y-88876296D01*
X135268080Y-88873844D01*
X136365000Y-88873844D01*
X136365000Y-90450156D01*
X136370019Y-90501115D01*
X136384858Y-90550031D01*
X136408952Y-90595110D01*
X136441379Y-90634621D01*
X136480890Y-90667048D01*
X136525969Y-90691142D01*
X136574885Y-90705981D01*
X136625844Y-90711000D01*
X138202156Y-90711000D01*
X138253115Y-90705981D01*
X138302031Y-90691142D01*
X138347110Y-90667048D01*
X138386621Y-90634621D01*
X138419048Y-90595110D01*
X138443142Y-90550031D01*
X138457981Y-90501115D01*
X138463000Y-90450156D01*
X138463000Y-88873844D01*
X138457981Y-88822885D01*
X138443142Y-88773969D01*
X138419048Y-88728890D01*
X138386621Y-88689379D01*
X138347110Y-88656952D01*
X138302031Y-88632858D01*
X138253115Y-88618019D01*
X138202156Y-88613000D01*
X136625844Y-88613000D01*
X136574885Y-88618019D01*
X136525969Y-88632858D01*
X136480890Y-88656952D01*
X136441379Y-88689379D01*
X136408952Y-88728890D01*
X136384858Y-88773969D01*
X136370019Y-88822885D01*
X136365000Y-88873844D01*
X135268080Y-88873844D01*
X135259869Y-88854022D01*
X135246421Y-88833896D01*
X135241254Y-88827599D01*
X135241036Y-88827273D01*
X135238737Y-88822972D01*
X135238587Y-88822610D01*
X135237169Y-88817936D01*
X135237093Y-88817551D01*
X135236010Y-88806555D01*
X135236000Y-88806359D01*
X135236000Y-88750000D01*
X135237000Y-88748268D01*
X135239000Y-88748268D01*
X135239990Y-88749804D01*
X135241661Y-88766773D01*
X135246556Y-88782907D01*
X135254502Y-88797774D01*
X135265196Y-88810804D01*
X135278226Y-88821498D01*
X135293093Y-88829444D01*
X135309227Y-88834339D01*
X135326094Y-88836000D01*
X136126906Y-88836000D01*
X136143773Y-88834339D01*
X136159907Y-88829444D01*
X136174774Y-88821498D01*
X136187804Y-88810804D01*
X136198498Y-88797774D01*
X136206444Y-88782907D01*
X136211339Y-88766773D01*
X136213000Y-88749906D01*
X136213000Y-88574094D01*
X136211339Y-88557227D01*
X136206444Y-88541093D01*
X136198498Y-88526226D01*
X136187804Y-88513196D01*
X136174774Y-88502502D01*
X136159907Y-88494556D01*
X136143773Y-88489661D01*
X136126906Y-88488000D01*
X136113001Y-88488000D01*
X136111269Y-88487000D01*
X136111269Y-88485000D01*
X136112805Y-88484010D01*
X136136992Y-88481628D01*
X136160067Y-88474628D01*
X136181331Y-88463263D01*
X136199968Y-88447968D01*
X136215263Y-88429331D01*
X136226628Y-88408067D01*
X136233628Y-88384992D01*
X136236010Y-88360805D01*
X136237175Y-88359179D01*
X136239165Y-88359375D01*
X136240000Y-88361001D01*
X136240000Y-88374906D01*
X136241661Y-88391773D01*
X136246556Y-88407907D01*
X136254502Y-88422774D01*
X136265196Y-88435804D01*
X136278226Y-88446498D01*
X136293093Y-88454444D01*
X136309227Y-88459339D01*
X136326094Y-88461000D01*
X136501906Y-88461000D01*
X136518773Y-88459339D01*
X136534907Y-88454444D01*
X136549774Y-88446498D01*
X136562804Y-88435804D01*
X136573498Y-88422774D01*
X136581444Y-88407907D01*
X136586339Y-88391773D01*
X136588000Y-88374906D01*
X136588000Y-87574094D01*
X136586339Y-87557227D01*
X136581444Y-87541093D01*
X136573498Y-87526226D01*
X136562804Y-87513196D01*
X136549774Y-87502502D01*
X136534907Y-87494556D01*
X136518773Y-87489661D01*
X136501804Y-87487990D01*
X136500178Y-87486825D01*
X136500374Y-87484835D01*
X136502000Y-87484000D01*
X136558359Y-87484000D01*
X136558555Y-87484010D01*
G37*
G36*
X120086732Y-91655000D02*
G01*
X120087000Y-91656000D01*
X120087000Y-91754000D01*
X120086000Y-91755732D01*
X120085000Y-91756000D01*
X117483000Y-91756000D01*
X117481268Y-91755000D01*
X117481000Y-91754000D01*
X117481000Y-91656000D01*
X117482000Y-91654268D01*
X117483000Y-91654000D01*
X120085000Y-91654000D01*
X120086732Y-91655000D01*
G37*
G36*
X127286732Y-91655000D02*
G01*
X127287000Y-91656000D01*
X127287000Y-91754000D01*
X127286000Y-91755732D01*
X127285000Y-91756000D01*
X124683000Y-91756000D01*
X124681268Y-91755000D01*
X124681000Y-91754000D01*
X124681000Y-91656000D01*
X124682000Y-91654268D01*
X124683000Y-91654000D01*
X127285000Y-91654000D01*
X127286732Y-91655000D01*
G37*
G36*
X109795732Y-85528000D02*
G01*
X109796000Y-85529000D01*
X109796000Y-87191000D01*
X109795000Y-87192732D01*
X109794000Y-87193000D01*
X109596000Y-87193000D01*
X109594268Y-87192000D01*
X109594000Y-87191000D01*
X109594000Y-85531000D01*
X108846000Y-85531000D01*
X108846000Y-87191000D01*
X108845000Y-87192732D01*
X108844000Y-87193000D01*
X108646000Y-87193000D01*
X108644268Y-87192000D01*
X108644000Y-87191000D01*
X108644000Y-85529000D01*
X108645000Y-85527268D01*
X108646000Y-85527000D01*
X109794000Y-85527000D01*
X109795732Y-85528000D01*
G37*
G36*
X116145732Y-85100000D02*
G01*
X116146000Y-85101000D01*
X116146000Y-86763000D01*
X116145000Y-86764732D01*
X116144000Y-86765000D01*
X115946000Y-86765000D01*
X115944268Y-86764000D01*
X115944000Y-86763000D01*
X115944000Y-85103000D01*
X115196000Y-85103000D01*
X115196000Y-86763000D01*
X115195000Y-86764732D01*
X115194000Y-86765000D01*
X114996000Y-86765000D01*
X114994268Y-86764000D01*
X114994000Y-86763000D01*
X114994000Y-85101000D01*
X114995000Y-85099268D01*
X114996000Y-85099000D01*
X116144000Y-85099000D01*
X116145732Y-85100000D01*
G37*
G36*
X109795732Y-82828000D02*
G01*
X109796000Y-82829000D01*
X109796000Y-84491000D01*
X109795000Y-84492732D01*
X109794000Y-84493000D01*
X109596000Y-84493000D01*
X109594268Y-84492000D01*
X109594000Y-84491000D01*
X109594000Y-82831000D01*
X108846000Y-82831000D01*
X108846000Y-84491000D01*
X108845000Y-84492732D01*
X108844000Y-84493000D01*
X108646000Y-84493000D01*
X108644268Y-84492000D01*
X108644000Y-84491000D01*
X108644000Y-82829000D01*
X108645000Y-82827268D01*
X108646000Y-82827000D01*
X109794000Y-82827000D01*
X109795732Y-82828000D01*
G37*
G36*
X116145732Y-82400000D02*
G01*
X116146000Y-82401000D01*
X116146000Y-84063000D01*
X116145000Y-84064732D01*
X116144000Y-84065000D01*
X115946000Y-84065000D01*
X115944268Y-84064000D01*
X115944000Y-84063000D01*
X115944000Y-82403000D01*
X115196000Y-82403000D01*
X115196000Y-84063000D01*
X115195000Y-84064732D01*
X115194000Y-84065000D01*
X114996000Y-84065000D01*
X114994268Y-84064000D01*
X114994000Y-84063000D01*
X114994000Y-82401000D01*
X114995000Y-82399268D01*
X114996000Y-82399000D01*
X116144000Y-82399000D01*
X116145732Y-82400000D01*
G37*
M02*
