G04 #@! TF.GenerationSoftware,KiCad,Pcbnew,(5.1.7)-1*
G04 #@! TF.CreationDate,2021-10-27T14:05:12+02:00*
G04 #@! TF.ProjectId,Power_module_v1,506f7765-725f-46d6-9f64-756c655f7631,rev?*
G04 #@! TF.SameCoordinates,Original*
G04 #@! TF.FileFunction,Profile,NP*
%FSLAX46Y46*%
G04 Gerber Fmt 4.6, Leading zero omitted, Abs format (unit mm)*
G04 Created by KiCad (PCBNEW (5.1.7)-1) date 2021-10-27 14:05:12*
%MOMM*%
%LPD*%
G01*
G04 APERTURE LIST*
G04 #@! TA.AperFunction,Profile*
%ADD10C,0.050000*%
G04 #@! TD*
G04 APERTURE END LIST*
D10*
X90936777Y-74269890D02*
G75*
G02*
X90338988Y-72987921I342090J939879D01*
G01*
X90310612Y-82795820D02*
G75*
G02*
X90908403Y-81513849I939881J342090D01*
G01*
X90937154Y-74268909D02*
G75*
G02*
X91899999Y-75670000I-537985J-1401093D01*
G01*
X91884455Y-80119167D02*
G75*
G02*
X90908403Y-81513849I-1484456J-1D01*
G01*
X92103903Y-92006299D02*
X93600000Y-94600000D01*
X92470000Y-90640000D02*
X94240000Y-89620000D01*
X96466297Y-97566099D02*
X98230000Y-96550000D01*
X148540122Y-97567968D02*
X146770000Y-96550000D01*
X149906420Y-97201868D02*
X151400000Y-94600000D01*
X152541868Y-90633580D02*
X150760000Y-89620000D01*
X152541868Y-90633580D02*
G75*
G02*
X152907968Y-91999878I-500099J-866199D01*
G01*
X149906420Y-97201868D02*
G75*
G02*
X148540122Y-97567968I-866199J500099D01*
G01*
X96466297Y-97566099D02*
G75*
G02*
X95100000Y-97200000I-500099J866198D01*
G01*
X92103903Y-92006299D02*
G75*
G02*
X92470000Y-90640000I866198J500101D01*
G01*
X91900000Y-77900000D02*
X91884455Y-80119167D01*
X91899999Y-75670000D02*
X91900000Y-77900000D01*
X90338988Y-72987921D02*
X92608400Y-69088000D01*
X146770000Y-96550000D02*
X140000000Y-108252500D01*
X94240000Y-89620000D02*
X90310612Y-82795820D01*
X151400000Y-94600000D02*
X152907968Y-91999878D01*
X93600000Y-94600000D02*
X95100000Y-97200000D01*
X127071120Y-106934000D02*
X127071120Y-108252500D01*
X117927120Y-108252500D02*
X117927120Y-106934000D01*
X87500000Y-77941800D02*
X87500000Y-77941800D01*
X157500000Y-77941800D02*
X152400000Y-69088000D01*
X92608400Y-69088000D02*
X152400000Y-69088000D01*
X105000000Y-108252500D02*
X98230000Y-96550000D01*
X105000000Y-108252500D02*
X117927120Y-108252500D01*
X117927120Y-106934000D02*
X127071120Y-106934000D01*
X127071120Y-108252500D02*
X140000000Y-108252500D01*
X157500000Y-77941800D02*
X150760000Y-89620000D01*
M02*
