G04 #@! TF.GenerationSoftware,KiCad,Pcbnew,(5.1.9)-1*
G04 #@! TF.CreationDate,2021-07-28T09:13:25+02:00*
G04 #@! TF.ProjectId,STEM,5354454d-2e6b-4696-9361-645f70636258,A*
G04 #@! TF.SameCoordinates,Original*
G04 #@! TF.FileFunction,Legend,Top*
G04 #@! TF.FilePolarity,Positive*
%FSLAX46Y46*%
G04 Gerber Fmt 4.6, Leading zero omitted, Abs format (unit mm)*
G04 Created by KiCad (PCBNEW (5.1.9)-1) date 2021-07-28 09:13:25*
%MOMM*%
%LPD*%
G01*
G04 APERTURE LIST*
%ADD10C,0.125000*%
%ADD11C,0.120000*%
%ADD12C,0.010000*%
%ADD13C,0.200000*%
%ADD14C,0.150000*%
%ADD15C,0.254000*%
G04 APERTURE END LIST*
D10*
X124420952Y-135924190D02*
X124730476Y-135924190D01*
X124563809Y-136114666D01*
X124635238Y-136114666D01*
X124682857Y-136138476D01*
X124706666Y-136162285D01*
X124730476Y-136209904D01*
X124730476Y-136328952D01*
X124706666Y-136376571D01*
X124682857Y-136400380D01*
X124635238Y-136424190D01*
X124492380Y-136424190D01*
X124444761Y-136400380D01*
X124420952Y-136376571D01*
X124873333Y-135924190D02*
X125040000Y-136424190D01*
X125206666Y-135924190D01*
X125325714Y-135924190D02*
X125635238Y-135924190D01*
X125468571Y-136114666D01*
X125540000Y-136114666D01*
X125587619Y-136138476D01*
X125611428Y-136162285D01*
X125635238Y-136209904D01*
X125635238Y-136328952D01*
X125611428Y-136376571D01*
X125587619Y-136400380D01*
X125540000Y-136424190D01*
X125397142Y-136424190D01*
X125349523Y-136400380D01*
X125325714Y-136376571D01*
X122129047Y-135898000D02*
X122081428Y-135874190D01*
X122010000Y-135874190D01*
X121938571Y-135898000D01*
X121890952Y-135945619D01*
X121867142Y-135993238D01*
X121843333Y-136088476D01*
X121843333Y-136159904D01*
X121867142Y-136255142D01*
X121890952Y-136302761D01*
X121938571Y-136350380D01*
X122010000Y-136374190D01*
X122057619Y-136374190D01*
X122129047Y-136350380D01*
X122152857Y-136326571D01*
X122152857Y-136159904D01*
X122057619Y-136159904D01*
X122367142Y-136374190D02*
X122367142Y-135874190D01*
X122652857Y-136374190D01*
X122652857Y-135874190D01*
X122890952Y-136374190D02*
X122890952Y-135874190D01*
X123010000Y-135874190D01*
X123081428Y-135898000D01*
X123129047Y-135945619D01*
X123152857Y-135993238D01*
X123176666Y-136088476D01*
X123176666Y-136159904D01*
X123152857Y-136255142D01*
X123129047Y-136302761D01*
X123081428Y-136350380D01*
X123010000Y-136374190D01*
X122890952Y-136374190D01*
X119497619Y-136384190D02*
X119497619Y-135884190D01*
X119735714Y-136384190D02*
X119735714Y-135884190D01*
X120021428Y-136384190D01*
X120021428Y-135884190D01*
X120188095Y-135884190D02*
X120473809Y-135884190D01*
X120330952Y-136384190D02*
X120330952Y-135884190D01*
D11*
X146025000Y-121150000D02*
X134025000Y-121150000D01*
X134025000Y-109150000D02*
X146025000Y-109150000D01*
X146025000Y-121150000D02*
X146025000Y-119150000D01*
X146025000Y-116150000D02*
X146025000Y-114150000D01*
X146025000Y-111150000D02*
X146025000Y-109150000D01*
X134025000Y-111150000D02*
X134025000Y-109150000D01*
X134025000Y-116150000D02*
X134025000Y-114150000D01*
X134025000Y-121150000D02*
X134025000Y-119150000D01*
X128450000Y-134287000D02*
X116450000Y-134287000D01*
X116450000Y-122287000D02*
X128450000Y-122287000D01*
X128450000Y-134287000D02*
X128450000Y-132287000D01*
X128450000Y-129287000D02*
X128450000Y-127287000D01*
X128450000Y-124287000D02*
X128450000Y-122287000D01*
X116450000Y-124287000D02*
X116450000Y-122287000D01*
X116450000Y-129287000D02*
X116450000Y-127287000D01*
X116450000Y-134287000D02*
X116450000Y-132287000D01*
X110975000Y-121175000D02*
X98975000Y-121175000D01*
X98975000Y-109175000D02*
X110975000Y-109175000D01*
X110975000Y-121175000D02*
X110975000Y-119175000D01*
X110975000Y-116175000D02*
X110975000Y-114175000D01*
X110975000Y-111175000D02*
X110975000Y-109175000D01*
X98975000Y-111175000D02*
X98975000Y-109175000D01*
X98975000Y-116175000D02*
X98975000Y-114175000D01*
X98975000Y-121175000D02*
X98975000Y-119175000D01*
X128450000Y-108287000D02*
X116450000Y-108287000D01*
X116450000Y-96287000D02*
X128450000Y-96287000D01*
X128450000Y-108287000D02*
X128450000Y-106287000D01*
X128450000Y-103287000D02*
X128450000Y-101287000D01*
X128450000Y-98287000D02*
X128450000Y-96287000D01*
X116450000Y-98287000D02*
X116450000Y-96287000D01*
X116450000Y-103287000D02*
X116450000Y-101287000D01*
X116450000Y-108287000D02*
X116450000Y-106287000D01*
D12*
G36*
X126830579Y-89035467D02*
G01*
X126670267Y-89035467D01*
X126670267Y-90186933D01*
X126992000Y-90186933D01*
X126992000Y-89837977D01*
X127048268Y-89783440D01*
X127071247Y-89761220D01*
X127089740Y-89747571D01*
X127107070Y-89745446D01*
X127126559Y-89757801D01*
X127151532Y-89787589D01*
X127185312Y-89837764D01*
X127231221Y-89911281D01*
X127278350Y-89987967D01*
X127400695Y-90186933D01*
X127805194Y-90186933D01*
X127567034Y-89830285D01*
X127328875Y-89473637D01*
X127485541Y-89301119D01*
X127547007Y-89233422D01*
X127603884Y-89170755D01*
X127650453Y-89119423D01*
X127680997Y-89085726D01*
X127684339Y-89082033D01*
X127726470Y-89035467D01*
X127322200Y-89037193D01*
X127178267Y-89225944D01*
X127125253Y-89293745D01*
X127078549Y-89350265D01*
X127042302Y-89390723D01*
X127020661Y-89410338D01*
X127017400Y-89411415D01*
X127009825Y-89393987D01*
X127003137Y-89348769D01*
X126998032Y-89281839D01*
X126995679Y-89221801D01*
X126990891Y-89035466D01*
X126830579Y-89035467D01*
G37*
X126830579Y-89035467D02*
X126670267Y-89035467D01*
X126670267Y-90186933D01*
X126992000Y-90186933D01*
X126992000Y-89837977D01*
X127048268Y-89783440D01*
X127071247Y-89761220D01*
X127089740Y-89747571D01*
X127107070Y-89745446D01*
X127126559Y-89757801D01*
X127151532Y-89787589D01*
X127185312Y-89837764D01*
X127231221Y-89911281D01*
X127278350Y-89987967D01*
X127400695Y-90186933D01*
X127805194Y-90186933D01*
X127567034Y-89830285D01*
X127328875Y-89473637D01*
X127485541Y-89301119D01*
X127547007Y-89233422D01*
X127603884Y-89170755D01*
X127650453Y-89119423D01*
X127680997Y-89085726D01*
X127684339Y-89082033D01*
X127726470Y-89035467D01*
X127322200Y-89037193D01*
X127178267Y-89225944D01*
X127125253Y-89293745D01*
X127078549Y-89350265D01*
X127042302Y-89390723D01*
X127020661Y-89410338D01*
X127017400Y-89411415D01*
X127009825Y-89393987D01*
X127003137Y-89348769D01*
X126998032Y-89281839D01*
X126995679Y-89221801D01*
X126990891Y-89035466D01*
X126830579Y-89035467D01*
G36*
X129607915Y-89035467D02*
G01*
X129447334Y-89035467D01*
X129447334Y-90186933D01*
X130277067Y-90186933D01*
X130277067Y-89916905D01*
X130027301Y-89912219D01*
X129777534Y-89907533D01*
X129773015Y-89471500D01*
X129768495Y-89035466D01*
X129607915Y-89035467D01*
G37*
X129607915Y-89035467D02*
X129447334Y-89035467D01*
X129447334Y-90186933D01*
X130277067Y-90186933D01*
X130277067Y-89916905D01*
X130027301Y-89912219D01*
X129777534Y-89907533D01*
X129773015Y-89471500D01*
X129768495Y-89035466D01*
X129607915Y-89035467D01*
G36*
X130429467Y-90186933D02*
G01*
X131360800Y-90186933D01*
X131360800Y-89916781D01*
X131060234Y-89912157D01*
X130759667Y-89907533D01*
X130759667Y-89738200D01*
X131026367Y-89733537D01*
X131293067Y-89728873D01*
X131293067Y-89476593D01*
X131026367Y-89471930D01*
X130759667Y-89467266D01*
X130759667Y-89297933D01*
X131343867Y-89288667D01*
X131343867Y-89035467D01*
X130429467Y-89035467D01*
X130429467Y-90186933D01*
G37*
X130429467Y-90186933D02*
X131360800Y-90186933D01*
X131360800Y-89916781D01*
X131060234Y-89912157D01*
X130759667Y-89907533D01*
X130759667Y-89738200D01*
X131026367Y-89733537D01*
X131293067Y-89728873D01*
X131293067Y-89476593D01*
X131026367Y-89471930D01*
X130759667Y-89467266D01*
X130759667Y-89297933D01*
X131343867Y-89288667D01*
X131343867Y-89035467D01*
X130429467Y-89035467D01*
X130429467Y-90186933D01*
G36*
X133251550Y-89346113D02*
G01*
X133219065Y-89474770D01*
X133193237Y-89573765D01*
X133172971Y-89646404D01*
X133157171Y-89695994D01*
X133144743Y-89725840D01*
X133134590Y-89739249D01*
X133125618Y-89739526D01*
X133122138Y-89736724D01*
X133113412Y-89716334D01*
X133097848Y-89668219D01*
X133076943Y-89597480D01*
X133052188Y-89509216D01*
X133025080Y-89408529D01*
X133017157Y-89378366D01*
X132927580Y-89035467D01*
X132770723Y-89035467D01*
X132702548Y-89037053D01*
X132649342Y-89041312D01*
X132618552Y-89047489D01*
X132613867Y-89051333D01*
X132618350Y-89069651D01*
X132630934Y-89115962D01*
X132650327Y-89185723D01*
X132675232Y-89274389D01*
X132704356Y-89377418D01*
X132736403Y-89490266D01*
X132770080Y-89608388D01*
X132804091Y-89727242D01*
X132837143Y-89842283D01*
X132867940Y-89948968D01*
X132895189Y-90042753D01*
X132917594Y-90119095D01*
X132928973Y-90157300D01*
X132936782Y-90170457D01*
X132954762Y-90179082D01*
X132988930Y-90184092D01*
X133045303Y-90186403D01*
X133123540Y-90186933D01*
X133214286Y-90185577D01*
X133274623Y-90181264D01*
X133307912Y-90173626D01*
X133317053Y-90165767D01*
X133323721Y-90144837D01*
X133338890Y-90095571D01*
X133361315Y-90022066D01*
X133389750Y-89928421D01*
X133422949Y-89818732D01*
X133459668Y-89697096D01*
X133477897Y-89636600D01*
X133516294Y-89509261D01*
X133552161Y-89390613D01*
X133584170Y-89285022D01*
X133610995Y-89196856D01*
X133631307Y-89130483D01*
X133643781Y-89090271D01*
X133646429Y-89082033D01*
X133661972Y-89035467D01*
X133329278Y-89035467D01*
X133251550Y-89346113D01*
G37*
X133251550Y-89346113D02*
X133219065Y-89474770D01*
X133193237Y-89573765D01*
X133172971Y-89646404D01*
X133157171Y-89695994D01*
X133144743Y-89725840D01*
X133134590Y-89739249D01*
X133125618Y-89739526D01*
X133122138Y-89736724D01*
X133113412Y-89716334D01*
X133097848Y-89668219D01*
X133076943Y-89597480D01*
X133052188Y-89509216D01*
X133025080Y-89408529D01*
X133017157Y-89378366D01*
X132927580Y-89035467D01*
X132770723Y-89035467D01*
X132702548Y-89037053D01*
X132649342Y-89041312D01*
X132618552Y-89047489D01*
X132613867Y-89051333D01*
X132618350Y-89069651D01*
X132630934Y-89115962D01*
X132650327Y-89185723D01*
X132675232Y-89274389D01*
X132704356Y-89377418D01*
X132736403Y-89490266D01*
X132770080Y-89608388D01*
X132804091Y-89727242D01*
X132837143Y-89842283D01*
X132867940Y-89948968D01*
X132895189Y-90042753D01*
X132917594Y-90119095D01*
X132928973Y-90157300D01*
X132936782Y-90170457D01*
X132954762Y-90179082D01*
X132988930Y-90184092D01*
X133045303Y-90186403D01*
X133123540Y-90186933D01*
X133214286Y-90185577D01*
X133274623Y-90181264D01*
X133307912Y-90173626D01*
X133317053Y-90165767D01*
X133323721Y-90144837D01*
X133338890Y-90095571D01*
X133361315Y-90022066D01*
X133389750Y-89928421D01*
X133422949Y-89818732D01*
X133459668Y-89697096D01*
X133477897Y-89636600D01*
X133516294Y-89509261D01*
X133552161Y-89390613D01*
X133584170Y-89285022D01*
X133610995Y-89196856D01*
X133631307Y-89130483D01*
X133643781Y-89090271D01*
X133646429Y-89082033D01*
X133661972Y-89035467D01*
X133329278Y-89035467D01*
X133251550Y-89346113D01*
G36*
X133748400Y-90186933D02*
G01*
X134679734Y-90186933D01*
X134679734Y-89916781D01*
X134078600Y-89907533D01*
X134078600Y-89738200D01*
X134345300Y-89733537D01*
X134612001Y-89728873D01*
X134612001Y-89476593D01*
X134345300Y-89471930D01*
X134078600Y-89467266D01*
X134073275Y-89402585D01*
X134071367Y-89363309D01*
X134075944Y-89334362D01*
X134091348Y-89314171D01*
X134121922Y-89301162D01*
X134172010Y-89293762D01*
X134245953Y-89290397D01*
X134348095Y-89289493D01*
X134385474Y-89289466D01*
X134662801Y-89289466D01*
X134662801Y-89035467D01*
X133748400Y-89035467D01*
X133748400Y-90186933D01*
G37*
X133748400Y-90186933D02*
X134679734Y-90186933D01*
X134679734Y-89916781D01*
X134078600Y-89907533D01*
X134078600Y-89738200D01*
X134345300Y-89733537D01*
X134612001Y-89728873D01*
X134612001Y-89476593D01*
X134345300Y-89471930D01*
X134078600Y-89467266D01*
X134073275Y-89402585D01*
X134071367Y-89363309D01*
X134075944Y-89334362D01*
X134091348Y-89314171D01*
X134121922Y-89301162D01*
X134172010Y-89293762D01*
X134245953Y-89290397D01*
X134348095Y-89289493D01*
X134385474Y-89289466D01*
X134662801Y-89289466D01*
X134662801Y-89035467D01*
X133748400Y-89035467D01*
X133748400Y-90186933D01*
G36*
X135522549Y-89344500D02*
G01*
X135520232Y-89445233D01*
X135516674Y-89531449D01*
X135512200Y-89598184D01*
X135507133Y-89640475D01*
X135502345Y-89653533D01*
X135490141Y-89639216D01*
X135465015Y-89599232D01*
X135429532Y-89538035D01*
X135386256Y-89460077D01*
X135337750Y-89369811D01*
X135324545Y-89344773D01*
X135162334Y-89036013D01*
X134988767Y-89035740D01*
X134815201Y-89035467D01*
X134815201Y-90186933D01*
X135119253Y-90186933D01*
X135123860Y-89869433D01*
X135126305Y-89758444D01*
X135130000Y-89668009D01*
X135134708Y-89601672D01*
X135140197Y-89562978D01*
X135144716Y-89554235D01*
X135157246Y-89569177D01*
X135183036Y-89609635D01*
X135219493Y-89671198D01*
X135264026Y-89749454D01*
X135314042Y-89839992D01*
X135330983Y-89871210D01*
X135501000Y-90185883D01*
X135666101Y-90186408D01*
X135831200Y-90186933D01*
X135831200Y-89035467D01*
X135527164Y-89035467D01*
X135522549Y-89344500D01*
G37*
X135522549Y-89344500D02*
X135520232Y-89445233D01*
X135516674Y-89531449D01*
X135512200Y-89598184D01*
X135507133Y-89640475D01*
X135502345Y-89653533D01*
X135490141Y-89639216D01*
X135465015Y-89599232D01*
X135429532Y-89538035D01*
X135386256Y-89460077D01*
X135337750Y-89369811D01*
X135324545Y-89344773D01*
X135162334Y-89036013D01*
X134988767Y-89035740D01*
X134815201Y-89035467D01*
X134815201Y-90186933D01*
X135119253Y-90186933D01*
X135123860Y-89869433D01*
X135126305Y-89758444D01*
X135130000Y-89668009D01*
X135134708Y-89601672D01*
X135140197Y-89562978D01*
X135144716Y-89554235D01*
X135157246Y-89569177D01*
X135183036Y-89609635D01*
X135219493Y-89671198D01*
X135264026Y-89749454D01*
X135314042Y-89839992D01*
X135330983Y-89871210D01*
X135501000Y-90185883D01*
X135666101Y-90186408D01*
X135831200Y-90186933D01*
X135831200Y-89035467D01*
X135527164Y-89035467D01*
X135522549Y-89344500D01*
G36*
X128729548Y-89035467D02*
G01*
X128568511Y-89035467D01*
X128563423Y-89443284D01*
X128558334Y-89851101D01*
X128503033Y-89900484D01*
X128438380Y-89939057D01*
X128367263Y-89950366D01*
X128299658Y-89933433D01*
X128280913Y-89922253D01*
X128254538Y-89900554D01*
X128234048Y-89874009D01*
X128218723Y-89838340D01*
X128207840Y-89789265D01*
X128200677Y-89722506D01*
X128196512Y-89633783D01*
X128194624Y-89518815D01*
X128194267Y-89408544D01*
X128194267Y-89035467D01*
X127872534Y-89035467D01*
X127872534Y-89438793D01*
X127873064Y-89579391D01*
X127874810Y-89690576D01*
X127878006Y-89776789D01*
X127882886Y-89842470D01*
X127889684Y-89892060D01*
X127898351Y-89929057D01*
X127940776Y-90027899D01*
X128003912Y-90103681D01*
X128090533Y-90158579D01*
X128203411Y-90194771D01*
X128247256Y-90203039D01*
X128325870Y-90214223D01*
X128387901Y-90217790D01*
X128449769Y-90213734D01*
X128522633Y-90202935D01*
X128637259Y-90174430D01*
X128726384Y-90129635D01*
X128796054Y-90064578D01*
X128843518Y-89992200D01*
X128854632Y-89969829D01*
X128863321Y-89945890D01*
X128869949Y-89915945D01*
X128874877Y-89875557D01*
X128878467Y-89820289D01*
X128881082Y-89745703D01*
X128883083Y-89647361D01*
X128884834Y-89520827D01*
X128885326Y-89479966D01*
X128890584Y-89035466D01*
X128729548Y-89035467D01*
G37*
X128729548Y-89035467D02*
X128568511Y-89035467D01*
X128563423Y-89443284D01*
X128558334Y-89851101D01*
X128503033Y-89900484D01*
X128438380Y-89939057D01*
X128367263Y-89950366D01*
X128299658Y-89933433D01*
X128280913Y-89922253D01*
X128254538Y-89900554D01*
X128234048Y-89874009D01*
X128218723Y-89838340D01*
X128207840Y-89789265D01*
X128200677Y-89722506D01*
X128196512Y-89633783D01*
X128194624Y-89518815D01*
X128194267Y-89408544D01*
X128194267Y-89035467D01*
X127872534Y-89035467D01*
X127872534Y-89438793D01*
X127873064Y-89579391D01*
X127874810Y-89690576D01*
X127878006Y-89776789D01*
X127882886Y-89842470D01*
X127889684Y-89892060D01*
X127898351Y-89929057D01*
X127940776Y-90027899D01*
X128003912Y-90103681D01*
X128090533Y-90158579D01*
X128203411Y-90194771D01*
X128247256Y-90203039D01*
X128325870Y-90214223D01*
X128387901Y-90217790D01*
X128449769Y-90213734D01*
X128522633Y-90202935D01*
X128637259Y-90174430D01*
X128726384Y-90129635D01*
X128796054Y-90064578D01*
X128843518Y-89992200D01*
X128854632Y-89969829D01*
X128863321Y-89945890D01*
X128869949Y-89915945D01*
X128874877Y-89875557D01*
X128878467Y-89820289D01*
X128881082Y-89745703D01*
X128883083Y-89647361D01*
X128884834Y-89520827D01*
X128885326Y-89479966D01*
X128890584Y-89035466D01*
X128729548Y-89035467D01*
G36*
X132190439Y-89395300D02*
G01*
X132189669Y-89536122D01*
X132187015Y-89647294D01*
X132181840Y-89733010D01*
X132173508Y-89797463D01*
X132161382Y-89844847D01*
X132144825Y-89879356D01*
X132123199Y-89905183D01*
X132111467Y-89915230D01*
X132056001Y-89941455D01*
X131989231Y-89949219D01*
X131925762Y-89938214D01*
X131891949Y-89919857D01*
X131867178Y-89897765D01*
X131847930Y-89873531D01*
X131833417Y-89842674D01*
X131822848Y-89800710D01*
X131815434Y-89743156D01*
X131810385Y-89665529D01*
X131806911Y-89563347D01*
X131804224Y-89432125D01*
X131804027Y-89420700D01*
X131797445Y-89035467D01*
X131494247Y-89035467D01*
X131499491Y-89488433D01*
X131501150Y-89624208D01*
X131502870Y-89730516D01*
X131505037Y-89811755D01*
X131508041Y-89872323D01*
X131512270Y-89916618D01*
X131518113Y-89949037D01*
X131525956Y-89973979D01*
X131536190Y-89995842D01*
X131545821Y-90013134D01*
X131611551Y-90095167D01*
X131699882Y-90156356D01*
X131775667Y-90184926D01*
X131861151Y-90201028D01*
X131959201Y-90210330D01*
X132055167Y-90212046D01*
X132134403Y-90205391D01*
X132139734Y-90204445D01*
X132253341Y-90174988D01*
X132340175Y-90132241D01*
X132406025Y-90072237D01*
X132456674Y-89991009D01*
X132459407Y-89985266D01*
X132473056Y-89955234D01*
X132483642Y-89927350D01*
X132491624Y-89896837D01*
X132497459Y-89858915D01*
X132501607Y-89808806D01*
X132504526Y-89741734D01*
X132506674Y-89652919D01*
X132508511Y-89537584D01*
X132509529Y-89463033D01*
X132515257Y-89035467D01*
X132190534Y-89035467D01*
X132190439Y-89395300D01*
G37*
X132190439Y-89395300D02*
X132189669Y-89536122D01*
X132187015Y-89647294D01*
X132181840Y-89733010D01*
X132173508Y-89797463D01*
X132161382Y-89844847D01*
X132144825Y-89879356D01*
X132123199Y-89905183D01*
X132111467Y-89915230D01*
X132056001Y-89941455D01*
X131989231Y-89949219D01*
X131925762Y-89938214D01*
X131891949Y-89919857D01*
X131867178Y-89897765D01*
X131847930Y-89873531D01*
X131833417Y-89842674D01*
X131822848Y-89800710D01*
X131815434Y-89743156D01*
X131810385Y-89665529D01*
X131806911Y-89563347D01*
X131804224Y-89432125D01*
X131804027Y-89420700D01*
X131797445Y-89035467D01*
X131494247Y-89035467D01*
X131499491Y-89488433D01*
X131501150Y-89624208D01*
X131502870Y-89730516D01*
X131505037Y-89811755D01*
X131508041Y-89872323D01*
X131512270Y-89916618D01*
X131518113Y-89949037D01*
X131525956Y-89973979D01*
X131536190Y-89995842D01*
X131545821Y-90013134D01*
X131611551Y-90095167D01*
X131699882Y-90156356D01*
X131775667Y-90184926D01*
X131861151Y-90201028D01*
X131959201Y-90210330D01*
X132055167Y-90212046D01*
X132134403Y-90205391D01*
X132139734Y-90204445D01*
X132253341Y-90174988D01*
X132340175Y-90132241D01*
X132406025Y-90072237D01*
X132456674Y-89991009D01*
X132459407Y-89985266D01*
X132473056Y-89955234D01*
X132483642Y-89927350D01*
X132491624Y-89896837D01*
X132497459Y-89858915D01*
X132501607Y-89808806D01*
X132504526Y-89741734D01*
X132506674Y-89652919D01*
X132508511Y-89537584D01*
X132509529Y-89463033D01*
X132515257Y-89035467D01*
X132190534Y-89035467D01*
X132190439Y-89395300D01*
G36*
X125451067Y-91406133D02*
G01*
X125874400Y-91406133D01*
X125874400Y-87833200D01*
X136644000Y-87833200D01*
X136644000Y-87409867D01*
X125451067Y-87409867D01*
X125451067Y-91406133D01*
G37*
X125451067Y-91406133D02*
X125874400Y-91406133D01*
X125874400Y-87833200D01*
X136644000Y-87833200D01*
X136644000Y-87409867D01*
X125451067Y-87409867D01*
X125451067Y-91406133D01*
G36*
X112871641Y-87411967D02*
G01*
X112892741Y-87460722D01*
X112914575Y-87518081D01*
X112937239Y-87584345D01*
X112960835Y-87659817D01*
X112985459Y-87744798D01*
X113008885Y-87830796D01*
X113015336Y-87855304D01*
X113022038Y-87881186D01*
X113029183Y-87909229D01*
X113036963Y-87940217D01*
X113045570Y-87974936D01*
X113055197Y-88014173D01*
X113066034Y-88058712D01*
X113078275Y-88109341D01*
X113092110Y-88166844D01*
X113107734Y-88232007D01*
X113125336Y-88305616D01*
X113141714Y-88374220D01*
X113165703Y-88473735D01*
X113187984Y-88563972D01*
X113208749Y-88645635D01*
X113228187Y-88719425D01*
X113246489Y-88786046D01*
X113263844Y-88846201D01*
X113280442Y-88900593D01*
X113296475Y-88949926D01*
X113301084Y-88963500D01*
X113309192Y-88987600D01*
X113315758Y-89008023D01*
X113320230Y-89022979D01*
X113322055Y-89030677D01*
X113322004Y-89031303D01*
X113318425Y-89028371D01*
X113310473Y-89019016D01*
X113299688Y-89005079D01*
X113296604Y-89000925D01*
X113271334Y-88965679D01*
X113246149Y-88928594D01*
X113220691Y-88889010D01*
X113194602Y-88846266D01*
X113167523Y-88799703D01*
X113139097Y-88748660D01*
X113108965Y-88692478D01*
X113076771Y-88630496D01*
X113042155Y-88562054D01*
X113004760Y-88486492D01*
X112964227Y-88403150D01*
X112920200Y-88311368D01*
X112902882Y-88274990D01*
X112879933Y-88226844D01*
X112855991Y-88176885D01*
X112831905Y-88126868D01*
X112808526Y-88078547D01*
X112786702Y-88033677D01*
X112767283Y-87994013D01*
X112751119Y-87961309D01*
X112747419Y-87953892D01*
X112731654Y-87922048D01*
X112717528Y-87892894D01*
X112705655Y-87867752D01*
X112696652Y-87847941D01*
X112691133Y-87834782D01*
X112689640Y-87829881D01*
X112691094Y-87821307D01*
X112695164Y-87804559D01*
X112701406Y-87781153D01*
X112709378Y-87752605D01*
X112718636Y-87720429D01*
X112728738Y-87686143D01*
X112739243Y-87651261D01*
X112749705Y-87617299D01*
X112759685Y-87585773D01*
X112768738Y-87558197D01*
X112770580Y-87552754D01*
X112784637Y-87513090D01*
X112799036Y-87475305D01*
X112813064Y-87441095D01*
X112826009Y-87412157D01*
X112837157Y-87390189D01*
X112842872Y-87380785D01*
X112851324Y-87368380D01*
X112871641Y-87411967D01*
G37*
X112871641Y-87411967D02*
X112892741Y-87460722D01*
X112914575Y-87518081D01*
X112937239Y-87584345D01*
X112960835Y-87659817D01*
X112985459Y-87744798D01*
X113008885Y-87830796D01*
X113015336Y-87855304D01*
X113022038Y-87881186D01*
X113029183Y-87909229D01*
X113036963Y-87940217D01*
X113045570Y-87974936D01*
X113055197Y-88014173D01*
X113066034Y-88058712D01*
X113078275Y-88109341D01*
X113092110Y-88166844D01*
X113107734Y-88232007D01*
X113125336Y-88305616D01*
X113141714Y-88374220D01*
X113165703Y-88473735D01*
X113187984Y-88563972D01*
X113208749Y-88645635D01*
X113228187Y-88719425D01*
X113246489Y-88786046D01*
X113263844Y-88846201D01*
X113280442Y-88900593D01*
X113296475Y-88949926D01*
X113301084Y-88963500D01*
X113309192Y-88987600D01*
X113315758Y-89008023D01*
X113320230Y-89022979D01*
X113322055Y-89030677D01*
X113322004Y-89031303D01*
X113318425Y-89028371D01*
X113310473Y-89019016D01*
X113299688Y-89005079D01*
X113296604Y-89000925D01*
X113271334Y-88965679D01*
X113246149Y-88928594D01*
X113220691Y-88889010D01*
X113194602Y-88846266D01*
X113167523Y-88799703D01*
X113139097Y-88748660D01*
X113108965Y-88692478D01*
X113076771Y-88630496D01*
X113042155Y-88562054D01*
X113004760Y-88486492D01*
X112964227Y-88403150D01*
X112920200Y-88311368D01*
X112902882Y-88274990D01*
X112879933Y-88226844D01*
X112855991Y-88176885D01*
X112831905Y-88126868D01*
X112808526Y-88078547D01*
X112786702Y-88033677D01*
X112767283Y-87994013D01*
X112751119Y-87961309D01*
X112747419Y-87953892D01*
X112731654Y-87922048D01*
X112717528Y-87892894D01*
X112705655Y-87867752D01*
X112696652Y-87847941D01*
X112691133Y-87834782D01*
X112689640Y-87829881D01*
X112691094Y-87821307D01*
X112695164Y-87804559D01*
X112701406Y-87781153D01*
X112709378Y-87752605D01*
X112718636Y-87720429D01*
X112728738Y-87686143D01*
X112739243Y-87651261D01*
X112749705Y-87617299D01*
X112759685Y-87585773D01*
X112768738Y-87558197D01*
X112770580Y-87552754D01*
X112784637Y-87513090D01*
X112799036Y-87475305D01*
X112813064Y-87441095D01*
X112826009Y-87412157D01*
X112837157Y-87390189D01*
X112842872Y-87380785D01*
X112851324Y-87368380D01*
X112871641Y-87411967D01*
G36*
X114318247Y-87380205D02*
G01*
X114328246Y-87397479D01*
X114340385Y-87423431D01*
X114354249Y-87456907D01*
X114369420Y-87496753D01*
X114385482Y-87541815D01*
X114402019Y-87590937D01*
X114418614Y-87642966D01*
X114434850Y-87696747D01*
X114444372Y-87729817D01*
X114473281Y-87832175D01*
X114422650Y-87933340D01*
X114409219Y-87960427D01*
X114392241Y-87995069D01*
X114372505Y-88035632D01*
X114350801Y-88080483D01*
X114327919Y-88127987D01*
X114304648Y-88176513D01*
X114281779Y-88224426D01*
X114274408Y-88239922D01*
X114230648Y-88331652D01*
X114190609Y-88414775D01*
X114153926Y-88489989D01*
X114120234Y-88557987D01*
X114089165Y-88619466D01*
X114060356Y-88675122D01*
X114033439Y-88725649D01*
X114008049Y-88771744D01*
X113983820Y-88814102D01*
X113960387Y-88853419D01*
X113937383Y-88890389D01*
X113914444Y-88925710D01*
X113911272Y-88930480D01*
X113887681Y-88965757D01*
X113869299Y-88992845D01*
X113855745Y-89012040D01*
X113846643Y-89023640D01*
X113841613Y-89027940D01*
X113840276Y-89025239D01*
X113842253Y-89015831D01*
X113847167Y-89000015D01*
X113854639Y-88978087D01*
X113856175Y-88973660D01*
X113870169Y-88932043D01*
X113884631Y-88886283D01*
X113899731Y-88835745D01*
X113915640Y-88779792D01*
X113932527Y-88717786D01*
X113950562Y-88649092D01*
X113969913Y-88573072D01*
X113990752Y-88489091D01*
X114013247Y-88396511D01*
X114037569Y-88294696D01*
X114040994Y-88280240D01*
X114064092Y-88183115D01*
X114085243Y-88095162D01*
X114104646Y-88015624D01*
X114122499Y-87943741D01*
X114139001Y-87878756D01*
X114154352Y-87819910D01*
X114168749Y-87766445D01*
X114182392Y-87717602D01*
X114195479Y-87672623D01*
X114208209Y-87630749D01*
X114220781Y-87591223D01*
X114224719Y-87579200D01*
X114237199Y-87542676D01*
X114250529Y-87505943D01*
X114264012Y-87470742D01*
X114276948Y-87438815D01*
X114288639Y-87411905D01*
X114298386Y-87391751D01*
X114303501Y-87382866D01*
X114309554Y-87374660D01*
X114313696Y-87374497D01*
X114318247Y-87380205D01*
G37*
X114318247Y-87380205D02*
X114328246Y-87397479D01*
X114340385Y-87423431D01*
X114354249Y-87456907D01*
X114369420Y-87496753D01*
X114385482Y-87541815D01*
X114402019Y-87590937D01*
X114418614Y-87642966D01*
X114434850Y-87696747D01*
X114444372Y-87729817D01*
X114473281Y-87832175D01*
X114422650Y-87933340D01*
X114409219Y-87960427D01*
X114392241Y-87995069D01*
X114372505Y-88035632D01*
X114350801Y-88080483D01*
X114327919Y-88127987D01*
X114304648Y-88176513D01*
X114281779Y-88224426D01*
X114274408Y-88239922D01*
X114230648Y-88331652D01*
X114190609Y-88414775D01*
X114153926Y-88489989D01*
X114120234Y-88557987D01*
X114089165Y-88619466D01*
X114060356Y-88675122D01*
X114033439Y-88725649D01*
X114008049Y-88771744D01*
X113983820Y-88814102D01*
X113960387Y-88853419D01*
X113937383Y-88890389D01*
X113914444Y-88925710D01*
X113911272Y-88930480D01*
X113887681Y-88965757D01*
X113869299Y-88992845D01*
X113855745Y-89012040D01*
X113846643Y-89023640D01*
X113841613Y-89027940D01*
X113840276Y-89025239D01*
X113842253Y-89015831D01*
X113847167Y-89000015D01*
X113854639Y-88978087D01*
X113856175Y-88973660D01*
X113870169Y-88932043D01*
X113884631Y-88886283D01*
X113899731Y-88835745D01*
X113915640Y-88779792D01*
X113932527Y-88717786D01*
X113950562Y-88649092D01*
X113969913Y-88573072D01*
X113990752Y-88489091D01*
X114013247Y-88396511D01*
X114037569Y-88294696D01*
X114040994Y-88280240D01*
X114064092Y-88183115D01*
X114085243Y-88095162D01*
X114104646Y-88015624D01*
X114122499Y-87943741D01*
X114139001Y-87878756D01*
X114154352Y-87819910D01*
X114168749Y-87766445D01*
X114182392Y-87717602D01*
X114195479Y-87672623D01*
X114208209Y-87630749D01*
X114220781Y-87591223D01*
X114224719Y-87579200D01*
X114237199Y-87542676D01*
X114250529Y-87505943D01*
X114264012Y-87470742D01*
X114276948Y-87438815D01*
X114288639Y-87411905D01*
X114298386Y-87391751D01*
X114303501Y-87382866D01*
X114309554Y-87374660D01*
X114313696Y-87374497D01*
X114318247Y-87380205D01*
G36*
X115065221Y-87292515D02*
G01*
X115102336Y-87303631D01*
X115141589Y-87323939D01*
X115182657Y-87353148D01*
X115225214Y-87390969D01*
X115268938Y-87437112D01*
X115313503Y-87491287D01*
X115358585Y-87553205D01*
X115403861Y-87622576D01*
X115406443Y-87626752D01*
X115447833Y-87693888D01*
X115433082Y-87747034D01*
X115424201Y-87779562D01*
X115414478Y-87816225D01*
X115403748Y-87857695D01*
X115391843Y-87904642D01*
X115378597Y-87957738D01*
X115363842Y-88017655D01*
X115347413Y-88085062D01*
X115329142Y-88160632D01*
X115308863Y-88245036D01*
X115295849Y-88299418D01*
X115269908Y-88407058D01*
X115245783Y-88505251D01*
X115223321Y-88594518D01*
X115202374Y-88675381D01*
X115182790Y-88748359D01*
X115164418Y-88813976D01*
X115147109Y-88872750D01*
X115130711Y-88925205D01*
X115115074Y-88971860D01*
X115100048Y-89013237D01*
X115085482Y-89049857D01*
X115071225Y-89082242D01*
X115067327Y-89090500D01*
X115042968Y-89141300D01*
X115017204Y-89087960D01*
X115006108Y-89064142D01*
X114995104Y-89038688D01*
X114984051Y-89011083D01*
X114972806Y-88980818D01*
X114961225Y-88947379D01*
X114949166Y-88910255D01*
X114936485Y-88868934D01*
X114923041Y-88822904D01*
X114908690Y-88771654D01*
X114893289Y-88714670D01*
X114876696Y-88651442D01*
X114858767Y-88581458D01*
X114839360Y-88504205D01*
X114818331Y-88419173D01*
X114795539Y-88325848D01*
X114770840Y-88223719D01*
X114744090Y-88112274D01*
X114739309Y-88092280D01*
X114727896Y-88044898D01*
X114715935Y-87995882D01*
X114703933Y-87947264D01*
X114692396Y-87901080D01*
X114681832Y-87859361D01*
X114672747Y-87824142D01*
X114667757Y-87805260D01*
X114659552Y-87774293D01*
X114652329Y-87746377D01*
X114646486Y-87723101D01*
X114642421Y-87706056D01*
X114640531Y-87696833D01*
X114640445Y-87695948D01*
X114643110Y-87689024D01*
X114650554Y-87675169D01*
X114661851Y-87655858D01*
X114676077Y-87632566D01*
X114692306Y-87606770D01*
X114709614Y-87579945D01*
X114727074Y-87553567D01*
X114743762Y-87529111D01*
X114755041Y-87513160D01*
X114788347Y-87469629D01*
X114823741Y-87428119D01*
X114858968Y-87391156D01*
X114886740Y-87365507D01*
X114914380Y-87344271D01*
X114944806Y-87324946D01*
X114975576Y-87308802D01*
X115004245Y-87297106D01*
X115028369Y-87291126D01*
X115030568Y-87290879D01*
X115065221Y-87292515D01*
G37*
X115065221Y-87292515D02*
X115102336Y-87303631D01*
X115141589Y-87323939D01*
X115182657Y-87353148D01*
X115225214Y-87390969D01*
X115268938Y-87437112D01*
X115313503Y-87491287D01*
X115358585Y-87553205D01*
X115403861Y-87622576D01*
X115406443Y-87626752D01*
X115447833Y-87693888D01*
X115433082Y-87747034D01*
X115424201Y-87779562D01*
X115414478Y-87816225D01*
X115403748Y-87857695D01*
X115391843Y-87904642D01*
X115378597Y-87957738D01*
X115363842Y-88017655D01*
X115347413Y-88085062D01*
X115329142Y-88160632D01*
X115308863Y-88245036D01*
X115295849Y-88299418D01*
X115269908Y-88407058D01*
X115245783Y-88505251D01*
X115223321Y-88594518D01*
X115202374Y-88675381D01*
X115182790Y-88748359D01*
X115164418Y-88813976D01*
X115147109Y-88872750D01*
X115130711Y-88925205D01*
X115115074Y-88971860D01*
X115100048Y-89013237D01*
X115085482Y-89049857D01*
X115071225Y-89082242D01*
X115067327Y-89090500D01*
X115042968Y-89141300D01*
X115017204Y-89087960D01*
X115006108Y-89064142D01*
X114995104Y-89038688D01*
X114984051Y-89011083D01*
X114972806Y-88980818D01*
X114961225Y-88947379D01*
X114949166Y-88910255D01*
X114936485Y-88868934D01*
X114923041Y-88822904D01*
X114908690Y-88771654D01*
X114893289Y-88714670D01*
X114876696Y-88651442D01*
X114858767Y-88581458D01*
X114839360Y-88504205D01*
X114818331Y-88419173D01*
X114795539Y-88325848D01*
X114770840Y-88223719D01*
X114744090Y-88112274D01*
X114739309Y-88092280D01*
X114727896Y-88044898D01*
X114715935Y-87995882D01*
X114703933Y-87947264D01*
X114692396Y-87901080D01*
X114681832Y-87859361D01*
X114672747Y-87824142D01*
X114667757Y-87805260D01*
X114659552Y-87774293D01*
X114652329Y-87746377D01*
X114646486Y-87723101D01*
X114642421Y-87706056D01*
X114640531Y-87696833D01*
X114640445Y-87695948D01*
X114643110Y-87689024D01*
X114650554Y-87675169D01*
X114661851Y-87655858D01*
X114676077Y-87632566D01*
X114692306Y-87606770D01*
X114709614Y-87579945D01*
X114727074Y-87553567D01*
X114743762Y-87529111D01*
X114755041Y-87513160D01*
X114788347Y-87469629D01*
X114823741Y-87428119D01*
X114858968Y-87391156D01*
X114886740Y-87365507D01*
X114914380Y-87344271D01*
X114944806Y-87324946D01*
X114975576Y-87308802D01*
X115004245Y-87297106D01*
X115028369Y-87291126D01*
X115030568Y-87290879D01*
X115065221Y-87292515D01*
G36*
X113773187Y-86232193D02*
G01*
X113912471Y-86249916D01*
X114050774Y-86277203D01*
X114187636Y-86314081D01*
X114322594Y-86360577D01*
X114455188Y-86416719D01*
X114520980Y-86448684D01*
X114637363Y-86512126D01*
X114746746Y-86581011D01*
X114850636Y-86656451D01*
X114950541Y-86739557D01*
X115047969Y-86831442D01*
X115069652Y-86853387D01*
X115160764Y-86953151D01*
X115245653Y-87059085D01*
X115323422Y-87169876D01*
X115393170Y-87284211D01*
X115453999Y-87400778D01*
X115474111Y-87444312D01*
X115505690Y-87515164D01*
X115494232Y-87548452D01*
X115488127Y-87566272D01*
X115483196Y-87580818D01*
X115480535Y-87588849D01*
X115476951Y-87588094D01*
X115468973Y-87579827D01*
X115457575Y-87565160D01*
X115448306Y-87552009D01*
X115408101Y-87496078D01*
X115367034Y-87444604D01*
X115326130Y-87398704D01*
X115286411Y-87359495D01*
X115248903Y-87328095D01*
X115232180Y-87316252D01*
X115179056Y-87286526D01*
X115125011Y-87266810D01*
X115070433Y-87257042D01*
X115015708Y-87257156D01*
X114961222Y-87267089D01*
X114907363Y-87286775D01*
X114854516Y-87316150D01*
X114803069Y-87355151D01*
X114761979Y-87394499D01*
X114730012Y-87430328D01*
X114695987Y-87472267D01*
X114662285Y-87517287D01*
X114639059Y-87550654D01*
X114608484Y-87596125D01*
X114584672Y-87527972D01*
X114560446Y-87462605D01*
X114536682Y-87406816D01*
X114513024Y-87360053D01*
X114489117Y-87321768D01*
X114464606Y-87291410D01*
X114439133Y-87268429D01*
X114412345Y-87252276D01*
X114404140Y-87248735D01*
X114389387Y-87243454D01*
X114375122Y-87239940D01*
X114358646Y-87237842D01*
X114337262Y-87236809D01*
X114310160Y-87236494D01*
X114283060Y-87236566D01*
X114263507Y-87237241D01*
X114248886Y-87238917D01*
X114236587Y-87241994D01*
X114223995Y-87246868D01*
X114214747Y-87251036D01*
X114184736Y-87268799D01*
X114157255Y-87293580D01*
X114131443Y-87326350D01*
X114106437Y-87368078D01*
X114100524Y-87379408D01*
X114086296Y-87408398D01*
X114072408Y-87439034D01*
X114058686Y-87471913D01*
X114044954Y-87507629D01*
X114031038Y-87546778D01*
X114016764Y-87589958D01*
X114001956Y-87637762D01*
X113986441Y-87690787D01*
X113970042Y-87749629D01*
X113952586Y-87814884D01*
X113933898Y-87887148D01*
X113913803Y-87967016D01*
X113892127Y-88055084D01*
X113868694Y-88151948D01*
X113845336Y-88249760D01*
X113819137Y-88359271D01*
X113794801Y-88459346D01*
X113772177Y-88550507D01*
X113751114Y-88633277D01*
X113731462Y-88708179D01*
X113713070Y-88775733D01*
X113695786Y-88836464D01*
X113679460Y-88890892D01*
X113663942Y-88939541D01*
X113649080Y-88982934D01*
X113634724Y-89021591D01*
X113620722Y-89056036D01*
X113606925Y-89086791D01*
X113599000Y-89103059D01*
X113579926Y-89141018D01*
X113564123Y-89109714D01*
X113549860Y-89079983D01*
X113535577Y-89047111D01*
X113521116Y-89010554D01*
X113506320Y-88969770D01*
X113491032Y-88924216D01*
X113475092Y-88873351D01*
X113458344Y-88816631D01*
X113440630Y-88753514D01*
X113421792Y-88683458D01*
X113401672Y-88605919D01*
X113380113Y-88520357D01*
X113356957Y-88426228D01*
X113332046Y-88322989D01*
X113317015Y-88259920D01*
X113290910Y-88150680D01*
X113266669Y-88050842D01*
X113244131Y-87959850D01*
X113223135Y-87877148D01*
X113203521Y-87802182D01*
X113185128Y-87734396D01*
X113167796Y-87673236D01*
X113151363Y-87618145D01*
X113135669Y-87568569D01*
X113120553Y-87523952D01*
X113105854Y-87483740D01*
X113091412Y-87447376D01*
X113077067Y-87414307D01*
X113064563Y-87387834D01*
X113038902Y-87340897D01*
X113012259Y-87303448D01*
X112983610Y-87274815D01*
X112951936Y-87254328D01*
X112916213Y-87241314D01*
X112875421Y-87235102D01*
X112831831Y-87234850D01*
X112792613Y-87239068D01*
X112758621Y-87248240D01*
X112728750Y-87263235D01*
X112701896Y-87284926D01*
X112676954Y-87314183D01*
X112652819Y-87351878D01*
X112631227Y-87393013D01*
X112616934Y-87423769D01*
X112602130Y-87458114D01*
X112588565Y-87491855D01*
X112577991Y-87520780D01*
X112569935Y-87544553D01*
X112562922Y-87565181D01*
X112557667Y-87580559D01*
X112554887Y-87588584D01*
X112554792Y-87588849D01*
X112550998Y-87588243D01*
X112542705Y-87579681D01*
X112530603Y-87563944D01*
X112521840Y-87551443D01*
X112471105Y-87481251D01*
X112421325Y-87420944D01*
X112372195Y-87370327D01*
X112323407Y-87329206D01*
X112274657Y-87297383D01*
X112225638Y-87274665D01*
X112176043Y-87260855D01*
X112125566Y-87255757D01*
X112073901Y-87259177D01*
X112065980Y-87260421D01*
X112016057Y-87272963D01*
X111967212Y-87293733D01*
X111919075Y-87323031D01*
X111871274Y-87361160D01*
X111823438Y-87408422D01*
X111775196Y-87465119D01*
X111726176Y-87531552D01*
X111718086Y-87543325D01*
X111681988Y-87596350D01*
X111670194Y-87561385D01*
X111664377Y-87543282D01*
X111660164Y-87528531D01*
X111658408Y-87520140D01*
X111658399Y-87519859D01*
X111660659Y-87511376D01*
X111666971Y-87495366D01*
X111676634Y-87473280D01*
X111688946Y-87446573D01*
X111703208Y-87416695D01*
X111718718Y-87385100D01*
X111734775Y-87353239D01*
X111750679Y-87322567D01*
X111765727Y-87294533D01*
X111776052Y-87276078D01*
X111835851Y-87177011D01*
X111897734Y-87085620D01*
X111963594Y-86999422D01*
X112035320Y-86915935D01*
X112110418Y-86837071D01*
X112182525Y-86767423D01*
X112253421Y-86704871D01*
X112325845Y-86647153D01*
X112402540Y-86592005D01*
X112428020Y-86574805D01*
X112551711Y-86498428D01*
X112679039Y-86431336D01*
X112809542Y-86373557D01*
X112942758Y-86325118D01*
X113078227Y-86286047D01*
X113215486Y-86256373D01*
X113354073Y-86236122D01*
X113493526Y-86225324D01*
X113633385Y-86224005D01*
X113773187Y-86232193D01*
G37*
X113773187Y-86232193D02*
X113912471Y-86249916D01*
X114050774Y-86277203D01*
X114187636Y-86314081D01*
X114322594Y-86360577D01*
X114455188Y-86416719D01*
X114520980Y-86448684D01*
X114637363Y-86512126D01*
X114746746Y-86581011D01*
X114850636Y-86656451D01*
X114950541Y-86739557D01*
X115047969Y-86831442D01*
X115069652Y-86853387D01*
X115160764Y-86953151D01*
X115245653Y-87059085D01*
X115323422Y-87169876D01*
X115393170Y-87284211D01*
X115453999Y-87400778D01*
X115474111Y-87444312D01*
X115505690Y-87515164D01*
X115494232Y-87548452D01*
X115488127Y-87566272D01*
X115483196Y-87580818D01*
X115480535Y-87588849D01*
X115476951Y-87588094D01*
X115468973Y-87579827D01*
X115457575Y-87565160D01*
X115448306Y-87552009D01*
X115408101Y-87496078D01*
X115367034Y-87444604D01*
X115326130Y-87398704D01*
X115286411Y-87359495D01*
X115248903Y-87328095D01*
X115232180Y-87316252D01*
X115179056Y-87286526D01*
X115125011Y-87266810D01*
X115070433Y-87257042D01*
X115015708Y-87257156D01*
X114961222Y-87267089D01*
X114907363Y-87286775D01*
X114854516Y-87316150D01*
X114803069Y-87355151D01*
X114761979Y-87394499D01*
X114730012Y-87430328D01*
X114695987Y-87472267D01*
X114662285Y-87517287D01*
X114639059Y-87550654D01*
X114608484Y-87596125D01*
X114584672Y-87527972D01*
X114560446Y-87462605D01*
X114536682Y-87406816D01*
X114513024Y-87360053D01*
X114489117Y-87321768D01*
X114464606Y-87291410D01*
X114439133Y-87268429D01*
X114412345Y-87252276D01*
X114404140Y-87248735D01*
X114389387Y-87243454D01*
X114375122Y-87239940D01*
X114358646Y-87237842D01*
X114337262Y-87236809D01*
X114310160Y-87236494D01*
X114283060Y-87236566D01*
X114263507Y-87237241D01*
X114248886Y-87238917D01*
X114236587Y-87241994D01*
X114223995Y-87246868D01*
X114214747Y-87251036D01*
X114184736Y-87268799D01*
X114157255Y-87293580D01*
X114131443Y-87326350D01*
X114106437Y-87368078D01*
X114100524Y-87379408D01*
X114086296Y-87408398D01*
X114072408Y-87439034D01*
X114058686Y-87471913D01*
X114044954Y-87507629D01*
X114031038Y-87546778D01*
X114016764Y-87589958D01*
X114001956Y-87637762D01*
X113986441Y-87690787D01*
X113970042Y-87749629D01*
X113952586Y-87814884D01*
X113933898Y-87887148D01*
X113913803Y-87967016D01*
X113892127Y-88055084D01*
X113868694Y-88151948D01*
X113845336Y-88249760D01*
X113819137Y-88359271D01*
X113794801Y-88459346D01*
X113772177Y-88550507D01*
X113751114Y-88633277D01*
X113731462Y-88708179D01*
X113713070Y-88775733D01*
X113695786Y-88836464D01*
X113679460Y-88890892D01*
X113663942Y-88939541D01*
X113649080Y-88982934D01*
X113634724Y-89021591D01*
X113620722Y-89056036D01*
X113606925Y-89086791D01*
X113599000Y-89103059D01*
X113579926Y-89141018D01*
X113564123Y-89109714D01*
X113549860Y-89079983D01*
X113535577Y-89047111D01*
X113521116Y-89010554D01*
X113506320Y-88969770D01*
X113491032Y-88924216D01*
X113475092Y-88873351D01*
X113458344Y-88816631D01*
X113440630Y-88753514D01*
X113421792Y-88683458D01*
X113401672Y-88605919D01*
X113380113Y-88520357D01*
X113356957Y-88426228D01*
X113332046Y-88322989D01*
X113317015Y-88259920D01*
X113290910Y-88150680D01*
X113266669Y-88050842D01*
X113244131Y-87959850D01*
X113223135Y-87877148D01*
X113203521Y-87802182D01*
X113185128Y-87734396D01*
X113167796Y-87673236D01*
X113151363Y-87618145D01*
X113135669Y-87568569D01*
X113120553Y-87523952D01*
X113105854Y-87483740D01*
X113091412Y-87447376D01*
X113077067Y-87414307D01*
X113064563Y-87387834D01*
X113038902Y-87340897D01*
X113012259Y-87303448D01*
X112983610Y-87274815D01*
X112951936Y-87254328D01*
X112916213Y-87241314D01*
X112875421Y-87235102D01*
X112831831Y-87234850D01*
X112792613Y-87239068D01*
X112758621Y-87248240D01*
X112728750Y-87263235D01*
X112701896Y-87284926D01*
X112676954Y-87314183D01*
X112652819Y-87351878D01*
X112631227Y-87393013D01*
X112616934Y-87423769D01*
X112602130Y-87458114D01*
X112588565Y-87491855D01*
X112577991Y-87520780D01*
X112569935Y-87544553D01*
X112562922Y-87565181D01*
X112557667Y-87580559D01*
X112554887Y-87588584D01*
X112554792Y-87588849D01*
X112550998Y-87588243D01*
X112542705Y-87579681D01*
X112530603Y-87563944D01*
X112521840Y-87551443D01*
X112471105Y-87481251D01*
X112421325Y-87420944D01*
X112372195Y-87370327D01*
X112323407Y-87329206D01*
X112274657Y-87297383D01*
X112225638Y-87274665D01*
X112176043Y-87260855D01*
X112125566Y-87255757D01*
X112073901Y-87259177D01*
X112065980Y-87260421D01*
X112016057Y-87272963D01*
X111967212Y-87293733D01*
X111919075Y-87323031D01*
X111871274Y-87361160D01*
X111823438Y-87408422D01*
X111775196Y-87465119D01*
X111726176Y-87531552D01*
X111718086Y-87543325D01*
X111681988Y-87596350D01*
X111670194Y-87561385D01*
X111664377Y-87543282D01*
X111660164Y-87528531D01*
X111658408Y-87520140D01*
X111658399Y-87519859D01*
X111660659Y-87511376D01*
X111666971Y-87495366D01*
X111676634Y-87473280D01*
X111688946Y-87446573D01*
X111703208Y-87416695D01*
X111718718Y-87385100D01*
X111734775Y-87353239D01*
X111750679Y-87322567D01*
X111765727Y-87294533D01*
X111776052Y-87276078D01*
X111835851Y-87177011D01*
X111897734Y-87085620D01*
X111963594Y-86999422D01*
X112035320Y-86915935D01*
X112110418Y-86837071D01*
X112182525Y-86767423D01*
X112253421Y-86704871D01*
X112325845Y-86647153D01*
X112402540Y-86592005D01*
X112428020Y-86574805D01*
X112551711Y-86498428D01*
X112679039Y-86431336D01*
X112809542Y-86373557D01*
X112942758Y-86325118D01*
X113078227Y-86286047D01*
X113215486Y-86256373D01*
X113354073Y-86236122D01*
X113493526Y-86225324D01*
X113633385Y-86224005D01*
X113773187Y-86232193D01*
G36*
X112150837Y-87294491D02*
G01*
X112189031Y-87308841D01*
X112229244Y-87332384D01*
X112271153Y-87364814D01*
X112314435Y-87405825D01*
X112358769Y-87455110D01*
X112403831Y-87512365D01*
X112449300Y-87577282D01*
X112494853Y-87649557D01*
X112495743Y-87651043D01*
X112522022Y-87694947D01*
X112494084Y-87798363D01*
X112487207Y-87824428D01*
X112478366Y-87858898D01*
X112467929Y-87900287D01*
X112456264Y-87947112D01*
X112443738Y-87997888D01*
X112430720Y-88051132D01*
X112417578Y-88105357D01*
X112404862Y-88158320D01*
X112378018Y-88270206D01*
X112353175Y-88372681D01*
X112330186Y-88466264D01*
X112308903Y-88551472D01*
X112289178Y-88628825D01*
X112270863Y-88698841D01*
X112253811Y-88762039D01*
X112237872Y-88818938D01*
X112222900Y-88870055D01*
X112208747Y-88915911D01*
X112195264Y-88957023D01*
X112182304Y-88993910D01*
X112169719Y-89027090D01*
X112157361Y-89057083D01*
X112145081Y-89084407D01*
X112134758Y-89105600D01*
X112116866Y-89141021D01*
X112099055Y-89105600D01*
X112084935Y-89075909D01*
X112070656Y-89042530D01*
X112056066Y-89004940D01*
X112041013Y-88962619D01*
X112025345Y-88915043D01*
X112008910Y-88861690D01*
X111991557Y-88802040D01*
X111973134Y-88735568D01*
X111953489Y-88661754D01*
X111932469Y-88580074D01*
X111909925Y-88490008D01*
X111885702Y-88391033D01*
X111859651Y-88282626D01*
X111859082Y-88280240D01*
X111845861Y-88225045D01*
X111831919Y-88167312D01*
X111817714Y-88108915D01*
X111803708Y-88051730D01*
X111790362Y-87997632D01*
X111778134Y-87948497D01*
X111767486Y-87906200D01*
X111761820Y-87884000D01*
X111751931Y-87845515D01*
X111742640Y-87809321D01*
X111734311Y-87776839D01*
X111727309Y-87749489D01*
X111721996Y-87728691D01*
X111718737Y-87715865D01*
X111718194Y-87713704D01*
X111716231Y-87704311D01*
X111716193Y-87696090D01*
X111718842Y-87686861D01*
X111724943Y-87674446D01*
X111735257Y-87656663D01*
X111742206Y-87645124D01*
X111791378Y-87567950D01*
X111840637Y-87498822D01*
X111889460Y-87438439D01*
X111931847Y-87392887D01*
X111964074Y-87363777D01*
X111998262Y-87338159D01*
X112032703Y-87316997D01*
X112065690Y-87301254D01*
X112095514Y-87291893D01*
X112114983Y-87289640D01*
X112150837Y-87294491D01*
G37*
X112150837Y-87294491D02*
X112189031Y-87308841D01*
X112229244Y-87332384D01*
X112271153Y-87364814D01*
X112314435Y-87405825D01*
X112358769Y-87455110D01*
X112403831Y-87512365D01*
X112449300Y-87577282D01*
X112494853Y-87649557D01*
X112495743Y-87651043D01*
X112522022Y-87694947D01*
X112494084Y-87798363D01*
X112487207Y-87824428D01*
X112478366Y-87858898D01*
X112467929Y-87900287D01*
X112456264Y-87947112D01*
X112443738Y-87997888D01*
X112430720Y-88051132D01*
X112417578Y-88105357D01*
X112404862Y-88158320D01*
X112378018Y-88270206D01*
X112353175Y-88372681D01*
X112330186Y-88466264D01*
X112308903Y-88551472D01*
X112289178Y-88628825D01*
X112270863Y-88698841D01*
X112253811Y-88762039D01*
X112237872Y-88818938D01*
X112222900Y-88870055D01*
X112208747Y-88915911D01*
X112195264Y-88957023D01*
X112182304Y-88993910D01*
X112169719Y-89027090D01*
X112157361Y-89057083D01*
X112145081Y-89084407D01*
X112134758Y-89105600D01*
X112116866Y-89141021D01*
X112099055Y-89105600D01*
X112084935Y-89075909D01*
X112070656Y-89042530D01*
X112056066Y-89004940D01*
X112041013Y-88962619D01*
X112025345Y-88915043D01*
X112008910Y-88861690D01*
X111991557Y-88802040D01*
X111973134Y-88735568D01*
X111953489Y-88661754D01*
X111932469Y-88580074D01*
X111909925Y-88490008D01*
X111885702Y-88391033D01*
X111859651Y-88282626D01*
X111859082Y-88280240D01*
X111845861Y-88225045D01*
X111831919Y-88167312D01*
X111817714Y-88108915D01*
X111803708Y-88051730D01*
X111790362Y-87997632D01*
X111778134Y-87948497D01*
X111767486Y-87906200D01*
X111761820Y-87884000D01*
X111751931Y-87845515D01*
X111742640Y-87809321D01*
X111734311Y-87776839D01*
X111727309Y-87749489D01*
X111721996Y-87728691D01*
X111718737Y-87715865D01*
X111718194Y-87713704D01*
X111716231Y-87704311D01*
X111716193Y-87696090D01*
X111718842Y-87686861D01*
X111724943Y-87674446D01*
X111735257Y-87656663D01*
X111742206Y-87645124D01*
X111791378Y-87567950D01*
X111840637Y-87498822D01*
X111889460Y-87438439D01*
X111931847Y-87392887D01*
X111964074Y-87363777D01*
X111998262Y-87338159D01*
X112032703Y-87316997D01*
X112065690Y-87301254D01*
X112095514Y-87291893D01*
X112114983Y-87289640D01*
X112150837Y-87294491D01*
G36*
X112662298Y-87959572D02*
G01*
X112668913Y-87972278D01*
X112678972Y-87992338D01*
X112692027Y-88018836D01*
X112707629Y-88050857D01*
X112725328Y-88087484D01*
X112744676Y-88127802D01*
X112761054Y-88162130D01*
X112797043Y-88237450D01*
X112832727Y-88311557D01*
X112867687Y-88383604D01*
X112901502Y-88452747D01*
X112933752Y-88518140D01*
X112964019Y-88578938D01*
X112991883Y-88634296D01*
X113016923Y-88683367D01*
X113038720Y-88725308D01*
X113056855Y-88759272D01*
X113063934Y-88772134D01*
X113117010Y-88863333D01*
X113169191Y-88944991D01*
X113220401Y-89017011D01*
X113270563Y-89079294D01*
X113319600Y-89131739D01*
X113367437Y-89174248D01*
X113386477Y-89188633D01*
X113407045Y-89203717D01*
X113428696Y-89220151D01*
X113446265Y-89233995D01*
X113471540Y-89251315D01*
X113498929Y-89263148D01*
X113530720Y-89270158D01*
X113569202Y-89273009D01*
X113581180Y-89273152D01*
X113622199Y-89271251D01*
X113656088Y-89264979D01*
X113685175Y-89253666D01*
X113711790Y-89236643D01*
X113713781Y-89235094D01*
X113729877Y-89222711D01*
X113750431Y-89207292D01*
X113771624Y-89191697D01*
X113776760Y-89187972D01*
X113806297Y-89164312D01*
X113839068Y-89134121D01*
X113873000Y-89099534D01*
X113906024Y-89062686D01*
X113936070Y-89025711D01*
X113943019Y-89016502D01*
X113967728Y-88982340D01*
X113992283Y-88946576D01*
X114017030Y-88908573D01*
X114042314Y-88867696D01*
X114068480Y-88823306D01*
X114095873Y-88774768D01*
X114124838Y-88721444D01*
X114155721Y-88662697D01*
X114188865Y-88597892D01*
X114224618Y-88526391D01*
X114263322Y-88447557D01*
X114305324Y-88360754D01*
X114350969Y-88265345D01*
X114357178Y-88252300D01*
X114385875Y-88192004D01*
X114410547Y-88140280D01*
X114431504Y-88096510D01*
X114449059Y-88060080D01*
X114463524Y-88030373D01*
X114475212Y-88006773D01*
X114484434Y-87988664D01*
X114491504Y-87975430D01*
X114496733Y-87966456D01*
X114500434Y-87961125D01*
X114502919Y-87958822D01*
X114504500Y-87958930D01*
X114505271Y-87960200D01*
X114507010Y-87966548D01*
X114510843Y-87981785D01*
X114516530Y-88004911D01*
X114523828Y-88034927D01*
X114532494Y-88070835D01*
X114542288Y-88111634D01*
X114552967Y-88156326D01*
X114564289Y-88203912D01*
X114564320Y-88204040D01*
X114589702Y-88310465D01*
X114613107Y-88407551D01*
X114634701Y-88495889D01*
X114654648Y-88576072D01*
X114673113Y-88648690D01*
X114690259Y-88714337D01*
X114706252Y-88773604D01*
X114721257Y-88827084D01*
X114735437Y-88875368D01*
X114748957Y-88919049D01*
X114761982Y-88958718D01*
X114774677Y-88994967D01*
X114787205Y-89028390D01*
X114799732Y-89059577D01*
X114806708Y-89076053D01*
X114829949Y-89126451D01*
X114852570Y-89167711D01*
X114875401Y-89200751D01*
X114899277Y-89226488D01*
X114925028Y-89245841D01*
X114953487Y-89259728D01*
X114980788Y-89268003D01*
X115026459Y-89274819D01*
X115071261Y-89274047D01*
X115113483Y-89266055D01*
X115151416Y-89251212D01*
X115183348Y-89229884D01*
X115190961Y-89222819D01*
X115209315Y-89202191D01*
X115227480Y-89177016D01*
X115245601Y-89146876D01*
X115263819Y-89111349D01*
X115282280Y-89070015D01*
X115301124Y-89022455D01*
X115320497Y-88968248D01*
X115340541Y-88906974D01*
X115361400Y-88838212D01*
X115383216Y-88761543D01*
X115406133Y-88676546D01*
X115430294Y-88582801D01*
X115455843Y-88479888D01*
X115482923Y-88367387D01*
X115483713Y-88364060D01*
X115502554Y-88284799D01*
X115519566Y-88213494D01*
X115534691Y-88150376D01*
X115547874Y-88095678D01*
X115559057Y-88049631D01*
X115568185Y-88012467D01*
X115575200Y-87984420D01*
X115580046Y-87965720D01*
X115582668Y-87956601D01*
X115583056Y-87955707D01*
X115585784Y-87959322D01*
X115592063Y-87970578D01*
X115601085Y-87987940D01*
X115612042Y-88009874D01*
X115617835Y-88021747D01*
X115650758Y-88089740D01*
X115656099Y-88164144D01*
X115661314Y-88306661D01*
X115656608Y-88448257D01*
X115642209Y-88588467D01*
X115618347Y-88726823D01*
X115585250Y-88862859D01*
X115543147Y-88996110D01*
X115492267Y-89126108D01*
X115432837Y-89252388D01*
X115365088Y-89374484D01*
X115289247Y-89491928D01*
X115205544Y-89604256D01*
X115114208Y-89711000D01*
X115015466Y-89811694D01*
X114909547Y-89905872D01*
X114796681Y-89993068D01*
X114739420Y-90032764D01*
X114615330Y-90109819D01*
X114487752Y-90177388D01*
X114356499Y-90235544D01*
X114221382Y-90284357D01*
X114082214Y-90323897D01*
X113938805Y-90354235D01*
X113847880Y-90368428D01*
X113811527Y-90372407D01*
X113767162Y-90375735D01*
X113716866Y-90378377D01*
X113662723Y-90380302D01*
X113606814Y-90381475D01*
X113551221Y-90381862D01*
X113498028Y-90381432D01*
X113449315Y-90380149D01*
X113407167Y-90377981D01*
X113382492Y-90375898D01*
X113235791Y-90355685D01*
X113092461Y-90325979D01*
X112952806Y-90286948D01*
X112817131Y-90238759D01*
X112685742Y-90181579D01*
X112558942Y-90115575D01*
X112437037Y-90040915D01*
X112320331Y-89957764D01*
X112209130Y-89866291D01*
X112103739Y-89766662D01*
X112004462Y-89659045D01*
X111946872Y-89589340D01*
X111864036Y-89476737D01*
X111789203Y-89358461D01*
X111722577Y-89235195D01*
X111664362Y-89107625D01*
X111614760Y-88976434D01*
X111573975Y-88842308D01*
X111542211Y-88705931D01*
X111519671Y-88567988D01*
X111506559Y-88429162D01*
X111503077Y-88290138D01*
X111509430Y-88151602D01*
X111511750Y-88125557D01*
X111514224Y-88101917D01*
X111516999Y-88083749D01*
X111520993Y-88068047D01*
X111527124Y-88051804D01*
X111536311Y-88032012D01*
X111546651Y-88011257D01*
X111559335Y-87987029D01*
X111569289Y-87969999D01*
X111576057Y-87960884D01*
X111579118Y-87960200D01*
X111580849Y-87966549D01*
X111584682Y-87981784D01*
X111590372Y-88004904D01*
X111597678Y-88034909D01*
X111606356Y-88070798D01*
X111616164Y-88111570D01*
X111626860Y-88156225D01*
X111638100Y-88203344D01*
X111663015Y-88307572D01*
X111685927Y-88402492D01*
X111707004Y-88488721D01*
X111726415Y-88566877D01*
X111744329Y-88637577D01*
X111760914Y-88701438D01*
X111776338Y-88759077D01*
X111790769Y-88811113D01*
X111804377Y-88858161D01*
X111817329Y-88900840D01*
X111829793Y-88939767D01*
X111841939Y-88975559D01*
X111853935Y-89008833D01*
X111865949Y-89040207D01*
X111867376Y-89043814D01*
X111890121Y-89097133D01*
X111913127Y-89143413D01*
X111935919Y-89181824D01*
X111958022Y-89211539D01*
X111971556Y-89225581D01*
X112005163Y-89249367D01*
X112044677Y-89265661D01*
X112088846Y-89274179D01*
X112136419Y-89274636D01*
X112169115Y-89270377D01*
X112202625Y-89261639D01*
X112232111Y-89248037D01*
X112258580Y-89228604D01*
X112283038Y-89202373D01*
X112306490Y-89168376D01*
X112329943Y-89125646D01*
X112338995Y-89107066D01*
X112351929Y-89078604D01*
X112364924Y-89047532D01*
X112378121Y-89013351D01*
X112391660Y-88975559D01*
X112405682Y-88933658D01*
X112420328Y-88887147D01*
X112435737Y-88835527D01*
X112452052Y-88778297D01*
X112469412Y-88714958D01*
X112487958Y-88645009D01*
X112507830Y-88567951D01*
X112529170Y-88483283D01*
X112552117Y-88390507D01*
X112576812Y-88289121D01*
X112603397Y-88178626D01*
X112621875Y-88101185D01*
X112630742Y-88064317D01*
X112638972Y-88030866D01*
X112646250Y-88002051D01*
X112652261Y-87979091D01*
X112656690Y-87963206D01*
X112659223Y-87955614D01*
X112659576Y-87955135D01*
X112662298Y-87959572D01*
G37*
X112662298Y-87959572D02*
X112668913Y-87972278D01*
X112678972Y-87992338D01*
X112692027Y-88018836D01*
X112707629Y-88050857D01*
X112725328Y-88087484D01*
X112744676Y-88127802D01*
X112761054Y-88162130D01*
X112797043Y-88237450D01*
X112832727Y-88311557D01*
X112867687Y-88383604D01*
X112901502Y-88452747D01*
X112933752Y-88518140D01*
X112964019Y-88578938D01*
X112991883Y-88634296D01*
X113016923Y-88683367D01*
X113038720Y-88725308D01*
X113056855Y-88759272D01*
X113063934Y-88772134D01*
X113117010Y-88863333D01*
X113169191Y-88944991D01*
X113220401Y-89017011D01*
X113270563Y-89079294D01*
X113319600Y-89131739D01*
X113367437Y-89174248D01*
X113386477Y-89188633D01*
X113407045Y-89203717D01*
X113428696Y-89220151D01*
X113446265Y-89233995D01*
X113471540Y-89251315D01*
X113498929Y-89263148D01*
X113530720Y-89270158D01*
X113569202Y-89273009D01*
X113581180Y-89273152D01*
X113622199Y-89271251D01*
X113656088Y-89264979D01*
X113685175Y-89253666D01*
X113711790Y-89236643D01*
X113713781Y-89235094D01*
X113729877Y-89222711D01*
X113750431Y-89207292D01*
X113771624Y-89191697D01*
X113776760Y-89187972D01*
X113806297Y-89164312D01*
X113839068Y-89134121D01*
X113873000Y-89099534D01*
X113906024Y-89062686D01*
X113936070Y-89025711D01*
X113943019Y-89016502D01*
X113967728Y-88982340D01*
X113992283Y-88946576D01*
X114017030Y-88908573D01*
X114042314Y-88867696D01*
X114068480Y-88823306D01*
X114095873Y-88774768D01*
X114124838Y-88721444D01*
X114155721Y-88662697D01*
X114188865Y-88597892D01*
X114224618Y-88526391D01*
X114263322Y-88447557D01*
X114305324Y-88360754D01*
X114350969Y-88265345D01*
X114357178Y-88252300D01*
X114385875Y-88192004D01*
X114410547Y-88140280D01*
X114431504Y-88096510D01*
X114449059Y-88060080D01*
X114463524Y-88030373D01*
X114475212Y-88006773D01*
X114484434Y-87988664D01*
X114491504Y-87975430D01*
X114496733Y-87966456D01*
X114500434Y-87961125D01*
X114502919Y-87958822D01*
X114504500Y-87958930D01*
X114505271Y-87960200D01*
X114507010Y-87966548D01*
X114510843Y-87981785D01*
X114516530Y-88004911D01*
X114523828Y-88034927D01*
X114532494Y-88070835D01*
X114542288Y-88111634D01*
X114552967Y-88156326D01*
X114564289Y-88203912D01*
X114564320Y-88204040D01*
X114589702Y-88310465D01*
X114613107Y-88407551D01*
X114634701Y-88495889D01*
X114654648Y-88576072D01*
X114673113Y-88648690D01*
X114690259Y-88714337D01*
X114706252Y-88773604D01*
X114721257Y-88827084D01*
X114735437Y-88875368D01*
X114748957Y-88919049D01*
X114761982Y-88958718D01*
X114774677Y-88994967D01*
X114787205Y-89028390D01*
X114799732Y-89059577D01*
X114806708Y-89076053D01*
X114829949Y-89126451D01*
X114852570Y-89167711D01*
X114875401Y-89200751D01*
X114899277Y-89226488D01*
X114925028Y-89245841D01*
X114953487Y-89259728D01*
X114980788Y-89268003D01*
X115026459Y-89274819D01*
X115071261Y-89274047D01*
X115113483Y-89266055D01*
X115151416Y-89251212D01*
X115183348Y-89229884D01*
X115190961Y-89222819D01*
X115209315Y-89202191D01*
X115227480Y-89177016D01*
X115245601Y-89146876D01*
X115263819Y-89111349D01*
X115282280Y-89070015D01*
X115301124Y-89022455D01*
X115320497Y-88968248D01*
X115340541Y-88906974D01*
X115361400Y-88838212D01*
X115383216Y-88761543D01*
X115406133Y-88676546D01*
X115430294Y-88582801D01*
X115455843Y-88479888D01*
X115482923Y-88367387D01*
X115483713Y-88364060D01*
X115502554Y-88284799D01*
X115519566Y-88213494D01*
X115534691Y-88150376D01*
X115547874Y-88095678D01*
X115559057Y-88049631D01*
X115568185Y-88012467D01*
X115575200Y-87984420D01*
X115580046Y-87965720D01*
X115582668Y-87956601D01*
X115583056Y-87955707D01*
X115585784Y-87959322D01*
X115592063Y-87970578D01*
X115601085Y-87987940D01*
X115612042Y-88009874D01*
X115617835Y-88021747D01*
X115650758Y-88089740D01*
X115656099Y-88164144D01*
X115661314Y-88306661D01*
X115656608Y-88448257D01*
X115642209Y-88588467D01*
X115618347Y-88726823D01*
X115585250Y-88862859D01*
X115543147Y-88996110D01*
X115492267Y-89126108D01*
X115432837Y-89252388D01*
X115365088Y-89374484D01*
X115289247Y-89491928D01*
X115205544Y-89604256D01*
X115114208Y-89711000D01*
X115015466Y-89811694D01*
X114909547Y-89905872D01*
X114796681Y-89993068D01*
X114739420Y-90032764D01*
X114615330Y-90109819D01*
X114487752Y-90177388D01*
X114356499Y-90235544D01*
X114221382Y-90284357D01*
X114082214Y-90323897D01*
X113938805Y-90354235D01*
X113847880Y-90368428D01*
X113811527Y-90372407D01*
X113767162Y-90375735D01*
X113716866Y-90378377D01*
X113662723Y-90380302D01*
X113606814Y-90381475D01*
X113551221Y-90381862D01*
X113498028Y-90381432D01*
X113449315Y-90380149D01*
X113407167Y-90377981D01*
X113382492Y-90375898D01*
X113235791Y-90355685D01*
X113092461Y-90325979D01*
X112952806Y-90286948D01*
X112817131Y-90238759D01*
X112685742Y-90181579D01*
X112558942Y-90115575D01*
X112437037Y-90040915D01*
X112320331Y-89957764D01*
X112209130Y-89866291D01*
X112103739Y-89766662D01*
X112004462Y-89659045D01*
X111946872Y-89589340D01*
X111864036Y-89476737D01*
X111789203Y-89358461D01*
X111722577Y-89235195D01*
X111664362Y-89107625D01*
X111614760Y-88976434D01*
X111573975Y-88842308D01*
X111542211Y-88705931D01*
X111519671Y-88567988D01*
X111506559Y-88429162D01*
X111503077Y-88290138D01*
X111509430Y-88151602D01*
X111511750Y-88125557D01*
X111514224Y-88101917D01*
X111516999Y-88083749D01*
X111520993Y-88068047D01*
X111527124Y-88051804D01*
X111536311Y-88032012D01*
X111546651Y-88011257D01*
X111559335Y-87987029D01*
X111569289Y-87969999D01*
X111576057Y-87960884D01*
X111579118Y-87960200D01*
X111580849Y-87966549D01*
X111584682Y-87981784D01*
X111590372Y-88004904D01*
X111597678Y-88034909D01*
X111606356Y-88070798D01*
X111616164Y-88111570D01*
X111626860Y-88156225D01*
X111638100Y-88203344D01*
X111663015Y-88307572D01*
X111685927Y-88402492D01*
X111707004Y-88488721D01*
X111726415Y-88566877D01*
X111744329Y-88637577D01*
X111760914Y-88701438D01*
X111776338Y-88759077D01*
X111790769Y-88811113D01*
X111804377Y-88858161D01*
X111817329Y-88900840D01*
X111829793Y-88939767D01*
X111841939Y-88975559D01*
X111853935Y-89008833D01*
X111865949Y-89040207D01*
X111867376Y-89043814D01*
X111890121Y-89097133D01*
X111913127Y-89143413D01*
X111935919Y-89181824D01*
X111958022Y-89211539D01*
X111971556Y-89225581D01*
X112005163Y-89249367D01*
X112044677Y-89265661D01*
X112088846Y-89274179D01*
X112136419Y-89274636D01*
X112169115Y-89270377D01*
X112202625Y-89261639D01*
X112232111Y-89248037D01*
X112258580Y-89228604D01*
X112283038Y-89202373D01*
X112306490Y-89168376D01*
X112329943Y-89125646D01*
X112338995Y-89107066D01*
X112351929Y-89078604D01*
X112364924Y-89047532D01*
X112378121Y-89013351D01*
X112391660Y-88975559D01*
X112405682Y-88933658D01*
X112420328Y-88887147D01*
X112435737Y-88835527D01*
X112452052Y-88778297D01*
X112469412Y-88714958D01*
X112487958Y-88645009D01*
X112507830Y-88567951D01*
X112529170Y-88483283D01*
X112552117Y-88390507D01*
X112576812Y-88289121D01*
X112603397Y-88178626D01*
X112621875Y-88101185D01*
X112630742Y-88064317D01*
X112638972Y-88030866D01*
X112646250Y-88002051D01*
X112652261Y-87979091D01*
X112656690Y-87963206D01*
X112659223Y-87955614D01*
X112659576Y-87955135D01*
X112662298Y-87959572D01*
G36*
X114183160Y-92588080D02*
G01*
X114137293Y-92588080D01*
X114138636Y-92260419D01*
X114138830Y-92203755D01*
X114138939Y-92150197D01*
X114138967Y-92100593D01*
X114138915Y-92055789D01*
X114138788Y-92016631D01*
X114138588Y-91983966D01*
X114138319Y-91958641D01*
X114137984Y-91941501D01*
X114137585Y-91933394D01*
X114137440Y-91932846D01*
X114135159Y-91937446D01*
X114129392Y-91950711D01*
X114120452Y-91971882D01*
X114108651Y-92000202D01*
X114094303Y-92034912D01*
X114077719Y-92075254D01*
X114059214Y-92120469D01*
X114039099Y-92169800D01*
X114017688Y-92222488D01*
X114002794Y-92259236D01*
X113870688Y-92585540D01*
X113836609Y-92585540D01*
X113707631Y-92265500D01*
X113685754Y-92211222D01*
X113664931Y-92159572D01*
X113645482Y-92111345D01*
X113627728Y-92067337D01*
X113611991Y-92028342D01*
X113598592Y-91995156D01*
X113587851Y-91968574D01*
X113580090Y-91949393D01*
X113575630Y-91938407D01*
X113574704Y-91936155D01*
X113574056Y-91939466D01*
X113573501Y-91952126D01*
X113573043Y-91973322D01*
X113572689Y-92002243D01*
X113572442Y-92038077D01*
X113572307Y-92080012D01*
X113572290Y-92127236D01*
X113572396Y-92178939D01*
X113572628Y-92234309D01*
X113572759Y-92257465D01*
X113574764Y-92588080D01*
X113522760Y-92588080D01*
X113522760Y-91871372D01*
X113600960Y-91874340D01*
X113726475Y-92185852D01*
X113747978Y-92239169D01*
X113768387Y-92289674D01*
X113787383Y-92336583D01*
X113804645Y-92379113D01*
X113819855Y-92416479D01*
X113832693Y-92447897D01*
X113842841Y-92472583D01*
X113849978Y-92489754D01*
X113853785Y-92498624D01*
X113854322Y-92499695D01*
X113856662Y-92495667D01*
X113862355Y-92483191D01*
X113870986Y-92463254D01*
X113882138Y-92436842D01*
X113895397Y-92404943D01*
X113910347Y-92368544D01*
X113926572Y-92328631D01*
X113932003Y-92315183D01*
X113951325Y-92267274D01*
X113971829Y-92216438D01*
X113992648Y-92164825D01*
X114012913Y-92114588D01*
X114031758Y-92067876D01*
X114048314Y-92026841D01*
X114058604Y-92001340D01*
X114109855Y-91874340D01*
X114146507Y-91872847D01*
X114183160Y-91871354D01*
X114183160Y-92588080D01*
G37*
X114183160Y-92588080D02*
X114137293Y-92588080D01*
X114138636Y-92260419D01*
X114138830Y-92203755D01*
X114138939Y-92150197D01*
X114138967Y-92100593D01*
X114138915Y-92055789D01*
X114138788Y-92016631D01*
X114138588Y-91983966D01*
X114138319Y-91958641D01*
X114137984Y-91941501D01*
X114137585Y-91933394D01*
X114137440Y-91932846D01*
X114135159Y-91937446D01*
X114129392Y-91950711D01*
X114120452Y-91971882D01*
X114108651Y-92000202D01*
X114094303Y-92034912D01*
X114077719Y-92075254D01*
X114059214Y-92120469D01*
X114039099Y-92169800D01*
X114017688Y-92222488D01*
X114002794Y-92259236D01*
X113870688Y-92585540D01*
X113836609Y-92585540D01*
X113707631Y-92265500D01*
X113685754Y-92211222D01*
X113664931Y-92159572D01*
X113645482Y-92111345D01*
X113627728Y-92067337D01*
X113611991Y-92028342D01*
X113598592Y-91995156D01*
X113587851Y-91968574D01*
X113580090Y-91949393D01*
X113575630Y-91938407D01*
X113574704Y-91936155D01*
X113574056Y-91939466D01*
X113573501Y-91952126D01*
X113573043Y-91973322D01*
X113572689Y-92002243D01*
X113572442Y-92038077D01*
X113572307Y-92080012D01*
X113572290Y-92127236D01*
X113572396Y-92178939D01*
X113572628Y-92234309D01*
X113572759Y-92257465D01*
X113574764Y-92588080D01*
X113522760Y-92588080D01*
X113522760Y-91871372D01*
X113600960Y-91874340D01*
X113726475Y-92185852D01*
X113747978Y-92239169D01*
X113768387Y-92289674D01*
X113787383Y-92336583D01*
X113804645Y-92379113D01*
X113819855Y-92416479D01*
X113832693Y-92447897D01*
X113842841Y-92472583D01*
X113849978Y-92489754D01*
X113853785Y-92498624D01*
X113854322Y-92499695D01*
X113856662Y-92495667D01*
X113862355Y-92483191D01*
X113870986Y-92463254D01*
X113882138Y-92436842D01*
X113895397Y-92404943D01*
X113910347Y-92368544D01*
X113926572Y-92328631D01*
X113932003Y-92315183D01*
X113951325Y-92267274D01*
X113971829Y-92216438D01*
X113992648Y-92164825D01*
X114012913Y-92114588D01*
X114031758Y-92067876D01*
X114048314Y-92026841D01*
X114058604Y-92001340D01*
X114109855Y-91874340D01*
X114146507Y-91872847D01*
X114183160Y-91871354D01*
X114183160Y-92588080D01*
G36*
X113013122Y-91926185D02*
G01*
X113018754Y-91940669D01*
X113027710Y-91963617D01*
X113039603Y-91994039D01*
X113054044Y-92030942D01*
X113070644Y-92073334D01*
X113089015Y-92120222D01*
X113108769Y-92170616D01*
X113129516Y-92223522D01*
X113150869Y-92277950D01*
X113153459Y-92284550D01*
X113272573Y-92588080D01*
X113243996Y-92587959D01*
X113215420Y-92587838D01*
X113117458Y-92336620D01*
X112972504Y-92335272D01*
X112827551Y-92333925D01*
X112777645Y-92460976D01*
X112727740Y-92588028D01*
X112700727Y-92588054D01*
X112685126Y-92587644D01*
X112677557Y-92585859D01*
X112675911Y-92581925D01*
X112676559Y-92579190D01*
X112678869Y-92573126D01*
X112684653Y-92558392D01*
X112693609Y-92535746D01*
X112705435Y-92505949D01*
X112719828Y-92469762D01*
X112736485Y-92427943D01*
X112755104Y-92381255D01*
X112775382Y-92330456D01*
X112791760Y-92289461D01*
X112847120Y-92289461D01*
X112851920Y-92290459D01*
X112865208Y-92291332D01*
X112885308Y-92292070D01*
X112910550Y-92292662D01*
X112939259Y-92293099D01*
X112969763Y-92293371D01*
X113000389Y-92293467D01*
X113029464Y-92293379D01*
X113055315Y-92293096D01*
X113076270Y-92292609D01*
X113090654Y-92291907D01*
X113096797Y-92290980D01*
X113096849Y-92290937D01*
X113095749Y-92285781D01*
X113091505Y-92272466D01*
X113084611Y-92252318D01*
X113075555Y-92226664D01*
X113064830Y-92196829D01*
X113052926Y-92164140D01*
X113040335Y-92129922D01*
X113027548Y-92095501D01*
X113015056Y-92062203D01*
X113003350Y-92031355D01*
X112992921Y-92004281D01*
X112984260Y-91982309D01*
X112977858Y-91966764D01*
X112974207Y-91958972D01*
X112973654Y-91958320D01*
X112970542Y-91962604D01*
X112966185Y-91973603D01*
X112964231Y-91979750D01*
X112960771Y-91989935D01*
X112954124Y-92008176D01*
X112944821Y-92033072D01*
X112933388Y-92063223D01*
X112920355Y-92097227D01*
X112906251Y-92133685D01*
X112902467Y-92143411D01*
X112888569Y-92179213D01*
X112875950Y-92211968D01*
X112865063Y-92240476D01*
X112856363Y-92263540D01*
X112850304Y-92279959D01*
X112847341Y-92288536D01*
X112847120Y-92289461D01*
X112791760Y-92289461D01*
X112797016Y-92276308D01*
X112818604Y-92222320D01*
X112957805Y-91874340D01*
X112974852Y-91872845D01*
X112991900Y-91871350D01*
X113013122Y-91926185D01*
G37*
X113013122Y-91926185D02*
X113018754Y-91940669D01*
X113027710Y-91963617D01*
X113039603Y-91994039D01*
X113054044Y-92030942D01*
X113070644Y-92073334D01*
X113089015Y-92120222D01*
X113108769Y-92170616D01*
X113129516Y-92223522D01*
X113150869Y-92277950D01*
X113153459Y-92284550D01*
X113272573Y-92588080D01*
X113243996Y-92587959D01*
X113215420Y-92587838D01*
X113117458Y-92336620D01*
X112972504Y-92335272D01*
X112827551Y-92333925D01*
X112777645Y-92460976D01*
X112727740Y-92588028D01*
X112700727Y-92588054D01*
X112685126Y-92587644D01*
X112677557Y-92585859D01*
X112675911Y-92581925D01*
X112676559Y-92579190D01*
X112678869Y-92573126D01*
X112684653Y-92558392D01*
X112693609Y-92535746D01*
X112705435Y-92505949D01*
X112719828Y-92469762D01*
X112736485Y-92427943D01*
X112755104Y-92381255D01*
X112775382Y-92330456D01*
X112791760Y-92289461D01*
X112847120Y-92289461D01*
X112851920Y-92290459D01*
X112865208Y-92291332D01*
X112885308Y-92292070D01*
X112910550Y-92292662D01*
X112939259Y-92293099D01*
X112969763Y-92293371D01*
X113000389Y-92293467D01*
X113029464Y-92293379D01*
X113055315Y-92293096D01*
X113076270Y-92292609D01*
X113090654Y-92291907D01*
X113096797Y-92290980D01*
X113096849Y-92290937D01*
X113095749Y-92285781D01*
X113091505Y-92272466D01*
X113084611Y-92252318D01*
X113075555Y-92226664D01*
X113064830Y-92196829D01*
X113052926Y-92164140D01*
X113040335Y-92129922D01*
X113027548Y-92095501D01*
X113015056Y-92062203D01*
X113003350Y-92031355D01*
X112992921Y-92004281D01*
X112984260Y-91982309D01*
X112977858Y-91966764D01*
X112974207Y-91958972D01*
X112973654Y-91958320D01*
X112970542Y-91962604D01*
X112966185Y-91973603D01*
X112964231Y-91979750D01*
X112960771Y-91989935D01*
X112954124Y-92008176D01*
X112944821Y-92033072D01*
X112933388Y-92063223D01*
X112920355Y-92097227D01*
X112906251Y-92133685D01*
X112902467Y-92143411D01*
X112888569Y-92179213D01*
X112875950Y-92211968D01*
X112865063Y-92240476D01*
X112856363Y-92263540D01*
X112850304Y-92279959D01*
X112847341Y-92288536D01*
X112847120Y-92289461D01*
X112791760Y-92289461D01*
X112797016Y-92276308D01*
X112818604Y-92222320D01*
X112957805Y-91874340D01*
X112974852Y-91872845D01*
X112991900Y-91871350D01*
X113013122Y-91926185D01*
G36*
X112121950Y-91871838D02*
G01*
X112177892Y-91872447D01*
X112225055Y-91874364D01*
X112264758Y-91877804D01*
X112298321Y-91882981D01*
X112327065Y-91890107D01*
X112352311Y-91899397D01*
X112375379Y-91911065D01*
X112379552Y-91913524D01*
X112410666Y-91937803D01*
X112434184Y-91968177D01*
X112448697Y-92001817D01*
X112453475Y-92025830D01*
X112456080Y-92055029D01*
X112456425Y-92085386D01*
X112454424Y-92112873D01*
X112451421Y-92128847D01*
X112437193Y-92163557D01*
X112414816Y-92195852D01*
X112386300Y-92223547D01*
X112353653Y-92244457D01*
X112339492Y-92250580D01*
X112325024Y-92256380D01*
X112314646Y-92261309D01*
X112312114Y-92262947D01*
X112313674Y-92268008D01*
X112319941Y-92280765D01*
X112330362Y-92300223D01*
X112344381Y-92325388D01*
X112361446Y-92355263D01*
X112381000Y-92388855D01*
X112402284Y-92424820D01*
X112423886Y-92461117D01*
X112443748Y-92494632D01*
X112461287Y-92524375D01*
X112475923Y-92549353D01*
X112487075Y-92568575D01*
X112494160Y-92581049D01*
X112496600Y-92585774D01*
X112492005Y-92587045D01*
X112480105Y-92587444D01*
X112467456Y-92587063D01*
X112438312Y-92585540D01*
X112256696Y-92278200D01*
X112080040Y-92278200D01*
X112080040Y-92588080D01*
X112029240Y-92588080D01*
X112029240Y-92232480D01*
X112080040Y-92232480D01*
X112170210Y-92232419D01*
X112213536Y-92231888D01*
X112248134Y-92230379D01*
X112273493Y-92227923D01*
X112285780Y-92225574D01*
X112324846Y-92211402D01*
X112355577Y-92192056D01*
X112368821Y-92179250D01*
X112383681Y-92160113D01*
X112393530Y-92141044D01*
X112399284Y-92119169D01*
X112401863Y-92091616D01*
X112402250Y-92074640D01*
X112402142Y-92050925D01*
X112400965Y-92034027D01*
X112398084Y-92020613D01*
X112392863Y-92007350D01*
X112387235Y-91995900D01*
X112375666Y-91976177D01*
X112362940Y-91962201D01*
X112345319Y-91949893D01*
X112344770Y-91949563D01*
X112329070Y-91940871D01*
X112313479Y-91934137D01*
X112296300Y-91929056D01*
X112275838Y-91925323D01*
X112250396Y-91922634D01*
X112218280Y-91920684D01*
X112177794Y-91919166D01*
X112175290Y-91919090D01*
X112080040Y-91916187D01*
X112080040Y-92232480D01*
X112029240Y-92232480D01*
X112029240Y-91871800D01*
X112121950Y-91871838D01*
G37*
X112121950Y-91871838D02*
X112177892Y-91872447D01*
X112225055Y-91874364D01*
X112264758Y-91877804D01*
X112298321Y-91882981D01*
X112327065Y-91890107D01*
X112352311Y-91899397D01*
X112375379Y-91911065D01*
X112379552Y-91913524D01*
X112410666Y-91937803D01*
X112434184Y-91968177D01*
X112448697Y-92001817D01*
X112453475Y-92025830D01*
X112456080Y-92055029D01*
X112456425Y-92085386D01*
X112454424Y-92112873D01*
X112451421Y-92128847D01*
X112437193Y-92163557D01*
X112414816Y-92195852D01*
X112386300Y-92223547D01*
X112353653Y-92244457D01*
X112339492Y-92250580D01*
X112325024Y-92256380D01*
X112314646Y-92261309D01*
X112312114Y-92262947D01*
X112313674Y-92268008D01*
X112319941Y-92280765D01*
X112330362Y-92300223D01*
X112344381Y-92325388D01*
X112361446Y-92355263D01*
X112381000Y-92388855D01*
X112402284Y-92424820D01*
X112423886Y-92461117D01*
X112443748Y-92494632D01*
X112461287Y-92524375D01*
X112475923Y-92549353D01*
X112487075Y-92568575D01*
X112494160Y-92581049D01*
X112496600Y-92585774D01*
X112492005Y-92587045D01*
X112480105Y-92587444D01*
X112467456Y-92587063D01*
X112438312Y-92585540D01*
X112256696Y-92278200D01*
X112080040Y-92278200D01*
X112080040Y-92588080D01*
X112029240Y-92588080D01*
X112029240Y-92232480D01*
X112080040Y-92232480D01*
X112170210Y-92232419D01*
X112213536Y-92231888D01*
X112248134Y-92230379D01*
X112273493Y-92227923D01*
X112285780Y-92225574D01*
X112324846Y-92211402D01*
X112355577Y-92192056D01*
X112368821Y-92179250D01*
X112383681Y-92160113D01*
X112393530Y-92141044D01*
X112399284Y-92119169D01*
X112401863Y-92091616D01*
X112402250Y-92074640D01*
X112402142Y-92050925D01*
X112400965Y-92034027D01*
X112398084Y-92020613D01*
X112392863Y-92007350D01*
X112387235Y-91995900D01*
X112375666Y-91976177D01*
X112362940Y-91962201D01*
X112345319Y-91949893D01*
X112344770Y-91949563D01*
X112329070Y-91940871D01*
X112313479Y-91934137D01*
X112296300Y-91929056D01*
X112275838Y-91925323D01*
X112250396Y-91922634D01*
X112218280Y-91920684D01*
X112177794Y-91919166D01*
X112175290Y-91919090D01*
X112080040Y-91916187D01*
X112080040Y-92232480D01*
X112029240Y-92232480D01*
X112029240Y-91871800D01*
X112121950Y-91871838D01*
G36*
X111304070Y-91873293D02*
G01*
X111353078Y-91874546D01*
X111393446Y-91876166D01*
X111426693Y-91878396D01*
X111454339Y-91881480D01*
X111477901Y-91885662D01*
X111498900Y-91891183D01*
X111518855Y-91898289D01*
X111539284Y-91907221D01*
X111550937Y-91912836D01*
X111595595Y-91940248D01*
X111633291Y-91975036D01*
X111664044Y-92017225D01*
X111687872Y-92066837D01*
X111699893Y-92103953D01*
X111705970Y-92134956D01*
X111709822Y-92172839D01*
X111711452Y-92214566D01*
X111710860Y-92257103D01*
X111708049Y-92297417D01*
X111703020Y-92332472D01*
X111699755Y-92346780D01*
X111680641Y-92402544D01*
X111655046Y-92450551D01*
X111622658Y-92491114D01*
X111583164Y-92524545D01*
X111536253Y-92551156D01*
X111481611Y-92571259D01*
X111472980Y-92573665D01*
X111458935Y-92577137D01*
X111444672Y-92579864D01*
X111428613Y-92581970D01*
X111409178Y-92583574D01*
X111384787Y-92584798D01*
X111353861Y-92585764D01*
X111314820Y-92586593D01*
X111301530Y-92586829D01*
X111170720Y-92589080D01*
X111170720Y-92542360D01*
X111221520Y-92542360D01*
X111310634Y-92542360D01*
X111357962Y-92541737D01*
X111396200Y-92539826D01*
X111426343Y-92536567D01*
X111438904Y-92534369D01*
X111491090Y-92519279D01*
X111536389Y-92496721D01*
X111574791Y-92466702D01*
X111606288Y-92429232D01*
X111630870Y-92384318D01*
X111646734Y-92338793D01*
X111651312Y-92314690D01*
X111654369Y-92283411D01*
X111655909Y-92247778D01*
X111655937Y-92210612D01*
X111654455Y-92174734D01*
X111651469Y-92142967D01*
X111646982Y-92118132D01*
X111646425Y-92116046D01*
X111627910Y-92065597D01*
X111602436Y-92022542D01*
X111569898Y-91986774D01*
X111530192Y-91958189D01*
X111483213Y-91936680D01*
X111462500Y-91930074D01*
X111447042Y-91926632D01*
X111426718Y-91923899D01*
X111400179Y-91921763D01*
X111366074Y-91920113D01*
X111326930Y-91918932D01*
X111221520Y-91916368D01*
X111221520Y-92542360D01*
X111170720Y-92542360D01*
X111170720Y-91870443D01*
X111304070Y-91873293D01*
G37*
X111304070Y-91873293D02*
X111353078Y-91874546D01*
X111393446Y-91876166D01*
X111426693Y-91878396D01*
X111454339Y-91881480D01*
X111477901Y-91885662D01*
X111498900Y-91891183D01*
X111518855Y-91898289D01*
X111539284Y-91907221D01*
X111550937Y-91912836D01*
X111595595Y-91940248D01*
X111633291Y-91975036D01*
X111664044Y-92017225D01*
X111687872Y-92066837D01*
X111699893Y-92103953D01*
X111705970Y-92134956D01*
X111709822Y-92172839D01*
X111711452Y-92214566D01*
X111710860Y-92257103D01*
X111708049Y-92297417D01*
X111703020Y-92332472D01*
X111699755Y-92346780D01*
X111680641Y-92402544D01*
X111655046Y-92450551D01*
X111622658Y-92491114D01*
X111583164Y-92524545D01*
X111536253Y-92551156D01*
X111481611Y-92571259D01*
X111472980Y-92573665D01*
X111458935Y-92577137D01*
X111444672Y-92579864D01*
X111428613Y-92581970D01*
X111409178Y-92583574D01*
X111384787Y-92584798D01*
X111353861Y-92585764D01*
X111314820Y-92586593D01*
X111301530Y-92586829D01*
X111170720Y-92589080D01*
X111170720Y-92542360D01*
X111221520Y-92542360D01*
X111310634Y-92542360D01*
X111357962Y-92541737D01*
X111396200Y-92539826D01*
X111426343Y-92536567D01*
X111438904Y-92534369D01*
X111491090Y-92519279D01*
X111536389Y-92496721D01*
X111574791Y-92466702D01*
X111606288Y-92429232D01*
X111630870Y-92384318D01*
X111646734Y-92338793D01*
X111651312Y-92314690D01*
X111654369Y-92283411D01*
X111655909Y-92247778D01*
X111655937Y-92210612D01*
X111654455Y-92174734D01*
X111651469Y-92142967D01*
X111646982Y-92118132D01*
X111646425Y-92116046D01*
X111627910Y-92065597D01*
X111602436Y-92022542D01*
X111569898Y-91986774D01*
X111530192Y-91958189D01*
X111483213Y-91936680D01*
X111462500Y-91930074D01*
X111447042Y-91926632D01*
X111426718Y-91923899D01*
X111400179Y-91921763D01*
X111366074Y-91920113D01*
X111326930Y-91918932D01*
X111221520Y-91916368D01*
X111221520Y-92542360D01*
X111170720Y-92542360D01*
X111170720Y-91870443D01*
X111304070Y-91873293D01*
G36*
X115617041Y-91864606D02*
G01*
X115648337Y-91866670D01*
X115673736Y-91870557D01*
X115676680Y-91871259D01*
X115727808Y-91889200D01*
X115773570Y-91915541D01*
X115813517Y-91949793D01*
X115847198Y-91991465D01*
X115874163Y-92040066D01*
X115893963Y-92095106D01*
X115898507Y-92113100D01*
X115903731Y-92144681D01*
X115906887Y-92182740D01*
X115908008Y-92224326D01*
X115907124Y-92266485D01*
X115904269Y-92306263D01*
X115899475Y-92340708D01*
X115895855Y-92356940D01*
X115876107Y-92414457D01*
X115849778Y-92464522D01*
X115817068Y-92506933D01*
X115778179Y-92541484D01*
X115733313Y-92567973D01*
X115682671Y-92586194D01*
X115665464Y-92590207D01*
X115630830Y-92595247D01*
X115592858Y-92597385D01*
X115555899Y-92596544D01*
X115524661Y-92592716D01*
X115471068Y-92577400D01*
X115422784Y-92553761D01*
X115380454Y-92522289D01*
X115344727Y-92483470D01*
X115316249Y-92437793D01*
X115314541Y-92434345D01*
X115293416Y-92380521D01*
X115279300Y-92321157D01*
X115272366Y-92258228D01*
X115272696Y-92207080D01*
X115327860Y-92207080D01*
X115328147Y-92273045D01*
X115335405Y-92332139D01*
X115349780Y-92385019D01*
X115371423Y-92432345D01*
X115383003Y-92451154D01*
X115412400Y-92486194D01*
X115448846Y-92514384D01*
X115491373Y-92535117D01*
X115536173Y-92547290D01*
X115562819Y-92549965D01*
X115595026Y-92550066D01*
X115628590Y-92547829D01*
X115659308Y-92543490D01*
X115676680Y-92539384D01*
X115709721Y-92527643D01*
X115736621Y-92513090D01*
X115761389Y-92493333D01*
X115773187Y-92481822D01*
X115801938Y-92445773D01*
X115825541Y-92402145D01*
X115842596Y-92354400D01*
X115846955Y-92331962D01*
X115850068Y-92302008D01*
X115851934Y-92267058D01*
X115852553Y-92229632D01*
X115851923Y-92192252D01*
X115850045Y-92157439D01*
X115846918Y-92127712D01*
X115842633Y-92105913D01*
X115823730Y-92053588D01*
X115798843Y-92009465D01*
X115767996Y-91973563D01*
X115731215Y-91945901D01*
X115688524Y-91926499D01*
X115639945Y-91915374D01*
X115594582Y-91912440D01*
X115545231Y-91915097D01*
X115502929Y-91923496D01*
X115465942Y-91938277D01*
X115432533Y-91960080D01*
X115409550Y-91980655D01*
X115382606Y-92011946D01*
X115361583Y-92046718D01*
X115345987Y-92086336D01*
X115335328Y-92132164D01*
X115329112Y-92185566D01*
X115327860Y-92207080D01*
X115272696Y-92207080D01*
X115272783Y-92193708D01*
X115280723Y-92129572D01*
X115286003Y-92104633D01*
X115303993Y-92048643D01*
X115329563Y-91999060D01*
X115362361Y-91956269D01*
X115402033Y-91920657D01*
X115448227Y-91892613D01*
X115496605Y-91873700D01*
X115519630Y-91868910D01*
X115549502Y-91865769D01*
X115583034Y-91864319D01*
X115617041Y-91864606D01*
G37*
X115617041Y-91864606D02*
X115648337Y-91866670D01*
X115673736Y-91870557D01*
X115676680Y-91871259D01*
X115727808Y-91889200D01*
X115773570Y-91915541D01*
X115813517Y-91949793D01*
X115847198Y-91991465D01*
X115874163Y-92040066D01*
X115893963Y-92095106D01*
X115898507Y-92113100D01*
X115903731Y-92144681D01*
X115906887Y-92182740D01*
X115908008Y-92224326D01*
X115907124Y-92266485D01*
X115904269Y-92306263D01*
X115899475Y-92340708D01*
X115895855Y-92356940D01*
X115876107Y-92414457D01*
X115849778Y-92464522D01*
X115817068Y-92506933D01*
X115778179Y-92541484D01*
X115733313Y-92567973D01*
X115682671Y-92586194D01*
X115665464Y-92590207D01*
X115630830Y-92595247D01*
X115592858Y-92597385D01*
X115555899Y-92596544D01*
X115524661Y-92592716D01*
X115471068Y-92577400D01*
X115422784Y-92553761D01*
X115380454Y-92522289D01*
X115344727Y-92483470D01*
X115316249Y-92437793D01*
X115314541Y-92434345D01*
X115293416Y-92380521D01*
X115279300Y-92321157D01*
X115272366Y-92258228D01*
X115272696Y-92207080D01*
X115327860Y-92207080D01*
X115328147Y-92273045D01*
X115335405Y-92332139D01*
X115349780Y-92385019D01*
X115371423Y-92432345D01*
X115383003Y-92451154D01*
X115412400Y-92486194D01*
X115448846Y-92514384D01*
X115491373Y-92535117D01*
X115536173Y-92547290D01*
X115562819Y-92549965D01*
X115595026Y-92550066D01*
X115628590Y-92547829D01*
X115659308Y-92543490D01*
X115676680Y-92539384D01*
X115709721Y-92527643D01*
X115736621Y-92513090D01*
X115761389Y-92493333D01*
X115773187Y-92481822D01*
X115801938Y-92445773D01*
X115825541Y-92402145D01*
X115842596Y-92354400D01*
X115846955Y-92331962D01*
X115850068Y-92302008D01*
X115851934Y-92267058D01*
X115852553Y-92229632D01*
X115851923Y-92192252D01*
X115850045Y-92157439D01*
X115846918Y-92127712D01*
X115842633Y-92105913D01*
X115823730Y-92053588D01*
X115798843Y-92009465D01*
X115767996Y-91973563D01*
X115731215Y-91945901D01*
X115688524Y-91926499D01*
X115639945Y-91915374D01*
X115594582Y-91912440D01*
X115545231Y-91915097D01*
X115502929Y-91923496D01*
X115465942Y-91938277D01*
X115432533Y-91960080D01*
X115409550Y-91980655D01*
X115382606Y-92011946D01*
X115361583Y-92046718D01*
X115345987Y-92086336D01*
X115335328Y-92132164D01*
X115329112Y-92185566D01*
X115327860Y-92207080D01*
X115272696Y-92207080D01*
X115272783Y-92193708D01*
X115280723Y-92129572D01*
X115286003Y-92104633D01*
X115303993Y-92048643D01*
X115329563Y-91999060D01*
X115362361Y-91956269D01*
X115402033Y-91920657D01*
X115448227Y-91892613D01*
X115496605Y-91873700D01*
X115519630Y-91868910D01*
X115549502Y-91865769D01*
X115583034Y-91864319D01*
X115617041Y-91864606D01*
G36*
X114876493Y-91864698D02*
G01*
X114888985Y-91865948D01*
X114911806Y-91869292D01*
X114937007Y-91874190D01*
X114962442Y-91880077D01*
X114985966Y-91886385D01*
X115005433Y-91892550D01*
X115018697Y-91898005D01*
X115023351Y-91901391D01*
X115022872Y-91907946D01*
X115018911Y-91920100D01*
X115016088Y-91926845D01*
X115009921Y-91939788D01*
X115005107Y-91945071D01*
X114998914Y-91944333D01*
X114992304Y-91941119D01*
X114980544Y-91936044D01*
X114962675Y-91929452D01*
X114942337Y-91922678D01*
X114940080Y-91921971D01*
X114907412Y-91914626D01*
X114869379Y-91910527D01*
X114829572Y-91909723D01*
X114791582Y-91912264D01*
X114759000Y-91918198D01*
X114754660Y-91919426D01*
X114705351Y-91939142D01*
X114662517Y-91966651D01*
X114626308Y-92001789D01*
X114596875Y-92044397D01*
X114574369Y-92094312D01*
X114566098Y-92120720D01*
X114560988Y-92147427D01*
X114557802Y-92181229D01*
X114556514Y-92219252D01*
X114557096Y-92258620D01*
X114559521Y-92296458D01*
X114563761Y-92329890D01*
X114568272Y-92350914D01*
X114586936Y-92403043D01*
X114612181Y-92447468D01*
X114643892Y-92484126D01*
X114681957Y-92512956D01*
X114726261Y-92533896D01*
X114776689Y-92546884D01*
X114833129Y-92551858D01*
X114895465Y-92548755D01*
X114924840Y-92544799D01*
X114947588Y-92541100D01*
X114968020Y-92537620D01*
X114983022Y-92534898D01*
X114987394Y-92534015D01*
X114996223Y-92532601D01*
X115000116Y-92535128D01*
X115000673Y-92543990D01*
X115000094Y-92553039D01*
X114998500Y-92575186D01*
X114960400Y-92584292D01*
X114931749Y-92589491D01*
X114896957Y-92593273D01*
X114858979Y-92595551D01*
X114820768Y-92596239D01*
X114785278Y-92595250D01*
X114755462Y-92592498D01*
X114744500Y-92590623D01*
X114693875Y-92575057D01*
X114647414Y-92550753D01*
X114606017Y-92518594D01*
X114570583Y-92479465D01*
X114542012Y-92434247D01*
X114521205Y-92383827D01*
X114516301Y-92366610D01*
X114505482Y-92309986D01*
X114500697Y-92250656D01*
X114501896Y-92191393D01*
X114509023Y-92134968D01*
X114521689Y-92085160D01*
X114544554Y-92031532D01*
X114574723Y-91984657D01*
X114611613Y-91944884D01*
X114654642Y-91912559D01*
X114703227Y-91888030D01*
X114756785Y-91871645D01*
X114814735Y-91863752D01*
X114876493Y-91864698D01*
G37*
X114876493Y-91864698D02*
X114888985Y-91865948D01*
X114911806Y-91869292D01*
X114937007Y-91874190D01*
X114962442Y-91880077D01*
X114985966Y-91886385D01*
X115005433Y-91892550D01*
X115018697Y-91898005D01*
X115023351Y-91901391D01*
X115022872Y-91907946D01*
X115018911Y-91920100D01*
X115016088Y-91926845D01*
X115009921Y-91939788D01*
X115005107Y-91945071D01*
X114998914Y-91944333D01*
X114992304Y-91941119D01*
X114980544Y-91936044D01*
X114962675Y-91929452D01*
X114942337Y-91922678D01*
X114940080Y-91921971D01*
X114907412Y-91914626D01*
X114869379Y-91910527D01*
X114829572Y-91909723D01*
X114791582Y-91912264D01*
X114759000Y-91918198D01*
X114754660Y-91919426D01*
X114705351Y-91939142D01*
X114662517Y-91966651D01*
X114626308Y-92001789D01*
X114596875Y-92044397D01*
X114574369Y-92094312D01*
X114566098Y-92120720D01*
X114560988Y-92147427D01*
X114557802Y-92181229D01*
X114556514Y-92219252D01*
X114557096Y-92258620D01*
X114559521Y-92296458D01*
X114563761Y-92329890D01*
X114568272Y-92350914D01*
X114586936Y-92403043D01*
X114612181Y-92447468D01*
X114643892Y-92484126D01*
X114681957Y-92512956D01*
X114726261Y-92533896D01*
X114776689Y-92546884D01*
X114833129Y-92551858D01*
X114895465Y-92548755D01*
X114924840Y-92544799D01*
X114947588Y-92541100D01*
X114968020Y-92537620D01*
X114983022Y-92534898D01*
X114987394Y-92534015D01*
X114996223Y-92532601D01*
X115000116Y-92535128D01*
X115000673Y-92543990D01*
X115000094Y-92553039D01*
X114998500Y-92575186D01*
X114960400Y-92584292D01*
X114931749Y-92589491D01*
X114896957Y-92593273D01*
X114858979Y-92595551D01*
X114820768Y-92596239D01*
X114785278Y-92595250D01*
X114755462Y-92592498D01*
X114744500Y-92590623D01*
X114693875Y-92575057D01*
X114647414Y-92550753D01*
X114606017Y-92518594D01*
X114570583Y-92479465D01*
X114542012Y-92434247D01*
X114521205Y-92383827D01*
X114516301Y-92366610D01*
X114505482Y-92309986D01*
X114500697Y-92250656D01*
X114501896Y-92191393D01*
X114509023Y-92134968D01*
X114521689Y-92085160D01*
X114544554Y-92031532D01*
X114574723Y-91984657D01*
X114611613Y-91944884D01*
X114654642Y-91912559D01*
X114703227Y-91888030D01*
X114756785Y-91871645D01*
X114814735Y-91863752D01*
X114876493Y-91864698D01*
D11*
X144372064Y-105450000D02*
X143917936Y-105450000D01*
X144372064Y-103980000D02*
X143917936Y-103980000D01*
X110262936Y-106780000D02*
X110717064Y-106780000D01*
X110262936Y-105310000D02*
X110717064Y-105310000D01*
X110228748Y-103405000D02*
X110751252Y-103405000D01*
X110228748Y-104875000D02*
X110751252Y-104875000D01*
X132942064Y-123725000D02*
X132487936Y-123725000D01*
X132942064Y-125195000D02*
X132487936Y-125195000D01*
X148770000Y-122799600D02*
X151430000Y-122799600D01*
X148770000Y-110039600D02*
X148770000Y-122799600D01*
X151430000Y-110039600D02*
X151430000Y-122799600D01*
X148770000Y-110039600D02*
X151430000Y-110039600D01*
X148770000Y-108769600D02*
X148770000Y-107439600D01*
X148770000Y-107439600D02*
X150100000Y-107439600D01*
X103372936Y-125463000D02*
X103827064Y-125463000D01*
X103372936Y-126933000D02*
X103827064Y-126933000D01*
X115831252Y-109120000D02*
X115308748Y-109120000D01*
X115831252Y-110590000D02*
X115308748Y-110590000D01*
X108680000Y-125208000D02*
X105820000Y-125208000D01*
X105820000Y-125208000D02*
X105820000Y-127128000D01*
X105820000Y-127128000D02*
X108680000Y-127128000D01*
X132942064Y-129005000D02*
X132487936Y-129005000D01*
X132942064Y-127535000D02*
X132487936Y-127535000D01*
X132942064Y-98525000D02*
X132487936Y-98525000D01*
X132942064Y-97055000D02*
X132487936Y-97055000D01*
D13*
X118000000Y-111787000D02*
X119800000Y-111787000D01*
X120150000Y-118887000D02*
X120150000Y-111687000D01*
X124750000Y-118887000D02*
X120150000Y-118887000D01*
X124750000Y-111687000D02*
X124750000Y-118887000D01*
X120150000Y-111687000D02*
X124750000Y-111687000D01*
D11*
X115797064Y-111025000D02*
X115342936Y-111025000D01*
X115797064Y-112495000D02*
X115342936Y-112495000D01*
X143917936Y-103605000D02*
X144372064Y-103605000D01*
X143917936Y-102135000D02*
X144372064Y-102135000D01*
X132976252Y-125630000D02*
X132453748Y-125630000D01*
X132976252Y-127100000D02*
X132453748Y-127100000D01*
X132942064Y-100865000D02*
X132487936Y-100865000D01*
X132942064Y-102335000D02*
X132487936Y-102335000D01*
X110717064Y-102970000D02*
X110262936Y-102970000D01*
X110717064Y-101500000D02*
X110262936Y-101500000D01*
X132976252Y-98960000D02*
X132453748Y-98960000D01*
X132976252Y-100430000D02*
X132453748Y-100430000D01*
X126627500Y-136618000D02*
X118372500Y-136618000D01*
X126627500Y-136618000D02*
X126627500Y-149699000D01*
X118372500Y-136618000D02*
X118372500Y-149699000D01*
X126627500Y-141698000D02*
X118372500Y-141698000D01*
X126627500Y-149699000D02*
X118372500Y-149699000D01*
X143883748Y-100230000D02*
X144406252Y-100230000D01*
X143883748Y-101700000D02*
X144406252Y-101700000D01*
D14*
X139263095Y-105712380D02*
X139263095Y-106521904D01*
X139310714Y-106617142D01*
X139358333Y-106664761D01*
X139453571Y-106712380D01*
X139644047Y-106712380D01*
X139739285Y-106664761D01*
X139786904Y-106617142D01*
X139834523Y-106521904D01*
X139834523Y-105712380D01*
X140834523Y-106712380D02*
X140263095Y-106712380D01*
X140548809Y-106712380D02*
X140548809Y-105712380D01*
X140453571Y-105855238D01*
X140358333Y-105950476D01*
X140263095Y-105998095D01*
X118665714Y-119594380D02*
X118665714Y-120403904D01*
X118713333Y-120499142D01*
X118760952Y-120546761D01*
X118856190Y-120594380D01*
X119046666Y-120594380D01*
X119141904Y-120546761D01*
X119189523Y-120499142D01*
X119237142Y-120403904D01*
X119237142Y-119594380D01*
X120094285Y-120546761D02*
X119999047Y-120594380D01*
X119808571Y-120594380D01*
X119713333Y-120546761D01*
X119665714Y-120451523D01*
X119665714Y-120070571D01*
X119713333Y-119975333D01*
X119808571Y-119927714D01*
X119999047Y-119927714D01*
X120094285Y-119975333D01*
X120141904Y-120070571D01*
X120141904Y-120165809D01*
X119665714Y-120261047D01*
X104213095Y-105737380D02*
X104213095Y-106546904D01*
X104260714Y-106642142D01*
X104308333Y-106689761D01*
X104403571Y-106737380D01*
X104594047Y-106737380D01*
X104689285Y-106689761D01*
X104736904Y-106642142D01*
X104784523Y-106546904D01*
X104784523Y-105737380D01*
X105165476Y-105737380D02*
X105784523Y-105737380D01*
X105451190Y-106118333D01*
X105594047Y-106118333D01*
X105689285Y-106165952D01*
X105736904Y-106213571D01*
X105784523Y-106308809D01*
X105784523Y-106546904D01*
X105736904Y-106642142D01*
X105689285Y-106689761D01*
X105594047Y-106737380D01*
X105308333Y-106737380D01*
X105213095Y-106689761D01*
X105165476Y-106642142D01*
X121688095Y-92849380D02*
X121688095Y-93658904D01*
X121735714Y-93754142D01*
X121783333Y-93801761D01*
X121878571Y-93849380D01*
X122069047Y-93849380D01*
X122164285Y-93801761D01*
X122211904Y-93754142D01*
X122259523Y-93658904D01*
X122259523Y-92849380D01*
X123164285Y-93182714D02*
X123164285Y-93849380D01*
X122926190Y-92801761D02*
X122688095Y-93516047D01*
X123307142Y-93516047D01*
X140803333Y-105167380D02*
X140470000Y-104691190D01*
X140231904Y-105167380D02*
X140231904Y-104167380D01*
X140612857Y-104167380D01*
X140708095Y-104215000D01*
X140755714Y-104262619D01*
X140803333Y-104357857D01*
X140803333Y-104500714D01*
X140755714Y-104595952D01*
X140708095Y-104643571D01*
X140612857Y-104691190D01*
X140231904Y-104691190D01*
X141136666Y-104167380D02*
X141755714Y-104167380D01*
X141422380Y-104548333D01*
X141565238Y-104548333D01*
X141660476Y-104595952D01*
X141708095Y-104643571D01*
X141755714Y-104738809D01*
X141755714Y-104976904D01*
X141708095Y-105072142D01*
X141660476Y-105119761D01*
X141565238Y-105167380D01*
X141279523Y-105167380D01*
X141184285Y-105119761D01*
X141136666Y-105072142D01*
X107148333Y-106497380D02*
X106815000Y-106021190D01*
X106576904Y-106497380D02*
X106576904Y-105497380D01*
X106957857Y-105497380D01*
X107053095Y-105545000D01*
X107100714Y-105592619D01*
X107148333Y-105687857D01*
X107148333Y-105830714D01*
X107100714Y-105925952D01*
X107053095Y-105973571D01*
X106957857Y-106021190D01*
X106576904Y-106021190D01*
X108053095Y-105497380D02*
X107576904Y-105497380D01*
X107529285Y-105973571D01*
X107576904Y-105925952D01*
X107672142Y-105878333D01*
X107910238Y-105878333D01*
X108005476Y-105925952D01*
X108053095Y-105973571D01*
X108100714Y-106068809D01*
X108100714Y-106306904D01*
X108053095Y-106402142D01*
X108005476Y-106449761D01*
X107910238Y-106497380D01*
X107672142Y-106497380D01*
X107576904Y-106449761D01*
X107529285Y-106402142D01*
X107148333Y-104497142D02*
X107100714Y-104544761D01*
X106957857Y-104592380D01*
X106862619Y-104592380D01*
X106719761Y-104544761D01*
X106624523Y-104449523D01*
X106576904Y-104354285D01*
X106529285Y-104163809D01*
X106529285Y-104020952D01*
X106576904Y-103830476D01*
X106624523Y-103735238D01*
X106719761Y-103640000D01*
X106862619Y-103592380D01*
X106957857Y-103592380D01*
X107100714Y-103640000D01*
X107148333Y-103687619D01*
X108005476Y-103925714D02*
X108005476Y-104592380D01*
X107767380Y-103544761D02*
X107529285Y-104259047D01*
X108148333Y-104259047D01*
X135723333Y-124912380D02*
X135390000Y-124436190D01*
X135151904Y-124912380D02*
X135151904Y-123912380D01*
X135532857Y-123912380D01*
X135628095Y-123960000D01*
X135675714Y-124007619D01*
X135723333Y-124102857D01*
X135723333Y-124245714D01*
X135675714Y-124340952D01*
X135628095Y-124388571D01*
X135532857Y-124436190D01*
X135151904Y-124436190D01*
X136580476Y-123912380D02*
X136390000Y-123912380D01*
X136294761Y-123960000D01*
X136247142Y-124007619D01*
X136151904Y-124150476D01*
X136104285Y-124340952D01*
X136104285Y-124721904D01*
X136151904Y-124817142D01*
X136199523Y-124864761D01*
X136294761Y-124912380D01*
X136485238Y-124912380D01*
X136580476Y-124864761D01*
X136628095Y-124817142D01*
X136675714Y-124721904D01*
X136675714Y-124483809D01*
X136628095Y-124388571D01*
X136580476Y-124340952D01*
X136485238Y-124293333D01*
X136294761Y-124293333D01*
X136199523Y-124340952D01*
X136151904Y-124388571D01*
X136104285Y-124483809D01*
X149766666Y-105891980D02*
X149766666Y-106606266D01*
X149719047Y-106749123D01*
X149623809Y-106844361D01*
X149480952Y-106891980D01*
X149385714Y-106891980D01*
X150766666Y-106891980D02*
X150195238Y-106891980D01*
X150480952Y-106891980D02*
X150480952Y-105891980D01*
X150385714Y-106034838D01*
X150290476Y-106130076D01*
X150195238Y-106177695D01*
X102957142Y-125000380D02*
X102623809Y-124524190D01*
X102385714Y-125000380D02*
X102385714Y-124000380D01*
X102766666Y-124000380D01*
X102861904Y-124048000D01*
X102909523Y-124095619D01*
X102957142Y-124190857D01*
X102957142Y-124333714D01*
X102909523Y-124428952D01*
X102861904Y-124476571D01*
X102766666Y-124524190D01*
X102385714Y-124524190D01*
X103909523Y-125000380D02*
X103338095Y-125000380D01*
X103623809Y-125000380D02*
X103623809Y-124000380D01*
X103528571Y-124143238D01*
X103433333Y-124238476D01*
X103338095Y-124286095D01*
X104528571Y-124000380D02*
X104623809Y-124000380D01*
X104719047Y-124048000D01*
X104766666Y-124095619D01*
X104814285Y-124190857D01*
X104861904Y-124381333D01*
X104861904Y-124619428D01*
X104814285Y-124809904D01*
X104766666Y-124905142D01*
X104719047Y-124952761D01*
X104623809Y-125000380D01*
X104528571Y-125000380D01*
X104433333Y-124952761D01*
X104385714Y-124905142D01*
X104338095Y-124809904D01*
X104290476Y-124619428D01*
X104290476Y-124381333D01*
X104338095Y-124190857D01*
X104385714Y-124095619D01*
X104433333Y-124048000D01*
X104528571Y-124000380D01*
X112228333Y-110212142D02*
X112180714Y-110259761D01*
X112037857Y-110307380D01*
X111942619Y-110307380D01*
X111799761Y-110259761D01*
X111704523Y-110164523D01*
X111656904Y-110069285D01*
X111609285Y-109878809D01*
X111609285Y-109735952D01*
X111656904Y-109545476D01*
X111704523Y-109450238D01*
X111799761Y-109355000D01*
X111942619Y-109307380D01*
X112037857Y-109307380D01*
X112180714Y-109355000D01*
X112228333Y-109402619D01*
X113180714Y-110307380D02*
X112609285Y-110307380D01*
X112895000Y-110307380D02*
X112895000Y-109307380D01*
X112799761Y-109450238D01*
X112704523Y-109545476D01*
X112609285Y-109593095D01*
X106560952Y-124970380D02*
X106084761Y-124970380D01*
X106084761Y-123970380D01*
X106894285Y-124446571D02*
X107227619Y-124446571D01*
X107370476Y-124970380D02*
X106894285Y-124970380D01*
X106894285Y-123970380D01*
X107370476Y-123970380D01*
X107799047Y-124970380D02*
X107799047Y-123970380D01*
X108037142Y-123970380D01*
X108180000Y-124018000D01*
X108275238Y-124113238D01*
X108322857Y-124208476D01*
X108370476Y-124398952D01*
X108370476Y-124541809D01*
X108322857Y-124732285D01*
X108275238Y-124827523D01*
X108180000Y-124922761D01*
X108037142Y-124970380D01*
X107799047Y-124970380D01*
X109322857Y-124970380D02*
X108751428Y-124970380D01*
X109037142Y-124970380D02*
X109037142Y-123970380D01*
X108941904Y-124113238D01*
X108846666Y-124208476D01*
X108751428Y-124256095D01*
X135723333Y-128722380D02*
X135390000Y-128246190D01*
X135151904Y-128722380D02*
X135151904Y-127722380D01*
X135532857Y-127722380D01*
X135628095Y-127770000D01*
X135675714Y-127817619D01*
X135723333Y-127912857D01*
X135723333Y-128055714D01*
X135675714Y-128150952D01*
X135628095Y-128198571D01*
X135532857Y-128246190D01*
X135151904Y-128246190D01*
X136580476Y-128055714D02*
X136580476Y-128722380D01*
X136342380Y-127674761D02*
X136104285Y-128389047D01*
X136723333Y-128389047D01*
X135723333Y-98242380D02*
X135390000Y-97766190D01*
X135151904Y-98242380D02*
X135151904Y-97242380D01*
X135532857Y-97242380D01*
X135628095Y-97290000D01*
X135675714Y-97337619D01*
X135723333Y-97432857D01*
X135723333Y-97575714D01*
X135675714Y-97670952D01*
X135628095Y-97718571D01*
X135532857Y-97766190D01*
X135151904Y-97766190D01*
X136199523Y-98242380D02*
X136390000Y-98242380D01*
X136485238Y-98194761D01*
X136532857Y-98147142D01*
X136628095Y-98004285D01*
X136675714Y-97813809D01*
X136675714Y-97432857D01*
X136628095Y-97337619D01*
X136580476Y-97290000D01*
X136485238Y-97242380D01*
X136294761Y-97242380D01*
X136199523Y-97290000D01*
X136151904Y-97337619D01*
X136104285Y-97432857D01*
X136104285Y-97670952D01*
X136151904Y-97766190D01*
X136199523Y-97813809D01*
X136294761Y-97861428D01*
X136485238Y-97861428D01*
X136580476Y-97813809D01*
X136628095Y-97766190D01*
X136675714Y-97670952D01*
D15*
X121210238Y-115861523D02*
X121210238Y-114591523D01*
X122540714Y-115740571D02*
X122480238Y-115801047D01*
X122298809Y-115861523D01*
X122177857Y-115861523D01*
X121996428Y-115801047D01*
X121875476Y-115680095D01*
X121815000Y-115559142D01*
X121754523Y-115317238D01*
X121754523Y-115135809D01*
X121815000Y-114893904D01*
X121875476Y-114772952D01*
X121996428Y-114652000D01*
X122177857Y-114591523D01*
X122298809Y-114591523D01*
X122480238Y-114652000D01*
X122540714Y-114712476D01*
X123750238Y-115861523D02*
X123024523Y-115861523D01*
X123387380Y-115861523D02*
X123387380Y-114591523D01*
X123266428Y-114772952D01*
X123145476Y-114893904D01*
X123024523Y-114954380D01*
D14*
X115403333Y-114117380D02*
X115070000Y-113641190D01*
X114831904Y-114117380D02*
X114831904Y-113117380D01*
X115212857Y-113117380D01*
X115308095Y-113165000D01*
X115355714Y-113212619D01*
X115403333Y-113307857D01*
X115403333Y-113450714D01*
X115355714Y-113545952D01*
X115308095Y-113593571D01*
X115212857Y-113641190D01*
X114831904Y-113641190D01*
X116355714Y-114117380D02*
X115784285Y-114117380D01*
X116070000Y-114117380D02*
X116070000Y-113117380D01*
X115974761Y-113260238D01*
X115879523Y-113355476D01*
X115784285Y-113403095D01*
X140803333Y-103322380D02*
X140470000Y-102846190D01*
X140231904Y-103322380D02*
X140231904Y-102322380D01*
X140612857Y-102322380D01*
X140708095Y-102370000D01*
X140755714Y-102417619D01*
X140803333Y-102512857D01*
X140803333Y-102655714D01*
X140755714Y-102750952D01*
X140708095Y-102798571D01*
X140612857Y-102846190D01*
X140231904Y-102846190D01*
X141184285Y-102417619D02*
X141231904Y-102370000D01*
X141327142Y-102322380D01*
X141565238Y-102322380D01*
X141660476Y-102370000D01*
X141708095Y-102417619D01*
X141755714Y-102512857D01*
X141755714Y-102608095D01*
X141708095Y-102750952D01*
X141136666Y-103322380D01*
X141755714Y-103322380D01*
X135723333Y-126722142D02*
X135675714Y-126769761D01*
X135532857Y-126817380D01*
X135437619Y-126817380D01*
X135294761Y-126769761D01*
X135199523Y-126674523D01*
X135151904Y-126579285D01*
X135104285Y-126388809D01*
X135104285Y-126245952D01*
X135151904Y-126055476D01*
X135199523Y-125960238D01*
X135294761Y-125865000D01*
X135437619Y-125817380D01*
X135532857Y-125817380D01*
X135675714Y-125865000D01*
X135723333Y-125912619D01*
X136056666Y-125817380D02*
X136675714Y-125817380D01*
X136342380Y-126198333D01*
X136485238Y-126198333D01*
X136580476Y-126245952D01*
X136628095Y-126293571D01*
X136675714Y-126388809D01*
X136675714Y-126626904D01*
X136628095Y-126722142D01*
X136580476Y-126769761D01*
X136485238Y-126817380D01*
X136199523Y-126817380D01*
X136104285Y-126769761D01*
X136056666Y-126722142D01*
X135723333Y-102052380D02*
X135390000Y-101576190D01*
X135151904Y-102052380D02*
X135151904Y-101052380D01*
X135532857Y-101052380D01*
X135628095Y-101100000D01*
X135675714Y-101147619D01*
X135723333Y-101242857D01*
X135723333Y-101385714D01*
X135675714Y-101480952D01*
X135628095Y-101528571D01*
X135532857Y-101576190D01*
X135151904Y-101576190D01*
X136056666Y-101052380D02*
X136723333Y-101052380D01*
X136294761Y-102052380D01*
X107148333Y-102687380D02*
X106815000Y-102211190D01*
X106576904Y-102687380D02*
X106576904Y-101687380D01*
X106957857Y-101687380D01*
X107053095Y-101735000D01*
X107100714Y-101782619D01*
X107148333Y-101877857D01*
X107148333Y-102020714D01*
X107100714Y-102115952D01*
X107053095Y-102163571D01*
X106957857Y-102211190D01*
X106576904Y-102211190D01*
X107719761Y-102115952D02*
X107624523Y-102068333D01*
X107576904Y-102020714D01*
X107529285Y-101925476D01*
X107529285Y-101877857D01*
X107576904Y-101782619D01*
X107624523Y-101735000D01*
X107719761Y-101687380D01*
X107910238Y-101687380D01*
X108005476Y-101735000D01*
X108053095Y-101782619D01*
X108100714Y-101877857D01*
X108100714Y-101925476D01*
X108053095Y-102020714D01*
X108005476Y-102068333D01*
X107910238Y-102115952D01*
X107719761Y-102115952D01*
X107624523Y-102163571D01*
X107576904Y-102211190D01*
X107529285Y-102306428D01*
X107529285Y-102496904D01*
X107576904Y-102592142D01*
X107624523Y-102639761D01*
X107719761Y-102687380D01*
X107910238Y-102687380D01*
X108005476Y-102639761D01*
X108053095Y-102592142D01*
X108100714Y-102496904D01*
X108100714Y-102306428D01*
X108053095Y-102211190D01*
X108005476Y-102163571D01*
X107910238Y-102115952D01*
X135723333Y-100052142D02*
X135675714Y-100099761D01*
X135532857Y-100147380D01*
X135437619Y-100147380D01*
X135294761Y-100099761D01*
X135199523Y-100004523D01*
X135151904Y-99909285D01*
X135104285Y-99718809D01*
X135104285Y-99575952D01*
X135151904Y-99385476D01*
X135199523Y-99290238D01*
X135294761Y-99195000D01*
X135437619Y-99147380D01*
X135532857Y-99147380D01*
X135675714Y-99195000D01*
X135723333Y-99242619D01*
X136628095Y-99147380D02*
X136151904Y-99147380D01*
X136104285Y-99623571D01*
X136151904Y-99575952D01*
X136247142Y-99528333D01*
X136485238Y-99528333D01*
X136580476Y-99575952D01*
X136628095Y-99623571D01*
X136675714Y-99718809D01*
X136675714Y-99956904D01*
X136628095Y-100052142D01*
X136580476Y-100099761D01*
X136485238Y-100147380D01*
X136247142Y-100147380D01*
X136151904Y-100099761D01*
X136104285Y-100052142D01*
X127032380Y-139491333D02*
X127746666Y-139491333D01*
X127889523Y-139538952D01*
X127984761Y-139634190D01*
X128032380Y-139777047D01*
X128032380Y-139872285D01*
X127127619Y-139062761D02*
X127080000Y-139015142D01*
X127032380Y-138919904D01*
X127032380Y-138681809D01*
X127080000Y-138586571D01*
X127127619Y-138538952D01*
X127222857Y-138491333D01*
X127318095Y-138491333D01*
X127460952Y-138538952D01*
X128032380Y-139110380D01*
X128032380Y-138491333D01*
X140803333Y-101322142D02*
X140755714Y-101369761D01*
X140612857Y-101417380D01*
X140517619Y-101417380D01*
X140374761Y-101369761D01*
X140279523Y-101274523D01*
X140231904Y-101179285D01*
X140184285Y-100988809D01*
X140184285Y-100845952D01*
X140231904Y-100655476D01*
X140279523Y-100560238D01*
X140374761Y-100465000D01*
X140517619Y-100417380D01*
X140612857Y-100417380D01*
X140755714Y-100465000D01*
X140803333Y-100512619D01*
X141184285Y-100512619D02*
X141231904Y-100465000D01*
X141327142Y-100417380D01*
X141565238Y-100417380D01*
X141660476Y-100465000D01*
X141708095Y-100512619D01*
X141755714Y-100607857D01*
X141755714Y-100703095D01*
X141708095Y-100845952D01*
X141136666Y-101417380D01*
X141755714Y-101417380D01*
M02*
