M48
; DRILL file {KiCad (5.1.9)-1} date 07/28/21 09:13:28
; FORMAT={-:-/ absolute / inch / decimal}
; #@! TF.CreationDate,2021-07-28T09:13:28+02:00
; #@! TF.GenerationSoftware,Kicad,Pcbnew,(5.1.9)-1
; #@! TF.FileFunction,Plated,1,2,PTH
FMAT,2
INCH
T1C0.0157
T2C0.0315
T3C0.0394
T4C0.0472
%
G90
G05
T1
X4.25Y-4.1
X4.35Y-4.225
X4.3894Y-4.025
X4.45Y-5.32
X4.475Y-4.325
X4.54Y-4.57
X4.5523Y-4.4577
X4.6526Y-4.3026
X4.68Y-5.32
X4.725Y-4.35
X4.7402Y-4.47
X4.76Y-4.68
X4.89Y-4.66
X4.95Y-4.78
X5.0174Y-4.4
X5.0354Y-4.66
X5.12Y-4.81
X5.2152Y-4.7698
X5.25Y-4.2
X5.3Y-3.925
X5.31Y-4.98
X5.32Y-4.0
X5.3485Y-4.2
X5.38Y-3.96
X5.38Y-4.05
X5.595Y-3.975
X5.63Y-4.89
X5.75Y-4.8315
T2
X4.1329Y-4.2589
X4.1329Y-4.81
X4.8209Y-3.7515
X4.8209Y-4.3026
X4.8209Y-4.7751
X4.8209Y-5.3263
X5.5128Y-4.2579
X5.5128Y-4.8091
T3
X5.9094Y-4.2823
X5.9094Y-4.3823
X5.9094Y-4.4823
X5.9094Y-4.5823
X5.9094Y-4.6823
X5.9094Y-4.7823
T4
X3.8868Y-4.436
X3.8868Y-4.6329
X4.3789Y-4.436
X4.3789Y-4.6329
X4.5748Y-3.9286
X4.5748Y-4.1255
X4.5748Y-4.9522
X4.5748Y-5.1491
X5.0669Y-3.9286
X5.0669Y-4.1255
X5.0669Y-4.9522
X5.0669Y-5.1491
X5.2667Y-4.435
X5.2667Y-4.6319
X5.7589Y-4.435
X5.7589Y-4.6319
T0
M30
