M48
INCH,TZ
T1C0.0118
T2C0.0157
T3C0.0256
T4C0.0276
T5C0.0315
T6C0.0394
%
G90
G05
T1
X42000Y-37400
X42000Y-37800
X53800Y-35000
X53800Y-35300
X53800Y-35600
X54100Y-35000
X54100Y-35300
X54100Y-35600
X54400Y-35000
X54400Y-35300
X54400Y-35600
T2
X35500Y-30500
X35500Y-31500
X35800Y-29500
X36700Y-27700
X36800Y-31900
X37500Y-35000
X40500Y-31900
X40688Y-27688
X40700Y-36200
X40800Y-39700
X40900Y-35500
X41000Y-28000
X41200Y-39900
X41300Y-33600
X41300Y-31700
X42000Y-28000
X42000Y-31600
X42000Y-37000
X42600Y-29900
X42600Y-39565
X43000Y-36300
X43209Y-41298
X43900Y-32900
X44400Y-36700
X44500Y-31000
X44600Y-34500
X44600Y-38900
X44719Y-39819
X44900Y-36600
X44900Y-37200
X45200Y-38000
X45845Y-35755
X46131Y-35419
X46200Y-40200
X46300Y-38700
X46500Y-28000
X46600Y-33500
X47400Y-38900
X47500Y-36900
X47895Y-38858
X47900Y-36100
X47900Y-36800
X48196Y-38604
X48600Y-35900
X48890Y-38204
X49000Y-28000
X49298Y-34402
X49500Y-31000
X49700Y-34400
X50500Y-31000
X50700Y-37500
X50700Y-38200
X50800Y-34800
X50900Y-38800
X51000Y-35200
X51000Y-41500
X51500Y-28000
X51700Y-40100
X52000Y-34200
X52100Y-34800
X52300Y-34500
X52300Y-35392
X52400Y-35800
X52600Y-34800
X52700Y-31100
X52700Y-31500
X52700Y-35192
X52900Y-37000
X53700Y-40100
X53700Y-41000
X53840Y-33750
X54000Y-28000
X54067Y-34011
X54100Y-36800
X54500Y-41500
X54900Y-31200
X54900Y-36300
X55200Y-34600
X55361Y-35015
X55400Y-35900
X55500Y-36585
X55500Y-40000
X55524Y-35373
X55600Y-34600
X55700Y-34200
X56500Y-28000
X56600Y-34000
X56700Y-36400
X57100Y-33800
X58400Y-35500
X59000Y-28000
X59000Y-29000
X59500Y-33500
X60500Y-29500
X61000Y-31000
T5
X47600Y-31416
X47600Y-32400
X38661Y-36000
X40000Y-36000
T6
X59400Y-31500
X59400Y-32500
X56600Y-29000
X57600Y-29000
X39450Y-28200
X39450Y-29200
X39450Y-30200
X39450Y-31200
X39450Y-32200
X39450Y-33200
T3
G00X42822Y-40818
M15
G01X42822Y-40660
M16
G05
G00X44728Y-40818
M15
G01X44728Y-40660
M16
G05
T4
G00X42397Y-42018
M15
G01X42397Y-41822
M16
G05
G00X45153Y-42018
M15
G01X45153Y-41822
M16
G05
T0
M30
