M48
INCH,TZ
T1C0.0157
T2C0.0378
T3C0.0394
%
G90
G05
T1
X35428Y-30642
X36428Y-32442
X36528Y-28842
X37528Y-31642
X37628Y-26942
X37628Y-29842
X37628Y-34742
X38828Y-24842
X38828Y-36742
X39028Y-34442
X39178Y-29192
X39228Y-32342
X39628Y-26842
X40028Y-38842
X40128Y-22742
X40828Y-40342
X40928Y-21292
X40928Y-35342
X41128Y-24342
X41128Y-25842
X41278Y-36742
X41628Y-31592
X41828Y-19442
X41828Y-41942
X42028Y-28742
X42078Y-22842
X42178Y-34342
X42428Y-27042
X42428Y-29742
X42628Y-38042
X42728Y-25142
X43278Y-20942
X43678Y-39692
X43828Y-41942
X44028Y-25242
X44028Y-30842
X44078Y-27016
X44428Y-37392
X44528Y-26042
X44528Y-26742
X44528Y-28042
X44578Y-24542
X44628Y-23742
X44678Y-22042
X44678Y-34892
X44705Y-29442
X44828Y-19442
X45094Y-33408
X45112Y-29837
X45128Y-26821
X45178Y-28042
X45198Y-31365
X45428Y-26242
X45428Y-40542
X45628Y-21442
X45828Y-24342
X45828Y-28792
X45828Y-41942
X45883Y-34092
X45928Y-38692
X46028Y-20642
X46028Y-35692
X46128Y-26342
X46128Y-29242
X46228Y-30292
X46278Y-34142
X46328Y-32942
X46528Y-24242
X46578Y-33842
X46578Y-38042
X46628Y-21547
X46828Y-28542
X47128Y-20642
X47128Y-22842
X47128Y-37642
X47228Y-30492
X47728Y-21242
X47828Y-19442
X47828Y-24547
X47828Y-32342
X47862Y-35776
X47928Y-37392
X48228Y-26242
X48328Y-23442
X48528Y-36392
X48628Y-38942
X48656Y-35842
X48728Y-35142
X48728Y-38142
X48828Y-34692
X48928Y-38742
X49128Y-38442
X49178Y-29742
X49279Y-32891
X49428Y-31742
X49528Y-26692
X49528Y-33592
X49528Y-37542
X49628Y-20792
X49828Y-29342
X49878Y-31742
X50028Y-37842
X50328Y-23442
X50328Y-28842
X50328Y-32242
X50828Y-19442
X50828Y-41942
X50878Y-35592
X50928Y-32442
X50928Y-39942
X51028Y-28092
X51028Y-28442
X51178Y-23442
X51228Y-34242
X51428Y-36292
X51433Y-35159
X51528Y-32942
X51678Y-26942
X51678Y-30642
X51728Y-30192
X51828Y-25092
X51928Y-35642
X51978Y-28342
X52278Y-26292
X52328Y-38892
X52428Y-34442
X52728Y-27142
X52728Y-31192
X52828Y-32942
X52828Y-41942
X52878Y-20842
X53178Y-35042
X53228Y-23042
X53328Y-33242
X53328Y-40642
X53428Y-25542
X53428Y-37742
X53478Y-24292
X53578Y-34692
X53828Y-19442
X53928Y-27142
X54028Y-35642
X54128Y-34242
X54128Y-39142
X54528Y-33792
X54728Y-26042
X54828Y-41942
X54978Y-29892
X55028Y-23042
X55078Y-30442
X55128Y-33242
X55328Y-20942
X55428Y-25042
X55728Y-37942
X55828Y-39842
X55928Y-34242
X55928Y-35542
X56528Y-23042
X56828Y-29142
X56928Y-26392
X56928Y-32892
X57028Y-37742
X57428Y-30492
X57528Y-24542
X57628Y-27792
X58428Y-26142
X58428Y-35342
X58678Y-31542
X59628Y-28242
X59828Y-32842
X60828Y-30542
T2
X48228Y-30892
T3
X40628Y-28242
X40628Y-29242
X40628Y-30242
X40628Y-31242
X40628Y-32242
X40628Y-33242
T0
M30
