G04 #@! TF.GenerationSoftware,KiCad,Pcbnew,(5.1.4)-1*
G04 #@! TF.CreationDate,2019-11-25T22:33:41+01:00*
G04 #@! TF.ProjectId,STEM,5354454d-2e6b-4696-9361-645f70636258,A*
G04 #@! TF.SameCoordinates,Original*
G04 #@! TF.FileFunction,Legend,Top*
G04 #@! TF.FilePolarity,Positive*
%FSLAX46Y46*%
G04 Gerber Fmt 4.6, Leading zero omitted, Abs format (unit mm)*
G04 Created by KiCad (PCBNEW (5.1.4)-1) date 2019-11-25 22:33:41*
%MOMM*%
%LPD*%
G04 APERTURE LIST*
%ADD10C,0.125000*%
%ADD11C,0.100000*%
%ADD12C,0.120000*%
%ADD13C,0.010000*%
%ADD14C,0.200000*%
%ADD15C,0.254000*%
%ADD16C,0.150000*%
G04 APERTURE END LIST*
D10*
X124420952Y-135924190D02*
X124730476Y-135924190D01*
X124563809Y-136114666D01*
X124635238Y-136114666D01*
X124682857Y-136138476D01*
X124706666Y-136162285D01*
X124730476Y-136209904D01*
X124730476Y-136328952D01*
X124706666Y-136376571D01*
X124682857Y-136400380D01*
X124635238Y-136424190D01*
X124492380Y-136424190D01*
X124444761Y-136400380D01*
X124420952Y-136376571D01*
X124873333Y-135924190D02*
X125040000Y-136424190D01*
X125206666Y-135924190D01*
X125325714Y-135924190D02*
X125635238Y-135924190D01*
X125468571Y-136114666D01*
X125540000Y-136114666D01*
X125587619Y-136138476D01*
X125611428Y-136162285D01*
X125635238Y-136209904D01*
X125635238Y-136328952D01*
X125611428Y-136376571D01*
X125587619Y-136400380D01*
X125540000Y-136424190D01*
X125397142Y-136424190D01*
X125349523Y-136400380D01*
X125325714Y-136376571D01*
X122129047Y-135898000D02*
X122081428Y-135874190D01*
X122010000Y-135874190D01*
X121938571Y-135898000D01*
X121890952Y-135945619D01*
X121867142Y-135993238D01*
X121843333Y-136088476D01*
X121843333Y-136159904D01*
X121867142Y-136255142D01*
X121890952Y-136302761D01*
X121938571Y-136350380D01*
X122010000Y-136374190D01*
X122057619Y-136374190D01*
X122129047Y-136350380D01*
X122152857Y-136326571D01*
X122152857Y-136159904D01*
X122057619Y-136159904D01*
X122367142Y-136374190D02*
X122367142Y-135874190D01*
X122652857Y-136374190D01*
X122652857Y-135874190D01*
X122890952Y-136374190D02*
X122890952Y-135874190D01*
X123010000Y-135874190D01*
X123081428Y-135898000D01*
X123129047Y-135945619D01*
X123152857Y-135993238D01*
X123176666Y-136088476D01*
X123176666Y-136159904D01*
X123152857Y-136255142D01*
X123129047Y-136302761D01*
X123081428Y-136350380D01*
X123010000Y-136374190D01*
X122890952Y-136374190D01*
X119497619Y-136384190D02*
X119497619Y-135884190D01*
X119735714Y-136384190D02*
X119735714Y-135884190D01*
X120021428Y-136384190D01*
X120021428Y-135884190D01*
X120188095Y-135884190D02*
X120473809Y-135884190D01*
X120330952Y-136384190D02*
X120330952Y-135884190D01*
D11*
G36*
X145515000Y-108748000D02*
G01*
X143610000Y-107478000D01*
X143610000Y-110018000D01*
X145515000Y-108748000D01*
G37*
X145515000Y-108748000D02*
X143610000Y-107478000D01*
X143610000Y-110018000D01*
X145515000Y-108748000D01*
D12*
X146090000Y-107418000D02*
X147420000Y-107418000D01*
X146090000Y-108748000D02*
X146090000Y-107418000D01*
X146090000Y-110018000D02*
X148750000Y-110018000D01*
X148750000Y-110018000D02*
X148750000Y-122778000D01*
X146090000Y-110018000D02*
X146090000Y-122778000D01*
X146090000Y-122778000D02*
X148750000Y-122778000D01*
D13*
G36*
X114065034Y-87589558D02*
G01*
X114070300Y-87598242D01*
X114077266Y-87611870D01*
X114079980Y-87617228D01*
X114100637Y-87659841D01*
X114121384Y-87706800D01*
X114142322Y-87758396D01*
X114163552Y-87814919D01*
X114185176Y-87876659D01*
X114207295Y-87943909D01*
X114230011Y-88016957D01*
X114253425Y-88096096D01*
X114277637Y-88181615D01*
X114281045Y-88193927D01*
X114288045Y-88219489D01*
X114294420Y-88243167D01*
X114299950Y-88264113D01*
X114304417Y-88281483D01*
X114307601Y-88294432D01*
X114309283Y-88302113D01*
X114309493Y-88303687D01*
X114307989Y-88308355D01*
X114303743Y-88318189D01*
X114297154Y-88332351D01*
X114288620Y-88350007D01*
X114278539Y-88370319D01*
X114267310Y-88392452D01*
X114265779Y-88395433D01*
X114251936Y-88422541D01*
X114237098Y-88451950D01*
X114221102Y-88484003D01*
X114203779Y-88519043D01*
X114184966Y-88557411D01*
X114164494Y-88599449D01*
X114142200Y-88645500D01*
X114117916Y-88695904D01*
X114091477Y-88751006D01*
X114062716Y-88811146D01*
X114031469Y-88876666D01*
X113997568Y-88947909D01*
X113989559Y-88964760D01*
X113944495Y-89059333D01*
X113901977Y-89148011D01*
X113861841Y-89231107D01*
X113823922Y-89308932D01*
X113788056Y-89381798D01*
X113754079Y-89450019D01*
X113721826Y-89513907D01*
X113691133Y-89573773D01*
X113661837Y-89629931D01*
X113633772Y-89682692D01*
X113606775Y-89732369D01*
X113580681Y-89779274D01*
X113555326Y-89823720D01*
X113530545Y-89866019D01*
X113506175Y-89906483D01*
X113482051Y-89945424D01*
X113458010Y-89983156D01*
X113437439Y-90014626D01*
X113421029Y-90039145D01*
X113404379Y-90063480D01*
X113387916Y-90087051D01*
X113372071Y-90109278D01*
X113357275Y-90129582D01*
X113343957Y-90147382D01*
X113332547Y-90162098D01*
X113323475Y-90173151D01*
X113317171Y-90179961D01*
X113314065Y-90181948D01*
X113313813Y-90181351D01*
X113314931Y-90177888D01*
X113318016Y-90169202D01*
X113322661Y-90156416D01*
X113328460Y-90140649D01*
X113331964Y-90131197D01*
X113344073Y-90098058D01*
X113356111Y-90063944D01*
X113368157Y-90028561D01*
X113380289Y-89991616D01*
X113392587Y-89952815D01*
X113405129Y-89911864D01*
X113417994Y-89868469D01*
X113431262Y-89822337D01*
X113445011Y-89773175D01*
X113459319Y-89720688D01*
X113474267Y-89664583D01*
X113489933Y-89604566D01*
X113506395Y-89540344D01*
X113523733Y-89471623D01*
X113542026Y-89398109D01*
X113561353Y-89319508D01*
X113581792Y-89235528D01*
X113603423Y-89145873D01*
X113626324Y-89050251D01*
X113650574Y-88948369D01*
X113655925Y-88925813D01*
X113673753Y-88850893D01*
X113691388Y-88777300D01*
X113708697Y-88705574D01*
X113725546Y-88636256D01*
X113741802Y-88569886D01*
X113757331Y-88507007D01*
X113772000Y-88448158D01*
X113785676Y-88393880D01*
X113798224Y-88344715D01*
X113809512Y-88301203D01*
X113817183Y-88272186D01*
X113843786Y-88174582D01*
X113869693Y-88083658D01*
X113894924Y-87999360D01*
X113919496Y-87921631D01*
X113943429Y-87850418D01*
X113966740Y-87785665D01*
X113989449Y-87727317D01*
X114011574Y-87675318D01*
X114033133Y-87629614D01*
X114034987Y-87625925D01*
X114044274Y-87607475D01*
X114051087Y-87594774D01*
X114056262Y-87587662D01*
X114060632Y-87585977D01*
X114065034Y-87589558D01*
X114065034Y-87589558D01*
G37*
X114065034Y-87589558D02*
X114070300Y-87598242D01*
X114077266Y-87611870D01*
X114079980Y-87617228D01*
X114100637Y-87659841D01*
X114121384Y-87706800D01*
X114142322Y-87758396D01*
X114163552Y-87814919D01*
X114185176Y-87876659D01*
X114207295Y-87943909D01*
X114230011Y-88016957D01*
X114253425Y-88096096D01*
X114277637Y-88181615D01*
X114281045Y-88193927D01*
X114288045Y-88219489D01*
X114294420Y-88243167D01*
X114299950Y-88264113D01*
X114304417Y-88281483D01*
X114307601Y-88294432D01*
X114309283Y-88302113D01*
X114309493Y-88303687D01*
X114307989Y-88308355D01*
X114303743Y-88318189D01*
X114297154Y-88332351D01*
X114288620Y-88350007D01*
X114278539Y-88370319D01*
X114267310Y-88392452D01*
X114265779Y-88395433D01*
X114251936Y-88422541D01*
X114237098Y-88451950D01*
X114221102Y-88484003D01*
X114203779Y-88519043D01*
X114184966Y-88557411D01*
X114164494Y-88599449D01*
X114142200Y-88645500D01*
X114117916Y-88695904D01*
X114091477Y-88751006D01*
X114062716Y-88811146D01*
X114031469Y-88876666D01*
X113997568Y-88947909D01*
X113989559Y-88964760D01*
X113944495Y-89059333D01*
X113901977Y-89148011D01*
X113861841Y-89231107D01*
X113823922Y-89308932D01*
X113788056Y-89381798D01*
X113754079Y-89450019D01*
X113721826Y-89513907D01*
X113691133Y-89573773D01*
X113661837Y-89629931D01*
X113633772Y-89682692D01*
X113606775Y-89732369D01*
X113580681Y-89779274D01*
X113555326Y-89823720D01*
X113530545Y-89866019D01*
X113506175Y-89906483D01*
X113482051Y-89945424D01*
X113458010Y-89983156D01*
X113437439Y-90014626D01*
X113421029Y-90039145D01*
X113404379Y-90063480D01*
X113387916Y-90087051D01*
X113372071Y-90109278D01*
X113357275Y-90129582D01*
X113343957Y-90147382D01*
X113332547Y-90162098D01*
X113323475Y-90173151D01*
X113317171Y-90179961D01*
X113314065Y-90181948D01*
X113313813Y-90181351D01*
X113314931Y-90177888D01*
X113318016Y-90169202D01*
X113322661Y-90156416D01*
X113328460Y-90140649D01*
X113331964Y-90131197D01*
X113344073Y-90098058D01*
X113356111Y-90063944D01*
X113368157Y-90028561D01*
X113380289Y-89991616D01*
X113392587Y-89952815D01*
X113405129Y-89911864D01*
X113417994Y-89868469D01*
X113431262Y-89822337D01*
X113445011Y-89773175D01*
X113459319Y-89720688D01*
X113474267Y-89664583D01*
X113489933Y-89604566D01*
X113506395Y-89540344D01*
X113523733Y-89471623D01*
X113542026Y-89398109D01*
X113561353Y-89319508D01*
X113581792Y-89235528D01*
X113603423Y-89145873D01*
X113626324Y-89050251D01*
X113650574Y-88948369D01*
X113655925Y-88925813D01*
X113673753Y-88850893D01*
X113691388Y-88777300D01*
X113708697Y-88705574D01*
X113725546Y-88636256D01*
X113741802Y-88569886D01*
X113757331Y-88507007D01*
X113772000Y-88448158D01*
X113785676Y-88393880D01*
X113798224Y-88344715D01*
X113809512Y-88301203D01*
X113817183Y-88272186D01*
X113843786Y-88174582D01*
X113869693Y-88083658D01*
X113894924Y-87999360D01*
X113919496Y-87921631D01*
X113943429Y-87850418D01*
X113966740Y-87785665D01*
X113989449Y-87727317D01*
X114011574Y-87675318D01*
X114033133Y-87629614D01*
X114034987Y-87625925D01*
X114044274Y-87607475D01*
X114051087Y-87594774D01*
X114056262Y-87587662D01*
X114060632Y-87585977D01*
X114065034Y-87589558D01*
G36*
X111785810Y-87584268D02*
G01*
X111790674Y-87592552D01*
X111797362Y-87605262D01*
X111805450Y-87621496D01*
X111814510Y-87640358D01*
X111824119Y-87660947D01*
X111833849Y-87682364D01*
X111843277Y-87703711D01*
X111851975Y-87724089D01*
X111859316Y-87742086D01*
X111872710Y-87776535D01*
X111885933Y-87811831D01*
X111899068Y-87848276D01*
X111912198Y-87886174D01*
X111925406Y-87925826D01*
X111938777Y-87967533D01*
X111952393Y-88011598D01*
X111966338Y-88058322D01*
X111980694Y-88108007D01*
X111995547Y-88160957D01*
X112010978Y-88217471D01*
X112027072Y-88277852D01*
X112043911Y-88342403D01*
X112061580Y-88411425D01*
X112080160Y-88485220D01*
X112099737Y-88564090D01*
X112120393Y-88648336D01*
X112142212Y-88738262D01*
X112165277Y-88834168D01*
X112189671Y-88936357D01*
X112192802Y-88949520D01*
X112214817Y-89041926D01*
X112235443Y-89128099D01*
X112254778Y-89208414D01*
X112272917Y-89283246D01*
X112289959Y-89352971D01*
X112305999Y-89417963D01*
X112321135Y-89478599D01*
X112335464Y-89535253D01*
X112349082Y-89588300D01*
X112362086Y-89638116D01*
X112374574Y-89685075D01*
X112386642Y-89729554D01*
X112398387Y-89771928D01*
X112409906Y-89812570D01*
X112421296Y-89851858D01*
X112432654Y-89890166D01*
X112444076Y-89927869D01*
X112452498Y-89955183D01*
X112461500Y-89983723D01*
X112471238Y-90013807D01*
X112481340Y-90044344D01*
X112491433Y-90074245D01*
X112501142Y-90102419D01*
X112510097Y-90127777D01*
X112517923Y-90149229D01*
X112524247Y-90165685D01*
X112526047Y-90170086D01*
X112529147Y-90178522D01*
X112530334Y-90183944D01*
X112530154Y-90184734D01*
X112527789Y-90182605D01*
X112522050Y-90175828D01*
X112513579Y-90165211D01*
X112503019Y-90151558D01*
X112491011Y-90135678D01*
X112489952Y-90134261D01*
X112464810Y-90100047D01*
X112439853Y-90064911D01*
X112414932Y-90028580D01*
X112389899Y-89990779D01*
X112364605Y-89951233D01*
X112338901Y-89909667D01*
X112312638Y-89865806D01*
X112285667Y-89819377D01*
X112257839Y-89770104D01*
X112229006Y-89717712D01*
X112199018Y-89661927D01*
X112167727Y-89602475D01*
X112134984Y-89539080D01*
X112100640Y-89471468D01*
X112064546Y-89399364D01*
X112026554Y-89322494D01*
X111986514Y-89240583D01*
X111944277Y-89153356D01*
X111899695Y-89060538D01*
X111852619Y-88961855D01*
X111838710Y-88932586D01*
X111817232Y-88887484D01*
X111794363Y-88839694D01*
X111770592Y-88790228D01*
X111746410Y-88740097D01*
X111722307Y-88690313D01*
X111698774Y-88641886D01*
X111676301Y-88595830D01*
X111655379Y-88553155D01*
X111636497Y-88514873D01*
X111624498Y-88490711D01*
X111531702Y-88304529D01*
X111552808Y-88226551D01*
X111579885Y-88128874D01*
X111606431Y-88037895D01*
X111632461Y-87953561D01*
X111657994Y-87875818D01*
X111683046Y-87804614D01*
X111704070Y-87748946D01*
X111710466Y-87733209D01*
X111718322Y-87714830D01*
X111727206Y-87694725D01*
X111736686Y-87673810D01*
X111746331Y-87653002D01*
X111755706Y-87633216D01*
X111764381Y-87615367D01*
X111771922Y-87600373D01*
X111777898Y-87589149D01*
X111781876Y-87582610D01*
X111783196Y-87581306D01*
X111785810Y-87584268D01*
X111785810Y-87584268D01*
G37*
X111785810Y-87584268D02*
X111790674Y-87592552D01*
X111797362Y-87605262D01*
X111805450Y-87621496D01*
X111814510Y-87640358D01*
X111824119Y-87660947D01*
X111833849Y-87682364D01*
X111843277Y-87703711D01*
X111851975Y-87724089D01*
X111859316Y-87742086D01*
X111872710Y-87776535D01*
X111885933Y-87811831D01*
X111899068Y-87848276D01*
X111912198Y-87886174D01*
X111925406Y-87925826D01*
X111938777Y-87967533D01*
X111952393Y-88011598D01*
X111966338Y-88058322D01*
X111980694Y-88108007D01*
X111995547Y-88160957D01*
X112010978Y-88217471D01*
X112027072Y-88277852D01*
X112043911Y-88342403D01*
X112061580Y-88411425D01*
X112080160Y-88485220D01*
X112099737Y-88564090D01*
X112120393Y-88648336D01*
X112142212Y-88738262D01*
X112165277Y-88834168D01*
X112189671Y-88936357D01*
X112192802Y-88949520D01*
X112214817Y-89041926D01*
X112235443Y-89128099D01*
X112254778Y-89208414D01*
X112272917Y-89283246D01*
X112289959Y-89352971D01*
X112305999Y-89417963D01*
X112321135Y-89478599D01*
X112335464Y-89535253D01*
X112349082Y-89588300D01*
X112362086Y-89638116D01*
X112374574Y-89685075D01*
X112386642Y-89729554D01*
X112398387Y-89771928D01*
X112409906Y-89812570D01*
X112421296Y-89851858D01*
X112432654Y-89890166D01*
X112444076Y-89927869D01*
X112452498Y-89955183D01*
X112461500Y-89983723D01*
X112471238Y-90013807D01*
X112481340Y-90044344D01*
X112491433Y-90074245D01*
X112501142Y-90102419D01*
X112510097Y-90127777D01*
X112517923Y-90149229D01*
X112524247Y-90165685D01*
X112526047Y-90170086D01*
X112529147Y-90178522D01*
X112530334Y-90183944D01*
X112530154Y-90184734D01*
X112527789Y-90182605D01*
X112522050Y-90175828D01*
X112513579Y-90165211D01*
X112503019Y-90151558D01*
X112491011Y-90135678D01*
X112489952Y-90134261D01*
X112464810Y-90100047D01*
X112439853Y-90064911D01*
X112414932Y-90028580D01*
X112389899Y-89990779D01*
X112364605Y-89951233D01*
X112338901Y-89909667D01*
X112312638Y-89865806D01*
X112285667Y-89819377D01*
X112257839Y-89770104D01*
X112229006Y-89717712D01*
X112199018Y-89661927D01*
X112167727Y-89602475D01*
X112134984Y-89539080D01*
X112100640Y-89471468D01*
X112064546Y-89399364D01*
X112026554Y-89322494D01*
X111986514Y-89240583D01*
X111944277Y-89153356D01*
X111899695Y-89060538D01*
X111852619Y-88961855D01*
X111838710Y-88932586D01*
X111817232Y-88887484D01*
X111794363Y-88839694D01*
X111770592Y-88790228D01*
X111746410Y-88740097D01*
X111722307Y-88690313D01*
X111698774Y-88641886D01*
X111676301Y-88595830D01*
X111655379Y-88553155D01*
X111636497Y-88514873D01*
X111624498Y-88490711D01*
X111531702Y-88304529D01*
X111552808Y-88226551D01*
X111579885Y-88128874D01*
X111606431Y-88037895D01*
X111632461Y-87953561D01*
X111657994Y-87875818D01*
X111683046Y-87804614D01*
X111704070Y-87748946D01*
X111710466Y-87733209D01*
X111718322Y-87714830D01*
X111727206Y-87694725D01*
X111736686Y-87673810D01*
X111746331Y-87653002D01*
X111755706Y-87633216D01*
X111764381Y-87615367D01*
X111771922Y-87600373D01*
X111777898Y-87589149D01*
X111781876Y-87582610D01*
X111783196Y-87581306D01*
X111785810Y-87584268D01*
G36*
X110683610Y-87463656D02*
G01*
X110719167Y-87473092D01*
X110756183Y-87488317D01*
X110795327Y-87509307D01*
X110809373Y-87517835D01*
X110852757Y-87547863D01*
X110897223Y-87584500D01*
X110942713Y-87627675D01*
X110989167Y-87677321D01*
X111036529Y-87733368D01*
X111084741Y-87795747D01*
X111133744Y-87864389D01*
X111183480Y-87939226D01*
X111233891Y-88020188D01*
X111238076Y-88027135D01*
X111276003Y-88090248D01*
X111266728Y-88122797D01*
X111256114Y-88160547D01*
X111244929Y-88201322D01*
X111233100Y-88245414D01*
X111220554Y-88293114D01*
X111207218Y-88344714D01*
X111193019Y-88400507D01*
X111177884Y-88460784D01*
X111161739Y-88525837D01*
X111144511Y-88595957D01*
X111126128Y-88671437D01*
X111106516Y-88752568D01*
X111085602Y-88839643D01*
X111063312Y-88932952D01*
X111056544Y-88961373D01*
X111033710Y-89057085D01*
X111012247Y-89146536D01*
X110992063Y-89230074D01*
X110973065Y-89308052D01*
X110955162Y-89380820D01*
X110938261Y-89448729D01*
X110922270Y-89512131D01*
X110907095Y-89571375D01*
X110892645Y-89626812D01*
X110878828Y-89678794D01*
X110865550Y-89727672D01*
X110852720Y-89773796D01*
X110840245Y-89817517D01*
X110828033Y-89859186D01*
X110815992Y-89899153D01*
X110804028Y-89937771D01*
X110792050Y-89975389D01*
X110779966Y-90012359D01*
X110779215Y-90014626D01*
X110769738Y-90042758D01*
X110759485Y-90072406D01*
X110749044Y-90101923D01*
X110739003Y-90129660D01*
X110729952Y-90153968D01*
X110723591Y-90170413D01*
X110714646Y-90192358D01*
X110704870Y-90215309D01*
X110694664Y-90238423D01*
X110684429Y-90260862D01*
X110674565Y-90281784D01*
X110665474Y-90300348D01*
X110657556Y-90315714D01*
X110651212Y-90327041D01*
X110646842Y-90333488D01*
X110645295Y-90334666D01*
X110642607Y-90331797D01*
X110637600Y-90323907D01*
X110630901Y-90312078D01*
X110623138Y-90297386D01*
X110619906Y-90291012D01*
X110605830Y-90262111D01*
X110591880Y-90231776D01*
X110577987Y-90199759D01*
X110564077Y-90165811D01*
X110550079Y-90129685D01*
X110535920Y-90091132D01*
X110521529Y-90049905D01*
X110506834Y-90005755D01*
X110491763Y-89958434D01*
X110476243Y-89907694D01*
X110460203Y-89853287D01*
X110443571Y-89794966D01*
X110426275Y-89732480D01*
X110408243Y-89665584D01*
X110389403Y-89594028D01*
X110369683Y-89517564D01*
X110349011Y-89435945D01*
X110327315Y-89348922D01*
X110304523Y-89256247D01*
X110280563Y-89157672D01*
X110255363Y-89052949D01*
X110230277Y-88947826D01*
X110205745Y-88845021D01*
X110182363Y-88747777D01*
X110160162Y-88656217D01*
X110139171Y-88570462D01*
X110119420Y-88490635D01*
X110100940Y-88416855D01*
X110083762Y-88349245D01*
X110067914Y-88287926D01*
X110053428Y-88233021D01*
X110043622Y-88196666D01*
X110014261Y-88088972D01*
X110052517Y-88025639D01*
X110102267Y-87945518D01*
X110150807Y-87871914D01*
X110198241Y-87804699D01*
X110244675Y-87743746D01*
X110290214Y-87688926D01*
X110334966Y-87640113D01*
X110379035Y-87597180D01*
X110422526Y-87559998D01*
X110463373Y-87529908D01*
X110504251Y-87504121D01*
X110542567Y-87484264D01*
X110578990Y-87470312D01*
X110614192Y-87462243D01*
X110648842Y-87460032D01*
X110683610Y-87463656D01*
X110683610Y-87463656D01*
G37*
X110683610Y-87463656D02*
X110719167Y-87473092D01*
X110756183Y-87488317D01*
X110795327Y-87509307D01*
X110809373Y-87517835D01*
X110852757Y-87547863D01*
X110897223Y-87584500D01*
X110942713Y-87627675D01*
X110989167Y-87677321D01*
X111036529Y-87733368D01*
X111084741Y-87795747D01*
X111133744Y-87864389D01*
X111183480Y-87939226D01*
X111233891Y-88020188D01*
X111238076Y-88027135D01*
X111276003Y-88090248D01*
X111266728Y-88122797D01*
X111256114Y-88160547D01*
X111244929Y-88201322D01*
X111233100Y-88245414D01*
X111220554Y-88293114D01*
X111207218Y-88344714D01*
X111193019Y-88400507D01*
X111177884Y-88460784D01*
X111161739Y-88525837D01*
X111144511Y-88595957D01*
X111126128Y-88671437D01*
X111106516Y-88752568D01*
X111085602Y-88839643D01*
X111063312Y-88932952D01*
X111056544Y-88961373D01*
X111033710Y-89057085D01*
X111012247Y-89146536D01*
X110992063Y-89230074D01*
X110973065Y-89308052D01*
X110955162Y-89380820D01*
X110938261Y-89448729D01*
X110922270Y-89512131D01*
X110907095Y-89571375D01*
X110892645Y-89626812D01*
X110878828Y-89678794D01*
X110865550Y-89727672D01*
X110852720Y-89773796D01*
X110840245Y-89817517D01*
X110828033Y-89859186D01*
X110815992Y-89899153D01*
X110804028Y-89937771D01*
X110792050Y-89975389D01*
X110779966Y-90012359D01*
X110779215Y-90014626D01*
X110769738Y-90042758D01*
X110759485Y-90072406D01*
X110749044Y-90101923D01*
X110739003Y-90129660D01*
X110729952Y-90153968D01*
X110723591Y-90170413D01*
X110714646Y-90192358D01*
X110704870Y-90215309D01*
X110694664Y-90238423D01*
X110684429Y-90260862D01*
X110674565Y-90281784D01*
X110665474Y-90300348D01*
X110657556Y-90315714D01*
X110651212Y-90327041D01*
X110646842Y-90333488D01*
X110645295Y-90334666D01*
X110642607Y-90331797D01*
X110637600Y-90323907D01*
X110630901Y-90312078D01*
X110623138Y-90297386D01*
X110619906Y-90291012D01*
X110605830Y-90262111D01*
X110591880Y-90231776D01*
X110577987Y-90199759D01*
X110564077Y-90165811D01*
X110550079Y-90129685D01*
X110535920Y-90091132D01*
X110521529Y-90049905D01*
X110506834Y-90005755D01*
X110491763Y-89958434D01*
X110476243Y-89907694D01*
X110460203Y-89853287D01*
X110443571Y-89794966D01*
X110426275Y-89732480D01*
X110408243Y-89665584D01*
X110389403Y-89594028D01*
X110369683Y-89517564D01*
X110349011Y-89435945D01*
X110327315Y-89348922D01*
X110304523Y-89256247D01*
X110280563Y-89157672D01*
X110255363Y-89052949D01*
X110230277Y-88947826D01*
X110205745Y-88845021D01*
X110182363Y-88747777D01*
X110160162Y-88656217D01*
X110139171Y-88570462D01*
X110119420Y-88490635D01*
X110100940Y-88416855D01*
X110083762Y-88349245D01*
X110067914Y-88287926D01*
X110053428Y-88233021D01*
X110043622Y-88196666D01*
X110014261Y-88088972D01*
X110052517Y-88025639D01*
X110102267Y-87945518D01*
X110150807Y-87871914D01*
X110198241Y-87804699D01*
X110244675Y-87743746D01*
X110290214Y-87688926D01*
X110334966Y-87640113D01*
X110379035Y-87597180D01*
X110422526Y-87559998D01*
X110463373Y-87529908D01*
X110504251Y-87504121D01*
X110542567Y-87484264D01*
X110578990Y-87470312D01*
X110614192Y-87462243D01*
X110648842Y-87460032D01*
X110683610Y-87463656D01*
G36*
X115243648Y-87465100D02*
G01*
X115277289Y-87475191D01*
X115310253Y-87489354D01*
X115348168Y-87509512D01*
X115384719Y-87532751D01*
X115420884Y-87559816D01*
X115457644Y-87591451D01*
X115495979Y-87628400D01*
X115503379Y-87635936D01*
X115541367Y-87676515D01*
X115578847Y-87719842D01*
X115616233Y-87766480D01*
X115653937Y-87816992D01*
X115692372Y-87871942D01*
X115731952Y-87931892D01*
X115773089Y-87997406D01*
X115794731Y-88033024D01*
X115829119Y-88090195D01*
X115822646Y-88110917D01*
X115814956Y-88136496D01*
X115805838Y-88168559D01*
X115795325Y-88206977D01*
X115783449Y-88251621D01*
X115770243Y-88302360D01*
X115755739Y-88359065D01*
X115739969Y-88421607D01*
X115722968Y-88489856D01*
X115704766Y-88563682D01*
X115685397Y-88642956D01*
X115664894Y-88727549D01*
X115643288Y-88817330D01*
X115620613Y-88912171D01*
X115613331Y-88942746D01*
X115590543Y-89038314D01*
X115569140Y-89127619D01*
X115549031Y-89211007D01*
X115530125Y-89288827D01*
X115512330Y-89361424D01*
X115495557Y-89429148D01*
X115479715Y-89492344D01*
X115464711Y-89551360D01*
X115450456Y-89606544D01*
X115436859Y-89658242D01*
X115423828Y-89706802D01*
X115411273Y-89752570D01*
X115399103Y-89795895D01*
X115387227Y-89837124D01*
X115375554Y-89876603D01*
X115363994Y-89914680D01*
X115352454Y-89951702D01*
X115340845Y-89988017D01*
X115334939Y-90006160D01*
X115318983Y-90053555D01*
X115302437Y-90100205D01*
X115285637Y-90145272D01*
X115268921Y-90187915D01*
X115252624Y-90227297D01*
X115237085Y-90262577D01*
X115222640Y-90292916D01*
X115210680Y-90315612D01*
X115197600Y-90338892D01*
X115185536Y-90317306D01*
X115169488Y-90286536D01*
X115152288Y-90249723D01*
X115134156Y-90207456D01*
X115115314Y-90160325D01*
X115095982Y-90108919D01*
X115076380Y-90053828D01*
X115056731Y-89995641D01*
X115037254Y-89934947D01*
X115018171Y-89872336D01*
X115015681Y-89863920D01*
X114998285Y-89803694D01*
X114979734Y-89737155D01*
X114960118Y-89664645D01*
X114939530Y-89586510D01*
X114918063Y-89503092D01*
X114902272Y-89440586D01*
X114895512Y-89413598D01*
X114889105Y-89387941D01*
X114882926Y-89363093D01*
X114876849Y-89338532D01*
X114870747Y-89313735D01*
X114864494Y-89288181D01*
X114857964Y-89261347D01*
X114851032Y-89232711D01*
X114843570Y-89201751D01*
X114835454Y-89167944D01*
X114826556Y-89130768D01*
X114816751Y-89089702D01*
X114805913Y-89044222D01*
X114793916Y-88993807D01*
X114780633Y-88937935D01*
X114765939Y-88876083D01*
X114763272Y-88864853D01*
X114740865Y-88770848D01*
X114719792Y-88683147D01*
X114699970Y-88601427D01*
X114681319Y-88525367D01*
X114663758Y-88454646D01*
X114647207Y-88388942D01*
X114631584Y-88327934D01*
X114616809Y-88271302D01*
X114602802Y-88218722D01*
X114589481Y-88169874D01*
X114580714Y-88138413D01*
X114567378Y-88091000D01*
X114577886Y-88072373D01*
X114588442Y-88054165D01*
X114601963Y-88031622D01*
X114617643Y-88006035D01*
X114634675Y-87978693D01*
X114652255Y-87950889D01*
X114669576Y-87923913D01*
X114685832Y-87899057D01*
X114689932Y-87892880D01*
X114739041Y-87821812D01*
X114787550Y-87756936D01*
X114835387Y-87698329D01*
X114882480Y-87646069D01*
X114928755Y-87600236D01*
X114974142Y-87560908D01*
X115018569Y-87528164D01*
X115034240Y-87518048D01*
X115073773Y-87495324D01*
X115110459Y-87478263D01*
X115145043Y-87466788D01*
X115178271Y-87460820D01*
X115210891Y-87460284D01*
X115243648Y-87465100D01*
X115243648Y-87465100D01*
G37*
X115243648Y-87465100D02*
X115277289Y-87475191D01*
X115310253Y-87489354D01*
X115348168Y-87509512D01*
X115384719Y-87532751D01*
X115420884Y-87559816D01*
X115457644Y-87591451D01*
X115495979Y-87628400D01*
X115503379Y-87635936D01*
X115541367Y-87676515D01*
X115578847Y-87719842D01*
X115616233Y-87766480D01*
X115653937Y-87816992D01*
X115692372Y-87871942D01*
X115731952Y-87931892D01*
X115773089Y-87997406D01*
X115794731Y-88033024D01*
X115829119Y-88090195D01*
X115822646Y-88110917D01*
X115814956Y-88136496D01*
X115805838Y-88168559D01*
X115795325Y-88206977D01*
X115783449Y-88251621D01*
X115770243Y-88302360D01*
X115755739Y-88359065D01*
X115739969Y-88421607D01*
X115722968Y-88489856D01*
X115704766Y-88563682D01*
X115685397Y-88642956D01*
X115664894Y-88727549D01*
X115643288Y-88817330D01*
X115620613Y-88912171D01*
X115613331Y-88942746D01*
X115590543Y-89038314D01*
X115569140Y-89127619D01*
X115549031Y-89211007D01*
X115530125Y-89288827D01*
X115512330Y-89361424D01*
X115495557Y-89429148D01*
X115479715Y-89492344D01*
X115464711Y-89551360D01*
X115450456Y-89606544D01*
X115436859Y-89658242D01*
X115423828Y-89706802D01*
X115411273Y-89752570D01*
X115399103Y-89795895D01*
X115387227Y-89837124D01*
X115375554Y-89876603D01*
X115363994Y-89914680D01*
X115352454Y-89951702D01*
X115340845Y-89988017D01*
X115334939Y-90006160D01*
X115318983Y-90053555D01*
X115302437Y-90100205D01*
X115285637Y-90145272D01*
X115268921Y-90187915D01*
X115252624Y-90227297D01*
X115237085Y-90262577D01*
X115222640Y-90292916D01*
X115210680Y-90315612D01*
X115197600Y-90338892D01*
X115185536Y-90317306D01*
X115169488Y-90286536D01*
X115152288Y-90249723D01*
X115134156Y-90207456D01*
X115115314Y-90160325D01*
X115095982Y-90108919D01*
X115076380Y-90053828D01*
X115056731Y-89995641D01*
X115037254Y-89934947D01*
X115018171Y-89872336D01*
X115015681Y-89863920D01*
X114998285Y-89803694D01*
X114979734Y-89737155D01*
X114960118Y-89664645D01*
X114939530Y-89586510D01*
X114918063Y-89503092D01*
X114902272Y-89440586D01*
X114895512Y-89413598D01*
X114889105Y-89387941D01*
X114882926Y-89363093D01*
X114876849Y-89338532D01*
X114870747Y-89313735D01*
X114864494Y-89288181D01*
X114857964Y-89261347D01*
X114851032Y-89232711D01*
X114843570Y-89201751D01*
X114835454Y-89167944D01*
X114826556Y-89130768D01*
X114816751Y-89089702D01*
X114805913Y-89044222D01*
X114793916Y-88993807D01*
X114780633Y-88937935D01*
X114765939Y-88876083D01*
X114763272Y-88864853D01*
X114740865Y-88770848D01*
X114719792Y-88683147D01*
X114699970Y-88601427D01*
X114681319Y-88525367D01*
X114663758Y-88454646D01*
X114647207Y-88388942D01*
X114631584Y-88327934D01*
X114616809Y-88271302D01*
X114602802Y-88218722D01*
X114589481Y-88169874D01*
X114580714Y-88138413D01*
X114567378Y-88091000D01*
X114577886Y-88072373D01*
X114588442Y-88054165D01*
X114601963Y-88031622D01*
X114617643Y-88006035D01*
X114634675Y-87978693D01*
X114652255Y-87950889D01*
X114669576Y-87923913D01*
X114685832Y-87899057D01*
X114689932Y-87892880D01*
X114739041Y-87821812D01*
X114787550Y-87756936D01*
X114835387Y-87698329D01*
X114882480Y-87646069D01*
X114928755Y-87600236D01*
X114974142Y-87560908D01*
X115018569Y-87528164D01*
X115034240Y-87518048D01*
X115073773Y-87495324D01*
X115110459Y-87478263D01*
X115145043Y-87466788D01*
X115178271Y-87460820D01*
X115210891Y-87460284D01*
X115243648Y-87465100D01*
G36*
X113071897Y-85803327D02*
G01*
X113218621Y-85813371D01*
X113364316Y-85830022D01*
X113508782Y-85853213D01*
X113651816Y-85882874D01*
X113793217Y-85918936D01*
X113932784Y-85961332D01*
X114070315Y-86009993D01*
X114205609Y-86064851D01*
X114338465Y-86125836D01*
X114468681Y-86192881D01*
X114596055Y-86265917D01*
X114720386Y-86344875D01*
X114841473Y-86429687D01*
X114895386Y-86470156D01*
X114991365Y-86547049D01*
X115086416Y-86629675D01*
X115179468Y-86716994D01*
X115269454Y-86807965D01*
X115355302Y-86901549D01*
X115432134Y-86992026D01*
X115504218Y-87084060D01*
X115574722Y-87181393D01*
X115642663Y-87282578D01*
X115707062Y-87386168D01*
X115752388Y-87464466D01*
X115767266Y-87491710D01*
X115784114Y-87523754D01*
X115802230Y-87559177D01*
X115820912Y-87596555D01*
X115839458Y-87634465D01*
X115857165Y-87671485D01*
X115873331Y-87706193D01*
X115887254Y-87737164D01*
X115889193Y-87741601D01*
X115918413Y-87808763D01*
X115896872Y-87873247D01*
X115875331Y-87937732D01*
X115839506Y-87883979D01*
X115794961Y-87819123D01*
X115751633Y-87760136D01*
X115708985Y-87706345D01*
X115666482Y-87657078D01*
X115623588Y-87611662D01*
X115618563Y-87606614D01*
X115572923Y-87563498D01*
X115528245Y-87526457D01*
X115483849Y-87494994D01*
X115439054Y-87468614D01*
X115408466Y-87453530D01*
X115370612Y-87437563D01*
X115335004Y-87425565D01*
X115299099Y-87416857D01*
X115260352Y-87410759D01*
X115240440Y-87408601D01*
X115184111Y-87406579D01*
X115128171Y-87411317D01*
X115072633Y-87422810D01*
X115017514Y-87441055D01*
X114962828Y-87466048D01*
X114920786Y-87490036D01*
X114894710Y-87506917D01*
X114870472Y-87524222D01*
X114846786Y-87543006D01*
X114822364Y-87564324D01*
X114795919Y-87589232D01*
X114776670Y-87608212D01*
X114740649Y-87645555D01*
X114705811Y-87684475D01*
X114671420Y-87725896D01*
X114636735Y-87770744D01*
X114601018Y-87819944D01*
X114563531Y-87874420D01*
X114560696Y-87878642D01*
X114521331Y-87937356D01*
X114500480Y-87875325D01*
X114481272Y-87819462D01*
X114463041Y-87769201D01*
X114445374Y-87723516D01*
X114427856Y-87681378D01*
X114410075Y-87641760D01*
X114391617Y-87603637D01*
X114388894Y-87598240D01*
X114365212Y-87554145D01*
X114341892Y-87516244D01*
X114318479Y-87484003D01*
X114294517Y-87456893D01*
X114269550Y-87434382D01*
X114243124Y-87415938D01*
X114223133Y-87404976D01*
X114186813Y-87390277D01*
X114146925Y-87379835D01*
X114104642Y-87373608D01*
X114061136Y-87371553D01*
X114017579Y-87373629D01*
X113975142Y-87379794D01*
X113934998Y-87390005D01*
X113898318Y-87404221D01*
X113873785Y-87417487D01*
X113847712Y-87436500D01*
X113822123Y-87460810D01*
X113796906Y-87490606D01*
X113771947Y-87526073D01*
X113747131Y-87567400D01*
X113722345Y-87614772D01*
X113697476Y-87668378D01*
X113672409Y-87728404D01*
X113651529Y-87782813D01*
X113637499Y-87821421D01*
X113623488Y-87861538D01*
X113609410Y-87903476D01*
X113595180Y-87947546D01*
X113580714Y-87994062D01*
X113565926Y-88043335D01*
X113550731Y-88095679D01*
X113535044Y-88151405D01*
X113518780Y-88210827D01*
X113501855Y-88274255D01*
X113484182Y-88342004D01*
X113465677Y-88414385D01*
X113446255Y-88491710D01*
X113425830Y-88574293D01*
X113404319Y-88662445D01*
X113381635Y-88756479D01*
X113357693Y-88856707D01*
X113347718Y-88898720D01*
X113326715Y-88987189D01*
X113307121Y-89069446D01*
X113288835Y-89145882D01*
X113271760Y-89216889D01*
X113255797Y-89282858D01*
X113240846Y-89344180D01*
X113226808Y-89401248D01*
X113213585Y-89454452D01*
X113201078Y-89504183D01*
X113189188Y-89550833D01*
X113177815Y-89594794D01*
X113166861Y-89636457D01*
X113156228Y-89676214D01*
X113145815Y-89714455D01*
X113135524Y-89751572D01*
X113125257Y-89787956D01*
X113114913Y-89824000D01*
X113106748Y-89852066D01*
X113087516Y-89916112D01*
X113067904Y-89978186D01*
X113048124Y-90037723D01*
X113028384Y-90094158D01*
X113008895Y-90146927D01*
X112989867Y-90195463D01*
X112971511Y-90239202D01*
X112954037Y-90277578D01*
X112937655Y-90310026D01*
X112933696Y-90317251D01*
X112921673Y-90338782D01*
X112912948Y-90323895D01*
X112899543Y-90299207D01*
X112884758Y-90268697D01*
X112868887Y-90233106D01*
X112852223Y-90193174D01*
X112835060Y-90149642D01*
X112817691Y-90103250D01*
X112800410Y-90054741D01*
X112783510Y-90004855D01*
X112770265Y-89963826D01*
X112758486Y-89926081D01*
X112746810Y-89887794D01*
X112735139Y-89848591D01*
X112723377Y-89808094D01*
X112711425Y-89765927D01*
X112699185Y-89721715D01*
X112686559Y-89675080D01*
X112673451Y-89625647D01*
X112659761Y-89573040D01*
X112645392Y-89516882D01*
X112630247Y-89456797D01*
X112614228Y-89392409D01*
X112597236Y-89323342D01*
X112579175Y-89249219D01*
X112559946Y-89169665D01*
X112539451Y-89084302D01*
X112517593Y-88992756D01*
X112514542Y-88979944D01*
X112491498Y-88883349D01*
X112469842Y-88793025D01*
X112449485Y-88708631D01*
X112430338Y-88629827D01*
X112412311Y-88556275D01*
X112395315Y-88487634D01*
X112379261Y-88423564D01*
X112364058Y-88363725D01*
X112349619Y-88307778D01*
X112335854Y-88255383D01*
X112322673Y-88206200D01*
X112309987Y-88159889D01*
X112297706Y-88116110D01*
X112285742Y-88074524D01*
X112274006Y-88034790D01*
X112262407Y-87996570D01*
X112250856Y-87959522D01*
X112239265Y-87923308D01*
X112227544Y-87887586D01*
X112227052Y-87886106D01*
X112202602Y-87814774D01*
X112178769Y-87749915D01*
X112155393Y-87691273D01*
X112132314Y-87638595D01*
X112109373Y-87591623D01*
X112086411Y-87550103D01*
X112063268Y-87513779D01*
X112039785Y-87482396D01*
X112015801Y-87455699D01*
X111991158Y-87433432D01*
X111965697Y-87415339D01*
X111939256Y-87401166D01*
X111919208Y-87393134D01*
X111877675Y-87381632D01*
X111832952Y-87374534D01*
X111786693Y-87371855D01*
X111740550Y-87373612D01*
X111696178Y-87379822D01*
X111655259Y-87390491D01*
X111635821Y-87397356D01*
X111620401Y-87403942D01*
X111606432Y-87411570D01*
X111591350Y-87421560D01*
X111582346Y-87428033D01*
X111557748Y-87448563D01*
X111533562Y-87473991D01*
X111509675Y-87504527D01*
X111485973Y-87540381D01*
X111462342Y-87581764D01*
X111438670Y-87628884D01*
X111414842Y-87681952D01*
X111390745Y-87741177D01*
X111366266Y-87806770D01*
X111345994Y-87864965D01*
X111321615Y-87936957D01*
X111278797Y-87873432D01*
X111241624Y-87819475D01*
X111206352Y-87770846D01*
X111172243Y-87726633D01*
X111138561Y-87685925D01*
X111104568Y-87647811D01*
X111069529Y-87611379D01*
X111056161Y-87598154D01*
X111014198Y-87559106D01*
X110973788Y-87525639D01*
X110933943Y-87497056D01*
X110893673Y-87472661D01*
X110851989Y-87451755D01*
X110842048Y-87447346D01*
X110788034Y-87427558D01*
X110732680Y-87414270D01*
X110676497Y-87407466D01*
X110619997Y-87407130D01*
X110563691Y-87413248D01*
X110508090Y-87425803D01*
X110453706Y-87444779D01*
X110419906Y-87460221D01*
X110372261Y-87486932D01*
X110324702Y-87519306D01*
X110277092Y-87557484D01*
X110229295Y-87601602D01*
X110181175Y-87651800D01*
X110132595Y-87708217D01*
X110083419Y-87770989D01*
X110033511Y-87840257D01*
X110006428Y-87880081D01*
X109994855Y-87897360D01*
X109984666Y-87912450D01*
X109976413Y-87924542D01*
X109970648Y-87932830D01*
X109967923Y-87936507D01*
X109967781Y-87936601D01*
X109966747Y-87933105D01*
X109963877Y-87924228D01*
X109959511Y-87911001D01*
X109953989Y-87894455D01*
X109947827Y-87876140D01*
X109927879Y-87817068D01*
X109953259Y-87757607D01*
X110012484Y-87627402D01*
X110077930Y-87499549D01*
X110149357Y-87374368D01*
X110226526Y-87252175D01*
X110309197Y-87133291D01*
X110397131Y-87018032D01*
X110490087Y-86906719D01*
X110587827Y-86799669D01*
X110690110Y-86697200D01*
X110796696Y-86599632D01*
X110873720Y-86534436D01*
X110990208Y-86443348D01*
X111110221Y-86357957D01*
X111233554Y-86278339D01*
X111359998Y-86204567D01*
X111489349Y-86136715D01*
X111621399Y-86074858D01*
X111755942Y-86019068D01*
X111892772Y-85969421D01*
X112031683Y-85925989D01*
X112172468Y-85888847D01*
X112314920Y-85858068D01*
X112458833Y-85833728D01*
X112604002Y-85815899D01*
X112750218Y-85804655D01*
X112897277Y-85800071D01*
X112924346Y-85799959D01*
X113071897Y-85803327D01*
X113071897Y-85803327D01*
G37*
X113071897Y-85803327D02*
X113218621Y-85813371D01*
X113364316Y-85830022D01*
X113508782Y-85853213D01*
X113651816Y-85882874D01*
X113793217Y-85918936D01*
X113932784Y-85961332D01*
X114070315Y-86009993D01*
X114205609Y-86064851D01*
X114338465Y-86125836D01*
X114468681Y-86192881D01*
X114596055Y-86265917D01*
X114720386Y-86344875D01*
X114841473Y-86429687D01*
X114895386Y-86470156D01*
X114991365Y-86547049D01*
X115086416Y-86629675D01*
X115179468Y-86716994D01*
X115269454Y-86807965D01*
X115355302Y-86901549D01*
X115432134Y-86992026D01*
X115504218Y-87084060D01*
X115574722Y-87181393D01*
X115642663Y-87282578D01*
X115707062Y-87386168D01*
X115752388Y-87464466D01*
X115767266Y-87491710D01*
X115784114Y-87523754D01*
X115802230Y-87559177D01*
X115820912Y-87596555D01*
X115839458Y-87634465D01*
X115857165Y-87671485D01*
X115873331Y-87706193D01*
X115887254Y-87737164D01*
X115889193Y-87741601D01*
X115918413Y-87808763D01*
X115896872Y-87873247D01*
X115875331Y-87937732D01*
X115839506Y-87883979D01*
X115794961Y-87819123D01*
X115751633Y-87760136D01*
X115708985Y-87706345D01*
X115666482Y-87657078D01*
X115623588Y-87611662D01*
X115618563Y-87606614D01*
X115572923Y-87563498D01*
X115528245Y-87526457D01*
X115483849Y-87494994D01*
X115439054Y-87468614D01*
X115408466Y-87453530D01*
X115370612Y-87437563D01*
X115335004Y-87425565D01*
X115299099Y-87416857D01*
X115260352Y-87410759D01*
X115240440Y-87408601D01*
X115184111Y-87406579D01*
X115128171Y-87411317D01*
X115072633Y-87422810D01*
X115017514Y-87441055D01*
X114962828Y-87466048D01*
X114920786Y-87490036D01*
X114894710Y-87506917D01*
X114870472Y-87524222D01*
X114846786Y-87543006D01*
X114822364Y-87564324D01*
X114795919Y-87589232D01*
X114776670Y-87608212D01*
X114740649Y-87645555D01*
X114705811Y-87684475D01*
X114671420Y-87725896D01*
X114636735Y-87770744D01*
X114601018Y-87819944D01*
X114563531Y-87874420D01*
X114560696Y-87878642D01*
X114521331Y-87937356D01*
X114500480Y-87875325D01*
X114481272Y-87819462D01*
X114463041Y-87769201D01*
X114445374Y-87723516D01*
X114427856Y-87681378D01*
X114410075Y-87641760D01*
X114391617Y-87603637D01*
X114388894Y-87598240D01*
X114365212Y-87554145D01*
X114341892Y-87516244D01*
X114318479Y-87484003D01*
X114294517Y-87456893D01*
X114269550Y-87434382D01*
X114243124Y-87415938D01*
X114223133Y-87404976D01*
X114186813Y-87390277D01*
X114146925Y-87379835D01*
X114104642Y-87373608D01*
X114061136Y-87371553D01*
X114017579Y-87373629D01*
X113975142Y-87379794D01*
X113934998Y-87390005D01*
X113898318Y-87404221D01*
X113873785Y-87417487D01*
X113847712Y-87436500D01*
X113822123Y-87460810D01*
X113796906Y-87490606D01*
X113771947Y-87526073D01*
X113747131Y-87567400D01*
X113722345Y-87614772D01*
X113697476Y-87668378D01*
X113672409Y-87728404D01*
X113651529Y-87782813D01*
X113637499Y-87821421D01*
X113623488Y-87861538D01*
X113609410Y-87903476D01*
X113595180Y-87947546D01*
X113580714Y-87994062D01*
X113565926Y-88043335D01*
X113550731Y-88095679D01*
X113535044Y-88151405D01*
X113518780Y-88210827D01*
X113501855Y-88274255D01*
X113484182Y-88342004D01*
X113465677Y-88414385D01*
X113446255Y-88491710D01*
X113425830Y-88574293D01*
X113404319Y-88662445D01*
X113381635Y-88756479D01*
X113357693Y-88856707D01*
X113347718Y-88898720D01*
X113326715Y-88987189D01*
X113307121Y-89069446D01*
X113288835Y-89145882D01*
X113271760Y-89216889D01*
X113255797Y-89282858D01*
X113240846Y-89344180D01*
X113226808Y-89401248D01*
X113213585Y-89454452D01*
X113201078Y-89504183D01*
X113189188Y-89550833D01*
X113177815Y-89594794D01*
X113166861Y-89636457D01*
X113156228Y-89676214D01*
X113145815Y-89714455D01*
X113135524Y-89751572D01*
X113125257Y-89787956D01*
X113114913Y-89824000D01*
X113106748Y-89852066D01*
X113087516Y-89916112D01*
X113067904Y-89978186D01*
X113048124Y-90037723D01*
X113028384Y-90094158D01*
X113008895Y-90146927D01*
X112989867Y-90195463D01*
X112971511Y-90239202D01*
X112954037Y-90277578D01*
X112937655Y-90310026D01*
X112933696Y-90317251D01*
X112921673Y-90338782D01*
X112912948Y-90323895D01*
X112899543Y-90299207D01*
X112884758Y-90268697D01*
X112868887Y-90233106D01*
X112852223Y-90193174D01*
X112835060Y-90149642D01*
X112817691Y-90103250D01*
X112800410Y-90054741D01*
X112783510Y-90004855D01*
X112770265Y-89963826D01*
X112758486Y-89926081D01*
X112746810Y-89887794D01*
X112735139Y-89848591D01*
X112723377Y-89808094D01*
X112711425Y-89765927D01*
X112699185Y-89721715D01*
X112686559Y-89675080D01*
X112673451Y-89625647D01*
X112659761Y-89573040D01*
X112645392Y-89516882D01*
X112630247Y-89456797D01*
X112614228Y-89392409D01*
X112597236Y-89323342D01*
X112579175Y-89249219D01*
X112559946Y-89169665D01*
X112539451Y-89084302D01*
X112517593Y-88992756D01*
X112514542Y-88979944D01*
X112491498Y-88883349D01*
X112469842Y-88793025D01*
X112449485Y-88708631D01*
X112430338Y-88629827D01*
X112412311Y-88556275D01*
X112395315Y-88487634D01*
X112379261Y-88423564D01*
X112364058Y-88363725D01*
X112349619Y-88307778D01*
X112335854Y-88255383D01*
X112322673Y-88206200D01*
X112309987Y-88159889D01*
X112297706Y-88116110D01*
X112285742Y-88074524D01*
X112274006Y-88034790D01*
X112262407Y-87996570D01*
X112250856Y-87959522D01*
X112239265Y-87923308D01*
X112227544Y-87887586D01*
X112227052Y-87886106D01*
X112202602Y-87814774D01*
X112178769Y-87749915D01*
X112155393Y-87691273D01*
X112132314Y-87638595D01*
X112109373Y-87591623D01*
X112086411Y-87550103D01*
X112063268Y-87513779D01*
X112039785Y-87482396D01*
X112015801Y-87455699D01*
X111991158Y-87433432D01*
X111965697Y-87415339D01*
X111939256Y-87401166D01*
X111919208Y-87393134D01*
X111877675Y-87381632D01*
X111832952Y-87374534D01*
X111786693Y-87371855D01*
X111740550Y-87373612D01*
X111696178Y-87379822D01*
X111655259Y-87390491D01*
X111635821Y-87397356D01*
X111620401Y-87403942D01*
X111606432Y-87411570D01*
X111591350Y-87421560D01*
X111582346Y-87428033D01*
X111557748Y-87448563D01*
X111533562Y-87473991D01*
X111509675Y-87504527D01*
X111485973Y-87540381D01*
X111462342Y-87581764D01*
X111438670Y-87628884D01*
X111414842Y-87681952D01*
X111390745Y-87741177D01*
X111366266Y-87806770D01*
X111345994Y-87864965D01*
X111321615Y-87936957D01*
X111278797Y-87873432D01*
X111241624Y-87819475D01*
X111206352Y-87770846D01*
X111172243Y-87726633D01*
X111138561Y-87685925D01*
X111104568Y-87647811D01*
X111069529Y-87611379D01*
X111056161Y-87598154D01*
X111014198Y-87559106D01*
X110973788Y-87525639D01*
X110933943Y-87497056D01*
X110893673Y-87472661D01*
X110851989Y-87451755D01*
X110842048Y-87447346D01*
X110788034Y-87427558D01*
X110732680Y-87414270D01*
X110676497Y-87407466D01*
X110619997Y-87407130D01*
X110563691Y-87413248D01*
X110508090Y-87425803D01*
X110453706Y-87444779D01*
X110419906Y-87460221D01*
X110372261Y-87486932D01*
X110324702Y-87519306D01*
X110277092Y-87557484D01*
X110229295Y-87601602D01*
X110181175Y-87651800D01*
X110132595Y-87708217D01*
X110083419Y-87770989D01*
X110033511Y-87840257D01*
X110006428Y-87880081D01*
X109994855Y-87897360D01*
X109984666Y-87912450D01*
X109976413Y-87924542D01*
X109970648Y-87932830D01*
X109967923Y-87936507D01*
X109967781Y-87936601D01*
X109966747Y-87933105D01*
X109963877Y-87924228D01*
X109959511Y-87911001D01*
X109953989Y-87894455D01*
X109947827Y-87876140D01*
X109927879Y-87817068D01*
X109953259Y-87757607D01*
X110012484Y-87627402D01*
X110077930Y-87499549D01*
X110149357Y-87374368D01*
X110226526Y-87252175D01*
X110309197Y-87133291D01*
X110397131Y-87018032D01*
X110490087Y-86906719D01*
X110587827Y-86799669D01*
X110690110Y-86697200D01*
X110796696Y-86599632D01*
X110873720Y-86534436D01*
X110990208Y-86443348D01*
X111110221Y-86357957D01*
X111233554Y-86278339D01*
X111359998Y-86204567D01*
X111489349Y-86136715D01*
X111621399Y-86074858D01*
X111755942Y-86019068D01*
X111892772Y-85969421D01*
X112031683Y-85925989D01*
X112172468Y-85888847D01*
X112314920Y-85858068D01*
X112458833Y-85833728D01*
X112604002Y-85815899D01*
X112750218Y-85804655D01*
X112897277Y-85800071D01*
X112924346Y-85799959D01*
X113071897Y-85803327D01*
G36*
X114357837Y-88489500D02*
G01*
X114358667Y-88491406D01*
X114359851Y-88494960D01*
X114361465Y-88500468D01*
X114363583Y-88508239D01*
X114366281Y-88518580D01*
X114369635Y-88531799D01*
X114373719Y-88548204D01*
X114378608Y-88568102D01*
X114384379Y-88591800D01*
X114391105Y-88619608D01*
X114398863Y-88651832D01*
X114407727Y-88688780D01*
X114417772Y-88730759D01*
X114429075Y-88778079D01*
X114441710Y-88831045D01*
X114455752Y-88889966D01*
X114471276Y-88955150D01*
X114472355Y-88959680D01*
X114484301Y-89009777D01*
X114496545Y-89060976D01*
X114508900Y-89112503D01*
X114521178Y-89163584D01*
X114533193Y-89213446D01*
X114544757Y-89261314D01*
X114555684Y-89306414D01*
X114565787Y-89347973D01*
X114574878Y-89385217D01*
X114582772Y-89417372D01*
X114588936Y-89442280D01*
X114615809Y-89548680D01*
X114641857Y-89648531D01*
X114667141Y-89741997D01*
X114691720Y-89829243D01*
X114715654Y-89910436D01*
X114739003Y-89985739D01*
X114761826Y-90055319D01*
X114784184Y-90119340D01*
X114806137Y-90177968D01*
X114827744Y-90231368D01*
X114849065Y-90279706D01*
X114870160Y-90323147D01*
X114891089Y-90361855D01*
X114911912Y-90395997D01*
X114932688Y-90425738D01*
X114953478Y-90451242D01*
X114955027Y-90452975D01*
X114973860Y-90471406D01*
X114996319Y-90489460D01*
X115020146Y-90505508D01*
X115043083Y-90517925D01*
X115048413Y-90520271D01*
X115080690Y-90531622D01*
X115115167Y-90539502D01*
X115153141Y-90544131D01*
X115195912Y-90545731D01*
X115198493Y-90545735D01*
X115241222Y-90544331D01*
X115279003Y-90539972D01*
X115313084Y-90532443D01*
X115344713Y-90521525D01*
X115349670Y-90519432D01*
X115371088Y-90509258D01*
X115389660Y-90498163D01*
X115407314Y-90484774D01*
X115425979Y-90467721D01*
X115434822Y-90458895D01*
X115459136Y-90431304D01*
X115483196Y-90398219D01*
X115507138Y-90359402D01*
X115531092Y-90314615D01*
X115555194Y-90263620D01*
X115579576Y-90206179D01*
X115587266Y-90186889D01*
X115603438Y-90144633D01*
X115619731Y-90099789D01*
X115636223Y-90052075D01*
X115652993Y-90001208D01*
X115670121Y-89946907D01*
X115687684Y-89888890D01*
X115705763Y-89826874D01*
X115724435Y-89760578D01*
X115743780Y-89689719D01*
X115763876Y-89614016D01*
X115784803Y-89533187D01*
X115806639Y-89446949D01*
X115829463Y-89355021D01*
X115853355Y-89257121D01*
X115878392Y-89152966D01*
X115889337Y-89107000D01*
X115907822Y-89029189D01*
X115924812Y-88957739D01*
X115940363Y-88892415D01*
X115954532Y-88832984D01*
X115967375Y-88779213D01*
X115978950Y-88730868D01*
X115989313Y-88687717D01*
X115998521Y-88649526D01*
X116006631Y-88616061D01*
X116013699Y-88587090D01*
X116019782Y-88562378D01*
X116024937Y-88541694D01*
X116029220Y-88524802D01*
X116032689Y-88511471D01*
X116035400Y-88501466D01*
X116037409Y-88494555D01*
X116038774Y-88490504D01*
X116039551Y-88489080D01*
X116039595Y-88489073D01*
X116041539Y-88492041D01*
X116046062Y-88500405D01*
X116052808Y-88513459D01*
X116061418Y-88530494D01*
X116071533Y-88550805D01*
X116082796Y-88573685D01*
X116091497Y-88591520D01*
X116141221Y-88693826D01*
X116144868Y-88727693D01*
X116156205Y-88863517D01*
X116161227Y-89001129D01*
X116159990Y-89140017D01*
X116152549Y-89279669D01*
X116138960Y-89419572D01*
X116119279Y-89559215D01*
X116093562Y-89698085D01*
X116061864Y-89835671D01*
X116024241Y-89971459D01*
X116001626Y-90043413D01*
X115952411Y-90182827D01*
X115897091Y-90319408D01*
X115835796Y-90452980D01*
X115768652Y-90583365D01*
X115695786Y-90710386D01*
X115617326Y-90833868D01*
X115533399Y-90953632D01*
X115444132Y-91069504D01*
X115349653Y-91181305D01*
X115250088Y-91288860D01*
X115145566Y-91391991D01*
X115036213Y-91490521D01*
X114922156Y-91584275D01*
X114854746Y-91635764D01*
X114734502Y-91720954D01*
X114610767Y-91800396D01*
X114483767Y-91874005D01*
X114353725Y-91941695D01*
X114220868Y-92003382D01*
X114085418Y-92058981D01*
X113947602Y-92108408D01*
X113807643Y-92151576D01*
X113665767Y-92188402D01*
X113522197Y-92218800D01*
X113377159Y-92242686D01*
X113230877Y-92259975D01*
X113193586Y-92263302D01*
X113128271Y-92267980D01*
X113059961Y-92271449D01*
X112990707Y-92273658D01*
X112922562Y-92274554D01*
X112857576Y-92274084D01*
X112815973Y-92272949D01*
X112667047Y-92264143D01*
X112519335Y-92248725D01*
X112373008Y-92226747D01*
X112228236Y-92198259D01*
X112085193Y-92163311D01*
X111944048Y-92121954D01*
X111804974Y-92074240D01*
X111668142Y-92020218D01*
X111533722Y-91959939D01*
X111401887Y-91893455D01*
X111272807Y-91820815D01*
X111258106Y-91812044D01*
X111140231Y-91737909D01*
X111027008Y-91659701D01*
X110917744Y-91576876D01*
X110811744Y-91488892D01*
X110708315Y-91395204D01*
X110636543Y-91325408D01*
X110575968Y-91263529D01*
X110519883Y-91203430D01*
X110466906Y-91143516D01*
X110415657Y-91082189D01*
X110364754Y-91017851D01*
X110323711Y-90963621D01*
X110240071Y-90845564D01*
X110162015Y-90723983D01*
X110089618Y-90599147D01*
X110022955Y-90471326D01*
X109962101Y-90340790D01*
X109907131Y-90207806D01*
X109858120Y-90072644D01*
X109815143Y-89935575D01*
X109778275Y-89796865D01*
X109747591Y-89656786D01*
X109723166Y-89515606D01*
X109705075Y-89373594D01*
X109693394Y-89231019D01*
X109688196Y-89088151D01*
X109689558Y-88945259D01*
X109697554Y-88802612D01*
X109703409Y-88737853D01*
X109709583Y-88676893D01*
X109756043Y-88582066D01*
X109769330Y-88555077D01*
X109780018Y-88533702D01*
X109788396Y-88517425D01*
X109794753Y-88505734D01*
X109799379Y-88498114D01*
X109802562Y-88494052D01*
X109804591Y-88493033D01*
X109805555Y-88494013D01*
X109806498Y-88496627D01*
X109807947Y-88501498D01*
X109809975Y-88508932D01*
X109812658Y-88519236D01*
X109816070Y-88532719D01*
X109820286Y-88549686D01*
X109825380Y-88570446D01*
X109831428Y-88595304D01*
X109838504Y-88624569D01*
X109846683Y-88658548D01*
X109856040Y-88697548D01*
X109866648Y-88741875D01*
X109878583Y-88791837D01*
X109891920Y-88847742D01*
X109906733Y-88909896D01*
X109908508Y-88917346D01*
X109931090Y-89011992D01*
X109952256Y-89100374D01*
X109972096Y-89182830D01*
X109990696Y-89259699D01*
X110008148Y-89331323D01*
X110024538Y-89398038D01*
X110039955Y-89460186D01*
X110054490Y-89518105D01*
X110068229Y-89572135D01*
X110081262Y-89622615D01*
X110093677Y-89669884D01*
X110105563Y-89714282D01*
X110117009Y-89756148D01*
X110128104Y-89795821D01*
X110138935Y-89833642D01*
X110149593Y-89869948D01*
X110160164Y-89905081D01*
X110170739Y-89939378D01*
X110181406Y-89973179D01*
X110192253Y-90006824D01*
X110197019Y-90021400D01*
X110221323Y-90093199D01*
X110245015Y-90158527D01*
X110268246Y-90217640D01*
X110291163Y-90270799D01*
X110313917Y-90318260D01*
X110336655Y-90360282D01*
X110359526Y-90397124D01*
X110382681Y-90429044D01*
X110406267Y-90456300D01*
X110430433Y-90479152D01*
X110455328Y-90497856D01*
X110479820Y-90512034D01*
X110518864Y-90528124D01*
X110561793Y-90539460D01*
X110607495Y-90545864D01*
X110654859Y-90547153D01*
X110685007Y-90545264D01*
X110720512Y-90540738D01*
X110751379Y-90534342D01*
X110779611Y-90525547D01*
X110807208Y-90513823D01*
X110811066Y-90511952D01*
X110825810Y-90504331D01*
X110837916Y-90496958D01*
X110849184Y-90488486D01*
X110861416Y-90477566D01*
X110875609Y-90463658D01*
X110898347Y-90439090D01*
X110919333Y-90412512D01*
X110939366Y-90382742D01*
X110959248Y-90348599D01*
X110977924Y-90312653D01*
X110998722Y-90268835D01*
X111019531Y-90221050D01*
X111040453Y-90168994D01*
X111061592Y-90112361D01*
X111083051Y-90050849D01*
X111104933Y-89984150D01*
X111127340Y-89911962D01*
X111150375Y-89833979D01*
X111174143Y-89749896D01*
X111198674Y-89659676D01*
X111204812Y-89636382D01*
X111212372Y-89607160D01*
X111221193Y-89572663D01*
X111231110Y-89533548D01*
X111241963Y-89490472D01*
X111253589Y-89444088D01*
X111265825Y-89395054D01*
X111278508Y-89344025D01*
X111291477Y-89291657D01*
X111304568Y-89238605D01*
X111317619Y-89185525D01*
X111330469Y-89133074D01*
X111342953Y-89081906D01*
X111354910Y-89032678D01*
X111366178Y-88986045D01*
X111376594Y-88942663D01*
X111383438Y-88913960D01*
X111396699Y-88858243D01*
X111409378Y-88805126D01*
X111421394Y-88754946D01*
X111432664Y-88708045D01*
X111443105Y-88664761D01*
X111452634Y-88625434D01*
X111461169Y-88590405D01*
X111468626Y-88560012D01*
X111474924Y-88534595D01*
X111479979Y-88514495D01*
X111483709Y-88500051D01*
X111486031Y-88491602D01*
X111486803Y-88489401D01*
X111488705Y-88491928D01*
X111493344Y-88500264D01*
X111500565Y-88514092D01*
X111510213Y-88533095D01*
X111522134Y-88556958D01*
X111536173Y-88585363D01*
X111552176Y-88617994D01*
X111569989Y-88654534D01*
X111589456Y-88694667D01*
X111610424Y-88738076D01*
X111632738Y-88784444D01*
X111656243Y-88833454D01*
X111680785Y-88884791D01*
X111706210Y-88938137D01*
X111723697Y-88974920D01*
X111765512Y-89062751D01*
X111804766Y-89144752D01*
X111841641Y-89221284D01*
X111876317Y-89292710D01*
X111908977Y-89359392D01*
X111939802Y-89421693D01*
X111968972Y-89479976D01*
X111996669Y-89534602D01*
X112023075Y-89585934D01*
X112048371Y-89634335D01*
X112072737Y-89680167D01*
X112096356Y-89723792D01*
X112117201Y-89761606D01*
X112170591Y-89855254D01*
X112222922Y-89942252D01*
X112274222Y-90022635D01*
X112324517Y-90096438D01*
X112373837Y-90163696D01*
X112422208Y-90224444D01*
X112469658Y-90278718D01*
X112516215Y-90326552D01*
X112561907Y-90367982D01*
X112606761Y-90403044D01*
X112639215Y-90424776D01*
X112655411Y-90435728D01*
X112672708Y-90448844D01*
X112688073Y-90461787D01*
X112692079Y-90465504D01*
X112717883Y-90487986D01*
X112743479Y-90505365D01*
X112770892Y-90518931D01*
X112783481Y-90523820D01*
X112828185Y-90536715D01*
X112875894Y-90544447D01*
X112925160Y-90546953D01*
X112974534Y-90544175D01*
X113022568Y-90536053D01*
X113030714Y-90534081D01*
X113068822Y-90521493D01*
X113104234Y-90503996D01*
X113135729Y-90482275D01*
X113156333Y-90463325D01*
X113164804Y-90455610D01*
X113177235Y-90445751D01*
X113191806Y-90435137D01*
X113203746Y-90427061D01*
X113248802Y-90395273D01*
X113293804Y-90358545D01*
X113338899Y-90316695D01*
X113384236Y-90269543D01*
X113429964Y-90216905D01*
X113476230Y-90158600D01*
X113523183Y-90094446D01*
X113570973Y-90024262D01*
X113619746Y-89947865D01*
X113669651Y-89865074D01*
X113687670Y-89834107D01*
X113714226Y-89787321D01*
X113742497Y-89736059D01*
X113772566Y-89680154D01*
X113804517Y-89619441D01*
X113838434Y-89553755D01*
X113874401Y-89482928D01*
X113912501Y-89406796D01*
X113952818Y-89325193D01*
X113995436Y-89237953D01*
X114040439Y-89144910D01*
X114087911Y-89045899D01*
X114122523Y-88973226D01*
X114153436Y-88908218D01*
X114182504Y-88847216D01*
X114209643Y-88790392D01*
X114234771Y-88737915D01*
X114257805Y-88689958D01*
X114278661Y-88646691D01*
X114297258Y-88608285D01*
X114313511Y-88574911D01*
X114327339Y-88546741D01*
X114338658Y-88523944D01*
X114347386Y-88506693D01*
X114353439Y-88495157D01*
X114356735Y-88489509D01*
X114357287Y-88488933D01*
X114357837Y-88489500D01*
X114357837Y-88489500D01*
G37*
X114357837Y-88489500D02*
X114358667Y-88491406D01*
X114359851Y-88494960D01*
X114361465Y-88500468D01*
X114363583Y-88508239D01*
X114366281Y-88518580D01*
X114369635Y-88531799D01*
X114373719Y-88548204D01*
X114378608Y-88568102D01*
X114384379Y-88591800D01*
X114391105Y-88619608D01*
X114398863Y-88651832D01*
X114407727Y-88688780D01*
X114417772Y-88730759D01*
X114429075Y-88778079D01*
X114441710Y-88831045D01*
X114455752Y-88889966D01*
X114471276Y-88955150D01*
X114472355Y-88959680D01*
X114484301Y-89009777D01*
X114496545Y-89060976D01*
X114508900Y-89112503D01*
X114521178Y-89163584D01*
X114533193Y-89213446D01*
X114544757Y-89261314D01*
X114555684Y-89306414D01*
X114565787Y-89347973D01*
X114574878Y-89385217D01*
X114582772Y-89417372D01*
X114588936Y-89442280D01*
X114615809Y-89548680D01*
X114641857Y-89648531D01*
X114667141Y-89741997D01*
X114691720Y-89829243D01*
X114715654Y-89910436D01*
X114739003Y-89985739D01*
X114761826Y-90055319D01*
X114784184Y-90119340D01*
X114806137Y-90177968D01*
X114827744Y-90231368D01*
X114849065Y-90279706D01*
X114870160Y-90323147D01*
X114891089Y-90361855D01*
X114911912Y-90395997D01*
X114932688Y-90425738D01*
X114953478Y-90451242D01*
X114955027Y-90452975D01*
X114973860Y-90471406D01*
X114996319Y-90489460D01*
X115020146Y-90505508D01*
X115043083Y-90517925D01*
X115048413Y-90520271D01*
X115080690Y-90531622D01*
X115115167Y-90539502D01*
X115153141Y-90544131D01*
X115195912Y-90545731D01*
X115198493Y-90545735D01*
X115241222Y-90544331D01*
X115279003Y-90539972D01*
X115313084Y-90532443D01*
X115344713Y-90521525D01*
X115349670Y-90519432D01*
X115371088Y-90509258D01*
X115389660Y-90498163D01*
X115407314Y-90484774D01*
X115425979Y-90467721D01*
X115434822Y-90458895D01*
X115459136Y-90431304D01*
X115483196Y-90398219D01*
X115507138Y-90359402D01*
X115531092Y-90314615D01*
X115555194Y-90263620D01*
X115579576Y-90206179D01*
X115587266Y-90186889D01*
X115603438Y-90144633D01*
X115619731Y-90099789D01*
X115636223Y-90052075D01*
X115652993Y-90001208D01*
X115670121Y-89946907D01*
X115687684Y-89888890D01*
X115705763Y-89826874D01*
X115724435Y-89760578D01*
X115743780Y-89689719D01*
X115763876Y-89614016D01*
X115784803Y-89533187D01*
X115806639Y-89446949D01*
X115829463Y-89355021D01*
X115853355Y-89257121D01*
X115878392Y-89152966D01*
X115889337Y-89107000D01*
X115907822Y-89029189D01*
X115924812Y-88957739D01*
X115940363Y-88892415D01*
X115954532Y-88832984D01*
X115967375Y-88779213D01*
X115978950Y-88730868D01*
X115989313Y-88687717D01*
X115998521Y-88649526D01*
X116006631Y-88616061D01*
X116013699Y-88587090D01*
X116019782Y-88562378D01*
X116024937Y-88541694D01*
X116029220Y-88524802D01*
X116032689Y-88511471D01*
X116035400Y-88501466D01*
X116037409Y-88494555D01*
X116038774Y-88490504D01*
X116039551Y-88489080D01*
X116039595Y-88489073D01*
X116041539Y-88492041D01*
X116046062Y-88500405D01*
X116052808Y-88513459D01*
X116061418Y-88530494D01*
X116071533Y-88550805D01*
X116082796Y-88573685D01*
X116091497Y-88591520D01*
X116141221Y-88693826D01*
X116144868Y-88727693D01*
X116156205Y-88863517D01*
X116161227Y-89001129D01*
X116159990Y-89140017D01*
X116152549Y-89279669D01*
X116138960Y-89419572D01*
X116119279Y-89559215D01*
X116093562Y-89698085D01*
X116061864Y-89835671D01*
X116024241Y-89971459D01*
X116001626Y-90043413D01*
X115952411Y-90182827D01*
X115897091Y-90319408D01*
X115835796Y-90452980D01*
X115768652Y-90583365D01*
X115695786Y-90710386D01*
X115617326Y-90833868D01*
X115533399Y-90953632D01*
X115444132Y-91069504D01*
X115349653Y-91181305D01*
X115250088Y-91288860D01*
X115145566Y-91391991D01*
X115036213Y-91490521D01*
X114922156Y-91584275D01*
X114854746Y-91635764D01*
X114734502Y-91720954D01*
X114610767Y-91800396D01*
X114483767Y-91874005D01*
X114353725Y-91941695D01*
X114220868Y-92003382D01*
X114085418Y-92058981D01*
X113947602Y-92108408D01*
X113807643Y-92151576D01*
X113665767Y-92188402D01*
X113522197Y-92218800D01*
X113377159Y-92242686D01*
X113230877Y-92259975D01*
X113193586Y-92263302D01*
X113128271Y-92267980D01*
X113059961Y-92271449D01*
X112990707Y-92273658D01*
X112922562Y-92274554D01*
X112857576Y-92274084D01*
X112815973Y-92272949D01*
X112667047Y-92264143D01*
X112519335Y-92248725D01*
X112373008Y-92226747D01*
X112228236Y-92198259D01*
X112085193Y-92163311D01*
X111944048Y-92121954D01*
X111804974Y-92074240D01*
X111668142Y-92020218D01*
X111533722Y-91959939D01*
X111401887Y-91893455D01*
X111272807Y-91820815D01*
X111258106Y-91812044D01*
X111140231Y-91737909D01*
X111027008Y-91659701D01*
X110917744Y-91576876D01*
X110811744Y-91488892D01*
X110708315Y-91395204D01*
X110636543Y-91325408D01*
X110575968Y-91263529D01*
X110519883Y-91203430D01*
X110466906Y-91143516D01*
X110415657Y-91082189D01*
X110364754Y-91017851D01*
X110323711Y-90963621D01*
X110240071Y-90845564D01*
X110162015Y-90723983D01*
X110089618Y-90599147D01*
X110022955Y-90471326D01*
X109962101Y-90340790D01*
X109907131Y-90207806D01*
X109858120Y-90072644D01*
X109815143Y-89935575D01*
X109778275Y-89796865D01*
X109747591Y-89656786D01*
X109723166Y-89515606D01*
X109705075Y-89373594D01*
X109693394Y-89231019D01*
X109688196Y-89088151D01*
X109689558Y-88945259D01*
X109697554Y-88802612D01*
X109703409Y-88737853D01*
X109709583Y-88676893D01*
X109756043Y-88582066D01*
X109769330Y-88555077D01*
X109780018Y-88533702D01*
X109788396Y-88517425D01*
X109794753Y-88505734D01*
X109799379Y-88498114D01*
X109802562Y-88494052D01*
X109804591Y-88493033D01*
X109805555Y-88494013D01*
X109806498Y-88496627D01*
X109807947Y-88501498D01*
X109809975Y-88508932D01*
X109812658Y-88519236D01*
X109816070Y-88532719D01*
X109820286Y-88549686D01*
X109825380Y-88570446D01*
X109831428Y-88595304D01*
X109838504Y-88624569D01*
X109846683Y-88658548D01*
X109856040Y-88697548D01*
X109866648Y-88741875D01*
X109878583Y-88791837D01*
X109891920Y-88847742D01*
X109906733Y-88909896D01*
X109908508Y-88917346D01*
X109931090Y-89011992D01*
X109952256Y-89100374D01*
X109972096Y-89182830D01*
X109990696Y-89259699D01*
X110008148Y-89331323D01*
X110024538Y-89398038D01*
X110039955Y-89460186D01*
X110054490Y-89518105D01*
X110068229Y-89572135D01*
X110081262Y-89622615D01*
X110093677Y-89669884D01*
X110105563Y-89714282D01*
X110117009Y-89756148D01*
X110128104Y-89795821D01*
X110138935Y-89833642D01*
X110149593Y-89869948D01*
X110160164Y-89905081D01*
X110170739Y-89939378D01*
X110181406Y-89973179D01*
X110192253Y-90006824D01*
X110197019Y-90021400D01*
X110221323Y-90093199D01*
X110245015Y-90158527D01*
X110268246Y-90217640D01*
X110291163Y-90270799D01*
X110313917Y-90318260D01*
X110336655Y-90360282D01*
X110359526Y-90397124D01*
X110382681Y-90429044D01*
X110406267Y-90456300D01*
X110430433Y-90479152D01*
X110455328Y-90497856D01*
X110479820Y-90512034D01*
X110518864Y-90528124D01*
X110561793Y-90539460D01*
X110607495Y-90545864D01*
X110654859Y-90547153D01*
X110685007Y-90545264D01*
X110720512Y-90540738D01*
X110751379Y-90534342D01*
X110779611Y-90525547D01*
X110807208Y-90513823D01*
X110811066Y-90511952D01*
X110825810Y-90504331D01*
X110837916Y-90496958D01*
X110849184Y-90488486D01*
X110861416Y-90477566D01*
X110875609Y-90463658D01*
X110898347Y-90439090D01*
X110919333Y-90412512D01*
X110939366Y-90382742D01*
X110959248Y-90348599D01*
X110977924Y-90312653D01*
X110998722Y-90268835D01*
X111019531Y-90221050D01*
X111040453Y-90168994D01*
X111061592Y-90112361D01*
X111083051Y-90050849D01*
X111104933Y-89984150D01*
X111127340Y-89911962D01*
X111150375Y-89833979D01*
X111174143Y-89749896D01*
X111198674Y-89659676D01*
X111204812Y-89636382D01*
X111212372Y-89607160D01*
X111221193Y-89572663D01*
X111231110Y-89533548D01*
X111241963Y-89490472D01*
X111253589Y-89444088D01*
X111265825Y-89395054D01*
X111278508Y-89344025D01*
X111291477Y-89291657D01*
X111304568Y-89238605D01*
X111317619Y-89185525D01*
X111330469Y-89133074D01*
X111342953Y-89081906D01*
X111354910Y-89032678D01*
X111366178Y-88986045D01*
X111376594Y-88942663D01*
X111383438Y-88913960D01*
X111396699Y-88858243D01*
X111409378Y-88805126D01*
X111421394Y-88754946D01*
X111432664Y-88708045D01*
X111443105Y-88664761D01*
X111452634Y-88625434D01*
X111461169Y-88590405D01*
X111468626Y-88560012D01*
X111474924Y-88534595D01*
X111479979Y-88514495D01*
X111483709Y-88500051D01*
X111486031Y-88491602D01*
X111486803Y-88489401D01*
X111488705Y-88491928D01*
X111493344Y-88500264D01*
X111500565Y-88514092D01*
X111510213Y-88533095D01*
X111522134Y-88556958D01*
X111536173Y-88585363D01*
X111552176Y-88617994D01*
X111569989Y-88654534D01*
X111589456Y-88694667D01*
X111610424Y-88738076D01*
X111632738Y-88784444D01*
X111656243Y-88833454D01*
X111680785Y-88884791D01*
X111706210Y-88938137D01*
X111723697Y-88974920D01*
X111765512Y-89062751D01*
X111804766Y-89144752D01*
X111841641Y-89221284D01*
X111876317Y-89292710D01*
X111908977Y-89359392D01*
X111939802Y-89421693D01*
X111968972Y-89479976D01*
X111996669Y-89534602D01*
X112023075Y-89585934D01*
X112048371Y-89634335D01*
X112072737Y-89680167D01*
X112096356Y-89723792D01*
X112117201Y-89761606D01*
X112170591Y-89855254D01*
X112222922Y-89942252D01*
X112274222Y-90022635D01*
X112324517Y-90096438D01*
X112373837Y-90163696D01*
X112422208Y-90224444D01*
X112469658Y-90278718D01*
X112516215Y-90326552D01*
X112561907Y-90367982D01*
X112606761Y-90403044D01*
X112639215Y-90424776D01*
X112655411Y-90435728D01*
X112672708Y-90448844D01*
X112688073Y-90461787D01*
X112692079Y-90465504D01*
X112717883Y-90487986D01*
X112743479Y-90505365D01*
X112770892Y-90518931D01*
X112783481Y-90523820D01*
X112828185Y-90536715D01*
X112875894Y-90544447D01*
X112925160Y-90546953D01*
X112974534Y-90544175D01*
X113022568Y-90536053D01*
X113030714Y-90534081D01*
X113068822Y-90521493D01*
X113104234Y-90503996D01*
X113135729Y-90482275D01*
X113156333Y-90463325D01*
X113164804Y-90455610D01*
X113177235Y-90445751D01*
X113191806Y-90435137D01*
X113203746Y-90427061D01*
X113248802Y-90395273D01*
X113293804Y-90358545D01*
X113338899Y-90316695D01*
X113384236Y-90269543D01*
X113429964Y-90216905D01*
X113476230Y-90158600D01*
X113523183Y-90094446D01*
X113570973Y-90024262D01*
X113619746Y-89947865D01*
X113669651Y-89865074D01*
X113687670Y-89834107D01*
X113714226Y-89787321D01*
X113742497Y-89736059D01*
X113772566Y-89680154D01*
X113804517Y-89619441D01*
X113838434Y-89553755D01*
X113874401Y-89482928D01*
X113912501Y-89406796D01*
X113952818Y-89325193D01*
X113995436Y-89237953D01*
X114040439Y-89144910D01*
X114087911Y-89045899D01*
X114122523Y-88973226D01*
X114153436Y-88908218D01*
X114182504Y-88847216D01*
X114209643Y-88790392D01*
X114234771Y-88737915D01*
X114257805Y-88689958D01*
X114278661Y-88646691D01*
X114297258Y-88608285D01*
X114313511Y-88574911D01*
X114327339Y-88546741D01*
X114338658Y-88523944D01*
X114347386Y-88506693D01*
X114353439Y-88495157D01*
X114356735Y-88489509D01*
X114357287Y-88488933D01*
X114357837Y-88489500D01*
G36*
X112969375Y-94626420D02*
G01*
X112979253Y-94651067D01*
X112990836Y-94679925D01*
X113003957Y-94712581D01*
X113018450Y-94748622D01*
X113034149Y-94787635D01*
X113050886Y-94829207D01*
X113068496Y-94872926D01*
X113086811Y-94918379D01*
X113105665Y-94965154D01*
X113124892Y-95012838D01*
X113144324Y-95061017D01*
X113163795Y-95109280D01*
X113183140Y-95157213D01*
X113202190Y-95204404D01*
X113220779Y-95250441D01*
X113238742Y-95294910D01*
X113255911Y-95337398D01*
X113272119Y-95377494D01*
X113287201Y-95414784D01*
X113300989Y-95448856D01*
X113313317Y-95479297D01*
X113324018Y-95505694D01*
X113332926Y-95527634D01*
X113339875Y-95544706D01*
X113344697Y-95556495D01*
X113347226Y-95562590D01*
X113347565Y-95563355D01*
X113347905Y-95564397D01*
X113348077Y-95565683D01*
X113348198Y-95566937D01*
X113348381Y-95567879D01*
X113348743Y-95568230D01*
X113349399Y-95567713D01*
X113350464Y-95566048D01*
X113352053Y-95562956D01*
X113354283Y-95558159D01*
X113357268Y-95551379D01*
X113361124Y-95542336D01*
X113365965Y-95530752D01*
X113371908Y-95516348D01*
X113379068Y-95498845D01*
X113387559Y-95477966D01*
X113397498Y-95453431D01*
X113409000Y-95424961D01*
X113422180Y-95392278D01*
X113437153Y-95355104D01*
X113454035Y-95313159D01*
X113472941Y-95266164D01*
X113493986Y-95213842D01*
X113517287Y-95155914D01*
X113542957Y-95092100D01*
X113554525Y-95063347D01*
X113745613Y-94588414D01*
X113862453Y-94588320D01*
X113862453Y-95702533D01*
X113784560Y-95702533D01*
X113784560Y-95252895D01*
X113784585Y-95178547D01*
X113784663Y-95110687D01*
X113784799Y-95049027D01*
X113784996Y-94993284D01*
X113785259Y-94943170D01*
X113785592Y-94898400D01*
X113785999Y-94858687D01*
X113786486Y-94823747D01*
X113787054Y-94793293D01*
X113787710Y-94767039D01*
X113788458Y-94744700D01*
X113789300Y-94725989D01*
X113790243Y-94710621D01*
X113791289Y-94698310D01*
X113792444Y-94688770D01*
X113792981Y-94685414D01*
X113793206Y-94678580D01*
X113791060Y-94677028D01*
X113789413Y-94680246D01*
X113785362Y-94689413D01*
X113779044Y-94704199D01*
X113770596Y-94724273D01*
X113760152Y-94749304D01*
X113747849Y-94778963D01*
X113733824Y-94812918D01*
X113718211Y-94850840D01*
X113701149Y-94892398D01*
X113682771Y-94937262D01*
X113663215Y-94985100D01*
X113642616Y-95035584D01*
X113621111Y-95088382D01*
X113598836Y-95143164D01*
X113580009Y-95189534D01*
X113372557Y-95700840D01*
X113323733Y-95702834D01*
X113315927Y-95684904D01*
X113313799Y-95679783D01*
X113309282Y-95668731D01*
X113302519Y-95652099D01*
X113293653Y-95630239D01*
X113282825Y-95603502D01*
X113270177Y-95572241D01*
X113255852Y-95536806D01*
X113239992Y-95497550D01*
X113222738Y-95454824D01*
X113204233Y-95408980D01*
X113184618Y-95360370D01*
X113164037Y-95309344D01*
X113142631Y-95256255D01*
X113120541Y-95201455D01*
X113108881Y-95172520D01*
X113086607Y-95117259D01*
X113065008Y-95063703D01*
X113044221Y-95012189D01*
X113024383Y-94963056D01*
X113005629Y-94916640D01*
X112988096Y-94873279D01*
X112971922Y-94833310D01*
X112957243Y-94797070D01*
X112944195Y-94764898D01*
X112932915Y-94737130D01*
X112923540Y-94714104D01*
X112916207Y-94696157D01*
X112911051Y-94683628D01*
X112908211Y-94676852D01*
X112907680Y-94675694D01*
X112907464Y-94678747D01*
X112907268Y-94688207D01*
X112907093Y-94703710D01*
X112906940Y-94724889D01*
X112906808Y-94751379D01*
X112906699Y-94782815D01*
X112906614Y-94818831D01*
X112906552Y-94859061D01*
X112906516Y-94903139D01*
X112906504Y-94950701D01*
X112906519Y-95001381D01*
X112906560Y-95054813D01*
X112906629Y-95110631D01*
X112906725Y-95168470D01*
X112906763Y-95187928D01*
X112907807Y-95702533D01*
X112832906Y-95702533D01*
X112832906Y-94588320D01*
X112954121Y-94588320D01*
X112969375Y-94626420D01*
X112969375Y-94626420D01*
G37*
X112969375Y-94626420D02*
X112979253Y-94651067D01*
X112990836Y-94679925D01*
X113003957Y-94712581D01*
X113018450Y-94748622D01*
X113034149Y-94787635D01*
X113050886Y-94829207D01*
X113068496Y-94872926D01*
X113086811Y-94918379D01*
X113105665Y-94965154D01*
X113124892Y-95012838D01*
X113144324Y-95061017D01*
X113163795Y-95109280D01*
X113183140Y-95157213D01*
X113202190Y-95204404D01*
X113220779Y-95250441D01*
X113238742Y-95294910D01*
X113255911Y-95337398D01*
X113272119Y-95377494D01*
X113287201Y-95414784D01*
X113300989Y-95448856D01*
X113313317Y-95479297D01*
X113324018Y-95505694D01*
X113332926Y-95527634D01*
X113339875Y-95544706D01*
X113344697Y-95556495D01*
X113347226Y-95562590D01*
X113347565Y-95563355D01*
X113347905Y-95564397D01*
X113348077Y-95565683D01*
X113348198Y-95566937D01*
X113348381Y-95567879D01*
X113348743Y-95568230D01*
X113349399Y-95567713D01*
X113350464Y-95566048D01*
X113352053Y-95562956D01*
X113354283Y-95558159D01*
X113357268Y-95551379D01*
X113361124Y-95542336D01*
X113365965Y-95530752D01*
X113371908Y-95516348D01*
X113379068Y-95498845D01*
X113387559Y-95477966D01*
X113397498Y-95453431D01*
X113409000Y-95424961D01*
X113422180Y-95392278D01*
X113437153Y-95355104D01*
X113454035Y-95313159D01*
X113472941Y-95266164D01*
X113493986Y-95213842D01*
X113517287Y-95155914D01*
X113542957Y-95092100D01*
X113554525Y-95063347D01*
X113745613Y-94588414D01*
X113862453Y-94588320D01*
X113862453Y-95702533D01*
X113784560Y-95702533D01*
X113784560Y-95252895D01*
X113784585Y-95178547D01*
X113784663Y-95110687D01*
X113784799Y-95049027D01*
X113784996Y-94993284D01*
X113785259Y-94943170D01*
X113785592Y-94898400D01*
X113785999Y-94858687D01*
X113786486Y-94823747D01*
X113787054Y-94793293D01*
X113787710Y-94767039D01*
X113788458Y-94744700D01*
X113789300Y-94725989D01*
X113790243Y-94710621D01*
X113791289Y-94698310D01*
X113792444Y-94688770D01*
X113792981Y-94685414D01*
X113793206Y-94678580D01*
X113791060Y-94677028D01*
X113789413Y-94680246D01*
X113785362Y-94689413D01*
X113779044Y-94704199D01*
X113770596Y-94724273D01*
X113760152Y-94749304D01*
X113747849Y-94778963D01*
X113733824Y-94812918D01*
X113718211Y-94850840D01*
X113701149Y-94892398D01*
X113682771Y-94937262D01*
X113663215Y-94985100D01*
X113642616Y-95035584D01*
X113621111Y-95088382D01*
X113598836Y-95143164D01*
X113580009Y-95189534D01*
X113372557Y-95700840D01*
X113323733Y-95702834D01*
X113315927Y-95684904D01*
X113313799Y-95679783D01*
X113309282Y-95668731D01*
X113302519Y-95652099D01*
X113293653Y-95630239D01*
X113282825Y-95603502D01*
X113270177Y-95572241D01*
X113255852Y-95536806D01*
X113239992Y-95497550D01*
X113222738Y-95454824D01*
X113204233Y-95408980D01*
X113184618Y-95360370D01*
X113164037Y-95309344D01*
X113142631Y-95256255D01*
X113120541Y-95201455D01*
X113108881Y-95172520D01*
X113086607Y-95117259D01*
X113065008Y-95063703D01*
X113044221Y-95012189D01*
X113024383Y-94963056D01*
X113005629Y-94916640D01*
X112988096Y-94873279D01*
X112971922Y-94833310D01*
X112957243Y-94797070D01*
X112944195Y-94764898D01*
X112932915Y-94737130D01*
X112923540Y-94714104D01*
X112916207Y-94696157D01*
X112911051Y-94683628D01*
X112908211Y-94676852D01*
X112907680Y-94675694D01*
X112907464Y-94678747D01*
X112907268Y-94688207D01*
X112907093Y-94703710D01*
X112906940Y-94724889D01*
X112906808Y-94751379D01*
X112906699Y-94782815D01*
X112906614Y-94818831D01*
X112906552Y-94859061D01*
X112906516Y-94903139D01*
X112906504Y-94950701D01*
X112906519Y-95001381D01*
X112906560Y-95054813D01*
X112906629Y-95110631D01*
X112906725Y-95168470D01*
X112906763Y-95187928D01*
X112907807Y-95702533D01*
X112832906Y-95702533D01*
X112832906Y-94588320D01*
X112954121Y-94588320D01*
X112969375Y-94626420D01*
G36*
X111995262Y-94585451D02*
G01*
X112004324Y-94586973D01*
X112007483Y-94589227D01*
X112008876Y-94592789D01*
X112012617Y-94602332D01*
X112018578Y-94617535D01*
X112026633Y-94638073D01*
X112036654Y-94663623D01*
X112048516Y-94693863D01*
X112062091Y-94728470D01*
X112077253Y-94767119D01*
X112093874Y-94809488D01*
X112111828Y-94855253D01*
X112130989Y-94904092D01*
X112151229Y-94955681D01*
X112172421Y-95009697D01*
X112194439Y-95065817D01*
X112217157Y-95123717D01*
X112224535Y-95142523D01*
X112247457Y-95200944D01*
X112269725Y-95257701D01*
X112291212Y-95312468D01*
X112311791Y-95364922D01*
X112331335Y-95414739D01*
X112349716Y-95461594D01*
X112366808Y-95505163D01*
X112382483Y-95545122D01*
X112396614Y-95581147D01*
X112409074Y-95612913D01*
X112419735Y-95640098D01*
X112428472Y-95662376D01*
X112435156Y-95679423D01*
X112439660Y-95690916D01*
X112441858Y-95696529D01*
X112442052Y-95697028D01*
X112442277Y-95699282D01*
X112440256Y-95700827D01*
X112434994Y-95701794D01*
X112425497Y-95702312D01*
X112410771Y-95702511D01*
X112400029Y-95702533D01*
X112355893Y-95702533D01*
X112315495Y-95600086D01*
X112303273Y-95569077D01*
X112289679Y-95534562D01*
X112275499Y-95498538D01*
X112261519Y-95463001D01*
X112248524Y-95429947D01*
X112238195Y-95403652D01*
X112201293Y-95309664D01*
X111974983Y-95310518D01*
X111748674Y-95311373D01*
X111671725Y-95506106D01*
X111594776Y-95700840D01*
X111551345Y-95701790D01*
X111533544Y-95702118D01*
X111521493Y-95702098D01*
X111514172Y-95701603D01*
X111510560Y-95700509D01*
X111509638Y-95698690D01*
X111510121Y-95696710D01*
X111511593Y-95692972D01*
X111515450Y-95683267D01*
X111521563Y-95667916D01*
X111529804Y-95647242D01*
X111540043Y-95621568D01*
X111552153Y-95591214D01*
X111566005Y-95556504D01*
X111581470Y-95517759D01*
X111598419Y-95475303D01*
X111616725Y-95429456D01*
X111636257Y-95380542D01*
X111656889Y-95328882D01*
X111678491Y-95274799D01*
X111694835Y-95233882D01*
X111780490Y-95233882D01*
X111781421Y-95234943D01*
X111783846Y-95235830D01*
X111788271Y-95236560D01*
X111795200Y-95237147D01*
X111805139Y-95237607D01*
X111818593Y-95237956D01*
X111836067Y-95238208D01*
X111858067Y-95238378D01*
X111885097Y-95238484D01*
X111917664Y-95238538D01*
X111956272Y-95238558D01*
X111975685Y-95238560D01*
X112015555Y-95238507D01*
X112051921Y-95238356D01*
X112084341Y-95238111D01*
X112112378Y-95237781D01*
X112135590Y-95237372D01*
X112153537Y-95236892D01*
X112165781Y-95236346D01*
X112171881Y-95235742D01*
X112172506Y-95235465D01*
X112171340Y-95231863D01*
X112167969Y-95222434D01*
X112162582Y-95207688D01*
X112155367Y-95188132D01*
X112146515Y-95164276D01*
X112136214Y-95136630D01*
X112124654Y-95105701D01*
X112112023Y-95071999D01*
X112098512Y-95036033D01*
X112086575Y-95004325D01*
X112072107Y-94965871D01*
X112058095Y-94928515D01*
X112044762Y-94892860D01*
X112032332Y-94859508D01*
X112021027Y-94829060D01*
X112011071Y-94802120D01*
X112002687Y-94779289D01*
X111996098Y-94761168D01*
X111991528Y-94748361D01*
X111989655Y-94742897D01*
X111978666Y-94709514D01*
X111960790Y-94763217D01*
X111956347Y-94775988D01*
X111949685Y-94794335D01*
X111941078Y-94817537D01*
X111930802Y-94844872D01*
X111919129Y-94875617D01*
X111906334Y-94909052D01*
X111892692Y-94944453D01*
X111878476Y-94981101D01*
X111863960Y-95018272D01*
X111862573Y-95021813D01*
X111848661Y-95057316D01*
X111835462Y-95091048D01*
X111823187Y-95122466D01*
X111812047Y-95151026D01*
X111802254Y-95176185D01*
X111794020Y-95197398D01*
X111787557Y-95214121D01*
X111783075Y-95225811D01*
X111780787Y-95231924D01*
X111780547Y-95232633D01*
X111780490Y-95233882D01*
X111694835Y-95233882D01*
X111700934Y-95218614D01*
X111724090Y-95160651D01*
X111733197Y-95137856D01*
X111954066Y-94585032D01*
X111979950Y-94584982D01*
X111995262Y-94585451D01*
X111995262Y-94585451D01*
G37*
X111995262Y-94585451D02*
X112004324Y-94586973D01*
X112007483Y-94589227D01*
X112008876Y-94592789D01*
X112012617Y-94602332D01*
X112018578Y-94617535D01*
X112026633Y-94638073D01*
X112036654Y-94663623D01*
X112048516Y-94693863D01*
X112062091Y-94728470D01*
X112077253Y-94767119D01*
X112093874Y-94809488D01*
X112111828Y-94855253D01*
X112130989Y-94904092D01*
X112151229Y-94955681D01*
X112172421Y-95009697D01*
X112194439Y-95065817D01*
X112217157Y-95123717D01*
X112224535Y-95142523D01*
X112247457Y-95200944D01*
X112269725Y-95257701D01*
X112291212Y-95312468D01*
X112311791Y-95364922D01*
X112331335Y-95414739D01*
X112349716Y-95461594D01*
X112366808Y-95505163D01*
X112382483Y-95545122D01*
X112396614Y-95581147D01*
X112409074Y-95612913D01*
X112419735Y-95640098D01*
X112428472Y-95662376D01*
X112435156Y-95679423D01*
X112439660Y-95690916D01*
X112441858Y-95696529D01*
X112442052Y-95697028D01*
X112442277Y-95699282D01*
X112440256Y-95700827D01*
X112434994Y-95701794D01*
X112425497Y-95702312D01*
X112410771Y-95702511D01*
X112400029Y-95702533D01*
X112355893Y-95702533D01*
X112315495Y-95600086D01*
X112303273Y-95569077D01*
X112289679Y-95534562D01*
X112275499Y-95498538D01*
X112261519Y-95463001D01*
X112248524Y-95429947D01*
X112238195Y-95403652D01*
X112201293Y-95309664D01*
X111974983Y-95310518D01*
X111748674Y-95311373D01*
X111671725Y-95506106D01*
X111594776Y-95700840D01*
X111551345Y-95701790D01*
X111533544Y-95702118D01*
X111521493Y-95702098D01*
X111514172Y-95701603D01*
X111510560Y-95700509D01*
X111509638Y-95698690D01*
X111510121Y-95696710D01*
X111511593Y-95692972D01*
X111515450Y-95683267D01*
X111521563Y-95667916D01*
X111529804Y-95647242D01*
X111540043Y-95621568D01*
X111552153Y-95591214D01*
X111566005Y-95556504D01*
X111581470Y-95517759D01*
X111598419Y-95475303D01*
X111616725Y-95429456D01*
X111636257Y-95380542D01*
X111656889Y-95328882D01*
X111678491Y-95274799D01*
X111694835Y-95233882D01*
X111780490Y-95233882D01*
X111781421Y-95234943D01*
X111783846Y-95235830D01*
X111788271Y-95236560D01*
X111795200Y-95237147D01*
X111805139Y-95237607D01*
X111818593Y-95237956D01*
X111836067Y-95238208D01*
X111858067Y-95238378D01*
X111885097Y-95238484D01*
X111917664Y-95238538D01*
X111956272Y-95238558D01*
X111975685Y-95238560D01*
X112015555Y-95238507D01*
X112051921Y-95238356D01*
X112084341Y-95238111D01*
X112112378Y-95237781D01*
X112135590Y-95237372D01*
X112153537Y-95236892D01*
X112165781Y-95236346D01*
X112171881Y-95235742D01*
X112172506Y-95235465D01*
X112171340Y-95231863D01*
X112167969Y-95222434D01*
X112162582Y-95207688D01*
X112155367Y-95188132D01*
X112146515Y-95164276D01*
X112136214Y-95136630D01*
X112124654Y-95105701D01*
X112112023Y-95071999D01*
X112098512Y-95036033D01*
X112086575Y-95004325D01*
X112072107Y-94965871D01*
X112058095Y-94928515D01*
X112044762Y-94892860D01*
X112032332Y-94859508D01*
X112021027Y-94829060D01*
X112011071Y-94802120D01*
X112002687Y-94779289D01*
X111996098Y-94761168D01*
X111991528Y-94748361D01*
X111989655Y-94742897D01*
X111978666Y-94709514D01*
X111960790Y-94763217D01*
X111956347Y-94775988D01*
X111949685Y-94794335D01*
X111941078Y-94817537D01*
X111930802Y-94844872D01*
X111919129Y-94875617D01*
X111906334Y-94909052D01*
X111892692Y-94944453D01*
X111878476Y-94981101D01*
X111863960Y-95018272D01*
X111862573Y-95021813D01*
X111848661Y-95057316D01*
X111835462Y-95091048D01*
X111823187Y-95122466D01*
X111812047Y-95151026D01*
X111802254Y-95176185D01*
X111794020Y-95197398D01*
X111787557Y-95214121D01*
X111783075Y-95225811D01*
X111780787Y-95231924D01*
X111780547Y-95232633D01*
X111780490Y-95233882D01*
X111694835Y-95233882D01*
X111700934Y-95218614D01*
X111724090Y-95160651D01*
X111733197Y-95137856D01*
X111954066Y-94585032D01*
X111979950Y-94584982D01*
X111995262Y-94585451D01*
G36*
X110661206Y-94588331D02*
G01*
X110694637Y-94588413D01*
X110727362Y-94588644D01*
X110758467Y-94589005D01*
X110787039Y-94589481D01*
X110812162Y-94590055D01*
X110832923Y-94590709D01*
X110848406Y-94591427D01*
X110855093Y-94591910D01*
X110905306Y-94598379D01*
X110952034Y-94608171D01*
X110994485Y-94621064D01*
X111031869Y-94636836D01*
X111049323Y-94646267D01*
X111068032Y-94659092D01*
X111087771Y-94675656D01*
X111106931Y-94694353D01*
X111123905Y-94713573D01*
X111137084Y-94731709D01*
X111140409Y-94737333D01*
X111156199Y-94772466D01*
X111167505Y-94811421D01*
X111174269Y-94852891D01*
X111176433Y-94895568D01*
X111173938Y-94938148D01*
X111166726Y-94979323D01*
X111154739Y-95017786D01*
X111153102Y-95021855D01*
X111134100Y-95059182D01*
X111109449Y-95092959D01*
X111079395Y-95122967D01*
X111044184Y-95148993D01*
X111004062Y-95170819D01*
X110966169Y-95185947D01*
X110954604Y-95190389D01*
X110946208Y-95194573D01*
X110942472Y-95197729D01*
X110942425Y-95198215D01*
X110944270Y-95201644D01*
X110949335Y-95210455D01*
X110957365Y-95224217D01*
X110968105Y-95242500D01*
X110981301Y-95264872D01*
X110996696Y-95290902D01*
X111014037Y-95320158D01*
X111033068Y-95352210D01*
X111053535Y-95386626D01*
X111075182Y-95422975D01*
X111090591Y-95448820D01*
X111112883Y-95486230D01*
X111134148Y-95521997D01*
X111154135Y-95555689D01*
X111172589Y-95586877D01*
X111189258Y-95615131D01*
X111203890Y-95640020D01*
X111216230Y-95661115D01*
X111226026Y-95677985D01*
X111233024Y-95690199D01*
X111236973Y-95697329D01*
X111237786Y-95699058D01*
X111234485Y-95700589D01*
X111224904Y-95701701D01*
X111209525Y-95702359D01*
X111192858Y-95702533D01*
X111147930Y-95702533D01*
X110862370Y-95219933D01*
X110723265Y-95219049D01*
X110584160Y-95218164D01*
X110584160Y-95702533D01*
X110506266Y-95702533D01*
X110506266Y-94902715D01*
X110584160Y-94902715D01*
X110584190Y-94942706D01*
X110584279Y-94980710D01*
X110584421Y-95016185D01*
X110584610Y-95048591D01*
X110584843Y-95077384D01*
X110585114Y-95102024D01*
X110585418Y-95121970D01*
X110585750Y-95136679D01*
X110586106Y-95145609D01*
X110586417Y-95148248D01*
X110590459Y-95148979D01*
X110600354Y-95149555D01*
X110615186Y-95149982D01*
X110634036Y-95150264D01*
X110655988Y-95150403D01*
X110680123Y-95150406D01*
X110705524Y-95150274D01*
X110731273Y-95150014D01*
X110756453Y-95149628D01*
X110780146Y-95149121D01*
X110801434Y-95148497D01*
X110819401Y-95147761D01*
X110829729Y-95147165D01*
X110875904Y-95142227D01*
X110916636Y-95133975D01*
X110952502Y-95122191D01*
X110984084Y-95106656D01*
X111011961Y-95087153D01*
X111027959Y-95072654D01*
X111047871Y-95050586D01*
X111063026Y-95028153D01*
X111074743Y-95003103D01*
X111082617Y-94979361D01*
X111085750Y-94967506D01*
X111087923Y-94956299D01*
X111089296Y-94944064D01*
X111090031Y-94929123D01*
X111090291Y-94909799D01*
X111090297Y-94899893D01*
X111090105Y-94877958D01*
X111089500Y-94861103D01*
X111088318Y-94847641D01*
X111086394Y-94835883D01*
X111083563Y-94824140D01*
X111082529Y-94820425D01*
X111070565Y-94786882D01*
X111054904Y-94758075D01*
X111035097Y-94733619D01*
X111010700Y-94713126D01*
X110981264Y-94696209D01*
X110946344Y-94682482D01*
X110912666Y-94673183D01*
X110895345Y-94669544D01*
X110876829Y-94666556D01*
X110856319Y-94664167D01*
X110833017Y-94662327D01*
X110806126Y-94660986D01*
X110774847Y-94660092D01*
X110738383Y-94659594D01*
X110696766Y-94659442D01*
X110584160Y-94659440D01*
X110584160Y-94902715D01*
X110506266Y-94902715D01*
X110506266Y-94588320D01*
X110661206Y-94588331D01*
X110661206Y-94588331D01*
G37*
X110661206Y-94588331D02*
X110694637Y-94588413D01*
X110727362Y-94588644D01*
X110758467Y-94589005D01*
X110787039Y-94589481D01*
X110812162Y-94590055D01*
X110832923Y-94590709D01*
X110848406Y-94591427D01*
X110855093Y-94591910D01*
X110905306Y-94598379D01*
X110952034Y-94608171D01*
X110994485Y-94621064D01*
X111031869Y-94636836D01*
X111049323Y-94646267D01*
X111068032Y-94659092D01*
X111087771Y-94675656D01*
X111106931Y-94694353D01*
X111123905Y-94713573D01*
X111137084Y-94731709D01*
X111140409Y-94737333D01*
X111156199Y-94772466D01*
X111167505Y-94811421D01*
X111174269Y-94852891D01*
X111176433Y-94895568D01*
X111173938Y-94938148D01*
X111166726Y-94979323D01*
X111154739Y-95017786D01*
X111153102Y-95021855D01*
X111134100Y-95059182D01*
X111109449Y-95092959D01*
X111079395Y-95122967D01*
X111044184Y-95148993D01*
X111004062Y-95170819D01*
X110966169Y-95185947D01*
X110954604Y-95190389D01*
X110946208Y-95194573D01*
X110942472Y-95197729D01*
X110942425Y-95198215D01*
X110944270Y-95201644D01*
X110949335Y-95210455D01*
X110957365Y-95224217D01*
X110968105Y-95242500D01*
X110981301Y-95264872D01*
X110996696Y-95290902D01*
X111014037Y-95320158D01*
X111033068Y-95352210D01*
X111053535Y-95386626D01*
X111075182Y-95422975D01*
X111090591Y-95448820D01*
X111112883Y-95486230D01*
X111134148Y-95521997D01*
X111154135Y-95555689D01*
X111172589Y-95586877D01*
X111189258Y-95615131D01*
X111203890Y-95640020D01*
X111216230Y-95661115D01*
X111226026Y-95677985D01*
X111233024Y-95690199D01*
X111236973Y-95697329D01*
X111237786Y-95699058D01*
X111234485Y-95700589D01*
X111224904Y-95701701D01*
X111209525Y-95702359D01*
X111192858Y-95702533D01*
X111147930Y-95702533D01*
X110862370Y-95219933D01*
X110723265Y-95219049D01*
X110584160Y-95218164D01*
X110584160Y-95702533D01*
X110506266Y-95702533D01*
X110506266Y-94902715D01*
X110584160Y-94902715D01*
X110584190Y-94942706D01*
X110584279Y-94980710D01*
X110584421Y-95016185D01*
X110584610Y-95048591D01*
X110584843Y-95077384D01*
X110585114Y-95102024D01*
X110585418Y-95121970D01*
X110585750Y-95136679D01*
X110586106Y-95145609D01*
X110586417Y-95148248D01*
X110590459Y-95148979D01*
X110600354Y-95149555D01*
X110615186Y-95149982D01*
X110634036Y-95150264D01*
X110655988Y-95150403D01*
X110680123Y-95150406D01*
X110705524Y-95150274D01*
X110731273Y-95150014D01*
X110756453Y-95149628D01*
X110780146Y-95149121D01*
X110801434Y-95148497D01*
X110819401Y-95147761D01*
X110829729Y-95147165D01*
X110875904Y-95142227D01*
X110916636Y-95133975D01*
X110952502Y-95122191D01*
X110984084Y-95106656D01*
X111011961Y-95087153D01*
X111027959Y-95072654D01*
X111047871Y-95050586D01*
X111063026Y-95028153D01*
X111074743Y-95003103D01*
X111082617Y-94979361D01*
X111085750Y-94967506D01*
X111087923Y-94956299D01*
X111089296Y-94944064D01*
X111090031Y-94929123D01*
X111090291Y-94909799D01*
X111090297Y-94899893D01*
X111090105Y-94877958D01*
X111089500Y-94861103D01*
X111088318Y-94847641D01*
X111086394Y-94835883D01*
X111083563Y-94824140D01*
X111082529Y-94820425D01*
X111070565Y-94786882D01*
X111054904Y-94758075D01*
X111035097Y-94733619D01*
X111010700Y-94713126D01*
X110981264Y-94696209D01*
X110946344Y-94682482D01*
X110912666Y-94673183D01*
X110895345Y-94669544D01*
X110876829Y-94666556D01*
X110856319Y-94664167D01*
X110833017Y-94662327D01*
X110806126Y-94660986D01*
X110774847Y-94660092D01*
X110738383Y-94659594D01*
X110696766Y-94659442D01*
X110584160Y-94659440D01*
X110584160Y-94902715D01*
X110506266Y-94902715D01*
X110506266Y-94588320D01*
X110661206Y-94588331D01*
G36*
X109367500Y-94589242D02*
G01*
X109411747Y-94589590D01*
X109449894Y-94589960D01*
X109482613Y-94590402D01*
X109510575Y-94590963D01*
X109534454Y-94591692D01*
X109554921Y-94592638D01*
X109572650Y-94593847D01*
X109588311Y-94595370D01*
X109602579Y-94597254D01*
X109616125Y-94599547D01*
X109629622Y-94602297D01*
X109643741Y-94605554D01*
X109659156Y-94609365D01*
X109663760Y-94610529D01*
X109718293Y-94627500D01*
X109768732Y-94649662D01*
X109814892Y-94676874D01*
X109856588Y-94708992D01*
X109893635Y-94745872D01*
X109925849Y-94787372D01*
X109953045Y-94833348D01*
X109954161Y-94835546D01*
X109973828Y-94879129D01*
X109989445Y-94924199D01*
X110001199Y-94971678D01*
X110009281Y-95022488D01*
X110013881Y-95077549D01*
X110015199Y-95132186D01*
X110013495Y-95196217D01*
X110008278Y-95254984D01*
X109999392Y-95309110D01*
X109986679Y-95359214D01*
X109969982Y-95405917D01*
X109949146Y-95449839D01*
X109924647Y-95490652D01*
X109893128Y-95531966D01*
X109856395Y-95569216D01*
X109814832Y-95602157D01*
X109768820Y-95630540D01*
X109718744Y-95654119D01*
X109664985Y-95672646D01*
X109628653Y-95681775D01*
X109610608Y-95685578D01*
X109593842Y-95688816D01*
X109577603Y-95691541D01*
X109561137Y-95693808D01*
X109543691Y-95695667D01*
X109524513Y-95697171D01*
X109502849Y-95698374D01*
X109477946Y-95699328D01*
X109449051Y-95700085D01*
X109415412Y-95700699D01*
X109376275Y-95701221D01*
X109345486Y-95701557D01*
X109171920Y-95703341D01*
X109171920Y-95632094D01*
X109249813Y-95632094D01*
X109389513Y-95630428D01*
X109425221Y-95629970D01*
X109454950Y-95629497D01*
X109479494Y-95628972D01*
X109499649Y-95628355D01*
X109516208Y-95627608D01*
X109529965Y-95626691D01*
X109541717Y-95625567D01*
X109552255Y-95624196D01*
X109562377Y-95622540D01*
X109566466Y-95621793D01*
X109623620Y-95608626D01*
X109675391Y-95591445D01*
X109721954Y-95570102D01*
X109763487Y-95544451D01*
X109800164Y-95514346D01*
X109832163Y-95479641D01*
X109859659Y-95440188D01*
X109882829Y-95395843D01*
X109901849Y-95346459D01*
X109903245Y-95342134D01*
X109910946Y-95316270D01*
X109917013Y-95291666D01*
X109921613Y-95266989D01*
X109924915Y-95240911D01*
X109927086Y-95212099D01*
X109928295Y-95179224D01*
X109928708Y-95140954D01*
X109928709Y-95140346D01*
X109928624Y-95108500D01*
X109928175Y-95082076D01*
X109927229Y-95059727D01*
X109925652Y-95040105D01*
X109923311Y-95021864D01*
X109920073Y-95003655D01*
X109915803Y-94984131D01*
X109911501Y-94966441D01*
X109895550Y-94914894D01*
X109874669Y-94867872D01*
X109848923Y-94825461D01*
X109818375Y-94787745D01*
X109783090Y-94754809D01*
X109743132Y-94726739D01*
X109721336Y-94714512D01*
X109698416Y-94703152D01*
X109676244Y-94693403D01*
X109654073Y-94685138D01*
X109631157Y-94678228D01*
X109606746Y-94672547D01*
X109580093Y-94667967D01*
X109550450Y-94664361D01*
X109517071Y-94661600D01*
X109479206Y-94659559D01*
X109436108Y-94658108D01*
X109387030Y-94657121D01*
X109384433Y-94657082D01*
X109249813Y-94655085D01*
X109249813Y-95632094D01*
X109171920Y-95632094D01*
X109171920Y-94587792D01*
X109367500Y-94589242D01*
X109367500Y-94589242D01*
G37*
X109367500Y-94589242D02*
X109411747Y-94589590D01*
X109449894Y-94589960D01*
X109482613Y-94590402D01*
X109510575Y-94590963D01*
X109534454Y-94591692D01*
X109554921Y-94592638D01*
X109572650Y-94593847D01*
X109588311Y-94595370D01*
X109602579Y-94597254D01*
X109616125Y-94599547D01*
X109629622Y-94602297D01*
X109643741Y-94605554D01*
X109659156Y-94609365D01*
X109663760Y-94610529D01*
X109718293Y-94627500D01*
X109768732Y-94649662D01*
X109814892Y-94676874D01*
X109856588Y-94708992D01*
X109893635Y-94745872D01*
X109925849Y-94787372D01*
X109953045Y-94833348D01*
X109954161Y-94835546D01*
X109973828Y-94879129D01*
X109989445Y-94924199D01*
X110001199Y-94971678D01*
X110009281Y-95022488D01*
X110013881Y-95077549D01*
X110015199Y-95132186D01*
X110013495Y-95196217D01*
X110008278Y-95254984D01*
X109999392Y-95309110D01*
X109986679Y-95359214D01*
X109969982Y-95405917D01*
X109949146Y-95449839D01*
X109924647Y-95490652D01*
X109893128Y-95531966D01*
X109856395Y-95569216D01*
X109814832Y-95602157D01*
X109768820Y-95630540D01*
X109718744Y-95654119D01*
X109664985Y-95672646D01*
X109628653Y-95681775D01*
X109610608Y-95685578D01*
X109593842Y-95688816D01*
X109577603Y-95691541D01*
X109561137Y-95693808D01*
X109543691Y-95695667D01*
X109524513Y-95697171D01*
X109502849Y-95698374D01*
X109477946Y-95699328D01*
X109449051Y-95700085D01*
X109415412Y-95700699D01*
X109376275Y-95701221D01*
X109345486Y-95701557D01*
X109171920Y-95703341D01*
X109171920Y-95632094D01*
X109249813Y-95632094D01*
X109389513Y-95630428D01*
X109425221Y-95629970D01*
X109454950Y-95629497D01*
X109479494Y-95628972D01*
X109499649Y-95628355D01*
X109516208Y-95627608D01*
X109529965Y-95626691D01*
X109541717Y-95625567D01*
X109552255Y-95624196D01*
X109562377Y-95622540D01*
X109566466Y-95621793D01*
X109623620Y-95608626D01*
X109675391Y-95591445D01*
X109721954Y-95570102D01*
X109763487Y-95544451D01*
X109800164Y-95514346D01*
X109832163Y-95479641D01*
X109859659Y-95440188D01*
X109882829Y-95395843D01*
X109901849Y-95346459D01*
X109903245Y-95342134D01*
X109910946Y-95316270D01*
X109917013Y-95291666D01*
X109921613Y-95266989D01*
X109924915Y-95240911D01*
X109927086Y-95212099D01*
X109928295Y-95179224D01*
X109928708Y-95140954D01*
X109928709Y-95140346D01*
X109928624Y-95108500D01*
X109928175Y-95082076D01*
X109927229Y-95059727D01*
X109925652Y-95040105D01*
X109923311Y-95021864D01*
X109920073Y-95003655D01*
X109915803Y-94984131D01*
X109911501Y-94966441D01*
X109895550Y-94914894D01*
X109874669Y-94867872D01*
X109848923Y-94825461D01*
X109818375Y-94787745D01*
X109783090Y-94754809D01*
X109743132Y-94726739D01*
X109721336Y-94714512D01*
X109698416Y-94703152D01*
X109676244Y-94693403D01*
X109654073Y-94685138D01*
X109631157Y-94678228D01*
X109606746Y-94672547D01*
X109580093Y-94667967D01*
X109550450Y-94664361D01*
X109517071Y-94661600D01*
X109479206Y-94659559D01*
X109436108Y-94658108D01*
X109387030Y-94657121D01*
X109384433Y-94657082D01*
X109249813Y-94655085D01*
X109249813Y-95632094D01*
X109171920Y-95632094D01*
X109171920Y-94587792D01*
X109367500Y-94589242D01*
G36*
X116078371Y-94573363D02*
G01*
X116100952Y-94573761D01*
X116119200Y-94574542D01*
X116134333Y-94575774D01*
X116147569Y-94577524D01*
X116156920Y-94579206D01*
X116209395Y-94591962D01*
X116256867Y-94608570D01*
X116300182Y-94629466D01*
X116340187Y-94655087D01*
X116377728Y-94685870D01*
X116394079Y-94701557D01*
X116431302Y-94743678D01*
X116463378Y-94790162D01*
X116490309Y-94841017D01*
X116512099Y-94896255D01*
X116528751Y-94955885D01*
X116540268Y-95019917D01*
X116546655Y-95088360D01*
X116548080Y-95142269D01*
X116545490Y-95214099D01*
X116537728Y-95281673D01*
X116524803Y-95344962D01*
X116506726Y-95403937D01*
X116483507Y-95458568D01*
X116455157Y-95508827D01*
X116421685Y-95554685D01*
X116391823Y-95587586D01*
X116352137Y-95622784D01*
X116308903Y-95652304D01*
X116262067Y-95676167D01*
X116211573Y-95694393D01*
X116157366Y-95707002D01*
X116099392Y-95714014D01*
X116045248Y-95715572D01*
X116027086Y-95715300D01*
X116010563Y-95714910D01*
X115997262Y-95714449D01*
X115988763Y-95713964D01*
X115987586Y-95713846D01*
X115928696Y-95703877D01*
X115873994Y-95688590D01*
X115823451Y-95667963D01*
X115777036Y-95641975D01*
X115734719Y-95610607D01*
X115696469Y-95573838D01*
X115662255Y-95531646D01*
X115632047Y-95484013D01*
X115623520Y-95468192D01*
X115600822Y-95417853D01*
X115582365Y-95362924D01*
X115568290Y-95304208D01*
X115558737Y-95242504D01*
X115553845Y-95178613D01*
X115553797Y-95143733D01*
X115640453Y-95143733D01*
X115642373Y-95209559D01*
X115648200Y-95270081D01*
X115658032Y-95325597D01*
X115671969Y-95376406D01*
X115690109Y-95422805D01*
X115712553Y-95465092D01*
X115739399Y-95503566D01*
X115770746Y-95538525D01*
X115772216Y-95539973D01*
X115807784Y-95570613D01*
X115846356Y-95595598D01*
X115888387Y-95615145D01*
X115934331Y-95629470D01*
X115977426Y-95637795D01*
X115995818Y-95639639D01*
X116018952Y-95640720D01*
X116044845Y-95641056D01*
X116071511Y-95640665D01*
X116096965Y-95639563D01*
X116119221Y-95637770D01*
X116129768Y-95636437D01*
X116180451Y-95625842D01*
X116226954Y-95609938D01*
X116269332Y-95588683D01*
X116307644Y-95562030D01*
X116341947Y-95529935D01*
X116372297Y-95492354D01*
X116398751Y-95449241D01*
X116416917Y-95411280D01*
X116432871Y-95367378D01*
X116445530Y-95318632D01*
X116454838Y-95266147D01*
X116460735Y-95211028D01*
X116463163Y-95154381D01*
X116462064Y-95097313D01*
X116457379Y-95040928D01*
X116449050Y-94986333D01*
X116441227Y-94950601D01*
X116426139Y-94900060D01*
X116407155Y-94854584D01*
X116383889Y-94813445D01*
X116355955Y-94775915D01*
X116338361Y-94756444D01*
X116304812Y-94725590D01*
X116268696Y-94700156D01*
X116229570Y-94679974D01*
X116186990Y-94664876D01*
X116140511Y-94654695D01*
X116089688Y-94649262D01*
X116051933Y-94648194D01*
X116013818Y-94649095D01*
X115980259Y-94651991D01*
X115949255Y-94657174D01*
X115918808Y-94664937D01*
X115903052Y-94669915D01*
X115858461Y-94688305D01*
X115817354Y-94712390D01*
X115780005Y-94741896D01*
X115746693Y-94776553D01*
X115717691Y-94816089D01*
X115693278Y-94860232D01*
X115681126Y-94888357D01*
X115667170Y-94928469D01*
X115656337Y-94969868D01*
X115648451Y-95013670D01*
X115643332Y-95060992D01*
X115640804Y-95112951D01*
X115640453Y-95143733D01*
X115553797Y-95143733D01*
X115553755Y-95113337D01*
X115555624Y-95079482D01*
X115562915Y-95012874D01*
X115574532Y-94951292D01*
X115590580Y-94894462D01*
X115611166Y-94842111D01*
X115636396Y-94793966D01*
X115666377Y-94749753D01*
X115698674Y-94711863D01*
X115736343Y-94676174D01*
X115776766Y-94645999D01*
X115820561Y-94620999D01*
X115868347Y-94600838D01*
X115920741Y-94585178D01*
X115938480Y-94581085D01*
X115951361Y-94578479D01*
X115963438Y-94576523D01*
X115976028Y-94575125D01*
X115990450Y-94574193D01*
X116008022Y-94573635D01*
X116030063Y-94573359D01*
X116050240Y-94573281D01*
X116078371Y-94573363D01*
X116078371Y-94573363D01*
G37*
X116078371Y-94573363D02*
X116100952Y-94573761D01*
X116119200Y-94574542D01*
X116134333Y-94575774D01*
X116147569Y-94577524D01*
X116156920Y-94579206D01*
X116209395Y-94591962D01*
X116256867Y-94608570D01*
X116300182Y-94629466D01*
X116340187Y-94655087D01*
X116377728Y-94685870D01*
X116394079Y-94701557D01*
X116431302Y-94743678D01*
X116463378Y-94790162D01*
X116490309Y-94841017D01*
X116512099Y-94896255D01*
X116528751Y-94955885D01*
X116540268Y-95019917D01*
X116546655Y-95088360D01*
X116548080Y-95142269D01*
X116545490Y-95214099D01*
X116537728Y-95281673D01*
X116524803Y-95344962D01*
X116506726Y-95403937D01*
X116483507Y-95458568D01*
X116455157Y-95508827D01*
X116421685Y-95554685D01*
X116391823Y-95587586D01*
X116352137Y-95622784D01*
X116308903Y-95652304D01*
X116262067Y-95676167D01*
X116211573Y-95694393D01*
X116157366Y-95707002D01*
X116099392Y-95714014D01*
X116045248Y-95715572D01*
X116027086Y-95715300D01*
X116010563Y-95714910D01*
X115997262Y-95714449D01*
X115988763Y-95713964D01*
X115987586Y-95713846D01*
X115928696Y-95703877D01*
X115873994Y-95688590D01*
X115823451Y-95667963D01*
X115777036Y-95641975D01*
X115734719Y-95610607D01*
X115696469Y-95573838D01*
X115662255Y-95531646D01*
X115632047Y-95484013D01*
X115623520Y-95468192D01*
X115600822Y-95417853D01*
X115582365Y-95362924D01*
X115568290Y-95304208D01*
X115558737Y-95242504D01*
X115553845Y-95178613D01*
X115553797Y-95143733D01*
X115640453Y-95143733D01*
X115642373Y-95209559D01*
X115648200Y-95270081D01*
X115658032Y-95325597D01*
X115671969Y-95376406D01*
X115690109Y-95422805D01*
X115712553Y-95465092D01*
X115739399Y-95503566D01*
X115770746Y-95538525D01*
X115772216Y-95539973D01*
X115807784Y-95570613D01*
X115846356Y-95595598D01*
X115888387Y-95615145D01*
X115934331Y-95629470D01*
X115977426Y-95637795D01*
X115995818Y-95639639D01*
X116018952Y-95640720D01*
X116044845Y-95641056D01*
X116071511Y-95640665D01*
X116096965Y-95639563D01*
X116119221Y-95637770D01*
X116129768Y-95636437D01*
X116180451Y-95625842D01*
X116226954Y-95609938D01*
X116269332Y-95588683D01*
X116307644Y-95562030D01*
X116341947Y-95529935D01*
X116372297Y-95492354D01*
X116398751Y-95449241D01*
X116416917Y-95411280D01*
X116432871Y-95367378D01*
X116445530Y-95318632D01*
X116454838Y-95266147D01*
X116460735Y-95211028D01*
X116463163Y-95154381D01*
X116462064Y-95097313D01*
X116457379Y-95040928D01*
X116449050Y-94986333D01*
X116441227Y-94950601D01*
X116426139Y-94900060D01*
X116407155Y-94854584D01*
X116383889Y-94813445D01*
X116355955Y-94775915D01*
X116338361Y-94756444D01*
X116304812Y-94725590D01*
X116268696Y-94700156D01*
X116229570Y-94679974D01*
X116186990Y-94664876D01*
X116140511Y-94654695D01*
X116089688Y-94649262D01*
X116051933Y-94648194D01*
X116013818Y-94649095D01*
X115980259Y-94651991D01*
X115949255Y-94657174D01*
X115918808Y-94664937D01*
X115903052Y-94669915D01*
X115858461Y-94688305D01*
X115817354Y-94712390D01*
X115780005Y-94741896D01*
X115746693Y-94776553D01*
X115717691Y-94816089D01*
X115693278Y-94860232D01*
X115681126Y-94888357D01*
X115667170Y-94928469D01*
X115656337Y-94969868D01*
X115648451Y-95013670D01*
X115643332Y-95060992D01*
X115640804Y-95112951D01*
X115640453Y-95143733D01*
X115553797Y-95143733D01*
X115553755Y-95113337D01*
X115555624Y-95079482D01*
X115562915Y-95012874D01*
X115574532Y-94951292D01*
X115590580Y-94894462D01*
X115611166Y-94842111D01*
X115636396Y-94793966D01*
X115666377Y-94749753D01*
X115698674Y-94711863D01*
X115736343Y-94676174D01*
X115776766Y-94645999D01*
X115820561Y-94620999D01*
X115868347Y-94600838D01*
X115920741Y-94585178D01*
X115938480Y-94581085D01*
X115951361Y-94578479D01*
X115963438Y-94576523D01*
X115976028Y-94575125D01*
X115990450Y-94574193D01*
X116008022Y-94573635D01*
X116030063Y-94573359D01*
X116050240Y-94573281D01*
X116078371Y-94573363D01*
G36*
X114927686Y-94574295D02*
G01*
X114964102Y-94576633D01*
X114998462Y-94580833D01*
X115033058Y-94587168D01*
X115066236Y-94594907D01*
X115082247Y-94599307D01*
X115100107Y-94604794D01*
X115118471Y-94610887D01*
X115135993Y-94617105D01*
X115151329Y-94622968D01*
X115163133Y-94627994D01*
X115170060Y-94631702D01*
X115170762Y-94632262D01*
X115170425Y-94635982D01*
X115167861Y-94644266D01*
X115163712Y-94655542D01*
X115158618Y-94668239D01*
X115153222Y-94680785D01*
X115148166Y-94691609D01*
X115144091Y-94699140D01*
X115142611Y-94701192D01*
X115138440Y-94701334D01*
X115130387Y-94698743D01*
X115123373Y-94695547D01*
X115106074Y-94687768D01*
X115084169Y-94679393D01*
X115059703Y-94671106D01*
X115034724Y-94663590D01*
X115011275Y-94657528D01*
X115006010Y-94656345D01*
X114950198Y-94647066D01*
X114895033Y-94643378D01*
X114841049Y-94645135D01*
X114788781Y-94652191D01*
X114738764Y-94664402D01*
X114691533Y-94681620D01*
X114647623Y-94703700D01*
X114607568Y-94730496D01*
X114571904Y-94761862D01*
X114556051Y-94779020D01*
X114524164Y-94820583D01*
X114497457Y-94865279D01*
X114475834Y-94913417D01*
X114459194Y-94965305D01*
X114447439Y-95021253D01*
X114440469Y-95081568D01*
X114438186Y-95146160D01*
X114440630Y-95211901D01*
X114447902Y-95273508D01*
X114459910Y-95330851D01*
X114476563Y-95383799D01*
X114497769Y-95432220D01*
X114523438Y-95475983D01*
X114553476Y-95514959D01*
X114587794Y-95549016D01*
X114626300Y-95578023D01*
X114668902Y-95601849D01*
X114715510Y-95620363D01*
X114766030Y-95633435D01*
X114780240Y-95636000D01*
X114830069Y-95641805D01*
X114883940Y-95643683D01*
X114940439Y-95641720D01*
X114998152Y-95636003D01*
X115055663Y-95626616D01*
X115100355Y-95616578D01*
X115132453Y-95608428D01*
X115132453Y-95677839D01*
X115107900Y-95684937D01*
X115076333Y-95693504D01*
X115046508Y-95700298D01*
X115016948Y-95705513D01*
X114986176Y-95709340D01*
X114952714Y-95711974D01*
X114915087Y-95713608D01*
X114883533Y-95714289D01*
X114860036Y-95714563D01*
X114838187Y-95714689D01*
X114819101Y-95714672D01*
X114803891Y-95714516D01*
X114793671Y-95714224D01*
X114790400Y-95713985D01*
X114782103Y-95712742D01*
X114769164Y-95710573D01*
X114753594Y-95707822D01*
X114742427Y-95705775D01*
X114687504Y-95692349D01*
X114636218Y-95673293D01*
X114588712Y-95648780D01*
X114545128Y-95618982D01*
X114505608Y-95584071D01*
X114470295Y-95544220D01*
X114439330Y-95499600D01*
X114412856Y-95450384D01*
X114391015Y-95396745D01*
X114373950Y-95338855D01*
X114361802Y-95276885D01*
X114357056Y-95239047D01*
X114355118Y-95213070D01*
X114353972Y-95182809D01*
X114353600Y-95150169D01*
X114353985Y-95117053D01*
X114355109Y-95085364D01*
X114356954Y-95057007D01*
X114358910Y-95038210D01*
X114370021Y-94974966D01*
X114386439Y-94915665D01*
X114408011Y-94860473D01*
X114434580Y-94809554D01*
X114465992Y-94763072D01*
X114502089Y-94721192D01*
X114542717Y-94684079D01*
X114587721Y-94651897D01*
X114636944Y-94624811D01*
X114690232Y-94602985D01*
X114747428Y-94586584D01*
X114794026Y-94577758D01*
X114806914Y-94576363D01*
X114824821Y-94575166D01*
X114845992Y-94574247D01*
X114868672Y-94573685D01*
X114886920Y-94573547D01*
X114927686Y-94574295D01*
X114927686Y-94574295D01*
G37*
X114927686Y-94574295D02*
X114964102Y-94576633D01*
X114998462Y-94580833D01*
X115033058Y-94587168D01*
X115066236Y-94594907D01*
X115082247Y-94599307D01*
X115100107Y-94604794D01*
X115118471Y-94610887D01*
X115135993Y-94617105D01*
X115151329Y-94622968D01*
X115163133Y-94627994D01*
X115170060Y-94631702D01*
X115170762Y-94632262D01*
X115170425Y-94635982D01*
X115167861Y-94644266D01*
X115163712Y-94655542D01*
X115158618Y-94668239D01*
X115153222Y-94680785D01*
X115148166Y-94691609D01*
X115144091Y-94699140D01*
X115142611Y-94701192D01*
X115138440Y-94701334D01*
X115130387Y-94698743D01*
X115123373Y-94695547D01*
X115106074Y-94687768D01*
X115084169Y-94679393D01*
X115059703Y-94671106D01*
X115034724Y-94663590D01*
X115011275Y-94657528D01*
X115006010Y-94656345D01*
X114950198Y-94647066D01*
X114895033Y-94643378D01*
X114841049Y-94645135D01*
X114788781Y-94652191D01*
X114738764Y-94664402D01*
X114691533Y-94681620D01*
X114647623Y-94703700D01*
X114607568Y-94730496D01*
X114571904Y-94761862D01*
X114556051Y-94779020D01*
X114524164Y-94820583D01*
X114497457Y-94865279D01*
X114475834Y-94913417D01*
X114459194Y-94965305D01*
X114447439Y-95021253D01*
X114440469Y-95081568D01*
X114438186Y-95146160D01*
X114440630Y-95211901D01*
X114447902Y-95273508D01*
X114459910Y-95330851D01*
X114476563Y-95383799D01*
X114497769Y-95432220D01*
X114523438Y-95475983D01*
X114553476Y-95514959D01*
X114587794Y-95549016D01*
X114626300Y-95578023D01*
X114668902Y-95601849D01*
X114715510Y-95620363D01*
X114766030Y-95633435D01*
X114780240Y-95636000D01*
X114830069Y-95641805D01*
X114883940Y-95643683D01*
X114940439Y-95641720D01*
X114998152Y-95636003D01*
X115055663Y-95626616D01*
X115100355Y-95616578D01*
X115132453Y-95608428D01*
X115132453Y-95677839D01*
X115107900Y-95684937D01*
X115076333Y-95693504D01*
X115046508Y-95700298D01*
X115016948Y-95705513D01*
X114986176Y-95709340D01*
X114952714Y-95711974D01*
X114915087Y-95713608D01*
X114883533Y-95714289D01*
X114860036Y-95714563D01*
X114838187Y-95714689D01*
X114819101Y-95714672D01*
X114803891Y-95714516D01*
X114793671Y-95714224D01*
X114790400Y-95713985D01*
X114782103Y-95712742D01*
X114769164Y-95710573D01*
X114753594Y-95707822D01*
X114742427Y-95705775D01*
X114687504Y-95692349D01*
X114636218Y-95673293D01*
X114588712Y-95648780D01*
X114545128Y-95618982D01*
X114505608Y-95584071D01*
X114470295Y-95544220D01*
X114439330Y-95499600D01*
X114412856Y-95450384D01*
X114391015Y-95396745D01*
X114373950Y-95338855D01*
X114361802Y-95276885D01*
X114357056Y-95239047D01*
X114355118Y-95213070D01*
X114353972Y-95182809D01*
X114353600Y-95150169D01*
X114353985Y-95117053D01*
X114355109Y-95085364D01*
X114356954Y-95057007D01*
X114358910Y-95038210D01*
X114370021Y-94974966D01*
X114386439Y-94915665D01*
X114408011Y-94860473D01*
X114434580Y-94809554D01*
X114465992Y-94763072D01*
X114502089Y-94721192D01*
X114542717Y-94684079D01*
X114587721Y-94651897D01*
X114636944Y-94624811D01*
X114690232Y-94602985D01*
X114747428Y-94586584D01*
X114794026Y-94577758D01*
X114806914Y-94576363D01*
X114824821Y-94575166D01*
X114845992Y-94574247D01*
X114868672Y-94573685D01*
X114886920Y-94573547D01*
X114927686Y-94574295D01*
G36*
X137887200Y-90524650D02*
G01*
X137394061Y-90524650D01*
X137144746Y-90065862D01*
X137106317Y-89995201D01*
X137069561Y-89927719D01*
X137034936Y-89864256D01*
X137002904Y-89805651D01*
X136973925Y-89752743D01*
X136948459Y-89706370D01*
X136926967Y-89667372D01*
X136909908Y-89636586D01*
X136897744Y-89614853D01*
X136890935Y-89603011D01*
X136889665Y-89601042D01*
X136888603Y-89606128D01*
X136887627Y-89623247D01*
X136886746Y-89651735D01*
X136885968Y-89690925D01*
X136885301Y-89740151D01*
X136884753Y-89798747D01*
X136884334Y-89866048D01*
X136884051Y-89941387D01*
X136883912Y-90024100D01*
X136883900Y-90059829D01*
X136883900Y-90524650D01*
X136401253Y-90524650D01*
X136402864Y-89675337D01*
X136404475Y-88826025D01*
X136664825Y-88824458D01*
X136925175Y-88822892D01*
X137159021Y-89266819D01*
X137195873Y-89336713D01*
X137231159Y-89403515D01*
X137264412Y-89466347D01*
X137295165Y-89524332D01*
X137322951Y-89576595D01*
X137347304Y-89622258D01*
X137367755Y-89660443D01*
X137383839Y-89690276D01*
X137395087Y-89710878D01*
X137401034Y-89721373D01*
X137401707Y-89722411D01*
X137403416Y-89723269D01*
X137404897Y-89720491D01*
X137406166Y-89713285D01*
X137407240Y-89700856D01*
X137408134Y-89682414D01*
X137408865Y-89657165D01*
X137409449Y-89624317D01*
X137409901Y-89583077D01*
X137410239Y-89532653D01*
X137410478Y-89472253D01*
X137410635Y-89401082D01*
X137410725Y-89318351D01*
X137410748Y-89278462D01*
X137410950Y-88822850D01*
X137887200Y-88822850D01*
X137887200Y-90524650D01*
X137887200Y-90524650D01*
G37*
X137887200Y-90524650D02*
X137394061Y-90524650D01*
X137144746Y-90065862D01*
X137106317Y-89995201D01*
X137069561Y-89927719D01*
X137034936Y-89864256D01*
X137002904Y-89805651D01*
X136973925Y-89752743D01*
X136948459Y-89706370D01*
X136926967Y-89667372D01*
X136909908Y-89636586D01*
X136897744Y-89614853D01*
X136890935Y-89603011D01*
X136889665Y-89601042D01*
X136888603Y-89606128D01*
X136887627Y-89623247D01*
X136886746Y-89651735D01*
X136885968Y-89690925D01*
X136885301Y-89740151D01*
X136884753Y-89798747D01*
X136884334Y-89866048D01*
X136884051Y-89941387D01*
X136883912Y-90024100D01*
X136883900Y-90059829D01*
X136883900Y-90524650D01*
X136401253Y-90524650D01*
X136402864Y-89675337D01*
X136404475Y-88826025D01*
X136664825Y-88824458D01*
X136925175Y-88822892D01*
X137159021Y-89266819D01*
X137195873Y-89336713D01*
X137231159Y-89403515D01*
X137264412Y-89466347D01*
X137295165Y-89524332D01*
X137322951Y-89576595D01*
X137347304Y-89622258D01*
X137367755Y-89660443D01*
X137383839Y-89690276D01*
X137395087Y-89710878D01*
X137401034Y-89721373D01*
X137401707Y-89722411D01*
X137403416Y-89723269D01*
X137404897Y-89720491D01*
X137406166Y-89713285D01*
X137407240Y-89700856D01*
X137408134Y-89682414D01*
X137408865Y-89657165D01*
X137409449Y-89624317D01*
X137409901Y-89583077D01*
X137410239Y-89532653D01*
X137410478Y-89472253D01*
X137410635Y-89401082D01*
X137410725Y-89318351D01*
X137410748Y-89278462D01*
X137410950Y-88822850D01*
X137887200Y-88822850D01*
X137887200Y-90524650D01*
G36*
X136248900Y-89261000D02*
G01*
X135404350Y-89261000D01*
X135404350Y-89470550D01*
X136172700Y-89470550D01*
X136172700Y-89876950D01*
X135404350Y-89876950D01*
X135404350Y-90086500D01*
X136274300Y-90086500D01*
X136274300Y-90524650D01*
X134896350Y-90524650D01*
X134896350Y-88822850D01*
X136248900Y-88822850D01*
X136248900Y-89261000D01*
X136248900Y-89261000D01*
G37*
X136248900Y-89261000D02*
X135404350Y-89261000D01*
X135404350Y-89470550D01*
X136172700Y-89470550D01*
X136172700Y-89876950D01*
X135404350Y-89876950D01*
X135404350Y-90086500D01*
X136274300Y-90086500D01*
X136274300Y-90524650D01*
X134896350Y-90524650D01*
X134896350Y-88822850D01*
X136248900Y-88822850D01*
X136248900Y-89261000D01*
G36*
X133771803Y-88846662D02*
G01*
X133774366Y-88856453D01*
X133779887Y-88877547D01*
X133788108Y-88908962D01*
X133798773Y-88949716D01*
X133811623Y-88998825D01*
X133826403Y-89055307D01*
X133842854Y-89118180D01*
X133860719Y-89186460D01*
X133879743Y-89259165D01*
X133899666Y-89335312D01*
X133905975Y-89359425D01*
X133925979Y-89435807D01*
X133945077Y-89508583D01*
X133963022Y-89576826D01*
X133979569Y-89639608D01*
X133994472Y-89696001D01*
X134007486Y-89745078D01*
X134018365Y-89785911D01*
X134026863Y-89817571D01*
X134032734Y-89839132D01*
X134035733Y-89849666D01*
X134036062Y-89850580D01*
X134036749Y-89850848D01*
X134037668Y-89849849D01*
X134039020Y-89846829D01*
X134041002Y-89841038D01*
X134043815Y-89831723D01*
X134047658Y-89818132D01*
X134052730Y-89799513D01*
X134059231Y-89775115D01*
X134067359Y-89744185D01*
X134077313Y-89705971D01*
X134089294Y-89659721D01*
X134103501Y-89604684D01*
X134120132Y-89540106D01*
X134139387Y-89465237D01*
X134161466Y-89379324D01*
X134177997Y-89314975D01*
X134303602Y-88826025D01*
X134565051Y-88824367D01*
X134621281Y-88824055D01*
X134673363Y-88823855D01*
X134719974Y-88823763D01*
X134759788Y-88823779D01*
X134791481Y-88823901D01*
X134813727Y-88824128D01*
X134825203Y-88824459D01*
X134826500Y-88824643D01*
X134824695Y-88830839D01*
X134819420Y-88848498D01*
X134810883Y-88876931D01*
X134799293Y-88915445D01*
X134784859Y-88963351D01*
X134767789Y-89019955D01*
X134748292Y-89084569D01*
X134726575Y-89156499D01*
X134702849Y-89235055D01*
X134677322Y-89319546D01*
X134650201Y-89409281D01*
X134621697Y-89503568D01*
X134592017Y-89601717D01*
X134570145Y-89674026D01*
X134313791Y-90521475D01*
X133743155Y-90524777D01*
X133499671Y-89681751D01*
X133470631Y-89581219D01*
X133442537Y-89483992D01*
X133415592Y-89390774D01*
X133390001Y-89302270D01*
X133365968Y-89219182D01*
X133343696Y-89142214D01*
X133323388Y-89072070D01*
X133305249Y-89009453D01*
X133289482Y-88955066D01*
X133276291Y-88909615D01*
X133265880Y-88873801D01*
X133258453Y-88848329D01*
X133254212Y-88833902D01*
X133253264Y-88830787D01*
X133254967Y-88828742D01*
X133262354Y-88827058D01*
X133276370Y-88825704D01*
X133297962Y-88824651D01*
X133328076Y-88823870D01*
X133367659Y-88823331D01*
X133417658Y-88823005D01*
X133479017Y-88822862D01*
X133507950Y-88822850D01*
X133765560Y-88822850D01*
X133771803Y-88846662D01*
X133771803Y-88846662D01*
G37*
X133771803Y-88846662D02*
X133774366Y-88856453D01*
X133779887Y-88877547D01*
X133788108Y-88908962D01*
X133798773Y-88949716D01*
X133811623Y-88998825D01*
X133826403Y-89055307D01*
X133842854Y-89118180D01*
X133860719Y-89186460D01*
X133879743Y-89259165D01*
X133899666Y-89335312D01*
X133905975Y-89359425D01*
X133925979Y-89435807D01*
X133945077Y-89508583D01*
X133963022Y-89576826D01*
X133979569Y-89639608D01*
X133994472Y-89696001D01*
X134007486Y-89745078D01*
X134018365Y-89785911D01*
X134026863Y-89817571D01*
X134032734Y-89839132D01*
X134035733Y-89849666D01*
X134036062Y-89850580D01*
X134036749Y-89850848D01*
X134037668Y-89849849D01*
X134039020Y-89846829D01*
X134041002Y-89841038D01*
X134043815Y-89831723D01*
X134047658Y-89818132D01*
X134052730Y-89799513D01*
X134059231Y-89775115D01*
X134067359Y-89744185D01*
X134077313Y-89705971D01*
X134089294Y-89659721D01*
X134103501Y-89604684D01*
X134120132Y-89540106D01*
X134139387Y-89465237D01*
X134161466Y-89379324D01*
X134177997Y-89314975D01*
X134303602Y-88826025D01*
X134565051Y-88824367D01*
X134621281Y-88824055D01*
X134673363Y-88823855D01*
X134719974Y-88823763D01*
X134759788Y-88823779D01*
X134791481Y-88823901D01*
X134813727Y-88824128D01*
X134825203Y-88824459D01*
X134826500Y-88824643D01*
X134824695Y-88830839D01*
X134819420Y-88848498D01*
X134810883Y-88876931D01*
X134799293Y-88915445D01*
X134784859Y-88963351D01*
X134767789Y-89019955D01*
X134748292Y-89084569D01*
X134726575Y-89156499D01*
X134702849Y-89235055D01*
X134677322Y-89319546D01*
X134650201Y-89409281D01*
X134621697Y-89503568D01*
X134592017Y-89601717D01*
X134570145Y-89674026D01*
X134313791Y-90521475D01*
X133743155Y-90524777D01*
X133499671Y-89681751D01*
X133470631Y-89581219D01*
X133442537Y-89483992D01*
X133415592Y-89390774D01*
X133390001Y-89302270D01*
X133365968Y-89219182D01*
X133343696Y-89142214D01*
X133323388Y-89072070D01*
X133305249Y-89009453D01*
X133289482Y-88955066D01*
X133276291Y-88909615D01*
X133265880Y-88873801D01*
X133258453Y-88848329D01*
X133254212Y-88833902D01*
X133253264Y-88830787D01*
X133254967Y-88828742D01*
X133262354Y-88827058D01*
X133276370Y-88825704D01*
X133297962Y-88824651D01*
X133328076Y-88823870D01*
X133367659Y-88823331D01*
X133417658Y-88823005D01*
X133479017Y-88822862D01*
X133507950Y-88822850D01*
X133765560Y-88822850D01*
X133771803Y-88846662D01*
G36*
X131524500Y-89261000D02*
G01*
X130673600Y-89261000D01*
X130673600Y-89470550D01*
X131448300Y-89470550D01*
X131448300Y-89876950D01*
X130673600Y-89876950D01*
X130673600Y-90086500D01*
X131549900Y-90086500D01*
X131549900Y-90524650D01*
X130171950Y-90524650D01*
X130171950Y-88822850D01*
X131524500Y-88822850D01*
X131524500Y-89261000D01*
X131524500Y-89261000D01*
G37*
X131524500Y-89261000D02*
X130673600Y-89261000D01*
X130673600Y-89470550D01*
X131448300Y-89470550D01*
X131448300Y-89876950D01*
X130673600Y-89876950D01*
X130673600Y-90086500D01*
X131549900Y-90086500D01*
X131549900Y-90524650D01*
X130171950Y-90524650D01*
X130171950Y-88822850D01*
X131524500Y-88822850D01*
X131524500Y-89261000D01*
G36*
X129302000Y-90086394D02*
G01*
X129659187Y-90088034D01*
X130016375Y-90089675D01*
X130018045Y-90307162D01*
X130019716Y-90524650D01*
X128794000Y-90524650D01*
X128794000Y-88822850D01*
X129302000Y-88822850D01*
X129302000Y-90086394D01*
X129302000Y-90086394D01*
G37*
X129302000Y-90086394D02*
X129659187Y-90088034D01*
X130016375Y-90089675D01*
X130018045Y-90307162D01*
X130019716Y-90524650D01*
X128794000Y-90524650D01*
X128794000Y-88822850D01*
X129302000Y-88822850D01*
X129302000Y-90086394D01*
G36*
X125345950Y-89116361D02*
G01*
X125345962Y-89184941D01*
X125346027Y-89241852D01*
X125346190Y-89288125D01*
X125346496Y-89324790D01*
X125346987Y-89352879D01*
X125347709Y-89373421D01*
X125348706Y-89387448D01*
X125350022Y-89395991D01*
X125351700Y-89400081D01*
X125353786Y-89400747D01*
X125356324Y-89399022D01*
X125358004Y-89397348D01*
X125364095Y-89390032D01*
X125377157Y-89373621D01*
X125396428Y-89349094D01*
X125421146Y-89317430D01*
X125450549Y-89279609D01*
X125483876Y-89236610D01*
X125520364Y-89189412D01*
X125559252Y-89138993D01*
X125577766Y-89114950D01*
X125617453Y-89063434D01*
X125655047Y-89014728D01*
X125689792Y-88969807D01*
X125720933Y-88929641D01*
X125747714Y-88895205D01*
X125769379Y-88867469D01*
X125785173Y-88847408D01*
X125794340Y-88835994D01*
X125796136Y-88833901D01*
X125799252Y-88831348D01*
X125804015Y-88829227D01*
X125811504Y-88827505D01*
X125822798Y-88826152D01*
X125838978Y-88825134D01*
X125861122Y-88824419D01*
X125890311Y-88823977D01*
X125927624Y-88823773D01*
X125974139Y-88823778D01*
X126030938Y-88823958D01*
X126099099Y-88824281D01*
X126117166Y-88824376D01*
X126427532Y-88826025D01*
X126131011Y-89155874D01*
X126074540Y-89218867D01*
X126022988Y-89276723D01*
X125976807Y-89328922D01*
X125936449Y-89374942D01*
X125902363Y-89414262D01*
X125875003Y-89446361D01*
X125854819Y-89470718D01*
X125842263Y-89486811D01*
X125837786Y-89494121D01*
X125837807Y-89494366D01*
X125841744Y-89500771D01*
X125852268Y-89516985D01*
X125868888Y-89542272D01*
X125891115Y-89575898D01*
X125918460Y-89617124D01*
X125950432Y-89665216D01*
X125986543Y-89719436D01*
X126026302Y-89779049D01*
X126069219Y-89843318D01*
X126114806Y-89911508D01*
X126162572Y-89982881D01*
X126180911Y-90010264D01*
X126229282Y-90082511D01*
X126275596Y-90151759D01*
X126319372Y-90217282D01*
X126360125Y-90278354D01*
X126397373Y-90334246D01*
X126430631Y-90384234D01*
X126459418Y-90427589D01*
X126483249Y-90463586D01*
X126501641Y-90491498D01*
X126514111Y-90510598D01*
X126520175Y-90520159D01*
X126520700Y-90521144D01*
X126514551Y-90521823D01*
X126496908Y-90522397D01*
X126468979Y-90522856D01*
X126431968Y-90523194D01*
X126387082Y-90523403D01*
X126335527Y-90523476D01*
X126278510Y-90523404D01*
X126217235Y-90523181D01*
X126205252Y-90523121D01*
X125889804Y-90521475D01*
X125691258Y-90197743D01*
X125655497Y-90139551D01*
X125621623Y-90084656D01*
X125590230Y-90034003D01*
X125561909Y-89988539D01*
X125537255Y-89949210D01*
X125516860Y-89916962D01*
X125501318Y-89892741D01*
X125491221Y-89877493D01*
X125487187Y-89872170D01*
X125481307Y-89876043D01*
X125468623Y-89887933D01*
X125450672Y-89906283D01*
X125428995Y-89929537D01*
X125413806Y-89946354D01*
X125345950Y-90022380D01*
X125345950Y-90524650D01*
X124837950Y-90524650D01*
X124837950Y-88822850D01*
X125345950Y-88822850D01*
X125345950Y-89116361D01*
X125345950Y-89116361D01*
G37*
X125345950Y-89116361D02*
X125345962Y-89184941D01*
X125346027Y-89241852D01*
X125346190Y-89288125D01*
X125346496Y-89324790D01*
X125346987Y-89352879D01*
X125347709Y-89373421D01*
X125348706Y-89387448D01*
X125350022Y-89395991D01*
X125351700Y-89400081D01*
X125353786Y-89400747D01*
X125356324Y-89399022D01*
X125358004Y-89397348D01*
X125364095Y-89390032D01*
X125377157Y-89373621D01*
X125396428Y-89349094D01*
X125421146Y-89317430D01*
X125450549Y-89279609D01*
X125483876Y-89236610D01*
X125520364Y-89189412D01*
X125559252Y-89138993D01*
X125577766Y-89114950D01*
X125617453Y-89063434D01*
X125655047Y-89014728D01*
X125689792Y-88969807D01*
X125720933Y-88929641D01*
X125747714Y-88895205D01*
X125769379Y-88867469D01*
X125785173Y-88847408D01*
X125794340Y-88835994D01*
X125796136Y-88833901D01*
X125799252Y-88831348D01*
X125804015Y-88829227D01*
X125811504Y-88827505D01*
X125822798Y-88826152D01*
X125838978Y-88825134D01*
X125861122Y-88824419D01*
X125890311Y-88823977D01*
X125927624Y-88823773D01*
X125974139Y-88823778D01*
X126030938Y-88823958D01*
X126099099Y-88824281D01*
X126117166Y-88824376D01*
X126427532Y-88826025D01*
X126131011Y-89155874D01*
X126074540Y-89218867D01*
X126022988Y-89276723D01*
X125976807Y-89328922D01*
X125936449Y-89374942D01*
X125902363Y-89414262D01*
X125875003Y-89446361D01*
X125854819Y-89470718D01*
X125842263Y-89486811D01*
X125837786Y-89494121D01*
X125837807Y-89494366D01*
X125841744Y-89500771D01*
X125852268Y-89516985D01*
X125868888Y-89542272D01*
X125891115Y-89575898D01*
X125918460Y-89617124D01*
X125950432Y-89665216D01*
X125986543Y-89719436D01*
X126026302Y-89779049D01*
X126069219Y-89843318D01*
X126114806Y-89911508D01*
X126162572Y-89982881D01*
X126180911Y-90010264D01*
X126229282Y-90082511D01*
X126275596Y-90151759D01*
X126319372Y-90217282D01*
X126360125Y-90278354D01*
X126397373Y-90334246D01*
X126430631Y-90384234D01*
X126459418Y-90427589D01*
X126483249Y-90463586D01*
X126501641Y-90491498D01*
X126514111Y-90510598D01*
X126520175Y-90520159D01*
X126520700Y-90521144D01*
X126514551Y-90521823D01*
X126496908Y-90522397D01*
X126468979Y-90522856D01*
X126431968Y-90523194D01*
X126387082Y-90523403D01*
X126335527Y-90523476D01*
X126278510Y-90523404D01*
X126217235Y-90523181D01*
X126205252Y-90523121D01*
X125889804Y-90521475D01*
X125691258Y-90197743D01*
X125655497Y-90139551D01*
X125621623Y-90084656D01*
X125590230Y-90034003D01*
X125561909Y-89988539D01*
X125537255Y-89949210D01*
X125516860Y-89916962D01*
X125501318Y-89892741D01*
X125491221Y-89877493D01*
X125487187Y-89872170D01*
X125481307Y-89876043D01*
X125468623Y-89887933D01*
X125450672Y-89906283D01*
X125428995Y-89929537D01*
X125413806Y-89946354D01*
X125345950Y-90022380D01*
X125345950Y-90524650D01*
X124837950Y-90524650D01*
X124837950Y-88822850D01*
X125345950Y-88822850D01*
X125345950Y-89116361D01*
G36*
X132928508Y-88822850D02*
G01*
X133182456Y-88822850D01*
X133180096Y-89414987D01*
X133179689Y-89515257D01*
X133179301Y-89603667D01*
X133178914Y-89681057D01*
X133178507Y-89748269D01*
X133178060Y-89806141D01*
X133177552Y-89855514D01*
X133176965Y-89897229D01*
X133176277Y-89932125D01*
X133175469Y-89961042D01*
X133174520Y-89984822D01*
X133173411Y-90004304D01*
X133172122Y-90020328D01*
X133170632Y-90033735D01*
X133168921Y-90045364D01*
X133166970Y-90056056D01*
X133164758Y-90066652D01*
X133164509Y-90067796D01*
X133151054Y-90120264D01*
X133133743Y-90173795D01*
X133114072Y-90224319D01*
X133093537Y-90267764D01*
X133086072Y-90281142D01*
X133065510Y-90310736D01*
X133037199Y-90344261D01*
X133004086Y-90378808D01*
X132969118Y-90411464D01*
X132935245Y-90439319D01*
X132905625Y-90459340D01*
X132830059Y-90496316D01*
X132746184Y-90525868D01*
X132656524Y-90547197D01*
X132600825Y-90555738D01*
X132566690Y-90558738D01*
X132523641Y-90560752D01*
X132474663Y-90561806D01*
X132422739Y-90561926D01*
X132370856Y-90561136D01*
X132321999Y-90559462D01*
X132279152Y-90556930D01*
X132245301Y-90553564D01*
X132239039Y-90552665D01*
X132147223Y-90534596D01*
X132065640Y-90510290D01*
X131993190Y-90479247D01*
X131928774Y-90440964D01*
X131871294Y-90394940D01*
X131851525Y-90375809D01*
X131803410Y-90320272D01*
X131763972Y-90259702D01*
X131732258Y-90192243D01*
X131707317Y-90116038D01*
X131697232Y-90074721D01*
X131680915Y-90000775D01*
X131678548Y-89411812D01*
X131676181Y-88822850D01*
X132184070Y-88822850D01*
X132186599Y-89364187D01*
X132187077Y-89461464D01*
X132187557Y-89546879D01*
X132188057Y-89621267D01*
X132188596Y-89685468D01*
X132189191Y-89740317D01*
X132189862Y-89786651D01*
X132190625Y-89825309D01*
X132191500Y-89857127D01*
X132192505Y-89882942D01*
X132193658Y-89903591D01*
X132194977Y-89919912D01*
X132196481Y-89932742D01*
X132198188Y-89942918D01*
X132199351Y-89948239D01*
X132212684Y-89994544D01*
X132228843Y-90031578D01*
X132249449Y-90062716D01*
X132260679Y-90075783D01*
X132287781Y-90100444D01*
X132318076Y-90117847D01*
X132354218Y-90129011D01*
X132398862Y-90134957D01*
X132417439Y-90136013D01*
X132474151Y-90135083D01*
X132521431Y-90126755D01*
X132560577Y-90110424D01*
X132592888Y-90085483D01*
X132619665Y-90051326D01*
X132627474Y-90037990D01*
X132634562Y-90025022D01*
X132640808Y-90013047D01*
X132646269Y-90001213D01*
X132651002Y-89988664D01*
X132655063Y-89974550D01*
X132658510Y-89958015D01*
X132661400Y-89938207D01*
X132663789Y-89914272D01*
X132665734Y-89885357D01*
X132667292Y-89850610D01*
X132668519Y-89809176D01*
X132669474Y-89760202D01*
X132670212Y-89702835D01*
X132670791Y-89636222D01*
X132671266Y-89559509D01*
X132671696Y-89471843D01*
X132672137Y-89372372D01*
X132672159Y-89367362D01*
X132674561Y-88822849D01*
X132928508Y-88822850D01*
X132928508Y-88822850D01*
G37*
X132928508Y-88822850D02*
X133182456Y-88822850D01*
X133180096Y-89414987D01*
X133179689Y-89515257D01*
X133179301Y-89603667D01*
X133178914Y-89681057D01*
X133178507Y-89748269D01*
X133178060Y-89806141D01*
X133177552Y-89855514D01*
X133176965Y-89897229D01*
X133176277Y-89932125D01*
X133175469Y-89961042D01*
X133174520Y-89984822D01*
X133173411Y-90004304D01*
X133172122Y-90020328D01*
X133170632Y-90033735D01*
X133168921Y-90045364D01*
X133166970Y-90056056D01*
X133164758Y-90066652D01*
X133164509Y-90067796D01*
X133151054Y-90120264D01*
X133133743Y-90173795D01*
X133114072Y-90224319D01*
X133093537Y-90267764D01*
X133086072Y-90281142D01*
X133065510Y-90310736D01*
X133037199Y-90344261D01*
X133004086Y-90378808D01*
X132969118Y-90411464D01*
X132935245Y-90439319D01*
X132905625Y-90459340D01*
X132830059Y-90496316D01*
X132746184Y-90525868D01*
X132656524Y-90547197D01*
X132600825Y-90555738D01*
X132566690Y-90558738D01*
X132523641Y-90560752D01*
X132474663Y-90561806D01*
X132422739Y-90561926D01*
X132370856Y-90561136D01*
X132321999Y-90559462D01*
X132279152Y-90556930D01*
X132245301Y-90553564D01*
X132239039Y-90552665D01*
X132147223Y-90534596D01*
X132065640Y-90510290D01*
X131993190Y-90479247D01*
X131928774Y-90440964D01*
X131871294Y-90394940D01*
X131851525Y-90375809D01*
X131803410Y-90320272D01*
X131763972Y-90259702D01*
X131732258Y-90192243D01*
X131707317Y-90116038D01*
X131697232Y-90074721D01*
X131680915Y-90000775D01*
X131678548Y-89411812D01*
X131676181Y-88822850D01*
X132184070Y-88822850D01*
X132186599Y-89364187D01*
X132187077Y-89461464D01*
X132187557Y-89546879D01*
X132188057Y-89621267D01*
X132188596Y-89685468D01*
X132189191Y-89740317D01*
X132189862Y-89786651D01*
X132190625Y-89825309D01*
X132191500Y-89857127D01*
X132192505Y-89882942D01*
X132193658Y-89903591D01*
X132194977Y-89919912D01*
X132196481Y-89932742D01*
X132198188Y-89942918D01*
X132199351Y-89948239D01*
X132212684Y-89994544D01*
X132228843Y-90031578D01*
X132249449Y-90062716D01*
X132260679Y-90075783D01*
X132287781Y-90100444D01*
X132318076Y-90117847D01*
X132354218Y-90129011D01*
X132398862Y-90134957D01*
X132417439Y-90136013D01*
X132474151Y-90135083D01*
X132521431Y-90126755D01*
X132560577Y-90110424D01*
X132592888Y-90085483D01*
X132619665Y-90051326D01*
X132627474Y-90037990D01*
X132634562Y-90025022D01*
X132640808Y-90013047D01*
X132646269Y-90001213D01*
X132651002Y-89988664D01*
X132655063Y-89974550D01*
X132658510Y-89958015D01*
X132661400Y-89938207D01*
X132663789Y-89914272D01*
X132665734Y-89885357D01*
X132667292Y-89850610D01*
X132668519Y-89809176D01*
X132669474Y-89760202D01*
X132670212Y-89702835D01*
X132670791Y-89636222D01*
X132671266Y-89559509D01*
X132671696Y-89471843D01*
X132672137Y-89372372D01*
X132672159Y-89367362D01*
X132674561Y-88822849D01*
X132928508Y-88822850D01*
G36*
X127055763Y-89370537D02*
G01*
X127056193Y-89467750D01*
X127056622Y-89553100D01*
X127057068Y-89627424D01*
X127057550Y-89691561D01*
X127058087Y-89746348D01*
X127058696Y-89792621D01*
X127059397Y-89831218D01*
X127060208Y-89862978D01*
X127061147Y-89888736D01*
X127062234Y-89909330D01*
X127063486Y-89925599D01*
X127064922Y-89938378D01*
X127066561Y-89948506D01*
X127068421Y-89956820D01*
X127068760Y-89958112D01*
X127085709Y-90009335D01*
X127106774Y-90049908D01*
X127133187Y-90081549D01*
X127166180Y-90105975D01*
X127180129Y-90113444D01*
X127198258Y-90122077D01*
X127213246Y-90127897D01*
X127228346Y-90131455D01*
X127246809Y-90133305D01*
X127271888Y-90133998D01*
X127301645Y-90134091D01*
X127345455Y-90133006D01*
X127379584Y-90129167D01*
X127406923Y-90121632D01*
X127430360Y-90109461D01*
X127452786Y-90091713D01*
X127463619Y-90081356D01*
X127475734Y-90068682D01*
X127486547Y-90055633D01*
X127496133Y-90041452D01*
X127504564Y-90025381D01*
X127511916Y-90006661D01*
X127518262Y-89984535D01*
X127523676Y-89958245D01*
X127528232Y-89927032D01*
X127532004Y-89890139D01*
X127535065Y-89846808D01*
X127537490Y-89796281D01*
X127539353Y-89737800D01*
X127540726Y-89670606D01*
X127541685Y-89593943D01*
X127542304Y-89507051D01*
X127542655Y-89409174D01*
X127542813Y-89299553D01*
X127542832Y-89268937D01*
X127543050Y-88822850D01*
X128051050Y-88822850D01*
X128050995Y-89357837D01*
X128050910Y-89445037D01*
X128050678Y-89529022D01*
X128050312Y-89608769D01*
X128049822Y-89683252D01*
X128049218Y-89751449D01*
X128048511Y-89812334D01*
X128047712Y-89864884D01*
X128046833Y-89908073D01*
X128045883Y-89940878D01*
X128044873Y-89962274D01*
X128044601Y-89965850D01*
X128031221Y-90063744D01*
X128008815Y-90152720D01*
X127977322Y-90232843D01*
X127936680Y-90304176D01*
X127886827Y-90366784D01*
X127827703Y-90420733D01*
X127759245Y-90466086D01*
X127681392Y-90502909D01*
X127594082Y-90531265D01*
X127497253Y-90551220D01*
X127485085Y-90553039D01*
X127458497Y-90555846D01*
X127422595Y-90558195D01*
X127380164Y-90560041D01*
X127333988Y-90561340D01*
X127286850Y-90562050D01*
X127241535Y-90562126D01*
X127200825Y-90561525D01*
X127167507Y-90560203D01*
X127146175Y-90558364D01*
X127058228Y-90544097D01*
X126980458Y-90525353D01*
X126910972Y-90501609D01*
X126861514Y-90479383D01*
X126790601Y-90437519D01*
X126728935Y-90387513D01*
X126676267Y-90329028D01*
X126632347Y-90261728D01*
X126596927Y-90185274D01*
X126569757Y-90099329D01*
X126564275Y-90076542D01*
X126561864Y-90065739D01*
X126559736Y-90055345D01*
X126557872Y-90044521D01*
X126556250Y-90032429D01*
X126554849Y-90018231D01*
X126553647Y-90001087D01*
X126552625Y-89980160D01*
X126551760Y-89954611D01*
X126551032Y-89923602D01*
X126550420Y-89886293D01*
X126549903Y-89841848D01*
X126549460Y-89789426D01*
X126549069Y-89728190D01*
X126548710Y-89657302D01*
X126548361Y-89575922D01*
X126548003Y-89483212D01*
X126547760Y-89418162D01*
X126545552Y-88822850D01*
X126799501Y-88822850D01*
X127053450Y-88822849D01*
X127055763Y-89370537D01*
X127055763Y-89370537D01*
G37*
X127055763Y-89370537D02*
X127056193Y-89467750D01*
X127056622Y-89553100D01*
X127057068Y-89627424D01*
X127057550Y-89691561D01*
X127058087Y-89746348D01*
X127058696Y-89792621D01*
X127059397Y-89831218D01*
X127060208Y-89862978D01*
X127061147Y-89888736D01*
X127062234Y-89909330D01*
X127063486Y-89925599D01*
X127064922Y-89938378D01*
X127066561Y-89948506D01*
X127068421Y-89956820D01*
X127068760Y-89958112D01*
X127085709Y-90009335D01*
X127106774Y-90049908D01*
X127133187Y-90081549D01*
X127166180Y-90105975D01*
X127180129Y-90113444D01*
X127198258Y-90122077D01*
X127213246Y-90127897D01*
X127228346Y-90131455D01*
X127246809Y-90133305D01*
X127271888Y-90133998D01*
X127301645Y-90134091D01*
X127345455Y-90133006D01*
X127379584Y-90129167D01*
X127406923Y-90121632D01*
X127430360Y-90109461D01*
X127452786Y-90091713D01*
X127463619Y-90081356D01*
X127475734Y-90068682D01*
X127486547Y-90055633D01*
X127496133Y-90041452D01*
X127504564Y-90025381D01*
X127511916Y-90006661D01*
X127518262Y-89984535D01*
X127523676Y-89958245D01*
X127528232Y-89927032D01*
X127532004Y-89890139D01*
X127535065Y-89846808D01*
X127537490Y-89796281D01*
X127539353Y-89737800D01*
X127540726Y-89670606D01*
X127541685Y-89593943D01*
X127542304Y-89507051D01*
X127542655Y-89409174D01*
X127542813Y-89299553D01*
X127542832Y-89268937D01*
X127543050Y-88822850D01*
X128051050Y-88822850D01*
X128050995Y-89357837D01*
X128050910Y-89445037D01*
X128050678Y-89529022D01*
X128050312Y-89608769D01*
X128049822Y-89683252D01*
X128049218Y-89751449D01*
X128048511Y-89812334D01*
X128047712Y-89864884D01*
X128046833Y-89908073D01*
X128045883Y-89940878D01*
X128044873Y-89962274D01*
X128044601Y-89965850D01*
X128031221Y-90063744D01*
X128008815Y-90152720D01*
X127977322Y-90232843D01*
X127936680Y-90304176D01*
X127886827Y-90366784D01*
X127827703Y-90420733D01*
X127759245Y-90466086D01*
X127681392Y-90502909D01*
X127594082Y-90531265D01*
X127497253Y-90551220D01*
X127485085Y-90553039D01*
X127458497Y-90555846D01*
X127422595Y-90558195D01*
X127380164Y-90560041D01*
X127333988Y-90561340D01*
X127286850Y-90562050D01*
X127241535Y-90562126D01*
X127200825Y-90561525D01*
X127167507Y-90560203D01*
X127146175Y-90558364D01*
X127058228Y-90544097D01*
X126980458Y-90525353D01*
X126910972Y-90501609D01*
X126861514Y-90479383D01*
X126790601Y-90437519D01*
X126728935Y-90387513D01*
X126676267Y-90329028D01*
X126632347Y-90261728D01*
X126596927Y-90185274D01*
X126569757Y-90099329D01*
X126564275Y-90076542D01*
X126561864Y-90065739D01*
X126559736Y-90055345D01*
X126557872Y-90044521D01*
X126556250Y-90032429D01*
X126554849Y-90018231D01*
X126553647Y-90001087D01*
X126552625Y-89980160D01*
X126551760Y-89954611D01*
X126551032Y-89923602D01*
X126550420Y-89886293D01*
X126549903Y-89841848D01*
X126549460Y-89789426D01*
X126549069Y-89728190D01*
X126548710Y-89657302D01*
X126548361Y-89575922D01*
X126548003Y-89483212D01*
X126547760Y-89418162D01*
X126545552Y-88822850D01*
X126799501Y-88822850D01*
X127053450Y-88822849D01*
X127055763Y-89370537D01*
G36*
X139023850Y-86838472D02*
G01*
X139023849Y-87121044D01*
X131364162Y-87122634D01*
X123704475Y-87124225D01*
X123702879Y-89675337D01*
X123701284Y-92226450D01*
X123136150Y-92226450D01*
X123136150Y-86555900D01*
X139023850Y-86555900D01*
X139023850Y-86838472D01*
X139023850Y-86838472D01*
G37*
X139023850Y-86838472D02*
X139023849Y-87121044D01*
X131364162Y-87122634D01*
X123704475Y-87124225D01*
X123702879Y-89675337D01*
X123701284Y-92226450D01*
X123136150Y-92226450D01*
X123136150Y-86555900D01*
X139023850Y-86555900D01*
X139023850Y-86838472D01*
D14*
X102800000Y-109104800D02*
G75*
G02X102600000Y-109104800I-100000J0D01*
G01*
X102600000Y-109104800D02*
G75*
G02X102800000Y-109104800I100000J0D01*
G01*
X102600000Y-109104800D02*
X102600000Y-109104800D01*
X102800000Y-109104800D02*
X102800000Y-109104800D01*
D11*
X106200000Y-110079800D02*
X104200000Y-110079800D01*
X106200000Y-119929800D02*
X104200000Y-119929800D01*
X100275000Y-110079800D02*
X101200000Y-110079800D01*
X100275000Y-119929800D02*
X100275000Y-110079800D01*
X101200000Y-119929800D02*
X100275000Y-119929800D01*
X110125000Y-110079800D02*
X109200000Y-110079800D01*
X110125000Y-119929800D02*
X110125000Y-110079800D01*
X109200000Y-119929800D02*
X110125000Y-119929800D01*
D14*
X120138000Y-123312400D02*
G75*
G02X119938000Y-123312400I-100000J0D01*
G01*
X119938000Y-123312400D02*
G75*
G02X120138000Y-123312400I100000J0D01*
G01*
X119938000Y-123312400D02*
X119938000Y-123312400D01*
X120138000Y-123312400D02*
X120138000Y-123312400D01*
D11*
X123538000Y-124287400D02*
X121538000Y-124287400D01*
X123538000Y-134137400D02*
X121538000Y-134137400D01*
X117613000Y-124287400D02*
X118538000Y-124287400D01*
X117613000Y-134137400D02*
X117613000Y-124287400D01*
X118538000Y-134137400D02*
X117613000Y-134137400D01*
X127463000Y-124287400D02*
X126538000Y-124287400D01*
X127463000Y-134137400D02*
X127463000Y-124287400D01*
X126538000Y-134137400D02*
X127463000Y-134137400D01*
D14*
X137563000Y-109110000D02*
G75*
G02X137363000Y-109110000I-100000J0D01*
G01*
X137363000Y-109110000D02*
G75*
G02X137563000Y-109110000I100000J0D01*
G01*
X137363000Y-109110000D02*
X137363000Y-109110000D01*
X137563000Y-109110000D02*
X137563000Y-109110000D01*
D11*
X140963000Y-110085000D02*
X138963000Y-110085000D01*
X140963000Y-119935000D02*
X138963000Y-119935000D01*
X135038000Y-110085000D02*
X135963000Y-110085000D01*
X135038000Y-119935000D02*
X135038000Y-110085000D01*
X135963000Y-119935000D02*
X135038000Y-119935000D01*
X144888000Y-110085000D02*
X143963000Y-110085000D01*
X144888000Y-119935000D02*
X144888000Y-110085000D01*
X143963000Y-119935000D02*
X144888000Y-119935000D01*
D14*
X120162000Y-94214800D02*
G75*
G02X119962000Y-94214800I-100000J0D01*
G01*
X119962000Y-94214800D02*
G75*
G02X120162000Y-94214800I100000J0D01*
G01*
X119962000Y-94214800D02*
X119962000Y-94214800D01*
X120162000Y-94214800D02*
X120162000Y-94214800D01*
D11*
X123562000Y-95189800D02*
X121562000Y-95189800D01*
X123562000Y-105039800D02*
X121562000Y-105039800D01*
X117637000Y-95189800D02*
X118562000Y-95189800D01*
X117637000Y-105039800D02*
X117637000Y-95189800D01*
X118562000Y-105039800D02*
X117637000Y-105039800D01*
X127487000Y-95189800D02*
X126562000Y-95189800D01*
X127487000Y-105039800D02*
X127487000Y-95189800D01*
X126562000Y-105039800D02*
X127487000Y-105039800D01*
D12*
X126627500Y-149699000D02*
X118372500Y-149699000D01*
X126627500Y-141698000D02*
X118372500Y-141698000D01*
X118372500Y-136618000D02*
X118372500Y-149699000D01*
X126627500Y-136618000D02*
X126627500Y-149699000D01*
X126627500Y-136618000D02*
X118372500Y-136618000D01*
X114451708Y-117544260D02*
X114974212Y-117544260D01*
X114451708Y-116124260D02*
X114974212Y-116124260D01*
X116314500Y-128365492D02*
X116314500Y-127842988D01*
X114894500Y-128365492D02*
X114894500Y-127842988D01*
X131749532Y-116114100D02*
X131227028Y-116114100D01*
X131749532Y-117534100D02*
X131227028Y-117534100D01*
X131955820Y-99450132D02*
X131955820Y-98927628D01*
X130535820Y-99450132D02*
X130535820Y-98927628D01*
X103338748Y-126908000D02*
X103861252Y-126908000D01*
X103338748Y-125488000D02*
X103861252Y-125488000D01*
X105820000Y-127128000D02*
X108680000Y-127128000D01*
X105820000Y-125208000D02*
X105820000Y-127128000D01*
X108680000Y-125208000D02*
X105820000Y-125208000D01*
X114986252Y-118278400D02*
X114463748Y-118278400D01*
X114986252Y-119698400D02*
X114463748Y-119698400D01*
X114961252Y-110528000D02*
X114438748Y-110528000D01*
X114961252Y-111948000D02*
X114438748Y-111948000D01*
X112765980Y-127891248D02*
X112765980Y-128413752D01*
X114185980Y-127891248D02*
X114185980Y-128413752D01*
X131758532Y-122499660D02*
X131236028Y-122499660D01*
X131758532Y-123919660D02*
X131236028Y-123919660D01*
X131224488Y-121826700D02*
X131746992Y-121826700D01*
X131224488Y-120406700D02*
X131746992Y-120406700D01*
X131749532Y-118265480D02*
X131227028Y-118265480D01*
X131749532Y-119685480D02*
X131227028Y-119685480D01*
X148770000Y-107439600D02*
X150100000Y-107439600D01*
X148770000Y-108769600D02*
X148770000Y-107439600D01*
X148770000Y-110039600D02*
X151430000Y-110039600D01*
X151430000Y-110039600D02*
X151430000Y-122799600D01*
X148770000Y-110039600D02*
X148770000Y-122799600D01*
X148770000Y-122799600D02*
X151430000Y-122799600D01*
X122063748Y-108925600D02*
X122586252Y-108925600D01*
X122063748Y-110345600D02*
X122586252Y-110345600D01*
D14*
X120150000Y-111687000D02*
X124750000Y-111687000D01*
X124750000Y-111687000D02*
X124750000Y-118887000D01*
X124750000Y-118887000D02*
X120150000Y-118887000D01*
X120150000Y-118887000D02*
X120150000Y-111687000D01*
X118000000Y-111787000D02*
X119800000Y-111787000D01*
D12*
X114438748Y-113098000D02*
X114961252Y-113098000D01*
X114438748Y-114518000D02*
X114961252Y-114518000D01*
X122586252Y-108094000D02*
X122063748Y-108094000D01*
X122586252Y-106674000D02*
X122063748Y-106674000D01*
X114686360Y-99462832D02*
X114686360Y-98940328D01*
X113266360Y-99462832D02*
X113266360Y-98940328D01*
D15*
X104172380Y-109222047D02*
X104353809Y-109282523D01*
X104656190Y-109282523D01*
X104777142Y-109222047D01*
X104837619Y-109161571D01*
X104898095Y-109040619D01*
X104898095Y-108919666D01*
X104837619Y-108798714D01*
X104777142Y-108738238D01*
X104656190Y-108677761D01*
X104414285Y-108617285D01*
X104293333Y-108556809D01*
X104232857Y-108496333D01*
X104172380Y-108375380D01*
X104172380Y-108254428D01*
X104232857Y-108133476D01*
X104293333Y-108073000D01*
X104414285Y-108012523D01*
X104716666Y-108012523D01*
X104898095Y-108073000D01*
X105986666Y-108435857D02*
X105986666Y-109282523D01*
X105684285Y-107952047D02*
X105381904Y-108859190D01*
X106168095Y-108859190D01*
X121562380Y-123462047D02*
X121743809Y-123522523D01*
X122046190Y-123522523D01*
X122167142Y-123462047D01*
X122227619Y-123401571D01*
X122288095Y-123280619D01*
X122288095Y-123159666D01*
X122227619Y-123038714D01*
X122167142Y-122978238D01*
X122046190Y-122917761D01*
X121804285Y-122857285D01*
X121683333Y-122796809D01*
X121622857Y-122736333D01*
X121562380Y-122615380D01*
X121562380Y-122494428D01*
X121622857Y-122373476D01*
X121683333Y-122313000D01*
X121804285Y-122252523D01*
X122106666Y-122252523D01*
X122288095Y-122313000D01*
X122711428Y-122252523D02*
X123497619Y-122252523D01*
X123074285Y-122736333D01*
X123255714Y-122736333D01*
X123376666Y-122796809D01*
X123437142Y-122857285D01*
X123497619Y-122978238D01*
X123497619Y-123280619D01*
X123437142Y-123401571D01*
X123376666Y-123462047D01*
X123255714Y-123522523D01*
X122892857Y-123522523D01*
X122771904Y-123462047D01*
X122711428Y-123401571D01*
X139012380Y-109132047D02*
X139193809Y-109192523D01*
X139496190Y-109192523D01*
X139617142Y-109132047D01*
X139677619Y-109071571D01*
X139738095Y-108950619D01*
X139738095Y-108829666D01*
X139677619Y-108708714D01*
X139617142Y-108648238D01*
X139496190Y-108587761D01*
X139254285Y-108527285D01*
X139133333Y-108466809D01*
X139072857Y-108406333D01*
X139012380Y-108285380D01*
X139012380Y-108164428D01*
X139072857Y-108043476D01*
X139133333Y-107983000D01*
X139254285Y-107922523D01*
X139556666Y-107922523D01*
X139738095Y-107983000D01*
X140221904Y-108043476D02*
X140282380Y-107983000D01*
X140403333Y-107922523D01*
X140705714Y-107922523D01*
X140826666Y-107983000D01*
X140887142Y-108043476D01*
X140947619Y-108164428D01*
X140947619Y-108285380D01*
X140887142Y-108466809D01*
X140161428Y-109192523D01*
X140947619Y-109192523D01*
X121612380Y-94262047D02*
X121793809Y-94322523D01*
X122096190Y-94322523D01*
X122217142Y-94262047D01*
X122277619Y-94201571D01*
X122338095Y-94080619D01*
X122338095Y-93959666D01*
X122277619Y-93838714D01*
X122217142Y-93778238D01*
X122096190Y-93717761D01*
X121854285Y-93657285D01*
X121733333Y-93596809D01*
X121672857Y-93536333D01*
X121612380Y-93415380D01*
X121612380Y-93294428D01*
X121672857Y-93173476D01*
X121733333Y-93113000D01*
X121854285Y-93052523D01*
X122156666Y-93052523D01*
X122338095Y-93113000D01*
X123547619Y-94322523D02*
X122821904Y-94322523D01*
X123184761Y-94322523D02*
X123184761Y-93052523D01*
X123063809Y-93233952D01*
X122942857Y-93354904D01*
X122821904Y-93415380D01*
D16*
X127032380Y-139491333D02*
X127746666Y-139491333D01*
X127889523Y-139538952D01*
X127984761Y-139634190D01*
X128032380Y-139777047D01*
X128032380Y-139872285D01*
X127127619Y-139062761D02*
X127080000Y-139015142D01*
X127032380Y-138919904D01*
X127032380Y-138681809D01*
X127080000Y-138586571D01*
X127127619Y-138538952D01*
X127222857Y-138491333D01*
X127318095Y-138491333D01*
X127460952Y-138538952D01*
X128032380Y-139110380D01*
X128032380Y-138491333D01*
X111723333Y-117175142D02*
X111675714Y-117222761D01*
X111532857Y-117270380D01*
X111437619Y-117270380D01*
X111294761Y-117222761D01*
X111199523Y-117127523D01*
X111151904Y-117032285D01*
X111104285Y-116841809D01*
X111104285Y-116698952D01*
X111151904Y-116508476D01*
X111199523Y-116413238D01*
X111294761Y-116318000D01*
X111437619Y-116270380D01*
X111532857Y-116270380D01*
X111675714Y-116318000D01*
X111723333Y-116365619D01*
X112628095Y-116270380D02*
X112151904Y-116270380D01*
X112104285Y-116746571D01*
X112151904Y-116698952D01*
X112247142Y-116651333D01*
X112485238Y-116651333D01*
X112580476Y-116698952D01*
X112628095Y-116746571D01*
X112675714Y-116841809D01*
X112675714Y-117079904D01*
X112628095Y-117175142D01*
X112580476Y-117222761D01*
X112485238Y-117270380D01*
X112247142Y-117270380D01*
X112151904Y-117222761D01*
X112104285Y-117175142D01*
X115974342Y-124887626D02*
X116021961Y-124935245D01*
X116069580Y-125078102D01*
X116069580Y-125173340D01*
X116021961Y-125316198D01*
X115926723Y-125411436D01*
X115831485Y-125459055D01*
X115641009Y-125506674D01*
X115498152Y-125506674D01*
X115307676Y-125459055D01*
X115212438Y-125411436D01*
X115117200Y-125316198D01*
X115069580Y-125173340D01*
X115069580Y-125078102D01*
X115117200Y-124935245D01*
X115164819Y-124887626D01*
X115402914Y-124030483D02*
X116069580Y-124030483D01*
X115021961Y-124268579D02*
X115736247Y-124506674D01*
X115736247Y-123887626D01*
X128379133Y-117196482D02*
X128331514Y-117244101D01*
X128188657Y-117291720D01*
X128093419Y-117291720D01*
X127950561Y-117244101D01*
X127855323Y-117148863D01*
X127807704Y-117053625D01*
X127760085Y-116863149D01*
X127760085Y-116720292D01*
X127807704Y-116529816D01*
X127855323Y-116434578D01*
X127950561Y-116339340D01*
X128093419Y-116291720D01*
X128188657Y-116291720D01*
X128331514Y-116339340D01*
X128379133Y-116386959D01*
X128712466Y-116291720D02*
X129331514Y-116291720D01*
X128998180Y-116672673D01*
X129141038Y-116672673D01*
X129236276Y-116720292D01*
X129283895Y-116767911D01*
X129331514Y-116863149D01*
X129331514Y-117101244D01*
X129283895Y-117196482D01*
X129236276Y-117244101D01*
X129141038Y-117291720D01*
X128855323Y-117291720D01*
X128760085Y-117244101D01*
X128712466Y-117196482D01*
X133517142Y-99464666D02*
X133564761Y-99512285D01*
X133612380Y-99655142D01*
X133612380Y-99750380D01*
X133564761Y-99893238D01*
X133469523Y-99988476D01*
X133374285Y-100036095D01*
X133183809Y-100083714D01*
X133040952Y-100083714D01*
X132850476Y-100036095D01*
X132755238Y-99988476D01*
X132660000Y-99893238D01*
X132612380Y-99750380D01*
X132612380Y-99655142D01*
X132660000Y-99512285D01*
X132707619Y-99464666D01*
X132707619Y-99083714D02*
X132660000Y-99036095D01*
X132612380Y-98940857D01*
X132612380Y-98702761D01*
X132660000Y-98607523D01*
X132707619Y-98559904D01*
X132802857Y-98512285D01*
X132898095Y-98512285D01*
X133040952Y-98559904D01*
X133612380Y-99131333D01*
X133612380Y-98512285D01*
X102957142Y-125000380D02*
X102623809Y-124524190D01*
X102385714Y-125000380D02*
X102385714Y-124000380D01*
X102766666Y-124000380D01*
X102861904Y-124048000D01*
X102909523Y-124095619D01*
X102957142Y-124190857D01*
X102957142Y-124333714D01*
X102909523Y-124428952D01*
X102861904Y-124476571D01*
X102766666Y-124524190D01*
X102385714Y-124524190D01*
X103909523Y-125000380D02*
X103338095Y-125000380D01*
X103623809Y-125000380D02*
X103623809Y-124000380D01*
X103528571Y-124143238D01*
X103433333Y-124238476D01*
X103338095Y-124286095D01*
X104528571Y-124000380D02*
X104623809Y-124000380D01*
X104719047Y-124048000D01*
X104766666Y-124095619D01*
X104814285Y-124190857D01*
X104861904Y-124381333D01*
X104861904Y-124619428D01*
X104814285Y-124809904D01*
X104766666Y-124905142D01*
X104719047Y-124952761D01*
X104623809Y-125000380D01*
X104528571Y-125000380D01*
X104433333Y-124952761D01*
X104385714Y-124905142D01*
X104338095Y-124809904D01*
X104290476Y-124619428D01*
X104290476Y-124381333D01*
X104338095Y-124190857D01*
X104385714Y-124095619D01*
X104433333Y-124048000D01*
X104528571Y-124000380D01*
X106560952Y-124970380D02*
X106084761Y-124970380D01*
X106084761Y-123970380D01*
X106894285Y-124446571D02*
X107227619Y-124446571D01*
X107370476Y-124970380D02*
X106894285Y-124970380D01*
X106894285Y-123970380D01*
X107370476Y-123970380D01*
X107799047Y-124970380D02*
X107799047Y-123970380D01*
X108037142Y-123970380D01*
X108180000Y-124018000D01*
X108275238Y-124113238D01*
X108322857Y-124208476D01*
X108370476Y-124398952D01*
X108370476Y-124541809D01*
X108322857Y-124732285D01*
X108275238Y-124827523D01*
X108180000Y-124922761D01*
X108037142Y-124970380D01*
X107799047Y-124970380D01*
X109322857Y-124970380D02*
X108751428Y-124970380D01*
X109037142Y-124970380D02*
X109037142Y-123970380D01*
X108941904Y-124113238D01*
X108846666Y-124208476D01*
X108751428Y-124256095D01*
X111733333Y-119440780D02*
X111400000Y-118964590D01*
X111161904Y-119440780D02*
X111161904Y-118440780D01*
X111542857Y-118440780D01*
X111638095Y-118488400D01*
X111685714Y-118536019D01*
X111733333Y-118631257D01*
X111733333Y-118774114D01*
X111685714Y-118869352D01*
X111638095Y-118916971D01*
X111542857Y-118964590D01*
X111161904Y-118964590D01*
X112209523Y-119440780D02*
X112400000Y-119440780D01*
X112495238Y-119393161D01*
X112542857Y-119345542D01*
X112638095Y-119202685D01*
X112685714Y-119012209D01*
X112685714Y-118631257D01*
X112638095Y-118536019D01*
X112590476Y-118488400D01*
X112495238Y-118440780D01*
X112304761Y-118440780D01*
X112209523Y-118488400D01*
X112161904Y-118536019D01*
X112114285Y-118631257D01*
X112114285Y-118869352D01*
X112161904Y-118964590D01*
X112209523Y-119012209D01*
X112304761Y-119059828D01*
X112495238Y-119059828D01*
X112590476Y-119012209D01*
X112638095Y-118964590D01*
X112685714Y-118869352D01*
X111658333Y-111690380D02*
X111325000Y-111214190D01*
X111086904Y-111690380D02*
X111086904Y-110690380D01*
X111467857Y-110690380D01*
X111563095Y-110738000D01*
X111610714Y-110785619D01*
X111658333Y-110880857D01*
X111658333Y-111023714D01*
X111610714Y-111118952D01*
X111563095Y-111166571D01*
X111467857Y-111214190D01*
X111086904Y-111214190D01*
X112229761Y-111118952D02*
X112134523Y-111071333D01*
X112086904Y-111023714D01*
X112039285Y-110928476D01*
X112039285Y-110880857D01*
X112086904Y-110785619D01*
X112134523Y-110738000D01*
X112229761Y-110690380D01*
X112420238Y-110690380D01*
X112515476Y-110738000D01*
X112563095Y-110785619D01*
X112610714Y-110880857D01*
X112610714Y-110928476D01*
X112563095Y-111023714D01*
X112515476Y-111071333D01*
X112420238Y-111118952D01*
X112229761Y-111118952D01*
X112134523Y-111166571D01*
X112086904Y-111214190D01*
X112039285Y-111309428D01*
X112039285Y-111499904D01*
X112086904Y-111595142D01*
X112134523Y-111642761D01*
X112229761Y-111690380D01*
X112420238Y-111690380D01*
X112515476Y-111642761D01*
X112563095Y-111595142D01*
X112610714Y-111499904D01*
X112610714Y-111309428D01*
X112563095Y-111214190D01*
X112515476Y-111166571D01*
X112420238Y-111118952D01*
X113943600Y-124986686D02*
X113467410Y-125320020D01*
X113943600Y-125558115D02*
X112943600Y-125558115D01*
X112943600Y-125177162D01*
X112991220Y-125081924D01*
X113038839Y-125034305D01*
X113134077Y-124986686D01*
X113276934Y-124986686D01*
X113372172Y-125034305D01*
X113419791Y-125081924D01*
X113467410Y-125177162D01*
X113467410Y-125558115D01*
X112943600Y-124653353D02*
X112943600Y-123986686D01*
X113943600Y-124415258D01*
X128393333Y-123630380D02*
X128060000Y-123154190D01*
X127821904Y-123630380D02*
X127821904Y-122630380D01*
X128202857Y-122630380D01*
X128298095Y-122678000D01*
X128345714Y-122725619D01*
X128393333Y-122820857D01*
X128393333Y-122963714D01*
X128345714Y-123058952D01*
X128298095Y-123106571D01*
X128202857Y-123154190D01*
X127821904Y-123154190D01*
X129250476Y-122630380D02*
X129060000Y-122630380D01*
X128964761Y-122678000D01*
X128917142Y-122725619D01*
X128821904Y-122868476D01*
X128774285Y-123058952D01*
X128774285Y-123439904D01*
X128821904Y-123535142D01*
X128869523Y-123582761D01*
X128964761Y-123630380D01*
X129155238Y-123630380D01*
X129250476Y-123582761D01*
X129298095Y-123535142D01*
X129345714Y-123439904D01*
X129345714Y-123201809D01*
X129298095Y-123106571D01*
X129250476Y-123058952D01*
X129155238Y-123011333D01*
X128964761Y-123011333D01*
X128869523Y-123058952D01*
X128821904Y-123106571D01*
X128774285Y-123201809D01*
X128383333Y-121560380D02*
X128050000Y-121084190D01*
X127811904Y-121560380D02*
X127811904Y-120560380D01*
X128192857Y-120560380D01*
X128288095Y-120608000D01*
X128335714Y-120655619D01*
X128383333Y-120750857D01*
X128383333Y-120893714D01*
X128335714Y-120988952D01*
X128288095Y-121036571D01*
X128192857Y-121084190D01*
X127811904Y-121084190D01*
X129288095Y-120560380D02*
X128811904Y-120560380D01*
X128764285Y-121036571D01*
X128811904Y-120988952D01*
X128907142Y-120941333D01*
X129145238Y-120941333D01*
X129240476Y-120988952D01*
X129288095Y-121036571D01*
X129335714Y-121131809D01*
X129335714Y-121369904D01*
X129288095Y-121465142D01*
X129240476Y-121512761D01*
X129145238Y-121560380D01*
X128907142Y-121560380D01*
X128811904Y-121512761D01*
X128764285Y-121465142D01*
X128399453Y-119519300D02*
X128066120Y-119043110D01*
X127828024Y-119519300D02*
X127828024Y-118519300D01*
X128208977Y-118519300D01*
X128304215Y-118566920D01*
X128351834Y-118614539D01*
X128399453Y-118709777D01*
X128399453Y-118852634D01*
X128351834Y-118947872D01*
X128304215Y-118995491D01*
X128208977Y-119043110D01*
X127828024Y-119043110D01*
X129256596Y-118852634D02*
X129256596Y-119519300D01*
X129018500Y-118471681D02*
X128780405Y-119185967D01*
X129399453Y-119185967D01*
X149766666Y-105891980D02*
X149766666Y-106606266D01*
X149719047Y-106749123D01*
X149623809Y-106844361D01*
X149480952Y-106891980D01*
X149385714Y-106891980D01*
X150766666Y-106891980D02*
X150195238Y-106891980D01*
X150480952Y-106891980D02*
X150480952Y-105891980D01*
X150385714Y-106034838D01*
X150290476Y-106130076D01*
X150195238Y-106177695D01*
X119233333Y-109819542D02*
X119185714Y-109867161D01*
X119042857Y-109914780D01*
X118947619Y-109914780D01*
X118804761Y-109867161D01*
X118709523Y-109771923D01*
X118661904Y-109676685D01*
X118614285Y-109486209D01*
X118614285Y-109343352D01*
X118661904Y-109152876D01*
X118709523Y-109057638D01*
X118804761Y-108962400D01*
X118947619Y-108914780D01*
X119042857Y-108914780D01*
X119185714Y-108962400D01*
X119233333Y-109010019D01*
X120185714Y-109914780D02*
X119614285Y-109914780D01*
X119900000Y-109914780D02*
X119900000Y-108914780D01*
X119804761Y-109057638D01*
X119709523Y-109152876D01*
X119614285Y-109200495D01*
D15*
X121210238Y-115861523D02*
X121210238Y-114591523D01*
X122540714Y-115740571D02*
X122480238Y-115801047D01*
X122298809Y-115861523D01*
X122177857Y-115861523D01*
X121996428Y-115801047D01*
X121875476Y-115680095D01*
X121815000Y-115559142D01*
X121754523Y-115317238D01*
X121754523Y-115135809D01*
X121815000Y-114893904D01*
X121875476Y-114772952D01*
X121996428Y-114652000D01*
X122177857Y-114591523D01*
X122298809Y-114591523D01*
X122480238Y-114652000D01*
X122540714Y-114712476D01*
X123750238Y-115861523D02*
X123024523Y-115861523D01*
X123387380Y-115861523D02*
X123387380Y-114591523D01*
X123266428Y-114772952D01*
X123145476Y-114893904D01*
X123024523Y-114954380D01*
D16*
X111693333Y-114250380D02*
X111360000Y-113774190D01*
X111121904Y-114250380D02*
X111121904Y-113250380D01*
X111502857Y-113250380D01*
X111598095Y-113298000D01*
X111645714Y-113345619D01*
X111693333Y-113440857D01*
X111693333Y-113583714D01*
X111645714Y-113678952D01*
X111598095Y-113726571D01*
X111502857Y-113774190D01*
X111121904Y-113774190D01*
X112645714Y-114250380D02*
X112074285Y-114250380D01*
X112360000Y-114250380D02*
X112360000Y-113250380D01*
X112264761Y-113393238D01*
X112169523Y-113488476D01*
X112074285Y-113536095D01*
X119133333Y-107836380D02*
X118800000Y-107360190D01*
X118561904Y-107836380D02*
X118561904Y-106836380D01*
X118942857Y-106836380D01*
X119038095Y-106884000D01*
X119085714Y-106931619D01*
X119133333Y-107026857D01*
X119133333Y-107169714D01*
X119085714Y-107264952D01*
X119038095Y-107312571D01*
X118942857Y-107360190D01*
X118561904Y-107360190D01*
X119466666Y-106836380D02*
X120085714Y-106836380D01*
X119752380Y-107217333D01*
X119895238Y-107217333D01*
X119990476Y-107264952D01*
X120038095Y-107312571D01*
X120085714Y-107407809D01*
X120085714Y-107645904D01*
X120038095Y-107741142D01*
X119990476Y-107788761D01*
X119895238Y-107836380D01*
X119609523Y-107836380D01*
X119514285Y-107788761D01*
X119466666Y-107741142D01*
X112778740Y-99368246D02*
X112302550Y-99701580D01*
X112778740Y-99939675D02*
X111778740Y-99939675D01*
X111778740Y-99558722D01*
X111826360Y-99463484D01*
X111873979Y-99415865D01*
X111969217Y-99368246D01*
X112112074Y-99368246D01*
X112207312Y-99415865D01*
X112254931Y-99463484D01*
X112302550Y-99558722D01*
X112302550Y-99939675D01*
X111873979Y-98987294D02*
X111826360Y-98939675D01*
X111778740Y-98844437D01*
X111778740Y-98606341D01*
X111826360Y-98511103D01*
X111873979Y-98463484D01*
X111969217Y-98415865D01*
X112064455Y-98415865D01*
X112207312Y-98463484D01*
X112778740Y-99034913D01*
X112778740Y-98415865D01*
M02*
