G04 #@! TF.GenerationSoftware,KiCad,Pcbnew,(5.1.4)-1*
G04 #@! TF.CreationDate,2020-11-30T17:40:18+01:00*
G04 #@! TF.ProjectId,BME680,424d4536-3830-42e6-9b69-6361645f7063,A*
G04 #@! TF.SameCoordinates,Original*
G04 #@! TF.FileFunction,Soldermask,Top*
G04 #@! TF.FilePolarity,Negative*
%FSLAX46Y46*%
G04 Gerber Fmt 4.6, Leading zero omitted, Abs format (unit mm)*
G04 Created by KiCad (PCBNEW (5.1.4)-1) date 2020-11-30 17:40:18*
%MOMM*%
%LPD*%
G04 APERTURE LIST*
%ADD10C,0.100000*%
G04 APERTURE END LIST*
D10*
G36*
X120773000Y-141219000D02*
G01*
X119147000Y-141219000D01*
X119147000Y-137117000D01*
X120773000Y-137117000D01*
X120773000Y-141219000D01*
X120773000Y-141219000D01*
G37*
G36*
X125853000Y-141219000D02*
G01*
X124227000Y-141219000D01*
X124227000Y-137117000D01*
X125853000Y-137117000D01*
X125853000Y-141219000D01*
X125853000Y-141219000D01*
G37*
G36*
X123313000Y-141219000D02*
G01*
X121687000Y-141219000D01*
X121687000Y-137117000D01*
X123313000Y-137117000D01*
X123313000Y-141219000D01*
X123313000Y-141219000D01*
G37*
G36*
X129958274Y-135546665D02*
G01*
X129995967Y-135558099D01*
X130030703Y-135576666D01*
X130061148Y-135601652D01*
X130086134Y-135632097D01*
X130104701Y-135666833D01*
X130116135Y-135704526D01*
X130120600Y-135749861D01*
X130120600Y-136836539D01*
X130116135Y-136881874D01*
X130104701Y-136919567D01*
X130086134Y-136954303D01*
X130061148Y-136984748D01*
X130030703Y-137009734D01*
X129995967Y-137028301D01*
X129958274Y-137039735D01*
X129912939Y-137044200D01*
X129076261Y-137044200D01*
X129030926Y-137039735D01*
X128993233Y-137028301D01*
X128958497Y-137009734D01*
X128928052Y-136984748D01*
X128903066Y-136954303D01*
X128884499Y-136919567D01*
X128873065Y-136881874D01*
X128868600Y-136836539D01*
X128868600Y-135749861D01*
X128873065Y-135704526D01*
X128884499Y-135666833D01*
X128903066Y-135632097D01*
X128928052Y-135601652D01*
X128958497Y-135576666D01*
X128993233Y-135558099D01*
X129030926Y-135546665D01*
X129076261Y-135542200D01*
X129912939Y-135542200D01*
X129958274Y-135546665D01*
X129958274Y-135546665D01*
G37*
G36*
X127908274Y-135546665D02*
G01*
X127945967Y-135558099D01*
X127980703Y-135576666D01*
X128011148Y-135601652D01*
X128036134Y-135632097D01*
X128054701Y-135666833D01*
X128066135Y-135704526D01*
X128070600Y-135749861D01*
X128070600Y-136836539D01*
X128066135Y-136881874D01*
X128054701Y-136919567D01*
X128036134Y-136954303D01*
X128011148Y-136984748D01*
X127980703Y-137009734D01*
X127945967Y-137028301D01*
X127908274Y-137039735D01*
X127862939Y-137044200D01*
X127026261Y-137044200D01*
X126980926Y-137039735D01*
X126943233Y-137028301D01*
X126908497Y-137009734D01*
X126878052Y-136984748D01*
X126853066Y-136954303D01*
X126834499Y-136919567D01*
X126823065Y-136881874D01*
X126818600Y-136836539D01*
X126818600Y-135749861D01*
X126823065Y-135704526D01*
X126834499Y-135666833D01*
X126853066Y-135632097D01*
X126878052Y-135601652D01*
X126908497Y-135576666D01*
X126943233Y-135558099D01*
X126980926Y-135546665D01*
X127026261Y-135542200D01*
X127862939Y-135542200D01*
X127908274Y-135546665D01*
X127908274Y-135546665D01*
G37*
G36*
X129972674Y-133851865D02*
G01*
X130010367Y-133863299D01*
X130045103Y-133881866D01*
X130075548Y-133906852D01*
X130100534Y-133937297D01*
X130119101Y-133972033D01*
X130130535Y-134009726D01*
X130135000Y-134055061D01*
X130135000Y-134891739D01*
X130130535Y-134937074D01*
X130119101Y-134974767D01*
X130100534Y-135009503D01*
X130075548Y-135039948D01*
X130045103Y-135064934D01*
X130010367Y-135083501D01*
X129972674Y-135094935D01*
X129927339Y-135099400D01*
X128840661Y-135099400D01*
X128795326Y-135094935D01*
X128757633Y-135083501D01*
X128722897Y-135064934D01*
X128692452Y-135039948D01*
X128667466Y-135009503D01*
X128648899Y-134974767D01*
X128637465Y-134937074D01*
X128633000Y-134891739D01*
X128633000Y-134055061D01*
X128637465Y-134009726D01*
X128648899Y-133972033D01*
X128667466Y-133937297D01*
X128692452Y-133906852D01*
X128722897Y-133881866D01*
X128757633Y-133863299D01*
X128795326Y-133851865D01*
X128840661Y-133847400D01*
X129927339Y-133847400D01*
X129972674Y-133851865D01*
X129972674Y-133851865D01*
G37*
G36*
X132211599Y-132034754D02*
G01*
X132223850Y-132035356D01*
X132242269Y-132035356D01*
X132264549Y-132037550D01*
X132348633Y-132054276D01*
X132370060Y-132060776D01*
X132449258Y-132093580D01*
X132454703Y-132096491D01*
X132454709Y-132096493D01*
X132463569Y-132101229D01*
X132463573Y-132101232D01*
X132469014Y-132104140D01*
X132540299Y-132151771D01*
X132557604Y-132165972D01*
X132618228Y-132226596D01*
X132632429Y-132243901D01*
X132680060Y-132315186D01*
X132682968Y-132320627D01*
X132682971Y-132320631D01*
X132687707Y-132329491D01*
X132687709Y-132329497D01*
X132690620Y-132334942D01*
X132723424Y-132414140D01*
X132729924Y-132435567D01*
X132746650Y-132519651D01*
X132748844Y-132541931D01*
X132748844Y-132560350D01*
X132749446Y-132572601D01*
X132751252Y-132590939D01*
X132751252Y-133078660D01*
X132749663Y-133094799D01*
X132746748Y-133104408D01*
X132742010Y-133113272D01*
X132735637Y-133121037D01*
X132723194Y-133131248D01*
X132712825Y-133138178D01*
X132695498Y-133155505D01*
X132681885Y-133175880D01*
X132672509Y-133198520D01*
X132667729Y-133222553D01*
X132667730Y-133247057D01*
X132672512Y-133271090D01*
X132681890Y-133293729D01*
X132695505Y-133314102D01*
X132712832Y-133331429D01*
X132723202Y-133338358D01*
X132735637Y-133348563D01*
X132742010Y-133356328D01*
X132746748Y-133365192D01*
X132749663Y-133374801D01*
X132751252Y-133390940D01*
X132751252Y-133878662D01*
X132749446Y-133896999D01*
X132748844Y-133909250D01*
X132748844Y-133927669D01*
X132746650Y-133949949D01*
X132729924Y-134034033D01*
X132723424Y-134055460D01*
X132690620Y-134134658D01*
X132687709Y-134140103D01*
X132687707Y-134140109D01*
X132682971Y-134148969D01*
X132682968Y-134148973D01*
X132680060Y-134154414D01*
X132632429Y-134225699D01*
X132618228Y-134243004D01*
X132557604Y-134303628D01*
X132540299Y-134317829D01*
X132469014Y-134365460D01*
X132463573Y-134368368D01*
X132463569Y-134368371D01*
X132454709Y-134373107D01*
X132454703Y-134373109D01*
X132449258Y-134376020D01*
X132370060Y-134408824D01*
X132348633Y-134415324D01*
X132264549Y-134432050D01*
X132242269Y-134434244D01*
X132223850Y-134434244D01*
X132211599Y-134434846D01*
X132193262Y-134436652D01*
X131705538Y-134436652D01*
X131687201Y-134434846D01*
X131674950Y-134434244D01*
X131656531Y-134434244D01*
X131634251Y-134432050D01*
X131550167Y-134415324D01*
X131528740Y-134408824D01*
X131449542Y-134376020D01*
X131444097Y-134373109D01*
X131444091Y-134373107D01*
X131435231Y-134368371D01*
X131435227Y-134368368D01*
X131429786Y-134365460D01*
X131358501Y-134317829D01*
X131341196Y-134303628D01*
X131280572Y-134243004D01*
X131266371Y-134225699D01*
X131218740Y-134154414D01*
X131215832Y-134148973D01*
X131215829Y-134148969D01*
X131211093Y-134140109D01*
X131211091Y-134140103D01*
X131208180Y-134134658D01*
X131175376Y-134055460D01*
X131168876Y-134034033D01*
X131152150Y-133949949D01*
X131149956Y-133927669D01*
X131149956Y-133909250D01*
X131149354Y-133896999D01*
X131147548Y-133878662D01*
X131147548Y-133390940D01*
X131149137Y-133374801D01*
X131152052Y-133365192D01*
X131156790Y-133356328D01*
X131163163Y-133348563D01*
X131175606Y-133338352D01*
X131185975Y-133331422D01*
X131203302Y-133314095D01*
X131216915Y-133293720D01*
X131226291Y-133271080D01*
X131231071Y-133247047D01*
X131231070Y-133222543D01*
X131226288Y-133198510D01*
X131216910Y-133175871D01*
X131203295Y-133155498D01*
X131185968Y-133138171D01*
X131175598Y-133131242D01*
X131163163Y-133121037D01*
X131156790Y-133113272D01*
X131152052Y-133104408D01*
X131149137Y-133094799D01*
X131147548Y-133078660D01*
X131147548Y-132590939D01*
X131149354Y-132572601D01*
X131149956Y-132560350D01*
X131149956Y-132541931D01*
X131152150Y-132519651D01*
X131168876Y-132435567D01*
X131175376Y-132414140D01*
X131208180Y-132334942D01*
X131211091Y-132329497D01*
X131211093Y-132329491D01*
X131215829Y-132320631D01*
X131215832Y-132320627D01*
X131218740Y-132315186D01*
X131266371Y-132243901D01*
X131280572Y-132226596D01*
X131341196Y-132165972D01*
X131358501Y-132151771D01*
X131429786Y-132104140D01*
X131435227Y-132101232D01*
X131435231Y-132101229D01*
X131444091Y-132096493D01*
X131444097Y-132096491D01*
X131449542Y-132093580D01*
X131528740Y-132060776D01*
X131550167Y-132054276D01*
X131634251Y-132037550D01*
X131656531Y-132035356D01*
X131674950Y-132035356D01*
X131687201Y-132034754D01*
X131705539Y-132032948D01*
X132193261Y-132032948D01*
X132211599Y-132034754D01*
X132211599Y-132034754D01*
G37*
G36*
X118971695Y-131948723D02*
G01*
X118978709Y-131950851D01*
X118992477Y-131958210D01*
X119015116Y-131967587D01*
X119039149Y-131972367D01*
X119063653Y-131972367D01*
X119087686Y-131967586D01*
X119110323Y-131958210D01*
X119124091Y-131950851D01*
X119131105Y-131948723D01*
X119144540Y-131947400D01*
X119458260Y-131947400D01*
X119471695Y-131948723D01*
X119478709Y-131950851D01*
X119492477Y-131958210D01*
X119515116Y-131967587D01*
X119539149Y-131972367D01*
X119563653Y-131972367D01*
X119587686Y-131967586D01*
X119610323Y-131958210D01*
X119624091Y-131950851D01*
X119631105Y-131948723D01*
X119644540Y-131947400D01*
X119958260Y-131947400D01*
X119971695Y-131948723D01*
X119978709Y-131950851D01*
X119992477Y-131958210D01*
X120015116Y-131967587D01*
X120039149Y-131972367D01*
X120063653Y-131972367D01*
X120087686Y-131967586D01*
X120110323Y-131958210D01*
X120124091Y-131950851D01*
X120131105Y-131948723D01*
X120144540Y-131947400D01*
X120458260Y-131947400D01*
X120471695Y-131948723D01*
X120478709Y-131950851D01*
X120492477Y-131958210D01*
X120515116Y-131967587D01*
X120539149Y-131972367D01*
X120563653Y-131972367D01*
X120587686Y-131967586D01*
X120610323Y-131958210D01*
X120624091Y-131950851D01*
X120631105Y-131948723D01*
X120644540Y-131947400D01*
X120958260Y-131947400D01*
X120971695Y-131948723D01*
X120978709Y-131950851D01*
X120992477Y-131958210D01*
X121015116Y-131967587D01*
X121039149Y-131972367D01*
X121063653Y-131972367D01*
X121087686Y-131967586D01*
X121110323Y-131958210D01*
X121124091Y-131950851D01*
X121131105Y-131948723D01*
X121144540Y-131947400D01*
X121458260Y-131947400D01*
X121471695Y-131948723D01*
X121478709Y-131950851D01*
X121492477Y-131958210D01*
X121515116Y-131967587D01*
X121539149Y-131972367D01*
X121563653Y-131972367D01*
X121587686Y-131967586D01*
X121610323Y-131958210D01*
X121624091Y-131950851D01*
X121631105Y-131948723D01*
X121644540Y-131947400D01*
X121958260Y-131947400D01*
X121971695Y-131948723D01*
X121978709Y-131950851D01*
X121992477Y-131958210D01*
X122015116Y-131967587D01*
X122039149Y-131972367D01*
X122063653Y-131972367D01*
X122087686Y-131967586D01*
X122110323Y-131958210D01*
X122124091Y-131950851D01*
X122131105Y-131948723D01*
X122144540Y-131947400D01*
X122458260Y-131947400D01*
X122471695Y-131948723D01*
X122478709Y-131950851D01*
X122492477Y-131958210D01*
X122515116Y-131967587D01*
X122539149Y-131972367D01*
X122563653Y-131972367D01*
X122587686Y-131967586D01*
X122610323Y-131958210D01*
X122624091Y-131950851D01*
X122631105Y-131948723D01*
X122644540Y-131947400D01*
X122958260Y-131947400D01*
X122971695Y-131948723D01*
X122978709Y-131950851D01*
X122992477Y-131958210D01*
X123015116Y-131967587D01*
X123039149Y-131972367D01*
X123063653Y-131972367D01*
X123087686Y-131967586D01*
X123110323Y-131958210D01*
X123124091Y-131950851D01*
X123131105Y-131948723D01*
X123144540Y-131947400D01*
X123458260Y-131947400D01*
X123471695Y-131948723D01*
X123478709Y-131950851D01*
X123492477Y-131958210D01*
X123515116Y-131967587D01*
X123539149Y-131972367D01*
X123563653Y-131972367D01*
X123587686Y-131967586D01*
X123610323Y-131958210D01*
X123624091Y-131950851D01*
X123631105Y-131948723D01*
X123644540Y-131947400D01*
X123958260Y-131947400D01*
X123971695Y-131948723D01*
X123978709Y-131950851D01*
X123992477Y-131958210D01*
X124015116Y-131967587D01*
X124039149Y-131972367D01*
X124063653Y-131972367D01*
X124087686Y-131967586D01*
X124110323Y-131958210D01*
X124124091Y-131950851D01*
X124131105Y-131948723D01*
X124144540Y-131947400D01*
X124458260Y-131947400D01*
X124471695Y-131948723D01*
X124478709Y-131950851D01*
X124492477Y-131958210D01*
X124515116Y-131967587D01*
X124539149Y-131972367D01*
X124563653Y-131972367D01*
X124587686Y-131967586D01*
X124610323Y-131958210D01*
X124624091Y-131950851D01*
X124631105Y-131948723D01*
X124644540Y-131947400D01*
X124958260Y-131947400D01*
X124971695Y-131948723D01*
X124978709Y-131950851D01*
X124992477Y-131958210D01*
X125015116Y-131967587D01*
X125039149Y-131972367D01*
X125063653Y-131972367D01*
X125087686Y-131967586D01*
X125110323Y-131958210D01*
X125124091Y-131950851D01*
X125131105Y-131948723D01*
X125144540Y-131947400D01*
X125458260Y-131947400D01*
X125471695Y-131948723D01*
X125478709Y-131950851D01*
X125492477Y-131958210D01*
X125515116Y-131967587D01*
X125539149Y-131972367D01*
X125563653Y-131972367D01*
X125587686Y-131967586D01*
X125610323Y-131958210D01*
X125624091Y-131950851D01*
X125631105Y-131948723D01*
X125644540Y-131947400D01*
X125958260Y-131947400D01*
X125971695Y-131948723D01*
X125978709Y-131950851D01*
X125992477Y-131958210D01*
X126015116Y-131967587D01*
X126039149Y-131972367D01*
X126063653Y-131972367D01*
X126087686Y-131967586D01*
X126110323Y-131958210D01*
X126124091Y-131950851D01*
X126131105Y-131948723D01*
X126144540Y-131947400D01*
X126458260Y-131947400D01*
X126471695Y-131948723D01*
X126478710Y-131950851D01*
X126485176Y-131954308D01*
X126490842Y-131958958D01*
X126495492Y-131964624D01*
X126498949Y-131971090D01*
X126501077Y-131978105D01*
X126502400Y-131991540D01*
X126502400Y-133555260D01*
X126501077Y-133568695D01*
X126498949Y-133575710D01*
X126495492Y-133582176D01*
X126490842Y-133587842D01*
X126485176Y-133592492D01*
X126478710Y-133595949D01*
X126471695Y-133598077D01*
X126458260Y-133599400D01*
X126144540Y-133599400D01*
X126131105Y-133598077D01*
X126124091Y-133595949D01*
X126110323Y-133588590D01*
X126087684Y-133579213D01*
X126063651Y-133574433D01*
X126039147Y-133574433D01*
X126015114Y-133579214D01*
X125992477Y-133588590D01*
X125978709Y-133595949D01*
X125971695Y-133598077D01*
X125958260Y-133599400D01*
X125644540Y-133599400D01*
X125631105Y-133598077D01*
X125624091Y-133595949D01*
X125610323Y-133588590D01*
X125587684Y-133579213D01*
X125563651Y-133574433D01*
X125539147Y-133574433D01*
X125515114Y-133579214D01*
X125492477Y-133588590D01*
X125478709Y-133595949D01*
X125471695Y-133598077D01*
X125458260Y-133599400D01*
X125144540Y-133599400D01*
X125131105Y-133598077D01*
X125124091Y-133595949D01*
X125110323Y-133588590D01*
X125087684Y-133579213D01*
X125063651Y-133574433D01*
X125039147Y-133574433D01*
X125015114Y-133579214D01*
X124992477Y-133588590D01*
X124978709Y-133595949D01*
X124971695Y-133598077D01*
X124958260Y-133599400D01*
X124644540Y-133599400D01*
X124631105Y-133598077D01*
X124624091Y-133595949D01*
X124610323Y-133588590D01*
X124587684Y-133579213D01*
X124563651Y-133574433D01*
X124539147Y-133574433D01*
X124515114Y-133579214D01*
X124492477Y-133588590D01*
X124478709Y-133595949D01*
X124471695Y-133598077D01*
X124458260Y-133599400D01*
X124144540Y-133599400D01*
X124131105Y-133598077D01*
X124124091Y-133595949D01*
X124110323Y-133588590D01*
X124087684Y-133579213D01*
X124063651Y-133574433D01*
X124039147Y-133574433D01*
X124015114Y-133579214D01*
X123992477Y-133588590D01*
X123978709Y-133595949D01*
X123971695Y-133598077D01*
X123958260Y-133599400D01*
X123644540Y-133599400D01*
X123631105Y-133598077D01*
X123624091Y-133595949D01*
X123610323Y-133588590D01*
X123587684Y-133579213D01*
X123563651Y-133574433D01*
X123539147Y-133574433D01*
X123515114Y-133579214D01*
X123492477Y-133588590D01*
X123478709Y-133595949D01*
X123471695Y-133598077D01*
X123458260Y-133599400D01*
X123144540Y-133599400D01*
X123131105Y-133598077D01*
X123124091Y-133595949D01*
X123110323Y-133588590D01*
X123087684Y-133579213D01*
X123063651Y-133574433D01*
X123039147Y-133574433D01*
X123015114Y-133579214D01*
X122992477Y-133588590D01*
X122978709Y-133595949D01*
X122971695Y-133598077D01*
X122958260Y-133599400D01*
X122644540Y-133599400D01*
X122631105Y-133598077D01*
X122624091Y-133595949D01*
X122610323Y-133588590D01*
X122587684Y-133579213D01*
X122563651Y-133574433D01*
X122539147Y-133574433D01*
X122515114Y-133579214D01*
X122492477Y-133588590D01*
X122478709Y-133595949D01*
X122471695Y-133598077D01*
X122458260Y-133599400D01*
X122144540Y-133599400D01*
X122131105Y-133598077D01*
X122124091Y-133595949D01*
X122110323Y-133588590D01*
X122087684Y-133579213D01*
X122063651Y-133574433D01*
X122039147Y-133574433D01*
X122015114Y-133579214D01*
X121992477Y-133588590D01*
X121978709Y-133595949D01*
X121971695Y-133598077D01*
X121958260Y-133599400D01*
X121644540Y-133599400D01*
X121631105Y-133598077D01*
X121624091Y-133595949D01*
X121610323Y-133588590D01*
X121587684Y-133579213D01*
X121563651Y-133574433D01*
X121539147Y-133574433D01*
X121515114Y-133579214D01*
X121492477Y-133588590D01*
X121478709Y-133595949D01*
X121471695Y-133598077D01*
X121458260Y-133599400D01*
X121144540Y-133599400D01*
X121131105Y-133598077D01*
X121124091Y-133595949D01*
X121110323Y-133588590D01*
X121087684Y-133579213D01*
X121063651Y-133574433D01*
X121039147Y-133574433D01*
X121015114Y-133579214D01*
X120992477Y-133588590D01*
X120978709Y-133595949D01*
X120971695Y-133598077D01*
X120958260Y-133599400D01*
X120644540Y-133599400D01*
X120631105Y-133598077D01*
X120624091Y-133595949D01*
X120610323Y-133588590D01*
X120587684Y-133579213D01*
X120563651Y-133574433D01*
X120539147Y-133574433D01*
X120515114Y-133579214D01*
X120492477Y-133588590D01*
X120478709Y-133595949D01*
X120471695Y-133598077D01*
X120458260Y-133599400D01*
X120144540Y-133599400D01*
X120131105Y-133598077D01*
X120124091Y-133595949D01*
X120110323Y-133588590D01*
X120087684Y-133579213D01*
X120063651Y-133574433D01*
X120039147Y-133574433D01*
X120015114Y-133579214D01*
X119992477Y-133588590D01*
X119978709Y-133595949D01*
X119971695Y-133598077D01*
X119958260Y-133599400D01*
X119644540Y-133599400D01*
X119631105Y-133598077D01*
X119624091Y-133595949D01*
X119610323Y-133588590D01*
X119587684Y-133579213D01*
X119563651Y-133574433D01*
X119539147Y-133574433D01*
X119515114Y-133579214D01*
X119492477Y-133588590D01*
X119478709Y-133595949D01*
X119471695Y-133598077D01*
X119458260Y-133599400D01*
X119144540Y-133599400D01*
X119131105Y-133598077D01*
X119124091Y-133595949D01*
X119110323Y-133588590D01*
X119087684Y-133579213D01*
X119063651Y-133574433D01*
X119039147Y-133574433D01*
X119015114Y-133579214D01*
X118992477Y-133588590D01*
X118978709Y-133595949D01*
X118971695Y-133598077D01*
X118958260Y-133599400D01*
X118644540Y-133599400D01*
X118631105Y-133598077D01*
X118624090Y-133595949D01*
X118617624Y-133592492D01*
X118611958Y-133587842D01*
X118607308Y-133582176D01*
X118603851Y-133575710D01*
X118601723Y-133568695D01*
X118600400Y-133555260D01*
X118600400Y-131991540D01*
X118601723Y-131978105D01*
X118603851Y-131971090D01*
X118607308Y-131964624D01*
X118611958Y-131958958D01*
X118617624Y-131954308D01*
X118624090Y-131950851D01*
X118631105Y-131948723D01*
X118644540Y-131947400D01*
X118958260Y-131947400D01*
X118971695Y-131948723D01*
X118971695Y-131948723D01*
G37*
G36*
X113032874Y-131558865D02*
G01*
X113070567Y-131570299D01*
X113105303Y-131588866D01*
X113135748Y-131613852D01*
X113160734Y-131644297D01*
X113179301Y-131679033D01*
X113190735Y-131716726D01*
X113195200Y-131762061D01*
X113195200Y-132848739D01*
X113190735Y-132894074D01*
X113179301Y-132931767D01*
X113160734Y-132966503D01*
X113135748Y-132996948D01*
X113105303Y-133021934D01*
X113070567Y-133040501D01*
X113032874Y-133051935D01*
X112987539Y-133056400D01*
X112150861Y-133056400D01*
X112105526Y-133051935D01*
X112067833Y-133040501D01*
X112033097Y-133021934D01*
X112002652Y-132996948D01*
X111977666Y-132966503D01*
X111959099Y-132931767D01*
X111947665Y-132894074D01*
X111943200Y-132848739D01*
X111943200Y-131762061D01*
X111947665Y-131716726D01*
X111959099Y-131679033D01*
X111977666Y-131644297D01*
X112002652Y-131613852D01*
X112033097Y-131588866D01*
X112067833Y-131570299D01*
X112105526Y-131558865D01*
X112150861Y-131554400D01*
X112987539Y-131554400D01*
X113032874Y-131558865D01*
X113032874Y-131558865D01*
G37*
G36*
X115082874Y-131558865D02*
G01*
X115120567Y-131570299D01*
X115155303Y-131588866D01*
X115185748Y-131613852D01*
X115210734Y-131644297D01*
X115229301Y-131679033D01*
X115240735Y-131716726D01*
X115245200Y-131762061D01*
X115245200Y-132848739D01*
X115240735Y-132894074D01*
X115229301Y-132931767D01*
X115210734Y-132966503D01*
X115185748Y-132996948D01*
X115155303Y-133021934D01*
X115120567Y-133040501D01*
X115082874Y-133051935D01*
X115037539Y-133056400D01*
X114200861Y-133056400D01*
X114155526Y-133051935D01*
X114117833Y-133040501D01*
X114083097Y-133021934D01*
X114052652Y-132996948D01*
X114027666Y-132966503D01*
X114009099Y-132931767D01*
X113997665Y-132894074D01*
X113993200Y-132848739D01*
X113993200Y-131762061D01*
X113997665Y-131716726D01*
X114009099Y-131679033D01*
X114027666Y-131644297D01*
X114052652Y-131613852D01*
X114083097Y-131588866D01*
X114117833Y-131570299D01*
X114155526Y-131558865D01*
X114200861Y-131554400D01*
X115037539Y-131554400D01*
X115082874Y-131558865D01*
X115082874Y-131558865D01*
G37*
G36*
X129972674Y-131801865D02*
G01*
X130010367Y-131813299D01*
X130045103Y-131831866D01*
X130075548Y-131856852D01*
X130100534Y-131887297D01*
X130119101Y-131922033D01*
X130130535Y-131959726D01*
X130135000Y-132005061D01*
X130135000Y-132841739D01*
X130130535Y-132887074D01*
X130119101Y-132924767D01*
X130100534Y-132959503D01*
X130075548Y-132989948D01*
X130045103Y-133014934D01*
X130010367Y-133033501D01*
X129972674Y-133044935D01*
X129927339Y-133049400D01*
X128840661Y-133049400D01*
X128795326Y-133044935D01*
X128757633Y-133033501D01*
X128722897Y-133014934D01*
X128692452Y-132989948D01*
X128667466Y-132959503D01*
X128648899Y-132924767D01*
X128637465Y-132887074D01*
X128633000Y-132841739D01*
X128633000Y-132005061D01*
X128637465Y-131959726D01*
X128648899Y-131922033D01*
X128667466Y-131887297D01*
X128692452Y-131856852D01*
X128722897Y-131831866D01*
X128757633Y-131813299D01*
X128795326Y-131801865D01*
X128840661Y-131797400D01*
X129927339Y-131797400D01*
X129972674Y-131801865D01*
X129972674Y-131801865D01*
G37*
G36*
X115082874Y-129628465D02*
G01*
X115120567Y-129639899D01*
X115155303Y-129658466D01*
X115185748Y-129683452D01*
X115210734Y-129713897D01*
X115229301Y-129748633D01*
X115240735Y-129786326D01*
X115245200Y-129831661D01*
X115245200Y-130918339D01*
X115240735Y-130963674D01*
X115229301Y-131001367D01*
X115210734Y-131036103D01*
X115185748Y-131066548D01*
X115155303Y-131091534D01*
X115120567Y-131110101D01*
X115082874Y-131121535D01*
X115037539Y-131126000D01*
X114200861Y-131126000D01*
X114155526Y-131121535D01*
X114117833Y-131110101D01*
X114083097Y-131091534D01*
X114052652Y-131066548D01*
X114027666Y-131036103D01*
X114009099Y-131001367D01*
X113997665Y-130963674D01*
X113993200Y-130918339D01*
X113993200Y-129831661D01*
X113997665Y-129786326D01*
X114009099Y-129748633D01*
X114027666Y-129713897D01*
X114052652Y-129683452D01*
X114083097Y-129658466D01*
X114117833Y-129639899D01*
X114155526Y-129628465D01*
X114200861Y-129624000D01*
X115037539Y-129624000D01*
X115082874Y-129628465D01*
X115082874Y-129628465D01*
G37*
G36*
X113032874Y-129628465D02*
G01*
X113070567Y-129639899D01*
X113105303Y-129658466D01*
X113135748Y-129683452D01*
X113160734Y-129713897D01*
X113179301Y-129748633D01*
X113190735Y-129786326D01*
X113195200Y-129831661D01*
X113195200Y-130918339D01*
X113190735Y-130963674D01*
X113179301Y-131001367D01*
X113160734Y-131036103D01*
X113135748Y-131066548D01*
X113105303Y-131091534D01*
X113070567Y-131110101D01*
X113032874Y-131121535D01*
X112987539Y-131126000D01*
X112150861Y-131126000D01*
X112105526Y-131121535D01*
X112067833Y-131110101D01*
X112033097Y-131091534D01*
X112002652Y-131066548D01*
X111977666Y-131036103D01*
X111959099Y-131001367D01*
X111947665Y-130963674D01*
X111943200Y-130918339D01*
X111943200Y-129831661D01*
X111947665Y-129786326D01*
X111959099Y-129748633D01*
X111977666Y-129713897D01*
X112002652Y-129683452D01*
X112033097Y-129658466D01*
X112067833Y-129639899D01*
X112105526Y-129628465D01*
X112150861Y-129624000D01*
X112987539Y-129624000D01*
X113032874Y-129628465D01*
X113032874Y-129628465D01*
G37*
G36*
X129021695Y-123148723D02*
G01*
X129028710Y-123150851D01*
X129035176Y-123154308D01*
X129040842Y-123158958D01*
X129045492Y-123164624D01*
X129048949Y-123171090D01*
X129051077Y-123178105D01*
X129052400Y-123191540D01*
X129052400Y-123505260D01*
X129051077Y-123518695D01*
X129048949Y-123525709D01*
X129041590Y-123539477D01*
X129032213Y-123562116D01*
X129027433Y-123586149D01*
X129027433Y-123610653D01*
X129032214Y-123634686D01*
X129041590Y-123657323D01*
X129048949Y-123671091D01*
X129051077Y-123678105D01*
X129052400Y-123691540D01*
X129052400Y-124005260D01*
X129051077Y-124018695D01*
X129048949Y-124025709D01*
X129041590Y-124039477D01*
X129032213Y-124062116D01*
X129027433Y-124086149D01*
X129027433Y-124110653D01*
X129032214Y-124134686D01*
X129041590Y-124157323D01*
X129048949Y-124171091D01*
X129051077Y-124178105D01*
X129052400Y-124191540D01*
X129052400Y-124505260D01*
X129051077Y-124518695D01*
X129048949Y-124525709D01*
X129041590Y-124539477D01*
X129032213Y-124562116D01*
X129027433Y-124586149D01*
X129027433Y-124610653D01*
X129032214Y-124634686D01*
X129041590Y-124657323D01*
X129048949Y-124671091D01*
X129051077Y-124678105D01*
X129052400Y-124691540D01*
X129052400Y-125005260D01*
X129051077Y-125018695D01*
X129048949Y-125025709D01*
X129041590Y-125039477D01*
X129032213Y-125062116D01*
X129027433Y-125086149D01*
X129027433Y-125110653D01*
X129032214Y-125134686D01*
X129041590Y-125157323D01*
X129048949Y-125171091D01*
X129051077Y-125178105D01*
X129052400Y-125191540D01*
X129052400Y-125505260D01*
X129051077Y-125518695D01*
X129048949Y-125525709D01*
X129041590Y-125539477D01*
X129032213Y-125562116D01*
X129027433Y-125586149D01*
X129027433Y-125610653D01*
X129032214Y-125634686D01*
X129041590Y-125657323D01*
X129048949Y-125671091D01*
X129051077Y-125678105D01*
X129052400Y-125691540D01*
X129052400Y-126005260D01*
X129051077Y-126018695D01*
X129048949Y-126025709D01*
X129041590Y-126039477D01*
X129032213Y-126062116D01*
X129027433Y-126086149D01*
X129027433Y-126110653D01*
X129032214Y-126134686D01*
X129041590Y-126157323D01*
X129048949Y-126171091D01*
X129051077Y-126178105D01*
X129052400Y-126191540D01*
X129052400Y-126505260D01*
X129051077Y-126518695D01*
X129048949Y-126525709D01*
X129041590Y-126539477D01*
X129032213Y-126562116D01*
X129027433Y-126586149D01*
X129027433Y-126610653D01*
X129032214Y-126634686D01*
X129041590Y-126657323D01*
X129048949Y-126671091D01*
X129051077Y-126678105D01*
X129052400Y-126691540D01*
X129052400Y-127005260D01*
X129051077Y-127018695D01*
X129048949Y-127025709D01*
X129041590Y-127039477D01*
X129032213Y-127062116D01*
X129027433Y-127086149D01*
X129027433Y-127110653D01*
X129032214Y-127134686D01*
X129041590Y-127157323D01*
X129048949Y-127171091D01*
X129051077Y-127178105D01*
X129052400Y-127191540D01*
X129052400Y-127505260D01*
X129051077Y-127518695D01*
X129048949Y-127525709D01*
X129041590Y-127539477D01*
X129032213Y-127562116D01*
X129027433Y-127586149D01*
X129027433Y-127610653D01*
X129032214Y-127634686D01*
X129041590Y-127657323D01*
X129048949Y-127671091D01*
X129051077Y-127678105D01*
X129052400Y-127691540D01*
X129052400Y-128005260D01*
X129051077Y-128018695D01*
X129048949Y-128025709D01*
X129041590Y-128039477D01*
X129032213Y-128062116D01*
X129027433Y-128086149D01*
X129027433Y-128110653D01*
X129032214Y-128134686D01*
X129041590Y-128157323D01*
X129048949Y-128171091D01*
X129051077Y-128178105D01*
X129052400Y-128191540D01*
X129052400Y-128505260D01*
X129051077Y-128518695D01*
X129048949Y-128525709D01*
X129041590Y-128539477D01*
X129032213Y-128562116D01*
X129027433Y-128586149D01*
X129027433Y-128610653D01*
X129032214Y-128634686D01*
X129041590Y-128657323D01*
X129048949Y-128671091D01*
X129051077Y-128678105D01*
X129052400Y-128691540D01*
X129052400Y-129005260D01*
X129051077Y-129018695D01*
X129048949Y-129025709D01*
X129041590Y-129039477D01*
X129032213Y-129062116D01*
X129027433Y-129086149D01*
X129027433Y-129110653D01*
X129032214Y-129134686D01*
X129041590Y-129157323D01*
X129048949Y-129171091D01*
X129051077Y-129178105D01*
X129052400Y-129191540D01*
X129052400Y-129505260D01*
X129051077Y-129518695D01*
X129048949Y-129525709D01*
X129041590Y-129539477D01*
X129032213Y-129562116D01*
X129027433Y-129586149D01*
X129027433Y-129610653D01*
X129032214Y-129634686D01*
X129041590Y-129657323D01*
X129048949Y-129671091D01*
X129051077Y-129678105D01*
X129052400Y-129691540D01*
X129052400Y-130005260D01*
X129051077Y-130018695D01*
X129048949Y-130025709D01*
X129041590Y-130039477D01*
X129032213Y-130062116D01*
X129027433Y-130086149D01*
X129027433Y-130110653D01*
X129032214Y-130134686D01*
X129041590Y-130157323D01*
X129048949Y-130171091D01*
X129051077Y-130178105D01*
X129052400Y-130191540D01*
X129052400Y-130505260D01*
X129051077Y-130518695D01*
X129048949Y-130525709D01*
X129041590Y-130539477D01*
X129032213Y-130562116D01*
X129027433Y-130586149D01*
X129027433Y-130610653D01*
X129032214Y-130634686D01*
X129041590Y-130657323D01*
X129048949Y-130671091D01*
X129051077Y-130678105D01*
X129052400Y-130691540D01*
X129052400Y-131005260D01*
X129051077Y-131018695D01*
X129048949Y-131025710D01*
X129045492Y-131032176D01*
X129040842Y-131037842D01*
X129035176Y-131042492D01*
X129028710Y-131045949D01*
X129021695Y-131048077D01*
X129008260Y-131049400D01*
X127444540Y-131049400D01*
X127431105Y-131048077D01*
X127424090Y-131045949D01*
X127417624Y-131042492D01*
X127411958Y-131037842D01*
X127407308Y-131032176D01*
X127403851Y-131025710D01*
X127401723Y-131018695D01*
X127400400Y-131005260D01*
X127400400Y-130691540D01*
X127401723Y-130678105D01*
X127403851Y-130671091D01*
X127411210Y-130657323D01*
X127420587Y-130634684D01*
X127425367Y-130610651D01*
X127425367Y-130586147D01*
X127420586Y-130562114D01*
X127411210Y-130539477D01*
X127403851Y-130525709D01*
X127401723Y-130518695D01*
X127400400Y-130505260D01*
X127400400Y-130191540D01*
X127401723Y-130178105D01*
X127403851Y-130171091D01*
X127411210Y-130157323D01*
X127420587Y-130134684D01*
X127425367Y-130110651D01*
X127425367Y-130086147D01*
X127420586Y-130062114D01*
X127411210Y-130039477D01*
X127403851Y-130025709D01*
X127401723Y-130018695D01*
X127400400Y-130005260D01*
X127400400Y-129691540D01*
X127401723Y-129678105D01*
X127403851Y-129671091D01*
X127411210Y-129657323D01*
X127420587Y-129634684D01*
X127425367Y-129610651D01*
X127425367Y-129586147D01*
X127420586Y-129562114D01*
X127411210Y-129539477D01*
X127403851Y-129525709D01*
X127401723Y-129518695D01*
X127400400Y-129505260D01*
X127400400Y-129191540D01*
X127401723Y-129178105D01*
X127403851Y-129171091D01*
X127411210Y-129157323D01*
X127420587Y-129134684D01*
X127425367Y-129110651D01*
X127425367Y-129086147D01*
X127420586Y-129062114D01*
X127411210Y-129039477D01*
X127403851Y-129025709D01*
X127401723Y-129018695D01*
X127400400Y-129005260D01*
X127400400Y-128691540D01*
X127401723Y-128678105D01*
X127403851Y-128671091D01*
X127411210Y-128657323D01*
X127420587Y-128634684D01*
X127425367Y-128610651D01*
X127425367Y-128586147D01*
X127420586Y-128562114D01*
X127411210Y-128539477D01*
X127403851Y-128525709D01*
X127401723Y-128518695D01*
X127400400Y-128505260D01*
X127400400Y-128191540D01*
X127401723Y-128178105D01*
X127403851Y-128171091D01*
X127411210Y-128157323D01*
X127420587Y-128134684D01*
X127425367Y-128110651D01*
X127425367Y-128086147D01*
X127420586Y-128062114D01*
X127411210Y-128039477D01*
X127403851Y-128025709D01*
X127401723Y-128018695D01*
X127400400Y-128005260D01*
X127400400Y-127691540D01*
X127401723Y-127678105D01*
X127403851Y-127671091D01*
X127411210Y-127657323D01*
X127420587Y-127634684D01*
X127425367Y-127610651D01*
X127425367Y-127586147D01*
X127420586Y-127562114D01*
X127411210Y-127539477D01*
X127403851Y-127525709D01*
X127401723Y-127518695D01*
X127400400Y-127505260D01*
X127400400Y-127191540D01*
X127401723Y-127178105D01*
X127403851Y-127171091D01*
X127411210Y-127157323D01*
X127420587Y-127134684D01*
X127425367Y-127110651D01*
X127425367Y-127086147D01*
X127420586Y-127062114D01*
X127411210Y-127039477D01*
X127403851Y-127025709D01*
X127401723Y-127018695D01*
X127400400Y-127005260D01*
X127400400Y-126691540D01*
X127401723Y-126678105D01*
X127403851Y-126671091D01*
X127411210Y-126657323D01*
X127420587Y-126634684D01*
X127425367Y-126610651D01*
X127425367Y-126586147D01*
X127420586Y-126562114D01*
X127411210Y-126539477D01*
X127403851Y-126525709D01*
X127401723Y-126518695D01*
X127400400Y-126505260D01*
X127400400Y-126191540D01*
X127401723Y-126178105D01*
X127403851Y-126171091D01*
X127411210Y-126157323D01*
X127420587Y-126134684D01*
X127425367Y-126110651D01*
X127425367Y-126086147D01*
X127420586Y-126062114D01*
X127411210Y-126039477D01*
X127403851Y-126025709D01*
X127401723Y-126018695D01*
X127400400Y-126005260D01*
X127400400Y-125691540D01*
X127401723Y-125678105D01*
X127403851Y-125671091D01*
X127411210Y-125657323D01*
X127420587Y-125634684D01*
X127425367Y-125610651D01*
X127425367Y-125586147D01*
X127420586Y-125562114D01*
X127411210Y-125539477D01*
X127403851Y-125525709D01*
X127401723Y-125518695D01*
X127400400Y-125505260D01*
X127400400Y-125191540D01*
X127401723Y-125178105D01*
X127403851Y-125171091D01*
X127411210Y-125157323D01*
X127420587Y-125134684D01*
X127425367Y-125110651D01*
X127425367Y-125086147D01*
X127420586Y-125062114D01*
X127411210Y-125039477D01*
X127403851Y-125025709D01*
X127401723Y-125018695D01*
X127400400Y-125005260D01*
X127400400Y-124691540D01*
X127401723Y-124678105D01*
X127403851Y-124671091D01*
X127411210Y-124657323D01*
X127420587Y-124634684D01*
X127425367Y-124610651D01*
X127425367Y-124586147D01*
X127420586Y-124562114D01*
X127411210Y-124539477D01*
X127403851Y-124525709D01*
X127401723Y-124518695D01*
X127400400Y-124505260D01*
X127400400Y-124191540D01*
X127401723Y-124178105D01*
X127403851Y-124171091D01*
X127411210Y-124157323D01*
X127420587Y-124134684D01*
X127425367Y-124110651D01*
X127425367Y-124086147D01*
X127420586Y-124062114D01*
X127411210Y-124039477D01*
X127403851Y-124025709D01*
X127401723Y-124018695D01*
X127400400Y-124005260D01*
X127400400Y-123691540D01*
X127401723Y-123678105D01*
X127403851Y-123671091D01*
X127411210Y-123657323D01*
X127420587Y-123634684D01*
X127425367Y-123610651D01*
X127425367Y-123586147D01*
X127420586Y-123562114D01*
X127411210Y-123539477D01*
X127403851Y-123525709D01*
X127401723Y-123518695D01*
X127400400Y-123505260D01*
X127400400Y-123191540D01*
X127401723Y-123178105D01*
X127403851Y-123171090D01*
X127407308Y-123164624D01*
X127411958Y-123158958D01*
X127417624Y-123154308D01*
X127424090Y-123150851D01*
X127431105Y-123148723D01*
X127444540Y-123147400D01*
X129008260Y-123147400D01*
X129021695Y-123148723D01*
X129021695Y-123148723D01*
G37*
G36*
X117671695Y-123148723D02*
G01*
X117678710Y-123150851D01*
X117685176Y-123154308D01*
X117690842Y-123158958D01*
X117695492Y-123164624D01*
X117698949Y-123171090D01*
X117701077Y-123178105D01*
X117702400Y-123191540D01*
X117702400Y-123505260D01*
X117701077Y-123518695D01*
X117698949Y-123525709D01*
X117691590Y-123539477D01*
X117682213Y-123562116D01*
X117677433Y-123586149D01*
X117677433Y-123610653D01*
X117682214Y-123634686D01*
X117691590Y-123657323D01*
X117698949Y-123671091D01*
X117701077Y-123678105D01*
X117702400Y-123691540D01*
X117702400Y-124005260D01*
X117701077Y-124018695D01*
X117698949Y-124025709D01*
X117691590Y-124039477D01*
X117682213Y-124062116D01*
X117677433Y-124086149D01*
X117677433Y-124110653D01*
X117682214Y-124134686D01*
X117691590Y-124157323D01*
X117698949Y-124171091D01*
X117701077Y-124178105D01*
X117702400Y-124191540D01*
X117702400Y-124505260D01*
X117701077Y-124518695D01*
X117698949Y-124525709D01*
X117691590Y-124539477D01*
X117682213Y-124562116D01*
X117677433Y-124586149D01*
X117677433Y-124610653D01*
X117682214Y-124634686D01*
X117691590Y-124657323D01*
X117698949Y-124671091D01*
X117701077Y-124678105D01*
X117702400Y-124691540D01*
X117702400Y-125005260D01*
X117701077Y-125018695D01*
X117698949Y-125025709D01*
X117691590Y-125039477D01*
X117682213Y-125062116D01*
X117677433Y-125086149D01*
X117677433Y-125110653D01*
X117682214Y-125134686D01*
X117691590Y-125157323D01*
X117698949Y-125171091D01*
X117701077Y-125178105D01*
X117702400Y-125191540D01*
X117702400Y-125505260D01*
X117701077Y-125518695D01*
X117698949Y-125525709D01*
X117691590Y-125539477D01*
X117682213Y-125562116D01*
X117677433Y-125586149D01*
X117677433Y-125610653D01*
X117682214Y-125634686D01*
X117691590Y-125657323D01*
X117698949Y-125671091D01*
X117701077Y-125678105D01*
X117702400Y-125691540D01*
X117702400Y-126005260D01*
X117701077Y-126018695D01*
X117698949Y-126025709D01*
X117691590Y-126039477D01*
X117682213Y-126062116D01*
X117677433Y-126086149D01*
X117677433Y-126110653D01*
X117682214Y-126134686D01*
X117691590Y-126157323D01*
X117698949Y-126171091D01*
X117701077Y-126178105D01*
X117702400Y-126191540D01*
X117702400Y-126505260D01*
X117701077Y-126518695D01*
X117698949Y-126525709D01*
X117691590Y-126539477D01*
X117682213Y-126562116D01*
X117677433Y-126586149D01*
X117677433Y-126610653D01*
X117682214Y-126634686D01*
X117691590Y-126657323D01*
X117698949Y-126671091D01*
X117701077Y-126678105D01*
X117702400Y-126691540D01*
X117702400Y-127005260D01*
X117701077Y-127018695D01*
X117698949Y-127025709D01*
X117691590Y-127039477D01*
X117682213Y-127062116D01*
X117677433Y-127086149D01*
X117677433Y-127110653D01*
X117682214Y-127134686D01*
X117691590Y-127157323D01*
X117698949Y-127171091D01*
X117701077Y-127178105D01*
X117702400Y-127191540D01*
X117702400Y-127505260D01*
X117701077Y-127518695D01*
X117698949Y-127525709D01*
X117691590Y-127539477D01*
X117682213Y-127562116D01*
X117677433Y-127586149D01*
X117677433Y-127610653D01*
X117682214Y-127634686D01*
X117691590Y-127657323D01*
X117698949Y-127671091D01*
X117701077Y-127678105D01*
X117702400Y-127691540D01*
X117702400Y-128005260D01*
X117701077Y-128018695D01*
X117698949Y-128025709D01*
X117691590Y-128039477D01*
X117682213Y-128062116D01*
X117677433Y-128086149D01*
X117677433Y-128110653D01*
X117682214Y-128134686D01*
X117691590Y-128157323D01*
X117698949Y-128171091D01*
X117701077Y-128178105D01*
X117702400Y-128191540D01*
X117702400Y-128505260D01*
X117701077Y-128518695D01*
X117698949Y-128525709D01*
X117691590Y-128539477D01*
X117682213Y-128562116D01*
X117677433Y-128586149D01*
X117677433Y-128610653D01*
X117682214Y-128634686D01*
X117691590Y-128657323D01*
X117698949Y-128671091D01*
X117701077Y-128678105D01*
X117702400Y-128691540D01*
X117702400Y-129005260D01*
X117701077Y-129018695D01*
X117698949Y-129025709D01*
X117691590Y-129039477D01*
X117682213Y-129062116D01*
X117677433Y-129086149D01*
X117677433Y-129110653D01*
X117682214Y-129134686D01*
X117691590Y-129157323D01*
X117698949Y-129171091D01*
X117701077Y-129178105D01*
X117702400Y-129191540D01*
X117702400Y-129505260D01*
X117701077Y-129518695D01*
X117698949Y-129525709D01*
X117691590Y-129539477D01*
X117682213Y-129562116D01*
X117677433Y-129586149D01*
X117677433Y-129610653D01*
X117682214Y-129634686D01*
X117691590Y-129657323D01*
X117698949Y-129671091D01*
X117701077Y-129678105D01*
X117702400Y-129691540D01*
X117702400Y-130005260D01*
X117701077Y-130018695D01*
X117698949Y-130025709D01*
X117691590Y-130039477D01*
X117682213Y-130062116D01*
X117677433Y-130086149D01*
X117677433Y-130110653D01*
X117682214Y-130134686D01*
X117691590Y-130157323D01*
X117698949Y-130171091D01*
X117701077Y-130178105D01*
X117702400Y-130191540D01*
X117702400Y-130505260D01*
X117701077Y-130518695D01*
X117698949Y-130525709D01*
X117691590Y-130539477D01*
X117682213Y-130562116D01*
X117677433Y-130586149D01*
X117677433Y-130610653D01*
X117682214Y-130634686D01*
X117691590Y-130657323D01*
X117698949Y-130671091D01*
X117701077Y-130678105D01*
X117702400Y-130691540D01*
X117702400Y-131005260D01*
X117701077Y-131018695D01*
X117698949Y-131025710D01*
X117695492Y-131032176D01*
X117690842Y-131037842D01*
X117685176Y-131042492D01*
X117678710Y-131045949D01*
X117671695Y-131048077D01*
X117658260Y-131049400D01*
X116094540Y-131049400D01*
X116081105Y-131048077D01*
X116074090Y-131045949D01*
X116067624Y-131042492D01*
X116061958Y-131037842D01*
X116057308Y-131032176D01*
X116053851Y-131025710D01*
X116051723Y-131018695D01*
X116050400Y-131005260D01*
X116050400Y-130691540D01*
X116051723Y-130678105D01*
X116053851Y-130671091D01*
X116061210Y-130657323D01*
X116070587Y-130634684D01*
X116075367Y-130610651D01*
X116075367Y-130586147D01*
X116070586Y-130562114D01*
X116061210Y-130539477D01*
X116053851Y-130525709D01*
X116051723Y-130518695D01*
X116050400Y-130505260D01*
X116050400Y-130191540D01*
X116051723Y-130178105D01*
X116053851Y-130171091D01*
X116061210Y-130157323D01*
X116070587Y-130134684D01*
X116075367Y-130110651D01*
X116075367Y-130086147D01*
X116070586Y-130062114D01*
X116061210Y-130039477D01*
X116053851Y-130025709D01*
X116051723Y-130018695D01*
X116050400Y-130005260D01*
X116050400Y-129691540D01*
X116051723Y-129678105D01*
X116053851Y-129671091D01*
X116061210Y-129657323D01*
X116070587Y-129634684D01*
X116075367Y-129610651D01*
X116075367Y-129586147D01*
X116070586Y-129562114D01*
X116061210Y-129539477D01*
X116053851Y-129525709D01*
X116051723Y-129518695D01*
X116050400Y-129505260D01*
X116050400Y-129191540D01*
X116051723Y-129178105D01*
X116053851Y-129171091D01*
X116061210Y-129157323D01*
X116070587Y-129134684D01*
X116075367Y-129110651D01*
X116075367Y-129086147D01*
X116070586Y-129062114D01*
X116061210Y-129039477D01*
X116053851Y-129025709D01*
X116051723Y-129018695D01*
X116050400Y-129005260D01*
X116050400Y-128691540D01*
X116051723Y-128678105D01*
X116053851Y-128671091D01*
X116061210Y-128657323D01*
X116070587Y-128634684D01*
X116075367Y-128610651D01*
X116075367Y-128586147D01*
X116070586Y-128562114D01*
X116061210Y-128539477D01*
X116053851Y-128525709D01*
X116051723Y-128518695D01*
X116050400Y-128505260D01*
X116050400Y-128191540D01*
X116051723Y-128178105D01*
X116053851Y-128171091D01*
X116061210Y-128157323D01*
X116070587Y-128134684D01*
X116075367Y-128110651D01*
X116075367Y-128086147D01*
X116070586Y-128062114D01*
X116061210Y-128039477D01*
X116053851Y-128025709D01*
X116051723Y-128018695D01*
X116050400Y-128005260D01*
X116050400Y-127691540D01*
X116051723Y-127678105D01*
X116053851Y-127671091D01*
X116061210Y-127657323D01*
X116070587Y-127634684D01*
X116075367Y-127610651D01*
X116075367Y-127586147D01*
X116070586Y-127562114D01*
X116061210Y-127539477D01*
X116053851Y-127525709D01*
X116051723Y-127518695D01*
X116050400Y-127505260D01*
X116050400Y-127191540D01*
X116051723Y-127178105D01*
X116053851Y-127171091D01*
X116061210Y-127157323D01*
X116070587Y-127134684D01*
X116075367Y-127110651D01*
X116075367Y-127086147D01*
X116070586Y-127062114D01*
X116061210Y-127039477D01*
X116053851Y-127025709D01*
X116051723Y-127018695D01*
X116050400Y-127005260D01*
X116050400Y-126691540D01*
X116051723Y-126678105D01*
X116053851Y-126671091D01*
X116061210Y-126657323D01*
X116070587Y-126634684D01*
X116075367Y-126610651D01*
X116075367Y-126586147D01*
X116070586Y-126562114D01*
X116061210Y-126539477D01*
X116053851Y-126525709D01*
X116051723Y-126518695D01*
X116050400Y-126505260D01*
X116050400Y-126191540D01*
X116051723Y-126178105D01*
X116053851Y-126171091D01*
X116061210Y-126157323D01*
X116070587Y-126134684D01*
X116075367Y-126110651D01*
X116075367Y-126086147D01*
X116070586Y-126062114D01*
X116061210Y-126039477D01*
X116053851Y-126025709D01*
X116051723Y-126018695D01*
X116050400Y-126005260D01*
X116050400Y-125691540D01*
X116051723Y-125678105D01*
X116053851Y-125671091D01*
X116061210Y-125657323D01*
X116070587Y-125634684D01*
X116075367Y-125610651D01*
X116075367Y-125586147D01*
X116070586Y-125562114D01*
X116061210Y-125539477D01*
X116053851Y-125525709D01*
X116051723Y-125518695D01*
X116050400Y-125505260D01*
X116050400Y-125191540D01*
X116051723Y-125178105D01*
X116053851Y-125171091D01*
X116061210Y-125157323D01*
X116070587Y-125134684D01*
X116075367Y-125110651D01*
X116075367Y-125086147D01*
X116070586Y-125062114D01*
X116061210Y-125039477D01*
X116053851Y-125025709D01*
X116051723Y-125018695D01*
X116050400Y-125005260D01*
X116050400Y-124691540D01*
X116051723Y-124678105D01*
X116053851Y-124671091D01*
X116061210Y-124657323D01*
X116070587Y-124634684D01*
X116075367Y-124610651D01*
X116075367Y-124586147D01*
X116070586Y-124562114D01*
X116061210Y-124539477D01*
X116053851Y-124525709D01*
X116051723Y-124518695D01*
X116050400Y-124505260D01*
X116050400Y-124191540D01*
X116051723Y-124178105D01*
X116053851Y-124171091D01*
X116061210Y-124157323D01*
X116070587Y-124134684D01*
X116075367Y-124110651D01*
X116075367Y-124086147D01*
X116070586Y-124062114D01*
X116061210Y-124039477D01*
X116053851Y-124025709D01*
X116051723Y-124018695D01*
X116050400Y-124005260D01*
X116050400Y-123691540D01*
X116051723Y-123678105D01*
X116053851Y-123671091D01*
X116061210Y-123657323D01*
X116070587Y-123634684D01*
X116075367Y-123610651D01*
X116075367Y-123586147D01*
X116070586Y-123562114D01*
X116061210Y-123539477D01*
X116053851Y-123525709D01*
X116051723Y-123518695D01*
X116050400Y-123505260D01*
X116050400Y-123191540D01*
X116051723Y-123178105D01*
X116053851Y-123171090D01*
X116057308Y-123164624D01*
X116061958Y-123158958D01*
X116067624Y-123154308D01*
X116074090Y-123150851D01*
X116081105Y-123148723D01*
X116094540Y-123147400D01*
X117658260Y-123147400D01*
X117671695Y-123148723D01*
X117671695Y-123148723D01*
G37*
G36*
X136578674Y-128714065D02*
G01*
X136616367Y-128725499D01*
X136651103Y-128744066D01*
X136681548Y-128769052D01*
X136706534Y-128799497D01*
X136725101Y-128834233D01*
X136736535Y-128871926D01*
X136741000Y-128917261D01*
X136741000Y-130003939D01*
X136736535Y-130049274D01*
X136725101Y-130086967D01*
X136706534Y-130121703D01*
X136681548Y-130152148D01*
X136651103Y-130177134D01*
X136616367Y-130195701D01*
X136578674Y-130207135D01*
X136533339Y-130211600D01*
X135696661Y-130211600D01*
X135651326Y-130207135D01*
X135613633Y-130195701D01*
X135578897Y-130177134D01*
X135548452Y-130152148D01*
X135523466Y-130121703D01*
X135504899Y-130086967D01*
X135493465Y-130049274D01*
X135489000Y-130003939D01*
X135489000Y-128917261D01*
X135493465Y-128871926D01*
X135504899Y-128834233D01*
X135523466Y-128799497D01*
X135548452Y-128769052D01*
X135578897Y-128744066D01*
X135613633Y-128725499D01*
X135651326Y-128714065D01*
X135696661Y-128709600D01*
X136533339Y-128709600D01*
X136578674Y-128714065D01*
X136578674Y-128714065D01*
G37*
G36*
X138628674Y-128714065D02*
G01*
X138666367Y-128725499D01*
X138701103Y-128744066D01*
X138731548Y-128769052D01*
X138756534Y-128799497D01*
X138775101Y-128834233D01*
X138786535Y-128871926D01*
X138791000Y-128917261D01*
X138791000Y-130003939D01*
X138786535Y-130049274D01*
X138775101Y-130086967D01*
X138756534Y-130121703D01*
X138731548Y-130152148D01*
X138701103Y-130177134D01*
X138666367Y-130195701D01*
X138628674Y-130207135D01*
X138583339Y-130211600D01*
X137746661Y-130211600D01*
X137701326Y-130207135D01*
X137663633Y-130195701D01*
X137628897Y-130177134D01*
X137598452Y-130152148D01*
X137573466Y-130121703D01*
X137554899Y-130086967D01*
X137543465Y-130049274D01*
X137539000Y-130003939D01*
X137539000Y-128917261D01*
X137543465Y-128871926D01*
X137554899Y-128834233D01*
X137573466Y-128799497D01*
X137598452Y-128769052D01*
X137628897Y-128744066D01*
X137663633Y-128725499D01*
X137701326Y-128714065D01*
X137746661Y-128709600D01*
X138583339Y-128709600D01*
X138628674Y-128714065D01*
X138628674Y-128714065D01*
G37*
G36*
X131849000Y-129909200D02*
G01*
X130447000Y-129909200D01*
X130447000Y-128707200D01*
X131849000Y-128707200D01*
X131849000Y-129909200D01*
X131849000Y-129909200D01*
G37*
G36*
X134149000Y-129909200D02*
G01*
X132747000Y-129909200D01*
X132747000Y-128707200D01*
X134149000Y-128707200D01*
X134149000Y-129909200D01*
X134149000Y-129909200D01*
G37*
G36*
X138628674Y-126758265D02*
G01*
X138666367Y-126769699D01*
X138701103Y-126788266D01*
X138731548Y-126813252D01*
X138756534Y-126843697D01*
X138775101Y-126878433D01*
X138786535Y-126916126D01*
X138791000Y-126961461D01*
X138791000Y-128048139D01*
X138786535Y-128093474D01*
X138775101Y-128131167D01*
X138756534Y-128165903D01*
X138731548Y-128196348D01*
X138701103Y-128221334D01*
X138666367Y-128239901D01*
X138628674Y-128251335D01*
X138583339Y-128255800D01*
X137746661Y-128255800D01*
X137701326Y-128251335D01*
X137663633Y-128239901D01*
X137628897Y-128221334D01*
X137598452Y-128196348D01*
X137573466Y-128165903D01*
X137554899Y-128131167D01*
X137543465Y-128093474D01*
X137539000Y-128048139D01*
X137539000Y-126961461D01*
X137543465Y-126916126D01*
X137554899Y-126878433D01*
X137573466Y-126843697D01*
X137598452Y-126813252D01*
X137628897Y-126788266D01*
X137663633Y-126769699D01*
X137701326Y-126758265D01*
X137746661Y-126753800D01*
X138583339Y-126753800D01*
X138628674Y-126758265D01*
X138628674Y-126758265D01*
G37*
G36*
X136578674Y-126758265D02*
G01*
X136616367Y-126769699D01*
X136651103Y-126788266D01*
X136681548Y-126813252D01*
X136706534Y-126843697D01*
X136725101Y-126878433D01*
X136736535Y-126916126D01*
X136741000Y-126961461D01*
X136741000Y-128048139D01*
X136736535Y-128093474D01*
X136725101Y-128131167D01*
X136706534Y-128165903D01*
X136681548Y-128196348D01*
X136651103Y-128221334D01*
X136616367Y-128239901D01*
X136578674Y-128251335D01*
X136533339Y-128255800D01*
X135696661Y-128255800D01*
X135651326Y-128251335D01*
X135613633Y-128239901D01*
X135578897Y-128221334D01*
X135548452Y-128196348D01*
X135523466Y-128165903D01*
X135504899Y-128131167D01*
X135493465Y-128093474D01*
X135489000Y-128048139D01*
X135489000Y-126961461D01*
X135493465Y-126916126D01*
X135504899Y-126878433D01*
X135523466Y-126843697D01*
X135548452Y-126813252D01*
X135578897Y-126788266D01*
X135613633Y-126769699D01*
X135651326Y-126758265D01*
X135696661Y-126753800D01*
X136533339Y-126753800D01*
X136578674Y-126758265D01*
X136578674Y-126758265D01*
G37*
G36*
X131849000Y-128109200D02*
G01*
X130447000Y-128109200D01*
X130447000Y-126907200D01*
X131849000Y-126907200D01*
X131849000Y-128109200D01*
X131849000Y-128109200D01*
G37*
G36*
X134149000Y-128109200D02*
G01*
X132747000Y-128109200D01*
X132747000Y-126907200D01*
X134149000Y-126907200D01*
X134149000Y-128109200D01*
X134149000Y-128109200D01*
G37*
G36*
X135865474Y-124005665D02*
G01*
X135903167Y-124017099D01*
X135937903Y-124035666D01*
X135968348Y-124060652D01*
X135993334Y-124091097D01*
X136011901Y-124125833D01*
X136023335Y-124163526D01*
X136027800Y-124208861D01*
X136027800Y-125045539D01*
X136023335Y-125090874D01*
X136011901Y-125128567D01*
X135993334Y-125163303D01*
X135968348Y-125193748D01*
X135937903Y-125218734D01*
X135903167Y-125237301D01*
X135865474Y-125248735D01*
X135820139Y-125253200D01*
X134733461Y-125253200D01*
X134688126Y-125248735D01*
X134650433Y-125237301D01*
X134615697Y-125218734D01*
X134585252Y-125193748D01*
X134560266Y-125163303D01*
X134541699Y-125128567D01*
X134530265Y-125090874D01*
X134525800Y-125045539D01*
X134525800Y-124208861D01*
X134530265Y-124163526D01*
X134541699Y-124125833D01*
X134560266Y-124091097D01*
X134585252Y-124060652D01*
X134615697Y-124035666D01*
X134650433Y-124017099D01*
X134688126Y-124005665D01*
X134733461Y-124001200D01*
X135820139Y-124001200D01*
X135865474Y-124005665D01*
X135865474Y-124005665D01*
G37*
G36*
X133935074Y-123996665D02*
G01*
X133972767Y-124008099D01*
X134007503Y-124026666D01*
X134037948Y-124051652D01*
X134062934Y-124082097D01*
X134081501Y-124116833D01*
X134092935Y-124154526D01*
X134097400Y-124199861D01*
X134097400Y-125036539D01*
X134092935Y-125081874D01*
X134081501Y-125119567D01*
X134062934Y-125154303D01*
X134037948Y-125184748D01*
X134007503Y-125209734D01*
X133972767Y-125228301D01*
X133935074Y-125239735D01*
X133889739Y-125244200D01*
X132803061Y-125244200D01*
X132757726Y-125239735D01*
X132720033Y-125228301D01*
X132685297Y-125209734D01*
X132654852Y-125184748D01*
X132629866Y-125154303D01*
X132611299Y-125119567D01*
X132599865Y-125081874D01*
X132595400Y-125036539D01*
X132595400Y-124199861D01*
X132599865Y-124154526D01*
X132611299Y-124116833D01*
X132629866Y-124082097D01*
X132654852Y-124051652D01*
X132685297Y-124026666D01*
X132720033Y-124008099D01*
X132757726Y-123996665D01*
X132803061Y-123992200D01*
X133889739Y-123992200D01*
X133935074Y-123996665D01*
X133935074Y-123996665D01*
G37*
G36*
X131347999Y-121519154D02*
G01*
X131360250Y-121519756D01*
X131378669Y-121519756D01*
X131400949Y-121521950D01*
X131485033Y-121538676D01*
X131506460Y-121545176D01*
X131585658Y-121577980D01*
X131591103Y-121580891D01*
X131591109Y-121580893D01*
X131599969Y-121585629D01*
X131599973Y-121585632D01*
X131605414Y-121588540D01*
X131676699Y-121636171D01*
X131694004Y-121650372D01*
X131754628Y-121710996D01*
X131768829Y-121728301D01*
X131816460Y-121799586D01*
X131819368Y-121805027D01*
X131819371Y-121805031D01*
X131824107Y-121813891D01*
X131824109Y-121813897D01*
X131827020Y-121819342D01*
X131859824Y-121898540D01*
X131866324Y-121919967D01*
X131883050Y-122004051D01*
X131885244Y-122026331D01*
X131885244Y-122044750D01*
X131885846Y-122057001D01*
X131887652Y-122075339D01*
X131887652Y-122563060D01*
X131886063Y-122579199D01*
X131883148Y-122588808D01*
X131878410Y-122597672D01*
X131872037Y-122605437D01*
X131859594Y-122615648D01*
X131849225Y-122622578D01*
X131831898Y-122639905D01*
X131818285Y-122660280D01*
X131808909Y-122682920D01*
X131804129Y-122706953D01*
X131804130Y-122731457D01*
X131808912Y-122755490D01*
X131818290Y-122778129D01*
X131831905Y-122798502D01*
X131849232Y-122815829D01*
X131859602Y-122822758D01*
X131872037Y-122832963D01*
X131878410Y-122840728D01*
X131883148Y-122849592D01*
X131886063Y-122859201D01*
X131887652Y-122875340D01*
X131887652Y-123363062D01*
X131885846Y-123381399D01*
X131885244Y-123393650D01*
X131885244Y-123412069D01*
X131883050Y-123434349D01*
X131866324Y-123518433D01*
X131859824Y-123539860D01*
X131827020Y-123619058D01*
X131824109Y-123624503D01*
X131824107Y-123624509D01*
X131819371Y-123633369D01*
X131819368Y-123633373D01*
X131816460Y-123638814D01*
X131768829Y-123710099D01*
X131754628Y-123727404D01*
X131694004Y-123788028D01*
X131676699Y-123802229D01*
X131605414Y-123849860D01*
X131599973Y-123852768D01*
X131599969Y-123852771D01*
X131591109Y-123857507D01*
X131591103Y-123857509D01*
X131585658Y-123860420D01*
X131506460Y-123893224D01*
X131485033Y-123899724D01*
X131400949Y-123916450D01*
X131378669Y-123918644D01*
X131360250Y-123918644D01*
X131347999Y-123919246D01*
X131329662Y-123921052D01*
X130841938Y-123921052D01*
X130823601Y-123919246D01*
X130811350Y-123918644D01*
X130792931Y-123918644D01*
X130770651Y-123916450D01*
X130686567Y-123899724D01*
X130665140Y-123893224D01*
X130585942Y-123860420D01*
X130580497Y-123857509D01*
X130580491Y-123857507D01*
X130571631Y-123852771D01*
X130571627Y-123852768D01*
X130566186Y-123849860D01*
X130494901Y-123802229D01*
X130477596Y-123788028D01*
X130416972Y-123727404D01*
X130402771Y-123710099D01*
X130355140Y-123638814D01*
X130352232Y-123633373D01*
X130352229Y-123633369D01*
X130347493Y-123624509D01*
X130347491Y-123624503D01*
X130344580Y-123619058D01*
X130311776Y-123539860D01*
X130305276Y-123518433D01*
X130288550Y-123434349D01*
X130286356Y-123412069D01*
X130286356Y-123393650D01*
X130285754Y-123381399D01*
X130283948Y-123363062D01*
X130283948Y-122875340D01*
X130285537Y-122859201D01*
X130288452Y-122849592D01*
X130293190Y-122840728D01*
X130299563Y-122832963D01*
X130312006Y-122822752D01*
X130322375Y-122815822D01*
X130339702Y-122798495D01*
X130353315Y-122778120D01*
X130362691Y-122755480D01*
X130367471Y-122731447D01*
X130367470Y-122706943D01*
X130362688Y-122682910D01*
X130353310Y-122660271D01*
X130339695Y-122639898D01*
X130322368Y-122622571D01*
X130311998Y-122615642D01*
X130299563Y-122605437D01*
X130293190Y-122597672D01*
X130288452Y-122588808D01*
X130285537Y-122579199D01*
X130283948Y-122563060D01*
X130283948Y-122075339D01*
X130285754Y-122057001D01*
X130286356Y-122044750D01*
X130286356Y-122026331D01*
X130288550Y-122004051D01*
X130305276Y-121919967D01*
X130311776Y-121898540D01*
X130344580Y-121819342D01*
X130347491Y-121813897D01*
X130347493Y-121813891D01*
X130352229Y-121805031D01*
X130352232Y-121805027D01*
X130355140Y-121799586D01*
X130402771Y-121728301D01*
X130416972Y-121710996D01*
X130477596Y-121650372D01*
X130494901Y-121636171D01*
X130566186Y-121588540D01*
X130571627Y-121585632D01*
X130571631Y-121585629D01*
X130580491Y-121580893D01*
X130580497Y-121580891D01*
X130585942Y-121577980D01*
X130665140Y-121545176D01*
X130686567Y-121538676D01*
X130770651Y-121521950D01*
X130792931Y-121519756D01*
X130811350Y-121519756D01*
X130823601Y-121519154D01*
X130841939Y-121517348D01*
X131329661Y-121517348D01*
X131347999Y-121519154D01*
X131347999Y-121519154D01*
G37*
G36*
X135865474Y-121955665D02*
G01*
X135903167Y-121967099D01*
X135937903Y-121985666D01*
X135968348Y-122010652D01*
X135993334Y-122041097D01*
X136011901Y-122075833D01*
X136023335Y-122113526D01*
X136027800Y-122158861D01*
X136027800Y-122995539D01*
X136023335Y-123040874D01*
X136011901Y-123078567D01*
X135993334Y-123113303D01*
X135968348Y-123143748D01*
X135937903Y-123168734D01*
X135903167Y-123187301D01*
X135865474Y-123198735D01*
X135820139Y-123203200D01*
X134733461Y-123203200D01*
X134688126Y-123198735D01*
X134650433Y-123187301D01*
X134615697Y-123168734D01*
X134585252Y-123143748D01*
X134560266Y-123113303D01*
X134541699Y-123078567D01*
X134530265Y-123040874D01*
X134525800Y-122995539D01*
X134525800Y-122158861D01*
X134530265Y-122113526D01*
X134541699Y-122075833D01*
X134560266Y-122041097D01*
X134585252Y-122010652D01*
X134615697Y-121985666D01*
X134650433Y-121967099D01*
X134688126Y-121955665D01*
X134733461Y-121951200D01*
X135820139Y-121951200D01*
X135865474Y-121955665D01*
X135865474Y-121955665D01*
G37*
G36*
X133935074Y-121946665D02*
G01*
X133972767Y-121958099D01*
X134007503Y-121976666D01*
X134037948Y-122001652D01*
X134062934Y-122032097D01*
X134081501Y-122066833D01*
X134092935Y-122104526D01*
X134097400Y-122149861D01*
X134097400Y-122986539D01*
X134092935Y-123031874D01*
X134081501Y-123069567D01*
X134062934Y-123104303D01*
X134037948Y-123134748D01*
X134007503Y-123159734D01*
X133972767Y-123178301D01*
X133935074Y-123189735D01*
X133889739Y-123194200D01*
X132803061Y-123194200D01*
X132757726Y-123189735D01*
X132720033Y-123178301D01*
X132685297Y-123159734D01*
X132654852Y-123134748D01*
X132629866Y-123104303D01*
X132611299Y-123069567D01*
X132599865Y-123031874D01*
X132595400Y-122986539D01*
X132595400Y-122149861D01*
X132599865Y-122104526D01*
X132611299Y-122066833D01*
X132629866Y-122032097D01*
X132654852Y-122001652D01*
X132685297Y-121976666D01*
X132720033Y-121958099D01*
X132757726Y-121946665D01*
X132803061Y-121942200D01*
X133889739Y-121942200D01*
X133935074Y-121946665D01*
X133935074Y-121946665D01*
G37*
G36*
X146585937Y-120590252D02*
G01*
X146654827Y-120597037D01*
X146824666Y-120648557D01*
X146981191Y-120732222D01*
X146988793Y-120738461D01*
X147118386Y-120844814D01*
X147201648Y-120946271D01*
X147230978Y-120982009D01*
X147314643Y-121138534D01*
X147366163Y-121308373D01*
X147383559Y-121485000D01*
X147366163Y-121661627D01*
X147314643Y-121831466D01*
X147230978Y-121987991D01*
X147212757Y-122010193D01*
X147118386Y-122125186D01*
X147021454Y-122204735D01*
X146981191Y-122237778D01*
X146824666Y-122321443D01*
X146654827Y-122372963D01*
X146588643Y-122379481D01*
X146522460Y-122386000D01*
X146433940Y-122386000D01*
X146367757Y-122379481D01*
X146301573Y-122372963D01*
X146131734Y-122321443D01*
X145975209Y-122237778D01*
X145934946Y-122204735D01*
X145838014Y-122125186D01*
X145743643Y-122010193D01*
X145725422Y-121987991D01*
X145641757Y-121831466D01*
X145590237Y-121661627D01*
X145572841Y-121485000D01*
X145590237Y-121308373D01*
X145641757Y-121138534D01*
X145725422Y-120982009D01*
X145754752Y-120946271D01*
X145838014Y-120844814D01*
X145967607Y-120738461D01*
X145975209Y-120732222D01*
X146131734Y-120648557D01*
X146301573Y-120597037D01*
X146370463Y-120590252D01*
X146433940Y-120584000D01*
X146522460Y-120584000D01*
X146585937Y-120590252D01*
X146585937Y-120590252D01*
G37*
G36*
X150207737Y-120590252D02*
G01*
X150276627Y-120597037D01*
X150446466Y-120648557D01*
X150602991Y-120732222D01*
X150610593Y-120738461D01*
X150740186Y-120844814D01*
X150823448Y-120946271D01*
X150852778Y-120982009D01*
X150936443Y-121138534D01*
X150987963Y-121308373D01*
X151005359Y-121485000D01*
X150987963Y-121661627D01*
X150936443Y-121831466D01*
X150852778Y-121987991D01*
X150834557Y-122010193D01*
X150740186Y-122125186D01*
X150643254Y-122204735D01*
X150602991Y-122237778D01*
X150446466Y-122321443D01*
X150276627Y-122372963D01*
X150210443Y-122379481D01*
X150144260Y-122386000D01*
X150055740Y-122386000D01*
X149989557Y-122379481D01*
X149923373Y-122372963D01*
X149753534Y-122321443D01*
X149597009Y-122237778D01*
X149556746Y-122204735D01*
X149459814Y-122125186D01*
X149365443Y-122010193D01*
X149347222Y-121987991D01*
X149263557Y-121831466D01*
X149212037Y-121661627D01*
X149194641Y-121485000D01*
X149212037Y-121308373D01*
X149263557Y-121138534D01*
X149347222Y-120982009D01*
X149376552Y-120946271D01*
X149459814Y-120844814D01*
X149589407Y-120738461D01*
X149597009Y-120732222D01*
X149753534Y-120648557D01*
X149923373Y-120597037D01*
X149992263Y-120590252D01*
X150055740Y-120584000D01*
X150144260Y-120584000D01*
X150207737Y-120590252D01*
X150207737Y-120590252D01*
G37*
G36*
X118971695Y-120598723D02*
G01*
X118978709Y-120600851D01*
X118992477Y-120608210D01*
X119015116Y-120617587D01*
X119039149Y-120622367D01*
X119063653Y-120622367D01*
X119087686Y-120617586D01*
X119110323Y-120608210D01*
X119124091Y-120600851D01*
X119131105Y-120598723D01*
X119144540Y-120597400D01*
X119458260Y-120597400D01*
X119471695Y-120598723D01*
X119478709Y-120600851D01*
X119492477Y-120608210D01*
X119515116Y-120617587D01*
X119539149Y-120622367D01*
X119563653Y-120622367D01*
X119587686Y-120617586D01*
X119610323Y-120608210D01*
X119624091Y-120600851D01*
X119631105Y-120598723D01*
X119644540Y-120597400D01*
X119958260Y-120597400D01*
X119971695Y-120598723D01*
X119978709Y-120600851D01*
X119992477Y-120608210D01*
X120015116Y-120617587D01*
X120039149Y-120622367D01*
X120063653Y-120622367D01*
X120087686Y-120617586D01*
X120110323Y-120608210D01*
X120124091Y-120600851D01*
X120131105Y-120598723D01*
X120144540Y-120597400D01*
X120458260Y-120597400D01*
X120471695Y-120598723D01*
X120478709Y-120600851D01*
X120492477Y-120608210D01*
X120515116Y-120617587D01*
X120539149Y-120622367D01*
X120563653Y-120622367D01*
X120587686Y-120617586D01*
X120610323Y-120608210D01*
X120624091Y-120600851D01*
X120631105Y-120598723D01*
X120644540Y-120597400D01*
X120958260Y-120597400D01*
X120971695Y-120598723D01*
X120978709Y-120600851D01*
X120992477Y-120608210D01*
X121015116Y-120617587D01*
X121039149Y-120622367D01*
X121063653Y-120622367D01*
X121087686Y-120617586D01*
X121110323Y-120608210D01*
X121124091Y-120600851D01*
X121131105Y-120598723D01*
X121144540Y-120597400D01*
X121458260Y-120597400D01*
X121471695Y-120598723D01*
X121478709Y-120600851D01*
X121492477Y-120608210D01*
X121515116Y-120617587D01*
X121539149Y-120622367D01*
X121563653Y-120622367D01*
X121587686Y-120617586D01*
X121610323Y-120608210D01*
X121624091Y-120600851D01*
X121631105Y-120598723D01*
X121644540Y-120597400D01*
X121958260Y-120597400D01*
X121971695Y-120598723D01*
X121978709Y-120600851D01*
X121992477Y-120608210D01*
X122015116Y-120617587D01*
X122039149Y-120622367D01*
X122063653Y-120622367D01*
X122087686Y-120617586D01*
X122110323Y-120608210D01*
X122124091Y-120600851D01*
X122131105Y-120598723D01*
X122144540Y-120597400D01*
X122458260Y-120597400D01*
X122471695Y-120598723D01*
X122478709Y-120600851D01*
X122492477Y-120608210D01*
X122515116Y-120617587D01*
X122539149Y-120622367D01*
X122563653Y-120622367D01*
X122587686Y-120617586D01*
X122610323Y-120608210D01*
X122624091Y-120600851D01*
X122631105Y-120598723D01*
X122644540Y-120597400D01*
X122958260Y-120597400D01*
X122971695Y-120598723D01*
X122978709Y-120600851D01*
X122992477Y-120608210D01*
X123015116Y-120617587D01*
X123039149Y-120622367D01*
X123063653Y-120622367D01*
X123087686Y-120617586D01*
X123110323Y-120608210D01*
X123124091Y-120600851D01*
X123131105Y-120598723D01*
X123144540Y-120597400D01*
X123458260Y-120597400D01*
X123471695Y-120598723D01*
X123478709Y-120600851D01*
X123492477Y-120608210D01*
X123515116Y-120617587D01*
X123539149Y-120622367D01*
X123563653Y-120622367D01*
X123587686Y-120617586D01*
X123610323Y-120608210D01*
X123624091Y-120600851D01*
X123631105Y-120598723D01*
X123644540Y-120597400D01*
X123958260Y-120597400D01*
X123971695Y-120598723D01*
X123978709Y-120600851D01*
X123992477Y-120608210D01*
X124015116Y-120617587D01*
X124039149Y-120622367D01*
X124063653Y-120622367D01*
X124087686Y-120617586D01*
X124110323Y-120608210D01*
X124124091Y-120600851D01*
X124131105Y-120598723D01*
X124144540Y-120597400D01*
X124458260Y-120597400D01*
X124471695Y-120598723D01*
X124478709Y-120600851D01*
X124492477Y-120608210D01*
X124515116Y-120617587D01*
X124539149Y-120622367D01*
X124563653Y-120622367D01*
X124587686Y-120617586D01*
X124610323Y-120608210D01*
X124624091Y-120600851D01*
X124631105Y-120598723D01*
X124644540Y-120597400D01*
X124958260Y-120597400D01*
X124971695Y-120598723D01*
X124978709Y-120600851D01*
X124992477Y-120608210D01*
X125015116Y-120617587D01*
X125039149Y-120622367D01*
X125063653Y-120622367D01*
X125087686Y-120617586D01*
X125110323Y-120608210D01*
X125124091Y-120600851D01*
X125131105Y-120598723D01*
X125144540Y-120597400D01*
X125458260Y-120597400D01*
X125471695Y-120598723D01*
X125478709Y-120600851D01*
X125492477Y-120608210D01*
X125515116Y-120617587D01*
X125539149Y-120622367D01*
X125563653Y-120622367D01*
X125587686Y-120617586D01*
X125610323Y-120608210D01*
X125624091Y-120600851D01*
X125631105Y-120598723D01*
X125644540Y-120597400D01*
X125958260Y-120597400D01*
X125971695Y-120598723D01*
X125978709Y-120600851D01*
X125992477Y-120608210D01*
X126015116Y-120617587D01*
X126039149Y-120622367D01*
X126063653Y-120622367D01*
X126087686Y-120617586D01*
X126110323Y-120608210D01*
X126124091Y-120600851D01*
X126131105Y-120598723D01*
X126144540Y-120597400D01*
X126458260Y-120597400D01*
X126471695Y-120598723D01*
X126478710Y-120600851D01*
X126485176Y-120604308D01*
X126490842Y-120608958D01*
X126495492Y-120614624D01*
X126498949Y-120621090D01*
X126501077Y-120628105D01*
X126502400Y-120641540D01*
X126502400Y-122205260D01*
X126501077Y-122218695D01*
X126498949Y-122225710D01*
X126495492Y-122232176D01*
X126490842Y-122237842D01*
X126485176Y-122242492D01*
X126478710Y-122245949D01*
X126471695Y-122248077D01*
X126458260Y-122249400D01*
X126144540Y-122249400D01*
X126131105Y-122248077D01*
X126124091Y-122245949D01*
X126110323Y-122238590D01*
X126087684Y-122229213D01*
X126063651Y-122224433D01*
X126039147Y-122224433D01*
X126015114Y-122229214D01*
X125992477Y-122238590D01*
X125978709Y-122245949D01*
X125971695Y-122248077D01*
X125958260Y-122249400D01*
X125644540Y-122249400D01*
X125631105Y-122248077D01*
X125624091Y-122245949D01*
X125610323Y-122238590D01*
X125587684Y-122229213D01*
X125563651Y-122224433D01*
X125539147Y-122224433D01*
X125515114Y-122229214D01*
X125492477Y-122238590D01*
X125478709Y-122245949D01*
X125471695Y-122248077D01*
X125458260Y-122249400D01*
X125144540Y-122249400D01*
X125131105Y-122248077D01*
X125124091Y-122245949D01*
X125110323Y-122238590D01*
X125087684Y-122229213D01*
X125063651Y-122224433D01*
X125039147Y-122224433D01*
X125015114Y-122229214D01*
X124992477Y-122238590D01*
X124978709Y-122245949D01*
X124971695Y-122248077D01*
X124958260Y-122249400D01*
X124644540Y-122249400D01*
X124631105Y-122248077D01*
X124624091Y-122245949D01*
X124610323Y-122238590D01*
X124587684Y-122229213D01*
X124563651Y-122224433D01*
X124539147Y-122224433D01*
X124515114Y-122229214D01*
X124492477Y-122238590D01*
X124478709Y-122245949D01*
X124471695Y-122248077D01*
X124458260Y-122249400D01*
X124144540Y-122249400D01*
X124131105Y-122248077D01*
X124124091Y-122245949D01*
X124110323Y-122238590D01*
X124087684Y-122229213D01*
X124063651Y-122224433D01*
X124039147Y-122224433D01*
X124015114Y-122229214D01*
X123992477Y-122238590D01*
X123978709Y-122245949D01*
X123971695Y-122248077D01*
X123958260Y-122249400D01*
X123644540Y-122249400D01*
X123631105Y-122248077D01*
X123624091Y-122245949D01*
X123610323Y-122238590D01*
X123587684Y-122229213D01*
X123563651Y-122224433D01*
X123539147Y-122224433D01*
X123515114Y-122229214D01*
X123492477Y-122238590D01*
X123478709Y-122245949D01*
X123471695Y-122248077D01*
X123458260Y-122249400D01*
X123144540Y-122249400D01*
X123131105Y-122248077D01*
X123124091Y-122245949D01*
X123110323Y-122238590D01*
X123087684Y-122229213D01*
X123063651Y-122224433D01*
X123039147Y-122224433D01*
X123015114Y-122229214D01*
X122992477Y-122238590D01*
X122978709Y-122245949D01*
X122971695Y-122248077D01*
X122958260Y-122249400D01*
X122644540Y-122249400D01*
X122631105Y-122248077D01*
X122624091Y-122245949D01*
X122610323Y-122238590D01*
X122587684Y-122229213D01*
X122563651Y-122224433D01*
X122539147Y-122224433D01*
X122515114Y-122229214D01*
X122492477Y-122238590D01*
X122478709Y-122245949D01*
X122471695Y-122248077D01*
X122458260Y-122249400D01*
X122144540Y-122249400D01*
X122131105Y-122248077D01*
X122124091Y-122245949D01*
X122110323Y-122238590D01*
X122087684Y-122229213D01*
X122063651Y-122224433D01*
X122039147Y-122224433D01*
X122015114Y-122229214D01*
X121992477Y-122238590D01*
X121978709Y-122245949D01*
X121971695Y-122248077D01*
X121958260Y-122249400D01*
X121644540Y-122249400D01*
X121631105Y-122248077D01*
X121624091Y-122245949D01*
X121610323Y-122238590D01*
X121587684Y-122229213D01*
X121563651Y-122224433D01*
X121539147Y-122224433D01*
X121515114Y-122229214D01*
X121492477Y-122238590D01*
X121478709Y-122245949D01*
X121471695Y-122248077D01*
X121458260Y-122249400D01*
X121144540Y-122249400D01*
X121131105Y-122248077D01*
X121124091Y-122245949D01*
X121110323Y-122238590D01*
X121087684Y-122229213D01*
X121063651Y-122224433D01*
X121039147Y-122224433D01*
X121015114Y-122229214D01*
X120992477Y-122238590D01*
X120978709Y-122245949D01*
X120971695Y-122248077D01*
X120958260Y-122249400D01*
X120644540Y-122249400D01*
X120631105Y-122248077D01*
X120624091Y-122245949D01*
X120610323Y-122238590D01*
X120587684Y-122229213D01*
X120563651Y-122224433D01*
X120539147Y-122224433D01*
X120515114Y-122229214D01*
X120492477Y-122238590D01*
X120478709Y-122245949D01*
X120471695Y-122248077D01*
X120458260Y-122249400D01*
X120144540Y-122249400D01*
X120131105Y-122248077D01*
X120124091Y-122245949D01*
X120110323Y-122238590D01*
X120087684Y-122229213D01*
X120063651Y-122224433D01*
X120039147Y-122224433D01*
X120015114Y-122229214D01*
X119992477Y-122238590D01*
X119978709Y-122245949D01*
X119971695Y-122248077D01*
X119958260Y-122249400D01*
X119644540Y-122249400D01*
X119631105Y-122248077D01*
X119624091Y-122245949D01*
X119610323Y-122238590D01*
X119587684Y-122229213D01*
X119563651Y-122224433D01*
X119539147Y-122224433D01*
X119515114Y-122229214D01*
X119492477Y-122238590D01*
X119478709Y-122245949D01*
X119471695Y-122248077D01*
X119458260Y-122249400D01*
X119144540Y-122249400D01*
X119131105Y-122248077D01*
X119124091Y-122245949D01*
X119110323Y-122238590D01*
X119087684Y-122229213D01*
X119063651Y-122224433D01*
X119039147Y-122224433D01*
X119015114Y-122229214D01*
X118992477Y-122238590D01*
X118978709Y-122245949D01*
X118971695Y-122248077D01*
X118958260Y-122249400D01*
X118644540Y-122249400D01*
X118631105Y-122248077D01*
X118624090Y-122245949D01*
X118617624Y-122242492D01*
X118611958Y-122237842D01*
X118607308Y-122232176D01*
X118603851Y-122225710D01*
X118601723Y-122218695D01*
X118600400Y-122205260D01*
X118600400Y-120641540D01*
X118601723Y-120628105D01*
X118603851Y-120621090D01*
X118607308Y-120614624D01*
X118611958Y-120608958D01*
X118617624Y-120604308D01*
X118624090Y-120600851D01*
X118631105Y-120598723D01*
X118644540Y-120597400D01*
X118958260Y-120597400D01*
X118971695Y-120598723D01*
X118971695Y-120598723D01*
G37*
G36*
X116258674Y-120535265D02*
G01*
X116296367Y-120546699D01*
X116331103Y-120565266D01*
X116361548Y-120590252D01*
X116386534Y-120620697D01*
X116405101Y-120655433D01*
X116416535Y-120693126D01*
X116421000Y-120738461D01*
X116421000Y-121825139D01*
X116416535Y-121870474D01*
X116405101Y-121908167D01*
X116386534Y-121942903D01*
X116361548Y-121973348D01*
X116331103Y-121998334D01*
X116296367Y-122016901D01*
X116258674Y-122028335D01*
X116213339Y-122032800D01*
X115376661Y-122032800D01*
X115331326Y-122028335D01*
X115293633Y-122016901D01*
X115258897Y-121998334D01*
X115228452Y-121973348D01*
X115203466Y-121942903D01*
X115184899Y-121908167D01*
X115173465Y-121870474D01*
X115169000Y-121825139D01*
X115169000Y-120738461D01*
X115173465Y-120693126D01*
X115184899Y-120655433D01*
X115203466Y-120620697D01*
X115228452Y-120590252D01*
X115258897Y-120565266D01*
X115293633Y-120546699D01*
X115331326Y-120535265D01*
X115376661Y-120530800D01*
X116213339Y-120530800D01*
X116258674Y-120535265D01*
X116258674Y-120535265D01*
G37*
G36*
X114208674Y-120535265D02*
G01*
X114246367Y-120546699D01*
X114281103Y-120565266D01*
X114311548Y-120590252D01*
X114336534Y-120620697D01*
X114355101Y-120655433D01*
X114366535Y-120693126D01*
X114371000Y-120738461D01*
X114371000Y-121825139D01*
X114366535Y-121870474D01*
X114355101Y-121908167D01*
X114336534Y-121942903D01*
X114311548Y-121973348D01*
X114281103Y-121998334D01*
X114246367Y-122016901D01*
X114208674Y-122028335D01*
X114163339Y-122032800D01*
X113326661Y-122032800D01*
X113281326Y-122028335D01*
X113243633Y-122016901D01*
X113208897Y-121998334D01*
X113178452Y-121973348D01*
X113153466Y-121942903D01*
X113134899Y-121908167D01*
X113123465Y-121870474D01*
X113119000Y-121825139D01*
X113119000Y-120738461D01*
X113123465Y-120693126D01*
X113134899Y-120655433D01*
X113153466Y-120620697D01*
X113178452Y-120590252D01*
X113208897Y-120565266D01*
X113243633Y-120546699D01*
X113281326Y-120535265D01*
X113326661Y-120530800D01*
X114163339Y-120530800D01*
X114208674Y-120535265D01*
X114208674Y-120535265D01*
G37*
G36*
X116276674Y-118528665D02*
G01*
X116314367Y-118540099D01*
X116349103Y-118558666D01*
X116379548Y-118583652D01*
X116404534Y-118614097D01*
X116423101Y-118648833D01*
X116434535Y-118686526D01*
X116439000Y-118731861D01*
X116439000Y-119818539D01*
X116434535Y-119863874D01*
X116423101Y-119901567D01*
X116404534Y-119936303D01*
X116379548Y-119966748D01*
X116349103Y-119991734D01*
X116314367Y-120010301D01*
X116276674Y-120021735D01*
X116231339Y-120026200D01*
X115394661Y-120026200D01*
X115349326Y-120021735D01*
X115311633Y-120010301D01*
X115276897Y-119991734D01*
X115246452Y-119966748D01*
X115221466Y-119936303D01*
X115202899Y-119901567D01*
X115191465Y-119863874D01*
X115187000Y-119818539D01*
X115187000Y-118731861D01*
X115191465Y-118686526D01*
X115202899Y-118648833D01*
X115221466Y-118614097D01*
X115246452Y-118583652D01*
X115276897Y-118558666D01*
X115311633Y-118540099D01*
X115349326Y-118528665D01*
X115394661Y-118524200D01*
X116231339Y-118524200D01*
X116276674Y-118528665D01*
X116276674Y-118528665D01*
G37*
G36*
X114226674Y-118528665D02*
G01*
X114264367Y-118540099D01*
X114299103Y-118558666D01*
X114329548Y-118583652D01*
X114354534Y-118614097D01*
X114373101Y-118648833D01*
X114384535Y-118686526D01*
X114389000Y-118731861D01*
X114389000Y-119818539D01*
X114384535Y-119863874D01*
X114373101Y-119901567D01*
X114354534Y-119936303D01*
X114329548Y-119966748D01*
X114299103Y-119991734D01*
X114264367Y-120010301D01*
X114226674Y-120021735D01*
X114181339Y-120026200D01*
X113344661Y-120026200D01*
X113299326Y-120021735D01*
X113261633Y-120010301D01*
X113226897Y-119991734D01*
X113196452Y-119966748D01*
X113171466Y-119936303D01*
X113152899Y-119901567D01*
X113141465Y-119863874D01*
X113137000Y-119818539D01*
X113137000Y-118731861D01*
X113141465Y-118686526D01*
X113152899Y-118648833D01*
X113171466Y-118614097D01*
X113196452Y-118583652D01*
X113226897Y-118558666D01*
X113261633Y-118540099D01*
X113299326Y-118528665D01*
X113344661Y-118524200D01*
X114181339Y-118524200D01*
X114226674Y-118528665D01*
X114226674Y-118528665D01*
G37*
G36*
X150210443Y-118050519D02*
G01*
X150276627Y-118057037D01*
X150446466Y-118108557D01*
X150602991Y-118192222D01*
X150638729Y-118221552D01*
X150740186Y-118304814D01*
X150804447Y-118383118D01*
X150852778Y-118442009D01*
X150852779Y-118442011D01*
X150896992Y-118524726D01*
X150936443Y-118598534D01*
X150987963Y-118768373D01*
X151005359Y-118945000D01*
X150987963Y-119121627D01*
X150936443Y-119291466D01*
X150852778Y-119447991D01*
X150849427Y-119452074D01*
X150740186Y-119585186D01*
X150638729Y-119668448D01*
X150602991Y-119697778D01*
X150446466Y-119781443D01*
X150276627Y-119832963D01*
X150210443Y-119839481D01*
X150144260Y-119846000D01*
X150055740Y-119846000D01*
X149989557Y-119839481D01*
X149923373Y-119832963D01*
X149753534Y-119781443D01*
X149597009Y-119697778D01*
X149561271Y-119668448D01*
X149459814Y-119585186D01*
X149350573Y-119452074D01*
X149347222Y-119447991D01*
X149263557Y-119291466D01*
X149212037Y-119121627D01*
X149194641Y-118945000D01*
X149212037Y-118768373D01*
X149263557Y-118598534D01*
X149303009Y-118524726D01*
X149347221Y-118442011D01*
X149347222Y-118442009D01*
X149395553Y-118383118D01*
X149459814Y-118304814D01*
X149561271Y-118221552D01*
X149597009Y-118192222D01*
X149753534Y-118108557D01*
X149923373Y-118057037D01*
X149989557Y-118050519D01*
X150055740Y-118044000D01*
X150144260Y-118044000D01*
X150210443Y-118050519D01*
X150210443Y-118050519D01*
G37*
G36*
X146588643Y-118050519D02*
G01*
X146654827Y-118057037D01*
X146824666Y-118108557D01*
X146981191Y-118192222D01*
X147016929Y-118221552D01*
X147118386Y-118304814D01*
X147182647Y-118383118D01*
X147230978Y-118442009D01*
X147230979Y-118442011D01*
X147275192Y-118524726D01*
X147314643Y-118598534D01*
X147366163Y-118768373D01*
X147383559Y-118945000D01*
X147366163Y-119121627D01*
X147314643Y-119291466D01*
X147230978Y-119447991D01*
X147227627Y-119452074D01*
X147118386Y-119585186D01*
X147016929Y-119668448D01*
X146981191Y-119697778D01*
X146824666Y-119781443D01*
X146654827Y-119832963D01*
X146588643Y-119839481D01*
X146522460Y-119846000D01*
X146433940Y-119846000D01*
X146367757Y-119839481D01*
X146301573Y-119832963D01*
X146131734Y-119781443D01*
X145975209Y-119697778D01*
X145939471Y-119668448D01*
X145838014Y-119585186D01*
X145728773Y-119452074D01*
X145725422Y-119447991D01*
X145641757Y-119291466D01*
X145590237Y-119121627D01*
X145572841Y-118945000D01*
X145590237Y-118768373D01*
X145641757Y-118598534D01*
X145681209Y-118524726D01*
X145725421Y-118442011D01*
X145725422Y-118442009D01*
X145773753Y-118383118D01*
X145838014Y-118304814D01*
X145939471Y-118221552D01*
X145975209Y-118192222D01*
X146131734Y-118108557D01*
X146301573Y-118057037D01*
X146367757Y-118050519D01*
X146433940Y-118044000D01*
X146522460Y-118044000D01*
X146588643Y-118050519D01*
X146588643Y-118050519D01*
G37*
G36*
X128626474Y-118366865D02*
G01*
X128664167Y-118378299D01*
X128698903Y-118396866D01*
X128729348Y-118421852D01*
X128754334Y-118452297D01*
X128772901Y-118487033D01*
X128784335Y-118524726D01*
X128788800Y-118570061D01*
X128788800Y-119406739D01*
X128784335Y-119452074D01*
X128772901Y-119489767D01*
X128754334Y-119524503D01*
X128729348Y-119554948D01*
X128698903Y-119579934D01*
X128664167Y-119598501D01*
X128626474Y-119609935D01*
X128581139Y-119614400D01*
X127494461Y-119614400D01*
X127449126Y-119609935D01*
X127411433Y-119598501D01*
X127376697Y-119579934D01*
X127346252Y-119554948D01*
X127321266Y-119524503D01*
X127302699Y-119489767D01*
X127291265Y-119452074D01*
X127286800Y-119406739D01*
X127286800Y-118570061D01*
X127291265Y-118524726D01*
X127302699Y-118487033D01*
X127321266Y-118452297D01*
X127346252Y-118421852D01*
X127376697Y-118396866D01*
X127411433Y-118378299D01*
X127449126Y-118366865D01*
X127494461Y-118362400D01*
X128581139Y-118362400D01*
X128626474Y-118366865D01*
X128626474Y-118366865D01*
G37*
G36*
X126619874Y-118357865D02*
G01*
X126657567Y-118369299D01*
X126692303Y-118387866D01*
X126722748Y-118412852D01*
X126747734Y-118443297D01*
X126766301Y-118478033D01*
X126777735Y-118515726D01*
X126782200Y-118561061D01*
X126782200Y-119397739D01*
X126777735Y-119443074D01*
X126766301Y-119480767D01*
X126747734Y-119515503D01*
X126722748Y-119545948D01*
X126692303Y-119570934D01*
X126657567Y-119589501D01*
X126619874Y-119600935D01*
X126574539Y-119605400D01*
X125487861Y-119605400D01*
X125442526Y-119600935D01*
X125404833Y-119589501D01*
X125370097Y-119570934D01*
X125339652Y-119545948D01*
X125314666Y-119515503D01*
X125296099Y-119480767D01*
X125284665Y-119443074D01*
X125280200Y-119397739D01*
X125280200Y-118561061D01*
X125284665Y-118515726D01*
X125296099Y-118478033D01*
X125314666Y-118443297D01*
X125339652Y-118412852D01*
X125370097Y-118387866D01*
X125404833Y-118369299D01*
X125442526Y-118357865D01*
X125487861Y-118353400D01*
X126574539Y-118353400D01*
X126619874Y-118357865D01*
X126619874Y-118357865D01*
G37*
G36*
X120246474Y-117842865D02*
G01*
X120284167Y-117854299D01*
X120318903Y-117872866D01*
X120349348Y-117897852D01*
X120374334Y-117928297D01*
X120392901Y-117963033D01*
X120404335Y-118000726D01*
X120408800Y-118046061D01*
X120408800Y-119132739D01*
X120404335Y-119178074D01*
X120392901Y-119215767D01*
X120374334Y-119250503D01*
X120349348Y-119280948D01*
X120318903Y-119305934D01*
X120284167Y-119324501D01*
X120246474Y-119335935D01*
X120201139Y-119340400D01*
X119364461Y-119340400D01*
X119319126Y-119335935D01*
X119281433Y-119324501D01*
X119246697Y-119305934D01*
X119216252Y-119280948D01*
X119191266Y-119250503D01*
X119172699Y-119215767D01*
X119161265Y-119178074D01*
X119156800Y-119132739D01*
X119156800Y-118046061D01*
X119161265Y-118000726D01*
X119172699Y-117963033D01*
X119191266Y-117928297D01*
X119216252Y-117897852D01*
X119246697Y-117872866D01*
X119281433Y-117854299D01*
X119319126Y-117842865D01*
X119364461Y-117838400D01*
X120201139Y-117838400D01*
X120246474Y-117842865D01*
X120246474Y-117842865D01*
G37*
G36*
X118196474Y-117842865D02*
G01*
X118234167Y-117854299D01*
X118268903Y-117872866D01*
X118299348Y-117897852D01*
X118324334Y-117928297D01*
X118342901Y-117963033D01*
X118354335Y-118000726D01*
X118358800Y-118046061D01*
X118358800Y-119132739D01*
X118354335Y-119178074D01*
X118342901Y-119215767D01*
X118324334Y-119250503D01*
X118299348Y-119280948D01*
X118268903Y-119305934D01*
X118234167Y-119324501D01*
X118196474Y-119335935D01*
X118151139Y-119340400D01*
X117314461Y-119340400D01*
X117269126Y-119335935D01*
X117231433Y-119324501D01*
X117196697Y-119305934D01*
X117166252Y-119280948D01*
X117141266Y-119250503D01*
X117122699Y-119215767D01*
X117111265Y-119178074D01*
X117106800Y-119132739D01*
X117106800Y-118046061D01*
X117111265Y-118000726D01*
X117122699Y-117963033D01*
X117141266Y-117928297D01*
X117166252Y-117897852D01*
X117196697Y-117872866D01*
X117231433Y-117854299D01*
X117269126Y-117842865D01*
X117314461Y-117838400D01*
X118151139Y-117838400D01*
X118196474Y-117842865D01*
X118196474Y-117842865D01*
G37*
G36*
X122209674Y-117817465D02*
G01*
X122247367Y-117828899D01*
X122282103Y-117847466D01*
X122312548Y-117872452D01*
X122337534Y-117902897D01*
X122356101Y-117937633D01*
X122367535Y-117975326D01*
X122372000Y-118020661D01*
X122372000Y-119107339D01*
X122367535Y-119152674D01*
X122356101Y-119190367D01*
X122337534Y-119225103D01*
X122312548Y-119255548D01*
X122282103Y-119280534D01*
X122247367Y-119299101D01*
X122209674Y-119310535D01*
X122164339Y-119315000D01*
X121327661Y-119315000D01*
X121282326Y-119310535D01*
X121244633Y-119299101D01*
X121209897Y-119280534D01*
X121179452Y-119255548D01*
X121154466Y-119225103D01*
X121135899Y-119190367D01*
X121124465Y-119152674D01*
X121120000Y-119107339D01*
X121120000Y-118020661D01*
X121124465Y-117975326D01*
X121135899Y-117937633D01*
X121154466Y-117902897D01*
X121179452Y-117872452D01*
X121209897Y-117847466D01*
X121244633Y-117828899D01*
X121282326Y-117817465D01*
X121327661Y-117813000D01*
X122164339Y-117813000D01*
X122209674Y-117817465D01*
X122209674Y-117817465D01*
G37*
G36*
X124259674Y-117817465D02*
G01*
X124297367Y-117828899D01*
X124332103Y-117847466D01*
X124362548Y-117872452D01*
X124387534Y-117902897D01*
X124406101Y-117937633D01*
X124417535Y-117975326D01*
X124422000Y-118020661D01*
X124422000Y-119107339D01*
X124417535Y-119152674D01*
X124406101Y-119190367D01*
X124387534Y-119225103D01*
X124362548Y-119255548D01*
X124332103Y-119280534D01*
X124297367Y-119299101D01*
X124259674Y-119310535D01*
X124214339Y-119315000D01*
X123377661Y-119315000D01*
X123332326Y-119310535D01*
X123294633Y-119299101D01*
X123259897Y-119280534D01*
X123229452Y-119255548D01*
X123204466Y-119225103D01*
X123185899Y-119190367D01*
X123174465Y-119152674D01*
X123170000Y-119107339D01*
X123170000Y-118020661D01*
X123174465Y-117975326D01*
X123185899Y-117937633D01*
X123204466Y-117902897D01*
X123229452Y-117872452D01*
X123259897Y-117847466D01*
X123294633Y-117828899D01*
X123332326Y-117817465D01*
X123377661Y-117813000D01*
X124214339Y-117813000D01*
X124259674Y-117817465D01*
X124259674Y-117817465D01*
G37*
G36*
X128626474Y-116316865D02*
G01*
X128664167Y-116328299D01*
X128698903Y-116346866D01*
X128729348Y-116371852D01*
X128754334Y-116402297D01*
X128772901Y-116437033D01*
X128784335Y-116474726D01*
X128788800Y-116520061D01*
X128788800Y-117356739D01*
X128784335Y-117402074D01*
X128772901Y-117439767D01*
X128754334Y-117474503D01*
X128729348Y-117504948D01*
X128698903Y-117529934D01*
X128664167Y-117548501D01*
X128626474Y-117559935D01*
X128581139Y-117564400D01*
X127494461Y-117564400D01*
X127449126Y-117559935D01*
X127411433Y-117548501D01*
X127376697Y-117529934D01*
X127346252Y-117504948D01*
X127321266Y-117474503D01*
X127302699Y-117439767D01*
X127291265Y-117402074D01*
X127286800Y-117356739D01*
X127286800Y-116520061D01*
X127291265Y-116474726D01*
X127302699Y-116437033D01*
X127321266Y-116402297D01*
X127346252Y-116371852D01*
X127376697Y-116346866D01*
X127411433Y-116328299D01*
X127449126Y-116316865D01*
X127494461Y-116312400D01*
X128581139Y-116312400D01*
X128626474Y-116316865D01*
X128626474Y-116316865D01*
G37*
G36*
X126619874Y-116307865D02*
G01*
X126657567Y-116319299D01*
X126692303Y-116337866D01*
X126722748Y-116362852D01*
X126747734Y-116393297D01*
X126766301Y-116428033D01*
X126777735Y-116465726D01*
X126782200Y-116511061D01*
X126782200Y-117347739D01*
X126777735Y-117393074D01*
X126766301Y-117430767D01*
X126747734Y-117465503D01*
X126722748Y-117495948D01*
X126692303Y-117520934D01*
X126657567Y-117539501D01*
X126619874Y-117550935D01*
X126574539Y-117555400D01*
X125487861Y-117555400D01*
X125442526Y-117550935D01*
X125404833Y-117539501D01*
X125370097Y-117520934D01*
X125339652Y-117495948D01*
X125314666Y-117465503D01*
X125296099Y-117430767D01*
X125284665Y-117393074D01*
X125280200Y-117347739D01*
X125280200Y-116511061D01*
X125284665Y-116465726D01*
X125296099Y-116428033D01*
X125314666Y-116393297D01*
X125339652Y-116362852D01*
X125370097Y-116337866D01*
X125404833Y-116319299D01*
X125442526Y-116307865D01*
X125487861Y-116303400D01*
X126574539Y-116303400D01*
X126619874Y-116307865D01*
X126619874Y-116307865D01*
G37*
G36*
X150210442Y-115510518D02*
G01*
X150276627Y-115517037D01*
X150446466Y-115568557D01*
X150602991Y-115652222D01*
X150629203Y-115673734D01*
X150740186Y-115764814D01*
X150808454Y-115848000D01*
X150852778Y-115902009D01*
X150936443Y-116058534D01*
X150987963Y-116228373D01*
X151005359Y-116405000D01*
X150987963Y-116581627D01*
X150936443Y-116751466D01*
X150936442Y-116751468D01*
X150901506Y-116816828D01*
X150852778Y-116907991D01*
X150835927Y-116928524D01*
X150740186Y-117045186D01*
X150638729Y-117128448D01*
X150602991Y-117157778D01*
X150446466Y-117241443D01*
X150276627Y-117292963D01*
X150210442Y-117299482D01*
X150144260Y-117306000D01*
X150055740Y-117306000D01*
X149989558Y-117299482D01*
X149923373Y-117292963D01*
X149753534Y-117241443D01*
X149597009Y-117157778D01*
X149561271Y-117128448D01*
X149459814Y-117045186D01*
X149364073Y-116928524D01*
X149347222Y-116907991D01*
X149298494Y-116816828D01*
X149263558Y-116751468D01*
X149263557Y-116751466D01*
X149212037Y-116581627D01*
X149194641Y-116405000D01*
X149212037Y-116228373D01*
X149263557Y-116058534D01*
X149347222Y-115902009D01*
X149391546Y-115848000D01*
X149459814Y-115764814D01*
X149570797Y-115673734D01*
X149597009Y-115652222D01*
X149753534Y-115568557D01*
X149923373Y-115517037D01*
X149989558Y-115510518D01*
X150055740Y-115504000D01*
X150144260Y-115504000D01*
X150210442Y-115510518D01*
X150210442Y-115510518D01*
G37*
G36*
X146588642Y-115510518D02*
G01*
X146654827Y-115517037D01*
X146824666Y-115568557D01*
X146981191Y-115652222D01*
X147007403Y-115673734D01*
X147118386Y-115764814D01*
X147186654Y-115848000D01*
X147230978Y-115902009D01*
X147314643Y-116058534D01*
X147366163Y-116228373D01*
X147383559Y-116405000D01*
X147366163Y-116581627D01*
X147314643Y-116751466D01*
X147314642Y-116751468D01*
X147279706Y-116816828D01*
X147230978Y-116907991D01*
X147214127Y-116928524D01*
X147118386Y-117045186D01*
X147016929Y-117128448D01*
X146981191Y-117157778D01*
X146824666Y-117241443D01*
X146654827Y-117292963D01*
X146588642Y-117299482D01*
X146522460Y-117306000D01*
X146433940Y-117306000D01*
X146367758Y-117299482D01*
X146301573Y-117292963D01*
X146131734Y-117241443D01*
X145975209Y-117157778D01*
X145939471Y-117128448D01*
X145838014Y-117045186D01*
X145742273Y-116928524D01*
X145725422Y-116907991D01*
X145676694Y-116816828D01*
X145641758Y-116751468D01*
X145641757Y-116751466D01*
X145590237Y-116581627D01*
X145572841Y-116405000D01*
X145590237Y-116228373D01*
X145641757Y-116058534D01*
X145725422Y-115902009D01*
X145769746Y-115848000D01*
X145838014Y-115764814D01*
X145948997Y-115673734D01*
X145975209Y-115652222D01*
X146131734Y-115568557D01*
X146301573Y-115517037D01*
X146367758Y-115510518D01*
X146433940Y-115504000D01*
X146522460Y-115504000D01*
X146588642Y-115510518D01*
X146588642Y-115510518D01*
G37*
G36*
X118573799Y-113247954D02*
G01*
X118586050Y-113248556D01*
X118604469Y-113248556D01*
X118626749Y-113250750D01*
X118710833Y-113267476D01*
X118732260Y-113273976D01*
X118811458Y-113306780D01*
X118816903Y-113309691D01*
X118816909Y-113309693D01*
X118825769Y-113314429D01*
X118825773Y-113314432D01*
X118831214Y-113317340D01*
X118902499Y-113364971D01*
X118919804Y-113379172D01*
X118980428Y-113439796D01*
X118994629Y-113457101D01*
X119042260Y-113528386D01*
X119045168Y-113533827D01*
X119045171Y-113533831D01*
X119049907Y-113542691D01*
X119049909Y-113542697D01*
X119052820Y-113548142D01*
X119085624Y-113627340D01*
X119092124Y-113648767D01*
X119108850Y-113732851D01*
X119111044Y-113755131D01*
X119111044Y-113773550D01*
X119111646Y-113785801D01*
X119113452Y-113804139D01*
X119113452Y-114341860D01*
X119111863Y-114357999D01*
X119107455Y-114372528D01*
X119101994Y-114385711D01*
X119097212Y-114409745D01*
X119097211Y-114434249D01*
X119101991Y-114458282D01*
X119111368Y-114480921D01*
X119112600Y-114482765D01*
X119112600Y-115714050D01*
X119106125Y-115726164D01*
X119099012Y-115749613D01*
X119096610Y-115773999D01*
X119099012Y-115798385D01*
X119106125Y-115821834D01*
X119108448Y-115826746D01*
X119111863Y-115838001D01*
X119113452Y-115854140D01*
X119113452Y-116391862D01*
X119111646Y-116410199D01*
X119111044Y-116422450D01*
X119111044Y-116440869D01*
X119108850Y-116463149D01*
X119092124Y-116547233D01*
X119085624Y-116568660D01*
X119052820Y-116647858D01*
X119049909Y-116653303D01*
X119049907Y-116653309D01*
X119045171Y-116662169D01*
X119045168Y-116662173D01*
X119042260Y-116667614D01*
X118994629Y-116738899D01*
X118980428Y-116756204D01*
X118919804Y-116816828D01*
X118902499Y-116831029D01*
X118831214Y-116878660D01*
X118825773Y-116881568D01*
X118825769Y-116881571D01*
X118816909Y-116886307D01*
X118816903Y-116886309D01*
X118811458Y-116889220D01*
X118732260Y-116922024D01*
X118710833Y-116928524D01*
X118626749Y-116945250D01*
X118604469Y-116947444D01*
X118586050Y-116947444D01*
X118573799Y-116948046D01*
X118555462Y-116949852D01*
X118067738Y-116949852D01*
X118049401Y-116948046D01*
X118037150Y-116947444D01*
X118018731Y-116947444D01*
X117996451Y-116945250D01*
X117912367Y-116928524D01*
X117890940Y-116922024D01*
X117811742Y-116889220D01*
X117806297Y-116886309D01*
X117806291Y-116886307D01*
X117797431Y-116881571D01*
X117797427Y-116881568D01*
X117791986Y-116878660D01*
X117720701Y-116831029D01*
X117703396Y-116816828D01*
X117642772Y-116756204D01*
X117628571Y-116738899D01*
X117580940Y-116667614D01*
X117578032Y-116662173D01*
X117578029Y-116662169D01*
X117573293Y-116653309D01*
X117573291Y-116653303D01*
X117570380Y-116647858D01*
X117537576Y-116568660D01*
X117531076Y-116547233D01*
X117514350Y-116463149D01*
X117512156Y-116440869D01*
X117512156Y-116422450D01*
X117511554Y-116410199D01*
X117509748Y-116391862D01*
X117509748Y-115854140D01*
X117511337Y-115838001D01*
X117515745Y-115823472D01*
X117521206Y-115810289D01*
X117525988Y-115786255D01*
X117525989Y-115761751D01*
X117521209Y-115737718D01*
X117511832Y-115715079D01*
X117510600Y-115713235D01*
X117510600Y-114481950D01*
X117517075Y-114469836D01*
X117524188Y-114446387D01*
X117526590Y-114422001D01*
X117524188Y-114397615D01*
X117517075Y-114374166D01*
X117514752Y-114369254D01*
X117511337Y-114357999D01*
X117509748Y-114341860D01*
X117509748Y-113804139D01*
X117511554Y-113785801D01*
X117512156Y-113773550D01*
X117512156Y-113755131D01*
X117514350Y-113732851D01*
X117531076Y-113648767D01*
X117537576Y-113627340D01*
X117570380Y-113548142D01*
X117573291Y-113542697D01*
X117573293Y-113542691D01*
X117578029Y-113533831D01*
X117578032Y-113533827D01*
X117580940Y-113528386D01*
X117628571Y-113457101D01*
X117642772Y-113439796D01*
X117703396Y-113379172D01*
X117720701Y-113364971D01*
X117791986Y-113317340D01*
X117797427Y-113314432D01*
X117797431Y-113314429D01*
X117806291Y-113309693D01*
X117806297Y-113309691D01*
X117811742Y-113306780D01*
X117890940Y-113273976D01*
X117912367Y-113267476D01*
X117996451Y-113250750D01*
X118018731Y-113248556D01*
X118037150Y-113248556D01*
X118049401Y-113247954D01*
X118067739Y-113246148D01*
X118555461Y-113246148D01*
X118573799Y-113247954D01*
X118573799Y-113247954D01*
G37*
G36*
X123982600Y-116639000D02*
G01*
X120980600Y-116639000D01*
X120980600Y-116037000D01*
X123982600Y-116037000D01*
X123982600Y-116639000D01*
X123982600Y-116639000D01*
G37*
G36*
X127222474Y-114210665D02*
G01*
X127260167Y-114222099D01*
X127294903Y-114240666D01*
X127325348Y-114265652D01*
X127350334Y-114296097D01*
X127368901Y-114330833D01*
X127380335Y-114368526D01*
X127384800Y-114413861D01*
X127384800Y-115500539D01*
X127380335Y-115545874D01*
X127368901Y-115583567D01*
X127350334Y-115618303D01*
X127325348Y-115648748D01*
X127294903Y-115673734D01*
X127260167Y-115692301D01*
X127222474Y-115703735D01*
X127177139Y-115708200D01*
X126340461Y-115708200D01*
X126295126Y-115703735D01*
X126257433Y-115692301D01*
X126222697Y-115673734D01*
X126192252Y-115648748D01*
X126167266Y-115618303D01*
X126148699Y-115583567D01*
X126137265Y-115545874D01*
X126132800Y-115500539D01*
X126132800Y-114413861D01*
X126137265Y-114368526D01*
X126148699Y-114330833D01*
X126167266Y-114296097D01*
X126192252Y-114265652D01*
X126222697Y-114240666D01*
X126257433Y-114222099D01*
X126295126Y-114210665D01*
X126340461Y-114206200D01*
X127177139Y-114206200D01*
X127222474Y-114210665D01*
X127222474Y-114210665D01*
G37*
G36*
X129272474Y-114210665D02*
G01*
X129310167Y-114222099D01*
X129344903Y-114240666D01*
X129375348Y-114265652D01*
X129400334Y-114296097D01*
X129418901Y-114330833D01*
X129430335Y-114368526D01*
X129434800Y-114413861D01*
X129434800Y-115500539D01*
X129430335Y-115545874D01*
X129418901Y-115583567D01*
X129400334Y-115618303D01*
X129375348Y-115648748D01*
X129344903Y-115673734D01*
X129310167Y-115692301D01*
X129272474Y-115703735D01*
X129227139Y-115708200D01*
X128390461Y-115708200D01*
X128345126Y-115703735D01*
X128307433Y-115692301D01*
X128272697Y-115673734D01*
X128242252Y-115648748D01*
X128217266Y-115618303D01*
X128198699Y-115583567D01*
X128187265Y-115545874D01*
X128182800Y-115500539D01*
X128182800Y-114413861D01*
X128187265Y-114368526D01*
X128198699Y-114330833D01*
X128217266Y-114296097D01*
X128242252Y-114265652D01*
X128272697Y-114240666D01*
X128307433Y-114222099D01*
X128345126Y-114210665D01*
X128390461Y-114206200D01*
X129227139Y-114206200D01*
X129272474Y-114210665D01*
X129272474Y-114210665D01*
G37*
G36*
X146588643Y-112970519D02*
G01*
X146654827Y-112977037D01*
X146824666Y-113028557D01*
X146981191Y-113112222D01*
X147016929Y-113141552D01*
X147118386Y-113224814D01*
X147188043Y-113309693D01*
X147230978Y-113362009D01*
X147314643Y-113518534D01*
X147366163Y-113688373D01*
X147383559Y-113865000D01*
X147366163Y-114041627D01*
X147316240Y-114206200D01*
X147314642Y-114211468D01*
X147306384Y-114226918D01*
X147230978Y-114367991D01*
X147217645Y-114384237D01*
X147118386Y-114505186D01*
X147016929Y-114588448D01*
X146981191Y-114617778D01*
X146824666Y-114701443D01*
X146654827Y-114752963D01*
X146588642Y-114759482D01*
X146522460Y-114766000D01*
X146433940Y-114766000D01*
X146367758Y-114759482D01*
X146301573Y-114752963D01*
X146131734Y-114701443D01*
X145975209Y-114617778D01*
X145939471Y-114588448D01*
X145838014Y-114505186D01*
X145738755Y-114384237D01*
X145725422Y-114367991D01*
X145650016Y-114226918D01*
X145641758Y-114211468D01*
X145640160Y-114206200D01*
X145590237Y-114041627D01*
X145572841Y-113865000D01*
X145590237Y-113688373D01*
X145641757Y-113518534D01*
X145725422Y-113362009D01*
X145768357Y-113309693D01*
X145838014Y-113224814D01*
X145939471Y-113141552D01*
X145975209Y-113112222D01*
X146131734Y-113028557D01*
X146301573Y-112977037D01*
X146367757Y-112970519D01*
X146433940Y-112964000D01*
X146522460Y-112964000D01*
X146588643Y-112970519D01*
X146588643Y-112970519D01*
G37*
G36*
X150210443Y-112970519D02*
G01*
X150276627Y-112977037D01*
X150446466Y-113028557D01*
X150602991Y-113112222D01*
X150638729Y-113141552D01*
X150740186Y-113224814D01*
X150809843Y-113309693D01*
X150852778Y-113362009D01*
X150936443Y-113518534D01*
X150987963Y-113688373D01*
X151005359Y-113865000D01*
X150987963Y-114041627D01*
X150938040Y-114206200D01*
X150936442Y-114211468D01*
X150928184Y-114226918D01*
X150852778Y-114367991D01*
X150839445Y-114384237D01*
X150740186Y-114505186D01*
X150638729Y-114588448D01*
X150602991Y-114617778D01*
X150446466Y-114701443D01*
X150276627Y-114752963D01*
X150210442Y-114759482D01*
X150144260Y-114766000D01*
X150055740Y-114766000D01*
X149989558Y-114759482D01*
X149923373Y-114752963D01*
X149753534Y-114701443D01*
X149597009Y-114617778D01*
X149561271Y-114588448D01*
X149459814Y-114505186D01*
X149360555Y-114384237D01*
X149347222Y-114367991D01*
X149271816Y-114226918D01*
X149263558Y-114211468D01*
X149261960Y-114206200D01*
X149212037Y-114041627D01*
X149194641Y-113865000D01*
X149212037Y-113688373D01*
X149263557Y-113518534D01*
X149347222Y-113362009D01*
X149390157Y-113309693D01*
X149459814Y-113224814D01*
X149561271Y-113141552D01*
X149597009Y-113112222D01*
X149753534Y-113028557D01*
X149923373Y-112977037D01*
X149989557Y-112970519D01*
X150055740Y-112964000D01*
X150144260Y-112964000D01*
X150210443Y-112970519D01*
X150210443Y-112970519D01*
G37*
G36*
X123982600Y-114239000D02*
G01*
X120960600Y-114239000D01*
X120960600Y-113637000D01*
X123982600Y-113637000D01*
X123982600Y-114239000D01*
X123982600Y-114239000D01*
G37*
G36*
X146588642Y-110430518D02*
G01*
X146654827Y-110437037D01*
X146824666Y-110488557D01*
X146981191Y-110572222D01*
X147016929Y-110601552D01*
X147118386Y-110684814D01*
X147201648Y-110786271D01*
X147230978Y-110822009D01*
X147314643Y-110978534D01*
X147366163Y-111148373D01*
X147383559Y-111325000D01*
X147366163Y-111501627D01*
X147314643Y-111671466D01*
X147230978Y-111827991D01*
X147201648Y-111863729D01*
X147118386Y-111965186D01*
X147027995Y-112039367D01*
X146981191Y-112077778D01*
X146824666Y-112161443D01*
X146654827Y-112212963D01*
X146588643Y-112219481D01*
X146522460Y-112226000D01*
X146433940Y-112226000D01*
X146367757Y-112219481D01*
X146301573Y-112212963D01*
X146131734Y-112161443D01*
X145975209Y-112077778D01*
X145928405Y-112039367D01*
X145838014Y-111965186D01*
X145754752Y-111863729D01*
X145725422Y-111827991D01*
X145641757Y-111671466D01*
X145590237Y-111501627D01*
X145572841Y-111325000D01*
X145590237Y-111148373D01*
X145641757Y-110978534D01*
X145725422Y-110822009D01*
X145754752Y-110786271D01*
X145838014Y-110684814D01*
X145939471Y-110601552D01*
X145975209Y-110572222D01*
X146131734Y-110488557D01*
X146301573Y-110437037D01*
X146367758Y-110430518D01*
X146433940Y-110424000D01*
X146522460Y-110424000D01*
X146588642Y-110430518D01*
X146588642Y-110430518D01*
G37*
G36*
X150210442Y-110430518D02*
G01*
X150276627Y-110437037D01*
X150446466Y-110488557D01*
X150602991Y-110572222D01*
X150638729Y-110601552D01*
X150740186Y-110684814D01*
X150823448Y-110786271D01*
X150852778Y-110822009D01*
X150936443Y-110978534D01*
X150987963Y-111148373D01*
X151005359Y-111325000D01*
X150987963Y-111501627D01*
X150936443Y-111671466D01*
X150852778Y-111827991D01*
X150823448Y-111863729D01*
X150740186Y-111965186D01*
X150649795Y-112039367D01*
X150602991Y-112077778D01*
X150446466Y-112161443D01*
X150276627Y-112212963D01*
X150210443Y-112219481D01*
X150144260Y-112226000D01*
X150055740Y-112226000D01*
X149989557Y-112219481D01*
X149923373Y-112212963D01*
X149753534Y-112161443D01*
X149597009Y-112077778D01*
X149550205Y-112039367D01*
X149459814Y-111965186D01*
X149376552Y-111863729D01*
X149347222Y-111827991D01*
X149263557Y-111671466D01*
X149212037Y-111501627D01*
X149194641Y-111325000D01*
X149212037Y-111148373D01*
X149263557Y-110978534D01*
X149347222Y-110822009D01*
X149376552Y-110786271D01*
X149459814Y-110684814D01*
X149561271Y-110601552D01*
X149597009Y-110572222D01*
X149753534Y-110488557D01*
X149923373Y-110437037D01*
X149989558Y-110430518D01*
X150055740Y-110424000D01*
X150144260Y-110424000D01*
X150210442Y-110430518D01*
X150210442Y-110430518D01*
G37*
G36*
X124282674Y-110916465D02*
G01*
X124320367Y-110927899D01*
X124355103Y-110946466D01*
X124385548Y-110971452D01*
X124410534Y-111001897D01*
X124429101Y-111036633D01*
X124440535Y-111074326D01*
X124445000Y-111119661D01*
X124445000Y-111956339D01*
X124440535Y-112001674D01*
X124429101Y-112039367D01*
X124410534Y-112074103D01*
X124385548Y-112104548D01*
X124355103Y-112129534D01*
X124320367Y-112148101D01*
X124282674Y-112159535D01*
X124237339Y-112164000D01*
X123150661Y-112164000D01*
X123105326Y-112159535D01*
X123067633Y-112148101D01*
X123032897Y-112129534D01*
X123002452Y-112104548D01*
X122977466Y-112074103D01*
X122958899Y-112039367D01*
X122947465Y-112001674D01*
X122943000Y-111956339D01*
X122943000Y-111119661D01*
X122947465Y-111074326D01*
X122958899Y-111036633D01*
X122977466Y-111001897D01*
X123002452Y-110971452D01*
X123032897Y-110946466D01*
X123067633Y-110927899D01*
X123105326Y-110916465D01*
X123150661Y-110912000D01*
X124237339Y-110912000D01*
X124282674Y-110916465D01*
X124282674Y-110916465D01*
G37*
G36*
X121684674Y-110916465D02*
G01*
X121722367Y-110927899D01*
X121757103Y-110946466D01*
X121787548Y-110971452D01*
X121812534Y-111001897D01*
X121831101Y-111036633D01*
X121842535Y-111074326D01*
X121847000Y-111119661D01*
X121847000Y-111956339D01*
X121842535Y-112001674D01*
X121831101Y-112039367D01*
X121812534Y-112074103D01*
X121787548Y-112104548D01*
X121757103Y-112129534D01*
X121722367Y-112148101D01*
X121684674Y-112159535D01*
X121639339Y-112164000D01*
X120552661Y-112164000D01*
X120507326Y-112159535D01*
X120469633Y-112148101D01*
X120434897Y-112129534D01*
X120404452Y-112104548D01*
X120379466Y-112074103D01*
X120360899Y-112039367D01*
X120349465Y-112001674D01*
X120345000Y-111956339D01*
X120345000Y-111119661D01*
X120349465Y-111074326D01*
X120360899Y-111036633D01*
X120379466Y-111001897D01*
X120404452Y-110971452D01*
X120434897Y-110946466D01*
X120469633Y-110927899D01*
X120507326Y-110916465D01*
X120552661Y-110912000D01*
X121639339Y-110912000D01*
X121684674Y-110916465D01*
X121684674Y-110916465D01*
G37*
G36*
X121684674Y-108866465D02*
G01*
X121722367Y-108877899D01*
X121757103Y-108896466D01*
X121787548Y-108921452D01*
X121812534Y-108951897D01*
X121831101Y-108986633D01*
X121842535Y-109024326D01*
X121847000Y-109069661D01*
X121847000Y-109906339D01*
X121842535Y-109951674D01*
X121831101Y-109989367D01*
X121812534Y-110024103D01*
X121787548Y-110054548D01*
X121757103Y-110079534D01*
X121722367Y-110098101D01*
X121684674Y-110109535D01*
X121639339Y-110114000D01*
X120552661Y-110114000D01*
X120507326Y-110109535D01*
X120469633Y-110098101D01*
X120434897Y-110079534D01*
X120404452Y-110054548D01*
X120379466Y-110024103D01*
X120360899Y-109989367D01*
X120349465Y-109951674D01*
X120345000Y-109906339D01*
X120345000Y-109069661D01*
X120349465Y-109024326D01*
X120360899Y-108986633D01*
X120379466Y-108951897D01*
X120404452Y-108921452D01*
X120434897Y-108896466D01*
X120469633Y-108877899D01*
X120507326Y-108866465D01*
X120552661Y-108862000D01*
X121639339Y-108862000D01*
X121684674Y-108866465D01*
X121684674Y-108866465D01*
G37*
G36*
X124282674Y-108866465D02*
G01*
X124320367Y-108877899D01*
X124355103Y-108896466D01*
X124385548Y-108921452D01*
X124410534Y-108951897D01*
X124429101Y-108986633D01*
X124440535Y-109024326D01*
X124445000Y-109069661D01*
X124445000Y-109906339D01*
X124440535Y-109951674D01*
X124429101Y-109989367D01*
X124410534Y-110024103D01*
X124385548Y-110054548D01*
X124355103Y-110079534D01*
X124320367Y-110098101D01*
X124282674Y-110109535D01*
X124237339Y-110114000D01*
X123150661Y-110114000D01*
X123105326Y-110109535D01*
X123067633Y-110098101D01*
X123032897Y-110079534D01*
X123002452Y-110054548D01*
X122977466Y-110024103D01*
X122958899Y-109989367D01*
X122947465Y-109951674D01*
X122943000Y-109906339D01*
X122943000Y-109069661D01*
X122947465Y-109024326D01*
X122958899Y-108986633D01*
X122977466Y-108951897D01*
X123002452Y-108921452D01*
X123032897Y-108896466D01*
X123067633Y-108877899D01*
X123105326Y-108866465D01*
X123150661Y-108862000D01*
X124237339Y-108862000D01*
X124282674Y-108866465D01*
X124282674Y-108866465D01*
G37*
G36*
X147379200Y-109686000D02*
G01*
X145577200Y-109686000D01*
X145577200Y-107884000D01*
X147379200Y-107884000D01*
X147379200Y-109686000D01*
X147379200Y-109686000D01*
G37*
G36*
X151001000Y-109686000D02*
G01*
X149199000Y-109686000D01*
X149199000Y-107884000D01*
X151001000Y-107884000D01*
X151001000Y-109686000D01*
X151001000Y-109686000D01*
G37*
G36*
X121653999Y-105137737D02*
G01*
X121668528Y-105142145D01*
X121681711Y-105147606D01*
X121705745Y-105152388D01*
X121730249Y-105152389D01*
X121754282Y-105147609D01*
X121776921Y-105138232D01*
X121778765Y-105137000D01*
X123010050Y-105137000D01*
X123022164Y-105143475D01*
X123045613Y-105150588D01*
X123069999Y-105152990D01*
X123094385Y-105150588D01*
X123117834Y-105143475D01*
X123122746Y-105141152D01*
X123134001Y-105137737D01*
X123150140Y-105136148D01*
X123687861Y-105136148D01*
X123706199Y-105137954D01*
X123718450Y-105138556D01*
X123736869Y-105138556D01*
X123759149Y-105140750D01*
X123843233Y-105157476D01*
X123864660Y-105163976D01*
X123943858Y-105196780D01*
X123949303Y-105199691D01*
X123949309Y-105199693D01*
X123958169Y-105204429D01*
X123958173Y-105204432D01*
X123963614Y-105207340D01*
X124034899Y-105254971D01*
X124052204Y-105269172D01*
X124112828Y-105329796D01*
X124127029Y-105347101D01*
X124174660Y-105418386D01*
X124177568Y-105423827D01*
X124177571Y-105423831D01*
X124182307Y-105432691D01*
X124182309Y-105432697D01*
X124185220Y-105438142D01*
X124218024Y-105517340D01*
X124224524Y-105538767D01*
X124241250Y-105622851D01*
X124243444Y-105645131D01*
X124243444Y-105663550D01*
X124244046Y-105675801D01*
X124245852Y-105694139D01*
X124245852Y-106181862D01*
X124244046Y-106200199D01*
X124243444Y-106212450D01*
X124243444Y-106230869D01*
X124241250Y-106253149D01*
X124224524Y-106337233D01*
X124218024Y-106358660D01*
X124185220Y-106437858D01*
X124182309Y-106443303D01*
X124182307Y-106443309D01*
X124177571Y-106452169D01*
X124177568Y-106452173D01*
X124174660Y-106457614D01*
X124127029Y-106528899D01*
X124112828Y-106546204D01*
X124052204Y-106606828D01*
X124034899Y-106621029D01*
X123963614Y-106668660D01*
X123958173Y-106671568D01*
X123958169Y-106671571D01*
X123949309Y-106676307D01*
X123949303Y-106676309D01*
X123943858Y-106679220D01*
X123864660Y-106712024D01*
X123843233Y-106718524D01*
X123759149Y-106735250D01*
X123736869Y-106737444D01*
X123718450Y-106737444D01*
X123706199Y-106738046D01*
X123687862Y-106739852D01*
X123150140Y-106739852D01*
X123134001Y-106738263D01*
X123119472Y-106733855D01*
X123106289Y-106728394D01*
X123082255Y-106723612D01*
X123057751Y-106723611D01*
X123033718Y-106728391D01*
X123011079Y-106737768D01*
X123009235Y-106739000D01*
X121777950Y-106739000D01*
X121765836Y-106732525D01*
X121742387Y-106725412D01*
X121718001Y-106723010D01*
X121693615Y-106725412D01*
X121670166Y-106732525D01*
X121665254Y-106734848D01*
X121653999Y-106738263D01*
X121637860Y-106739852D01*
X121100138Y-106739852D01*
X121081801Y-106738046D01*
X121069550Y-106737444D01*
X121051131Y-106737444D01*
X121028851Y-106735250D01*
X120944767Y-106718524D01*
X120923340Y-106712024D01*
X120844142Y-106679220D01*
X120838697Y-106676309D01*
X120838691Y-106676307D01*
X120829831Y-106671571D01*
X120829827Y-106671568D01*
X120824386Y-106668660D01*
X120753101Y-106621029D01*
X120735796Y-106606828D01*
X120675172Y-106546204D01*
X120660971Y-106528899D01*
X120613340Y-106457614D01*
X120610432Y-106452173D01*
X120610429Y-106452169D01*
X120605693Y-106443309D01*
X120605691Y-106443303D01*
X120602780Y-106437858D01*
X120569976Y-106358660D01*
X120563476Y-106337233D01*
X120546750Y-106253149D01*
X120544556Y-106230869D01*
X120544556Y-106212450D01*
X120543954Y-106200199D01*
X120542148Y-106181862D01*
X120542148Y-105694139D01*
X120543954Y-105675801D01*
X120544556Y-105663550D01*
X120544556Y-105645131D01*
X120546750Y-105622851D01*
X120563476Y-105538767D01*
X120569976Y-105517340D01*
X120602780Y-105438142D01*
X120605691Y-105432697D01*
X120605693Y-105432691D01*
X120610429Y-105423831D01*
X120610432Y-105423827D01*
X120613340Y-105418386D01*
X120660971Y-105347101D01*
X120675172Y-105329796D01*
X120735796Y-105269172D01*
X120753101Y-105254971D01*
X120824386Y-105207340D01*
X120829827Y-105204432D01*
X120829831Y-105204429D01*
X120838691Y-105199693D01*
X120838697Y-105199691D01*
X120844142Y-105196780D01*
X120923340Y-105163976D01*
X120944767Y-105157476D01*
X121028851Y-105140750D01*
X121051131Y-105138556D01*
X121069550Y-105138556D01*
X121081801Y-105137954D01*
X121100139Y-105136148D01*
X121637860Y-105136148D01*
X121653999Y-105137737D01*
X121653999Y-105137737D01*
G37*
M02*
