G04 #@! TF.GenerationSoftware,KiCad,Pcbnew,(5.1.4)-1*
G04 #@! TF.CreationDate,2020-11-30T17:40:18+01:00*
G04 #@! TF.ProjectId,BME680,424d4536-3830-42e6-9b69-6361645f7063,A*
G04 #@! TF.SameCoordinates,Original*
G04 #@! TF.FileFunction,Legend,Bot*
G04 #@! TF.FilePolarity,Positive*
%FSLAX46Y46*%
G04 Gerber Fmt 4.6, Leading zero omitted, Abs format (unit mm)*
G04 Created by KiCad (PCBNEW (5.1.4)-1) date 2020-11-30 17:40:18*
%MOMM*%
%LPD*%
G04 APERTURE LIST*
%ADD10C,0.125000*%
%ADD11C,0.120000*%
%ADD12C,0.200000*%
%ADD13C,0.150000*%
%ADD14C,0.254000*%
G04 APERTURE END LIST*
D10*
X119716190Y-134146571D02*
X120216190Y-134313238D01*
X119716190Y-134479904D01*
X119954285Y-134813238D02*
X119978095Y-134884666D01*
X120001904Y-134908476D01*
X120049523Y-134932285D01*
X120120952Y-134932285D01*
X120168571Y-134908476D01*
X120192380Y-134884666D01*
X120216190Y-134837047D01*
X120216190Y-134646571D01*
X119716190Y-134646571D01*
X119716190Y-134813238D01*
X119740000Y-134860857D01*
X119763809Y-134884666D01*
X119811428Y-134908476D01*
X119859047Y-134908476D01*
X119906666Y-134884666D01*
X119930476Y-134860857D01*
X119954285Y-134813238D01*
X119954285Y-134646571D01*
X120073333Y-135122761D02*
X120073333Y-135360857D01*
X120216190Y-135075142D02*
X119716190Y-135241809D01*
X120216190Y-135408476D01*
X119716190Y-135503714D02*
X119716190Y-135789428D01*
X120216190Y-135646571D02*
X119716190Y-135646571D01*
X125302380Y-134560857D02*
X125326190Y-134632285D01*
X125326190Y-134751333D01*
X125302380Y-134798952D01*
X125278571Y-134822761D01*
X125230952Y-134846571D01*
X125183333Y-134846571D01*
X125135714Y-134822761D01*
X125111904Y-134798952D01*
X125088095Y-134751333D01*
X125064285Y-134656095D01*
X125040476Y-134608476D01*
X125016666Y-134584666D01*
X124969047Y-134560857D01*
X124921428Y-134560857D01*
X124873809Y-134584666D01*
X124850000Y-134608476D01*
X124826190Y-134656095D01*
X124826190Y-134775142D01*
X124850000Y-134846571D01*
X125326190Y-135060857D02*
X124826190Y-135060857D01*
X124826190Y-135179904D01*
X124850000Y-135251333D01*
X124897619Y-135298952D01*
X124945238Y-135322761D01*
X125040476Y-135346571D01*
X125111904Y-135346571D01*
X125207142Y-135322761D01*
X125254761Y-135298952D01*
X125302380Y-135251333D01*
X125326190Y-135179904D01*
X125326190Y-135060857D01*
X125183333Y-135537047D02*
X125183333Y-135775142D01*
X125326190Y-135489428D02*
X124826190Y-135656095D01*
X125326190Y-135822761D01*
X122732380Y-134592761D02*
X122756190Y-134664190D01*
X122756190Y-134783238D01*
X122732380Y-134830857D01*
X122708571Y-134854666D01*
X122660952Y-134878476D01*
X122613333Y-134878476D01*
X122565714Y-134854666D01*
X122541904Y-134830857D01*
X122518095Y-134783238D01*
X122494285Y-134688000D01*
X122470476Y-134640380D01*
X122446666Y-134616571D01*
X122399047Y-134592761D01*
X122351428Y-134592761D01*
X122303809Y-134616571D01*
X122280000Y-134640380D01*
X122256190Y-134688000D01*
X122256190Y-134807047D01*
X122280000Y-134878476D01*
X122708571Y-135378476D02*
X122732380Y-135354666D01*
X122756190Y-135283238D01*
X122756190Y-135235619D01*
X122732380Y-135164190D01*
X122684761Y-135116571D01*
X122637142Y-135092761D01*
X122541904Y-135068952D01*
X122470476Y-135068952D01*
X122375238Y-135092761D01*
X122327619Y-135116571D01*
X122280000Y-135164190D01*
X122256190Y-135235619D01*
X122256190Y-135283238D01*
X122280000Y-135354666D01*
X122303809Y-135378476D01*
X122756190Y-135830857D02*
X122756190Y-135592761D01*
X122256190Y-135592761D01*
D11*
X134643548Y-129030000D02*
X135166052Y-129030000D01*
X134643548Y-130450000D02*
X135166052Y-130450000D01*
X134643548Y-133650400D02*
X135166052Y-133650400D01*
X134643548Y-132230400D02*
X135166052Y-132230400D01*
X122959000Y-129596748D02*
X122959000Y-130119252D01*
X124379000Y-129596748D02*
X124379000Y-130119252D01*
D12*
X132952200Y-133240200D02*
X132952200Y-129440200D01*
X124952200Y-129440200D02*
X124952200Y-133240200D01*
X130752200Y-129440200D02*
X127152200Y-129440200D01*
X130752200Y-133240200D02*
X127152200Y-133240200D01*
X131751200Y-134341200D02*
G75*
G03X131751200Y-134341200I-33000J0D01*
G01*
D11*
X130690600Y-124345800D02*
G75*
G03X129990600Y-125045800I0J-700000D01*
G01*
X129990600Y-125645800D02*
G75*
G03X130690600Y-126345800I700000J0D01*
G01*
X132090600Y-126345800D02*
G75*
G03X132790600Y-125645800I0J700000D01*
G01*
X132790600Y-125045800D02*
G75*
G03X132090600Y-124345800I-700000J0D01*
G01*
X132790600Y-125645800D02*
X132790600Y-125045800D01*
X130690600Y-126345800D02*
X132090600Y-126345800D01*
X129990600Y-125045800D02*
X129990600Y-125645800D01*
X132090600Y-124345800D02*
X130690600Y-124345800D01*
X125913400Y-126752000D02*
X125913400Y-125422000D01*
X124583400Y-126752000D02*
X125913400Y-126752000D01*
X125913400Y-124152000D02*
X125913400Y-121552000D01*
X123313400Y-124152000D02*
X125913400Y-124152000D01*
X123313400Y-126752000D02*
X123313400Y-124152000D01*
X125913400Y-121552000D02*
X120713400Y-121552000D01*
X123313400Y-126752000D02*
X120713400Y-126752000D01*
X120713400Y-126752000D02*
X120713400Y-121552000D01*
D13*
X138161266Y-130147942D02*
X138208885Y-130195561D01*
X138351742Y-130243180D01*
X138446980Y-130243180D01*
X138589838Y-130195561D01*
X138685076Y-130100323D01*
X138732695Y-130005085D01*
X138780314Y-129814609D01*
X138780314Y-129671752D01*
X138732695Y-129481276D01*
X138685076Y-129386038D01*
X138589838Y-129290800D01*
X138446980Y-129243180D01*
X138351742Y-129243180D01*
X138208885Y-129290800D01*
X138161266Y-129338419D01*
X137304123Y-129243180D02*
X137494600Y-129243180D01*
X137589838Y-129290800D01*
X137637457Y-129338419D01*
X137732695Y-129481276D01*
X137780314Y-129671752D01*
X137780314Y-130052704D01*
X137732695Y-130147942D01*
X137685076Y-130195561D01*
X137589838Y-130243180D01*
X137399361Y-130243180D01*
X137304123Y-130195561D01*
X137256504Y-130147942D01*
X137208885Y-130052704D01*
X137208885Y-129814609D01*
X137256504Y-129719371D01*
X137304123Y-129671752D01*
X137399361Y-129624133D01*
X137589838Y-129624133D01*
X137685076Y-129671752D01*
X137732695Y-129719371D01*
X137780314Y-129814609D01*
X138135866Y-133272142D02*
X138183485Y-133319761D01*
X138326342Y-133367380D01*
X138421580Y-133367380D01*
X138564438Y-133319761D01*
X138659676Y-133224523D01*
X138707295Y-133129285D01*
X138754914Y-132938809D01*
X138754914Y-132795952D01*
X138707295Y-132605476D01*
X138659676Y-132510238D01*
X138564438Y-132415000D01*
X138421580Y-132367380D01*
X138326342Y-132367380D01*
X138183485Y-132415000D01*
X138135866Y-132462619D01*
X137802533Y-132367380D02*
X137135866Y-132367380D01*
X137564438Y-133367380D01*
X122471380Y-129691333D02*
X121995190Y-129358000D01*
X122471380Y-129119904D02*
X121471380Y-129119904D01*
X121471380Y-129500857D01*
X121519000Y-129596095D01*
X121566619Y-129643714D01*
X121661857Y-129691333D01*
X121804714Y-129691333D01*
X121899952Y-129643714D01*
X121947571Y-129596095D01*
X121995190Y-129500857D01*
X121995190Y-129119904D01*
X122471380Y-130643714D02*
X122471380Y-130072285D01*
X122471380Y-130358000D02*
X121471380Y-130358000D01*
X121614238Y-130262761D01*
X121709476Y-130167523D01*
X121757095Y-130072285D01*
D14*
X129760161Y-127931761D02*
X129760161Y-128536523D01*
X130183495Y-127266523D02*
X129760161Y-127931761D01*
X129336828Y-127266523D01*
X128973971Y-127387476D02*
X128913495Y-127327000D01*
X128792542Y-127266523D01*
X128490161Y-127266523D01*
X128369209Y-127327000D01*
X128308733Y-127387476D01*
X128248257Y-127508428D01*
X128248257Y-127629380D01*
X128308733Y-127810809D01*
X129034447Y-128536523D01*
X128248257Y-128536523D01*
D13*
X135373533Y-124975980D02*
X135373533Y-125690266D01*
X135421152Y-125833123D01*
X135516390Y-125928361D01*
X135659247Y-125975980D01*
X135754485Y-125975980D01*
X134897342Y-125975980D02*
X134897342Y-124975980D01*
X134516390Y-124975980D01*
X134421152Y-125023600D01*
X134373533Y-125071219D01*
X134325914Y-125166457D01*
X134325914Y-125309314D01*
X134373533Y-125404552D01*
X134421152Y-125452171D01*
X134516390Y-125499790D01*
X134897342Y-125499790D01*
X133992580Y-124975980D02*
X133373533Y-124975980D01*
X133706866Y-125356933D01*
X133564009Y-125356933D01*
X133468771Y-125404552D01*
X133421152Y-125452171D01*
X133373533Y-125547409D01*
X133373533Y-125785504D01*
X133421152Y-125880742D01*
X133468771Y-125928361D01*
X133564009Y-125975980D01*
X133849723Y-125975980D01*
X133944961Y-125928361D01*
X133992580Y-125880742D01*
X126365780Y-123818666D02*
X127080066Y-123818666D01*
X127222923Y-123771047D01*
X127318161Y-123675809D01*
X127365780Y-123532952D01*
X127365780Y-123437714D01*
X126699114Y-124723428D02*
X127365780Y-124723428D01*
X126318161Y-124485333D02*
X127032447Y-124247238D01*
X127032447Y-124866285D01*
M02*
