<svg height='100px' width='100px'  fill="#000000" xmlns="http://www.w3.org/2000/svg" data-name="Layer 1" viewBox="0 0 512 512" x="0px" y="0px"><title>microphone</title><rect x="158.96" width="194.07" height="336.39" rx="97.04" ry="97.04"></rect><path d="M406.14,206.47a28.3,28.3,0,0,0-28.3,28.3,121.84,121.84,0,0,1-243.68,0,28.3,28.3,0,1,0-56.6,0c0,87.35,63.09,160.24,146.1,175.5V455.4H175.14a28.3,28.3,0,0,0,0,56.6H336.86a28.3,28.3,0,0,0,0-56.6H288.35V410.27c83-15.26,146.1-88.15,146.1-175.5A28.3,28.3,0,0,0,406.14,206.47Z"></path></svg>