M48
INCH,TZ
T1C0.0157
T2C0.0378
T3C0.0394
%
G90
G05
T1
X35428Y-30642
X35828Y-31442
X35928Y-29742
X36428Y-32442
X36528Y-28842
X36928Y-27942
X37028Y-33642
X37528Y-31642
X37628Y-26942
X37628Y-29842
X37628Y-34742
X38228Y-26042
X38228Y-35742
X38828Y-24842
X38828Y-36742
X39028Y-34442
X39428Y-23742
X39428Y-37842
X39628Y-26842
X40028Y-38842
X40128Y-22742
X40628Y-21742
X40628Y-37042
X40628Y-39842
X40928Y-35342
X41128Y-20642
X41128Y-24342
X41128Y-25842
X41228Y-40942
X41728Y-31942
X41828Y-19442
X41828Y-41942
X42028Y-28742
X42328Y-22642
X42328Y-39842
X42428Y-27042
X42428Y-29742
X42628Y-38042
X42728Y-25142
X42728Y-36042
X42828Y-41942
X43028Y-34542
X43128Y-30042
X43328Y-19442
X43728Y-21542
X43828Y-28742
X43828Y-41942
X43928Y-35242
X44028Y-25242
X44028Y-30842
X44035Y-24442
X44078Y-27016
X44128Y-39842
X44328Y-38242
X44428Y-36342
X44628Y-23742
X44628Y-26042
X44628Y-28042
X44828Y-19442
X44828Y-41942
X44928Y-28542
X45028Y-30842
X45128Y-27321
X45328Y-36942
X45428Y-26242
X45428Y-40542
X45565Y-34442
X45628Y-21442
X45728Y-27742
X45828Y-24342
X45828Y-29742
X45828Y-41942
X46028Y-35234
X46028Y-20642
X46128Y-26342
X46328Y-19442
X46528Y-24242
X46628Y-21547
X46628Y-29742
X46828Y-29042
X46828Y-32392
X47128Y-20642
X47128Y-22842
X47328Y-38942
X47428Y-31542
X47623Y-35042
X47728Y-21242
X47807Y-31863
X47828Y-19442
X47828Y-24547
X47928Y-33642
X48228Y-26242
X48328Y-23442
X48328Y-35342
X48328Y-38842
X48329Y-35743
X48828Y-34442
X48928Y-32242
X49328Y-19442
X49428Y-38642
X49528Y-27142
X49528Y-31142
X49528Y-32442
X49828Y-20842
X49928Y-33247
X50028Y-36442
X50178Y-31742
X50328Y-23442
X50428Y-32042
X50428Y-39942
X50633Y-32247
X50728Y-30342
X50728Y-30642
X50823Y-27742
X50828Y-19442
X50828Y-41942
X50928Y-38842
X51028Y-36542
X51433Y-31942
X51528Y-29842
X51528Y-32942
X51628Y-20842
X51628Y-30342
X51628Y-30642
X51628Y-30942
X51628Y-34442
X51728Y-39842
X51733Y-31942
X51828Y-35642
X51828Y-41942
X51833Y-29742
X52028Y-34442
X52328Y-19442
X52328Y-24342
X52328Y-30542
X52428Y-34442
X52428Y-38842
X52728Y-27142
X52828Y-31342
X52828Y-32942
X52828Y-41942
X53028Y-36542
X53228Y-23042
X53328Y-33242
X53328Y-40642
X53428Y-25542
X53428Y-37742
X53628Y-21042
X53728Y-37742
X53828Y-19442
X53828Y-41942
X53928Y-27142
X53928Y-36742
X54028Y-35642
X54128Y-34242
X54128Y-39142
X54228Y-24342
X54643Y-30366
X54828Y-19942
X54828Y-41942
X55028Y-23042
X55028Y-36442
X55128Y-33242
X55228Y-27142
X55228Y-40942
X55328Y-20942
X55428Y-25042
X55428Y-31342
X55728Y-37942
X55828Y-39842
X55928Y-34242
X55928Y-35542
X56028Y-22242
X56128Y-27942
X56328Y-32642
X56428Y-38942
X56628Y-28842
X56628Y-31642
X56728Y-23342
X56728Y-27242
X56828Y-33242
X57028Y-37742
X57328Y-34042
X57528Y-24542
X57728Y-28042
X57728Y-36642
X58128Y-29442
X58228Y-25842
X58428Y-35342
X58928Y-27042
X59228Y-30442
X59628Y-28242
X59828Y-32842
X60228Y-29342
X60328Y-31742
X60828Y-30542
T2
X48201Y-30692
T3
X44528Y-30142
X52128Y-33542
X39128Y-28242
X39128Y-29242
X39128Y-30242
X39128Y-31242
X39128Y-32242
X39128Y-33242
X40628Y-28242
X40628Y-29242
X40628Y-30242
X40628Y-31242
X40628Y-32242
X40628Y-33242
X44528Y-31642
T0
M30
