G04 #@! TF.GenerationSoftware,KiCad,Pcbnew,(5.1.6)-1*
G04 #@! TF.CreationDate,2021-02-22T13:26:00+01:00*
G04 #@! TF.ProjectId,SoundModulev2,536f756e-644d-46f6-9475-6c6576322e6b,rev?*
G04 #@! TF.SameCoordinates,Original*
G04 #@! TF.FileFunction,Copper,L2,Bot*
G04 #@! TF.FilePolarity,Positive*
%FSLAX46Y46*%
G04 Gerber Fmt 4.6, Leading zero omitted, Abs format (unit mm)*
G04 Created by KiCad (PCBNEW (5.1.6)-1) date 2021-02-22 13:26:00*
%MOMM*%
%LPD*%
G01*
G04 APERTURE LIST*
G04 #@! TA.AperFunction,ComponentPad*
%ADD10R,1.700000X1.700000*%
G04 #@! TD*
G04 #@! TA.AperFunction,SMDPad,CuDef*
%ADD11R,1.524000X4.000000*%
G04 #@! TD*
G04 #@! TA.AperFunction,ComponentPad*
%ADD12O,1.700000X1.700000*%
G04 #@! TD*
G04 #@! TA.AperFunction,SMDPad,CuDef*
%ADD13C,0.460000*%
G04 #@! TD*
G04 #@! TA.AperFunction,ComponentPad*
%ADD14C,1.560000*%
G04 #@! TD*
G04 #@! TA.AperFunction,SMDPad,CuDef*
%ADD15C,0.600000*%
G04 #@! TD*
G04 #@! TA.AperFunction,SMDPad,CuDef*
%ADD16C,0.650000*%
G04 #@! TD*
G04 #@! TA.AperFunction,ViaPad*
%ADD17C,0.800000*%
G04 #@! TD*
G04 #@! TA.AperFunction,Conductor*
%ADD18C,0.350000*%
G04 #@! TD*
G04 #@! TA.AperFunction,Conductor*
%ADD19C,0.250000*%
G04 #@! TD*
G04 #@! TA.AperFunction,Conductor*
%ADD20C,0.254000*%
G04 #@! TD*
G04 APERTURE END LIST*
D10*
X113101120Y-76560680D03*
D11*
X119941340Y-101918520D03*
X122481340Y-101918520D03*
X125021340Y-101918520D03*
D10*
X103195120Y-84434680D03*
D12*
X103195120Y-81894680D03*
X103195120Y-79354680D03*
X103195120Y-76814680D03*
X103195120Y-74274680D03*
X103195120Y-71734680D03*
X99385120Y-71734680D03*
X99385120Y-74274680D03*
X99385120Y-76814680D03*
X99385120Y-79354680D03*
X99385120Y-81894680D03*
D10*
X99385120Y-84434680D03*
X132405120Y-85196680D03*
D13*
X123070620Y-78973680D03*
X123070620Y-76943680D03*
X121430620Y-76943680D03*
X121430620Y-78973680D03*
D14*
X122430620Y-77958680D03*
D15*
X120330620Y-77958680D03*
D16*
X120330620Y-76993680D03*
X120330620Y-78923680D03*
D10*
X113101120Y-80370680D03*
D17*
X131656120Y-75544680D03*
X131402120Y-81132680D03*
X131135120Y-77068680D03*
X131135120Y-77830680D03*
X131135120Y-78592680D03*
X128849120Y-77068680D03*
X124277120Y-81894680D03*
X122753120Y-98658680D03*
X126817120Y-84447680D03*
X118943120Y-73766680D03*
X107767120Y-68686680D03*
X108529120Y-63860680D03*
X113355120Y-60304680D03*
X114117120Y-72496680D03*
X118435120Y-75544680D03*
X116911120Y-52430680D03*
X119705120Y-52430680D03*
X125801120Y-79100680D03*
X134691120Y-92816680D03*
X113355120Y-71226680D03*
X113355120Y-66146680D03*
X128849120Y-77830680D03*
X129103120Y-106532680D03*
X131643120Y-106532680D03*
X134183120Y-106532680D03*
X136723120Y-106532680D03*
X139263120Y-106532680D03*
X116403120Y-106532680D03*
X113863120Y-106532680D03*
X111323120Y-106532680D03*
X108783120Y-106532680D03*
X106243120Y-106532680D03*
X106243120Y-49382680D03*
X110053120Y-49382680D03*
X113863120Y-49382680D03*
X117673120Y-49382680D03*
X121483120Y-49382680D03*
X125293120Y-49382680D03*
X129103120Y-49382680D03*
X132913120Y-49382680D03*
X136723120Y-49382680D03*
X139263120Y-50652680D03*
X140533120Y-53192680D03*
X142311120Y-56494680D03*
X144089120Y-59288680D03*
X146121120Y-62336680D03*
X147899120Y-65638680D03*
X149677120Y-68686680D03*
X151455120Y-71734680D03*
X152979120Y-74528680D03*
X154503120Y-77576680D03*
X153233120Y-80624680D03*
X151963120Y-83418680D03*
X148407120Y-89768680D03*
X146629120Y-93070680D03*
X144851120Y-95864680D03*
X143327120Y-98912680D03*
X141803120Y-101198680D03*
X140279120Y-103992680D03*
X104719120Y-103992680D03*
X103195120Y-101198680D03*
X101671120Y-98658680D03*
X100147120Y-96118680D03*
X98623120Y-93324680D03*
X97099120Y-90784680D03*
X95575120Y-88244680D03*
X94051120Y-85450680D03*
X92527120Y-82402680D03*
X91003120Y-79862680D03*
X89987120Y-77830680D03*
X91257120Y-75544680D03*
X92781120Y-73258680D03*
X93797120Y-70972680D03*
X95575120Y-68432680D03*
X97099120Y-66146680D03*
X98623120Y-63098680D03*
X100147120Y-60304680D03*
X101925120Y-57764680D03*
X103195120Y-55224680D03*
X104465120Y-52430680D03*
X125801120Y-82402680D03*
X131135120Y-87482680D03*
X132151120Y-87482680D03*
X133167120Y-87482680D03*
X130881120Y-83672680D03*
X135453120Y-84434680D03*
X137485120Y-86974680D03*
X140025120Y-84434680D03*
X142057120Y-86974680D03*
X144343120Y-84434680D03*
X145613120Y-86466680D03*
X133167120Y-98658680D03*
X129357120Y-98658680D03*
X131389120Y-101198680D03*
X137485120Y-99420680D03*
X139771120Y-92562680D03*
X142057120Y-90276680D03*
X137231120Y-90530680D03*
X131643120Y-90530680D03*
X109291120Y-87736680D03*
X111577120Y-89514680D03*
X112847120Y-92308680D03*
X112085120Y-101198680D03*
X108275120Y-96626680D03*
X103957120Y-89768680D03*
X95575120Y-75798680D03*
X100655120Y-68178680D03*
X104465120Y-61828680D03*
X107513120Y-57510680D03*
X111069120Y-54716680D03*
X126563120Y-52938680D03*
X131135120Y-52938680D03*
X136215120Y-53446680D03*
X133929120Y-68940680D03*
X136977120Y-68940680D03*
X140279120Y-68940680D03*
X144089120Y-69194680D03*
X146629120Y-71226680D03*
X147645120Y-74782680D03*
X150439120Y-77322680D03*
X141549120Y-96372680D03*
X135453120Y-103230680D03*
X128087120Y-101452680D03*
X135199120Y-58526680D03*
X139771120Y-58526680D03*
X135707120Y-64876680D03*
X140787120Y-63606680D03*
X132913120Y-61828680D03*
X107513120Y-101198680D03*
X112593120Y-97134680D03*
X108529120Y-91546680D03*
X103195120Y-94086680D03*
X99131120Y-87482680D03*
X140787120Y-79608680D03*
X135707120Y-95864680D03*
X136469120Y-95864680D03*
X136977120Y-93324680D03*
X115387120Y-102976680D03*
X111831120Y-78338680D03*
X114371120Y-78338680D03*
X107767120Y-75544680D03*
X106751120Y-73004680D03*
X105989120Y-81132680D03*
X137739120Y-61828680D03*
X143835120Y-80370680D03*
X143073120Y-82910680D03*
X143835120Y-73258680D03*
X142565120Y-70972680D03*
X127452120Y-80624680D03*
X95321120Y-80370680D03*
X104465120Y-65638680D03*
X134183120Y-79608680D03*
X128087120Y-81386680D03*
X128608121Y-81907681D03*
X134183120Y-83672680D03*
X121737120Y-85450680D03*
X118943120Y-82275680D03*
X120467120Y-80116686D03*
X129090120Y-70464680D03*
X125547120Y-98150680D03*
X120213120Y-98912680D03*
X120962120Y-89006680D03*
X121430620Y-80931180D03*
X127071120Y-92562680D03*
X129611120Y-92816680D03*
X122753120Y-59542680D03*
X127833120Y-59542680D03*
X125801120Y-68940680D03*
X114625120Y-69395680D03*
X116910935Y-89494713D03*
X116403120Y-75544680D03*
X115895120Y-54462680D03*
X121229140Y-53954680D03*
X116403120Y-61828680D03*
X119705120Y-58018680D03*
X116149120Y-70464680D03*
X115735936Y-87482680D03*
X122754416Y-90786303D03*
X111958120Y-68620680D03*
X111831120Y-64114680D03*
X111323120Y-73004680D03*
X109545120Y-76306680D03*
X121483120Y-62349680D03*
X118181120Y-61574680D03*
X115387120Y-66654680D03*
X117165120Y-66908680D03*
X118435120Y-54729680D03*
X122499120Y-66654680D03*
X122753120Y-89768680D03*
X111849120Y-62082680D03*
X130640120Y-81132680D03*
X130881120Y-75798680D03*
X115133120Y-93832680D03*
X132913120Y-77576680D03*
X124023120Y-87482680D03*
X138792211Y-77128466D03*
D18*
X123070620Y-78973680D02*
X125674120Y-78973680D01*
X125674120Y-78973680D02*
X125801120Y-79100680D01*
X126817120Y-84434680D02*
X126817120Y-84447680D01*
X124277120Y-81894680D02*
X126817120Y-84434680D01*
X125801120Y-80370680D02*
X124277120Y-81894680D01*
X125801120Y-79100680D02*
X125801120Y-80370680D01*
X135961120Y-79862680D02*
X135961120Y-83672680D01*
X122430620Y-78333680D02*
X122848370Y-78751430D01*
X122430620Y-77958680D02*
X122430620Y-78333680D01*
X122848370Y-78751430D02*
X123070620Y-78973680D01*
X125801120Y-79100680D02*
X127452120Y-80751680D01*
X135961120Y-79862680D02*
X140533120Y-79862680D01*
X140533120Y-79862680D02*
X140787120Y-79608680D01*
X127452120Y-80751680D02*
X128214120Y-81513680D01*
X135707120Y-79608680D02*
X135961120Y-79862680D01*
X134183120Y-79608680D02*
X135707120Y-79608680D01*
X128214120Y-81513680D02*
X128608121Y-81907681D01*
X128608121Y-81907681D02*
X128608121Y-81907681D01*
X118943120Y-82656680D02*
X118943120Y-82275680D01*
X121737120Y-85450680D02*
X118943120Y-82656680D01*
X120330620Y-79980186D02*
X120467120Y-80116686D01*
X120330620Y-78923680D02*
X120330620Y-79980186D01*
X120330620Y-76993680D02*
X119705120Y-76368180D01*
X119705120Y-76368180D02*
X119705120Y-75544680D01*
X119705120Y-75544680D02*
X120721120Y-74528680D01*
X120721120Y-74528680D02*
X128595120Y-74528680D01*
X128595120Y-74528680D02*
X129357120Y-73766680D01*
X129357120Y-73766680D02*
X129357120Y-70731680D01*
X129357120Y-70731680D02*
X129090120Y-70464680D01*
X125021340Y-101918520D02*
X125021340Y-98676460D01*
X125021340Y-98676460D02*
X125547120Y-98150680D01*
X121483120Y-98912680D02*
X120213120Y-98912680D01*
X122481340Y-101918520D02*
X122481340Y-99910900D01*
X122481340Y-99910900D02*
X121483120Y-98912680D01*
X121430620Y-81842180D02*
X123007120Y-83418680D01*
X123007120Y-83418680D02*
X123007120Y-88244680D01*
X123007120Y-88244680D02*
X122245120Y-89006680D01*
X122245120Y-89006680D02*
X120962120Y-89006680D01*
X121430620Y-80931180D02*
X121430620Y-81842180D01*
X121430620Y-78973680D02*
X121430620Y-80931180D01*
X127071120Y-92562680D02*
X129357120Y-92562680D01*
X129357120Y-92562680D02*
X129611120Y-92816680D01*
X122753120Y-59542680D02*
X125293120Y-59542680D01*
X125293120Y-59542680D02*
X127833120Y-59542680D01*
X125801120Y-68374995D02*
X125801120Y-68940680D01*
X125293120Y-59542680D02*
X125801120Y-60050680D01*
X114625120Y-69395680D02*
X123060120Y-69395680D01*
X125801120Y-60050680D02*
X125801120Y-66654680D01*
X123060120Y-69395680D02*
X125801120Y-66654680D01*
X125801120Y-66654680D02*
X125801120Y-68374995D01*
X120330620Y-77958680D02*
X117414118Y-77958680D01*
X116510936Y-89094714D02*
X116910935Y-89494713D01*
X116403120Y-75544680D02*
X116403120Y-76947682D01*
X116510936Y-77468864D02*
X116717619Y-77262181D01*
X116510936Y-89094714D02*
X116510936Y-77468864D01*
X116403120Y-76947682D02*
X116717619Y-77262181D01*
X116717619Y-77262181D02*
X117414118Y-77958680D01*
X120663455Y-53954680D02*
X121229140Y-53954680D01*
X117415124Y-53954680D02*
X120663455Y-53954680D01*
X116907124Y-54462680D02*
X117415124Y-53954680D01*
X115895120Y-54462680D02*
X116907124Y-54462680D01*
D19*
X116403120Y-61828680D02*
X119705120Y-58526680D01*
X119705120Y-58526680D02*
X119705120Y-58018680D01*
X116149120Y-70464680D02*
X115641120Y-70972680D01*
X115641120Y-70972680D02*
X115641120Y-87736680D01*
X115641120Y-87736680D02*
X115641120Y-87577496D01*
X115641120Y-87577496D02*
X115735936Y-87482680D01*
X122754416Y-90786303D02*
X116276333Y-90786303D01*
X110053120Y-84563090D02*
X110053120Y-77830680D01*
X116276333Y-90786303D02*
X110053120Y-84563090D01*
X111831120Y-68493680D02*
X111958120Y-68620680D01*
X111831120Y-64114680D02*
X111831120Y-68493680D01*
X111958120Y-68620680D02*
X111958120Y-72369680D01*
X111958120Y-72369680D02*
X111323120Y-73004680D01*
X109545120Y-77322680D02*
X110053120Y-77830680D01*
X109545120Y-76306680D02*
X109545120Y-77322680D01*
D18*
X121483120Y-62349680D02*
X120708120Y-61574680D01*
X120708120Y-61574680D02*
X118181120Y-61574680D01*
X115641120Y-66908680D02*
X117165120Y-66908680D01*
X115387120Y-66654680D02*
X115641120Y-66908680D01*
X118435120Y-54729680D02*
X118448120Y-54716680D01*
X118448120Y-54716680D02*
X118943120Y-54716680D01*
X120975120Y-56748680D02*
X120975120Y-59796680D01*
X118943120Y-54716680D02*
X120975120Y-56748680D01*
X120975120Y-59796680D02*
X122499120Y-61320680D01*
X122499120Y-61320680D02*
X122499120Y-66654680D01*
D19*
X116346154Y-90219714D02*
X110561120Y-84434680D01*
X110561120Y-63370680D02*
X111849120Y-62082680D01*
X122753120Y-89768680D02*
X122302086Y-90219714D01*
X110561120Y-84434680D02*
X110561120Y-63370680D01*
X122302086Y-90219714D02*
X116346154Y-90219714D01*
D18*
X130627120Y-81132680D02*
X126438120Y-76943680D01*
X123070620Y-76943680D02*
X126438120Y-76943680D01*
X130627120Y-81132680D02*
X130640120Y-81132680D01*
X130640120Y-81132680D02*
X131402120Y-81132680D01*
X121430620Y-76943680D02*
X122575620Y-75798680D01*
X130627120Y-75798680D02*
X122575620Y-75798680D01*
X130627120Y-75798680D02*
X130881120Y-75798680D01*
X131402120Y-75798680D02*
X131656120Y-75544680D01*
X130881120Y-75798680D02*
X131402120Y-75798680D01*
X150185120Y-86212680D02*
X150185120Y-86212680D01*
X133929120Y-75544680D02*
X132659120Y-76814680D01*
X146375120Y-75544680D02*
X133929120Y-75544680D01*
X115895120Y-94594680D02*
X141803120Y-94594680D01*
X115133120Y-93832680D02*
X115895120Y-94594680D01*
X150185120Y-79354680D02*
X146375120Y-75544680D01*
X132659120Y-76814680D02*
X132659120Y-77322680D01*
X141803120Y-94594680D02*
X150185120Y-86212680D01*
X132659120Y-77322680D02*
X132913120Y-77576680D01*
X150185120Y-86212680D02*
X150185120Y-79354680D01*
X124023120Y-87482680D02*
X125293120Y-88752680D01*
X145672906Y-77128466D02*
X148407120Y-79862680D01*
X148407120Y-79862680D02*
X148407120Y-85450680D01*
X145105120Y-88752680D02*
X128341120Y-88752680D01*
X148407120Y-85450680D02*
X145105120Y-88752680D01*
X125293120Y-88752680D02*
X128341120Y-88752680D01*
X128341120Y-88752680D02*
X129103120Y-88752680D01*
X143013334Y-77128466D02*
X145672906Y-77128466D01*
X143013334Y-77128466D02*
X138792211Y-77128466D01*
X142094211Y-77128466D02*
X143013334Y-77128466D01*
D20*
G36*
X156737896Y-77941800D02*
G01*
X139618951Y-107592500D01*
X127731120Y-107592500D01*
X127731120Y-104369099D01*
X127734313Y-104336680D01*
X127721570Y-104207297D01*
X127683830Y-104082887D01*
X127622545Y-103968230D01*
X127540068Y-103867732D01*
X127439570Y-103785255D01*
X127324913Y-103723970D01*
X127200503Y-103686230D01*
X127103539Y-103676680D01*
X127071120Y-103673487D01*
X127038701Y-103676680D01*
X126421412Y-103676680D01*
X126421412Y-99918520D01*
X126409152Y-99794038D01*
X126372842Y-99674340D01*
X126313877Y-99564026D01*
X126234525Y-99467335D01*
X126137834Y-99387983D01*
X126027520Y-99329018D01*
X125907822Y-99292708D01*
X125831340Y-99285175D01*
X125831340Y-99149422D01*
X125849018Y-99145906D01*
X126037376Y-99067885D01*
X126206894Y-98954617D01*
X126351057Y-98810454D01*
X126464325Y-98640936D01*
X126542346Y-98452578D01*
X126582120Y-98252619D01*
X126582120Y-98048741D01*
X126542346Y-97848782D01*
X126464325Y-97660424D01*
X126351057Y-97490906D01*
X126206894Y-97346743D01*
X126037376Y-97233475D01*
X125849018Y-97155454D01*
X125649059Y-97115680D01*
X125445181Y-97115680D01*
X125245222Y-97155454D01*
X125056864Y-97233475D01*
X124887346Y-97346743D01*
X124743183Y-97490906D01*
X124629915Y-97660424D01*
X124551894Y-97848782D01*
X124514249Y-98038039D01*
X124476723Y-98075565D01*
X124445813Y-98100932D01*
X124420448Y-98131840D01*
X124344591Y-98224271D01*
X124269378Y-98364987D01*
X124239903Y-98462154D01*
X124223061Y-98517673D01*
X124207421Y-98676460D01*
X124211341Y-98716258D01*
X124211341Y-99285175D01*
X124134858Y-99292708D01*
X124015160Y-99329018D01*
X123904846Y-99387983D01*
X123808155Y-99467335D01*
X123751340Y-99536564D01*
X123694525Y-99467335D01*
X123597834Y-99387983D01*
X123487520Y-99329018D01*
X123367822Y-99292708D01*
X123243340Y-99280448D01*
X122996401Y-99280448D01*
X122084019Y-98368067D01*
X122058648Y-98337152D01*
X121935309Y-98235931D01*
X121794593Y-98160717D01*
X121641908Y-98114400D01*
X121522911Y-98102680D01*
X121522908Y-98102680D01*
X121483120Y-98098761D01*
X121443332Y-98102680D01*
X120863820Y-98102680D01*
X120703376Y-97995475D01*
X120515018Y-97917454D01*
X120315059Y-97877680D01*
X120111181Y-97877680D01*
X119911222Y-97917454D01*
X119722864Y-97995475D01*
X119553346Y-98108743D01*
X119409183Y-98252906D01*
X119295915Y-98422424D01*
X119217894Y-98610782D01*
X119178120Y-98810741D01*
X119178120Y-99014619D01*
X119217894Y-99214578D01*
X119245178Y-99280448D01*
X119179340Y-99280448D01*
X119054858Y-99292708D01*
X118935160Y-99329018D01*
X118824846Y-99387983D01*
X118728155Y-99467335D01*
X118648803Y-99564026D01*
X118589838Y-99674340D01*
X118553528Y-99794038D01*
X118541268Y-99918520D01*
X118541268Y-103676680D01*
X117959539Y-103676680D01*
X117927120Y-103673487D01*
X117894701Y-103676680D01*
X117797737Y-103686230D01*
X117673327Y-103723970D01*
X117558670Y-103785255D01*
X117458172Y-103867732D01*
X117375695Y-103968230D01*
X117314410Y-104082887D01*
X117276670Y-104207297D01*
X117263927Y-104336680D01*
X117267121Y-104369109D01*
X117267120Y-107592500D01*
X105381050Y-107592500D01*
X91520042Y-83584680D01*
X97897048Y-83584680D01*
X97897048Y-85284680D01*
X97909308Y-85409162D01*
X97945618Y-85528860D01*
X98004583Y-85639174D01*
X98083935Y-85735865D01*
X98180626Y-85815217D01*
X98290940Y-85874182D01*
X98410638Y-85910492D01*
X98535120Y-85922752D01*
X100235120Y-85922752D01*
X100359602Y-85910492D01*
X100479300Y-85874182D01*
X100589614Y-85815217D01*
X100686305Y-85735865D01*
X100765657Y-85639174D01*
X100824622Y-85528860D01*
X100860932Y-85409162D01*
X100873192Y-85284680D01*
X100873192Y-83584680D01*
X101707048Y-83584680D01*
X101707048Y-85284680D01*
X101719308Y-85409162D01*
X101755618Y-85528860D01*
X101814583Y-85639174D01*
X101893935Y-85735865D01*
X101990626Y-85815217D01*
X102100940Y-85874182D01*
X102220638Y-85910492D01*
X102345120Y-85922752D01*
X104045120Y-85922752D01*
X104169602Y-85910492D01*
X104289300Y-85874182D01*
X104399614Y-85815217D01*
X104496305Y-85735865D01*
X104575657Y-85639174D01*
X104634622Y-85528860D01*
X104670932Y-85409162D01*
X104683192Y-85284680D01*
X104683192Y-83584680D01*
X104670932Y-83460198D01*
X104634622Y-83340500D01*
X104575657Y-83230186D01*
X104496305Y-83133495D01*
X104399614Y-83054143D01*
X104289300Y-82995178D01*
X104216740Y-82973167D01*
X104348595Y-82841312D01*
X104511110Y-82598091D01*
X104623052Y-82327838D01*
X104680120Y-82040940D01*
X104680120Y-81748420D01*
X104623052Y-81461522D01*
X104511110Y-81191269D01*
X104348595Y-80948048D01*
X104141752Y-80741205D01*
X103959586Y-80619485D01*
X104076475Y-80549858D01*
X104292708Y-80354949D01*
X104466761Y-80121600D01*
X104591945Y-79858779D01*
X104636596Y-79711570D01*
X104515275Y-79481680D01*
X103322120Y-79481680D01*
X103322120Y-79501680D01*
X103068120Y-79501680D01*
X103068120Y-79481680D01*
X101874965Y-79481680D01*
X101753644Y-79711570D01*
X101798295Y-79858779D01*
X101923479Y-80121600D01*
X102097532Y-80354949D01*
X102313765Y-80549858D01*
X102430654Y-80619485D01*
X102248488Y-80741205D01*
X102041645Y-80948048D01*
X101879130Y-81191269D01*
X101767188Y-81461522D01*
X101710120Y-81748420D01*
X101710120Y-82040940D01*
X101767188Y-82327838D01*
X101879130Y-82598091D01*
X102041645Y-82841312D01*
X102173500Y-82973167D01*
X102100940Y-82995178D01*
X101990626Y-83054143D01*
X101893935Y-83133495D01*
X101814583Y-83230186D01*
X101755618Y-83340500D01*
X101719308Y-83460198D01*
X101707048Y-83584680D01*
X100873192Y-83584680D01*
X100860932Y-83460198D01*
X100824622Y-83340500D01*
X100765657Y-83230186D01*
X100686305Y-83133495D01*
X100589614Y-83054143D01*
X100479300Y-82995178D01*
X100406740Y-82973167D01*
X100538595Y-82841312D01*
X100701110Y-82598091D01*
X100813052Y-82327838D01*
X100870120Y-82040940D01*
X100870120Y-81748420D01*
X100813052Y-81461522D01*
X100701110Y-81191269D01*
X100538595Y-80948048D01*
X100331752Y-80741205D01*
X100149586Y-80619485D01*
X100266475Y-80549858D01*
X100482708Y-80354949D01*
X100656761Y-80121600D01*
X100781945Y-79858779D01*
X100826596Y-79711570D01*
X100705275Y-79481680D01*
X99512120Y-79481680D01*
X99512120Y-79501680D01*
X99258120Y-79501680D01*
X99258120Y-79481680D01*
X98064965Y-79481680D01*
X97943644Y-79711570D01*
X97988295Y-79858779D01*
X98113479Y-80121600D01*
X98287532Y-80354949D01*
X98503765Y-80549858D01*
X98620654Y-80619485D01*
X98438488Y-80741205D01*
X98231645Y-80948048D01*
X98069130Y-81191269D01*
X97957188Y-81461522D01*
X97900120Y-81748420D01*
X97900120Y-82040940D01*
X97957188Y-82327838D01*
X98069130Y-82598091D01*
X98231645Y-82841312D01*
X98363500Y-82973167D01*
X98290940Y-82995178D01*
X98180626Y-83054143D01*
X98083935Y-83133495D01*
X98004583Y-83230186D01*
X97945618Y-83340500D01*
X97909308Y-83460198D01*
X97897048Y-83584680D01*
X91520042Y-83584680D01*
X88262103Y-77941800D01*
X91930251Y-71588420D01*
X97900120Y-71588420D01*
X97900120Y-71880940D01*
X97957188Y-72167838D01*
X98069130Y-72438091D01*
X98231645Y-72681312D01*
X98438488Y-72888155D01*
X98612880Y-73004680D01*
X98438488Y-73121205D01*
X98231645Y-73328048D01*
X98069130Y-73571269D01*
X97957188Y-73841522D01*
X97900120Y-74128420D01*
X97900120Y-74420940D01*
X97957188Y-74707838D01*
X98069130Y-74978091D01*
X98231645Y-75221312D01*
X98438488Y-75428155D01*
X98612880Y-75544680D01*
X98438488Y-75661205D01*
X98231645Y-75868048D01*
X98069130Y-76111269D01*
X97957188Y-76381522D01*
X97900120Y-76668420D01*
X97900120Y-76960940D01*
X97957188Y-77247838D01*
X98069130Y-77518091D01*
X98231645Y-77761312D01*
X98438488Y-77968155D01*
X98620654Y-78089875D01*
X98503765Y-78159502D01*
X98287532Y-78354411D01*
X98113479Y-78587760D01*
X97988295Y-78850581D01*
X97943644Y-78997790D01*
X98064965Y-79227680D01*
X99258120Y-79227680D01*
X99258120Y-79207680D01*
X99512120Y-79207680D01*
X99512120Y-79227680D01*
X100705275Y-79227680D01*
X100826596Y-78997790D01*
X100781945Y-78850581D01*
X100656761Y-78587760D01*
X100482708Y-78354411D01*
X100266475Y-78159502D01*
X100149586Y-78089875D01*
X100331752Y-77968155D01*
X100538595Y-77761312D01*
X100701110Y-77518091D01*
X100813052Y-77247838D01*
X100870120Y-76960940D01*
X100870120Y-76668420D01*
X100813052Y-76381522D01*
X100701110Y-76111269D01*
X100538595Y-75868048D01*
X100331752Y-75661205D01*
X100157360Y-75544680D01*
X100331752Y-75428155D01*
X100538595Y-75221312D01*
X100701110Y-74978091D01*
X100813052Y-74707838D01*
X100870120Y-74420940D01*
X100870120Y-74128420D01*
X100813052Y-73841522D01*
X100701110Y-73571269D01*
X100538595Y-73328048D01*
X100331752Y-73121205D01*
X100157360Y-73004680D01*
X100331752Y-72888155D01*
X100538595Y-72681312D01*
X100701110Y-72438091D01*
X100813052Y-72167838D01*
X100870120Y-71880940D01*
X100870120Y-71588420D01*
X101710120Y-71588420D01*
X101710120Y-71880940D01*
X101767188Y-72167838D01*
X101879130Y-72438091D01*
X102041645Y-72681312D01*
X102248488Y-72888155D01*
X102422880Y-73004680D01*
X102248488Y-73121205D01*
X102041645Y-73328048D01*
X101879130Y-73571269D01*
X101767188Y-73841522D01*
X101710120Y-74128420D01*
X101710120Y-74420940D01*
X101767188Y-74707838D01*
X101879130Y-74978091D01*
X102041645Y-75221312D01*
X102248488Y-75428155D01*
X102422880Y-75544680D01*
X102248488Y-75661205D01*
X102041645Y-75868048D01*
X101879130Y-76111269D01*
X101767188Y-76381522D01*
X101710120Y-76668420D01*
X101710120Y-76960940D01*
X101767188Y-77247838D01*
X101879130Y-77518091D01*
X102041645Y-77761312D01*
X102248488Y-77968155D01*
X102430654Y-78089875D01*
X102313765Y-78159502D01*
X102097532Y-78354411D01*
X101923479Y-78587760D01*
X101798295Y-78850581D01*
X101753644Y-78997790D01*
X101874965Y-79227680D01*
X103068120Y-79227680D01*
X103068120Y-79207680D01*
X103322120Y-79207680D01*
X103322120Y-79227680D01*
X104515275Y-79227680D01*
X104636596Y-78997790D01*
X104591945Y-78850581D01*
X104466761Y-78587760D01*
X104292708Y-78354411D01*
X104076475Y-78159502D01*
X103959586Y-78089875D01*
X104141752Y-77968155D01*
X104348595Y-77761312D01*
X104511110Y-77518091D01*
X104623052Y-77247838D01*
X104680120Y-76960940D01*
X104680120Y-76668420D01*
X104623052Y-76381522D01*
X104549828Y-76204741D01*
X108510120Y-76204741D01*
X108510120Y-76408619D01*
X108549894Y-76608578D01*
X108627915Y-76796936D01*
X108741183Y-76966454D01*
X108785121Y-77010392D01*
X108785121Y-77285348D01*
X108781444Y-77322680D01*
X108785121Y-77360013D01*
X108796118Y-77471666D01*
X108806682Y-77506490D01*
X108839574Y-77614926D01*
X108910146Y-77746956D01*
X108981321Y-77833682D01*
X109005120Y-77862681D01*
X109034118Y-77886479D01*
X109293121Y-78145483D01*
X109293120Y-84525767D01*
X109289444Y-84563090D01*
X109293120Y-84600412D01*
X109293120Y-84600422D01*
X109304117Y-84712075D01*
X109328030Y-84790906D01*
X109347574Y-84855336D01*
X109418146Y-84987366D01*
X109457991Y-85035916D01*
X109513119Y-85103091D01*
X109542123Y-85126894D01*
X115712534Y-91297306D01*
X115736332Y-91326304D01*
X115852057Y-91421277D01*
X115984086Y-91491849D01*
X116127347Y-91535306D01*
X116239000Y-91546303D01*
X116239009Y-91546303D01*
X116276332Y-91549979D01*
X116313655Y-91546303D01*
X122050705Y-91546303D01*
X122094642Y-91590240D01*
X122264160Y-91703508D01*
X122452518Y-91781529D01*
X122652477Y-91821303D01*
X122856355Y-91821303D01*
X123056314Y-91781529D01*
X123244672Y-91703508D01*
X123414190Y-91590240D01*
X123558353Y-91446077D01*
X123671621Y-91276559D01*
X123749642Y-91088201D01*
X123789416Y-90888242D01*
X123789416Y-90684364D01*
X123749642Y-90484405D01*
X123671621Y-90296047D01*
X123658575Y-90276522D01*
X123670325Y-90258936D01*
X123748346Y-90070578D01*
X123788120Y-89870619D01*
X123788120Y-89666741D01*
X123748346Y-89466782D01*
X123670325Y-89278424D01*
X123557057Y-89108906D01*
X123422732Y-88974581D01*
X123551738Y-88845575D01*
X123582648Y-88820208D01*
X123683869Y-88696869D01*
X123759083Y-88556153D01*
X123779314Y-88489461D01*
X123910479Y-88515551D01*
X124692225Y-89297298D01*
X124717592Y-89328208D01*
X124785330Y-89383799D01*
X124840930Y-89429429D01*
X124897590Y-89459714D01*
X124981647Y-89504643D01*
X125134332Y-89550960D01*
X125253329Y-89562680D01*
X125253331Y-89562680D01*
X125293119Y-89566599D01*
X125332907Y-89562680D01*
X145065332Y-89562680D01*
X145105120Y-89566599D01*
X145144908Y-89562680D01*
X145144911Y-89562680D01*
X145263908Y-89550960D01*
X145416593Y-89504643D01*
X145557309Y-89429429D01*
X145680648Y-89328208D01*
X145706020Y-89297292D01*
X148951740Y-86051573D01*
X148982648Y-86026208D01*
X149038239Y-85958470D01*
X149083869Y-85902870D01*
X149159082Y-85762154D01*
X149159083Y-85762153D01*
X149205400Y-85609468D01*
X149217120Y-85490471D01*
X149217120Y-85490469D01*
X149221039Y-85450681D01*
X149217120Y-85410893D01*
X149217120Y-79902471D01*
X149221039Y-79862680D01*
X149205400Y-79703892D01*
X149159083Y-79551206D01*
X149083869Y-79410491D01*
X149057542Y-79378411D01*
X149031015Y-79346088D01*
X149375121Y-79690194D01*
X149375120Y-85877167D01*
X141467608Y-93784680D01*
X129978747Y-93784680D01*
X130101376Y-93733885D01*
X130270894Y-93620617D01*
X130415057Y-93476454D01*
X130528325Y-93306936D01*
X130606346Y-93118578D01*
X130646120Y-92918619D01*
X130646120Y-92714741D01*
X130606346Y-92514782D01*
X130528325Y-92326424D01*
X130415057Y-92156906D01*
X130270894Y-92012743D01*
X130101376Y-91899475D01*
X129913018Y-91821454D01*
X129713059Y-91781680D01*
X129572872Y-91781680D01*
X129515908Y-91764400D01*
X129396911Y-91752680D01*
X129396908Y-91752680D01*
X129357120Y-91748761D01*
X129317332Y-91752680D01*
X127721820Y-91752680D01*
X127561376Y-91645475D01*
X127373018Y-91567454D01*
X127173059Y-91527680D01*
X126969181Y-91527680D01*
X126769222Y-91567454D01*
X126580864Y-91645475D01*
X126411346Y-91758743D01*
X126267183Y-91902906D01*
X126153915Y-92072424D01*
X126075894Y-92260782D01*
X126036120Y-92460741D01*
X126036120Y-92664619D01*
X126075894Y-92864578D01*
X126153915Y-93052936D01*
X126267183Y-93222454D01*
X126411346Y-93366617D01*
X126580864Y-93479885D01*
X126769222Y-93557906D01*
X126969181Y-93597680D01*
X127173059Y-93597680D01*
X127373018Y-93557906D01*
X127561376Y-93479885D01*
X127721820Y-93372680D01*
X128737844Y-93372680D01*
X128807183Y-93476454D01*
X128951346Y-93620617D01*
X129120864Y-93733885D01*
X129243493Y-93784680D01*
X116230633Y-93784680D01*
X116165991Y-93720039D01*
X116128346Y-93530782D01*
X116050325Y-93342424D01*
X115937057Y-93172906D01*
X115792894Y-93028743D01*
X115623376Y-92915475D01*
X115435018Y-92837454D01*
X115235059Y-92797680D01*
X115031181Y-92797680D01*
X114831222Y-92837454D01*
X114642864Y-92915475D01*
X114473346Y-93028743D01*
X114329183Y-93172906D01*
X114215915Y-93342424D01*
X114137894Y-93530782D01*
X114098120Y-93730741D01*
X114098120Y-93934619D01*
X114137894Y-94134578D01*
X114215915Y-94322936D01*
X114329183Y-94492454D01*
X114473346Y-94636617D01*
X114642864Y-94749885D01*
X114831222Y-94827906D01*
X115020479Y-94865551D01*
X115294225Y-95139298D01*
X115319592Y-95170208D01*
X115442931Y-95271429D01*
X115583647Y-95346643D01*
X115736332Y-95392960D01*
X115855329Y-95404680D01*
X115855332Y-95404680D01*
X115895120Y-95408599D01*
X115934908Y-95404680D01*
X141763332Y-95404680D01*
X141803120Y-95408599D01*
X141842908Y-95404680D01*
X141842911Y-95404680D01*
X141961908Y-95392960D01*
X142114593Y-95346643D01*
X142255309Y-95271429D01*
X142378648Y-95170208D01*
X142404020Y-95139292D01*
X150729738Y-86813575D01*
X150760648Y-86788208D01*
X150845840Y-86684401D01*
X150861869Y-86664870D01*
X150937082Y-86524154D01*
X150937083Y-86524153D01*
X150983400Y-86371468D01*
X150999039Y-86212680D01*
X150995120Y-86172889D01*
X150995120Y-79394468D01*
X150999039Y-79354680D01*
X150993992Y-79303437D01*
X150983400Y-79195892D01*
X150946729Y-79075004D01*
X150937083Y-79043206D01*
X150861869Y-78902491D01*
X150846603Y-78883889D01*
X150760648Y-78779152D01*
X150729738Y-78753785D01*
X146976020Y-75000068D01*
X146950648Y-74969152D01*
X146827309Y-74867931D01*
X146686593Y-74792717D01*
X146533908Y-74746400D01*
X146414911Y-74734680D01*
X146414908Y-74734680D01*
X146375120Y-74730761D01*
X146335332Y-74734680D01*
X142692120Y-74734680D01*
X142692120Y-74226680D01*
X142691920Y-74219559D01*
X142673057Y-73883666D01*
X142671463Y-73869514D01*
X142615110Y-73537844D01*
X142611940Y-73523959D01*
X142518806Y-73200685D01*
X142514103Y-73187242D01*
X142385360Y-72876428D01*
X142379180Y-72863597D01*
X142216446Y-72569152D01*
X142208869Y-72557093D01*
X142014190Y-72282720D01*
X142005311Y-72271585D01*
X141781137Y-72020734D01*
X141771066Y-72010663D01*
X141520215Y-71786489D01*
X141509080Y-71777610D01*
X141234707Y-71582931D01*
X141222648Y-71575354D01*
X140928203Y-71412620D01*
X140915372Y-71406440D01*
X140604558Y-71277697D01*
X140591115Y-71272994D01*
X140267841Y-71179860D01*
X140253956Y-71176690D01*
X139922286Y-71120337D01*
X139908134Y-71118743D01*
X139572241Y-71099880D01*
X139565120Y-71099680D01*
X133524220Y-71099680D01*
X133516667Y-71099905D01*
X133160464Y-71121127D01*
X133145465Y-71122920D01*
X132794301Y-71186285D01*
X132779621Y-71189847D01*
X132438466Y-71294459D01*
X132424313Y-71299739D01*
X132097991Y-71444118D01*
X132084564Y-71451041D01*
X131777694Y-71633145D01*
X131765185Y-71641613D01*
X131482107Y-71858864D01*
X131476252Y-71863640D01*
X130167120Y-72998221D01*
X130167120Y-70771467D01*
X130171039Y-70731679D01*
X130165992Y-70680434D01*
X130155400Y-70572892D01*
X130125120Y-70473073D01*
X130125120Y-70362741D01*
X130085346Y-70162782D01*
X130007325Y-69974424D01*
X129894057Y-69804906D01*
X129749894Y-69660743D01*
X129580376Y-69547475D01*
X129392018Y-69469454D01*
X129192059Y-69429680D01*
X128988181Y-69429680D01*
X128788222Y-69469454D01*
X128599864Y-69547475D01*
X128430346Y-69660743D01*
X128286183Y-69804906D01*
X128172915Y-69974424D01*
X128094894Y-70162782D01*
X128055120Y-70362741D01*
X128055120Y-70566619D01*
X128094894Y-70766578D01*
X128172915Y-70954936D01*
X128286183Y-71124454D01*
X128430346Y-71268617D01*
X128547121Y-71346643D01*
X128547120Y-73431167D01*
X128259608Y-73718680D01*
X120848120Y-73718680D01*
X120848120Y-70205680D01*
X123020332Y-70205680D01*
X123060120Y-70209599D01*
X123099908Y-70205680D01*
X123099911Y-70205680D01*
X123218908Y-70193960D01*
X123371593Y-70147643D01*
X123512309Y-70072429D01*
X123635648Y-69971208D01*
X123661020Y-69940293D01*
X124767001Y-68834311D01*
X124766120Y-68838741D01*
X124766120Y-69042619D01*
X124805894Y-69242578D01*
X124883915Y-69430936D01*
X124997183Y-69600454D01*
X125141346Y-69744617D01*
X125310864Y-69857885D01*
X125499222Y-69935906D01*
X125699181Y-69975680D01*
X125903059Y-69975680D01*
X126103018Y-69935906D01*
X126291376Y-69857885D01*
X126460894Y-69744617D01*
X126605057Y-69600454D01*
X126718325Y-69430936D01*
X126796346Y-69242578D01*
X126836120Y-69042619D01*
X126836120Y-68838741D01*
X126796346Y-68638782D01*
X126718325Y-68450424D01*
X126611120Y-68289980D01*
X126611120Y-66694469D01*
X126615039Y-66654681D01*
X126611120Y-66614889D01*
X126611120Y-60352680D01*
X127182420Y-60352680D01*
X127342864Y-60459885D01*
X127531222Y-60537906D01*
X127731181Y-60577680D01*
X127935059Y-60577680D01*
X128135018Y-60537906D01*
X128323376Y-60459885D01*
X128492894Y-60346617D01*
X128637057Y-60202454D01*
X128750325Y-60032936D01*
X128828346Y-59844578D01*
X128868120Y-59644619D01*
X128868120Y-59440741D01*
X128828346Y-59240782D01*
X128750325Y-59052424D01*
X128637057Y-58882906D01*
X128492894Y-58738743D01*
X128323376Y-58625475D01*
X128135018Y-58547454D01*
X127935059Y-58507680D01*
X127731181Y-58507680D01*
X127531222Y-58547454D01*
X127342864Y-58625475D01*
X127182420Y-58732680D01*
X125332908Y-58732680D01*
X125293120Y-58728761D01*
X125253332Y-58732680D01*
X123403820Y-58732680D01*
X123243376Y-58625475D01*
X123055018Y-58547454D01*
X122855059Y-58507680D01*
X122651181Y-58507680D01*
X122451222Y-58547454D01*
X122262864Y-58625475D01*
X122093346Y-58738743D01*
X121949183Y-58882906D01*
X121835915Y-59052424D01*
X121785120Y-59175053D01*
X121785120Y-56788468D01*
X121789039Y-56748680D01*
X121785120Y-56708889D01*
X121773400Y-56589892D01*
X121727083Y-56437207D01*
X121651870Y-56296492D01*
X121651869Y-56296490D01*
X121576013Y-56204060D01*
X121550648Y-56173152D01*
X121519739Y-56147786D01*
X120136632Y-54764680D01*
X120578440Y-54764680D01*
X120738884Y-54871885D01*
X120927242Y-54949906D01*
X121127201Y-54989680D01*
X121331079Y-54989680D01*
X121531038Y-54949906D01*
X121719396Y-54871885D01*
X121888914Y-54758617D01*
X122033077Y-54614454D01*
X122146345Y-54444936D01*
X122224366Y-54256578D01*
X122264140Y-54056619D01*
X122264140Y-53852741D01*
X122224366Y-53652782D01*
X122146345Y-53464424D01*
X122033077Y-53294906D01*
X121888914Y-53150743D01*
X121719396Y-53037475D01*
X121531038Y-52959454D01*
X121331079Y-52919680D01*
X121127201Y-52919680D01*
X120927242Y-52959454D01*
X120738884Y-53037475D01*
X120578440Y-53144680D01*
X117454911Y-53144680D01*
X117415123Y-53140761D01*
X117375335Y-53144680D01*
X117375333Y-53144680D01*
X117256336Y-53156400D01*
X117103651Y-53202717D01*
X116962935Y-53277931D01*
X116839596Y-53379152D01*
X116814224Y-53410068D01*
X116571612Y-53652680D01*
X116545820Y-53652680D01*
X116385376Y-53545475D01*
X116197018Y-53467454D01*
X115997059Y-53427680D01*
X115793181Y-53427680D01*
X115593222Y-53467454D01*
X115404864Y-53545475D01*
X115235346Y-53658743D01*
X115091183Y-53802906D01*
X114977915Y-53972424D01*
X114899894Y-54160782D01*
X114860120Y-54360741D01*
X114860120Y-54564619D01*
X114899894Y-54764578D01*
X114977915Y-54952936D01*
X115091183Y-55122454D01*
X115235346Y-55266617D01*
X115404864Y-55379885D01*
X115593222Y-55457906D01*
X115793181Y-55497680D01*
X115997059Y-55497680D01*
X116197018Y-55457906D01*
X116385376Y-55379885D01*
X116545820Y-55272680D01*
X116867336Y-55272680D01*
X116907124Y-55276599D01*
X116946912Y-55272680D01*
X116946915Y-55272680D01*
X117065912Y-55260960D01*
X117218597Y-55214643D01*
X117359313Y-55139429D01*
X117452791Y-55062714D01*
X117517915Y-55219936D01*
X117631183Y-55389454D01*
X117775346Y-55533617D01*
X117944864Y-55646885D01*
X118133222Y-55724906D01*
X118333181Y-55764680D01*
X118537059Y-55764680D01*
X118737018Y-55724906D01*
X118785678Y-55704750D01*
X120165120Y-57084193D01*
X120165120Y-57088943D01*
X120007018Y-57023454D01*
X119807059Y-56983680D01*
X119603181Y-56983680D01*
X119403222Y-57023454D01*
X119214864Y-57101475D01*
X119045346Y-57214743D01*
X118901183Y-57358906D01*
X118787915Y-57528424D01*
X118709894Y-57716782D01*
X118670120Y-57916741D01*
X118670120Y-58120619D01*
X118709894Y-58320578D01*
X118746953Y-58410045D01*
X116363319Y-60793680D01*
X116301181Y-60793680D01*
X116101222Y-60833454D01*
X115912864Y-60911475D01*
X115743346Y-61024743D01*
X115599183Y-61168906D01*
X115485915Y-61338424D01*
X115407894Y-61526782D01*
X115368120Y-61726741D01*
X115368120Y-61930619D01*
X115407894Y-62130578D01*
X115485915Y-62318936D01*
X115599183Y-62488454D01*
X115743346Y-62632617D01*
X115912864Y-62745885D01*
X116101222Y-62823906D01*
X116301181Y-62863680D01*
X116505059Y-62863680D01*
X116705018Y-62823906D01*
X116893376Y-62745885D01*
X117062894Y-62632617D01*
X117207057Y-62488454D01*
X117320325Y-62318936D01*
X117363686Y-62214254D01*
X117377183Y-62234454D01*
X117521346Y-62378617D01*
X117690864Y-62491885D01*
X117879222Y-62569906D01*
X118079181Y-62609680D01*
X118283059Y-62609680D01*
X118483018Y-62569906D01*
X118671376Y-62491885D01*
X118831820Y-62384680D01*
X120372608Y-62384680D01*
X120450249Y-62462321D01*
X120487894Y-62651578D01*
X120565915Y-62839936D01*
X120679183Y-63009454D01*
X120823346Y-63153617D01*
X120992864Y-63266885D01*
X121181222Y-63344906D01*
X121381181Y-63384680D01*
X121585059Y-63384680D01*
X121689120Y-63363981D01*
X121689121Y-66003979D01*
X121581915Y-66164424D01*
X121503894Y-66352782D01*
X121464120Y-66552741D01*
X121464120Y-66756619D01*
X121503894Y-66956578D01*
X121581915Y-67144936D01*
X121695183Y-67314454D01*
X121839346Y-67458617D01*
X122008864Y-67571885D01*
X122197222Y-67649906D01*
X122397181Y-67689680D01*
X122601059Y-67689680D01*
X122801018Y-67649906D01*
X122989376Y-67571885D01*
X123158894Y-67458617D01*
X123303057Y-67314454D01*
X123416325Y-67144936D01*
X123494346Y-66956578D01*
X123534120Y-66756619D01*
X123534120Y-66552741D01*
X123494346Y-66352782D01*
X123416325Y-66164424D01*
X123309120Y-66003980D01*
X123309120Y-61360467D01*
X123313039Y-61320679D01*
X123309120Y-61280889D01*
X123297400Y-61161892D01*
X123251083Y-61009207D01*
X123175869Y-60868491D01*
X123074648Y-60745152D01*
X123043739Y-60719786D01*
X122893906Y-60569953D01*
X123055018Y-60537906D01*
X123243376Y-60459885D01*
X123403820Y-60352680D01*
X124957608Y-60352680D01*
X124991120Y-60386192D01*
X124991121Y-66319166D01*
X122724608Y-68585680D01*
X115275820Y-68585680D01*
X115115376Y-68478475D01*
X114927018Y-68400454D01*
X114727059Y-68360680D01*
X114523181Y-68360680D01*
X114323222Y-68400454D01*
X114134864Y-68478475D01*
X113965346Y-68591743D01*
X113821183Y-68735906D01*
X113707915Y-68905424D01*
X113629894Y-69093782D01*
X113590120Y-69293741D01*
X113590120Y-69497619D01*
X113629894Y-69697578D01*
X113707915Y-69885936D01*
X113821183Y-70055454D01*
X113965346Y-70199617D01*
X114134864Y-70312885D01*
X114323222Y-70390906D01*
X114523181Y-70430680D01*
X114727059Y-70430680D01*
X114927018Y-70390906D01*
X115115376Y-70312885D01*
X115125364Y-70306211D01*
X115114120Y-70362741D01*
X115114120Y-70422009D01*
X115101119Y-70432679D01*
X115074857Y-70464680D01*
X115006146Y-70548404D01*
X114971262Y-70613667D01*
X114935574Y-70680434D01*
X114892117Y-70823695D01*
X114881120Y-70935348D01*
X114881120Y-70935358D01*
X114877444Y-70972680D01*
X114881120Y-71010002D01*
X114881121Y-86899051D01*
X114818731Y-86992424D01*
X114740710Y-87180782D01*
X114700936Y-87380741D01*
X114700936Y-87499694D01*
X111321120Y-84119879D01*
X111321120Y-79520680D01*
X111613048Y-79520680D01*
X111613048Y-81220680D01*
X111625308Y-81345162D01*
X111661618Y-81464860D01*
X111720583Y-81575174D01*
X111799935Y-81671865D01*
X111896626Y-81751217D01*
X112006940Y-81810182D01*
X112126638Y-81846492D01*
X112251120Y-81858752D01*
X113951120Y-81858752D01*
X114075602Y-81846492D01*
X114195300Y-81810182D01*
X114305614Y-81751217D01*
X114402305Y-81671865D01*
X114481657Y-81575174D01*
X114540622Y-81464860D01*
X114576932Y-81345162D01*
X114589192Y-81220680D01*
X114589192Y-79520680D01*
X114576932Y-79396198D01*
X114540622Y-79276500D01*
X114481657Y-79166186D01*
X114402305Y-79069495D01*
X114305614Y-78990143D01*
X114195300Y-78931178D01*
X114075602Y-78894868D01*
X113951120Y-78882608D01*
X112251120Y-78882608D01*
X112126638Y-78894868D01*
X112006940Y-78931178D01*
X111896626Y-78990143D01*
X111799935Y-79069495D01*
X111720583Y-79166186D01*
X111661618Y-79276500D01*
X111625308Y-79396198D01*
X111613048Y-79520680D01*
X111321120Y-79520680D01*
X111321120Y-75710680D01*
X111613048Y-75710680D01*
X111613048Y-77410680D01*
X111625308Y-77535162D01*
X111661618Y-77654860D01*
X111720583Y-77765174D01*
X111799935Y-77861865D01*
X111896626Y-77941217D01*
X112006940Y-78000182D01*
X112126638Y-78036492D01*
X112251120Y-78048752D01*
X113951120Y-78048752D01*
X114075602Y-78036492D01*
X114195300Y-78000182D01*
X114305614Y-77941217D01*
X114402305Y-77861865D01*
X114481657Y-77765174D01*
X114540622Y-77654860D01*
X114576932Y-77535162D01*
X114589192Y-77410680D01*
X114589192Y-75710680D01*
X114576932Y-75586198D01*
X114540622Y-75466500D01*
X114481657Y-75356186D01*
X114402305Y-75259495D01*
X114305614Y-75180143D01*
X114195300Y-75121178D01*
X114075602Y-75084868D01*
X113951120Y-75072608D01*
X112251120Y-75072608D01*
X112126638Y-75084868D01*
X112006940Y-75121178D01*
X111896626Y-75180143D01*
X111799935Y-75259495D01*
X111720583Y-75356186D01*
X111661618Y-75466500D01*
X111625308Y-75586198D01*
X111613048Y-75710680D01*
X111321120Y-75710680D01*
X111321120Y-74039680D01*
X111425059Y-74039680D01*
X111625018Y-73999906D01*
X111813376Y-73921885D01*
X111982894Y-73808617D01*
X112127057Y-73664454D01*
X112240325Y-73494936D01*
X112318346Y-73306578D01*
X112358120Y-73106619D01*
X112358120Y-73044482D01*
X112469122Y-72933480D01*
X112498121Y-72909681D01*
X112593094Y-72793956D01*
X112663666Y-72661927D01*
X112707123Y-72518666D01*
X112718120Y-72407013D01*
X112721797Y-72369680D01*
X112718120Y-72332347D01*
X112718120Y-69324391D01*
X112762057Y-69280454D01*
X112875325Y-69110936D01*
X112953346Y-68922578D01*
X112993120Y-68722619D01*
X112993120Y-68518741D01*
X112953346Y-68318782D01*
X112875325Y-68130424D01*
X112762057Y-67960906D01*
X112617894Y-67816743D01*
X112591120Y-67798853D01*
X112591120Y-66552741D01*
X114352120Y-66552741D01*
X114352120Y-66756619D01*
X114391894Y-66956578D01*
X114469915Y-67144936D01*
X114583183Y-67314454D01*
X114727346Y-67458617D01*
X114896864Y-67571885D01*
X115085222Y-67649906D01*
X115285181Y-67689680D01*
X115425368Y-67689680D01*
X115482332Y-67706960D01*
X115601329Y-67718680D01*
X115601331Y-67718680D01*
X115641119Y-67722599D01*
X115680907Y-67718680D01*
X116514420Y-67718680D01*
X116674864Y-67825885D01*
X116863222Y-67903906D01*
X117063181Y-67943680D01*
X117267059Y-67943680D01*
X117467018Y-67903906D01*
X117655376Y-67825885D01*
X117824894Y-67712617D01*
X117969057Y-67568454D01*
X118082325Y-67398936D01*
X118160346Y-67210578D01*
X118200120Y-67010619D01*
X118200120Y-66806741D01*
X118160346Y-66606782D01*
X118082325Y-66418424D01*
X117969057Y-66248906D01*
X117824894Y-66104743D01*
X117655376Y-65991475D01*
X117467018Y-65913454D01*
X117267059Y-65873680D01*
X117063181Y-65873680D01*
X116863222Y-65913454D01*
X116674864Y-65991475D01*
X116514420Y-66098680D01*
X116260396Y-66098680D01*
X116191057Y-65994906D01*
X116046894Y-65850743D01*
X115877376Y-65737475D01*
X115689018Y-65659454D01*
X115489059Y-65619680D01*
X115285181Y-65619680D01*
X115085222Y-65659454D01*
X114896864Y-65737475D01*
X114727346Y-65850743D01*
X114583183Y-65994906D01*
X114469915Y-66164424D01*
X114391894Y-66352782D01*
X114352120Y-66552741D01*
X112591120Y-66552741D01*
X112591120Y-64818391D01*
X112635057Y-64774454D01*
X112748325Y-64604936D01*
X112826346Y-64416578D01*
X112866120Y-64216619D01*
X112866120Y-64012741D01*
X112826346Y-63812782D01*
X112748325Y-63624424D01*
X112635057Y-63454906D01*
X112490894Y-63310743D01*
X112321376Y-63197475D01*
X112133018Y-63119454D01*
X112037579Y-63100470D01*
X112151018Y-63077906D01*
X112339376Y-62999885D01*
X112508894Y-62886617D01*
X112653057Y-62742454D01*
X112766325Y-62572936D01*
X112844346Y-62384578D01*
X112884120Y-62184619D01*
X112884120Y-61980741D01*
X112844346Y-61780782D01*
X112766325Y-61592424D01*
X112653057Y-61422906D01*
X112508894Y-61278743D01*
X112339376Y-61165475D01*
X112151018Y-61087454D01*
X111951059Y-61047680D01*
X111747181Y-61047680D01*
X111547222Y-61087454D01*
X111358864Y-61165475D01*
X111189346Y-61278743D01*
X111045183Y-61422906D01*
X110931915Y-61592424D01*
X110853894Y-61780782D01*
X110814120Y-61980741D01*
X110814120Y-62042878D01*
X110050118Y-62806881D01*
X110021120Y-62830679D01*
X109997322Y-62859677D01*
X109997321Y-62859678D01*
X109926146Y-62946404D01*
X109855574Y-63078434D01*
X109812118Y-63221695D01*
X109797444Y-63370680D01*
X109801121Y-63408013D01*
X109801120Y-75302324D01*
X109647059Y-75271680D01*
X109443181Y-75271680D01*
X109243222Y-75311454D01*
X109054864Y-75389475D01*
X108885346Y-75502743D01*
X108741183Y-75646906D01*
X108627915Y-75816424D01*
X108549894Y-76004782D01*
X108510120Y-76204741D01*
X104549828Y-76204741D01*
X104511110Y-76111269D01*
X104348595Y-75868048D01*
X104141752Y-75661205D01*
X103967360Y-75544680D01*
X104141752Y-75428155D01*
X104348595Y-75221312D01*
X104511110Y-74978091D01*
X104623052Y-74707838D01*
X104680120Y-74420940D01*
X104680120Y-74128420D01*
X104623052Y-73841522D01*
X104511110Y-73571269D01*
X104348595Y-73328048D01*
X104141752Y-73121205D01*
X103967360Y-73004680D01*
X104141752Y-72888155D01*
X104348595Y-72681312D01*
X104511110Y-72438091D01*
X104623052Y-72167838D01*
X104680120Y-71880940D01*
X104680120Y-71588420D01*
X104623052Y-71301522D01*
X104511110Y-71031269D01*
X104348595Y-70788048D01*
X104141752Y-70581205D01*
X103898531Y-70418690D01*
X103628278Y-70306748D01*
X103341380Y-70249680D01*
X103048860Y-70249680D01*
X102761962Y-70306748D01*
X102491709Y-70418690D01*
X102248488Y-70581205D01*
X102041645Y-70788048D01*
X101879130Y-71031269D01*
X101767188Y-71301522D01*
X101710120Y-71588420D01*
X100870120Y-71588420D01*
X100813052Y-71301522D01*
X100701110Y-71031269D01*
X100538595Y-70788048D01*
X100331752Y-70581205D01*
X100088531Y-70418690D01*
X99818278Y-70306748D01*
X99531380Y-70249680D01*
X99238860Y-70249680D01*
X98951962Y-70306748D01*
X98681709Y-70418690D01*
X98438488Y-70581205D01*
X98231645Y-70788048D01*
X98069130Y-71031269D01*
X97957188Y-71301522D01*
X97900120Y-71588420D01*
X91930251Y-71588420D01*
X105381050Y-48291100D01*
X139618951Y-48291100D01*
X156737896Y-77941800D01*
G37*
X156737896Y-77941800D02*
X139618951Y-107592500D01*
X127731120Y-107592500D01*
X127731120Y-104369099D01*
X127734313Y-104336680D01*
X127721570Y-104207297D01*
X127683830Y-104082887D01*
X127622545Y-103968230D01*
X127540068Y-103867732D01*
X127439570Y-103785255D01*
X127324913Y-103723970D01*
X127200503Y-103686230D01*
X127103539Y-103676680D01*
X127071120Y-103673487D01*
X127038701Y-103676680D01*
X126421412Y-103676680D01*
X126421412Y-99918520D01*
X126409152Y-99794038D01*
X126372842Y-99674340D01*
X126313877Y-99564026D01*
X126234525Y-99467335D01*
X126137834Y-99387983D01*
X126027520Y-99329018D01*
X125907822Y-99292708D01*
X125831340Y-99285175D01*
X125831340Y-99149422D01*
X125849018Y-99145906D01*
X126037376Y-99067885D01*
X126206894Y-98954617D01*
X126351057Y-98810454D01*
X126464325Y-98640936D01*
X126542346Y-98452578D01*
X126582120Y-98252619D01*
X126582120Y-98048741D01*
X126542346Y-97848782D01*
X126464325Y-97660424D01*
X126351057Y-97490906D01*
X126206894Y-97346743D01*
X126037376Y-97233475D01*
X125849018Y-97155454D01*
X125649059Y-97115680D01*
X125445181Y-97115680D01*
X125245222Y-97155454D01*
X125056864Y-97233475D01*
X124887346Y-97346743D01*
X124743183Y-97490906D01*
X124629915Y-97660424D01*
X124551894Y-97848782D01*
X124514249Y-98038039D01*
X124476723Y-98075565D01*
X124445813Y-98100932D01*
X124420448Y-98131840D01*
X124344591Y-98224271D01*
X124269378Y-98364987D01*
X124239903Y-98462154D01*
X124223061Y-98517673D01*
X124207421Y-98676460D01*
X124211341Y-98716258D01*
X124211341Y-99285175D01*
X124134858Y-99292708D01*
X124015160Y-99329018D01*
X123904846Y-99387983D01*
X123808155Y-99467335D01*
X123751340Y-99536564D01*
X123694525Y-99467335D01*
X123597834Y-99387983D01*
X123487520Y-99329018D01*
X123367822Y-99292708D01*
X123243340Y-99280448D01*
X122996401Y-99280448D01*
X122084019Y-98368067D01*
X122058648Y-98337152D01*
X121935309Y-98235931D01*
X121794593Y-98160717D01*
X121641908Y-98114400D01*
X121522911Y-98102680D01*
X121522908Y-98102680D01*
X121483120Y-98098761D01*
X121443332Y-98102680D01*
X120863820Y-98102680D01*
X120703376Y-97995475D01*
X120515018Y-97917454D01*
X120315059Y-97877680D01*
X120111181Y-97877680D01*
X119911222Y-97917454D01*
X119722864Y-97995475D01*
X119553346Y-98108743D01*
X119409183Y-98252906D01*
X119295915Y-98422424D01*
X119217894Y-98610782D01*
X119178120Y-98810741D01*
X119178120Y-99014619D01*
X119217894Y-99214578D01*
X119245178Y-99280448D01*
X119179340Y-99280448D01*
X119054858Y-99292708D01*
X118935160Y-99329018D01*
X118824846Y-99387983D01*
X118728155Y-99467335D01*
X118648803Y-99564026D01*
X118589838Y-99674340D01*
X118553528Y-99794038D01*
X118541268Y-99918520D01*
X118541268Y-103676680D01*
X117959539Y-103676680D01*
X117927120Y-103673487D01*
X117894701Y-103676680D01*
X117797737Y-103686230D01*
X117673327Y-103723970D01*
X117558670Y-103785255D01*
X117458172Y-103867732D01*
X117375695Y-103968230D01*
X117314410Y-104082887D01*
X117276670Y-104207297D01*
X117263927Y-104336680D01*
X117267121Y-104369109D01*
X117267120Y-107592500D01*
X105381050Y-107592500D01*
X91520042Y-83584680D01*
X97897048Y-83584680D01*
X97897048Y-85284680D01*
X97909308Y-85409162D01*
X97945618Y-85528860D01*
X98004583Y-85639174D01*
X98083935Y-85735865D01*
X98180626Y-85815217D01*
X98290940Y-85874182D01*
X98410638Y-85910492D01*
X98535120Y-85922752D01*
X100235120Y-85922752D01*
X100359602Y-85910492D01*
X100479300Y-85874182D01*
X100589614Y-85815217D01*
X100686305Y-85735865D01*
X100765657Y-85639174D01*
X100824622Y-85528860D01*
X100860932Y-85409162D01*
X100873192Y-85284680D01*
X100873192Y-83584680D01*
X101707048Y-83584680D01*
X101707048Y-85284680D01*
X101719308Y-85409162D01*
X101755618Y-85528860D01*
X101814583Y-85639174D01*
X101893935Y-85735865D01*
X101990626Y-85815217D01*
X102100940Y-85874182D01*
X102220638Y-85910492D01*
X102345120Y-85922752D01*
X104045120Y-85922752D01*
X104169602Y-85910492D01*
X104289300Y-85874182D01*
X104399614Y-85815217D01*
X104496305Y-85735865D01*
X104575657Y-85639174D01*
X104634622Y-85528860D01*
X104670932Y-85409162D01*
X104683192Y-85284680D01*
X104683192Y-83584680D01*
X104670932Y-83460198D01*
X104634622Y-83340500D01*
X104575657Y-83230186D01*
X104496305Y-83133495D01*
X104399614Y-83054143D01*
X104289300Y-82995178D01*
X104216740Y-82973167D01*
X104348595Y-82841312D01*
X104511110Y-82598091D01*
X104623052Y-82327838D01*
X104680120Y-82040940D01*
X104680120Y-81748420D01*
X104623052Y-81461522D01*
X104511110Y-81191269D01*
X104348595Y-80948048D01*
X104141752Y-80741205D01*
X103959586Y-80619485D01*
X104076475Y-80549858D01*
X104292708Y-80354949D01*
X104466761Y-80121600D01*
X104591945Y-79858779D01*
X104636596Y-79711570D01*
X104515275Y-79481680D01*
X103322120Y-79481680D01*
X103322120Y-79501680D01*
X103068120Y-79501680D01*
X103068120Y-79481680D01*
X101874965Y-79481680D01*
X101753644Y-79711570D01*
X101798295Y-79858779D01*
X101923479Y-80121600D01*
X102097532Y-80354949D01*
X102313765Y-80549858D01*
X102430654Y-80619485D01*
X102248488Y-80741205D01*
X102041645Y-80948048D01*
X101879130Y-81191269D01*
X101767188Y-81461522D01*
X101710120Y-81748420D01*
X101710120Y-82040940D01*
X101767188Y-82327838D01*
X101879130Y-82598091D01*
X102041645Y-82841312D01*
X102173500Y-82973167D01*
X102100940Y-82995178D01*
X101990626Y-83054143D01*
X101893935Y-83133495D01*
X101814583Y-83230186D01*
X101755618Y-83340500D01*
X101719308Y-83460198D01*
X101707048Y-83584680D01*
X100873192Y-83584680D01*
X100860932Y-83460198D01*
X100824622Y-83340500D01*
X100765657Y-83230186D01*
X100686305Y-83133495D01*
X100589614Y-83054143D01*
X100479300Y-82995178D01*
X100406740Y-82973167D01*
X100538595Y-82841312D01*
X100701110Y-82598091D01*
X100813052Y-82327838D01*
X100870120Y-82040940D01*
X100870120Y-81748420D01*
X100813052Y-81461522D01*
X100701110Y-81191269D01*
X100538595Y-80948048D01*
X100331752Y-80741205D01*
X100149586Y-80619485D01*
X100266475Y-80549858D01*
X100482708Y-80354949D01*
X100656761Y-80121600D01*
X100781945Y-79858779D01*
X100826596Y-79711570D01*
X100705275Y-79481680D01*
X99512120Y-79481680D01*
X99512120Y-79501680D01*
X99258120Y-79501680D01*
X99258120Y-79481680D01*
X98064965Y-79481680D01*
X97943644Y-79711570D01*
X97988295Y-79858779D01*
X98113479Y-80121600D01*
X98287532Y-80354949D01*
X98503765Y-80549858D01*
X98620654Y-80619485D01*
X98438488Y-80741205D01*
X98231645Y-80948048D01*
X98069130Y-81191269D01*
X97957188Y-81461522D01*
X97900120Y-81748420D01*
X97900120Y-82040940D01*
X97957188Y-82327838D01*
X98069130Y-82598091D01*
X98231645Y-82841312D01*
X98363500Y-82973167D01*
X98290940Y-82995178D01*
X98180626Y-83054143D01*
X98083935Y-83133495D01*
X98004583Y-83230186D01*
X97945618Y-83340500D01*
X97909308Y-83460198D01*
X97897048Y-83584680D01*
X91520042Y-83584680D01*
X88262103Y-77941800D01*
X91930251Y-71588420D01*
X97900120Y-71588420D01*
X97900120Y-71880940D01*
X97957188Y-72167838D01*
X98069130Y-72438091D01*
X98231645Y-72681312D01*
X98438488Y-72888155D01*
X98612880Y-73004680D01*
X98438488Y-73121205D01*
X98231645Y-73328048D01*
X98069130Y-73571269D01*
X97957188Y-73841522D01*
X97900120Y-74128420D01*
X97900120Y-74420940D01*
X97957188Y-74707838D01*
X98069130Y-74978091D01*
X98231645Y-75221312D01*
X98438488Y-75428155D01*
X98612880Y-75544680D01*
X98438488Y-75661205D01*
X98231645Y-75868048D01*
X98069130Y-76111269D01*
X97957188Y-76381522D01*
X97900120Y-76668420D01*
X97900120Y-76960940D01*
X97957188Y-77247838D01*
X98069130Y-77518091D01*
X98231645Y-77761312D01*
X98438488Y-77968155D01*
X98620654Y-78089875D01*
X98503765Y-78159502D01*
X98287532Y-78354411D01*
X98113479Y-78587760D01*
X97988295Y-78850581D01*
X97943644Y-78997790D01*
X98064965Y-79227680D01*
X99258120Y-79227680D01*
X99258120Y-79207680D01*
X99512120Y-79207680D01*
X99512120Y-79227680D01*
X100705275Y-79227680D01*
X100826596Y-78997790D01*
X100781945Y-78850581D01*
X100656761Y-78587760D01*
X100482708Y-78354411D01*
X100266475Y-78159502D01*
X100149586Y-78089875D01*
X100331752Y-77968155D01*
X100538595Y-77761312D01*
X100701110Y-77518091D01*
X100813052Y-77247838D01*
X100870120Y-76960940D01*
X100870120Y-76668420D01*
X100813052Y-76381522D01*
X100701110Y-76111269D01*
X100538595Y-75868048D01*
X100331752Y-75661205D01*
X100157360Y-75544680D01*
X100331752Y-75428155D01*
X100538595Y-75221312D01*
X100701110Y-74978091D01*
X100813052Y-74707838D01*
X100870120Y-74420940D01*
X100870120Y-74128420D01*
X100813052Y-73841522D01*
X100701110Y-73571269D01*
X100538595Y-73328048D01*
X100331752Y-73121205D01*
X100157360Y-73004680D01*
X100331752Y-72888155D01*
X100538595Y-72681312D01*
X100701110Y-72438091D01*
X100813052Y-72167838D01*
X100870120Y-71880940D01*
X100870120Y-71588420D01*
X101710120Y-71588420D01*
X101710120Y-71880940D01*
X101767188Y-72167838D01*
X101879130Y-72438091D01*
X102041645Y-72681312D01*
X102248488Y-72888155D01*
X102422880Y-73004680D01*
X102248488Y-73121205D01*
X102041645Y-73328048D01*
X101879130Y-73571269D01*
X101767188Y-73841522D01*
X101710120Y-74128420D01*
X101710120Y-74420940D01*
X101767188Y-74707838D01*
X101879130Y-74978091D01*
X102041645Y-75221312D01*
X102248488Y-75428155D01*
X102422880Y-75544680D01*
X102248488Y-75661205D01*
X102041645Y-75868048D01*
X101879130Y-76111269D01*
X101767188Y-76381522D01*
X101710120Y-76668420D01*
X101710120Y-76960940D01*
X101767188Y-77247838D01*
X101879130Y-77518091D01*
X102041645Y-77761312D01*
X102248488Y-77968155D01*
X102430654Y-78089875D01*
X102313765Y-78159502D01*
X102097532Y-78354411D01*
X101923479Y-78587760D01*
X101798295Y-78850581D01*
X101753644Y-78997790D01*
X101874965Y-79227680D01*
X103068120Y-79227680D01*
X103068120Y-79207680D01*
X103322120Y-79207680D01*
X103322120Y-79227680D01*
X104515275Y-79227680D01*
X104636596Y-78997790D01*
X104591945Y-78850581D01*
X104466761Y-78587760D01*
X104292708Y-78354411D01*
X104076475Y-78159502D01*
X103959586Y-78089875D01*
X104141752Y-77968155D01*
X104348595Y-77761312D01*
X104511110Y-77518091D01*
X104623052Y-77247838D01*
X104680120Y-76960940D01*
X104680120Y-76668420D01*
X104623052Y-76381522D01*
X104549828Y-76204741D01*
X108510120Y-76204741D01*
X108510120Y-76408619D01*
X108549894Y-76608578D01*
X108627915Y-76796936D01*
X108741183Y-76966454D01*
X108785121Y-77010392D01*
X108785121Y-77285348D01*
X108781444Y-77322680D01*
X108785121Y-77360013D01*
X108796118Y-77471666D01*
X108806682Y-77506490D01*
X108839574Y-77614926D01*
X108910146Y-77746956D01*
X108981321Y-77833682D01*
X109005120Y-77862681D01*
X109034118Y-77886479D01*
X109293121Y-78145483D01*
X109293120Y-84525767D01*
X109289444Y-84563090D01*
X109293120Y-84600412D01*
X109293120Y-84600422D01*
X109304117Y-84712075D01*
X109328030Y-84790906D01*
X109347574Y-84855336D01*
X109418146Y-84987366D01*
X109457991Y-85035916D01*
X109513119Y-85103091D01*
X109542123Y-85126894D01*
X115712534Y-91297306D01*
X115736332Y-91326304D01*
X115852057Y-91421277D01*
X115984086Y-91491849D01*
X116127347Y-91535306D01*
X116239000Y-91546303D01*
X116239009Y-91546303D01*
X116276332Y-91549979D01*
X116313655Y-91546303D01*
X122050705Y-91546303D01*
X122094642Y-91590240D01*
X122264160Y-91703508D01*
X122452518Y-91781529D01*
X122652477Y-91821303D01*
X122856355Y-91821303D01*
X123056314Y-91781529D01*
X123244672Y-91703508D01*
X123414190Y-91590240D01*
X123558353Y-91446077D01*
X123671621Y-91276559D01*
X123749642Y-91088201D01*
X123789416Y-90888242D01*
X123789416Y-90684364D01*
X123749642Y-90484405D01*
X123671621Y-90296047D01*
X123658575Y-90276522D01*
X123670325Y-90258936D01*
X123748346Y-90070578D01*
X123788120Y-89870619D01*
X123788120Y-89666741D01*
X123748346Y-89466782D01*
X123670325Y-89278424D01*
X123557057Y-89108906D01*
X123422732Y-88974581D01*
X123551738Y-88845575D01*
X123582648Y-88820208D01*
X123683869Y-88696869D01*
X123759083Y-88556153D01*
X123779314Y-88489461D01*
X123910479Y-88515551D01*
X124692225Y-89297298D01*
X124717592Y-89328208D01*
X124785330Y-89383799D01*
X124840930Y-89429429D01*
X124897590Y-89459714D01*
X124981647Y-89504643D01*
X125134332Y-89550960D01*
X125253329Y-89562680D01*
X125253331Y-89562680D01*
X125293119Y-89566599D01*
X125332907Y-89562680D01*
X145065332Y-89562680D01*
X145105120Y-89566599D01*
X145144908Y-89562680D01*
X145144911Y-89562680D01*
X145263908Y-89550960D01*
X145416593Y-89504643D01*
X145557309Y-89429429D01*
X145680648Y-89328208D01*
X145706020Y-89297292D01*
X148951740Y-86051573D01*
X148982648Y-86026208D01*
X149038239Y-85958470D01*
X149083869Y-85902870D01*
X149159082Y-85762154D01*
X149159083Y-85762153D01*
X149205400Y-85609468D01*
X149217120Y-85490471D01*
X149217120Y-85490469D01*
X149221039Y-85450681D01*
X149217120Y-85410893D01*
X149217120Y-79902471D01*
X149221039Y-79862680D01*
X149205400Y-79703892D01*
X149159083Y-79551206D01*
X149083869Y-79410491D01*
X149057542Y-79378411D01*
X149031015Y-79346088D01*
X149375121Y-79690194D01*
X149375120Y-85877167D01*
X141467608Y-93784680D01*
X129978747Y-93784680D01*
X130101376Y-93733885D01*
X130270894Y-93620617D01*
X130415057Y-93476454D01*
X130528325Y-93306936D01*
X130606346Y-93118578D01*
X130646120Y-92918619D01*
X130646120Y-92714741D01*
X130606346Y-92514782D01*
X130528325Y-92326424D01*
X130415057Y-92156906D01*
X130270894Y-92012743D01*
X130101376Y-91899475D01*
X129913018Y-91821454D01*
X129713059Y-91781680D01*
X129572872Y-91781680D01*
X129515908Y-91764400D01*
X129396911Y-91752680D01*
X129396908Y-91752680D01*
X129357120Y-91748761D01*
X129317332Y-91752680D01*
X127721820Y-91752680D01*
X127561376Y-91645475D01*
X127373018Y-91567454D01*
X127173059Y-91527680D01*
X126969181Y-91527680D01*
X126769222Y-91567454D01*
X126580864Y-91645475D01*
X126411346Y-91758743D01*
X126267183Y-91902906D01*
X126153915Y-92072424D01*
X126075894Y-92260782D01*
X126036120Y-92460741D01*
X126036120Y-92664619D01*
X126075894Y-92864578D01*
X126153915Y-93052936D01*
X126267183Y-93222454D01*
X126411346Y-93366617D01*
X126580864Y-93479885D01*
X126769222Y-93557906D01*
X126969181Y-93597680D01*
X127173059Y-93597680D01*
X127373018Y-93557906D01*
X127561376Y-93479885D01*
X127721820Y-93372680D01*
X128737844Y-93372680D01*
X128807183Y-93476454D01*
X128951346Y-93620617D01*
X129120864Y-93733885D01*
X129243493Y-93784680D01*
X116230633Y-93784680D01*
X116165991Y-93720039D01*
X116128346Y-93530782D01*
X116050325Y-93342424D01*
X115937057Y-93172906D01*
X115792894Y-93028743D01*
X115623376Y-92915475D01*
X115435018Y-92837454D01*
X115235059Y-92797680D01*
X115031181Y-92797680D01*
X114831222Y-92837454D01*
X114642864Y-92915475D01*
X114473346Y-93028743D01*
X114329183Y-93172906D01*
X114215915Y-93342424D01*
X114137894Y-93530782D01*
X114098120Y-93730741D01*
X114098120Y-93934619D01*
X114137894Y-94134578D01*
X114215915Y-94322936D01*
X114329183Y-94492454D01*
X114473346Y-94636617D01*
X114642864Y-94749885D01*
X114831222Y-94827906D01*
X115020479Y-94865551D01*
X115294225Y-95139298D01*
X115319592Y-95170208D01*
X115442931Y-95271429D01*
X115583647Y-95346643D01*
X115736332Y-95392960D01*
X115855329Y-95404680D01*
X115855332Y-95404680D01*
X115895120Y-95408599D01*
X115934908Y-95404680D01*
X141763332Y-95404680D01*
X141803120Y-95408599D01*
X141842908Y-95404680D01*
X141842911Y-95404680D01*
X141961908Y-95392960D01*
X142114593Y-95346643D01*
X142255309Y-95271429D01*
X142378648Y-95170208D01*
X142404020Y-95139292D01*
X150729738Y-86813575D01*
X150760648Y-86788208D01*
X150845840Y-86684401D01*
X150861869Y-86664870D01*
X150937082Y-86524154D01*
X150937083Y-86524153D01*
X150983400Y-86371468D01*
X150999039Y-86212680D01*
X150995120Y-86172889D01*
X150995120Y-79394468D01*
X150999039Y-79354680D01*
X150993992Y-79303437D01*
X150983400Y-79195892D01*
X150946729Y-79075004D01*
X150937083Y-79043206D01*
X150861869Y-78902491D01*
X150846603Y-78883889D01*
X150760648Y-78779152D01*
X150729738Y-78753785D01*
X146976020Y-75000068D01*
X146950648Y-74969152D01*
X146827309Y-74867931D01*
X146686593Y-74792717D01*
X146533908Y-74746400D01*
X146414911Y-74734680D01*
X146414908Y-74734680D01*
X146375120Y-74730761D01*
X146335332Y-74734680D01*
X142692120Y-74734680D01*
X142692120Y-74226680D01*
X142691920Y-74219559D01*
X142673057Y-73883666D01*
X142671463Y-73869514D01*
X142615110Y-73537844D01*
X142611940Y-73523959D01*
X142518806Y-73200685D01*
X142514103Y-73187242D01*
X142385360Y-72876428D01*
X142379180Y-72863597D01*
X142216446Y-72569152D01*
X142208869Y-72557093D01*
X142014190Y-72282720D01*
X142005311Y-72271585D01*
X141781137Y-72020734D01*
X141771066Y-72010663D01*
X141520215Y-71786489D01*
X141509080Y-71777610D01*
X141234707Y-71582931D01*
X141222648Y-71575354D01*
X140928203Y-71412620D01*
X140915372Y-71406440D01*
X140604558Y-71277697D01*
X140591115Y-71272994D01*
X140267841Y-71179860D01*
X140253956Y-71176690D01*
X139922286Y-71120337D01*
X139908134Y-71118743D01*
X139572241Y-71099880D01*
X139565120Y-71099680D01*
X133524220Y-71099680D01*
X133516667Y-71099905D01*
X133160464Y-71121127D01*
X133145465Y-71122920D01*
X132794301Y-71186285D01*
X132779621Y-71189847D01*
X132438466Y-71294459D01*
X132424313Y-71299739D01*
X132097991Y-71444118D01*
X132084564Y-71451041D01*
X131777694Y-71633145D01*
X131765185Y-71641613D01*
X131482107Y-71858864D01*
X131476252Y-71863640D01*
X130167120Y-72998221D01*
X130167120Y-70771467D01*
X130171039Y-70731679D01*
X130165992Y-70680434D01*
X130155400Y-70572892D01*
X130125120Y-70473073D01*
X130125120Y-70362741D01*
X130085346Y-70162782D01*
X130007325Y-69974424D01*
X129894057Y-69804906D01*
X129749894Y-69660743D01*
X129580376Y-69547475D01*
X129392018Y-69469454D01*
X129192059Y-69429680D01*
X128988181Y-69429680D01*
X128788222Y-69469454D01*
X128599864Y-69547475D01*
X128430346Y-69660743D01*
X128286183Y-69804906D01*
X128172915Y-69974424D01*
X128094894Y-70162782D01*
X128055120Y-70362741D01*
X128055120Y-70566619D01*
X128094894Y-70766578D01*
X128172915Y-70954936D01*
X128286183Y-71124454D01*
X128430346Y-71268617D01*
X128547121Y-71346643D01*
X128547120Y-73431167D01*
X128259608Y-73718680D01*
X120848120Y-73718680D01*
X120848120Y-70205680D01*
X123020332Y-70205680D01*
X123060120Y-70209599D01*
X123099908Y-70205680D01*
X123099911Y-70205680D01*
X123218908Y-70193960D01*
X123371593Y-70147643D01*
X123512309Y-70072429D01*
X123635648Y-69971208D01*
X123661020Y-69940293D01*
X124767001Y-68834311D01*
X124766120Y-68838741D01*
X124766120Y-69042619D01*
X124805894Y-69242578D01*
X124883915Y-69430936D01*
X124997183Y-69600454D01*
X125141346Y-69744617D01*
X125310864Y-69857885D01*
X125499222Y-69935906D01*
X125699181Y-69975680D01*
X125903059Y-69975680D01*
X126103018Y-69935906D01*
X126291376Y-69857885D01*
X126460894Y-69744617D01*
X126605057Y-69600454D01*
X126718325Y-69430936D01*
X126796346Y-69242578D01*
X126836120Y-69042619D01*
X126836120Y-68838741D01*
X126796346Y-68638782D01*
X126718325Y-68450424D01*
X126611120Y-68289980D01*
X126611120Y-66694469D01*
X126615039Y-66654681D01*
X126611120Y-66614889D01*
X126611120Y-60352680D01*
X127182420Y-60352680D01*
X127342864Y-60459885D01*
X127531222Y-60537906D01*
X127731181Y-60577680D01*
X127935059Y-60577680D01*
X128135018Y-60537906D01*
X128323376Y-60459885D01*
X128492894Y-60346617D01*
X128637057Y-60202454D01*
X128750325Y-60032936D01*
X128828346Y-59844578D01*
X128868120Y-59644619D01*
X128868120Y-59440741D01*
X128828346Y-59240782D01*
X128750325Y-59052424D01*
X128637057Y-58882906D01*
X128492894Y-58738743D01*
X128323376Y-58625475D01*
X128135018Y-58547454D01*
X127935059Y-58507680D01*
X127731181Y-58507680D01*
X127531222Y-58547454D01*
X127342864Y-58625475D01*
X127182420Y-58732680D01*
X125332908Y-58732680D01*
X125293120Y-58728761D01*
X125253332Y-58732680D01*
X123403820Y-58732680D01*
X123243376Y-58625475D01*
X123055018Y-58547454D01*
X122855059Y-58507680D01*
X122651181Y-58507680D01*
X122451222Y-58547454D01*
X122262864Y-58625475D01*
X122093346Y-58738743D01*
X121949183Y-58882906D01*
X121835915Y-59052424D01*
X121785120Y-59175053D01*
X121785120Y-56788468D01*
X121789039Y-56748680D01*
X121785120Y-56708889D01*
X121773400Y-56589892D01*
X121727083Y-56437207D01*
X121651870Y-56296492D01*
X121651869Y-56296490D01*
X121576013Y-56204060D01*
X121550648Y-56173152D01*
X121519739Y-56147786D01*
X120136632Y-54764680D01*
X120578440Y-54764680D01*
X120738884Y-54871885D01*
X120927242Y-54949906D01*
X121127201Y-54989680D01*
X121331079Y-54989680D01*
X121531038Y-54949906D01*
X121719396Y-54871885D01*
X121888914Y-54758617D01*
X122033077Y-54614454D01*
X122146345Y-54444936D01*
X122224366Y-54256578D01*
X122264140Y-54056619D01*
X122264140Y-53852741D01*
X122224366Y-53652782D01*
X122146345Y-53464424D01*
X122033077Y-53294906D01*
X121888914Y-53150743D01*
X121719396Y-53037475D01*
X121531038Y-52959454D01*
X121331079Y-52919680D01*
X121127201Y-52919680D01*
X120927242Y-52959454D01*
X120738884Y-53037475D01*
X120578440Y-53144680D01*
X117454911Y-53144680D01*
X117415123Y-53140761D01*
X117375335Y-53144680D01*
X117375333Y-53144680D01*
X117256336Y-53156400D01*
X117103651Y-53202717D01*
X116962935Y-53277931D01*
X116839596Y-53379152D01*
X116814224Y-53410068D01*
X116571612Y-53652680D01*
X116545820Y-53652680D01*
X116385376Y-53545475D01*
X116197018Y-53467454D01*
X115997059Y-53427680D01*
X115793181Y-53427680D01*
X115593222Y-53467454D01*
X115404864Y-53545475D01*
X115235346Y-53658743D01*
X115091183Y-53802906D01*
X114977915Y-53972424D01*
X114899894Y-54160782D01*
X114860120Y-54360741D01*
X114860120Y-54564619D01*
X114899894Y-54764578D01*
X114977915Y-54952936D01*
X115091183Y-55122454D01*
X115235346Y-55266617D01*
X115404864Y-55379885D01*
X115593222Y-55457906D01*
X115793181Y-55497680D01*
X115997059Y-55497680D01*
X116197018Y-55457906D01*
X116385376Y-55379885D01*
X116545820Y-55272680D01*
X116867336Y-55272680D01*
X116907124Y-55276599D01*
X116946912Y-55272680D01*
X116946915Y-55272680D01*
X117065912Y-55260960D01*
X117218597Y-55214643D01*
X117359313Y-55139429D01*
X117452791Y-55062714D01*
X117517915Y-55219936D01*
X117631183Y-55389454D01*
X117775346Y-55533617D01*
X117944864Y-55646885D01*
X118133222Y-55724906D01*
X118333181Y-55764680D01*
X118537059Y-55764680D01*
X118737018Y-55724906D01*
X118785678Y-55704750D01*
X120165120Y-57084193D01*
X120165120Y-57088943D01*
X120007018Y-57023454D01*
X119807059Y-56983680D01*
X119603181Y-56983680D01*
X119403222Y-57023454D01*
X119214864Y-57101475D01*
X119045346Y-57214743D01*
X118901183Y-57358906D01*
X118787915Y-57528424D01*
X118709894Y-57716782D01*
X118670120Y-57916741D01*
X118670120Y-58120619D01*
X118709894Y-58320578D01*
X118746953Y-58410045D01*
X116363319Y-60793680D01*
X116301181Y-60793680D01*
X116101222Y-60833454D01*
X115912864Y-60911475D01*
X115743346Y-61024743D01*
X115599183Y-61168906D01*
X115485915Y-61338424D01*
X115407894Y-61526782D01*
X115368120Y-61726741D01*
X115368120Y-61930619D01*
X115407894Y-62130578D01*
X115485915Y-62318936D01*
X115599183Y-62488454D01*
X115743346Y-62632617D01*
X115912864Y-62745885D01*
X116101222Y-62823906D01*
X116301181Y-62863680D01*
X116505059Y-62863680D01*
X116705018Y-62823906D01*
X116893376Y-62745885D01*
X117062894Y-62632617D01*
X117207057Y-62488454D01*
X117320325Y-62318936D01*
X117363686Y-62214254D01*
X117377183Y-62234454D01*
X117521346Y-62378617D01*
X117690864Y-62491885D01*
X117879222Y-62569906D01*
X118079181Y-62609680D01*
X118283059Y-62609680D01*
X118483018Y-62569906D01*
X118671376Y-62491885D01*
X118831820Y-62384680D01*
X120372608Y-62384680D01*
X120450249Y-62462321D01*
X120487894Y-62651578D01*
X120565915Y-62839936D01*
X120679183Y-63009454D01*
X120823346Y-63153617D01*
X120992864Y-63266885D01*
X121181222Y-63344906D01*
X121381181Y-63384680D01*
X121585059Y-63384680D01*
X121689120Y-63363981D01*
X121689121Y-66003979D01*
X121581915Y-66164424D01*
X121503894Y-66352782D01*
X121464120Y-66552741D01*
X121464120Y-66756619D01*
X121503894Y-66956578D01*
X121581915Y-67144936D01*
X121695183Y-67314454D01*
X121839346Y-67458617D01*
X122008864Y-67571885D01*
X122197222Y-67649906D01*
X122397181Y-67689680D01*
X122601059Y-67689680D01*
X122801018Y-67649906D01*
X122989376Y-67571885D01*
X123158894Y-67458617D01*
X123303057Y-67314454D01*
X123416325Y-67144936D01*
X123494346Y-66956578D01*
X123534120Y-66756619D01*
X123534120Y-66552741D01*
X123494346Y-66352782D01*
X123416325Y-66164424D01*
X123309120Y-66003980D01*
X123309120Y-61360467D01*
X123313039Y-61320679D01*
X123309120Y-61280889D01*
X123297400Y-61161892D01*
X123251083Y-61009207D01*
X123175869Y-60868491D01*
X123074648Y-60745152D01*
X123043739Y-60719786D01*
X122893906Y-60569953D01*
X123055018Y-60537906D01*
X123243376Y-60459885D01*
X123403820Y-60352680D01*
X124957608Y-60352680D01*
X124991120Y-60386192D01*
X124991121Y-66319166D01*
X122724608Y-68585680D01*
X115275820Y-68585680D01*
X115115376Y-68478475D01*
X114927018Y-68400454D01*
X114727059Y-68360680D01*
X114523181Y-68360680D01*
X114323222Y-68400454D01*
X114134864Y-68478475D01*
X113965346Y-68591743D01*
X113821183Y-68735906D01*
X113707915Y-68905424D01*
X113629894Y-69093782D01*
X113590120Y-69293741D01*
X113590120Y-69497619D01*
X113629894Y-69697578D01*
X113707915Y-69885936D01*
X113821183Y-70055454D01*
X113965346Y-70199617D01*
X114134864Y-70312885D01*
X114323222Y-70390906D01*
X114523181Y-70430680D01*
X114727059Y-70430680D01*
X114927018Y-70390906D01*
X115115376Y-70312885D01*
X115125364Y-70306211D01*
X115114120Y-70362741D01*
X115114120Y-70422009D01*
X115101119Y-70432679D01*
X115074857Y-70464680D01*
X115006146Y-70548404D01*
X114971262Y-70613667D01*
X114935574Y-70680434D01*
X114892117Y-70823695D01*
X114881120Y-70935348D01*
X114881120Y-70935358D01*
X114877444Y-70972680D01*
X114881120Y-71010002D01*
X114881121Y-86899051D01*
X114818731Y-86992424D01*
X114740710Y-87180782D01*
X114700936Y-87380741D01*
X114700936Y-87499694D01*
X111321120Y-84119879D01*
X111321120Y-79520680D01*
X111613048Y-79520680D01*
X111613048Y-81220680D01*
X111625308Y-81345162D01*
X111661618Y-81464860D01*
X111720583Y-81575174D01*
X111799935Y-81671865D01*
X111896626Y-81751217D01*
X112006940Y-81810182D01*
X112126638Y-81846492D01*
X112251120Y-81858752D01*
X113951120Y-81858752D01*
X114075602Y-81846492D01*
X114195300Y-81810182D01*
X114305614Y-81751217D01*
X114402305Y-81671865D01*
X114481657Y-81575174D01*
X114540622Y-81464860D01*
X114576932Y-81345162D01*
X114589192Y-81220680D01*
X114589192Y-79520680D01*
X114576932Y-79396198D01*
X114540622Y-79276500D01*
X114481657Y-79166186D01*
X114402305Y-79069495D01*
X114305614Y-78990143D01*
X114195300Y-78931178D01*
X114075602Y-78894868D01*
X113951120Y-78882608D01*
X112251120Y-78882608D01*
X112126638Y-78894868D01*
X112006940Y-78931178D01*
X111896626Y-78990143D01*
X111799935Y-79069495D01*
X111720583Y-79166186D01*
X111661618Y-79276500D01*
X111625308Y-79396198D01*
X111613048Y-79520680D01*
X111321120Y-79520680D01*
X111321120Y-75710680D01*
X111613048Y-75710680D01*
X111613048Y-77410680D01*
X111625308Y-77535162D01*
X111661618Y-77654860D01*
X111720583Y-77765174D01*
X111799935Y-77861865D01*
X111896626Y-77941217D01*
X112006940Y-78000182D01*
X112126638Y-78036492D01*
X112251120Y-78048752D01*
X113951120Y-78048752D01*
X114075602Y-78036492D01*
X114195300Y-78000182D01*
X114305614Y-77941217D01*
X114402305Y-77861865D01*
X114481657Y-77765174D01*
X114540622Y-77654860D01*
X114576932Y-77535162D01*
X114589192Y-77410680D01*
X114589192Y-75710680D01*
X114576932Y-75586198D01*
X114540622Y-75466500D01*
X114481657Y-75356186D01*
X114402305Y-75259495D01*
X114305614Y-75180143D01*
X114195300Y-75121178D01*
X114075602Y-75084868D01*
X113951120Y-75072608D01*
X112251120Y-75072608D01*
X112126638Y-75084868D01*
X112006940Y-75121178D01*
X111896626Y-75180143D01*
X111799935Y-75259495D01*
X111720583Y-75356186D01*
X111661618Y-75466500D01*
X111625308Y-75586198D01*
X111613048Y-75710680D01*
X111321120Y-75710680D01*
X111321120Y-74039680D01*
X111425059Y-74039680D01*
X111625018Y-73999906D01*
X111813376Y-73921885D01*
X111982894Y-73808617D01*
X112127057Y-73664454D01*
X112240325Y-73494936D01*
X112318346Y-73306578D01*
X112358120Y-73106619D01*
X112358120Y-73044482D01*
X112469122Y-72933480D01*
X112498121Y-72909681D01*
X112593094Y-72793956D01*
X112663666Y-72661927D01*
X112707123Y-72518666D01*
X112718120Y-72407013D01*
X112721797Y-72369680D01*
X112718120Y-72332347D01*
X112718120Y-69324391D01*
X112762057Y-69280454D01*
X112875325Y-69110936D01*
X112953346Y-68922578D01*
X112993120Y-68722619D01*
X112993120Y-68518741D01*
X112953346Y-68318782D01*
X112875325Y-68130424D01*
X112762057Y-67960906D01*
X112617894Y-67816743D01*
X112591120Y-67798853D01*
X112591120Y-66552741D01*
X114352120Y-66552741D01*
X114352120Y-66756619D01*
X114391894Y-66956578D01*
X114469915Y-67144936D01*
X114583183Y-67314454D01*
X114727346Y-67458617D01*
X114896864Y-67571885D01*
X115085222Y-67649906D01*
X115285181Y-67689680D01*
X115425368Y-67689680D01*
X115482332Y-67706960D01*
X115601329Y-67718680D01*
X115601331Y-67718680D01*
X115641119Y-67722599D01*
X115680907Y-67718680D01*
X116514420Y-67718680D01*
X116674864Y-67825885D01*
X116863222Y-67903906D01*
X117063181Y-67943680D01*
X117267059Y-67943680D01*
X117467018Y-67903906D01*
X117655376Y-67825885D01*
X117824894Y-67712617D01*
X117969057Y-67568454D01*
X118082325Y-67398936D01*
X118160346Y-67210578D01*
X118200120Y-67010619D01*
X118200120Y-66806741D01*
X118160346Y-66606782D01*
X118082325Y-66418424D01*
X117969057Y-66248906D01*
X117824894Y-66104743D01*
X117655376Y-65991475D01*
X117467018Y-65913454D01*
X117267059Y-65873680D01*
X117063181Y-65873680D01*
X116863222Y-65913454D01*
X116674864Y-65991475D01*
X116514420Y-66098680D01*
X116260396Y-66098680D01*
X116191057Y-65994906D01*
X116046894Y-65850743D01*
X115877376Y-65737475D01*
X115689018Y-65659454D01*
X115489059Y-65619680D01*
X115285181Y-65619680D01*
X115085222Y-65659454D01*
X114896864Y-65737475D01*
X114727346Y-65850743D01*
X114583183Y-65994906D01*
X114469915Y-66164424D01*
X114391894Y-66352782D01*
X114352120Y-66552741D01*
X112591120Y-66552741D01*
X112591120Y-64818391D01*
X112635057Y-64774454D01*
X112748325Y-64604936D01*
X112826346Y-64416578D01*
X112866120Y-64216619D01*
X112866120Y-64012741D01*
X112826346Y-63812782D01*
X112748325Y-63624424D01*
X112635057Y-63454906D01*
X112490894Y-63310743D01*
X112321376Y-63197475D01*
X112133018Y-63119454D01*
X112037579Y-63100470D01*
X112151018Y-63077906D01*
X112339376Y-62999885D01*
X112508894Y-62886617D01*
X112653057Y-62742454D01*
X112766325Y-62572936D01*
X112844346Y-62384578D01*
X112884120Y-62184619D01*
X112884120Y-61980741D01*
X112844346Y-61780782D01*
X112766325Y-61592424D01*
X112653057Y-61422906D01*
X112508894Y-61278743D01*
X112339376Y-61165475D01*
X112151018Y-61087454D01*
X111951059Y-61047680D01*
X111747181Y-61047680D01*
X111547222Y-61087454D01*
X111358864Y-61165475D01*
X111189346Y-61278743D01*
X111045183Y-61422906D01*
X110931915Y-61592424D01*
X110853894Y-61780782D01*
X110814120Y-61980741D01*
X110814120Y-62042878D01*
X110050118Y-62806881D01*
X110021120Y-62830679D01*
X109997322Y-62859677D01*
X109997321Y-62859678D01*
X109926146Y-62946404D01*
X109855574Y-63078434D01*
X109812118Y-63221695D01*
X109797444Y-63370680D01*
X109801121Y-63408013D01*
X109801120Y-75302324D01*
X109647059Y-75271680D01*
X109443181Y-75271680D01*
X109243222Y-75311454D01*
X109054864Y-75389475D01*
X108885346Y-75502743D01*
X108741183Y-75646906D01*
X108627915Y-75816424D01*
X108549894Y-76004782D01*
X108510120Y-76204741D01*
X104549828Y-76204741D01*
X104511110Y-76111269D01*
X104348595Y-75868048D01*
X104141752Y-75661205D01*
X103967360Y-75544680D01*
X104141752Y-75428155D01*
X104348595Y-75221312D01*
X104511110Y-74978091D01*
X104623052Y-74707838D01*
X104680120Y-74420940D01*
X104680120Y-74128420D01*
X104623052Y-73841522D01*
X104511110Y-73571269D01*
X104348595Y-73328048D01*
X104141752Y-73121205D01*
X103967360Y-73004680D01*
X104141752Y-72888155D01*
X104348595Y-72681312D01*
X104511110Y-72438091D01*
X104623052Y-72167838D01*
X104680120Y-71880940D01*
X104680120Y-71588420D01*
X104623052Y-71301522D01*
X104511110Y-71031269D01*
X104348595Y-70788048D01*
X104141752Y-70581205D01*
X103898531Y-70418690D01*
X103628278Y-70306748D01*
X103341380Y-70249680D01*
X103048860Y-70249680D01*
X102761962Y-70306748D01*
X102491709Y-70418690D01*
X102248488Y-70581205D01*
X102041645Y-70788048D01*
X101879130Y-71031269D01*
X101767188Y-71301522D01*
X101710120Y-71588420D01*
X100870120Y-71588420D01*
X100813052Y-71301522D01*
X100701110Y-71031269D01*
X100538595Y-70788048D01*
X100331752Y-70581205D01*
X100088531Y-70418690D01*
X99818278Y-70306748D01*
X99531380Y-70249680D01*
X99238860Y-70249680D01*
X98951962Y-70306748D01*
X98681709Y-70418690D01*
X98438488Y-70581205D01*
X98231645Y-70788048D01*
X98069130Y-71031269D01*
X97957188Y-71301522D01*
X97900120Y-71588420D01*
X91930251Y-71588420D01*
X105381050Y-48291100D01*
X139618951Y-48291100D01*
X156737896Y-77941800D01*
G36*
X147597120Y-80198193D02*
G01*
X147597121Y-85115166D01*
X144769608Y-87942680D01*
X125628633Y-87942680D01*
X125055991Y-87370039D01*
X125018346Y-87180782D01*
X124940325Y-86992424D01*
X124827057Y-86822906D01*
X124682894Y-86678743D01*
X124513376Y-86565475D01*
X124325018Y-86487454D01*
X124125059Y-86447680D01*
X123921181Y-86447680D01*
X123817120Y-86468379D01*
X123817120Y-84346680D01*
X130917048Y-84346680D01*
X130917048Y-86046680D01*
X130929308Y-86171162D01*
X130965618Y-86290860D01*
X131024583Y-86401174D01*
X131103935Y-86497865D01*
X131200626Y-86577217D01*
X131310940Y-86636182D01*
X131430638Y-86672492D01*
X131555120Y-86684752D01*
X133255120Y-86684752D01*
X133379602Y-86672492D01*
X133499300Y-86636182D01*
X133609614Y-86577217D01*
X133706305Y-86497865D01*
X133785657Y-86401174D01*
X133844622Y-86290860D01*
X133880932Y-86171162D01*
X133893192Y-86046680D01*
X133893192Y-84346680D01*
X133880932Y-84222198D01*
X133844622Y-84102500D01*
X133785657Y-83992186D01*
X133706305Y-83895495D01*
X133609614Y-83816143D01*
X133499300Y-83757178D01*
X133379602Y-83720868D01*
X133255120Y-83708608D01*
X131555120Y-83708608D01*
X131430638Y-83720868D01*
X131310940Y-83757178D01*
X131200626Y-83816143D01*
X131103935Y-83895495D01*
X131024583Y-83992186D01*
X130965618Y-84102500D01*
X130929308Y-84222198D01*
X130917048Y-84346680D01*
X123817120Y-84346680D01*
X123817120Y-83458468D01*
X123821039Y-83418680D01*
X123813339Y-83340500D01*
X123805400Y-83259892D01*
X123769863Y-83142743D01*
X123759083Y-83107206D01*
X123683869Y-82966491D01*
X123677613Y-82958868D01*
X123582648Y-82843152D01*
X123551739Y-82817786D01*
X122270746Y-81536794D01*
X122347825Y-81421436D01*
X122425846Y-81233078D01*
X122465620Y-81033119D01*
X122465620Y-80829241D01*
X122425846Y-80629282D01*
X122347825Y-80440924D01*
X122240620Y-80280480D01*
X122240620Y-79366183D01*
X122296488Y-79368867D01*
X122296553Y-79369033D01*
X122311847Y-79397646D01*
X122500742Y-79397894D01*
X122523057Y-79375579D01*
X122777592Y-79337540D01*
X122894339Y-79295625D01*
X122646406Y-79543558D01*
X122646654Y-79732453D01*
X122802829Y-79800586D01*
X122969296Y-79836940D01*
X123139656Y-79840121D01*
X123307364Y-79810003D01*
X123465973Y-79747747D01*
X123494586Y-79732453D01*
X123494834Y-79543558D01*
X123140744Y-79189468D01*
X123160275Y-79179029D01*
X123218380Y-78975776D01*
X123640498Y-79397894D01*
X123829393Y-79397646D01*
X123897526Y-79241471D01*
X123933880Y-79075004D01*
X123937061Y-78904644D01*
X123906943Y-78736936D01*
X123844687Y-78578327D01*
X123829393Y-78549714D01*
X123716418Y-78549566D01*
X123753976Y-78469932D01*
X123774596Y-78449312D01*
X123767193Y-78441909D01*
X123769868Y-78436237D01*
X123771682Y-78428960D01*
X123886776Y-78509549D01*
X123905947Y-78520618D01*
X124126645Y-78623532D01*
X124147448Y-78631104D01*
X124382663Y-78694129D01*
X124404464Y-78697973D01*
X124647051Y-78719197D01*
X124658120Y-78719680D01*
X124704095Y-78719680D01*
X125053517Y-78740775D01*
X125394099Y-78803063D01*
X125724714Y-78905872D01*
X126040549Y-79047703D01*
X126337037Y-79226505D01*
X126609858Y-79439672D01*
X126857776Y-79686827D01*
X129129169Y-82242146D01*
X129134426Y-82247713D01*
X129390482Y-82502981D01*
X129401953Y-82513114D01*
X129686859Y-82735724D01*
X129699466Y-82744404D01*
X130009082Y-82931123D01*
X130022642Y-82938223D01*
X130352473Y-83086339D01*
X130366788Y-83091757D01*
X130712041Y-83199118D01*
X130726904Y-83202774D01*
X131082566Y-83267820D01*
X131097761Y-83269661D01*
X131458665Y-83291449D01*
X131466318Y-83291680D01*
X139565120Y-83291680D01*
X139572241Y-83291480D01*
X139908134Y-83272617D01*
X139922286Y-83271023D01*
X140253956Y-83214670D01*
X140267841Y-83211500D01*
X140591115Y-83118366D01*
X140604558Y-83113663D01*
X140915372Y-82984920D01*
X140928203Y-82978740D01*
X141222648Y-82816006D01*
X141234707Y-82808429D01*
X141509080Y-82613750D01*
X141520215Y-82604871D01*
X141771066Y-82380697D01*
X141781137Y-82370626D01*
X142005311Y-82119775D01*
X142014190Y-82108640D01*
X142208869Y-81834267D01*
X142216446Y-81822208D01*
X142379180Y-81527763D01*
X142385360Y-81514932D01*
X142514103Y-81204118D01*
X142518806Y-81190675D01*
X142611940Y-80867401D01*
X142615110Y-80853516D01*
X142671463Y-80521846D01*
X142673057Y-80507694D01*
X142691920Y-80171801D01*
X142692120Y-80164680D01*
X142692120Y-77938466D01*
X145337394Y-77938466D01*
X147597120Y-80198193D01*
G37*
X147597120Y-80198193D02*
X147597121Y-85115166D01*
X144769608Y-87942680D01*
X125628633Y-87942680D01*
X125055991Y-87370039D01*
X125018346Y-87180782D01*
X124940325Y-86992424D01*
X124827057Y-86822906D01*
X124682894Y-86678743D01*
X124513376Y-86565475D01*
X124325018Y-86487454D01*
X124125059Y-86447680D01*
X123921181Y-86447680D01*
X123817120Y-86468379D01*
X123817120Y-84346680D01*
X130917048Y-84346680D01*
X130917048Y-86046680D01*
X130929308Y-86171162D01*
X130965618Y-86290860D01*
X131024583Y-86401174D01*
X131103935Y-86497865D01*
X131200626Y-86577217D01*
X131310940Y-86636182D01*
X131430638Y-86672492D01*
X131555120Y-86684752D01*
X133255120Y-86684752D01*
X133379602Y-86672492D01*
X133499300Y-86636182D01*
X133609614Y-86577217D01*
X133706305Y-86497865D01*
X133785657Y-86401174D01*
X133844622Y-86290860D01*
X133880932Y-86171162D01*
X133893192Y-86046680D01*
X133893192Y-84346680D01*
X133880932Y-84222198D01*
X133844622Y-84102500D01*
X133785657Y-83992186D01*
X133706305Y-83895495D01*
X133609614Y-83816143D01*
X133499300Y-83757178D01*
X133379602Y-83720868D01*
X133255120Y-83708608D01*
X131555120Y-83708608D01*
X131430638Y-83720868D01*
X131310940Y-83757178D01*
X131200626Y-83816143D01*
X131103935Y-83895495D01*
X131024583Y-83992186D01*
X130965618Y-84102500D01*
X130929308Y-84222198D01*
X130917048Y-84346680D01*
X123817120Y-84346680D01*
X123817120Y-83458468D01*
X123821039Y-83418680D01*
X123813339Y-83340500D01*
X123805400Y-83259892D01*
X123769863Y-83142743D01*
X123759083Y-83107206D01*
X123683869Y-82966491D01*
X123677613Y-82958868D01*
X123582648Y-82843152D01*
X123551739Y-82817786D01*
X122270746Y-81536794D01*
X122347825Y-81421436D01*
X122425846Y-81233078D01*
X122465620Y-81033119D01*
X122465620Y-80829241D01*
X122425846Y-80629282D01*
X122347825Y-80440924D01*
X122240620Y-80280480D01*
X122240620Y-79366183D01*
X122296488Y-79368867D01*
X122296553Y-79369033D01*
X122311847Y-79397646D01*
X122500742Y-79397894D01*
X122523057Y-79375579D01*
X122777592Y-79337540D01*
X122894339Y-79295625D01*
X122646406Y-79543558D01*
X122646654Y-79732453D01*
X122802829Y-79800586D01*
X122969296Y-79836940D01*
X123139656Y-79840121D01*
X123307364Y-79810003D01*
X123465973Y-79747747D01*
X123494586Y-79732453D01*
X123494834Y-79543558D01*
X123140744Y-79189468D01*
X123160275Y-79179029D01*
X123218380Y-78975776D01*
X123640498Y-79397894D01*
X123829393Y-79397646D01*
X123897526Y-79241471D01*
X123933880Y-79075004D01*
X123937061Y-78904644D01*
X123906943Y-78736936D01*
X123844687Y-78578327D01*
X123829393Y-78549714D01*
X123716418Y-78549566D01*
X123753976Y-78469932D01*
X123774596Y-78449312D01*
X123767193Y-78441909D01*
X123769868Y-78436237D01*
X123771682Y-78428960D01*
X123886776Y-78509549D01*
X123905947Y-78520618D01*
X124126645Y-78623532D01*
X124147448Y-78631104D01*
X124382663Y-78694129D01*
X124404464Y-78697973D01*
X124647051Y-78719197D01*
X124658120Y-78719680D01*
X124704095Y-78719680D01*
X125053517Y-78740775D01*
X125394099Y-78803063D01*
X125724714Y-78905872D01*
X126040549Y-79047703D01*
X126337037Y-79226505D01*
X126609858Y-79439672D01*
X126857776Y-79686827D01*
X129129169Y-82242146D01*
X129134426Y-82247713D01*
X129390482Y-82502981D01*
X129401953Y-82513114D01*
X129686859Y-82735724D01*
X129699466Y-82744404D01*
X130009082Y-82931123D01*
X130022642Y-82938223D01*
X130352473Y-83086339D01*
X130366788Y-83091757D01*
X130712041Y-83199118D01*
X130726904Y-83202774D01*
X131082566Y-83267820D01*
X131097761Y-83269661D01*
X131458665Y-83291449D01*
X131466318Y-83291680D01*
X139565120Y-83291680D01*
X139572241Y-83291480D01*
X139908134Y-83272617D01*
X139922286Y-83271023D01*
X140253956Y-83214670D01*
X140267841Y-83211500D01*
X140591115Y-83118366D01*
X140604558Y-83113663D01*
X140915372Y-82984920D01*
X140928203Y-82978740D01*
X141222648Y-82816006D01*
X141234707Y-82808429D01*
X141509080Y-82613750D01*
X141520215Y-82604871D01*
X141771066Y-82380697D01*
X141781137Y-82370626D01*
X142005311Y-82119775D01*
X142014190Y-82108640D01*
X142208869Y-81834267D01*
X142216446Y-81822208D01*
X142379180Y-81527763D01*
X142385360Y-81514932D01*
X142514103Y-81204118D01*
X142518806Y-81190675D01*
X142611940Y-80867401D01*
X142615110Y-80853516D01*
X142671463Y-80521846D01*
X142673057Y-80507694D01*
X142691920Y-80171801D01*
X142692120Y-80164680D01*
X142692120Y-77938466D01*
X145337394Y-77938466D01*
X147597120Y-80198193D01*
G36*
X122624368Y-77944538D02*
G01*
X122610225Y-77958680D01*
X122624368Y-77972823D01*
X122444763Y-78152428D01*
X122430620Y-78138285D01*
X122416478Y-78152428D01*
X122236873Y-77972823D01*
X122251015Y-77958680D01*
X122236873Y-77944538D01*
X122416478Y-77764933D01*
X122430620Y-77779075D01*
X122444763Y-77764933D01*
X122624368Y-77944538D01*
G37*
X122624368Y-77944538D02*
X122610225Y-77958680D01*
X122624368Y-77972823D01*
X122444763Y-78152428D01*
X122430620Y-78138285D01*
X122416478Y-78152428D01*
X122236873Y-77972823D01*
X122251015Y-77958680D01*
X122236873Y-77944538D01*
X122416478Y-77764933D01*
X122430620Y-77779075D01*
X122444763Y-77764933D01*
X122624368Y-77944538D01*
G36*
X120340120Y-73766680D02*
G01*
X120342560Y-73791456D01*
X120348073Y-73809629D01*
X120268930Y-73851931D01*
X120244139Y-73872277D01*
X120145592Y-73953152D01*
X120120220Y-73984068D01*
X119160503Y-74943785D01*
X119129593Y-74969152D01*
X119104228Y-75000060D01*
X119028371Y-75092491D01*
X118959516Y-75221312D01*
X118953158Y-75233207D01*
X118906841Y-75385892D01*
X118895332Y-75502743D01*
X118891201Y-75544680D01*
X118895120Y-75584468D01*
X118895120Y-76328392D01*
X118891201Y-76368180D01*
X118895120Y-76407968D01*
X118895120Y-76407970D01*
X118906840Y-76526967D01*
X118953157Y-76679652D01*
X118988169Y-76745155D01*
X119028371Y-76820369D01*
X119040290Y-76834892D01*
X119129592Y-76943708D01*
X119160507Y-76969079D01*
X119340108Y-77148680D01*
X117749631Y-77148680D01*
X117318511Y-76717561D01*
X117293146Y-76686654D01*
X117262238Y-76661288D01*
X117213120Y-76612170D01*
X117213120Y-76195380D01*
X117320325Y-76034936D01*
X117398346Y-75846578D01*
X117438120Y-75646619D01*
X117438120Y-75442741D01*
X117398346Y-75242782D01*
X117320325Y-75054424D01*
X117207057Y-74884906D01*
X117062894Y-74740743D01*
X116893376Y-74627475D01*
X116705018Y-74549454D01*
X116505059Y-74509680D01*
X116401120Y-74509680D01*
X116401120Y-71469831D01*
X116451018Y-71459906D01*
X116639376Y-71381885D01*
X116808894Y-71268617D01*
X116953057Y-71124454D01*
X117066325Y-70954936D01*
X117144346Y-70766578D01*
X117184120Y-70566619D01*
X117184120Y-70362741D01*
X117152879Y-70205680D01*
X120340120Y-70205680D01*
X120340120Y-73766680D01*
G37*
X120340120Y-73766680D02*
X120342560Y-73791456D01*
X120348073Y-73809629D01*
X120268930Y-73851931D01*
X120244139Y-73872277D01*
X120145592Y-73953152D01*
X120120220Y-73984068D01*
X119160503Y-74943785D01*
X119129593Y-74969152D01*
X119104228Y-75000060D01*
X119028371Y-75092491D01*
X118959516Y-75221312D01*
X118953158Y-75233207D01*
X118906841Y-75385892D01*
X118895332Y-75502743D01*
X118891201Y-75544680D01*
X118895120Y-75584468D01*
X118895120Y-76328392D01*
X118891201Y-76368180D01*
X118895120Y-76407968D01*
X118895120Y-76407970D01*
X118906840Y-76526967D01*
X118953157Y-76679652D01*
X118988169Y-76745155D01*
X119028371Y-76820369D01*
X119040290Y-76834892D01*
X119129592Y-76943708D01*
X119160507Y-76969079D01*
X119340108Y-77148680D01*
X117749631Y-77148680D01*
X117318511Y-76717561D01*
X117293146Y-76686654D01*
X117262238Y-76661288D01*
X117213120Y-76612170D01*
X117213120Y-76195380D01*
X117320325Y-76034936D01*
X117398346Y-75846578D01*
X117438120Y-75646619D01*
X117438120Y-75442741D01*
X117398346Y-75242782D01*
X117320325Y-75054424D01*
X117207057Y-74884906D01*
X117062894Y-74740743D01*
X116893376Y-74627475D01*
X116705018Y-74549454D01*
X116505059Y-74509680D01*
X116401120Y-74509680D01*
X116401120Y-71469831D01*
X116451018Y-71459906D01*
X116639376Y-71381885D01*
X116808894Y-71268617D01*
X116953057Y-71124454D01*
X117066325Y-70954936D01*
X117144346Y-70766578D01*
X117184120Y-70566619D01*
X117184120Y-70362741D01*
X117152879Y-70205680D01*
X120340120Y-70205680D01*
X120340120Y-73766680D01*
G36*
X130985377Y-76955449D02*
G01*
X131075075Y-76992603D01*
X131152096Y-77051704D01*
X131211197Y-77128725D01*
X131248351Y-77218423D01*
X131262120Y-77323008D01*
X131262120Y-78182314D01*
X131243340Y-78304030D01*
X131193116Y-78405589D01*
X131114617Y-78487286D01*
X131015144Y-78541523D01*
X130903948Y-78563255D01*
X130781578Y-78549349D01*
X129004978Y-78064821D01*
X128908017Y-78024203D01*
X128831437Y-77965061D01*
X128772704Y-77888164D01*
X128735796Y-77798722D01*
X128722120Y-77694485D01*
X128722120Y-77323008D01*
X128735889Y-77218423D01*
X128773043Y-77128725D01*
X128832144Y-77051704D01*
X128909165Y-76992603D01*
X128998863Y-76955449D01*
X129103448Y-76941680D01*
X130880792Y-76941680D01*
X130985377Y-76955449D01*
G37*
X130985377Y-76955449D02*
X131075075Y-76992603D01*
X131152096Y-77051704D01*
X131211197Y-77128725D01*
X131248351Y-77218423D01*
X131262120Y-77323008D01*
X131262120Y-78182314D01*
X131243340Y-78304030D01*
X131193116Y-78405589D01*
X131114617Y-78487286D01*
X131015144Y-78541523D01*
X130903948Y-78563255D01*
X130781578Y-78549349D01*
X129004978Y-78064821D01*
X128908017Y-78024203D01*
X128831437Y-77965061D01*
X128772704Y-77888164D01*
X128735796Y-77798722D01*
X128722120Y-77694485D01*
X128722120Y-77323008D01*
X128735889Y-77218423D01*
X128773043Y-77128725D01*
X128832144Y-77051704D01*
X128909165Y-76992603D01*
X128998863Y-76955449D01*
X129103448Y-76941680D01*
X130880792Y-76941680D01*
X130985377Y-76955449D01*
M02*
