M48
INCH,TZ
T1C0.0157
T2C0.0378
T3C0.0394
%
G90
G05
T1
X42428Y-27042
X42728Y-25142
X43128Y-30042
X43828Y-28742
X44028Y-25242
X44035Y-24442
X44078Y-27016
X44628Y-23742
X44628Y-26042
X44628Y-28042
X44928Y-28542
X45128Y-27321
X45328Y-36942
X45428Y-26242
X45565Y-34442
X45628Y-21442
X45728Y-27742
X45828Y-24342
X45828Y-29742
X46028Y-35234
X46028Y-20642
X46128Y-26342
X46528Y-24242
X46628Y-21547
X46628Y-29742
X46828Y-29042
X46828Y-32392
X47128Y-20642
X47128Y-22842
X47328Y-38942
X47428Y-31542
X47623Y-35042
X47728Y-21242
X47807Y-31863
X47828Y-24547
X47928Y-33642
X48228Y-26242
X48328Y-23442
X48328Y-35342
X48328Y-38842
X48329Y-35743
X48828Y-34442
X48928Y-32242
X49428Y-38642
X49528Y-27142
X49528Y-31142
X49928Y-33247
X50028Y-36442
X50328Y-23442
X50823Y-27742
X51028Y-36542
X52328Y-28942
X52328Y-31942
X53028Y-36542
X53328Y-30942
X53828Y-31442
X55943Y-30366
X57328Y-31442
T2
X48201Y-30692
T3
X44528Y-31642
X44528Y-30142
X52128Y-33542
X40628Y-28242
X40628Y-29242
X40628Y-30242
X40628Y-31242
X40628Y-32242
X40628Y-33242
X39128Y-28242
X39128Y-29242
X39128Y-30242
X39128Y-31242
X39128Y-32242
X39128Y-33242
T0
M30
