G04 #@! TF.GenerationSoftware,KiCad,Pcbnew,(5.1.6)-1*
G04 #@! TF.CreationDate,2020-10-27T13:23:37+01:00*
G04 #@! TF.ProjectId,SoundModulev2,536f756e-644d-46f6-9475-6c6576322e6b,rev?*
G04 #@! TF.SameCoordinates,Original*
G04 #@! TF.FileFunction,Copper,L1,Top*
G04 #@! TF.FilePolarity,Positive*
%FSLAX46Y46*%
G04 Gerber Fmt 4.6, Leading zero omitted, Abs format (unit mm)*
G04 Created by KiCad (PCBNEW (5.1.6)-1) date 2020-10-27 13:23:37*
%MOMM*%
%LPD*%
G01*
G04 APERTURE LIST*
G04 #@! TA.AperFunction,ComponentPad*
%ADD10R,1.700000X1.700000*%
G04 #@! TD*
G04 #@! TA.AperFunction,SMDPad,CuDef*
%ADD11R,0.850000X0.300000*%
G04 #@! TD*
G04 #@! TA.AperFunction,SMDPad,CuDef*
%ADD12R,1.524000X4.000000*%
G04 #@! TD*
G04 #@! TA.AperFunction,ComponentPad*
%ADD13O,1.700000X1.700000*%
G04 #@! TD*
G04 #@! TA.AperFunction,ComponentPad*
%ADD14C,1.560000*%
G04 #@! TD*
G04 #@! TA.AperFunction,SMDPad,CuDef*
%ADD15R,2.500000X0.450000*%
G04 #@! TD*
G04 #@! TA.AperFunction,SMDPad,CuDef*
%ADD16R,0.550000X1.200000*%
G04 #@! TD*
G04 #@! TA.AperFunction,SMDPad,CuDef*
%ADD17R,1.200000X0.550000*%
G04 #@! TD*
G04 #@! TA.AperFunction,ViaPad*
%ADD18C,0.800000*%
G04 #@! TD*
G04 #@! TA.AperFunction,Conductor*
%ADD19C,0.350000*%
G04 #@! TD*
G04 #@! TA.AperFunction,Conductor*
%ADD20C,0.250000*%
G04 #@! TD*
G04 #@! TA.AperFunction,Conductor*
%ADD21C,0.254000*%
G04 #@! TD*
G04 APERTURE END LIST*
D10*
X113101120Y-76560680D03*
G04 #@! TA.AperFunction,SMDPad,CuDef*
G36*
G01*
X116853121Y-77634680D02*
X115953119Y-77634680D01*
G75*
G02*
X115703120Y-77384681I0J249999D01*
G01*
X115703120Y-76734679D01*
G75*
G02*
X115953119Y-76484680I249999J0D01*
G01*
X116853121Y-76484680D01*
G75*
G02*
X117103120Y-76734679I0J-249999D01*
G01*
X117103120Y-77384681D01*
G75*
G02*
X116853121Y-77634680I-249999J0D01*
G01*
G37*
G04 #@! TD.AperFunction*
G04 #@! TA.AperFunction,SMDPad,CuDef*
G36*
G01*
X116853121Y-79684680D02*
X115953119Y-79684680D01*
G75*
G02*
X115703120Y-79434681I0J249999D01*
G01*
X115703120Y-78784679D01*
G75*
G02*
X115953119Y-78534680I249999J0D01*
G01*
X116853121Y-78534680D01*
G75*
G02*
X117103120Y-78784679I0J-249999D01*
G01*
X117103120Y-79434681D01*
G75*
G02*
X116853121Y-79684680I-249999J0D01*
G01*
G37*
G04 #@! TD.AperFunction*
D11*
X140838120Y-76572680D03*
X140838120Y-77072680D03*
X140838120Y-77572680D03*
X140838120Y-78072680D03*
X137688120Y-78072680D03*
X137688120Y-77572680D03*
X137688120Y-77072680D03*
X137688120Y-76572680D03*
G04 #@! TA.AperFunction,SMDPad,CuDef*
G36*
G01*
X136273120Y-73062679D02*
X136273120Y-73962681D01*
G75*
G02*
X136023121Y-74212680I-249999J0D01*
G01*
X135373119Y-74212680D01*
G75*
G02*
X135123120Y-73962681I0J249999D01*
G01*
X135123120Y-73062679D01*
G75*
G02*
X135373119Y-72812680I249999J0D01*
G01*
X136023121Y-72812680D01*
G75*
G02*
X136273120Y-73062679I0J-249999D01*
G01*
G37*
G04 #@! TD.AperFunction*
G04 #@! TA.AperFunction,SMDPad,CuDef*
G36*
G01*
X138323120Y-73062679D02*
X138323120Y-73962681D01*
G75*
G02*
X138073121Y-74212680I-249999J0D01*
G01*
X137423119Y-74212680D01*
G75*
G02*
X137173120Y-73962681I0J249999D01*
G01*
X137173120Y-73062679D01*
G75*
G02*
X137423119Y-72812680I249999J0D01*
G01*
X138073121Y-72812680D01*
G75*
G02*
X138323120Y-73062679I0J-249999D01*
G01*
G37*
G04 #@! TD.AperFunction*
G04 #@! TA.AperFunction,SMDPad,CuDef*
G36*
G01*
X136273120Y-80682679D02*
X136273120Y-81582681D01*
G75*
G02*
X136023121Y-81832680I-249999J0D01*
G01*
X135373119Y-81832680D01*
G75*
G02*
X135123120Y-81582681I0J249999D01*
G01*
X135123120Y-80682679D01*
G75*
G02*
X135373119Y-80432680I249999J0D01*
G01*
X136023121Y-80432680D01*
G75*
G02*
X136273120Y-80682679I0J-249999D01*
G01*
G37*
G04 #@! TD.AperFunction*
G04 #@! TA.AperFunction,SMDPad,CuDef*
G36*
G01*
X138323120Y-80682679D02*
X138323120Y-81582681D01*
G75*
G02*
X138073121Y-81832680I-249999J0D01*
G01*
X137423119Y-81832680D01*
G75*
G02*
X137173120Y-81582681I0J249999D01*
G01*
X137173120Y-80682679D01*
G75*
G02*
X137423119Y-80432680I249999J0D01*
G01*
X138073121Y-80432680D01*
G75*
G02*
X138323120Y-80682679I0J-249999D01*
G01*
G37*
G04 #@! TD.AperFunction*
G04 #@! TA.AperFunction,SMDPad,CuDef*
G36*
G01*
X141353120Y-73062679D02*
X141353120Y-73962681D01*
G75*
G02*
X141103121Y-74212680I-249999J0D01*
G01*
X140453119Y-74212680D01*
G75*
G02*
X140203120Y-73962681I0J249999D01*
G01*
X140203120Y-73062679D01*
G75*
G02*
X140453119Y-72812680I249999J0D01*
G01*
X141103121Y-72812680D01*
G75*
G02*
X141353120Y-73062679I0J-249999D01*
G01*
G37*
G04 #@! TD.AperFunction*
G04 #@! TA.AperFunction,SMDPad,CuDef*
G36*
G01*
X143403120Y-73062679D02*
X143403120Y-73962681D01*
G75*
G02*
X143153121Y-74212680I-249999J0D01*
G01*
X142503119Y-74212680D01*
G75*
G02*
X142253120Y-73962681I0J249999D01*
G01*
X142253120Y-73062679D01*
G75*
G02*
X142503119Y-72812680I249999J0D01*
G01*
X143153121Y-72812680D01*
G75*
G02*
X143403120Y-73062679I0J-249999D01*
G01*
G37*
G04 #@! TD.AperFunction*
G04 #@! TA.AperFunction,SMDPad,CuDef*
G36*
G01*
X141353120Y-80682679D02*
X141353120Y-81582681D01*
G75*
G02*
X141103121Y-81832680I-249999J0D01*
G01*
X140453119Y-81832680D01*
G75*
G02*
X140203120Y-81582681I0J249999D01*
G01*
X140203120Y-80682679D01*
G75*
G02*
X140453119Y-80432680I249999J0D01*
G01*
X141103121Y-80432680D01*
G75*
G02*
X141353120Y-80682679I0J-249999D01*
G01*
G37*
G04 #@! TD.AperFunction*
G04 #@! TA.AperFunction,SMDPad,CuDef*
G36*
G01*
X143403120Y-80682679D02*
X143403120Y-81582681D01*
G75*
G02*
X143153121Y-81832680I-249999J0D01*
G01*
X142503119Y-81832680D01*
G75*
G02*
X142253120Y-81582681I0J249999D01*
G01*
X142253120Y-80682679D01*
G75*
G02*
X142503119Y-80432680I249999J0D01*
G01*
X143153121Y-80432680D01*
G75*
G02*
X143403120Y-80682679I0J-249999D01*
G01*
G37*
G04 #@! TD.AperFunction*
G04 #@! TA.AperFunction,SMDPad,CuDef*
G36*
G01*
X143893119Y-77772680D02*
X144793121Y-77772680D01*
G75*
G02*
X145043120Y-78022679I0J-249999D01*
G01*
X145043120Y-78672681D01*
G75*
G02*
X144793121Y-78922680I-249999J0D01*
G01*
X143893119Y-78922680D01*
G75*
G02*
X143643120Y-78672681I0J249999D01*
G01*
X143643120Y-78022679D01*
G75*
G02*
X143893119Y-77772680I249999J0D01*
G01*
G37*
G04 #@! TD.AperFunction*
G04 #@! TA.AperFunction,SMDPad,CuDef*
G36*
G01*
X143893119Y-75722680D02*
X144793121Y-75722680D01*
G75*
G02*
X145043120Y-75972679I0J-249999D01*
G01*
X145043120Y-76622681D01*
G75*
G02*
X144793121Y-76872680I-249999J0D01*
G01*
X143893119Y-76872680D01*
G75*
G02*
X143643120Y-76622681I0J249999D01*
G01*
X143643120Y-75972679D01*
G75*
G02*
X143893119Y-75722680I249999J0D01*
G01*
G37*
G04 #@! TD.AperFunction*
D12*
X119941340Y-101918520D03*
X122481340Y-101918520D03*
X125021340Y-101918520D03*
G04 #@! TA.AperFunction,SMDPad,CuDef*
G36*
G01*
X122196120Y-82852681D02*
X122196120Y-81952679D01*
G75*
G02*
X122446119Y-81702680I249999J0D01*
G01*
X123096121Y-81702680D01*
G75*
G02*
X123346120Y-81952679I0J-249999D01*
G01*
X123346120Y-82852681D01*
G75*
G02*
X123096121Y-83102680I-249999J0D01*
G01*
X122446119Y-83102680D01*
G75*
G02*
X122196120Y-82852681I0J249999D01*
G01*
G37*
G04 #@! TD.AperFunction*
G04 #@! TA.AperFunction,SMDPad,CuDef*
G36*
G01*
X120146120Y-82852681D02*
X120146120Y-81952679D01*
G75*
G02*
X120396119Y-81702680I249999J0D01*
G01*
X121046121Y-81702680D01*
G75*
G02*
X121296120Y-81952679I0J-249999D01*
G01*
X121296120Y-82852681D01*
G75*
G02*
X121046121Y-83102680I-249999J0D01*
G01*
X120396119Y-83102680D01*
G75*
G02*
X120146120Y-82852681I0J249999D01*
G01*
G37*
G04 #@! TD.AperFunction*
G04 #@! TA.AperFunction,SMDPad,CuDef*
G36*
G01*
X118885121Y-79675680D02*
X117985119Y-79675680D01*
G75*
G02*
X117735120Y-79425681I0J249999D01*
G01*
X117735120Y-78775679D01*
G75*
G02*
X117985119Y-78525680I249999J0D01*
G01*
X118885121Y-78525680D01*
G75*
G02*
X119135120Y-78775679I0J-249999D01*
G01*
X119135120Y-79425681D01*
G75*
G02*
X118885121Y-79675680I-249999J0D01*
G01*
G37*
G04 #@! TD.AperFunction*
G04 #@! TA.AperFunction,SMDPad,CuDef*
G36*
G01*
X118885121Y-77625680D02*
X117985119Y-77625680D01*
G75*
G02*
X117735120Y-77375681I0J249999D01*
G01*
X117735120Y-76725679D01*
G75*
G02*
X117985119Y-76475680I249999J0D01*
G01*
X118885121Y-76475680D01*
G75*
G02*
X119135120Y-76725679I0J-249999D01*
G01*
X119135120Y-77375681D01*
G75*
G02*
X118885121Y-77625680I-249999J0D01*
G01*
G37*
G04 #@! TD.AperFunction*
G04 #@! TA.AperFunction,SMDPad,CuDef*
G36*
G01*
X128283121Y-71039680D02*
X127383119Y-71039680D01*
G75*
G02*
X127133120Y-70789681I0J249999D01*
G01*
X127133120Y-70139679D01*
G75*
G02*
X127383119Y-69889680I249999J0D01*
G01*
X128283121Y-69889680D01*
G75*
G02*
X128533120Y-70139679I0J-249999D01*
G01*
X128533120Y-70789681D01*
G75*
G02*
X128283121Y-71039680I-249999J0D01*
G01*
G37*
G04 #@! TD.AperFunction*
G04 #@! TA.AperFunction,SMDPad,CuDef*
G36*
G01*
X128283121Y-73089680D02*
X127383119Y-73089680D01*
G75*
G02*
X127133120Y-72839681I0J249999D01*
G01*
X127133120Y-72189679D01*
G75*
G02*
X127383119Y-71939680I249999J0D01*
G01*
X128283121Y-71939680D01*
G75*
G02*
X128533120Y-72189679I0J-249999D01*
G01*
X128533120Y-72839681D01*
G75*
G02*
X128283121Y-73089680I-249999J0D01*
G01*
G37*
G04 #@! TD.AperFunction*
G04 #@! TA.AperFunction,SMDPad,CuDef*
G36*
G01*
X115699119Y-71921680D02*
X116599121Y-71921680D01*
G75*
G02*
X116849120Y-72171679I0J-249999D01*
G01*
X116849120Y-72821681D01*
G75*
G02*
X116599121Y-73071680I-249999J0D01*
G01*
X115699119Y-73071680D01*
G75*
G02*
X115449120Y-72821681I0J249999D01*
G01*
X115449120Y-72171679D01*
G75*
G02*
X115699119Y-71921680I249999J0D01*
G01*
G37*
G04 #@! TD.AperFunction*
G04 #@! TA.AperFunction,SMDPad,CuDef*
G36*
G01*
X115699119Y-69871680D02*
X116599121Y-69871680D01*
G75*
G02*
X116849120Y-70121679I0J-249999D01*
G01*
X116849120Y-70771681D01*
G75*
G02*
X116599121Y-71021680I-249999J0D01*
G01*
X115699119Y-71021680D01*
G75*
G02*
X115449120Y-70771681I0J249999D01*
G01*
X115449120Y-70121679D01*
G75*
G02*
X115699119Y-69871680I249999J0D01*
G01*
G37*
G04 #@! TD.AperFunction*
G04 #@! TA.AperFunction,SMDPad,CuDef*
G36*
G01*
X128283121Y-65977680D02*
X127383119Y-65977680D01*
G75*
G02*
X127133120Y-65727681I0J249999D01*
G01*
X127133120Y-65077679D01*
G75*
G02*
X127383119Y-64827680I249999J0D01*
G01*
X128283121Y-64827680D01*
G75*
G02*
X128533120Y-65077679I0J-249999D01*
G01*
X128533120Y-65727681D01*
G75*
G02*
X128283121Y-65977680I-249999J0D01*
G01*
G37*
G04 #@! TD.AperFunction*
G04 #@! TA.AperFunction,SMDPad,CuDef*
G36*
G01*
X128283121Y-63927680D02*
X127383119Y-63927680D01*
G75*
G02*
X127133120Y-63677681I0J249999D01*
G01*
X127133120Y-63027679D01*
G75*
G02*
X127383119Y-62777680I249999J0D01*
G01*
X128283121Y-62777680D01*
G75*
G02*
X128533120Y-63027679I0J-249999D01*
G01*
X128533120Y-63677681D01*
G75*
G02*
X128283121Y-63927680I-249999J0D01*
G01*
G37*
G04 #@! TD.AperFunction*
G04 #@! TA.AperFunction,SMDPad,CuDef*
G36*
G01*
X111274120Y-64564681D02*
X111274120Y-63664679D01*
G75*
G02*
X111524119Y-63414680I249999J0D01*
G01*
X112174121Y-63414680D01*
G75*
G02*
X112424120Y-63664679I0J-249999D01*
G01*
X112424120Y-64564681D01*
G75*
G02*
X112174121Y-64814680I-249999J0D01*
G01*
X111524119Y-64814680D01*
G75*
G02*
X111274120Y-64564681I0J249999D01*
G01*
G37*
G04 #@! TD.AperFunction*
G04 #@! TA.AperFunction,SMDPad,CuDef*
G36*
G01*
X109224120Y-64564681D02*
X109224120Y-63664679D01*
G75*
G02*
X109474119Y-63414680I249999J0D01*
G01*
X110124121Y-63414680D01*
G75*
G02*
X110374120Y-63664679I0J-249999D01*
G01*
X110374120Y-64564681D01*
G75*
G02*
X110124121Y-64814680I-249999J0D01*
G01*
X109474119Y-64814680D01*
G75*
G02*
X109224120Y-64564681I0J249999D01*
G01*
G37*
G04 #@! TD.AperFunction*
G04 #@! TA.AperFunction,SMDPad,CuDef*
G36*
G01*
X118123121Y-63927680D02*
X117223119Y-63927680D01*
G75*
G02*
X116973120Y-63677681I0J249999D01*
G01*
X116973120Y-63027679D01*
G75*
G02*
X117223119Y-62777680I249999J0D01*
G01*
X118123121Y-62777680D01*
G75*
G02*
X118373120Y-63027679I0J-249999D01*
G01*
X118373120Y-63677681D01*
G75*
G02*
X118123121Y-63927680I-249999J0D01*
G01*
G37*
G04 #@! TD.AperFunction*
G04 #@! TA.AperFunction,SMDPad,CuDef*
G36*
G01*
X118123121Y-65977680D02*
X117223119Y-65977680D01*
G75*
G02*
X116973120Y-65727681I0J249999D01*
G01*
X116973120Y-65077679D01*
G75*
G02*
X117223119Y-64827680I249999J0D01*
G01*
X118123121Y-64827680D01*
G75*
G02*
X118373120Y-65077679I0J-249999D01*
G01*
X118373120Y-65727681D01*
G75*
G02*
X118123121Y-65977680I-249999J0D01*
G01*
G37*
G04 #@! TD.AperFunction*
G04 #@! TA.AperFunction,SMDPad,CuDef*
G36*
G01*
X120155121Y-65977680D02*
X119255119Y-65977680D01*
G75*
G02*
X119005120Y-65727681I0J249999D01*
G01*
X119005120Y-65077679D01*
G75*
G02*
X119255119Y-64827680I249999J0D01*
G01*
X120155121Y-64827680D01*
G75*
G02*
X120405120Y-65077679I0J-249999D01*
G01*
X120405120Y-65727681D01*
G75*
G02*
X120155121Y-65977680I-249999J0D01*
G01*
G37*
G04 #@! TD.AperFunction*
G04 #@! TA.AperFunction,SMDPad,CuDef*
G36*
G01*
X120155121Y-63927680D02*
X119255119Y-63927680D01*
G75*
G02*
X119005120Y-63677681I0J249999D01*
G01*
X119005120Y-63027679D01*
G75*
G02*
X119255119Y-62777680I249999J0D01*
G01*
X120155121Y-62777680D01*
G75*
G02*
X120405120Y-63027679I0J-249999D01*
G01*
X120405120Y-63677681D01*
G75*
G02*
X120155121Y-63927680I-249999J0D01*
G01*
G37*
G04 #@! TD.AperFunction*
G04 #@! TA.AperFunction,SMDPad,CuDef*
G36*
G01*
X120155121Y-58593680D02*
X119255119Y-58593680D01*
G75*
G02*
X119005120Y-58343681I0J249999D01*
G01*
X119005120Y-57693679D01*
G75*
G02*
X119255119Y-57443680I249999J0D01*
G01*
X120155121Y-57443680D01*
G75*
G02*
X120405120Y-57693679I0J-249999D01*
G01*
X120405120Y-58343681D01*
G75*
G02*
X120155121Y-58593680I-249999J0D01*
G01*
G37*
G04 #@! TD.AperFunction*
G04 #@! TA.AperFunction,SMDPad,CuDef*
G36*
G01*
X120155121Y-56543680D02*
X119255119Y-56543680D01*
G75*
G02*
X119005120Y-56293681I0J249999D01*
G01*
X119005120Y-55643679D01*
G75*
G02*
X119255119Y-55393680I249999J0D01*
G01*
X120155121Y-55393680D01*
G75*
G02*
X120405120Y-55643679I0J-249999D01*
G01*
X120405120Y-56293681D01*
G75*
G02*
X120155121Y-56543680I-249999J0D01*
G01*
G37*
G04 #@! TD.AperFunction*
G04 #@! TA.AperFunction,SMDPad,CuDef*
G36*
G01*
X125351119Y-55393680D02*
X126251121Y-55393680D01*
G75*
G02*
X126501120Y-55643679I0J-249999D01*
G01*
X126501120Y-56293681D01*
G75*
G02*
X126251121Y-56543680I-249999J0D01*
G01*
X125351119Y-56543680D01*
G75*
G02*
X125101120Y-56293681I0J249999D01*
G01*
X125101120Y-55643679D01*
G75*
G02*
X125351119Y-55393680I249999J0D01*
G01*
G37*
G04 #@! TD.AperFunction*
G04 #@! TA.AperFunction,SMDPad,CuDef*
G36*
G01*
X125351119Y-57443680D02*
X126251121Y-57443680D01*
G75*
G02*
X126501120Y-57693679I0J-249999D01*
G01*
X126501120Y-58343681D01*
G75*
G02*
X126251121Y-58593680I-249999J0D01*
G01*
X125351119Y-58593680D01*
G75*
G02*
X125101120Y-58343681I0J249999D01*
G01*
X125101120Y-57693679D01*
G75*
G02*
X125351119Y-57443680I249999J0D01*
G01*
G37*
G04 #@! TD.AperFunction*
G04 #@! TA.AperFunction,SMDPad,CuDef*
G36*
G01*
X131585121Y-95632180D02*
X130685119Y-95632180D01*
G75*
G02*
X130435120Y-95382181I0J249999D01*
G01*
X130435120Y-94732179D01*
G75*
G02*
X130685119Y-94482180I249999J0D01*
G01*
X131585121Y-94482180D01*
G75*
G02*
X131835120Y-94732179I0J-249999D01*
G01*
X131835120Y-95382181D01*
G75*
G02*
X131585121Y-95632180I-249999J0D01*
G01*
G37*
G04 #@! TD.AperFunction*
G04 #@! TA.AperFunction,SMDPad,CuDef*
G36*
G01*
X131585121Y-93582180D02*
X130685119Y-93582180D01*
G75*
G02*
X130435120Y-93332181I0J249999D01*
G01*
X130435120Y-92682179D01*
G75*
G02*
X130685119Y-92432180I249999J0D01*
G01*
X131585121Y-92432180D01*
G75*
G02*
X131835120Y-92682179I0J-249999D01*
G01*
X131835120Y-93332181D01*
G75*
G02*
X131585121Y-93582180I-249999J0D01*
G01*
G37*
G04 #@! TD.AperFunction*
D10*
X103195120Y-84434680D03*
D13*
X103195120Y-81894680D03*
X103195120Y-79354680D03*
X103195120Y-76814680D03*
X103195120Y-74274680D03*
X103195120Y-71734680D03*
X99385120Y-71734680D03*
X99385120Y-74274680D03*
X99385120Y-76814680D03*
X99385120Y-79354680D03*
X99385120Y-81894680D03*
D10*
X99385120Y-84434680D03*
X132405120Y-85196680D03*
D14*
X122430620Y-77958680D03*
G04 #@! TA.AperFunction,SMDPad,CuDef*
G36*
G01*
X106555119Y-85129680D02*
X107455121Y-85129680D01*
G75*
G02*
X107705120Y-85379679I0J-249999D01*
G01*
X107705120Y-86029681D01*
G75*
G02*
X107455121Y-86279680I-249999J0D01*
G01*
X106555119Y-86279680D01*
G75*
G02*
X106305120Y-86029681I0J249999D01*
G01*
X106305120Y-85379679D01*
G75*
G02*
X106555119Y-85129680I249999J0D01*
G01*
G37*
G04 #@! TD.AperFunction*
G04 #@! TA.AperFunction,SMDPad,CuDef*
G36*
G01*
X106555119Y-83079680D02*
X107455121Y-83079680D01*
G75*
G02*
X107705120Y-83329679I0J-249999D01*
G01*
X107705120Y-83979681D01*
G75*
G02*
X107455121Y-84229680I-249999J0D01*
G01*
X106555119Y-84229680D01*
G75*
G02*
X106305120Y-83979681I0J249999D01*
G01*
X106305120Y-83329679D01*
G75*
G02*
X106555119Y-83079680I249999J0D01*
G01*
G37*
G04 #@! TD.AperFunction*
G04 #@! TA.AperFunction,SMDPad,CuDef*
G36*
G01*
X133553621Y-93582180D02*
X132653619Y-93582180D01*
G75*
G02*
X132403620Y-93332181I0J249999D01*
G01*
X132403620Y-92682179D01*
G75*
G02*
X132653619Y-92432180I249999J0D01*
G01*
X133553621Y-92432180D01*
G75*
G02*
X133803620Y-92682179I0J-249999D01*
G01*
X133803620Y-93332181D01*
G75*
G02*
X133553621Y-93582180I-249999J0D01*
G01*
G37*
G04 #@! TD.AperFunction*
G04 #@! TA.AperFunction,SMDPad,CuDef*
G36*
G01*
X133553621Y-95632180D02*
X132653619Y-95632180D01*
G75*
G02*
X132403620Y-95382181I0J249999D01*
G01*
X132403620Y-94732179D01*
G75*
G02*
X132653619Y-94482180I249999J0D01*
G01*
X133553621Y-94482180D01*
G75*
G02*
X133803620Y-94732179I0J-249999D01*
G01*
X133803620Y-95382181D01*
G75*
G02*
X133553621Y-95632180I-249999J0D01*
G01*
G37*
G04 #@! TD.AperFunction*
G04 #@! TA.AperFunction,SMDPad,CuDef*
G36*
G01*
X126251121Y-73089680D02*
X125351119Y-73089680D01*
G75*
G02*
X125101120Y-72839681I0J249999D01*
G01*
X125101120Y-72189679D01*
G75*
G02*
X125351119Y-71939680I249999J0D01*
G01*
X126251121Y-71939680D01*
G75*
G02*
X126501120Y-72189679I0J-249999D01*
G01*
X126501120Y-72839681D01*
G75*
G02*
X126251121Y-73089680I-249999J0D01*
G01*
G37*
G04 #@! TD.AperFunction*
G04 #@! TA.AperFunction,SMDPad,CuDef*
G36*
G01*
X126251121Y-71039680D02*
X125351119Y-71039680D01*
G75*
G02*
X125101120Y-70789681I0J249999D01*
G01*
X125101120Y-70139679D01*
G75*
G02*
X125351119Y-69889680I249999J0D01*
G01*
X126251121Y-69889680D01*
G75*
G02*
X126501120Y-70139679I0J-249999D01*
G01*
X126501120Y-70789681D01*
G75*
G02*
X126251121Y-71039680I-249999J0D01*
G01*
G37*
G04 #@! TD.AperFunction*
G04 #@! TA.AperFunction,SMDPad,CuDef*
G36*
G01*
X123319119Y-71939680D02*
X124219121Y-71939680D01*
G75*
G02*
X124469120Y-72189679I0J-249999D01*
G01*
X124469120Y-72839681D01*
G75*
G02*
X124219121Y-73089680I-249999J0D01*
G01*
X123319119Y-73089680D01*
G75*
G02*
X123069120Y-72839681I0J249999D01*
G01*
X123069120Y-72189679D01*
G75*
G02*
X123319119Y-71939680I249999J0D01*
G01*
G37*
G04 #@! TD.AperFunction*
G04 #@! TA.AperFunction,SMDPad,CuDef*
G36*
G01*
X123319119Y-69889680D02*
X124219121Y-69889680D01*
G75*
G02*
X124469120Y-70139679I0J-249999D01*
G01*
X124469120Y-70789681D01*
G75*
G02*
X124219121Y-71039680I-249999J0D01*
G01*
X123319119Y-71039680D01*
G75*
G02*
X123069120Y-70789681I0J249999D01*
G01*
X123069120Y-70139679D01*
G75*
G02*
X123319119Y-69889680I249999J0D01*
G01*
G37*
G04 #@! TD.AperFunction*
G04 #@! TA.AperFunction,SMDPad,CuDef*
G36*
G01*
X112424120Y-61632679D02*
X112424120Y-62532681D01*
G75*
G02*
X112174121Y-62782680I-249999J0D01*
G01*
X111524119Y-62782680D01*
G75*
G02*
X111274120Y-62532681I0J249999D01*
G01*
X111274120Y-61632679D01*
G75*
G02*
X111524119Y-61382680I249999J0D01*
G01*
X112174121Y-61382680D01*
G75*
G02*
X112424120Y-61632679I0J-249999D01*
G01*
G37*
G04 #@! TD.AperFunction*
G04 #@! TA.AperFunction,SMDPad,CuDef*
G36*
G01*
X110374120Y-61632679D02*
X110374120Y-62532681D01*
G75*
G02*
X110124121Y-62782680I-249999J0D01*
G01*
X109474119Y-62782680D01*
G75*
G02*
X109224120Y-62532681I0J249999D01*
G01*
X109224120Y-61632679D01*
G75*
G02*
X109474119Y-61382680I249999J0D01*
G01*
X110124121Y-61382680D01*
G75*
G02*
X110374120Y-61632679I0J-249999D01*
G01*
G37*
G04 #@! TD.AperFunction*
G04 #@! TA.AperFunction,SMDPad,CuDef*
G36*
G01*
X109224120Y-60500681D02*
X109224120Y-59600679D01*
G75*
G02*
X109474119Y-59350680I249999J0D01*
G01*
X110124121Y-59350680D01*
G75*
G02*
X110374120Y-59600679I0J-249999D01*
G01*
X110374120Y-60500681D01*
G75*
G02*
X110124121Y-60750680I-249999J0D01*
G01*
X109474119Y-60750680D01*
G75*
G02*
X109224120Y-60500681I0J249999D01*
G01*
G37*
G04 #@! TD.AperFunction*
G04 #@! TA.AperFunction,SMDPad,CuDef*
G36*
G01*
X111274120Y-60500681D02*
X111274120Y-59600679D01*
G75*
G02*
X111524119Y-59350680I249999J0D01*
G01*
X112174121Y-59350680D01*
G75*
G02*
X112424120Y-59600679I0J-249999D01*
G01*
X112424120Y-60500681D01*
G75*
G02*
X112174121Y-60750680I-249999J0D01*
G01*
X111524119Y-60750680D01*
G75*
G02*
X111274120Y-60500681I0J249999D01*
G01*
G37*
G04 #@! TD.AperFunction*
G04 #@! TA.AperFunction,SMDPad,CuDef*
G36*
G01*
X121287119Y-71939680D02*
X122187121Y-71939680D01*
G75*
G02*
X122437120Y-72189679I0J-249999D01*
G01*
X122437120Y-72839681D01*
G75*
G02*
X122187121Y-73089680I-249999J0D01*
G01*
X121287119Y-73089680D01*
G75*
G02*
X121037120Y-72839681I0J249999D01*
G01*
X121037120Y-72189679D01*
G75*
G02*
X121287119Y-71939680I249999J0D01*
G01*
G37*
G04 #@! TD.AperFunction*
G04 #@! TA.AperFunction,SMDPad,CuDef*
G36*
G01*
X121287119Y-69889680D02*
X122187121Y-69889680D01*
G75*
G02*
X122437120Y-70139679I0J-249999D01*
G01*
X122437120Y-70789681D01*
G75*
G02*
X122187121Y-71039680I-249999J0D01*
G01*
X121287119Y-71039680D01*
G75*
G02*
X121037120Y-70789681I0J249999D01*
G01*
X121037120Y-70139679D01*
G75*
G02*
X121287119Y-69889680I249999J0D01*
G01*
G37*
G04 #@! TD.AperFunction*
G04 #@! TA.AperFunction,SMDPad,CuDef*
G36*
G01*
X126251121Y-63927680D02*
X125351119Y-63927680D01*
G75*
G02*
X125101120Y-63677681I0J249999D01*
G01*
X125101120Y-63027679D01*
G75*
G02*
X125351119Y-62777680I249999J0D01*
G01*
X126251121Y-62777680D01*
G75*
G02*
X126501120Y-63027679I0J-249999D01*
G01*
X126501120Y-63677681D01*
G75*
G02*
X126251121Y-63927680I-249999J0D01*
G01*
G37*
G04 #@! TD.AperFunction*
G04 #@! TA.AperFunction,SMDPad,CuDef*
G36*
G01*
X126251121Y-65977680D02*
X125351119Y-65977680D01*
G75*
G02*
X125101120Y-65727681I0J249999D01*
G01*
X125101120Y-65077679D01*
G75*
G02*
X125351119Y-64827680I249999J0D01*
G01*
X126251121Y-64827680D01*
G75*
G02*
X126501120Y-65077679I0J-249999D01*
G01*
X126501120Y-65727681D01*
G75*
G02*
X126251121Y-65977680I-249999J0D01*
G01*
G37*
G04 #@! TD.AperFunction*
G04 #@! TA.AperFunction,SMDPad,CuDef*
G36*
G01*
X123319119Y-62777680D02*
X124219121Y-62777680D01*
G75*
G02*
X124469120Y-63027679I0J-249999D01*
G01*
X124469120Y-63677681D01*
G75*
G02*
X124219121Y-63927680I-249999J0D01*
G01*
X123319119Y-63927680D01*
G75*
G02*
X123069120Y-63677681I0J249999D01*
G01*
X123069120Y-63027679D01*
G75*
G02*
X123319119Y-62777680I249999J0D01*
G01*
G37*
G04 #@! TD.AperFunction*
G04 #@! TA.AperFunction,SMDPad,CuDef*
G36*
G01*
X123319119Y-64827680D02*
X124219121Y-64827680D01*
G75*
G02*
X124469120Y-65077679I0J-249999D01*
G01*
X124469120Y-65727681D01*
G75*
G02*
X124219121Y-65977680I-249999J0D01*
G01*
X123319119Y-65977680D01*
G75*
G02*
X123069120Y-65727681I0J249999D01*
G01*
X123069120Y-65077679D01*
G75*
G02*
X123319119Y-64827680I249999J0D01*
G01*
G37*
G04 #@! TD.AperFunction*
G04 #@! TA.AperFunction,SMDPad,CuDef*
G36*
G01*
X122187121Y-63927680D02*
X121287119Y-63927680D01*
G75*
G02*
X121037120Y-63677681I0J249999D01*
G01*
X121037120Y-63027679D01*
G75*
G02*
X121287119Y-62777680I249999J0D01*
G01*
X122187121Y-62777680D01*
G75*
G02*
X122437120Y-63027679I0J-249999D01*
G01*
X122437120Y-63677681D01*
G75*
G02*
X122187121Y-63927680I-249999J0D01*
G01*
G37*
G04 #@! TD.AperFunction*
G04 #@! TA.AperFunction,SMDPad,CuDef*
G36*
G01*
X122187121Y-65977680D02*
X121287119Y-65977680D01*
G75*
G02*
X121037120Y-65727681I0J249999D01*
G01*
X121037120Y-65077679D01*
G75*
G02*
X121287119Y-64827680I249999J0D01*
G01*
X122187121Y-64827680D01*
G75*
G02*
X122437120Y-65077679I0J-249999D01*
G01*
X122437120Y-65727681D01*
G75*
G02*
X122187121Y-65977680I-249999J0D01*
G01*
G37*
G04 #@! TD.AperFunction*
G04 #@! TA.AperFunction,SMDPad,CuDef*
G36*
G01*
X121287119Y-55393680D02*
X122187121Y-55393680D01*
G75*
G02*
X122437120Y-55643679I0J-249999D01*
G01*
X122437120Y-56293681D01*
G75*
G02*
X122187121Y-56543680I-249999J0D01*
G01*
X121287119Y-56543680D01*
G75*
G02*
X121037120Y-56293681I0J249999D01*
G01*
X121037120Y-55643679D01*
G75*
G02*
X121287119Y-55393680I249999J0D01*
G01*
G37*
G04 #@! TD.AperFunction*
G04 #@! TA.AperFunction,SMDPad,CuDef*
G36*
G01*
X121287119Y-57443680D02*
X122187121Y-57443680D01*
G75*
G02*
X122437120Y-57693679I0J-249999D01*
G01*
X122437120Y-58343681D01*
G75*
G02*
X122187121Y-58593680I-249999J0D01*
G01*
X121287119Y-58593680D01*
G75*
G02*
X121037120Y-58343681I0J249999D01*
G01*
X121037120Y-57693679D01*
G75*
G02*
X121287119Y-57443680I249999J0D01*
G01*
G37*
G04 #@! TD.AperFunction*
G04 #@! TA.AperFunction,SMDPad,CuDef*
G36*
G01*
X124219121Y-58593680D02*
X123319119Y-58593680D01*
G75*
G02*
X123069120Y-58343681I0J249999D01*
G01*
X123069120Y-57693679D01*
G75*
G02*
X123319119Y-57443680I249999J0D01*
G01*
X124219121Y-57443680D01*
G75*
G02*
X124469120Y-57693679I0J-249999D01*
G01*
X124469120Y-58343681D01*
G75*
G02*
X124219121Y-58593680I-249999J0D01*
G01*
G37*
G04 #@! TD.AperFunction*
G04 #@! TA.AperFunction,SMDPad,CuDef*
G36*
G01*
X124219121Y-56543680D02*
X123319119Y-56543680D01*
G75*
G02*
X123069120Y-56293681I0J249999D01*
G01*
X123069120Y-55643679D01*
G75*
G02*
X123319119Y-55393680I249999J0D01*
G01*
X124219121Y-55393680D01*
G75*
G02*
X124469120Y-55643679I0J-249999D01*
G01*
X124469120Y-56293681D01*
G75*
G02*
X124219121Y-56543680I-249999J0D01*
G01*
G37*
G04 #@! TD.AperFunction*
G04 #@! TA.AperFunction,SMDPad,CuDef*
G36*
G01*
X127383119Y-57443680D02*
X128283121Y-57443680D01*
G75*
G02*
X128533120Y-57693679I0J-249999D01*
G01*
X128533120Y-58343681D01*
G75*
G02*
X128283121Y-58593680I-249999J0D01*
G01*
X127383119Y-58593680D01*
G75*
G02*
X127133120Y-58343681I0J249999D01*
G01*
X127133120Y-57693679D01*
G75*
G02*
X127383119Y-57443680I249999J0D01*
G01*
G37*
G04 #@! TD.AperFunction*
G04 #@! TA.AperFunction,SMDPad,CuDef*
G36*
G01*
X127383119Y-55393680D02*
X128283121Y-55393680D01*
G75*
G02*
X128533120Y-55643679I0J-249999D01*
G01*
X128533120Y-56293681D01*
G75*
G02*
X128283121Y-56543680I-249999J0D01*
G01*
X127383119Y-56543680D01*
G75*
G02*
X127133120Y-56293681I0J249999D01*
G01*
X127133120Y-55643679D01*
G75*
G02*
X127383119Y-55393680I249999J0D01*
G01*
G37*
G04 #@! TD.AperFunction*
D15*
X119133620Y-85069680D03*
X119133620Y-85719680D03*
X119133620Y-86369680D03*
X119133620Y-87019680D03*
X119133620Y-87669680D03*
X119133620Y-88319680D03*
X119133620Y-88969680D03*
X119133620Y-89619680D03*
X119133620Y-90269680D03*
X119133620Y-90919680D03*
X126333620Y-90919680D03*
X126333620Y-90269680D03*
X126333620Y-89619680D03*
X126333620Y-88969680D03*
X126333620Y-88319680D03*
X126333620Y-87669680D03*
X126333620Y-87019680D03*
X126333620Y-86369680D03*
X126333620Y-85719680D03*
X126333620Y-85069680D03*
D16*
X117927120Y-70083680D03*
X118877120Y-70083680D03*
X119827120Y-70083680D03*
X119827120Y-72699880D03*
X118877120Y-72699880D03*
X117927120Y-72699880D03*
D17*
X109341920Y-67670680D03*
X109341920Y-68620680D03*
X109341920Y-69570680D03*
X111958120Y-69570680D03*
X111958120Y-68620680D03*
X111958120Y-67670680D03*
D16*
X117927120Y-55783480D03*
X116977120Y-55783480D03*
X116027120Y-55783480D03*
X116027120Y-58399680D03*
X116977120Y-58399680D03*
X117927120Y-58399680D03*
G04 #@! TA.AperFunction,SMDPad,CuDef*
G36*
G01*
X109215120Y-66596681D02*
X109215120Y-65696679D01*
G75*
G02*
X109465119Y-65446680I249999J0D01*
G01*
X110115121Y-65446680D01*
G75*
G02*
X110365120Y-65696679I0J-249999D01*
G01*
X110365120Y-66596681D01*
G75*
G02*
X110115121Y-66846680I-249999J0D01*
G01*
X109465119Y-66846680D01*
G75*
G02*
X109215120Y-66596681I0J249999D01*
G01*
G37*
G04 #@! TD.AperFunction*
G04 #@! TA.AperFunction,SMDPad,CuDef*
G36*
G01*
X111265120Y-66596681D02*
X111265120Y-65696679D01*
G75*
G02*
X111515119Y-65446680I249999J0D01*
G01*
X112165121Y-65446680D01*
G75*
G02*
X112415120Y-65696679I0J-249999D01*
G01*
X112415120Y-66596681D01*
G75*
G02*
X112165121Y-66846680I-249999J0D01*
G01*
X111515119Y-66846680D01*
G75*
G02*
X111265120Y-66596681I0J249999D01*
G01*
G37*
G04 #@! TD.AperFunction*
G04 #@! TA.AperFunction,SMDPad,CuDef*
G36*
G01*
X111256120Y-71676681D02*
X111256120Y-70776679D01*
G75*
G02*
X111506119Y-70526680I249999J0D01*
G01*
X112156121Y-70526680D01*
G75*
G02*
X112406120Y-70776679I0J-249999D01*
G01*
X112406120Y-71676681D01*
G75*
G02*
X112156121Y-71926680I-249999J0D01*
G01*
X111506119Y-71926680D01*
G75*
G02*
X111256120Y-71676681I0J249999D01*
G01*
G37*
G04 #@! TD.AperFunction*
G04 #@! TA.AperFunction,SMDPad,CuDef*
G36*
G01*
X109206120Y-71676681D02*
X109206120Y-70776679D01*
G75*
G02*
X109456119Y-70526680I249999J0D01*
G01*
X110106121Y-70526680D01*
G75*
G02*
X110356120Y-70776679I0J-249999D01*
G01*
X110356120Y-71676681D01*
G75*
G02*
X110106121Y-71926680I-249999J0D01*
G01*
X109456119Y-71926680D01*
G75*
G02*
X109206120Y-71676681I0J249999D01*
G01*
G37*
G04 #@! TD.AperFunction*
D10*
X113101120Y-80370680D03*
D18*
X124277120Y-81894680D03*
X122753120Y-98658680D03*
X126817120Y-84447680D03*
X118943120Y-73766680D03*
X107767120Y-68686680D03*
X108529120Y-63860680D03*
X113355120Y-60304680D03*
X114117120Y-72496680D03*
X118435120Y-75544680D03*
X116911120Y-52430680D03*
X119705120Y-52430680D03*
X125801120Y-79100680D03*
X134691120Y-92816680D03*
X113355120Y-71226680D03*
X113355120Y-66146680D03*
X145613120Y-79862680D03*
X136723120Y-79862680D03*
X121737120Y-85450680D03*
X118943120Y-82275680D03*
X120467120Y-80116686D03*
X129090120Y-70464680D03*
X125547120Y-98150680D03*
X120213120Y-98912680D03*
X120962120Y-89006680D03*
X121430620Y-80931180D03*
X127071120Y-92562680D03*
X129611120Y-92816680D03*
X122753120Y-59542680D03*
X127833120Y-59542680D03*
X125801120Y-68940680D03*
X114625120Y-69395680D03*
X116910935Y-89494713D03*
X116403120Y-75544680D03*
X115895120Y-54462680D03*
X121229140Y-53954680D03*
X116403120Y-61828680D03*
X119705120Y-58018680D03*
X116149120Y-70464680D03*
X115735936Y-87482680D03*
X122754416Y-90786303D03*
X111958120Y-68620680D03*
X111831120Y-64114680D03*
X111323120Y-73004680D03*
X109545120Y-76306680D03*
X121483120Y-62349680D03*
X118181120Y-61574680D03*
X115387120Y-66654680D03*
X117165120Y-66908680D03*
X118435120Y-54729680D03*
X122499120Y-66654680D03*
X122753120Y-89768680D03*
X111849120Y-62082680D03*
X132913120Y-81132680D03*
X132913120Y-73512680D03*
X115133120Y-93832680D03*
X135453120Y-78592680D03*
X124023120Y-87482680D03*
X142094211Y-77128466D03*
D19*
X99385120Y-79354680D02*
X103195120Y-79354680D01*
X122753120Y-81894680D02*
X124277120Y-81894680D01*
X122481340Y-101918520D02*
X122481340Y-98930460D01*
X122481340Y-98930460D02*
X122753120Y-98658680D01*
X126333620Y-85069680D02*
X126333620Y-84931180D01*
X126333620Y-84931180D02*
X126817120Y-84447680D01*
X118877120Y-72699880D02*
X118877120Y-73700680D01*
X118877120Y-73700680D02*
X118943120Y-73766680D01*
X109341920Y-68620680D02*
X107833120Y-68620680D01*
X107833120Y-68620680D02*
X107767120Y-68686680D01*
X109799120Y-64114680D02*
X108783120Y-64114680D01*
X108783120Y-64114680D02*
X108529120Y-63860680D01*
X111849120Y-60050680D02*
X113101120Y-60050680D01*
X113101120Y-60050680D02*
X113355120Y-60304680D01*
X116149120Y-72496680D02*
X114117120Y-72496680D01*
X118435120Y-77050680D02*
X118435120Y-75544680D01*
X116977120Y-52496680D02*
X116911120Y-52430680D01*
X116977120Y-55783480D02*
X116977120Y-52496680D01*
X119705120Y-55968680D02*
X119705120Y-52430680D01*
X134500620Y-93007180D02*
X134691120Y-92816680D01*
X133103620Y-93007180D02*
X134500620Y-93007180D01*
X111831120Y-71226680D02*
X113355120Y-71226680D01*
X111958120Y-66255680D02*
X111849120Y-66146680D01*
X111840120Y-66146680D02*
X113355120Y-66146680D01*
X116149120Y-73258680D02*
X118435120Y-75544680D01*
X116149120Y-72496680D02*
X116149120Y-73258680D01*
X144343120Y-78347680D02*
X144343120Y-78592680D01*
X144343120Y-78592680D02*
X145613120Y-79862680D01*
X136723120Y-79062681D02*
X137688120Y-78097681D01*
X136723120Y-79862680D02*
X136723120Y-79062681D01*
X125021340Y-99568520D02*
X125031500Y-99558360D01*
X103195120Y-81894680D02*
X99385120Y-81894680D01*
X104211120Y-81894680D02*
X103957120Y-81894680D01*
X107005120Y-83654680D02*
X105971120Y-83654680D01*
X103957120Y-81894680D02*
X103195120Y-81894680D01*
X105971120Y-83654680D02*
X104211120Y-81894680D01*
X108420120Y-85069680D02*
X107005120Y-83654680D01*
X119133620Y-85069680D02*
X108420120Y-85069680D01*
X119133620Y-85069680D02*
X121356120Y-85069680D01*
X121737120Y-96284300D02*
X121737120Y-86016365D01*
X121356120Y-85069680D02*
X121737120Y-85450680D01*
X125021340Y-99568520D02*
X121737120Y-96284300D01*
X121737120Y-86016365D02*
X121737120Y-85450680D01*
X120703120Y-81894680D02*
X119324120Y-81894680D01*
X119324120Y-81894680D02*
X118943120Y-82275680D01*
X141088119Y-76297680D02*
X140838120Y-76547679D01*
X144343120Y-76297680D02*
X141088119Y-76297680D01*
X125021340Y-99910900D02*
X134454900Y-99910900D01*
X125021340Y-99910900D02*
X125021340Y-99568520D01*
X125021340Y-101918520D02*
X125021340Y-99910900D01*
X134454900Y-99910900D02*
X146883120Y-87482680D01*
X146883120Y-78837680D02*
X144343120Y-76297680D01*
X146883120Y-87482680D02*
X146883120Y-78837680D01*
X118435120Y-79100680D02*
X118435130Y-79100680D01*
X127933620Y-87669680D02*
X129103120Y-86500180D01*
X129103120Y-83672680D02*
X125547126Y-80116686D01*
X121032805Y-80116686D02*
X120467120Y-80116686D01*
X129103120Y-86500180D02*
X129103120Y-83672680D01*
X125547126Y-80116686D02*
X121032805Y-80116686D01*
X126333620Y-87669680D02*
X127933620Y-87669680D01*
X119451114Y-79100680D02*
X120467120Y-80116686D01*
X118435120Y-79100680D02*
X119451114Y-79100680D01*
X118426120Y-79109680D02*
X118435120Y-79100680D01*
X116403120Y-79109680D02*
X118426120Y-79109680D01*
X129090120Y-70464680D02*
X127833120Y-70464680D01*
X117927120Y-73649880D02*
X117927120Y-72699880D01*
X125801120Y-74020680D02*
X125251110Y-74570690D01*
X118477130Y-74570690D02*
X117927120Y-74020680D01*
X117927120Y-74020680D02*
X117927120Y-73649880D01*
X125801120Y-72514680D02*
X125801120Y-74020680D01*
X125251110Y-74570690D02*
X118477130Y-74570690D01*
X127833120Y-72514680D02*
X125801120Y-72514680D01*
X125801120Y-55968680D02*
X127833120Y-55968680D01*
X131205120Y-85196680D02*
X129865120Y-85196680D01*
X132405120Y-85196680D02*
X131205120Y-85196680D01*
X129865120Y-76052680D02*
X129865120Y-85196680D01*
X130101120Y-55968680D02*
X130627120Y-56494680D01*
X129865120Y-68432680D02*
X129865120Y-76052680D01*
X130627120Y-56494680D02*
X130627120Y-67670680D01*
X127833120Y-55968680D02*
X130101120Y-55968680D01*
X130627120Y-67670680D02*
X129865120Y-68432680D01*
X128520120Y-88319680D02*
X126333620Y-88319680D01*
X129865120Y-85196680D02*
X129865120Y-86974680D01*
X129865120Y-86974680D02*
X128520120Y-88319680D01*
X99385120Y-84434680D02*
X103195120Y-84434680D01*
X103195120Y-84434680D02*
X103957120Y-84434680D01*
X103957120Y-84434680D02*
X105227120Y-85704680D01*
X105227120Y-85704680D02*
X107005120Y-85704680D01*
X116218620Y-85704680D02*
X107005120Y-85704680D01*
X117533620Y-87019680D02*
X119133620Y-87019680D01*
X116218620Y-85704680D02*
X117533620Y-87019680D01*
X99385120Y-76814680D02*
X103195120Y-76814680D01*
X103957120Y-76814680D02*
X103195120Y-76814680D01*
X111577120Y-84434680D02*
X103957120Y-76814680D01*
X123261120Y-84434680D02*
X111577120Y-84434680D01*
X126333620Y-85719680D02*
X124546120Y-85719680D01*
X124546120Y-85719680D02*
X123261120Y-84434680D01*
X99385120Y-74274680D02*
X103195120Y-74274680D01*
X103703120Y-74274680D02*
X103195120Y-74274680D01*
X113101120Y-83672680D02*
X103703120Y-74274680D01*
X127933620Y-86369680D02*
X128341120Y-85962180D01*
X128341120Y-85962180D02*
X128341120Y-84434680D01*
X128341120Y-84434680D02*
X127579120Y-83672680D01*
X126333620Y-86369680D02*
X127933620Y-86369680D01*
X127579120Y-83672680D02*
X113101120Y-83672680D01*
X127933620Y-90269680D02*
X128341120Y-90677180D01*
X128341120Y-95356680D02*
X125947119Y-97750681D01*
X126333620Y-90269680D02*
X127933620Y-90269680D01*
X128341120Y-90677180D02*
X128341120Y-95356680D01*
X125947119Y-97750681D02*
X125547120Y-98150680D01*
X119133620Y-90919680D02*
X119133620Y-97833180D01*
X119133620Y-97833180D02*
X120213120Y-98912680D01*
X116403120Y-99492300D02*
X118829340Y-101918520D01*
X116403120Y-90784680D02*
X116403120Y-99492300D01*
X119133620Y-90269680D02*
X116918120Y-90269680D01*
X118829340Y-101918520D02*
X119941340Y-101918520D01*
X116918120Y-90269680D02*
X116403120Y-90784680D01*
X119170620Y-89006680D02*
X119133620Y-88969680D01*
X120962120Y-89006680D02*
X119170620Y-89006680D01*
X114042620Y-80931180D02*
X113863120Y-80751680D01*
X116201620Y-80931180D02*
X114042620Y-80931180D01*
X116201620Y-80931180D02*
X121430620Y-80931180D01*
X115623620Y-80931180D02*
X116201620Y-80931180D01*
X113482120Y-80370680D02*
X114042620Y-80931180D01*
X113101120Y-80370680D02*
X113482120Y-80370680D01*
D20*
X131135120Y-95057180D02*
X133103620Y-95057180D01*
D19*
X126333620Y-90919680D02*
X126333620Y-91825180D01*
X126333620Y-91825180D02*
X127071120Y-92562680D01*
X130944620Y-92816680D02*
X131135120Y-93007180D01*
X129611120Y-92816680D02*
X130944620Y-92816680D01*
X120213120Y-68432680D02*
X119827120Y-68818680D01*
X119827120Y-68818680D02*
X119827120Y-70083680D01*
X121483120Y-68432680D02*
X120213120Y-68432680D01*
X121737120Y-70464680D02*
X121737120Y-68686680D01*
X121737120Y-68686680D02*
X121483120Y-68432680D01*
X121483120Y-68432680D02*
X122245120Y-67670680D01*
X122245120Y-67670680D02*
X128595120Y-67670680D01*
X128595120Y-67670680D02*
X129611120Y-66654680D01*
X129611120Y-66654680D02*
X129611120Y-63606680D01*
X129357120Y-63352680D02*
X127833120Y-63352680D01*
X129611120Y-63606680D02*
X129357120Y-63352680D01*
X125783120Y-70446680D02*
X125801120Y-70464680D01*
X123769120Y-70446680D02*
X125783120Y-70446680D01*
X120467120Y-61574680D02*
X119705120Y-62336680D01*
X124598120Y-61574680D02*
X120467120Y-61574680D01*
X119705120Y-62336680D02*
X119705120Y-63352680D01*
X125801120Y-63352680D02*
X125801120Y-62777680D01*
X125801120Y-62777680D02*
X124598120Y-61574680D01*
X127325120Y-61574680D02*
X127833120Y-61066680D01*
X124598120Y-61574680D02*
X127325120Y-61574680D01*
X121737120Y-58018680D02*
X121737120Y-58526680D01*
X121737120Y-58526680D02*
X122753120Y-59542680D01*
X127833120Y-58018680D02*
X127833120Y-59542680D01*
X127833120Y-59542680D02*
X127833120Y-61066680D01*
X125801120Y-70464680D02*
X125801120Y-68940680D01*
X111958120Y-69570680D02*
X109341920Y-69570680D01*
X111958120Y-69570680D02*
X114450120Y-69570680D01*
X114450120Y-69570680D02*
X114625120Y-69395680D01*
X109341920Y-70787480D02*
X109781120Y-71226680D01*
X109341920Y-69570680D02*
X109341920Y-70787480D01*
X117035902Y-89619680D02*
X119133620Y-89619680D01*
X116910935Y-89494713D02*
X117035902Y-89619680D01*
X116403120Y-77059680D02*
X116403120Y-75544680D01*
X113600120Y-77059680D02*
X113101120Y-76560680D01*
X114616120Y-77059680D02*
X113600120Y-77059680D01*
X114616120Y-77059680D02*
X114117120Y-77059680D01*
X116412120Y-77059680D02*
X114616120Y-77059680D01*
X123769120Y-73512680D02*
X123769120Y-72496680D01*
X123261120Y-74020680D02*
X123769120Y-73512680D01*
X120345120Y-74020680D02*
X123261120Y-74020680D01*
X119827120Y-72699880D02*
X119827120Y-73502680D01*
X119827120Y-73502680D02*
X120345120Y-74020680D01*
X120806120Y-74020680D02*
X120345120Y-74020680D01*
X121737120Y-73089680D02*
X120806120Y-74020680D01*
X121737120Y-72514680D02*
X121737120Y-73089680D01*
X115895120Y-55651480D02*
X116027120Y-55783480D01*
X115895120Y-54462680D02*
X115895120Y-55651480D01*
X121737120Y-55968680D02*
X123769120Y-55968680D01*
X121737120Y-55968680D02*
X121737120Y-54462660D01*
X121737120Y-54462660D02*
X121229140Y-53954680D01*
X108391920Y-67670680D02*
X107513120Y-66791880D01*
X109341920Y-67670680D02*
X108391920Y-67670680D01*
X107513120Y-66791880D02*
X107513120Y-62590680D01*
X108021120Y-62082680D02*
X109799120Y-62082680D01*
X107513120Y-62590680D02*
X108021120Y-62082680D01*
X109799120Y-60050680D02*
X109799120Y-62082680D01*
D20*
X109790120Y-67222480D02*
X109341920Y-67670680D01*
X109790120Y-66146680D02*
X109790120Y-67222480D01*
X116977120Y-58399680D02*
X117927120Y-58399680D01*
X118308120Y-58018680D02*
X117927120Y-58399680D01*
X119705120Y-58018680D02*
X118308120Y-58018680D01*
X118877120Y-70083680D02*
X117927120Y-70083680D01*
X116512120Y-70083680D02*
X116149120Y-70446680D01*
X117927120Y-70083680D02*
X116512120Y-70083680D01*
X116149120Y-70446680D02*
X116149120Y-63288490D01*
X116149120Y-63288490D02*
X116149120Y-62082680D01*
X116149120Y-62082680D02*
X116403120Y-61828680D01*
X116149120Y-70446680D02*
X116149120Y-70464680D01*
X116572936Y-88319680D02*
X116836120Y-88319680D01*
X115735936Y-87482680D02*
X116572936Y-88319680D01*
X116836120Y-88319680D02*
X119133620Y-88319680D01*
X122808499Y-90786303D02*
X122754416Y-90786303D01*
X126333620Y-89619680D02*
X123975122Y-89619680D01*
X123975122Y-89619680D02*
X122808499Y-90786303D01*
X111958120Y-67670680D02*
X111958120Y-68620680D01*
X111849120Y-64114680D02*
X111831120Y-64114680D01*
X111323120Y-73004680D02*
X109545120Y-74782680D01*
X109545120Y-74782680D02*
X109545120Y-76306680D01*
D19*
X125801120Y-65402680D02*
X127833120Y-65402680D01*
X125783120Y-65384680D02*
X125801120Y-65402680D01*
X123769120Y-65384680D02*
X125783120Y-65384680D01*
X121737120Y-63352680D02*
X123769120Y-63352680D01*
X121737120Y-63352680D02*
X121737120Y-62603680D01*
X121737120Y-62603680D02*
X121483120Y-62349680D01*
X117673120Y-62777680D02*
X117673120Y-63352680D01*
X118181120Y-61574680D02*
X117673120Y-62082680D01*
X117673120Y-62082680D02*
X117673120Y-62777680D01*
X125801120Y-58018680D02*
X123769120Y-58018680D01*
X123769120Y-58018680D02*
X123769120Y-59796680D01*
X123769120Y-59796680D02*
X123007120Y-60558680D01*
X116027120Y-59035678D02*
X116027120Y-58399680D01*
X123007120Y-60558680D02*
X117550122Y-60558680D01*
X116214621Y-59223179D02*
X116214621Y-60493179D01*
X116214621Y-59223179D02*
X116027120Y-59035678D01*
X117550122Y-60558680D02*
X116214621Y-59223179D01*
X116214621Y-60493179D02*
X115387120Y-61320680D01*
X115387120Y-61320680D02*
X115387120Y-66654680D01*
X117673120Y-65402680D02*
X117673120Y-66400680D01*
X117673120Y-66400680D02*
X117165120Y-66908680D01*
X119705120Y-65402680D02*
X121737120Y-65402680D01*
X117927120Y-55783480D02*
X117927120Y-55237680D01*
X117927120Y-55237680D02*
X118435120Y-54729680D01*
X121737120Y-65892680D02*
X122499120Y-66654680D01*
X121737120Y-65402680D02*
X121737120Y-65892680D01*
D20*
X126333620Y-88969680D02*
X123552120Y-88969680D01*
X123552120Y-88969680D02*
X122753120Y-89768680D01*
D19*
X134183120Y-81132680D02*
X135698120Y-81132680D01*
X134183120Y-81132680D02*
X132913120Y-81132680D01*
X135698120Y-73512680D02*
X132913120Y-73512680D01*
D20*
X138348122Y-77072680D02*
X139263120Y-77987678D01*
X137688120Y-77072680D02*
X138348122Y-77072680D01*
X137748120Y-81132680D02*
X137993120Y-81132680D01*
D19*
X137993120Y-81132680D02*
X139263120Y-79862680D01*
D20*
X140533120Y-81132680D02*
X140778120Y-81132680D01*
D19*
X139263120Y-79862680D02*
X140533120Y-81132680D01*
D20*
X139263120Y-79862680D02*
X139263120Y-77987678D01*
X141513120Y-77572680D02*
X140838120Y-77572680D01*
X142828120Y-78887680D02*
X141513120Y-77572680D01*
D19*
X142828120Y-81132680D02*
X142828120Y-78887680D01*
X140778120Y-73512680D02*
X137748120Y-73512680D01*
D20*
X137688120Y-73572680D02*
X137748120Y-73512680D01*
X137688120Y-76572680D02*
X137688120Y-73572680D01*
X140163120Y-78072680D02*
X139263120Y-77172680D01*
X140838120Y-78072680D02*
X140163120Y-78072680D01*
X142738118Y-73512680D02*
X142828120Y-73512680D01*
X139263120Y-76987678D02*
X142738118Y-73512680D01*
X139263120Y-77172680D02*
X139263120Y-76987678D01*
X114916119Y-93615679D02*
X115133120Y-93832680D01*
X137688120Y-77572680D02*
X136473120Y-77572680D01*
X136473120Y-77572680D02*
X135453120Y-78592680D01*
X116995938Y-87669680D02*
X119133620Y-87669680D01*
X115387935Y-86757679D02*
X116083937Y-86757679D01*
X114733121Y-93432681D02*
X114733121Y-87412493D01*
X116083937Y-86757679D02*
X116995938Y-87669680D01*
X114733121Y-87412493D02*
X115387935Y-86757679D01*
X115133120Y-93832680D02*
X114733121Y-93432681D01*
D19*
X126333620Y-87019680D02*
X124486120Y-87019680D01*
X124486120Y-87019680D02*
X124023120Y-87482680D01*
D20*
X142038425Y-77072680D02*
X140838120Y-77072680D01*
X142094211Y-77128466D02*
X142038425Y-77072680D01*
D21*
G36*
X156737896Y-77941800D02*
G01*
X139618951Y-107592500D01*
X127731120Y-107592500D01*
X127731120Y-104369099D01*
X127734313Y-104336680D01*
X127721570Y-104207297D01*
X127683830Y-104082887D01*
X127622545Y-103968230D01*
X127540068Y-103867732D01*
X127439570Y-103785255D01*
X127324913Y-103723970D01*
X127200503Y-103686230D01*
X127103539Y-103676680D01*
X127071120Y-103673487D01*
X127038701Y-103676680D01*
X126421412Y-103676680D01*
X126421412Y-100720900D01*
X134415112Y-100720900D01*
X134454900Y-100724819D01*
X134494688Y-100720900D01*
X134494691Y-100720900D01*
X134613688Y-100709180D01*
X134766373Y-100662863D01*
X134907089Y-100587649D01*
X135030428Y-100486428D01*
X135055800Y-100455512D01*
X147427741Y-88083572D01*
X147458648Y-88058208D01*
X147525874Y-87976292D01*
X147559869Y-87934870D01*
X147616742Y-87828467D01*
X147635083Y-87794153D01*
X147681400Y-87641468D01*
X147693120Y-87522471D01*
X147693120Y-87522469D01*
X147697039Y-87482681D01*
X147693120Y-87442893D01*
X147693120Y-78877467D01*
X147697039Y-78837679D01*
X147691183Y-78778226D01*
X147681400Y-78678892D01*
X147635083Y-78526207D01*
X147559869Y-78385491D01*
X147458648Y-78262152D01*
X147427738Y-78236785D01*
X145681192Y-76490240D01*
X145681192Y-75972679D01*
X145664128Y-75799425D01*
X145613592Y-75632829D01*
X145531525Y-75479293D01*
X145421082Y-75344718D01*
X145286507Y-75234275D01*
X145132971Y-75152208D01*
X144966375Y-75101672D01*
X144793121Y-75084608D01*
X143893119Y-75084608D01*
X143719865Y-75101672D01*
X143553269Y-75152208D01*
X143399733Y-75234275D01*
X143265158Y-75344718D01*
X143154715Y-75479293D01*
X143150232Y-75487680D01*
X141837920Y-75487680D01*
X142477383Y-74848217D01*
X142503119Y-74850752D01*
X143153121Y-74850752D01*
X143326375Y-74833688D01*
X143492971Y-74783152D01*
X143646507Y-74701085D01*
X143781082Y-74590642D01*
X143891525Y-74456067D01*
X143973592Y-74302531D01*
X144024128Y-74135935D01*
X144041192Y-73962681D01*
X144041192Y-73062679D01*
X144024128Y-72889425D01*
X143973592Y-72722829D01*
X143891525Y-72569293D01*
X143781082Y-72434718D01*
X143646507Y-72324275D01*
X143492971Y-72242208D01*
X143326375Y-72191672D01*
X143153121Y-72174608D01*
X142503119Y-72174608D01*
X142329865Y-72191672D01*
X142163269Y-72242208D01*
X142009733Y-72324275D01*
X141875158Y-72434718D01*
X141803120Y-72522496D01*
X141731082Y-72434718D01*
X141596507Y-72324275D01*
X141442971Y-72242208D01*
X141276375Y-72191672D01*
X141103121Y-72174608D01*
X140453119Y-72174608D01*
X140279865Y-72191672D01*
X140113269Y-72242208D01*
X139959733Y-72324275D01*
X139825158Y-72434718D01*
X139714715Y-72569293D01*
X139643418Y-72702680D01*
X138882822Y-72702680D01*
X138811525Y-72569293D01*
X138701082Y-72434718D01*
X138566507Y-72324275D01*
X138412971Y-72242208D01*
X138246375Y-72191672D01*
X138073121Y-72174608D01*
X137423119Y-72174608D01*
X137249865Y-72191672D01*
X137083269Y-72242208D01*
X136929733Y-72324275D01*
X136795158Y-72434718D01*
X136723120Y-72522496D01*
X136651082Y-72434718D01*
X136516507Y-72324275D01*
X136362971Y-72242208D01*
X136196375Y-72191672D01*
X136023121Y-72174608D01*
X135373119Y-72174608D01*
X135199865Y-72191672D01*
X135033269Y-72242208D01*
X134879733Y-72324275D01*
X134745158Y-72434718D01*
X134634715Y-72569293D01*
X134563418Y-72702680D01*
X133563820Y-72702680D01*
X133403376Y-72595475D01*
X133215018Y-72517454D01*
X133015059Y-72477680D01*
X132811181Y-72477680D01*
X132611222Y-72517454D01*
X132422864Y-72595475D01*
X132253346Y-72708743D01*
X132109183Y-72852906D01*
X131995915Y-73022424D01*
X131917894Y-73210782D01*
X131878120Y-73410741D01*
X131878120Y-73614619D01*
X131917894Y-73814578D01*
X131995915Y-74002936D01*
X132109183Y-74172454D01*
X132253346Y-74316617D01*
X132422864Y-74429885D01*
X132611222Y-74507906D01*
X132811181Y-74547680D01*
X133015059Y-74547680D01*
X133215018Y-74507906D01*
X133403376Y-74429885D01*
X133563820Y-74322680D01*
X134563418Y-74322680D01*
X134634715Y-74456067D01*
X134745158Y-74590642D01*
X134879733Y-74701085D01*
X135033269Y-74783152D01*
X135199865Y-74833688D01*
X135373119Y-74850752D01*
X136023121Y-74850752D01*
X136196375Y-74833688D01*
X136362971Y-74783152D01*
X136516507Y-74701085D01*
X136651082Y-74590642D01*
X136723120Y-74502864D01*
X136795158Y-74590642D01*
X136928121Y-74699762D01*
X136928120Y-75881723D01*
X136908626Y-75892143D01*
X136811935Y-75971495D01*
X136732583Y-76068186D01*
X136673618Y-76178500D01*
X136637308Y-76298198D01*
X136625048Y-76422680D01*
X136625048Y-76722680D01*
X136633912Y-76812680D01*
X136510443Y-76812680D01*
X136473120Y-76809004D01*
X136435797Y-76812680D01*
X136435787Y-76812680D01*
X136324134Y-76823677D01*
X136180873Y-76867134D01*
X136048844Y-76937706D01*
X135933119Y-77032679D01*
X135909321Y-77061677D01*
X135413319Y-77557680D01*
X135351181Y-77557680D01*
X135151222Y-77597454D01*
X134962864Y-77675475D01*
X134793346Y-77788743D01*
X134649183Y-77932906D01*
X134535915Y-78102424D01*
X134457894Y-78290782D01*
X134418120Y-78490741D01*
X134418120Y-78694619D01*
X134457894Y-78894578D01*
X134535915Y-79082936D01*
X134649183Y-79252454D01*
X134793346Y-79396617D01*
X134962864Y-79509885D01*
X135151222Y-79587906D01*
X135351181Y-79627680D01*
X135555059Y-79627680D01*
X135755018Y-79587906D01*
X135943376Y-79509885D01*
X136112894Y-79396617D01*
X136257057Y-79252454D01*
X136370325Y-79082936D01*
X136448346Y-78894578D01*
X136488120Y-78694619D01*
X136488120Y-78632481D01*
X136669667Y-78450934D01*
X136678973Y-78479405D01*
X136740281Y-78588433D01*
X136821682Y-78683406D01*
X136920048Y-78760674D01*
X137031597Y-78817266D01*
X137152044Y-78851010D01*
X137276759Y-78860606D01*
X137402370Y-78857680D01*
X137561120Y-78698930D01*
X137561120Y-78360752D01*
X137815120Y-78360752D01*
X137815120Y-78698930D01*
X137973870Y-78857680D01*
X138099481Y-78860606D01*
X138224196Y-78851010D01*
X138344643Y-78817266D01*
X138456192Y-78760674D01*
X138503121Y-78723811D01*
X138503120Y-79477167D01*
X138175587Y-79804700D01*
X138073121Y-79794608D01*
X137423119Y-79794608D01*
X137249865Y-79811672D01*
X137083269Y-79862208D01*
X136929733Y-79944275D01*
X136795158Y-80054718D01*
X136723120Y-80142496D01*
X136651082Y-80054718D01*
X136516507Y-79944275D01*
X136362971Y-79862208D01*
X136196375Y-79811672D01*
X136023121Y-79794608D01*
X135373119Y-79794608D01*
X135199865Y-79811672D01*
X135033269Y-79862208D01*
X134879733Y-79944275D01*
X134745158Y-80054718D01*
X134634715Y-80189293D01*
X134563418Y-80322680D01*
X133563820Y-80322680D01*
X133403376Y-80215475D01*
X133215018Y-80137454D01*
X133015059Y-80097680D01*
X132811181Y-80097680D01*
X132611222Y-80137454D01*
X132422864Y-80215475D01*
X132253346Y-80328743D01*
X132109183Y-80472906D01*
X131995915Y-80642424D01*
X131917894Y-80830782D01*
X131878120Y-81030741D01*
X131878120Y-81234619D01*
X131917894Y-81434578D01*
X131995915Y-81622936D01*
X132109183Y-81792454D01*
X132253346Y-81936617D01*
X132422864Y-82049885D01*
X132611222Y-82127906D01*
X132811181Y-82167680D01*
X133015059Y-82167680D01*
X133215018Y-82127906D01*
X133403376Y-82049885D01*
X133563820Y-81942680D01*
X134563418Y-81942680D01*
X134634715Y-82076067D01*
X134745158Y-82210642D01*
X134879733Y-82321085D01*
X135033269Y-82403152D01*
X135199865Y-82453688D01*
X135373119Y-82470752D01*
X136023121Y-82470752D01*
X136196375Y-82453688D01*
X136362971Y-82403152D01*
X136516507Y-82321085D01*
X136651082Y-82210642D01*
X136723120Y-82122864D01*
X136795158Y-82210642D01*
X136929733Y-82321085D01*
X137083269Y-82403152D01*
X137249865Y-82453688D01*
X137423119Y-82470752D01*
X138073121Y-82470752D01*
X138246375Y-82453688D01*
X138412971Y-82403152D01*
X138566507Y-82321085D01*
X138701082Y-82210642D01*
X138811525Y-82076067D01*
X138893592Y-81922531D01*
X138944128Y-81755935D01*
X138961192Y-81582681D01*
X138961192Y-81310120D01*
X139263120Y-81008193D01*
X139565048Y-81310121D01*
X139565048Y-81582681D01*
X139582112Y-81755935D01*
X139632648Y-81922531D01*
X139714715Y-82076067D01*
X139825158Y-82210642D01*
X139959733Y-82321085D01*
X140113269Y-82403152D01*
X140279865Y-82453688D01*
X140453119Y-82470752D01*
X141103121Y-82470752D01*
X141276375Y-82453688D01*
X141442971Y-82403152D01*
X141596507Y-82321085D01*
X141731082Y-82210642D01*
X141803120Y-82122864D01*
X141875158Y-82210642D01*
X142009733Y-82321085D01*
X142163269Y-82403152D01*
X142329865Y-82453688D01*
X142503119Y-82470752D01*
X143153121Y-82470752D01*
X143326375Y-82453688D01*
X143492971Y-82403152D01*
X143646507Y-82321085D01*
X143781082Y-82210642D01*
X143891525Y-82076067D01*
X143973592Y-81922531D01*
X144024128Y-81755935D01*
X144041192Y-81582681D01*
X144041192Y-80682679D01*
X144024128Y-80509425D01*
X143973592Y-80342829D01*
X143891525Y-80189293D01*
X143781082Y-80054718D01*
X143646507Y-79944275D01*
X143638120Y-79939792D01*
X143638120Y-79560260D01*
X143643120Y-79560752D01*
X144057370Y-79557680D01*
X144216120Y-79398930D01*
X144216120Y-78474680D01*
X144196120Y-78474680D01*
X144196120Y-78220680D01*
X144216120Y-78220680D01*
X144216120Y-78200680D01*
X144470120Y-78200680D01*
X144470120Y-78220680D01*
X144490120Y-78220680D01*
X144490120Y-78474680D01*
X144470120Y-78474680D01*
X144470120Y-79398930D01*
X144628870Y-79557680D01*
X145043120Y-79560752D01*
X145167602Y-79548492D01*
X145287300Y-79512182D01*
X145397614Y-79453217D01*
X145494305Y-79373865D01*
X145573657Y-79277174D01*
X145632622Y-79166860D01*
X145668932Y-79047162D01*
X145681192Y-78922680D01*
X145679674Y-78779747D01*
X146073121Y-79173194D01*
X146073120Y-87147167D01*
X134119388Y-99100900D01*
X125957671Y-99100900D01*
X126037376Y-99067885D01*
X126206894Y-98954617D01*
X126351057Y-98810454D01*
X126464325Y-98640936D01*
X126542346Y-98452578D01*
X126579991Y-98263321D01*
X128885738Y-95957575D01*
X128916648Y-95932208D01*
X129017869Y-95808869D01*
X129064285Y-95722031D01*
X129093083Y-95668154D01*
X129103863Y-95632617D01*
X129139400Y-95515468D01*
X129151120Y-95396471D01*
X129151120Y-95396468D01*
X129155039Y-95356680D01*
X129151120Y-95316892D01*
X129151120Y-93746418D01*
X129309222Y-93811906D01*
X129509181Y-93851680D01*
X129713059Y-93851680D01*
X129913018Y-93811906D01*
X129934628Y-93802955D01*
X129946715Y-93825567D01*
X130057158Y-93960142D01*
X130144936Y-94032180D01*
X130057158Y-94104218D01*
X129946715Y-94238793D01*
X129864648Y-94392329D01*
X129814112Y-94558925D01*
X129797048Y-94732179D01*
X129797048Y-95382181D01*
X129814112Y-95555435D01*
X129864648Y-95722031D01*
X129946715Y-95875567D01*
X130057158Y-96010142D01*
X130191733Y-96120585D01*
X130345269Y-96202652D01*
X130511865Y-96253188D01*
X130685119Y-96270252D01*
X131585121Y-96270252D01*
X131758375Y-96253188D01*
X131924971Y-96202652D01*
X132078507Y-96120585D01*
X132119370Y-96087050D01*
X132160233Y-96120585D01*
X132313769Y-96202652D01*
X132480365Y-96253188D01*
X132653619Y-96270252D01*
X133553621Y-96270252D01*
X133726875Y-96253188D01*
X133893471Y-96202652D01*
X134047007Y-96120585D01*
X134181582Y-96010142D01*
X134292025Y-95875567D01*
X134374092Y-95722031D01*
X134424628Y-95555435D01*
X134441692Y-95382181D01*
X134441692Y-94732179D01*
X134424628Y-94558925D01*
X134374092Y-94392329D01*
X134292025Y-94238793D01*
X134181582Y-94104218D01*
X134175026Y-94098838D01*
X134254805Y-94033365D01*
X134334157Y-93936674D01*
X134393122Y-93826360D01*
X134429432Y-93706662D01*
X134441692Y-93582180D01*
X134438620Y-93292930D01*
X134279870Y-93134180D01*
X133230620Y-93134180D01*
X133230620Y-93154180D01*
X132976620Y-93154180D01*
X132976620Y-93134180D01*
X132956620Y-93134180D01*
X132956620Y-92880180D01*
X132976620Y-92880180D01*
X132976620Y-91955930D01*
X133230620Y-91955930D01*
X133230620Y-92880180D01*
X134279870Y-92880180D01*
X134438620Y-92721430D01*
X134441692Y-92432180D01*
X134429432Y-92307698D01*
X134393122Y-92188000D01*
X134334157Y-92077686D01*
X134254805Y-91980995D01*
X134158114Y-91901643D01*
X134047800Y-91842678D01*
X133928102Y-91806368D01*
X133803620Y-91794108D01*
X133389370Y-91797180D01*
X133230620Y-91955930D01*
X132976620Y-91955930D01*
X132817870Y-91797180D01*
X132403620Y-91794108D01*
X132279138Y-91806368D01*
X132159440Y-91842678D01*
X132049126Y-91901643D01*
X132029625Y-91917647D01*
X131924971Y-91861708D01*
X131758375Y-91811172D01*
X131585121Y-91794108D01*
X130685119Y-91794108D01*
X130511865Y-91811172D01*
X130345269Y-91861708D01*
X130191733Y-91943775D01*
X130180936Y-91952635D01*
X130101376Y-91899475D01*
X129913018Y-91821454D01*
X129713059Y-91781680D01*
X129509181Y-91781680D01*
X129309222Y-91821454D01*
X129151120Y-91886942D01*
X129151120Y-90716967D01*
X129155039Y-90677179D01*
X129151113Y-90637317D01*
X129139400Y-90518392D01*
X129093083Y-90365707D01*
X129017869Y-90224991D01*
X128916648Y-90101652D01*
X128885734Y-90076282D01*
X128534520Y-89725068D01*
X128509148Y-89694152D01*
X128385809Y-89592931D01*
X128245093Y-89517717D01*
X128221692Y-89510618D01*
X128221692Y-89394680D01*
X128211843Y-89294680D01*
X128221692Y-89194680D01*
X128221692Y-89129680D01*
X128480332Y-89129680D01*
X128520120Y-89133599D01*
X128559908Y-89129680D01*
X128559911Y-89129680D01*
X128678908Y-89117960D01*
X128831593Y-89071643D01*
X128972309Y-88996429D01*
X129095648Y-88895208D01*
X129121019Y-88864293D01*
X130409738Y-87575575D01*
X130440648Y-87550208D01*
X130517463Y-87456608D01*
X130541869Y-87426870D01*
X130591671Y-87333695D01*
X130617083Y-87286153D01*
X130663400Y-87133468D01*
X130675120Y-87014471D01*
X130675120Y-87014469D01*
X130679039Y-86974681D01*
X130675120Y-86934893D01*
X130675120Y-86006680D01*
X130917048Y-86006680D01*
X130917048Y-86046680D01*
X130929308Y-86171162D01*
X130965618Y-86290860D01*
X131024583Y-86401174D01*
X131103935Y-86497865D01*
X131200626Y-86577217D01*
X131310940Y-86636182D01*
X131430638Y-86672492D01*
X131555120Y-86684752D01*
X133255120Y-86684752D01*
X133379602Y-86672492D01*
X133499300Y-86636182D01*
X133609614Y-86577217D01*
X133706305Y-86497865D01*
X133785657Y-86401174D01*
X133844622Y-86290860D01*
X133880932Y-86171162D01*
X133893192Y-86046680D01*
X133893192Y-84346680D01*
X133880932Y-84222198D01*
X133844622Y-84102500D01*
X133785657Y-83992186D01*
X133706305Y-83895495D01*
X133609614Y-83816143D01*
X133499300Y-83757178D01*
X133379602Y-83720868D01*
X133255120Y-83708608D01*
X131555120Y-83708608D01*
X131430638Y-83720868D01*
X131310940Y-83757178D01*
X131200626Y-83816143D01*
X131103935Y-83895495D01*
X131024583Y-83992186D01*
X130965618Y-84102500D01*
X130929308Y-84222198D01*
X130917048Y-84346680D01*
X130917048Y-84386680D01*
X130675120Y-84386680D01*
X130675120Y-68768192D01*
X131171740Y-68271573D01*
X131202648Y-68246208D01*
X131303869Y-68122869D01*
X131379083Y-67982153D01*
X131425400Y-67829468D01*
X131437120Y-67710471D01*
X131437120Y-67710468D01*
X131441039Y-67670680D01*
X131437120Y-67630892D01*
X131437120Y-56534467D01*
X131441039Y-56494679D01*
X131432053Y-56403443D01*
X131425400Y-56335892D01*
X131379083Y-56183207D01*
X131332299Y-56095680D01*
X131303869Y-56042490D01*
X131260497Y-55989642D01*
X131202648Y-55919152D01*
X131171734Y-55893782D01*
X130702020Y-55424068D01*
X130676648Y-55393152D01*
X130553309Y-55291931D01*
X130412593Y-55216717D01*
X130259908Y-55170400D01*
X130140911Y-55158680D01*
X130140908Y-55158680D01*
X130101120Y-55154761D01*
X130061332Y-55158680D01*
X129026008Y-55158680D01*
X129021525Y-55150293D01*
X128911082Y-55015718D01*
X128776507Y-54905275D01*
X128622971Y-54823208D01*
X128456375Y-54772672D01*
X128283121Y-54755608D01*
X127383119Y-54755608D01*
X127209865Y-54772672D01*
X127043269Y-54823208D01*
X126889733Y-54905275D01*
X126817120Y-54964867D01*
X126744507Y-54905275D01*
X126590971Y-54823208D01*
X126424375Y-54772672D01*
X126251121Y-54755608D01*
X125351119Y-54755608D01*
X125177865Y-54772672D01*
X125011269Y-54823208D01*
X124857733Y-54905275D01*
X124785120Y-54964867D01*
X124712507Y-54905275D01*
X124558971Y-54823208D01*
X124392375Y-54772672D01*
X124219121Y-54755608D01*
X123319119Y-54755608D01*
X123145865Y-54772672D01*
X122979269Y-54823208D01*
X122825733Y-54905275D01*
X122753120Y-54964867D01*
X122680507Y-54905275D01*
X122547120Y-54833978D01*
X122547120Y-54502447D01*
X122551039Y-54462659D01*
X122545544Y-54406869D01*
X122535400Y-54303872D01*
X122489083Y-54151187D01*
X122436565Y-54052932D01*
X122413869Y-54010470D01*
X122382645Y-53972424D01*
X122312648Y-53887132D01*
X122281732Y-53861760D01*
X122262011Y-53842039D01*
X122224366Y-53652782D01*
X122146345Y-53464424D01*
X122033077Y-53294906D01*
X121888914Y-53150743D01*
X121719396Y-53037475D01*
X121531038Y-52959454D01*
X121331079Y-52919680D01*
X121127201Y-52919680D01*
X120927242Y-52959454D01*
X120738884Y-53037475D01*
X120569366Y-53150743D01*
X120425203Y-53294906D01*
X120311935Y-53464424D01*
X120233914Y-53652782D01*
X120194140Y-53852741D01*
X120194140Y-54056619D01*
X120233914Y-54256578D01*
X120311935Y-54444936D01*
X120425203Y-54614454D01*
X120569366Y-54758617D01*
X120627786Y-54797652D01*
X120529602Y-54767868D01*
X120405120Y-54755608D01*
X119990870Y-54758680D01*
X119832120Y-54917430D01*
X119832120Y-55841680D01*
X119852120Y-55841680D01*
X119852120Y-56095680D01*
X119832120Y-56095680D01*
X119832120Y-56115680D01*
X119578120Y-56115680D01*
X119578120Y-56095680D01*
X119558120Y-56095680D01*
X119558120Y-55841680D01*
X119578120Y-55841680D01*
X119578120Y-54917430D01*
X119470120Y-54809430D01*
X119470120Y-54627741D01*
X119430346Y-54427782D01*
X119352325Y-54239424D01*
X119239057Y-54069906D01*
X119094894Y-53925743D01*
X118925376Y-53812475D01*
X118737018Y-53734454D01*
X118537059Y-53694680D01*
X118333181Y-53694680D01*
X118133222Y-53734454D01*
X117944864Y-53812475D01*
X117775346Y-53925743D01*
X117631183Y-54069906D01*
X117517915Y-54239424D01*
X117439894Y-54427782D01*
X117411958Y-54568225D01*
X117380266Y-54558408D01*
X117262870Y-54548480D01*
X117104120Y-54707230D01*
X117104120Y-54861656D01*
X117062618Y-54939300D01*
X117026308Y-55058998D01*
X117014048Y-55183480D01*
X117014048Y-56383480D01*
X117026308Y-56507962D01*
X117062618Y-56627660D01*
X117104120Y-56705304D01*
X117104120Y-56859730D01*
X117262870Y-57018480D01*
X117380266Y-57008552D01*
X117451974Y-56986340D01*
X117527638Y-57009292D01*
X117652120Y-57021552D01*
X118202120Y-57021552D01*
X118326602Y-57009292D01*
X118446300Y-56972982D01*
X118508633Y-56939664D01*
X118553935Y-56994865D01*
X118633714Y-57060338D01*
X118627158Y-57065718D01*
X118516715Y-57200293D01*
X118496958Y-57237256D01*
X118446300Y-57210178D01*
X118326602Y-57173868D01*
X118202120Y-57161608D01*
X117652120Y-57161608D01*
X117527638Y-57173868D01*
X117452120Y-57196776D01*
X117376602Y-57173868D01*
X117252120Y-57161608D01*
X116702120Y-57161608D01*
X116577638Y-57173868D01*
X116502120Y-57196776D01*
X116426602Y-57173868D01*
X116302120Y-57161608D01*
X115752120Y-57161608D01*
X115627638Y-57173868D01*
X115507940Y-57210178D01*
X115397626Y-57269143D01*
X115300935Y-57348495D01*
X115221583Y-57445186D01*
X115162618Y-57555500D01*
X115126308Y-57675198D01*
X115114048Y-57799680D01*
X115114048Y-58999680D01*
X115126308Y-59124162D01*
X115162618Y-59243860D01*
X115221583Y-59354174D01*
X115300935Y-59450865D01*
X115359342Y-59498799D01*
X115381823Y-59526191D01*
X115404621Y-59553971D01*
X115404622Y-60157666D01*
X114842507Y-60719781D01*
X114811592Y-60745152D01*
X114747937Y-60822717D01*
X114710371Y-60868491D01*
X114694635Y-60897932D01*
X114635157Y-61009208D01*
X114588840Y-61161893D01*
X114577120Y-61280889D01*
X114573201Y-61320680D01*
X114577120Y-61360468D01*
X114577121Y-66003979D01*
X114469915Y-66164424D01*
X114391894Y-66352782D01*
X114352120Y-66552741D01*
X114352120Y-66756619D01*
X114391894Y-66956578D01*
X114469915Y-67144936D01*
X114583183Y-67314454D01*
X114727346Y-67458617D01*
X114896864Y-67571885D01*
X115085222Y-67649906D01*
X115285181Y-67689680D01*
X115389120Y-67689680D01*
X115389120Y-68695969D01*
X115284894Y-68591743D01*
X115115376Y-68478475D01*
X114927018Y-68400454D01*
X114727059Y-68360680D01*
X114523181Y-68360680D01*
X114323222Y-68400454D01*
X114134864Y-68478475D01*
X113965346Y-68591743D01*
X113821183Y-68735906D01*
X113804630Y-68760680D01*
X113196192Y-68760680D01*
X113196192Y-68345680D01*
X113183932Y-68221198D01*
X113161024Y-68145680D01*
X113183932Y-68070162D01*
X113196192Y-67945680D01*
X113196192Y-67395680D01*
X113183932Y-67271198D01*
X113147622Y-67151500D01*
X113088657Y-67041186D01*
X113038303Y-66979829D01*
X113040932Y-66971162D01*
X113053192Y-66846680D01*
X113050120Y-66432430D01*
X112891370Y-66273680D01*
X111967120Y-66273680D01*
X111967120Y-66293680D01*
X111713120Y-66293680D01*
X111713120Y-66273680D01*
X111693120Y-66273680D01*
X111693120Y-66019680D01*
X111713120Y-66019680D01*
X111713120Y-65999680D01*
X111967120Y-65999680D01*
X111967120Y-66019680D01*
X112891370Y-66019680D01*
X113050120Y-65860930D01*
X113053192Y-65446680D01*
X113040932Y-65322198D01*
X113004622Y-65202500D01*
X112945657Y-65092186D01*
X112914549Y-65054281D01*
X112994592Y-64904531D01*
X113045128Y-64737935D01*
X113062192Y-64564681D01*
X113062192Y-63664679D01*
X113045128Y-63491425D01*
X112994592Y-63324829D01*
X112912525Y-63171293D01*
X112852933Y-63098680D01*
X112912525Y-63026067D01*
X112994592Y-62872531D01*
X113045128Y-62705935D01*
X113062192Y-62532681D01*
X113062192Y-61632679D01*
X113045128Y-61459425D01*
X112994592Y-61292829D01*
X112918099Y-61149721D01*
X112954657Y-61105174D01*
X113013622Y-60994860D01*
X113049932Y-60875162D01*
X113062192Y-60750680D01*
X113059120Y-60336430D01*
X112900370Y-60177680D01*
X111976120Y-60177680D01*
X111976120Y-60197680D01*
X111722120Y-60197680D01*
X111722120Y-60177680D01*
X111702120Y-60177680D01*
X111702120Y-59923680D01*
X111722120Y-59923680D01*
X111722120Y-58874430D01*
X111976120Y-58874430D01*
X111976120Y-59923680D01*
X112900370Y-59923680D01*
X113059120Y-59764930D01*
X113062192Y-59350680D01*
X113049932Y-59226198D01*
X113013622Y-59106500D01*
X112954657Y-58996186D01*
X112875305Y-58899495D01*
X112778614Y-58820143D01*
X112668300Y-58761178D01*
X112548602Y-58724868D01*
X112424120Y-58712608D01*
X112134870Y-58715680D01*
X111976120Y-58874430D01*
X111722120Y-58874430D01*
X111563370Y-58715680D01*
X111274120Y-58712608D01*
X111149638Y-58724868D01*
X111029940Y-58761178D01*
X110919626Y-58820143D01*
X110822935Y-58899495D01*
X110757462Y-58979274D01*
X110752082Y-58972718D01*
X110617507Y-58862275D01*
X110463971Y-58780208D01*
X110297375Y-58729672D01*
X110124121Y-58712608D01*
X109474119Y-58712608D01*
X109300865Y-58729672D01*
X109134269Y-58780208D01*
X108980733Y-58862275D01*
X108846158Y-58972718D01*
X108735715Y-59107293D01*
X108653648Y-59260829D01*
X108603112Y-59427425D01*
X108586048Y-59600679D01*
X108586048Y-60500681D01*
X108603112Y-60673935D01*
X108653648Y-60840531D01*
X108735715Y-60994067D01*
X108795307Y-61066680D01*
X108735715Y-61139293D01*
X108664418Y-61272680D01*
X108060907Y-61272680D01*
X108021119Y-61268761D01*
X107981331Y-61272680D01*
X107981329Y-61272680D01*
X107862332Y-61284400D01*
X107709647Y-61330717D01*
X107568931Y-61405931D01*
X107445592Y-61507152D01*
X107420220Y-61538068D01*
X106968503Y-61989785D01*
X106937593Y-62015152D01*
X106901559Y-62059060D01*
X106836371Y-62138491D01*
X106775189Y-62252956D01*
X106761158Y-62279207D01*
X106732719Y-62372959D01*
X106714841Y-62431893D01*
X106699201Y-62590680D01*
X106703121Y-62630478D01*
X106703120Y-66752092D01*
X106699201Y-66791880D01*
X106703120Y-66831668D01*
X106703120Y-66831670D01*
X106714840Y-66950667D01*
X106761157Y-67103352D01*
X106791264Y-67159678D01*
X106836371Y-67244069D01*
X106867823Y-67282393D01*
X106937592Y-67367408D01*
X106968507Y-67392779D01*
X107791025Y-68215298D01*
X107816392Y-68246208D01*
X107850127Y-68273893D01*
X107939730Y-68347429D01*
X108014944Y-68387631D01*
X108080447Y-68422643D01*
X108233132Y-68468960D01*
X108241804Y-68469814D01*
X108265670Y-68493680D01*
X108420096Y-68493680D01*
X108497740Y-68535182D01*
X108617438Y-68571492D01*
X108741920Y-68583752D01*
X109941920Y-68583752D01*
X110066402Y-68571492D01*
X110186100Y-68535182D01*
X110263744Y-68493680D01*
X110418170Y-68493680D01*
X110576920Y-68334930D01*
X110566992Y-68217534D01*
X110544780Y-68145826D01*
X110567732Y-68070162D01*
X110579992Y-67945680D01*
X110579992Y-67395680D01*
X110575749Y-67352595D01*
X110608507Y-67335085D01*
X110743082Y-67224642D01*
X110748394Y-67218169D01*
X110732308Y-67271198D01*
X110720048Y-67395680D01*
X110720048Y-67945680D01*
X110732308Y-68070162D01*
X110755216Y-68145680D01*
X110732308Y-68221198D01*
X110720048Y-68345680D01*
X110720048Y-68760680D01*
X110431170Y-68760680D01*
X110418170Y-68747680D01*
X110263744Y-68747680D01*
X110186100Y-68706178D01*
X110066402Y-68669868D01*
X109941920Y-68657608D01*
X108741920Y-68657608D01*
X108617438Y-68669868D01*
X108497740Y-68706178D01*
X108420096Y-68747680D01*
X108265670Y-68747680D01*
X108106920Y-68906430D01*
X108116848Y-69023826D01*
X108139060Y-69095534D01*
X108116108Y-69171198D01*
X108103848Y-69295680D01*
X108103848Y-69845680D01*
X108116108Y-69970162D01*
X108152418Y-70089860D01*
X108211383Y-70200174D01*
X108290735Y-70296865D01*
X108387426Y-70376217D01*
X108497740Y-70435182D01*
X108531921Y-70445551D01*
X108531921Y-70747682D01*
X108528001Y-70787480D01*
X108540582Y-70915206D01*
X108543641Y-70946268D01*
X108568048Y-71026726D01*
X108568048Y-71676681D01*
X108585112Y-71849935D01*
X108635648Y-72016531D01*
X108717715Y-72170067D01*
X108828158Y-72304642D01*
X108962733Y-72415085D01*
X109116269Y-72497152D01*
X109282865Y-72547688D01*
X109456119Y-72564752D01*
X110106121Y-72564752D01*
X110279375Y-72547688D01*
X110410207Y-72508001D01*
X110405915Y-72514424D01*
X110327894Y-72702782D01*
X110288120Y-72902741D01*
X110288120Y-72964878D01*
X109034123Y-74218876D01*
X109005119Y-74242679D01*
X108956000Y-74302531D01*
X108910146Y-74358404D01*
X108870024Y-74433467D01*
X108839574Y-74490434D01*
X108796117Y-74633695D01*
X108785120Y-74745348D01*
X108785120Y-74745358D01*
X108781444Y-74782680D01*
X108785120Y-74820003D01*
X108785121Y-75602968D01*
X108741183Y-75646906D01*
X108627915Y-75816424D01*
X108549894Y-76004782D01*
X108510120Y-76204741D01*
X108510120Y-76408619D01*
X108549894Y-76608578D01*
X108627915Y-76796936D01*
X108741183Y-76966454D01*
X108885346Y-77110617D01*
X109054864Y-77223885D01*
X109243222Y-77301906D01*
X109443181Y-77341680D01*
X109647059Y-77341680D01*
X109847018Y-77301906D01*
X110035376Y-77223885D01*
X110204894Y-77110617D01*
X110349057Y-76966454D01*
X110462325Y-76796936D01*
X110540346Y-76608578D01*
X110580120Y-76408619D01*
X110580120Y-76204741D01*
X110540346Y-76004782D01*
X110462325Y-75816424D01*
X110349057Y-75646906D01*
X110305120Y-75602969D01*
X110305120Y-75097481D01*
X111362922Y-74039680D01*
X111425059Y-74039680D01*
X111625018Y-73999906D01*
X111813376Y-73921885D01*
X111982894Y-73808617D01*
X112127057Y-73664454D01*
X112240325Y-73494936D01*
X112318346Y-73306578D01*
X112358120Y-73106619D01*
X112358120Y-73071680D01*
X114811048Y-73071680D01*
X114823308Y-73196162D01*
X114859618Y-73315860D01*
X114918583Y-73426174D01*
X114997935Y-73522865D01*
X115094626Y-73602217D01*
X115204940Y-73661182D01*
X115324638Y-73697492D01*
X115449120Y-73709752D01*
X115863370Y-73706680D01*
X116022120Y-73547930D01*
X116022120Y-72623680D01*
X114972870Y-72623680D01*
X114814120Y-72782430D01*
X114811048Y-73071680D01*
X112358120Y-73071680D01*
X112358120Y-72902741D01*
X112318346Y-72702782D01*
X112260531Y-72563206D01*
X112406120Y-72564752D01*
X112530602Y-72552492D01*
X112650300Y-72516182D01*
X112760614Y-72457217D01*
X112857305Y-72377865D01*
X112936657Y-72281174D01*
X112995622Y-72170860D01*
X113031932Y-72051162D01*
X113044192Y-71926680D01*
X113041120Y-71512430D01*
X112882370Y-71353680D01*
X111958120Y-71353680D01*
X111958120Y-71373680D01*
X111704120Y-71373680D01*
X111704120Y-71353680D01*
X111684120Y-71353680D01*
X111684120Y-71099680D01*
X111704120Y-71099680D01*
X111704120Y-71079680D01*
X111958120Y-71079680D01*
X111958120Y-71099680D01*
X112882370Y-71099680D01*
X113041120Y-70940930D01*
X113044192Y-70526680D01*
X113031932Y-70402198D01*
X113025405Y-70380680D01*
X114298534Y-70380680D01*
X114323222Y-70390906D01*
X114523181Y-70430680D01*
X114727059Y-70430680D01*
X114811048Y-70413974D01*
X114811048Y-70771681D01*
X114828112Y-70944935D01*
X114878648Y-71111531D01*
X114960715Y-71265067D01*
X115071158Y-71399642D01*
X115077714Y-71405022D01*
X114997935Y-71470495D01*
X114918583Y-71567186D01*
X114859618Y-71677500D01*
X114823308Y-71797198D01*
X114811048Y-71921680D01*
X114814120Y-72210930D01*
X114972870Y-72369680D01*
X116022120Y-72369680D01*
X116022120Y-72349680D01*
X116276120Y-72349680D01*
X116276120Y-72369680D01*
X116296120Y-72369680D01*
X116296120Y-72623680D01*
X116276120Y-72623680D01*
X116276120Y-73547930D01*
X116434870Y-73706680D01*
X116849120Y-73709752D01*
X116973602Y-73697492D01*
X117093300Y-73661182D01*
X117117120Y-73648450D01*
X117117120Y-73980892D01*
X117113201Y-74020680D01*
X117117120Y-74060468D01*
X117117120Y-74060470D01*
X117128840Y-74179467D01*
X117175157Y-74332152D01*
X117210169Y-74397655D01*
X117250371Y-74472869D01*
X117280581Y-74509680D01*
X117351592Y-74596208D01*
X117382507Y-74621579D01*
X117876235Y-75115307D01*
X117901602Y-75146218D01*
X117932510Y-75171583D01*
X118024941Y-75247439D01*
X118165656Y-75322653D01*
X118201193Y-75333433D01*
X118318342Y-75368970D01*
X118437339Y-75380690D01*
X118437342Y-75380690D01*
X118477130Y-75384609D01*
X118516918Y-75380690D01*
X125211322Y-75380690D01*
X125251110Y-75384609D01*
X125290898Y-75380690D01*
X125290901Y-75380690D01*
X125409898Y-75368970D01*
X125562583Y-75322653D01*
X125703299Y-75247439D01*
X125826638Y-75146218D01*
X125852009Y-75115303D01*
X126345740Y-74621573D01*
X126376648Y-74596208D01*
X126477869Y-74472869D01*
X126498930Y-74433467D01*
X126553083Y-74332154D01*
X126575208Y-74259216D01*
X126599400Y-74179468D01*
X126611120Y-74060471D01*
X126611120Y-74060468D01*
X126615039Y-74020680D01*
X126611120Y-73980892D01*
X126611120Y-73649382D01*
X126744507Y-73578085D01*
X126817120Y-73518493D01*
X126889733Y-73578085D01*
X127043269Y-73660152D01*
X127209865Y-73710688D01*
X127383119Y-73727752D01*
X128283121Y-73727752D01*
X128456375Y-73710688D01*
X128622971Y-73660152D01*
X128776507Y-73578085D01*
X128911082Y-73467642D01*
X129021525Y-73333067D01*
X129055121Y-73270214D01*
X129055121Y-76012880D01*
X129055120Y-76012890D01*
X129055121Y-82479168D01*
X126148026Y-79572074D01*
X126122654Y-79541158D01*
X125999315Y-79439937D01*
X125858599Y-79364723D01*
X125705914Y-79318406D01*
X125586917Y-79306686D01*
X125586914Y-79306686D01*
X125547126Y-79302767D01*
X125507338Y-79306686D01*
X122863530Y-79306686D01*
X123039928Y-79243355D01*
X123160275Y-79179029D01*
X123229436Y-78937101D01*
X122430620Y-78138285D01*
X121631804Y-78937101D01*
X121700965Y-79179029D01*
X121953063Y-79297928D01*
X121988188Y-79306686D01*
X121117820Y-79306686D01*
X120957376Y-79199481D01*
X120769018Y-79121460D01*
X120579761Y-79083815D01*
X120052013Y-78556067D01*
X120026642Y-78525152D01*
X119903303Y-78423931D01*
X119762587Y-78348717D01*
X119638989Y-78311223D01*
X119623525Y-78282293D01*
X119513082Y-78147718D01*
X119506526Y-78142338D01*
X119586305Y-78076865D01*
X119624779Y-78029983D01*
X121010563Y-78029983D01*
X121051760Y-78305652D01*
X121145945Y-78567988D01*
X121210271Y-78688335D01*
X121452199Y-78757496D01*
X122251015Y-77958680D01*
X122610225Y-77958680D01*
X123409041Y-78757496D01*
X123650969Y-78688335D01*
X123769868Y-78436237D01*
X123837301Y-78165786D01*
X123850677Y-77887377D01*
X123809480Y-77611708D01*
X123715295Y-77349372D01*
X123650969Y-77229025D01*
X123409041Y-77159864D01*
X122610225Y-77958680D01*
X122251015Y-77958680D01*
X121452199Y-77159864D01*
X121210271Y-77229025D01*
X121091372Y-77481123D01*
X121023939Y-77751574D01*
X121010563Y-78029983D01*
X119624779Y-78029983D01*
X119665657Y-77980174D01*
X119724622Y-77869860D01*
X119760932Y-77750162D01*
X119773192Y-77625680D01*
X119770120Y-77336430D01*
X119611370Y-77177680D01*
X118562120Y-77177680D01*
X118562120Y-77197680D01*
X118308120Y-77197680D01*
X118308120Y-77177680D01*
X118288120Y-77177680D01*
X118288120Y-76980259D01*
X121631804Y-76980259D01*
X122430620Y-77779075D01*
X123229436Y-76980259D01*
X123160275Y-76738331D01*
X122908177Y-76619432D01*
X122637726Y-76551999D01*
X122359317Y-76538623D01*
X122083648Y-76579820D01*
X121821312Y-76674005D01*
X121700965Y-76738331D01*
X121631804Y-76980259D01*
X118288120Y-76980259D01*
X118288120Y-76923680D01*
X118308120Y-76923680D01*
X118308120Y-75999430D01*
X118562120Y-75999430D01*
X118562120Y-76923680D01*
X119611370Y-76923680D01*
X119770120Y-76764930D01*
X119773192Y-76475680D01*
X119760932Y-76351198D01*
X119724622Y-76231500D01*
X119665657Y-76121186D01*
X119586305Y-76024495D01*
X119489614Y-75945143D01*
X119379300Y-75886178D01*
X119259602Y-75849868D01*
X119135120Y-75837608D01*
X118720870Y-75840680D01*
X118562120Y-75999430D01*
X118308120Y-75999430D01*
X118149370Y-75840680D01*
X117735120Y-75837608D01*
X117610638Y-75849868D01*
X117490940Y-75886178D01*
X117380626Y-75945143D01*
X117345618Y-75973873D01*
X117398346Y-75846578D01*
X117438120Y-75646619D01*
X117438120Y-75442741D01*
X117398346Y-75242782D01*
X117320325Y-75054424D01*
X117207057Y-74884906D01*
X117062894Y-74740743D01*
X116893376Y-74627475D01*
X116705018Y-74549454D01*
X116505059Y-74509680D01*
X116301181Y-74509680D01*
X116101222Y-74549454D01*
X115912864Y-74627475D01*
X115743346Y-74740743D01*
X115599183Y-74884906D01*
X115485915Y-75054424D01*
X115407894Y-75242782D01*
X115368120Y-75442741D01*
X115368120Y-75646619D01*
X115407894Y-75846578D01*
X115468058Y-75991825D01*
X115459733Y-75996275D01*
X115325158Y-76106718D01*
X115214715Y-76241293D01*
X115210232Y-76249680D01*
X114589192Y-76249680D01*
X114589192Y-75710680D01*
X114576932Y-75586198D01*
X114540622Y-75466500D01*
X114481657Y-75356186D01*
X114402305Y-75259495D01*
X114305614Y-75180143D01*
X114195300Y-75121178D01*
X114075602Y-75084868D01*
X113951120Y-75072608D01*
X112251120Y-75072608D01*
X112126638Y-75084868D01*
X112006940Y-75121178D01*
X111896626Y-75180143D01*
X111799935Y-75259495D01*
X111720583Y-75356186D01*
X111661618Y-75466500D01*
X111625308Y-75586198D01*
X111613048Y-75710680D01*
X111613048Y-77410680D01*
X111625308Y-77535162D01*
X111661618Y-77654860D01*
X111720583Y-77765174D01*
X111799935Y-77861865D01*
X111896626Y-77941217D01*
X112006940Y-78000182D01*
X112126638Y-78036492D01*
X112251120Y-78048752D01*
X113951120Y-78048752D01*
X114075602Y-78036492D01*
X114195300Y-78000182D01*
X114305614Y-77941217D01*
X114392782Y-77869680D01*
X115210232Y-77869680D01*
X115214715Y-77878067D01*
X115325158Y-78012642D01*
X115412936Y-78084680D01*
X115325158Y-78156718D01*
X115214715Y-78291293D01*
X115132648Y-78444829D01*
X115082112Y-78611425D01*
X115065048Y-78784679D01*
X115065048Y-79434681D01*
X115082112Y-79607935D01*
X115132648Y-79774531D01*
X115214715Y-79928067D01*
X115325158Y-80062642D01*
X115396487Y-80121180D01*
X114589192Y-80121180D01*
X114589192Y-79520680D01*
X114576932Y-79396198D01*
X114540622Y-79276500D01*
X114481657Y-79166186D01*
X114402305Y-79069495D01*
X114305614Y-78990143D01*
X114195300Y-78931178D01*
X114075602Y-78894868D01*
X113951120Y-78882608D01*
X112251120Y-78882608D01*
X112126638Y-78894868D01*
X112006940Y-78931178D01*
X111896626Y-78990143D01*
X111799935Y-79069495D01*
X111720583Y-79166186D01*
X111661618Y-79276500D01*
X111625308Y-79396198D01*
X111613048Y-79520680D01*
X111613048Y-81039095D01*
X104674595Y-74100643D01*
X104623052Y-73841522D01*
X104511110Y-73571269D01*
X104348595Y-73328048D01*
X104141752Y-73121205D01*
X103967360Y-73004680D01*
X104141752Y-72888155D01*
X104348595Y-72681312D01*
X104511110Y-72438091D01*
X104623052Y-72167838D01*
X104680120Y-71880940D01*
X104680120Y-71588420D01*
X104623052Y-71301522D01*
X104511110Y-71031269D01*
X104348595Y-70788048D01*
X104141752Y-70581205D01*
X103898531Y-70418690D01*
X103628278Y-70306748D01*
X103341380Y-70249680D01*
X103048860Y-70249680D01*
X102761962Y-70306748D01*
X102491709Y-70418690D01*
X102248488Y-70581205D01*
X102041645Y-70788048D01*
X101879130Y-71031269D01*
X101767188Y-71301522D01*
X101710120Y-71588420D01*
X101710120Y-71880940D01*
X101767188Y-72167838D01*
X101879130Y-72438091D01*
X102041645Y-72681312D01*
X102248488Y-72888155D01*
X102422880Y-73004680D01*
X102248488Y-73121205D01*
X102041645Y-73328048D01*
X101950350Y-73464680D01*
X100629890Y-73464680D01*
X100538595Y-73328048D01*
X100331752Y-73121205D01*
X100157360Y-73004680D01*
X100331752Y-72888155D01*
X100538595Y-72681312D01*
X100701110Y-72438091D01*
X100813052Y-72167838D01*
X100870120Y-71880940D01*
X100870120Y-71588420D01*
X100813052Y-71301522D01*
X100701110Y-71031269D01*
X100538595Y-70788048D01*
X100331752Y-70581205D01*
X100088531Y-70418690D01*
X99818278Y-70306748D01*
X99531380Y-70249680D01*
X99238860Y-70249680D01*
X98951962Y-70306748D01*
X98681709Y-70418690D01*
X98438488Y-70581205D01*
X98231645Y-70788048D01*
X98069130Y-71031269D01*
X97957188Y-71301522D01*
X97900120Y-71588420D01*
X97900120Y-71880940D01*
X97957188Y-72167838D01*
X98069130Y-72438091D01*
X98231645Y-72681312D01*
X98438488Y-72888155D01*
X98612880Y-73004680D01*
X98438488Y-73121205D01*
X98231645Y-73328048D01*
X98069130Y-73571269D01*
X97957188Y-73841522D01*
X97900120Y-74128420D01*
X97900120Y-74420940D01*
X97957188Y-74707838D01*
X98069130Y-74978091D01*
X98231645Y-75221312D01*
X98438488Y-75428155D01*
X98612880Y-75544680D01*
X98438488Y-75661205D01*
X98231645Y-75868048D01*
X98069130Y-76111269D01*
X97957188Y-76381522D01*
X97900120Y-76668420D01*
X97900120Y-76960940D01*
X97957188Y-77247838D01*
X98069130Y-77518091D01*
X98231645Y-77761312D01*
X98438488Y-77968155D01*
X98620654Y-78089875D01*
X98503765Y-78159502D01*
X98287532Y-78354411D01*
X98113479Y-78587760D01*
X97988295Y-78850581D01*
X97943644Y-78997790D01*
X98064965Y-79227680D01*
X99258120Y-79227680D01*
X99258120Y-79207680D01*
X99512120Y-79207680D01*
X99512120Y-79227680D01*
X100705275Y-79227680D01*
X100826596Y-78997790D01*
X100781945Y-78850581D01*
X100656761Y-78587760D01*
X100482708Y-78354411D01*
X100266475Y-78159502D01*
X100149586Y-78089875D01*
X100331752Y-77968155D01*
X100538595Y-77761312D01*
X100629890Y-77624680D01*
X101950350Y-77624680D01*
X102041645Y-77761312D01*
X102248488Y-77968155D01*
X102430654Y-78089875D01*
X102313765Y-78159502D01*
X102097532Y-78354411D01*
X101923479Y-78587760D01*
X101798295Y-78850581D01*
X101753644Y-78997790D01*
X101874965Y-79227680D01*
X103068120Y-79227680D01*
X103068120Y-79207680D01*
X103322120Y-79207680D01*
X103322120Y-79227680D01*
X104515275Y-79227680D01*
X104636596Y-78997790D01*
X104591945Y-78850581D01*
X104466761Y-78587760D01*
X104292708Y-78354411D01*
X104076475Y-78159502D01*
X103959586Y-78089875D01*
X104035847Y-78038919D01*
X110256607Y-84259680D01*
X108755633Y-84259680D01*
X108343192Y-83847239D01*
X108343192Y-83329679D01*
X108326128Y-83156425D01*
X108275592Y-82989829D01*
X108193525Y-82836293D01*
X108083082Y-82701718D01*
X107948507Y-82591275D01*
X107794971Y-82509208D01*
X107628375Y-82458672D01*
X107455121Y-82441608D01*
X106555119Y-82441608D01*
X106381865Y-82458672D01*
X106215269Y-82509208D01*
X106061733Y-82591275D01*
X106057062Y-82595109D01*
X104812019Y-81350067D01*
X104786648Y-81319152D01*
X104663309Y-81217931D01*
X104522593Y-81142717D01*
X104467502Y-81126005D01*
X104348595Y-80948048D01*
X104141752Y-80741205D01*
X103959586Y-80619485D01*
X104076475Y-80549858D01*
X104292708Y-80354949D01*
X104466761Y-80121600D01*
X104591945Y-79858779D01*
X104636596Y-79711570D01*
X104515275Y-79481680D01*
X103322120Y-79481680D01*
X103322120Y-79501680D01*
X103068120Y-79501680D01*
X103068120Y-79481680D01*
X101874965Y-79481680D01*
X101753644Y-79711570D01*
X101798295Y-79858779D01*
X101923479Y-80121600D01*
X102097532Y-80354949D01*
X102313765Y-80549858D01*
X102430654Y-80619485D01*
X102248488Y-80741205D01*
X102041645Y-80948048D01*
X101950350Y-81084680D01*
X100629890Y-81084680D01*
X100538595Y-80948048D01*
X100331752Y-80741205D01*
X100149586Y-80619485D01*
X100266475Y-80549858D01*
X100482708Y-80354949D01*
X100656761Y-80121600D01*
X100781945Y-79858779D01*
X100826596Y-79711570D01*
X100705275Y-79481680D01*
X99512120Y-79481680D01*
X99512120Y-79501680D01*
X99258120Y-79501680D01*
X99258120Y-79481680D01*
X98064965Y-79481680D01*
X97943644Y-79711570D01*
X97988295Y-79858779D01*
X98113479Y-80121600D01*
X98287532Y-80354949D01*
X98503765Y-80549858D01*
X98620654Y-80619485D01*
X98438488Y-80741205D01*
X98231645Y-80948048D01*
X98069130Y-81191269D01*
X97957188Y-81461522D01*
X97900120Y-81748420D01*
X97900120Y-82040940D01*
X97957188Y-82327838D01*
X98069130Y-82598091D01*
X98231645Y-82841312D01*
X98363500Y-82973167D01*
X98290940Y-82995178D01*
X98180626Y-83054143D01*
X98083935Y-83133495D01*
X98004583Y-83230186D01*
X97945618Y-83340500D01*
X97909308Y-83460198D01*
X97897048Y-83584680D01*
X97897048Y-85284680D01*
X97909308Y-85409162D01*
X97945618Y-85528860D01*
X98004583Y-85639174D01*
X98083935Y-85735865D01*
X98180626Y-85815217D01*
X98290940Y-85874182D01*
X98410638Y-85910492D01*
X98535120Y-85922752D01*
X100235120Y-85922752D01*
X100359602Y-85910492D01*
X100479300Y-85874182D01*
X100589614Y-85815217D01*
X100686305Y-85735865D01*
X100765657Y-85639174D01*
X100824622Y-85528860D01*
X100860932Y-85409162D01*
X100873192Y-85284680D01*
X100873192Y-85244680D01*
X101707048Y-85244680D01*
X101707048Y-85284680D01*
X101719308Y-85409162D01*
X101755618Y-85528860D01*
X101814583Y-85639174D01*
X101893935Y-85735865D01*
X101990626Y-85815217D01*
X102100940Y-85874182D01*
X102220638Y-85910492D01*
X102345120Y-85922752D01*
X104045120Y-85922752D01*
X104169602Y-85910492D01*
X104259998Y-85883071D01*
X104626225Y-86249298D01*
X104651592Y-86280208D01*
X104700776Y-86320572D01*
X104774930Y-86381429D01*
X104844823Y-86418787D01*
X104915647Y-86456643D01*
X105068332Y-86502960D01*
X105187329Y-86514680D01*
X105187331Y-86514680D01*
X105227119Y-86518599D01*
X105266907Y-86514680D01*
X105812232Y-86514680D01*
X105816715Y-86523067D01*
X105927158Y-86657642D01*
X106061733Y-86768085D01*
X106215269Y-86850152D01*
X106381865Y-86900688D01*
X106555119Y-86917752D01*
X107455121Y-86917752D01*
X107628375Y-86900688D01*
X107794971Y-86850152D01*
X107948507Y-86768085D01*
X108083082Y-86657642D01*
X108193525Y-86523067D01*
X108198008Y-86514680D01*
X114556132Y-86514680D01*
X114222119Y-86848694D01*
X114193121Y-86872492D01*
X114169323Y-86901490D01*
X114169322Y-86901491D01*
X114098147Y-86988217D01*
X114027575Y-87120247D01*
X113998078Y-87217491D01*
X113984119Y-87263507D01*
X113980753Y-87297680D01*
X113969445Y-87412493D01*
X113973122Y-87449825D01*
X113973121Y-93395358D01*
X113969445Y-93432681D01*
X113973121Y-93470003D01*
X113973121Y-93470013D01*
X113984118Y-93581666D01*
X114027575Y-93724927D01*
X114098120Y-93856906D01*
X114098120Y-93934619D01*
X114137894Y-94134578D01*
X114215915Y-94322936D01*
X114329183Y-94492454D01*
X114473346Y-94636617D01*
X114642864Y-94749885D01*
X114831222Y-94827906D01*
X115031181Y-94867680D01*
X115235059Y-94867680D01*
X115435018Y-94827906D01*
X115593120Y-94762417D01*
X115593121Y-99452502D01*
X115589201Y-99492300D01*
X115597096Y-99572454D01*
X115604841Y-99651088D01*
X115623003Y-99710960D01*
X115651158Y-99803773D01*
X115726371Y-99944489D01*
X115780586Y-100010549D01*
X115827593Y-100067828D01*
X115858503Y-100093195D01*
X118228445Y-102463138D01*
X118253812Y-102494048D01*
X118321550Y-102549639D01*
X118377150Y-102595269D01*
X118452364Y-102635471D01*
X118517867Y-102670483D01*
X118541268Y-102677582D01*
X118541268Y-103676680D01*
X117959539Y-103676680D01*
X117927120Y-103673487D01*
X117894701Y-103676680D01*
X117797737Y-103686230D01*
X117673327Y-103723970D01*
X117558670Y-103785255D01*
X117458172Y-103867732D01*
X117375695Y-103968230D01*
X117314410Y-104082887D01*
X117276670Y-104207297D01*
X117263927Y-104336680D01*
X117267121Y-104369109D01*
X117267120Y-107592500D01*
X105381050Y-107592500D01*
X88262103Y-77941800D01*
X101876719Y-54360741D01*
X114860120Y-54360741D01*
X114860120Y-54564619D01*
X114899894Y-54764578D01*
X114977915Y-54952936D01*
X115085121Y-55113381D01*
X115085121Y-55611682D01*
X115081201Y-55651480D01*
X115095425Y-55795890D01*
X115096841Y-55810268D01*
X115105427Y-55838572D01*
X115114048Y-55866991D01*
X115114048Y-56383480D01*
X115126308Y-56507962D01*
X115162618Y-56627660D01*
X115221583Y-56737974D01*
X115300935Y-56834665D01*
X115397626Y-56914017D01*
X115507940Y-56972982D01*
X115627638Y-57009292D01*
X115752120Y-57021552D01*
X116302120Y-57021552D01*
X116426602Y-57009292D01*
X116502266Y-56986340D01*
X116573974Y-57008552D01*
X116691370Y-57018480D01*
X116850120Y-56859730D01*
X116850120Y-56705304D01*
X116891622Y-56627660D01*
X116927932Y-56507962D01*
X116940192Y-56383480D01*
X116940192Y-55183480D01*
X116927932Y-55058998D01*
X116891622Y-54939300D01*
X116850128Y-54861672D01*
X116890346Y-54764578D01*
X116930120Y-54564619D01*
X116930120Y-54360741D01*
X116890346Y-54160782D01*
X116812325Y-53972424D01*
X116699057Y-53802906D01*
X116554894Y-53658743D01*
X116385376Y-53545475D01*
X116197018Y-53467454D01*
X115997059Y-53427680D01*
X115793181Y-53427680D01*
X115593222Y-53467454D01*
X115404864Y-53545475D01*
X115235346Y-53658743D01*
X115091183Y-53802906D01*
X114977915Y-53972424D01*
X114899894Y-54160782D01*
X114860120Y-54360741D01*
X101876719Y-54360741D01*
X105381050Y-48291100D01*
X139618951Y-48291100D01*
X156737896Y-77941800D01*
G37*
X156737896Y-77941800D02*
X139618951Y-107592500D01*
X127731120Y-107592500D01*
X127731120Y-104369099D01*
X127734313Y-104336680D01*
X127721570Y-104207297D01*
X127683830Y-104082887D01*
X127622545Y-103968230D01*
X127540068Y-103867732D01*
X127439570Y-103785255D01*
X127324913Y-103723970D01*
X127200503Y-103686230D01*
X127103539Y-103676680D01*
X127071120Y-103673487D01*
X127038701Y-103676680D01*
X126421412Y-103676680D01*
X126421412Y-100720900D01*
X134415112Y-100720900D01*
X134454900Y-100724819D01*
X134494688Y-100720900D01*
X134494691Y-100720900D01*
X134613688Y-100709180D01*
X134766373Y-100662863D01*
X134907089Y-100587649D01*
X135030428Y-100486428D01*
X135055800Y-100455512D01*
X147427741Y-88083572D01*
X147458648Y-88058208D01*
X147525874Y-87976292D01*
X147559869Y-87934870D01*
X147616742Y-87828467D01*
X147635083Y-87794153D01*
X147681400Y-87641468D01*
X147693120Y-87522471D01*
X147693120Y-87522469D01*
X147697039Y-87482681D01*
X147693120Y-87442893D01*
X147693120Y-78877467D01*
X147697039Y-78837679D01*
X147691183Y-78778226D01*
X147681400Y-78678892D01*
X147635083Y-78526207D01*
X147559869Y-78385491D01*
X147458648Y-78262152D01*
X147427738Y-78236785D01*
X145681192Y-76490240D01*
X145681192Y-75972679D01*
X145664128Y-75799425D01*
X145613592Y-75632829D01*
X145531525Y-75479293D01*
X145421082Y-75344718D01*
X145286507Y-75234275D01*
X145132971Y-75152208D01*
X144966375Y-75101672D01*
X144793121Y-75084608D01*
X143893119Y-75084608D01*
X143719865Y-75101672D01*
X143553269Y-75152208D01*
X143399733Y-75234275D01*
X143265158Y-75344718D01*
X143154715Y-75479293D01*
X143150232Y-75487680D01*
X141837920Y-75487680D01*
X142477383Y-74848217D01*
X142503119Y-74850752D01*
X143153121Y-74850752D01*
X143326375Y-74833688D01*
X143492971Y-74783152D01*
X143646507Y-74701085D01*
X143781082Y-74590642D01*
X143891525Y-74456067D01*
X143973592Y-74302531D01*
X144024128Y-74135935D01*
X144041192Y-73962681D01*
X144041192Y-73062679D01*
X144024128Y-72889425D01*
X143973592Y-72722829D01*
X143891525Y-72569293D01*
X143781082Y-72434718D01*
X143646507Y-72324275D01*
X143492971Y-72242208D01*
X143326375Y-72191672D01*
X143153121Y-72174608D01*
X142503119Y-72174608D01*
X142329865Y-72191672D01*
X142163269Y-72242208D01*
X142009733Y-72324275D01*
X141875158Y-72434718D01*
X141803120Y-72522496D01*
X141731082Y-72434718D01*
X141596507Y-72324275D01*
X141442971Y-72242208D01*
X141276375Y-72191672D01*
X141103121Y-72174608D01*
X140453119Y-72174608D01*
X140279865Y-72191672D01*
X140113269Y-72242208D01*
X139959733Y-72324275D01*
X139825158Y-72434718D01*
X139714715Y-72569293D01*
X139643418Y-72702680D01*
X138882822Y-72702680D01*
X138811525Y-72569293D01*
X138701082Y-72434718D01*
X138566507Y-72324275D01*
X138412971Y-72242208D01*
X138246375Y-72191672D01*
X138073121Y-72174608D01*
X137423119Y-72174608D01*
X137249865Y-72191672D01*
X137083269Y-72242208D01*
X136929733Y-72324275D01*
X136795158Y-72434718D01*
X136723120Y-72522496D01*
X136651082Y-72434718D01*
X136516507Y-72324275D01*
X136362971Y-72242208D01*
X136196375Y-72191672D01*
X136023121Y-72174608D01*
X135373119Y-72174608D01*
X135199865Y-72191672D01*
X135033269Y-72242208D01*
X134879733Y-72324275D01*
X134745158Y-72434718D01*
X134634715Y-72569293D01*
X134563418Y-72702680D01*
X133563820Y-72702680D01*
X133403376Y-72595475D01*
X133215018Y-72517454D01*
X133015059Y-72477680D01*
X132811181Y-72477680D01*
X132611222Y-72517454D01*
X132422864Y-72595475D01*
X132253346Y-72708743D01*
X132109183Y-72852906D01*
X131995915Y-73022424D01*
X131917894Y-73210782D01*
X131878120Y-73410741D01*
X131878120Y-73614619D01*
X131917894Y-73814578D01*
X131995915Y-74002936D01*
X132109183Y-74172454D01*
X132253346Y-74316617D01*
X132422864Y-74429885D01*
X132611222Y-74507906D01*
X132811181Y-74547680D01*
X133015059Y-74547680D01*
X133215018Y-74507906D01*
X133403376Y-74429885D01*
X133563820Y-74322680D01*
X134563418Y-74322680D01*
X134634715Y-74456067D01*
X134745158Y-74590642D01*
X134879733Y-74701085D01*
X135033269Y-74783152D01*
X135199865Y-74833688D01*
X135373119Y-74850752D01*
X136023121Y-74850752D01*
X136196375Y-74833688D01*
X136362971Y-74783152D01*
X136516507Y-74701085D01*
X136651082Y-74590642D01*
X136723120Y-74502864D01*
X136795158Y-74590642D01*
X136928121Y-74699762D01*
X136928120Y-75881723D01*
X136908626Y-75892143D01*
X136811935Y-75971495D01*
X136732583Y-76068186D01*
X136673618Y-76178500D01*
X136637308Y-76298198D01*
X136625048Y-76422680D01*
X136625048Y-76722680D01*
X136633912Y-76812680D01*
X136510443Y-76812680D01*
X136473120Y-76809004D01*
X136435797Y-76812680D01*
X136435787Y-76812680D01*
X136324134Y-76823677D01*
X136180873Y-76867134D01*
X136048844Y-76937706D01*
X135933119Y-77032679D01*
X135909321Y-77061677D01*
X135413319Y-77557680D01*
X135351181Y-77557680D01*
X135151222Y-77597454D01*
X134962864Y-77675475D01*
X134793346Y-77788743D01*
X134649183Y-77932906D01*
X134535915Y-78102424D01*
X134457894Y-78290782D01*
X134418120Y-78490741D01*
X134418120Y-78694619D01*
X134457894Y-78894578D01*
X134535915Y-79082936D01*
X134649183Y-79252454D01*
X134793346Y-79396617D01*
X134962864Y-79509885D01*
X135151222Y-79587906D01*
X135351181Y-79627680D01*
X135555059Y-79627680D01*
X135755018Y-79587906D01*
X135943376Y-79509885D01*
X136112894Y-79396617D01*
X136257057Y-79252454D01*
X136370325Y-79082936D01*
X136448346Y-78894578D01*
X136488120Y-78694619D01*
X136488120Y-78632481D01*
X136669667Y-78450934D01*
X136678973Y-78479405D01*
X136740281Y-78588433D01*
X136821682Y-78683406D01*
X136920048Y-78760674D01*
X137031597Y-78817266D01*
X137152044Y-78851010D01*
X137276759Y-78860606D01*
X137402370Y-78857680D01*
X137561120Y-78698930D01*
X137561120Y-78360752D01*
X137815120Y-78360752D01*
X137815120Y-78698930D01*
X137973870Y-78857680D01*
X138099481Y-78860606D01*
X138224196Y-78851010D01*
X138344643Y-78817266D01*
X138456192Y-78760674D01*
X138503121Y-78723811D01*
X138503120Y-79477167D01*
X138175587Y-79804700D01*
X138073121Y-79794608D01*
X137423119Y-79794608D01*
X137249865Y-79811672D01*
X137083269Y-79862208D01*
X136929733Y-79944275D01*
X136795158Y-80054718D01*
X136723120Y-80142496D01*
X136651082Y-80054718D01*
X136516507Y-79944275D01*
X136362971Y-79862208D01*
X136196375Y-79811672D01*
X136023121Y-79794608D01*
X135373119Y-79794608D01*
X135199865Y-79811672D01*
X135033269Y-79862208D01*
X134879733Y-79944275D01*
X134745158Y-80054718D01*
X134634715Y-80189293D01*
X134563418Y-80322680D01*
X133563820Y-80322680D01*
X133403376Y-80215475D01*
X133215018Y-80137454D01*
X133015059Y-80097680D01*
X132811181Y-80097680D01*
X132611222Y-80137454D01*
X132422864Y-80215475D01*
X132253346Y-80328743D01*
X132109183Y-80472906D01*
X131995915Y-80642424D01*
X131917894Y-80830782D01*
X131878120Y-81030741D01*
X131878120Y-81234619D01*
X131917894Y-81434578D01*
X131995915Y-81622936D01*
X132109183Y-81792454D01*
X132253346Y-81936617D01*
X132422864Y-82049885D01*
X132611222Y-82127906D01*
X132811181Y-82167680D01*
X133015059Y-82167680D01*
X133215018Y-82127906D01*
X133403376Y-82049885D01*
X133563820Y-81942680D01*
X134563418Y-81942680D01*
X134634715Y-82076067D01*
X134745158Y-82210642D01*
X134879733Y-82321085D01*
X135033269Y-82403152D01*
X135199865Y-82453688D01*
X135373119Y-82470752D01*
X136023121Y-82470752D01*
X136196375Y-82453688D01*
X136362971Y-82403152D01*
X136516507Y-82321085D01*
X136651082Y-82210642D01*
X136723120Y-82122864D01*
X136795158Y-82210642D01*
X136929733Y-82321085D01*
X137083269Y-82403152D01*
X137249865Y-82453688D01*
X137423119Y-82470752D01*
X138073121Y-82470752D01*
X138246375Y-82453688D01*
X138412971Y-82403152D01*
X138566507Y-82321085D01*
X138701082Y-82210642D01*
X138811525Y-82076067D01*
X138893592Y-81922531D01*
X138944128Y-81755935D01*
X138961192Y-81582681D01*
X138961192Y-81310120D01*
X139263120Y-81008193D01*
X139565048Y-81310121D01*
X139565048Y-81582681D01*
X139582112Y-81755935D01*
X139632648Y-81922531D01*
X139714715Y-82076067D01*
X139825158Y-82210642D01*
X139959733Y-82321085D01*
X140113269Y-82403152D01*
X140279865Y-82453688D01*
X140453119Y-82470752D01*
X141103121Y-82470752D01*
X141276375Y-82453688D01*
X141442971Y-82403152D01*
X141596507Y-82321085D01*
X141731082Y-82210642D01*
X141803120Y-82122864D01*
X141875158Y-82210642D01*
X142009733Y-82321085D01*
X142163269Y-82403152D01*
X142329865Y-82453688D01*
X142503119Y-82470752D01*
X143153121Y-82470752D01*
X143326375Y-82453688D01*
X143492971Y-82403152D01*
X143646507Y-82321085D01*
X143781082Y-82210642D01*
X143891525Y-82076067D01*
X143973592Y-81922531D01*
X144024128Y-81755935D01*
X144041192Y-81582681D01*
X144041192Y-80682679D01*
X144024128Y-80509425D01*
X143973592Y-80342829D01*
X143891525Y-80189293D01*
X143781082Y-80054718D01*
X143646507Y-79944275D01*
X143638120Y-79939792D01*
X143638120Y-79560260D01*
X143643120Y-79560752D01*
X144057370Y-79557680D01*
X144216120Y-79398930D01*
X144216120Y-78474680D01*
X144196120Y-78474680D01*
X144196120Y-78220680D01*
X144216120Y-78220680D01*
X144216120Y-78200680D01*
X144470120Y-78200680D01*
X144470120Y-78220680D01*
X144490120Y-78220680D01*
X144490120Y-78474680D01*
X144470120Y-78474680D01*
X144470120Y-79398930D01*
X144628870Y-79557680D01*
X145043120Y-79560752D01*
X145167602Y-79548492D01*
X145287300Y-79512182D01*
X145397614Y-79453217D01*
X145494305Y-79373865D01*
X145573657Y-79277174D01*
X145632622Y-79166860D01*
X145668932Y-79047162D01*
X145681192Y-78922680D01*
X145679674Y-78779747D01*
X146073121Y-79173194D01*
X146073120Y-87147167D01*
X134119388Y-99100900D01*
X125957671Y-99100900D01*
X126037376Y-99067885D01*
X126206894Y-98954617D01*
X126351057Y-98810454D01*
X126464325Y-98640936D01*
X126542346Y-98452578D01*
X126579991Y-98263321D01*
X128885738Y-95957575D01*
X128916648Y-95932208D01*
X129017869Y-95808869D01*
X129064285Y-95722031D01*
X129093083Y-95668154D01*
X129103863Y-95632617D01*
X129139400Y-95515468D01*
X129151120Y-95396471D01*
X129151120Y-95396468D01*
X129155039Y-95356680D01*
X129151120Y-95316892D01*
X129151120Y-93746418D01*
X129309222Y-93811906D01*
X129509181Y-93851680D01*
X129713059Y-93851680D01*
X129913018Y-93811906D01*
X129934628Y-93802955D01*
X129946715Y-93825567D01*
X130057158Y-93960142D01*
X130144936Y-94032180D01*
X130057158Y-94104218D01*
X129946715Y-94238793D01*
X129864648Y-94392329D01*
X129814112Y-94558925D01*
X129797048Y-94732179D01*
X129797048Y-95382181D01*
X129814112Y-95555435D01*
X129864648Y-95722031D01*
X129946715Y-95875567D01*
X130057158Y-96010142D01*
X130191733Y-96120585D01*
X130345269Y-96202652D01*
X130511865Y-96253188D01*
X130685119Y-96270252D01*
X131585121Y-96270252D01*
X131758375Y-96253188D01*
X131924971Y-96202652D01*
X132078507Y-96120585D01*
X132119370Y-96087050D01*
X132160233Y-96120585D01*
X132313769Y-96202652D01*
X132480365Y-96253188D01*
X132653619Y-96270252D01*
X133553621Y-96270252D01*
X133726875Y-96253188D01*
X133893471Y-96202652D01*
X134047007Y-96120585D01*
X134181582Y-96010142D01*
X134292025Y-95875567D01*
X134374092Y-95722031D01*
X134424628Y-95555435D01*
X134441692Y-95382181D01*
X134441692Y-94732179D01*
X134424628Y-94558925D01*
X134374092Y-94392329D01*
X134292025Y-94238793D01*
X134181582Y-94104218D01*
X134175026Y-94098838D01*
X134254805Y-94033365D01*
X134334157Y-93936674D01*
X134393122Y-93826360D01*
X134429432Y-93706662D01*
X134441692Y-93582180D01*
X134438620Y-93292930D01*
X134279870Y-93134180D01*
X133230620Y-93134180D01*
X133230620Y-93154180D01*
X132976620Y-93154180D01*
X132976620Y-93134180D01*
X132956620Y-93134180D01*
X132956620Y-92880180D01*
X132976620Y-92880180D01*
X132976620Y-91955930D01*
X133230620Y-91955930D01*
X133230620Y-92880180D01*
X134279870Y-92880180D01*
X134438620Y-92721430D01*
X134441692Y-92432180D01*
X134429432Y-92307698D01*
X134393122Y-92188000D01*
X134334157Y-92077686D01*
X134254805Y-91980995D01*
X134158114Y-91901643D01*
X134047800Y-91842678D01*
X133928102Y-91806368D01*
X133803620Y-91794108D01*
X133389370Y-91797180D01*
X133230620Y-91955930D01*
X132976620Y-91955930D01*
X132817870Y-91797180D01*
X132403620Y-91794108D01*
X132279138Y-91806368D01*
X132159440Y-91842678D01*
X132049126Y-91901643D01*
X132029625Y-91917647D01*
X131924971Y-91861708D01*
X131758375Y-91811172D01*
X131585121Y-91794108D01*
X130685119Y-91794108D01*
X130511865Y-91811172D01*
X130345269Y-91861708D01*
X130191733Y-91943775D01*
X130180936Y-91952635D01*
X130101376Y-91899475D01*
X129913018Y-91821454D01*
X129713059Y-91781680D01*
X129509181Y-91781680D01*
X129309222Y-91821454D01*
X129151120Y-91886942D01*
X129151120Y-90716967D01*
X129155039Y-90677179D01*
X129151113Y-90637317D01*
X129139400Y-90518392D01*
X129093083Y-90365707D01*
X129017869Y-90224991D01*
X128916648Y-90101652D01*
X128885734Y-90076282D01*
X128534520Y-89725068D01*
X128509148Y-89694152D01*
X128385809Y-89592931D01*
X128245093Y-89517717D01*
X128221692Y-89510618D01*
X128221692Y-89394680D01*
X128211843Y-89294680D01*
X128221692Y-89194680D01*
X128221692Y-89129680D01*
X128480332Y-89129680D01*
X128520120Y-89133599D01*
X128559908Y-89129680D01*
X128559911Y-89129680D01*
X128678908Y-89117960D01*
X128831593Y-89071643D01*
X128972309Y-88996429D01*
X129095648Y-88895208D01*
X129121019Y-88864293D01*
X130409738Y-87575575D01*
X130440648Y-87550208D01*
X130517463Y-87456608D01*
X130541869Y-87426870D01*
X130591671Y-87333695D01*
X130617083Y-87286153D01*
X130663400Y-87133468D01*
X130675120Y-87014471D01*
X130675120Y-87014469D01*
X130679039Y-86974681D01*
X130675120Y-86934893D01*
X130675120Y-86006680D01*
X130917048Y-86006680D01*
X130917048Y-86046680D01*
X130929308Y-86171162D01*
X130965618Y-86290860D01*
X131024583Y-86401174D01*
X131103935Y-86497865D01*
X131200626Y-86577217D01*
X131310940Y-86636182D01*
X131430638Y-86672492D01*
X131555120Y-86684752D01*
X133255120Y-86684752D01*
X133379602Y-86672492D01*
X133499300Y-86636182D01*
X133609614Y-86577217D01*
X133706305Y-86497865D01*
X133785657Y-86401174D01*
X133844622Y-86290860D01*
X133880932Y-86171162D01*
X133893192Y-86046680D01*
X133893192Y-84346680D01*
X133880932Y-84222198D01*
X133844622Y-84102500D01*
X133785657Y-83992186D01*
X133706305Y-83895495D01*
X133609614Y-83816143D01*
X133499300Y-83757178D01*
X133379602Y-83720868D01*
X133255120Y-83708608D01*
X131555120Y-83708608D01*
X131430638Y-83720868D01*
X131310940Y-83757178D01*
X131200626Y-83816143D01*
X131103935Y-83895495D01*
X131024583Y-83992186D01*
X130965618Y-84102500D01*
X130929308Y-84222198D01*
X130917048Y-84346680D01*
X130917048Y-84386680D01*
X130675120Y-84386680D01*
X130675120Y-68768192D01*
X131171740Y-68271573D01*
X131202648Y-68246208D01*
X131303869Y-68122869D01*
X131379083Y-67982153D01*
X131425400Y-67829468D01*
X131437120Y-67710471D01*
X131437120Y-67710468D01*
X131441039Y-67670680D01*
X131437120Y-67630892D01*
X131437120Y-56534467D01*
X131441039Y-56494679D01*
X131432053Y-56403443D01*
X131425400Y-56335892D01*
X131379083Y-56183207D01*
X131332299Y-56095680D01*
X131303869Y-56042490D01*
X131260497Y-55989642D01*
X131202648Y-55919152D01*
X131171734Y-55893782D01*
X130702020Y-55424068D01*
X130676648Y-55393152D01*
X130553309Y-55291931D01*
X130412593Y-55216717D01*
X130259908Y-55170400D01*
X130140911Y-55158680D01*
X130140908Y-55158680D01*
X130101120Y-55154761D01*
X130061332Y-55158680D01*
X129026008Y-55158680D01*
X129021525Y-55150293D01*
X128911082Y-55015718D01*
X128776507Y-54905275D01*
X128622971Y-54823208D01*
X128456375Y-54772672D01*
X128283121Y-54755608D01*
X127383119Y-54755608D01*
X127209865Y-54772672D01*
X127043269Y-54823208D01*
X126889733Y-54905275D01*
X126817120Y-54964867D01*
X126744507Y-54905275D01*
X126590971Y-54823208D01*
X126424375Y-54772672D01*
X126251121Y-54755608D01*
X125351119Y-54755608D01*
X125177865Y-54772672D01*
X125011269Y-54823208D01*
X124857733Y-54905275D01*
X124785120Y-54964867D01*
X124712507Y-54905275D01*
X124558971Y-54823208D01*
X124392375Y-54772672D01*
X124219121Y-54755608D01*
X123319119Y-54755608D01*
X123145865Y-54772672D01*
X122979269Y-54823208D01*
X122825733Y-54905275D01*
X122753120Y-54964867D01*
X122680507Y-54905275D01*
X122547120Y-54833978D01*
X122547120Y-54502447D01*
X122551039Y-54462659D01*
X122545544Y-54406869D01*
X122535400Y-54303872D01*
X122489083Y-54151187D01*
X122436565Y-54052932D01*
X122413869Y-54010470D01*
X122382645Y-53972424D01*
X122312648Y-53887132D01*
X122281732Y-53861760D01*
X122262011Y-53842039D01*
X122224366Y-53652782D01*
X122146345Y-53464424D01*
X122033077Y-53294906D01*
X121888914Y-53150743D01*
X121719396Y-53037475D01*
X121531038Y-52959454D01*
X121331079Y-52919680D01*
X121127201Y-52919680D01*
X120927242Y-52959454D01*
X120738884Y-53037475D01*
X120569366Y-53150743D01*
X120425203Y-53294906D01*
X120311935Y-53464424D01*
X120233914Y-53652782D01*
X120194140Y-53852741D01*
X120194140Y-54056619D01*
X120233914Y-54256578D01*
X120311935Y-54444936D01*
X120425203Y-54614454D01*
X120569366Y-54758617D01*
X120627786Y-54797652D01*
X120529602Y-54767868D01*
X120405120Y-54755608D01*
X119990870Y-54758680D01*
X119832120Y-54917430D01*
X119832120Y-55841680D01*
X119852120Y-55841680D01*
X119852120Y-56095680D01*
X119832120Y-56095680D01*
X119832120Y-56115680D01*
X119578120Y-56115680D01*
X119578120Y-56095680D01*
X119558120Y-56095680D01*
X119558120Y-55841680D01*
X119578120Y-55841680D01*
X119578120Y-54917430D01*
X119470120Y-54809430D01*
X119470120Y-54627741D01*
X119430346Y-54427782D01*
X119352325Y-54239424D01*
X119239057Y-54069906D01*
X119094894Y-53925743D01*
X118925376Y-53812475D01*
X118737018Y-53734454D01*
X118537059Y-53694680D01*
X118333181Y-53694680D01*
X118133222Y-53734454D01*
X117944864Y-53812475D01*
X117775346Y-53925743D01*
X117631183Y-54069906D01*
X117517915Y-54239424D01*
X117439894Y-54427782D01*
X117411958Y-54568225D01*
X117380266Y-54558408D01*
X117262870Y-54548480D01*
X117104120Y-54707230D01*
X117104120Y-54861656D01*
X117062618Y-54939300D01*
X117026308Y-55058998D01*
X117014048Y-55183480D01*
X117014048Y-56383480D01*
X117026308Y-56507962D01*
X117062618Y-56627660D01*
X117104120Y-56705304D01*
X117104120Y-56859730D01*
X117262870Y-57018480D01*
X117380266Y-57008552D01*
X117451974Y-56986340D01*
X117527638Y-57009292D01*
X117652120Y-57021552D01*
X118202120Y-57021552D01*
X118326602Y-57009292D01*
X118446300Y-56972982D01*
X118508633Y-56939664D01*
X118553935Y-56994865D01*
X118633714Y-57060338D01*
X118627158Y-57065718D01*
X118516715Y-57200293D01*
X118496958Y-57237256D01*
X118446300Y-57210178D01*
X118326602Y-57173868D01*
X118202120Y-57161608D01*
X117652120Y-57161608D01*
X117527638Y-57173868D01*
X117452120Y-57196776D01*
X117376602Y-57173868D01*
X117252120Y-57161608D01*
X116702120Y-57161608D01*
X116577638Y-57173868D01*
X116502120Y-57196776D01*
X116426602Y-57173868D01*
X116302120Y-57161608D01*
X115752120Y-57161608D01*
X115627638Y-57173868D01*
X115507940Y-57210178D01*
X115397626Y-57269143D01*
X115300935Y-57348495D01*
X115221583Y-57445186D01*
X115162618Y-57555500D01*
X115126308Y-57675198D01*
X115114048Y-57799680D01*
X115114048Y-58999680D01*
X115126308Y-59124162D01*
X115162618Y-59243860D01*
X115221583Y-59354174D01*
X115300935Y-59450865D01*
X115359342Y-59498799D01*
X115381823Y-59526191D01*
X115404621Y-59553971D01*
X115404622Y-60157666D01*
X114842507Y-60719781D01*
X114811592Y-60745152D01*
X114747937Y-60822717D01*
X114710371Y-60868491D01*
X114694635Y-60897932D01*
X114635157Y-61009208D01*
X114588840Y-61161893D01*
X114577120Y-61280889D01*
X114573201Y-61320680D01*
X114577120Y-61360468D01*
X114577121Y-66003979D01*
X114469915Y-66164424D01*
X114391894Y-66352782D01*
X114352120Y-66552741D01*
X114352120Y-66756619D01*
X114391894Y-66956578D01*
X114469915Y-67144936D01*
X114583183Y-67314454D01*
X114727346Y-67458617D01*
X114896864Y-67571885D01*
X115085222Y-67649906D01*
X115285181Y-67689680D01*
X115389120Y-67689680D01*
X115389120Y-68695969D01*
X115284894Y-68591743D01*
X115115376Y-68478475D01*
X114927018Y-68400454D01*
X114727059Y-68360680D01*
X114523181Y-68360680D01*
X114323222Y-68400454D01*
X114134864Y-68478475D01*
X113965346Y-68591743D01*
X113821183Y-68735906D01*
X113804630Y-68760680D01*
X113196192Y-68760680D01*
X113196192Y-68345680D01*
X113183932Y-68221198D01*
X113161024Y-68145680D01*
X113183932Y-68070162D01*
X113196192Y-67945680D01*
X113196192Y-67395680D01*
X113183932Y-67271198D01*
X113147622Y-67151500D01*
X113088657Y-67041186D01*
X113038303Y-66979829D01*
X113040932Y-66971162D01*
X113053192Y-66846680D01*
X113050120Y-66432430D01*
X112891370Y-66273680D01*
X111967120Y-66273680D01*
X111967120Y-66293680D01*
X111713120Y-66293680D01*
X111713120Y-66273680D01*
X111693120Y-66273680D01*
X111693120Y-66019680D01*
X111713120Y-66019680D01*
X111713120Y-65999680D01*
X111967120Y-65999680D01*
X111967120Y-66019680D01*
X112891370Y-66019680D01*
X113050120Y-65860930D01*
X113053192Y-65446680D01*
X113040932Y-65322198D01*
X113004622Y-65202500D01*
X112945657Y-65092186D01*
X112914549Y-65054281D01*
X112994592Y-64904531D01*
X113045128Y-64737935D01*
X113062192Y-64564681D01*
X113062192Y-63664679D01*
X113045128Y-63491425D01*
X112994592Y-63324829D01*
X112912525Y-63171293D01*
X112852933Y-63098680D01*
X112912525Y-63026067D01*
X112994592Y-62872531D01*
X113045128Y-62705935D01*
X113062192Y-62532681D01*
X113062192Y-61632679D01*
X113045128Y-61459425D01*
X112994592Y-61292829D01*
X112918099Y-61149721D01*
X112954657Y-61105174D01*
X113013622Y-60994860D01*
X113049932Y-60875162D01*
X113062192Y-60750680D01*
X113059120Y-60336430D01*
X112900370Y-60177680D01*
X111976120Y-60177680D01*
X111976120Y-60197680D01*
X111722120Y-60197680D01*
X111722120Y-60177680D01*
X111702120Y-60177680D01*
X111702120Y-59923680D01*
X111722120Y-59923680D01*
X111722120Y-58874430D01*
X111976120Y-58874430D01*
X111976120Y-59923680D01*
X112900370Y-59923680D01*
X113059120Y-59764930D01*
X113062192Y-59350680D01*
X113049932Y-59226198D01*
X113013622Y-59106500D01*
X112954657Y-58996186D01*
X112875305Y-58899495D01*
X112778614Y-58820143D01*
X112668300Y-58761178D01*
X112548602Y-58724868D01*
X112424120Y-58712608D01*
X112134870Y-58715680D01*
X111976120Y-58874430D01*
X111722120Y-58874430D01*
X111563370Y-58715680D01*
X111274120Y-58712608D01*
X111149638Y-58724868D01*
X111029940Y-58761178D01*
X110919626Y-58820143D01*
X110822935Y-58899495D01*
X110757462Y-58979274D01*
X110752082Y-58972718D01*
X110617507Y-58862275D01*
X110463971Y-58780208D01*
X110297375Y-58729672D01*
X110124121Y-58712608D01*
X109474119Y-58712608D01*
X109300865Y-58729672D01*
X109134269Y-58780208D01*
X108980733Y-58862275D01*
X108846158Y-58972718D01*
X108735715Y-59107293D01*
X108653648Y-59260829D01*
X108603112Y-59427425D01*
X108586048Y-59600679D01*
X108586048Y-60500681D01*
X108603112Y-60673935D01*
X108653648Y-60840531D01*
X108735715Y-60994067D01*
X108795307Y-61066680D01*
X108735715Y-61139293D01*
X108664418Y-61272680D01*
X108060907Y-61272680D01*
X108021119Y-61268761D01*
X107981331Y-61272680D01*
X107981329Y-61272680D01*
X107862332Y-61284400D01*
X107709647Y-61330717D01*
X107568931Y-61405931D01*
X107445592Y-61507152D01*
X107420220Y-61538068D01*
X106968503Y-61989785D01*
X106937593Y-62015152D01*
X106901559Y-62059060D01*
X106836371Y-62138491D01*
X106775189Y-62252956D01*
X106761158Y-62279207D01*
X106732719Y-62372959D01*
X106714841Y-62431893D01*
X106699201Y-62590680D01*
X106703121Y-62630478D01*
X106703120Y-66752092D01*
X106699201Y-66791880D01*
X106703120Y-66831668D01*
X106703120Y-66831670D01*
X106714840Y-66950667D01*
X106761157Y-67103352D01*
X106791264Y-67159678D01*
X106836371Y-67244069D01*
X106867823Y-67282393D01*
X106937592Y-67367408D01*
X106968507Y-67392779D01*
X107791025Y-68215298D01*
X107816392Y-68246208D01*
X107850127Y-68273893D01*
X107939730Y-68347429D01*
X108014944Y-68387631D01*
X108080447Y-68422643D01*
X108233132Y-68468960D01*
X108241804Y-68469814D01*
X108265670Y-68493680D01*
X108420096Y-68493680D01*
X108497740Y-68535182D01*
X108617438Y-68571492D01*
X108741920Y-68583752D01*
X109941920Y-68583752D01*
X110066402Y-68571492D01*
X110186100Y-68535182D01*
X110263744Y-68493680D01*
X110418170Y-68493680D01*
X110576920Y-68334930D01*
X110566992Y-68217534D01*
X110544780Y-68145826D01*
X110567732Y-68070162D01*
X110579992Y-67945680D01*
X110579992Y-67395680D01*
X110575749Y-67352595D01*
X110608507Y-67335085D01*
X110743082Y-67224642D01*
X110748394Y-67218169D01*
X110732308Y-67271198D01*
X110720048Y-67395680D01*
X110720048Y-67945680D01*
X110732308Y-68070162D01*
X110755216Y-68145680D01*
X110732308Y-68221198D01*
X110720048Y-68345680D01*
X110720048Y-68760680D01*
X110431170Y-68760680D01*
X110418170Y-68747680D01*
X110263744Y-68747680D01*
X110186100Y-68706178D01*
X110066402Y-68669868D01*
X109941920Y-68657608D01*
X108741920Y-68657608D01*
X108617438Y-68669868D01*
X108497740Y-68706178D01*
X108420096Y-68747680D01*
X108265670Y-68747680D01*
X108106920Y-68906430D01*
X108116848Y-69023826D01*
X108139060Y-69095534D01*
X108116108Y-69171198D01*
X108103848Y-69295680D01*
X108103848Y-69845680D01*
X108116108Y-69970162D01*
X108152418Y-70089860D01*
X108211383Y-70200174D01*
X108290735Y-70296865D01*
X108387426Y-70376217D01*
X108497740Y-70435182D01*
X108531921Y-70445551D01*
X108531921Y-70747682D01*
X108528001Y-70787480D01*
X108540582Y-70915206D01*
X108543641Y-70946268D01*
X108568048Y-71026726D01*
X108568048Y-71676681D01*
X108585112Y-71849935D01*
X108635648Y-72016531D01*
X108717715Y-72170067D01*
X108828158Y-72304642D01*
X108962733Y-72415085D01*
X109116269Y-72497152D01*
X109282865Y-72547688D01*
X109456119Y-72564752D01*
X110106121Y-72564752D01*
X110279375Y-72547688D01*
X110410207Y-72508001D01*
X110405915Y-72514424D01*
X110327894Y-72702782D01*
X110288120Y-72902741D01*
X110288120Y-72964878D01*
X109034123Y-74218876D01*
X109005119Y-74242679D01*
X108956000Y-74302531D01*
X108910146Y-74358404D01*
X108870024Y-74433467D01*
X108839574Y-74490434D01*
X108796117Y-74633695D01*
X108785120Y-74745348D01*
X108785120Y-74745358D01*
X108781444Y-74782680D01*
X108785120Y-74820003D01*
X108785121Y-75602968D01*
X108741183Y-75646906D01*
X108627915Y-75816424D01*
X108549894Y-76004782D01*
X108510120Y-76204741D01*
X108510120Y-76408619D01*
X108549894Y-76608578D01*
X108627915Y-76796936D01*
X108741183Y-76966454D01*
X108885346Y-77110617D01*
X109054864Y-77223885D01*
X109243222Y-77301906D01*
X109443181Y-77341680D01*
X109647059Y-77341680D01*
X109847018Y-77301906D01*
X110035376Y-77223885D01*
X110204894Y-77110617D01*
X110349057Y-76966454D01*
X110462325Y-76796936D01*
X110540346Y-76608578D01*
X110580120Y-76408619D01*
X110580120Y-76204741D01*
X110540346Y-76004782D01*
X110462325Y-75816424D01*
X110349057Y-75646906D01*
X110305120Y-75602969D01*
X110305120Y-75097481D01*
X111362922Y-74039680D01*
X111425059Y-74039680D01*
X111625018Y-73999906D01*
X111813376Y-73921885D01*
X111982894Y-73808617D01*
X112127057Y-73664454D01*
X112240325Y-73494936D01*
X112318346Y-73306578D01*
X112358120Y-73106619D01*
X112358120Y-73071680D01*
X114811048Y-73071680D01*
X114823308Y-73196162D01*
X114859618Y-73315860D01*
X114918583Y-73426174D01*
X114997935Y-73522865D01*
X115094626Y-73602217D01*
X115204940Y-73661182D01*
X115324638Y-73697492D01*
X115449120Y-73709752D01*
X115863370Y-73706680D01*
X116022120Y-73547930D01*
X116022120Y-72623680D01*
X114972870Y-72623680D01*
X114814120Y-72782430D01*
X114811048Y-73071680D01*
X112358120Y-73071680D01*
X112358120Y-72902741D01*
X112318346Y-72702782D01*
X112260531Y-72563206D01*
X112406120Y-72564752D01*
X112530602Y-72552492D01*
X112650300Y-72516182D01*
X112760614Y-72457217D01*
X112857305Y-72377865D01*
X112936657Y-72281174D01*
X112995622Y-72170860D01*
X113031932Y-72051162D01*
X113044192Y-71926680D01*
X113041120Y-71512430D01*
X112882370Y-71353680D01*
X111958120Y-71353680D01*
X111958120Y-71373680D01*
X111704120Y-71373680D01*
X111704120Y-71353680D01*
X111684120Y-71353680D01*
X111684120Y-71099680D01*
X111704120Y-71099680D01*
X111704120Y-71079680D01*
X111958120Y-71079680D01*
X111958120Y-71099680D01*
X112882370Y-71099680D01*
X113041120Y-70940930D01*
X113044192Y-70526680D01*
X113031932Y-70402198D01*
X113025405Y-70380680D01*
X114298534Y-70380680D01*
X114323222Y-70390906D01*
X114523181Y-70430680D01*
X114727059Y-70430680D01*
X114811048Y-70413974D01*
X114811048Y-70771681D01*
X114828112Y-70944935D01*
X114878648Y-71111531D01*
X114960715Y-71265067D01*
X115071158Y-71399642D01*
X115077714Y-71405022D01*
X114997935Y-71470495D01*
X114918583Y-71567186D01*
X114859618Y-71677500D01*
X114823308Y-71797198D01*
X114811048Y-71921680D01*
X114814120Y-72210930D01*
X114972870Y-72369680D01*
X116022120Y-72369680D01*
X116022120Y-72349680D01*
X116276120Y-72349680D01*
X116276120Y-72369680D01*
X116296120Y-72369680D01*
X116296120Y-72623680D01*
X116276120Y-72623680D01*
X116276120Y-73547930D01*
X116434870Y-73706680D01*
X116849120Y-73709752D01*
X116973602Y-73697492D01*
X117093300Y-73661182D01*
X117117120Y-73648450D01*
X117117120Y-73980892D01*
X117113201Y-74020680D01*
X117117120Y-74060468D01*
X117117120Y-74060470D01*
X117128840Y-74179467D01*
X117175157Y-74332152D01*
X117210169Y-74397655D01*
X117250371Y-74472869D01*
X117280581Y-74509680D01*
X117351592Y-74596208D01*
X117382507Y-74621579D01*
X117876235Y-75115307D01*
X117901602Y-75146218D01*
X117932510Y-75171583D01*
X118024941Y-75247439D01*
X118165656Y-75322653D01*
X118201193Y-75333433D01*
X118318342Y-75368970D01*
X118437339Y-75380690D01*
X118437342Y-75380690D01*
X118477130Y-75384609D01*
X118516918Y-75380690D01*
X125211322Y-75380690D01*
X125251110Y-75384609D01*
X125290898Y-75380690D01*
X125290901Y-75380690D01*
X125409898Y-75368970D01*
X125562583Y-75322653D01*
X125703299Y-75247439D01*
X125826638Y-75146218D01*
X125852009Y-75115303D01*
X126345740Y-74621573D01*
X126376648Y-74596208D01*
X126477869Y-74472869D01*
X126498930Y-74433467D01*
X126553083Y-74332154D01*
X126575208Y-74259216D01*
X126599400Y-74179468D01*
X126611120Y-74060471D01*
X126611120Y-74060468D01*
X126615039Y-74020680D01*
X126611120Y-73980892D01*
X126611120Y-73649382D01*
X126744507Y-73578085D01*
X126817120Y-73518493D01*
X126889733Y-73578085D01*
X127043269Y-73660152D01*
X127209865Y-73710688D01*
X127383119Y-73727752D01*
X128283121Y-73727752D01*
X128456375Y-73710688D01*
X128622971Y-73660152D01*
X128776507Y-73578085D01*
X128911082Y-73467642D01*
X129021525Y-73333067D01*
X129055121Y-73270214D01*
X129055121Y-76012880D01*
X129055120Y-76012890D01*
X129055121Y-82479168D01*
X126148026Y-79572074D01*
X126122654Y-79541158D01*
X125999315Y-79439937D01*
X125858599Y-79364723D01*
X125705914Y-79318406D01*
X125586917Y-79306686D01*
X125586914Y-79306686D01*
X125547126Y-79302767D01*
X125507338Y-79306686D01*
X122863530Y-79306686D01*
X123039928Y-79243355D01*
X123160275Y-79179029D01*
X123229436Y-78937101D01*
X122430620Y-78138285D01*
X121631804Y-78937101D01*
X121700965Y-79179029D01*
X121953063Y-79297928D01*
X121988188Y-79306686D01*
X121117820Y-79306686D01*
X120957376Y-79199481D01*
X120769018Y-79121460D01*
X120579761Y-79083815D01*
X120052013Y-78556067D01*
X120026642Y-78525152D01*
X119903303Y-78423931D01*
X119762587Y-78348717D01*
X119638989Y-78311223D01*
X119623525Y-78282293D01*
X119513082Y-78147718D01*
X119506526Y-78142338D01*
X119586305Y-78076865D01*
X119624779Y-78029983D01*
X121010563Y-78029983D01*
X121051760Y-78305652D01*
X121145945Y-78567988D01*
X121210271Y-78688335D01*
X121452199Y-78757496D01*
X122251015Y-77958680D01*
X122610225Y-77958680D01*
X123409041Y-78757496D01*
X123650969Y-78688335D01*
X123769868Y-78436237D01*
X123837301Y-78165786D01*
X123850677Y-77887377D01*
X123809480Y-77611708D01*
X123715295Y-77349372D01*
X123650969Y-77229025D01*
X123409041Y-77159864D01*
X122610225Y-77958680D01*
X122251015Y-77958680D01*
X121452199Y-77159864D01*
X121210271Y-77229025D01*
X121091372Y-77481123D01*
X121023939Y-77751574D01*
X121010563Y-78029983D01*
X119624779Y-78029983D01*
X119665657Y-77980174D01*
X119724622Y-77869860D01*
X119760932Y-77750162D01*
X119773192Y-77625680D01*
X119770120Y-77336430D01*
X119611370Y-77177680D01*
X118562120Y-77177680D01*
X118562120Y-77197680D01*
X118308120Y-77197680D01*
X118308120Y-77177680D01*
X118288120Y-77177680D01*
X118288120Y-76980259D01*
X121631804Y-76980259D01*
X122430620Y-77779075D01*
X123229436Y-76980259D01*
X123160275Y-76738331D01*
X122908177Y-76619432D01*
X122637726Y-76551999D01*
X122359317Y-76538623D01*
X122083648Y-76579820D01*
X121821312Y-76674005D01*
X121700965Y-76738331D01*
X121631804Y-76980259D01*
X118288120Y-76980259D01*
X118288120Y-76923680D01*
X118308120Y-76923680D01*
X118308120Y-75999430D01*
X118562120Y-75999430D01*
X118562120Y-76923680D01*
X119611370Y-76923680D01*
X119770120Y-76764930D01*
X119773192Y-76475680D01*
X119760932Y-76351198D01*
X119724622Y-76231500D01*
X119665657Y-76121186D01*
X119586305Y-76024495D01*
X119489614Y-75945143D01*
X119379300Y-75886178D01*
X119259602Y-75849868D01*
X119135120Y-75837608D01*
X118720870Y-75840680D01*
X118562120Y-75999430D01*
X118308120Y-75999430D01*
X118149370Y-75840680D01*
X117735120Y-75837608D01*
X117610638Y-75849868D01*
X117490940Y-75886178D01*
X117380626Y-75945143D01*
X117345618Y-75973873D01*
X117398346Y-75846578D01*
X117438120Y-75646619D01*
X117438120Y-75442741D01*
X117398346Y-75242782D01*
X117320325Y-75054424D01*
X117207057Y-74884906D01*
X117062894Y-74740743D01*
X116893376Y-74627475D01*
X116705018Y-74549454D01*
X116505059Y-74509680D01*
X116301181Y-74509680D01*
X116101222Y-74549454D01*
X115912864Y-74627475D01*
X115743346Y-74740743D01*
X115599183Y-74884906D01*
X115485915Y-75054424D01*
X115407894Y-75242782D01*
X115368120Y-75442741D01*
X115368120Y-75646619D01*
X115407894Y-75846578D01*
X115468058Y-75991825D01*
X115459733Y-75996275D01*
X115325158Y-76106718D01*
X115214715Y-76241293D01*
X115210232Y-76249680D01*
X114589192Y-76249680D01*
X114589192Y-75710680D01*
X114576932Y-75586198D01*
X114540622Y-75466500D01*
X114481657Y-75356186D01*
X114402305Y-75259495D01*
X114305614Y-75180143D01*
X114195300Y-75121178D01*
X114075602Y-75084868D01*
X113951120Y-75072608D01*
X112251120Y-75072608D01*
X112126638Y-75084868D01*
X112006940Y-75121178D01*
X111896626Y-75180143D01*
X111799935Y-75259495D01*
X111720583Y-75356186D01*
X111661618Y-75466500D01*
X111625308Y-75586198D01*
X111613048Y-75710680D01*
X111613048Y-77410680D01*
X111625308Y-77535162D01*
X111661618Y-77654860D01*
X111720583Y-77765174D01*
X111799935Y-77861865D01*
X111896626Y-77941217D01*
X112006940Y-78000182D01*
X112126638Y-78036492D01*
X112251120Y-78048752D01*
X113951120Y-78048752D01*
X114075602Y-78036492D01*
X114195300Y-78000182D01*
X114305614Y-77941217D01*
X114392782Y-77869680D01*
X115210232Y-77869680D01*
X115214715Y-77878067D01*
X115325158Y-78012642D01*
X115412936Y-78084680D01*
X115325158Y-78156718D01*
X115214715Y-78291293D01*
X115132648Y-78444829D01*
X115082112Y-78611425D01*
X115065048Y-78784679D01*
X115065048Y-79434681D01*
X115082112Y-79607935D01*
X115132648Y-79774531D01*
X115214715Y-79928067D01*
X115325158Y-80062642D01*
X115396487Y-80121180D01*
X114589192Y-80121180D01*
X114589192Y-79520680D01*
X114576932Y-79396198D01*
X114540622Y-79276500D01*
X114481657Y-79166186D01*
X114402305Y-79069495D01*
X114305614Y-78990143D01*
X114195300Y-78931178D01*
X114075602Y-78894868D01*
X113951120Y-78882608D01*
X112251120Y-78882608D01*
X112126638Y-78894868D01*
X112006940Y-78931178D01*
X111896626Y-78990143D01*
X111799935Y-79069495D01*
X111720583Y-79166186D01*
X111661618Y-79276500D01*
X111625308Y-79396198D01*
X111613048Y-79520680D01*
X111613048Y-81039095D01*
X104674595Y-74100643D01*
X104623052Y-73841522D01*
X104511110Y-73571269D01*
X104348595Y-73328048D01*
X104141752Y-73121205D01*
X103967360Y-73004680D01*
X104141752Y-72888155D01*
X104348595Y-72681312D01*
X104511110Y-72438091D01*
X104623052Y-72167838D01*
X104680120Y-71880940D01*
X104680120Y-71588420D01*
X104623052Y-71301522D01*
X104511110Y-71031269D01*
X104348595Y-70788048D01*
X104141752Y-70581205D01*
X103898531Y-70418690D01*
X103628278Y-70306748D01*
X103341380Y-70249680D01*
X103048860Y-70249680D01*
X102761962Y-70306748D01*
X102491709Y-70418690D01*
X102248488Y-70581205D01*
X102041645Y-70788048D01*
X101879130Y-71031269D01*
X101767188Y-71301522D01*
X101710120Y-71588420D01*
X101710120Y-71880940D01*
X101767188Y-72167838D01*
X101879130Y-72438091D01*
X102041645Y-72681312D01*
X102248488Y-72888155D01*
X102422880Y-73004680D01*
X102248488Y-73121205D01*
X102041645Y-73328048D01*
X101950350Y-73464680D01*
X100629890Y-73464680D01*
X100538595Y-73328048D01*
X100331752Y-73121205D01*
X100157360Y-73004680D01*
X100331752Y-72888155D01*
X100538595Y-72681312D01*
X100701110Y-72438091D01*
X100813052Y-72167838D01*
X100870120Y-71880940D01*
X100870120Y-71588420D01*
X100813052Y-71301522D01*
X100701110Y-71031269D01*
X100538595Y-70788048D01*
X100331752Y-70581205D01*
X100088531Y-70418690D01*
X99818278Y-70306748D01*
X99531380Y-70249680D01*
X99238860Y-70249680D01*
X98951962Y-70306748D01*
X98681709Y-70418690D01*
X98438488Y-70581205D01*
X98231645Y-70788048D01*
X98069130Y-71031269D01*
X97957188Y-71301522D01*
X97900120Y-71588420D01*
X97900120Y-71880940D01*
X97957188Y-72167838D01*
X98069130Y-72438091D01*
X98231645Y-72681312D01*
X98438488Y-72888155D01*
X98612880Y-73004680D01*
X98438488Y-73121205D01*
X98231645Y-73328048D01*
X98069130Y-73571269D01*
X97957188Y-73841522D01*
X97900120Y-74128420D01*
X97900120Y-74420940D01*
X97957188Y-74707838D01*
X98069130Y-74978091D01*
X98231645Y-75221312D01*
X98438488Y-75428155D01*
X98612880Y-75544680D01*
X98438488Y-75661205D01*
X98231645Y-75868048D01*
X98069130Y-76111269D01*
X97957188Y-76381522D01*
X97900120Y-76668420D01*
X97900120Y-76960940D01*
X97957188Y-77247838D01*
X98069130Y-77518091D01*
X98231645Y-77761312D01*
X98438488Y-77968155D01*
X98620654Y-78089875D01*
X98503765Y-78159502D01*
X98287532Y-78354411D01*
X98113479Y-78587760D01*
X97988295Y-78850581D01*
X97943644Y-78997790D01*
X98064965Y-79227680D01*
X99258120Y-79227680D01*
X99258120Y-79207680D01*
X99512120Y-79207680D01*
X99512120Y-79227680D01*
X100705275Y-79227680D01*
X100826596Y-78997790D01*
X100781945Y-78850581D01*
X100656761Y-78587760D01*
X100482708Y-78354411D01*
X100266475Y-78159502D01*
X100149586Y-78089875D01*
X100331752Y-77968155D01*
X100538595Y-77761312D01*
X100629890Y-77624680D01*
X101950350Y-77624680D01*
X102041645Y-77761312D01*
X102248488Y-77968155D01*
X102430654Y-78089875D01*
X102313765Y-78159502D01*
X102097532Y-78354411D01*
X101923479Y-78587760D01*
X101798295Y-78850581D01*
X101753644Y-78997790D01*
X101874965Y-79227680D01*
X103068120Y-79227680D01*
X103068120Y-79207680D01*
X103322120Y-79207680D01*
X103322120Y-79227680D01*
X104515275Y-79227680D01*
X104636596Y-78997790D01*
X104591945Y-78850581D01*
X104466761Y-78587760D01*
X104292708Y-78354411D01*
X104076475Y-78159502D01*
X103959586Y-78089875D01*
X104035847Y-78038919D01*
X110256607Y-84259680D01*
X108755633Y-84259680D01*
X108343192Y-83847239D01*
X108343192Y-83329679D01*
X108326128Y-83156425D01*
X108275592Y-82989829D01*
X108193525Y-82836293D01*
X108083082Y-82701718D01*
X107948507Y-82591275D01*
X107794971Y-82509208D01*
X107628375Y-82458672D01*
X107455121Y-82441608D01*
X106555119Y-82441608D01*
X106381865Y-82458672D01*
X106215269Y-82509208D01*
X106061733Y-82591275D01*
X106057062Y-82595109D01*
X104812019Y-81350067D01*
X104786648Y-81319152D01*
X104663309Y-81217931D01*
X104522593Y-81142717D01*
X104467502Y-81126005D01*
X104348595Y-80948048D01*
X104141752Y-80741205D01*
X103959586Y-80619485D01*
X104076475Y-80549858D01*
X104292708Y-80354949D01*
X104466761Y-80121600D01*
X104591945Y-79858779D01*
X104636596Y-79711570D01*
X104515275Y-79481680D01*
X103322120Y-79481680D01*
X103322120Y-79501680D01*
X103068120Y-79501680D01*
X103068120Y-79481680D01*
X101874965Y-79481680D01*
X101753644Y-79711570D01*
X101798295Y-79858779D01*
X101923479Y-80121600D01*
X102097532Y-80354949D01*
X102313765Y-80549858D01*
X102430654Y-80619485D01*
X102248488Y-80741205D01*
X102041645Y-80948048D01*
X101950350Y-81084680D01*
X100629890Y-81084680D01*
X100538595Y-80948048D01*
X100331752Y-80741205D01*
X100149586Y-80619485D01*
X100266475Y-80549858D01*
X100482708Y-80354949D01*
X100656761Y-80121600D01*
X100781945Y-79858779D01*
X100826596Y-79711570D01*
X100705275Y-79481680D01*
X99512120Y-79481680D01*
X99512120Y-79501680D01*
X99258120Y-79501680D01*
X99258120Y-79481680D01*
X98064965Y-79481680D01*
X97943644Y-79711570D01*
X97988295Y-79858779D01*
X98113479Y-80121600D01*
X98287532Y-80354949D01*
X98503765Y-80549858D01*
X98620654Y-80619485D01*
X98438488Y-80741205D01*
X98231645Y-80948048D01*
X98069130Y-81191269D01*
X97957188Y-81461522D01*
X97900120Y-81748420D01*
X97900120Y-82040940D01*
X97957188Y-82327838D01*
X98069130Y-82598091D01*
X98231645Y-82841312D01*
X98363500Y-82973167D01*
X98290940Y-82995178D01*
X98180626Y-83054143D01*
X98083935Y-83133495D01*
X98004583Y-83230186D01*
X97945618Y-83340500D01*
X97909308Y-83460198D01*
X97897048Y-83584680D01*
X97897048Y-85284680D01*
X97909308Y-85409162D01*
X97945618Y-85528860D01*
X98004583Y-85639174D01*
X98083935Y-85735865D01*
X98180626Y-85815217D01*
X98290940Y-85874182D01*
X98410638Y-85910492D01*
X98535120Y-85922752D01*
X100235120Y-85922752D01*
X100359602Y-85910492D01*
X100479300Y-85874182D01*
X100589614Y-85815217D01*
X100686305Y-85735865D01*
X100765657Y-85639174D01*
X100824622Y-85528860D01*
X100860932Y-85409162D01*
X100873192Y-85284680D01*
X100873192Y-85244680D01*
X101707048Y-85244680D01*
X101707048Y-85284680D01*
X101719308Y-85409162D01*
X101755618Y-85528860D01*
X101814583Y-85639174D01*
X101893935Y-85735865D01*
X101990626Y-85815217D01*
X102100940Y-85874182D01*
X102220638Y-85910492D01*
X102345120Y-85922752D01*
X104045120Y-85922752D01*
X104169602Y-85910492D01*
X104259998Y-85883071D01*
X104626225Y-86249298D01*
X104651592Y-86280208D01*
X104700776Y-86320572D01*
X104774930Y-86381429D01*
X104844823Y-86418787D01*
X104915647Y-86456643D01*
X105068332Y-86502960D01*
X105187329Y-86514680D01*
X105187331Y-86514680D01*
X105227119Y-86518599D01*
X105266907Y-86514680D01*
X105812232Y-86514680D01*
X105816715Y-86523067D01*
X105927158Y-86657642D01*
X106061733Y-86768085D01*
X106215269Y-86850152D01*
X106381865Y-86900688D01*
X106555119Y-86917752D01*
X107455121Y-86917752D01*
X107628375Y-86900688D01*
X107794971Y-86850152D01*
X107948507Y-86768085D01*
X108083082Y-86657642D01*
X108193525Y-86523067D01*
X108198008Y-86514680D01*
X114556132Y-86514680D01*
X114222119Y-86848694D01*
X114193121Y-86872492D01*
X114169323Y-86901490D01*
X114169322Y-86901491D01*
X114098147Y-86988217D01*
X114027575Y-87120247D01*
X113998078Y-87217491D01*
X113984119Y-87263507D01*
X113980753Y-87297680D01*
X113969445Y-87412493D01*
X113973122Y-87449825D01*
X113973121Y-93395358D01*
X113969445Y-93432681D01*
X113973121Y-93470003D01*
X113973121Y-93470013D01*
X113984118Y-93581666D01*
X114027575Y-93724927D01*
X114098120Y-93856906D01*
X114098120Y-93934619D01*
X114137894Y-94134578D01*
X114215915Y-94322936D01*
X114329183Y-94492454D01*
X114473346Y-94636617D01*
X114642864Y-94749885D01*
X114831222Y-94827906D01*
X115031181Y-94867680D01*
X115235059Y-94867680D01*
X115435018Y-94827906D01*
X115593120Y-94762417D01*
X115593121Y-99452502D01*
X115589201Y-99492300D01*
X115597096Y-99572454D01*
X115604841Y-99651088D01*
X115623003Y-99710960D01*
X115651158Y-99803773D01*
X115726371Y-99944489D01*
X115780586Y-100010549D01*
X115827593Y-100067828D01*
X115858503Y-100093195D01*
X118228445Y-102463138D01*
X118253812Y-102494048D01*
X118321550Y-102549639D01*
X118377150Y-102595269D01*
X118452364Y-102635471D01*
X118517867Y-102670483D01*
X118541268Y-102677582D01*
X118541268Y-103676680D01*
X117959539Y-103676680D01*
X117927120Y-103673487D01*
X117894701Y-103676680D01*
X117797737Y-103686230D01*
X117673327Y-103723970D01*
X117558670Y-103785255D01*
X117458172Y-103867732D01*
X117375695Y-103968230D01*
X117314410Y-104082887D01*
X117276670Y-104207297D01*
X117263927Y-104336680D01*
X117267121Y-104369109D01*
X117267120Y-107592500D01*
X105381050Y-107592500D01*
X88262103Y-77941800D01*
X101876719Y-54360741D01*
X114860120Y-54360741D01*
X114860120Y-54564619D01*
X114899894Y-54764578D01*
X114977915Y-54952936D01*
X115085121Y-55113381D01*
X115085121Y-55611682D01*
X115081201Y-55651480D01*
X115095425Y-55795890D01*
X115096841Y-55810268D01*
X115105427Y-55838572D01*
X115114048Y-55866991D01*
X115114048Y-56383480D01*
X115126308Y-56507962D01*
X115162618Y-56627660D01*
X115221583Y-56737974D01*
X115300935Y-56834665D01*
X115397626Y-56914017D01*
X115507940Y-56972982D01*
X115627638Y-57009292D01*
X115752120Y-57021552D01*
X116302120Y-57021552D01*
X116426602Y-57009292D01*
X116502266Y-56986340D01*
X116573974Y-57008552D01*
X116691370Y-57018480D01*
X116850120Y-56859730D01*
X116850120Y-56705304D01*
X116891622Y-56627660D01*
X116927932Y-56507962D01*
X116940192Y-56383480D01*
X116940192Y-55183480D01*
X116927932Y-55058998D01*
X116891622Y-54939300D01*
X116850128Y-54861672D01*
X116890346Y-54764578D01*
X116930120Y-54564619D01*
X116930120Y-54360741D01*
X116890346Y-54160782D01*
X116812325Y-53972424D01*
X116699057Y-53802906D01*
X116554894Y-53658743D01*
X116385376Y-53545475D01*
X116197018Y-53467454D01*
X115997059Y-53427680D01*
X115793181Y-53427680D01*
X115593222Y-53467454D01*
X115404864Y-53545475D01*
X115235346Y-53658743D01*
X115091183Y-53802906D01*
X114977915Y-53972424D01*
X114899894Y-54160782D01*
X114860120Y-54360741D01*
X101876719Y-54360741D01*
X105381050Y-48291100D01*
X139618951Y-48291100D01*
X156737896Y-77941800D01*
G36*
X120927120Y-96244512D02*
G01*
X120923201Y-96284300D01*
X120927120Y-96324088D01*
X120927120Y-96324090D01*
X120938840Y-96443087D01*
X120985157Y-96595772D01*
X120985158Y-96595773D01*
X121060371Y-96736489D01*
X121091823Y-96774813D01*
X121161592Y-96859828D01*
X121192508Y-96885200D01*
X123793049Y-99485742D01*
X123751340Y-99536564D01*
X123694525Y-99467335D01*
X123597834Y-99387983D01*
X123487520Y-99329018D01*
X123367822Y-99292708D01*
X123243340Y-99280448D01*
X122767090Y-99283520D01*
X122608340Y-99442270D01*
X122608340Y-101791520D01*
X122628340Y-101791520D01*
X122628340Y-102045520D01*
X122608340Y-102045520D01*
X122608340Y-102065520D01*
X122354340Y-102065520D01*
X122354340Y-102045520D01*
X122334340Y-102045520D01*
X122334340Y-101791520D01*
X122354340Y-101791520D01*
X122354340Y-99442270D01*
X122195590Y-99283520D01*
X121719340Y-99280448D01*
X121594858Y-99292708D01*
X121475160Y-99329018D01*
X121364846Y-99387983D01*
X121268155Y-99467335D01*
X121211340Y-99536564D01*
X121154525Y-99467335D01*
X121111105Y-99431701D01*
X121130325Y-99402936D01*
X121208346Y-99214578D01*
X121248120Y-99014619D01*
X121248120Y-98810741D01*
X121208346Y-98610782D01*
X121130325Y-98422424D01*
X121017057Y-98252906D01*
X120872894Y-98108743D01*
X120703376Y-97995475D01*
X120515018Y-97917454D01*
X120325761Y-97879809D01*
X119943620Y-97497668D01*
X119943620Y-91782752D01*
X120383620Y-91782752D01*
X120508102Y-91770492D01*
X120627800Y-91734182D01*
X120738114Y-91675217D01*
X120834805Y-91595865D01*
X120914157Y-91499174D01*
X120927120Y-91474921D01*
X120927120Y-96244512D01*
G37*
X120927120Y-96244512D02*
X120923201Y-96284300D01*
X120927120Y-96324088D01*
X120927120Y-96324090D01*
X120938840Y-96443087D01*
X120985157Y-96595772D01*
X120985158Y-96595773D01*
X121060371Y-96736489D01*
X121091823Y-96774813D01*
X121161592Y-96859828D01*
X121192508Y-96885200D01*
X123793049Y-99485742D01*
X123751340Y-99536564D01*
X123694525Y-99467335D01*
X123597834Y-99387983D01*
X123487520Y-99329018D01*
X123367822Y-99292708D01*
X123243340Y-99280448D01*
X122767090Y-99283520D01*
X122608340Y-99442270D01*
X122608340Y-101791520D01*
X122628340Y-101791520D01*
X122628340Y-102045520D01*
X122608340Y-102045520D01*
X122608340Y-102065520D01*
X122354340Y-102065520D01*
X122354340Y-102045520D01*
X122334340Y-102045520D01*
X122334340Y-101791520D01*
X122354340Y-101791520D01*
X122354340Y-99442270D01*
X122195590Y-99283520D01*
X121719340Y-99280448D01*
X121594858Y-99292708D01*
X121475160Y-99329018D01*
X121364846Y-99387983D01*
X121268155Y-99467335D01*
X121211340Y-99536564D01*
X121154525Y-99467335D01*
X121111105Y-99431701D01*
X121130325Y-99402936D01*
X121208346Y-99214578D01*
X121248120Y-99014619D01*
X121248120Y-98810741D01*
X121208346Y-98610782D01*
X121130325Y-98422424D01*
X121017057Y-98252906D01*
X120872894Y-98108743D01*
X120703376Y-97995475D01*
X120515018Y-97917454D01*
X120325761Y-97879809D01*
X119943620Y-97497668D01*
X119943620Y-91782752D01*
X120383620Y-91782752D01*
X120508102Y-91770492D01*
X120627800Y-91734182D01*
X120738114Y-91675217D01*
X120834805Y-91595865D01*
X120914157Y-91499174D01*
X120927120Y-91474921D01*
X120927120Y-96244512D01*
G36*
X127147607Y-82862680D02*
G01*
X123982412Y-82862680D01*
X123981120Y-82688430D01*
X123822370Y-82529680D01*
X122898120Y-82529680D01*
X122898120Y-82549680D01*
X122644120Y-82549680D01*
X122644120Y-82529680D01*
X122624120Y-82529680D01*
X122624120Y-82275680D01*
X122644120Y-82275680D01*
X122644120Y-81226430D01*
X122898120Y-81226430D01*
X122898120Y-82275680D01*
X123822370Y-82275680D01*
X123981120Y-82116930D01*
X123984192Y-81702680D01*
X123971932Y-81578198D01*
X123935622Y-81458500D01*
X123876657Y-81348186D01*
X123797305Y-81251495D01*
X123700614Y-81172143D01*
X123590300Y-81113178D01*
X123470602Y-81076868D01*
X123346120Y-81064608D01*
X123056870Y-81067680D01*
X122898120Y-81226430D01*
X122644120Y-81226430D01*
X122485370Y-81067680D01*
X122458802Y-81067398D01*
X122465620Y-81033119D01*
X122465620Y-80926686D01*
X125211614Y-80926686D01*
X127147607Y-82862680D01*
G37*
X127147607Y-82862680D02*
X123982412Y-82862680D01*
X123981120Y-82688430D01*
X123822370Y-82529680D01*
X122898120Y-82529680D01*
X122898120Y-82549680D01*
X122644120Y-82549680D01*
X122644120Y-82529680D01*
X122624120Y-82529680D01*
X122624120Y-82275680D01*
X122644120Y-82275680D01*
X122644120Y-81226430D01*
X122898120Y-81226430D01*
X122898120Y-82275680D01*
X123822370Y-82275680D01*
X123981120Y-82116930D01*
X123984192Y-81702680D01*
X123971932Y-81578198D01*
X123935622Y-81458500D01*
X123876657Y-81348186D01*
X123797305Y-81251495D01*
X123700614Y-81172143D01*
X123590300Y-81113178D01*
X123470602Y-81076868D01*
X123346120Y-81064608D01*
X123056870Y-81067680D01*
X122898120Y-81226430D01*
X122644120Y-81226430D01*
X122485370Y-81067680D01*
X122458802Y-81067398D01*
X122465620Y-81033119D01*
X122465620Y-80926686D01*
X125211614Y-80926686D01*
X127147607Y-82862680D01*
G36*
X120548715Y-71283067D02*
G01*
X120659158Y-71417642D01*
X120746936Y-71489680D01*
X120659158Y-71561718D01*
X120570541Y-71669698D01*
X120553305Y-71648695D01*
X120456614Y-71569343D01*
X120346300Y-71510378D01*
X120226602Y-71474068D01*
X120102120Y-71461808D01*
X119552120Y-71461808D01*
X119427638Y-71474068D01*
X119351974Y-71497020D01*
X119280266Y-71474808D01*
X119162870Y-71464880D01*
X119004120Y-71623630D01*
X119004120Y-71778056D01*
X118962618Y-71855700D01*
X118926308Y-71975398D01*
X118914048Y-72099880D01*
X118914048Y-72846880D01*
X118840192Y-72846880D01*
X118840192Y-72099880D01*
X118827932Y-71975398D01*
X118791622Y-71855700D01*
X118750120Y-71778056D01*
X118750120Y-71623630D01*
X118591370Y-71464880D01*
X118473974Y-71474808D01*
X118402266Y-71497020D01*
X118326602Y-71474068D01*
X118202120Y-71461808D01*
X117652120Y-71461808D01*
X117527638Y-71474068D01*
X117407940Y-71510378D01*
X117355875Y-71538208D01*
X117300305Y-71470495D01*
X117220526Y-71405022D01*
X117227082Y-71399642D01*
X117337525Y-71265067D01*
X117349799Y-71242104D01*
X117407940Y-71273182D01*
X117527638Y-71309492D01*
X117652120Y-71321752D01*
X118202120Y-71321752D01*
X118326602Y-71309492D01*
X118402120Y-71286584D01*
X118477638Y-71309492D01*
X118602120Y-71321752D01*
X119152120Y-71321752D01*
X119276602Y-71309492D01*
X119352120Y-71286584D01*
X119427638Y-71309492D01*
X119552120Y-71321752D01*
X120102120Y-71321752D01*
X120226602Y-71309492D01*
X120346300Y-71273182D01*
X120456614Y-71214217D01*
X120495052Y-71182672D01*
X120548715Y-71283067D01*
G37*
X120548715Y-71283067D02*
X120659158Y-71417642D01*
X120746936Y-71489680D01*
X120659158Y-71561718D01*
X120570541Y-71669698D01*
X120553305Y-71648695D01*
X120456614Y-71569343D01*
X120346300Y-71510378D01*
X120226602Y-71474068D01*
X120102120Y-71461808D01*
X119552120Y-71461808D01*
X119427638Y-71474068D01*
X119351974Y-71497020D01*
X119280266Y-71474808D01*
X119162870Y-71464880D01*
X119004120Y-71623630D01*
X119004120Y-71778056D01*
X118962618Y-71855700D01*
X118926308Y-71975398D01*
X118914048Y-72099880D01*
X118914048Y-72846880D01*
X118840192Y-72846880D01*
X118840192Y-72099880D01*
X118827932Y-71975398D01*
X118791622Y-71855700D01*
X118750120Y-71778056D01*
X118750120Y-71623630D01*
X118591370Y-71464880D01*
X118473974Y-71474808D01*
X118402266Y-71497020D01*
X118326602Y-71474068D01*
X118202120Y-71461808D01*
X117652120Y-71461808D01*
X117527638Y-71474068D01*
X117407940Y-71510378D01*
X117355875Y-71538208D01*
X117300305Y-71470495D01*
X117220526Y-71405022D01*
X117227082Y-71399642D01*
X117337525Y-71265067D01*
X117349799Y-71242104D01*
X117407940Y-71273182D01*
X117527638Y-71309492D01*
X117652120Y-71321752D01*
X118202120Y-71321752D01*
X118326602Y-71309492D01*
X118402120Y-71286584D01*
X118477638Y-71309492D01*
X118602120Y-71321752D01*
X119152120Y-71321752D01*
X119276602Y-71309492D01*
X119352120Y-71286584D01*
X119427638Y-71309492D01*
X119552120Y-71321752D01*
X120102120Y-71321752D01*
X120226602Y-71309492D01*
X120346300Y-71273182D01*
X120456614Y-71214217D01*
X120495052Y-71182672D01*
X120548715Y-71283067D01*
G36*
X108730141Y-63015639D02*
G01*
X108693583Y-63060186D01*
X108634618Y-63170500D01*
X108598308Y-63290198D01*
X108586048Y-63414680D01*
X108589120Y-63828930D01*
X108747870Y-63987680D01*
X109672120Y-63987680D01*
X109672120Y-63967680D01*
X109926120Y-63967680D01*
X109926120Y-63987680D01*
X109946120Y-63987680D01*
X109946120Y-64241680D01*
X109926120Y-64241680D01*
X109926120Y-64261680D01*
X109672120Y-64261680D01*
X109672120Y-64241680D01*
X108747870Y-64241680D01*
X108589120Y-64400430D01*
X108586048Y-64814680D01*
X108598308Y-64939162D01*
X108634618Y-65058860D01*
X108693583Y-65169174D01*
X108724691Y-65207079D01*
X108644648Y-65356829D01*
X108594112Y-65523425D01*
X108577048Y-65696679D01*
X108577048Y-66596681D01*
X108589461Y-66722708D01*
X108323120Y-66456368D01*
X108323120Y-62926192D01*
X108356632Y-62892680D01*
X108664418Y-62892680D01*
X108730141Y-63015639D01*
G37*
X108730141Y-63015639D02*
X108693583Y-63060186D01*
X108634618Y-63170500D01*
X108598308Y-63290198D01*
X108586048Y-63414680D01*
X108589120Y-63828930D01*
X108747870Y-63987680D01*
X109672120Y-63987680D01*
X109672120Y-63967680D01*
X109926120Y-63967680D01*
X109926120Y-63987680D01*
X109946120Y-63987680D01*
X109946120Y-64241680D01*
X109926120Y-64241680D01*
X109926120Y-64261680D01*
X109672120Y-64261680D01*
X109672120Y-64241680D01*
X108747870Y-64241680D01*
X108589120Y-64400430D01*
X108586048Y-64814680D01*
X108598308Y-64939162D01*
X108634618Y-65058860D01*
X108693583Y-65169174D01*
X108724691Y-65207079D01*
X108644648Y-65356829D01*
X108594112Y-65523425D01*
X108577048Y-65696679D01*
X108577048Y-66596681D01*
X108589461Y-66722708D01*
X108323120Y-66456368D01*
X108323120Y-62926192D01*
X108356632Y-62892680D01*
X108664418Y-62892680D01*
X108730141Y-63015639D01*
M02*
