G04 #@! TF.GenerationSoftware,KiCad,Pcbnew,(5.1.6)-1*
G04 #@! TF.CreationDate,2020-10-27T13:23:37+01:00*
G04 #@! TF.ProjectId,SoundModulev2,536f756e-644d-46f6-9475-6c6576322e6b,rev?*
G04 #@! TF.SameCoordinates,Original*
G04 #@! TF.FileFunction,Soldermask,Bot*
G04 #@! TF.FilePolarity,Negative*
%FSLAX46Y46*%
G04 Gerber Fmt 4.6, Leading zero omitted, Abs format (unit mm)*
G04 Created by KiCad (PCBNEW (5.1.6)-1) date 2020-10-27 13:23:37*
%MOMM*%
%LPD*%
G01*
G04 APERTURE LIST*
%ADD10C,0.100000*%
G04 APERTURE END LIST*
D10*
G36*
X120754340Y-103969520D02*
G01*
X119128340Y-103969520D01*
X119128340Y-99867520D01*
X120754340Y-99867520D01*
X120754340Y-103969520D01*
G37*
G36*
X123294340Y-103969520D02*
G01*
X121668340Y-103969520D01*
X121668340Y-99867520D01*
X123294340Y-99867520D01*
X123294340Y-103969520D01*
G37*
G36*
X125834340Y-103969520D02*
G01*
X124208340Y-103969520D01*
X124208340Y-99867520D01*
X125834340Y-99867520D01*
X125834340Y-103969520D01*
G37*
G36*
X133306120Y-86097680D02*
G01*
X131504120Y-86097680D01*
X131504120Y-84295680D01*
X133306120Y-84295680D01*
X133306120Y-86097680D01*
G37*
G36*
X104096120Y-85335680D02*
G01*
X102294120Y-85335680D01*
X102294120Y-83533680D01*
X104096120Y-83533680D01*
X104096120Y-85335680D01*
G37*
G36*
X100286120Y-85335680D02*
G01*
X98484120Y-85335680D01*
X98484120Y-83533680D01*
X100286120Y-83533680D01*
X100286120Y-85335680D01*
G37*
G36*
X103308632Y-80998607D02*
G01*
X103457932Y-81028304D01*
X103621904Y-81096224D01*
X103769474Y-81194827D01*
X103894973Y-81320326D01*
X103993576Y-81467896D01*
X104061496Y-81631868D01*
X104096120Y-81805939D01*
X104096120Y-81983421D01*
X104061496Y-82157492D01*
X103993576Y-82321464D01*
X103894973Y-82469034D01*
X103769474Y-82594533D01*
X103621904Y-82693136D01*
X103457932Y-82761056D01*
X103308632Y-82790753D01*
X103283862Y-82795680D01*
X103106378Y-82795680D01*
X103081608Y-82790753D01*
X102932308Y-82761056D01*
X102768336Y-82693136D01*
X102620766Y-82594533D01*
X102495267Y-82469034D01*
X102396664Y-82321464D01*
X102328744Y-82157492D01*
X102294120Y-81983421D01*
X102294120Y-81805939D01*
X102328744Y-81631868D01*
X102396664Y-81467896D01*
X102495267Y-81320326D01*
X102620766Y-81194827D01*
X102768336Y-81096224D01*
X102932308Y-81028304D01*
X103081608Y-80998607D01*
X103106378Y-80993680D01*
X103283862Y-80993680D01*
X103308632Y-80998607D01*
G37*
G36*
X99498632Y-80998607D02*
G01*
X99647932Y-81028304D01*
X99811904Y-81096224D01*
X99959474Y-81194827D01*
X100084973Y-81320326D01*
X100183576Y-81467896D01*
X100251496Y-81631868D01*
X100286120Y-81805939D01*
X100286120Y-81983421D01*
X100251496Y-82157492D01*
X100183576Y-82321464D01*
X100084973Y-82469034D01*
X99959474Y-82594533D01*
X99811904Y-82693136D01*
X99647932Y-82761056D01*
X99498632Y-82790753D01*
X99473862Y-82795680D01*
X99296378Y-82795680D01*
X99271608Y-82790753D01*
X99122308Y-82761056D01*
X98958336Y-82693136D01*
X98810766Y-82594533D01*
X98685267Y-82469034D01*
X98586664Y-82321464D01*
X98518744Y-82157492D01*
X98484120Y-81983421D01*
X98484120Y-81805939D01*
X98518744Y-81631868D01*
X98586664Y-81467896D01*
X98685267Y-81320326D01*
X98810766Y-81194827D01*
X98958336Y-81096224D01*
X99122308Y-81028304D01*
X99271608Y-80998607D01*
X99296378Y-80993680D01*
X99473862Y-80993680D01*
X99498632Y-80998607D01*
G37*
G36*
X114002120Y-81271680D02*
G01*
X112200120Y-81271680D01*
X112200120Y-79469680D01*
X114002120Y-79469680D01*
X114002120Y-81271680D01*
G37*
G36*
X99498632Y-78458607D02*
G01*
X99647932Y-78488304D01*
X99811904Y-78556224D01*
X99959474Y-78654827D01*
X100084973Y-78780326D01*
X100183576Y-78927896D01*
X100251496Y-79091868D01*
X100277519Y-79222699D01*
X100284320Y-79256887D01*
X100286120Y-79265939D01*
X100286120Y-79443421D01*
X100251496Y-79617492D01*
X100183576Y-79781464D01*
X100084973Y-79929034D01*
X99959474Y-80054533D01*
X99811904Y-80153136D01*
X99647932Y-80221056D01*
X99498632Y-80250753D01*
X99473862Y-80255680D01*
X99296378Y-80255680D01*
X99271608Y-80250753D01*
X99122308Y-80221056D01*
X98958336Y-80153136D01*
X98810766Y-80054533D01*
X98685267Y-79929034D01*
X98586664Y-79781464D01*
X98518744Y-79617492D01*
X98484120Y-79443421D01*
X98484120Y-79265939D01*
X98485921Y-79256887D01*
X98492721Y-79222699D01*
X98518744Y-79091868D01*
X98586664Y-78927896D01*
X98685267Y-78780326D01*
X98810766Y-78654827D01*
X98958336Y-78556224D01*
X99122308Y-78488304D01*
X99271608Y-78458607D01*
X99296378Y-78453680D01*
X99473862Y-78453680D01*
X99498632Y-78458607D01*
G37*
G36*
X103308632Y-78458607D02*
G01*
X103457932Y-78488304D01*
X103621904Y-78556224D01*
X103769474Y-78654827D01*
X103894973Y-78780326D01*
X103993576Y-78927896D01*
X104061496Y-79091868D01*
X104087519Y-79222699D01*
X104094320Y-79256887D01*
X104096120Y-79265939D01*
X104096120Y-79443421D01*
X104061496Y-79617492D01*
X103993576Y-79781464D01*
X103894973Y-79929034D01*
X103769474Y-80054533D01*
X103621904Y-80153136D01*
X103457932Y-80221056D01*
X103308632Y-80250753D01*
X103283862Y-80255680D01*
X103106378Y-80255680D01*
X103081608Y-80250753D01*
X102932308Y-80221056D01*
X102768336Y-80153136D01*
X102620766Y-80054533D01*
X102495267Y-79929034D01*
X102396664Y-79781464D01*
X102328744Y-79617492D01*
X102294120Y-79443421D01*
X102294120Y-79265939D01*
X102295921Y-79256887D01*
X102302721Y-79222699D01*
X102328744Y-79091868D01*
X102396664Y-78927896D01*
X102495267Y-78780326D01*
X102620766Y-78654827D01*
X102768336Y-78556224D01*
X102932308Y-78488304D01*
X103081608Y-78458607D01*
X103106378Y-78453680D01*
X103283862Y-78453680D01*
X103308632Y-78458607D01*
G37*
G36*
X120339447Y-78532368D02*
G01*
X120361058Y-78543919D01*
X120384506Y-78551032D01*
X120440292Y-78562129D01*
X120440294Y-78562130D01*
X120440295Y-78562130D01*
X120508723Y-78590473D01*
X120570306Y-78631622D01*
X120622678Y-78683994D01*
X120663827Y-78745577D01*
X120692170Y-78814005D01*
X120692171Y-78814008D01*
X120706620Y-78886646D01*
X120706620Y-78960714D01*
X120698536Y-79001356D01*
X120692170Y-79033355D01*
X120663827Y-79101783D01*
X120622678Y-79163366D01*
X120570306Y-79215738D01*
X120508723Y-79256887D01*
X120440295Y-79285230D01*
X120440294Y-79285230D01*
X120440292Y-79285231D01*
X120367654Y-79299680D01*
X120293586Y-79299680D01*
X120220948Y-79285231D01*
X120220946Y-79285230D01*
X120220945Y-79285230D01*
X120152517Y-79256887D01*
X120090934Y-79215738D01*
X120038562Y-79163366D01*
X119997413Y-79101783D01*
X119969070Y-79033355D01*
X119962705Y-79001356D01*
X119954620Y-78960714D01*
X119954620Y-78886646D01*
X119969069Y-78814008D01*
X119969070Y-78814005D01*
X119997413Y-78745577D01*
X120038562Y-78683994D01*
X120090934Y-78631622D01*
X120152517Y-78590473D01*
X120220945Y-78562130D01*
X120220946Y-78562130D01*
X120220948Y-78562129D01*
X120276734Y-78551032D01*
X120300183Y-78543919D01*
X120321794Y-78532368D01*
X120330621Y-78525124D01*
X120339447Y-78532368D01*
G37*
G36*
X121512585Y-78703478D02*
G01*
X121563724Y-78724661D01*
X121609747Y-78755413D01*
X121648887Y-78794553D01*
X121679639Y-78840576D01*
X121700822Y-78891715D01*
X121711620Y-78946004D01*
X121711620Y-79001356D01*
X121700822Y-79055645D01*
X121679639Y-79106784D01*
X121648887Y-79152807D01*
X121609747Y-79191947D01*
X121563724Y-79222699D01*
X121512585Y-79243882D01*
X121458296Y-79254680D01*
X121402944Y-79254680D01*
X121348655Y-79243882D01*
X121297516Y-79222699D01*
X121251493Y-79191947D01*
X121212353Y-79152807D01*
X121181601Y-79106784D01*
X121160418Y-79055645D01*
X121149620Y-79001356D01*
X121149620Y-78946004D01*
X121160418Y-78891715D01*
X121181601Y-78840576D01*
X121212353Y-78794553D01*
X121251493Y-78755413D01*
X121297516Y-78724661D01*
X121348655Y-78703478D01*
X121402944Y-78692680D01*
X121458296Y-78692680D01*
X121512585Y-78703478D01*
G37*
G36*
X123152585Y-76673478D02*
G01*
X123203724Y-76694661D01*
X123249747Y-76725413D01*
X123288887Y-76764553D01*
X123319639Y-76810576D01*
X123340822Y-76861715D01*
X123351620Y-76916004D01*
X123351620Y-76971356D01*
X123340822Y-77025645D01*
X123319639Y-77076784D01*
X123288887Y-77122807D01*
X123249747Y-77161947D01*
X123203724Y-77192699D01*
X123152585Y-77213882D01*
X123138757Y-77216632D01*
X123115319Y-77223742D01*
X123093708Y-77235293D01*
X123074766Y-77250838D01*
X123059221Y-77269779D01*
X123047669Y-77291390D01*
X123040556Y-77314839D01*
X123038154Y-77339225D01*
X123040556Y-77363611D01*
X123047669Y-77387060D01*
X123059220Y-77408671D01*
X123074760Y-77427608D01*
X123076100Y-77428948D01*
X123133285Y-77514532D01*
X123167044Y-77565056D01*
X123229686Y-77716286D01*
X123261620Y-77876832D01*
X123261620Y-78040528D01*
X123229686Y-78201074D01*
X123175560Y-78331745D01*
X123167043Y-78352306D01*
X123076100Y-78488412D01*
X123074760Y-78489752D01*
X123059220Y-78508688D01*
X123047669Y-78530299D01*
X123040556Y-78553748D01*
X123038154Y-78578134D01*
X123040556Y-78602520D01*
X123047669Y-78625969D01*
X123059220Y-78647580D01*
X123074765Y-78666522D01*
X123093707Y-78682067D01*
X123115318Y-78693618D01*
X123138757Y-78700728D01*
X123152585Y-78703478D01*
X123203724Y-78724661D01*
X123249747Y-78755413D01*
X123288887Y-78794553D01*
X123319639Y-78840576D01*
X123340822Y-78891715D01*
X123351620Y-78946004D01*
X123351620Y-79001356D01*
X123340822Y-79055645D01*
X123319639Y-79106784D01*
X123288887Y-79152807D01*
X123249747Y-79191947D01*
X123203724Y-79222699D01*
X123152585Y-79243882D01*
X123098296Y-79254680D01*
X123042944Y-79254680D01*
X122988655Y-79243882D01*
X122937516Y-79222699D01*
X122891493Y-79191947D01*
X122852353Y-79152807D01*
X122821601Y-79106784D01*
X122800418Y-79055645D01*
X122789620Y-79001356D01*
X122789620Y-78946004D01*
X122796918Y-78909313D01*
X122799319Y-78884935D01*
X122796917Y-78860548D01*
X122789804Y-78837099D01*
X122778253Y-78815489D01*
X122762708Y-78796547D01*
X122743766Y-78781001D01*
X122722156Y-78769450D01*
X122698707Y-78762337D01*
X122674321Y-78759935D01*
X122649934Y-78762337D01*
X122512468Y-78789680D01*
X122348772Y-78789680D01*
X122188226Y-78757746D01*
X122036996Y-78695104D01*
X122036995Y-78695104D01*
X122036994Y-78695103D01*
X121900888Y-78604160D01*
X121785140Y-78488412D01*
X121694197Y-78352306D01*
X121685680Y-78331745D01*
X121631554Y-78201074D01*
X121599620Y-78040528D01*
X121599620Y-77876832D01*
X121631554Y-77716286D01*
X121694196Y-77565056D01*
X121727955Y-77514532D01*
X121785140Y-77428948D01*
X121900888Y-77313200D01*
X122036994Y-77222257D01*
X122050581Y-77216629D01*
X122188226Y-77159614D01*
X122348772Y-77127680D01*
X122512468Y-77127680D01*
X122649934Y-77155023D01*
X122674321Y-77157425D01*
X122698707Y-77155023D01*
X122722156Y-77147910D01*
X122743766Y-77136359D01*
X122762708Y-77120813D01*
X122778253Y-77101871D01*
X122789804Y-77080260D01*
X122796917Y-77056812D01*
X122799319Y-77032425D01*
X122796918Y-77008047D01*
X122789620Y-76971356D01*
X122789620Y-76916004D01*
X122800418Y-76861715D01*
X122821601Y-76810576D01*
X122852353Y-76764553D01*
X122891493Y-76725413D01*
X122937516Y-76694661D01*
X122988655Y-76673478D01*
X123042944Y-76662680D01*
X123098296Y-76662680D01*
X123152585Y-76673478D01*
G37*
G36*
X120339446Y-77592858D02*
G01*
X120361057Y-77604409D01*
X120384505Y-77611522D01*
X120433003Y-77621169D01*
X120433006Y-77621170D01*
X120433005Y-77621170D01*
X120496878Y-77647626D01*
X120554368Y-77686040D01*
X120603260Y-77734932D01*
X120641674Y-77792422D01*
X120663244Y-77844498D01*
X120668131Y-77856297D01*
X120681620Y-77924110D01*
X120681620Y-77993250D01*
X120668131Y-78061063D01*
X120668130Y-78061065D01*
X120641674Y-78124938D01*
X120603260Y-78182428D01*
X120554368Y-78231320D01*
X120496878Y-78269734D01*
X120444802Y-78291304D01*
X120433003Y-78296191D01*
X120387291Y-78305284D01*
X120384505Y-78305838D01*
X120361056Y-78312951D01*
X120339445Y-78324503D01*
X120330620Y-78331745D01*
X120321794Y-78324502D01*
X120300183Y-78312951D01*
X120276735Y-78305838D01*
X120273949Y-78305284D01*
X120228237Y-78296191D01*
X120216438Y-78291304D01*
X120164362Y-78269734D01*
X120106872Y-78231320D01*
X120057980Y-78182428D01*
X120019566Y-78124938D01*
X119993110Y-78061065D01*
X119993109Y-78061063D01*
X119979620Y-77993250D01*
X119979620Y-77924110D01*
X119993109Y-77856297D01*
X119997996Y-77844498D01*
X120019566Y-77792422D01*
X120057980Y-77734932D01*
X120106872Y-77686040D01*
X120164362Y-77647626D01*
X120228235Y-77621170D01*
X120228234Y-77621170D01*
X120228237Y-77621169D01*
X120276735Y-77611522D01*
X120300184Y-77604409D01*
X120321795Y-77592857D01*
X120330620Y-77585615D01*
X120339446Y-77592858D01*
G37*
G36*
X99498632Y-75918607D02*
G01*
X99647932Y-75948304D01*
X99811904Y-76016224D01*
X99959474Y-76114827D01*
X100084973Y-76240326D01*
X100183576Y-76387896D01*
X100251496Y-76551868D01*
X100273537Y-76662680D01*
X100286016Y-76725413D01*
X100286120Y-76725939D01*
X100286120Y-76903421D01*
X100251496Y-77077492D01*
X100183576Y-77241464D01*
X100084973Y-77389034D01*
X99959474Y-77514533D01*
X99811904Y-77613136D01*
X99647932Y-77681056D01*
X99498632Y-77710753D01*
X99473862Y-77715680D01*
X99296378Y-77715680D01*
X99271608Y-77710753D01*
X99122308Y-77681056D01*
X98958336Y-77613136D01*
X98810766Y-77514533D01*
X98685267Y-77389034D01*
X98586664Y-77241464D01*
X98518744Y-77077492D01*
X98484120Y-76903421D01*
X98484120Y-76725939D01*
X98484225Y-76725413D01*
X98496703Y-76662680D01*
X98518744Y-76551868D01*
X98586664Y-76387896D01*
X98685267Y-76240326D01*
X98810766Y-76114827D01*
X98958336Y-76016224D01*
X99122308Y-75948304D01*
X99271608Y-75918607D01*
X99296378Y-75913680D01*
X99473862Y-75913680D01*
X99498632Y-75918607D01*
G37*
G36*
X103308632Y-75918607D02*
G01*
X103457932Y-75948304D01*
X103621904Y-76016224D01*
X103769474Y-76114827D01*
X103894973Y-76240326D01*
X103993576Y-76387896D01*
X104061496Y-76551868D01*
X104083537Y-76662680D01*
X104096016Y-76725413D01*
X104096120Y-76725939D01*
X104096120Y-76903421D01*
X104061496Y-77077492D01*
X103993576Y-77241464D01*
X103894973Y-77389034D01*
X103769474Y-77514533D01*
X103621904Y-77613136D01*
X103457932Y-77681056D01*
X103308632Y-77710753D01*
X103283862Y-77715680D01*
X103106378Y-77715680D01*
X103081608Y-77710753D01*
X102932308Y-77681056D01*
X102768336Y-77613136D01*
X102620766Y-77514533D01*
X102495267Y-77389034D01*
X102396664Y-77241464D01*
X102328744Y-77077492D01*
X102294120Y-76903421D01*
X102294120Y-76725939D01*
X102294225Y-76725413D01*
X102306703Y-76662680D01*
X102328744Y-76551868D01*
X102396664Y-76387896D01*
X102495267Y-76240326D01*
X102620766Y-76114827D01*
X102768336Y-76016224D01*
X102932308Y-75948304D01*
X103081608Y-75918607D01*
X103106378Y-75913680D01*
X103283862Y-75913680D01*
X103308632Y-75918607D01*
G37*
G36*
X114002120Y-77461680D02*
G01*
X112200120Y-77461680D01*
X112200120Y-75659680D01*
X114002120Y-75659680D01*
X114002120Y-77461680D01*
G37*
G36*
X120440292Y-76632129D02*
G01*
X120440294Y-76632130D01*
X120440295Y-76632130D01*
X120508723Y-76660473D01*
X120570306Y-76701622D01*
X120622678Y-76753994D01*
X120663827Y-76815577D01*
X120692170Y-76884005D01*
X120692171Y-76884008D01*
X120706620Y-76956646D01*
X120706620Y-77030714D01*
X120692466Y-77101871D01*
X120692170Y-77103355D01*
X120663827Y-77171783D01*
X120622678Y-77233366D01*
X120570306Y-77285738D01*
X120508723Y-77326887D01*
X120440295Y-77355230D01*
X120440294Y-77355230D01*
X120440292Y-77355231D01*
X120384506Y-77366328D01*
X120361057Y-77373441D01*
X120339446Y-77384992D01*
X120330619Y-77392236D01*
X120321793Y-77384992D01*
X120300182Y-77373441D01*
X120276734Y-77366328D01*
X120220948Y-77355231D01*
X120220946Y-77355230D01*
X120220945Y-77355230D01*
X120152517Y-77326887D01*
X120090934Y-77285738D01*
X120038562Y-77233366D01*
X119997413Y-77171783D01*
X119969070Y-77103355D01*
X119968775Y-77101871D01*
X119954620Y-77030714D01*
X119954620Y-76956646D01*
X119969069Y-76884008D01*
X119969070Y-76884005D01*
X119997413Y-76815577D01*
X120038562Y-76753994D01*
X120090934Y-76701622D01*
X120152517Y-76660473D01*
X120220945Y-76632130D01*
X120220946Y-76632130D01*
X120220948Y-76632129D01*
X120293586Y-76617680D01*
X120367654Y-76617680D01*
X120440292Y-76632129D01*
G37*
G36*
X121512585Y-76673478D02*
G01*
X121563724Y-76694661D01*
X121609747Y-76725413D01*
X121648887Y-76764553D01*
X121679639Y-76810576D01*
X121700822Y-76861715D01*
X121711620Y-76916004D01*
X121711620Y-76971356D01*
X121700822Y-77025645D01*
X121679639Y-77076784D01*
X121648887Y-77122807D01*
X121609747Y-77161947D01*
X121563724Y-77192699D01*
X121512585Y-77213882D01*
X121458296Y-77224680D01*
X121402944Y-77224680D01*
X121348655Y-77213882D01*
X121297516Y-77192699D01*
X121251493Y-77161947D01*
X121212353Y-77122807D01*
X121181601Y-77076784D01*
X121160418Y-77025645D01*
X121149620Y-76971356D01*
X121149620Y-76916004D01*
X121160418Y-76861715D01*
X121181601Y-76810576D01*
X121212353Y-76764553D01*
X121251493Y-76725413D01*
X121297516Y-76694661D01*
X121348655Y-76673478D01*
X121402944Y-76662680D01*
X121458296Y-76662680D01*
X121512585Y-76673478D01*
G37*
G36*
X99498632Y-73378607D02*
G01*
X99647932Y-73408304D01*
X99811904Y-73476224D01*
X99959474Y-73574827D01*
X100084973Y-73700326D01*
X100183576Y-73847896D01*
X100251496Y-74011868D01*
X100286120Y-74185939D01*
X100286120Y-74363421D01*
X100251496Y-74537492D01*
X100183576Y-74701464D01*
X100084973Y-74849034D01*
X99959474Y-74974533D01*
X99811904Y-75073136D01*
X99647932Y-75141056D01*
X99498632Y-75170753D01*
X99473862Y-75175680D01*
X99296378Y-75175680D01*
X99271608Y-75170753D01*
X99122308Y-75141056D01*
X98958336Y-75073136D01*
X98810766Y-74974533D01*
X98685267Y-74849034D01*
X98586664Y-74701464D01*
X98518744Y-74537492D01*
X98484120Y-74363421D01*
X98484120Y-74185939D01*
X98518744Y-74011868D01*
X98586664Y-73847896D01*
X98685267Y-73700326D01*
X98810766Y-73574827D01*
X98958336Y-73476224D01*
X99122308Y-73408304D01*
X99271608Y-73378607D01*
X99296378Y-73373680D01*
X99473862Y-73373680D01*
X99498632Y-73378607D01*
G37*
G36*
X103308632Y-73378607D02*
G01*
X103457932Y-73408304D01*
X103621904Y-73476224D01*
X103769474Y-73574827D01*
X103894973Y-73700326D01*
X103993576Y-73847896D01*
X104061496Y-74011868D01*
X104096120Y-74185939D01*
X104096120Y-74363421D01*
X104061496Y-74537492D01*
X103993576Y-74701464D01*
X103894973Y-74849034D01*
X103769474Y-74974533D01*
X103621904Y-75073136D01*
X103457932Y-75141056D01*
X103308632Y-75170753D01*
X103283862Y-75175680D01*
X103106378Y-75175680D01*
X103081608Y-75170753D01*
X102932308Y-75141056D01*
X102768336Y-75073136D01*
X102620766Y-74974533D01*
X102495267Y-74849034D01*
X102396664Y-74701464D01*
X102328744Y-74537492D01*
X102294120Y-74363421D01*
X102294120Y-74185939D01*
X102328744Y-74011868D01*
X102396664Y-73847896D01*
X102495267Y-73700326D01*
X102620766Y-73574827D01*
X102768336Y-73476224D01*
X102932308Y-73408304D01*
X103081608Y-73378607D01*
X103106378Y-73373680D01*
X103283862Y-73373680D01*
X103308632Y-73378607D01*
G37*
G36*
X103308632Y-70838607D02*
G01*
X103457932Y-70868304D01*
X103621904Y-70936224D01*
X103769474Y-71034827D01*
X103894973Y-71160326D01*
X103993576Y-71307896D01*
X104061496Y-71471868D01*
X104096120Y-71645939D01*
X104096120Y-71823421D01*
X104061496Y-71997492D01*
X103993576Y-72161464D01*
X103894973Y-72309034D01*
X103769474Y-72434533D01*
X103621904Y-72533136D01*
X103457932Y-72601056D01*
X103308632Y-72630753D01*
X103283862Y-72635680D01*
X103106378Y-72635680D01*
X103081608Y-72630753D01*
X102932308Y-72601056D01*
X102768336Y-72533136D01*
X102620766Y-72434533D01*
X102495267Y-72309034D01*
X102396664Y-72161464D01*
X102328744Y-71997492D01*
X102294120Y-71823421D01*
X102294120Y-71645939D01*
X102328744Y-71471868D01*
X102396664Y-71307896D01*
X102495267Y-71160326D01*
X102620766Y-71034827D01*
X102768336Y-70936224D01*
X102932308Y-70868304D01*
X103081608Y-70838607D01*
X103106378Y-70833680D01*
X103283862Y-70833680D01*
X103308632Y-70838607D01*
G37*
G36*
X99498632Y-70838607D02*
G01*
X99647932Y-70868304D01*
X99811904Y-70936224D01*
X99959474Y-71034827D01*
X100084973Y-71160326D01*
X100183576Y-71307896D01*
X100251496Y-71471868D01*
X100286120Y-71645939D01*
X100286120Y-71823421D01*
X100251496Y-71997492D01*
X100183576Y-72161464D01*
X100084973Y-72309034D01*
X99959474Y-72434533D01*
X99811904Y-72533136D01*
X99647932Y-72601056D01*
X99498632Y-72630753D01*
X99473862Y-72635680D01*
X99296378Y-72635680D01*
X99271608Y-72630753D01*
X99122308Y-72601056D01*
X98958336Y-72533136D01*
X98810766Y-72434533D01*
X98685267Y-72309034D01*
X98586664Y-72161464D01*
X98518744Y-71997492D01*
X98484120Y-71823421D01*
X98484120Y-71645939D01*
X98518744Y-71471868D01*
X98586664Y-71307896D01*
X98685267Y-71160326D01*
X98810766Y-71034827D01*
X98958336Y-70936224D01*
X99122308Y-70868304D01*
X99271608Y-70838607D01*
X99296378Y-70833680D01*
X99473862Y-70833680D01*
X99498632Y-70838607D01*
G37*
M02*
