G04 #@! TF.GenerationSoftware,KiCad,Pcbnew,(5.1.5)-3*
G04 #@! TF.CreationDate,2020-08-17T10:15:17+02:00*
G04 #@! TF.ProjectId,Power_module_v1,506f7765-725f-46d6-9f64-756c655f7631,rev?*
G04 #@! TF.SameCoordinates,Original*
G04 #@! TF.FileFunction,Legend,Bot*
G04 #@! TF.FilePolarity,Positive*
%FSLAX46Y46*%
G04 Gerber Fmt 4.6, Leading zero omitted, Abs format (unit mm)*
G04 Created by KiCad (PCBNEW (5.1.5)-3) date 2020-08-17 10:15:17*
%MOMM*%
%LPD*%
G04 APERTURE LIST*
%ADD10C,0.125000*%
%ADD11C,0.120000*%
%ADD12C,0.150000*%
G04 APERTURE END LIST*
D10*
X142339333Y-83617619D02*
X142410761Y-83593809D01*
X142529809Y-83593809D01*
X142577428Y-83617619D01*
X142601238Y-83641428D01*
X142625047Y-83689047D01*
X142625047Y-83736666D01*
X142601238Y-83784285D01*
X142577428Y-83808095D01*
X142529809Y-83831904D01*
X142434571Y-83855714D01*
X142386952Y-83879523D01*
X142363142Y-83903333D01*
X142339333Y-83950952D01*
X142339333Y-83998571D01*
X142363142Y-84046190D01*
X142386952Y-84070000D01*
X142434571Y-84093809D01*
X142553619Y-84093809D01*
X142625047Y-84070000D01*
X142934571Y-84093809D02*
X143029809Y-84093809D01*
X143077428Y-84070000D01*
X143125047Y-84022380D01*
X143148857Y-83927142D01*
X143148857Y-83760476D01*
X143125047Y-83665238D01*
X143077428Y-83617619D01*
X143029809Y-83593809D01*
X142934571Y-83593809D01*
X142886952Y-83617619D01*
X142839333Y-83665238D01*
X142815523Y-83760476D01*
X142815523Y-83927142D01*
X142839333Y-84022380D01*
X142886952Y-84070000D01*
X142934571Y-84093809D01*
X143601238Y-83593809D02*
X143363142Y-83593809D01*
X143363142Y-84093809D01*
X143767904Y-83784285D02*
X144148857Y-83784285D01*
X143958380Y-83593809D02*
X143958380Y-83974761D01*
X147319952Y-83062000D02*
X147367571Y-83038190D01*
X147439000Y-83038190D01*
X147510428Y-83062000D01*
X147558047Y-83109619D01*
X147581857Y-83157238D01*
X147605666Y-83252476D01*
X147605666Y-83323904D01*
X147581857Y-83419142D01*
X147558047Y-83466761D01*
X147510428Y-83514380D01*
X147439000Y-83538190D01*
X147391380Y-83538190D01*
X147319952Y-83514380D01*
X147296142Y-83490571D01*
X147296142Y-83323904D01*
X147391380Y-83323904D01*
X147081857Y-83538190D02*
X147081857Y-83038190D01*
X146796142Y-83538190D01*
X146796142Y-83038190D01*
X146558047Y-83538190D02*
X146558047Y-83038190D01*
X146439000Y-83038190D01*
X146367571Y-83062000D01*
X146319952Y-83109619D01*
X146296142Y-83157238D01*
X146272333Y-83252476D01*
X146272333Y-83323904D01*
X146296142Y-83419142D01*
X146319952Y-83466761D01*
X146367571Y-83514380D01*
X146439000Y-83538190D01*
X146558047Y-83538190D01*
X123824952Y-82300000D02*
X123872571Y-82276190D01*
X123944000Y-82276190D01*
X124015428Y-82300000D01*
X124063047Y-82347619D01*
X124086857Y-82395238D01*
X124110666Y-82490476D01*
X124110666Y-82561904D01*
X124086857Y-82657142D01*
X124063047Y-82704761D01*
X124015428Y-82752380D01*
X123944000Y-82776190D01*
X123896380Y-82776190D01*
X123824952Y-82752380D01*
X123801142Y-82728571D01*
X123801142Y-82561904D01*
X123896380Y-82561904D01*
X123586857Y-82776190D02*
X123586857Y-82276190D01*
X123301142Y-82776190D01*
X123301142Y-82276190D01*
X123063047Y-82776190D02*
X123063047Y-82276190D01*
X122944000Y-82276190D01*
X122872571Y-82300000D01*
X122824952Y-82347619D01*
X122801142Y-82395238D01*
X122777333Y-82490476D01*
X122777333Y-82561904D01*
X122801142Y-82657142D01*
X122824952Y-82704761D01*
X122872571Y-82752380D01*
X122944000Y-82776190D01*
X123063047Y-82776190D01*
X121455571Y-82514285D02*
X121384142Y-82538095D01*
X121360333Y-82561904D01*
X121336523Y-82609523D01*
X121336523Y-82680952D01*
X121360333Y-82728571D01*
X121384142Y-82752380D01*
X121431761Y-82776190D01*
X121622238Y-82776190D01*
X121622238Y-82276190D01*
X121455571Y-82276190D01*
X121407952Y-82300000D01*
X121384142Y-82323809D01*
X121360333Y-82371428D01*
X121360333Y-82419047D01*
X121384142Y-82466666D01*
X121407952Y-82490476D01*
X121455571Y-82514285D01*
X121622238Y-82514285D01*
X121146047Y-82633333D02*
X120907952Y-82633333D01*
X121193666Y-82776190D02*
X121027000Y-82276190D01*
X120860333Y-82776190D01*
X120765095Y-82276190D02*
X120479380Y-82276190D01*
X120622238Y-82776190D02*
X120622238Y-82276190D01*
X120312714Y-82585714D02*
X119931761Y-82585714D01*
X120122238Y-82776190D02*
X120122238Y-82395238D01*
D11*
X93472000Y-84074000D02*
X93472000Y-83947000D01*
X93472000Y-84709000D02*
X93472000Y-84074000D01*
X94107000Y-84328000D02*
X93472000Y-84709000D01*
X93472000Y-83947000D02*
X94107000Y-84328000D01*
D10*
X125575142Y-99389380D02*
X125503714Y-99413190D01*
X125384666Y-99413190D01*
X125337047Y-99389380D01*
X125313238Y-99365571D01*
X125289428Y-99317952D01*
X125289428Y-99270333D01*
X125313238Y-99222714D01*
X125337047Y-99198904D01*
X125384666Y-99175095D01*
X125479904Y-99151285D01*
X125527523Y-99127476D01*
X125551333Y-99103666D01*
X125575142Y-99056047D01*
X125575142Y-99008428D01*
X125551333Y-98960809D01*
X125527523Y-98937000D01*
X125479904Y-98913190D01*
X125360857Y-98913190D01*
X125289428Y-98937000D01*
X125075142Y-99413190D02*
X125075142Y-98913190D01*
X124956095Y-98913190D01*
X124884666Y-98937000D01*
X124837047Y-98984619D01*
X124813238Y-99032238D01*
X124789428Y-99127476D01*
X124789428Y-99198904D01*
X124813238Y-99294142D01*
X124837047Y-99341761D01*
X124884666Y-99389380D01*
X124956095Y-99413190D01*
X125075142Y-99413190D01*
X124598952Y-99270333D02*
X124360857Y-99270333D01*
X124646571Y-99413190D02*
X124479904Y-98913190D01*
X124313238Y-99413190D01*
X123023238Y-99389380D02*
X122951809Y-99413190D01*
X122832761Y-99413190D01*
X122785142Y-99389380D01*
X122761333Y-99365571D01*
X122737523Y-99317952D01*
X122737523Y-99270333D01*
X122761333Y-99222714D01*
X122785142Y-99198904D01*
X122832761Y-99175095D01*
X122928000Y-99151285D01*
X122975619Y-99127476D01*
X122999428Y-99103666D01*
X123023238Y-99056047D01*
X123023238Y-99008428D01*
X122999428Y-98960809D01*
X122975619Y-98937000D01*
X122928000Y-98913190D01*
X122808952Y-98913190D01*
X122737523Y-98937000D01*
X122237523Y-99365571D02*
X122261333Y-99389380D01*
X122332761Y-99413190D01*
X122380380Y-99413190D01*
X122451809Y-99389380D01*
X122499428Y-99341761D01*
X122523238Y-99294142D01*
X122547047Y-99198904D01*
X122547047Y-99127476D01*
X122523238Y-99032238D01*
X122499428Y-98984619D01*
X122451809Y-98937000D01*
X122380380Y-98913190D01*
X122332761Y-98913190D01*
X122261333Y-98937000D01*
X122237523Y-98960809D01*
X121785142Y-99413190D02*
X122023238Y-99413190D01*
X122023238Y-98913190D01*
X120836428Y-98913190D02*
X120669761Y-99413190D01*
X120503095Y-98913190D01*
X120169761Y-99151285D02*
X120098333Y-99175095D01*
X120074523Y-99198904D01*
X120050714Y-99246523D01*
X120050714Y-99317952D01*
X120074523Y-99365571D01*
X120098333Y-99389380D01*
X120145952Y-99413190D01*
X120336428Y-99413190D01*
X120336428Y-98913190D01*
X120169761Y-98913190D01*
X120122142Y-98937000D01*
X120098333Y-98960809D01*
X120074523Y-99008428D01*
X120074523Y-99056047D01*
X120098333Y-99103666D01*
X120122142Y-99127476D01*
X120169761Y-99151285D01*
X120336428Y-99151285D01*
X119860238Y-99270333D02*
X119622142Y-99270333D01*
X119907857Y-99413190D02*
X119741190Y-98913190D01*
X119574523Y-99413190D01*
X119479285Y-98913190D02*
X119193571Y-98913190D01*
X119336428Y-99413190D02*
X119336428Y-98913190D01*
D12*
X127472247Y-61244219D02*
X127424628Y-61196600D01*
X127329390Y-61148980D01*
X127091295Y-61148980D01*
X126996057Y-61196600D01*
X126948438Y-61244219D01*
X126900819Y-61339457D01*
X126900819Y-61434695D01*
X126948438Y-61577552D01*
X127519866Y-62148980D01*
X126900819Y-62148980D01*
X126043676Y-61482314D02*
X126043676Y-62148980D01*
X126281771Y-61101361D02*
X126519866Y-61815647D01*
X125900819Y-61815647D01*
X125519866Y-62053742D02*
X125472247Y-62101361D01*
X125519866Y-62148980D01*
X125567485Y-62101361D01*
X125519866Y-62053742D01*
X125519866Y-62148980D01*
X124567485Y-61148980D02*
X125043676Y-61148980D01*
X125091295Y-61625171D01*
X125043676Y-61577552D01*
X124948438Y-61529933D01*
X124710342Y-61529933D01*
X124615104Y-61577552D01*
X124567485Y-61625171D01*
X124519866Y-61720409D01*
X124519866Y-61958504D01*
X124567485Y-62053742D01*
X124615104Y-62101361D01*
X124710342Y-62148980D01*
X124948438Y-62148980D01*
X125043676Y-62101361D01*
X125091295Y-62053742D01*
X124186533Y-62148980D02*
X123662723Y-61482314D01*
X124186533Y-61482314D02*
X123662723Y-62148980D01*
X123329390Y-61244219D02*
X123281771Y-61196600D01*
X123186533Y-61148980D01*
X122948438Y-61148980D01*
X122853200Y-61196600D01*
X122805580Y-61244219D01*
X122757961Y-61339457D01*
X122757961Y-61434695D01*
X122805580Y-61577552D01*
X123377009Y-62148980D01*
X122757961Y-62148980D01*
X122424628Y-61148980D02*
X121805580Y-61148980D01*
X122138914Y-61529933D01*
X121996057Y-61529933D01*
X121900819Y-61577552D01*
X121853200Y-61625171D01*
X121805580Y-61720409D01*
X121805580Y-61958504D01*
X121853200Y-62053742D01*
X121900819Y-62101361D01*
X121996057Y-62148980D01*
X122281771Y-62148980D01*
X122377009Y-62101361D01*
X122424628Y-62053742D01*
X121377009Y-62053742D02*
X121329390Y-62101361D01*
X121377009Y-62148980D01*
X121424628Y-62101361D01*
X121377009Y-62053742D01*
X121377009Y-62148980D01*
X120424628Y-61148980D02*
X120900819Y-61148980D01*
X120948438Y-61625171D01*
X120900819Y-61577552D01*
X120805580Y-61529933D01*
X120567485Y-61529933D01*
X120472247Y-61577552D01*
X120424628Y-61625171D01*
X120377009Y-61720409D01*
X120377009Y-61958504D01*
X120424628Y-62053742D01*
X120472247Y-62101361D01*
X120567485Y-62148980D01*
X120805580Y-62148980D01*
X120900819Y-62101361D01*
X120948438Y-62053742D01*
X119186533Y-62148980D02*
X119186533Y-61148980D01*
X119186533Y-61529933D02*
X119091295Y-61482314D01*
X118900819Y-61482314D01*
X118805580Y-61529933D01*
X118757961Y-61577552D01*
X118710342Y-61672790D01*
X118710342Y-61958504D01*
X118757961Y-62053742D01*
X118805580Y-62101361D01*
X118900819Y-62148980D01*
X119091295Y-62148980D01*
X119186533Y-62101361D01*
X117853200Y-62148980D02*
X117853200Y-61625171D01*
X117900819Y-61529933D01*
X117996057Y-61482314D01*
X118186533Y-61482314D01*
X118281771Y-61529933D01*
X117853200Y-62101361D02*
X117948438Y-62148980D01*
X118186533Y-62148980D01*
X118281771Y-62101361D01*
X118329390Y-62006123D01*
X118329390Y-61910885D01*
X118281771Y-61815647D01*
X118186533Y-61768028D01*
X117948438Y-61768028D01*
X117853200Y-61720409D01*
X117519866Y-61482314D02*
X117138914Y-61482314D01*
X117377009Y-61148980D02*
X117377009Y-62006123D01*
X117329390Y-62101361D01*
X117234152Y-62148980D01*
X117138914Y-62148980D01*
X116948438Y-61482314D02*
X116567485Y-61482314D01*
X116805580Y-61148980D02*
X116805580Y-62006123D01*
X116757961Y-62101361D01*
X116662723Y-62148980D01*
X116567485Y-62148980D01*
X115853200Y-62101361D02*
X115948438Y-62148980D01*
X116138914Y-62148980D01*
X116234152Y-62101361D01*
X116281771Y-62006123D01*
X116281771Y-61625171D01*
X116234152Y-61529933D01*
X116138914Y-61482314D01*
X115948438Y-61482314D01*
X115853200Y-61529933D01*
X115805580Y-61625171D01*
X115805580Y-61720409D01*
X116281771Y-61815647D01*
X115377009Y-62148980D02*
X115377009Y-61482314D01*
X115377009Y-61672790D02*
X115329390Y-61577552D01*
X115281771Y-61529933D01*
X115186533Y-61482314D01*
X115091295Y-61482314D01*
X114757961Y-62148980D02*
X114757961Y-61482314D01*
X114757961Y-61148980D02*
X114805580Y-61196600D01*
X114757961Y-61244219D01*
X114710342Y-61196600D01*
X114757961Y-61148980D01*
X114757961Y-61244219D01*
X114281771Y-61482314D02*
X114281771Y-62339457D01*
X114329390Y-62434695D01*
X114424628Y-62482314D01*
X114472247Y-62482314D01*
X114281771Y-61148980D02*
X114329390Y-61196600D01*
X114281771Y-61244219D01*
X114234152Y-61196600D01*
X114281771Y-61148980D01*
X114281771Y-61244219D01*
D11*
X110416400Y-50033000D02*
X110416400Y-73533000D01*
X134916400Y-50033000D02*
X110416400Y-50033000D01*
X134916400Y-73533000D02*
X134916400Y-50033000D01*
X110416400Y-73533000D02*
X134916400Y-73533000D01*
X106136223Y-97706080D02*
G75*
G03X106136223Y-97706080I-52363J0D01*
G01*
X107053748Y-98858000D02*
X107576252Y-98858000D01*
X107053748Y-100278000D02*
X107576252Y-100278000D01*
X108205748Y-87197000D02*
X108728252Y-87197000D01*
X108205748Y-85777000D02*
X108728252Y-85777000D01*
X108710252Y-91619000D02*
X108187748Y-91619000D01*
X108710252Y-93039000D02*
X108187748Y-93039000D01*
X110863748Y-100278000D02*
X111386252Y-100278000D01*
X110863748Y-98858000D02*
X111386252Y-98858000D01*
X131960252Y-92658000D02*
X131437748Y-92658000D01*
X131960252Y-91238000D02*
X131437748Y-91238000D01*
X128957000Y-105139748D02*
X128957000Y-105662252D01*
X130377000Y-105139748D02*
X130377000Y-105662252D01*
X122293748Y-87555000D02*
X122816252Y-87555000D01*
X122293748Y-88975000D02*
X122816252Y-88975000D01*
X122284748Y-89587000D02*
X122807252Y-89587000D01*
X122284748Y-91007000D02*
X122807252Y-91007000D01*
X128576000Y-89161252D02*
X128576000Y-88638748D01*
X129996000Y-89161252D02*
X129996000Y-88638748D01*
X136635748Y-98881000D02*
X137158252Y-98881000D01*
X136635748Y-97461000D02*
X137158252Y-97461000D01*
X144197000Y-93328748D02*
X144197000Y-93851252D01*
X145617000Y-93328748D02*
X145617000Y-93851252D01*
X134060000Y-88647748D02*
X134060000Y-89170252D01*
X132640000Y-88647748D02*
X132640000Y-89170252D01*
X132028000Y-89152252D02*
X132028000Y-88629748D01*
X130608000Y-89152252D02*
X130608000Y-88629748D01*
X105521000Y-88693000D02*
G75*
G03X104821000Y-87993000I-700000J0D01*
G01*
X104221000Y-87993000D02*
G75*
G03X103521000Y-88693000I0J-700000D01*
G01*
X103521000Y-90093000D02*
G75*
G03X104221000Y-90793000I700000J0D01*
G01*
X104821000Y-90793000D02*
G75*
G03X105521000Y-90093000I0J700000D01*
G01*
X104221000Y-90793000D02*
X104821000Y-90793000D01*
X103521000Y-88693000D02*
X103521000Y-90093000D01*
X104821000Y-87993000D02*
X104221000Y-87993000D01*
X105521000Y-90093000D02*
X105521000Y-88693000D01*
X111268000Y-88723000D02*
X111268000Y-90123000D01*
X111968000Y-90823000D02*
X112568000Y-90823000D01*
X113268000Y-90123000D02*
X113268000Y-88723000D01*
X112568000Y-88023000D02*
X111968000Y-88023000D01*
X111968000Y-88023000D02*
G75*
G03X111268000Y-88723000I0J-700000D01*
G01*
X113268000Y-88723000D02*
G75*
G03X112568000Y-88023000I-700000J0D01*
G01*
X112568000Y-90823000D02*
G75*
G03X113268000Y-90123000I0J700000D01*
G01*
X111268000Y-90123000D02*
G75*
G03X111968000Y-90823000I700000J0D01*
G01*
X131824252Y-85269000D02*
X131301748Y-85269000D01*
X131824252Y-86689000D02*
X131301748Y-86689000D01*
X102922000Y-96772252D02*
X102922000Y-96249748D01*
X104342000Y-96772252D02*
X104342000Y-96249748D01*
X102310000Y-96790252D02*
X102310000Y-96267748D01*
X100890000Y-96790252D02*
X100890000Y-96267748D01*
X110946000Y-96249748D02*
X110946000Y-96772252D01*
X109526000Y-96249748D02*
X109526000Y-96772252D01*
X111558000Y-96249748D02*
X111558000Y-96772252D01*
X112978000Y-96249748D02*
X112978000Y-96772252D01*
X115010000Y-96781252D02*
X115010000Y-96258748D01*
X113590000Y-96781252D02*
X113590000Y-96258748D01*
X131310748Y-100532000D02*
X131833252Y-100532000D01*
X131310748Y-99112000D02*
X131833252Y-99112000D01*
X134926000Y-105662252D02*
X134926000Y-105139748D01*
X136346000Y-105662252D02*
X136346000Y-105139748D01*
X136346000Y-101607252D02*
X136346000Y-101084748D01*
X134926000Y-101607252D02*
X134926000Y-101084748D01*
X104342000Y-83177748D02*
X104342000Y-83700252D01*
X102922000Y-83177748D02*
X102922000Y-83700252D01*
X141588748Y-96318000D02*
X142111252Y-96318000D01*
X141588748Y-97738000D02*
X142111252Y-97738000D01*
X141588748Y-99770000D02*
X142111252Y-99770000D01*
X141588748Y-98350000D02*
X142111252Y-98350000D01*
X135965000Y-82406748D02*
X135965000Y-82929252D01*
X134545000Y-82406748D02*
X134545000Y-82929252D01*
X137997000Y-82938252D02*
X137997000Y-82415748D01*
X136577000Y-82938252D02*
X136577000Y-82415748D01*
X140029000Y-82406748D02*
X140029000Y-82929252D01*
X138609000Y-82406748D02*
X138609000Y-82929252D01*
X144982000Y-88535252D02*
X144982000Y-88012748D01*
X143562000Y-88535252D02*
X143562000Y-88012748D01*
X142950000Y-87994748D02*
X142950000Y-88517252D01*
X141530000Y-87994748D02*
X141530000Y-88517252D01*
X129973000Y-82947252D02*
X129973000Y-82424748D01*
X131393000Y-82947252D02*
X131393000Y-82424748D01*
X132005000Y-82424748D02*
X132005000Y-82947252D01*
X133425000Y-82424748D02*
X133425000Y-82947252D01*
X130799000Y-93259000D02*
X132599000Y-93259000D01*
X132599000Y-96479000D02*
X129649000Y-96479000D01*
X134198000Y-104430000D02*
X134198000Y-107380000D01*
X130978000Y-106230000D02*
X130978000Y-104430000D01*
X138545000Y-90252000D02*
X139020000Y-90252000D01*
X139020000Y-90252000D02*
X139020000Y-89777000D01*
X135775000Y-86532000D02*
X135300000Y-86532000D01*
X135300000Y-86532000D02*
X135300000Y-87007000D01*
X138545000Y-86532000D02*
X139020000Y-86532000D01*
X139020000Y-86532000D02*
X139020000Y-87007000D01*
X135775000Y-90252000D02*
X135300000Y-90252000D01*
X107558000Y-87798000D02*
X109358000Y-87798000D01*
X109358000Y-91018000D02*
X106908000Y-91018000D01*
X124841000Y-91694000D02*
X120396000Y-91694000D01*
X120396000Y-91694000D02*
X120396000Y-98679000D01*
X120396000Y-98679000D02*
X124841000Y-98679000D01*
X124841000Y-98679000D02*
X124841000Y-91694000D01*
X124587000Y-92075000D02*
G75*
G03X124587000Y-92075000I-254000J0D01*
G01*
X147308000Y-77978000D02*
G75*
G03X147308000Y-77978000I-3270000J0D01*
G01*
X144038000Y-74748000D02*
X144038000Y-81208000D01*
X143998000Y-74748000D02*
X143998000Y-81208000D01*
X143958000Y-74748000D02*
X143958000Y-81208000D01*
X143918000Y-74750000D02*
X143918000Y-81206000D01*
X143878000Y-74751000D02*
X143878000Y-81205000D01*
X143838000Y-74754000D02*
X143838000Y-81202000D01*
X143798000Y-74756000D02*
X143798000Y-76938000D01*
X143798000Y-79018000D02*
X143798000Y-81200000D01*
X143758000Y-74760000D02*
X143758000Y-76938000D01*
X143758000Y-79018000D02*
X143758000Y-81196000D01*
X143718000Y-74763000D02*
X143718000Y-76938000D01*
X143718000Y-79018000D02*
X143718000Y-81193000D01*
X143678000Y-74767000D02*
X143678000Y-76938000D01*
X143678000Y-79018000D02*
X143678000Y-81189000D01*
X143638000Y-74772000D02*
X143638000Y-76938000D01*
X143638000Y-79018000D02*
X143638000Y-81184000D01*
X143598000Y-74777000D02*
X143598000Y-76938000D01*
X143598000Y-79018000D02*
X143598000Y-81179000D01*
X143558000Y-74783000D02*
X143558000Y-76938000D01*
X143558000Y-79018000D02*
X143558000Y-81173000D01*
X143518000Y-74789000D02*
X143518000Y-76938000D01*
X143518000Y-79018000D02*
X143518000Y-81167000D01*
X143478000Y-74796000D02*
X143478000Y-76938000D01*
X143478000Y-79018000D02*
X143478000Y-81160000D01*
X143438000Y-74803000D02*
X143438000Y-76938000D01*
X143438000Y-79018000D02*
X143438000Y-81153000D01*
X143398000Y-74811000D02*
X143398000Y-76938000D01*
X143398000Y-79018000D02*
X143398000Y-81145000D01*
X143358000Y-74819000D02*
X143358000Y-76938000D01*
X143358000Y-79018000D02*
X143358000Y-81137000D01*
X143317000Y-74828000D02*
X143317000Y-76938000D01*
X143317000Y-79018000D02*
X143317000Y-81128000D01*
X143277000Y-74837000D02*
X143277000Y-76938000D01*
X143277000Y-79018000D02*
X143277000Y-81119000D01*
X143237000Y-74847000D02*
X143237000Y-76938000D01*
X143237000Y-79018000D02*
X143237000Y-81109000D01*
X143197000Y-74857000D02*
X143197000Y-76938000D01*
X143197000Y-79018000D02*
X143197000Y-81099000D01*
X143157000Y-74868000D02*
X143157000Y-76938000D01*
X143157000Y-79018000D02*
X143157000Y-81088000D01*
X143117000Y-74880000D02*
X143117000Y-76938000D01*
X143117000Y-79018000D02*
X143117000Y-81076000D01*
X143077000Y-74892000D02*
X143077000Y-76938000D01*
X143077000Y-79018000D02*
X143077000Y-81064000D01*
X143037000Y-74904000D02*
X143037000Y-76938000D01*
X143037000Y-79018000D02*
X143037000Y-81052000D01*
X142997000Y-74917000D02*
X142997000Y-76938000D01*
X142997000Y-79018000D02*
X142997000Y-81039000D01*
X142957000Y-74931000D02*
X142957000Y-76938000D01*
X142957000Y-79018000D02*
X142957000Y-81025000D01*
X142917000Y-74945000D02*
X142917000Y-76938000D01*
X142917000Y-79018000D02*
X142917000Y-81011000D01*
X142877000Y-74960000D02*
X142877000Y-76938000D01*
X142877000Y-79018000D02*
X142877000Y-80996000D01*
X142837000Y-74976000D02*
X142837000Y-76938000D01*
X142837000Y-79018000D02*
X142837000Y-80980000D01*
X142797000Y-74992000D02*
X142797000Y-76938000D01*
X142797000Y-79018000D02*
X142797000Y-80964000D01*
X142757000Y-75008000D02*
X142757000Y-76938000D01*
X142757000Y-79018000D02*
X142757000Y-80948000D01*
X142717000Y-75026000D02*
X142717000Y-76938000D01*
X142717000Y-79018000D02*
X142717000Y-80930000D01*
X142677000Y-75044000D02*
X142677000Y-76938000D01*
X142677000Y-79018000D02*
X142677000Y-80912000D01*
X142637000Y-75062000D02*
X142637000Y-76938000D01*
X142637000Y-79018000D02*
X142637000Y-80894000D01*
X142597000Y-75082000D02*
X142597000Y-76938000D01*
X142597000Y-79018000D02*
X142597000Y-80874000D01*
X142557000Y-75102000D02*
X142557000Y-76938000D01*
X142557000Y-79018000D02*
X142557000Y-80854000D01*
X142517000Y-75122000D02*
X142517000Y-76938000D01*
X142517000Y-79018000D02*
X142517000Y-80834000D01*
X142477000Y-75144000D02*
X142477000Y-76938000D01*
X142477000Y-79018000D02*
X142477000Y-80812000D01*
X142437000Y-75166000D02*
X142437000Y-76938000D01*
X142437000Y-79018000D02*
X142437000Y-80790000D01*
X142397000Y-75188000D02*
X142397000Y-76938000D01*
X142397000Y-79018000D02*
X142397000Y-80768000D01*
X142357000Y-75212000D02*
X142357000Y-76938000D01*
X142357000Y-79018000D02*
X142357000Y-80744000D01*
X142317000Y-75236000D02*
X142317000Y-76938000D01*
X142317000Y-79018000D02*
X142317000Y-80720000D01*
X142277000Y-75262000D02*
X142277000Y-76938000D01*
X142277000Y-79018000D02*
X142277000Y-80694000D01*
X142237000Y-75288000D02*
X142237000Y-76938000D01*
X142237000Y-79018000D02*
X142237000Y-80668000D01*
X142197000Y-75314000D02*
X142197000Y-76938000D01*
X142197000Y-79018000D02*
X142197000Y-80642000D01*
X142157000Y-75342000D02*
X142157000Y-76938000D01*
X142157000Y-79018000D02*
X142157000Y-80614000D01*
X142117000Y-75371000D02*
X142117000Y-76938000D01*
X142117000Y-79018000D02*
X142117000Y-80585000D01*
X142077000Y-75400000D02*
X142077000Y-76938000D01*
X142077000Y-79018000D02*
X142077000Y-80556000D01*
X142037000Y-75430000D02*
X142037000Y-76938000D01*
X142037000Y-79018000D02*
X142037000Y-80526000D01*
X141997000Y-75462000D02*
X141997000Y-76938000D01*
X141997000Y-79018000D02*
X141997000Y-80494000D01*
X141957000Y-75494000D02*
X141957000Y-76938000D01*
X141957000Y-79018000D02*
X141957000Y-80462000D01*
X141917000Y-75528000D02*
X141917000Y-76938000D01*
X141917000Y-79018000D02*
X141917000Y-80428000D01*
X141877000Y-75562000D02*
X141877000Y-76938000D01*
X141877000Y-79018000D02*
X141877000Y-80394000D01*
X141837000Y-75598000D02*
X141837000Y-76938000D01*
X141837000Y-79018000D02*
X141837000Y-80358000D01*
X141797000Y-75635000D02*
X141797000Y-76938000D01*
X141797000Y-79018000D02*
X141797000Y-80321000D01*
X141757000Y-75673000D02*
X141757000Y-76938000D01*
X141757000Y-79018000D02*
X141757000Y-80283000D01*
X141717000Y-75713000D02*
X141717000Y-80243000D01*
X141677000Y-75754000D02*
X141677000Y-80202000D01*
X141637000Y-75796000D02*
X141637000Y-80160000D01*
X141597000Y-75841000D02*
X141597000Y-80115000D01*
X141557000Y-75886000D02*
X141557000Y-80070000D01*
X141517000Y-75934000D02*
X141517000Y-80022000D01*
X141477000Y-75983000D02*
X141477000Y-79973000D01*
X141437000Y-76034000D02*
X141437000Y-79922000D01*
X141397000Y-76088000D02*
X141397000Y-79868000D01*
X141357000Y-76144000D02*
X141357000Y-79812000D01*
X141317000Y-76202000D02*
X141317000Y-79754000D01*
X141277000Y-76264000D02*
X141277000Y-79692000D01*
X141237000Y-76328000D02*
X141237000Y-79628000D01*
X141197000Y-76397000D02*
X141197000Y-79559000D01*
X141157000Y-76469000D02*
X141157000Y-79487000D01*
X141117000Y-76546000D02*
X141117000Y-79410000D01*
X141077000Y-76628000D02*
X141077000Y-79328000D01*
X141037000Y-76716000D02*
X141037000Y-79240000D01*
X140997000Y-76813000D02*
X140997000Y-79143000D01*
X140957000Y-76919000D02*
X140957000Y-79037000D01*
X140917000Y-77038000D02*
X140917000Y-78918000D01*
X140877000Y-77176000D02*
X140877000Y-78780000D01*
X140837000Y-77345000D02*
X140837000Y-78611000D01*
X140797000Y-77576000D02*
X140797000Y-78380000D01*
X147538241Y-76139000D02*
X146908241Y-76139000D01*
X147223241Y-75824000D02*
X147223241Y-76454000D01*
X109062759Y-80132000D02*
X109062759Y-79502000D01*
X108747759Y-79817000D02*
X109377759Y-79817000D01*
X115489000Y-78380000D02*
X115489000Y-77576000D01*
X115449000Y-78611000D02*
X115449000Y-77345000D01*
X115409000Y-78780000D02*
X115409000Y-77176000D01*
X115369000Y-78918000D02*
X115369000Y-77038000D01*
X115329000Y-79037000D02*
X115329000Y-76919000D01*
X115289000Y-79143000D02*
X115289000Y-76813000D01*
X115249000Y-79240000D02*
X115249000Y-76716000D01*
X115209000Y-79328000D02*
X115209000Y-76628000D01*
X115169000Y-79410000D02*
X115169000Y-76546000D01*
X115129000Y-79487000D02*
X115129000Y-76469000D01*
X115089000Y-79559000D02*
X115089000Y-76397000D01*
X115049000Y-79628000D02*
X115049000Y-76328000D01*
X115009000Y-79692000D02*
X115009000Y-76264000D01*
X114969000Y-79754000D02*
X114969000Y-76202000D01*
X114929000Y-79812000D02*
X114929000Y-76144000D01*
X114889000Y-79868000D02*
X114889000Y-76088000D01*
X114849000Y-79922000D02*
X114849000Y-76034000D01*
X114809000Y-79973000D02*
X114809000Y-75983000D01*
X114769000Y-80022000D02*
X114769000Y-75934000D01*
X114729000Y-80070000D02*
X114729000Y-75886000D01*
X114689000Y-80115000D02*
X114689000Y-75841000D01*
X114649000Y-80160000D02*
X114649000Y-75796000D01*
X114609000Y-80202000D02*
X114609000Y-75754000D01*
X114569000Y-80243000D02*
X114569000Y-75713000D01*
X114529000Y-76938000D02*
X114529000Y-75673000D01*
X114529000Y-80283000D02*
X114529000Y-79018000D01*
X114489000Y-76938000D02*
X114489000Y-75635000D01*
X114489000Y-80321000D02*
X114489000Y-79018000D01*
X114449000Y-76938000D02*
X114449000Y-75598000D01*
X114449000Y-80358000D02*
X114449000Y-79018000D01*
X114409000Y-76938000D02*
X114409000Y-75562000D01*
X114409000Y-80394000D02*
X114409000Y-79018000D01*
X114369000Y-76938000D02*
X114369000Y-75528000D01*
X114369000Y-80428000D02*
X114369000Y-79018000D01*
X114329000Y-76938000D02*
X114329000Y-75494000D01*
X114329000Y-80462000D02*
X114329000Y-79018000D01*
X114289000Y-76938000D02*
X114289000Y-75462000D01*
X114289000Y-80494000D02*
X114289000Y-79018000D01*
X114249000Y-76938000D02*
X114249000Y-75430000D01*
X114249000Y-80526000D02*
X114249000Y-79018000D01*
X114209000Y-76938000D02*
X114209000Y-75400000D01*
X114209000Y-80556000D02*
X114209000Y-79018000D01*
X114169000Y-76938000D02*
X114169000Y-75371000D01*
X114169000Y-80585000D02*
X114169000Y-79018000D01*
X114129000Y-76938000D02*
X114129000Y-75342000D01*
X114129000Y-80614000D02*
X114129000Y-79018000D01*
X114089000Y-76938000D02*
X114089000Y-75314000D01*
X114089000Y-80642000D02*
X114089000Y-79018000D01*
X114049000Y-76938000D02*
X114049000Y-75288000D01*
X114049000Y-80668000D02*
X114049000Y-79018000D01*
X114009000Y-76938000D02*
X114009000Y-75262000D01*
X114009000Y-80694000D02*
X114009000Y-79018000D01*
X113969000Y-76938000D02*
X113969000Y-75236000D01*
X113969000Y-80720000D02*
X113969000Y-79018000D01*
X113929000Y-76938000D02*
X113929000Y-75212000D01*
X113929000Y-80744000D02*
X113929000Y-79018000D01*
X113889000Y-76938000D02*
X113889000Y-75188000D01*
X113889000Y-80768000D02*
X113889000Y-79018000D01*
X113849000Y-76938000D02*
X113849000Y-75166000D01*
X113849000Y-80790000D02*
X113849000Y-79018000D01*
X113809000Y-76938000D02*
X113809000Y-75144000D01*
X113809000Y-80812000D02*
X113809000Y-79018000D01*
X113769000Y-76938000D02*
X113769000Y-75122000D01*
X113769000Y-80834000D02*
X113769000Y-79018000D01*
X113729000Y-76938000D02*
X113729000Y-75102000D01*
X113729000Y-80854000D02*
X113729000Y-79018000D01*
X113689000Y-76938000D02*
X113689000Y-75082000D01*
X113689000Y-80874000D02*
X113689000Y-79018000D01*
X113649000Y-76938000D02*
X113649000Y-75062000D01*
X113649000Y-80894000D02*
X113649000Y-79018000D01*
X113609000Y-76938000D02*
X113609000Y-75044000D01*
X113609000Y-80912000D02*
X113609000Y-79018000D01*
X113569000Y-76938000D02*
X113569000Y-75026000D01*
X113569000Y-80930000D02*
X113569000Y-79018000D01*
X113529000Y-76938000D02*
X113529000Y-75008000D01*
X113529000Y-80948000D02*
X113529000Y-79018000D01*
X113489000Y-76938000D02*
X113489000Y-74992000D01*
X113489000Y-80964000D02*
X113489000Y-79018000D01*
X113449000Y-76938000D02*
X113449000Y-74976000D01*
X113449000Y-80980000D02*
X113449000Y-79018000D01*
X113409000Y-76938000D02*
X113409000Y-74960000D01*
X113409000Y-80996000D02*
X113409000Y-79018000D01*
X113369000Y-76938000D02*
X113369000Y-74945000D01*
X113369000Y-81011000D02*
X113369000Y-79018000D01*
X113329000Y-76938000D02*
X113329000Y-74931000D01*
X113329000Y-81025000D02*
X113329000Y-79018000D01*
X113289000Y-76938000D02*
X113289000Y-74917000D01*
X113289000Y-81039000D02*
X113289000Y-79018000D01*
X113249000Y-76938000D02*
X113249000Y-74904000D01*
X113249000Y-81052000D02*
X113249000Y-79018000D01*
X113209000Y-76938000D02*
X113209000Y-74892000D01*
X113209000Y-81064000D02*
X113209000Y-79018000D01*
X113169000Y-76938000D02*
X113169000Y-74880000D01*
X113169000Y-81076000D02*
X113169000Y-79018000D01*
X113129000Y-76938000D02*
X113129000Y-74868000D01*
X113129000Y-81088000D02*
X113129000Y-79018000D01*
X113089000Y-76938000D02*
X113089000Y-74857000D01*
X113089000Y-81099000D02*
X113089000Y-79018000D01*
X113049000Y-76938000D02*
X113049000Y-74847000D01*
X113049000Y-81109000D02*
X113049000Y-79018000D01*
X113009000Y-76938000D02*
X113009000Y-74837000D01*
X113009000Y-81119000D02*
X113009000Y-79018000D01*
X112969000Y-76938000D02*
X112969000Y-74828000D01*
X112969000Y-81128000D02*
X112969000Y-79018000D01*
X112928000Y-76938000D02*
X112928000Y-74819000D01*
X112928000Y-81137000D02*
X112928000Y-79018000D01*
X112888000Y-76938000D02*
X112888000Y-74811000D01*
X112888000Y-81145000D02*
X112888000Y-79018000D01*
X112848000Y-76938000D02*
X112848000Y-74803000D01*
X112848000Y-81153000D02*
X112848000Y-79018000D01*
X112808000Y-76938000D02*
X112808000Y-74796000D01*
X112808000Y-81160000D02*
X112808000Y-79018000D01*
X112768000Y-76938000D02*
X112768000Y-74789000D01*
X112768000Y-81167000D02*
X112768000Y-79018000D01*
X112728000Y-76938000D02*
X112728000Y-74783000D01*
X112728000Y-81173000D02*
X112728000Y-79018000D01*
X112688000Y-76938000D02*
X112688000Y-74777000D01*
X112688000Y-81179000D02*
X112688000Y-79018000D01*
X112648000Y-76938000D02*
X112648000Y-74772000D01*
X112648000Y-81184000D02*
X112648000Y-79018000D01*
X112608000Y-76938000D02*
X112608000Y-74767000D01*
X112608000Y-81189000D02*
X112608000Y-79018000D01*
X112568000Y-76938000D02*
X112568000Y-74763000D01*
X112568000Y-81193000D02*
X112568000Y-79018000D01*
X112528000Y-76938000D02*
X112528000Y-74760000D01*
X112528000Y-81196000D02*
X112528000Y-79018000D01*
X112488000Y-76938000D02*
X112488000Y-74756000D01*
X112488000Y-81200000D02*
X112488000Y-79018000D01*
X112448000Y-81202000D02*
X112448000Y-74754000D01*
X112408000Y-81205000D02*
X112408000Y-74751000D01*
X112368000Y-81206000D02*
X112368000Y-74750000D01*
X112328000Y-81208000D02*
X112328000Y-74748000D01*
X112288000Y-81208000D02*
X112288000Y-74748000D01*
X112248000Y-81208000D02*
X112248000Y-74748000D01*
X115518000Y-77978000D02*
G75*
G03X115518000Y-77978000I-3270000J0D01*
G01*
X143009252Y-83514000D02*
X142486748Y-83514000D01*
X143009252Y-82094000D02*
X142486748Y-82094000D01*
X131310748Y-97080000D02*
X131833252Y-97080000D01*
X131310748Y-98500000D02*
X131833252Y-98500000D01*
X136958000Y-105671252D02*
X136958000Y-105148748D01*
X138378000Y-105671252D02*
X138378000Y-105148748D01*
X147835252Y-88698000D02*
X147312748Y-88698000D01*
X147835252Y-90118000D02*
X147312748Y-90118000D01*
X117077748Y-89460000D02*
X117600252Y-89460000D01*
X117077748Y-90880000D02*
X117600252Y-90880000D01*
X138378000Y-101598252D02*
X138378000Y-101075748D01*
X136958000Y-101598252D02*
X136958000Y-101075748D01*
X149184000Y-84952000D02*
X149184000Y-86752000D01*
X145964000Y-86752000D02*
X145964000Y-83802000D01*
D10*
X106933952Y-94976190D02*
X106933952Y-95380952D01*
X106910142Y-95428571D01*
X106886333Y-95452380D01*
X106838714Y-95476190D01*
X106743476Y-95476190D01*
X106695857Y-95452380D01*
X106672047Y-95428571D01*
X106648238Y-95380952D01*
X106648238Y-94976190D01*
X106148238Y-95476190D02*
X106433952Y-95476190D01*
X106291095Y-95476190D02*
X106291095Y-94976190D01*
X106338714Y-95047619D01*
X106386333Y-95095238D01*
X106433952Y-95119047D01*
X107398333Y-101143571D02*
X107422142Y-101167380D01*
X107493571Y-101191190D01*
X107541190Y-101191190D01*
X107612619Y-101167380D01*
X107660238Y-101119761D01*
X107684047Y-101072142D01*
X107707857Y-100976904D01*
X107707857Y-100905476D01*
X107684047Y-100810238D01*
X107660238Y-100762619D01*
X107612619Y-100715000D01*
X107541190Y-100691190D01*
X107493571Y-100691190D01*
X107422142Y-100715000D01*
X107398333Y-100738809D01*
X106922142Y-101191190D02*
X107207857Y-101191190D01*
X107065000Y-101191190D02*
X107065000Y-100691190D01*
X107112619Y-100762619D01*
X107160238Y-100810238D01*
X107207857Y-100834047D01*
X108550333Y-85268571D02*
X108574142Y-85292380D01*
X108645571Y-85316190D01*
X108693190Y-85316190D01*
X108764619Y-85292380D01*
X108812238Y-85244761D01*
X108836047Y-85197142D01*
X108859857Y-85101904D01*
X108859857Y-85030476D01*
X108836047Y-84935238D01*
X108812238Y-84887619D01*
X108764619Y-84840000D01*
X108693190Y-84816190D01*
X108645571Y-84816190D01*
X108574142Y-84840000D01*
X108550333Y-84863809D01*
X108359857Y-84863809D02*
X108336047Y-84840000D01*
X108288428Y-84816190D01*
X108169380Y-84816190D01*
X108121761Y-84840000D01*
X108097952Y-84863809D01*
X108074142Y-84911428D01*
X108074142Y-84959047D01*
X108097952Y-85030476D01*
X108383666Y-85316190D01*
X108074142Y-85316190D01*
X110954333Y-92634571D02*
X110978142Y-92658380D01*
X111049571Y-92682190D01*
X111097190Y-92682190D01*
X111168619Y-92658380D01*
X111216238Y-92610761D01*
X111240047Y-92563142D01*
X111263857Y-92467904D01*
X111263857Y-92396476D01*
X111240047Y-92301238D01*
X111216238Y-92253619D01*
X111168619Y-92206000D01*
X111097190Y-92182190D01*
X111049571Y-92182190D01*
X110978142Y-92206000D01*
X110954333Y-92229809D01*
X110787666Y-92182190D02*
X110478142Y-92182190D01*
X110644809Y-92372666D01*
X110573380Y-92372666D01*
X110525761Y-92396476D01*
X110501952Y-92420285D01*
X110478142Y-92467904D01*
X110478142Y-92586952D01*
X110501952Y-92634571D01*
X110525761Y-92658380D01*
X110573380Y-92682190D01*
X110716238Y-92682190D01*
X110763857Y-92658380D01*
X110787666Y-92634571D01*
X111208333Y-101143571D02*
X111232142Y-101167380D01*
X111303571Y-101191190D01*
X111351190Y-101191190D01*
X111422619Y-101167380D01*
X111470238Y-101119761D01*
X111494047Y-101072142D01*
X111517857Y-100976904D01*
X111517857Y-100905476D01*
X111494047Y-100810238D01*
X111470238Y-100762619D01*
X111422619Y-100715000D01*
X111351190Y-100691190D01*
X111303571Y-100691190D01*
X111232142Y-100715000D01*
X111208333Y-100738809D01*
X110779761Y-100857857D02*
X110779761Y-101191190D01*
X110898809Y-100667380D02*
X111017857Y-101024523D01*
X110708333Y-101024523D01*
X134433428Y-92126571D02*
X134457238Y-92150380D01*
X134528666Y-92174190D01*
X134576285Y-92174190D01*
X134647714Y-92150380D01*
X134695333Y-92102761D01*
X134719142Y-92055142D01*
X134742952Y-91959904D01*
X134742952Y-91888476D01*
X134719142Y-91793238D01*
X134695333Y-91745619D01*
X134647714Y-91698000D01*
X134576285Y-91674190D01*
X134528666Y-91674190D01*
X134457238Y-91698000D01*
X134433428Y-91721809D01*
X133957238Y-92174190D02*
X134242952Y-92174190D01*
X134100095Y-92174190D02*
X134100095Y-91674190D01*
X134147714Y-91745619D01*
X134195333Y-91793238D01*
X134242952Y-91817047D01*
X133481047Y-92174190D02*
X133766761Y-92174190D01*
X133623904Y-92174190D02*
X133623904Y-91674190D01*
X133671523Y-91745619D01*
X133719142Y-91793238D01*
X133766761Y-91817047D01*
X129861428Y-107856571D02*
X129885238Y-107880380D01*
X129956666Y-107904190D01*
X130004285Y-107904190D01*
X130075714Y-107880380D01*
X130123333Y-107832761D01*
X130147142Y-107785142D01*
X130170952Y-107689904D01*
X130170952Y-107618476D01*
X130147142Y-107523238D01*
X130123333Y-107475619D01*
X130075714Y-107428000D01*
X130004285Y-107404190D01*
X129956666Y-107404190D01*
X129885238Y-107428000D01*
X129861428Y-107451809D01*
X129385238Y-107904190D02*
X129670952Y-107904190D01*
X129528095Y-107904190D02*
X129528095Y-107404190D01*
X129575714Y-107475619D01*
X129623333Y-107523238D01*
X129670952Y-107547047D01*
X129194761Y-107451809D02*
X129170952Y-107428000D01*
X129123333Y-107404190D01*
X129004285Y-107404190D01*
X128956666Y-107428000D01*
X128932857Y-107451809D01*
X128909047Y-107499428D01*
X128909047Y-107547047D01*
X128932857Y-107618476D01*
X129218571Y-107904190D01*
X128909047Y-107904190D01*
X120463428Y-88443571D02*
X120487238Y-88467380D01*
X120558666Y-88491190D01*
X120606285Y-88491190D01*
X120677714Y-88467380D01*
X120725333Y-88419761D01*
X120749142Y-88372142D01*
X120772952Y-88276904D01*
X120772952Y-88205476D01*
X120749142Y-88110238D01*
X120725333Y-88062619D01*
X120677714Y-88015000D01*
X120606285Y-87991190D01*
X120558666Y-87991190D01*
X120487238Y-88015000D01*
X120463428Y-88038809D01*
X119987238Y-88491190D02*
X120272952Y-88491190D01*
X120130095Y-88491190D02*
X120130095Y-87991190D01*
X120177714Y-88062619D01*
X120225333Y-88110238D01*
X120272952Y-88134047D01*
X119820571Y-87991190D02*
X119511047Y-87991190D01*
X119677714Y-88181666D01*
X119606285Y-88181666D01*
X119558666Y-88205476D01*
X119534857Y-88229285D01*
X119511047Y-88276904D01*
X119511047Y-88395952D01*
X119534857Y-88443571D01*
X119558666Y-88467380D01*
X119606285Y-88491190D01*
X119749142Y-88491190D01*
X119796761Y-88467380D01*
X119820571Y-88443571D01*
X120463428Y-90475571D02*
X120487238Y-90499380D01*
X120558666Y-90523190D01*
X120606285Y-90523190D01*
X120677714Y-90499380D01*
X120725333Y-90451761D01*
X120749142Y-90404142D01*
X120772952Y-90308904D01*
X120772952Y-90237476D01*
X120749142Y-90142238D01*
X120725333Y-90094619D01*
X120677714Y-90047000D01*
X120606285Y-90023190D01*
X120558666Y-90023190D01*
X120487238Y-90047000D01*
X120463428Y-90070809D01*
X119987238Y-90523190D02*
X120272952Y-90523190D01*
X120130095Y-90523190D02*
X120130095Y-90023190D01*
X120177714Y-90094619D01*
X120225333Y-90142238D01*
X120272952Y-90166047D01*
X119558666Y-90189857D02*
X119558666Y-90523190D01*
X119677714Y-89999380D02*
X119796761Y-90356523D01*
X119487238Y-90356523D01*
X126416571Y-88102380D02*
X126440380Y-88078571D01*
X126464190Y-88007142D01*
X126464190Y-87959523D01*
X126440380Y-87888095D01*
X126392761Y-87840476D01*
X126345142Y-87816666D01*
X126249904Y-87792857D01*
X126178476Y-87792857D01*
X126083238Y-87816666D01*
X126035619Y-87840476D01*
X125988000Y-87888095D01*
X125964190Y-87959523D01*
X125964190Y-88007142D01*
X125988000Y-88078571D01*
X126011809Y-88102380D01*
X126202285Y-88483333D02*
X126226095Y-88554761D01*
X126249904Y-88578571D01*
X126297523Y-88602380D01*
X126368952Y-88602380D01*
X126416571Y-88578571D01*
X126440380Y-88554761D01*
X126464190Y-88507142D01*
X126464190Y-88316666D01*
X125964190Y-88316666D01*
X125964190Y-88483333D01*
X125988000Y-88530952D01*
X126011809Y-88554761D01*
X126059428Y-88578571D01*
X126107047Y-88578571D01*
X126154666Y-88554761D01*
X126178476Y-88530952D01*
X126202285Y-88483333D01*
X126202285Y-88316666D01*
X126226095Y-88911904D02*
X126464190Y-88911904D01*
X125964190Y-88745238D02*
X126226095Y-88911904D01*
X125964190Y-89078571D01*
X126464190Y-89245238D02*
X125964190Y-89245238D01*
X125964190Y-89435714D01*
X125988000Y-89483333D01*
X126011809Y-89507142D01*
X126059428Y-89530952D01*
X126130857Y-89530952D01*
X126178476Y-89507142D01*
X126202285Y-89483333D01*
X126226095Y-89435714D01*
X126226095Y-89245238D01*
X126464190Y-90007142D02*
X126464190Y-89721428D01*
X126464190Y-89864285D02*
X125964190Y-89864285D01*
X126035619Y-89816666D01*
X126083238Y-89769047D01*
X126107047Y-89721428D01*
X137361285Y-99999571D02*
X137385095Y-100023380D01*
X137456523Y-100047190D01*
X137504142Y-100047190D01*
X137575571Y-100023380D01*
X137623190Y-99975761D01*
X137647000Y-99928142D01*
X137670809Y-99832904D01*
X137670809Y-99761476D01*
X137647000Y-99666238D01*
X137623190Y-99618619D01*
X137575571Y-99571000D01*
X137504142Y-99547190D01*
X137456523Y-99547190D01*
X137385095Y-99571000D01*
X137361285Y-99594809D01*
X137147000Y-100047190D02*
X137147000Y-99547190D01*
X136908904Y-100047190D02*
X136908904Y-99547190D01*
X136623190Y-100047190D01*
X136623190Y-99547190D01*
X136123190Y-100047190D02*
X136408904Y-100047190D01*
X136266047Y-100047190D02*
X136266047Y-99547190D01*
X136313666Y-99618619D01*
X136361285Y-99666238D01*
X136408904Y-99690047D01*
X145704619Y-91364571D02*
X145728428Y-91388380D01*
X145799857Y-91412190D01*
X145847476Y-91412190D01*
X145918904Y-91388380D01*
X145966523Y-91340761D01*
X145990333Y-91293142D01*
X146014142Y-91197904D01*
X146014142Y-91126476D01*
X145990333Y-91031238D01*
X145966523Y-90983619D01*
X145918904Y-90936000D01*
X145847476Y-90912190D01*
X145799857Y-90912190D01*
X145728428Y-90936000D01*
X145704619Y-90959809D01*
X145395095Y-90912190D02*
X145299857Y-90912190D01*
X145252238Y-90936000D01*
X145204619Y-90983619D01*
X145180809Y-91078857D01*
X145180809Y-91245523D01*
X145204619Y-91340761D01*
X145252238Y-91388380D01*
X145299857Y-91412190D01*
X145395095Y-91412190D01*
X145442714Y-91388380D01*
X145490333Y-91340761D01*
X145514142Y-91245523D01*
X145514142Y-91078857D01*
X145490333Y-90983619D01*
X145442714Y-90936000D01*
X145395095Y-90912190D01*
X144966523Y-90912190D02*
X144966523Y-91316952D01*
X144942714Y-91364571D01*
X144918904Y-91388380D01*
X144871285Y-91412190D01*
X144776047Y-91412190D01*
X144728428Y-91388380D01*
X144704619Y-91364571D01*
X144680809Y-91316952D01*
X144680809Y-90912190D01*
X144514142Y-90912190D02*
X144228428Y-90912190D01*
X144371285Y-91412190D02*
X144371285Y-90912190D01*
X143799857Y-91412190D02*
X144085571Y-91412190D01*
X143942714Y-91412190D02*
X143942714Y-90912190D01*
X143990333Y-90983619D01*
X144037952Y-91031238D01*
X144085571Y-91055047D01*
X127940571Y-88126190D02*
X127964380Y-88102380D01*
X127988190Y-88030952D01*
X127988190Y-87983333D01*
X127964380Y-87911904D01*
X127916761Y-87864285D01*
X127869142Y-87840476D01*
X127773904Y-87816666D01*
X127702476Y-87816666D01*
X127607238Y-87840476D01*
X127559619Y-87864285D01*
X127512000Y-87911904D01*
X127488190Y-87983333D01*
X127488190Y-88030952D01*
X127512000Y-88102380D01*
X127535809Y-88126190D01*
X127988190Y-88626190D02*
X127750095Y-88459523D01*
X127988190Y-88340476D02*
X127488190Y-88340476D01*
X127488190Y-88530952D01*
X127512000Y-88578571D01*
X127535809Y-88602380D01*
X127583428Y-88626190D01*
X127654857Y-88626190D01*
X127702476Y-88602380D01*
X127726285Y-88578571D01*
X127750095Y-88530952D01*
X127750095Y-88340476D01*
X127726285Y-88840476D02*
X127726285Y-89007142D01*
X127988190Y-89078571D02*
X127988190Y-88840476D01*
X127488190Y-88840476D01*
X127488190Y-89078571D01*
X127726285Y-89459523D02*
X127726285Y-89292857D01*
X127988190Y-89292857D02*
X127488190Y-89292857D01*
X127488190Y-89530952D01*
X127988190Y-89983333D02*
X127988190Y-89697619D01*
X127988190Y-89840476D02*
X127488190Y-89840476D01*
X127559619Y-89792857D01*
X127607238Y-89745238D01*
X127631047Y-89697619D01*
X127178571Y-88130190D02*
X127202380Y-88106380D01*
X127226190Y-88034952D01*
X127226190Y-87987333D01*
X127202380Y-87915904D01*
X127154761Y-87868285D01*
X127107142Y-87844476D01*
X127011904Y-87820666D01*
X126940476Y-87820666D01*
X126845238Y-87844476D01*
X126797619Y-87868285D01*
X126750000Y-87915904D01*
X126726190Y-87987333D01*
X126726190Y-88034952D01*
X126750000Y-88106380D01*
X126773809Y-88130190D01*
X127202380Y-88320666D02*
X127226190Y-88392095D01*
X127226190Y-88511142D01*
X127202380Y-88558761D01*
X127178571Y-88582571D01*
X127130952Y-88606380D01*
X127083333Y-88606380D01*
X127035714Y-88582571D01*
X127011904Y-88558761D01*
X126988095Y-88511142D01*
X126964285Y-88415904D01*
X126940476Y-88368285D01*
X126916666Y-88344476D01*
X126869047Y-88320666D01*
X126821428Y-88320666D01*
X126773809Y-88344476D01*
X126750000Y-88368285D01*
X126726190Y-88415904D01*
X126726190Y-88534952D01*
X126750000Y-88606380D01*
X126726190Y-88749238D02*
X126726190Y-89034952D01*
X127226190Y-88892095D02*
X126726190Y-88892095D01*
X126726190Y-89296857D02*
X126726190Y-89392095D01*
X126750000Y-89439714D01*
X126797619Y-89487333D01*
X126892857Y-89511142D01*
X127059523Y-89511142D01*
X127154761Y-89487333D01*
X127202380Y-89439714D01*
X127226190Y-89392095D01*
X127226190Y-89296857D01*
X127202380Y-89249238D01*
X127154761Y-89201619D01*
X127059523Y-89177809D01*
X126892857Y-89177809D01*
X126797619Y-89201619D01*
X126750000Y-89249238D01*
X126726190Y-89296857D01*
X127226190Y-90011142D02*
X126988095Y-89844476D01*
X127226190Y-89725428D02*
X126726190Y-89725428D01*
X126726190Y-89915904D01*
X126750000Y-89963523D01*
X126773809Y-89987333D01*
X126821428Y-90011142D01*
X126892857Y-90011142D01*
X126940476Y-89987333D01*
X126964285Y-89963523D01*
X126988095Y-89915904D01*
X126988095Y-89725428D01*
X127226190Y-90487333D02*
X127226190Y-90201619D01*
X127226190Y-90344476D02*
X126726190Y-90344476D01*
X126797619Y-90296857D01*
X126845238Y-90249238D01*
X126869047Y-90201619D01*
X104937666Y-91293190D02*
X104937666Y-91650333D01*
X104961476Y-91721761D01*
X105009095Y-91769380D01*
X105080523Y-91793190D01*
X105128142Y-91793190D01*
X104699571Y-91793190D02*
X104699571Y-91293190D01*
X104509095Y-91293190D01*
X104461476Y-91317000D01*
X104437666Y-91340809D01*
X104413857Y-91388428D01*
X104413857Y-91459857D01*
X104437666Y-91507476D01*
X104461476Y-91531285D01*
X104509095Y-91555095D01*
X104699571Y-91555095D01*
X103937666Y-91793190D02*
X104223380Y-91793190D01*
X104080523Y-91793190D02*
X104080523Y-91293190D01*
X104128142Y-91364619D01*
X104175761Y-91412238D01*
X104223380Y-91436047D01*
X112811666Y-91293190D02*
X112811666Y-91650333D01*
X112835476Y-91721761D01*
X112883095Y-91769380D01*
X112954523Y-91793190D01*
X113002142Y-91793190D01*
X112573571Y-91793190D02*
X112573571Y-91293190D01*
X112383095Y-91293190D01*
X112335476Y-91317000D01*
X112311666Y-91340809D01*
X112287857Y-91388428D01*
X112287857Y-91459857D01*
X112311666Y-91507476D01*
X112335476Y-91531285D01*
X112383095Y-91555095D01*
X112573571Y-91555095D01*
X112097380Y-91340809D02*
X112073571Y-91317000D01*
X112025952Y-91293190D01*
X111906904Y-91293190D01*
X111859285Y-91317000D01*
X111835476Y-91340809D01*
X111811666Y-91388428D01*
X111811666Y-91436047D01*
X111835476Y-91507476D01*
X112121190Y-91793190D01*
X111811666Y-91793190D01*
X138894333Y-92047190D02*
X139132428Y-92047190D01*
X139132428Y-91547190D01*
X138465761Y-92047190D02*
X138751476Y-92047190D01*
X138608619Y-92047190D02*
X138608619Y-91547190D01*
X138656238Y-91618619D01*
X138703857Y-91666238D01*
X138751476Y-91690047D01*
X142831333Y-91539190D02*
X143069428Y-91539190D01*
X143069428Y-91039190D01*
X142688476Y-91086809D02*
X142664666Y-91063000D01*
X142617047Y-91039190D01*
X142498000Y-91039190D01*
X142450380Y-91063000D01*
X142426571Y-91086809D01*
X142402761Y-91134428D01*
X142402761Y-91182047D01*
X142426571Y-91253476D01*
X142712285Y-91539190D01*
X142402761Y-91539190D01*
X129242333Y-86205190D02*
X129409000Y-85967095D01*
X129528047Y-86205190D02*
X129528047Y-85705190D01*
X129337571Y-85705190D01*
X129289952Y-85729000D01*
X129266142Y-85752809D01*
X129242333Y-85800428D01*
X129242333Y-85871857D01*
X129266142Y-85919476D01*
X129289952Y-85943285D01*
X129337571Y-85967095D01*
X129528047Y-85967095D01*
X128766142Y-86205190D02*
X129051857Y-86205190D01*
X128909000Y-86205190D02*
X128909000Y-85705190D01*
X128956619Y-85776619D01*
X129004238Y-85824238D01*
X129051857Y-85848047D01*
X103715333Y-94460190D02*
X103882000Y-94222095D01*
X104001047Y-94460190D02*
X104001047Y-93960190D01*
X103810571Y-93960190D01*
X103762952Y-93984000D01*
X103739142Y-94007809D01*
X103715333Y-94055428D01*
X103715333Y-94126857D01*
X103739142Y-94174476D01*
X103762952Y-94198285D01*
X103810571Y-94222095D01*
X104001047Y-94222095D01*
X103524857Y-94007809D02*
X103501047Y-93984000D01*
X103453428Y-93960190D01*
X103334380Y-93960190D01*
X103286761Y-93984000D01*
X103262952Y-94007809D01*
X103239142Y-94055428D01*
X103239142Y-94103047D01*
X103262952Y-94174476D01*
X103548666Y-94460190D01*
X103239142Y-94460190D01*
X101810333Y-94460190D02*
X101977000Y-94222095D01*
X102096047Y-94460190D02*
X102096047Y-93960190D01*
X101905571Y-93960190D01*
X101857952Y-93984000D01*
X101834142Y-94007809D01*
X101810333Y-94055428D01*
X101810333Y-94126857D01*
X101834142Y-94174476D01*
X101857952Y-94198285D01*
X101905571Y-94222095D01*
X102096047Y-94222095D01*
X101643666Y-93960190D02*
X101334142Y-93960190D01*
X101500809Y-94150666D01*
X101429380Y-94150666D01*
X101381761Y-94174476D01*
X101357952Y-94198285D01*
X101334142Y-94245904D01*
X101334142Y-94364952D01*
X101357952Y-94412571D01*
X101381761Y-94436380D01*
X101429380Y-94460190D01*
X101572238Y-94460190D01*
X101619857Y-94436380D01*
X101643666Y-94412571D01*
X110319333Y-94460190D02*
X110486000Y-94222095D01*
X110605047Y-94460190D02*
X110605047Y-93960190D01*
X110414571Y-93960190D01*
X110366952Y-93984000D01*
X110343142Y-94007809D01*
X110319333Y-94055428D01*
X110319333Y-94126857D01*
X110343142Y-94174476D01*
X110366952Y-94198285D01*
X110414571Y-94222095D01*
X110605047Y-94222095D01*
X109890761Y-94126857D02*
X109890761Y-94460190D01*
X110009809Y-93936380D02*
X110128857Y-94293523D01*
X109819333Y-94293523D01*
X112351333Y-94460190D02*
X112518000Y-94222095D01*
X112637047Y-94460190D02*
X112637047Y-93960190D01*
X112446571Y-93960190D01*
X112398952Y-93984000D01*
X112375142Y-94007809D01*
X112351333Y-94055428D01*
X112351333Y-94126857D01*
X112375142Y-94174476D01*
X112398952Y-94198285D01*
X112446571Y-94222095D01*
X112637047Y-94222095D01*
X111898952Y-93960190D02*
X112137047Y-93960190D01*
X112160857Y-94198285D01*
X112137047Y-94174476D01*
X112089428Y-94150666D01*
X111970380Y-94150666D01*
X111922761Y-94174476D01*
X111898952Y-94198285D01*
X111875142Y-94245904D01*
X111875142Y-94364952D01*
X111898952Y-94412571D01*
X111922761Y-94436380D01*
X111970380Y-94460190D01*
X112089428Y-94460190D01*
X112137047Y-94436380D01*
X112160857Y-94412571D01*
X114383333Y-94460190D02*
X114550000Y-94222095D01*
X114669047Y-94460190D02*
X114669047Y-93960190D01*
X114478571Y-93960190D01*
X114430952Y-93984000D01*
X114407142Y-94007809D01*
X114383333Y-94055428D01*
X114383333Y-94126857D01*
X114407142Y-94174476D01*
X114430952Y-94198285D01*
X114478571Y-94222095D01*
X114669047Y-94222095D01*
X113954761Y-93960190D02*
X114050000Y-93960190D01*
X114097619Y-93984000D01*
X114121428Y-94007809D01*
X114169047Y-94079238D01*
X114192857Y-94174476D01*
X114192857Y-94364952D01*
X114169047Y-94412571D01*
X114145238Y-94436380D01*
X114097619Y-94460190D01*
X114002380Y-94460190D01*
X113954761Y-94436380D01*
X113930952Y-94412571D01*
X113907142Y-94364952D01*
X113907142Y-94245904D01*
X113930952Y-94198285D01*
X113954761Y-94174476D01*
X114002380Y-94150666D01*
X114097619Y-94150666D01*
X114145238Y-94174476D01*
X114169047Y-94198285D01*
X114192857Y-94245904D01*
X129251333Y-100048190D02*
X129418000Y-99810095D01*
X129537047Y-100048190D02*
X129537047Y-99548190D01*
X129346571Y-99548190D01*
X129298952Y-99572000D01*
X129275142Y-99595809D01*
X129251333Y-99643428D01*
X129251333Y-99714857D01*
X129275142Y-99762476D01*
X129298952Y-99786285D01*
X129346571Y-99810095D01*
X129537047Y-99810095D01*
X129084666Y-99548190D02*
X128751333Y-99548190D01*
X128965619Y-100048190D01*
X135846333Y-107904190D02*
X136013000Y-107666095D01*
X136132047Y-107904190D02*
X136132047Y-107404190D01*
X135941571Y-107404190D01*
X135893952Y-107428000D01*
X135870142Y-107451809D01*
X135846333Y-107499428D01*
X135846333Y-107570857D01*
X135870142Y-107618476D01*
X135893952Y-107642285D01*
X135941571Y-107666095D01*
X136132047Y-107666095D01*
X135608238Y-107904190D02*
X135513000Y-107904190D01*
X135465380Y-107880380D01*
X135441571Y-107856571D01*
X135393952Y-107785142D01*
X135370142Y-107689904D01*
X135370142Y-107499428D01*
X135393952Y-107451809D01*
X135417761Y-107428000D01*
X135465380Y-107404190D01*
X135560619Y-107404190D01*
X135608238Y-107428000D01*
X135632047Y-107451809D01*
X135655857Y-107499428D01*
X135655857Y-107618476D01*
X135632047Y-107666095D01*
X135608238Y-107689904D01*
X135560619Y-107713714D01*
X135465380Y-107713714D01*
X135417761Y-107689904D01*
X135393952Y-107666095D01*
X135370142Y-107618476D01*
X136084428Y-99277190D02*
X136251095Y-99039095D01*
X136370142Y-99277190D02*
X136370142Y-98777190D01*
X136179666Y-98777190D01*
X136132047Y-98801000D01*
X136108238Y-98824809D01*
X136084428Y-98872428D01*
X136084428Y-98943857D01*
X136108238Y-98991476D01*
X136132047Y-99015285D01*
X136179666Y-99039095D01*
X136370142Y-99039095D01*
X135608238Y-99277190D02*
X135893952Y-99277190D01*
X135751095Y-99277190D02*
X135751095Y-98777190D01*
X135798714Y-98848619D01*
X135846333Y-98896238D01*
X135893952Y-98920047D01*
X135298714Y-98777190D02*
X135251095Y-98777190D01*
X135203476Y-98801000D01*
X135179666Y-98824809D01*
X135155857Y-98872428D01*
X135132047Y-98967666D01*
X135132047Y-99086714D01*
X135155857Y-99181952D01*
X135179666Y-99229571D01*
X135203476Y-99253380D01*
X135251095Y-99277190D01*
X135298714Y-99277190D01*
X135346333Y-99253380D01*
X135370142Y-99229571D01*
X135393952Y-99181952D01*
X135417761Y-99086714D01*
X135417761Y-98967666D01*
X135393952Y-98872428D01*
X135370142Y-98824809D01*
X135346333Y-98801000D01*
X135298714Y-98777190D01*
X103953428Y-81252190D02*
X104120095Y-81014095D01*
X104239142Y-81252190D02*
X104239142Y-80752190D01*
X104048666Y-80752190D01*
X104001047Y-80776000D01*
X103977238Y-80799809D01*
X103953428Y-80847428D01*
X103953428Y-80918857D01*
X103977238Y-80966476D01*
X104001047Y-80990285D01*
X104048666Y-81014095D01*
X104239142Y-81014095D01*
X103477238Y-81252190D02*
X103762952Y-81252190D01*
X103620095Y-81252190D02*
X103620095Y-80752190D01*
X103667714Y-80823619D01*
X103715333Y-80871238D01*
X103762952Y-80895047D01*
X103310571Y-80752190D02*
X103001047Y-80752190D01*
X103167714Y-80942666D01*
X103096285Y-80942666D01*
X103048666Y-80966476D01*
X103024857Y-80990285D01*
X103001047Y-81037904D01*
X103001047Y-81156952D01*
X103024857Y-81204571D01*
X103048666Y-81228380D01*
X103096285Y-81252190D01*
X103239142Y-81252190D01*
X103286761Y-81228380D01*
X103310571Y-81204571D01*
X144847428Y-97127190D02*
X145014095Y-96889095D01*
X145133142Y-97127190D02*
X145133142Y-96627190D01*
X144942666Y-96627190D01*
X144895047Y-96651000D01*
X144871238Y-96674809D01*
X144847428Y-96722428D01*
X144847428Y-96793857D01*
X144871238Y-96841476D01*
X144895047Y-96865285D01*
X144942666Y-96889095D01*
X145133142Y-96889095D01*
X144371238Y-97127190D02*
X144656952Y-97127190D01*
X144514095Y-97127190D02*
X144514095Y-96627190D01*
X144561714Y-96698619D01*
X144609333Y-96746238D01*
X144656952Y-96770047D01*
X143942666Y-96793857D02*
X143942666Y-97127190D01*
X144061714Y-96603380D02*
X144180761Y-96960523D01*
X143871238Y-96960523D01*
X142171428Y-100936190D02*
X142338095Y-100698095D01*
X142457142Y-100936190D02*
X142457142Y-100436190D01*
X142266666Y-100436190D01*
X142219047Y-100460000D01*
X142195238Y-100483809D01*
X142171428Y-100531428D01*
X142171428Y-100602857D01*
X142195238Y-100650476D01*
X142219047Y-100674285D01*
X142266666Y-100698095D01*
X142457142Y-100698095D01*
X141695238Y-100936190D02*
X141980952Y-100936190D01*
X141838095Y-100936190D02*
X141838095Y-100436190D01*
X141885714Y-100507619D01*
X141933333Y-100555238D01*
X141980952Y-100579047D01*
X141242857Y-100436190D02*
X141480952Y-100436190D01*
X141504761Y-100674285D01*
X141480952Y-100650476D01*
X141433333Y-100626666D01*
X141314285Y-100626666D01*
X141266666Y-100650476D01*
X141242857Y-100674285D01*
X141219047Y-100721904D01*
X141219047Y-100840952D01*
X141242857Y-100888571D01*
X141266666Y-100912380D01*
X141314285Y-100936190D01*
X141433333Y-100936190D01*
X141480952Y-100912380D01*
X141504761Y-100888571D01*
X135850238Y-80617190D02*
X136016904Y-80379095D01*
X136135952Y-80617190D02*
X136135952Y-80117190D01*
X135945476Y-80117190D01*
X135897857Y-80141000D01*
X135874047Y-80164809D01*
X135850238Y-80212428D01*
X135850238Y-80283857D01*
X135874047Y-80331476D01*
X135897857Y-80355285D01*
X135945476Y-80379095D01*
X136135952Y-80379095D01*
X135540714Y-80117190D02*
X135445476Y-80117190D01*
X135397857Y-80141000D01*
X135350238Y-80188619D01*
X135326428Y-80283857D01*
X135326428Y-80450523D01*
X135350238Y-80545761D01*
X135397857Y-80593380D01*
X135445476Y-80617190D01*
X135540714Y-80617190D01*
X135588333Y-80593380D01*
X135635952Y-80545761D01*
X135659761Y-80450523D01*
X135659761Y-80283857D01*
X135635952Y-80188619D01*
X135588333Y-80141000D01*
X135540714Y-80117190D01*
X135112142Y-80617190D02*
X135112142Y-80117190D01*
X134826428Y-80617190D02*
X135040714Y-80331476D01*
X134826428Y-80117190D02*
X135112142Y-80402904D01*
X134350238Y-80617190D02*
X134635952Y-80617190D01*
X134493095Y-80617190D02*
X134493095Y-80117190D01*
X134540714Y-80188619D01*
X134588333Y-80236238D01*
X134635952Y-80260047D01*
X137882238Y-80617190D02*
X138048904Y-80379095D01*
X138167952Y-80617190D02*
X138167952Y-80117190D01*
X137977476Y-80117190D01*
X137929857Y-80141000D01*
X137906047Y-80164809D01*
X137882238Y-80212428D01*
X137882238Y-80283857D01*
X137906047Y-80331476D01*
X137929857Y-80355285D01*
X137977476Y-80379095D01*
X138167952Y-80379095D01*
X137572714Y-80117190D02*
X137477476Y-80117190D01*
X137429857Y-80141000D01*
X137382238Y-80188619D01*
X137358428Y-80283857D01*
X137358428Y-80450523D01*
X137382238Y-80545761D01*
X137429857Y-80593380D01*
X137477476Y-80617190D01*
X137572714Y-80617190D01*
X137620333Y-80593380D01*
X137667952Y-80545761D01*
X137691761Y-80450523D01*
X137691761Y-80283857D01*
X137667952Y-80188619D01*
X137620333Y-80141000D01*
X137572714Y-80117190D01*
X137144142Y-80617190D02*
X137144142Y-80117190D01*
X136858428Y-80617190D02*
X137072714Y-80331476D01*
X136858428Y-80117190D02*
X137144142Y-80402904D01*
X136667952Y-80164809D02*
X136644142Y-80141000D01*
X136596523Y-80117190D01*
X136477476Y-80117190D01*
X136429857Y-80141000D01*
X136406047Y-80164809D01*
X136382238Y-80212428D01*
X136382238Y-80260047D01*
X136406047Y-80331476D01*
X136691761Y-80617190D01*
X136382238Y-80617190D01*
X139914238Y-80617190D02*
X140080904Y-80379095D01*
X140199952Y-80617190D02*
X140199952Y-80117190D01*
X140009476Y-80117190D01*
X139961857Y-80141000D01*
X139938047Y-80164809D01*
X139914238Y-80212428D01*
X139914238Y-80283857D01*
X139938047Y-80331476D01*
X139961857Y-80355285D01*
X140009476Y-80379095D01*
X140199952Y-80379095D01*
X139604714Y-80117190D02*
X139509476Y-80117190D01*
X139461857Y-80141000D01*
X139414238Y-80188619D01*
X139390428Y-80283857D01*
X139390428Y-80450523D01*
X139414238Y-80545761D01*
X139461857Y-80593380D01*
X139509476Y-80617190D01*
X139604714Y-80617190D01*
X139652333Y-80593380D01*
X139699952Y-80545761D01*
X139723761Y-80450523D01*
X139723761Y-80283857D01*
X139699952Y-80188619D01*
X139652333Y-80141000D01*
X139604714Y-80117190D01*
X139176142Y-80617190D02*
X139176142Y-80117190D01*
X138890428Y-80617190D02*
X139104714Y-80331476D01*
X138890428Y-80117190D02*
X139176142Y-80402904D01*
X138723761Y-80117190D02*
X138414238Y-80117190D01*
X138580904Y-80307666D01*
X138509476Y-80307666D01*
X138461857Y-80331476D01*
X138438047Y-80355285D01*
X138414238Y-80402904D01*
X138414238Y-80521952D01*
X138438047Y-80569571D01*
X138461857Y-80593380D01*
X138509476Y-80617190D01*
X138652333Y-80617190D01*
X138699952Y-80593380D01*
X138723761Y-80569571D01*
X145704619Y-86205190D02*
X145871285Y-85967095D01*
X145990333Y-86205190D02*
X145990333Y-85705190D01*
X145799857Y-85705190D01*
X145752238Y-85729000D01*
X145728428Y-85752809D01*
X145704619Y-85800428D01*
X145704619Y-85871857D01*
X145728428Y-85919476D01*
X145752238Y-85943285D01*
X145799857Y-85967095D01*
X145990333Y-85967095D01*
X145395095Y-85705190D02*
X145299857Y-85705190D01*
X145252238Y-85729000D01*
X145204619Y-85776619D01*
X145180809Y-85871857D01*
X145180809Y-86038523D01*
X145204619Y-86133761D01*
X145252238Y-86181380D01*
X145299857Y-86205190D01*
X145395095Y-86205190D01*
X145442714Y-86181380D01*
X145490333Y-86133761D01*
X145514142Y-86038523D01*
X145514142Y-85871857D01*
X145490333Y-85776619D01*
X145442714Y-85729000D01*
X145395095Y-85705190D01*
X144966523Y-85705190D02*
X144966523Y-86109952D01*
X144942714Y-86157571D01*
X144918904Y-86181380D01*
X144871285Y-86205190D01*
X144776047Y-86205190D01*
X144728428Y-86181380D01*
X144704619Y-86157571D01*
X144680809Y-86109952D01*
X144680809Y-85705190D01*
X144514142Y-85705190D02*
X144228428Y-85705190D01*
X144371285Y-86205190D02*
X144371285Y-85705190D01*
X143799857Y-86205190D02*
X144085571Y-86205190D01*
X143942714Y-86205190D02*
X143942714Y-85705190D01*
X143990333Y-85776619D01*
X144037952Y-85824238D01*
X144085571Y-85848047D01*
X142529619Y-86205190D02*
X142696285Y-85967095D01*
X142815333Y-86205190D02*
X142815333Y-85705190D01*
X142624857Y-85705190D01*
X142577238Y-85729000D01*
X142553428Y-85752809D01*
X142529619Y-85800428D01*
X142529619Y-85871857D01*
X142553428Y-85919476D01*
X142577238Y-85943285D01*
X142624857Y-85967095D01*
X142815333Y-85967095D01*
X142220095Y-85705190D02*
X142124857Y-85705190D01*
X142077238Y-85729000D01*
X142029619Y-85776619D01*
X142005809Y-85871857D01*
X142005809Y-86038523D01*
X142029619Y-86133761D01*
X142077238Y-86181380D01*
X142124857Y-86205190D01*
X142220095Y-86205190D01*
X142267714Y-86181380D01*
X142315333Y-86133761D01*
X142339142Y-86038523D01*
X142339142Y-85871857D01*
X142315333Y-85776619D01*
X142267714Y-85729000D01*
X142220095Y-85705190D01*
X141791523Y-85705190D02*
X141791523Y-86109952D01*
X141767714Y-86157571D01*
X141743904Y-86181380D01*
X141696285Y-86205190D01*
X141601047Y-86205190D01*
X141553428Y-86181380D01*
X141529619Y-86157571D01*
X141505809Y-86109952D01*
X141505809Y-85705190D01*
X141339142Y-85705190D02*
X141053428Y-85705190D01*
X141196285Y-86205190D02*
X141196285Y-85705190D01*
X140910571Y-85752809D02*
X140886761Y-85729000D01*
X140839142Y-85705190D01*
X140720095Y-85705190D01*
X140672476Y-85729000D01*
X140648666Y-85752809D01*
X140624857Y-85800428D01*
X140624857Y-85848047D01*
X140648666Y-85919476D01*
X140934380Y-86205190D01*
X140624857Y-86205190D01*
X131242523Y-80617190D02*
X131409190Y-80379095D01*
X131528238Y-80617190D02*
X131528238Y-80117190D01*
X131337761Y-80117190D01*
X131290142Y-80141000D01*
X131266333Y-80164809D01*
X131242523Y-80212428D01*
X131242523Y-80283857D01*
X131266333Y-80331476D01*
X131290142Y-80355285D01*
X131337761Y-80379095D01*
X131528238Y-80379095D01*
X130933000Y-80117190D02*
X130837761Y-80117190D01*
X130790142Y-80141000D01*
X130742523Y-80188619D01*
X130718714Y-80283857D01*
X130718714Y-80450523D01*
X130742523Y-80545761D01*
X130790142Y-80593380D01*
X130837761Y-80617190D01*
X130933000Y-80617190D01*
X130980619Y-80593380D01*
X131028238Y-80545761D01*
X131052047Y-80450523D01*
X131052047Y-80283857D01*
X131028238Y-80188619D01*
X130980619Y-80141000D01*
X130933000Y-80117190D01*
X130575857Y-80117190D02*
X130409190Y-80617190D01*
X130242523Y-80117190D01*
X129813952Y-80617190D02*
X130099666Y-80617190D01*
X129956809Y-80617190D02*
X129956809Y-80117190D01*
X130004428Y-80188619D01*
X130052047Y-80236238D01*
X130099666Y-80260047D01*
X133274523Y-80617190D02*
X133441190Y-80379095D01*
X133560238Y-80617190D02*
X133560238Y-80117190D01*
X133369761Y-80117190D01*
X133322142Y-80141000D01*
X133298333Y-80164809D01*
X133274523Y-80212428D01*
X133274523Y-80283857D01*
X133298333Y-80331476D01*
X133322142Y-80355285D01*
X133369761Y-80379095D01*
X133560238Y-80379095D01*
X132965000Y-80117190D02*
X132869761Y-80117190D01*
X132822142Y-80141000D01*
X132774523Y-80188619D01*
X132750714Y-80283857D01*
X132750714Y-80450523D01*
X132774523Y-80545761D01*
X132822142Y-80593380D01*
X132869761Y-80617190D01*
X132965000Y-80617190D01*
X133012619Y-80593380D01*
X133060238Y-80545761D01*
X133084047Y-80450523D01*
X133084047Y-80283857D01*
X133060238Y-80188619D01*
X133012619Y-80141000D01*
X132965000Y-80117190D01*
X132607857Y-80117190D02*
X132441190Y-80617190D01*
X132274523Y-80117190D01*
X132131666Y-80164809D02*
X132107857Y-80141000D01*
X132060238Y-80117190D01*
X131941190Y-80117190D01*
X131893571Y-80141000D01*
X131869761Y-80164809D01*
X131845952Y-80212428D01*
X131845952Y-80260047D01*
X131869761Y-80331476D01*
X132155476Y-80617190D01*
X131845952Y-80617190D01*
X129031952Y-95071380D02*
X128960523Y-95095190D01*
X128841476Y-95095190D01*
X128793857Y-95071380D01*
X128770047Y-95047571D01*
X128746238Y-94999952D01*
X128746238Y-94952333D01*
X128770047Y-94904714D01*
X128793857Y-94880904D01*
X128841476Y-94857095D01*
X128936714Y-94833285D01*
X128984333Y-94809476D01*
X129008142Y-94785666D01*
X129031952Y-94738047D01*
X129031952Y-94690428D01*
X129008142Y-94642809D01*
X128984333Y-94619000D01*
X128936714Y-94595190D01*
X128817666Y-94595190D01*
X128746238Y-94619000D01*
X128555761Y-94642809D02*
X128531952Y-94619000D01*
X128484333Y-94595190D01*
X128365285Y-94595190D01*
X128317666Y-94619000D01*
X128293857Y-94642809D01*
X128270047Y-94690428D01*
X128270047Y-94738047D01*
X128293857Y-94809476D01*
X128579571Y-95095190D01*
X128270047Y-95095190D01*
X132968952Y-108453380D02*
X132897523Y-108477190D01*
X132778476Y-108477190D01*
X132730857Y-108453380D01*
X132707047Y-108429571D01*
X132683238Y-108381952D01*
X132683238Y-108334333D01*
X132707047Y-108286714D01*
X132730857Y-108262904D01*
X132778476Y-108239095D01*
X132873714Y-108215285D01*
X132921333Y-108191476D01*
X132945142Y-108167666D01*
X132968952Y-108120047D01*
X132968952Y-108072428D01*
X132945142Y-108024809D01*
X132921333Y-108001000D01*
X132873714Y-107977190D01*
X132754666Y-107977190D01*
X132683238Y-108001000D01*
X132516571Y-107977190D02*
X132207047Y-107977190D01*
X132373714Y-108167666D01*
X132302285Y-108167666D01*
X132254666Y-108191476D01*
X132230857Y-108215285D01*
X132207047Y-108262904D01*
X132207047Y-108381952D01*
X132230857Y-108429571D01*
X132254666Y-108453380D01*
X132302285Y-108477190D01*
X132445142Y-108477190D01*
X132492761Y-108453380D01*
X132516571Y-108429571D01*
X136651952Y-85324190D02*
X136651952Y-85728952D01*
X136628142Y-85776571D01*
X136604333Y-85800380D01*
X136556714Y-85824190D01*
X136461476Y-85824190D01*
X136413857Y-85800380D01*
X136390047Y-85776571D01*
X136366238Y-85728952D01*
X136366238Y-85324190D01*
X136151952Y-85371809D02*
X136128142Y-85348000D01*
X136080523Y-85324190D01*
X135961476Y-85324190D01*
X135913857Y-85348000D01*
X135890047Y-85371809D01*
X135866238Y-85419428D01*
X135866238Y-85467047D01*
X135890047Y-85538476D01*
X136175761Y-85824190D01*
X135866238Y-85824190D01*
X106298952Y-86975190D02*
X106298952Y-87379952D01*
X106275142Y-87427571D01*
X106251333Y-87451380D01*
X106203714Y-87475190D01*
X106108476Y-87475190D01*
X106060857Y-87451380D01*
X106037047Y-87427571D01*
X106013238Y-87379952D01*
X106013238Y-86975190D01*
X105822761Y-86975190D02*
X105513238Y-86975190D01*
X105679904Y-87165666D01*
X105608476Y-87165666D01*
X105560857Y-87189476D01*
X105537047Y-87213285D01*
X105513238Y-87260904D01*
X105513238Y-87379952D01*
X105537047Y-87427571D01*
X105560857Y-87451380D01*
X105608476Y-87475190D01*
X105751333Y-87475190D01*
X105798952Y-87451380D01*
X105822761Y-87427571D01*
X122935952Y-91928190D02*
X122935952Y-92332952D01*
X122912142Y-92380571D01*
X122888333Y-92404380D01*
X122840714Y-92428190D01*
X122745476Y-92428190D01*
X122697857Y-92404380D01*
X122674047Y-92380571D01*
X122650238Y-92332952D01*
X122650238Y-91928190D01*
X122197857Y-92094857D02*
X122197857Y-92428190D01*
X122316904Y-91904380D02*
X122435952Y-92261523D01*
X122126428Y-92261523D01*
D12*
X144204666Y-73935142D02*
X144252285Y-73982761D01*
X144395142Y-74030380D01*
X144490380Y-74030380D01*
X144633238Y-73982761D01*
X144728476Y-73887523D01*
X144776095Y-73792285D01*
X144823714Y-73601809D01*
X144823714Y-73458952D01*
X144776095Y-73268476D01*
X144728476Y-73173238D01*
X144633238Y-73078000D01*
X144490380Y-73030380D01*
X144395142Y-73030380D01*
X144252285Y-73078000D01*
X144204666Y-73125619D01*
X143299904Y-73030380D02*
X143776095Y-73030380D01*
X143823714Y-73506571D01*
X143776095Y-73458952D01*
X143680857Y-73411333D01*
X143442761Y-73411333D01*
X143347523Y-73458952D01*
X143299904Y-73506571D01*
X143252285Y-73601809D01*
X143252285Y-73839904D01*
X143299904Y-73935142D01*
X143347523Y-73982761D01*
X143442761Y-74030380D01*
X143680857Y-74030380D01*
X143776095Y-73982761D01*
X143823714Y-73935142D01*
X112414666Y-82735142D02*
X112462285Y-82782761D01*
X112605142Y-82830380D01*
X112700380Y-82830380D01*
X112843238Y-82782761D01*
X112938476Y-82687523D01*
X112986095Y-82592285D01*
X113033714Y-82401809D01*
X113033714Y-82258952D01*
X112986095Y-82068476D01*
X112938476Y-81973238D01*
X112843238Y-81878000D01*
X112700380Y-81830380D01*
X112605142Y-81830380D01*
X112462285Y-81878000D01*
X112414666Y-81925619D01*
X111557523Y-81830380D02*
X111748000Y-81830380D01*
X111843238Y-81878000D01*
X111890857Y-81925619D01*
X111986095Y-82068476D01*
X112033714Y-82258952D01*
X112033714Y-82639904D01*
X111986095Y-82735142D01*
X111938476Y-82782761D01*
X111843238Y-82830380D01*
X111652761Y-82830380D01*
X111557523Y-82782761D01*
X111509904Y-82735142D01*
X111462285Y-82639904D01*
X111462285Y-82401809D01*
X111509904Y-82306571D01*
X111557523Y-82258952D01*
X111652761Y-82211333D01*
X111843238Y-82211333D01*
X111938476Y-82258952D01*
X111986095Y-82306571D01*
X112033714Y-82401809D01*
X142914666Y-81511142D02*
X142962285Y-81558761D01*
X143105142Y-81606380D01*
X143200380Y-81606380D01*
X143343238Y-81558761D01*
X143438476Y-81463523D01*
X143486095Y-81368285D01*
X143533714Y-81177809D01*
X143533714Y-81034952D01*
X143486095Y-80844476D01*
X143438476Y-80749238D01*
X143343238Y-80654000D01*
X143200380Y-80606380D01*
X143105142Y-80606380D01*
X142962285Y-80654000D01*
X142914666Y-80701619D01*
X142581333Y-80606380D02*
X141914666Y-80606380D01*
X142343238Y-81606380D01*
X131738666Y-99797142D02*
X131786285Y-99844761D01*
X131929142Y-99892380D01*
X132024380Y-99892380D01*
X132167238Y-99844761D01*
X132262476Y-99749523D01*
X132310095Y-99654285D01*
X132357714Y-99463809D01*
X132357714Y-99320952D01*
X132310095Y-99130476D01*
X132262476Y-99035238D01*
X132167238Y-98940000D01*
X132024380Y-98892380D01*
X131929142Y-98892380D01*
X131786285Y-98940000D01*
X131738666Y-98987619D01*
X131167238Y-99320952D02*
X131262476Y-99273333D01*
X131310095Y-99225714D01*
X131357714Y-99130476D01*
X131357714Y-99082857D01*
X131310095Y-98987619D01*
X131262476Y-98940000D01*
X131167238Y-98892380D01*
X130976761Y-98892380D01*
X130881523Y-98940000D01*
X130833904Y-98987619D01*
X130786285Y-99082857D01*
X130786285Y-99130476D01*
X130833904Y-99225714D01*
X130881523Y-99273333D01*
X130976761Y-99320952D01*
X131167238Y-99320952D01*
X131262476Y-99368571D01*
X131310095Y-99416190D01*
X131357714Y-99511428D01*
X131357714Y-99701904D01*
X131310095Y-99797142D01*
X131262476Y-99844761D01*
X131167238Y-99892380D01*
X130976761Y-99892380D01*
X130881523Y-99844761D01*
X130833904Y-99797142D01*
X130786285Y-99701904D01*
X130786285Y-99511428D01*
X130833904Y-99416190D01*
X130881523Y-99368571D01*
X130976761Y-99320952D01*
X139675142Y-105243333D02*
X139722761Y-105195714D01*
X139770380Y-105052857D01*
X139770380Y-104957619D01*
X139722761Y-104814761D01*
X139627523Y-104719523D01*
X139532285Y-104671904D01*
X139341809Y-104624285D01*
X139198952Y-104624285D01*
X139008476Y-104671904D01*
X138913238Y-104719523D01*
X138818000Y-104814761D01*
X138770380Y-104957619D01*
X138770380Y-105052857D01*
X138818000Y-105195714D01*
X138865619Y-105243333D01*
X139770380Y-105719523D02*
X139770380Y-105910000D01*
X139722761Y-106005238D01*
X139675142Y-106052857D01*
X139532285Y-106148095D01*
X139341809Y-106195714D01*
X138960857Y-106195714D01*
X138865619Y-106148095D01*
X138818000Y-106100476D01*
X138770380Y-106005238D01*
X138770380Y-105814761D01*
X138818000Y-105719523D01*
X138865619Y-105671904D01*
X138960857Y-105624285D01*
X139198952Y-105624285D01*
X139294190Y-105671904D01*
X139341809Y-105719523D01*
X139389428Y-105814761D01*
X139389428Y-106005238D01*
X139341809Y-106100476D01*
X139294190Y-106148095D01*
X139198952Y-106195714D01*
X148216857Y-88115142D02*
X148264476Y-88162761D01*
X148407333Y-88210380D01*
X148502571Y-88210380D01*
X148645428Y-88162761D01*
X148740666Y-88067523D01*
X148788285Y-87972285D01*
X148835904Y-87781809D01*
X148835904Y-87638952D01*
X148788285Y-87448476D01*
X148740666Y-87353238D01*
X148645428Y-87258000D01*
X148502571Y-87210380D01*
X148407333Y-87210380D01*
X148264476Y-87258000D01*
X148216857Y-87305619D01*
X147264476Y-88210380D02*
X147835904Y-88210380D01*
X147550190Y-88210380D02*
X147550190Y-87210380D01*
X147645428Y-87353238D01*
X147740666Y-87448476D01*
X147835904Y-87496095D01*
X146645428Y-87210380D02*
X146550190Y-87210380D01*
X146454952Y-87258000D01*
X146407333Y-87305619D01*
X146359714Y-87400857D01*
X146312095Y-87591333D01*
X146312095Y-87829428D01*
X146359714Y-88019904D01*
X146407333Y-88115142D01*
X146454952Y-88162761D01*
X146550190Y-88210380D01*
X146645428Y-88210380D01*
X146740666Y-88162761D01*
X146788285Y-88115142D01*
X146835904Y-88019904D01*
X146883523Y-87829428D01*
X146883523Y-87591333D01*
X146835904Y-87400857D01*
X146788285Y-87305619D01*
X146740666Y-87258000D01*
X146645428Y-87210380D01*
X117981857Y-92272380D02*
X118315190Y-91796190D01*
X118553285Y-92272380D02*
X118553285Y-91272380D01*
X118172333Y-91272380D01*
X118077095Y-91320000D01*
X118029476Y-91367619D01*
X117981857Y-91462857D01*
X117981857Y-91605714D01*
X118029476Y-91700952D01*
X118077095Y-91748571D01*
X118172333Y-91796190D01*
X118553285Y-91796190D01*
X117029476Y-92272380D02*
X117600904Y-92272380D01*
X117315190Y-92272380D02*
X117315190Y-91272380D01*
X117410428Y-91415238D01*
X117505666Y-91510476D01*
X117600904Y-91558095D01*
X116077095Y-92272380D02*
X116648523Y-92272380D01*
X116362809Y-92272380D02*
X116362809Y-91272380D01*
X116458047Y-91415238D01*
X116553285Y-91510476D01*
X116648523Y-91558095D01*
X139770380Y-100694142D02*
X139294190Y-100360809D01*
X139770380Y-100122714D02*
X138770380Y-100122714D01*
X138770380Y-100503666D01*
X138818000Y-100598904D01*
X138865619Y-100646523D01*
X138960857Y-100694142D01*
X139103714Y-100694142D01*
X139198952Y-100646523D01*
X139246571Y-100598904D01*
X139294190Y-100503666D01*
X139294190Y-100122714D01*
X139770380Y-101646523D02*
X139770380Y-101075095D01*
X139770380Y-101360809D02*
X138770380Y-101360809D01*
X138913238Y-101265571D01*
X139008476Y-101170333D01*
X139056095Y-101075095D01*
X138865619Y-102027476D02*
X138818000Y-102075095D01*
X138770380Y-102170333D01*
X138770380Y-102408428D01*
X138818000Y-102503666D01*
X138865619Y-102551285D01*
X138960857Y-102598904D01*
X139056095Y-102598904D01*
X139198952Y-102551285D01*
X139770380Y-101979857D01*
X139770380Y-102598904D01*
X145078761Y-85090095D02*
X145126380Y-85232952D01*
X145126380Y-85471047D01*
X145078761Y-85566285D01*
X145031142Y-85613904D01*
X144935904Y-85661523D01*
X144840666Y-85661523D01*
X144745428Y-85613904D01*
X144697809Y-85566285D01*
X144650190Y-85471047D01*
X144602571Y-85280571D01*
X144554952Y-85185333D01*
X144507333Y-85137714D01*
X144412095Y-85090095D01*
X144316857Y-85090095D01*
X144221619Y-85137714D01*
X144174000Y-85185333D01*
X144126380Y-85280571D01*
X144126380Y-85518666D01*
X144174000Y-85661523D01*
X145126380Y-86613904D02*
X145126380Y-86042476D01*
X145126380Y-86328190D02*
X144126380Y-86328190D01*
X144269238Y-86232952D01*
X144364476Y-86137714D01*
X144412095Y-86042476D01*
M02*
