G04 #@! TF.GenerationSoftware,KiCad,Pcbnew,(5.1.4)-1*
G04 #@! TF.CreationDate,2020-11-30T17:40:18+01:00*
G04 #@! TF.ProjectId,BME680,424d4536-3830-42e6-9b69-6361645f7063,A*
G04 #@! TF.SameCoordinates,Original*
G04 #@! TF.FileFunction,Legend,Top*
G04 #@! TF.FilePolarity,Positive*
%FSLAX46Y46*%
G04 Gerber Fmt 4.6, Leading zero omitted, Abs format (unit mm)*
G04 Created by KiCad (PCBNEW (5.1.4)-1) date 2020-11-30 17:40:18*
%MOMM*%
%LPD*%
G04 APERTURE LIST*
%ADD10C,0.125000*%
%ADD11C,0.010000*%
%ADD12C,0.120000*%
%ADD13C,0.127000*%
%ADD14C,0.200000*%
%ADD15C,0.100000*%
%ADD16C,0.150000*%
%ADD17C,0.050000*%
%ADD18C,0.254000*%
G04 APERTURE END LIST*
D10*
X124806190Y-136197047D02*
X124806190Y-135887523D01*
X124996666Y-136054190D01*
X124996666Y-135982761D01*
X125020476Y-135935142D01*
X125044285Y-135911333D01*
X125091904Y-135887523D01*
X125210952Y-135887523D01*
X125258571Y-135911333D01*
X125282380Y-135935142D01*
X125306190Y-135982761D01*
X125306190Y-136125619D01*
X125282380Y-136173238D01*
X125258571Y-136197047D01*
X124806190Y-135744666D02*
X125306190Y-135578000D01*
X124806190Y-135411333D01*
X124806190Y-135292285D02*
X124806190Y-134982761D01*
X124996666Y-135149428D01*
X124996666Y-135078000D01*
X125020476Y-135030380D01*
X125044285Y-135006571D01*
X125091904Y-134982761D01*
X125210952Y-134982761D01*
X125258571Y-135006571D01*
X125282380Y-135030380D01*
X125306190Y-135078000D01*
X125306190Y-135220857D01*
X125282380Y-135268476D01*
X125258571Y-135292285D01*
X122210000Y-135858952D02*
X122186190Y-135906571D01*
X122186190Y-135978000D01*
X122210000Y-136049428D01*
X122257619Y-136097047D01*
X122305238Y-136120857D01*
X122400476Y-136144666D01*
X122471904Y-136144666D01*
X122567142Y-136120857D01*
X122614761Y-136097047D01*
X122662380Y-136049428D01*
X122686190Y-135978000D01*
X122686190Y-135930380D01*
X122662380Y-135858952D01*
X122638571Y-135835142D01*
X122471904Y-135835142D01*
X122471904Y-135930380D01*
X122686190Y-135620857D02*
X122186190Y-135620857D01*
X122686190Y-135335142D01*
X122186190Y-135335142D01*
X122686190Y-135097047D02*
X122186190Y-135097047D01*
X122186190Y-134978000D01*
X122210000Y-134906571D01*
X122257619Y-134858952D01*
X122305238Y-134835142D01*
X122400476Y-134811333D01*
X122471904Y-134811333D01*
X122567142Y-134835142D01*
X122614761Y-134858952D01*
X122662380Y-134906571D01*
X122686190Y-134978000D01*
X122686190Y-135097047D01*
X120206190Y-136000380D02*
X119706190Y-136000380D01*
X120206190Y-135762285D02*
X119706190Y-135762285D01*
X120206190Y-135476571D01*
X119706190Y-135476571D01*
X119706190Y-135309904D02*
X119706190Y-135024190D01*
X120206190Y-135167047D02*
X119706190Y-135167047D01*
D11*
G36*
X136019044Y-94352155D02*
G01*
X135580699Y-94352155D01*
X135359085Y-93944344D01*
X135324927Y-93881534D01*
X135292254Y-93821550D01*
X135261477Y-93765139D01*
X135233004Y-93713046D01*
X135207244Y-93666016D01*
X135184608Y-93624796D01*
X135165504Y-93590130D01*
X135150341Y-93562766D01*
X135139528Y-93543447D01*
X135133476Y-93532921D01*
X135132347Y-93531171D01*
X135131403Y-93535691D01*
X135130535Y-93550909D01*
X135129752Y-93576231D01*
X135129060Y-93611066D01*
X135128467Y-93654823D01*
X135127981Y-93706908D01*
X135127608Y-93766732D01*
X135127356Y-93833700D01*
X135127233Y-93907222D01*
X135127222Y-93938982D01*
X135127222Y-94352155D01*
X134698203Y-94352155D01*
X134699635Y-93597211D01*
X134701066Y-92842266D01*
X134932488Y-92840874D01*
X135163911Y-92839482D01*
X135371774Y-93234084D01*
X135404531Y-93296212D01*
X135435896Y-93355591D01*
X135465455Y-93411442D01*
X135492791Y-93462985D01*
X135517490Y-93509440D01*
X135539137Y-93550029D01*
X135557316Y-93583972D01*
X135571612Y-93610490D01*
X135581611Y-93628803D01*
X135586896Y-93638132D01*
X135587495Y-93639054D01*
X135589014Y-93639817D01*
X135590330Y-93637348D01*
X135591459Y-93630942D01*
X135592413Y-93619895D01*
X135593208Y-93603501D01*
X135593858Y-93581058D01*
X135594377Y-93551860D01*
X135594779Y-93515202D01*
X135595079Y-93470381D01*
X135595292Y-93416691D01*
X135595431Y-93353429D01*
X135595511Y-93279890D01*
X135595531Y-93244433D01*
X135595711Y-92839444D01*
X136019044Y-92839444D01*
X136019044Y-94352155D01*
X136019044Y-94352155D01*
G37*
X136019044Y-94352155D02*
X135580699Y-94352155D01*
X135359085Y-93944344D01*
X135324927Y-93881534D01*
X135292254Y-93821550D01*
X135261477Y-93765139D01*
X135233004Y-93713046D01*
X135207244Y-93666016D01*
X135184608Y-93624796D01*
X135165504Y-93590130D01*
X135150341Y-93562766D01*
X135139528Y-93543447D01*
X135133476Y-93532921D01*
X135132347Y-93531171D01*
X135131403Y-93535691D01*
X135130535Y-93550909D01*
X135129752Y-93576231D01*
X135129060Y-93611066D01*
X135128467Y-93654823D01*
X135127981Y-93706908D01*
X135127608Y-93766732D01*
X135127356Y-93833700D01*
X135127233Y-93907222D01*
X135127222Y-93938982D01*
X135127222Y-94352155D01*
X134698203Y-94352155D01*
X134699635Y-93597211D01*
X134701066Y-92842266D01*
X134932488Y-92840874D01*
X135163911Y-92839482D01*
X135371774Y-93234084D01*
X135404531Y-93296212D01*
X135435896Y-93355591D01*
X135465455Y-93411442D01*
X135492791Y-93462985D01*
X135517490Y-93509440D01*
X135539137Y-93550029D01*
X135557316Y-93583972D01*
X135571612Y-93610490D01*
X135581611Y-93628803D01*
X135586896Y-93638132D01*
X135587495Y-93639054D01*
X135589014Y-93639817D01*
X135590330Y-93637348D01*
X135591459Y-93630942D01*
X135592413Y-93619895D01*
X135593208Y-93603501D01*
X135593858Y-93581058D01*
X135594377Y-93551860D01*
X135594779Y-93515202D01*
X135595079Y-93470381D01*
X135595292Y-93416691D01*
X135595431Y-93353429D01*
X135595511Y-93279890D01*
X135595531Y-93244433D01*
X135595711Y-92839444D01*
X136019044Y-92839444D01*
X136019044Y-94352155D01*
G36*
X134562777Y-93228911D02*
G01*
X133812066Y-93228911D01*
X133812066Y-93415178D01*
X134495044Y-93415178D01*
X134495044Y-93776422D01*
X133812066Y-93776422D01*
X133812066Y-93962689D01*
X134585355Y-93962689D01*
X134585355Y-94352155D01*
X133360511Y-94352155D01*
X133360511Y-92839444D01*
X134562777Y-92839444D01*
X134562777Y-93228911D01*
X134562777Y-93228911D01*
G37*
X134562777Y-93228911D02*
X133812066Y-93228911D01*
X133812066Y-93415178D01*
X134495044Y-93415178D01*
X134495044Y-93776422D01*
X133812066Y-93776422D01*
X133812066Y-93962689D01*
X134585355Y-93962689D01*
X134585355Y-94352155D01*
X133360511Y-94352155D01*
X133360511Y-92839444D01*
X134562777Y-92839444D01*
X134562777Y-93228911D01*
G36*
X132360913Y-92860611D02*
G01*
X132363192Y-92869314D01*
X132368100Y-92888064D01*
X132375407Y-92915989D01*
X132384887Y-92952214D01*
X132396310Y-92995867D01*
X132409447Y-93046073D01*
X132424070Y-93101960D01*
X132439951Y-93162653D01*
X132456860Y-93227280D01*
X132474570Y-93294966D01*
X132480178Y-93316400D01*
X132497959Y-93384295D01*
X132514935Y-93448985D01*
X132530886Y-93509646D01*
X132545595Y-93565452D01*
X132558842Y-93615579D01*
X132570410Y-93659203D01*
X132580080Y-93695499D01*
X132587633Y-93723641D01*
X132592852Y-93742807D01*
X132595518Y-93752170D01*
X132595811Y-93752983D01*
X132596421Y-93753221D01*
X132597238Y-93752332D01*
X132598440Y-93749648D01*
X132600202Y-93744500D01*
X132602703Y-93736220D01*
X132606118Y-93724140D01*
X132610627Y-93707590D01*
X132616405Y-93685902D01*
X132623630Y-93658409D01*
X132632478Y-93624441D01*
X132643128Y-93583330D01*
X132655756Y-93534408D01*
X132670540Y-93477006D01*
X132687655Y-93410455D01*
X132707281Y-93334088D01*
X132721975Y-93276889D01*
X132833624Y-92842266D01*
X133066023Y-92840793D01*
X133116005Y-92840516D01*
X133162301Y-92840338D01*
X133203733Y-92840256D01*
X133239123Y-92840270D01*
X133267294Y-92840379D01*
X133287069Y-92840581D01*
X133297269Y-92840875D01*
X133298422Y-92841039D01*
X133296818Y-92846546D01*
X133292129Y-92862243D01*
X133284540Y-92887516D01*
X133274238Y-92921752D01*
X133261408Y-92964334D01*
X133246235Y-93014649D01*
X133228904Y-93072083D01*
X133209600Y-93136021D01*
X133188510Y-93205849D01*
X133165819Y-93280952D01*
X133141712Y-93360717D01*
X133116375Y-93444527D01*
X133089993Y-93531770D01*
X133070551Y-93596046D01*
X132842680Y-94349333D01*
X132589065Y-94350801D01*
X132335449Y-94352269D01*
X132119019Y-93602912D01*
X132093205Y-93513550D01*
X132068232Y-93427126D01*
X132044282Y-93344266D01*
X132021535Y-93265596D01*
X132000171Y-93191740D01*
X131980374Y-93123324D01*
X131962323Y-93060973D01*
X131946199Y-93005314D01*
X131932184Y-92956970D01*
X131920459Y-92916569D01*
X131911205Y-92884734D01*
X131904602Y-92862093D01*
X131900833Y-92849269D01*
X131899990Y-92846500D01*
X131901504Y-92844682D01*
X131908070Y-92843185D01*
X131920529Y-92841981D01*
X131939722Y-92841045D01*
X131966490Y-92840351D01*
X132001675Y-92839872D01*
X132046118Y-92839582D01*
X132100659Y-92839455D01*
X132126378Y-92839444D01*
X132355364Y-92839444D01*
X132360913Y-92860611D01*
X132360913Y-92860611D01*
G37*
X132360913Y-92860611D02*
X132363192Y-92869314D01*
X132368100Y-92888064D01*
X132375407Y-92915989D01*
X132384887Y-92952214D01*
X132396310Y-92995867D01*
X132409447Y-93046073D01*
X132424070Y-93101960D01*
X132439951Y-93162653D01*
X132456860Y-93227280D01*
X132474570Y-93294966D01*
X132480178Y-93316400D01*
X132497959Y-93384295D01*
X132514935Y-93448985D01*
X132530886Y-93509646D01*
X132545595Y-93565452D01*
X132558842Y-93615579D01*
X132570410Y-93659203D01*
X132580080Y-93695499D01*
X132587633Y-93723641D01*
X132592852Y-93742807D01*
X132595518Y-93752170D01*
X132595811Y-93752983D01*
X132596421Y-93753221D01*
X132597238Y-93752332D01*
X132598440Y-93749648D01*
X132600202Y-93744500D01*
X132602703Y-93736220D01*
X132606118Y-93724140D01*
X132610627Y-93707590D01*
X132616405Y-93685902D01*
X132623630Y-93658409D01*
X132632478Y-93624441D01*
X132643128Y-93583330D01*
X132655756Y-93534408D01*
X132670540Y-93477006D01*
X132687655Y-93410455D01*
X132707281Y-93334088D01*
X132721975Y-93276889D01*
X132833624Y-92842266D01*
X133066023Y-92840793D01*
X133116005Y-92840516D01*
X133162301Y-92840338D01*
X133203733Y-92840256D01*
X133239123Y-92840270D01*
X133267294Y-92840379D01*
X133287069Y-92840581D01*
X133297269Y-92840875D01*
X133298422Y-92841039D01*
X133296818Y-92846546D01*
X133292129Y-92862243D01*
X133284540Y-92887516D01*
X133274238Y-92921752D01*
X133261408Y-92964334D01*
X133246235Y-93014649D01*
X133228904Y-93072083D01*
X133209600Y-93136021D01*
X133188510Y-93205849D01*
X133165819Y-93280952D01*
X133141712Y-93360717D01*
X133116375Y-93444527D01*
X133089993Y-93531770D01*
X133070551Y-93596046D01*
X132842680Y-94349333D01*
X132589065Y-94350801D01*
X132335449Y-94352269D01*
X132119019Y-93602912D01*
X132093205Y-93513550D01*
X132068232Y-93427126D01*
X132044282Y-93344266D01*
X132021535Y-93265596D01*
X132000171Y-93191740D01*
X131980374Y-93123324D01*
X131962323Y-93060973D01*
X131946199Y-93005314D01*
X131932184Y-92956970D01*
X131920459Y-92916569D01*
X131911205Y-92884734D01*
X131904602Y-92862093D01*
X131900833Y-92849269D01*
X131899990Y-92846500D01*
X131901504Y-92844682D01*
X131908070Y-92843185D01*
X131920529Y-92841981D01*
X131939722Y-92841045D01*
X131966490Y-92840351D01*
X132001675Y-92839872D01*
X132046118Y-92839582D01*
X132100659Y-92839455D01*
X132126378Y-92839444D01*
X132355364Y-92839444D01*
X132360913Y-92860611D01*
G36*
X130363311Y-93228911D02*
G01*
X129606955Y-93228911D01*
X129606955Y-93415178D01*
X130295577Y-93415178D01*
X130295577Y-93776422D01*
X129606955Y-93776422D01*
X129606955Y-93962689D01*
X130385888Y-93962689D01*
X130385888Y-94352155D01*
X129161044Y-94352155D01*
X129161044Y-92839444D01*
X130363311Y-92839444D01*
X130363311Y-93228911D01*
X130363311Y-93228911D01*
G37*
X130363311Y-93228911D02*
X129606955Y-93228911D01*
X129606955Y-93415178D01*
X130295577Y-93415178D01*
X130295577Y-93776422D01*
X129606955Y-93776422D01*
X129606955Y-93962689D01*
X130385888Y-93962689D01*
X130385888Y-94352155D01*
X129161044Y-94352155D01*
X129161044Y-92839444D01*
X130363311Y-92839444D01*
X130363311Y-93228911D01*
G36*
X128387755Y-93962595D02*
G01*
X129022755Y-93965511D01*
X129025725Y-94352155D01*
X127936200Y-94352155D01*
X127936200Y-92839444D01*
X128387755Y-92839444D01*
X128387755Y-93962595D01*
X128387755Y-93962595D01*
G37*
X128387755Y-93962595D02*
X129022755Y-93965511D01*
X129025725Y-94352155D01*
X127936200Y-94352155D01*
X127936200Y-92839444D01*
X128387755Y-92839444D01*
X128387755Y-93962595D01*
G36*
X124871266Y-93100343D02*
G01*
X124871277Y-93161303D01*
X124871335Y-93211891D01*
X124871480Y-93253022D01*
X124871752Y-93285614D01*
X124872189Y-93310581D01*
X124872831Y-93328841D01*
X124873717Y-93341310D01*
X124874886Y-93348904D01*
X124876378Y-93352539D01*
X124878232Y-93353131D01*
X124880488Y-93351598D01*
X124881982Y-93350110D01*
X124887395Y-93343606D01*
X124899006Y-93329019D01*
X124916136Y-93307217D01*
X124938107Y-93279072D01*
X124964244Y-93245453D01*
X124993868Y-93207231D01*
X125026301Y-93165277D01*
X125060868Y-93120461D01*
X125077325Y-93099089D01*
X125112602Y-93053297D01*
X125146019Y-93010003D01*
X125176904Y-92970073D01*
X125204585Y-92934370D01*
X125228390Y-92903760D01*
X125247648Y-92879106D01*
X125261687Y-92861274D01*
X125269836Y-92851128D01*
X125271432Y-92849268D01*
X125274202Y-92846998D01*
X125278435Y-92845113D01*
X125285092Y-92843583D01*
X125295132Y-92842380D01*
X125309514Y-92841475D01*
X125329197Y-92840840D01*
X125355143Y-92840446D01*
X125388310Y-92840265D01*
X125429657Y-92840269D01*
X125480145Y-92840429D01*
X125540733Y-92840717D01*
X125556792Y-92840801D01*
X125832673Y-92842266D01*
X125569099Y-93135466D01*
X125518902Y-93191460D01*
X125473079Y-93242887D01*
X125432029Y-93289286D01*
X125396154Y-93330193D01*
X125365856Y-93365144D01*
X125341536Y-93393676D01*
X125323595Y-93415327D01*
X125312434Y-93429632D01*
X125308454Y-93436130D01*
X125308473Y-93436348D01*
X125311973Y-93442041D01*
X125321327Y-93456453D01*
X125336101Y-93478931D01*
X125355858Y-93508820D01*
X125380164Y-93545466D01*
X125408584Y-93588214D01*
X125440682Y-93636410D01*
X125476024Y-93689399D01*
X125514173Y-93746528D01*
X125554694Y-93807141D01*
X125597153Y-93870584D01*
X125613454Y-93894924D01*
X125656450Y-93959143D01*
X125697619Y-94020697D01*
X125736530Y-94078940D01*
X125772756Y-94133226D01*
X125805865Y-94182908D01*
X125835428Y-94227341D01*
X125861016Y-94265879D01*
X125882199Y-94297877D01*
X125898547Y-94322687D01*
X125909632Y-94339665D01*
X125915022Y-94348164D01*
X125915488Y-94349039D01*
X125910023Y-94349643D01*
X125894341Y-94350153D01*
X125869514Y-94350561D01*
X125836616Y-94350862D01*
X125796717Y-94351048D01*
X125750891Y-94351112D01*
X125700208Y-94351049D01*
X125645742Y-94350850D01*
X125635090Y-94350797D01*
X125354692Y-94349333D01*
X125178207Y-94061572D01*
X125146420Y-94009846D01*
X125116310Y-93961050D01*
X125088404Y-93916025D01*
X125063230Y-93875613D01*
X125041316Y-93840654D01*
X125023187Y-93811989D01*
X125009372Y-93790459D01*
X125000396Y-93776905D01*
X124996811Y-93772174D01*
X124991584Y-93775616D01*
X124980309Y-93786185D01*
X124964353Y-93802496D01*
X124945084Y-93823166D01*
X124931583Y-93838115D01*
X124871266Y-93905693D01*
X124871266Y-94352155D01*
X124419711Y-94352155D01*
X124419711Y-92839444D01*
X124871266Y-92839444D01*
X124871266Y-93100343D01*
X124871266Y-93100343D01*
G37*
X124871266Y-93100343D02*
X124871277Y-93161303D01*
X124871335Y-93211891D01*
X124871480Y-93253022D01*
X124871752Y-93285614D01*
X124872189Y-93310581D01*
X124872831Y-93328841D01*
X124873717Y-93341310D01*
X124874886Y-93348904D01*
X124876378Y-93352539D01*
X124878232Y-93353131D01*
X124880488Y-93351598D01*
X124881982Y-93350110D01*
X124887395Y-93343606D01*
X124899006Y-93329019D01*
X124916136Y-93307217D01*
X124938107Y-93279072D01*
X124964244Y-93245453D01*
X124993868Y-93207231D01*
X125026301Y-93165277D01*
X125060868Y-93120461D01*
X125077325Y-93099089D01*
X125112602Y-93053297D01*
X125146019Y-93010003D01*
X125176904Y-92970073D01*
X125204585Y-92934370D01*
X125228390Y-92903760D01*
X125247648Y-92879106D01*
X125261687Y-92861274D01*
X125269836Y-92851128D01*
X125271432Y-92849268D01*
X125274202Y-92846998D01*
X125278435Y-92845113D01*
X125285092Y-92843583D01*
X125295132Y-92842380D01*
X125309514Y-92841475D01*
X125329197Y-92840840D01*
X125355143Y-92840446D01*
X125388310Y-92840265D01*
X125429657Y-92840269D01*
X125480145Y-92840429D01*
X125540733Y-92840717D01*
X125556792Y-92840801D01*
X125832673Y-92842266D01*
X125569099Y-93135466D01*
X125518902Y-93191460D01*
X125473079Y-93242887D01*
X125432029Y-93289286D01*
X125396154Y-93330193D01*
X125365856Y-93365144D01*
X125341536Y-93393676D01*
X125323595Y-93415327D01*
X125312434Y-93429632D01*
X125308454Y-93436130D01*
X125308473Y-93436348D01*
X125311973Y-93442041D01*
X125321327Y-93456453D01*
X125336101Y-93478931D01*
X125355858Y-93508820D01*
X125380164Y-93545466D01*
X125408584Y-93588214D01*
X125440682Y-93636410D01*
X125476024Y-93689399D01*
X125514173Y-93746528D01*
X125554694Y-93807141D01*
X125597153Y-93870584D01*
X125613454Y-93894924D01*
X125656450Y-93959143D01*
X125697619Y-94020697D01*
X125736530Y-94078940D01*
X125772756Y-94133226D01*
X125805865Y-94182908D01*
X125835428Y-94227341D01*
X125861016Y-94265879D01*
X125882199Y-94297877D01*
X125898547Y-94322687D01*
X125909632Y-94339665D01*
X125915022Y-94348164D01*
X125915488Y-94349039D01*
X125910023Y-94349643D01*
X125894341Y-94350153D01*
X125869514Y-94350561D01*
X125836616Y-94350862D01*
X125796717Y-94351048D01*
X125750891Y-94351112D01*
X125700208Y-94351049D01*
X125645742Y-94350850D01*
X125635090Y-94350797D01*
X125354692Y-94349333D01*
X125178207Y-94061572D01*
X125146420Y-94009846D01*
X125116310Y-93961050D01*
X125088404Y-93916025D01*
X125063230Y-93875613D01*
X125041316Y-93840654D01*
X125023187Y-93811989D01*
X125009372Y-93790459D01*
X125000396Y-93776905D01*
X124996811Y-93772174D01*
X124991584Y-93775616D01*
X124980309Y-93786185D01*
X124964353Y-93802496D01*
X124945084Y-93823166D01*
X124931583Y-93838115D01*
X124871266Y-93905693D01*
X124871266Y-94352155D01*
X124419711Y-94352155D01*
X124419711Y-92839444D01*
X124871266Y-92839444D01*
X124871266Y-93100343D01*
G36*
X130951843Y-93320633D02*
G01*
X130952268Y-93407102D01*
X130952695Y-93483026D01*
X130953140Y-93549149D01*
X130953619Y-93606216D01*
X130954148Y-93654971D01*
X130954744Y-93696157D01*
X130955422Y-93730519D01*
X130956200Y-93758802D01*
X130957093Y-93781749D01*
X130958118Y-93800104D01*
X130959291Y-93814611D01*
X130960628Y-93826016D01*
X130962145Y-93835061D01*
X130963178Y-93839790D01*
X130975030Y-93880950D01*
X130989394Y-93913870D01*
X131007710Y-93941547D01*
X131017693Y-93953163D01*
X131041783Y-93975084D01*
X131068712Y-93990553D01*
X131100838Y-94000477D01*
X131140521Y-94005762D01*
X131157035Y-94006701D01*
X131207446Y-94005874D01*
X131249472Y-93998471D01*
X131284268Y-93983955D01*
X131312990Y-93961785D01*
X131336791Y-93931423D01*
X131343732Y-93919569D01*
X131350033Y-93908042D01*
X131355585Y-93897398D01*
X131360439Y-93886878D01*
X131364646Y-93875724D01*
X131368256Y-93863178D01*
X131371320Y-93848480D01*
X131373889Y-93830873D01*
X131376012Y-93809597D01*
X131377741Y-93783896D01*
X131379126Y-93753009D01*
X131380217Y-93716178D01*
X131381066Y-93672646D01*
X131381722Y-93621653D01*
X131382236Y-93562442D01*
X131382659Y-93494253D01*
X131383041Y-93416328D01*
X131383433Y-93327908D01*
X131383453Y-93323455D01*
X131385587Y-92839444D01*
X131837049Y-92839444D01*
X131834952Y-93365789D01*
X131834590Y-93454917D01*
X131834246Y-93533504D01*
X131833901Y-93602296D01*
X131833539Y-93662039D01*
X131833142Y-93713481D01*
X131832691Y-93757368D01*
X131832168Y-93794448D01*
X131831557Y-93825466D01*
X131830839Y-93851171D01*
X131829995Y-93872309D01*
X131829010Y-93889626D01*
X131827864Y-93903869D01*
X131826539Y-93915786D01*
X131825019Y-93926124D01*
X131823284Y-93935628D01*
X131821318Y-93945046D01*
X131821097Y-93946063D01*
X131809137Y-93992702D01*
X131793749Y-94040285D01*
X131776264Y-94085195D01*
X131758011Y-94123813D01*
X131751375Y-94135704D01*
X131733098Y-94162010D01*
X131707933Y-94191810D01*
X131678498Y-94222518D01*
X131647416Y-94251546D01*
X131617307Y-94276306D01*
X131590977Y-94294103D01*
X131523808Y-94326970D01*
X131449253Y-94353238D01*
X131369555Y-94372198D01*
X131320044Y-94379789D01*
X131289703Y-94382456D01*
X131251437Y-94384246D01*
X131207900Y-94385184D01*
X131161746Y-94385290D01*
X131115628Y-94384588D01*
X131072199Y-94383100D01*
X131034113Y-94380849D01*
X131004023Y-94377857D01*
X130998457Y-94377058D01*
X130916843Y-94360996D01*
X130844324Y-94339391D01*
X130779924Y-94311797D01*
X130722666Y-94277768D01*
X130671572Y-94236858D01*
X130654000Y-94219852D01*
X130611231Y-94170486D01*
X130576175Y-94116647D01*
X130547985Y-94056683D01*
X130525815Y-93988945D01*
X130516851Y-93952219D01*
X130502347Y-93886489D01*
X130500243Y-93362966D01*
X130498139Y-92839444D01*
X130949596Y-92839444D01*
X130951843Y-93320633D01*
X130951843Y-93320633D01*
G37*
X130951843Y-93320633D02*
X130952268Y-93407102D01*
X130952695Y-93483026D01*
X130953140Y-93549149D01*
X130953619Y-93606216D01*
X130954148Y-93654971D01*
X130954744Y-93696157D01*
X130955422Y-93730519D01*
X130956200Y-93758802D01*
X130957093Y-93781749D01*
X130958118Y-93800104D01*
X130959291Y-93814611D01*
X130960628Y-93826016D01*
X130962145Y-93835061D01*
X130963178Y-93839790D01*
X130975030Y-93880950D01*
X130989394Y-93913870D01*
X131007710Y-93941547D01*
X131017693Y-93953163D01*
X131041783Y-93975084D01*
X131068712Y-93990553D01*
X131100838Y-94000477D01*
X131140521Y-94005762D01*
X131157035Y-94006701D01*
X131207446Y-94005874D01*
X131249472Y-93998471D01*
X131284268Y-93983955D01*
X131312990Y-93961785D01*
X131336791Y-93931423D01*
X131343732Y-93919569D01*
X131350033Y-93908042D01*
X131355585Y-93897398D01*
X131360439Y-93886878D01*
X131364646Y-93875724D01*
X131368256Y-93863178D01*
X131371320Y-93848480D01*
X131373889Y-93830873D01*
X131376012Y-93809597D01*
X131377741Y-93783896D01*
X131379126Y-93753009D01*
X131380217Y-93716178D01*
X131381066Y-93672646D01*
X131381722Y-93621653D01*
X131382236Y-93562442D01*
X131382659Y-93494253D01*
X131383041Y-93416328D01*
X131383433Y-93327908D01*
X131383453Y-93323455D01*
X131385587Y-92839444D01*
X131837049Y-92839444D01*
X131834952Y-93365789D01*
X131834590Y-93454917D01*
X131834246Y-93533504D01*
X131833901Y-93602296D01*
X131833539Y-93662039D01*
X131833142Y-93713481D01*
X131832691Y-93757368D01*
X131832168Y-93794448D01*
X131831557Y-93825466D01*
X131830839Y-93851171D01*
X131829995Y-93872309D01*
X131829010Y-93889626D01*
X131827864Y-93903869D01*
X131826539Y-93915786D01*
X131825019Y-93926124D01*
X131823284Y-93935628D01*
X131821318Y-93945046D01*
X131821097Y-93946063D01*
X131809137Y-93992702D01*
X131793749Y-94040285D01*
X131776264Y-94085195D01*
X131758011Y-94123813D01*
X131751375Y-94135704D01*
X131733098Y-94162010D01*
X131707933Y-94191810D01*
X131678498Y-94222518D01*
X131647416Y-94251546D01*
X131617307Y-94276306D01*
X131590977Y-94294103D01*
X131523808Y-94326970D01*
X131449253Y-94353238D01*
X131369555Y-94372198D01*
X131320044Y-94379789D01*
X131289703Y-94382456D01*
X131251437Y-94384246D01*
X131207900Y-94385184D01*
X131161746Y-94385290D01*
X131115628Y-94384588D01*
X131072199Y-94383100D01*
X131034113Y-94380849D01*
X131004023Y-94377857D01*
X130998457Y-94377058D01*
X130916843Y-94360996D01*
X130844324Y-94339391D01*
X130779924Y-94311797D01*
X130722666Y-94277768D01*
X130671572Y-94236858D01*
X130654000Y-94219852D01*
X130611231Y-94170486D01*
X130576175Y-94116647D01*
X130547985Y-94056683D01*
X130525815Y-93988945D01*
X130516851Y-93952219D01*
X130502347Y-93886489D01*
X130500243Y-93362966D01*
X130498139Y-92839444D01*
X130949596Y-92839444D01*
X130951843Y-93320633D01*
G36*
X126391100Y-93326278D02*
G01*
X126391483Y-93412689D01*
X126391864Y-93488555D01*
X126392260Y-93554622D01*
X126392689Y-93611632D01*
X126393166Y-93660331D01*
X126393708Y-93701463D01*
X126394331Y-93735772D01*
X126395051Y-93764002D01*
X126395887Y-93786899D01*
X126396852Y-93805205D01*
X126397965Y-93819666D01*
X126399242Y-93831025D01*
X126400699Y-93840028D01*
X126402352Y-93847418D01*
X126402654Y-93848566D01*
X126417719Y-93894098D01*
X126436444Y-93930163D01*
X126459922Y-93958288D01*
X126489248Y-93980001D01*
X126501648Y-93986639D01*
X126517763Y-93994313D01*
X126531086Y-93999486D01*
X126544508Y-94002649D01*
X126560919Y-94004293D01*
X126583212Y-94004910D01*
X126609663Y-94004992D01*
X126648604Y-94004028D01*
X126678942Y-94000615D01*
X126703243Y-93993918D01*
X126724076Y-93983099D01*
X126744010Y-93967323D01*
X126753639Y-93958117D01*
X126764408Y-93946851D01*
X126774020Y-93935252D01*
X126782540Y-93922647D01*
X126790035Y-93908361D01*
X126796570Y-93891721D01*
X126802211Y-93872054D01*
X126807023Y-93848684D01*
X126811073Y-93820940D01*
X126814426Y-93788146D01*
X126817147Y-93749630D01*
X126819302Y-93704717D01*
X126820958Y-93652733D01*
X126822179Y-93593006D01*
X126823031Y-93524860D01*
X126823581Y-93447624D01*
X126823893Y-93360621D01*
X126824034Y-93263180D01*
X126824051Y-93235966D01*
X126824244Y-92839444D01*
X127275800Y-92839444D01*
X127275751Y-93314989D01*
X127275675Y-93392499D01*
X127275470Y-93467153D01*
X127275144Y-93538039D01*
X127274708Y-93604247D01*
X127274171Y-93664866D01*
X127273543Y-93718986D01*
X127272833Y-93765697D01*
X127272051Y-93804087D01*
X127271207Y-93833247D01*
X127270309Y-93852266D01*
X127270068Y-93855444D01*
X127258174Y-93942462D01*
X127238258Y-94021552D01*
X127210264Y-94092771D01*
X127174138Y-94156179D01*
X127129824Y-94211831D01*
X127077269Y-94259785D01*
X127016418Y-94300099D01*
X126947215Y-94332830D01*
X126869606Y-94358036D01*
X126783536Y-94375773D01*
X126772720Y-94377391D01*
X126749086Y-94379886D01*
X126717173Y-94381973D01*
X126679457Y-94383614D01*
X126638411Y-94384769D01*
X126596511Y-94385400D01*
X126556231Y-94385468D01*
X126520045Y-94384934D01*
X126490428Y-94383758D01*
X126471466Y-94382124D01*
X126393291Y-94369442D01*
X126324163Y-94352781D01*
X126262397Y-94331675D01*
X126218434Y-94311918D01*
X126155401Y-94274706D01*
X126100587Y-94230256D01*
X126053770Y-94178270D01*
X126014731Y-94118447D01*
X125983246Y-94050488D01*
X125959095Y-93974092D01*
X125954222Y-93953837D01*
X125952079Y-93944235D01*
X125950188Y-93934996D01*
X125948531Y-93925374D01*
X125947089Y-93914626D01*
X125945843Y-93902005D01*
X125944775Y-93886767D01*
X125943866Y-93868165D01*
X125943098Y-93845455D01*
X125942451Y-93817891D01*
X125941907Y-93784728D01*
X125941447Y-93745220D01*
X125941053Y-93698623D01*
X125940706Y-93644192D01*
X125940386Y-93581179D01*
X125940077Y-93508842D01*
X125939758Y-93426433D01*
X125939542Y-93368611D01*
X125937580Y-92839444D01*
X126389045Y-92839444D01*
X126391100Y-93326278D01*
X126391100Y-93326278D01*
G37*
X126391100Y-93326278D02*
X126391483Y-93412689D01*
X126391864Y-93488555D01*
X126392260Y-93554622D01*
X126392689Y-93611632D01*
X126393166Y-93660331D01*
X126393708Y-93701463D01*
X126394331Y-93735772D01*
X126395051Y-93764002D01*
X126395887Y-93786899D01*
X126396852Y-93805205D01*
X126397965Y-93819666D01*
X126399242Y-93831025D01*
X126400699Y-93840028D01*
X126402352Y-93847418D01*
X126402654Y-93848566D01*
X126417719Y-93894098D01*
X126436444Y-93930163D01*
X126459922Y-93958288D01*
X126489248Y-93980001D01*
X126501648Y-93986639D01*
X126517763Y-93994313D01*
X126531086Y-93999486D01*
X126544508Y-94002649D01*
X126560919Y-94004293D01*
X126583212Y-94004910D01*
X126609663Y-94004992D01*
X126648604Y-94004028D01*
X126678942Y-94000615D01*
X126703243Y-93993918D01*
X126724076Y-93983099D01*
X126744010Y-93967323D01*
X126753639Y-93958117D01*
X126764408Y-93946851D01*
X126774020Y-93935252D01*
X126782540Y-93922647D01*
X126790035Y-93908361D01*
X126796570Y-93891721D01*
X126802211Y-93872054D01*
X126807023Y-93848684D01*
X126811073Y-93820940D01*
X126814426Y-93788146D01*
X126817147Y-93749630D01*
X126819302Y-93704717D01*
X126820958Y-93652733D01*
X126822179Y-93593006D01*
X126823031Y-93524860D01*
X126823581Y-93447624D01*
X126823893Y-93360621D01*
X126824034Y-93263180D01*
X126824051Y-93235966D01*
X126824244Y-92839444D01*
X127275800Y-92839444D01*
X127275751Y-93314989D01*
X127275675Y-93392499D01*
X127275470Y-93467153D01*
X127275144Y-93538039D01*
X127274708Y-93604247D01*
X127274171Y-93664866D01*
X127273543Y-93718986D01*
X127272833Y-93765697D01*
X127272051Y-93804087D01*
X127271207Y-93833247D01*
X127270309Y-93852266D01*
X127270068Y-93855444D01*
X127258174Y-93942462D01*
X127238258Y-94021552D01*
X127210264Y-94092771D01*
X127174138Y-94156179D01*
X127129824Y-94211831D01*
X127077269Y-94259785D01*
X127016418Y-94300099D01*
X126947215Y-94332830D01*
X126869606Y-94358036D01*
X126783536Y-94375773D01*
X126772720Y-94377391D01*
X126749086Y-94379886D01*
X126717173Y-94381973D01*
X126679457Y-94383614D01*
X126638411Y-94384769D01*
X126596511Y-94385400D01*
X126556231Y-94385468D01*
X126520045Y-94384934D01*
X126490428Y-94383758D01*
X126471466Y-94382124D01*
X126393291Y-94369442D01*
X126324163Y-94352781D01*
X126262397Y-94331675D01*
X126218434Y-94311918D01*
X126155401Y-94274706D01*
X126100587Y-94230256D01*
X126053770Y-94178270D01*
X126014731Y-94118447D01*
X125983246Y-94050488D01*
X125959095Y-93974092D01*
X125954222Y-93953837D01*
X125952079Y-93944235D01*
X125950188Y-93934996D01*
X125948531Y-93925374D01*
X125947089Y-93914626D01*
X125945843Y-93902005D01*
X125944775Y-93886767D01*
X125943866Y-93868165D01*
X125943098Y-93845455D01*
X125942451Y-93817891D01*
X125941907Y-93784728D01*
X125941447Y-93745220D01*
X125941053Y-93698623D01*
X125940706Y-93644192D01*
X125940386Y-93581179D01*
X125940077Y-93508842D01*
X125939758Y-93426433D01*
X125939542Y-93368611D01*
X125937580Y-92839444D01*
X126389045Y-92839444D01*
X126391100Y-93326278D01*
G36*
X137029400Y-91075553D02*
G01*
X137029399Y-91326728D01*
X130220788Y-91328142D01*
X123412177Y-91329555D01*
X123410759Y-93597211D01*
X123409341Y-95864866D01*
X122907000Y-95864866D01*
X122907000Y-90824378D01*
X137029400Y-90824378D01*
X137029400Y-91075553D01*
X137029400Y-91075553D01*
G37*
X137029400Y-91075553D02*
X137029399Y-91326728D01*
X130220788Y-91328142D01*
X123412177Y-91329555D01*
X123410759Y-93597211D01*
X123409341Y-95864866D01*
X122907000Y-95864866D01*
X122907000Y-90824378D01*
X137029400Y-90824378D01*
X137029400Y-91075553D01*
G36*
X114485434Y-90681358D02*
G01*
X114490700Y-90690042D01*
X114497666Y-90703670D01*
X114500380Y-90709028D01*
X114521037Y-90751641D01*
X114541784Y-90798600D01*
X114562722Y-90850196D01*
X114583952Y-90906719D01*
X114605576Y-90968459D01*
X114627695Y-91035709D01*
X114650411Y-91108757D01*
X114673825Y-91187896D01*
X114698037Y-91273415D01*
X114701445Y-91285727D01*
X114708445Y-91311289D01*
X114714820Y-91334967D01*
X114720350Y-91355913D01*
X114724817Y-91373283D01*
X114728001Y-91386232D01*
X114729683Y-91393913D01*
X114729893Y-91395487D01*
X114728389Y-91400155D01*
X114724143Y-91409989D01*
X114717554Y-91424151D01*
X114709020Y-91441807D01*
X114698939Y-91462119D01*
X114687710Y-91484252D01*
X114686179Y-91487233D01*
X114672336Y-91514341D01*
X114657498Y-91543750D01*
X114641502Y-91575803D01*
X114624179Y-91610843D01*
X114605366Y-91649211D01*
X114584894Y-91691249D01*
X114562600Y-91737300D01*
X114538316Y-91787704D01*
X114511877Y-91842806D01*
X114483116Y-91902946D01*
X114451869Y-91968466D01*
X114417968Y-92039709D01*
X114409959Y-92056560D01*
X114364895Y-92151133D01*
X114322377Y-92239811D01*
X114282241Y-92322907D01*
X114244322Y-92400732D01*
X114208456Y-92473598D01*
X114174479Y-92541819D01*
X114142226Y-92605707D01*
X114111533Y-92665573D01*
X114082237Y-92721731D01*
X114054172Y-92774492D01*
X114027175Y-92824169D01*
X114001081Y-92871074D01*
X113975726Y-92915520D01*
X113950945Y-92957819D01*
X113926575Y-92998283D01*
X113902451Y-93037224D01*
X113878410Y-93074956D01*
X113857839Y-93106426D01*
X113841429Y-93130945D01*
X113824779Y-93155280D01*
X113808316Y-93178851D01*
X113792471Y-93201078D01*
X113777675Y-93221382D01*
X113764357Y-93239182D01*
X113752947Y-93253898D01*
X113743875Y-93264951D01*
X113737571Y-93271761D01*
X113734465Y-93273748D01*
X113734213Y-93273151D01*
X113735331Y-93269688D01*
X113738416Y-93261002D01*
X113743061Y-93248216D01*
X113748860Y-93232449D01*
X113752364Y-93222997D01*
X113764473Y-93189858D01*
X113776511Y-93155744D01*
X113788557Y-93120361D01*
X113800689Y-93083416D01*
X113812987Y-93044615D01*
X113825529Y-93003664D01*
X113838394Y-92960269D01*
X113851662Y-92914137D01*
X113865411Y-92864975D01*
X113879719Y-92812488D01*
X113894667Y-92756383D01*
X113910333Y-92696366D01*
X113926795Y-92632144D01*
X113944133Y-92563423D01*
X113962426Y-92489909D01*
X113981753Y-92411308D01*
X114002192Y-92327328D01*
X114023823Y-92237673D01*
X114046724Y-92142051D01*
X114070974Y-92040169D01*
X114076325Y-92017613D01*
X114094153Y-91942693D01*
X114111788Y-91869100D01*
X114129097Y-91797374D01*
X114145946Y-91728056D01*
X114162202Y-91661686D01*
X114177731Y-91598807D01*
X114192400Y-91539958D01*
X114206076Y-91485680D01*
X114218624Y-91436515D01*
X114229912Y-91393003D01*
X114237583Y-91363986D01*
X114264186Y-91266382D01*
X114290093Y-91175458D01*
X114315324Y-91091160D01*
X114339896Y-91013431D01*
X114363829Y-90942218D01*
X114387140Y-90877465D01*
X114409849Y-90819117D01*
X114431974Y-90767118D01*
X114453533Y-90721414D01*
X114455387Y-90717725D01*
X114464674Y-90699275D01*
X114471487Y-90686574D01*
X114476662Y-90679462D01*
X114481032Y-90677777D01*
X114485434Y-90681358D01*
X114485434Y-90681358D01*
G37*
X114485434Y-90681358D02*
X114490700Y-90690042D01*
X114497666Y-90703670D01*
X114500380Y-90709028D01*
X114521037Y-90751641D01*
X114541784Y-90798600D01*
X114562722Y-90850196D01*
X114583952Y-90906719D01*
X114605576Y-90968459D01*
X114627695Y-91035709D01*
X114650411Y-91108757D01*
X114673825Y-91187896D01*
X114698037Y-91273415D01*
X114701445Y-91285727D01*
X114708445Y-91311289D01*
X114714820Y-91334967D01*
X114720350Y-91355913D01*
X114724817Y-91373283D01*
X114728001Y-91386232D01*
X114729683Y-91393913D01*
X114729893Y-91395487D01*
X114728389Y-91400155D01*
X114724143Y-91409989D01*
X114717554Y-91424151D01*
X114709020Y-91441807D01*
X114698939Y-91462119D01*
X114687710Y-91484252D01*
X114686179Y-91487233D01*
X114672336Y-91514341D01*
X114657498Y-91543750D01*
X114641502Y-91575803D01*
X114624179Y-91610843D01*
X114605366Y-91649211D01*
X114584894Y-91691249D01*
X114562600Y-91737300D01*
X114538316Y-91787704D01*
X114511877Y-91842806D01*
X114483116Y-91902946D01*
X114451869Y-91968466D01*
X114417968Y-92039709D01*
X114409959Y-92056560D01*
X114364895Y-92151133D01*
X114322377Y-92239811D01*
X114282241Y-92322907D01*
X114244322Y-92400732D01*
X114208456Y-92473598D01*
X114174479Y-92541819D01*
X114142226Y-92605707D01*
X114111533Y-92665573D01*
X114082237Y-92721731D01*
X114054172Y-92774492D01*
X114027175Y-92824169D01*
X114001081Y-92871074D01*
X113975726Y-92915520D01*
X113950945Y-92957819D01*
X113926575Y-92998283D01*
X113902451Y-93037224D01*
X113878410Y-93074956D01*
X113857839Y-93106426D01*
X113841429Y-93130945D01*
X113824779Y-93155280D01*
X113808316Y-93178851D01*
X113792471Y-93201078D01*
X113777675Y-93221382D01*
X113764357Y-93239182D01*
X113752947Y-93253898D01*
X113743875Y-93264951D01*
X113737571Y-93271761D01*
X113734465Y-93273748D01*
X113734213Y-93273151D01*
X113735331Y-93269688D01*
X113738416Y-93261002D01*
X113743061Y-93248216D01*
X113748860Y-93232449D01*
X113752364Y-93222997D01*
X113764473Y-93189858D01*
X113776511Y-93155744D01*
X113788557Y-93120361D01*
X113800689Y-93083416D01*
X113812987Y-93044615D01*
X113825529Y-93003664D01*
X113838394Y-92960269D01*
X113851662Y-92914137D01*
X113865411Y-92864975D01*
X113879719Y-92812488D01*
X113894667Y-92756383D01*
X113910333Y-92696366D01*
X113926795Y-92632144D01*
X113944133Y-92563423D01*
X113962426Y-92489909D01*
X113981753Y-92411308D01*
X114002192Y-92327328D01*
X114023823Y-92237673D01*
X114046724Y-92142051D01*
X114070974Y-92040169D01*
X114076325Y-92017613D01*
X114094153Y-91942693D01*
X114111788Y-91869100D01*
X114129097Y-91797374D01*
X114145946Y-91728056D01*
X114162202Y-91661686D01*
X114177731Y-91598807D01*
X114192400Y-91539958D01*
X114206076Y-91485680D01*
X114218624Y-91436515D01*
X114229912Y-91393003D01*
X114237583Y-91363986D01*
X114264186Y-91266382D01*
X114290093Y-91175458D01*
X114315324Y-91091160D01*
X114339896Y-91013431D01*
X114363829Y-90942218D01*
X114387140Y-90877465D01*
X114409849Y-90819117D01*
X114431974Y-90767118D01*
X114453533Y-90721414D01*
X114455387Y-90717725D01*
X114464674Y-90699275D01*
X114471487Y-90686574D01*
X114476662Y-90679462D01*
X114481032Y-90677777D01*
X114485434Y-90681358D01*
G36*
X112206210Y-90676068D02*
G01*
X112211074Y-90684352D01*
X112217762Y-90697062D01*
X112225850Y-90713296D01*
X112234910Y-90732158D01*
X112244519Y-90752747D01*
X112254249Y-90774164D01*
X112263677Y-90795511D01*
X112272375Y-90815889D01*
X112279716Y-90833886D01*
X112293110Y-90868335D01*
X112306333Y-90903631D01*
X112319468Y-90940076D01*
X112332598Y-90977974D01*
X112345806Y-91017626D01*
X112359177Y-91059333D01*
X112372793Y-91103398D01*
X112386738Y-91150122D01*
X112401094Y-91199807D01*
X112415947Y-91252757D01*
X112431378Y-91309271D01*
X112447472Y-91369652D01*
X112464311Y-91434203D01*
X112481980Y-91503225D01*
X112500560Y-91577020D01*
X112520137Y-91655890D01*
X112540793Y-91740136D01*
X112562612Y-91830062D01*
X112585677Y-91925968D01*
X112610071Y-92028157D01*
X112613202Y-92041320D01*
X112635217Y-92133726D01*
X112655843Y-92219899D01*
X112675178Y-92300214D01*
X112693317Y-92375046D01*
X112710359Y-92444771D01*
X112726399Y-92509763D01*
X112741535Y-92570399D01*
X112755864Y-92627053D01*
X112769482Y-92680100D01*
X112782486Y-92729916D01*
X112794974Y-92776875D01*
X112807042Y-92821354D01*
X112818787Y-92863728D01*
X112830306Y-92904370D01*
X112841696Y-92943658D01*
X112853054Y-92981966D01*
X112864476Y-93019669D01*
X112872898Y-93046983D01*
X112881900Y-93075523D01*
X112891638Y-93105607D01*
X112901740Y-93136144D01*
X112911833Y-93166045D01*
X112921542Y-93194219D01*
X112930497Y-93219577D01*
X112938323Y-93241029D01*
X112944647Y-93257485D01*
X112946447Y-93261886D01*
X112949547Y-93270322D01*
X112950734Y-93275744D01*
X112950554Y-93276534D01*
X112948189Y-93274405D01*
X112942450Y-93267628D01*
X112933979Y-93257011D01*
X112923419Y-93243358D01*
X112911411Y-93227478D01*
X112910352Y-93226061D01*
X112885210Y-93191847D01*
X112860253Y-93156711D01*
X112835332Y-93120380D01*
X112810299Y-93082579D01*
X112785005Y-93043033D01*
X112759301Y-93001467D01*
X112733038Y-92957606D01*
X112706067Y-92911177D01*
X112678239Y-92861904D01*
X112649406Y-92809512D01*
X112619418Y-92753727D01*
X112588127Y-92694275D01*
X112555384Y-92630880D01*
X112521040Y-92563268D01*
X112484946Y-92491164D01*
X112446954Y-92414294D01*
X112406914Y-92332383D01*
X112364677Y-92245156D01*
X112320095Y-92152338D01*
X112273019Y-92053655D01*
X112259110Y-92024386D01*
X112237632Y-91979284D01*
X112214763Y-91931494D01*
X112190992Y-91882028D01*
X112166810Y-91831897D01*
X112142707Y-91782113D01*
X112119174Y-91733686D01*
X112096701Y-91687630D01*
X112075779Y-91644955D01*
X112056897Y-91606673D01*
X112044898Y-91582511D01*
X111952102Y-91396329D01*
X111973208Y-91318351D01*
X112000285Y-91220674D01*
X112026831Y-91129695D01*
X112052861Y-91045361D01*
X112078394Y-90967618D01*
X112103446Y-90896414D01*
X112124470Y-90840746D01*
X112130866Y-90825009D01*
X112138722Y-90806630D01*
X112147606Y-90786525D01*
X112157086Y-90765610D01*
X112166731Y-90744802D01*
X112176106Y-90725016D01*
X112184781Y-90707167D01*
X112192322Y-90692173D01*
X112198298Y-90680949D01*
X112202276Y-90674410D01*
X112203596Y-90673106D01*
X112206210Y-90676068D01*
X112206210Y-90676068D01*
G37*
X112206210Y-90676068D02*
X112211074Y-90684352D01*
X112217762Y-90697062D01*
X112225850Y-90713296D01*
X112234910Y-90732158D01*
X112244519Y-90752747D01*
X112254249Y-90774164D01*
X112263677Y-90795511D01*
X112272375Y-90815889D01*
X112279716Y-90833886D01*
X112293110Y-90868335D01*
X112306333Y-90903631D01*
X112319468Y-90940076D01*
X112332598Y-90977974D01*
X112345806Y-91017626D01*
X112359177Y-91059333D01*
X112372793Y-91103398D01*
X112386738Y-91150122D01*
X112401094Y-91199807D01*
X112415947Y-91252757D01*
X112431378Y-91309271D01*
X112447472Y-91369652D01*
X112464311Y-91434203D01*
X112481980Y-91503225D01*
X112500560Y-91577020D01*
X112520137Y-91655890D01*
X112540793Y-91740136D01*
X112562612Y-91830062D01*
X112585677Y-91925968D01*
X112610071Y-92028157D01*
X112613202Y-92041320D01*
X112635217Y-92133726D01*
X112655843Y-92219899D01*
X112675178Y-92300214D01*
X112693317Y-92375046D01*
X112710359Y-92444771D01*
X112726399Y-92509763D01*
X112741535Y-92570399D01*
X112755864Y-92627053D01*
X112769482Y-92680100D01*
X112782486Y-92729916D01*
X112794974Y-92776875D01*
X112807042Y-92821354D01*
X112818787Y-92863728D01*
X112830306Y-92904370D01*
X112841696Y-92943658D01*
X112853054Y-92981966D01*
X112864476Y-93019669D01*
X112872898Y-93046983D01*
X112881900Y-93075523D01*
X112891638Y-93105607D01*
X112901740Y-93136144D01*
X112911833Y-93166045D01*
X112921542Y-93194219D01*
X112930497Y-93219577D01*
X112938323Y-93241029D01*
X112944647Y-93257485D01*
X112946447Y-93261886D01*
X112949547Y-93270322D01*
X112950734Y-93275744D01*
X112950554Y-93276534D01*
X112948189Y-93274405D01*
X112942450Y-93267628D01*
X112933979Y-93257011D01*
X112923419Y-93243358D01*
X112911411Y-93227478D01*
X112910352Y-93226061D01*
X112885210Y-93191847D01*
X112860253Y-93156711D01*
X112835332Y-93120380D01*
X112810299Y-93082579D01*
X112785005Y-93043033D01*
X112759301Y-93001467D01*
X112733038Y-92957606D01*
X112706067Y-92911177D01*
X112678239Y-92861904D01*
X112649406Y-92809512D01*
X112619418Y-92753727D01*
X112588127Y-92694275D01*
X112555384Y-92630880D01*
X112521040Y-92563268D01*
X112484946Y-92491164D01*
X112446954Y-92414294D01*
X112406914Y-92332383D01*
X112364677Y-92245156D01*
X112320095Y-92152338D01*
X112273019Y-92053655D01*
X112259110Y-92024386D01*
X112237632Y-91979284D01*
X112214763Y-91931494D01*
X112190992Y-91882028D01*
X112166810Y-91831897D01*
X112142707Y-91782113D01*
X112119174Y-91733686D01*
X112096701Y-91687630D01*
X112075779Y-91644955D01*
X112056897Y-91606673D01*
X112044898Y-91582511D01*
X111952102Y-91396329D01*
X111973208Y-91318351D01*
X112000285Y-91220674D01*
X112026831Y-91129695D01*
X112052861Y-91045361D01*
X112078394Y-90967618D01*
X112103446Y-90896414D01*
X112124470Y-90840746D01*
X112130866Y-90825009D01*
X112138722Y-90806630D01*
X112147606Y-90786525D01*
X112157086Y-90765610D01*
X112166731Y-90744802D01*
X112176106Y-90725016D01*
X112184781Y-90707167D01*
X112192322Y-90692173D01*
X112198298Y-90680949D01*
X112202276Y-90674410D01*
X112203596Y-90673106D01*
X112206210Y-90676068D01*
G36*
X111104010Y-90555456D02*
G01*
X111139567Y-90564892D01*
X111176583Y-90580117D01*
X111215727Y-90601107D01*
X111229773Y-90609635D01*
X111273157Y-90639663D01*
X111317623Y-90676300D01*
X111363113Y-90719475D01*
X111409567Y-90769121D01*
X111456929Y-90825168D01*
X111505141Y-90887547D01*
X111554144Y-90956189D01*
X111603880Y-91031026D01*
X111654291Y-91111988D01*
X111658476Y-91118935D01*
X111696403Y-91182048D01*
X111687128Y-91214597D01*
X111676514Y-91252347D01*
X111665329Y-91293122D01*
X111653500Y-91337214D01*
X111640954Y-91384914D01*
X111627618Y-91436514D01*
X111613419Y-91492307D01*
X111598284Y-91552584D01*
X111582139Y-91617637D01*
X111564911Y-91687757D01*
X111546528Y-91763237D01*
X111526916Y-91844368D01*
X111506002Y-91931443D01*
X111483712Y-92024752D01*
X111476944Y-92053173D01*
X111454110Y-92148885D01*
X111432647Y-92238336D01*
X111412463Y-92321874D01*
X111393465Y-92399852D01*
X111375562Y-92472620D01*
X111358661Y-92540529D01*
X111342670Y-92603931D01*
X111327495Y-92663175D01*
X111313045Y-92718612D01*
X111299228Y-92770594D01*
X111285950Y-92819472D01*
X111273120Y-92865596D01*
X111260645Y-92909317D01*
X111248433Y-92950986D01*
X111236392Y-92990953D01*
X111224428Y-93029571D01*
X111212450Y-93067189D01*
X111200366Y-93104159D01*
X111199615Y-93106426D01*
X111190138Y-93134558D01*
X111179885Y-93164206D01*
X111169444Y-93193723D01*
X111159403Y-93221460D01*
X111150352Y-93245768D01*
X111143991Y-93262213D01*
X111135046Y-93284158D01*
X111125270Y-93307109D01*
X111115064Y-93330223D01*
X111104829Y-93352662D01*
X111094965Y-93373584D01*
X111085874Y-93392148D01*
X111077956Y-93407514D01*
X111071612Y-93418841D01*
X111067242Y-93425288D01*
X111065695Y-93426466D01*
X111063007Y-93423597D01*
X111058000Y-93415707D01*
X111051301Y-93403878D01*
X111043538Y-93389186D01*
X111040306Y-93382812D01*
X111026230Y-93353911D01*
X111012280Y-93323576D01*
X110998387Y-93291559D01*
X110984477Y-93257611D01*
X110970479Y-93221485D01*
X110956320Y-93182932D01*
X110941929Y-93141705D01*
X110927234Y-93097555D01*
X110912163Y-93050234D01*
X110896643Y-92999494D01*
X110880603Y-92945087D01*
X110863971Y-92886766D01*
X110846675Y-92824280D01*
X110828643Y-92757384D01*
X110809803Y-92685828D01*
X110790083Y-92609364D01*
X110769411Y-92527745D01*
X110747715Y-92440722D01*
X110724923Y-92348047D01*
X110700963Y-92249472D01*
X110675763Y-92144749D01*
X110650677Y-92039626D01*
X110626145Y-91936821D01*
X110602763Y-91839577D01*
X110580562Y-91748017D01*
X110559571Y-91662262D01*
X110539820Y-91582435D01*
X110521340Y-91508655D01*
X110504162Y-91441045D01*
X110488314Y-91379726D01*
X110473828Y-91324821D01*
X110464022Y-91288466D01*
X110434661Y-91180772D01*
X110472917Y-91117439D01*
X110522667Y-91037318D01*
X110571207Y-90963714D01*
X110618641Y-90896499D01*
X110665075Y-90835546D01*
X110710614Y-90780726D01*
X110755366Y-90731913D01*
X110799435Y-90688980D01*
X110842926Y-90651798D01*
X110883773Y-90621708D01*
X110924651Y-90595921D01*
X110962967Y-90576064D01*
X110999390Y-90562112D01*
X111034592Y-90554043D01*
X111069242Y-90551832D01*
X111104010Y-90555456D01*
X111104010Y-90555456D01*
G37*
X111104010Y-90555456D02*
X111139567Y-90564892D01*
X111176583Y-90580117D01*
X111215727Y-90601107D01*
X111229773Y-90609635D01*
X111273157Y-90639663D01*
X111317623Y-90676300D01*
X111363113Y-90719475D01*
X111409567Y-90769121D01*
X111456929Y-90825168D01*
X111505141Y-90887547D01*
X111554144Y-90956189D01*
X111603880Y-91031026D01*
X111654291Y-91111988D01*
X111658476Y-91118935D01*
X111696403Y-91182048D01*
X111687128Y-91214597D01*
X111676514Y-91252347D01*
X111665329Y-91293122D01*
X111653500Y-91337214D01*
X111640954Y-91384914D01*
X111627618Y-91436514D01*
X111613419Y-91492307D01*
X111598284Y-91552584D01*
X111582139Y-91617637D01*
X111564911Y-91687757D01*
X111546528Y-91763237D01*
X111526916Y-91844368D01*
X111506002Y-91931443D01*
X111483712Y-92024752D01*
X111476944Y-92053173D01*
X111454110Y-92148885D01*
X111432647Y-92238336D01*
X111412463Y-92321874D01*
X111393465Y-92399852D01*
X111375562Y-92472620D01*
X111358661Y-92540529D01*
X111342670Y-92603931D01*
X111327495Y-92663175D01*
X111313045Y-92718612D01*
X111299228Y-92770594D01*
X111285950Y-92819472D01*
X111273120Y-92865596D01*
X111260645Y-92909317D01*
X111248433Y-92950986D01*
X111236392Y-92990953D01*
X111224428Y-93029571D01*
X111212450Y-93067189D01*
X111200366Y-93104159D01*
X111199615Y-93106426D01*
X111190138Y-93134558D01*
X111179885Y-93164206D01*
X111169444Y-93193723D01*
X111159403Y-93221460D01*
X111150352Y-93245768D01*
X111143991Y-93262213D01*
X111135046Y-93284158D01*
X111125270Y-93307109D01*
X111115064Y-93330223D01*
X111104829Y-93352662D01*
X111094965Y-93373584D01*
X111085874Y-93392148D01*
X111077956Y-93407514D01*
X111071612Y-93418841D01*
X111067242Y-93425288D01*
X111065695Y-93426466D01*
X111063007Y-93423597D01*
X111058000Y-93415707D01*
X111051301Y-93403878D01*
X111043538Y-93389186D01*
X111040306Y-93382812D01*
X111026230Y-93353911D01*
X111012280Y-93323576D01*
X110998387Y-93291559D01*
X110984477Y-93257611D01*
X110970479Y-93221485D01*
X110956320Y-93182932D01*
X110941929Y-93141705D01*
X110927234Y-93097555D01*
X110912163Y-93050234D01*
X110896643Y-92999494D01*
X110880603Y-92945087D01*
X110863971Y-92886766D01*
X110846675Y-92824280D01*
X110828643Y-92757384D01*
X110809803Y-92685828D01*
X110790083Y-92609364D01*
X110769411Y-92527745D01*
X110747715Y-92440722D01*
X110724923Y-92348047D01*
X110700963Y-92249472D01*
X110675763Y-92144749D01*
X110650677Y-92039626D01*
X110626145Y-91936821D01*
X110602763Y-91839577D01*
X110580562Y-91748017D01*
X110559571Y-91662262D01*
X110539820Y-91582435D01*
X110521340Y-91508655D01*
X110504162Y-91441045D01*
X110488314Y-91379726D01*
X110473828Y-91324821D01*
X110464022Y-91288466D01*
X110434661Y-91180772D01*
X110472917Y-91117439D01*
X110522667Y-91037318D01*
X110571207Y-90963714D01*
X110618641Y-90896499D01*
X110665075Y-90835546D01*
X110710614Y-90780726D01*
X110755366Y-90731913D01*
X110799435Y-90688980D01*
X110842926Y-90651798D01*
X110883773Y-90621708D01*
X110924651Y-90595921D01*
X110962967Y-90576064D01*
X110999390Y-90562112D01*
X111034592Y-90554043D01*
X111069242Y-90551832D01*
X111104010Y-90555456D01*
G36*
X115664048Y-90556900D02*
G01*
X115697689Y-90566991D01*
X115730653Y-90581154D01*
X115768568Y-90601312D01*
X115805119Y-90624551D01*
X115841284Y-90651616D01*
X115878044Y-90683251D01*
X115916379Y-90720200D01*
X115923779Y-90727736D01*
X115961767Y-90768315D01*
X115999247Y-90811642D01*
X116036633Y-90858280D01*
X116074337Y-90908792D01*
X116112772Y-90963742D01*
X116152352Y-91023692D01*
X116193489Y-91089206D01*
X116215131Y-91124824D01*
X116249519Y-91181995D01*
X116243046Y-91202717D01*
X116235356Y-91228296D01*
X116226238Y-91260359D01*
X116215725Y-91298777D01*
X116203849Y-91343421D01*
X116190643Y-91394160D01*
X116176139Y-91450865D01*
X116160369Y-91513407D01*
X116143368Y-91581656D01*
X116125166Y-91655482D01*
X116105797Y-91734756D01*
X116085294Y-91819349D01*
X116063688Y-91909130D01*
X116041013Y-92003971D01*
X116033731Y-92034546D01*
X116010943Y-92130114D01*
X115989540Y-92219419D01*
X115969431Y-92302807D01*
X115950525Y-92380627D01*
X115932730Y-92453224D01*
X115915957Y-92520948D01*
X115900115Y-92584144D01*
X115885111Y-92643160D01*
X115870856Y-92698344D01*
X115857259Y-92750042D01*
X115844228Y-92798602D01*
X115831673Y-92844370D01*
X115819503Y-92887695D01*
X115807627Y-92928924D01*
X115795954Y-92968403D01*
X115784394Y-93006480D01*
X115772854Y-93043502D01*
X115761245Y-93079817D01*
X115755339Y-93097960D01*
X115739383Y-93145355D01*
X115722837Y-93192005D01*
X115706037Y-93237072D01*
X115689321Y-93279715D01*
X115673024Y-93319097D01*
X115657485Y-93354377D01*
X115643040Y-93384716D01*
X115631080Y-93407412D01*
X115618000Y-93430692D01*
X115605936Y-93409106D01*
X115589888Y-93378336D01*
X115572688Y-93341523D01*
X115554556Y-93299256D01*
X115535714Y-93252125D01*
X115516382Y-93200719D01*
X115496780Y-93145628D01*
X115477131Y-93087441D01*
X115457654Y-93026747D01*
X115438571Y-92964136D01*
X115436081Y-92955720D01*
X115418685Y-92895494D01*
X115400134Y-92828955D01*
X115380518Y-92756445D01*
X115359930Y-92678310D01*
X115338463Y-92594892D01*
X115322672Y-92532386D01*
X115315912Y-92505398D01*
X115309505Y-92479741D01*
X115303326Y-92454893D01*
X115297249Y-92430332D01*
X115291147Y-92405535D01*
X115284894Y-92379981D01*
X115278364Y-92353147D01*
X115271432Y-92324511D01*
X115263970Y-92293551D01*
X115255854Y-92259744D01*
X115246956Y-92222568D01*
X115237151Y-92181502D01*
X115226313Y-92136022D01*
X115214316Y-92085607D01*
X115201033Y-92029735D01*
X115186339Y-91967883D01*
X115183672Y-91956653D01*
X115161265Y-91862648D01*
X115140192Y-91774947D01*
X115120370Y-91693227D01*
X115101719Y-91617167D01*
X115084158Y-91546446D01*
X115067607Y-91480742D01*
X115051984Y-91419734D01*
X115037209Y-91363102D01*
X115023202Y-91310522D01*
X115009881Y-91261674D01*
X115001114Y-91230213D01*
X114987778Y-91182800D01*
X114998286Y-91164173D01*
X115008842Y-91145965D01*
X115022363Y-91123422D01*
X115038043Y-91097835D01*
X115055075Y-91070493D01*
X115072655Y-91042689D01*
X115089976Y-91015713D01*
X115106232Y-90990857D01*
X115110332Y-90984680D01*
X115159441Y-90913612D01*
X115207950Y-90848736D01*
X115255787Y-90790129D01*
X115302880Y-90737869D01*
X115349155Y-90692036D01*
X115394542Y-90652708D01*
X115438969Y-90619964D01*
X115454640Y-90609848D01*
X115494173Y-90587124D01*
X115530859Y-90570063D01*
X115565443Y-90558588D01*
X115598671Y-90552620D01*
X115631291Y-90552084D01*
X115664048Y-90556900D01*
X115664048Y-90556900D01*
G37*
X115664048Y-90556900D02*
X115697689Y-90566991D01*
X115730653Y-90581154D01*
X115768568Y-90601312D01*
X115805119Y-90624551D01*
X115841284Y-90651616D01*
X115878044Y-90683251D01*
X115916379Y-90720200D01*
X115923779Y-90727736D01*
X115961767Y-90768315D01*
X115999247Y-90811642D01*
X116036633Y-90858280D01*
X116074337Y-90908792D01*
X116112772Y-90963742D01*
X116152352Y-91023692D01*
X116193489Y-91089206D01*
X116215131Y-91124824D01*
X116249519Y-91181995D01*
X116243046Y-91202717D01*
X116235356Y-91228296D01*
X116226238Y-91260359D01*
X116215725Y-91298777D01*
X116203849Y-91343421D01*
X116190643Y-91394160D01*
X116176139Y-91450865D01*
X116160369Y-91513407D01*
X116143368Y-91581656D01*
X116125166Y-91655482D01*
X116105797Y-91734756D01*
X116085294Y-91819349D01*
X116063688Y-91909130D01*
X116041013Y-92003971D01*
X116033731Y-92034546D01*
X116010943Y-92130114D01*
X115989540Y-92219419D01*
X115969431Y-92302807D01*
X115950525Y-92380627D01*
X115932730Y-92453224D01*
X115915957Y-92520948D01*
X115900115Y-92584144D01*
X115885111Y-92643160D01*
X115870856Y-92698344D01*
X115857259Y-92750042D01*
X115844228Y-92798602D01*
X115831673Y-92844370D01*
X115819503Y-92887695D01*
X115807627Y-92928924D01*
X115795954Y-92968403D01*
X115784394Y-93006480D01*
X115772854Y-93043502D01*
X115761245Y-93079817D01*
X115755339Y-93097960D01*
X115739383Y-93145355D01*
X115722837Y-93192005D01*
X115706037Y-93237072D01*
X115689321Y-93279715D01*
X115673024Y-93319097D01*
X115657485Y-93354377D01*
X115643040Y-93384716D01*
X115631080Y-93407412D01*
X115618000Y-93430692D01*
X115605936Y-93409106D01*
X115589888Y-93378336D01*
X115572688Y-93341523D01*
X115554556Y-93299256D01*
X115535714Y-93252125D01*
X115516382Y-93200719D01*
X115496780Y-93145628D01*
X115477131Y-93087441D01*
X115457654Y-93026747D01*
X115438571Y-92964136D01*
X115436081Y-92955720D01*
X115418685Y-92895494D01*
X115400134Y-92828955D01*
X115380518Y-92756445D01*
X115359930Y-92678310D01*
X115338463Y-92594892D01*
X115322672Y-92532386D01*
X115315912Y-92505398D01*
X115309505Y-92479741D01*
X115303326Y-92454893D01*
X115297249Y-92430332D01*
X115291147Y-92405535D01*
X115284894Y-92379981D01*
X115278364Y-92353147D01*
X115271432Y-92324511D01*
X115263970Y-92293551D01*
X115255854Y-92259744D01*
X115246956Y-92222568D01*
X115237151Y-92181502D01*
X115226313Y-92136022D01*
X115214316Y-92085607D01*
X115201033Y-92029735D01*
X115186339Y-91967883D01*
X115183672Y-91956653D01*
X115161265Y-91862648D01*
X115140192Y-91774947D01*
X115120370Y-91693227D01*
X115101719Y-91617167D01*
X115084158Y-91546446D01*
X115067607Y-91480742D01*
X115051984Y-91419734D01*
X115037209Y-91363102D01*
X115023202Y-91310522D01*
X115009881Y-91261674D01*
X115001114Y-91230213D01*
X114987778Y-91182800D01*
X114998286Y-91164173D01*
X115008842Y-91145965D01*
X115022363Y-91123422D01*
X115038043Y-91097835D01*
X115055075Y-91070493D01*
X115072655Y-91042689D01*
X115089976Y-91015713D01*
X115106232Y-90990857D01*
X115110332Y-90984680D01*
X115159441Y-90913612D01*
X115207950Y-90848736D01*
X115255787Y-90790129D01*
X115302880Y-90737869D01*
X115349155Y-90692036D01*
X115394542Y-90652708D01*
X115438969Y-90619964D01*
X115454640Y-90609848D01*
X115494173Y-90587124D01*
X115530859Y-90570063D01*
X115565443Y-90558588D01*
X115598671Y-90552620D01*
X115631291Y-90552084D01*
X115664048Y-90556900D01*
G36*
X113492297Y-88895127D02*
G01*
X113639021Y-88905171D01*
X113784716Y-88921822D01*
X113929182Y-88945013D01*
X114072216Y-88974674D01*
X114213617Y-89010736D01*
X114353184Y-89053132D01*
X114490715Y-89101793D01*
X114626009Y-89156651D01*
X114758865Y-89217636D01*
X114889081Y-89284681D01*
X115016455Y-89357717D01*
X115140786Y-89436675D01*
X115261873Y-89521487D01*
X115315786Y-89561956D01*
X115411765Y-89638849D01*
X115506816Y-89721475D01*
X115599868Y-89808794D01*
X115689854Y-89899765D01*
X115775702Y-89993349D01*
X115852534Y-90083826D01*
X115924618Y-90175860D01*
X115995122Y-90273193D01*
X116063063Y-90374378D01*
X116127462Y-90477968D01*
X116172788Y-90556266D01*
X116187666Y-90583510D01*
X116204514Y-90615554D01*
X116222630Y-90650977D01*
X116241312Y-90688355D01*
X116259858Y-90726265D01*
X116277565Y-90763285D01*
X116293731Y-90797993D01*
X116307654Y-90828964D01*
X116309593Y-90833401D01*
X116338813Y-90900563D01*
X116317272Y-90965047D01*
X116295731Y-91029532D01*
X116259906Y-90975779D01*
X116215361Y-90910923D01*
X116172033Y-90851936D01*
X116129385Y-90798145D01*
X116086882Y-90748878D01*
X116043988Y-90703462D01*
X116038963Y-90698414D01*
X115993323Y-90655298D01*
X115948645Y-90618257D01*
X115904249Y-90586794D01*
X115859454Y-90560414D01*
X115828866Y-90545330D01*
X115791012Y-90529363D01*
X115755404Y-90517365D01*
X115719499Y-90508657D01*
X115680752Y-90502559D01*
X115660840Y-90500401D01*
X115604511Y-90498379D01*
X115548571Y-90503117D01*
X115493033Y-90514610D01*
X115437914Y-90532855D01*
X115383228Y-90557848D01*
X115341186Y-90581836D01*
X115315110Y-90598717D01*
X115290872Y-90616022D01*
X115267186Y-90634806D01*
X115242764Y-90656124D01*
X115216319Y-90681032D01*
X115197070Y-90700012D01*
X115161049Y-90737355D01*
X115126211Y-90776275D01*
X115091820Y-90817696D01*
X115057135Y-90862544D01*
X115021418Y-90911744D01*
X114983931Y-90966220D01*
X114981096Y-90970442D01*
X114941731Y-91029156D01*
X114920880Y-90967125D01*
X114901672Y-90911262D01*
X114883441Y-90861001D01*
X114865774Y-90815316D01*
X114848256Y-90773178D01*
X114830475Y-90733560D01*
X114812017Y-90695437D01*
X114809294Y-90690040D01*
X114785612Y-90645945D01*
X114762292Y-90608044D01*
X114738879Y-90575803D01*
X114714917Y-90548693D01*
X114689950Y-90526182D01*
X114663524Y-90507738D01*
X114643533Y-90496776D01*
X114607213Y-90482077D01*
X114567325Y-90471635D01*
X114525042Y-90465408D01*
X114481536Y-90463353D01*
X114437979Y-90465429D01*
X114395542Y-90471594D01*
X114355398Y-90481805D01*
X114318718Y-90496021D01*
X114294185Y-90509287D01*
X114268112Y-90528300D01*
X114242523Y-90552610D01*
X114217306Y-90582406D01*
X114192347Y-90617873D01*
X114167531Y-90659200D01*
X114142745Y-90706572D01*
X114117876Y-90760178D01*
X114092809Y-90820204D01*
X114071929Y-90874613D01*
X114057899Y-90913221D01*
X114043888Y-90953338D01*
X114029810Y-90995276D01*
X114015580Y-91039346D01*
X114001114Y-91085862D01*
X113986326Y-91135135D01*
X113971131Y-91187479D01*
X113955444Y-91243205D01*
X113939180Y-91302627D01*
X113922255Y-91366055D01*
X113904582Y-91433804D01*
X113886077Y-91506185D01*
X113866655Y-91583510D01*
X113846230Y-91666093D01*
X113824719Y-91754245D01*
X113802035Y-91848279D01*
X113778093Y-91948507D01*
X113768118Y-91990520D01*
X113747115Y-92078989D01*
X113727521Y-92161246D01*
X113709235Y-92237682D01*
X113692160Y-92308689D01*
X113676197Y-92374658D01*
X113661246Y-92435980D01*
X113647208Y-92493048D01*
X113633985Y-92546252D01*
X113621478Y-92595983D01*
X113609588Y-92642633D01*
X113598215Y-92686594D01*
X113587261Y-92728257D01*
X113576628Y-92768014D01*
X113566215Y-92806255D01*
X113555924Y-92843372D01*
X113545657Y-92879756D01*
X113535313Y-92915800D01*
X113527148Y-92943866D01*
X113507916Y-93007912D01*
X113488304Y-93069986D01*
X113468524Y-93129523D01*
X113448784Y-93185958D01*
X113429295Y-93238727D01*
X113410267Y-93287263D01*
X113391911Y-93331002D01*
X113374437Y-93369378D01*
X113358055Y-93401826D01*
X113354096Y-93409051D01*
X113342073Y-93430582D01*
X113333348Y-93415695D01*
X113319943Y-93391007D01*
X113305158Y-93360497D01*
X113289287Y-93324906D01*
X113272623Y-93284974D01*
X113255460Y-93241442D01*
X113238091Y-93195050D01*
X113220810Y-93146541D01*
X113203910Y-93096655D01*
X113190665Y-93055626D01*
X113178886Y-93017881D01*
X113167210Y-92979594D01*
X113155539Y-92940391D01*
X113143777Y-92899894D01*
X113131825Y-92857727D01*
X113119585Y-92813515D01*
X113106959Y-92766880D01*
X113093851Y-92717447D01*
X113080161Y-92664840D01*
X113065792Y-92608682D01*
X113050647Y-92548597D01*
X113034628Y-92484209D01*
X113017636Y-92415142D01*
X112999575Y-92341019D01*
X112980346Y-92261465D01*
X112959851Y-92176102D01*
X112937993Y-92084556D01*
X112934942Y-92071744D01*
X112911898Y-91975149D01*
X112890242Y-91884825D01*
X112869885Y-91800431D01*
X112850738Y-91721627D01*
X112832711Y-91648075D01*
X112815715Y-91579434D01*
X112799661Y-91515364D01*
X112784458Y-91455525D01*
X112770019Y-91399578D01*
X112756254Y-91347183D01*
X112743073Y-91298000D01*
X112730387Y-91251689D01*
X112718106Y-91207910D01*
X112706142Y-91166324D01*
X112694406Y-91126590D01*
X112682807Y-91088370D01*
X112671256Y-91051322D01*
X112659665Y-91015108D01*
X112647944Y-90979386D01*
X112647452Y-90977906D01*
X112623002Y-90906574D01*
X112599169Y-90841715D01*
X112575793Y-90783073D01*
X112552714Y-90730395D01*
X112529773Y-90683423D01*
X112506811Y-90641903D01*
X112483668Y-90605579D01*
X112460185Y-90574196D01*
X112436201Y-90547499D01*
X112411558Y-90525232D01*
X112386097Y-90507139D01*
X112359656Y-90492966D01*
X112339608Y-90484934D01*
X112298075Y-90473432D01*
X112253352Y-90466334D01*
X112207093Y-90463655D01*
X112160950Y-90465412D01*
X112116578Y-90471622D01*
X112075659Y-90482291D01*
X112056221Y-90489156D01*
X112040801Y-90495742D01*
X112026832Y-90503370D01*
X112011750Y-90513360D01*
X112002746Y-90519833D01*
X111978148Y-90540363D01*
X111953962Y-90565791D01*
X111930075Y-90596327D01*
X111906373Y-90632181D01*
X111882742Y-90673564D01*
X111859070Y-90720684D01*
X111835242Y-90773752D01*
X111811145Y-90832977D01*
X111786666Y-90898570D01*
X111766394Y-90956765D01*
X111742015Y-91028757D01*
X111699197Y-90965232D01*
X111662024Y-90911275D01*
X111626752Y-90862646D01*
X111592643Y-90818433D01*
X111558961Y-90777725D01*
X111524968Y-90739611D01*
X111489929Y-90703179D01*
X111476561Y-90689954D01*
X111434598Y-90650906D01*
X111394188Y-90617439D01*
X111354343Y-90588856D01*
X111314073Y-90564461D01*
X111272389Y-90543555D01*
X111262448Y-90539146D01*
X111208434Y-90519358D01*
X111153080Y-90506070D01*
X111096897Y-90499266D01*
X111040397Y-90498930D01*
X110984091Y-90505048D01*
X110928490Y-90517603D01*
X110874106Y-90536579D01*
X110840306Y-90552021D01*
X110792661Y-90578732D01*
X110745102Y-90611106D01*
X110697492Y-90649284D01*
X110649695Y-90693402D01*
X110601575Y-90743600D01*
X110552995Y-90800017D01*
X110503819Y-90862789D01*
X110453911Y-90932057D01*
X110426828Y-90971881D01*
X110415255Y-90989160D01*
X110405066Y-91004250D01*
X110396813Y-91016342D01*
X110391048Y-91024630D01*
X110388323Y-91028307D01*
X110388181Y-91028401D01*
X110387147Y-91024905D01*
X110384277Y-91016028D01*
X110379911Y-91002801D01*
X110374389Y-90986255D01*
X110368227Y-90967940D01*
X110348279Y-90908868D01*
X110373659Y-90849407D01*
X110432884Y-90719202D01*
X110498330Y-90591349D01*
X110569757Y-90466168D01*
X110646926Y-90343975D01*
X110729597Y-90225091D01*
X110817531Y-90109832D01*
X110910487Y-89998519D01*
X111008227Y-89891469D01*
X111110510Y-89789000D01*
X111217096Y-89691432D01*
X111294120Y-89626236D01*
X111410608Y-89535148D01*
X111530621Y-89449757D01*
X111653954Y-89370139D01*
X111780398Y-89296367D01*
X111909749Y-89228515D01*
X112041799Y-89166658D01*
X112176342Y-89110868D01*
X112313172Y-89061221D01*
X112452083Y-89017789D01*
X112592868Y-88980647D01*
X112735320Y-88949868D01*
X112879233Y-88925528D01*
X113024402Y-88907699D01*
X113170618Y-88896455D01*
X113317677Y-88891871D01*
X113344746Y-88891759D01*
X113492297Y-88895127D01*
X113492297Y-88895127D01*
G37*
X113492297Y-88895127D02*
X113639021Y-88905171D01*
X113784716Y-88921822D01*
X113929182Y-88945013D01*
X114072216Y-88974674D01*
X114213617Y-89010736D01*
X114353184Y-89053132D01*
X114490715Y-89101793D01*
X114626009Y-89156651D01*
X114758865Y-89217636D01*
X114889081Y-89284681D01*
X115016455Y-89357717D01*
X115140786Y-89436675D01*
X115261873Y-89521487D01*
X115315786Y-89561956D01*
X115411765Y-89638849D01*
X115506816Y-89721475D01*
X115599868Y-89808794D01*
X115689854Y-89899765D01*
X115775702Y-89993349D01*
X115852534Y-90083826D01*
X115924618Y-90175860D01*
X115995122Y-90273193D01*
X116063063Y-90374378D01*
X116127462Y-90477968D01*
X116172788Y-90556266D01*
X116187666Y-90583510D01*
X116204514Y-90615554D01*
X116222630Y-90650977D01*
X116241312Y-90688355D01*
X116259858Y-90726265D01*
X116277565Y-90763285D01*
X116293731Y-90797993D01*
X116307654Y-90828964D01*
X116309593Y-90833401D01*
X116338813Y-90900563D01*
X116317272Y-90965047D01*
X116295731Y-91029532D01*
X116259906Y-90975779D01*
X116215361Y-90910923D01*
X116172033Y-90851936D01*
X116129385Y-90798145D01*
X116086882Y-90748878D01*
X116043988Y-90703462D01*
X116038963Y-90698414D01*
X115993323Y-90655298D01*
X115948645Y-90618257D01*
X115904249Y-90586794D01*
X115859454Y-90560414D01*
X115828866Y-90545330D01*
X115791012Y-90529363D01*
X115755404Y-90517365D01*
X115719499Y-90508657D01*
X115680752Y-90502559D01*
X115660840Y-90500401D01*
X115604511Y-90498379D01*
X115548571Y-90503117D01*
X115493033Y-90514610D01*
X115437914Y-90532855D01*
X115383228Y-90557848D01*
X115341186Y-90581836D01*
X115315110Y-90598717D01*
X115290872Y-90616022D01*
X115267186Y-90634806D01*
X115242764Y-90656124D01*
X115216319Y-90681032D01*
X115197070Y-90700012D01*
X115161049Y-90737355D01*
X115126211Y-90776275D01*
X115091820Y-90817696D01*
X115057135Y-90862544D01*
X115021418Y-90911744D01*
X114983931Y-90966220D01*
X114981096Y-90970442D01*
X114941731Y-91029156D01*
X114920880Y-90967125D01*
X114901672Y-90911262D01*
X114883441Y-90861001D01*
X114865774Y-90815316D01*
X114848256Y-90773178D01*
X114830475Y-90733560D01*
X114812017Y-90695437D01*
X114809294Y-90690040D01*
X114785612Y-90645945D01*
X114762292Y-90608044D01*
X114738879Y-90575803D01*
X114714917Y-90548693D01*
X114689950Y-90526182D01*
X114663524Y-90507738D01*
X114643533Y-90496776D01*
X114607213Y-90482077D01*
X114567325Y-90471635D01*
X114525042Y-90465408D01*
X114481536Y-90463353D01*
X114437979Y-90465429D01*
X114395542Y-90471594D01*
X114355398Y-90481805D01*
X114318718Y-90496021D01*
X114294185Y-90509287D01*
X114268112Y-90528300D01*
X114242523Y-90552610D01*
X114217306Y-90582406D01*
X114192347Y-90617873D01*
X114167531Y-90659200D01*
X114142745Y-90706572D01*
X114117876Y-90760178D01*
X114092809Y-90820204D01*
X114071929Y-90874613D01*
X114057899Y-90913221D01*
X114043888Y-90953338D01*
X114029810Y-90995276D01*
X114015580Y-91039346D01*
X114001114Y-91085862D01*
X113986326Y-91135135D01*
X113971131Y-91187479D01*
X113955444Y-91243205D01*
X113939180Y-91302627D01*
X113922255Y-91366055D01*
X113904582Y-91433804D01*
X113886077Y-91506185D01*
X113866655Y-91583510D01*
X113846230Y-91666093D01*
X113824719Y-91754245D01*
X113802035Y-91848279D01*
X113778093Y-91948507D01*
X113768118Y-91990520D01*
X113747115Y-92078989D01*
X113727521Y-92161246D01*
X113709235Y-92237682D01*
X113692160Y-92308689D01*
X113676197Y-92374658D01*
X113661246Y-92435980D01*
X113647208Y-92493048D01*
X113633985Y-92546252D01*
X113621478Y-92595983D01*
X113609588Y-92642633D01*
X113598215Y-92686594D01*
X113587261Y-92728257D01*
X113576628Y-92768014D01*
X113566215Y-92806255D01*
X113555924Y-92843372D01*
X113545657Y-92879756D01*
X113535313Y-92915800D01*
X113527148Y-92943866D01*
X113507916Y-93007912D01*
X113488304Y-93069986D01*
X113468524Y-93129523D01*
X113448784Y-93185958D01*
X113429295Y-93238727D01*
X113410267Y-93287263D01*
X113391911Y-93331002D01*
X113374437Y-93369378D01*
X113358055Y-93401826D01*
X113354096Y-93409051D01*
X113342073Y-93430582D01*
X113333348Y-93415695D01*
X113319943Y-93391007D01*
X113305158Y-93360497D01*
X113289287Y-93324906D01*
X113272623Y-93284974D01*
X113255460Y-93241442D01*
X113238091Y-93195050D01*
X113220810Y-93146541D01*
X113203910Y-93096655D01*
X113190665Y-93055626D01*
X113178886Y-93017881D01*
X113167210Y-92979594D01*
X113155539Y-92940391D01*
X113143777Y-92899894D01*
X113131825Y-92857727D01*
X113119585Y-92813515D01*
X113106959Y-92766880D01*
X113093851Y-92717447D01*
X113080161Y-92664840D01*
X113065792Y-92608682D01*
X113050647Y-92548597D01*
X113034628Y-92484209D01*
X113017636Y-92415142D01*
X112999575Y-92341019D01*
X112980346Y-92261465D01*
X112959851Y-92176102D01*
X112937993Y-92084556D01*
X112934942Y-92071744D01*
X112911898Y-91975149D01*
X112890242Y-91884825D01*
X112869885Y-91800431D01*
X112850738Y-91721627D01*
X112832711Y-91648075D01*
X112815715Y-91579434D01*
X112799661Y-91515364D01*
X112784458Y-91455525D01*
X112770019Y-91399578D01*
X112756254Y-91347183D01*
X112743073Y-91298000D01*
X112730387Y-91251689D01*
X112718106Y-91207910D01*
X112706142Y-91166324D01*
X112694406Y-91126590D01*
X112682807Y-91088370D01*
X112671256Y-91051322D01*
X112659665Y-91015108D01*
X112647944Y-90979386D01*
X112647452Y-90977906D01*
X112623002Y-90906574D01*
X112599169Y-90841715D01*
X112575793Y-90783073D01*
X112552714Y-90730395D01*
X112529773Y-90683423D01*
X112506811Y-90641903D01*
X112483668Y-90605579D01*
X112460185Y-90574196D01*
X112436201Y-90547499D01*
X112411558Y-90525232D01*
X112386097Y-90507139D01*
X112359656Y-90492966D01*
X112339608Y-90484934D01*
X112298075Y-90473432D01*
X112253352Y-90466334D01*
X112207093Y-90463655D01*
X112160950Y-90465412D01*
X112116578Y-90471622D01*
X112075659Y-90482291D01*
X112056221Y-90489156D01*
X112040801Y-90495742D01*
X112026832Y-90503370D01*
X112011750Y-90513360D01*
X112002746Y-90519833D01*
X111978148Y-90540363D01*
X111953962Y-90565791D01*
X111930075Y-90596327D01*
X111906373Y-90632181D01*
X111882742Y-90673564D01*
X111859070Y-90720684D01*
X111835242Y-90773752D01*
X111811145Y-90832977D01*
X111786666Y-90898570D01*
X111766394Y-90956765D01*
X111742015Y-91028757D01*
X111699197Y-90965232D01*
X111662024Y-90911275D01*
X111626752Y-90862646D01*
X111592643Y-90818433D01*
X111558961Y-90777725D01*
X111524968Y-90739611D01*
X111489929Y-90703179D01*
X111476561Y-90689954D01*
X111434598Y-90650906D01*
X111394188Y-90617439D01*
X111354343Y-90588856D01*
X111314073Y-90564461D01*
X111272389Y-90543555D01*
X111262448Y-90539146D01*
X111208434Y-90519358D01*
X111153080Y-90506070D01*
X111096897Y-90499266D01*
X111040397Y-90498930D01*
X110984091Y-90505048D01*
X110928490Y-90517603D01*
X110874106Y-90536579D01*
X110840306Y-90552021D01*
X110792661Y-90578732D01*
X110745102Y-90611106D01*
X110697492Y-90649284D01*
X110649695Y-90693402D01*
X110601575Y-90743600D01*
X110552995Y-90800017D01*
X110503819Y-90862789D01*
X110453911Y-90932057D01*
X110426828Y-90971881D01*
X110415255Y-90989160D01*
X110405066Y-91004250D01*
X110396813Y-91016342D01*
X110391048Y-91024630D01*
X110388323Y-91028307D01*
X110388181Y-91028401D01*
X110387147Y-91024905D01*
X110384277Y-91016028D01*
X110379911Y-91002801D01*
X110374389Y-90986255D01*
X110368227Y-90967940D01*
X110348279Y-90908868D01*
X110373659Y-90849407D01*
X110432884Y-90719202D01*
X110498330Y-90591349D01*
X110569757Y-90466168D01*
X110646926Y-90343975D01*
X110729597Y-90225091D01*
X110817531Y-90109832D01*
X110910487Y-89998519D01*
X111008227Y-89891469D01*
X111110510Y-89789000D01*
X111217096Y-89691432D01*
X111294120Y-89626236D01*
X111410608Y-89535148D01*
X111530621Y-89449757D01*
X111653954Y-89370139D01*
X111780398Y-89296367D01*
X111909749Y-89228515D01*
X112041799Y-89166658D01*
X112176342Y-89110868D01*
X112313172Y-89061221D01*
X112452083Y-89017789D01*
X112592868Y-88980647D01*
X112735320Y-88949868D01*
X112879233Y-88925528D01*
X113024402Y-88907699D01*
X113170618Y-88896455D01*
X113317677Y-88891871D01*
X113344746Y-88891759D01*
X113492297Y-88895127D01*
G36*
X114778237Y-91581300D02*
G01*
X114779067Y-91583206D01*
X114780251Y-91586760D01*
X114781865Y-91592268D01*
X114783983Y-91600039D01*
X114786681Y-91610380D01*
X114790035Y-91623599D01*
X114794119Y-91640004D01*
X114799008Y-91659902D01*
X114804779Y-91683600D01*
X114811505Y-91711408D01*
X114819263Y-91743632D01*
X114828127Y-91780580D01*
X114838172Y-91822559D01*
X114849475Y-91869879D01*
X114862110Y-91922845D01*
X114876152Y-91981766D01*
X114891676Y-92046950D01*
X114892755Y-92051480D01*
X114904701Y-92101577D01*
X114916945Y-92152776D01*
X114929300Y-92204303D01*
X114941578Y-92255384D01*
X114953593Y-92305246D01*
X114965157Y-92353114D01*
X114976084Y-92398214D01*
X114986187Y-92439773D01*
X114995278Y-92477017D01*
X115003172Y-92509172D01*
X115009336Y-92534080D01*
X115036209Y-92640480D01*
X115062257Y-92740331D01*
X115087541Y-92833797D01*
X115112120Y-92921043D01*
X115136054Y-93002236D01*
X115159403Y-93077539D01*
X115182226Y-93147119D01*
X115204584Y-93211140D01*
X115226537Y-93269768D01*
X115248144Y-93323168D01*
X115269465Y-93371506D01*
X115290560Y-93414947D01*
X115311489Y-93453655D01*
X115332312Y-93487797D01*
X115353088Y-93517538D01*
X115373878Y-93543042D01*
X115375427Y-93544775D01*
X115394260Y-93563206D01*
X115416719Y-93581260D01*
X115440546Y-93597308D01*
X115463483Y-93609725D01*
X115468813Y-93612071D01*
X115501090Y-93623422D01*
X115535567Y-93631302D01*
X115573541Y-93635931D01*
X115616312Y-93637531D01*
X115618893Y-93637535D01*
X115661622Y-93636131D01*
X115699403Y-93631772D01*
X115733484Y-93624243D01*
X115765113Y-93613325D01*
X115770070Y-93611232D01*
X115791488Y-93601058D01*
X115810060Y-93589963D01*
X115827714Y-93576574D01*
X115846379Y-93559521D01*
X115855222Y-93550695D01*
X115879536Y-93523104D01*
X115903596Y-93490019D01*
X115927538Y-93451202D01*
X115951492Y-93406415D01*
X115975594Y-93355420D01*
X115999976Y-93297979D01*
X116007666Y-93278689D01*
X116023838Y-93236433D01*
X116040131Y-93191589D01*
X116056623Y-93143875D01*
X116073393Y-93093008D01*
X116090521Y-93038707D01*
X116108084Y-92980690D01*
X116126163Y-92918674D01*
X116144835Y-92852378D01*
X116164180Y-92781519D01*
X116184276Y-92705816D01*
X116205203Y-92624987D01*
X116227039Y-92538749D01*
X116249863Y-92446821D01*
X116273755Y-92348921D01*
X116298792Y-92244766D01*
X116309737Y-92198800D01*
X116328222Y-92120989D01*
X116345212Y-92049539D01*
X116360763Y-91984215D01*
X116374932Y-91924784D01*
X116387775Y-91871013D01*
X116399350Y-91822668D01*
X116409713Y-91779517D01*
X116418921Y-91741326D01*
X116427031Y-91707861D01*
X116434099Y-91678890D01*
X116440182Y-91654178D01*
X116445337Y-91633494D01*
X116449620Y-91616602D01*
X116453089Y-91603271D01*
X116455800Y-91593266D01*
X116457809Y-91586355D01*
X116459174Y-91582304D01*
X116459951Y-91580880D01*
X116459995Y-91580873D01*
X116461939Y-91583841D01*
X116466462Y-91592205D01*
X116473208Y-91605259D01*
X116481818Y-91622294D01*
X116491933Y-91642605D01*
X116503196Y-91665485D01*
X116511897Y-91683320D01*
X116561621Y-91785626D01*
X116565268Y-91819493D01*
X116576605Y-91955317D01*
X116581627Y-92092929D01*
X116580390Y-92231817D01*
X116572949Y-92371469D01*
X116559360Y-92511372D01*
X116539679Y-92651015D01*
X116513962Y-92789885D01*
X116482264Y-92927471D01*
X116444641Y-93063259D01*
X116422026Y-93135213D01*
X116372811Y-93274627D01*
X116317491Y-93411208D01*
X116256196Y-93544780D01*
X116189052Y-93675165D01*
X116116186Y-93802186D01*
X116037726Y-93925668D01*
X115953799Y-94045432D01*
X115864532Y-94161304D01*
X115770053Y-94273105D01*
X115670488Y-94380660D01*
X115565966Y-94483791D01*
X115456613Y-94582321D01*
X115342556Y-94676075D01*
X115275146Y-94727564D01*
X115154902Y-94812754D01*
X115031167Y-94892196D01*
X114904167Y-94965805D01*
X114774125Y-95033495D01*
X114641268Y-95095182D01*
X114505818Y-95150781D01*
X114368002Y-95200208D01*
X114228043Y-95243376D01*
X114086167Y-95280202D01*
X113942597Y-95310600D01*
X113797559Y-95334486D01*
X113651277Y-95351775D01*
X113613986Y-95355102D01*
X113548671Y-95359780D01*
X113480361Y-95363249D01*
X113411107Y-95365458D01*
X113342962Y-95366354D01*
X113277976Y-95365884D01*
X113236373Y-95364749D01*
X113087447Y-95355943D01*
X112939735Y-95340525D01*
X112793408Y-95318547D01*
X112648636Y-95290059D01*
X112505593Y-95255111D01*
X112364448Y-95213754D01*
X112225374Y-95166040D01*
X112088542Y-95112018D01*
X111954122Y-95051739D01*
X111822287Y-94985255D01*
X111693207Y-94912615D01*
X111678506Y-94903844D01*
X111560631Y-94829709D01*
X111447408Y-94751501D01*
X111338144Y-94668676D01*
X111232144Y-94580692D01*
X111128715Y-94487004D01*
X111056943Y-94417208D01*
X110996368Y-94355329D01*
X110940283Y-94295230D01*
X110887306Y-94235316D01*
X110836057Y-94173989D01*
X110785154Y-94109651D01*
X110744111Y-94055421D01*
X110660471Y-93937364D01*
X110582415Y-93815783D01*
X110510018Y-93690947D01*
X110443355Y-93563126D01*
X110382501Y-93432590D01*
X110327531Y-93299606D01*
X110278520Y-93164444D01*
X110235543Y-93027375D01*
X110198675Y-92888665D01*
X110167991Y-92748586D01*
X110143566Y-92607406D01*
X110125475Y-92465394D01*
X110113794Y-92322819D01*
X110108596Y-92179951D01*
X110109958Y-92037059D01*
X110117954Y-91894412D01*
X110123809Y-91829653D01*
X110129983Y-91768693D01*
X110176443Y-91673866D01*
X110189730Y-91646877D01*
X110200418Y-91625502D01*
X110208796Y-91609225D01*
X110215153Y-91597534D01*
X110219779Y-91589914D01*
X110222962Y-91585852D01*
X110224991Y-91584833D01*
X110225955Y-91585813D01*
X110226898Y-91588427D01*
X110228347Y-91593298D01*
X110230375Y-91600732D01*
X110233058Y-91611036D01*
X110236470Y-91624519D01*
X110240686Y-91641486D01*
X110245780Y-91662246D01*
X110251828Y-91687104D01*
X110258904Y-91716369D01*
X110267083Y-91750348D01*
X110276440Y-91789348D01*
X110287048Y-91833675D01*
X110298983Y-91883637D01*
X110312320Y-91939542D01*
X110327133Y-92001696D01*
X110328908Y-92009146D01*
X110351490Y-92103792D01*
X110372656Y-92192174D01*
X110392496Y-92274630D01*
X110411096Y-92351499D01*
X110428548Y-92423123D01*
X110444938Y-92489838D01*
X110460355Y-92551986D01*
X110474890Y-92609905D01*
X110488629Y-92663935D01*
X110501662Y-92714415D01*
X110514077Y-92761684D01*
X110525963Y-92806082D01*
X110537409Y-92847948D01*
X110548504Y-92887621D01*
X110559335Y-92925442D01*
X110569993Y-92961748D01*
X110580564Y-92996881D01*
X110591139Y-93031178D01*
X110601806Y-93064979D01*
X110612653Y-93098624D01*
X110617419Y-93113200D01*
X110641723Y-93184999D01*
X110665415Y-93250327D01*
X110688646Y-93309440D01*
X110711563Y-93362599D01*
X110734317Y-93410060D01*
X110757055Y-93452082D01*
X110779926Y-93488924D01*
X110803081Y-93520844D01*
X110826667Y-93548100D01*
X110850833Y-93570952D01*
X110875728Y-93589656D01*
X110900220Y-93603834D01*
X110939264Y-93619924D01*
X110982193Y-93631260D01*
X111027895Y-93637664D01*
X111075259Y-93638953D01*
X111105407Y-93637064D01*
X111140912Y-93632538D01*
X111171779Y-93626142D01*
X111200011Y-93617347D01*
X111227608Y-93605623D01*
X111231466Y-93603752D01*
X111246210Y-93596131D01*
X111258316Y-93588758D01*
X111269584Y-93580286D01*
X111281816Y-93569366D01*
X111296009Y-93555458D01*
X111318747Y-93530890D01*
X111339733Y-93504312D01*
X111359766Y-93474542D01*
X111379648Y-93440399D01*
X111398324Y-93404453D01*
X111419122Y-93360635D01*
X111439931Y-93312850D01*
X111460853Y-93260794D01*
X111481992Y-93204161D01*
X111503451Y-93142649D01*
X111525333Y-93075950D01*
X111547740Y-93003762D01*
X111570775Y-92925779D01*
X111594543Y-92841696D01*
X111619074Y-92751476D01*
X111625212Y-92728182D01*
X111632772Y-92698960D01*
X111641593Y-92664463D01*
X111651510Y-92625348D01*
X111662363Y-92582272D01*
X111673989Y-92535888D01*
X111686225Y-92486854D01*
X111698908Y-92435825D01*
X111711877Y-92383457D01*
X111724968Y-92330405D01*
X111738019Y-92277325D01*
X111750869Y-92224874D01*
X111763353Y-92173706D01*
X111775310Y-92124478D01*
X111786578Y-92077845D01*
X111796994Y-92034463D01*
X111803838Y-92005760D01*
X111817099Y-91950043D01*
X111829778Y-91896926D01*
X111841794Y-91846746D01*
X111853064Y-91799845D01*
X111863505Y-91756561D01*
X111873034Y-91717234D01*
X111881569Y-91682205D01*
X111889026Y-91651812D01*
X111895324Y-91626395D01*
X111900379Y-91606295D01*
X111904109Y-91591851D01*
X111906431Y-91583402D01*
X111907203Y-91581201D01*
X111909105Y-91583728D01*
X111913744Y-91592064D01*
X111920965Y-91605892D01*
X111930613Y-91624895D01*
X111942534Y-91648758D01*
X111956573Y-91677163D01*
X111972576Y-91709794D01*
X111990389Y-91746334D01*
X112009856Y-91786467D01*
X112030824Y-91829876D01*
X112053138Y-91876244D01*
X112076643Y-91925254D01*
X112101185Y-91976591D01*
X112126610Y-92029937D01*
X112144097Y-92066720D01*
X112185912Y-92154551D01*
X112225166Y-92236552D01*
X112262041Y-92313084D01*
X112296717Y-92384510D01*
X112329377Y-92451192D01*
X112360202Y-92513493D01*
X112389372Y-92571776D01*
X112417069Y-92626402D01*
X112443475Y-92677734D01*
X112468771Y-92726135D01*
X112493137Y-92771967D01*
X112516756Y-92815592D01*
X112537601Y-92853406D01*
X112590991Y-92947054D01*
X112643322Y-93034052D01*
X112694622Y-93114435D01*
X112744917Y-93188238D01*
X112794237Y-93255496D01*
X112842608Y-93316244D01*
X112890058Y-93370518D01*
X112936615Y-93418352D01*
X112982307Y-93459782D01*
X113027161Y-93494844D01*
X113059615Y-93516576D01*
X113075811Y-93527528D01*
X113093108Y-93540644D01*
X113108473Y-93553587D01*
X113112479Y-93557304D01*
X113138283Y-93579786D01*
X113163879Y-93597165D01*
X113191292Y-93610731D01*
X113203881Y-93615620D01*
X113248585Y-93628515D01*
X113296294Y-93636247D01*
X113345560Y-93638753D01*
X113394934Y-93635975D01*
X113442968Y-93627853D01*
X113451114Y-93625881D01*
X113489222Y-93613293D01*
X113524634Y-93595796D01*
X113556129Y-93574075D01*
X113576733Y-93555125D01*
X113585204Y-93547410D01*
X113597635Y-93537551D01*
X113612206Y-93526937D01*
X113624146Y-93518861D01*
X113669202Y-93487073D01*
X113714204Y-93450345D01*
X113759299Y-93408495D01*
X113804636Y-93361343D01*
X113850364Y-93308705D01*
X113896630Y-93250400D01*
X113943583Y-93186246D01*
X113991373Y-93116062D01*
X114040146Y-93039665D01*
X114090051Y-92956874D01*
X114108070Y-92925907D01*
X114134626Y-92879121D01*
X114162897Y-92827859D01*
X114192966Y-92771954D01*
X114224917Y-92711241D01*
X114258834Y-92645555D01*
X114294801Y-92574728D01*
X114332901Y-92498596D01*
X114373218Y-92416993D01*
X114415836Y-92329753D01*
X114460839Y-92236710D01*
X114508311Y-92137699D01*
X114542923Y-92065026D01*
X114573836Y-92000018D01*
X114602904Y-91939016D01*
X114630043Y-91882192D01*
X114655171Y-91829715D01*
X114678205Y-91781758D01*
X114699061Y-91738491D01*
X114717658Y-91700085D01*
X114733911Y-91666711D01*
X114747739Y-91638541D01*
X114759058Y-91615744D01*
X114767786Y-91598493D01*
X114773839Y-91586957D01*
X114777135Y-91581309D01*
X114777687Y-91580733D01*
X114778237Y-91581300D01*
X114778237Y-91581300D01*
G37*
X114778237Y-91581300D02*
X114779067Y-91583206D01*
X114780251Y-91586760D01*
X114781865Y-91592268D01*
X114783983Y-91600039D01*
X114786681Y-91610380D01*
X114790035Y-91623599D01*
X114794119Y-91640004D01*
X114799008Y-91659902D01*
X114804779Y-91683600D01*
X114811505Y-91711408D01*
X114819263Y-91743632D01*
X114828127Y-91780580D01*
X114838172Y-91822559D01*
X114849475Y-91869879D01*
X114862110Y-91922845D01*
X114876152Y-91981766D01*
X114891676Y-92046950D01*
X114892755Y-92051480D01*
X114904701Y-92101577D01*
X114916945Y-92152776D01*
X114929300Y-92204303D01*
X114941578Y-92255384D01*
X114953593Y-92305246D01*
X114965157Y-92353114D01*
X114976084Y-92398214D01*
X114986187Y-92439773D01*
X114995278Y-92477017D01*
X115003172Y-92509172D01*
X115009336Y-92534080D01*
X115036209Y-92640480D01*
X115062257Y-92740331D01*
X115087541Y-92833797D01*
X115112120Y-92921043D01*
X115136054Y-93002236D01*
X115159403Y-93077539D01*
X115182226Y-93147119D01*
X115204584Y-93211140D01*
X115226537Y-93269768D01*
X115248144Y-93323168D01*
X115269465Y-93371506D01*
X115290560Y-93414947D01*
X115311489Y-93453655D01*
X115332312Y-93487797D01*
X115353088Y-93517538D01*
X115373878Y-93543042D01*
X115375427Y-93544775D01*
X115394260Y-93563206D01*
X115416719Y-93581260D01*
X115440546Y-93597308D01*
X115463483Y-93609725D01*
X115468813Y-93612071D01*
X115501090Y-93623422D01*
X115535567Y-93631302D01*
X115573541Y-93635931D01*
X115616312Y-93637531D01*
X115618893Y-93637535D01*
X115661622Y-93636131D01*
X115699403Y-93631772D01*
X115733484Y-93624243D01*
X115765113Y-93613325D01*
X115770070Y-93611232D01*
X115791488Y-93601058D01*
X115810060Y-93589963D01*
X115827714Y-93576574D01*
X115846379Y-93559521D01*
X115855222Y-93550695D01*
X115879536Y-93523104D01*
X115903596Y-93490019D01*
X115927538Y-93451202D01*
X115951492Y-93406415D01*
X115975594Y-93355420D01*
X115999976Y-93297979D01*
X116007666Y-93278689D01*
X116023838Y-93236433D01*
X116040131Y-93191589D01*
X116056623Y-93143875D01*
X116073393Y-93093008D01*
X116090521Y-93038707D01*
X116108084Y-92980690D01*
X116126163Y-92918674D01*
X116144835Y-92852378D01*
X116164180Y-92781519D01*
X116184276Y-92705816D01*
X116205203Y-92624987D01*
X116227039Y-92538749D01*
X116249863Y-92446821D01*
X116273755Y-92348921D01*
X116298792Y-92244766D01*
X116309737Y-92198800D01*
X116328222Y-92120989D01*
X116345212Y-92049539D01*
X116360763Y-91984215D01*
X116374932Y-91924784D01*
X116387775Y-91871013D01*
X116399350Y-91822668D01*
X116409713Y-91779517D01*
X116418921Y-91741326D01*
X116427031Y-91707861D01*
X116434099Y-91678890D01*
X116440182Y-91654178D01*
X116445337Y-91633494D01*
X116449620Y-91616602D01*
X116453089Y-91603271D01*
X116455800Y-91593266D01*
X116457809Y-91586355D01*
X116459174Y-91582304D01*
X116459951Y-91580880D01*
X116459995Y-91580873D01*
X116461939Y-91583841D01*
X116466462Y-91592205D01*
X116473208Y-91605259D01*
X116481818Y-91622294D01*
X116491933Y-91642605D01*
X116503196Y-91665485D01*
X116511897Y-91683320D01*
X116561621Y-91785626D01*
X116565268Y-91819493D01*
X116576605Y-91955317D01*
X116581627Y-92092929D01*
X116580390Y-92231817D01*
X116572949Y-92371469D01*
X116559360Y-92511372D01*
X116539679Y-92651015D01*
X116513962Y-92789885D01*
X116482264Y-92927471D01*
X116444641Y-93063259D01*
X116422026Y-93135213D01*
X116372811Y-93274627D01*
X116317491Y-93411208D01*
X116256196Y-93544780D01*
X116189052Y-93675165D01*
X116116186Y-93802186D01*
X116037726Y-93925668D01*
X115953799Y-94045432D01*
X115864532Y-94161304D01*
X115770053Y-94273105D01*
X115670488Y-94380660D01*
X115565966Y-94483791D01*
X115456613Y-94582321D01*
X115342556Y-94676075D01*
X115275146Y-94727564D01*
X115154902Y-94812754D01*
X115031167Y-94892196D01*
X114904167Y-94965805D01*
X114774125Y-95033495D01*
X114641268Y-95095182D01*
X114505818Y-95150781D01*
X114368002Y-95200208D01*
X114228043Y-95243376D01*
X114086167Y-95280202D01*
X113942597Y-95310600D01*
X113797559Y-95334486D01*
X113651277Y-95351775D01*
X113613986Y-95355102D01*
X113548671Y-95359780D01*
X113480361Y-95363249D01*
X113411107Y-95365458D01*
X113342962Y-95366354D01*
X113277976Y-95365884D01*
X113236373Y-95364749D01*
X113087447Y-95355943D01*
X112939735Y-95340525D01*
X112793408Y-95318547D01*
X112648636Y-95290059D01*
X112505593Y-95255111D01*
X112364448Y-95213754D01*
X112225374Y-95166040D01*
X112088542Y-95112018D01*
X111954122Y-95051739D01*
X111822287Y-94985255D01*
X111693207Y-94912615D01*
X111678506Y-94903844D01*
X111560631Y-94829709D01*
X111447408Y-94751501D01*
X111338144Y-94668676D01*
X111232144Y-94580692D01*
X111128715Y-94487004D01*
X111056943Y-94417208D01*
X110996368Y-94355329D01*
X110940283Y-94295230D01*
X110887306Y-94235316D01*
X110836057Y-94173989D01*
X110785154Y-94109651D01*
X110744111Y-94055421D01*
X110660471Y-93937364D01*
X110582415Y-93815783D01*
X110510018Y-93690947D01*
X110443355Y-93563126D01*
X110382501Y-93432590D01*
X110327531Y-93299606D01*
X110278520Y-93164444D01*
X110235543Y-93027375D01*
X110198675Y-92888665D01*
X110167991Y-92748586D01*
X110143566Y-92607406D01*
X110125475Y-92465394D01*
X110113794Y-92322819D01*
X110108596Y-92179951D01*
X110109958Y-92037059D01*
X110117954Y-91894412D01*
X110123809Y-91829653D01*
X110129983Y-91768693D01*
X110176443Y-91673866D01*
X110189730Y-91646877D01*
X110200418Y-91625502D01*
X110208796Y-91609225D01*
X110215153Y-91597534D01*
X110219779Y-91589914D01*
X110222962Y-91585852D01*
X110224991Y-91584833D01*
X110225955Y-91585813D01*
X110226898Y-91588427D01*
X110228347Y-91593298D01*
X110230375Y-91600732D01*
X110233058Y-91611036D01*
X110236470Y-91624519D01*
X110240686Y-91641486D01*
X110245780Y-91662246D01*
X110251828Y-91687104D01*
X110258904Y-91716369D01*
X110267083Y-91750348D01*
X110276440Y-91789348D01*
X110287048Y-91833675D01*
X110298983Y-91883637D01*
X110312320Y-91939542D01*
X110327133Y-92001696D01*
X110328908Y-92009146D01*
X110351490Y-92103792D01*
X110372656Y-92192174D01*
X110392496Y-92274630D01*
X110411096Y-92351499D01*
X110428548Y-92423123D01*
X110444938Y-92489838D01*
X110460355Y-92551986D01*
X110474890Y-92609905D01*
X110488629Y-92663935D01*
X110501662Y-92714415D01*
X110514077Y-92761684D01*
X110525963Y-92806082D01*
X110537409Y-92847948D01*
X110548504Y-92887621D01*
X110559335Y-92925442D01*
X110569993Y-92961748D01*
X110580564Y-92996881D01*
X110591139Y-93031178D01*
X110601806Y-93064979D01*
X110612653Y-93098624D01*
X110617419Y-93113200D01*
X110641723Y-93184999D01*
X110665415Y-93250327D01*
X110688646Y-93309440D01*
X110711563Y-93362599D01*
X110734317Y-93410060D01*
X110757055Y-93452082D01*
X110779926Y-93488924D01*
X110803081Y-93520844D01*
X110826667Y-93548100D01*
X110850833Y-93570952D01*
X110875728Y-93589656D01*
X110900220Y-93603834D01*
X110939264Y-93619924D01*
X110982193Y-93631260D01*
X111027895Y-93637664D01*
X111075259Y-93638953D01*
X111105407Y-93637064D01*
X111140912Y-93632538D01*
X111171779Y-93626142D01*
X111200011Y-93617347D01*
X111227608Y-93605623D01*
X111231466Y-93603752D01*
X111246210Y-93596131D01*
X111258316Y-93588758D01*
X111269584Y-93580286D01*
X111281816Y-93569366D01*
X111296009Y-93555458D01*
X111318747Y-93530890D01*
X111339733Y-93504312D01*
X111359766Y-93474542D01*
X111379648Y-93440399D01*
X111398324Y-93404453D01*
X111419122Y-93360635D01*
X111439931Y-93312850D01*
X111460853Y-93260794D01*
X111481992Y-93204161D01*
X111503451Y-93142649D01*
X111525333Y-93075950D01*
X111547740Y-93003762D01*
X111570775Y-92925779D01*
X111594543Y-92841696D01*
X111619074Y-92751476D01*
X111625212Y-92728182D01*
X111632772Y-92698960D01*
X111641593Y-92664463D01*
X111651510Y-92625348D01*
X111662363Y-92582272D01*
X111673989Y-92535888D01*
X111686225Y-92486854D01*
X111698908Y-92435825D01*
X111711877Y-92383457D01*
X111724968Y-92330405D01*
X111738019Y-92277325D01*
X111750869Y-92224874D01*
X111763353Y-92173706D01*
X111775310Y-92124478D01*
X111786578Y-92077845D01*
X111796994Y-92034463D01*
X111803838Y-92005760D01*
X111817099Y-91950043D01*
X111829778Y-91896926D01*
X111841794Y-91846746D01*
X111853064Y-91799845D01*
X111863505Y-91756561D01*
X111873034Y-91717234D01*
X111881569Y-91682205D01*
X111889026Y-91651812D01*
X111895324Y-91626395D01*
X111900379Y-91606295D01*
X111904109Y-91591851D01*
X111906431Y-91583402D01*
X111907203Y-91581201D01*
X111909105Y-91583728D01*
X111913744Y-91592064D01*
X111920965Y-91605892D01*
X111930613Y-91624895D01*
X111942534Y-91648758D01*
X111956573Y-91677163D01*
X111972576Y-91709794D01*
X111990389Y-91746334D01*
X112009856Y-91786467D01*
X112030824Y-91829876D01*
X112053138Y-91876244D01*
X112076643Y-91925254D01*
X112101185Y-91976591D01*
X112126610Y-92029937D01*
X112144097Y-92066720D01*
X112185912Y-92154551D01*
X112225166Y-92236552D01*
X112262041Y-92313084D01*
X112296717Y-92384510D01*
X112329377Y-92451192D01*
X112360202Y-92513493D01*
X112389372Y-92571776D01*
X112417069Y-92626402D01*
X112443475Y-92677734D01*
X112468771Y-92726135D01*
X112493137Y-92771967D01*
X112516756Y-92815592D01*
X112537601Y-92853406D01*
X112590991Y-92947054D01*
X112643322Y-93034052D01*
X112694622Y-93114435D01*
X112744917Y-93188238D01*
X112794237Y-93255496D01*
X112842608Y-93316244D01*
X112890058Y-93370518D01*
X112936615Y-93418352D01*
X112982307Y-93459782D01*
X113027161Y-93494844D01*
X113059615Y-93516576D01*
X113075811Y-93527528D01*
X113093108Y-93540644D01*
X113108473Y-93553587D01*
X113112479Y-93557304D01*
X113138283Y-93579786D01*
X113163879Y-93597165D01*
X113191292Y-93610731D01*
X113203881Y-93615620D01*
X113248585Y-93628515D01*
X113296294Y-93636247D01*
X113345560Y-93638753D01*
X113394934Y-93635975D01*
X113442968Y-93627853D01*
X113451114Y-93625881D01*
X113489222Y-93613293D01*
X113524634Y-93595796D01*
X113556129Y-93574075D01*
X113576733Y-93555125D01*
X113585204Y-93547410D01*
X113597635Y-93537551D01*
X113612206Y-93526937D01*
X113624146Y-93518861D01*
X113669202Y-93487073D01*
X113714204Y-93450345D01*
X113759299Y-93408495D01*
X113804636Y-93361343D01*
X113850364Y-93308705D01*
X113896630Y-93250400D01*
X113943583Y-93186246D01*
X113991373Y-93116062D01*
X114040146Y-93039665D01*
X114090051Y-92956874D01*
X114108070Y-92925907D01*
X114134626Y-92879121D01*
X114162897Y-92827859D01*
X114192966Y-92771954D01*
X114224917Y-92711241D01*
X114258834Y-92645555D01*
X114294801Y-92574728D01*
X114332901Y-92498596D01*
X114373218Y-92416993D01*
X114415836Y-92329753D01*
X114460839Y-92236710D01*
X114508311Y-92137699D01*
X114542923Y-92065026D01*
X114573836Y-92000018D01*
X114602904Y-91939016D01*
X114630043Y-91882192D01*
X114655171Y-91829715D01*
X114678205Y-91781758D01*
X114699061Y-91738491D01*
X114717658Y-91700085D01*
X114733911Y-91666711D01*
X114747739Y-91638541D01*
X114759058Y-91615744D01*
X114767786Y-91598493D01*
X114773839Y-91586957D01*
X114777135Y-91581309D01*
X114777687Y-91580733D01*
X114778237Y-91581300D01*
G36*
X113389775Y-97718220D02*
G01*
X113399653Y-97742867D01*
X113411236Y-97771725D01*
X113424357Y-97804381D01*
X113438850Y-97840422D01*
X113454549Y-97879435D01*
X113471286Y-97921007D01*
X113488896Y-97964726D01*
X113507211Y-98010179D01*
X113526065Y-98056954D01*
X113545292Y-98104638D01*
X113564724Y-98152817D01*
X113584195Y-98201080D01*
X113603540Y-98249013D01*
X113622590Y-98296204D01*
X113641179Y-98342241D01*
X113659142Y-98386710D01*
X113676311Y-98429198D01*
X113692519Y-98469294D01*
X113707601Y-98506584D01*
X113721389Y-98540656D01*
X113733717Y-98571097D01*
X113744418Y-98597494D01*
X113753326Y-98619434D01*
X113760275Y-98636506D01*
X113765097Y-98648295D01*
X113767626Y-98654390D01*
X113767965Y-98655155D01*
X113768305Y-98656197D01*
X113768477Y-98657483D01*
X113768598Y-98658737D01*
X113768781Y-98659679D01*
X113769143Y-98660030D01*
X113769799Y-98659513D01*
X113770864Y-98657848D01*
X113772453Y-98654756D01*
X113774683Y-98649959D01*
X113777668Y-98643179D01*
X113781524Y-98634136D01*
X113786365Y-98622552D01*
X113792308Y-98608148D01*
X113799468Y-98590645D01*
X113807959Y-98569766D01*
X113817898Y-98545231D01*
X113829400Y-98516761D01*
X113842580Y-98484078D01*
X113857553Y-98446904D01*
X113874435Y-98404959D01*
X113893341Y-98357964D01*
X113914386Y-98305642D01*
X113937687Y-98247714D01*
X113963357Y-98183900D01*
X113974925Y-98155147D01*
X114166013Y-97680214D01*
X114282853Y-97680120D01*
X114282853Y-98794333D01*
X114204960Y-98794333D01*
X114204960Y-98344695D01*
X114204985Y-98270347D01*
X114205063Y-98202487D01*
X114205199Y-98140827D01*
X114205396Y-98085084D01*
X114205659Y-98034970D01*
X114205992Y-97990200D01*
X114206399Y-97950487D01*
X114206886Y-97915547D01*
X114207454Y-97885093D01*
X114208110Y-97858839D01*
X114208858Y-97836500D01*
X114209700Y-97817789D01*
X114210643Y-97802421D01*
X114211689Y-97790110D01*
X114212844Y-97780570D01*
X114213381Y-97777214D01*
X114213606Y-97770380D01*
X114211460Y-97768828D01*
X114209813Y-97772046D01*
X114205762Y-97781213D01*
X114199444Y-97795999D01*
X114190996Y-97816073D01*
X114180552Y-97841104D01*
X114168249Y-97870763D01*
X114154224Y-97904718D01*
X114138611Y-97942640D01*
X114121549Y-97984198D01*
X114103171Y-98029062D01*
X114083615Y-98076900D01*
X114063016Y-98127384D01*
X114041511Y-98180182D01*
X114019236Y-98234964D01*
X114000409Y-98281334D01*
X113792957Y-98792640D01*
X113744133Y-98794634D01*
X113736327Y-98776704D01*
X113734199Y-98771583D01*
X113729682Y-98760531D01*
X113722919Y-98743899D01*
X113714053Y-98722039D01*
X113703225Y-98695302D01*
X113690577Y-98664041D01*
X113676252Y-98628606D01*
X113660392Y-98589350D01*
X113643138Y-98546624D01*
X113624633Y-98500780D01*
X113605018Y-98452170D01*
X113584437Y-98401144D01*
X113563031Y-98348055D01*
X113540941Y-98293255D01*
X113529281Y-98264320D01*
X113507007Y-98209059D01*
X113485408Y-98155503D01*
X113464621Y-98103989D01*
X113444783Y-98054856D01*
X113426029Y-98008440D01*
X113408496Y-97965079D01*
X113392322Y-97925110D01*
X113377643Y-97888870D01*
X113364595Y-97856698D01*
X113353315Y-97828930D01*
X113343940Y-97805904D01*
X113336607Y-97787957D01*
X113331451Y-97775428D01*
X113328611Y-97768652D01*
X113328080Y-97767494D01*
X113327864Y-97770547D01*
X113327668Y-97780007D01*
X113327493Y-97795510D01*
X113327340Y-97816689D01*
X113327208Y-97843179D01*
X113327099Y-97874615D01*
X113327014Y-97910631D01*
X113326952Y-97950861D01*
X113326916Y-97994939D01*
X113326904Y-98042501D01*
X113326919Y-98093181D01*
X113326960Y-98146613D01*
X113327029Y-98202431D01*
X113327125Y-98260270D01*
X113327163Y-98279728D01*
X113328207Y-98794333D01*
X113253306Y-98794333D01*
X113253306Y-97680120D01*
X113374521Y-97680120D01*
X113389775Y-97718220D01*
X113389775Y-97718220D01*
G37*
X113389775Y-97718220D02*
X113399653Y-97742867D01*
X113411236Y-97771725D01*
X113424357Y-97804381D01*
X113438850Y-97840422D01*
X113454549Y-97879435D01*
X113471286Y-97921007D01*
X113488896Y-97964726D01*
X113507211Y-98010179D01*
X113526065Y-98056954D01*
X113545292Y-98104638D01*
X113564724Y-98152817D01*
X113584195Y-98201080D01*
X113603540Y-98249013D01*
X113622590Y-98296204D01*
X113641179Y-98342241D01*
X113659142Y-98386710D01*
X113676311Y-98429198D01*
X113692519Y-98469294D01*
X113707601Y-98506584D01*
X113721389Y-98540656D01*
X113733717Y-98571097D01*
X113744418Y-98597494D01*
X113753326Y-98619434D01*
X113760275Y-98636506D01*
X113765097Y-98648295D01*
X113767626Y-98654390D01*
X113767965Y-98655155D01*
X113768305Y-98656197D01*
X113768477Y-98657483D01*
X113768598Y-98658737D01*
X113768781Y-98659679D01*
X113769143Y-98660030D01*
X113769799Y-98659513D01*
X113770864Y-98657848D01*
X113772453Y-98654756D01*
X113774683Y-98649959D01*
X113777668Y-98643179D01*
X113781524Y-98634136D01*
X113786365Y-98622552D01*
X113792308Y-98608148D01*
X113799468Y-98590645D01*
X113807959Y-98569766D01*
X113817898Y-98545231D01*
X113829400Y-98516761D01*
X113842580Y-98484078D01*
X113857553Y-98446904D01*
X113874435Y-98404959D01*
X113893341Y-98357964D01*
X113914386Y-98305642D01*
X113937687Y-98247714D01*
X113963357Y-98183900D01*
X113974925Y-98155147D01*
X114166013Y-97680214D01*
X114282853Y-97680120D01*
X114282853Y-98794333D01*
X114204960Y-98794333D01*
X114204960Y-98344695D01*
X114204985Y-98270347D01*
X114205063Y-98202487D01*
X114205199Y-98140827D01*
X114205396Y-98085084D01*
X114205659Y-98034970D01*
X114205992Y-97990200D01*
X114206399Y-97950487D01*
X114206886Y-97915547D01*
X114207454Y-97885093D01*
X114208110Y-97858839D01*
X114208858Y-97836500D01*
X114209700Y-97817789D01*
X114210643Y-97802421D01*
X114211689Y-97790110D01*
X114212844Y-97780570D01*
X114213381Y-97777214D01*
X114213606Y-97770380D01*
X114211460Y-97768828D01*
X114209813Y-97772046D01*
X114205762Y-97781213D01*
X114199444Y-97795999D01*
X114190996Y-97816073D01*
X114180552Y-97841104D01*
X114168249Y-97870763D01*
X114154224Y-97904718D01*
X114138611Y-97942640D01*
X114121549Y-97984198D01*
X114103171Y-98029062D01*
X114083615Y-98076900D01*
X114063016Y-98127384D01*
X114041511Y-98180182D01*
X114019236Y-98234964D01*
X114000409Y-98281334D01*
X113792957Y-98792640D01*
X113744133Y-98794634D01*
X113736327Y-98776704D01*
X113734199Y-98771583D01*
X113729682Y-98760531D01*
X113722919Y-98743899D01*
X113714053Y-98722039D01*
X113703225Y-98695302D01*
X113690577Y-98664041D01*
X113676252Y-98628606D01*
X113660392Y-98589350D01*
X113643138Y-98546624D01*
X113624633Y-98500780D01*
X113605018Y-98452170D01*
X113584437Y-98401144D01*
X113563031Y-98348055D01*
X113540941Y-98293255D01*
X113529281Y-98264320D01*
X113507007Y-98209059D01*
X113485408Y-98155503D01*
X113464621Y-98103989D01*
X113444783Y-98054856D01*
X113426029Y-98008440D01*
X113408496Y-97965079D01*
X113392322Y-97925110D01*
X113377643Y-97888870D01*
X113364595Y-97856698D01*
X113353315Y-97828930D01*
X113343940Y-97805904D01*
X113336607Y-97787957D01*
X113331451Y-97775428D01*
X113328611Y-97768652D01*
X113328080Y-97767494D01*
X113327864Y-97770547D01*
X113327668Y-97780007D01*
X113327493Y-97795510D01*
X113327340Y-97816689D01*
X113327208Y-97843179D01*
X113327099Y-97874615D01*
X113327014Y-97910631D01*
X113326952Y-97950861D01*
X113326916Y-97994939D01*
X113326904Y-98042501D01*
X113326919Y-98093181D01*
X113326960Y-98146613D01*
X113327029Y-98202431D01*
X113327125Y-98260270D01*
X113327163Y-98279728D01*
X113328207Y-98794333D01*
X113253306Y-98794333D01*
X113253306Y-97680120D01*
X113374521Y-97680120D01*
X113389775Y-97718220D01*
G36*
X112415662Y-97677251D02*
G01*
X112424724Y-97678773D01*
X112427883Y-97681027D01*
X112429276Y-97684589D01*
X112433017Y-97694132D01*
X112438978Y-97709335D01*
X112447033Y-97729873D01*
X112457054Y-97755423D01*
X112468916Y-97785663D01*
X112482491Y-97820270D01*
X112497653Y-97858919D01*
X112514274Y-97901288D01*
X112532228Y-97947053D01*
X112551389Y-97995892D01*
X112571629Y-98047481D01*
X112592821Y-98101497D01*
X112614839Y-98157617D01*
X112637557Y-98215517D01*
X112644935Y-98234323D01*
X112667857Y-98292744D01*
X112690125Y-98349501D01*
X112711612Y-98404268D01*
X112732191Y-98456722D01*
X112751735Y-98506539D01*
X112770116Y-98553394D01*
X112787208Y-98596963D01*
X112802883Y-98636922D01*
X112817014Y-98672947D01*
X112829474Y-98704713D01*
X112840135Y-98731898D01*
X112848872Y-98754176D01*
X112855556Y-98771223D01*
X112860060Y-98782716D01*
X112862258Y-98788329D01*
X112862452Y-98788828D01*
X112862677Y-98791082D01*
X112860656Y-98792627D01*
X112855394Y-98793594D01*
X112845897Y-98794112D01*
X112831171Y-98794311D01*
X112820429Y-98794333D01*
X112776293Y-98794333D01*
X112735895Y-98691886D01*
X112723673Y-98660877D01*
X112710079Y-98626362D01*
X112695899Y-98590338D01*
X112681919Y-98554801D01*
X112668924Y-98521747D01*
X112658595Y-98495452D01*
X112621693Y-98401464D01*
X112395383Y-98402318D01*
X112169074Y-98403173D01*
X112092125Y-98597906D01*
X112015176Y-98792640D01*
X111971745Y-98793590D01*
X111953944Y-98793918D01*
X111941893Y-98793898D01*
X111934572Y-98793403D01*
X111930960Y-98792309D01*
X111930038Y-98790490D01*
X111930521Y-98788510D01*
X111931993Y-98784772D01*
X111935850Y-98775067D01*
X111941963Y-98759716D01*
X111950204Y-98739042D01*
X111960443Y-98713368D01*
X111972553Y-98683014D01*
X111986405Y-98648304D01*
X112001870Y-98609559D01*
X112018819Y-98567103D01*
X112037125Y-98521256D01*
X112056657Y-98472342D01*
X112077289Y-98420682D01*
X112098891Y-98366599D01*
X112115235Y-98325682D01*
X112200890Y-98325682D01*
X112201821Y-98326743D01*
X112204246Y-98327630D01*
X112208671Y-98328360D01*
X112215600Y-98328947D01*
X112225539Y-98329407D01*
X112238993Y-98329756D01*
X112256467Y-98330008D01*
X112278467Y-98330178D01*
X112305497Y-98330284D01*
X112338064Y-98330338D01*
X112376672Y-98330358D01*
X112396085Y-98330360D01*
X112435955Y-98330307D01*
X112472321Y-98330156D01*
X112504741Y-98329911D01*
X112532778Y-98329581D01*
X112555990Y-98329172D01*
X112573937Y-98328692D01*
X112586181Y-98328146D01*
X112592281Y-98327542D01*
X112592906Y-98327265D01*
X112591740Y-98323663D01*
X112588369Y-98314234D01*
X112582982Y-98299488D01*
X112575767Y-98279932D01*
X112566915Y-98256076D01*
X112556614Y-98228430D01*
X112545054Y-98197501D01*
X112532423Y-98163799D01*
X112518912Y-98127833D01*
X112506975Y-98096125D01*
X112492507Y-98057671D01*
X112478495Y-98020315D01*
X112465162Y-97984660D01*
X112452732Y-97951308D01*
X112441427Y-97920860D01*
X112431471Y-97893920D01*
X112423087Y-97871089D01*
X112416498Y-97852968D01*
X112411928Y-97840161D01*
X112410055Y-97834697D01*
X112399066Y-97801314D01*
X112381190Y-97855017D01*
X112376747Y-97867788D01*
X112370085Y-97886135D01*
X112361478Y-97909337D01*
X112351202Y-97936672D01*
X112339529Y-97967417D01*
X112326734Y-98000852D01*
X112313092Y-98036253D01*
X112298876Y-98072901D01*
X112284360Y-98110072D01*
X112282973Y-98113613D01*
X112269061Y-98149116D01*
X112255862Y-98182848D01*
X112243587Y-98214266D01*
X112232447Y-98242826D01*
X112222654Y-98267985D01*
X112214420Y-98289198D01*
X112207957Y-98305921D01*
X112203475Y-98317611D01*
X112201187Y-98323724D01*
X112200947Y-98324433D01*
X112200890Y-98325682D01*
X112115235Y-98325682D01*
X112121334Y-98310414D01*
X112144490Y-98252451D01*
X112153597Y-98229656D01*
X112374466Y-97676832D01*
X112400350Y-97676782D01*
X112415662Y-97677251D01*
X112415662Y-97677251D01*
G37*
X112415662Y-97677251D02*
X112424724Y-97678773D01*
X112427883Y-97681027D01*
X112429276Y-97684589D01*
X112433017Y-97694132D01*
X112438978Y-97709335D01*
X112447033Y-97729873D01*
X112457054Y-97755423D01*
X112468916Y-97785663D01*
X112482491Y-97820270D01*
X112497653Y-97858919D01*
X112514274Y-97901288D01*
X112532228Y-97947053D01*
X112551389Y-97995892D01*
X112571629Y-98047481D01*
X112592821Y-98101497D01*
X112614839Y-98157617D01*
X112637557Y-98215517D01*
X112644935Y-98234323D01*
X112667857Y-98292744D01*
X112690125Y-98349501D01*
X112711612Y-98404268D01*
X112732191Y-98456722D01*
X112751735Y-98506539D01*
X112770116Y-98553394D01*
X112787208Y-98596963D01*
X112802883Y-98636922D01*
X112817014Y-98672947D01*
X112829474Y-98704713D01*
X112840135Y-98731898D01*
X112848872Y-98754176D01*
X112855556Y-98771223D01*
X112860060Y-98782716D01*
X112862258Y-98788329D01*
X112862452Y-98788828D01*
X112862677Y-98791082D01*
X112860656Y-98792627D01*
X112855394Y-98793594D01*
X112845897Y-98794112D01*
X112831171Y-98794311D01*
X112820429Y-98794333D01*
X112776293Y-98794333D01*
X112735895Y-98691886D01*
X112723673Y-98660877D01*
X112710079Y-98626362D01*
X112695899Y-98590338D01*
X112681919Y-98554801D01*
X112668924Y-98521747D01*
X112658595Y-98495452D01*
X112621693Y-98401464D01*
X112395383Y-98402318D01*
X112169074Y-98403173D01*
X112092125Y-98597906D01*
X112015176Y-98792640D01*
X111971745Y-98793590D01*
X111953944Y-98793918D01*
X111941893Y-98793898D01*
X111934572Y-98793403D01*
X111930960Y-98792309D01*
X111930038Y-98790490D01*
X111930521Y-98788510D01*
X111931993Y-98784772D01*
X111935850Y-98775067D01*
X111941963Y-98759716D01*
X111950204Y-98739042D01*
X111960443Y-98713368D01*
X111972553Y-98683014D01*
X111986405Y-98648304D01*
X112001870Y-98609559D01*
X112018819Y-98567103D01*
X112037125Y-98521256D01*
X112056657Y-98472342D01*
X112077289Y-98420682D01*
X112098891Y-98366599D01*
X112115235Y-98325682D01*
X112200890Y-98325682D01*
X112201821Y-98326743D01*
X112204246Y-98327630D01*
X112208671Y-98328360D01*
X112215600Y-98328947D01*
X112225539Y-98329407D01*
X112238993Y-98329756D01*
X112256467Y-98330008D01*
X112278467Y-98330178D01*
X112305497Y-98330284D01*
X112338064Y-98330338D01*
X112376672Y-98330358D01*
X112396085Y-98330360D01*
X112435955Y-98330307D01*
X112472321Y-98330156D01*
X112504741Y-98329911D01*
X112532778Y-98329581D01*
X112555990Y-98329172D01*
X112573937Y-98328692D01*
X112586181Y-98328146D01*
X112592281Y-98327542D01*
X112592906Y-98327265D01*
X112591740Y-98323663D01*
X112588369Y-98314234D01*
X112582982Y-98299488D01*
X112575767Y-98279932D01*
X112566915Y-98256076D01*
X112556614Y-98228430D01*
X112545054Y-98197501D01*
X112532423Y-98163799D01*
X112518912Y-98127833D01*
X112506975Y-98096125D01*
X112492507Y-98057671D01*
X112478495Y-98020315D01*
X112465162Y-97984660D01*
X112452732Y-97951308D01*
X112441427Y-97920860D01*
X112431471Y-97893920D01*
X112423087Y-97871089D01*
X112416498Y-97852968D01*
X112411928Y-97840161D01*
X112410055Y-97834697D01*
X112399066Y-97801314D01*
X112381190Y-97855017D01*
X112376747Y-97867788D01*
X112370085Y-97886135D01*
X112361478Y-97909337D01*
X112351202Y-97936672D01*
X112339529Y-97967417D01*
X112326734Y-98000852D01*
X112313092Y-98036253D01*
X112298876Y-98072901D01*
X112284360Y-98110072D01*
X112282973Y-98113613D01*
X112269061Y-98149116D01*
X112255862Y-98182848D01*
X112243587Y-98214266D01*
X112232447Y-98242826D01*
X112222654Y-98267985D01*
X112214420Y-98289198D01*
X112207957Y-98305921D01*
X112203475Y-98317611D01*
X112201187Y-98323724D01*
X112200947Y-98324433D01*
X112200890Y-98325682D01*
X112115235Y-98325682D01*
X112121334Y-98310414D01*
X112144490Y-98252451D01*
X112153597Y-98229656D01*
X112374466Y-97676832D01*
X112400350Y-97676782D01*
X112415662Y-97677251D01*
G36*
X111081606Y-97680131D02*
G01*
X111115037Y-97680213D01*
X111147762Y-97680444D01*
X111178867Y-97680805D01*
X111207439Y-97681281D01*
X111232562Y-97681855D01*
X111253323Y-97682509D01*
X111268806Y-97683227D01*
X111275493Y-97683710D01*
X111325706Y-97690179D01*
X111372434Y-97699971D01*
X111414885Y-97712864D01*
X111452269Y-97728636D01*
X111469723Y-97738067D01*
X111488432Y-97750892D01*
X111508171Y-97767456D01*
X111527331Y-97786153D01*
X111544305Y-97805373D01*
X111557484Y-97823509D01*
X111560809Y-97829133D01*
X111576599Y-97864266D01*
X111587905Y-97903221D01*
X111594669Y-97944691D01*
X111596833Y-97987368D01*
X111594338Y-98029948D01*
X111587126Y-98071123D01*
X111575139Y-98109586D01*
X111573502Y-98113655D01*
X111554500Y-98150982D01*
X111529849Y-98184759D01*
X111499795Y-98214767D01*
X111464584Y-98240793D01*
X111424462Y-98262619D01*
X111386569Y-98277747D01*
X111375004Y-98282189D01*
X111366608Y-98286373D01*
X111362872Y-98289529D01*
X111362825Y-98290015D01*
X111364670Y-98293444D01*
X111369735Y-98302255D01*
X111377765Y-98316017D01*
X111388505Y-98334300D01*
X111401701Y-98356672D01*
X111417096Y-98382702D01*
X111434437Y-98411958D01*
X111453468Y-98444010D01*
X111473935Y-98478426D01*
X111495582Y-98514775D01*
X111510991Y-98540620D01*
X111533283Y-98578030D01*
X111554548Y-98613797D01*
X111574535Y-98647489D01*
X111592989Y-98678677D01*
X111609658Y-98706931D01*
X111624290Y-98731820D01*
X111636630Y-98752915D01*
X111646426Y-98769785D01*
X111653424Y-98781999D01*
X111657373Y-98789129D01*
X111658186Y-98790858D01*
X111654885Y-98792389D01*
X111645304Y-98793501D01*
X111629925Y-98794159D01*
X111613258Y-98794333D01*
X111568330Y-98794333D01*
X111282770Y-98311733D01*
X111143665Y-98310849D01*
X111004560Y-98309964D01*
X111004560Y-98794333D01*
X110926666Y-98794333D01*
X110926666Y-97994515D01*
X111004560Y-97994515D01*
X111004590Y-98034506D01*
X111004679Y-98072510D01*
X111004821Y-98107985D01*
X111005010Y-98140391D01*
X111005243Y-98169184D01*
X111005514Y-98193824D01*
X111005818Y-98213770D01*
X111006150Y-98228479D01*
X111006506Y-98237409D01*
X111006817Y-98240048D01*
X111010859Y-98240779D01*
X111020754Y-98241355D01*
X111035586Y-98241782D01*
X111054436Y-98242064D01*
X111076388Y-98242203D01*
X111100523Y-98242206D01*
X111125924Y-98242074D01*
X111151673Y-98241814D01*
X111176853Y-98241428D01*
X111200546Y-98240921D01*
X111221834Y-98240297D01*
X111239801Y-98239561D01*
X111250129Y-98238965D01*
X111296304Y-98234027D01*
X111337036Y-98225775D01*
X111372902Y-98213991D01*
X111404484Y-98198456D01*
X111432361Y-98178953D01*
X111448359Y-98164454D01*
X111468271Y-98142386D01*
X111483426Y-98119953D01*
X111495143Y-98094903D01*
X111503017Y-98071161D01*
X111506150Y-98059306D01*
X111508323Y-98048099D01*
X111509696Y-98035864D01*
X111510431Y-98020923D01*
X111510691Y-98001599D01*
X111510697Y-97991693D01*
X111510505Y-97969758D01*
X111509900Y-97952903D01*
X111508718Y-97939441D01*
X111506794Y-97927683D01*
X111503963Y-97915940D01*
X111502929Y-97912225D01*
X111490965Y-97878682D01*
X111475304Y-97849875D01*
X111455497Y-97825419D01*
X111431100Y-97804926D01*
X111401664Y-97788009D01*
X111366744Y-97774282D01*
X111333066Y-97764983D01*
X111315745Y-97761344D01*
X111297229Y-97758356D01*
X111276719Y-97755967D01*
X111253417Y-97754127D01*
X111226526Y-97752786D01*
X111195247Y-97751892D01*
X111158783Y-97751394D01*
X111117166Y-97751242D01*
X111004560Y-97751240D01*
X111004560Y-97994515D01*
X110926666Y-97994515D01*
X110926666Y-97680120D01*
X111081606Y-97680131D01*
X111081606Y-97680131D01*
G37*
X111081606Y-97680131D02*
X111115037Y-97680213D01*
X111147762Y-97680444D01*
X111178867Y-97680805D01*
X111207439Y-97681281D01*
X111232562Y-97681855D01*
X111253323Y-97682509D01*
X111268806Y-97683227D01*
X111275493Y-97683710D01*
X111325706Y-97690179D01*
X111372434Y-97699971D01*
X111414885Y-97712864D01*
X111452269Y-97728636D01*
X111469723Y-97738067D01*
X111488432Y-97750892D01*
X111508171Y-97767456D01*
X111527331Y-97786153D01*
X111544305Y-97805373D01*
X111557484Y-97823509D01*
X111560809Y-97829133D01*
X111576599Y-97864266D01*
X111587905Y-97903221D01*
X111594669Y-97944691D01*
X111596833Y-97987368D01*
X111594338Y-98029948D01*
X111587126Y-98071123D01*
X111575139Y-98109586D01*
X111573502Y-98113655D01*
X111554500Y-98150982D01*
X111529849Y-98184759D01*
X111499795Y-98214767D01*
X111464584Y-98240793D01*
X111424462Y-98262619D01*
X111386569Y-98277747D01*
X111375004Y-98282189D01*
X111366608Y-98286373D01*
X111362872Y-98289529D01*
X111362825Y-98290015D01*
X111364670Y-98293444D01*
X111369735Y-98302255D01*
X111377765Y-98316017D01*
X111388505Y-98334300D01*
X111401701Y-98356672D01*
X111417096Y-98382702D01*
X111434437Y-98411958D01*
X111453468Y-98444010D01*
X111473935Y-98478426D01*
X111495582Y-98514775D01*
X111510991Y-98540620D01*
X111533283Y-98578030D01*
X111554548Y-98613797D01*
X111574535Y-98647489D01*
X111592989Y-98678677D01*
X111609658Y-98706931D01*
X111624290Y-98731820D01*
X111636630Y-98752915D01*
X111646426Y-98769785D01*
X111653424Y-98781999D01*
X111657373Y-98789129D01*
X111658186Y-98790858D01*
X111654885Y-98792389D01*
X111645304Y-98793501D01*
X111629925Y-98794159D01*
X111613258Y-98794333D01*
X111568330Y-98794333D01*
X111282770Y-98311733D01*
X111143665Y-98310849D01*
X111004560Y-98309964D01*
X111004560Y-98794333D01*
X110926666Y-98794333D01*
X110926666Y-97994515D01*
X111004560Y-97994515D01*
X111004590Y-98034506D01*
X111004679Y-98072510D01*
X111004821Y-98107985D01*
X111005010Y-98140391D01*
X111005243Y-98169184D01*
X111005514Y-98193824D01*
X111005818Y-98213770D01*
X111006150Y-98228479D01*
X111006506Y-98237409D01*
X111006817Y-98240048D01*
X111010859Y-98240779D01*
X111020754Y-98241355D01*
X111035586Y-98241782D01*
X111054436Y-98242064D01*
X111076388Y-98242203D01*
X111100523Y-98242206D01*
X111125924Y-98242074D01*
X111151673Y-98241814D01*
X111176853Y-98241428D01*
X111200546Y-98240921D01*
X111221834Y-98240297D01*
X111239801Y-98239561D01*
X111250129Y-98238965D01*
X111296304Y-98234027D01*
X111337036Y-98225775D01*
X111372902Y-98213991D01*
X111404484Y-98198456D01*
X111432361Y-98178953D01*
X111448359Y-98164454D01*
X111468271Y-98142386D01*
X111483426Y-98119953D01*
X111495143Y-98094903D01*
X111503017Y-98071161D01*
X111506150Y-98059306D01*
X111508323Y-98048099D01*
X111509696Y-98035864D01*
X111510431Y-98020923D01*
X111510691Y-98001599D01*
X111510697Y-97991693D01*
X111510505Y-97969758D01*
X111509900Y-97952903D01*
X111508718Y-97939441D01*
X111506794Y-97927683D01*
X111503963Y-97915940D01*
X111502929Y-97912225D01*
X111490965Y-97878682D01*
X111475304Y-97849875D01*
X111455497Y-97825419D01*
X111431100Y-97804926D01*
X111401664Y-97788009D01*
X111366744Y-97774282D01*
X111333066Y-97764983D01*
X111315745Y-97761344D01*
X111297229Y-97758356D01*
X111276719Y-97755967D01*
X111253417Y-97754127D01*
X111226526Y-97752786D01*
X111195247Y-97751892D01*
X111158783Y-97751394D01*
X111117166Y-97751242D01*
X111004560Y-97751240D01*
X111004560Y-97994515D01*
X110926666Y-97994515D01*
X110926666Y-97680120D01*
X111081606Y-97680131D01*
G36*
X109787900Y-97681042D02*
G01*
X109832147Y-97681390D01*
X109870294Y-97681760D01*
X109903013Y-97682202D01*
X109930975Y-97682763D01*
X109954854Y-97683492D01*
X109975321Y-97684438D01*
X109993050Y-97685647D01*
X110008711Y-97687170D01*
X110022979Y-97689054D01*
X110036525Y-97691347D01*
X110050022Y-97694097D01*
X110064141Y-97697354D01*
X110079556Y-97701165D01*
X110084160Y-97702329D01*
X110138693Y-97719300D01*
X110189132Y-97741462D01*
X110235292Y-97768674D01*
X110276988Y-97800792D01*
X110314035Y-97837672D01*
X110346249Y-97879172D01*
X110373445Y-97925148D01*
X110374561Y-97927346D01*
X110394228Y-97970929D01*
X110409845Y-98015999D01*
X110421599Y-98063478D01*
X110429681Y-98114288D01*
X110434281Y-98169349D01*
X110435599Y-98223986D01*
X110433895Y-98288017D01*
X110428678Y-98346784D01*
X110419792Y-98400910D01*
X110407079Y-98451014D01*
X110390382Y-98497717D01*
X110369546Y-98541639D01*
X110345047Y-98582452D01*
X110313528Y-98623766D01*
X110276795Y-98661016D01*
X110235232Y-98693957D01*
X110189220Y-98722340D01*
X110139144Y-98745919D01*
X110085385Y-98764446D01*
X110049053Y-98773575D01*
X110031008Y-98777378D01*
X110014242Y-98780616D01*
X109998003Y-98783341D01*
X109981537Y-98785608D01*
X109964091Y-98787467D01*
X109944913Y-98788971D01*
X109923249Y-98790174D01*
X109898346Y-98791128D01*
X109869451Y-98791885D01*
X109835812Y-98792499D01*
X109796675Y-98793021D01*
X109765886Y-98793357D01*
X109592320Y-98795141D01*
X109592320Y-98723894D01*
X109670213Y-98723894D01*
X109809913Y-98722228D01*
X109845621Y-98721770D01*
X109875350Y-98721297D01*
X109899894Y-98720772D01*
X109920049Y-98720155D01*
X109936608Y-98719408D01*
X109950365Y-98718491D01*
X109962117Y-98717367D01*
X109972655Y-98715996D01*
X109982777Y-98714340D01*
X109986866Y-98713593D01*
X110044020Y-98700426D01*
X110095791Y-98683245D01*
X110142354Y-98661902D01*
X110183887Y-98636251D01*
X110220564Y-98606146D01*
X110252563Y-98571441D01*
X110280059Y-98531988D01*
X110303229Y-98487643D01*
X110322249Y-98438259D01*
X110323645Y-98433934D01*
X110331346Y-98408070D01*
X110337413Y-98383466D01*
X110342013Y-98358789D01*
X110345315Y-98332711D01*
X110347486Y-98303899D01*
X110348695Y-98271024D01*
X110349108Y-98232754D01*
X110349109Y-98232146D01*
X110349024Y-98200300D01*
X110348575Y-98173876D01*
X110347629Y-98151527D01*
X110346052Y-98131905D01*
X110343711Y-98113664D01*
X110340473Y-98095455D01*
X110336203Y-98075931D01*
X110331901Y-98058241D01*
X110315950Y-98006694D01*
X110295069Y-97959672D01*
X110269323Y-97917261D01*
X110238775Y-97879545D01*
X110203490Y-97846609D01*
X110163532Y-97818539D01*
X110141736Y-97806312D01*
X110118816Y-97794952D01*
X110096644Y-97785203D01*
X110074473Y-97776938D01*
X110051557Y-97770028D01*
X110027146Y-97764347D01*
X110000493Y-97759767D01*
X109970850Y-97756161D01*
X109937471Y-97753400D01*
X109899606Y-97751359D01*
X109856508Y-97749908D01*
X109807430Y-97748921D01*
X109804833Y-97748882D01*
X109670213Y-97746885D01*
X109670213Y-98723894D01*
X109592320Y-98723894D01*
X109592320Y-97679592D01*
X109787900Y-97681042D01*
X109787900Y-97681042D01*
G37*
X109787900Y-97681042D02*
X109832147Y-97681390D01*
X109870294Y-97681760D01*
X109903013Y-97682202D01*
X109930975Y-97682763D01*
X109954854Y-97683492D01*
X109975321Y-97684438D01*
X109993050Y-97685647D01*
X110008711Y-97687170D01*
X110022979Y-97689054D01*
X110036525Y-97691347D01*
X110050022Y-97694097D01*
X110064141Y-97697354D01*
X110079556Y-97701165D01*
X110084160Y-97702329D01*
X110138693Y-97719300D01*
X110189132Y-97741462D01*
X110235292Y-97768674D01*
X110276988Y-97800792D01*
X110314035Y-97837672D01*
X110346249Y-97879172D01*
X110373445Y-97925148D01*
X110374561Y-97927346D01*
X110394228Y-97970929D01*
X110409845Y-98015999D01*
X110421599Y-98063478D01*
X110429681Y-98114288D01*
X110434281Y-98169349D01*
X110435599Y-98223986D01*
X110433895Y-98288017D01*
X110428678Y-98346784D01*
X110419792Y-98400910D01*
X110407079Y-98451014D01*
X110390382Y-98497717D01*
X110369546Y-98541639D01*
X110345047Y-98582452D01*
X110313528Y-98623766D01*
X110276795Y-98661016D01*
X110235232Y-98693957D01*
X110189220Y-98722340D01*
X110139144Y-98745919D01*
X110085385Y-98764446D01*
X110049053Y-98773575D01*
X110031008Y-98777378D01*
X110014242Y-98780616D01*
X109998003Y-98783341D01*
X109981537Y-98785608D01*
X109964091Y-98787467D01*
X109944913Y-98788971D01*
X109923249Y-98790174D01*
X109898346Y-98791128D01*
X109869451Y-98791885D01*
X109835812Y-98792499D01*
X109796675Y-98793021D01*
X109765886Y-98793357D01*
X109592320Y-98795141D01*
X109592320Y-98723894D01*
X109670213Y-98723894D01*
X109809913Y-98722228D01*
X109845621Y-98721770D01*
X109875350Y-98721297D01*
X109899894Y-98720772D01*
X109920049Y-98720155D01*
X109936608Y-98719408D01*
X109950365Y-98718491D01*
X109962117Y-98717367D01*
X109972655Y-98715996D01*
X109982777Y-98714340D01*
X109986866Y-98713593D01*
X110044020Y-98700426D01*
X110095791Y-98683245D01*
X110142354Y-98661902D01*
X110183887Y-98636251D01*
X110220564Y-98606146D01*
X110252563Y-98571441D01*
X110280059Y-98531988D01*
X110303229Y-98487643D01*
X110322249Y-98438259D01*
X110323645Y-98433934D01*
X110331346Y-98408070D01*
X110337413Y-98383466D01*
X110342013Y-98358789D01*
X110345315Y-98332711D01*
X110347486Y-98303899D01*
X110348695Y-98271024D01*
X110349108Y-98232754D01*
X110349109Y-98232146D01*
X110349024Y-98200300D01*
X110348575Y-98173876D01*
X110347629Y-98151527D01*
X110346052Y-98131905D01*
X110343711Y-98113664D01*
X110340473Y-98095455D01*
X110336203Y-98075931D01*
X110331901Y-98058241D01*
X110315950Y-98006694D01*
X110295069Y-97959672D01*
X110269323Y-97917261D01*
X110238775Y-97879545D01*
X110203490Y-97846609D01*
X110163532Y-97818539D01*
X110141736Y-97806312D01*
X110118816Y-97794952D01*
X110096644Y-97785203D01*
X110074473Y-97776938D01*
X110051557Y-97770028D01*
X110027146Y-97764347D01*
X110000493Y-97759767D01*
X109970850Y-97756161D01*
X109937471Y-97753400D01*
X109899606Y-97751359D01*
X109856508Y-97749908D01*
X109807430Y-97748921D01*
X109804833Y-97748882D01*
X109670213Y-97746885D01*
X109670213Y-98723894D01*
X109592320Y-98723894D01*
X109592320Y-97679592D01*
X109787900Y-97681042D01*
G36*
X116498771Y-97665163D02*
G01*
X116521352Y-97665561D01*
X116539600Y-97666342D01*
X116554733Y-97667574D01*
X116567969Y-97669324D01*
X116577320Y-97671006D01*
X116629795Y-97683762D01*
X116677267Y-97700370D01*
X116720582Y-97721266D01*
X116760587Y-97746887D01*
X116798128Y-97777670D01*
X116814479Y-97793357D01*
X116851702Y-97835478D01*
X116883778Y-97881962D01*
X116910709Y-97932817D01*
X116932499Y-97988055D01*
X116949151Y-98047685D01*
X116960668Y-98111717D01*
X116967055Y-98180160D01*
X116968480Y-98234069D01*
X116965890Y-98305899D01*
X116958128Y-98373473D01*
X116945203Y-98436762D01*
X116927126Y-98495737D01*
X116903907Y-98550368D01*
X116875557Y-98600627D01*
X116842085Y-98646485D01*
X116812223Y-98679386D01*
X116772537Y-98714584D01*
X116729303Y-98744104D01*
X116682467Y-98767967D01*
X116631973Y-98786193D01*
X116577766Y-98798802D01*
X116519792Y-98805814D01*
X116465648Y-98807372D01*
X116447486Y-98807100D01*
X116430963Y-98806710D01*
X116417662Y-98806249D01*
X116409163Y-98805764D01*
X116407986Y-98805646D01*
X116349096Y-98795677D01*
X116294394Y-98780390D01*
X116243851Y-98759763D01*
X116197436Y-98733775D01*
X116155119Y-98702407D01*
X116116869Y-98665638D01*
X116082655Y-98623446D01*
X116052447Y-98575813D01*
X116043920Y-98559992D01*
X116021222Y-98509653D01*
X116002765Y-98454724D01*
X115988690Y-98396008D01*
X115979137Y-98334304D01*
X115974245Y-98270413D01*
X115974197Y-98235533D01*
X116060853Y-98235533D01*
X116062773Y-98301359D01*
X116068600Y-98361881D01*
X116078432Y-98417397D01*
X116092369Y-98468206D01*
X116110509Y-98514605D01*
X116132953Y-98556892D01*
X116159799Y-98595366D01*
X116191146Y-98630325D01*
X116192616Y-98631773D01*
X116228184Y-98662413D01*
X116266756Y-98687398D01*
X116308787Y-98706945D01*
X116354731Y-98721270D01*
X116397826Y-98729595D01*
X116416218Y-98731439D01*
X116439352Y-98732520D01*
X116465245Y-98732856D01*
X116491911Y-98732465D01*
X116517365Y-98731363D01*
X116539621Y-98729570D01*
X116550168Y-98728237D01*
X116600851Y-98717642D01*
X116647354Y-98701738D01*
X116689732Y-98680483D01*
X116728044Y-98653830D01*
X116762347Y-98621735D01*
X116792697Y-98584154D01*
X116819151Y-98541041D01*
X116837317Y-98503080D01*
X116853271Y-98459178D01*
X116865930Y-98410432D01*
X116875238Y-98357947D01*
X116881135Y-98302828D01*
X116883563Y-98246181D01*
X116882464Y-98189113D01*
X116877779Y-98132728D01*
X116869450Y-98078133D01*
X116861627Y-98042401D01*
X116846539Y-97991860D01*
X116827555Y-97946384D01*
X116804289Y-97905245D01*
X116776355Y-97867715D01*
X116758761Y-97848244D01*
X116725212Y-97817390D01*
X116689096Y-97791956D01*
X116649970Y-97771774D01*
X116607390Y-97756676D01*
X116560911Y-97746495D01*
X116510088Y-97741062D01*
X116472333Y-97739994D01*
X116434218Y-97740895D01*
X116400659Y-97743791D01*
X116369655Y-97748974D01*
X116339208Y-97756737D01*
X116323452Y-97761715D01*
X116278861Y-97780105D01*
X116237754Y-97804190D01*
X116200405Y-97833696D01*
X116167093Y-97868353D01*
X116138091Y-97907889D01*
X116113678Y-97952032D01*
X116101526Y-97980157D01*
X116087570Y-98020269D01*
X116076737Y-98061668D01*
X116068851Y-98105470D01*
X116063732Y-98152792D01*
X116061204Y-98204751D01*
X116060853Y-98235533D01*
X115974197Y-98235533D01*
X115974155Y-98205137D01*
X115976024Y-98171282D01*
X115983315Y-98104674D01*
X115994932Y-98043092D01*
X116010980Y-97986262D01*
X116031566Y-97933911D01*
X116056796Y-97885766D01*
X116086777Y-97841553D01*
X116119074Y-97803663D01*
X116156743Y-97767974D01*
X116197166Y-97737799D01*
X116240961Y-97712799D01*
X116288747Y-97692638D01*
X116341141Y-97676978D01*
X116358880Y-97672885D01*
X116371761Y-97670279D01*
X116383838Y-97668323D01*
X116396428Y-97666925D01*
X116410850Y-97665993D01*
X116428422Y-97665435D01*
X116450463Y-97665159D01*
X116470640Y-97665081D01*
X116498771Y-97665163D01*
X116498771Y-97665163D01*
G37*
X116498771Y-97665163D02*
X116521352Y-97665561D01*
X116539600Y-97666342D01*
X116554733Y-97667574D01*
X116567969Y-97669324D01*
X116577320Y-97671006D01*
X116629795Y-97683762D01*
X116677267Y-97700370D01*
X116720582Y-97721266D01*
X116760587Y-97746887D01*
X116798128Y-97777670D01*
X116814479Y-97793357D01*
X116851702Y-97835478D01*
X116883778Y-97881962D01*
X116910709Y-97932817D01*
X116932499Y-97988055D01*
X116949151Y-98047685D01*
X116960668Y-98111717D01*
X116967055Y-98180160D01*
X116968480Y-98234069D01*
X116965890Y-98305899D01*
X116958128Y-98373473D01*
X116945203Y-98436762D01*
X116927126Y-98495737D01*
X116903907Y-98550368D01*
X116875557Y-98600627D01*
X116842085Y-98646485D01*
X116812223Y-98679386D01*
X116772537Y-98714584D01*
X116729303Y-98744104D01*
X116682467Y-98767967D01*
X116631973Y-98786193D01*
X116577766Y-98798802D01*
X116519792Y-98805814D01*
X116465648Y-98807372D01*
X116447486Y-98807100D01*
X116430963Y-98806710D01*
X116417662Y-98806249D01*
X116409163Y-98805764D01*
X116407986Y-98805646D01*
X116349096Y-98795677D01*
X116294394Y-98780390D01*
X116243851Y-98759763D01*
X116197436Y-98733775D01*
X116155119Y-98702407D01*
X116116869Y-98665638D01*
X116082655Y-98623446D01*
X116052447Y-98575813D01*
X116043920Y-98559992D01*
X116021222Y-98509653D01*
X116002765Y-98454724D01*
X115988690Y-98396008D01*
X115979137Y-98334304D01*
X115974245Y-98270413D01*
X115974197Y-98235533D01*
X116060853Y-98235533D01*
X116062773Y-98301359D01*
X116068600Y-98361881D01*
X116078432Y-98417397D01*
X116092369Y-98468206D01*
X116110509Y-98514605D01*
X116132953Y-98556892D01*
X116159799Y-98595366D01*
X116191146Y-98630325D01*
X116192616Y-98631773D01*
X116228184Y-98662413D01*
X116266756Y-98687398D01*
X116308787Y-98706945D01*
X116354731Y-98721270D01*
X116397826Y-98729595D01*
X116416218Y-98731439D01*
X116439352Y-98732520D01*
X116465245Y-98732856D01*
X116491911Y-98732465D01*
X116517365Y-98731363D01*
X116539621Y-98729570D01*
X116550168Y-98728237D01*
X116600851Y-98717642D01*
X116647354Y-98701738D01*
X116689732Y-98680483D01*
X116728044Y-98653830D01*
X116762347Y-98621735D01*
X116792697Y-98584154D01*
X116819151Y-98541041D01*
X116837317Y-98503080D01*
X116853271Y-98459178D01*
X116865930Y-98410432D01*
X116875238Y-98357947D01*
X116881135Y-98302828D01*
X116883563Y-98246181D01*
X116882464Y-98189113D01*
X116877779Y-98132728D01*
X116869450Y-98078133D01*
X116861627Y-98042401D01*
X116846539Y-97991860D01*
X116827555Y-97946384D01*
X116804289Y-97905245D01*
X116776355Y-97867715D01*
X116758761Y-97848244D01*
X116725212Y-97817390D01*
X116689096Y-97791956D01*
X116649970Y-97771774D01*
X116607390Y-97756676D01*
X116560911Y-97746495D01*
X116510088Y-97741062D01*
X116472333Y-97739994D01*
X116434218Y-97740895D01*
X116400659Y-97743791D01*
X116369655Y-97748974D01*
X116339208Y-97756737D01*
X116323452Y-97761715D01*
X116278861Y-97780105D01*
X116237754Y-97804190D01*
X116200405Y-97833696D01*
X116167093Y-97868353D01*
X116138091Y-97907889D01*
X116113678Y-97952032D01*
X116101526Y-97980157D01*
X116087570Y-98020269D01*
X116076737Y-98061668D01*
X116068851Y-98105470D01*
X116063732Y-98152792D01*
X116061204Y-98204751D01*
X116060853Y-98235533D01*
X115974197Y-98235533D01*
X115974155Y-98205137D01*
X115976024Y-98171282D01*
X115983315Y-98104674D01*
X115994932Y-98043092D01*
X116010980Y-97986262D01*
X116031566Y-97933911D01*
X116056796Y-97885766D01*
X116086777Y-97841553D01*
X116119074Y-97803663D01*
X116156743Y-97767974D01*
X116197166Y-97737799D01*
X116240961Y-97712799D01*
X116288747Y-97692638D01*
X116341141Y-97676978D01*
X116358880Y-97672885D01*
X116371761Y-97670279D01*
X116383838Y-97668323D01*
X116396428Y-97666925D01*
X116410850Y-97665993D01*
X116428422Y-97665435D01*
X116450463Y-97665159D01*
X116470640Y-97665081D01*
X116498771Y-97665163D01*
G36*
X115348086Y-97666095D02*
G01*
X115384502Y-97668433D01*
X115418862Y-97672633D01*
X115453458Y-97678968D01*
X115486636Y-97686707D01*
X115502647Y-97691107D01*
X115520507Y-97696594D01*
X115538871Y-97702687D01*
X115556393Y-97708905D01*
X115571729Y-97714768D01*
X115583533Y-97719794D01*
X115590460Y-97723502D01*
X115591162Y-97724062D01*
X115590825Y-97727782D01*
X115588261Y-97736066D01*
X115584112Y-97747342D01*
X115579018Y-97760039D01*
X115573622Y-97772585D01*
X115568566Y-97783409D01*
X115564491Y-97790940D01*
X115563011Y-97792992D01*
X115558840Y-97793134D01*
X115550787Y-97790543D01*
X115543773Y-97787347D01*
X115526474Y-97779568D01*
X115504569Y-97771193D01*
X115480103Y-97762906D01*
X115455124Y-97755390D01*
X115431675Y-97749328D01*
X115426410Y-97748145D01*
X115370598Y-97738866D01*
X115315433Y-97735178D01*
X115261449Y-97736935D01*
X115209181Y-97743991D01*
X115159164Y-97756202D01*
X115111933Y-97773420D01*
X115068023Y-97795500D01*
X115027968Y-97822296D01*
X114992304Y-97853662D01*
X114976451Y-97870820D01*
X114944564Y-97912383D01*
X114917857Y-97957079D01*
X114896234Y-98005217D01*
X114879594Y-98057105D01*
X114867839Y-98113053D01*
X114860869Y-98173368D01*
X114858586Y-98237960D01*
X114861030Y-98303701D01*
X114868302Y-98365308D01*
X114880310Y-98422651D01*
X114896963Y-98475599D01*
X114918169Y-98524020D01*
X114943838Y-98567783D01*
X114973876Y-98606759D01*
X115008194Y-98640816D01*
X115046700Y-98669823D01*
X115089302Y-98693649D01*
X115135910Y-98712163D01*
X115186430Y-98725235D01*
X115200640Y-98727800D01*
X115250469Y-98733605D01*
X115304340Y-98735483D01*
X115360839Y-98733520D01*
X115418552Y-98727803D01*
X115476063Y-98718416D01*
X115520755Y-98708378D01*
X115552853Y-98700228D01*
X115552853Y-98769639D01*
X115528300Y-98776737D01*
X115496733Y-98785304D01*
X115466908Y-98792098D01*
X115437348Y-98797313D01*
X115406576Y-98801140D01*
X115373114Y-98803774D01*
X115335487Y-98805408D01*
X115303933Y-98806089D01*
X115280436Y-98806363D01*
X115258587Y-98806489D01*
X115239501Y-98806472D01*
X115224291Y-98806316D01*
X115214071Y-98806024D01*
X115210800Y-98805785D01*
X115202503Y-98804542D01*
X115189564Y-98802373D01*
X115173994Y-98799622D01*
X115162827Y-98797575D01*
X115107904Y-98784149D01*
X115056618Y-98765093D01*
X115009112Y-98740580D01*
X114965528Y-98710782D01*
X114926008Y-98675871D01*
X114890695Y-98636020D01*
X114859730Y-98591400D01*
X114833256Y-98542184D01*
X114811415Y-98488545D01*
X114794350Y-98430655D01*
X114782202Y-98368685D01*
X114777456Y-98330847D01*
X114775518Y-98304870D01*
X114774372Y-98274609D01*
X114774000Y-98241969D01*
X114774385Y-98208853D01*
X114775509Y-98177164D01*
X114777354Y-98148807D01*
X114779310Y-98130010D01*
X114790421Y-98066766D01*
X114806839Y-98007465D01*
X114828411Y-97952273D01*
X114854980Y-97901354D01*
X114886392Y-97854872D01*
X114922489Y-97812992D01*
X114963117Y-97775879D01*
X115008121Y-97743697D01*
X115057344Y-97716611D01*
X115110632Y-97694785D01*
X115167828Y-97678384D01*
X115214426Y-97669558D01*
X115227314Y-97668163D01*
X115245221Y-97666966D01*
X115266392Y-97666047D01*
X115289072Y-97665485D01*
X115307320Y-97665347D01*
X115348086Y-97666095D01*
X115348086Y-97666095D01*
G37*
X115348086Y-97666095D02*
X115384502Y-97668433D01*
X115418862Y-97672633D01*
X115453458Y-97678968D01*
X115486636Y-97686707D01*
X115502647Y-97691107D01*
X115520507Y-97696594D01*
X115538871Y-97702687D01*
X115556393Y-97708905D01*
X115571729Y-97714768D01*
X115583533Y-97719794D01*
X115590460Y-97723502D01*
X115591162Y-97724062D01*
X115590825Y-97727782D01*
X115588261Y-97736066D01*
X115584112Y-97747342D01*
X115579018Y-97760039D01*
X115573622Y-97772585D01*
X115568566Y-97783409D01*
X115564491Y-97790940D01*
X115563011Y-97792992D01*
X115558840Y-97793134D01*
X115550787Y-97790543D01*
X115543773Y-97787347D01*
X115526474Y-97779568D01*
X115504569Y-97771193D01*
X115480103Y-97762906D01*
X115455124Y-97755390D01*
X115431675Y-97749328D01*
X115426410Y-97748145D01*
X115370598Y-97738866D01*
X115315433Y-97735178D01*
X115261449Y-97736935D01*
X115209181Y-97743991D01*
X115159164Y-97756202D01*
X115111933Y-97773420D01*
X115068023Y-97795500D01*
X115027968Y-97822296D01*
X114992304Y-97853662D01*
X114976451Y-97870820D01*
X114944564Y-97912383D01*
X114917857Y-97957079D01*
X114896234Y-98005217D01*
X114879594Y-98057105D01*
X114867839Y-98113053D01*
X114860869Y-98173368D01*
X114858586Y-98237960D01*
X114861030Y-98303701D01*
X114868302Y-98365308D01*
X114880310Y-98422651D01*
X114896963Y-98475599D01*
X114918169Y-98524020D01*
X114943838Y-98567783D01*
X114973876Y-98606759D01*
X115008194Y-98640816D01*
X115046700Y-98669823D01*
X115089302Y-98693649D01*
X115135910Y-98712163D01*
X115186430Y-98725235D01*
X115200640Y-98727800D01*
X115250469Y-98733605D01*
X115304340Y-98735483D01*
X115360839Y-98733520D01*
X115418552Y-98727803D01*
X115476063Y-98718416D01*
X115520755Y-98708378D01*
X115552853Y-98700228D01*
X115552853Y-98769639D01*
X115528300Y-98776737D01*
X115496733Y-98785304D01*
X115466908Y-98792098D01*
X115437348Y-98797313D01*
X115406576Y-98801140D01*
X115373114Y-98803774D01*
X115335487Y-98805408D01*
X115303933Y-98806089D01*
X115280436Y-98806363D01*
X115258587Y-98806489D01*
X115239501Y-98806472D01*
X115224291Y-98806316D01*
X115214071Y-98806024D01*
X115210800Y-98805785D01*
X115202503Y-98804542D01*
X115189564Y-98802373D01*
X115173994Y-98799622D01*
X115162827Y-98797575D01*
X115107904Y-98784149D01*
X115056618Y-98765093D01*
X115009112Y-98740580D01*
X114965528Y-98710782D01*
X114926008Y-98675871D01*
X114890695Y-98636020D01*
X114859730Y-98591400D01*
X114833256Y-98542184D01*
X114811415Y-98488545D01*
X114794350Y-98430655D01*
X114782202Y-98368685D01*
X114777456Y-98330847D01*
X114775518Y-98304870D01*
X114774372Y-98274609D01*
X114774000Y-98241969D01*
X114774385Y-98208853D01*
X114775509Y-98177164D01*
X114777354Y-98148807D01*
X114779310Y-98130010D01*
X114790421Y-98066766D01*
X114806839Y-98007465D01*
X114828411Y-97952273D01*
X114854980Y-97901354D01*
X114886392Y-97854872D01*
X114922489Y-97812992D01*
X114963117Y-97775879D01*
X115008121Y-97743697D01*
X115057344Y-97716611D01*
X115110632Y-97694785D01*
X115167828Y-97678384D01*
X115214426Y-97669558D01*
X115227314Y-97668163D01*
X115245221Y-97666966D01*
X115266392Y-97666047D01*
X115289072Y-97665485D01*
X115307320Y-97665347D01*
X115348086Y-97666095D01*
D12*
X148770000Y-107455000D02*
X150100000Y-107455000D01*
X148770000Y-108785000D02*
X148770000Y-107455000D01*
X148770000Y-110055000D02*
X151430000Y-110055000D01*
X151430000Y-110055000D02*
X151430000Y-122815000D01*
X148770000Y-110055000D02*
X148770000Y-122815000D01*
X148770000Y-122815000D02*
X151430000Y-122815000D01*
X122509748Y-119274000D02*
X123032252Y-119274000D01*
X122509748Y-117854000D02*
X123032252Y-117854000D01*
X118011600Y-117148000D02*
G75*
G02X117311600Y-116448000I0J700000D01*
G01*
X119311600Y-116448000D02*
G75*
G02X118611600Y-117148000I-700000J0D01*
G01*
X118611600Y-113048000D02*
G75*
G02X119311600Y-113748000I0J-700000D01*
G01*
X117311600Y-113748000D02*
G75*
G02X118011600Y-113048000I700000J0D01*
G01*
X117311600Y-116498000D02*
X117311600Y-113698000D01*
X118011600Y-113048000D02*
X118611600Y-113048000D01*
X119311600Y-113698000D02*
X119311600Y-116498000D01*
X118611600Y-117148000D02*
X118011600Y-117148000D01*
X119511600Y-116298000D02*
X119811600Y-116598000D01*
X119811600Y-116598000D02*
X119811600Y-115998000D01*
X119511600Y-116298000D02*
X119811600Y-115998000D01*
X125923800Y-115917200D02*
X128783800Y-115917200D01*
X125923800Y-113997200D02*
X125923800Y-115917200D01*
X128783800Y-113997200D02*
X125923800Y-113997200D01*
X126627500Y-149709000D02*
X118372500Y-149709000D01*
X126627500Y-141708000D02*
X118372500Y-141708000D01*
X118372500Y-136628000D02*
X118372500Y-149709000D01*
X126627500Y-136628000D02*
X126627500Y-149709000D01*
X126627500Y-136628000D02*
X118372500Y-136628000D01*
X122984000Y-110774252D02*
X122984000Y-110251748D01*
X124404000Y-110774252D02*
X124404000Y-110251748D01*
X121806000Y-110774252D02*
X121806000Y-110251748D01*
X120386000Y-110774252D02*
X120386000Y-110251748D01*
X123594000Y-104738000D02*
X123294000Y-104438000D01*
X123894000Y-104438000D02*
X123294000Y-104438000D01*
X123594000Y-104738000D02*
X123894000Y-104438000D01*
X124444000Y-105638000D02*
X124444000Y-106238000D01*
X120994000Y-104938000D02*
X123794000Y-104938000D01*
X120344000Y-106238000D02*
X120344000Y-105638000D01*
X123794000Y-106938000D02*
X120994000Y-106938000D01*
X121044000Y-106938000D02*
G75*
G02X120344000Y-106238000I0J700000D01*
G01*
X120344000Y-105638000D02*
G75*
G02X121044000Y-104938000I700000J0D01*
G01*
X123744000Y-104938000D02*
G75*
G02X124444000Y-105638000I0J-700000D01*
G01*
X124444000Y-106238000D02*
G75*
G02X123744000Y-106938000I-700000J0D01*
G01*
X126741200Y-117693148D02*
X126741200Y-118215652D01*
X125321200Y-117693148D02*
X125321200Y-118215652D01*
D13*
X124251600Y-116668000D02*
X124251600Y-113608000D01*
X120711600Y-113608000D02*
X120711600Y-116668000D01*
D14*
X123781600Y-117183000D02*
G75*
G03X123781600Y-117183000I-100000J0D01*
G01*
D12*
X130094000Y-133187148D02*
X130094000Y-133709652D01*
X128674000Y-133187148D02*
X128674000Y-133709652D01*
X137401252Y-126794800D02*
X136878748Y-126794800D01*
X137401252Y-128214800D02*
X136878748Y-128214800D01*
X137401252Y-130170600D02*
X136878748Y-130170600D01*
X137401252Y-128750600D02*
X136878748Y-128750600D01*
X128747800Y-118224652D02*
X128747800Y-117702148D01*
X127327800Y-118224652D02*
X127327800Y-117702148D01*
X115031252Y-121991800D02*
X114508748Y-121991800D01*
X115031252Y-120571800D02*
X114508748Y-120571800D01*
X128208348Y-137003200D02*
X128730852Y-137003200D01*
X128208348Y-135583200D02*
X128730852Y-135583200D01*
X113855452Y-133015400D02*
X113332948Y-133015400D01*
X113855452Y-131595400D02*
X113332948Y-131595400D01*
X118391400Y-121988400D02*
X117441400Y-121988400D01*
X117441400Y-121988400D02*
X117441400Y-122938400D01*
X126711400Y-121988400D02*
X127661400Y-121988400D01*
X127661400Y-121988400D02*
X127661400Y-122938400D01*
X118391400Y-132208400D02*
X117441400Y-132208400D01*
X117441400Y-132208400D02*
X117441400Y-131258400D01*
X126711400Y-132208400D02*
X127661400Y-132208400D01*
X127661400Y-132208400D02*
X127661400Y-131258400D01*
X127661400Y-131258400D02*
X129001400Y-131258400D01*
D15*
X133898000Y-128608200D02*
X133898000Y-128208200D01*
X132598000Y-127158200D02*
X131998000Y-127158200D01*
X132598000Y-129658200D02*
X131998000Y-129658200D01*
X130698000Y-128608200D02*
X130698000Y-128208200D01*
X133498000Y-126708200D02*
X133498000Y-126708200D01*
X133398000Y-126708200D02*
X133398000Y-126708200D01*
X133398000Y-126708200D02*
G75*
G03X133498000Y-126708200I50000J0D01*
G01*
X133498000Y-126708200D02*
G75*
G03X133398000Y-126708200I-50000J0D01*
G01*
D12*
X145148200Y-122815000D02*
X147808200Y-122815000D01*
X145148200Y-110055000D02*
X145148200Y-122815000D01*
X147808200Y-110055000D02*
X147808200Y-122815000D01*
X145148200Y-110055000D02*
X147808200Y-110055000D01*
X145148200Y-108785000D02*
X145148200Y-107455000D01*
X145148200Y-107455000D02*
X146478200Y-107455000D01*
D15*
G36*
X144573200Y-108785000D02*
G01*
X142668200Y-107515000D01*
X142668200Y-110055000D01*
X144573200Y-108785000D01*
G37*
X144573200Y-108785000D02*
X142668200Y-107515000D01*
X142668200Y-110055000D01*
X144573200Y-108785000D01*
D12*
X115049252Y-118565200D02*
X114526748Y-118565200D01*
X115049252Y-119985200D02*
X114526748Y-119985200D01*
X113855452Y-131085000D02*
X113332948Y-131085000D01*
X113855452Y-129665000D02*
X113332948Y-129665000D01*
X134566800Y-123863452D02*
X134566800Y-123340948D01*
X135986800Y-123863452D02*
X135986800Y-123340948D01*
X134056400Y-123854452D02*
X134056400Y-123331948D01*
X132636400Y-123854452D02*
X132636400Y-123331948D01*
X118496548Y-117879400D02*
X119019052Y-117879400D01*
X118496548Y-119299400D02*
X119019052Y-119299400D01*
X130949400Y-132534800D02*
G75*
G02X131649400Y-131834800I700000J0D01*
G01*
X132249400Y-131834800D02*
G75*
G02X132949400Y-132534800I0J-700000D01*
G01*
X132949400Y-133934800D02*
G75*
G02X132249400Y-134634800I-700000J0D01*
G01*
X131649400Y-134634800D02*
G75*
G02X130949400Y-133934800I0J700000D01*
G01*
X132249400Y-134634800D02*
X131649400Y-134634800D01*
X132949400Y-132534800D02*
X132949400Y-133934800D01*
X131649400Y-131834800D02*
X132249400Y-131834800D01*
X130949400Y-133934800D02*
X130949400Y-132534800D01*
X132085800Y-122019200D02*
X132085800Y-123419200D01*
X131385800Y-124119200D02*
X130785800Y-124119200D01*
X130085800Y-123419200D02*
X130085800Y-122019200D01*
X130785800Y-121319200D02*
X131385800Y-121319200D01*
X131385800Y-121319200D02*
G75*
G02X132085800Y-122019200I0J-700000D01*
G01*
X130085800Y-122019200D02*
G75*
G02X130785800Y-121319200I700000J0D01*
G01*
X130785800Y-124119200D02*
G75*
G02X130085800Y-123419200I0J700000D01*
G01*
X132085800Y-123419200D02*
G75*
G02X131385800Y-124119200I-700000J0D01*
G01*
D16*
X149766666Y-105907380D02*
X149766666Y-106621666D01*
X149719047Y-106764523D01*
X149623809Y-106859761D01*
X149480952Y-106907380D01*
X149385714Y-106907380D01*
X150766666Y-106907380D02*
X150195238Y-106907380D01*
X150480952Y-106907380D02*
X150480952Y-105907380D01*
X150385714Y-106050238D01*
X150290476Y-106145476D01*
X150195238Y-106193095D01*
X121402066Y-120272104D02*
X121135400Y-119891152D01*
X120944923Y-120272104D02*
X120944923Y-119472104D01*
X121249685Y-119472104D01*
X121325876Y-119510200D01*
X121363971Y-119548295D01*
X121402066Y-119624485D01*
X121402066Y-119738771D01*
X121363971Y-119814961D01*
X121325876Y-119853057D01*
X121249685Y-119891152D01*
X120944923Y-119891152D01*
X121668733Y-119472104D02*
X122163971Y-119472104D01*
X121897304Y-119776866D01*
X122011590Y-119776866D01*
X122087780Y-119814961D01*
X122125876Y-119853057D01*
X122163971Y-119929247D01*
X122163971Y-120119723D01*
X122125876Y-120195914D01*
X122087780Y-120234009D01*
X122011590Y-120272104D01*
X121783019Y-120272104D01*
X121706828Y-120234009D01*
X121668733Y-120195914D01*
X115755380Y-116019133D02*
X116469666Y-116019133D01*
X116612523Y-116066752D01*
X116707761Y-116161990D01*
X116755380Y-116304847D01*
X116755380Y-116400085D01*
X116755380Y-115542942D02*
X115755380Y-115542942D01*
X115755380Y-115161990D01*
X115803000Y-115066752D01*
X115850619Y-115019133D01*
X115945857Y-114971514D01*
X116088714Y-114971514D01*
X116183952Y-115019133D01*
X116231571Y-115066752D01*
X116279190Y-115161990D01*
X116279190Y-115542942D01*
X116755380Y-114019133D02*
X116755380Y-114590561D01*
X116755380Y-114304847D02*
X115755380Y-114304847D01*
X115898238Y-114400085D01*
X115993476Y-114495323D01*
X116041095Y-114590561D01*
X126664752Y-113759580D02*
X126188561Y-113759580D01*
X126188561Y-112759580D01*
X126998085Y-113235771D02*
X127331419Y-113235771D01*
X127474276Y-113759580D02*
X126998085Y-113759580D01*
X126998085Y-112759580D01*
X127474276Y-112759580D01*
X127902847Y-113759580D02*
X127902847Y-112759580D01*
X128140942Y-112759580D01*
X128283800Y-112807200D01*
X128379038Y-112902438D01*
X128426657Y-112997676D01*
X128474276Y-113188152D01*
X128474276Y-113331009D01*
X128426657Y-113521485D01*
X128379038Y-113616723D01*
X128283800Y-113711961D01*
X128140942Y-113759580D01*
X127902847Y-113759580D01*
X129426657Y-113759580D02*
X128855228Y-113759580D01*
X129140942Y-113759580D02*
X129140942Y-112759580D01*
X129045704Y-112902438D01*
X128950466Y-112997676D01*
X128855228Y-113045295D01*
X127032380Y-139501333D02*
X127746666Y-139501333D01*
X127889523Y-139548952D01*
X127984761Y-139644190D01*
X128032380Y-139787047D01*
X128032380Y-139882285D01*
X127127619Y-139072761D02*
X127080000Y-139025142D01*
X127032380Y-138929904D01*
X127032380Y-138691809D01*
X127080000Y-138596571D01*
X127127619Y-138548952D01*
X127222857Y-138501333D01*
X127318095Y-138501333D01*
X127460952Y-138548952D01*
X128032380Y-139120380D01*
X128032380Y-138501333D01*
X125783142Y-110704666D02*
X125830761Y-110752285D01*
X125878380Y-110895142D01*
X125878380Y-110990380D01*
X125830761Y-111133238D01*
X125735523Y-111228476D01*
X125640285Y-111276095D01*
X125449809Y-111323714D01*
X125306952Y-111323714D01*
X125116476Y-111276095D01*
X125021238Y-111228476D01*
X124926000Y-111133238D01*
X124878380Y-110990380D01*
X124878380Y-110895142D01*
X124926000Y-110752285D01*
X124973619Y-110704666D01*
X124973619Y-110323714D02*
X124926000Y-110276095D01*
X124878380Y-110180857D01*
X124878380Y-109942761D01*
X124926000Y-109847523D01*
X124973619Y-109799904D01*
X125068857Y-109752285D01*
X125164095Y-109752285D01*
X125306952Y-109799904D01*
X125878380Y-110371333D01*
X125878380Y-109752285D01*
X119803142Y-110679666D02*
X119850761Y-110727285D01*
X119898380Y-110870142D01*
X119898380Y-110965380D01*
X119850761Y-111108238D01*
X119755523Y-111203476D01*
X119660285Y-111251095D01*
X119469809Y-111298714D01*
X119326952Y-111298714D01*
X119136476Y-111251095D01*
X119041238Y-111203476D01*
X118946000Y-111108238D01*
X118898380Y-110965380D01*
X118898380Y-110870142D01*
X118946000Y-110727285D01*
X118993619Y-110679666D01*
X118898380Y-110346333D02*
X118898380Y-109727285D01*
X119279333Y-110060619D01*
X119279333Y-109917761D01*
X119326952Y-109822523D01*
X119374571Y-109774904D01*
X119469809Y-109727285D01*
X119707904Y-109727285D01*
X119803142Y-109774904D01*
X119850761Y-109822523D01*
X119898380Y-109917761D01*
X119898380Y-110203476D01*
X119850761Y-110298714D01*
X119803142Y-110346333D01*
X121560666Y-107190380D02*
X121560666Y-107904666D01*
X121513047Y-108047523D01*
X121417809Y-108142761D01*
X121274952Y-108190380D01*
X121179714Y-108190380D01*
X122036857Y-108190380D02*
X122036857Y-107190380D01*
X122417809Y-107190380D01*
X122513047Y-107238000D01*
X122560666Y-107285619D01*
X122608285Y-107380857D01*
X122608285Y-107523714D01*
X122560666Y-107618952D01*
X122513047Y-107666571D01*
X122417809Y-107714190D01*
X122036857Y-107714190D01*
X122989238Y-107285619D02*
X123036857Y-107238000D01*
X123132095Y-107190380D01*
X123370190Y-107190380D01*
X123465428Y-107238000D01*
X123513047Y-107285619D01*
X123560666Y-107380857D01*
X123560666Y-107476095D01*
X123513047Y-107618952D01*
X122941619Y-108190380D01*
X123560666Y-108190380D01*
X124450066Y-120272104D02*
X124183400Y-119891152D01*
X123992923Y-120272104D02*
X123992923Y-119472104D01*
X124297685Y-119472104D01*
X124373876Y-119510200D01*
X124411971Y-119548295D01*
X124450066Y-119624485D01*
X124450066Y-119738771D01*
X124411971Y-119814961D01*
X124373876Y-119853057D01*
X124297685Y-119891152D01*
X123992923Y-119891152D01*
X124754828Y-119548295D02*
X124792923Y-119510200D01*
X124869114Y-119472104D01*
X125059590Y-119472104D01*
X125135780Y-119510200D01*
X125173876Y-119548295D01*
X125211971Y-119624485D01*
X125211971Y-119700676D01*
X125173876Y-119814961D01*
X124716733Y-120272104D01*
X125211971Y-120272104D01*
D17*
X124531502Y-115396272D02*
X125050368Y-115396272D01*
X125111411Y-115365750D01*
X125141932Y-115335229D01*
X125172454Y-115274186D01*
X125172454Y-115152100D01*
X125141932Y-115091057D01*
X125111411Y-115060535D01*
X125050368Y-115030014D01*
X124531502Y-115030014D01*
X125172454Y-114389062D02*
X125172454Y-114755320D01*
X125172454Y-114572191D02*
X124531502Y-114572191D01*
X124623067Y-114633234D01*
X124684110Y-114694277D01*
X124714631Y-114755320D01*
X120082828Y-115467576D02*
X120113356Y-115375993D01*
X120143883Y-115345466D01*
X120204938Y-115314938D01*
X120296521Y-115314938D01*
X120357576Y-115345466D01*
X120388103Y-115375993D01*
X120418631Y-115437048D01*
X120418631Y-115681268D01*
X119777553Y-115681268D01*
X119777553Y-115467576D01*
X119808081Y-115406521D01*
X119838608Y-115375993D01*
X119899663Y-115345466D01*
X119960718Y-115345466D01*
X120021773Y-115375993D01*
X120052301Y-115406521D01*
X120082828Y-115467576D01*
X120082828Y-115681268D01*
X120418631Y-115040190D02*
X119777553Y-115040190D01*
X120235466Y-114826498D01*
X119777553Y-114612805D01*
X120418631Y-114612805D01*
X120082828Y-114307530D02*
X120082828Y-114093837D01*
X120418631Y-114002255D02*
X120418631Y-114307530D01*
X119777553Y-114307530D01*
X119777553Y-114002255D01*
X119777553Y-113452759D02*
X119777553Y-113574869D01*
X119808081Y-113635924D01*
X119838608Y-113666452D01*
X119930191Y-113727507D01*
X120052301Y-113758034D01*
X120296521Y-113758034D01*
X120357576Y-113727507D01*
X120388103Y-113696979D01*
X120418631Y-113635924D01*
X120418631Y-113513814D01*
X120388103Y-113452759D01*
X120357576Y-113422232D01*
X120296521Y-113391704D01*
X120143883Y-113391704D01*
X120082828Y-113422232D01*
X120052301Y-113452759D01*
X120021773Y-113513814D01*
X120021773Y-113635924D01*
X120052301Y-113696979D01*
X120082828Y-113727507D01*
X120143883Y-113758034D01*
X120052301Y-113025374D02*
X120021773Y-113086429D01*
X119991246Y-113116956D01*
X119930191Y-113147484D01*
X119899663Y-113147484D01*
X119838608Y-113116956D01*
X119808081Y-113086429D01*
X119777553Y-113025374D01*
X119777553Y-112903264D01*
X119808081Y-112842209D01*
X119838608Y-112811681D01*
X119899663Y-112781154D01*
X119930191Y-112781154D01*
X119991246Y-112811681D01*
X120021773Y-112842209D01*
X120052301Y-112903264D01*
X120052301Y-113025374D01*
X120082828Y-113086429D01*
X120113356Y-113116956D01*
X120174411Y-113147484D01*
X120296521Y-113147484D01*
X120357576Y-113116956D01*
X120388103Y-113086429D01*
X120418631Y-113025374D01*
X120418631Y-112903264D01*
X120388103Y-112842209D01*
X120357576Y-112811681D01*
X120296521Y-112781154D01*
X120174411Y-112781154D01*
X120113356Y-112811681D01*
X120082828Y-112842209D01*
X120052301Y-112903264D01*
X119777553Y-112384296D02*
X119777553Y-112323241D01*
X119808081Y-112262186D01*
X119838608Y-112231658D01*
X119899663Y-112201131D01*
X120021773Y-112170603D01*
X120174411Y-112170603D01*
X120296521Y-112201131D01*
X120357576Y-112231658D01*
X120388103Y-112262186D01*
X120418631Y-112323241D01*
X120418631Y-112384296D01*
X120388103Y-112445351D01*
X120357576Y-112475878D01*
X120296521Y-112506406D01*
X120174411Y-112536933D01*
X120021773Y-112536933D01*
X119899663Y-112506406D01*
X119838608Y-112475878D01*
X119808081Y-112445351D01*
X119777553Y-112384296D01*
D16*
X128318742Y-133564266D02*
X128366361Y-133611885D01*
X128413980Y-133754742D01*
X128413980Y-133849980D01*
X128366361Y-133992838D01*
X128271123Y-134088076D01*
X128175885Y-134135695D01*
X127985409Y-134183314D01*
X127842552Y-134183314D01*
X127652076Y-134135695D01*
X127556838Y-134088076D01*
X127461600Y-133992838D01*
X127413980Y-133849980D01*
X127413980Y-133754742D01*
X127461600Y-133611885D01*
X127509219Y-133564266D01*
X128413980Y-132611885D02*
X128413980Y-133183314D01*
X128413980Y-132897600D02*
X127413980Y-132897600D01*
X127556838Y-132992838D01*
X127652076Y-133088076D01*
X127699695Y-133183314D01*
X139809133Y-127861942D02*
X139761514Y-127909561D01*
X139618657Y-127957180D01*
X139523419Y-127957180D01*
X139380561Y-127909561D01*
X139285323Y-127814323D01*
X139237704Y-127719085D01*
X139190085Y-127528609D01*
X139190085Y-127385752D01*
X139237704Y-127195276D01*
X139285323Y-127100038D01*
X139380561Y-127004800D01*
X139523419Y-126957180D01*
X139618657Y-126957180D01*
X139761514Y-127004800D01*
X139809133Y-127052419D01*
X140666276Y-127290514D02*
X140666276Y-127957180D01*
X140428180Y-126909561D02*
X140190085Y-127623847D01*
X140809133Y-127623847D01*
X139783733Y-129766942D02*
X139736114Y-129814561D01*
X139593257Y-129862180D01*
X139498019Y-129862180D01*
X139355161Y-129814561D01*
X139259923Y-129719323D01*
X139212304Y-129624085D01*
X139164685Y-129433609D01*
X139164685Y-129290752D01*
X139212304Y-129100276D01*
X139259923Y-129005038D01*
X139355161Y-128909800D01*
X139498019Y-128862180D01*
X139593257Y-128862180D01*
X139736114Y-128909800D01*
X139783733Y-128957419D01*
X140688495Y-128862180D02*
X140212304Y-128862180D01*
X140164685Y-129338371D01*
X140212304Y-129290752D01*
X140307542Y-129243133D01*
X140545638Y-129243133D01*
X140640876Y-129290752D01*
X140688495Y-129338371D01*
X140736114Y-129433609D01*
X140736114Y-129671704D01*
X140688495Y-129766942D01*
X140640876Y-129814561D01*
X140545638Y-129862180D01*
X140307542Y-129862180D01*
X140212304Y-129814561D01*
X140164685Y-129766942D01*
X130426942Y-118222666D02*
X130474561Y-118270285D01*
X130522180Y-118413142D01*
X130522180Y-118508380D01*
X130474561Y-118651238D01*
X130379323Y-118746476D01*
X130284085Y-118794095D01*
X130093609Y-118841714D01*
X129950752Y-118841714D01*
X129760276Y-118794095D01*
X129665038Y-118746476D01*
X129569800Y-118651238D01*
X129522180Y-118508380D01*
X129522180Y-118413142D01*
X129569800Y-118270285D01*
X129617419Y-118222666D01*
X129950752Y-117651238D02*
X129903133Y-117746476D01*
X129855514Y-117794095D01*
X129760276Y-117841714D01*
X129712657Y-117841714D01*
X129617419Y-117794095D01*
X129569800Y-117746476D01*
X129522180Y-117651238D01*
X129522180Y-117460761D01*
X129569800Y-117365523D01*
X129617419Y-117317904D01*
X129712657Y-117270285D01*
X129760276Y-117270285D01*
X129855514Y-117317904D01*
X129903133Y-117365523D01*
X129950752Y-117460761D01*
X129950752Y-117651238D01*
X129998371Y-117746476D01*
X130045990Y-117794095D01*
X130141228Y-117841714D01*
X130331704Y-117841714D01*
X130426942Y-117794095D01*
X130474561Y-117746476D01*
X130522180Y-117651238D01*
X130522180Y-117460761D01*
X130474561Y-117365523D01*
X130426942Y-117317904D01*
X130331704Y-117270285D01*
X130141228Y-117270285D01*
X130045990Y-117317904D01*
X129998371Y-117365523D01*
X129950752Y-117460761D01*
X114603333Y-123288942D02*
X114555714Y-123336561D01*
X114412857Y-123384180D01*
X114317619Y-123384180D01*
X114174761Y-123336561D01*
X114079523Y-123241323D01*
X114031904Y-123146085D01*
X113984285Y-122955609D01*
X113984285Y-122812752D01*
X114031904Y-122622276D01*
X114079523Y-122527038D01*
X114174761Y-122431800D01*
X114317619Y-122384180D01*
X114412857Y-122384180D01*
X114555714Y-122431800D01*
X114603333Y-122479419D01*
X115079523Y-123384180D02*
X115270000Y-123384180D01*
X115365238Y-123336561D01*
X115412857Y-123288942D01*
X115508095Y-123146085D01*
X115555714Y-122955609D01*
X115555714Y-122574657D01*
X115508095Y-122479419D01*
X115460476Y-122431800D01*
X115365238Y-122384180D01*
X115174761Y-122384180D01*
X115079523Y-122431800D01*
X115031904Y-122479419D01*
X114984285Y-122574657D01*
X114984285Y-122812752D01*
X115031904Y-122907990D01*
X115079523Y-122955609D01*
X115174761Y-123003228D01*
X115365238Y-123003228D01*
X115460476Y-122955609D01*
X115508095Y-122907990D01*
X115555714Y-122812752D01*
X131154142Y-136726542D02*
X131106523Y-136774161D01*
X130963666Y-136821780D01*
X130868428Y-136821780D01*
X130725571Y-136774161D01*
X130630333Y-136678923D01*
X130582714Y-136583685D01*
X130535095Y-136393209D01*
X130535095Y-136250352D01*
X130582714Y-136059876D01*
X130630333Y-135964638D01*
X130725571Y-135869400D01*
X130868428Y-135821780D01*
X130963666Y-135821780D01*
X131106523Y-135869400D01*
X131154142Y-135917019D01*
X132106523Y-136821780D02*
X131535095Y-136821780D01*
X131820809Y-136821780D02*
X131820809Y-135821780D01*
X131725571Y-135964638D01*
X131630333Y-136059876D01*
X131535095Y-136107495D01*
X132725571Y-135821780D02*
X132820809Y-135821780D01*
X132916047Y-135869400D01*
X132963666Y-135917019D01*
X133011285Y-136012257D01*
X133058904Y-136202733D01*
X133058904Y-136440828D01*
X133011285Y-136631304D01*
X132963666Y-136726542D01*
X132916047Y-136774161D01*
X132820809Y-136821780D01*
X132725571Y-136821780D01*
X132630333Y-136774161D01*
X132582714Y-136726542D01*
X132535095Y-136631304D01*
X132487476Y-136440828D01*
X132487476Y-136202733D01*
X132535095Y-136012257D01*
X132582714Y-135917019D01*
X132630333Y-135869400D01*
X132725571Y-135821780D01*
X112951342Y-134312542D02*
X112903723Y-134360161D01*
X112760866Y-134407780D01*
X112665628Y-134407780D01*
X112522771Y-134360161D01*
X112427533Y-134264923D01*
X112379914Y-134169685D01*
X112332295Y-133979209D01*
X112332295Y-133836352D01*
X112379914Y-133645876D01*
X112427533Y-133550638D01*
X112522771Y-133455400D01*
X112665628Y-133407780D01*
X112760866Y-133407780D01*
X112903723Y-133455400D01*
X112951342Y-133503019D01*
X113903723Y-134407780D02*
X113332295Y-134407780D01*
X113618009Y-134407780D02*
X113618009Y-133407780D01*
X113522771Y-133550638D01*
X113427533Y-133645876D01*
X113332295Y-133693495D01*
X114856104Y-134407780D02*
X114284676Y-134407780D01*
X114570390Y-134407780D02*
X114570390Y-133407780D01*
X114475152Y-133550638D01*
X114379914Y-133645876D01*
X114284676Y-133693495D01*
X116480895Y-132875380D02*
X116480895Y-133684904D01*
X116528514Y-133780142D01*
X116576133Y-133827761D01*
X116671371Y-133875380D01*
X116861847Y-133875380D01*
X116957085Y-133827761D01*
X117004704Y-133780142D01*
X117052323Y-133684904D01*
X117052323Y-132875380D01*
X117480895Y-132970619D02*
X117528514Y-132923000D01*
X117623752Y-132875380D01*
X117861847Y-132875380D01*
X117957085Y-132923000D01*
X118004704Y-132970619D01*
X118052323Y-133065857D01*
X118052323Y-133161095D01*
X118004704Y-133303952D01*
X117433276Y-133875380D01*
X118052323Y-133875380D01*
D18*
X131954238Y-130928961D02*
X131954238Y-131533723D01*
X131530904Y-130263723D02*
X131954238Y-130928961D01*
X132377571Y-130263723D01*
X133466142Y-131533723D02*
X132740428Y-131533723D01*
X133103285Y-131533723D02*
X133103285Y-130263723D01*
X132982333Y-130445152D01*
X132861380Y-130566104D01*
X132740428Y-130626580D01*
D16*
X146144866Y-105907380D02*
X146144866Y-106621666D01*
X146097247Y-106764523D01*
X146002009Y-106859761D01*
X145859152Y-106907380D01*
X145763914Y-106907380D01*
X146525819Y-105907380D02*
X147144866Y-105907380D01*
X146811533Y-106288333D01*
X146954390Y-106288333D01*
X147049628Y-106335952D01*
X147097247Y-106383571D01*
X147144866Y-106478809D01*
X147144866Y-106716904D01*
X147097247Y-106812142D01*
X147049628Y-106859761D01*
X146954390Y-106907380D01*
X146668676Y-106907380D01*
X146573438Y-106859761D01*
X146525819Y-106812142D01*
X114161542Y-117955942D02*
X114113923Y-118003561D01*
X113971066Y-118051180D01*
X113875828Y-118051180D01*
X113732971Y-118003561D01*
X113637733Y-117908323D01*
X113590114Y-117813085D01*
X113542495Y-117622609D01*
X113542495Y-117479752D01*
X113590114Y-117289276D01*
X113637733Y-117194038D01*
X113732971Y-117098800D01*
X113875828Y-117051180D01*
X113971066Y-117051180D01*
X114113923Y-117098800D01*
X114161542Y-117146419D01*
X115113923Y-118051180D02*
X114542495Y-118051180D01*
X114828209Y-118051180D02*
X114828209Y-117051180D01*
X114732971Y-117194038D01*
X114637733Y-117289276D01*
X114542495Y-117336895D01*
X115447257Y-117051180D02*
X116066304Y-117051180D01*
X115732971Y-117432133D01*
X115875828Y-117432133D01*
X115971066Y-117479752D01*
X116018685Y-117527371D01*
X116066304Y-117622609D01*
X116066304Y-117860704D01*
X116018685Y-117955942D01*
X115971066Y-118003561D01*
X115875828Y-118051180D01*
X115590114Y-118051180D01*
X115494876Y-118003561D01*
X115447257Y-117955942D01*
X112951342Y-129106542D02*
X112903723Y-129154161D01*
X112760866Y-129201780D01*
X112665628Y-129201780D01*
X112522771Y-129154161D01*
X112427533Y-129058923D01*
X112379914Y-128963685D01*
X112332295Y-128773209D01*
X112332295Y-128630352D01*
X112379914Y-128439876D01*
X112427533Y-128344638D01*
X112522771Y-128249400D01*
X112665628Y-128201780D01*
X112760866Y-128201780D01*
X112903723Y-128249400D01*
X112951342Y-128297019D01*
X113903723Y-129201780D02*
X113332295Y-129201780D01*
X113618009Y-129201780D02*
X113618009Y-128201780D01*
X113522771Y-128344638D01*
X113427533Y-128439876D01*
X113332295Y-128487495D01*
X114760866Y-128535114D02*
X114760866Y-129201780D01*
X114522771Y-128154161D02*
X114284676Y-128868447D01*
X114903723Y-128868447D01*
X135659342Y-120934057D02*
X135706961Y-120981676D01*
X135754580Y-121124533D01*
X135754580Y-121219771D01*
X135706961Y-121362628D01*
X135611723Y-121457866D01*
X135516485Y-121505485D01*
X135326009Y-121553104D01*
X135183152Y-121553104D01*
X134992676Y-121505485D01*
X134897438Y-121457866D01*
X134802200Y-121362628D01*
X134754580Y-121219771D01*
X134754580Y-121124533D01*
X134802200Y-120981676D01*
X134849819Y-120934057D01*
X135754580Y-119981676D02*
X135754580Y-120553104D01*
X135754580Y-120267390D02*
X134754580Y-120267390D01*
X134897438Y-120362628D01*
X134992676Y-120457866D01*
X135040295Y-120553104D01*
X134754580Y-119076914D02*
X134754580Y-119553104D01*
X135230771Y-119600723D01*
X135183152Y-119553104D01*
X135135533Y-119457866D01*
X135135533Y-119219771D01*
X135183152Y-119124533D01*
X135230771Y-119076914D01*
X135326009Y-119029295D01*
X135564104Y-119029295D01*
X135659342Y-119076914D01*
X135706961Y-119124533D01*
X135754580Y-119219771D01*
X135754580Y-119457866D01*
X135706961Y-119553104D01*
X135659342Y-119600723D01*
X133728942Y-120959457D02*
X133776561Y-121007076D01*
X133824180Y-121149933D01*
X133824180Y-121245171D01*
X133776561Y-121388028D01*
X133681323Y-121483266D01*
X133586085Y-121530885D01*
X133395609Y-121578504D01*
X133252752Y-121578504D01*
X133062276Y-121530885D01*
X132967038Y-121483266D01*
X132871800Y-121388028D01*
X132824180Y-121245171D01*
X132824180Y-121149933D01*
X132871800Y-121007076D01*
X132919419Y-120959457D01*
X133824180Y-120007076D02*
X133824180Y-120578504D01*
X133824180Y-120292790D02*
X132824180Y-120292790D01*
X132967038Y-120388028D01*
X133062276Y-120483266D01*
X133109895Y-120578504D01*
X132824180Y-119149933D02*
X132824180Y-119340409D01*
X132871800Y-119435647D01*
X132919419Y-119483266D01*
X133062276Y-119578504D01*
X133252752Y-119626123D01*
X133633704Y-119626123D01*
X133728942Y-119578504D01*
X133776561Y-119530885D01*
X133824180Y-119435647D01*
X133824180Y-119245171D01*
X133776561Y-119149933D01*
X133728942Y-119102314D01*
X133633704Y-119054695D01*
X133395609Y-119054695D01*
X133300371Y-119102314D01*
X133252752Y-119149933D01*
X133205133Y-119245171D01*
X133205133Y-119435647D01*
X133252752Y-119530885D01*
X133300371Y-119578504D01*
X133395609Y-119626123D01*
X118201714Y-120170514D02*
X118163619Y-120208609D01*
X118049333Y-120246704D01*
X117973142Y-120246704D01*
X117858857Y-120208609D01*
X117782666Y-120132419D01*
X117744571Y-120056228D01*
X117706476Y-119903847D01*
X117706476Y-119789561D01*
X117744571Y-119637180D01*
X117782666Y-119560990D01*
X117858857Y-119484800D01*
X117973142Y-119446704D01*
X118049333Y-119446704D01*
X118163619Y-119484800D01*
X118201714Y-119522895D01*
X118963619Y-120246704D02*
X118506476Y-120246704D01*
X118735047Y-120246704D02*
X118735047Y-119446704D01*
X118658857Y-119560990D01*
X118582666Y-119637180D01*
X118506476Y-119675276D01*
X119230285Y-119446704D02*
X119763619Y-119446704D01*
X119420761Y-120246704D01*
X133382980Y-134180133D02*
X134097266Y-134180133D01*
X134240123Y-134227752D01*
X134335361Y-134322990D01*
X134382980Y-134465847D01*
X134382980Y-134561085D01*
X134382980Y-133703942D02*
X133382980Y-133703942D01*
X133382980Y-133322990D01*
X133430600Y-133227752D01*
X133478219Y-133180133D01*
X133573457Y-133132514D01*
X133716314Y-133132514D01*
X133811552Y-133180133D01*
X133859171Y-133227752D01*
X133906790Y-133322990D01*
X133906790Y-133703942D01*
X133716314Y-132275371D02*
X134382980Y-132275371D01*
X133335361Y-132513466D02*
X134049647Y-132751561D01*
X134049647Y-132132514D01*
X131274780Y-120819733D02*
X131989066Y-120819733D01*
X132131923Y-120867352D01*
X132227161Y-120962590D01*
X132274780Y-121105447D01*
X132274780Y-121200685D01*
X132274780Y-120343542D02*
X131274780Y-120343542D01*
X131274780Y-119962590D01*
X131322400Y-119867352D01*
X131370019Y-119819733D01*
X131465257Y-119772114D01*
X131608114Y-119772114D01*
X131703352Y-119819733D01*
X131750971Y-119867352D01*
X131798590Y-119962590D01*
X131798590Y-120343542D01*
X131274780Y-118867352D02*
X131274780Y-119343542D01*
X131750971Y-119391161D01*
X131703352Y-119343542D01*
X131655733Y-119248304D01*
X131655733Y-119010209D01*
X131703352Y-118914971D01*
X131750971Y-118867352D01*
X131846209Y-118819733D01*
X132084304Y-118819733D01*
X132179542Y-118867352D01*
X132227161Y-118914971D01*
X132274780Y-119010209D01*
X132274780Y-119248304D01*
X132227161Y-119343542D01*
X132179542Y-119391161D01*
M02*
