G04 #@! TF.GenerationSoftware,KiCad,Pcbnew,(5.1.4)-1*
G04 #@! TF.CreationDate,2020-11-30T17:40:18+01:00*
G04 #@! TF.ProjectId,BME680,424d4536-3830-42e6-9b69-6361645f7063,A*
G04 #@! TF.SameCoordinates,Original*
G04 #@! TF.FileFunction,Soldermask,Bot*
G04 #@! TF.FilePolarity,Negative*
%FSLAX46Y46*%
G04 Gerber Fmt 4.6, Leading zero omitted, Abs format (unit mm)*
G04 Created by KiCad (PCBNEW (5.1.4)-1) date 2020-11-30 17:40:18*
%MOMM*%
%LPD*%
G04 APERTURE LIST*
%ADD10C,0.100000*%
G04 APERTURE END LIST*
D10*
G36*
X120773000Y-141219000D02*
G01*
X119147000Y-141219000D01*
X119147000Y-137117000D01*
X120773000Y-137117000D01*
X120773000Y-141219000D01*
X120773000Y-141219000D01*
G37*
G36*
X125853000Y-141219000D02*
G01*
X124227000Y-141219000D01*
X124227000Y-137117000D01*
X125853000Y-137117000D01*
X125853000Y-141219000D01*
X125853000Y-141219000D01*
G37*
G36*
X123313000Y-141219000D02*
G01*
X121687000Y-141219000D01*
X121687000Y-137117000D01*
X123313000Y-137117000D01*
X123313000Y-141219000D01*
X123313000Y-141219000D01*
G37*
G36*
X132403200Y-133941200D02*
G01*
X131001200Y-133941200D01*
X131001200Y-131939200D01*
X132403200Y-131939200D01*
X132403200Y-133941200D01*
X132403200Y-133941200D01*
G37*
G36*
X126903200Y-133941200D02*
G01*
X125501200Y-133941200D01*
X125501200Y-131939200D01*
X126903200Y-131939200D01*
X126903200Y-133941200D01*
X126903200Y-133941200D01*
G37*
G36*
X134343474Y-132193865D02*
G01*
X134381167Y-132205299D01*
X134415903Y-132223866D01*
X134446348Y-132248852D01*
X134471334Y-132279297D01*
X134489901Y-132314033D01*
X134501335Y-132351726D01*
X134505800Y-132397061D01*
X134505800Y-133483739D01*
X134501335Y-133529074D01*
X134489901Y-133566767D01*
X134471334Y-133601503D01*
X134446348Y-133631948D01*
X134415903Y-133656934D01*
X134381167Y-133675501D01*
X134343474Y-133686935D01*
X134298139Y-133691400D01*
X133461461Y-133691400D01*
X133416126Y-133686935D01*
X133378433Y-133675501D01*
X133343697Y-133656934D01*
X133313252Y-133631948D01*
X133288266Y-133601503D01*
X133269699Y-133566767D01*
X133258265Y-133529074D01*
X133253800Y-133483739D01*
X133253800Y-132397061D01*
X133258265Y-132351726D01*
X133269699Y-132314033D01*
X133288266Y-132279297D01*
X133313252Y-132248852D01*
X133343697Y-132223866D01*
X133378433Y-132205299D01*
X133416126Y-132193865D01*
X133461461Y-132189400D01*
X134298139Y-132189400D01*
X134343474Y-132193865D01*
X134343474Y-132193865D01*
G37*
G36*
X136393474Y-132193865D02*
G01*
X136431167Y-132205299D01*
X136465903Y-132223866D01*
X136496348Y-132248852D01*
X136521334Y-132279297D01*
X136539901Y-132314033D01*
X136551335Y-132351726D01*
X136555800Y-132397061D01*
X136555800Y-133483739D01*
X136551335Y-133529074D01*
X136539901Y-133566767D01*
X136521334Y-133601503D01*
X136496348Y-133631948D01*
X136465903Y-133656934D01*
X136431167Y-133675501D01*
X136393474Y-133686935D01*
X136348139Y-133691400D01*
X135511461Y-133691400D01*
X135466126Y-133686935D01*
X135428433Y-133675501D01*
X135393697Y-133656934D01*
X135363252Y-133631948D01*
X135338266Y-133601503D01*
X135319699Y-133566767D01*
X135308265Y-133529074D01*
X135303800Y-133483739D01*
X135303800Y-132397061D01*
X135308265Y-132351726D01*
X135319699Y-132314033D01*
X135338266Y-132279297D01*
X135363252Y-132248852D01*
X135393697Y-132223866D01*
X135428433Y-132205299D01*
X135466126Y-132193865D01*
X135511461Y-132189400D01*
X136348139Y-132189400D01*
X136393474Y-132193865D01*
X136393474Y-132193865D01*
G37*
G36*
X124257674Y-130261465D02*
G01*
X124295367Y-130272899D01*
X124330103Y-130291466D01*
X124360548Y-130316452D01*
X124385534Y-130346897D01*
X124404101Y-130381633D01*
X124415535Y-130419326D01*
X124420000Y-130464661D01*
X124420000Y-131301339D01*
X124415535Y-131346674D01*
X124404101Y-131384367D01*
X124385534Y-131419103D01*
X124360548Y-131449548D01*
X124330103Y-131474534D01*
X124295367Y-131493101D01*
X124257674Y-131504535D01*
X124212339Y-131509000D01*
X123125661Y-131509000D01*
X123080326Y-131504535D01*
X123042633Y-131493101D01*
X123007897Y-131474534D01*
X122977452Y-131449548D01*
X122952466Y-131419103D01*
X122933899Y-131384367D01*
X122922465Y-131346674D01*
X122918000Y-131301339D01*
X122918000Y-130464661D01*
X122922465Y-130419326D01*
X122933899Y-130381633D01*
X122952466Y-130346897D01*
X122977452Y-130316452D01*
X123007897Y-130291466D01*
X123042633Y-130272899D01*
X123080326Y-130261465D01*
X123125661Y-130257000D01*
X124212339Y-130257000D01*
X124257674Y-130261465D01*
X124257674Y-130261465D01*
G37*
G36*
X126903200Y-130741200D02*
G01*
X125501200Y-130741200D01*
X125501200Y-128739200D01*
X126903200Y-128739200D01*
X126903200Y-130741200D01*
X126903200Y-130741200D01*
G37*
G36*
X132403200Y-130741200D02*
G01*
X131001200Y-130741200D01*
X131001200Y-128739200D01*
X132403200Y-128739200D01*
X132403200Y-130741200D01*
X132403200Y-130741200D01*
G37*
G36*
X134343474Y-128993465D02*
G01*
X134381167Y-129004899D01*
X134415903Y-129023466D01*
X134446348Y-129048452D01*
X134471334Y-129078897D01*
X134489901Y-129113633D01*
X134501335Y-129151326D01*
X134505800Y-129196661D01*
X134505800Y-130283339D01*
X134501335Y-130328674D01*
X134489901Y-130366367D01*
X134471334Y-130401103D01*
X134446348Y-130431548D01*
X134415903Y-130456534D01*
X134381167Y-130475101D01*
X134343474Y-130486535D01*
X134298139Y-130491000D01*
X133461461Y-130491000D01*
X133416126Y-130486535D01*
X133378433Y-130475101D01*
X133343697Y-130456534D01*
X133313252Y-130431548D01*
X133288266Y-130401103D01*
X133269699Y-130366367D01*
X133258265Y-130328674D01*
X133253800Y-130283339D01*
X133253800Y-129196661D01*
X133258265Y-129151326D01*
X133269699Y-129113633D01*
X133288266Y-129078897D01*
X133313252Y-129048452D01*
X133343697Y-129023466D01*
X133378433Y-129004899D01*
X133416126Y-128993465D01*
X133461461Y-128989000D01*
X134298139Y-128989000D01*
X134343474Y-128993465D01*
X134343474Y-128993465D01*
G37*
G36*
X136393474Y-128993465D02*
G01*
X136431167Y-129004899D01*
X136465903Y-129023466D01*
X136496348Y-129048452D01*
X136521334Y-129078897D01*
X136539901Y-129113633D01*
X136551335Y-129151326D01*
X136555800Y-129196661D01*
X136555800Y-130283339D01*
X136551335Y-130328674D01*
X136539901Y-130366367D01*
X136521334Y-130401103D01*
X136496348Y-130431548D01*
X136465903Y-130456534D01*
X136431167Y-130475101D01*
X136393474Y-130486535D01*
X136348139Y-130491000D01*
X135511461Y-130491000D01*
X135466126Y-130486535D01*
X135428433Y-130475101D01*
X135393697Y-130456534D01*
X135363252Y-130431548D01*
X135338266Y-130401103D01*
X135319699Y-130366367D01*
X135308265Y-130328674D01*
X135303800Y-130283339D01*
X135303800Y-129196661D01*
X135308265Y-129151326D01*
X135319699Y-129113633D01*
X135338266Y-129078897D01*
X135363252Y-129048452D01*
X135393697Y-129023466D01*
X135428433Y-129004899D01*
X135466126Y-128993465D01*
X135511461Y-128989000D01*
X136348139Y-128989000D01*
X136393474Y-128993465D01*
X136393474Y-128993465D01*
G37*
G36*
X124257674Y-128211465D02*
G01*
X124295367Y-128222899D01*
X124330103Y-128241466D01*
X124360548Y-128266452D01*
X124385534Y-128296897D01*
X124404101Y-128331633D01*
X124415535Y-128369326D01*
X124420000Y-128414661D01*
X124420000Y-129251339D01*
X124415535Y-129296674D01*
X124404101Y-129334367D01*
X124385534Y-129369103D01*
X124360548Y-129399548D01*
X124330103Y-129424534D01*
X124295367Y-129443101D01*
X124257674Y-129454535D01*
X124212339Y-129459000D01*
X123125661Y-129459000D01*
X123080326Y-129454535D01*
X123042633Y-129443101D01*
X123007897Y-129424534D01*
X122977452Y-129399548D01*
X122952466Y-129369103D01*
X122933899Y-129334367D01*
X122922465Y-129296674D01*
X122918000Y-129251339D01*
X122918000Y-128414661D01*
X122922465Y-128369326D01*
X122933899Y-128331633D01*
X122952466Y-128296897D01*
X122977452Y-128266452D01*
X123007897Y-128241466D01*
X123042633Y-128222899D01*
X123080326Y-128211465D01*
X123125661Y-128207000D01*
X124212339Y-128207000D01*
X124257674Y-128211465D01*
X124257674Y-128211465D01*
G37*
G36*
X122153843Y-124527519D02*
G01*
X122220027Y-124534037D01*
X122389866Y-124585557D01*
X122389868Y-124585558D01*
X122459333Y-124622688D01*
X122546391Y-124669222D01*
X122555834Y-124676972D01*
X122683586Y-124781814D01*
X122766848Y-124883271D01*
X122796178Y-124919009D01*
X122879843Y-125075534D01*
X122931363Y-125245373D01*
X122948759Y-125422000D01*
X122931363Y-125598627D01*
X122879843Y-125768466D01*
X122796178Y-125924991D01*
X122776282Y-125949234D01*
X122683586Y-126062186D01*
X122605432Y-126126324D01*
X122546391Y-126174778D01*
X122389866Y-126258443D01*
X122220027Y-126309963D01*
X122153842Y-126316482D01*
X122087660Y-126323000D01*
X121999140Y-126323000D01*
X121932958Y-126316482D01*
X121866773Y-126309963D01*
X121696934Y-126258443D01*
X121540409Y-126174778D01*
X121481368Y-126126324D01*
X121403214Y-126062186D01*
X121310518Y-125949234D01*
X121290622Y-125924991D01*
X121206957Y-125768466D01*
X121155437Y-125598627D01*
X121138041Y-125422000D01*
X121155437Y-125245373D01*
X121206957Y-125075534D01*
X121290622Y-124919009D01*
X121319952Y-124883271D01*
X121403214Y-124781814D01*
X121530966Y-124676972D01*
X121540409Y-124669222D01*
X121627467Y-124622688D01*
X121696932Y-124585558D01*
X121696934Y-124585557D01*
X121866773Y-124534037D01*
X121932957Y-124527519D01*
X121999140Y-124521000D01*
X122087660Y-124521000D01*
X122153843Y-124527519D01*
X122153843Y-124527519D01*
G37*
G36*
X125484400Y-126323000D02*
G01*
X123682400Y-126323000D01*
X123682400Y-124521000D01*
X125484400Y-124521000D01*
X125484400Y-126323000D01*
X125484400Y-126323000D01*
G37*
G36*
X131250599Y-124545537D02*
G01*
X131260208Y-124548452D01*
X131269072Y-124553190D01*
X131276837Y-124559563D01*
X131287048Y-124572006D01*
X131293978Y-124582375D01*
X131311305Y-124599702D01*
X131331680Y-124613315D01*
X131354320Y-124622691D01*
X131378353Y-124627471D01*
X131402857Y-124627470D01*
X131426890Y-124622688D01*
X131449529Y-124613310D01*
X131469902Y-124599695D01*
X131487229Y-124582368D01*
X131494158Y-124571998D01*
X131504363Y-124559563D01*
X131512128Y-124553190D01*
X131520992Y-124548452D01*
X131530601Y-124545537D01*
X131546740Y-124543948D01*
X132034461Y-124543948D01*
X132052799Y-124545754D01*
X132065050Y-124546356D01*
X132083469Y-124546356D01*
X132105749Y-124548550D01*
X132189833Y-124565276D01*
X132211260Y-124571776D01*
X132290458Y-124604580D01*
X132295903Y-124607491D01*
X132295909Y-124607493D01*
X132304769Y-124612229D01*
X132304773Y-124612232D01*
X132310214Y-124615140D01*
X132381499Y-124662771D01*
X132398804Y-124676972D01*
X132459428Y-124737596D01*
X132473629Y-124754901D01*
X132521260Y-124826186D01*
X132524168Y-124831627D01*
X132524171Y-124831631D01*
X132528907Y-124840491D01*
X132528909Y-124840497D01*
X132531820Y-124845942D01*
X132564624Y-124925140D01*
X132571124Y-124946567D01*
X132587850Y-125030651D01*
X132590044Y-125052931D01*
X132590044Y-125071350D01*
X132590646Y-125083601D01*
X132592452Y-125101939D01*
X132592452Y-125589662D01*
X132590646Y-125607999D01*
X132590044Y-125620250D01*
X132590044Y-125638669D01*
X132587850Y-125660949D01*
X132571124Y-125745033D01*
X132564624Y-125766460D01*
X132531820Y-125845658D01*
X132528909Y-125851103D01*
X132528907Y-125851109D01*
X132524171Y-125859969D01*
X132524168Y-125859973D01*
X132521260Y-125865414D01*
X132473629Y-125936699D01*
X132459428Y-125954004D01*
X132398804Y-126014628D01*
X132381499Y-126028829D01*
X132310214Y-126076460D01*
X132304773Y-126079368D01*
X132304769Y-126079371D01*
X132295909Y-126084107D01*
X132295903Y-126084109D01*
X132290458Y-126087020D01*
X132211260Y-126119824D01*
X132189833Y-126126324D01*
X132105749Y-126143050D01*
X132083469Y-126145244D01*
X132065050Y-126145244D01*
X132052799Y-126145846D01*
X132034462Y-126147652D01*
X131546740Y-126147652D01*
X131530601Y-126146063D01*
X131520992Y-126143148D01*
X131512128Y-126138410D01*
X131504363Y-126132037D01*
X131494152Y-126119594D01*
X131487222Y-126109225D01*
X131469895Y-126091898D01*
X131449520Y-126078285D01*
X131426880Y-126068909D01*
X131402847Y-126064129D01*
X131378343Y-126064130D01*
X131354310Y-126068912D01*
X131331671Y-126078290D01*
X131311298Y-126091905D01*
X131293971Y-126109232D01*
X131287042Y-126119602D01*
X131276837Y-126132037D01*
X131269072Y-126138410D01*
X131260208Y-126143148D01*
X131250599Y-126146063D01*
X131234460Y-126147652D01*
X130746738Y-126147652D01*
X130728401Y-126145846D01*
X130716150Y-126145244D01*
X130697731Y-126145244D01*
X130675451Y-126143050D01*
X130591367Y-126126324D01*
X130569940Y-126119824D01*
X130490742Y-126087020D01*
X130485297Y-126084109D01*
X130485291Y-126084107D01*
X130476431Y-126079371D01*
X130476427Y-126079368D01*
X130470986Y-126076460D01*
X130399701Y-126028829D01*
X130382396Y-126014628D01*
X130321772Y-125954004D01*
X130307571Y-125936699D01*
X130259940Y-125865414D01*
X130257032Y-125859973D01*
X130257029Y-125859969D01*
X130252293Y-125851109D01*
X130252291Y-125851103D01*
X130249380Y-125845658D01*
X130216576Y-125766460D01*
X130210076Y-125745033D01*
X130193350Y-125660949D01*
X130191156Y-125638669D01*
X130191156Y-125620250D01*
X130190554Y-125607999D01*
X130188748Y-125589662D01*
X130188748Y-125101939D01*
X130190554Y-125083601D01*
X130191156Y-125071350D01*
X130191156Y-125052931D01*
X130193350Y-125030651D01*
X130210076Y-124946567D01*
X130216576Y-124925140D01*
X130249380Y-124845942D01*
X130252291Y-124840497D01*
X130252293Y-124840491D01*
X130257029Y-124831631D01*
X130257032Y-124831627D01*
X130259940Y-124826186D01*
X130307571Y-124754901D01*
X130321772Y-124737596D01*
X130382396Y-124676972D01*
X130399701Y-124662771D01*
X130470986Y-124615140D01*
X130476427Y-124612232D01*
X130476431Y-124612229D01*
X130485291Y-124607493D01*
X130485297Y-124607491D01*
X130490742Y-124604580D01*
X130569940Y-124571776D01*
X130591367Y-124565276D01*
X130675451Y-124548550D01*
X130697731Y-124546356D01*
X130716150Y-124546356D01*
X130728401Y-124545754D01*
X130746739Y-124543948D01*
X131234460Y-124543948D01*
X131250599Y-124545537D01*
X131250599Y-124545537D01*
G37*
G36*
X124693843Y-121987519D02*
G01*
X124760027Y-121994037D01*
X124929866Y-122045557D01*
X125086391Y-122129222D01*
X125122129Y-122158552D01*
X125223586Y-122241814D01*
X125306848Y-122343271D01*
X125336178Y-122379009D01*
X125419843Y-122535534D01*
X125471363Y-122705373D01*
X125488759Y-122882000D01*
X125471363Y-123058627D01*
X125419843Y-123228466D01*
X125336178Y-123384991D01*
X125306848Y-123420729D01*
X125223586Y-123522186D01*
X125122129Y-123605448D01*
X125086391Y-123634778D01*
X124929866Y-123718443D01*
X124760027Y-123769963D01*
X124693843Y-123776481D01*
X124627660Y-123783000D01*
X124539140Y-123783000D01*
X124472957Y-123776481D01*
X124406773Y-123769963D01*
X124236934Y-123718443D01*
X124080409Y-123634778D01*
X124044671Y-123605448D01*
X123943214Y-123522186D01*
X123859952Y-123420729D01*
X123830622Y-123384991D01*
X123746957Y-123228466D01*
X123695437Y-123058627D01*
X123678041Y-122882000D01*
X123695437Y-122705373D01*
X123746957Y-122535534D01*
X123830622Y-122379009D01*
X123859952Y-122343271D01*
X123943214Y-122241814D01*
X124044671Y-122158552D01*
X124080409Y-122129222D01*
X124236934Y-122045557D01*
X124406773Y-121994037D01*
X124472957Y-121987519D01*
X124539140Y-121981000D01*
X124627660Y-121981000D01*
X124693843Y-121987519D01*
X124693843Y-121987519D01*
G37*
G36*
X122153843Y-121987519D02*
G01*
X122220027Y-121994037D01*
X122389866Y-122045557D01*
X122546391Y-122129222D01*
X122582129Y-122158552D01*
X122683586Y-122241814D01*
X122766848Y-122343271D01*
X122796178Y-122379009D01*
X122879843Y-122535534D01*
X122931363Y-122705373D01*
X122948759Y-122882000D01*
X122931363Y-123058627D01*
X122879843Y-123228466D01*
X122796178Y-123384991D01*
X122766848Y-123420729D01*
X122683586Y-123522186D01*
X122582129Y-123605448D01*
X122546391Y-123634778D01*
X122389866Y-123718443D01*
X122220027Y-123769963D01*
X122153843Y-123776481D01*
X122087660Y-123783000D01*
X121999140Y-123783000D01*
X121932957Y-123776481D01*
X121866773Y-123769963D01*
X121696934Y-123718443D01*
X121540409Y-123634778D01*
X121504671Y-123605448D01*
X121403214Y-123522186D01*
X121319952Y-123420729D01*
X121290622Y-123384991D01*
X121206957Y-123228466D01*
X121155437Y-123058627D01*
X121138041Y-122882000D01*
X121155437Y-122705373D01*
X121206957Y-122535534D01*
X121290622Y-122379009D01*
X121319952Y-122343271D01*
X121403214Y-122241814D01*
X121504671Y-122158552D01*
X121540409Y-122129222D01*
X121696934Y-122045557D01*
X121866773Y-121994037D01*
X121932957Y-121987519D01*
X121999140Y-121981000D01*
X122087660Y-121981000D01*
X122153843Y-121987519D01*
X122153843Y-121987519D01*
G37*
G36*
X150210442Y-120590518D02*
G01*
X150276627Y-120597037D01*
X150446466Y-120648557D01*
X150602991Y-120732222D01*
X150638729Y-120761552D01*
X150740186Y-120844814D01*
X150823448Y-120946271D01*
X150852778Y-120982009D01*
X150936443Y-121138534D01*
X150987963Y-121308373D01*
X151005359Y-121485000D01*
X150987963Y-121661627D01*
X150936443Y-121831466D01*
X150852778Y-121987991D01*
X150847816Y-121994037D01*
X150740186Y-122125186D01*
X150638729Y-122208448D01*
X150602991Y-122237778D01*
X150446466Y-122321443D01*
X150276627Y-122372963D01*
X150210443Y-122379481D01*
X150144260Y-122386000D01*
X150055740Y-122386000D01*
X149989557Y-122379481D01*
X149923373Y-122372963D01*
X149753534Y-122321443D01*
X149597009Y-122237778D01*
X149561271Y-122208448D01*
X149459814Y-122125186D01*
X149352184Y-121994037D01*
X149347222Y-121987991D01*
X149263557Y-121831466D01*
X149212037Y-121661627D01*
X149194641Y-121485000D01*
X149212037Y-121308373D01*
X149263557Y-121138534D01*
X149347222Y-120982009D01*
X149376552Y-120946271D01*
X149459814Y-120844814D01*
X149561271Y-120761552D01*
X149597009Y-120732222D01*
X149753534Y-120648557D01*
X149923373Y-120597037D01*
X149989558Y-120590518D01*
X150055740Y-120584000D01*
X150144260Y-120584000D01*
X150210442Y-120590518D01*
X150210442Y-120590518D01*
G37*
G36*
X150210443Y-118050519D02*
G01*
X150276627Y-118057037D01*
X150446466Y-118108557D01*
X150602991Y-118192222D01*
X150638729Y-118221552D01*
X150740186Y-118304814D01*
X150823448Y-118406271D01*
X150852778Y-118442009D01*
X150936443Y-118598534D01*
X150987963Y-118768373D01*
X151005359Y-118945000D01*
X150987963Y-119121627D01*
X150936443Y-119291466D01*
X150852778Y-119447991D01*
X150823448Y-119483729D01*
X150740186Y-119585186D01*
X150638729Y-119668448D01*
X150602991Y-119697778D01*
X150446466Y-119781443D01*
X150276627Y-119832963D01*
X150210443Y-119839481D01*
X150144260Y-119846000D01*
X150055740Y-119846000D01*
X149989557Y-119839481D01*
X149923373Y-119832963D01*
X149753534Y-119781443D01*
X149597009Y-119697778D01*
X149561271Y-119668448D01*
X149459814Y-119585186D01*
X149376552Y-119483729D01*
X149347222Y-119447991D01*
X149263557Y-119291466D01*
X149212037Y-119121627D01*
X149194641Y-118945000D01*
X149212037Y-118768373D01*
X149263557Y-118598534D01*
X149347222Y-118442009D01*
X149376552Y-118406271D01*
X149459814Y-118304814D01*
X149561271Y-118221552D01*
X149597009Y-118192222D01*
X149753534Y-118108557D01*
X149923373Y-118057037D01*
X149989557Y-118050519D01*
X150055740Y-118044000D01*
X150144260Y-118044000D01*
X150210443Y-118050519D01*
X150210443Y-118050519D01*
G37*
G36*
X150210442Y-115510518D02*
G01*
X150276627Y-115517037D01*
X150446466Y-115568557D01*
X150602991Y-115652222D01*
X150638729Y-115681552D01*
X150740186Y-115764814D01*
X150823448Y-115866271D01*
X150852778Y-115902009D01*
X150936443Y-116058534D01*
X150987963Y-116228373D01*
X151005359Y-116405000D01*
X150987963Y-116581627D01*
X150936443Y-116751466D01*
X150852778Y-116907991D01*
X150823448Y-116943729D01*
X150740186Y-117045186D01*
X150638729Y-117128448D01*
X150602991Y-117157778D01*
X150446466Y-117241443D01*
X150276627Y-117292963D01*
X150210442Y-117299482D01*
X150144260Y-117306000D01*
X150055740Y-117306000D01*
X149989558Y-117299482D01*
X149923373Y-117292963D01*
X149753534Y-117241443D01*
X149597009Y-117157778D01*
X149561271Y-117128448D01*
X149459814Y-117045186D01*
X149376552Y-116943729D01*
X149347222Y-116907991D01*
X149263557Y-116751466D01*
X149212037Y-116581627D01*
X149194641Y-116405000D01*
X149212037Y-116228373D01*
X149263557Y-116058534D01*
X149347222Y-115902009D01*
X149376552Y-115866271D01*
X149459814Y-115764814D01*
X149561271Y-115681552D01*
X149597009Y-115652222D01*
X149753534Y-115568557D01*
X149923373Y-115517037D01*
X149989558Y-115510518D01*
X150055740Y-115504000D01*
X150144260Y-115504000D01*
X150210442Y-115510518D01*
X150210442Y-115510518D01*
G37*
G36*
X150210443Y-112970519D02*
G01*
X150276627Y-112977037D01*
X150446466Y-113028557D01*
X150602991Y-113112222D01*
X150638729Y-113141552D01*
X150740186Y-113224814D01*
X150823448Y-113326271D01*
X150852778Y-113362009D01*
X150936443Y-113518534D01*
X150987963Y-113688373D01*
X151005359Y-113865000D01*
X150987963Y-114041627D01*
X150936443Y-114211466D01*
X150852778Y-114367991D01*
X150823448Y-114403729D01*
X150740186Y-114505186D01*
X150638729Y-114588448D01*
X150602991Y-114617778D01*
X150446466Y-114701443D01*
X150276627Y-114752963D01*
X150210442Y-114759482D01*
X150144260Y-114766000D01*
X150055740Y-114766000D01*
X149989558Y-114759482D01*
X149923373Y-114752963D01*
X149753534Y-114701443D01*
X149597009Y-114617778D01*
X149561271Y-114588448D01*
X149459814Y-114505186D01*
X149376552Y-114403729D01*
X149347222Y-114367991D01*
X149263557Y-114211466D01*
X149212037Y-114041627D01*
X149194641Y-113865000D01*
X149212037Y-113688373D01*
X149263557Y-113518534D01*
X149347222Y-113362009D01*
X149376552Y-113326271D01*
X149459814Y-113224814D01*
X149561271Y-113141552D01*
X149597009Y-113112222D01*
X149753534Y-113028557D01*
X149923373Y-112977037D01*
X149989557Y-112970519D01*
X150055740Y-112964000D01*
X150144260Y-112964000D01*
X150210443Y-112970519D01*
X150210443Y-112970519D01*
G37*
G36*
X150210442Y-110430518D02*
G01*
X150276627Y-110437037D01*
X150446466Y-110488557D01*
X150602991Y-110572222D01*
X150638729Y-110601552D01*
X150740186Y-110684814D01*
X150823448Y-110786271D01*
X150852778Y-110822009D01*
X150936443Y-110978534D01*
X150987963Y-111148373D01*
X151005359Y-111325000D01*
X150987963Y-111501627D01*
X150936443Y-111671466D01*
X150852778Y-111827991D01*
X150823448Y-111863729D01*
X150740186Y-111965186D01*
X150638729Y-112048448D01*
X150602991Y-112077778D01*
X150446466Y-112161443D01*
X150276627Y-112212963D01*
X150210443Y-112219481D01*
X150144260Y-112226000D01*
X150055740Y-112226000D01*
X149989557Y-112219481D01*
X149923373Y-112212963D01*
X149753534Y-112161443D01*
X149597009Y-112077778D01*
X149561271Y-112048448D01*
X149459814Y-111965186D01*
X149376552Y-111863729D01*
X149347222Y-111827991D01*
X149263557Y-111671466D01*
X149212037Y-111501627D01*
X149194641Y-111325000D01*
X149212037Y-111148373D01*
X149263557Y-110978534D01*
X149347222Y-110822009D01*
X149376552Y-110786271D01*
X149459814Y-110684814D01*
X149561271Y-110601552D01*
X149597009Y-110572222D01*
X149753534Y-110488557D01*
X149923373Y-110437037D01*
X149989558Y-110430518D01*
X150055740Y-110424000D01*
X150144260Y-110424000D01*
X150210442Y-110430518D01*
X150210442Y-110430518D01*
G37*
G36*
X151001000Y-109686000D02*
G01*
X149199000Y-109686000D01*
X149199000Y-107884000D01*
X151001000Y-107884000D01*
X151001000Y-109686000D01*
X151001000Y-109686000D01*
G37*
M02*
