G04 #@! TF.GenerationSoftware,KiCad,Pcbnew,(5.1.6)-1*
G04 #@! TF.CreationDate,2021-10-13T16:30:12+02:00*
G04 #@! TF.ProjectId,SoundModulev2,536f756e-644d-46f6-9475-6c6576322e6b,rev?*
G04 #@! TF.SameCoordinates,Original*
G04 #@! TF.FileFunction,Soldermask,Top*
G04 #@! TF.FilePolarity,Negative*
%FSLAX46Y46*%
G04 Gerber Fmt 4.6, Leading zero omitted, Abs format (unit mm)*
G04 Created by KiCad (PCBNEW (5.1.6)-1) date 2021-10-13 16:30:12*
%MOMM*%
%LPD*%
G01*
G04 APERTURE LIST*
%ADD10C,0.100000*%
G04 APERTURE END LIST*
D10*
G36*
X125834340Y-103969520D02*
G01*
X124208340Y-103969520D01*
X124208340Y-99867520D01*
X125834340Y-99867520D01*
X125834340Y-103969520D01*
G37*
G36*
X123294340Y-103969520D02*
G01*
X121668340Y-103969520D01*
X121668340Y-99867520D01*
X123294340Y-99867520D01*
X123294340Y-103969520D01*
G37*
G36*
X120754340Y-103969520D02*
G01*
X119128340Y-103969520D01*
X119128340Y-99867520D01*
X120754340Y-99867520D01*
X120754340Y-103969520D01*
G37*
G36*
X133546607Y-92454676D02*
G01*
X133783373Y-92552748D01*
X133783375Y-92552749D01*
X133960250Y-92670933D01*
X133996459Y-92695127D01*
X134177673Y-92876341D01*
X134320052Y-93089427D01*
X134418124Y-93326193D01*
X134468120Y-93577541D01*
X134468120Y-93833819D01*
X134418124Y-94085167D01*
X134320052Y-94321933D01*
X134320051Y-94321935D01*
X134177673Y-94535019D01*
X133996459Y-94716233D01*
X133783375Y-94858611D01*
X133783374Y-94858612D01*
X133783373Y-94858612D01*
X133546607Y-94956684D01*
X133295259Y-95006680D01*
X133038981Y-95006680D01*
X132787633Y-94956684D01*
X132550867Y-94858612D01*
X132550866Y-94858612D01*
X132550865Y-94858611D01*
X132337781Y-94716233D01*
X132156567Y-94535019D01*
X132014189Y-94321935D01*
X132014188Y-94321933D01*
X131916116Y-94085167D01*
X131866120Y-93833819D01*
X131866120Y-93577541D01*
X131916116Y-93326193D01*
X132014188Y-93089427D01*
X132156567Y-92876341D01*
X132337781Y-92695127D01*
X132373990Y-92670933D01*
X132550865Y-92552749D01*
X132550867Y-92552748D01*
X132787633Y-92454676D01*
X133038981Y-92404680D01*
X133295259Y-92404680D01*
X133546607Y-92454676D01*
G37*
G36*
X120434620Y-94116680D02*
G01*
X117832620Y-94116680D01*
X117832620Y-87714680D01*
X120434620Y-87714680D01*
X120434620Y-94116680D01*
G37*
G36*
X127634620Y-94116680D02*
G01*
X125032620Y-94116680D01*
X125032620Y-87714680D01*
X127634620Y-87714680D01*
X127634620Y-94116680D01*
G37*
G36*
X110686607Y-90803676D02*
G01*
X110923373Y-90901748D01*
X110923375Y-90901749D01*
X111017558Y-90964680D01*
X111136459Y-91044127D01*
X111317673Y-91225341D01*
X111460052Y-91438427D01*
X111558124Y-91675193D01*
X111608120Y-91926541D01*
X111608120Y-92182819D01*
X111558124Y-92434167D01*
X111460052Y-92670933D01*
X111460051Y-92670935D01*
X111317673Y-92884019D01*
X111136459Y-93065233D01*
X110923375Y-93207611D01*
X110923374Y-93207612D01*
X110923373Y-93207612D01*
X110686607Y-93305684D01*
X110435259Y-93355680D01*
X110178981Y-93355680D01*
X109927633Y-93305684D01*
X109690867Y-93207612D01*
X109690866Y-93207612D01*
X109690865Y-93207611D01*
X109477781Y-93065233D01*
X109296567Y-92884019D01*
X109154189Y-92670935D01*
X109154188Y-92670933D01*
X109056116Y-92434167D01*
X109006120Y-92182819D01*
X109006120Y-91926541D01*
X109056116Y-91675193D01*
X109154188Y-91438427D01*
X109296567Y-91225341D01*
X109477781Y-91044127D01*
X109596682Y-90964680D01*
X109690865Y-90901749D01*
X109690867Y-90901748D01*
X109927633Y-90803676D01*
X110178981Y-90753680D01*
X110435259Y-90753680D01*
X110686607Y-90803676D01*
G37*
G36*
X110686607Y-87120676D02*
G01*
X110923373Y-87218748D01*
X110923375Y-87218749D01*
X111136459Y-87361127D01*
X111317673Y-87542341D01*
X111460052Y-87755427D01*
X111558124Y-87992193D01*
X111608120Y-88243541D01*
X111608120Y-88499819D01*
X111558124Y-88751167D01*
X111489566Y-88916680D01*
X111460051Y-88987935D01*
X111317673Y-89201019D01*
X111136459Y-89382233D01*
X110923375Y-89524611D01*
X110923374Y-89524612D01*
X110923373Y-89524612D01*
X110686607Y-89622684D01*
X110435259Y-89672680D01*
X110178981Y-89672680D01*
X109927633Y-89622684D01*
X109690867Y-89524612D01*
X109690866Y-89524612D01*
X109690865Y-89524611D01*
X109477781Y-89382233D01*
X109296567Y-89201019D01*
X109154189Y-88987935D01*
X109124674Y-88916680D01*
X109056116Y-88751167D01*
X109006120Y-88499819D01*
X109006120Y-88243541D01*
X109056116Y-87992193D01*
X109154188Y-87755427D01*
X109296567Y-87542341D01*
X109477781Y-87361127D01*
X109690865Y-87218749D01*
X109690867Y-87218748D01*
X109927633Y-87120676D01*
X110178981Y-87070680D01*
X110435259Y-87070680D01*
X110686607Y-87120676D01*
G37*
G36*
X124114794Y-85085145D02*
G01*
X124152487Y-85096579D01*
X124187223Y-85115146D01*
X124217668Y-85140132D01*
X124242654Y-85170577D01*
X124261221Y-85205313D01*
X124272655Y-85243006D01*
X124277120Y-85288341D01*
X124277120Y-86375019D01*
X124272655Y-86420354D01*
X124261221Y-86458047D01*
X124242654Y-86492783D01*
X124217668Y-86523228D01*
X124187223Y-86548214D01*
X124152487Y-86566781D01*
X124114794Y-86578215D01*
X124069459Y-86582680D01*
X123232781Y-86582680D01*
X123187446Y-86578215D01*
X123149753Y-86566781D01*
X123115017Y-86548214D01*
X123084572Y-86523228D01*
X123059586Y-86492783D01*
X123041019Y-86458047D01*
X123029585Y-86420354D01*
X123025120Y-86375019D01*
X123025120Y-85288341D01*
X123029585Y-85243006D01*
X123041019Y-85205313D01*
X123059586Y-85170577D01*
X123084572Y-85140132D01*
X123115017Y-85115146D01*
X123149753Y-85096579D01*
X123187446Y-85085145D01*
X123232781Y-85080680D01*
X124069459Y-85080680D01*
X124114794Y-85085145D01*
G37*
G36*
X122064794Y-85085145D02*
G01*
X122102487Y-85096579D01*
X122137223Y-85115146D01*
X122167668Y-85140132D01*
X122192654Y-85170577D01*
X122211221Y-85205313D01*
X122222655Y-85243006D01*
X122227120Y-85288341D01*
X122227120Y-86375019D01*
X122222655Y-86420354D01*
X122211221Y-86458047D01*
X122192654Y-86492783D01*
X122167668Y-86523228D01*
X122137223Y-86548214D01*
X122102487Y-86566781D01*
X122064794Y-86578215D01*
X122019459Y-86582680D01*
X121182781Y-86582680D01*
X121137446Y-86578215D01*
X121099753Y-86566781D01*
X121065017Y-86548214D01*
X121034572Y-86523228D01*
X121009586Y-86492783D01*
X120991019Y-86458047D01*
X120979585Y-86420354D01*
X120975120Y-86375019D01*
X120975120Y-85288341D01*
X120979585Y-85243006D01*
X120991019Y-85205313D01*
X121009586Y-85170577D01*
X121034572Y-85140132D01*
X121065017Y-85115146D01*
X121099753Y-85096579D01*
X121137446Y-85085145D01*
X121182781Y-85080680D01*
X122019459Y-85080680D01*
X122064794Y-85085145D01*
G37*
G36*
X104096120Y-85335680D02*
G01*
X102294120Y-85335680D01*
X102294120Y-83533680D01*
X104096120Y-83533680D01*
X104096120Y-85335680D01*
G37*
G36*
X107212794Y-83695145D02*
G01*
X107250487Y-83706579D01*
X107285223Y-83725146D01*
X107315668Y-83750132D01*
X107340654Y-83780577D01*
X107359221Y-83815313D01*
X107370655Y-83853006D01*
X107375120Y-83898341D01*
X107375120Y-84735019D01*
X107370655Y-84780354D01*
X107359221Y-84818047D01*
X107340654Y-84852783D01*
X107315668Y-84883228D01*
X107285223Y-84908214D01*
X107250487Y-84926781D01*
X107212794Y-84938215D01*
X107167459Y-84942680D01*
X106080781Y-84942680D01*
X106035446Y-84938215D01*
X105997753Y-84926781D01*
X105963017Y-84908214D01*
X105932572Y-84883228D01*
X105907586Y-84852783D01*
X105889019Y-84818047D01*
X105877585Y-84780354D01*
X105873120Y-84735019D01*
X105873120Y-83898341D01*
X105877585Y-83853006D01*
X105889019Y-83815313D01*
X105907586Y-83780577D01*
X105932572Y-83750132D01*
X105963017Y-83725146D01*
X105997753Y-83706579D01*
X106035446Y-83695145D01*
X106080781Y-83690680D01*
X107167459Y-83690680D01*
X107212794Y-83695145D01*
G37*
G36*
X124114794Y-82926145D02*
G01*
X124152487Y-82937579D01*
X124187223Y-82956146D01*
X124217668Y-82981132D01*
X124242654Y-83011577D01*
X124261221Y-83046313D01*
X124272655Y-83084006D01*
X124277120Y-83129341D01*
X124277120Y-84216019D01*
X124272655Y-84261354D01*
X124261221Y-84299047D01*
X124242654Y-84333783D01*
X124217668Y-84364228D01*
X124187223Y-84389214D01*
X124152487Y-84407781D01*
X124114794Y-84419215D01*
X124069459Y-84423680D01*
X123232781Y-84423680D01*
X123187446Y-84419215D01*
X123149753Y-84407781D01*
X123115017Y-84389214D01*
X123084572Y-84364228D01*
X123059586Y-84333783D01*
X123041019Y-84299047D01*
X123029585Y-84261354D01*
X123025120Y-84216019D01*
X123025120Y-83129341D01*
X123029585Y-83084006D01*
X123041019Y-83046313D01*
X123059586Y-83011577D01*
X123084572Y-82981132D01*
X123115017Y-82956146D01*
X123149753Y-82937579D01*
X123187446Y-82926145D01*
X123232781Y-82921680D01*
X124069459Y-82921680D01*
X124114794Y-82926145D01*
G37*
G36*
X122064794Y-82926145D02*
G01*
X122102487Y-82937579D01*
X122137223Y-82956146D01*
X122167668Y-82981132D01*
X122192654Y-83011577D01*
X122211221Y-83046313D01*
X122222655Y-83084006D01*
X122227120Y-83129341D01*
X122227120Y-84216019D01*
X122222655Y-84261354D01*
X122211221Y-84299047D01*
X122192654Y-84333783D01*
X122167668Y-84364228D01*
X122137223Y-84389214D01*
X122102487Y-84407781D01*
X122064794Y-84419215D01*
X122019459Y-84423680D01*
X121182781Y-84423680D01*
X121137446Y-84419215D01*
X121099753Y-84407781D01*
X121065017Y-84389214D01*
X121034572Y-84364228D01*
X121009586Y-84333783D01*
X120991019Y-84299047D01*
X120979585Y-84261354D01*
X120975120Y-84216019D01*
X120975120Y-83129341D01*
X120979585Y-83084006D01*
X120991019Y-83046313D01*
X121009586Y-83011577D01*
X121034572Y-82981132D01*
X121065017Y-82956146D01*
X121099753Y-82937579D01*
X121137446Y-82926145D01*
X121182781Y-82921680D01*
X122019459Y-82921680D01*
X122064794Y-82926145D01*
G37*
G36*
X136034794Y-81529145D02*
G01*
X136072487Y-81540579D01*
X136107223Y-81559146D01*
X136137668Y-81584132D01*
X136162654Y-81614577D01*
X136181221Y-81649313D01*
X136192655Y-81687006D01*
X136197120Y-81732341D01*
X136197120Y-82819019D01*
X136192655Y-82864354D01*
X136181221Y-82902047D01*
X136162654Y-82936783D01*
X136137668Y-82967228D01*
X136107223Y-82992214D01*
X136072487Y-83010781D01*
X136034794Y-83022215D01*
X135989459Y-83026680D01*
X135152781Y-83026680D01*
X135107446Y-83022215D01*
X135069753Y-83010781D01*
X135035017Y-82992214D01*
X135004572Y-82967228D01*
X134979586Y-82936783D01*
X134961019Y-82902047D01*
X134949585Y-82864354D01*
X134945120Y-82819019D01*
X134945120Y-81732341D01*
X134949585Y-81687006D01*
X134961019Y-81649313D01*
X134979586Y-81614577D01*
X135004572Y-81584132D01*
X135035017Y-81559146D01*
X135069753Y-81540579D01*
X135107446Y-81529145D01*
X135152781Y-81524680D01*
X135989459Y-81524680D01*
X136034794Y-81529145D01*
G37*
G36*
X138084794Y-81529145D02*
G01*
X138122487Y-81540579D01*
X138157223Y-81559146D01*
X138187668Y-81584132D01*
X138212654Y-81614577D01*
X138231221Y-81649313D01*
X138242655Y-81687006D01*
X138247120Y-81732341D01*
X138247120Y-82819019D01*
X138242655Y-82864354D01*
X138231221Y-82902047D01*
X138212654Y-82936783D01*
X138187668Y-82967228D01*
X138157223Y-82992214D01*
X138122487Y-83010781D01*
X138084794Y-83022215D01*
X138039459Y-83026680D01*
X137202781Y-83026680D01*
X137157446Y-83022215D01*
X137119753Y-83010781D01*
X137085017Y-82992214D01*
X137054572Y-82967228D01*
X137029586Y-82936783D01*
X137011019Y-82902047D01*
X136999585Y-82864354D01*
X136995120Y-82819019D01*
X136995120Y-81732341D01*
X136999585Y-81687006D01*
X137011019Y-81649313D01*
X137029586Y-81614577D01*
X137054572Y-81584132D01*
X137085017Y-81559146D01*
X137119753Y-81540579D01*
X137157446Y-81529145D01*
X137202781Y-81524680D01*
X138039459Y-81524680D01*
X138084794Y-81529145D01*
G37*
G36*
X107212794Y-81645145D02*
G01*
X107250487Y-81656579D01*
X107285223Y-81675146D01*
X107315668Y-81700132D01*
X107340654Y-81730577D01*
X107359221Y-81765313D01*
X107370655Y-81803006D01*
X107375120Y-81848341D01*
X107375120Y-82685019D01*
X107370655Y-82730354D01*
X107359221Y-82768047D01*
X107340654Y-82802783D01*
X107315668Y-82833228D01*
X107285223Y-82858214D01*
X107250487Y-82876781D01*
X107212794Y-82888215D01*
X107167459Y-82892680D01*
X106080781Y-82892680D01*
X106035446Y-82888215D01*
X105997753Y-82876781D01*
X105963017Y-82858214D01*
X105932572Y-82833228D01*
X105907586Y-82802783D01*
X105889019Y-82768047D01*
X105877585Y-82730354D01*
X105873120Y-82685019D01*
X105873120Y-81848341D01*
X105877585Y-81803006D01*
X105889019Y-81765313D01*
X105907586Y-81730577D01*
X105932572Y-81700132D01*
X105963017Y-81675146D01*
X105997753Y-81656579D01*
X106035446Y-81645145D01*
X106080781Y-81640680D01*
X107167459Y-81640680D01*
X107212794Y-81645145D01*
G37*
G36*
X103308632Y-80998607D02*
G01*
X103457932Y-81028304D01*
X103621904Y-81096224D01*
X103769474Y-81194827D01*
X103894973Y-81320326D01*
X103993576Y-81467896D01*
X104061496Y-81631868D01*
X104096120Y-81805939D01*
X104096120Y-81983421D01*
X104061496Y-82157492D01*
X103993576Y-82321464D01*
X103894973Y-82469034D01*
X103769474Y-82594533D01*
X103621904Y-82693136D01*
X103457932Y-82761056D01*
X103308632Y-82790753D01*
X103283862Y-82795680D01*
X103106378Y-82795680D01*
X103081608Y-82790753D01*
X102932308Y-82761056D01*
X102768336Y-82693136D01*
X102620766Y-82594533D01*
X102495267Y-82469034D01*
X102396664Y-82321464D01*
X102328744Y-82157492D01*
X102294120Y-81983421D01*
X102294120Y-81805939D01*
X102328744Y-81631868D01*
X102396664Y-81467896D01*
X102495267Y-81320326D01*
X102620766Y-81194827D01*
X102768336Y-81096224D01*
X102932308Y-81028304D01*
X103081608Y-80998607D01*
X103106378Y-80993680D01*
X103283862Y-80993680D01*
X103308632Y-80998607D01*
G37*
G36*
X138084794Y-79497145D02*
G01*
X138122487Y-79508579D01*
X138157223Y-79527146D01*
X138187668Y-79552132D01*
X138212654Y-79582577D01*
X138231221Y-79617313D01*
X138242655Y-79655006D01*
X138247120Y-79700341D01*
X138247120Y-80787019D01*
X138242655Y-80832354D01*
X138231221Y-80870047D01*
X138212654Y-80904783D01*
X138187668Y-80935228D01*
X138157223Y-80960214D01*
X138122487Y-80978781D01*
X138084794Y-80990215D01*
X138039459Y-80994680D01*
X137202781Y-80994680D01*
X137157446Y-80990215D01*
X137119753Y-80978781D01*
X137085017Y-80960214D01*
X137054572Y-80935228D01*
X137029586Y-80904783D01*
X137011019Y-80870047D01*
X136999585Y-80832354D01*
X136995120Y-80787019D01*
X136995120Y-79700341D01*
X136999585Y-79655006D01*
X137011019Y-79617313D01*
X137029586Y-79582577D01*
X137054572Y-79552132D01*
X137085017Y-79527146D01*
X137119753Y-79508579D01*
X137157446Y-79497145D01*
X137202781Y-79492680D01*
X138039459Y-79492680D01*
X138084794Y-79497145D01*
G37*
G36*
X136034794Y-79497145D02*
G01*
X136072487Y-79508579D01*
X136107223Y-79527146D01*
X136137668Y-79552132D01*
X136162654Y-79582577D01*
X136181221Y-79617313D01*
X136192655Y-79655006D01*
X136197120Y-79700341D01*
X136197120Y-80787019D01*
X136192655Y-80832354D01*
X136181221Y-80870047D01*
X136162654Y-80904783D01*
X136137668Y-80935228D01*
X136107223Y-80960214D01*
X136072487Y-80978781D01*
X136034794Y-80990215D01*
X135989459Y-80994680D01*
X135152781Y-80994680D01*
X135107446Y-80990215D01*
X135069753Y-80978781D01*
X135035017Y-80960214D01*
X135004572Y-80935228D01*
X134979586Y-80904783D01*
X134961019Y-80870047D01*
X134949585Y-80832354D01*
X134945120Y-80787019D01*
X134945120Y-79700341D01*
X134949585Y-79655006D01*
X134961019Y-79617313D01*
X134979586Y-79582577D01*
X135004572Y-79552132D01*
X135035017Y-79527146D01*
X135069753Y-79508579D01*
X135107446Y-79497145D01*
X135152781Y-79492680D01*
X135989459Y-79492680D01*
X136034794Y-79497145D01*
G37*
G36*
X123573792Y-80204129D02*
G01*
X123573794Y-80204130D01*
X123573795Y-80204130D01*
X123642223Y-80232473D01*
X123703806Y-80273622D01*
X123756178Y-80325994D01*
X123797327Y-80387577D01*
X123825670Y-80456005D01*
X123825671Y-80456008D01*
X123840120Y-80528646D01*
X123840120Y-80602714D01*
X123827121Y-80668065D01*
X123825670Y-80675355D01*
X123797327Y-80743783D01*
X123756178Y-80805366D01*
X123703806Y-80857738D01*
X123642223Y-80898887D01*
X123573795Y-80927230D01*
X123573794Y-80927230D01*
X123573792Y-80927231D01*
X123501154Y-80941680D01*
X123427086Y-80941680D01*
X123354448Y-80927231D01*
X123354446Y-80927230D01*
X123354445Y-80927230D01*
X123286017Y-80898887D01*
X123224434Y-80857738D01*
X123172062Y-80805366D01*
X123130913Y-80743783D01*
X123102570Y-80675355D01*
X123101707Y-80671019D01*
X123091472Y-80619566D01*
X123084359Y-80596117D01*
X123072808Y-80574506D01*
X123065564Y-80565680D01*
X123072808Y-80556853D01*
X123084359Y-80535242D01*
X123091472Y-80511794D01*
X123102569Y-80456008D01*
X123102570Y-80456005D01*
X123130913Y-80387577D01*
X123172062Y-80325994D01*
X123224434Y-80273622D01*
X123286017Y-80232473D01*
X123354445Y-80204130D01*
X123354446Y-80204130D01*
X123354448Y-80204129D01*
X123427086Y-80189680D01*
X123501154Y-80189680D01*
X123573792Y-80204129D01*
G37*
G36*
X121643792Y-80204129D02*
G01*
X121643794Y-80204130D01*
X121643795Y-80204130D01*
X121712223Y-80232473D01*
X121773806Y-80273622D01*
X121826178Y-80325994D01*
X121867327Y-80387577D01*
X121895670Y-80456005D01*
X121895671Y-80456008D01*
X121906768Y-80511794D01*
X121913881Y-80535243D01*
X121925432Y-80556854D01*
X121932676Y-80565681D01*
X121925432Y-80574507D01*
X121913881Y-80596118D01*
X121906768Y-80619566D01*
X121896533Y-80671019D01*
X121895670Y-80675355D01*
X121867327Y-80743783D01*
X121826178Y-80805366D01*
X121773806Y-80857738D01*
X121712223Y-80898887D01*
X121643795Y-80927230D01*
X121643794Y-80927230D01*
X121643792Y-80927231D01*
X121571154Y-80941680D01*
X121497086Y-80941680D01*
X121424448Y-80927231D01*
X121424446Y-80927230D01*
X121424445Y-80927230D01*
X121356017Y-80898887D01*
X121294434Y-80857738D01*
X121242062Y-80805366D01*
X121200913Y-80743783D01*
X121172570Y-80675355D01*
X121171120Y-80668065D01*
X121158120Y-80602714D01*
X121158120Y-80528646D01*
X121172569Y-80456008D01*
X121172570Y-80456005D01*
X121200913Y-80387577D01*
X121242062Y-80325994D01*
X121294434Y-80273622D01*
X121356017Y-80232473D01*
X121424445Y-80204130D01*
X121424446Y-80204130D01*
X121424448Y-80204129D01*
X121497086Y-80189680D01*
X121571154Y-80189680D01*
X121643792Y-80204129D01*
G37*
G36*
X122601503Y-80228169D02*
G01*
X122601506Y-80228170D01*
X122601505Y-80228170D01*
X122665378Y-80254626D01*
X122722868Y-80293040D01*
X122771760Y-80341932D01*
X122810174Y-80399422D01*
X122831744Y-80451498D01*
X122836631Y-80463297D01*
X122845724Y-80509009D01*
X122846278Y-80511795D01*
X122853391Y-80535244D01*
X122864943Y-80556855D01*
X122872185Y-80565680D01*
X122864942Y-80574506D01*
X122853391Y-80596117D01*
X122846278Y-80619565D01*
X122836631Y-80668063D01*
X122833612Y-80675352D01*
X122810174Y-80731938D01*
X122771760Y-80789428D01*
X122722868Y-80838320D01*
X122665378Y-80876734D01*
X122613302Y-80898304D01*
X122601503Y-80903191D01*
X122533690Y-80916680D01*
X122464550Y-80916680D01*
X122396737Y-80903191D01*
X122384938Y-80898304D01*
X122332862Y-80876734D01*
X122275372Y-80838320D01*
X122226480Y-80789428D01*
X122188066Y-80731938D01*
X122164628Y-80675352D01*
X122161609Y-80668063D01*
X122151962Y-80619565D01*
X122144849Y-80596116D01*
X122133297Y-80574505D01*
X122126055Y-80565680D01*
X122133298Y-80556854D01*
X122144849Y-80535243D01*
X122151962Y-80511795D01*
X122152516Y-80509009D01*
X122161609Y-80463297D01*
X122166496Y-80451498D01*
X122188066Y-80399422D01*
X122226480Y-80341932D01*
X122275372Y-80293040D01*
X122332862Y-80254626D01*
X122396735Y-80228170D01*
X122396734Y-80228170D01*
X122396737Y-80228169D01*
X122464550Y-80214680D01*
X122533690Y-80214680D01*
X122601503Y-80228169D01*
G37*
G36*
X119404794Y-79631145D02*
G01*
X119442487Y-79642579D01*
X119477223Y-79661146D01*
X119507668Y-79686132D01*
X119532654Y-79716577D01*
X119551221Y-79751313D01*
X119562655Y-79789006D01*
X119567120Y-79834341D01*
X119567120Y-80671019D01*
X119562655Y-80716354D01*
X119551221Y-80754047D01*
X119532654Y-80788783D01*
X119507668Y-80819228D01*
X119477223Y-80844214D01*
X119442487Y-80862781D01*
X119404794Y-80874215D01*
X119359459Y-80878680D01*
X118272781Y-80878680D01*
X118227446Y-80874215D01*
X118189753Y-80862781D01*
X118155017Y-80844214D01*
X118124572Y-80819228D01*
X118099586Y-80788783D01*
X118081019Y-80754047D01*
X118069585Y-80716354D01*
X118065120Y-80671019D01*
X118065120Y-79834341D01*
X118069585Y-79789006D01*
X118081019Y-79751313D01*
X118099586Y-79716577D01*
X118124572Y-79686132D01*
X118155017Y-79661146D01*
X118189753Y-79642579D01*
X118227446Y-79631145D01*
X118272781Y-79626680D01*
X119359459Y-79626680D01*
X119404794Y-79631145D01*
G37*
G36*
X103308632Y-78458607D02*
G01*
X103457932Y-78488304D01*
X103621904Y-78556224D01*
X103769474Y-78654827D01*
X103894973Y-78780326D01*
X103993576Y-78927896D01*
X104061496Y-79091868D01*
X104096120Y-79265939D01*
X104096120Y-79443421D01*
X104061496Y-79617492D01*
X103993576Y-79781464D01*
X103894973Y-79929034D01*
X103769474Y-80054533D01*
X103621904Y-80153136D01*
X103457932Y-80221056D01*
X103308632Y-80250753D01*
X103283862Y-80255680D01*
X103106378Y-80255680D01*
X103081608Y-80250753D01*
X102932308Y-80221056D01*
X102768336Y-80153136D01*
X102620766Y-80054533D01*
X102495267Y-79929034D01*
X102396664Y-79781464D01*
X102328744Y-79617492D01*
X102294120Y-79443421D01*
X102294120Y-79265939D01*
X102328744Y-79091868D01*
X102396664Y-78927896D01*
X102495267Y-78780326D01*
X102620766Y-78654827D01*
X102768336Y-78556224D01*
X102932308Y-78488304D01*
X103081608Y-78458607D01*
X103106378Y-78453680D01*
X103283862Y-78453680D01*
X103308632Y-78458607D01*
G37*
G36*
X123596085Y-79195478D02*
G01*
X123647224Y-79216661D01*
X123693247Y-79247413D01*
X123732387Y-79286553D01*
X123763139Y-79332576D01*
X123784322Y-79383715D01*
X123795120Y-79438004D01*
X123795120Y-79493356D01*
X123784322Y-79547645D01*
X123763139Y-79598784D01*
X123732387Y-79644807D01*
X123693247Y-79683947D01*
X123647224Y-79714699D01*
X123596085Y-79735882D01*
X123541796Y-79746680D01*
X123486444Y-79746680D01*
X123432155Y-79735882D01*
X123381016Y-79714699D01*
X123334993Y-79683947D01*
X123295853Y-79644807D01*
X123265101Y-79598784D01*
X123243918Y-79547645D01*
X123233120Y-79493356D01*
X123233120Y-79438004D01*
X123243918Y-79383715D01*
X123265101Y-79332576D01*
X123295853Y-79286553D01*
X123334993Y-79247413D01*
X123381016Y-79216661D01*
X123432155Y-79195478D01*
X123486444Y-79184680D01*
X123541796Y-79184680D01*
X123596085Y-79195478D01*
G37*
G36*
X121566085Y-79195478D02*
G01*
X121617224Y-79216661D01*
X121663247Y-79247413D01*
X121702387Y-79286553D01*
X121733139Y-79332576D01*
X121754322Y-79383715D01*
X121765120Y-79438004D01*
X121765120Y-79493356D01*
X121754322Y-79547645D01*
X121733139Y-79598784D01*
X121702387Y-79644807D01*
X121663247Y-79683947D01*
X121617224Y-79714699D01*
X121566085Y-79735882D01*
X121511796Y-79746680D01*
X121456444Y-79746680D01*
X121402155Y-79735882D01*
X121351016Y-79714699D01*
X121304993Y-79683947D01*
X121265853Y-79644807D01*
X121235101Y-79598784D01*
X121213918Y-79547645D01*
X121203120Y-79493356D01*
X121203120Y-79438004D01*
X121213918Y-79383715D01*
X121235101Y-79332576D01*
X121265853Y-79286553D01*
X121304993Y-79247413D01*
X121351016Y-79216661D01*
X121402155Y-79195478D01*
X121456444Y-79184680D01*
X121511796Y-79184680D01*
X121566085Y-79195478D01*
G37*
G36*
X121566085Y-77555478D02*
G01*
X121617224Y-77576661D01*
X121663247Y-77607413D01*
X121702387Y-77646553D01*
X121733139Y-77692576D01*
X121754322Y-77743715D01*
X121757072Y-77757543D01*
X121764182Y-77780981D01*
X121775733Y-77802592D01*
X121791278Y-77821534D01*
X121810219Y-77837079D01*
X121831830Y-77848631D01*
X121855279Y-77855744D01*
X121879665Y-77858146D01*
X121904051Y-77855744D01*
X121927500Y-77848631D01*
X121949111Y-77837080D01*
X121968048Y-77821540D01*
X121969388Y-77820200D01*
X122105494Y-77729257D01*
X122105496Y-77729256D01*
X122256726Y-77666614D01*
X122417272Y-77634680D01*
X122580968Y-77634680D01*
X122741514Y-77666614D01*
X122892744Y-77729256D01*
X122892746Y-77729257D01*
X123028852Y-77820200D01*
X123030192Y-77821540D01*
X123049128Y-77837080D01*
X123070739Y-77848631D01*
X123094188Y-77855744D01*
X123118574Y-77858146D01*
X123142960Y-77855744D01*
X123166409Y-77848631D01*
X123188020Y-77837080D01*
X123206962Y-77821535D01*
X123222507Y-77802593D01*
X123234058Y-77780982D01*
X123241168Y-77757543D01*
X123243918Y-77743715D01*
X123265101Y-77692576D01*
X123295853Y-77646553D01*
X123334993Y-77607413D01*
X123381016Y-77576661D01*
X123432155Y-77555478D01*
X123486444Y-77544680D01*
X123541796Y-77544680D01*
X123596085Y-77555478D01*
X123647224Y-77576661D01*
X123693247Y-77607413D01*
X123732387Y-77646553D01*
X123763139Y-77692576D01*
X123784322Y-77743715D01*
X123795120Y-77798004D01*
X123795120Y-77853356D01*
X123784322Y-77907645D01*
X123763139Y-77958784D01*
X123732387Y-78004807D01*
X123693247Y-78043947D01*
X123647224Y-78074699D01*
X123596085Y-78095882D01*
X123541796Y-78106680D01*
X123486444Y-78106680D01*
X123449753Y-78099382D01*
X123425375Y-78096981D01*
X123400988Y-78099383D01*
X123377539Y-78106496D01*
X123355929Y-78118047D01*
X123336987Y-78133592D01*
X123321441Y-78152534D01*
X123309890Y-78174144D01*
X123302777Y-78197593D01*
X123300375Y-78221979D01*
X123302777Y-78246366D01*
X123330120Y-78383832D01*
X123330120Y-78547528D01*
X123298186Y-78708074D01*
X123240773Y-78846680D01*
X123235543Y-78859306D01*
X123144600Y-78995412D01*
X123028852Y-79111160D01*
X122892746Y-79202103D01*
X122892745Y-79202104D01*
X122892744Y-79202104D01*
X122741514Y-79264746D01*
X122580968Y-79296680D01*
X122417272Y-79296680D01*
X122256726Y-79264746D01*
X122105496Y-79202104D01*
X122105495Y-79202104D01*
X122105494Y-79202103D01*
X121969388Y-79111160D01*
X121853640Y-78995412D01*
X121762697Y-78859306D01*
X121757467Y-78846680D01*
X121700054Y-78708074D01*
X121668120Y-78547528D01*
X121668120Y-78383832D01*
X121695463Y-78246366D01*
X121697865Y-78221979D01*
X121695463Y-78197593D01*
X121688350Y-78174144D01*
X121676799Y-78152534D01*
X121661253Y-78133592D01*
X121642311Y-78118047D01*
X121620700Y-78106496D01*
X121597252Y-78099383D01*
X121572865Y-78096981D01*
X121548487Y-78099382D01*
X121511796Y-78106680D01*
X121456444Y-78106680D01*
X121402155Y-78095882D01*
X121351016Y-78074699D01*
X121304993Y-78043947D01*
X121265853Y-78004807D01*
X121235101Y-77958784D01*
X121213918Y-77907645D01*
X121203120Y-77853356D01*
X121203120Y-77798004D01*
X121213918Y-77743715D01*
X121235101Y-77692576D01*
X121265853Y-77646553D01*
X121304993Y-77607413D01*
X121351016Y-77576661D01*
X121402155Y-77555478D01*
X121456444Y-77544680D01*
X121511796Y-77544680D01*
X121566085Y-77555478D01*
G37*
G36*
X132993794Y-77599145D02*
G01*
X133031487Y-77610579D01*
X133066223Y-77629146D01*
X133096668Y-77654132D01*
X133121654Y-77684577D01*
X133140221Y-77719313D01*
X133151655Y-77757006D01*
X133156120Y-77802341D01*
X133156120Y-78639019D01*
X133151655Y-78684354D01*
X133140221Y-78722047D01*
X133121654Y-78756783D01*
X133096668Y-78787228D01*
X133066223Y-78812214D01*
X133031487Y-78830781D01*
X132993794Y-78842215D01*
X132948459Y-78846680D01*
X131861781Y-78846680D01*
X131816446Y-78842215D01*
X131778753Y-78830781D01*
X131744017Y-78812214D01*
X131713572Y-78787228D01*
X131688586Y-78756783D01*
X131670019Y-78722047D01*
X131658585Y-78684354D01*
X131654120Y-78639019D01*
X131654120Y-77802341D01*
X131658585Y-77757006D01*
X131670019Y-77719313D01*
X131688586Y-77684577D01*
X131713572Y-77654132D01*
X131744017Y-77629146D01*
X131778753Y-77610579D01*
X131816446Y-77599145D01*
X131861781Y-77594680D01*
X132948459Y-77594680D01*
X132993794Y-77599145D01*
G37*
G36*
X119404794Y-77581145D02*
G01*
X119442487Y-77592579D01*
X119477223Y-77611146D01*
X119507668Y-77636132D01*
X119532654Y-77666577D01*
X119551221Y-77701313D01*
X119562655Y-77739006D01*
X119567120Y-77784341D01*
X119567120Y-78621019D01*
X119562655Y-78666354D01*
X119551221Y-78704047D01*
X119532654Y-78738783D01*
X119507668Y-78769228D01*
X119477223Y-78794214D01*
X119442487Y-78812781D01*
X119404794Y-78824215D01*
X119359459Y-78828680D01*
X118272781Y-78828680D01*
X118227446Y-78824215D01*
X118189753Y-78812781D01*
X118155017Y-78794214D01*
X118124572Y-78769228D01*
X118099586Y-78738783D01*
X118081019Y-78704047D01*
X118069585Y-78666354D01*
X118065120Y-78621019D01*
X118065120Y-77784341D01*
X118069585Y-77739006D01*
X118081019Y-77701313D01*
X118099586Y-77666577D01*
X118124572Y-77636132D01*
X118155017Y-77611146D01*
X118189753Y-77592579D01*
X118227446Y-77581145D01*
X118272781Y-77576680D01*
X119359459Y-77576680D01*
X119404794Y-77581145D01*
G37*
G36*
X135497120Y-78146680D02*
G01*
X134545120Y-78146680D01*
X134545120Y-76244680D01*
X135497120Y-76244680D01*
X135497120Y-78146680D01*
G37*
G36*
X138647120Y-78146680D02*
G01*
X137695120Y-78146680D01*
X137695120Y-76244680D01*
X138647120Y-76244680D01*
X138647120Y-78146680D01*
G37*
G36*
X103308632Y-75918607D02*
G01*
X103457932Y-75948304D01*
X103621904Y-76016224D01*
X103769474Y-76114827D01*
X103894973Y-76240326D01*
X103993576Y-76387896D01*
X104061496Y-76551868D01*
X104091193Y-76701168D01*
X104094335Y-76716962D01*
X104096120Y-76725939D01*
X104096120Y-76903421D01*
X104061496Y-77077492D01*
X103993576Y-77241464D01*
X103894973Y-77389034D01*
X103769474Y-77514533D01*
X103621904Y-77613136D01*
X103457932Y-77681056D01*
X103308632Y-77710753D01*
X103283862Y-77715680D01*
X103106378Y-77715680D01*
X103081608Y-77710753D01*
X102932308Y-77681056D01*
X102768336Y-77613136D01*
X102620766Y-77514533D01*
X102495267Y-77389034D01*
X102396664Y-77241464D01*
X102328744Y-77077492D01*
X102294120Y-76903421D01*
X102294120Y-76725939D01*
X102295906Y-76716962D01*
X102299047Y-76701168D01*
X102328744Y-76551868D01*
X102396664Y-76387896D01*
X102495267Y-76240326D01*
X102620766Y-76114827D01*
X102768336Y-76016224D01*
X102932308Y-75948304D01*
X103081608Y-75918607D01*
X103106378Y-75913680D01*
X103283862Y-75913680D01*
X103308632Y-75918607D01*
G37*
G36*
X122685544Y-74307440D02*
G01*
X122685547Y-74307441D01*
X122685548Y-74307441D01*
X122864812Y-74361820D01*
X122864815Y-74361822D01*
X122864816Y-74361822D01*
X123030023Y-74450126D01*
X123174832Y-74568968D01*
X123293672Y-74713775D01*
X123302541Y-74730368D01*
X123316155Y-74750743D01*
X123333482Y-74768070D01*
X123353856Y-74781684D01*
X123376495Y-74791061D01*
X123400528Y-74795842D01*
X123425032Y-74795842D01*
X123449065Y-74791062D01*
X123471704Y-74781685D01*
X123492079Y-74768071D01*
X123509406Y-74750744D01*
X123523020Y-74730370D01*
X123532396Y-74707734D01*
X123533984Y-74702500D01*
X123546441Y-74679194D01*
X123563206Y-74658766D01*
X123583634Y-74642001D01*
X123606937Y-74629545D01*
X123632224Y-74621874D01*
X123664658Y-74618680D01*
X124433582Y-74618680D01*
X124466016Y-74621874D01*
X124491303Y-74629545D01*
X124514606Y-74642001D01*
X124535034Y-74658766D01*
X124551799Y-74679194D01*
X124564255Y-74702497D01*
X124571926Y-74727784D01*
X124575120Y-74760218D01*
X124575120Y-76329142D01*
X124571926Y-76361576D01*
X124564255Y-76386863D01*
X124551799Y-76410166D01*
X124535034Y-76430594D01*
X124514606Y-76447359D01*
X124491303Y-76459815D01*
X124466016Y-76467486D01*
X124433582Y-76470680D01*
X123664658Y-76470680D01*
X123632224Y-76467486D01*
X123606937Y-76459815D01*
X123583634Y-76447359D01*
X123563206Y-76430594D01*
X123546441Y-76410166D01*
X123533984Y-76386860D01*
X123532396Y-76381626D01*
X123523019Y-76358988D01*
X123509404Y-76338614D01*
X123492077Y-76321287D01*
X123471702Y-76307674D01*
X123449063Y-76298297D01*
X123425029Y-76293518D01*
X123400525Y-76293518D01*
X123376492Y-76298300D01*
X123353854Y-76307677D01*
X123333480Y-76321292D01*
X123316153Y-76338619D01*
X123302541Y-76358992D01*
X123293672Y-76375585D01*
X123174832Y-76520392D01*
X123030023Y-76639234D01*
X122864817Y-76727538D01*
X122864813Y-76727540D01*
X122685549Y-76781919D01*
X122685548Y-76781919D01*
X122685545Y-76781920D01*
X122499120Y-76800281D01*
X122312696Y-76781920D01*
X122312693Y-76781919D01*
X122312692Y-76781919D01*
X122133428Y-76727540D01*
X122133424Y-76727538D01*
X121968218Y-76639234D01*
X121823409Y-76520392D01*
X121704568Y-76375584D01*
X121695698Y-76358989D01*
X121682084Y-76338615D01*
X121664757Y-76321288D01*
X121644383Y-76307674D01*
X121621744Y-76298297D01*
X121597711Y-76293517D01*
X121573206Y-76293517D01*
X121549173Y-76298298D01*
X121526534Y-76307675D01*
X121506160Y-76321289D01*
X121488833Y-76338616D01*
X121475219Y-76358990D01*
X121465843Y-76381627D01*
X121464255Y-76386863D01*
X121451799Y-76410166D01*
X121435034Y-76430594D01*
X121414606Y-76447359D01*
X121391303Y-76459815D01*
X121366016Y-76467486D01*
X121333582Y-76470680D01*
X120564658Y-76470680D01*
X120532224Y-76467486D01*
X120506937Y-76459815D01*
X120483634Y-76447359D01*
X120463206Y-76430594D01*
X120446441Y-76410166D01*
X120433985Y-76386863D01*
X120426314Y-76361576D01*
X120423120Y-76329142D01*
X120423120Y-74760218D01*
X120426314Y-74727784D01*
X120433985Y-74702497D01*
X120446441Y-74679194D01*
X120463206Y-74658766D01*
X120483634Y-74642001D01*
X120506937Y-74629545D01*
X120532224Y-74621874D01*
X120564658Y-74618680D01*
X121333582Y-74618680D01*
X121366016Y-74621874D01*
X121391303Y-74629545D01*
X121414606Y-74642001D01*
X121435034Y-74658766D01*
X121451799Y-74679194D01*
X121464256Y-74702500D01*
X121465844Y-74707734D01*
X121475221Y-74730372D01*
X121488836Y-74750746D01*
X121506163Y-74768073D01*
X121526538Y-74781686D01*
X121549177Y-74791063D01*
X121573211Y-74795842D01*
X121597715Y-74795842D01*
X121621748Y-74791060D01*
X121644386Y-74781683D01*
X121664760Y-74768068D01*
X121682087Y-74750741D01*
X121695699Y-74730368D01*
X121704568Y-74713775D01*
X121823408Y-74568968D01*
X121968217Y-74450126D01*
X122133423Y-74361822D01*
X122133424Y-74361822D01*
X122133427Y-74361820D01*
X122312691Y-74307441D01*
X122312692Y-74307441D01*
X122312695Y-74307440D01*
X122499120Y-74289079D01*
X122685544Y-74307440D01*
G37*
G36*
X132993794Y-75549145D02*
G01*
X133031487Y-75560579D01*
X133066223Y-75579146D01*
X133096668Y-75604132D01*
X133121654Y-75634577D01*
X133140221Y-75669313D01*
X133151655Y-75707006D01*
X133156120Y-75752341D01*
X133156120Y-76589019D01*
X133151655Y-76634354D01*
X133140221Y-76672047D01*
X133121654Y-76706783D01*
X133096668Y-76737228D01*
X133066223Y-76762214D01*
X133031487Y-76780781D01*
X132993794Y-76792215D01*
X132948459Y-76796680D01*
X131861781Y-76796680D01*
X131816446Y-76792215D01*
X131778753Y-76780781D01*
X131744017Y-76762214D01*
X131713572Y-76737228D01*
X131688586Y-76706783D01*
X131670019Y-76672047D01*
X131658585Y-76634354D01*
X131654120Y-76589019D01*
X131654120Y-75752341D01*
X131658585Y-75707006D01*
X131670019Y-75669313D01*
X131688586Y-75634577D01*
X131713572Y-75604132D01*
X131744017Y-75579146D01*
X131778753Y-75560579D01*
X131816446Y-75549145D01*
X131861781Y-75544680D01*
X132948459Y-75544680D01*
X132993794Y-75549145D01*
G37*
G36*
X119669794Y-74798145D02*
G01*
X119707487Y-74809579D01*
X119742223Y-74828146D01*
X119772668Y-74853132D01*
X119797654Y-74883577D01*
X119816221Y-74918313D01*
X119827655Y-74956006D01*
X119832120Y-75001341D01*
X119832120Y-76088019D01*
X119827655Y-76133354D01*
X119816221Y-76171047D01*
X119797654Y-76205783D01*
X119772668Y-76236228D01*
X119742223Y-76261214D01*
X119707487Y-76279781D01*
X119669794Y-76291215D01*
X119624459Y-76295680D01*
X118787781Y-76295680D01*
X118742446Y-76291215D01*
X118704753Y-76279781D01*
X118670017Y-76261214D01*
X118639572Y-76236228D01*
X118614586Y-76205783D01*
X118596019Y-76171047D01*
X118584585Y-76133354D01*
X118580120Y-76088019D01*
X118580120Y-75001341D01*
X118584585Y-74956006D01*
X118596019Y-74918313D01*
X118614586Y-74883577D01*
X118639572Y-74853132D01*
X118670017Y-74828146D01*
X118704753Y-74809579D01*
X118742446Y-74798145D01*
X118787781Y-74793680D01*
X119624459Y-74793680D01*
X119669794Y-74798145D01*
G37*
G36*
X117619794Y-74798145D02*
G01*
X117657487Y-74809579D01*
X117692223Y-74828146D01*
X117722668Y-74853132D01*
X117747654Y-74883577D01*
X117766221Y-74918313D01*
X117777655Y-74956006D01*
X117782120Y-75001341D01*
X117782120Y-76088019D01*
X117777655Y-76133354D01*
X117766221Y-76171047D01*
X117747654Y-76205783D01*
X117722668Y-76236228D01*
X117692223Y-76261214D01*
X117657487Y-76279781D01*
X117619794Y-76291215D01*
X117574459Y-76295680D01*
X116737781Y-76295680D01*
X116692446Y-76291215D01*
X116654753Y-76279781D01*
X116620017Y-76261214D01*
X116589572Y-76236228D01*
X116564586Y-76205783D01*
X116546019Y-76171047D01*
X116534585Y-76133354D01*
X116530120Y-76088019D01*
X116530120Y-75001341D01*
X116534585Y-74956006D01*
X116546019Y-74918313D01*
X116564586Y-74883577D01*
X116589572Y-74853132D01*
X116620017Y-74828146D01*
X116654753Y-74809579D01*
X116692446Y-74798145D01*
X116737781Y-74793680D01*
X117574459Y-74793680D01*
X117619794Y-74798145D01*
G37*
G36*
X103308632Y-73378607D02*
G01*
X103457932Y-73408304D01*
X103621904Y-73476224D01*
X103769474Y-73574827D01*
X103894973Y-73700326D01*
X103993576Y-73847896D01*
X104061496Y-74011868D01*
X104096120Y-74185939D01*
X104096120Y-74363421D01*
X104061496Y-74537492D01*
X103993576Y-74701464D01*
X103894973Y-74849034D01*
X103769474Y-74974533D01*
X103621904Y-75073136D01*
X103457932Y-75141056D01*
X103308632Y-75170753D01*
X103283862Y-75175680D01*
X103106378Y-75175680D01*
X103081608Y-75170753D01*
X102932308Y-75141056D01*
X102768336Y-75073136D01*
X102620766Y-74974533D01*
X102495267Y-74849034D01*
X102396664Y-74701464D01*
X102328744Y-74537492D01*
X102294120Y-74363421D01*
X102294120Y-74185939D01*
X102328744Y-74011868D01*
X102396664Y-73847896D01*
X102495267Y-73700326D01*
X102620766Y-73574827D01*
X102768336Y-73476224D01*
X102932308Y-73408304D01*
X103081608Y-73378607D01*
X103106378Y-73373680D01*
X103283862Y-73373680D01*
X103308632Y-73378607D01*
G37*
G36*
X135907794Y-73655145D02*
G01*
X135945487Y-73666579D01*
X135980223Y-73685146D01*
X136010668Y-73710132D01*
X136035654Y-73740577D01*
X136054221Y-73775313D01*
X136065655Y-73813006D01*
X136070120Y-73858341D01*
X136070120Y-74945019D01*
X136065655Y-74990354D01*
X136054221Y-75028047D01*
X136035654Y-75062783D01*
X136010668Y-75093228D01*
X135980223Y-75118214D01*
X135945487Y-75136781D01*
X135907794Y-75148215D01*
X135862459Y-75152680D01*
X135025781Y-75152680D01*
X134980446Y-75148215D01*
X134942753Y-75136781D01*
X134908017Y-75118214D01*
X134877572Y-75093228D01*
X134852586Y-75062783D01*
X134834019Y-75028047D01*
X134822585Y-74990354D01*
X134818120Y-74945019D01*
X134818120Y-73858341D01*
X134822585Y-73813006D01*
X134834019Y-73775313D01*
X134852586Y-73740577D01*
X134877572Y-73710132D01*
X134908017Y-73685146D01*
X134942753Y-73666579D01*
X134980446Y-73655145D01*
X135025781Y-73650680D01*
X135862459Y-73650680D01*
X135907794Y-73655145D01*
G37*
G36*
X137957794Y-73655145D02*
G01*
X137995487Y-73666579D01*
X138030223Y-73685146D01*
X138060668Y-73710132D01*
X138085654Y-73740577D01*
X138104221Y-73775313D01*
X138115655Y-73813006D01*
X138120120Y-73858341D01*
X138120120Y-74945019D01*
X138115655Y-74990354D01*
X138104221Y-75028047D01*
X138085654Y-75062783D01*
X138060668Y-75093228D01*
X138030223Y-75118214D01*
X137995487Y-75136781D01*
X137957794Y-75148215D01*
X137912459Y-75152680D01*
X137075781Y-75152680D01*
X137030446Y-75148215D01*
X136992753Y-75136781D01*
X136958017Y-75118214D01*
X136927572Y-75093228D01*
X136902586Y-75062783D01*
X136884019Y-75028047D01*
X136872585Y-74990354D01*
X136868120Y-74945019D01*
X136868120Y-73858341D01*
X136872585Y-73813006D01*
X136884019Y-73775313D01*
X136902586Y-73740577D01*
X136927572Y-73710132D01*
X136958017Y-73685146D01*
X136992753Y-73666579D01*
X137030446Y-73655145D01*
X137075781Y-73650680D01*
X137912459Y-73650680D01*
X137957794Y-73655145D01*
G37*
G36*
X135907794Y-71623145D02*
G01*
X135945487Y-71634579D01*
X135980223Y-71653146D01*
X136010668Y-71678132D01*
X136035654Y-71708577D01*
X136054221Y-71743313D01*
X136065655Y-71781006D01*
X136070120Y-71826341D01*
X136070120Y-72913019D01*
X136065655Y-72958354D01*
X136054221Y-72996047D01*
X136035654Y-73030783D01*
X136010668Y-73061228D01*
X135980223Y-73086214D01*
X135945487Y-73104781D01*
X135907794Y-73116215D01*
X135862459Y-73120680D01*
X135025781Y-73120680D01*
X134980446Y-73116215D01*
X134942753Y-73104781D01*
X134908017Y-73086214D01*
X134877572Y-73061228D01*
X134852586Y-73030783D01*
X134834019Y-72996047D01*
X134822585Y-72958354D01*
X134818120Y-72913019D01*
X134818120Y-71826341D01*
X134822585Y-71781006D01*
X134834019Y-71743313D01*
X134852586Y-71708577D01*
X134877572Y-71678132D01*
X134908017Y-71653146D01*
X134942753Y-71634579D01*
X134980446Y-71623145D01*
X135025781Y-71618680D01*
X135862459Y-71618680D01*
X135907794Y-71623145D01*
G37*
G36*
X137957794Y-71623145D02*
G01*
X137995487Y-71634579D01*
X138030223Y-71653146D01*
X138060668Y-71678132D01*
X138085654Y-71708577D01*
X138104221Y-71743313D01*
X138115655Y-71781006D01*
X138120120Y-71826341D01*
X138120120Y-72913019D01*
X138115655Y-72958354D01*
X138104221Y-72996047D01*
X138085654Y-73030783D01*
X138060668Y-73061228D01*
X138030223Y-73086214D01*
X137995487Y-73104781D01*
X137957794Y-73116215D01*
X137912459Y-73120680D01*
X137075781Y-73120680D01*
X137030446Y-73116215D01*
X136992753Y-73104781D01*
X136958017Y-73086214D01*
X136927572Y-73061228D01*
X136902586Y-73030783D01*
X136884019Y-72996047D01*
X136872585Y-72958354D01*
X136868120Y-72913019D01*
X136868120Y-71826341D01*
X136872585Y-71781006D01*
X136884019Y-71743313D01*
X136902586Y-71708577D01*
X136927572Y-71678132D01*
X136958017Y-71653146D01*
X136992753Y-71634579D01*
X137030446Y-71623145D01*
X137075781Y-71618680D01*
X137912459Y-71618680D01*
X137957794Y-71623145D01*
G37*
G36*
X103304348Y-70837755D02*
G01*
X103457932Y-70868304D01*
X103621904Y-70936224D01*
X103769474Y-71034827D01*
X103894973Y-71160326D01*
X103993576Y-71307896D01*
X104061496Y-71471868D01*
X104083105Y-71580507D01*
X104093861Y-71634579D01*
X104096120Y-71645939D01*
X104096120Y-71823421D01*
X104061496Y-71997492D01*
X103993576Y-72161464D01*
X103894973Y-72309034D01*
X103769474Y-72434533D01*
X103621904Y-72533136D01*
X103457932Y-72601056D01*
X103308632Y-72630753D01*
X103283862Y-72635680D01*
X103106378Y-72635680D01*
X103081608Y-72630753D01*
X102932308Y-72601056D01*
X102768336Y-72533136D01*
X102620766Y-72434533D01*
X102495267Y-72309034D01*
X102396664Y-72161464D01*
X102328744Y-71997492D01*
X102294120Y-71823421D01*
X102294120Y-71645939D01*
X102296380Y-71634579D01*
X102307135Y-71580507D01*
X102328744Y-71471868D01*
X102396664Y-71307896D01*
X102495267Y-71160326D01*
X102620766Y-71034827D01*
X102768336Y-70936224D01*
X102932308Y-70868304D01*
X103085892Y-70837755D01*
X103106378Y-70833680D01*
X103283862Y-70833680D01*
X103304348Y-70837755D01*
G37*
G36*
X118253120Y-72080880D02*
G01*
X117601120Y-72080880D01*
X117601120Y-70778880D01*
X118253120Y-70778880D01*
X118253120Y-72080880D01*
G37*
G36*
X119203120Y-72080880D02*
G01*
X118551120Y-72080880D01*
X118551120Y-70778880D01*
X119203120Y-70778880D01*
X119203120Y-72080880D01*
G37*
G36*
X120153120Y-72080880D02*
G01*
X119501120Y-72080880D01*
X119501120Y-70778880D01*
X120153120Y-70778880D01*
X120153120Y-72080880D01*
G37*
G36*
X112294794Y-70480145D02*
G01*
X112332487Y-70491579D01*
X112367223Y-70510146D01*
X112397668Y-70535132D01*
X112422654Y-70565577D01*
X112441221Y-70600313D01*
X112452655Y-70638006D01*
X112457120Y-70683341D01*
X112457120Y-71770019D01*
X112452655Y-71815354D01*
X112441221Y-71853047D01*
X112422654Y-71887783D01*
X112397668Y-71918228D01*
X112367223Y-71943214D01*
X112332487Y-71961781D01*
X112294794Y-71973215D01*
X112249459Y-71977680D01*
X111412781Y-71977680D01*
X111367446Y-71973215D01*
X111329753Y-71961781D01*
X111295017Y-71943214D01*
X111264572Y-71918228D01*
X111239586Y-71887783D01*
X111221019Y-71853047D01*
X111209585Y-71815354D01*
X111205120Y-71770019D01*
X111205120Y-70683341D01*
X111209585Y-70638006D01*
X111221019Y-70600313D01*
X111239586Y-70565577D01*
X111264572Y-70535132D01*
X111295017Y-70510146D01*
X111329753Y-70491579D01*
X111367446Y-70480145D01*
X111412781Y-70475680D01*
X112249459Y-70475680D01*
X112294794Y-70480145D01*
G37*
G36*
X110244794Y-70480145D02*
G01*
X110282487Y-70491579D01*
X110317223Y-70510146D01*
X110347668Y-70535132D01*
X110372654Y-70565577D01*
X110391221Y-70600313D01*
X110402655Y-70638006D01*
X110407120Y-70683341D01*
X110407120Y-71770019D01*
X110402655Y-71815354D01*
X110391221Y-71853047D01*
X110372654Y-71887783D01*
X110347668Y-71918228D01*
X110317223Y-71943214D01*
X110282487Y-71961781D01*
X110244794Y-71973215D01*
X110199459Y-71977680D01*
X109362781Y-71977680D01*
X109317446Y-71973215D01*
X109279753Y-71961781D01*
X109245017Y-71943214D01*
X109214572Y-71918228D01*
X109189586Y-71887783D01*
X109171019Y-71853047D01*
X109159585Y-71815354D01*
X109155120Y-71770019D01*
X109155120Y-70683341D01*
X109159585Y-70638006D01*
X109171019Y-70600313D01*
X109189586Y-70565577D01*
X109214572Y-70535132D01*
X109245017Y-70510146D01*
X109279753Y-70491579D01*
X109317446Y-70480145D01*
X109362781Y-70475680D01*
X110199459Y-70475680D01*
X110244794Y-70480145D01*
G37*
G36*
X128421794Y-70623145D02*
G01*
X128459487Y-70634579D01*
X128494223Y-70653146D01*
X128524668Y-70678132D01*
X128549654Y-70708577D01*
X128568221Y-70743313D01*
X128579655Y-70781006D01*
X128584120Y-70826341D01*
X128584120Y-71663019D01*
X128579655Y-71708354D01*
X128568221Y-71746047D01*
X128549654Y-71780783D01*
X128524668Y-71811228D01*
X128494223Y-71836214D01*
X128459487Y-71854781D01*
X128421794Y-71866215D01*
X128376459Y-71870680D01*
X127289781Y-71870680D01*
X127244446Y-71866215D01*
X127206753Y-71854781D01*
X127172017Y-71836214D01*
X127141572Y-71811228D01*
X127116586Y-71780783D01*
X127098019Y-71746047D01*
X127086585Y-71708354D01*
X127082120Y-71663019D01*
X127082120Y-70826341D01*
X127086585Y-70781006D01*
X127098019Y-70743313D01*
X127116586Y-70708577D01*
X127141572Y-70678132D01*
X127172017Y-70653146D01*
X127206753Y-70634579D01*
X127244446Y-70623145D01*
X127289781Y-70618680D01*
X128376459Y-70618680D01*
X128421794Y-70623145D01*
G37*
G36*
X124357794Y-70623145D02*
G01*
X124395487Y-70634579D01*
X124430223Y-70653146D01*
X124460668Y-70678132D01*
X124485654Y-70708577D01*
X124504221Y-70743313D01*
X124515655Y-70781006D01*
X124520120Y-70826341D01*
X124520120Y-71663019D01*
X124515655Y-71708354D01*
X124504221Y-71746047D01*
X124485654Y-71780783D01*
X124460668Y-71811228D01*
X124430223Y-71836214D01*
X124395487Y-71854781D01*
X124357794Y-71866215D01*
X124312459Y-71870680D01*
X123225781Y-71870680D01*
X123180446Y-71866215D01*
X123142753Y-71854781D01*
X123108017Y-71836214D01*
X123077572Y-71811228D01*
X123052586Y-71780783D01*
X123034019Y-71746047D01*
X123022585Y-71708354D01*
X123018120Y-71663019D01*
X123018120Y-70826341D01*
X123022585Y-70781006D01*
X123034019Y-70743313D01*
X123052586Y-70708577D01*
X123077572Y-70678132D01*
X123108017Y-70653146D01*
X123142753Y-70634579D01*
X123180446Y-70623145D01*
X123225781Y-70618680D01*
X124312459Y-70618680D01*
X124357794Y-70623145D01*
G37*
G36*
X122325794Y-70623145D02*
G01*
X122363487Y-70634579D01*
X122398223Y-70653146D01*
X122428668Y-70678132D01*
X122453654Y-70708577D01*
X122472221Y-70743313D01*
X122483655Y-70781006D01*
X122488120Y-70826341D01*
X122488120Y-71663019D01*
X122483655Y-71708354D01*
X122472221Y-71746047D01*
X122453654Y-71780783D01*
X122428668Y-71811228D01*
X122398223Y-71836214D01*
X122363487Y-71854781D01*
X122325794Y-71866215D01*
X122280459Y-71870680D01*
X121193781Y-71870680D01*
X121148446Y-71866215D01*
X121110753Y-71854781D01*
X121076017Y-71836214D01*
X121045572Y-71811228D01*
X121020586Y-71780783D01*
X121002019Y-71746047D01*
X120990585Y-71708354D01*
X120986120Y-71663019D01*
X120986120Y-70826341D01*
X120990585Y-70781006D01*
X121002019Y-70743313D01*
X121020586Y-70708577D01*
X121045572Y-70678132D01*
X121076017Y-70653146D01*
X121110753Y-70634579D01*
X121148446Y-70623145D01*
X121193781Y-70618680D01*
X122280459Y-70618680D01*
X122325794Y-70623145D01*
G37*
G36*
X126389794Y-70623145D02*
G01*
X126427487Y-70634579D01*
X126462223Y-70653146D01*
X126492668Y-70678132D01*
X126517654Y-70708577D01*
X126536221Y-70743313D01*
X126547655Y-70781006D01*
X126552120Y-70826341D01*
X126552120Y-71663019D01*
X126547655Y-71708354D01*
X126536221Y-71746047D01*
X126517654Y-71780783D01*
X126492668Y-71811228D01*
X126462223Y-71836214D01*
X126427487Y-71854781D01*
X126389794Y-71866215D01*
X126344459Y-71870680D01*
X125257781Y-71870680D01*
X125212446Y-71866215D01*
X125174753Y-71854781D01*
X125140017Y-71836214D01*
X125109572Y-71811228D01*
X125084586Y-71780783D01*
X125066019Y-71746047D01*
X125054585Y-71708354D01*
X125050120Y-71663019D01*
X125050120Y-70826341D01*
X125054585Y-70781006D01*
X125066019Y-70743313D01*
X125084586Y-70708577D01*
X125109572Y-70678132D01*
X125140017Y-70653146D01*
X125174753Y-70634579D01*
X125212446Y-70623145D01*
X125257781Y-70618680D01*
X126344459Y-70618680D01*
X126389794Y-70623145D01*
G37*
G36*
X116737794Y-70605145D02*
G01*
X116775487Y-70616579D01*
X116810223Y-70635146D01*
X116840668Y-70660132D01*
X116865654Y-70690577D01*
X116884221Y-70725313D01*
X116895655Y-70763006D01*
X116900120Y-70808341D01*
X116900120Y-71645019D01*
X116895655Y-71690354D01*
X116884221Y-71728047D01*
X116865654Y-71762783D01*
X116840668Y-71793228D01*
X116810223Y-71818214D01*
X116775487Y-71836781D01*
X116737794Y-71848215D01*
X116692459Y-71852680D01*
X115605781Y-71852680D01*
X115560446Y-71848215D01*
X115522753Y-71836781D01*
X115488017Y-71818214D01*
X115457572Y-71793228D01*
X115432586Y-71762783D01*
X115414019Y-71728047D01*
X115402585Y-71690354D01*
X115398120Y-71645019D01*
X115398120Y-70808341D01*
X115402585Y-70763006D01*
X115414019Y-70725313D01*
X115432586Y-70690577D01*
X115457572Y-70660132D01*
X115488017Y-70635146D01*
X115522753Y-70616579D01*
X115560446Y-70605145D01*
X115605781Y-70600680D01*
X116692459Y-70600680D01*
X116737794Y-70605145D01*
G37*
G36*
X109992920Y-69896680D02*
G01*
X108690920Y-69896680D01*
X108690920Y-69244680D01*
X109992920Y-69244680D01*
X109992920Y-69896680D01*
G37*
G36*
X112609120Y-69896680D02*
G01*
X111307120Y-69896680D01*
X111307120Y-69244680D01*
X112609120Y-69244680D01*
X112609120Y-69896680D01*
G37*
G36*
X128421794Y-68573145D02*
G01*
X128459487Y-68584579D01*
X128494223Y-68603146D01*
X128524668Y-68628132D01*
X128549654Y-68658577D01*
X128568221Y-68693313D01*
X128579655Y-68731006D01*
X128584120Y-68776341D01*
X128584120Y-69613019D01*
X128579655Y-69658354D01*
X128568221Y-69696047D01*
X128549654Y-69730783D01*
X128524668Y-69761228D01*
X128494223Y-69786214D01*
X128459487Y-69804781D01*
X128421794Y-69816215D01*
X128376459Y-69820680D01*
X127289781Y-69820680D01*
X127244446Y-69816215D01*
X127206753Y-69804781D01*
X127172017Y-69786214D01*
X127141572Y-69761228D01*
X127116586Y-69730783D01*
X127098019Y-69696047D01*
X127086585Y-69658354D01*
X127082120Y-69613019D01*
X127082120Y-68776341D01*
X127086585Y-68731006D01*
X127098019Y-68693313D01*
X127116586Y-68658577D01*
X127141572Y-68628132D01*
X127172017Y-68603146D01*
X127206753Y-68584579D01*
X127244446Y-68573145D01*
X127289781Y-68568680D01*
X128376459Y-68568680D01*
X128421794Y-68573145D01*
G37*
G36*
X126389794Y-68573145D02*
G01*
X126427487Y-68584579D01*
X126462223Y-68603146D01*
X126492668Y-68628132D01*
X126517654Y-68658577D01*
X126536221Y-68693313D01*
X126547655Y-68731006D01*
X126552120Y-68776341D01*
X126552120Y-69613019D01*
X126547655Y-69658354D01*
X126536221Y-69696047D01*
X126517654Y-69730783D01*
X126492668Y-69761228D01*
X126462223Y-69786214D01*
X126427487Y-69804781D01*
X126389794Y-69816215D01*
X126344459Y-69820680D01*
X125257781Y-69820680D01*
X125212446Y-69816215D01*
X125174753Y-69804781D01*
X125140017Y-69786214D01*
X125109572Y-69761228D01*
X125084586Y-69730783D01*
X125066019Y-69696047D01*
X125054585Y-69658354D01*
X125050120Y-69613019D01*
X125050120Y-68776341D01*
X125054585Y-68731006D01*
X125066019Y-68693313D01*
X125084586Y-68658577D01*
X125109572Y-68628132D01*
X125140017Y-68603146D01*
X125174753Y-68584579D01*
X125212446Y-68573145D01*
X125257781Y-68568680D01*
X126344459Y-68568680D01*
X126389794Y-68573145D01*
G37*
G36*
X124357794Y-68573145D02*
G01*
X124395487Y-68584579D01*
X124430223Y-68603146D01*
X124460668Y-68628132D01*
X124485654Y-68658577D01*
X124504221Y-68693313D01*
X124515655Y-68731006D01*
X124520120Y-68776341D01*
X124520120Y-69613019D01*
X124515655Y-69658354D01*
X124504221Y-69696047D01*
X124485654Y-69730783D01*
X124460668Y-69761228D01*
X124430223Y-69786214D01*
X124395487Y-69804781D01*
X124357794Y-69816215D01*
X124312459Y-69820680D01*
X123225781Y-69820680D01*
X123180446Y-69816215D01*
X123142753Y-69804781D01*
X123108017Y-69786214D01*
X123077572Y-69761228D01*
X123052586Y-69730783D01*
X123034019Y-69696047D01*
X123022585Y-69658354D01*
X123018120Y-69613019D01*
X123018120Y-68776341D01*
X123022585Y-68731006D01*
X123034019Y-68693313D01*
X123052586Y-68658577D01*
X123077572Y-68628132D01*
X123108017Y-68603146D01*
X123142753Y-68584579D01*
X123180446Y-68573145D01*
X123225781Y-68568680D01*
X124312459Y-68568680D01*
X124357794Y-68573145D01*
G37*
G36*
X122325794Y-68573145D02*
G01*
X122363487Y-68584579D01*
X122398223Y-68603146D01*
X122428668Y-68628132D01*
X122453654Y-68658577D01*
X122472221Y-68693313D01*
X122483655Y-68731006D01*
X122488120Y-68776341D01*
X122488120Y-69613019D01*
X122483655Y-69658354D01*
X122472221Y-69696047D01*
X122453654Y-69730783D01*
X122428668Y-69761228D01*
X122398223Y-69786214D01*
X122363487Y-69804781D01*
X122325794Y-69816215D01*
X122280459Y-69820680D01*
X121193781Y-69820680D01*
X121148446Y-69816215D01*
X121110753Y-69804781D01*
X121076017Y-69786214D01*
X121045572Y-69761228D01*
X121020586Y-69730783D01*
X121002019Y-69696047D01*
X120990585Y-69658354D01*
X120986120Y-69613019D01*
X120986120Y-68776341D01*
X120990585Y-68731006D01*
X121002019Y-68693313D01*
X121020586Y-68658577D01*
X121045572Y-68628132D01*
X121076017Y-68603146D01*
X121110753Y-68584579D01*
X121148446Y-68573145D01*
X121193781Y-68568680D01*
X122280459Y-68568680D01*
X122325794Y-68573145D01*
G37*
G36*
X116737794Y-68555145D02*
G01*
X116775487Y-68566579D01*
X116810223Y-68585146D01*
X116840668Y-68610132D01*
X116865654Y-68640577D01*
X116884221Y-68675313D01*
X116895655Y-68713006D01*
X116900120Y-68758341D01*
X116900120Y-69595019D01*
X116895655Y-69640354D01*
X116884221Y-69678047D01*
X116865654Y-69712783D01*
X116840668Y-69743228D01*
X116810223Y-69768214D01*
X116775487Y-69786781D01*
X116737794Y-69798215D01*
X116692459Y-69802680D01*
X115605781Y-69802680D01*
X115560446Y-69798215D01*
X115522753Y-69786781D01*
X115488017Y-69768214D01*
X115457572Y-69743228D01*
X115432586Y-69712783D01*
X115414019Y-69678047D01*
X115402585Y-69640354D01*
X115398120Y-69595019D01*
X115398120Y-68758341D01*
X115402585Y-68713006D01*
X115414019Y-68675313D01*
X115432586Y-68640577D01*
X115457572Y-68610132D01*
X115488017Y-68585146D01*
X115522753Y-68566579D01*
X115560446Y-68555145D01*
X115605781Y-68550680D01*
X116692459Y-68550680D01*
X116737794Y-68555145D01*
G37*
G36*
X118253120Y-69464680D02*
G01*
X117601120Y-69464680D01*
X117601120Y-68162680D01*
X118253120Y-68162680D01*
X118253120Y-69464680D01*
G37*
G36*
X119203120Y-69464680D02*
G01*
X118551120Y-69464680D01*
X118551120Y-68162680D01*
X119203120Y-68162680D01*
X119203120Y-69464680D01*
G37*
G36*
X120153120Y-69464680D02*
G01*
X119501120Y-69464680D01*
X119501120Y-68162680D01*
X120153120Y-68162680D01*
X120153120Y-69464680D01*
G37*
G36*
X112609120Y-68946680D02*
G01*
X111307120Y-68946680D01*
X111307120Y-68294680D01*
X112609120Y-68294680D01*
X112609120Y-68946680D01*
G37*
G36*
X109992920Y-68946680D02*
G01*
X108690920Y-68946680D01*
X108690920Y-68294680D01*
X109992920Y-68294680D01*
X109992920Y-68946680D01*
G37*
G36*
X109992920Y-67996680D02*
G01*
X108690920Y-67996680D01*
X108690920Y-67344680D01*
X109992920Y-67344680D01*
X109992920Y-67996680D01*
G37*
G36*
X112609120Y-67996680D02*
G01*
X111307120Y-67996680D01*
X111307120Y-67344680D01*
X112609120Y-67344680D01*
X112609120Y-67996680D01*
G37*
G36*
X112303794Y-65400145D02*
G01*
X112341487Y-65411579D01*
X112376223Y-65430146D01*
X112406668Y-65455132D01*
X112431654Y-65485577D01*
X112450221Y-65520313D01*
X112461655Y-65558006D01*
X112466120Y-65603341D01*
X112466120Y-66690019D01*
X112461655Y-66735354D01*
X112450221Y-66773047D01*
X112431654Y-66807783D01*
X112406668Y-66838228D01*
X112376223Y-66863214D01*
X112341487Y-66881781D01*
X112303794Y-66893215D01*
X112258459Y-66897680D01*
X111421781Y-66897680D01*
X111376446Y-66893215D01*
X111338753Y-66881781D01*
X111304017Y-66863214D01*
X111273572Y-66838228D01*
X111248586Y-66807783D01*
X111230019Y-66773047D01*
X111218585Y-66735354D01*
X111214120Y-66690019D01*
X111214120Y-65603341D01*
X111218585Y-65558006D01*
X111230019Y-65520313D01*
X111248586Y-65485577D01*
X111273572Y-65455132D01*
X111304017Y-65430146D01*
X111338753Y-65411579D01*
X111376446Y-65400145D01*
X111421781Y-65395680D01*
X112258459Y-65395680D01*
X112303794Y-65400145D01*
G37*
G36*
X110253794Y-65400145D02*
G01*
X110291487Y-65411579D01*
X110326223Y-65430146D01*
X110356668Y-65455132D01*
X110381654Y-65485577D01*
X110400221Y-65520313D01*
X110411655Y-65558006D01*
X110416120Y-65603341D01*
X110416120Y-66690019D01*
X110411655Y-66735354D01*
X110400221Y-66773047D01*
X110381654Y-66807783D01*
X110356668Y-66838228D01*
X110326223Y-66863214D01*
X110291487Y-66881781D01*
X110253794Y-66893215D01*
X110208459Y-66897680D01*
X109371781Y-66897680D01*
X109326446Y-66893215D01*
X109288753Y-66881781D01*
X109254017Y-66863214D01*
X109223572Y-66838228D01*
X109198586Y-66807783D01*
X109180019Y-66773047D01*
X109168585Y-66735354D01*
X109164120Y-66690019D01*
X109164120Y-65603341D01*
X109168585Y-65558006D01*
X109180019Y-65520313D01*
X109198586Y-65485577D01*
X109223572Y-65455132D01*
X109254017Y-65430146D01*
X109288753Y-65411579D01*
X109326446Y-65400145D01*
X109371781Y-65395680D01*
X110208459Y-65395680D01*
X110253794Y-65400145D01*
G37*
G36*
X118261794Y-64781145D02*
G01*
X118299487Y-64792579D01*
X118334223Y-64811146D01*
X118364668Y-64836132D01*
X118389654Y-64866577D01*
X118408221Y-64901313D01*
X118419655Y-64939006D01*
X118424120Y-64984341D01*
X118424120Y-65821019D01*
X118419655Y-65866354D01*
X118408221Y-65904047D01*
X118389654Y-65938783D01*
X118364668Y-65969228D01*
X118334223Y-65994214D01*
X118299487Y-66012781D01*
X118261794Y-66024215D01*
X118216459Y-66028680D01*
X117129781Y-66028680D01*
X117084446Y-66024215D01*
X117046753Y-66012781D01*
X117012017Y-65994214D01*
X116981572Y-65969228D01*
X116956586Y-65938783D01*
X116938019Y-65904047D01*
X116926585Y-65866354D01*
X116922120Y-65821019D01*
X116922120Y-64984341D01*
X116926585Y-64939006D01*
X116938019Y-64901313D01*
X116956586Y-64866577D01*
X116981572Y-64836132D01*
X117012017Y-64811146D01*
X117046753Y-64792579D01*
X117084446Y-64781145D01*
X117129781Y-64776680D01*
X118216459Y-64776680D01*
X118261794Y-64781145D01*
G37*
G36*
X122325794Y-64781145D02*
G01*
X122363487Y-64792579D01*
X122398223Y-64811146D01*
X122428668Y-64836132D01*
X122453654Y-64866577D01*
X122472221Y-64901313D01*
X122483655Y-64939006D01*
X122488120Y-64984341D01*
X122488120Y-65821019D01*
X122483655Y-65866354D01*
X122472221Y-65904047D01*
X122453654Y-65938783D01*
X122428668Y-65969228D01*
X122398223Y-65994214D01*
X122363487Y-66012781D01*
X122325794Y-66024215D01*
X122280459Y-66028680D01*
X121193781Y-66028680D01*
X121148446Y-66024215D01*
X121110753Y-66012781D01*
X121076017Y-65994214D01*
X121045572Y-65969228D01*
X121020586Y-65938783D01*
X121002019Y-65904047D01*
X120990585Y-65866354D01*
X120986120Y-65821019D01*
X120986120Y-64984341D01*
X120990585Y-64939006D01*
X121002019Y-64901313D01*
X121020586Y-64866577D01*
X121045572Y-64836132D01*
X121076017Y-64811146D01*
X121110753Y-64792579D01*
X121148446Y-64781145D01*
X121193781Y-64776680D01*
X122280459Y-64776680D01*
X122325794Y-64781145D01*
G37*
G36*
X124357794Y-64781145D02*
G01*
X124395487Y-64792579D01*
X124430223Y-64811146D01*
X124460668Y-64836132D01*
X124485654Y-64866577D01*
X124504221Y-64901313D01*
X124515655Y-64939006D01*
X124520120Y-64984341D01*
X124520120Y-65821019D01*
X124515655Y-65866354D01*
X124504221Y-65904047D01*
X124485654Y-65938783D01*
X124460668Y-65969228D01*
X124430223Y-65994214D01*
X124395487Y-66012781D01*
X124357794Y-66024215D01*
X124312459Y-66028680D01*
X123225781Y-66028680D01*
X123180446Y-66024215D01*
X123142753Y-66012781D01*
X123108017Y-65994214D01*
X123077572Y-65969228D01*
X123052586Y-65938783D01*
X123034019Y-65904047D01*
X123022585Y-65866354D01*
X123018120Y-65821019D01*
X123018120Y-64984341D01*
X123022585Y-64939006D01*
X123034019Y-64901313D01*
X123052586Y-64866577D01*
X123077572Y-64836132D01*
X123108017Y-64811146D01*
X123142753Y-64792579D01*
X123180446Y-64781145D01*
X123225781Y-64776680D01*
X124312459Y-64776680D01*
X124357794Y-64781145D01*
G37*
G36*
X126389794Y-64781145D02*
G01*
X126427487Y-64792579D01*
X126462223Y-64811146D01*
X126492668Y-64836132D01*
X126517654Y-64866577D01*
X126536221Y-64901313D01*
X126547655Y-64939006D01*
X126552120Y-64984341D01*
X126552120Y-65821019D01*
X126547655Y-65866354D01*
X126536221Y-65904047D01*
X126517654Y-65938783D01*
X126492668Y-65969228D01*
X126462223Y-65994214D01*
X126427487Y-66012781D01*
X126389794Y-66024215D01*
X126344459Y-66028680D01*
X125257781Y-66028680D01*
X125212446Y-66024215D01*
X125174753Y-66012781D01*
X125140017Y-65994214D01*
X125109572Y-65969228D01*
X125084586Y-65938783D01*
X125066019Y-65904047D01*
X125054585Y-65866354D01*
X125050120Y-65821019D01*
X125050120Y-64984341D01*
X125054585Y-64939006D01*
X125066019Y-64901313D01*
X125084586Y-64866577D01*
X125109572Y-64836132D01*
X125140017Y-64811146D01*
X125174753Y-64792579D01*
X125212446Y-64781145D01*
X125257781Y-64776680D01*
X126344459Y-64776680D01*
X126389794Y-64781145D01*
G37*
G36*
X120293794Y-64781145D02*
G01*
X120331487Y-64792579D01*
X120366223Y-64811146D01*
X120396668Y-64836132D01*
X120421654Y-64866577D01*
X120440221Y-64901313D01*
X120451655Y-64939006D01*
X120456120Y-64984341D01*
X120456120Y-65821019D01*
X120451655Y-65866354D01*
X120440221Y-65904047D01*
X120421654Y-65938783D01*
X120396668Y-65969228D01*
X120366223Y-65994214D01*
X120331487Y-66012781D01*
X120293794Y-66024215D01*
X120248459Y-66028680D01*
X119161781Y-66028680D01*
X119116446Y-66024215D01*
X119078753Y-66012781D01*
X119044017Y-65994214D01*
X119013572Y-65969228D01*
X118988586Y-65938783D01*
X118970019Y-65904047D01*
X118958585Y-65866354D01*
X118954120Y-65821019D01*
X118954120Y-64984341D01*
X118958585Y-64939006D01*
X118970019Y-64901313D01*
X118988586Y-64866577D01*
X119013572Y-64836132D01*
X119044017Y-64811146D01*
X119078753Y-64792579D01*
X119116446Y-64781145D01*
X119161781Y-64776680D01*
X120248459Y-64776680D01*
X120293794Y-64781145D01*
G37*
G36*
X128421794Y-64781145D02*
G01*
X128459487Y-64792579D01*
X128494223Y-64811146D01*
X128524668Y-64836132D01*
X128549654Y-64866577D01*
X128568221Y-64901313D01*
X128579655Y-64939006D01*
X128584120Y-64984341D01*
X128584120Y-65821019D01*
X128579655Y-65866354D01*
X128568221Y-65904047D01*
X128549654Y-65938783D01*
X128524668Y-65969228D01*
X128494223Y-65994214D01*
X128459487Y-66012781D01*
X128421794Y-66024215D01*
X128376459Y-66028680D01*
X127289781Y-66028680D01*
X127244446Y-66024215D01*
X127206753Y-66012781D01*
X127172017Y-65994214D01*
X127141572Y-65969228D01*
X127116586Y-65938783D01*
X127098019Y-65904047D01*
X127086585Y-65866354D01*
X127082120Y-65821019D01*
X127082120Y-64984341D01*
X127086585Y-64939006D01*
X127098019Y-64901313D01*
X127116586Y-64866577D01*
X127141572Y-64836132D01*
X127172017Y-64811146D01*
X127206753Y-64792579D01*
X127244446Y-64781145D01*
X127289781Y-64776680D01*
X128376459Y-64776680D01*
X128421794Y-64781145D01*
G37*
G36*
X110262794Y-63368145D02*
G01*
X110300487Y-63379579D01*
X110335223Y-63398146D01*
X110365668Y-63423132D01*
X110390654Y-63453577D01*
X110409221Y-63488313D01*
X110420655Y-63526006D01*
X110425120Y-63571341D01*
X110425120Y-64658019D01*
X110420655Y-64703354D01*
X110409221Y-64741047D01*
X110390654Y-64775783D01*
X110365668Y-64806228D01*
X110335223Y-64831214D01*
X110300487Y-64849781D01*
X110262794Y-64861215D01*
X110217459Y-64865680D01*
X109380781Y-64865680D01*
X109335446Y-64861215D01*
X109297753Y-64849781D01*
X109263017Y-64831214D01*
X109232572Y-64806228D01*
X109207586Y-64775783D01*
X109189019Y-64741047D01*
X109177585Y-64703354D01*
X109173120Y-64658019D01*
X109173120Y-63571341D01*
X109177585Y-63526006D01*
X109189019Y-63488313D01*
X109207586Y-63453577D01*
X109232572Y-63423132D01*
X109263017Y-63398146D01*
X109297753Y-63379579D01*
X109335446Y-63368145D01*
X109380781Y-63363680D01*
X110217459Y-63363680D01*
X110262794Y-63368145D01*
G37*
G36*
X112312794Y-63368145D02*
G01*
X112350487Y-63379579D01*
X112385223Y-63398146D01*
X112415668Y-63423132D01*
X112440654Y-63453577D01*
X112459221Y-63488313D01*
X112470655Y-63526006D01*
X112475120Y-63571341D01*
X112475120Y-64658019D01*
X112470655Y-64703354D01*
X112459221Y-64741047D01*
X112440654Y-64775783D01*
X112415668Y-64806228D01*
X112385223Y-64831214D01*
X112350487Y-64849781D01*
X112312794Y-64861215D01*
X112267459Y-64865680D01*
X111430781Y-64865680D01*
X111385446Y-64861215D01*
X111347753Y-64849781D01*
X111313017Y-64831214D01*
X111282572Y-64806228D01*
X111257586Y-64775783D01*
X111239019Y-64741047D01*
X111227585Y-64703354D01*
X111223120Y-64658019D01*
X111223120Y-63571341D01*
X111227585Y-63526006D01*
X111239019Y-63488313D01*
X111257586Y-63453577D01*
X111282572Y-63423132D01*
X111313017Y-63398146D01*
X111347753Y-63379579D01*
X111385446Y-63368145D01*
X111430781Y-63363680D01*
X112267459Y-63363680D01*
X112312794Y-63368145D01*
G37*
G36*
X124357794Y-62731145D02*
G01*
X124395487Y-62742579D01*
X124430223Y-62761146D01*
X124460668Y-62786132D01*
X124485654Y-62816577D01*
X124504221Y-62851313D01*
X124515655Y-62889006D01*
X124520120Y-62934341D01*
X124520120Y-63771019D01*
X124515655Y-63816354D01*
X124504221Y-63854047D01*
X124485654Y-63888783D01*
X124460668Y-63919228D01*
X124430223Y-63944214D01*
X124395487Y-63962781D01*
X124357794Y-63974215D01*
X124312459Y-63978680D01*
X123225781Y-63978680D01*
X123180446Y-63974215D01*
X123142753Y-63962781D01*
X123108017Y-63944214D01*
X123077572Y-63919228D01*
X123052586Y-63888783D01*
X123034019Y-63854047D01*
X123022585Y-63816354D01*
X123018120Y-63771019D01*
X123018120Y-62934341D01*
X123022585Y-62889006D01*
X123034019Y-62851313D01*
X123052586Y-62816577D01*
X123077572Y-62786132D01*
X123108017Y-62761146D01*
X123142753Y-62742579D01*
X123180446Y-62731145D01*
X123225781Y-62726680D01*
X124312459Y-62726680D01*
X124357794Y-62731145D01*
G37*
G36*
X120293794Y-62731145D02*
G01*
X120331487Y-62742579D01*
X120366223Y-62761146D01*
X120396668Y-62786132D01*
X120421654Y-62816577D01*
X120440221Y-62851313D01*
X120451655Y-62889006D01*
X120456120Y-62934341D01*
X120456120Y-63771019D01*
X120451655Y-63816354D01*
X120440221Y-63854047D01*
X120421654Y-63888783D01*
X120396668Y-63919228D01*
X120366223Y-63944214D01*
X120331487Y-63962781D01*
X120293794Y-63974215D01*
X120248459Y-63978680D01*
X119161781Y-63978680D01*
X119116446Y-63974215D01*
X119078753Y-63962781D01*
X119044017Y-63944214D01*
X119013572Y-63919228D01*
X118988586Y-63888783D01*
X118970019Y-63854047D01*
X118958585Y-63816354D01*
X118954120Y-63771019D01*
X118954120Y-62934341D01*
X118958585Y-62889006D01*
X118970019Y-62851313D01*
X118988586Y-62816577D01*
X119013572Y-62786132D01*
X119044017Y-62761146D01*
X119078753Y-62742579D01*
X119116446Y-62731145D01*
X119161781Y-62726680D01*
X120248459Y-62726680D01*
X120293794Y-62731145D01*
G37*
G36*
X118261794Y-62731145D02*
G01*
X118299487Y-62742579D01*
X118334223Y-62761146D01*
X118364668Y-62786132D01*
X118389654Y-62816577D01*
X118408221Y-62851313D01*
X118419655Y-62889006D01*
X118424120Y-62934341D01*
X118424120Y-63771019D01*
X118419655Y-63816354D01*
X118408221Y-63854047D01*
X118389654Y-63888783D01*
X118364668Y-63919228D01*
X118334223Y-63944214D01*
X118299487Y-63962781D01*
X118261794Y-63974215D01*
X118216459Y-63978680D01*
X117129781Y-63978680D01*
X117084446Y-63974215D01*
X117046753Y-63962781D01*
X117012017Y-63944214D01*
X116981572Y-63919228D01*
X116956586Y-63888783D01*
X116938019Y-63854047D01*
X116926585Y-63816354D01*
X116922120Y-63771019D01*
X116922120Y-62934341D01*
X116926585Y-62889006D01*
X116938019Y-62851313D01*
X116956586Y-62816577D01*
X116981572Y-62786132D01*
X117012017Y-62761146D01*
X117046753Y-62742579D01*
X117084446Y-62731145D01*
X117129781Y-62726680D01*
X118216459Y-62726680D01*
X118261794Y-62731145D01*
G37*
G36*
X128421794Y-62731145D02*
G01*
X128459487Y-62742579D01*
X128494223Y-62761146D01*
X128524668Y-62786132D01*
X128549654Y-62816577D01*
X128568221Y-62851313D01*
X128579655Y-62889006D01*
X128584120Y-62934341D01*
X128584120Y-63771019D01*
X128579655Y-63816354D01*
X128568221Y-63854047D01*
X128549654Y-63888783D01*
X128524668Y-63919228D01*
X128494223Y-63944214D01*
X128459487Y-63962781D01*
X128421794Y-63974215D01*
X128376459Y-63978680D01*
X127289781Y-63978680D01*
X127244446Y-63974215D01*
X127206753Y-63962781D01*
X127172017Y-63944214D01*
X127141572Y-63919228D01*
X127116586Y-63888783D01*
X127098019Y-63854047D01*
X127086585Y-63816354D01*
X127082120Y-63771019D01*
X127082120Y-62934341D01*
X127086585Y-62889006D01*
X127098019Y-62851313D01*
X127116586Y-62816577D01*
X127141572Y-62786132D01*
X127172017Y-62761146D01*
X127206753Y-62742579D01*
X127244446Y-62731145D01*
X127289781Y-62726680D01*
X128376459Y-62726680D01*
X128421794Y-62731145D01*
G37*
G36*
X126389794Y-62731145D02*
G01*
X126427487Y-62742579D01*
X126462223Y-62761146D01*
X126492668Y-62786132D01*
X126517654Y-62816577D01*
X126536221Y-62851313D01*
X126547655Y-62889006D01*
X126552120Y-62934341D01*
X126552120Y-63771019D01*
X126547655Y-63816354D01*
X126536221Y-63854047D01*
X126517654Y-63888783D01*
X126492668Y-63919228D01*
X126462223Y-63944214D01*
X126427487Y-63962781D01*
X126389794Y-63974215D01*
X126344459Y-63978680D01*
X125257781Y-63978680D01*
X125212446Y-63974215D01*
X125174753Y-63962781D01*
X125140017Y-63944214D01*
X125109572Y-63919228D01*
X125084586Y-63888783D01*
X125066019Y-63854047D01*
X125054585Y-63816354D01*
X125050120Y-63771019D01*
X125050120Y-62934341D01*
X125054585Y-62889006D01*
X125066019Y-62851313D01*
X125084586Y-62816577D01*
X125109572Y-62786132D01*
X125140017Y-62761146D01*
X125174753Y-62742579D01*
X125212446Y-62731145D01*
X125257781Y-62726680D01*
X126344459Y-62726680D01*
X126389794Y-62731145D01*
G37*
G36*
X122325794Y-62731145D02*
G01*
X122363487Y-62742579D01*
X122398223Y-62761146D01*
X122428668Y-62786132D01*
X122453654Y-62816577D01*
X122472221Y-62851313D01*
X122483655Y-62889006D01*
X122488120Y-62934341D01*
X122488120Y-63771019D01*
X122483655Y-63816354D01*
X122472221Y-63854047D01*
X122453654Y-63888783D01*
X122428668Y-63919228D01*
X122398223Y-63944214D01*
X122363487Y-63962781D01*
X122325794Y-63974215D01*
X122280459Y-63978680D01*
X121193781Y-63978680D01*
X121148446Y-63974215D01*
X121110753Y-63962781D01*
X121076017Y-63944214D01*
X121045572Y-63919228D01*
X121020586Y-63888783D01*
X121002019Y-63854047D01*
X120990585Y-63816354D01*
X120986120Y-63771019D01*
X120986120Y-62934341D01*
X120990585Y-62889006D01*
X121002019Y-62851313D01*
X121020586Y-62816577D01*
X121045572Y-62786132D01*
X121076017Y-62761146D01*
X121110753Y-62742579D01*
X121148446Y-62731145D01*
X121193781Y-62726680D01*
X122280459Y-62726680D01*
X122325794Y-62731145D01*
G37*
G36*
X110262794Y-61336145D02*
G01*
X110300487Y-61347579D01*
X110335223Y-61366146D01*
X110365668Y-61391132D01*
X110390654Y-61421577D01*
X110409221Y-61456313D01*
X110420655Y-61494006D01*
X110425120Y-61539341D01*
X110425120Y-62626019D01*
X110420655Y-62671354D01*
X110409221Y-62709047D01*
X110390654Y-62743783D01*
X110365668Y-62774228D01*
X110335223Y-62799214D01*
X110300487Y-62817781D01*
X110262794Y-62829215D01*
X110217459Y-62833680D01*
X109380781Y-62833680D01*
X109335446Y-62829215D01*
X109297753Y-62817781D01*
X109263017Y-62799214D01*
X109232572Y-62774228D01*
X109207586Y-62743783D01*
X109189019Y-62709047D01*
X109177585Y-62671354D01*
X109173120Y-62626019D01*
X109173120Y-61539341D01*
X109177585Y-61494006D01*
X109189019Y-61456313D01*
X109207586Y-61421577D01*
X109232572Y-61391132D01*
X109263017Y-61366146D01*
X109297753Y-61347579D01*
X109335446Y-61336145D01*
X109380781Y-61331680D01*
X110217459Y-61331680D01*
X110262794Y-61336145D01*
G37*
G36*
X112312794Y-61336145D02*
G01*
X112350487Y-61347579D01*
X112385223Y-61366146D01*
X112415668Y-61391132D01*
X112440654Y-61421577D01*
X112459221Y-61456313D01*
X112470655Y-61494006D01*
X112475120Y-61539341D01*
X112475120Y-62626019D01*
X112470655Y-62671354D01*
X112459221Y-62709047D01*
X112440654Y-62743783D01*
X112415668Y-62774228D01*
X112385223Y-62799214D01*
X112350487Y-62817781D01*
X112312794Y-62829215D01*
X112267459Y-62833680D01*
X111430781Y-62833680D01*
X111385446Y-62829215D01*
X111347753Y-62817781D01*
X111313017Y-62799214D01*
X111282572Y-62774228D01*
X111257586Y-62743783D01*
X111239019Y-62709047D01*
X111227585Y-62671354D01*
X111223120Y-62626019D01*
X111223120Y-61539341D01*
X111227585Y-61494006D01*
X111239019Y-61456313D01*
X111257586Y-61421577D01*
X111282572Y-61391132D01*
X111313017Y-61366146D01*
X111347753Y-61347579D01*
X111385446Y-61336145D01*
X111430781Y-61331680D01*
X112267459Y-61331680D01*
X112312794Y-61336145D01*
G37*
G36*
X112312794Y-59304145D02*
G01*
X112350487Y-59315579D01*
X112385223Y-59334146D01*
X112415668Y-59359132D01*
X112440654Y-59389577D01*
X112459221Y-59424313D01*
X112470655Y-59462006D01*
X112475120Y-59507341D01*
X112475120Y-60594019D01*
X112470655Y-60639354D01*
X112459221Y-60677047D01*
X112440654Y-60711783D01*
X112415668Y-60742228D01*
X112385223Y-60767214D01*
X112350487Y-60785781D01*
X112312794Y-60797215D01*
X112267459Y-60801680D01*
X111430781Y-60801680D01*
X111385446Y-60797215D01*
X111347753Y-60785781D01*
X111313017Y-60767214D01*
X111282572Y-60742228D01*
X111257586Y-60711783D01*
X111239019Y-60677047D01*
X111227585Y-60639354D01*
X111223120Y-60594019D01*
X111223120Y-59507341D01*
X111227585Y-59462006D01*
X111239019Y-59424313D01*
X111257586Y-59389577D01*
X111282572Y-59359132D01*
X111313017Y-59334146D01*
X111347753Y-59315579D01*
X111385446Y-59304145D01*
X111430781Y-59299680D01*
X112267459Y-59299680D01*
X112312794Y-59304145D01*
G37*
G36*
X110262794Y-59304145D02*
G01*
X110300487Y-59315579D01*
X110335223Y-59334146D01*
X110365668Y-59359132D01*
X110390654Y-59389577D01*
X110409221Y-59424313D01*
X110420655Y-59462006D01*
X110425120Y-59507341D01*
X110425120Y-60594019D01*
X110420655Y-60639354D01*
X110409221Y-60677047D01*
X110390654Y-60711783D01*
X110365668Y-60742228D01*
X110335223Y-60767214D01*
X110300487Y-60785781D01*
X110262794Y-60797215D01*
X110217459Y-60801680D01*
X109380781Y-60801680D01*
X109335446Y-60797215D01*
X109297753Y-60785781D01*
X109263017Y-60767214D01*
X109232572Y-60742228D01*
X109207586Y-60711783D01*
X109189019Y-60677047D01*
X109177585Y-60639354D01*
X109173120Y-60594019D01*
X109173120Y-59507341D01*
X109177585Y-59462006D01*
X109189019Y-59424313D01*
X109207586Y-59389577D01*
X109232572Y-59359132D01*
X109263017Y-59334146D01*
X109297753Y-59315579D01*
X109335446Y-59304145D01*
X109380781Y-59299680D01*
X110217459Y-59299680D01*
X110262794Y-59304145D01*
G37*
G36*
X116353120Y-59050680D02*
G01*
X115701120Y-59050680D01*
X115701120Y-57748680D01*
X116353120Y-57748680D01*
X116353120Y-59050680D01*
G37*
G36*
X117303120Y-59050680D02*
G01*
X116651120Y-59050680D01*
X116651120Y-57748680D01*
X117303120Y-57748680D01*
X117303120Y-59050680D01*
G37*
G36*
X118253120Y-59050680D02*
G01*
X117601120Y-59050680D01*
X117601120Y-57748680D01*
X118253120Y-57748680D01*
X118253120Y-59050680D01*
G37*
G36*
X124357794Y-57397145D02*
G01*
X124395487Y-57408579D01*
X124430223Y-57427146D01*
X124460668Y-57452132D01*
X124485654Y-57482577D01*
X124504221Y-57517313D01*
X124515655Y-57555006D01*
X124520120Y-57600341D01*
X124520120Y-58437019D01*
X124515655Y-58482354D01*
X124504221Y-58520047D01*
X124485654Y-58554783D01*
X124460668Y-58585228D01*
X124430223Y-58610214D01*
X124395487Y-58628781D01*
X124357794Y-58640215D01*
X124312459Y-58644680D01*
X123225781Y-58644680D01*
X123180446Y-58640215D01*
X123142753Y-58628781D01*
X123108017Y-58610214D01*
X123077572Y-58585228D01*
X123052586Y-58554783D01*
X123034019Y-58520047D01*
X123022585Y-58482354D01*
X123018120Y-58437019D01*
X123018120Y-57600341D01*
X123022585Y-57555006D01*
X123034019Y-57517313D01*
X123052586Y-57482577D01*
X123077572Y-57452132D01*
X123108017Y-57427146D01*
X123142753Y-57408579D01*
X123180446Y-57397145D01*
X123225781Y-57392680D01*
X124312459Y-57392680D01*
X124357794Y-57397145D01*
G37*
G36*
X128421794Y-57397145D02*
G01*
X128459487Y-57408579D01*
X128494223Y-57427146D01*
X128524668Y-57452132D01*
X128549654Y-57482577D01*
X128568221Y-57517313D01*
X128579655Y-57555006D01*
X128584120Y-57600341D01*
X128584120Y-58437019D01*
X128579655Y-58482354D01*
X128568221Y-58520047D01*
X128549654Y-58554783D01*
X128524668Y-58585228D01*
X128494223Y-58610214D01*
X128459487Y-58628781D01*
X128421794Y-58640215D01*
X128376459Y-58644680D01*
X127289781Y-58644680D01*
X127244446Y-58640215D01*
X127206753Y-58628781D01*
X127172017Y-58610214D01*
X127141572Y-58585228D01*
X127116586Y-58554783D01*
X127098019Y-58520047D01*
X127086585Y-58482354D01*
X127082120Y-58437019D01*
X127082120Y-57600341D01*
X127086585Y-57555006D01*
X127098019Y-57517313D01*
X127116586Y-57482577D01*
X127141572Y-57452132D01*
X127172017Y-57427146D01*
X127206753Y-57408579D01*
X127244446Y-57397145D01*
X127289781Y-57392680D01*
X128376459Y-57392680D01*
X128421794Y-57397145D01*
G37*
G36*
X120293794Y-57397145D02*
G01*
X120331487Y-57408579D01*
X120366223Y-57427146D01*
X120396668Y-57452132D01*
X120421654Y-57482577D01*
X120440221Y-57517313D01*
X120451655Y-57555006D01*
X120456120Y-57600341D01*
X120456120Y-58437019D01*
X120451655Y-58482354D01*
X120440221Y-58520047D01*
X120421654Y-58554783D01*
X120396668Y-58585228D01*
X120366223Y-58610214D01*
X120331487Y-58628781D01*
X120293794Y-58640215D01*
X120248459Y-58644680D01*
X119161781Y-58644680D01*
X119116446Y-58640215D01*
X119078753Y-58628781D01*
X119044017Y-58610214D01*
X119013572Y-58585228D01*
X118988586Y-58554783D01*
X118970019Y-58520047D01*
X118958585Y-58482354D01*
X118954120Y-58437019D01*
X118954120Y-57600341D01*
X118958585Y-57555006D01*
X118970019Y-57517313D01*
X118988586Y-57482577D01*
X119013572Y-57452132D01*
X119044017Y-57427146D01*
X119078753Y-57408579D01*
X119116446Y-57397145D01*
X119161781Y-57392680D01*
X120248459Y-57392680D01*
X120293794Y-57397145D01*
G37*
G36*
X126389794Y-57397145D02*
G01*
X126427487Y-57408579D01*
X126462223Y-57427146D01*
X126492668Y-57452132D01*
X126517654Y-57482577D01*
X126536221Y-57517313D01*
X126547655Y-57555006D01*
X126552120Y-57600341D01*
X126552120Y-58437019D01*
X126547655Y-58482354D01*
X126536221Y-58520047D01*
X126517654Y-58554783D01*
X126492668Y-58585228D01*
X126462223Y-58610214D01*
X126427487Y-58628781D01*
X126389794Y-58640215D01*
X126344459Y-58644680D01*
X125257781Y-58644680D01*
X125212446Y-58640215D01*
X125174753Y-58628781D01*
X125140017Y-58610214D01*
X125109572Y-58585228D01*
X125084586Y-58554783D01*
X125066019Y-58520047D01*
X125054585Y-58482354D01*
X125050120Y-58437019D01*
X125050120Y-57600341D01*
X125054585Y-57555006D01*
X125066019Y-57517313D01*
X125084586Y-57482577D01*
X125109572Y-57452132D01*
X125140017Y-57427146D01*
X125174753Y-57408579D01*
X125212446Y-57397145D01*
X125257781Y-57392680D01*
X126344459Y-57392680D01*
X126389794Y-57397145D01*
G37*
G36*
X122325794Y-57397145D02*
G01*
X122363487Y-57408579D01*
X122398223Y-57427146D01*
X122428668Y-57452132D01*
X122453654Y-57482577D01*
X122472221Y-57517313D01*
X122483655Y-57555006D01*
X122488120Y-57600341D01*
X122488120Y-58437019D01*
X122483655Y-58482354D01*
X122472221Y-58520047D01*
X122453654Y-58554783D01*
X122428668Y-58585228D01*
X122398223Y-58610214D01*
X122363487Y-58628781D01*
X122325794Y-58640215D01*
X122280459Y-58644680D01*
X121193781Y-58644680D01*
X121148446Y-58640215D01*
X121110753Y-58628781D01*
X121076017Y-58610214D01*
X121045572Y-58585228D01*
X121020586Y-58554783D01*
X121002019Y-58520047D01*
X120990585Y-58482354D01*
X120986120Y-58437019D01*
X120986120Y-57600341D01*
X120990585Y-57555006D01*
X121002019Y-57517313D01*
X121020586Y-57482577D01*
X121045572Y-57452132D01*
X121076017Y-57427146D01*
X121110753Y-57408579D01*
X121148446Y-57397145D01*
X121193781Y-57392680D01*
X122280459Y-57392680D01*
X122325794Y-57397145D01*
G37*
G36*
X120293794Y-55347145D02*
G01*
X120331487Y-55358579D01*
X120366223Y-55377146D01*
X120396668Y-55402132D01*
X120421654Y-55432577D01*
X120440221Y-55467313D01*
X120451655Y-55505006D01*
X120456120Y-55550341D01*
X120456120Y-56387019D01*
X120451655Y-56432354D01*
X120440221Y-56470047D01*
X120421654Y-56504783D01*
X120396668Y-56535228D01*
X120366223Y-56560214D01*
X120331487Y-56578781D01*
X120293794Y-56590215D01*
X120248459Y-56594680D01*
X119161781Y-56594680D01*
X119116446Y-56590215D01*
X119078753Y-56578781D01*
X119044017Y-56560214D01*
X119013572Y-56535228D01*
X118988586Y-56504783D01*
X118970019Y-56470047D01*
X118958585Y-56432354D01*
X118954120Y-56387019D01*
X118954120Y-55550341D01*
X118958585Y-55505006D01*
X118970019Y-55467313D01*
X118988586Y-55432577D01*
X119013572Y-55402132D01*
X119044017Y-55377146D01*
X119078753Y-55358579D01*
X119116446Y-55347145D01*
X119161781Y-55342680D01*
X120248459Y-55342680D01*
X120293794Y-55347145D01*
G37*
G36*
X122325794Y-55347145D02*
G01*
X122363487Y-55358579D01*
X122398223Y-55377146D01*
X122428668Y-55402132D01*
X122453654Y-55432577D01*
X122472221Y-55467313D01*
X122483655Y-55505006D01*
X122488120Y-55550341D01*
X122488120Y-56387019D01*
X122483655Y-56432354D01*
X122472221Y-56470047D01*
X122453654Y-56504783D01*
X122428668Y-56535228D01*
X122398223Y-56560214D01*
X122363487Y-56578781D01*
X122325794Y-56590215D01*
X122280459Y-56594680D01*
X121193781Y-56594680D01*
X121148446Y-56590215D01*
X121110753Y-56578781D01*
X121076017Y-56560214D01*
X121045572Y-56535228D01*
X121020586Y-56504783D01*
X121002019Y-56470047D01*
X120990585Y-56432354D01*
X120986120Y-56387019D01*
X120986120Y-55550341D01*
X120990585Y-55505006D01*
X121002019Y-55467313D01*
X121020586Y-55432577D01*
X121045572Y-55402132D01*
X121076017Y-55377146D01*
X121110753Y-55358579D01*
X121148446Y-55347145D01*
X121193781Y-55342680D01*
X122280459Y-55342680D01*
X122325794Y-55347145D01*
G37*
G36*
X124357794Y-55347145D02*
G01*
X124395487Y-55358579D01*
X124430223Y-55377146D01*
X124460668Y-55402132D01*
X124485654Y-55432577D01*
X124504221Y-55467313D01*
X124515655Y-55505006D01*
X124520120Y-55550341D01*
X124520120Y-56387019D01*
X124515655Y-56432354D01*
X124504221Y-56470047D01*
X124485654Y-56504783D01*
X124460668Y-56535228D01*
X124430223Y-56560214D01*
X124395487Y-56578781D01*
X124357794Y-56590215D01*
X124312459Y-56594680D01*
X123225781Y-56594680D01*
X123180446Y-56590215D01*
X123142753Y-56578781D01*
X123108017Y-56560214D01*
X123077572Y-56535228D01*
X123052586Y-56504783D01*
X123034019Y-56470047D01*
X123022585Y-56432354D01*
X123018120Y-56387019D01*
X123018120Y-55550341D01*
X123022585Y-55505006D01*
X123034019Y-55467313D01*
X123052586Y-55432577D01*
X123077572Y-55402132D01*
X123108017Y-55377146D01*
X123142753Y-55358579D01*
X123180446Y-55347145D01*
X123225781Y-55342680D01*
X124312459Y-55342680D01*
X124357794Y-55347145D01*
G37*
G36*
X128421794Y-55347145D02*
G01*
X128459487Y-55358579D01*
X128494223Y-55377146D01*
X128524668Y-55402132D01*
X128549654Y-55432577D01*
X128568221Y-55467313D01*
X128579655Y-55505006D01*
X128584120Y-55550341D01*
X128584120Y-56387019D01*
X128579655Y-56432354D01*
X128568221Y-56470047D01*
X128549654Y-56504783D01*
X128524668Y-56535228D01*
X128494223Y-56560214D01*
X128459487Y-56578781D01*
X128421794Y-56590215D01*
X128376459Y-56594680D01*
X127289781Y-56594680D01*
X127244446Y-56590215D01*
X127206753Y-56578781D01*
X127172017Y-56560214D01*
X127141572Y-56535228D01*
X127116586Y-56504783D01*
X127098019Y-56470047D01*
X127086585Y-56432354D01*
X127082120Y-56387019D01*
X127082120Y-55550341D01*
X127086585Y-55505006D01*
X127098019Y-55467313D01*
X127116586Y-55432577D01*
X127141572Y-55402132D01*
X127172017Y-55377146D01*
X127206753Y-55358579D01*
X127244446Y-55347145D01*
X127289781Y-55342680D01*
X128376459Y-55342680D01*
X128421794Y-55347145D01*
G37*
G36*
X126389794Y-55347145D02*
G01*
X126427487Y-55358579D01*
X126462223Y-55377146D01*
X126492668Y-55402132D01*
X126517654Y-55432577D01*
X126536221Y-55467313D01*
X126547655Y-55505006D01*
X126552120Y-55550341D01*
X126552120Y-56387019D01*
X126547655Y-56432354D01*
X126536221Y-56470047D01*
X126517654Y-56504783D01*
X126492668Y-56535228D01*
X126462223Y-56560214D01*
X126427487Y-56578781D01*
X126389794Y-56590215D01*
X126344459Y-56594680D01*
X125257781Y-56594680D01*
X125212446Y-56590215D01*
X125174753Y-56578781D01*
X125140017Y-56560214D01*
X125109572Y-56535228D01*
X125084586Y-56504783D01*
X125066019Y-56470047D01*
X125054585Y-56432354D01*
X125050120Y-56387019D01*
X125050120Y-55550341D01*
X125054585Y-55505006D01*
X125066019Y-55467313D01*
X125084586Y-55432577D01*
X125109572Y-55402132D01*
X125140017Y-55377146D01*
X125174753Y-55358579D01*
X125212446Y-55347145D01*
X125257781Y-55342680D01*
X126344459Y-55342680D01*
X126389794Y-55347145D01*
G37*
G36*
X118253120Y-56434480D02*
G01*
X117601120Y-56434480D01*
X117601120Y-55132480D01*
X118253120Y-55132480D01*
X118253120Y-56434480D01*
G37*
G36*
X116353120Y-56434480D02*
G01*
X115701120Y-56434480D01*
X115701120Y-55132480D01*
X116353120Y-55132480D01*
X116353120Y-56434480D01*
G37*
G36*
X117303120Y-56434480D02*
G01*
X116651120Y-56434480D01*
X116651120Y-55132480D01*
X117303120Y-55132480D01*
X117303120Y-56434480D01*
G37*
M02*
