<?xml version="1.0" standalone="no"?>
 <!DOCTYPE svg PUBLIC "-//W3C//DTD SVG 1.1//EN" 
 "http://www.w3.org/Graphics/SVG/1.1/DTD/svg11.dtd"> 
<svg xmlns="http://www.w3.org/2000/svg" version="1.1" 
    width="7.05866cm" height="8.71728cm" viewBox="0 0 27790 34320 ">
<title>SVG Picture created as PowerModule-F_SilkS.svg date 2020/05/13 18:36:39 </title>
  <desc>Picture generated by PCBNEW </desc>
<g style="fill:#000000; fill-opacity:1;stroke:#000000; stroke-opacity:1;
stroke-linecap:round; stroke-linejoin:round; "
 transform="translate(0 0) scale(1 1)">
</g>
<g style="fill:#000000; fill-opacity:0.0; 
stroke:#000000; stroke-width:-0.000393701; stroke-opacity:1; 
stroke-linecap:round; stroke-linejoin:round;">
</g>
<g style="fill:#008484; fill-opacity:0.0; 
stroke:#008484; stroke-width:-0.000393701; stroke-opacity:1; 
stroke-linecap:round; stroke-linejoin:round;">
</g>
<g style="fill:#008484; fill-opacity:0.0; 
stroke:#008484; stroke-width:118.11; stroke-opacity:1; 
stroke-linecap:round; stroke-linejoin:round;">
<g transform="rotate(-30 22128.9 6609.37)">
<text x="22128.9" y="6904.65"
textLength="807.93" font-size="787.402" lengthAdjust="spacingAndGlyphs"
text-anchor="middle" opacity="0">-</text>
</g>
<path d="M21955 6758
L22344 6533
" />
<g transform="rotate(60 21144.7 7160.55)">
<text x="21144.7" y="7455.83"
textLength="884.702" font-size="787.402" lengthAdjust="spacingAndGlyphs"
text-anchor="middle" opacity="0">+</text>
</g>
<path d="M20995 6986
L21220 7376
" />
<path d="M20913 7294
L21302 7069
" />
</g>
<g style="fill:#008484; fill-opacity:0.0; 
stroke:#008484; stroke-width:98.4252; stroke-opacity:1; 
stroke-linecap:round; stroke-linejoin:round;">
<text x="9176.18" y="12859.4"
textLength="3471.88" font-size="524.934" lengthAdjust="spacingAndGlyphs"
text-anchor="middle" opacity="0">Rprog-Ibat</text>
<path d="M7835 12840
L7704 12653
" />
<path d="M7610 12840
L7610 12446
L7760 12446
L7798 12465
L7816 12484
L7835 12521
L7835 12578
L7816 12615
L7798 12634
L7760 12653
L7610 12653
" />
<path d="M8004 12578
L8004 12971
" />
<path d="M8004 12596
L8041 12578
L8116 12578
L8154 12596
L8173 12615
L8191 12653
L8191 12765
L8173 12803
L8154 12821
L8116 12840
L8041 12840
L8004 12821
" />
<path d="M8360 12840
L8360 12578
" />
<path d="M8360 12653
L8379 12615
L8398 12596
L8435 12578
L8473 12578
" />
<path d="M8660 12840
L8623 12821
L8604 12803
L8585 12765
L8585 12653
L8604 12615
L8623 12596
L8660 12578
L8716 12578
L8754 12596
L8773 12615
L8791 12653
L8791 12765
L8773 12803
L8754 12821
L8716 12840
L8660 12840
" />
<path d="M9129 12578
L9129 12896
L9110 12934
L9091 12953
L9054 12971
L8998 12971
L8960 12953
" />
<path d="M9129 12821
L9091 12840
L9016 12840
L8979 12821
L8960 12803
L8941 12765
L8941 12653
L8960 12615
L8979 12596
L9016 12578
L9091 12578
L9129 12596
" />
<path d="M9316 12690
L9616 12690
" />
<path d="M9804 12840
L9804 12446
" />
<path d="M9991 12840
L9991 12446
" />
<path d="M9991 12596
L10029 12578
L10104 12578
L10141 12596
L10160 12615
L10179 12653
L10179 12765
L10160 12803
L10141 12821
L10104 12840
L10029 12840
L9991 12821
" />
<path d="M10516 12840
L10516 12634
L10497 12596
L10460 12578
L10385 12578
L10347 12596
" />
<path d="M10516 12821
L10479 12840
L10385 12840
L10347 12821
L10329 12784
L10329 12746
L10347 12709
L10385 12690
L10479 12690
L10516 12671
" />
<path d="M10647 12578
L10797 12578
" />
<path d="M10704 12446
L10704 12784
L10722 12821
L10760 12840
L10797 12840
" />
<text x="9176.18" y="13548.3"
textLength="3558.77" font-size="524.934" lengthAdjust="spacingAndGlyphs"
text-anchor="middle" opacity="0">[k]    [mA]</text>
<path d="M7666 13660
L7573 13660
L7573 13098
L7666 13098
" />
<path d="M7816 13529
L7816 13135
" />
<path d="M7854 13379
L7966 13529
" />
<path d="M7966 13267
L7816 13417
" />
<path d="M8098 13660
L8191 13660
L8191 13098
L8098 13098
" />
<path d="M9710 13660
L9616 13660
L9616 13098
L9710 13098
" />
<path d="M9860 13529
L9860 13267
" />
<path d="M9860 13304
L9879 13285
L9916 13267
L9972 13267
L10010 13285
L10029 13323
L10029 13529
" />
<path d="M10029 13323
L10047 13285
L10085 13267
L10141 13267
L10179 13285
L10197 13323
L10197 13529
" />
<path d="M10366 13417
L10554 13417
" />
<path d="M10329 13529
L10460 13135
L10591 13529
" />
<path d="M10685 13660
L10779 13660
L10779 13098
L10685 13098
" />
<text x="9176.18" y="14237.3"
textLength="3540.03" font-size="524.934" lengthAdjust="spacingAndGlyphs"
text-anchor="middle" opacity="0">-------</text>
<path d="M7563 14068
L7863 14068
" />
<path d="M8051 14068
L8351 14068
" />
<path d="M8538 14068
L8838 14068
" />
<path d="M9026 14068
L9326 14068
" />
<path d="M9513 14068
L9813 14068
" />
<path d="M10001 14068
L10301 14068
" />
<path d="M10488 14068
L10788 14068
" />
<text x="9176.18" y="14926.3"
textLength="3502.53" font-size="524.934" lengthAdjust="spacingAndGlyphs"
text-anchor="middle" opacity="0">10     130</text>
<path d="M7788 14907
L7563 14907
" />
<path d="M7676 14907
L7676 14513
L7638 14570
L7601 14607
L7563 14626
" />
<path d="M8032 14513
L8070 14513
L8107 14532
L8126 14551
L8145 14588
L8163 14663
L8163 14757
L8145 14832
L8126 14870
L8107 14888
L8070 14907
L8032 14907
L7995 14888
L7976 14870
L7957 14832
L7938 14757
L7938 14663
L7957 14588
L7976 14551
L7995 14532
L8032 14513
" />
<path d="M10038 14907
L9813 14907
" />
<path d="M9926 14907
L9926 14513
L9888 14570
L9851 14607
L9813 14626
" />
<path d="M10169 14513
L10413 14513
L10282 14663
L10338 14663
L10376 14682
L10394 14701
L10413 14738
L10413 14832
L10394 14870
L10376 14888
L10338 14907
L10226 14907
L10188 14888
L10169 14870
" />
<path d="M10657 14513
L10694 14513
L10732 14532
L10750 14551
L10769 14588
L10788 14663
L10788 14757
L10769 14832
L10750 14870
L10732 14888
L10694 14907
L10657 14907
L10619 14888
L10601 14870
L10582 14832
L10563 14757
L10563 14663
L10582 14588
L10601 14551
L10619 14532
L10657 14513
" />
<text x="9176.18" y="15615.3"
textLength="3427.54" font-size="524.934" lengthAdjust="spacingAndGlyphs"
text-anchor="middle" opacity="0">5      250</text>
<path d="M7807 15202
L7620 15202
L7601 15390
L7620 15371
L7657 15352
L7751 15352
L7788 15371
L7807 15390
L7826 15427
L7826 15521
L7807 15559
L7788 15577
L7751 15596
L7657 15596
L7620 15577
L7601 15559
" />
<path d="M9776 15240
L9794 15221
L9832 15202
L9926 15202
L9963 15221
L9982 15240
L10001 15277
L10001 15315
L9982 15371
L9757 15596
L10001 15596
" />
<path d="M10357 15202
L10169 15202
L10151 15390
L10169 15371
L10207 15352
L10301 15352
L10338 15371
L10357 15390
L10376 15427
L10376 15521
L10357 15559
L10338 15577
L10301 15596
L10207 15596
L10169 15577
L10151 15559
" />
<path d="M10619 15202
L10657 15202
L10694 15221
L10713 15240
L10732 15277
L10750 15352
L10750 15446
L10732 15521
L10713 15559
L10694 15577
L10657 15596
L10619 15596
L10582 15577
L10563 15559
L10544 15521
L10526 15446
L10526 15352
L10544 15277
L10563 15240
L10582 15221
L10619 15202
" />
<text x="9176.18" y="16304.3"
textLength="3427.54" font-size="524.934" lengthAdjust="spacingAndGlyphs"
text-anchor="middle" opacity="0">4      300</text>
<path d="M7788 16023
L7788 16285
" />
<path d="M7695 15873
L7601 16154
L7845 16154
" />
<path d="M9757 15891
L10001 15891
L9869 16041
L9926 16041
L9963 16060
L9982 16079
L10001 16116
L10001 16210
L9982 16248
L9963 16266
L9926 16285
L9813 16285
L9776 16266
L9757 16248
" />
<path d="M10244 15891
L10282 15891
L10319 15910
L10338 15929
L10357 15966
L10376 16041
L10376 16135
L10357 16210
L10338 16248
L10319 16266
L10282 16285
L10244 16285
L10207 16266
L10188 16248
L10169 16210
L10151 16135
L10151 16041
L10169 15966
L10188 15929
L10207 15910
L10244 15891
" />
<path d="M10619 15891
L10657 15891
L10694 15910
L10713 15929
L10732 15966
L10750 16041
L10750 16135
L10732 16210
L10713 16248
L10694 16266
L10657 16285
L10619 16285
L10582 16266
L10563 16248
L10544 16210
L10526 16135
L10526 16041
L10544 15966
L10563 15929
L10582 15910
L10619 15891
" />
<text x="9176.18" y="16993.2"
textLength="3427.54" font-size="524.934" lengthAdjust="spacingAndGlyphs"
text-anchor="middle" opacity="0">3      400</text>
<path d="M7582 16580
L7826 16580
L7695 16730
L7751 16730
L7788 16749
L7807 16768
L7826 16805
L7826 16899
L7807 16936
L7788 16955
L7751 16974
L7638 16974
L7601 16955
L7582 16936
" />
<path d="M9963 16712
L9963 16974
" />
<path d="M9869 16562
L9776 16843
L10019 16843
" />
<path d="M10244 16580
L10282 16580
L10319 16599
L10338 16618
L10357 16655
L10376 16730
L10376 16824
L10357 16899
L10338 16936
L10319 16955
L10282 16974
L10244 16974
L10207 16955
L10188 16936
L10169 16899
L10151 16824
L10151 16730
L10169 16655
L10188 16618
L10207 16599
L10244 16580
" />
<path d="M10619 16580
L10657 16580
L10694 16599
L10713 16618
L10732 16655
L10750 16730
L10750 16824
L10732 16899
L10713 16936
L10694 16955
L10657 16974
L10619 16974
L10582 16955
L10563 16936
L10544 16899
L10526 16824
L10526 16730
L10544 16655
L10563 16618
L10582 16599
L10619 16580
" />
<text x="9176.18" y="17682.2"
textLength="3427.54" font-size="524.934" lengthAdjust="spacingAndGlyphs"
text-anchor="middle" opacity="0">2      580</text>
<path d="M7601 17307
L7620 17288
L7657 17269
L7751 17269
L7788 17288
L7807 17307
L7826 17344
L7826 17382
L7807 17438
L7582 17663
L7826 17663
" />
<path d="M9982 17269
L9794 17269
L9776 17457
L9794 17438
L9832 17419
L9926 17419
L9963 17438
L9982 17457
L10001 17494
L10001 17588
L9982 17625
L9963 17644
L9926 17663
L9832 17663
L9794 17644
L9776 17625
" />
<path d="M10226 17438
L10188 17419
L10169 17400
L10151 17363
L10151 17344
L10169 17307
L10188 17288
L10226 17269
L10301 17269
L10338 17288
L10357 17307
L10376 17344
L10376 17363
L10357 17400
L10338 17419
L10301 17438
L10226 17438
L10188 17457
L10169 17475
L10151 17513
L10151 17588
L10169 17625
L10188 17644
L10226 17663
L10301 17663
L10338 17644
L10357 17625
L10376 17588
L10376 17513
L10357 17475
L10338 17457
L10301 17438
" />
<path d="M10619 17269
L10657 17269
L10694 17288
L10713 17307
L10732 17344
L10750 17419
L10750 17513
L10732 17588
L10713 17625
L10694 17644
L10657 17663
L10619 17663
L10582 17644
L10563 17625
L10544 17588
L10526 17513
L10526 17419
L10544 17344
L10563 17307
L10582 17288
L10619 17269
" />
<text x="9176.18" y="18371.2"
textLength="3465.04" font-size="524.934" lengthAdjust="spacingAndGlyphs"
text-anchor="middle" opacity="0">1.66   690</text>
<path d="M7807 18352
L7582 18352
" />
<path d="M7695 18352
L7695 17958
L7657 18014
L7620 18052
L7582 18071
" />
<path d="M7976 18314
L7995 18333
L7976 18352
L7957 18333
L7976 18314
L7976 18352
" />
<path d="M8332 17958
L8257 17958
L8220 17977
L8201 17996
L8163 18052
L8145 18127
L8145 18277
L8163 18314
L8182 18333
L8220 18352
L8295 18352
L8332 18333
L8351 18314
L8370 18277
L8370 18183
L8351 18146
L8332 18127
L8295 18108
L8220 18108
L8182 18127
L8163 18146
L8145 18183
" />
<path d="M8707 17958
L8632 17958
L8595 17977
L8576 17996
L8538 18052
L8520 18127
L8520 18277
L8538 18314
L8557 18333
L8595 18352
L8669 18352
L8707 18333
L8726 18314
L8744 18277
L8744 18183
L8726 18146
L8707 18127
L8669 18108
L8595 18108
L8557 18127
L8538 18146
L8520 18183
" />
<path d="M9982 17958
L9907 17958
L9869 17977
L9851 17996
L9813 18052
L9794 18127
L9794 18277
L9813 18314
L9832 18333
L9869 18352
L9944 18352
L9982 18333
L10001 18314
L10019 18277
L10019 18183
L10001 18146
L9982 18127
L9944 18108
L9869 18108
L9832 18127
L9813 18146
L9794 18183
" />
<path d="M10207 18352
L10282 18352
L10319 18333
L10338 18314
L10376 18258
L10394 18183
L10394 18033
L10376 17996
L10357 17977
L10319 17958
L10244 17958
L10207 17977
L10188 17996
L10169 18033
L10169 18127
L10188 18164
L10207 18183
L10244 18202
L10319 18202
L10357 18183
L10376 18164
L10394 18127
" />
<path d="M10638 17958
L10675 17958
L10713 17977
L10732 17996
L10750 18033
L10769 18108
L10769 18202
L10750 18277
L10732 18314
L10713 18333
L10675 18352
L10638 18352
L10601 18333
L10582 18314
L10563 18277
L10544 18202
L10544 18108
L10563 18033
L10582 17996
L10601 17977
L10638 17958
" />
<text x="9176.18" y="19060.2"
textLength="3390.04" font-size="524.934" lengthAdjust="spacingAndGlyphs"
text-anchor="middle" opacity="0">1.5    780</text>
<path d="M7845 19041
L7620 19041
" />
<path d="M7732 19041
L7732 18647
L7695 18703
L7657 18741
L7620 18760
" />
<path d="M8013 19003
L8032 19022
L8013 19041
L7995 19022
L8013 19003
L8013 19041
" />
<path d="M8388 18647
L8201 18647
L8182 18835
L8201 18816
L8238 18797
L8332 18797
L8370 18816
L8388 18835
L8407 18872
L8407 18966
L8388 19003
L8370 19022
L8332 19041
L8238 19041
L8201 19022
L8182 19003
" />
<path d="M9738 18647
L10001 18647
L9832 19041
" />
<path d="M10207 18816
L10169 18797
L10151 18778
L10132 18741
L10132 18722
L10151 18685
L10169 18666
L10207 18647
L10282 18647
L10319 18666
L10338 18685
L10357 18722
L10357 18741
L10338 18778
L10319 18797
L10282 18816
L10207 18816
L10169 18835
L10151 18853
L10132 18891
L10132 18966
L10151 19003
L10169 19022
L10207 19041
L10282 19041
L10319 19022
L10338 19003
L10357 18966
L10357 18891
L10338 18853
L10319 18835
L10282 18816
" />
<path d="M10601 18647
L10638 18647
L10675 18666
L10694 18685
L10713 18722
L10732 18797
L10732 18891
L10713 18966
L10694 19003
L10675 19022
L10638 19041
L10601 19041
L10563 19022
L10544 19003
L10526 18966
L10507 18891
L10507 18797
L10526 18722
L10544 18685
L10563 18666
L10601 18647
" />
<text x="9176.18" y="19749.1"
textLength="3465.04" font-size="524.934" lengthAdjust="spacingAndGlyphs"
text-anchor="middle" opacity="0">1.33   900</text>
<path d="M7807 19730
L7582 19730
" />
<path d="M7695 19730
L7695 19336
L7657 19392
L7620 19430
L7582 19449
" />
<path d="M7976 19692
L7995 19711
L7976 19730
L7957 19711
L7976 19692
L7976 19730
" />
<path d="M8126 19336
L8370 19336
L8238 19486
L8295 19486
L8332 19505
L8351 19524
L8370 19561
L8370 19655
L8351 19692
L8332 19711
L8295 19730
L8182 19730
L8145 19711
L8126 19692
" />
<path d="M8501 19336
L8744 19336
L8613 19486
L8669 19486
L8707 19505
L8726 19524
L8744 19561
L8744 19655
L8726 19692
L8707 19711
L8669 19730
L8557 19730
L8520 19711
L8501 19692
" />
<path d="M9832 19730
L9907 19730
L9944 19711
L9963 19692
L10001 19636
L10019 19561
L10019 19411
L10001 19374
L9982 19355
L9944 19336
L9869 19336
L9832 19355
L9813 19374
L9794 19411
L9794 19505
L9813 19542
L9832 19561
L9869 19580
L9944 19580
L9982 19561
L10001 19542
L10019 19505
" />
<path d="M10263 19336
L10301 19336
L10338 19355
L10357 19374
L10376 19411
L10394 19486
L10394 19580
L10376 19655
L10357 19692
L10338 19711
L10301 19730
L10263 19730
L10226 19711
L10207 19692
L10188 19655
L10169 19580
L10169 19486
L10188 19411
L10207 19374
L10226 19355
L10263 19336
" />
<path d="M10638 19336
L10675 19336
L10713 19355
L10732 19374
L10750 19411
L10769 19486
L10769 19580
L10750 19655
L10732 19692
L10713 19711
L10675 19730
L10638 19730
L10601 19711
L10582 19692
L10563 19655
L10544 19580
L10544 19486
L10563 19411
L10582 19374
L10601 19355
L10638 19336
" />
<text x="9176.18" y="20438.1"
textLength="4064.96" font-size="524.934" lengthAdjust="spacingAndGlyphs"
text-anchor="middle" opacity="0"> 1.2    1000</text>
<path d="M7807 20419
L7582 20419
" />
<path d="M7695 20419
L7695 20025
L7657 20081
L7620 20119
L7582 20138
" />
<path d="M7976 20381
L7995 20400
L7976 20419
L7957 20400
L7976 20381
L7976 20419
" />
<path d="M8145 20063
L8163 20044
L8201 20025
L8295 20025
L8332 20044
L8351 20063
L8370 20100
L8370 20138
L8351 20194
L8126 20419
L8370 20419
" />
<path d="M9944 20419
L9719 20419
" />
<path d="M9832 20419
L9832 20025
L9794 20081
L9757 20119
L9719 20138
" />
<path d="M10188 20025
L10226 20025
L10263 20044
L10282 20063
L10301 20100
L10319 20175
L10319 20269
L10301 20344
L10282 20381
L10263 20400
L10226 20419
L10188 20419
L10151 20400
L10132 20381
L10113 20344
L10094 20269
L10094 20175
L10113 20100
L10132 20063
L10151 20044
L10188 20025
" />
<path d="M10563 20025
L10601 20025
L10638 20044
L10657 20063
L10675 20100
L10694 20175
L10694 20269
L10675 20344
L10657 20381
L10638 20400
L10601 20419
L10563 20419
L10526 20400
L10507 20381
L10488 20344
L10469 20269
L10469 20175
L10488 20100
L10507 20063
L10526 20044
L10563 20025
" />
<path d="M10938 20025
L10975 20025
L11013 20044
L11032 20063
L11050 20100
L11069 20175
L11069 20269
L11050 20344
L11032 20381
L11013 20400
L10975 20419
L10938 20419
L10900 20400
L10882 20381
L10863 20344
L10844 20269
L10844 20175
L10863 20100
L10882 20063
L10900 20044
L10938 20025
" />
</g>
<g style="fill:#008484; fill-opacity:0.0; 
stroke:#008484; stroke-width:47.2441; stroke-opacity:1; 
stroke-linecap:round; stroke-linejoin:round;">
<path d="M20554 22751
L20554 22160
" />
<path d="M7168 22751
L7168 22160
" />
</g>
<g style="fill:#008484; fill-opacity:0.0; 
stroke:#008484; stroke-width:49.2126; stroke-opacity:1; 
stroke-linecap:round; stroke-linejoin:round;">
<text x="3152.56" y="17062.1"
textLength="924.728" font-size="262.467" lengthAdjust="spacingAndGlyphs"
text-anchor="middle" opacity="0">CHRG</text>
<path d="M2913 17034
L2904 17043
L2876 17052
L2857 17052
L2829 17043
L2810 17024
L2801 17005
L2791 16968
L2791 16940
L2801 16902
L2810 16884
L2829 16865
L2857 16855
L2876 16855
L2904 16865
L2913 16874
" />
<path d="M2997 17052
L2997 16855
" />
<path d="M2997 16949
L3110 16949
" />
<path d="M3110 17052
L3110 16855
" />
<path d="M3316 17052
L3250 16959
" />
<path d="M3204 17052
L3204 16855
L3279 16855
L3297 16865
L3307 16874
L3316 16893
L3316 16921
L3307 16940
L3297 16949
L3279 16959
L3204 16959
" />
<path d="M3504 16865
L3485 16855
L3457 16855
L3429 16865
L3410 16884
L3400 16902
L3391 16940
L3391 16968
L3400 17005
L3410 17024
L3429 17043
L3457 17052
L3475 17052
L3504 17043
L3513 17034
L3513 16968
L3475 16968
" />
<text x="3270.67" y="19109.4"
textLength="963.864" font-size="262.467" lengthAdjust="spacingAndGlyphs"
text-anchor="middle" opacity="0">STDBY</text>
<path d="M2858 19090
L2886 19099
L2933 19099
L2951 19090
L2961 19081
L2970 19062
L2970 19043
L2961 19025
L2951 19015
L2933 19006
L2895 18996
L2876 18987
L2867 18978
L2858 18959
L2858 18940
L2867 18921
L2876 18912
L2895 18903
L2942 18903
L2970 18912
" />
<path d="M3026 18903
L3139 18903
" />
<path d="M3083 19099
L3083 18903
" />
<path d="M3205 19099
L3205 18903
L3251 18903
L3280 18912
L3298 18931
L3308 18950
L3317 18987
L3317 19015
L3308 19053
L3298 19071
L3280 19090
L3251 19099
L3205 19099
" />
<path d="M3467 18996
L3495 19006
L3505 19015
L3514 19034
L3514 19062
L3505 19081
L3495 19090
L3476 19099
L3401 19099
L3401 18903
L3467 18903
L3486 18912
L3495 18921
L3505 18940
L3505 18959
L3495 18978
L3486 18987
L3467 18996
L3401 18996
" />
<path d="M3636 19006
L3636 19099
" />
<path d="M3570 18903
L3636 19006
L3701 18903
" />
</g>
<g style="fill:#008484; fill-opacity:0.0; 
stroke:#008484; stroke-width:59.0551; stroke-opacity:1; 
stroke-linecap:round; stroke-linejoin:round;">
<g transform="rotate(-30 21262.8 6373.15)">
<text x="21262.8" y="6570"
textLength="1170.09" font-size="524.934" lengthAdjust="spacingAndGlyphs"
text-anchor="middle" opacity="0">SOL</text>
</g>
<path d="M20928 6750
L20986 6738
L21067 6691
L21090 6656
L21097 6630
L21095 6588
L21076 6556
L21041 6533
L21015 6526
L20973 6529
L20899 6550
L20857 6552
L20832 6545
L20797 6522
L20778 6490
L20775 6448
L20782 6422
L20805 6387
L20887 6341
L20945 6329
" />
<path d="M21146 6191
L21211 6153
L21253 6151
L21304 6164
L21358 6220
L21424 6334
L21445 6408
L21431 6459
L21408 6494
L21343 6532
L21301 6534
L21250 6520
L21196 6465
L21131 6351
L21110 6277
L21123 6226
L21146 6191
" />
<path d="M21798 6269
L21635 6363
L21439 6022
" />
<text x="14058.1" y="8538.51"
textLength="4032.53" font-size="524.934" lengthAdjust="spacingAndGlyphs"
text-anchor="middle" opacity="0">SOLAR PANEL</text>
<path d="M12155 8501
L12211 8519
L12305 8519
L12342 8501
L12361 8482
L12380 8444
L12380 8407
L12361 8369
L12342 8351
L12305 8332
L12230 8313
L12192 8294
L12173 8276
L12155 8238
L12155 8201
L12173 8163
L12192 8144
L12230 8126
L12323 8126
L12380 8144
" />
<path d="M12623 8126
L12698 8126
L12736 8144
L12773 8182
L12792 8257
L12792 8388
L12773 8463
L12736 8501
L12698 8519
L12623 8519
L12586 8501
L12548 8463
L12530 8388
L12530 8257
L12548 8182
L12586 8144
L12623 8126
" />
<path d="M13148 8519
L12961 8519
L12961 8126
" />
<path d="M13261 8407
L13448 8407
" />
<path d="M13223 8519
L13355 8126
L13486 8519
" />
<path d="M13842 8519
L13711 8332
" />
<path d="M13617 8519
L13617 8126
L13767 8126
L13804 8144
L13823 8163
L13842 8201
L13842 8257
L13823 8294
L13804 8313
L13767 8332
L13617 8332
" />
<path d="M14311 8519
L14311 8126
L14461 8126
L14498 8144
L14517 8163
L14536 8201
L14536 8257
L14517 8294
L14498 8313
L14461 8332
L14311 8332
" />
<path d="M14686 8407
L14873 8407
" />
<path d="M14648 8519
L14779 8126
L14911 8519
" />
<path d="M15042 8519
L15042 8126
L15267 8519
L15267 8126
" />
<path d="M15454 8313
L15586 8313
" />
<path d="M15642 8519
L15454 8519
L15454 8126
L15642 8126
" />
<path d="M15998 8519
L15810 8519
L15810 8126
" />
</g>
<g style="fill:#008484; fill-opacity:0.0; 
stroke:#008484; stroke-width:47.2441; stroke-opacity:1; 
stroke-linecap:round; stroke-linejoin:round;">
<path d="M7168 22160
L7168 2672
" />
<path d="M20554 22751
L7168 22751
" />
<path d="M20554 2672
L20554 22160
" />
<path d="M7168 2672
L20554 2672
" />
<path d="M24116 14400
L24116 14587
" />
<path d="M24116 14587
L23929 14587
" />
<path d="M22651 13310
L22651 13123
" />
<path d="M22651 13123
L22838 13123
" />
<path d="M22651 14400
L22651 14587
" />
<path d="M22651 14587
L22838 14587
" />
<path d="M24116 13310
L24116 13123
" />
<path d="M3816 12550
L3610 12550
" />
<path d="M3816 13109
L3610 13109
" />
<path d="M2104 13109
L2310 13109
" />
<path d="M2104 12550
L2310 12550
" />
</g>
<g style="fill:#008484; fill-opacity:0.0; 
stroke:#008484; stroke-width:59.0551; stroke-opacity:1; 
stroke-linecap:round; stroke-linejoin:round;">
<path d="M3686 15312
L4197 15312
" />
<path d="M3686 13363
L2052 13363
" />
<path d="M3686 15390
L2052 15390
" />
<path d="M3686 13363
L3686 13442
" />
<path d="M2052 13363
L2052 13442
" />
<path d="M2052 15390
L2052 15312
" />
<path d="M3686 15390
L3686 15312
" />
</g>
<g style="fill:#008484; fill-opacity:0.0; 
stroke:#008484; stroke-width:60; stroke-opacity:1; 
stroke-linecap:round; stroke-linejoin:round;">
<path d="M19889.6 25776 A30 30 0.0 1 0 19875.2 25832.3 " />
</g>
<g style="fill:#008484; fill-opacity:0.0; 
stroke:#008484; stroke-width:47.2441; stroke-opacity:1; 
stroke-linecap:round; stroke-linejoin:round;">
<path d="M21215 7731
L21323 7919
" />
<path d="M22654 6900
L21215 7731
" />
<path d="M22762 7088
L22654 6900
" />
<path d="M22312 9630
L22670 9423
" />
<path d="M21780 8710
L22312 9630
" />
<path d="M23392 9006
L23548 9275
" />
<path d="M23750 8799
L23392 9006
" />
<path d="M23219 7879
L23750 8799
" />
<path d="M27089 15014
L26302 15014
" />
<path d="M27089 13912
L27089 15014
" />
<path d="M26302 13912
L27089 13912
" />
<path d="M26302 15014
L26302 13912
" />
</g>
<g style="fill:#008484; fill-opacity:0.0; 
stroke:#008484; stroke-width:100; stroke-opacity:1; 
stroke-linecap:round; stroke-linejoin:round;">
<path d="M24134 10282
L24489 10282
" />
<path d="M24134 11818
L24489 11818
" />
</g>
<g style="fill:#008484; fill-opacity:0.0; 
stroke:#008484; stroke-width:78.7402; stroke-opacity:1; 
stroke-linecap:round; stroke-linejoin:round;">
<path d="M26093 16030
L26093 14495
" />
<path d="M24558 14495
L24558 16030
" />
</g>
<g style="fill:#008484; fill-opacity:0.0; 
stroke:#008484; stroke-width:47.2441; stroke-opacity:1; 
stroke-linecap:round; stroke-linejoin:round;">
<path d="M21599 15739
L21394 15739
" />
<path d="M21599 15180
L21394 15180
" />
<path d="M21394 14353
L21599 14353
" />
<path d="M21394 14912
L21599 14912
" />
<path d="M21599 13298
L21394 13298
" />
<path d="M21599 12739
L21394 12739
" />
<path d="M21394 13526
L21599 13526
" />
<path d="M21394 14085
L21599 14085
" />
<path d="M7802 25152
L7802 24542
" />
<path d="M10951 25152
L11069 25152
" />
<path d="M11069 25152
L11069 24542
" />
<path d="M7920 26255
L7920 25152
" />
<path d="M10951 26255
L10951 25152
" />
<path d="M9081 23873
L8924 24050
" />
<path d="M8924 24050
L8766 23873
" />
<path d="M7802 25152
L7920 25152
" />
<path d="M8766 23873
L9081 23873
" />
<path d="M2734 16101
L2940 16101
" />
<path d="M2734 15542
L2940 15542
" />
<path d="M668 14262
L668 14468
" />
<path d="M1227 14262
L1227 14468
" />
<path d="M3176 11447
L2970 11447
" />
<path d="M3176 12007
L2970 12007
" />
<path d="M20136 24762
L20342 24762
" />
<path d="M20136 24203
L20342 24203
" />
<path d="M3749 19508
L3749 19714
" />
<path d="M4308 19508
L4308 19714
" />
<path d="M22999 21111
L22999 20906
" />
<path d="M22439 21111
L22439 20906
" />
<path d="M11817 24920
L11817 24715
" />
<path d="M11258 24920
L11258 24715
" />
<path d="M15505 27916
L12255 27916
" />
<path d="M15505 24766
L12255 24766
" />
<path d="M12255 22766
L12255 27916
" />
<path d="M15505 22766
L15505 27916
" />
<path d="M15505 22766
L12255 22766
" />
<path d="M2892 18798
L4018 18798
" />
<path d="M2892 18042
L2892 18798
" />
<path d="M4018 18042
L2892 18042
" />
<path d="M2892 17932
L4018 17932
" />
<path d="M2892 17176
L2892 17932
" />
<path d="M4018 17176
L2892 17176
" />
<path d="M18836 24203
L18630 24203
" />
<path d="M18836 24762
L18630 24762
" />
<path d="M22172 21111
L22172 20906
" />
<path d="M21613 21111
L21613 20906
" />
</g>
<g style="fill:#008484; fill-opacity:0.0; 
stroke:#008484; stroke-width:59.0551; stroke-opacity:1; 
stroke-linecap:round; stroke-linejoin:round;">
<text x="22522.6" y="15270.8"
textLength="864.173" font-size="524.934" lengthAdjust="spacingAndGlyphs"
text-anchor="middle" opacity="0">U3</text>
<path d="M22222 14858
L22222 15177
L22241 15214
L22260 15233
L22297 15252
L22372 15252
L22410 15233
L22428 15214
L22447 15177
L22447 14858
" />
<path d="M22597 14858
L22841 14858
L22710 15008
L22766 15008
L22803 15027
L22822 15045
L22841 15083
L22841 15177
L22822 15214
L22803 15233
L22766 15252
L22653 15252
L22616 15233
L22597 15214
" />
<text x="5632.87" y="13026.7"
textLength="2738.94" font-size="524.934" lengthAdjust="spacingAndGlyphs"
text-anchor="middle" opacity="0">R_PROG1</text>
<path d="M4620 13007
L4489 12820
" />
<path d="M4395 13007
L4395 12614
L4545 12614
L4583 12632
L4601 12651
L4620 12689
L4620 12745
L4601 12782
L4583 12801
L4545 12820
L4395 12820
" />
<path d="M4695 13045
L4995 13045
" />
<path d="M5089 13007
L5089 12614
L5239 12614
L5276 12632
L5295 12651
L5314 12689
L5314 12745
L5295 12782
L5276 12801
L5239 12820
L5089 12820
" />
<path d="M5707 13007
L5576 12820
" />
<path d="M5482 13007
L5482 12614
L5632 12614
L5670 12632
L5689 12651
L5707 12689
L5707 12745
L5689 12782
L5670 12801
L5632 12820
L5482 12820
" />
<path d="M5951 12614
L6026 12614
L6064 12632
L6101 12670
L6120 12745
L6120 12876
L6101 12951
L6064 12989
L6026 13007
L5951 13007
L5914 12989
L5876 12951
L5857 12876
L5857 12745
L5876 12670
L5914 12632
L5951 12614
" />
<path d="M6495 12632
L6457 12614
L6401 12614
L6345 12632
L6307 12670
L6289 12707
L6270 12782
L6270 12839
L6289 12914
L6307 12951
L6345 12989
L6401 13007
L6439 13007
L6495 12989
L6514 12970
L6514 12839
L6439 12839
" />
<path d="M6888 13007
L6663 13007
" />
<path d="M6776 13007
L6776 12614
L6738 12670
L6701 12707
L6663 12726
" />
<text x="2443.9" y="12514.9"
textLength="2176.51" font-size="524.934" lengthAdjust="spacingAndGlyphs"
text-anchor="middle" opacity="0">C_BAT1</text>
<path d="M1712 12458
L1693 12477
L1637 12496
L1600 12496
L1544 12477
L1506 12439
L1487 12402
L1469 12327
L1469 12271
L1487 12196
L1506 12158
L1544 12121
L1600 12102
L1637 12102
L1693 12121
L1712 12139
" />
<path d="M1787 12533
L2087 12533
" />
<path d="M2312 12289
L2368 12308
L2387 12327
L2406 12364
L2406 12421
L2387 12458
L2368 12477
L2331 12496
L2181 12496
L2181 12102
L2312 12102
L2350 12121
L2368 12139
L2387 12177
L2387 12214
L2368 12252
L2350 12271
L2312 12289
L2181 12289
" />
<path d="M2556 12383
L2743 12383
" />
<path d="M2518 12496
L2650 12102
L2781 12496
" />
<path d="M2856 12102
L3081 12102
" />
<path d="M2968 12496
L2968 12102
" />
<path d="M3418 12496
L3193 12496
" />
<path d="M3306 12496
L3306 12102
L3268 12158
L3231 12196
L3193 12214
" />
<text x="4648.62" y="14089.7"
textLength="864.173" font-size="524.934" lengthAdjust="spacingAndGlyphs"
text-anchor="middle" opacity="0">U5</text>
<path d="M4348 13677
L4348 13995
L4367 14033
L4386 14052
L4423 14070
L4498 14070
L4536 14052
L4554 14033
L4573 13995
L4573 13677
" />
<path d="M4948 13677
L4761 13677
L4742 13864
L4761 13845
L4798 13827
L4892 13827
L4929 13845
L4948 13864
L4967 13902
L4967 13995
L4948 14033
L4929 14052
L4892 14070
L4798 14070
L4761 14052
L4742 14033
" />
<text x="17719.5" y="25782.6"
textLength="864.173" font-size="524.934" lengthAdjust="spacingAndGlyphs"
text-anchor="middle" opacity="0">U4</text>
<path d="M17419 25370
L17419 25688
L17438 25726
L17457 25745
L17494 25763
L17569 25763
L17607 25745
L17625 25726
L17644 25688
L17644 25370
" />
<path d="M18000 25501
L18000 25763
" />
<path d="M17906 25351
L17813 25632
L18056 25632
" />
<g transform="rotate(-30 21695.9 9955.83)">
<text x="21695.9" y="10152.7"
textLength="751.687" font-size="524.934" lengthAdjust="spacingAndGlyphs"
text-anchor="middle" opacity="0">J7</text>
</g>
<path d="M21474 9834
L21615 10078
L21626 10136
L21613 10187
L21573 10231
L21541 10250
" />
<path d="M21604 9759
L21831 9628
L21882 10053
" />
<text x="27010.8" y="14522.8"
textLength="1145.39" font-size="524.934" lengthAdjust="spacingAndGlyphs"
text-anchor="middle" opacity="0">JP1</text>
<path d="M26682 14110
L26682 14391
L26663 14447
L26626 14485
L26570 14504
L26532 14504
" />
<path d="M26870 14504
L26870 14110
L27020 14110
L27057 14129
L27076 14147
L27095 14185
L27095 14241
L27076 14279
L27057 14297
L27020 14316
L26870 14316
" />
<path d="M27470 14504
L27245 14504
" />
<path d="M27357 14504
L27357 14110
L27320 14166
L27282 14204
L27245 14222
" />
<text x="22916.3" y="12908.6"
textLength="1445.35" font-size="524.934" lengthAdjust="spacingAndGlyphs"
text-anchor="middle" opacity="0">CIN1</text>
<path d="M22550 12852
L22532 12871
L22475 12889
L22438 12889
L22382 12871
L22344 12833
L22325 12796
L22307 12721
L22307 12664
L22325 12589
L22344 12552
L22382 12514
L22438 12496
L22475 12496
L22532 12514
L22550 12533
" />
<path d="M22719 12889
L22719 12496
" />
<path d="M22906 12889
L22906 12496
L23131 12889
L23131 12496
" />
<path d="M23525 12889
L23300 12889
" />
<path d="M23413 12889
L23413 12496
L23375 12552
L23338 12589
L23300 12608
" />
<text x="25278.5" y="14286.5"
textLength="1970.29" font-size="524.934" lengthAdjust="spacingAndGlyphs"
text-anchor="middle" opacity="0">CBYP1</text>
<path d="M24650 14230
L24631 14249
L24575 14267
L24538 14267
L24481 14249
L24444 14211
L24425 14174
L24406 14099
L24406 14042
L24425 13967
L24444 13930
L24481 13892
L24538 13874
L24575 13874
L24631 13892
L24650 13911
" />
<path d="M24950 14061
L25006 14080
L25025 14099
L25044 14136
L25044 14192
L25025 14230
L25006 14249
L24969 14267
L24819 14267
L24819 13874
L24950 13874
L24987 13892
L25006 13911
L25025 13949
L25025 13986
L25006 14024
L24987 14042
L24950 14061
L24819 14061
" />
<path d="M25287 14080
L25287 14267
" />
<path d="M25156 13874
L25287 14080
L25419 13874
" />
<path d="M25550 14267
L25550 13874
L25700 13874
L25737 13892
L25756 13911
L25775 13949
L25775 14005
L25756 14042
L25737 14061
L25700 14080
L25550 14080
" />
<path d="M26150 14267
L25925 14267
" />
<path d="M26037 14267
L26037 13874
L26000 13930
L25962 13967
L25925 13986
" />
<g transform="rotate(-90 24656.5 15889.3)">
<text x="24656.5" y="16086.1"
textLength="1970.29" font-size="524.934" lengthAdjust="spacingAndGlyphs"
text-anchor="middle" opacity="0">COUT1</text>
</g>
<path d="M24797 16517
L24815 16536
L24834 16592
L24834 16629
L24815 16686
L24778 16723
L24740 16742
L24665 16761
L24609 16761
L24534 16742
L24497 16723
L24459 16686
L24440 16629
L24440 16592
L24459 16536
L24478 16517
" />
<path d="M24440 16273
L24440 16198
L24459 16161
L24497 16123
L24572 16104
L24703 16104
L24778 16123
L24815 16161
L24834 16198
L24834 16273
L24815 16311
L24778 16348
L24703 16367
L24572 16367
L24497 16348
L24459 16311
L24440 16273
" />
<path d="M24440 15936
L24759 15936
L24797 15917
L24815 15898
L24834 15861
L24834 15786
L24815 15748
L24797 15729
L24759 15711
L24440 15711
" />
<path d="M24440 15579
L24440 15354
" />
<path d="M24834 15467
L24440 15467
" />
<path d="M24834 15017
L24834 15242
" />
<path d="M24834 15129
L24440 15129
L24497 15167
L24534 15204
L24553 15242
" />
<g transform="rotate(-90 21940 13113.3)">
<text x="21940" y="13310.2"
textLength="1932.79" font-size="524.934" lengthAdjust="spacingAndGlyphs"
text-anchor="middle" opacity="0">CREF1</text>
</g>
<path d="M22080 13722
L22099 13741
L22118 13797
L22118 13835
L22099 13891
L22061 13928
L22024 13947
L21949 13966
L21893 13966
L21818 13947
L21780 13928
L21743 13891
L21724 13835
L21724 13797
L21743 13741
L21761 13722
" />
<path d="M22118 13328
L21930 13460
" />
<path d="M22118 13553
L21724 13553
L21724 13403
L21743 13366
L21761 13347
L21799 13328
L21855 13328
L21893 13347
L21911 13366
L21930 13403
L21930 13553
" />
<path d="M21911 13160
L21911 13028
" />
<path d="M22118 12972
L22118 13160
L21724 13160
L21724 12972
" />
<path d="M21911 12672
L21911 12803
" />
<path d="M22118 12803
L21724 12803
L21724 12616
" />
<path d="M22118 12260
L22118 12485
" />
<path d="M22118 12372
L21724 12372
L21780 12410
L21818 12447
L21836 12485
" />
<text x="25396.7" y="12475.5"
textLength="2326.49" font-size="524.934" lengthAdjust="spacingAndGlyphs"
text-anchor="middle" opacity="0">CSTOR1</text>
<path d="M24590 12419
L24571 12438
L24515 12456
L24478 12456
L24421 12438
L24384 12400
L24365 12363
L24346 12288
L24346 12231
L24365 12156
L24384 12119
L24421 12081
L24478 12063
L24515 12063
L24571 12081
L24590 12100
" />
<path d="M24740 12438
L24796 12456
L24890 12456
L24927 12438
L24946 12419
L24965 12381
L24965 12344
L24946 12306
L24927 12288
L24890 12269
L24815 12250
L24777 12231
L24759 12213
L24740 12175
L24740 12138
L24759 12100
L24777 12081
L24815 12063
L24909 12063
L24965 12081
" />
<path d="M25077 12063
L25302 12063
" />
<path d="M25190 12456
L25190 12063
" />
<path d="M25509 12063
L25584 12063
L25621 12081
L25659 12119
L25677 12194
L25677 12325
L25659 12400
L25621 12438
L25584 12456
L25509 12456
L25471 12438
L25434 12400
L25415 12325
L25415 12194
L25434 12119
L25471 12081
L25509 12063
" />
<path d="M26071 12456
L25940 12269
" />
<path d="M25846 12456
L25846 12063
L25996 12063
L26034 12081
L26052 12100
L26071 12138
L26071 12194
L26052 12231
L26034 12250
L25996 12269
L25846 12269
" />
<path d="M26446 12456
L26221 12456
" />
<path d="M26334 12456
L26334 12063
L26296 12119
L26259 12156
L26221 12175
" />
</g>
<g style="fill:#008484; fill-opacity:0.0; 
stroke:#008484; stroke-width:100; stroke-opacity:1; 
stroke-linecap:round; stroke-linejoin:round;">
<text x="23703.7" y="10048.3"
textLength="957.724" font-size="666.667" lengthAdjust="spacingAndGlyphs"
text-anchor="middle" opacity="0">L1</text>
<path d="M23620 10024
L23382 10024
L23382 9524
" />
<path d="M24048 10024
L23763 10024
" />
<path d="M23906 10024
L23906 9524
L23858 9595
L23810 9643
L23763 9667
" />
<text x="25278.5" y="17095.6"
textLength="1010.95" font-size="666.667" lengthAdjust="spacingAndGlyphs"
text-anchor="middle" opacity="0">L2</text>
<path d="M25195 17071
L24957 17071
L24957 16571
" />
<path d="M25338 16619
L25361 16595
L25409 16571
L25528 16571
L25576 16595
L25599 16619
L25623 16667
L25623 16714
L25599 16786
L25314 17071
L25623 17071
" />
</g>
<g style="fill:#008484; fill-opacity:0.0; 
stroke:#008484; stroke-width:59.0551; stroke-opacity:1; 
stroke-linecap:round; stroke-linejoin:round;">
<text x="21497" y="16306.2"
textLength="1836.04" font-size="524.934" lengthAdjust="spacingAndGlyphs"
text-anchor="middle" opacity="0">Rout1</text>
<path d="M20962 16287
L20831 16099
" />
<path d="M20737 16287
L20737 15893
L20887 15893
L20925 15912
L20943 15931
L20962 15968
L20962 16025
L20943 16062
L20925 16081
L20887 16099
L20737 16099
" />
<path d="M21187 16287
L21150 16268
L21131 16249
L21112 16212
L21112 16099
L21131 16062
L21150 16043
L21187 16025
L21243 16025
L21281 16043
L21300 16062
L21318 16099
L21318 16212
L21300 16249
L21281 16268
L21243 16287
L21187 16287
" />
<path d="M21656 16025
L21656 16287
" />
<path d="M21487 16025
L21487 16231
L21506 16268
L21543 16287
L21600 16287
L21637 16268
L21656 16249
" />
<path d="M21787 16025
L21937 16025
" />
<path d="M21843 15893
L21843 16231
L21862 16268
L21900 16287
L21937 16287
" />
<path d="M22275 16287
L22050 16287
" />
<path d="M22162 16287
L22162 15893
L22125 15950
L22087 15987
L22050 16006
" />
<text x="19924.2" y="14955.8"
textLength="1782.81" font-size="524.934" lengthAdjust="spacingAndGlyphs"
text-anchor="middle" opacity="0">Rout2</text>
<path d="M19389 14937
L19258 14749
" />
<path d="M19164 14937
L19164 14543
L19314 14543
L19352 14562
L19371 14580
L19389 14618
L19389 14674
L19371 14712
L19352 14730
L19314 14749
L19164 14749
" />
<path d="M19614 14937
L19577 14918
L19558 14899
L19539 14862
L19539 14749
L19558 14712
L19577 14693
L19614 14674
L19671 14674
L19708 14693
L19727 14712
L19746 14749
L19746 14862
L19727 14899
L19708 14918
L19671 14937
L19614 14937
" />
<path d="M20083 14674
L20083 14937
" />
<path d="M19914 14674
L19914 14880
L19933 14918
L19971 14937
L20027 14937
L20064 14918
L20083 14899
" />
<path d="M20214 14674
L20364 14674
" />
<path d="M20271 14543
L20271 14880
L20289 14918
L20327 14937
L20364 14937
" />
<path d="M20477 14580
L20496 14562
L20533 14543
L20627 14543
L20664 14562
L20683 14580
L20702 14618
L20702 14655
L20683 14712
L20458 14937
L20702 14937
" />
<text x="20121.1" y="13932.2"
textLength="1501.59" font-size="524.934" lengthAdjust="spacingAndGlyphs"
text-anchor="middle" opacity="0">Rov1</text>
<path d="M19727 13913
L19596 13725
" />
<path d="M19502 13913
L19502 13519
L19652 13519
L19689 13538
L19708 13557
L19727 13594
L19727 13650
L19708 13688
L19689 13707
L19652 13725
L19502 13725
" />
<path d="M19952 13913
L19914 13894
L19896 13875
L19877 13838
L19877 13725
L19896 13688
L19914 13669
L19952 13650
L20008 13650
L20046 13669
L20064 13688
L20083 13725
L20083 13838
L20064 13875
L20046 13894
L20008 13913
L19952 13913
" />
<path d="M20214 13650
L20308 13913
L20402 13650
" />
<path d="M20758 13913
L20533 13913
" />
<path d="M20645 13913
L20645 13519
L20608 13576
L20571 13613
L20533 13632
" />
<text x="20121.1" y="13144.8"
textLength="1501.59" font-size="524.934" lengthAdjust="spacingAndGlyphs"
text-anchor="middle" opacity="0">Rov2</text>
<path d="M19727 13126
L19596 12938
" />
<path d="M19502 13126
L19502 12732
L19652 12732
L19689 12751
L19708 12769
L19727 12807
L19727 12863
L19708 12901
L19689 12919
L19652 12938
L19502 12938
" />
<path d="M19952 13126
L19914 13107
L19896 13088
L19877 13051
L19877 12938
L19896 12901
L19914 12882
L19952 12863
L20008 12863
L20046 12882
L20064 12901
L20083 12938
L20083 13051
L20064 13088
L20046 13107
L20008 13126
L19952 13126
" />
<path d="M20214 12863
L20308 13126
L20402 12863
" />
<path d="M20533 12769
L20552 12751
L20589 12732
L20683 12732
L20720 12751
L20739 12769
L20758 12807
L20758 12844
L20739 12901
L20514 13126
L20758 13126
" />
<text x="7365.16" y="25113.3"
textLength="751.687" font-size="524.934" lengthAdjust="spacingAndGlyphs"
text-anchor="middle" opacity="0">J1</text>
<path d="M7233 24700
L7233 24982
L7215 25038
L7177 25075
L7121 25094
L7083 25094
" />
<path d="M7627 25094
L7402 25094
" />
<path d="M7515 25094
L7515 24700
L7477 24757
L7440 24794
L7402 24813
" />
<text x="4254.92" y="16058.2"
textLength="1445.35" font-size="524.934" lengthAdjust="spacingAndGlyphs"
text-anchor="middle" opacity="0">CIN2</text>
<path d="M3889 16001
L3870 16020
L3814 16039
L3776 16039
L3720 16020
L3683 15983
L3664 15945
L3645 15870
L3645 15814
L3664 15739
L3683 15701
L3720 15664
L3776 15645
L3814 15645
L3870 15664
L3889 15683
" />
<path d="M4058 16039
L4058 15645
" />
<path d="M4245 16039
L4245 15645
L4470 16039
L4470 15645
" />
<path d="M4639 15683
L4657 15664
L4695 15645
L4789 15645
L4826 15664
L4845 15683
L4864 15720
L4864 15758
L4845 15814
L4620 16039
L4864 16039
" />
<text x="1105.31" y="15467.6"
textLength="845.426" font-size="524.934" lengthAdjust="spacingAndGlyphs"
text-anchor="middle" opacity="0">R7</text>
<path d="M1039 15448
L908 15261
" />
<path d="M814 15448
L814 15055
L964 15055
L1002 15073
L1020 15092
L1039 15130
L1039 15186
L1020 15223
L1002 15242
L964 15261
L814 15261
" />
<path d="M1170 15055
L1433 15055
L1264 15448
" />
<text x="3073.82" y="11294.4"
textLength="845.426" font-size="524.934" lengthAdjust="spacingAndGlyphs"
text-anchor="middle" opacity="0">R6</text>
<path d="M3008 11275
L2876 11088
" />
<path d="M2783 11275
L2783 10881
L2933 10881
L2970 10900
L2989 10919
L3008 10956
L3008 11013
L2989 11050
L2970 11069
L2933 11088
L2783 11088
" />
<path d="M3345 10881
L3270 10881
L3233 10900
L3214 10919
L3176 10975
L3158 11050
L3158 11200
L3176 11238
L3195 11256
L3233 11275
L3308 11275
L3345 11256
L3364 11238
L3383 11200
L3383 11106
L3364 11069
L3345 11050
L3308 11031
L3233 11031
L3195 11050
L3176 11069
L3158 11106
" />
<text x="20239.2" y="23932.2"
textLength="845.426" font-size="524.934" lengthAdjust="spacingAndGlyphs"
text-anchor="middle" opacity="0">R5</text>
<path d="M20173 23913
L20042 23725
" />
<path d="M19948 23913
L19948 23519
L20098 23519
L20136 23538
L20154 23557
L20173 23594
L20173 23650
L20154 23688
L20136 23707
L20098 23725
L19948 23725
" />
<path d="M20529 23519
L20342 23519
L20323 23707
L20342 23688
L20379 23669
L20473 23669
L20511 23688
L20529 23707
L20548 23744
L20548 23838
L20529 23875
L20511 23894
L20473 23913
L20379 23913
L20342 23894
L20323 23875
" />
<text x="4806.1" y="19798.3"
textLength="845.426" font-size="524.934" lengthAdjust="spacingAndGlyphs"
text-anchor="middle" opacity="0">R4</text>
<path d="M4740 19779
L4609 19592
" />
<path d="M4515 19779
L4515 19385
L4665 19385
L4702 19404
L4721 19423
L4740 19460
L4740 19517
L4721 19554
L4702 19573
L4665 19592
L4515 19592
" />
<path d="M5077 19517
L5077 19779
" />
<path d="M4984 19367
L4890 19648
L5134 19648
" />
<text x="22719.5" y="20152.7"
textLength="845.426" font-size="524.934" lengthAdjust="spacingAndGlyphs"
text-anchor="middle" opacity="0">R3</text>
<path d="M22653 20133
L22522 19946
" />
<path d="M22428 20133
L22428 19740
L22578 19740
L22616 19758
L22635 19777
L22653 19815
L22653 19871
L22635 19908
L22616 19927
L22578 19946
L22428 19946
" />
<path d="M22785 19740
L23028 19740
L22897 19890
L22953 19890
L22991 19908
L23010 19927
L23028 19965
L23028 20058
L23010 20096
L22991 20115
L22953 20133
L22841 20133
L22803 20115
L22785 20096
" />
<text x="11538.4" y="23932.2"
textLength="845.426" font-size="524.934" lengthAdjust="spacingAndGlyphs"
text-anchor="middle" opacity="0">R2</text>
<path d="M11472 23913
L11341 23725
" />
<path d="M11247 23913
L11247 23519
L11397 23519
L11435 23538
L11454 23557
L11472 23594
L11472 23650
L11454 23688
L11435 23707
L11397 23725
L11247 23725
" />
<path d="M11622 23557
L11641 23538
L11678 23519
L11772 23519
L11810 23538
L11828 23557
L11847 23594
L11847 23632
L11828 23688
L11604 23913
L11847 23913
" />
<text x="15987.2" y="23971.6"
textLength="751.687" font-size="524.934" lengthAdjust="spacingAndGlyphs"
text-anchor="middle" opacity="0">J4</text>
<path d="M15855 23559
L15855 23840
L15837 23896
L15799 23934
L15743 23952
L15705 23952
" />
<path d="M16212 23690
L16212 23952
" />
<path d="M16118 23540
L16024 23821
L16268 23821
" />
<text x="18743.1" y="23971.6"
textLength="845.426" font-size="524.934" lengthAdjust="spacingAndGlyphs"
text-anchor="middle" opacity="0">C3</text>
<path d="M18677 23915
L18658 23934
L18602 23952
L18565 23952
L18508 23934
L18471 23896
L18452 23859
L18433 23784
L18433 23727
L18452 23652
L18471 23615
L18508 23577
L18565 23559
L18602 23559
L18658 23577
L18677 23596
" />
<path d="M18808 23559
L19052 23559
L18921 23709
L18977 23709
L19014 23727
L19033 23746
L19052 23784
L19052 23877
L19033 23915
L19014 23934
L18977 23952
L18864 23952
L18827 23934
L18808 23915
" />
<text x="21892.7" y="20152.7"
textLength="845.426" font-size="524.934" lengthAdjust="spacingAndGlyphs"
text-anchor="middle" opacity="0">C2</text>
<path d="M21827 20096
L21808 20115
L21752 20133
L21714 20133
L21658 20115
L21620 20077
L21602 20040
L21583 19965
L21583 19908
L21602 19833
L21620 19796
L21658 19758
L21714 19740
L21752 19740
L21808 19758
L21827 19777
" />
<path d="M21977 19777
L21995 19758
L22033 19740
L22127 19740
L22164 19758
L22183 19777
L22202 19815
L22202 19852
L22183 19908
L21958 20133
L22202 20133
" />
<g >
</g>
</g>
<g style="fill:#000000; fill-opacity:0.0; 
stroke:#000000; stroke-width:59.0551; stroke-opacity:1; 
stroke-linecap:round; stroke-linejoin:round;">
</g>
<g style="fill:#C2C200; fill-opacity:0.0; 
stroke:#C2C200; stroke-width:59.0551; stroke-opacity:1; 
stroke-linecap:round; stroke-linejoin:round;">
</g>
<g style="fill:#C2C200; fill-opacity:0.0; 
stroke:#C2C200; stroke-width:19.685; stroke-opacity:1; 
stroke-linecap:round; stroke-linejoin:round;">
<path d="M27674 14364
L20785 26298
" />
<path d="M20785 2431
L27674 14364
" />
<path d="M7005 26298
L115 14364
" />
<path d="M7005 26298
L11694 26298
" />
<path d="M11694 26298
L12095 26298
" />
<path d="M15695 24756
L15695 26298
" />
<path d="M115 14364
L7005 2431
" />
<path d="M12095 24756
L15695 24756
" />
<path d="M7005 2431
L20785 2431
" />
<path d="M12095 26298
L12095 24756
" />
<path d="M15695 26298
L20785 26298
" />
<g >
</g>
<g >
</g>
<g >
</g>
<g >
</g>
<g >
</g>
<g >
</g>
<g >
</g>
<g >
</g>
<g >
</g>
<g >
</g>
<g >
</g>
<g >
</g>
<g >
</g>
<g >
</g>
<g >
</g>
<g >
</g>
<g >
</g>
<g >
</g>
<g >
</g>
<g >
</g>
<g >
</g>
<g >
</g>
<g >
</g>
<g >
</g>
<g >
</g>
<g >
</g>
<g >
</g>
<g >
</g>
<g >
</g>
<g >
</g>
<g >
</g>
<g >
</g>
<g >
</g>
<g >
</g>
<g >
</g>
<g >
</g>
<g >
</g>
<g >
</g>
</g> 
</svg>
