  0
SECTION
  2
HEADER
  9
$ANGBASE
  50
0.0
  9
$ANGDIR
  70
1
  9
$MEASUREMENT
  70
1
  0
ENDSEC
  0
SECTION
  2
TABLES
  0
TABLE
  2
LTYPE
  70
4
  0
LTYPE
  5
40F
  2
CONTINUOUS
  70
0
  3
Solid line
  72
65
  73
0
  40
0.0
  0
LTYPE
  5
410
  2
DASHDOT
 70
0
  3
Dash Dot ____ _ ____ _
 72
65
 73
4
 40
2.0
 49
1.25
 49
-0.25
 49
0.25
 49
-0.25
  0
LTYPE
  5
411
  2
DASHED
 70
0
  3
Dashed __ __ __ __ __
 72
65
 73
2
 40
0.75
 49
0.5
 49
-0.25
  0
LTYPE
  5
43B
  2
DOTTED
 70
0
  3
Dotted .  .  .  .
 72
65
 73
2
 40
0.2
 49
0.0
 49
-0.2
  0
ENDTAB
  0
TABLE
  2
STYLE
  70
4
  0
STYLE
  2
KICAD
  70
0
  40
0
  41
1
  42
1
  50
0
  71
0
  3
isocp.shx
  0
STYLE
  2
KICADB
  70
0
  40
0
  41
1
  42
1
  50
0
  71
0
  3
isocp.shx
  0
STYLE
  2
KICADI
  70
0
  40
0
  41
1
  42
1
  50
15
  71
0
  3
isocp.shx
  0
STYLE
  2
KICADBI
  70
0
  40
0
  41
1
  42
1
  50
15
  71
0
  3
isocp.shx
  0
ENDTAB
  0
TABLE
  2
LAYER
  70
1
  0
LAYER
  2
BLACK
  70
0
  62
7
  6
CONTINUOUS
  0
ENDTAB
  0
ENDSEC
  0
SECTION
  2
ENTITIES
0
LINE
8
BLACK
6
CONTINUOUS
10
121.504
20
-19.9398
11
121.504
21
-19.9398
0
LINE
8
BLACK
6
CONTINUOUS
10
121.504
20
-19.9398
11
121.51
21
-19.9408
0
LINE
8
BLACK
6
CONTINUOUS
10
121.51
20
-19.9408
11
121.515
21
-19.9417
0
LINE
8
BLACK
6
CONTINUOUS
10
121.515
20
-19.9417
11
121.515
21
-19.9417
0
LINE
8
BLACK
6
CONTINUOUS
10
121.515
20
-19.9417
11
121.516
21
-19.9418
0
LINE
8
BLACK
6
CONTINUOUS
10
121.516
20
-19.9418
11
121.521
21
-19.9438
0
LINE
8
BLACK
6
CONTINUOUS
10
121.521
20
-19.9438
11
121.526
21
-19.9458
0
LINE
8
BLACK
6
CONTINUOUS
10
121.526
20
-19.9458
11
121.527
21
-19.9459
0
LINE
8
BLACK
6
CONTINUOUS
10
121.527
20
-19.9459
11
121.527
21
-19.9459
0
LINE
8
BLACK
6
CONTINUOUS
10
121.527
20
-19.9459
11
121.532
21
-19.9489
0
LINE
8
BLACK
6
CONTINUOUS
10
121.532
20
-19.9489
11
121.536
21
-19.952
0
LINE
8
BLACK
6
CONTINUOUS
10
121.536
20
-19.952
11
121.537
21
-19.9521
0
LINE
8
BLACK
6
CONTINUOUS
10
121.537
20
-19.9521
11
121.537
21
-19.9521
0
LINE
8
BLACK
6
CONTINUOUS
10
121.537
20
-19.9521
11
121.541
21
-19.956
0
LINE
8
BLACK
6
CONTINUOUS
10
121.541
20
-19.956
11
121.545
21
-19.96
0
LINE
8
BLACK
6
CONTINUOUS
10
121.545
20
-19.96
11
121.545
21
-19.9601
0
LINE
8
BLACK
6
CONTINUOUS
10
121.545
20
-19.9601
11
121.545
21
-19.9602
0
LINE
8
BLACK
6
CONTINUOUS
10
121.545
20
-19.9602
11
121.549
21
-19.9649
0
LINE
8
BLACK
6
CONTINUOUS
10
121.549
20
-19.9649
11
121.55
21
-19.9672
0
LINE
8
BLACK
6
CONTINUOUS
10
121.55
20
-19.9672
11
121.55
21
-19.9673
0
LINE
8
BLACK
6
CONTINUOUS
10
121.55
20
-19.9673
11
121.552
21
-19.9698
0
LINE
8
BLACK
6
CONTINUOUS
10
121.552
20
-19.9698
11
121.553
21
-19.9724
0
LINE
8
BLACK
6
CONTINUOUS
10
121.553
20
-19.9724
11
139.05
21
-49.9674
0
LINE
8
BLACK
6
CONTINUOUS
10
139.05
20
-49.9674
11
139.052
21
-49.97
0
LINE
8
BLACK
6
CONTINUOUS
10
139.052
20
-49.97
11
139.055
21
-49.9751
0
LINE
8
BLACK
6
CONTINUOUS
10
139.055
20
-49.9751
11
139.057
21
-49.9804
0
LINE
8
BLACK
6
CONTINUOUS
10
139.057
20
-49.9804
11
139.057
21
-49.9806
0
LINE
8
BLACK
6
CONTINUOUS
10
139.057
20
-49.9806
11
139.057
21
-49.9808
0
LINE
8
BLACK
6
CONTINUOUS
10
139.057
20
-49.9808
11
139.058
21
-49.9864
0
LINE
8
BLACK
6
CONTINUOUS
10
139.058
20
-49.9864
11
139.06
21
-49.9919
0
LINE
8
BLACK
6
CONTINUOUS
10
139.06
20
-49.9919
11
139.06
21
-49.9921
0
LINE
8
BLACK
6
CONTINUOUS
10
139.06
20
-49.9921
11
139.06
21
-49.9923
0
LINE
8
BLACK
6
CONTINUOUS
10
139.06
20
-49.9923
11
139.06
21
-49.998
0
LINE
8
BLACK
6
CONTINUOUS
10
139.06
20
-49.998
11
139.06
21
-50.0037
0
LINE
8
BLACK
6
CONTINUOUS
10
139.06
20
-50.0037
11
139.06
21
-50.0039
0
LINE
8
BLACK
6
CONTINUOUS
10
139.06
20
-50.0039
11
139.06
21
-50.0041
0
LINE
8
BLACK
6
CONTINUOUS
10
139.06
20
-50.0041
11
139.059
21
-50.0097
0
LINE
8
BLACK
6
CONTINUOUS
10
139.059
20
-50.0097
11
139.058
21
-50.0153
0
LINE
8
BLACK
6
CONTINUOUS
10
139.058
20
-50.0153
11
139.058
21
-50.0156
0
LINE
8
BLACK
6
CONTINUOUS
10
139.058
20
-50.0156
11
139.058
21
-50.0158
0
LINE
8
BLACK
6
CONTINUOUS
10
139.058
20
-50.0158
11
139.056
21
-50.0211
0
LINE
8
BLACK
6
CONTINUOUS
10
139.056
20
-50.0211
11
139.054
21
-50.0264
0
LINE
8
BLACK
6
CONTINUOUS
10
139.054
20
-50.0264
11
139.054
21
-50.0266
0
LINE
8
BLACK
6
CONTINUOUS
10
139.054
20
-50.0266
11
139.054
21
-50.0268
0
LINE
8
BLACK
6
CONTINUOUS
10
139.054
20
-50.0268
11
139.051
21
-50.0317
0
LINE
8
BLACK
6
CONTINUOUS
10
139.051
20
-50.0317
11
139.048
21
-50.0365
0
LINE
8
BLACK
6
CONTINUOUS
10
139.048
20
-50.0365
11
139.048
21
-50.0367
0
LINE
8
BLACK
6
CONTINUOUS
10
139.048
20
-50.0367
11
139.048
21
-50.0369
0
LINE
8
BLACK
6
CONTINUOUS
10
139.048
20
-50.0369
11
139.044
21
-50.041
0
LINE
8
BLACK
6
CONTINUOUS
10
139.044
20
-50.041
11
139.04
21
-50.0451
0
LINE
8
BLACK
6
CONTINUOUS
10
139.04
20
-50.0451
11
139.04
21
-50.0453
0
LINE
8
BLACK
6
CONTINUOUS
10
139.04
20
-50.0453
11
139.04
21
-50.0455
0
LINE
8
BLACK
6
CONTINUOUS
10
139.04
20
-50.0455
11
139.035
21
-50.0488
0
LINE
8
BLACK
6
CONTINUOUS
10
139.035
20
-50.0488
11
139.03
21
-50.0521
0
LINE
8
BLACK
6
CONTINUOUS
10
139.03
20
-50.0521
11
139.027
21
-50.0534
0
LINE
8
BLACK
6
CONTINUOUS
10
139.027
20
-50.0534
11
87.5323
21
-79.5507
0
LINE
8
BLACK
6
CONTINUOUS
10
87.5323
20
-79.5507
11
87.5297
21
-79.5525
0
LINE
8
BLACK
6
CONTINUOUS
10
87.5297
20
-79.5525
11
87.5245
21
-79.5548
0
LINE
8
BLACK
6
CONTINUOUS
10
87.5245
20
-79.5548
11
87.5192
21
-79.5572
0
LINE
8
BLACK
6
CONTINUOUS
10
87.5192
20
-79.5572
11
87.519
21
-79.5572
0
LINE
8
BLACK
6
CONTINUOUS
10
87.519
20
-79.5572
11
87.5189
21
-79.5572
0
LINE
8
BLACK
6
CONTINUOUS
10
87.5189
20
-79.5572
11
87.5133
21
-79.5585
0
LINE
8
BLACK
6
CONTINUOUS
10
87.5133
20
-79.5585
11
87.5077
21
-79.5598
0
LINE
8
BLACK
6
CONTINUOUS
10
87.5077
20
-79.5598
11
87.5075
21
-79.5598
0
LINE
8
BLACK
6
CONTINUOUS
10
87.5075
20
-79.5598
11
87.5074
21
-79.5598
0
LINE
8
BLACK
6
CONTINUOUS
10
87.5074
20
-79.5598
11
87.5016
21
-79.56
0
LINE
8
BLACK
6
CONTINUOUS
10
87.5016
20
-79.56
11
87.4959
21
-79.5601
0
LINE
8
BLACK
6
CONTINUOUS
10
87.4959
20
-79.5601
11
87.4957
21
-79.5601
0
LINE
8
BLACK
6
CONTINUOUS
10
87.4957
20
-79.5601
11
87.4956
21
-79.5601
0
LINE
8
BLACK
6
CONTINUOUS
10
87.4956
20
-79.5601
11
87.4899
21
-79.5591
0
LINE
8
BLACK
6
CONTINUOUS
10
87.4899
20
-79.5591
11
87.4842
21
-79.5582
0
LINE
8
BLACK
6
CONTINUOUS
10
87.4842
20
-79.5582
11
87.4841
21
-79.5581
0
LINE
8
BLACK
6
CONTINUOUS
10
87.4841
20
-79.5581
11
87.4839
21
-79.5581
0
LINE
8
BLACK
6
CONTINUOUS
10
87.4839
20
-79.5581
11
87.4784
21
-79.556
0
LINE
8
BLACK
6
CONTINUOUS
10
87.4784
20
-79.556
11
87.4732
21
-79.554
0
LINE
8
BLACK
6
CONTINUOUS
10
87.4732
20
-79.554
11
87.473
21
-79.5539
0
LINE
8
BLACK
6
CONTINUOUS
10
87.473
20
-79.5539
11
87.4729
21
-79.5539
0
LINE
8
BLACK
6
CONTINUOUS
10
87.4729
20
-79.5539
11
87.4679
21
-79.5507
0
LINE
8
BLACK
6
CONTINUOUS
10
87.4679
20
-79.5507
11
87.4631
21
-79.5477
0
LINE
8
BLACK
6
CONTINUOUS
10
87.4631
20
-79.5477
11
87.463
21
-79.5476
0
LINE
8
BLACK
6
CONTINUOUS
10
87.463
20
-79.5476
11
87.4629
21
-79.5475
0
LINE
8
BLACK
6
CONTINUOUS
10
87.4629
20
-79.5475
11
87.4587
21
-79.5435
0
LINE
8
BLACK
6
CONTINUOUS
10
87.4587
20
-79.5435
11
87.4545
21
-79.5396
0
LINE
8
BLACK
6
CONTINUOUS
10
87.4545
20
-79.5396
11
87.4545
21
-79.5395
0
LINE
8
BLACK
6
CONTINUOUS
10
87.4545
20
-79.5395
11
87.4544
21
-79.5394
0
LINE
8
BLACK
6
CONTINUOUS
10
87.4544
20
-79.5394
11
87.4509
21
-79.5345
0
LINE
8
BLACK
6
CONTINUOUS
10
87.4509
20
-79.5345
11
87.4477
21
-79.53
0
LINE
8
BLACK
6
CONTINUOUS
10
87.4477
20
-79.53
11
87.4464
21
-79.5271
0
LINE
8
BLACK
6
CONTINUOUS
10
87.4464
20
-79.5271
11
70.4494
21
-49.5324
0
LINE
8
BLACK
6
CONTINUOUS
10
70.4494
20
-49.5324
11
70.4478
21
-49.5302
0
LINE
8
BLACK
6
CONTINUOUS
10
70.4478
20
-49.5302
11
70.4465
21
-49.5272
0
LINE
8
BLACK
6
CONTINUOUS
10
70.4465
20
-49.5272
11
70.4463
21
-49.527
0
LINE
8
BLACK
6
CONTINUOUS
10
70.4463
20
-49.527
11
70.4453
21
-49.5246
0
LINE
8
BLACK
6
CONTINUOUS
10
70.4453
20
-49.5246
11
70.4429
21
-49.5194
0
LINE
8
BLACK
6
CONTINUOUS
10
70.4429
20
-49.5194
11
70.4429
21
-49.5192
0
LINE
8
BLACK
6
CONTINUOUS
10
70.4429
20
-49.5192
11
70.4428
21
-49.5189
0
LINE
8
BLACK
6
CONTINUOUS
10
70.4428
20
-49.5189
11
70.4415
21
-49.5135
0
LINE
8
BLACK
6
CONTINUOUS
10
70.4415
20
-49.5135
11
70.4402
21
-49.5079
0
LINE
8
BLACK
6
CONTINUOUS
10
70.4402
20
-49.5079
11
70.4402
21
-49.5076
0
LINE
8
BLACK
6
CONTINUOUS
10
70.4402
20
-49.5076
11
70.4402
21
-49.5074
0
LINE
8
BLACK
6
CONTINUOUS
10
70.4402
20
-49.5074
11
70.44
21
-49.5018
0
LINE
8
BLACK
6
CONTINUOUS
10
70.44
20
-49.5018
11
70.4398
21
-49.4961
0
LINE
8
BLACK
6
CONTINUOUS
10
70.4398
20
-49.4961
11
70.4399
21
-49.4958
0
LINE
8
BLACK
6
CONTINUOUS
10
70.4399
20
-49.4958
11
70.4399
21
-49.4956
0
LINE
8
BLACK
6
CONTINUOUS
10
70.4399
20
-49.4956
11
70.4408
21
-49.49
0
LINE
8
BLACK
6
CONTINUOUS
10
70.4408
20
-49.49
11
70.4418
21
-49.4844
0
LINE
8
BLACK
6
CONTINUOUS
10
70.4418
20
-49.4844
11
70.4418
21
-49.4842
0
LINE
8
BLACK
6
CONTINUOUS
10
70.4418
20
-49.4842
11
70.4419
21
-49.4839
0
LINE
8
BLACK
6
CONTINUOUS
10
70.4419
20
-49.4839
11
70.4439
21
-49.4787
0
LINE
8
BLACK
6
CONTINUOUS
10
70.4439
20
-49.4787
11
70.4459
21
-49.4734
0
LINE
8
BLACK
6
CONTINUOUS
10
70.4459
20
-49.4734
11
70.446
21
-49.4732
0
LINE
8
BLACK
6
CONTINUOUS
10
70.446
20
-49.4732
11
70.4461
21
-49.4729
0
LINE
8
BLACK
6
CONTINUOUS
10
70.4461
20
-49.4729
11
70.4492
21
-49.4681
0
LINE
8
BLACK
6
CONTINUOUS
10
70.4492
20
-49.4681
11
70.4521
21
-49.4633
0
LINE
8
BLACK
6
CONTINUOUS
10
70.4521
20
-49.4633
11
70.4523
21
-49.4631
0
LINE
8
BLACK
6
CONTINUOUS
10
70.4523
20
-49.4631
11
70.4525
21
-49.4629
0
LINE
8
BLACK
6
CONTINUOUS
10
70.4525
20
-49.4629
11
70.4564
21
-49.4588
0
LINE
8
BLACK
6
CONTINUOUS
10
70.4564
20
-49.4588
11
70.4602
21
-49.4547
0
LINE
8
BLACK
6
CONTINUOUS
10
70.4602
20
-49.4547
11
70.4604
21
-49.4545
0
LINE
8
BLACK
6
CONTINUOUS
10
70.4604
20
-49.4545
11
70.4606
21
-49.4544
0
LINE
8
BLACK
6
CONTINUOUS
10
70.4606
20
-49.4544
11
70.4652
21
-49.4511
0
LINE
8
BLACK
6
CONTINUOUS
10
70.4652
20
-49.4511
11
70.4674
21
-49.4495
0
LINE
8
BLACK
6
CONTINUOUS
10
70.4674
20
-49.4495
11
70.4676
21
-49.4494
0
LINE
8
BLACK
6
CONTINUOUS
10
70.4676
20
-49.4494
11
70.4703
21
-49.4475
0
LINE
8
BLACK
6
CONTINUOUS
10
70.4703
20
-49.4475
11
70.4727
21
-49.4465
0
LINE
8
BLACK
6
CONTINUOUS
10
70.4727
20
-49.4465
11
121.467
21
-19.9496
0
LINE
8
BLACK
6
CONTINUOUS
10
121.467
20
-19.9496
11
121.47
21
-19.9479
0
LINE
8
BLACK
6
CONTINUOUS
10
121.47
20
-19.9479
11
121.472
21
-19.9466
0
LINE
8
BLACK
6
CONTINUOUS
10
121.472
20
-19.9466
11
121.473
21
-19.9466
0
LINE
8
BLACK
6
CONTINUOUS
10
121.473
20
-19.9466
11
121.475
21
-19.9454
0
LINE
8
BLACK
6
CONTINUOUS
10
121.475
20
-19.9454
11
121.48
21
-19.943
0
LINE
8
BLACK
6
CONTINUOUS
10
121.48
20
-19.943
11
121.48
21
-19.943
0
LINE
8
BLACK
6
CONTINUOUS
10
121.48
20
-19.943
11
121.481
21
-19.9429
0
LINE
8
BLACK
6
CONTINUOUS
10
121.481
20
-19.9429
11
121.486
21
-19.9416
0
LINE
8
BLACK
6
CONTINUOUS
10
121.486
20
-19.9416
11
121.492
21
-19.9403
0
LINE
8
BLACK
6
CONTINUOUS
10
121.492
20
-19.9403
11
121.492
21
-19.9403
0
LINE
8
BLACK
6
CONTINUOUS
10
121.492
20
-19.9403
11
121.492
21
-19.9402
0
LINE
8
BLACK
6
CONTINUOUS
10
121.492
20
-19.9402
11
121.498
21
-19.94
0
LINE
8
BLACK
6
CONTINUOUS
10
121.498
20
-19.94
11
121.504
21
-19.9398
0
LINE
8
BLACK
6
CONTINUOUS
10
121.504
20
-19.9398
11
121.504
21
-19.9398
0
LINE
8
BLACK
6
CONTINUOUS
10
70.5815
20
-49.5222
11
87.5225
21
-79.418
0
LINE
8
BLACK
6
CONTINUOUS
10
87.5225
20
-79.418
11
138.918
21
-49.978
0
LINE
8
BLACK
6
CONTINUOUS
10
138.918
20
-49.978
11
121.478
21
-20.0819
0
LINE
8
BLACK
6
CONTINUOUS
10
121.478
20
-20.0819
11
70.5815
21
-49.5222
0
LINE
8
BLACK
6
CONTINUOUS
10
104.453
20
-49.3774
11
104.453
21
-49.3774
0
LINE
8
BLACK
6
CONTINUOUS
10
104.453
20
-49.3774
11
104.453
21
-49.3774
0
LINE
8
BLACK
6
CONTINUOUS
10
104.453
20
-49.3774
11
104.453
21
-49.3774
0
LINE
8
BLACK
6
CONTINUOUS
10
104.453
20
-49.3774
11
104.46
21
-49.3782
0
LINE
8
BLACK
6
CONTINUOUS
10
104.46
20
-49.3782
11
104.467
21
-49.3789
0
LINE
8
BLACK
6
CONTINUOUS
10
104.467
20
-49.3789
11
104.468
21
-49.379
0
LINE
8
BLACK
6
CONTINUOUS
10
104.468
20
-49.379
11
104.468
21
-49.379
0
LINE
8
BLACK
6
CONTINUOUS
10
104.468
20
-49.379
11
104.475
21
-49.3811
0
LINE
8
BLACK
6
CONTINUOUS
10
104.475
20
-49.3811
11
104.481
21
-49.3832
0
LINE
8
BLACK
6
CONTINUOUS
10
104.481
20
-49.3832
11
104.482
21
-49.3834
0
LINE
8
BLACK
6
CONTINUOUS
10
104.482
20
-49.3834
11
104.482
21
-49.3834
0
LINE
8
BLACK
6
CONTINUOUS
10
104.482
20
-49.3834
11
104.488
21
-49.3869
0
LINE
8
BLACK
6
CONTINUOUS
10
104.488
20
-49.3869
11
104.494
21
-49.3902
0
LINE
8
BLACK
6
CONTINUOUS
10
104.494
20
-49.3902
11
104.495
21
-49.3904
0
LINE
8
BLACK
6
CONTINUOUS
10
104.495
20
-49.3904
11
104.495
21
-49.3905
0
LINE
8
BLACK
6
CONTINUOUS
10
104.495
20
-49.3905
11
104.5
21
-49.395
0
LINE
8
BLACK
6
CONTINUOUS
10
104.5
20
-49.395
11
104.506
21
-49.3995
0
LINE
8
BLACK
6
CONTINUOUS
10
104.506
20
-49.3995
11
104.506
21
-49.3997
0
LINE
8
BLACK
6
CONTINUOUS
10
104.506
20
-49.3997
11
104.506
21
-49.3999
0
LINE
8
BLACK
6
CONTINUOUS
10
104.506
20
-49.3999
11
104.51
21
-49.4054
0
LINE
8
BLACK
6
CONTINUOUS
10
104.51
20
-49.4054
11
104.515
21
-49.4109
0
LINE
8
BLACK
6
CONTINUOUS
10
104.515
20
-49.4109
11
104.515
21
-49.4111
0
LINE
8
BLACK
6
CONTINUOUS
10
104.515
20
-49.4111
11
104.515
21
-49.4113
0
LINE
8
BLACK
6
CONTINUOUS
10
104.515
20
-49.4113
11
104.518
21
-49.4176
0
LINE
8
BLACK
6
CONTINUOUS
10
104.518
20
-49.4176
11
104.522
21
-49.4238
0
LINE
8
BLACK
6
CONTINUOUS
10
104.522
20
-49.4238
11
104.522
21
-49.4241
0
LINE
8
BLACK
6
CONTINUOUS
10
104.522
20
-49.4241
11
104.522
21
-49.4243
0
LINE
8
BLACK
6
CONTINUOUS
10
104.522
20
-49.4243
11
104.524
21
-49.4311
0
LINE
8
BLACK
6
CONTINUOUS
10
104.524
20
-49.4311
11
104.526
21
-49.4378
0
LINE
8
BLACK
6
CONTINUOUS
10
104.526
20
-49.4378
11
104.526
21
-49.4381
0
LINE
8
BLACK
6
CONTINUOUS
10
104.526
20
-49.4381
11
104.526
21
-49.4383
0
LINE
8
BLACK
6
CONTINUOUS
10
104.526
20
-49.4383
11
104.527
21
-49.4453
0
LINE
8
BLACK
6
CONTINUOUS
10
104.527
20
-49.4453
11
104.527
21
-49.4524
0
LINE
8
BLACK
6
CONTINUOUS
10
104.527
20
-49.4524
11
104.527
21
-50.4524
0
LINE
8
BLACK
6
CONTINUOUS
10
104.527
20
-50.4524
11
104.527
21
-50.4529
0
LINE
8
BLACK
6
CONTINUOUS
10
104.527
20
-50.4529
11
104.527
21
-50.4529
0
LINE
8
BLACK
6
CONTINUOUS
10
104.527
20
-50.4529
11
104.527
21
-50.4529
0
LINE
8
BLACK
6
CONTINUOUS
10
104.527
20
-50.4529
11
104.527
21
-50.4534
0
LINE
8
BLACK
6
CONTINUOUS
10
104.527
20
-50.4534
11
104.527
21
-50.4605
0
LINE
8
BLACK
6
CONTINUOUS
10
104.527
20
-50.4605
11
104.526
21
-50.4675
0
LINE
8
BLACK
6
CONTINUOUS
10
104.526
20
-50.4675
11
104.526
21
-50.4677
0
LINE
8
BLACK
6
CONTINUOUS
10
104.526
20
-50.4677
11
104.526
21
-50.468
0
LINE
8
BLACK
6
CONTINUOUS
10
104.526
20
-50.468
11
104.524
21
-50.4747
0
LINE
8
BLACK
6
CONTINUOUS
10
104.524
20
-50.4747
11
104.522
21
-50.4814
0
LINE
8
BLACK
6
CONTINUOUS
10
104.522
20
-50.4814
11
104.521
21
-50.4817
0
LINE
8
BLACK
6
CONTINUOUS
10
104.521
20
-50.4817
11
104.521
21
-50.4819
0
LINE
8
BLACK
6
CONTINUOUS
10
104.521
20
-50.4819
11
104.518
21
-50.4881
0
LINE
8
BLACK
6
CONTINUOUS
10
104.518
20
-50.4881
11
104.515
21
-50.4943
0
LINE
8
BLACK
6
CONTINUOUS
10
104.515
20
-50.4943
11
104.514
21
-50.4945
0
LINE
8
BLACK
6
CONTINUOUS
10
104.514
20
-50.4945
11
104.514
21
-50.4948
0
LINE
8
BLACK
6
CONTINUOUS
10
104.514
20
-50.4948
11
104.51
21
-50.5002
0
LINE
8
BLACK
6
CONTINUOUS
10
104.51
20
-50.5002
11
104.505
21
-50.5056
0
LINE
8
BLACK
6
CONTINUOUS
10
104.505
20
-50.5056
11
104.505
21
-50.5058
0
LINE
8
BLACK
6
CONTINUOUS
10
104.505
20
-50.5058
11
104.505
21
-50.506
0
LINE
8
BLACK
6
CONTINUOUS
10
104.505
20
-50.506
11
104.499
21
-50.5104
0
LINE
8
BLACK
6
CONTINUOUS
10
104.499
20
-50.5104
11
104.494
21
-50.5148
0
LINE
8
BLACK
6
CONTINUOUS
10
104.494
20
-50.5148
11
104.494
21
-50.515
0
LINE
8
BLACK
6
CONTINUOUS
10
104.494
20
-50.515
11
104.493
21
-50.5151
0
LINE
8
BLACK
6
CONTINUOUS
10
104.493
20
-50.5151
11
104.487
21
-50.5184
0
LINE
8
BLACK
6
CONTINUOUS
10
104.487
20
-50.5184
11
104.481
21
-50.5217
0
LINE
8
BLACK
6
CONTINUOUS
10
104.481
20
-50.5217
11
104.481
21
-50.5218
0
LINE
8
BLACK
6
CONTINUOUS
10
104.481
20
-50.5218
11
104.48
21
-50.5219
0
LINE
8
BLACK
6
CONTINUOUS
10
104.48
20
-50.5219
11
104.474
21
-50.5239
0
LINE
8
BLACK
6
CONTINUOUS
10
104.474
20
-50.5239
11
104.467
21
-50.526
0
LINE
8
BLACK
6
CONTINUOUS
10
104.467
20
-50.526
11
104.467
21
-50.526
0
LINE
8
BLACK
6
CONTINUOUS
10
104.467
20
-50.526
11
104.466
21
-50.5261
0
LINE
8
BLACK
6
CONTINUOUS
10
104.466
20
-50.5261
11
104.459
21
-50.5267
0
LINE
8
BLACK
6
CONTINUOUS
10
104.459
20
-50.5267
11
104.452
21
-50.5274
0
LINE
8
BLACK
6
CONTINUOUS
10
104.452
20
-50.5274
11
103.976
21
-50.5274
0
LINE
8
BLACK
6
CONTINUOUS
10
103.976
20
-50.5274
11
103.975
21
-50.5274
0
LINE
8
BLACK
6
CONTINUOUS
10
103.975
20
-50.5274
11
103.961
21
-50.5257
0
LINE
8
BLACK
6
CONTINUOUS
10
103.961
20
-50.5257
11
103.947
21
-50.5213
0
LINE
8
BLACK
6
CONTINUOUS
10
103.947
20
-50.5213
11
103.934
21
-50.5143
0
LINE
8
BLACK
6
CONTINUOUS
10
103.934
20
-50.5143
11
103.923
21
-50.5049
0
LINE
8
BLACK
6
CONTINUOUS
10
103.923
20
-50.5049
11
103.913
21
-50.4934
0
LINE
8
BLACK
6
CONTINUOUS
10
103.913
20
-50.4934
11
103.907
21
-50.4805
0
LINE
8
BLACK
6
CONTINUOUS
10
103.907
20
-50.4805
11
103.903
21
-50.4664
0
LINE
8
BLACK
6
CONTINUOUS
10
103.903
20
-50.4664
11
103.901
21
-50.4519
0
LINE
8
BLACK
6
CONTINUOUS
10
103.901
20
-50.4519
11
103.903
21
-50.4373
0
LINE
8
BLACK
6
CONTINUOUS
10
103.903
20
-50.4373
11
103.907
21
-50.4233
0
LINE
8
BLACK
6
CONTINUOUS
10
103.907
20
-50.4233
11
103.914
21
-50.4104
0
LINE
8
BLACK
6
CONTINUOUS
10
103.914
20
-50.4104
11
103.923
21
-50.3992
0
LINE
8
BLACK
6
CONTINUOUS
10
103.923
20
-50.3992
11
103.935
21
-50.3899
0
LINE
8
BLACK
6
CONTINUOUS
10
103.935
20
-50.3899
11
103.948
21
-50.383
0
LINE
8
BLACK
6
CONTINUOUS
10
103.948
20
-50.383
11
103.962
21
-50.3788
0
LINE
8
BLACK
6
CONTINUOUS
10
103.962
20
-50.3788
11
103.976
21
-50.3774
0
LINE
8
BLACK
6
CONTINUOUS
10
103.976
20
-50.3774
11
104.377
21
-50.3774
0
LINE
8
BLACK
6
CONTINUOUS
10
104.377
20
-50.3774
11
104.377
21
-50.0036
0
LINE
8
BLACK
6
CONTINUOUS
10
104.377
20
-50.0036
11
104.119
21
-50.0036
0
LINE
8
BLACK
6
CONTINUOUS
10
104.119
20
-50.0036
11
104.118
21
-50.0036
0
LINE
8
BLACK
6
CONTINUOUS
10
104.118
20
-50.0036
11
104.103
21
-50.0019
0
LINE
8
BLACK
6
CONTINUOUS
10
104.103
20
-50.0019
11
104.09
21
-49.9975
0
LINE
8
BLACK
6
CONTINUOUS
10
104.09
20
-49.9975
11
104.077
21
-49.9905
0
LINE
8
BLACK
6
CONTINUOUS
10
104.077
20
-49.9905
11
104.065
21
-49.981
0
LINE
8
BLACK
6
CONTINUOUS
10
104.065
20
-49.981
11
104.056
21
-49.9696
0
LINE
8
BLACK
6
CONTINUOUS
10
104.056
20
-49.9696
11
104.05
21
-49.9567
0
LINE
8
BLACK
6
CONTINUOUS
10
104.05
20
-49.9567
11
104.045
21
-49.9426
0
LINE
8
BLACK
6
CONTINUOUS
10
104.045
20
-49.9426
11
104.044
21
-49.928
0
LINE
8
BLACK
6
CONTINUOUS
10
104.044
20
-49.928
11
104.046
21
-49.9135
0
LINE
8
BLACK
6
CONTINUOUS
10
104.046
20
-49.9135
11
104.05
21
-49.8995
0
LINE
8
BLACK
6
CONTINUOUS
10
104.05
20
-49.8995
11
104.057
21
-49.8866
0
LINE
8
BLACK
6
CONTINUOUS
10
104.057
20
-49.8866
11
104.066
21
-49.8754
0
LINE
8
BLACK
6
CONTINUOUS
10
104.066
20
-49.8754
11
104.078
21
-49.8661
0
LINE
8
BLACK
6
CONTINUOUS
10
104.078
20
-49.8661
11
104.09
21
-49.8592
0
LINE
8
BLACK
6
CONTINUOUS
10
104.09
20
-49.8592
11
104.104
21
-49.855
0
LINE
8
BLACK
6
CONTINUOUS
10
104.104
20
-49.855
11
104.119
21
-49.8536
0
LINE
8
BLACK
6
CONTINUOUS
10
104.119
20
-49.8536
11
104.377
21
-49.8536
0
LINE
8
BLACK
6
CONTINUOUS
10
104.377
20
-49.8536
11
104.377
21
-49.5274
0
LINE
8
BLACK
6
CONTINUOUS
10
104.377
20
-49.5274
11
103.976
21
-49.5274
0
LINE
8
BLACK
6
CONTINUOUS
10
103.976
20
-49.5274
11
103.975
21
-49.5274
0
LINE
8
BLACK
6
CONTINUOUS
10
103.975
20
-49.5274
11
103.961
21
-49.5257
0
LINE
8
BLACK
6
CONTINUOUS
10
103.961
20
-49.5257
11
103.947
21
-49.5213
0
LINE
8
BLACK
6
CONTINUOUS
10
103.947
20
-49.5213
11
103.934
21
-49.5143
0
LINE
8
BLACK
6
CONTINUOUS
10
103.934
20
-49.5143
11
103.923
21
-49.5049
0
LINE
8
BLACK
6
CONTINUOUS
10
103.923
20
-49.5049
11
103.913
21
-49.4934
0
LINE
8
BLACK
6
CONTINUOUS
10
103.913
20
-49.4934
11
103.907
21
-49.4805
0
LINE
8
BLACK
6
CONTINUOUS
10
103.907
20
-49.4805
11
103.903
21
-49.4664
0
LINE
8
BLACK
6
CONTINUOUS
10
103.903
20
-49.4664
11
103.901
21
-49.4519
0
LINE
8
BLACK
6
CONTINUOUS
10
103.901
20
-49.4519
11
103.903
21
-49.4373
0
LINE
8
BLACK
6
CONTINUOUS
10
103.903
20
-49.4373
11
103.907
21
-49.4233
0
LINE
8
BLACK
6
CONTINUOUS
10
103.907
20
-49.4233
11
103.914
21
-49.4104
0
LINE
8
BLACK
6
CONTINUOUS
10
103.914
20
-49.4104
11
103.923
21
-49.3992
0
LINE
8
BLACK
6
CONTINUOUS
10
103.923
20
-49.3992
11
103.935
21
-49.3899
0
LINE
8
BLACK
6
CONTINUOUS
10
103.935
20
-49.3899
11
103.948
21
-49.383
0
LINE
8
BLACK
6
CONTINUOUS
10
103.948
20
-49.383
11
103.962
21
-49.3788
0
LINE
8
BLACK
6
CONTINUOUS
10
103.962
20
-49.3788
11
103.976
21
-49.3774
0
LINE
8
BLACK
6
CONTINUOUS
10
103.976
20
-49.3774
11
104.452
21
-49.3774
0
LINE
8
BLACK
6
CONTINUOUS
10
104.452
20
-49.3774
11
104.453
21
-49.3774
0
LINE
8
BLACK
6
CONTINUOUS
10
107.834
20
-49.3774
11
107.834
21
-49.3774
0
LINE
8
BLACK
6
CONTINUOUS
10
107.834
20
-49.3774
11
107.834
21
-49.3774
0
LINE
8
BLACK
6
CONTINUOUS
10
107.834
20
-49.3774
11
107.834
21
-49.3774
0
LINE
8
BLACK
6
CONTINUOUS
10
107.834
20
-49.3774
11
107.841
21
-49.3782
0
LINE
8
BLACK
6
CONTINUOUS
10
107.841
20
-49.3782
11
107.848
21
-49.3789
0
LINE
8
BLACK
6
CONTINUOUS
10
107.848
20
-49.3789
11
107.849
21
-49.379
0
LINE
8
BLACK
6
CONTINUOUS
10
107.849
20
-49.379
11
107.849
21
-49.379
0
LINE
8
BLACK
6
CONTINUOUS
10
107.849
20
-49.379
11
107.856
21
-49.3811
0
LINE
8
BLACK
6
CONTINUOUS
10
107.856
20
-49.3811
11
107.862
21
-49.3832
0
LINE
8
BLACK
6
CONTINUOUS
10
107.862
20
-49.3832
11
107.863
21
-49.3834
0
LINE
8
BLACK
6
CONTINUOUS
10
107.863
20
-49.3834
11
107.863
21
-49.3834
0
LINE
8
BLACK
6
CONTINUOUS
10
107.863
20
-49.3834
11
107.869
21
-49.3869
0
LINE
8
BLACK
6
CONTINUOUS
10
107.869
20
-49.3869
11
107.875
21
-49.3902
0
LINE
8
BLACK
6
CONTINUOUS
10
107.875
20
-49.3902
11
107.875
21
-49.3904
0
LINE
8
BLACK
6
CONTINUOUS
10
107.875
20
-49.3904
11
107.876
21
-49.3905
0
LINE
8
BLACK
6
CONTINUOUS
10
107.876
20
-49.3905
11
107.881
21
-49.395
0
LINE
8
BLACK
6
CONTINUOUS
10
107.881
20
-49.395
11
107.887
21
-49.3995
0
LINE
8
BLACK
6
CONTINUOUS
10
107.887
20
-49.3995
11
107.887
21
-49.3997
0
LINE
8
BLACK
6
CONTINUOUS
10
107.887
20
-49.3997
11
107.887
21
-49.3999
0
LINE
8
BLACK
6
CONTINUOUS
10
107.887
20
-49.3999
11
107.891
21
-49.4054
0
LINE
8
BLACK
6
CONTINUOUS
10
107.891
20
-49.4054
11
107.896
21
-49.4109
0
LINE
8
BLACK
6
CONTINUOUS
10
107.896
20
-49.4109
11
107.896
21
-49.4111
0
LINE
8
BLACK
6
CONTINUOUS
10
107.896
20
-49.4111
11
107.896
21
-49.4113
0
LINE
8
BLACK
6
CONTINUOUS
10
107.896
20
-49.4113
11
107.899
21
-49.4176
0
LINE
8
BLACK
6
CONTINUOUS
10
107.899
20
-49.4176
11
107.903
21
-49.4238
0
LINE
8
BLACK
6
CONTINUOUS
10
107.903
20
-49.4238
11
107.903
21
-49.4241
0
LINE
8
BLACK
6
CONTINUOUS
10
107.903
20
-49.4241
11
107.903
21
-49.4243
0
LINE
8
BLACK
6
CONTINUOUS
10
107.903
20
-49.4243
11
107.905
21
-49.4311
0
LINE
8
BLACK
6
CONTINUOUS
10
107.905
20
-49.4311
11
107.907
21
-49.4378
0
LINE
8
BLACK
6
CONTINUOUS
10
107.907
20
-49.4378
11
107.907
21
-49.4381
0
LINE
8
BLACK
6
CONTINUOUS
10
107.907
20
-49.4381
11
107.907
21
-49.4383
0
LINE
8
BLACK
6
CONTINUOUS
10
107.907
20
-49.4383
11
107.908
21
-49.4453
0
LINE
8
BLACK
6
CONTINUOUS
10
107.908
20
-49.4453
11
107.908
21
-49.4524
0
LINE
8
BLACK
6
CONTINUOUS
10
107.908
20
-49.4524
11
107.908
21
-50.4524
0
LINE
8
BLACK
6
CONTINUOUS
10
107.908
20
-50.4524
11
107.908
21
-50.4529
0
LINE
8
BLACK
6
CONTINUOUS
10
107.908
20
-50.4529
11
107.908
21
-50.4529
0
LINE
8
BLACK
6
CONTINUOUS
10
107.908
20
-50.4529
11
107.908
21
-50.4529
0
LINE
8
BLACK
6
CONTINUOUS
10
107.908
20
-50.4529
11
107.908
21
-50.4534
0
LINE
8
BLACK
6
CONTINUOUS
10
107.908
20
-50.4534
11
107.908
21
-50.4605
0
LINE
8
BLACK
6
CONTINUOUS
10
107.908
20
-50.4605
11
107.907
21
-50.4675
0
LINE
8
BLACK
6
CONTINUOUS
10
107.907
20
-50.4675
11
107.907
21
-50.4677
0
LINE
8
BLACK
6
CONTINUOUS
10
107.907
20
-50.4677
11
107.907
21
-50.468
0
LINE
8
BLACK
6
CONTINUOUS
10
107.907
20
-50.468
11
107.905
21
-50.4747
0
LINE
8
BLACK
6
CONTINUOUS
10
107.905
20
-50.4747
11
107.902
21
-50.4814
0
LINE
8
BLACK
6
CONTINUOUS
10
107.902
20
-50.4814
11
107.902
21
-50.4817
0
LINE
8
BLACK
6
CONTINUOUS
10
107.902
20
-50.4817
11
107.902
21
-50.4819
0
LINE
8
BLACK
6
CONTINUOUS
10
107.902
20
-50.4819
11
107.899
21
-50.4881
0
LINE
8
BLACK
6
CONTINUOUS
10
107.899
20
-50.4881
11
107.896
21
-50.4943
0
LINE
8
BLACK
6
CONTINUOUS
10
107.896
20
-50.4943
11
107.895
21
-50.4945
0
LINE
8
BLACK
6
CONTINUOUS
10
107.895
20
-50.4945
11
107.895
21
-50.4948
0
LINE
8
BLACK
6
CONTINUOUS
10
107.895
20
-50.4948
11
107.891
21
-50.5002
0
LINE
8
BLACK
6
CONTINUOUS
10
107.891
20
-50.5002
11
107.886
21
-50.5056
0
LINE
8
BLACK
6
CONTINUOUS
10
107.886
20
-50.5056
11
107.886
21
-50.5058
0
LINE
8
BLACK
6
CONTINUOUS
10
107.886
20
-50.5058
11
107.886
21
-50.506
0
LINE
8
BLACK
6
CONTINUOUS
10
107.886
20
-50.506
11
107.88
21
-50.5104
0
LINE
8
BLACK
6
CONTINUOUS
10
107.88
20
-50.5104
11
107.875
21
-50.5148
0
LINE
8
BLACK
6
CONTINUOUS
10
107.875
20
-50.5148
11
107.875
21
-50.515
0
LINE
8
BLACK
6
CONTINUOUS
10
107.875
20
-50.515
11
107.874
21
-50.5151
0
LINE
8
BLACK
6
CONTINUOUS
10
107.874
20
-50.5151
11
107.868
21
-50.5184
0
LINE
8
BLACK
6
CONTINUOUS
10
107.868
20
-50.5184
11
107.862
21
-50.5217
0
LINE
8
BLACK
6
CONTINUOUS
10
107.862
20
-50.5217
11
107.862
21
-50.5218
0
LINE
8
BLACK
6
CONTINUOUS
10
107.862
20
-50.5218
11
107.861
21
-50.5219
0
LINE
8
BLACK
6
CONTINUOUS
10
107.861
20
-50.5219
11
107.855
21
-50.5239
0
LINE
8
BLACK
6
CONTINUOUS
10
107.855
20
-50.5239
11
107.848
21
-50.526
0
LINE
8
BLACK
6
CONTINUOUS
10
107.848
20
-50.526
11
107.848
21
-50.526
0
LINE
8
BLACK
6
CONTINUOUS
10
107.848
20
-50.526
11
107.847
21
-50.5261
0
LINE
8
BLACK
6
CONTINUOUS
10
107.847
20
-50.5261
11
107.84
21
-50.5267
0
LINE
8
BLACK
6
CONTINUOUS
10
107.84
20
-50.5267
11
107.833
21
-50.5274
0
LINE
8
BLACK
6
CONTINUOUS
10
107.833
20
-50.5274
11
107.452
21
-50.5274
0
LINE
8
BLACK
6
CONTINUOUS
10
107.452
20
-50.5274
11
107.451
21
-50.5274
0
LINE
8
BLACK
6
CONTINUOUS
10
107.451
20
-50.5274
11
107.449
21
-50.5271
0
LINE
8
BLACK
6
CONTINUOUS
10
107.449
20
-50.5271
11
107.447
21
-50.5272
0
LINE
8
BLACK
6
CONTINUOUS
10
107.447
20
-50.5272
11
107.442
21
-50.5263
0
LINE
8
BLACK
6
CONTINUOUS
10
107.442
20
-50.5263
11
107.437
21
-50.5257
0
LINE
8
BLACK
6
CONTINUOUS
10
107.437
20
-50.5257
11
107.435
21
-50.5251
0
LINE
8
BLACK
6
CONTINUOUS
10
107.435
20
-50.5251
11
107.433
21
-50.5247
0
LINE
8
BLACK
6
CONTINUOUS
10
107.433
20
-50.5247
11
107.428
21
-50.5229
0
LINE
8
BLACK
6
CONTINUOUS
10
107.428
20
-50.5229
11
107.423
21
-50.5213
0
LINE
8
BLACK
6
CONTINUOUS
10
107.423
20
-50.5213
11
107.421
21
-50.5203
0
LINE
8
BLACK
6
CONTINUOUS
10
107.421
20
-50.5203
11
107.419
21
-50.5195
0
LINE
8
BLACK
6
CONTINUOUS
10
107.419
20
-50.5195
11
107.324
21
-50.4718
0
LINE
8
BLACK
6
CONTINUOUS
10
107.324
20
-50.4718
11
107.323
21
-50.4714
0
LINE
8
BLACK
6
CONTINUOUS
10
107.323
20
-50.4714
11
107.319
21
-50.4691
0
LINE
8
BLACK
6
CONTINUOUS
10
107.319
20
-50.4691
11
107.315
21
-50.4671
0
LINE
8
BLACK
6
CONTINUOUS
10
107.315
20
-50.4671
11
107.313
21
-50.4651
0
LINE
8
BLACK
6
CONTINUOUS
10
107.313
20
-50.4651
11
107.31
21
-50.4634
0
LINE
8
BLACK
6
CONTINUOUS
10
107.31
20
-50.4634
11
107.307
21
-50.4605
0
LINE
8
BLACK
6
CONTINUOUS
10
107.307
20
-50.4605
11
107.304
21
-50.4578
0
LINE
8
BLACK
6
CONTINUOUS
10
107.304
20
-50.4578
11
107.256
21
-50.4102
0
LINE
8
BLACK
6
CONTINUOUS
10
107.256
20
-50.4102
11
107.256
21
-50.4094
0
LINE
8
BLACK
6
CONTINUOUS
10
107.256
20
-50.4094
11
107.253
21
-50.4061
0
LINE
8
BLACK
6
CONTINUOUS
10
107.253
20
-50.4061
11
107.25
21
-50.4031
0
LINE
8
BLACK
6
CONTINUOUS
10
107.25
20
-50.4031
11
107.249
21
-50.4004
0
LINE
8
BLACK
6
CONTINUOUS
10
107.249
20
-50.4004
11
107.247
21
-50.398
0
LINE
8
BLACK
6
CONTINUOUS
10
107.247
20
-50.398
11
107.245
21
-50.3943
0
LINE
8
BLACK
6
CONTINUOUS
10
107.245
20
-50.3943
11
107.242
21
-50.3907
0
LINE
8
BLACK
6
CONTINUOUS
10
107.242
20
-50.3907
11
107.195
21
-50.2954
0
LINE
8
BLACK
6
CONTINUOUS
10
107.195
20
-50.2954
11
107.194
21
-50.2945
0
LINE
8
BLACK
6
CONTINUOUS
10
107.194
20
-50.2945
11
107.194
21
-50.2924
0
LINE
8
BLACK
6
CONTINUOUS
10
107.194
20
-50.2924
11
107.193
21
-50.2905
0
LINE
8
BLACK
6
CONTINUOUS
10
107.193
20
-50.2905
11
107.191
21
-50.2856
0
LINE
8
BLACK
6
CONTINUOUS
10
107.191
20
-50.2856
11
107.189
21
-50.2808
0
LINE
8
BLACK
6
CONTINUOUS
10
107.189
20
-50.2808
11
107.189
21
-50.2786
0
LINE
8
BLACK
6
CONTINUOUS
10
107.189
20
-50.2786
11
107.188
21
-50.2765
0
LINE
8
BLACK
6
CONTINUOUS
10
107.188
20
-50.2765
11
107.188
21
-50.2714
0
LINE
8
BLACK
6
CONTINUOUS
10
107.188
20
-50.2714
11
107.187
21
-50.2663
0
LINE
8
BLACK
6
CONTINUOUS
10
107.187
20
-50.2663
11
107.187
21
-50.2641
0
LINE
8
BLACK
6
CONTINUOUS
10
107.187
20
-50.2641
11
107.187
21
-50.2619
0
LINE
8
BLACK
6
CONTINUOUS
10
107.187
20
-50.2619
11
107.187
21
-50.119
0
LINE
8
BLACK
6
CONTINUOUS
10
107.187
20
-50.119
11
107.187
21
-50.118
0
LINE
8
BLACK
6
CONTINUOUS
10
107.187
20
-50.118
11
107.187
21
-50.1158
0
LINE
8
BLACK
6
CONTINUOUS
10
107.187
20
-50.1158
11
107.187
21
-50.1136
0
LINE
8
BLACK
6
CONTINUOUS
10
107.187
20
-50.1136
11
107.188
21
-50.1085
0
LINE
8
BLACK
6
CONTINUOUS
10
107.188
20
-50.1085
11
107.189
21
-50.1035
0
LINE
8
BLACK
6
CONTINUOUS
10
107.189
20
-50.1035
11
107.189
21
-50.1014
0
LINE
8
BLACK
6
CONTINUOUS
10
107.189
20
-50.1014
11
107.19
21
-50.0992
0
LINE
8
BLACK
6
CONTINUOUS
10
107.19
20
-50.0992
11
107.191
21
-50.0944
0
LINE
8
BLACK
6
CONTINUOUS
10
107.191
20
-50.0944
11
107.193
21
-50.0895
0
LINE
8
BLACK
6
CONTINUOUS
10
107.193
20
-50.0895
11
107.194
21
-50.0876
0
LINE
8
BLACK
6
CONTINUOUS
10
107.194
20
-50.0876
11
107.195
21
-50.0855
0
LINE
8
BLACK
6
CONTINUOUS
10
107.195
20
-50.0855
11
107.242
21
-49.9903
0
LINE
8
BLACK
6
CONTINUOUS
10
107.242
20
-49.9903
11
107.243
21
-49.9893
0
LINE
8
BLACK
6
CONTINUOUS
10
107.243
20
-49.9893
11
107.245
21
-49.9858
0
LINE
8
BLACK
6
CONTINUOUS
10
107.245
20
-49.9858
11
107.247
21
-49.9821
0
LINE
8
BLACK
6
CONTINUOUS
10
107.247
20
-49.9821
11
107.249
21
-49.9797
0
LINE
8
BLACK
6
CONTINUOUS
10
107.249
20
-49.9797
11
107.251
21
-49.9771
0
LINE
8
BLACK
6
CONTINUOUS
10
107.251
20
-49.9771
11
107.254
21
-49.974
0
LINE
8
BLACK
6
CONTINUOUS
10
107.254
20
-49.974
11
107.256
21
-49.9708
0
LINE
8
BLACK
6
CONTINUOUS
10
107.256
20
-49.9708
11
107.304
21
-49.9232
0
LINE
8
BLACK
6
CONTINUOUS
10
107.304
20
-49.9232
11
107.305
21
-49.9224
0
LINE
8
BLACK
6
CONTINUOUS
10
107.305
20
-49.9224
11
107.307
21
-49.921
0
LINE
8
BLACK
6
CONTINUOUS
10
107.307
20
-49.921
11
107.308
21
-49.9194
0
LINE
8
BLACK
6
CONTINUOUS
10
107.308
20
-49.9194
11
107.312
21
-49.9165
0
LINE
8
BLACK
6
CONTINUOUS
10
107.312
20
-49.9165
11
107.316
21
-49.9133
0
LINE
8
BLACK
6
CONTINUOUS
10
107.316
20
-49.9133
11
107.318
21
-49.9123
0
LINE
8
BLACK
6
CONTINUOUS
10
107.318
20
-49.9123
11
107.32
21
-49.911
0
LINE
8
BLACK
6
CONTINUOUS
10
107.32
20
-49.911
11
107.325
21
-49.9089
0
LINE
8
BLACK
6
CONTINUOUS
10
107.325
20
-49.9089
11
107.326
21
-49.9083
0
LINE
8
BLACK
6
CONTINUOUS
10
107.326
20
-49.9083
11
107.304
21
-49.8864
0
LINE
8
BLACK
6
CONTINUOUS
10
107.304
20
-49.8864
11
107.303
21
-49.8856
0
LINE
8
BLACK
6
CONTINUOUS
10
107.303
20
-49.8856
11
107.301
21
-49.8823
0
LINE
8
BLACK
6
CONTINUOUS
10
107.301
20
-49.8823
11
107.298
21
-49.8793
0
LINE
8
BLACK
6
CONTINUOUS
10
107.298
20
-49.8793
11
107.296
21
-49.8766
0
LINE
8
BLACK
6
CONTINUOUS
10
107.296
20
-49.8766
11
107.294
21
-49.8742
0
LINE
8
BLACK
6
CONTINUOUS
10
107.294
20
-49.8742
11
107.292
21
-49.8704
0
LINE
8
BLACK
6
CONTINUOUS
10
107.292
20
-49.8704
11
107.29
21
-49.8669
0
LINE
8
BLACK
6
CONTINUOUS
10
107.29
20
-49.8669
11
107.242
21
-49.7716
0
LINE
8
BLACK
6
CONTINUOUS
10
107.242
20
-49.7716
11
107.242
21
-49.7707
0
LINE
8
BLACK
6
CONTINUOUS
10
107.242
20
-49.7707
11
107.241
21
-49.7686
0
LINE
8
BLACK
6
CONTINUOUS
10
107.241
20
-49.7686
11
107.24
21
-49.7667
0
LINE
8
BLACK
6
CONTINUOUS
10
107.24
20
-49.7667
11
107.239
21
-49.7618
0
LINE
8
BLACK
6
CONTINUOUS
10
107.239
20
-49.7618
11
107.237
21
-49.757
0
LINE
8
BLACK
6
CONTINUOUS
10
107.237
20
-49.757
11
107.237
21
-49.7548
0
LINE
8
BLACK
6
CONTINUOUS
10
107.237
20
-49.7548
11
107.236
21
-49.7527
0
LINE
8
BLACK
6
CONTINUOUS
10
107.236
20
-49.7527
11
107.235
21
-49.7476
0
LINE
8
BLACK
6
CONTINUOUS
10
107.235
20
-49.7476
11
107.235
21
-49.7425
0
LINE
8
BLACK
6
CONTINUOUS
10
107.235
20
-49.7425
11
107.235
21
-49.7403
0
LINE
8
BLACK
6
CONTINUOUS
10
107.235
20
-49.7403
11
107.235
21
-49.7381
0
LINE
8
BLACK
6
CONTINUOUS
10
107.235
20
-49.7381
11
107.235
21
-49.6429
0
LINE
8
BLACK
6
CONTINUOUS
10
107.235
20
-49.6429
11
107.235
21
-49.6418
0
LINE
8
BLACK
6
CONTINUOUS
10
107.235
20
-49.6418
11
107.235
21
-49.6396
0
LINE
8
BLACK
6
CONTINUOUS
10
107.235
20
-49.6396
11
107.235
21
-49.6374
0
LINE
8
BLACK
6
CONTINUOUS
10
107.235
20
-49.6374
11
107.236
21
-49.6324
0
LINE
8
BLACK
6
CONTINUOUS
10
107.236
20
-49.6324
11
107.236
21
-49.6273
0
LINE
8
BLACK
6
CONTINUOUS
10
107.236
20
-49.6273
11
107.237
21
-49.6252
0
LINE
8
BLACK
6
CONTINUOUS
10
107.237
20
-49.6252
11
107.237
21
-49.623
0
LINE
8
BLACK
6
CONTINUOUS
10
107.237
20
-49.623
11
107.239
21
-49.6182
0
LINE
8
BLACK
6
CONTINUOUS
10
107.239
20
-49.6182
11
107.241
21
-49.6133
0
LINE
8
BLACK
6
CONTINUOUS
10
107.241
20
-49.6133
11
107.242
21
-49.6114
0
LINE
8
BLACK
6
CONTINUOUS
10
107.242
20
-49.6114
11
107.242
21
-49.6093
0
LINE
8
BLACK
6
CONTINUOUS
10
107.242
20
-49.6093
11
107.29
21
-49.5141
0
LINE
8
BLACK
6
CONTINUOUS
10
107.29
20
-49.5141
11
107.291
21
-49.5131
0
LINE
8
BLACK
6
CONTINUOUS
10
107.291
20
-49.5131
11
107.293
21
-49.5096
0
LINE
8
BLACK
6
CONTINUOUS
10
107.293
20
-49.5096
11
107.295
21
-49.5059
0
LINE
8
BLACK
6
CONTINUOUS
10
107.295
20
-49.5059
11
107.297
21
-49.5035
0
LINE
8
BLACK
6
CONTINUOUS
10
107.297
20
-49.5035
11
107.298
21
-49.5009
0
LINE
8
BLACK
6
CONTINUOUS
10
107.298
20
-49.5009
11
107.301
21
-49.4978
0
LINE
8
BLACK
6
CONTINUOUS
10
107.301
20
-49.4978
11
107.304
21
-49.4946
0
LINE
8
BLACK
6
CONTINUOUS
10
107.304
20
-49.4946
11
107.352
21
-49.447
0
LINE
8
BLACK
6
CONTINUOUS
10
107.352
20
-49.447
11
107.352
21
-49.4462
0
LINE
8
BLACK
6
CONTINUOUS
10
107.352
20
-49.4462
11
107.356
21
-49.4436
0
LINE
8
BLACK
6
CONTINUOUS
10
107.356
20
-49.4436
11
107.359
21
-49.4407
0
LINE
8
BLACK
6
CONTINUOUS
10
107.359
20
-49.4407
11
107.361
21
-49.439
0
LINE
8
BLACK
6
CONTINUOUS
10
107.361
20
-49.439
11
107.364
21
-49.4371
0
LINE
8
BLACK
6
CONTINUOUS
10
107.364
20
-49.4371
11
107.368
21
-49.4352
0
LINE
8
BLACK
6
CONTINUOUS
10
107.368
20
-49.4352
11
107.371
21
-49.4329
0
LINE
8
BLACK
6
CONTINUOUS
10
107.371
20
-49.4329
11
107.466
21
-49.3853
0
LINE
8
BLACK
6
CONTINUOUS
10
107.466
20
-49.3853
11
107.467
21
-49.3848
0
LINE
8
BLACK
6
CONTINUOUS
10
107.467
20
-49.3848
11
107.469
21
-49.3841
0
LINE
8
BLACK
6
CONTINUOUS
10
107.469
20
-49.3841
11
107.471
21
-49.383
0
LINE
8
BLACK
6
CONTINUOUS
10
107.471
20
-49.383
11
107.476
21
-49.3816
0
LINE
8
BLACK
6
CONTINUOUS
10
107.476
20
-49.3816
11
107.481
21
-49.3798
0
LINE
8
BLACK
6
CONTINUOUS
10
107.481
20
-49.3798
11
107.483
21
-49.3794
0
LINE
8
BLACK
6
CONTINUOUS
10
107.483
20
-49.3794
11
107.485
21
-49.3788
0
LINE
8
BLACK
6
CONTINUOUS
10
107.485
20
-49.3788
11
107.491
21
-49.3783
0
LINE
8
BLACK
6
CONTINUOUS
10
107.491
20
-49.3783
11
107.496
21
-49.3775
0
LINE
8
BLACK
6
CONTINUOUS
10
107.496
20
-49.3775
11
107.498
21
-49.3776
0
LINE
8
BLACK
6
CONTINUOUS
10
107.498
20
-49.3776
11
107.5
21
-49.3774
0
LINE
8
BLACK
6
CONTINUOUS
10
107.5
20
-49.3774
11
107.833
21
-49.3774
0
LINE
8
BLACK
6
CONTINUOUS
10
107.833
20
-49.3774
11
107.834
21
-49.3774
0
LINE
8
BLACK
6
CONTINUOUS
10
107.512
20
-50.0036
11
107.398
21
-50.0417
0
LINE
8
BLACK
6
CONTINUOUS
10
107.398
20
-50.0417
11
107.371
21
-50.0682
0
LINE
8
BLACK
6
CONTINUOUS
10
107.371
20
-50.0682
11
107.337
21
-50.1368
0
LINE
8
BLACK
6
CONTINUOUS
10
107.337
20
-50.1368
11
107.337
21
-50.2442
0
LINE
8
BLACK
6
CONTINUOUS
10
107.337
20
-50.2442
11
107.371
21
-50.3127
0
LINE
8
BLACK
6
CONTINUOUS
10
107.371
20
-50.3127
11
107.402
21
-50.3431
0
LINE
8
BLACK
6
CONTINUOUS
10
107.402
20
-50.3431
11
107.47
21
-50.3774
0
LINE
8
BLACK
6
CONTINUOUS
10
107.47
20
-50.3774
11
107.758
21
-50.3774
0
LINE
8
BLACK
6
CONTINUOUS
10
107.758
20
-50.3774
11
107.758
21
-50.0036
0
LINE
8
BLACK
6
CONTINUOUS
10
107.758
20
-50.0036
11
107.512
21
-50.0036
0
LINE
8
BLACK
6
CONTINUOUS
10
107.518
20
-49.5274
11
107.449
21
-49.5616
0
LINE
8
BLACK
6
CONTINUOUS
10
107.449
20
-49.5616
11
107.419
21
-49.592
0
LINE
8
BLACK
6
CONTINUOUS
10
107.419
20
-49.592
11
107.385
21
-49.6606
0
LINE
8
BLACK
6
CONTINUOUS
10
107.385
20
-49.6606
11
107.385
21
-49.7204
0
LINE
8
BLACK
6
CONTINUOUS
10
107.385
20
-49.7204
11
107.419
21
-49.7889
0
LINE
8
BLACK
6
CONTINUOUS
10
107.419
20
-49.7889
11
107.449
21
-49.8193
0
LINE
8
BLACK
6
CONTINUOUS
10
107.449
20
-49.8193
11
107.518
21
-49.8536
0
LINE
8
BLACK
6
CONTINUOUS
10
107.518
20
-49.8536
11
107.758
21
-49.8536
0
LINE
8
BLACK
6
CONTINUOUS
10
107.758
20
-49.8536
11
107.758
21
-49.5274
0
LINE
8
BLACK
6
CONTINUOUS
10
107.758
20
-49.5274
11
107.518
21
-49.5274
0
LINE
8
BLACK
6
CONTINUOUS
10
102.704
20
-49.3786
11
102.718
21
-49.3827
0
LINE
8
BLACK
6
CONTINUOUS
10
102.718
20
-49.3827
11
102.731
21
-49.3894
0
LINE
8
BLACK
6
CONTINUOUS
10
102.731
20
-49.3894
11
102.743
21
-49.3985
0
LINE
8
BLACK
6
CONTINUOUS
10
102.743
20
-49.3985
11
102.752
21
-49.4097
0
LINE
8
BLACK
6
CONTINUOUS
10
102.752
20
-49.4097
11
102.759
21
-49.4224
0
LINE
8
BLACK
6
CONTINUOUS
10
102.759
20
-49.4224
11
102.764
21
-49.4364
0
LINE
8
BLACK
6
CONTINUOUS
10
102.764
20
-49.4364
11
102.765
21
-49.4509
0
LINE
8
BLACK
6
CONTINUOUS
10
102.765
20
-49.4509
11
102.764
21
-49.4655
0
LINE
8
BLACK
6
CONTINUOUS
10
102.764
20
-49.4655
11
102.76
21
-49.4796
0
LINE
8
BLACK
6
CONTINUOUS
10
102.76
20
-49.4796
11
102.754
21
-49.4926
0
LINE
8
BLACK
6
CONTINUOUS
10
102.754
20
-49.4926
11
102.432
21
-49.998
0
LINE
8
BLACK
6
CONTINUOUS
10
102.432
20
-49.998
11
102.432
21
-50.4524
0
LINE
8
BLACK
6
CONTINUOUS
10
102.432
20
-50.4524
11
102.432
21
-50.4534
0
LINE
8
BLACK
6
CONTINUOUS
10
102.432
20
-50.4534
11
102.431
21
-50.468
0
LINE
8
BLACK
6
CONTINUOUS
10
102.431
20
-50.468
11
102.426
21
-50.4819
0
LINE
8
BLACK
6
CONTINUOUS
10
102.426
20
-50.4819
11
102.419
21
-50.4948
0
LINE
8
BLACK
6
CONTINUOUS
10
102.419
20
-50.4948
11
102.41
21
-50.506
0
LINE
8
BLACK
6
CONTINUOUS
10
102.41
20
-50.506
11
102.398
21
-50.5151
0
LINE
8
BLACK
6
CONTINUOUS
10
102.398
20
-50.5151
11
102.385
21
-50.5219
0
LINE
8
BLACK
6
CONTINUOUS
10
102.385
20
-50.5219
11
102.371
21
-50.5261
0
LINE
8
BLACK
6
CONTINUOUS
10
102.371
20
-50.5261
11
102.357
21
-50.5274
0
LINE
8
BLACK
6
CONTINUOUS
10
102.357
20
-50.5274
11
102.342
21
-50.5258
0
LINE
8
BLACK
6
CONTINUOUS
10
102.342
20
-50.5258
11
102.328
21
-50.5215
0
LINE
8
BLACK
6
CONTINUOUS
10
102.328
20
-50.5215
11
102.315
21
-50.5146
0
LINE
8
BLACK
6
CONTINUOUS
10
102.315
20
-50.5146
11
102.304
21
-50.5052
0
LINE
8
BLACK
6
CONTINUOUS
10
102.304
20
-50.5052
11
102.295
21
-50.4939
0
LINE
8
BLACK
6
CONTINUOUS
10
102.295
20
-50.4939
11
102.288
21
-50.481
0
LINE
8
BLACK
6
CONTINUOUS
10
102.288
20
-50.481
11
102.284
21
-50.4669
0
LINE
8
BLACK
6
CONTINUOUS
10
102.284
20
-50.4669
11
102.282
21
-50.4524
0
LINE
8
BLACK
6
CONTINUOUS
10
102.282
20
-50.4524
11
102.282
21
-49.998
0
LINE
8
BLACK
6
CONTINUOUS
10
102.282
20
-49.998
11
101.961
21
-49.4926
0
LINE
8
BLACK
6
CONTINUOUS
10
101.961
20
-49.4926
11
101.96
21
-49.4918
0
LINE
8
BLACK
6
CONTINUOUS
10
101.96
20
-49.4918
11
101.954
21
-49.4786
0
LINE
8
BLACK
6
CONTINUOUS
10
101.954
20
-49.4786
11
101.95
21
-49.4645
0
LINE
8
BLACK
6
CONTINUOUS
10
101.95
20
-49.4645
11
101.949
21
-49.4499
0
LINE
8
BLACK
6
CONTINUOUS
10
101.949
20
-49.4499
11
101.951
21
-49.4353
0
LINE
8
BLACK
6
CONTINUOUS
10
101.951
20
-49.4353
11
101.955
21
-49.4215
0
LINE
8
BLACK
6
CONTINUOUS
10
101.955
20
-49.4215
11
101.963
21
-49.4088
0
LINE
8
BLACK
6
CONTINUOUS
10
101.963
20
-49.4088
11
101.972
21
-49.3978
0
LINE
8
BLACK
6
CONTINUOUS
10
101.972
20
-49.3978
11
101.984
21
-49.3888
0
LINE
8
BLACK
6
CONTINUOUS
10
101.984
20
-49.3888
11
101.997
21
-49.3823
0
LINE
8
BLACK
6
CONTINUOUS
10
101.997
20
-49.3823
11
102.011
21
-49.3784
0
LINE
8
BLACK
6
CONTINUOUS
10
102.011
20
-49.3784
11
102.026
21
-49.3774
0
LINE
8
BLACK
6
CONTINUOUS
10
102.026
20
-49.3774
11
102.04
21
-49.3792
0
LINE
8
BLACK
6
CONTINUOUS
10
102.04
20
-49.3792
11
102.054
21
-49.3838
0
LINE
8
BLACK
6
CONTINUOUS
10
102.054
20
-49.3838
11
102.067
21
-49.391
0
LINE
8
BLACK
6
CONTINUOUS
10
102.067
20
-49.391
11
102.078
21
-49.4006
0
LINE
8
BLACK
6
CONTINUOUS
10
102.078
20
-49.4006
11
102.087
21
-49.4121
0
LINE
8
BLACK
6
CONTINUOUS
10
102.087
20
-49.4121
11
102.357
21
-49.8365
0
LINE
8
BLACK
6
CONTINUOUS
10
102.357
20
-49.8365
11
102.627
21
-49.4121
0
LINE
8
BLACK
6
CONTINUOUS
10
102.627
20
-49.4121
11
102.628
21
-49.4112
0
LINE
8
BLACK
6
CONTINUOUS
10
102.628
20
-49.4112
11
102.637
21
-49.3998
0
LINE
8
BLACK
6
CONTINUOUS
10
102.637
20
-49.3998
11
102.648
21
-49.3904
0
LINE
8
BLACK
6
CONTINUOUS
10
102.648
20
-49.3904
11
102.661
21
-49.3834
0
LINE
8
BLACK
6
CONTINUOUS
10
102.661
20
-49.3834
11
102.675
21
-49.379
0
LINE
8
BLACK
6
CONTINUOUS
10
102.675
20
-49.379
11
102.69
21
-49.3774
0
LINE
8
BLACK
6
CONTINUOUS
10
102.69
20
-49.3774
11
102.704
21
-49.3786
0
LINE
8
BLACK
6
CONTINUOUS
10
106.12
20
-49.3774
11
106.135
21
-49.379
0
LINE
8
BLACK
6
CONTINUOUS
10
106.135
20
-49.379
11
106.149
21
-49.3834
0
LINE
8
BLACK
6
CONTINUOUS
10
106.149
20
-49.3834
11
106.161
21
-49.3905
0
LINE
8
BLACK
6
CONTINUOUS
10
106.161
20
-49.3905
11
106.173
21
-49.3999
0
LINE
8
BLACK
6
CONTINUOUS
10
106.173
20
-49.3999
11
106.182
21
-49.4113
0
LINE
8
BLACK
6
CONTINUOUS
10
106.182
20
-49.4113
11
106.189
21
-49.4243
0
LINE
8
BLACK
6
CONTINUOUS
10
106.189
20
-49.4243
11
106.193
21
-49.4383
0
LINE
8
BLACK
6
CONTINUOUS
10
106.193
20
-49.4383
11
106.194
21
-49.4529
0
LINE
8
BLACK
6
CONTINUOUS
10
106.194
20
-49.4529
11
106.193
21
-49.4675
0
LINE
8
BLACK
6
CONTINUOUS
10
106.193
20
-49.4675
11
106.188
21
-49.4814
0
LINE
8
BLACK
6
CONTINUOUS
10
106.188
20
-49.4814
11
106.181
21
-49.4943
0
LINE
8
BLACK
6
CONTINUOUS
10
106.181
20
-49.4943
11
106.172
21
-49.5056
0
LINE
8
BLACK
6
CONTINUOUS
10
106.172
20
-49.5056
11
106.161
21
-49.5148
0
LINE
8
BLACK
6
CONTINUOUS
10
106.161
20
-49.5148
11
106.148
21
-49.5217
0
LINE
8
BLACK
6
CONTINUOUS
10
106.148
20
-49.5217
11
106.134
21
-49.526
0
LINE
8
BLACK
6
CONTINUOUS
10
106.134
20
-49.526
11
106.119
21
-49.5274
0
LINE
8
BLACK
6
CONTINUOUS
10
106.119
20
-49.5274
11
105.908
21
-49.5274
0
LINE
8
BLACK
6
CONTINUOUS
10
105.908
20
-49.5274
11
105.908
21
-50.4524
0
LINE
8
BLACK
6
CONTINUOUS
10
105.908
20
-50.4524
11
105.908
21
-50.4534
0
LINE
8
BLACK
6
CONTINUOUS
10
105.908
20
-50.4534
11
105.907
21
-50.468
0
LINE
8
BLACK
6
CONTINUOUS
10
105.907
20
-50.468
11
105.902
21
-50.4819
0
LINE
8
BLACK
6
CONTINUOUS
10
105.902
20
-50.4819
11
105.895
21
-50.4948
0
LINE
8
BLACK
6
CONTINUOUS
10
105.895
20
-50.4948
11
105.886
21
-50.506
0
LINE
8
BLACK
6
CONTINUOUS
10
105.886
20
-50.506
11
105.874
21
-50.5151
0
LINE
8
BLACK
6
CONTINUOUS
10
105.874
20
-50.5151
11
105.861
21
-50.5219
0
LINE
8
BLACK
6
CONTINUOUS
10
105.861
20
-50.5219
11
105.847
21
-50.5261
0
LINE
8
BLACK
6
CONTINUOUS
10
105.847
20
-50.5261
11
105.833
21
-50.5274
0
LINE
8
BLACK
6
CONTINUOUS
10
105.833
20
-50.5274
11
105.818
21
-50.5258
0
LINE
8
BLACK
6
CONTINUOUS
10
105.818
20
-50.5258
11
105.804
21
-50.5215
0
LINE
8
BLACK
6
CONTINUOUS
10
105.804
20
-50.5215
11
105.791
21
-50.5146
0
LINE
8
BLACK
6
CONTINUOUS
10
105.791
20
-50.5146
11
105.78
21
-50.5052
0
LINE
8
BLACK
6
CONTINUOUS
10
105.78
20
-50.5052
11
105.771
21
-50.4939
0
LINE
8
BLACK
6
CONTINUOUS
10
105.771
20
-50.4939
11
105.764
21
-50.481
0
LINE
8
BLACK
6
CONTINUOUS
10
105.764
20
-50.481
11
105.76
21
-50.4669
0
LINE
8
BLACK
6
CONTINUOUS
10
105.76
20
-50.4669
11
105.758
21
-50.4524
0
LINE
8
BLACK
6
CONTINUOUS
10
105.758
20
-50.4524
11
105.758
21
-49.5274
0
LINE
8
BLACK
6
CONTINUOUS
10
105.758
20
-49.5274
11
105.548
21
-49.5274
0
LINE
8
BLACK
6
CONTINUOUS
10
105.548
20
-49.5274
11
105.547
21
-49.5274
0
LINE
8
BLACK
6
CONTINUOUS
10
105.547
20
-49.5274
11
105.532
21
-49.5257
0
LINE
8
BLACK
6
CONTINUOUS
10
105.532
20
-49.5257
11
105.518
21
-49.5213
0
LINE
8
BLACK
6
CONTINUOUS
10
105.518
20
-49.5213
11
105.505
21
-49.5143
0
LINE
8
BLACK
6
CONTINUOUS
10
105.505
20
-49.5143
11
105.494
21
-49.5049
0
LINE
8
BLACK
6
CONTINUOUS
10
105.494
20
-49.5049
11
105.485
21
-49.4934
0
LINE
8
BLACK
6
CONTINUOUS
10
105.485
20
-49.4934
11
105.478
21
-49.4805
0
LINE
8
BLACK
6
CONTINUOUS
10
105.478
20
-49.4805
11
105.474
21
-49.4664
0
LINE
8
BLACK
6
CONTINUOUS
10
105.474
20
-49.4664
11
105.473
21
-49.4519
0
LINE
8
BLACK
6
CONTINUOUS
10
105.473
20
-49.4519
11
105.474
21
-49.4373
0
LINE
8
BLACK
6
CONTINUOUS
10
105.474
20
-49.4373
11
105.478
21
-49.4233
0
LINE
8
BLACK
6
CONTINUOUS
10
105.478
20
-49.4233
11
105.485
21
-49.4104
0
LINE
8
BLACK
6
CONTINUOUS
10
105.485
20
-49.4104
11
105.495
21
-49.3992
0
LINE
8
BLACK
6
CONTINUOUS
10
105.495
20
-49.3992
11
105.506
21
-49.3899
0
LINE
8
BLACK
6
CONTINUOUS
10
105.506
20
-49.3899
11
105.519
21
-49.383
0
LINE
8
BLACK
6
CONTINUOUS
10
105.519
20
-49.383
11
105.533
21
-49.3788
0
LINE
8
BLACK
6
CONTINUOUS
10
105.533
20
-49.3788
11
105.548
21
-49.3774
0
LINE
8
BLACK
6
CONTINUOUS
10
105.548
20
-49.3774
11
106.119
21
-49.3774
0
LINE
8
BLACK
6
CONTINUOUS
10
106.119
20
-49.3774
11
106.12
21
-49.3774
0
LINE
8
BLACK
6
CONTINUOUS
10
105.358
20
-49.3774
11
105.373
21
-49.379
0
LINE
8
BLACK
6
CONTINUOUS
10
105.373
20
-49.379
11
105.387
21
-49.3834
0
LINE
8
BLACK
6
CONTINUOUS
10
105.387
20
-49.3834
11
105.4
21
-49.3905
0
LINE
8
BLACK
6
CONTINUOUS
10
105.4
20
-49.3905
11
105.411
21
-49.3999
0
LINE
8
BLACK
6
CONTINUOUS
10
105.411
20
-49.3999
11
105.42
21
-49.4113
0
LINE
8
BLACK
6
CONTINUOUS
10
105.42
20
-49.4113
11
105.427
21
-49.4243
0
LINE
8
BLACK
6
CONTINUOUS
10
105.427
20
-49.4243
11
105.431
21
-49.4383
0
LINE
8
BLACK
6
CONTINUOUS
10
105.431
20
-49.4383
11
105.432
21
-49.4529
0
LINE
8
BLACK
6
CONTINUOUS
10
105.432
20
-49.4529
11
105.431
21
-49.4675
0
LINE
8
BLACK
6
CONTINUOUS
10
105.431
20
-49.4675
11
105.426
21
-49.4814
0
LINE
8
BLACK
6
CONTINUOUS
10
105.426
20
-49.4814
11
105.419
21
-49.4943
0
LINE
8
BLACK
6
CONTINUOUS
10
105.419
20
-49.4943
11
105.41
21
-49.5056
0
LINE
8
BLACK
6
CONTINUOUS
10
105.41
20
-49.5056
11
105.399
21
-49.5148
0
LINE
8
BLACK
6
CONTINUOUS
10
105.399
20
-49.5148
11
105.386
21
-49.5217
0
LINE
8
BLACK
6
CONTINUOUS
10
105.386
20
-49.5217
11
105.372
21
-49.526
0
LINE
8
BLACK
6
CONTINUOUS
10
105.372
20
-49.526
11
105.357
21
-49.5274
0
LINE
8
BLACK
6
CONTINUOUS
10
105.357
20
-49.5274
11
105.146
21
-49.5274
0
LINE
8
BLACK
6
CONTINUOUS
10
105.146
20
-49.5274
11
105.146
21
-50.4524
0
LINE
8
BLACK
6
CONTINUOUS
10
105.146
20
-50.4524
11
105.146
21
-50.4534
0
LINE
8
BLACK
6
CONTINUOUS
10
105.146
20
-50.4534
11
105.145
21
-50.468
0
LINE
8
BLACK
6
CONTINUOUS
10
105.145
20
-50.468
11
105.14
21
-50.4819
0
LINE
8
BLACK
6
CONTINUOUS
10
105.14
20
-50.4819
11
105.133
21
-50.4948
0
LINE
8
BLACK
6
CONTINUOUS
10
105.133
20
-50.4948
11
105.124
21
-50.506
0
LINE
8
BLACK
6
CONTINUOUS
10
105.124
20
-50.506
11
105.112
21
-50.5151
0
LINE
8
BLACK
6
CONTINUOUS
10
105.112
20
-50.5151
11
105.1
21
-50.5219
0
LINE
8
BLACK
6
CONTINUOUS
10
105.1
20
-50.5219
11
105.085
21
-50.5261
0
LINE
8
BLACK
6
CONTINUOUS
10
105.085
20
-50.5261
11
105.071
21
-50.5274
0
LINE
8
BLACK
6
CONTINUOUS
10
105.071
20
-50.5274
11
105.056
21
-50.5258
0
LINE
8
BLACK
6
CONTINUOUS
10
105.056
20
-50.5258
11
105.042
21
-50.5215
0
LINE
8
BLACK
6
CONTINUOUS
10
105.042
20
-50.5215
11
105.029
21
-50.5146
0
LINE
8
BLACK
6
CONTINUOUS
10
105.029
20
-50.5146
11
105.018
21
-50.5052
0
LINE
8
BLACK
6
CONTINUOUS
10
105.018
20
-50.5052
11
105.009
21
-50.4939
0
LINE
8
BLACK
6
CONTINUOUS
10
105.009
20
-50.4939
11
105.002
21
-50.481
0
LINE
8
BLACK
6
CONTINUOUS
10
105.002
20
-50.481
11
104.998
21
-50.4669
0
LINE
8
BLACK
6
CONTINUOUS
10
104.998
20
-50.4669
11
104.996
21
-50.4524
0
LINE
8
BLACK
6
CONTINUOUS
10
104.996
20
-50.4524
11
104.996
21
-49.5274
0
LINE
8
BLACK
6
CONTINUOUS
10
104.996
20
-49.5274
11
104.786
21
-49.5274
0
LINE
8
BLACK
6
CONTINUOUS
10
104.786
20
-49.5274
11
104.785
21
-49.5274
0
LINE
8
BLACK
6
CONTINUOUS
10
104.785
20
-49.5274
11
104.77
21
-49.5257
0
LINE
8
BLACK
6
CONTINUOUS
10
104.77
20
-49.5257
11
104.756
21
-49.5213
0
LINE
8
BLACK
6
CONTINUOUS
10
104.756
20
-49.5213
11
104.743
21
-49.5143
0
LINE
8
BLACK
6
CONTINUOUS
10
104.743
20
-49.5143
11
104.732
21
-49.5049
0
LINE
8
BLACK
6
CONTINUOUS
10
104.732
20
-49.5049
11
104.723
21
-49.4934
0
LINE
8
BLACK
6
CONTINUOUS
10
104.723
20
-49.4934
11
104.716
21
-49.4805
0
LINE
8
BLACK
6
CONTINUOUS
10
104.716
20
-49.4805
11
104.712
21
-49.4664
0
LINE
8
BLACK
6
CONTINUOUS
10
104.712
20
-49.4664
11
104.711
21
-49.4519
0
LINE
8
BLACK
6
CONTINUOUS
10
104.711
20
-49.4519
11
104.712
21
-49.4373
0
LINE
8
BLACK
6
CONTINUOUS
10
104.712
20
-49.4373
11
104.717
21
-49.4233
0
LINE
8
BLACK
6
CONTINUOUS
10
104.717
20
-49.4233
11
104.724
21
-49.4104
0
LINE
8
BLACK
6
CONTINUOUS
10
104.724
20
-49.4104
11
104.733
21
-49.3992
0
LINE
8
BLACK
6
CONTINUOUS
10
104.733
20
-49.3992
11
104.744
21
-49.3899
0
LINE
8
BLACK
6
CONTINUOUS
10
104.744
20
-49.3899
11
104.757
21
-49.383
0
LINE
8
BLACK
6
CONTINUOUS
10
104.757
20
-49.383
11
104.771
21
-49.3788
0
LINE
8
BLACK
6
CONTINUOUS
10
104.771
20
-49.3788
11
104.786
21
-49.3774
0
LINE
8
BLACK
6
CONTINUOUS
10
104.786
20
-49.3774
11
105.357
21
-49.3774
0
LINE
8
BLACK
6
CONTINUOUS
10
105.357
20
-49.3774
11
105.358
21
-49.3774
0
LINE
8
BLACK
6
CONTINUOUS
10
103.548
20
-49.3774
11
103.548
21
-49.3774
0
LINE
8
BLACK
6
CONTINUOUS
10
103.548
20
-49.3774
11
103.548
21
-49.3774
0
LINE
8
BLACK
6
CONTINUOUS
10
103.548
20
-49.3774
11
103.549
21
-49.3774
0
LINE
8
BLACK
6
CONTINUOUS
10
103.549
20
-49.3774
11
103.556
21
-49.3782
0
LINE
8
BLACK
6
CONTINUOUS
10
103.556
20
-49.3782
11
103.563
21
-49.3789
0
LINE
8
BLACK
6
CONTINUOUS
10
103.563
20
-49.3789
11
103.563
21
-49.379
0
LINE
8
BLACK
6
CONTINUOUS
10
103.563
20
-49.379
11
103.563
21
-49.379
0
LINE
8
BLACK
6
CONTINUOUS
10
103.563
20
-49.379
11
103.57
21
-49.3811
0
LINE
8
BLACK
6
CONTINUOUS
10
103.57
20
-49.3811
11
103.577
21
-49.3832
0
LINE
8
BLACK
6
CONTINUOUS
10
103.577
20
-49.3832
11
103.577
21
-49.3834
0
LINE
8
BLACK
6
CONTINUOUS
10
103.577
20
-49.3834
11
103.577
21
-49.3834
0
LINE
8
BLACK
6
CONTINUOUS
10
103.577
20
-49.3834
11
103.583
21
-49.3869
0
LINE
8
BLACK
6
CONTINUOUS
10
103.583
20
-49.3869
11
103.59
21
-49.3902
0
LINE
8
BLACK
6
CONTINUOUS
10
103.59
20
-49.3902
11
103.59
21
-49.3904
0
LINE
8
BLACK
6
CONTINUOUS
10
103.59
20
-49.3904
11
103.59
21
-49.3905
0
LINE
8
BLACK
6
CONTINUOUS
10
103.59
20
-49.3905
11
103.595
21
-49.395
0
LINE
8
BLACK
6
CONTINUOUS
10
103.595
20
-49.395
11
103.601
21
-49.3995
0
LINE
8
BLACK
6
CONTINUOUS
10
103.601
20
-49.3995
11
103.601
21
-49.3997
0
LINE
8
BLACK
6
CONTINUOUS
10
103.601
20
-49.3997
11
103.601
21
-49.3999
0
LINE
8
BLACK
6
CONTINUOUS
10
103.601
20
-49.3999
11
103.606
21
-49.4054
0
LINE
8
BLACK
6
CONTINUOUS
10
103.606
20
-49.4054
11
103.61
21
-49.4109
0
LINE
8
BLACK
6
CONTINUOUS
10
103.61
20
-49.4109
11
103.61
21
-49.4111
0
LINE
8
BLACK
6
CONTINUOUS
10
103.61
20
-49.4111
11
103.61
21
-49.4113
0
LINE
8
BLACK
6
CONTINUOUS
10
103.61
20
-49.4113
11
103.614
21
-49.4176
0
LINE
8
BLACK
6
CONTINUOUS
10
103.614
20
-49.4176
11
103.617
21
-49.4238
0
LINE
8
BLACK
6
CONTINUOUS
10
103.617
20
-49.4238
11
103.617
21
-49.4241
0
LINE
8
BLACK
6
CONTINUOUS
10
103.617
20
-49.4241
11
103.617
21
-49.4243
0
LINE
8
BLACK
6
CONTINUOUS
10
103.617
20
-49.4243
11
103.619
21
-49.4311
0
LINE
8
BLACK
6
CONTINUOUS
10
103.619
20
-49.4311
11
103.621
21
-49.4378
0
LINE
8
BLACK
6
CONTINUOUS
10
103.621
20
-49.4378
11
103.621
21
-49.4381
0
LINE
8
BLACK
6
CONTINUOUS
10
103.621
20
-49.4381
11
103.621
21
-49.4383
0
LINE
8
BLACK
6
CONTINUOUS
10
103.621
20
-49.4383
11
103.622
21
-49.4453
0
LINE
8
BLACK
6
CONTINUOUS
10
103.622
20
-49.4453
11
103.623
21
-49.4524
0
LINE
8
BLACK
6
CONTINUOUS
10
103.623
20
-49.4524
11
103.623
21
-50.4524
0
LINE
8
BLACK
6
CONTINUOUS
10
103.623
20
-50.4524
11
103.623
21
-50.4534
0
LINE
8
BLACK
6
CONTINUOUS
10
103.623
20
-50.4534
11
103.621
21
-50.468
0
LINE
8
BLACK
6
CONTINUOUS
10
103.621
20
-50.468
11
103.617
21
-50.4819
0
LINE
8
BLACK
6
CONTINUOUS
10
103.617
20
-50.4819
11
103.61
21
-50.4948
0
LINE
8
BLACK
6
CONTINUOUS
10
103.61
20
-50.4948
11
103.6
21
-50.506
0
LINE
8
BLACK
6
CONTINUOUS
10
103.6
20
-50.506
11
103.589
21
-50.5151
0
LINE
8
BLACK
6
CONTINUOUS
10
103.589
20
-50.5151
11
103.576
21
-50.5219
0
LINE
8
BLACK
6
CONTINUOUS
10
103.576
20
-50.5219
11
103.562
21
-50.5261
0
LINE
8
BLACK
6
CONTINUOUS
10
103.562
20
-50.5261
11
103.547
21
-50.5274
0
LINE
8
BLACK
6
CONTINUOUS
10
103.547
20
-50.5274
11
103.533
21
-50.5258
0
LINE
8
BLACK
6
CONTINUOUS
10
103.533
20
-50.5258
11
103.519
21
-50.5215
0
LINE
8
BLACK
6
CONTINUOUS
10
103.519
20
-50.5215
11
103.506
21
-50.5146
0
LINE
8
BLACK
6
CONTINUOUS
10
103.506
20
-50.5146
11
103.494
21
-50.5052
0
LINE
8
BLACK
6
CONTINUOUS
10
103.494
20
-50.5052
11
103.485
21
-50.4939
0
LINE
8
BLACK
6
CONTINUOUS
10
103.485
20
-50.4939
11
103.478
21
-50.481
0
LINE
8
BLACK
6
CONTINUOUS
10
103.478
20
-50.481
11
103.474
21
-50.4669
0
LINE
8
BLACK
6
CONTINUOUS
10
103.474
20
-50.4669
11
103.473
21
-50.4524
0
LINE
8
BLACK
6
CONTINUOUS
10
103.473
20
-50.4524
11
103.473
21
-50.0512
0
LINE
8
BLACK
6
CONTINUOUS
10
103.473
20
-50.0512
11
103.349
21
-50.0512
0
LINE
8
BLACK
6
CONTINUOUS
10
103.349
20
-50.0512
11
103.038
21
-50.4954
0
LINE
8
BLACK
6
CONTINUOUS
10
103.038
20
-50.4954
11
103.037
21
-50.4962
0
LINE
8
BLACK
6
CONTINUOUS
10
103.037
20
-50.4962
11
103.027
21
-50.5072
0
LINE
8
BLACK
6
CONTINUOUS
10
103.027
20
-50.5072
11
103.016
21
-50.5161
0
LINE
8
BLACK
6
CONTINUOUS
10
103.016
20
-50.5161
11
103.003
21
-50.5226
0
LINE
8
BLACK
6
CONTINUOUS
10
103.003
20
-50.5226
11
102.988
21
-50.5264
0
LINE
8
BLACK
6
CONTINUOUS
10
102.988
20
-50.5264
11
102.974
21
-50.5273
0
LINE
8
BLACK
6
CONTINUOUS
10
102.974
20
-50.5273
11
102.959
21
-50.5255
0
LINE
8
BLACK
6
CONTINUOUS
10
102.959
20
-50.5255
11
102.945
21
-50.5208
0
LINE
8
BLACK
6
CONTINUOUS
10
102.945
20
-50.5208
11
102.933
21
-50.5135
0
LINE
8
BLACK
6
CONTINUOUS
10
102.933
20
-50.5135
11
102.922
21
-50.5039
0
LINE
8
BLACK
6
CONTINUOUS
10
102.922
20
-50.5039
11
102.913
21
-50.4924
0
LINE
8
BLACK
6
CONTINUOUS
10
102.913
20
-50.4924
11
102.906
21
-50.4793
0
LINE
8
BLACK
6
CONTINUOUS
10
102.906
20
-50.4793
11
102.902
21
-50.4652
0
LINE
8
BLACK
6
CONTINUOUS
10
102.902
20
-50.4652
11
102.901
21
-50.4506
0
LINE
8
BLACK
6
CONTINUOUS
10
102.901
20
-50.4506
11
102.903
21
-50.436
0
LINE
8
BLACK
6
CONTINUOUS
10
102.903
20
-50.436
11
102.908
21
-50.4221
0
LINE
8
BLACK
6
CONTINUOUS
10
102.908
20
-50.4221
11
102.915
21
-50.4094
0
LINE
8
BLACK
6
CONTINUOUS
10
102.915
20
-50.4094
11
103.165
21
-50.0512
0
LINE
8
BLACK
6
CONTINUOUS
10
103.165
20
-50.0512
11
103.163
21
-50.0509
0
LINE
8
BLACK
6
CONTINUOUS
10
103.163
20
-50.0509
11
103.161
21
-50.051
0
LINE
8
BLACK
6
CONTINUOUS
10
103.161
20
-50.051
11
103.156
21
-50.0501
0
LINE
8
BLACK
6
CONTINUOUS
10
103.156
20
-50.0501
11
103.151
21
-50.0496
0
LINE
8
BLACK
6
CONTINUOUS
10
103.151
20
-50.0496
11
103.149
21
-50.0489
0
LINE
8
BLACK
6
CONTINUOUS
10
103.149
20
-50.0489
11
103.147
21
-50.0485
0
LINE
8
BLACK
6
CONTINUOUS
10
103.147
20
-50.0485
11
103.142
21
-50.0467
0
LINE
8
BLACK
6
CONTINUOUS
10
103.142
20
-50.0467
11
103.137
21
-50.0451
0
LINE
8
BLACK
6
CONTINUOUS
10
103.137
20
-50.0451
11
103.135
21
-50.0441
0
LINE
8
BLACK
6
CONTINUOUS
10
103.135
20
-50.0441
11
103.133
21
-50.0433
0
LINE
8
BLACK
6
CONTINUOUS
10
103.133
20
-50.0433
11
103.038
21
-49.9957
0
LINE
8
BLACK
6
CONTINUOUS
10
103.038
20
-49.9957
11
103.037
21
-49.9952
0
LINE
8
BLACK
6
CONTINUOUS
10
103.037
20
-49.9952
11
103.033
21
-49.9929
0
LINE
8
BLACK
6
CONTINUOUS
10
103.033
20
-49.9929
11
103.03
21
-49.9909
0
LINE
8
BLACK
6
CONTINUOUS
10
103.03
20
-49.9909
11
103.027
21
-49.9889
0
LINE
8
BLACK
6
CONTINUOUS
10
103.027
20
-49.9889
11
103.025
21
-49.9872
0
LINE
8
BLACK
6
CONTINUOUS
10
103.025
20
-49.9872
11
103.022
21
-49.9843
0
LINE
8
BLACK
6
CONTINUOUS
10
103.022
20
-49.9843
11
103.018
21
-49.9816
0
LINE
8
BLACK
6
CONTINUOUS
10
103.018
20
-49.9816
11
102.971
21
-49.934
0
LINE
8
BLACK
6
CONTINUOUS
10
102.971
20
-49.934
11
102.97
21
-49.9332
0
LINE
8
BLACK
6
CONTINUOUS
10
102.97
20
-49.9332
11
102.967
21
-49.9299
0
LINE
8
BLACK
6
CONTINUOUS
10
102.967
20
-49.9299
11
102.965
21
-49.9269
0
LINE
8
BLACK
6
CONTINUOUS
10
102.965
20
-49.9269
11
102.963
21
-49.9242
0
LINE
8
BLACK
6
CONTINUOUS
10
102.963
20
-49.9242
11
102.961
21
-49.9218
0
LINE
8
BLACK
6
CONTINUOUS
10
102.961
20
-49.9218
11
102.959
21
-49.9181
0
LINE
8
BLACK
6
CONTINUOUS
10
102.959
20
-49.9181
11
102.957
21
-49.9145
0
LINE
8
BLACK
6
CONTINUOUS
10
102.957
20
-49.9145
11
102.909
21
-49.8193
0
LINE
8
BLACK
6
CONTINUOUS
10
102.909
20
-49.8193
11
102.909
21
-49.8183
0
LINE
8
BLACK
6
CONTINUOUS
10
102.909
20
-49.8183
11
102.908
21
-49.8162
0
LINE
8
BLACK
6
CONTINUOUS
10
102.908
20
-49.8162
11
102.907
21
-49.8143
0
LINE
8
BLACK
6
CONTINUOUS
10
102.907
20
-49.8143
11
102.905
21
-49.8094
0
LINE
8
BLACK
6
CONTINUOUS
10
102.905
20
-49.8094
11
102.904
21
-49.8046
0
LINE
8
BLACK
6
CONTINUOUS
10
102.904
20
-49.8046
11
102.903
21
-49.8024
0
LINE
8
BLACK
6
CONTINUOUS
10
102.903
20
-49.8024
11
102.903
21
-49.8003
0
LINE
8
BLACK
6
CONTINUOUS
10
102.903
20
-49.8003
11
102.902
21
-49.7952
0
LINE
8
BLACK
6
CONTINUOUS
10
102.902
20
-49.7952
11
102.901
21
-49.7901
0
LINE
8
BLACK
6
CONTINUOUS
10
102.901
20
-49.7901
11
102.901
21
-49.7879
0
LINE
8
BLACK
6
CONTINUOUS
10
102.901
20
-49.7879
11
102.901
21
-49.7857
0
LINE
8
BLACK
6
CONTINUOUS
10
102.901
20
-49.7857
11
102.901
21
-49.6429
0
LINE
8
BLACK
6
CONTINUOUS
10
102.901
20
-49.6429
11
102.901
21
-49.6418
0
LINE
8
BLACK
6
CONTINUOUS
10
102.901
20
-49.6418
11
102.901
21
-49.6396
0
LINE
8
BLACK
6
CONTINUOUS
10
102.901
20
-49.6396
11
102.901
21
-49.6374
0
LINE
8
BLACK
6
CONTINUOUS
10
102.901
20
-49.6374
11
102.902
21
-49.6324
0
LINE
8
BLACK
6
CONTINUOUS
10
102.902
20
-49.6324
11
102.903
21
-49.6273
0
LINE
8
BLACK
6
CONTINUOUS
10
102.903
20
-49.6273
11
102.903
21
-49.6252
0
LINE
8
BLACK
6
CONTINUOUS
10
102.903
20
-49.6252
11
102.904
21
-49.623
0
LINE
8
BLACK
6
CONTINUOUS
10
102.904
20
-49.623
11
102.906
21
-49.6182
0
LINE
8
BLACK
6
CONTINUOUS
10
102.906
20
-49.6182
11
102.907
21
-49.6133
0
LINE
8
BLACK
6
CONTINUOUS
10
102.907
20
-49.6133
11
102.908
21
-49.6114
0
LINE
8
BLACK
6
CONTINUOUS
10
102.908
20
-49.6114
11
102.909
21
-49.6093
0
LINE
8
BLACK
6
CONTINUOUS
10
102.909
20
-49.6093
11
102.957
21
-49.5141
0
LINE
8
BLACK
6
CONTINUOUS
10
102.957
20
-49.5141
11
102.957
21
-49.5131
0
LINE
8
BLACK
6
CONTINUOUS
10
102.957
20
-49.5131
11
102.959
21
-49.5096
0
LINE
8
BLACK
6
CONTINUOUS
10
102.959
20
-49.5096
11
102.961
21
-49.5059
0
LINE
8
BLACK
6
CONTINUOUS
10
102.961
20
-49.5059
11
102.963
21
-49.5035
0
LINE
8
BLACK
6
CONTINUOUS
10
102.963
20
-49.5035
11
102.965
21
-49.5009
0
LINE
8
BLACK
6
CONTINUOUS
10
102.965
20
-49.5009
11
102.968
21
-49.4978
0
LINE
8
BLACK
6
CONTINUOUS
10
102.968
20
-49.4978
11
102.971
21
-49.4946
0
LINE
8
BLACK
6
CONTINUOUS
10
102.971
20
-49.4946
11
103.018
21
-49.447
0
LINE
8
BLACK
6
CONTINUOUS
10
103.018
20
-49.447
11
103.019
21
-49.4462
0
LINE
8
BLACK
6
CONTINUOUS
10
103.019
20
-49.4462
11
103.022
21
-49.4436
0
LINE
8
BLACK
6
CONTINUOUS
10
103.022
20
-49.4436
11
103.025
21
-49.4407
0
LINE
8
BLACK
6
CONTINUOUS
10
103.025
20
-49.4407
11
103.028
21
-49.439
0
LINE
8
BLACK
6
CONTINUOUS
10
103.028
20
-49.439
11
103.031
21
-49.4371
0
LINE
8
BLACK
6
CONTINUOUS
10
103.031
20
-49.4371
11
103.034
21
-49.4352
0
LINE
8
BLACK
6
CONTINUOUS
10
103.034
20
-49.4352
11
103.038
21
-49.4329
0
LINE
8
BLACK
6
CONTINUOUS
10
103.038
20
-49.4329
11
103.133
21
-49.3853
0
LINE
8
BLACK
6
CONTINUOUS
10
103.133
20
-49.3853
11
103.134
21
-49.3848
0
LINE
8
BLACK
6
CONTINUOUS
10
103.134
20
-49.3848
11
103.136
21
-49.3841
0
LINE
8
BLACK
6
CONTINUOUS
10
103.136
20
-49.3841
11
103.138
21
-49.383
0
LINE
8
BLACK
6
CONTINUOUS
10
103.138
20
-49.383
11
103.143
21
-49.3816
0
LINE
8
BLACK
6
CONTINUOUS
10
103.143
20
-49.3816
11
103.148
21
-49.3798
0
LINE
8
BLACK
6
CONTINUOUS
10
103.148
20
-49.3798
11
103.15
21
-49.3794
0
LINE
8
BLACK
6
CONTINUOUS
10
103.15
20
-49.3794
11
103.152
21
-49.3788
0
LINE
8
BLACK
6
CONTINUOUS
10
103.152
20
-49.3788
11
103.157
21
-49.3783
0
LINE
8
BLACK
6
CONTINUOUS
10
103.157
20
-49.3783
11
103.162
21
-49.3775
0
LINE
8
BLACK
6
CONTINUOUS
10
103.162
20
-49.3775
11
103.164
21
-49.3776
0
LINE
8
BLACK
6
CONTINUOUS
10
103.164
20
-49.3776
11
103.167
21
-49.3774
0
LINE
8
BLACK
6
CONTINUOUS
10
103.167
20
-49.3774
11
103.548
21
-49.3774
0
LINE
8
BLACK
6
CONTINUOUS
10
103.548
20
-49.3774
11
103.548
21
-49.3774
0
LINE
8
BLACK
6
CONTINUOUS
10
103.184
20
-49.5274
11
103.116
21
-49.5616
0
LINE
8
BLACK
6
CONTINUOUS
10
103.116
20
-49.5616
11
103.085
21
-49.592
0
LINE
8
BLACK
6
CONTINUOUS
10
103.085
20
-49.592
11
103.051
21
-49.6606
0
LINE
8
BLACK
6
CONTINUOUS
10
103.051
20
-49.6606
11
103.051
21
-49.768
0
LINE
8
BLACK
6
CONTINUOUS
10
103.051
20
-49.768
11
103.085
21
-49.8365
0
LINE
8
BLACK
6
CONTINUOUS
10
103.085
20
-49.8365
11
103.116
21
-49.8669
0
LINE
8
BLACK
6
CONTINUOUS
10
103.116
20
-49.8669
11
103.184
21
-49.9012
0
LINE
8
BLACK
6
CONTINUOUS
10
103.184
20
-49.9012
11
103.473
21
-49.9012
0
LINE
8
BLACK
6
CONTINUOUS
10
103.473
20
-49.9012
11
103.473
21
-49.5274
0
LINE
8
BLACK
6
CONTINUOUS
10
103.473
20
-49.5274
11
103.184
21
-49.5274
0
LINE
8
BLACK
6
CONTINUOUS
10
106.643
20
-49.3777
11
106.649
21
-49.3776
0
LINE
8
BLACK
6
CONTINUOUS
10
106.649
20
-49.3776
11
106.651
21
-49.378
0
LINE
8
BLACK
6
CONTINUOUS
10
106.651
20
-49.378
11
106.653
21
-49.378
0
LINE
8
BLACK
6
CONTINUOUS
10
106.653
20
-49.378
11
106.658
21
-49.3792
0
LINE
8
BLACK
6
CONTINUOUS
10
106.658
20
-49.3792
11
106.663
21
-49.3801
0
LINE
8
BLACK
6
CONTINUOUS
10
106.663
20
-49.3801
11
106.665
21
-49.3809
0
LINE
8
BLACK
6
CONTINUOUS
10
106.665
20
-49.3809
11
106.667
21
-49.3814
0
LINE
8
BLACK
6
CONTINUOUS
10
106.667
20
-49.3814
11
106.672
21
-49.3835
0
LINE
8
BLACK
6
CONTINUOUS
10
106.672
20
-49.3835
11
106.677
21
-49.3854
0
LINE
8
BLACK
6
CONTINUOUS
10
106.677
20
-49.3854
11
106.678
21
-49.3866
0
LINE
8
BLACK
6
CONTINUOUS
10
106.678
20
-49.3866
11
106.68
21
-49.3875
0
LINE
8
BLACK
6
CONTINUOUS
10
106.68
20
-49.3875
11
106.685
21
-49.3905
0
LINE
8
BLACK
6
CONTINUOUS
10
106.685
20
-49.3905
11
106.689
21
-49.3933
0
LINE
8
BLACK
6
CONTINUOUS
10
106.689
20
-49.3933
11
106.691
21
-49.3947
0
LINE
8
BLACK
6
CONTINUOUS
10
106.691
20
-49.3947
11
106.692
21
-49.396
0
LINE
8
BLACK
6
CONTINUOUS
10
106.692
20
-49.396
11
106.696
21
-49.3998
0
LINE
8
BLACK
6
CONTINUOUS
10
106.696
20
-49.3998
11
106.7
21
-49.4033
0
LINE
8
BLACK
6
CONTINUOUS
10
106.7
20
-49.4033
11
106.701
21
-49.4051
0
LINE
8
BLACK
6
CONTINUOUS
10
106.701
20
-49.4051
11
106.702
21
-49.4067
0
LINE
8
BLACK
6
CONTINUOUS
10
106.702
20
-49.4067
11
106.705
21
-49.411
0
LINE
8
BLACK
6
CONTINUOUS
10
106.705
20
-49.411
11
106.708
21
-49.4153
0
LINE
8
BLACK
6
CONTINUOUS
10
106.708
20
-49.4153
11
106.709
21
-49.4173
0
LINE
8
BLACK
6
CONTINUOUS
10
106.709
20
-49.4173
11
106.71
21
-49.4191
0
LINE
8
BLACK
6
CONTINUOUS
10
106.71
20
-49.4191
11
106.712
21
-49.4239
0
LINE
8
BLACK
6
CONTINUOUS
10
106.712
20
-49.4239
11
106.714
21
-49.4287
0
LINE
8
BLACK
6
CONTINUOUS
10
106.714
20
-49.4287
11
107.047
21
-50.4287
0
LINE
8
BLACK
6
CONTINUOUS
10
107.047
20
-50.4287
11
107.048
21
-50.4297
0
LINE
8
BLACK
6
CONTINUOUS
10
107.048
20
-50.4297
11
107.051
21
-50.444
0
LINE
8
BLACK
6
CONTINUOUS
10
107.051
20
-50.444
11
107.051
21
-50.4586
0
LINE
8
BLACK
6
CONTINUOUS
10
107.051
20
-50.4586
11
107.048
21
-50.473
0
LINE
8
BLACK
6
CONTINUOUS
10
107.048
20
-50.473
11
107.043
21
-50.4866
0
LINE
8
BLACK
6
CONTINUOUS
10
107.043
20
-50.4866
11
107.035
21
-50.4989
0
LINE
8
BLACK
6
CONTINUOUS
10
107.035
20
-50.4989
11
107.025
21
-50.5095
0
LINE
8
BLACK
6
CONTINUOUS
10
107.025
20
-50.5095
11
107.013
21
-50.5178
0
LINE
8
BLACK
6
CONTINUOUS
10
107.013
20
-50.5178
11
106.999
21
-50.5237
0
LINE
8
BLACK
6
CONTINUOUS
10
106.999
20
-50.5237
11
106.985
21
-50.5268
0
LINE
8
BLACK
6
CONTINUOUS
10
106.985
20
-50.5268
11
106.97
21
-50.5272
0
LINE
8
BLACK
6
CONTINUOUS
10
106.97
20
-50.5272
11
106.956
21
-50.5246
0
LINE
8
BLACK
6
CONTINUOUS
10
106.956
20
-50.5246
11
106.942
21
-50.5193
0
LINE
8
BLACK
6
CONTINUOUS
10
106.942
20
-50.5193
11
106.93
21
-50.5115
0
LINE
8
BLACK
6
CONTINUOUS
10
106.93
20
-50.5115
11
106.919
21
-50.5014
0
LINE
8
BLACK
6
CONTINUOUS
10
106.919
20
-50.5014
11
106.911
21
-50.4895
0
LINE
8
BLACK
6
CONTINUOUS
10
106.911
20
-50.4895
11
106.905
21
-50.4761
0
LINE
8
BLACK
6
CONTINUOUS
10
106.905
20
-50.4761
11
106.827
21
-50.2417
0
LINE
8
BLACK
6
CONTINUOUS
10
106.827
20
-50.2417
11
106.459
21
-50.2417
0
LINE
8
BLACK
6
CONTINUOUS
10
106.459
20
-50.2417
11
106.381
21
-50.4761
0
LINE
8
BLACK
6
CONTINUOUS
10
106.381
20
-50.4761
11
106.38
21
-50.4771
0
LINE
8
BLACK
6
CONTINUOUS
10
106.38
20
-50.4771
11
106.374
21
-50.4904
0
LINE
8
BLACK
6
CONTINUOUS
10
106.374
20
-50.4904
11
106.366
21
-50.5022
0
LINE
8
BLACK
6
CONTINUOUS
10
106.366
20
-50.5022
11
106.355
21
-50.5121
0
LINE
8
BLACK
6
CONTINUOUS
10
106.355
20
-50.5121
11
106.342
21
-50.5198
0
LINE
8
BLACK
6
CONTINUOUS
10
106.342
20
-50.5198
11
106.329
21
-50.5249
0
LINE
8
BLACK
6
CONTINUOUS
10
106.329
20
-50.5249
11
106.314
21
-50.5272
0
LINE
8
BLACK
6
CONTINUOUS
10
106.314
20
-50.5272
11
106.3
21
-50.5267
0
LINE
8
BLACK
6
CONTINUOUS
10
106.3
20
-50.5267
11
106.285
21
-50.5234
0
LINE
8
BLACK
6
CONTINUOUS
10
106.285
20
-50.5234
11
106.272
21
-50.5173
0
LINE
8
BLACK
6
CONTINUOUS
10
106.272
20
-50.5173
11
106.26
21
-50.5088
0
LINE
8
BLACK
6
CONTINUOUS
10
106.26
20
-50.5088
11
106.25
21
-50.4981
0
LINE
8
BLACK
6
CONTINUOUS
10
106.25
20
-50.4981
11
106.242
21
-50.4857
0
LINE
8
BLACK
6
CONTINUOUS
10
106.242
20
-50.4857
11
106.237
21
-50.472
0
LINE
8
BLACK
6
CONTINUOUS
10
106.237
20
-50.472
11
106.235
21
-50.4576
0
LINE
8
BLACK
6
CONTINUOUS
10
106.235
20
-50.4576
11
106.235
21
-50.4429
0
LINE
8
BLACK
6
CONTINUOUS
10
106.235
20
-50.4429
11
106.238
21
-50.4287
0
LINE
8
BLACK
6
CONTINUOUS
10
106.238
20
-50.4287
11
106.572
21
-49.4287
0
LINE
8
BLACK
6
CONTINUOUS
10
106.572
20
-49.4287
11
106.572
21
-49.4277
0
LINE
8
BLACK
6
CONTINUOUS
10
106.572
20
-49.4277
11
106.574
21
-49.423
0
LINE
8
BLACK
6
CONTINUOUS
10
106.574
20
-49.423
11
106.576
21
-49.4181
0
LINE
8
BLACK
6
CONTINUOUS
10
106.576
20
-49.4181
11
106.577
21
-49.4163
0
LINE
8
BLACK
6
CONTINUOUS
10
106.577
20
-49.4163
11
106.578
21
-49.4144
0
LINE
8
BLACK
6
CONTINUOUS
10
106.578
20
-49.4144
11
106.581
21
-49.4102
0
LINE
8
BLACK
6
CONTINUOUS
10
106.581
20
-49.4102
11
106.584
21
-49.4058
0
LINE
8
BLACK
6
CONTINUOUS
10
106.584
20
-49.4058
11
106.586
21
-49.4043
0
LINE
8
BLACK
6
CONTINUOUS
10
106.586
20
-49.4043
11
106.587
21
-49.4026
0
LINE
8
BLACK
6
CONTINUOUS
10
106.587
20
-49.4026
11
106.591
21
-49.399
0
LINE
8
BLACK
6
CONTINUOUS
10
106.591
20
-49.399
11
106.594
21
-49.3953
0
LINE
8
BLACK
6
CONTINUOUS
10
106.594
20
-49.3953
11
106.596
21
-49.3941
0
LINE
8
BLACK
6
CONTINUOUS
10
106.596
20
-49.3941
11
106.598
21
-49.3926
0
LINE
8
BLACK
6
CONTINUOUS
10
106.598
20
-49.3926
11
106.602
21
-49.3899
0
LINE
8
BLACK
6
CONTINUOUS
10
106.602
20
-49.3899
11
106.606
21
-49.3869
0
LINE
8
BLACK
6
CONTINUOUS
10
106.606
20
-49.3869
11
106.608
21
-49.3861
0
LINE
8
BLACK
6
CONTINUOUS
10
106.608
20
-49.3861
11
106.61
21
-49.385
0
LINE
8
BLACK
6
CONTINUOUS
10
106.61
20
-49.385
11
106.615
21
-49.3831
0
LINE
8
BLACK
6
CONTINUOUS
10
106.615
20
-49.3831
11
106.62
21
-49.3811
0
LINE
8
BLACK
6
CONTINUOUS
10
106.62
20
-49.3811
11
106.622
21
-49.3806
0
LINE
8
BLACK
6
CONTINUOUS
10
106.622
20
-49.3806
11
106.624
21
-49.3799
0
LINE
8
BLACK
6
CONTINUOUS
10
106.624
20
-49.3799
11
106.629
21
-49.379
0
LINE
8
BLACK
6
CONTINUOUS
10
106.629
20
-49.379
11
106.634
21
-49.3779
0
LINE
8
BLACK
6
CONTINUOUS
10
106.634
20
-49.3779
11
106.636
21
-49.3779
0
LINE
8
BLACK
6
CONTINUOUS
10
106.636
20
-49.3779
11
106.638
21
-49.3775
0
LINE
8
BLACK
6
CONTINUOUS
10
106.638
20
-49.3775
11
106.643
21
-49.3777
0
LINE
8
BLACK
6
CONTINUOUS
10
106.509
20
-50.0917
11
106.777
21
-50.0917
0
LINE
8
BLACK
6
CONTINUOUS
10
106.777
20
-50.0917
11
106.643
21
-49.6895
0
LINE
8
BLACK
6
CONTINUOUS
10
106.643
20
-49.6895
11
106.509
21
-50.0917
0
LINE
8
BLACK
6
CONTINUOUS
10
119.683
20
-75.3649
11
119.697
21
-75.3684
0
LINE
8
BLACK
6
CONTINUOUS
10
119.697
20
-75.3684
11
119.71
21
-75.3745
0
LINE
8
BLACK
6
CONTINUOUS
10
119.71
20
-75.3745
11
119.722
21
-75.3831
0
LINE
8
BLACK
6
CONTINUOUS
10
119.722
20
-75.3831
11
119.732
21
-75.3939
0
LINE
8
BLACK
6
CONTINUOUS
10
119.732
20
-75.3939
11
119.74
21
-75.4063
0
LINE
8
BLACK
6
CONTINUOUS
10
119.74
20
-75.4063
11
119.745
21
-75.42
0
LINE
8
BLACK
6
CONTINUOUS
10
119.745
20
-75.42
11
119.747
21
-75.4345
0
LINE
8
BLACK
6
CONTINUOUS
10
119.747
20
-75.4345
11
119.747
21
-75.4491
0
LINE
8
BLACK
6
CONTINUOUS
10
119.747
20
-75.4491
11
119.743
21
-75.4634
0
LINE
8
BLACK
6
CONTINUOUS
10
119.743
20
-75.4634
11
119.737
21
-75.4767
0
LINE
8
BLACK
6
CONTINUOUS
10
119.737
20
-75.4767
11
119.386
21
-76.0847
0
LINE
8
BLACK
6
CONTINUOUS
10
119.386
20
-76.0847
11
119.362
21
-76.203
0
LINE
8
BLACK
6
CONTINUOUS
10
119.362
20
-76.203
11
119.388
21
-76.2989
0
LINE
8
BLACK
6
CONTINUOUS
10
119.388
20
-76.2989
11
119.468
21
-76.3892
0
LINE
8
BLACK
6
CONTINUOUS
10
119.468
20
-76.3892
11
119.54
21
-76.4307
0
LINE
8
BLACK
6
CONTINUOUS
10
119.54
20
-76.4307
11
119.541
21
-76.4313
0
LINE
8
BLACK
6
CONTINUOUS
10
119.541
20
-76.4313
11
119.553
21
-76.44
0
LINE
8
BLACK
6
CONTINUOUS
10
119.553
20
-76.44
11
119.562
21
-76.4508
0
LINE
8
BLACK
6
CONTINUOUS
10
119.562
20
-76.4508
11
119.57
21
-76.4633
0
LINE
8
BLACK
6
CONTINUOUS
10
119.57
20
-76.4633
11
119.575
21
-76.477
0
LINE
8
BLACK
6
CONTINUOUS
10
119.575
20
-76.477
11
119.577
21
-76.4915
0
LINE
8
BLACK
6
CONTINUOUS
10
119.577
20
-76.4915
11
119.577
21
-76.5061
0
LINE
8
BLACK
6
CONTINUOUS
10
119.577
20
-76.5061
11
119.573
21
-76.5204
0
LINE
8
BLACK
6
CONTINUOUS
10
119.573
20
-76.5204
11
119.567
21
-76.5336
0
LINE
8
BLACK
6
CONTINUOUS
10
119.567
20
-76.5336
11
119.558
21
-76.5455
0
LINE
8
BLACK
6
CONTINUOUS
10
119.558
20
-76.5455
11
119.548
21
-76.5554
0
LINE
8
BLACK
6
CONTINUOUS
10
119.548
20
-76.5554
11
119.535
21
-76.5631
0
LINE
8
BLACK
6
CONTINUOUS
10
119.535
20
-76.5631
11
119.522
21
-76.5682
0
LINE
8
BLACK
6
CONTINUOUS
10
119.522
20
-76.5682
11
119.507
21
-76.5705
0
LINE
8
BLACK
6
CONTINUOUS
10
119.507
20
-76.5705
11
119.492
21
-76.57
0
LINE
8
BLACK
6
CONTINUOUS
10
119.492
20
-76.57
11
119.478
21
-76.5667
0
LINE
8
BLACK
6
CONTINUOUS
10
119.478
20
-76.5667
11
119.465
21
-76.5606
0
LINE
8
BLACK
6
CONTINUOUS
10
119.465
20
-76.5606
11
119.382
21
-76.513
0
LINE
8
BLACK
6
CONTINUOUS
10
119.382
20
-76.513
11
119.382
21
-76.5125
0
LINE
8
BLACK
6
CONTINUOUS
10
119.382
20
-76.5125
11
119.378
21
-76.51
0
LINE
8
BLACK
6
CONTINUOUS
10
119.378
20
-76.51
11
119.375
21
-76.5078
0
LINE
8
BLACK
6
CONTINUOUS
10
119.375
20
-76.5078
11
119.372
21
-76.5057
0
LINE
8
BLACK
6
CONTINUOUS
10
119.372
20
-76.5057
11
119.37
21
-76.5038
0
LINE
8
BLACK
6
CONTINUOUS
10
119.37
20
-76.5038
11
119.367
21
-76.5007
0
LINE
8
BLACK
6
CONTINUOUS
10
119.367
20
-76.5007
11
119.364
21
-76.4978
0
LINE
8
BLACK
6
CONTINUOUS
10
119.364
20
-76.4978
11
119.264
21
-76.3852
0
LINE
8
BLACK
6
CONTINUOUS
10
119.264
20
-76.3852
11
119.263
21
-76.3844
0
LINE
8
BLACK
6
CONTINUOUS
10
119.263
20
-76.3844
11
119.262
21
-76.3826
0
LINE
8
BLACK
6
CONTINUOUS
10
119.262
20
-76.3826
11
119.26
21
-76.381
0
LINE
8
BLACK
6
CONTINUOUS
10
119.26
20
-76.381
11
119.258
21
-76.3766
0
LINE
8
BLACK
6
CONTINUOUS
10
119.258
20
-76.3766
11
119.255
21
-76.3724
0
LINE
8
BLACK
6
CONTINUOUS
10
119.255
20
-76.3724
11
119.254
21
-76.3704
0
LINE
8
BLACK
6
CONTINUOUS
10
119.254
20
-76.3704
11
119.253
21
-76.3685
0
LINE
8
BLACK
6
CONTINUOUS
10
119.253
20
-76.3685
11
119.251
21
-76.3637
0
LINE
8
BLACK
6
CONTINUOUS
10
119.251
20
-76.3637
11
119.249
21
-76.359
0
LINE
8
BLACK
6
CONTINUOUS
10
119.249
20
-76.359
11
119.248
21
-76.3569
0
LINE
8
BLACK
6
CONTINUOUS
10
119.248
20
-76.3569
11
119.248
21
-76.3548
0
LINE
8
BLACK
6
CONTINUOUS
10
119.248
20
-76.3548
11
119.213
21
-76.2247
0
LINE
8
BLACK
6
CONTINUOUS
10
119.213
20
-76.2247
11
119.212
21
-76.2237
0
LINE
8
BLACK
6
CONTINUOUS
10
119.212
20
-76.2237
11
119.212
21
-76.2215
0
LINE
8
BLACK
6
CONTINUOUS
10
119.212
20
-76.2215
11
119.211
21
-76.2194
0
LINE
8
BLACK
6
CONTINUOUS
10
119.211
20
-76.2194
11
119.211
21
-76.2143
0
LINE
8
BLACK
6
CONTINUOUS
10
119.211
20
-76.2143
11
119.21
21
-76.2092
0
LINE
8
BLACK
6
CONTINUOUS
10
119.21
20
-76.2092
11
119.21
21
-76.207
0
LINE
8
BLACK
6
CONTINUOUS
10
119.21
20
-76.207
11
119.21
21
-76.2048
0
LINE
8
BLACK
6
CONTINUOUS
10
119.21
20
-76.2048
11
119.211
21
-76.1997
0
LINE
8
BLACK
6
CONTINUOUS
10
119.211
20
-76.1997
11
119.211
21
-76.1946
0
LINE
8
BLACK
6
CONTINUOUS
10
119.211
20
-76.1946
11
119.211
21
-76.1925
0
LINE
8
BLACK
6
CONTINUOUS
10
119.211
20
-76.1925
11
119.212
21
-76.1903
0
LINE
8
BLACK
6
CONTINUOUS
10
119.212
20
-76.1903
11
119.242
21
-76.0427
0
LINE
8
BLACK
6
CONTINUOUS
10
119.242
20
-76.0427
11
119.242
21
-76.0417
0
LINE
8
BLACK
6
CONTINUOUS
10
119.242
20
-76.0417
11
119.243
21
-76.0377
0
LINE
8
BLACK
6
CONTINUOUS
10
119.243
20
-76.0377
11
119.244
21
-76.0336
0
LINE
8
BLACK
6
CONTINUOUS
10
119.244
20
-76.0336
11
119.246
21
-76.0308
0
LINE
8
BLACK
6
CONTINUOUS
10
119.246
20
-76.0308
11
119.247
21
-76.0278
0
LINE
8
BLACK
6
CONTINUOUS
10
119.247
20
-76.0278
11
119.249
21
-76.0241
0
LINE
8
BLACK
6
CONTINUOUS
10
119.249
20
-76.0241
11
119.25
21
-76.0203
0
LINE
8
BLACK
6
CONTINUOUS
10
119.25
20
-76.0203
11
119.608
21
-75.4017
0
LINE
8
BLACK
6
CONTINUOUS
10
119.608
20
-75.4017
11
119.608
21
-75.4008
0
LINE
8
BLACK
6
CONTINUOUS
10
119.608
20
-75.4008
11
119.617
21
-75.389
0
LINE
8
BLACK
6
CONTINUOUS
10
119.617
20
-75.389
11
119.628
21
-75.3791
0
LINE
8
BLACK
6
CONTINUOUS
10
119.628
20
-75.3791
11
119.64
21
-75.3716
0
LINE
8
BLACK
6
CONTINUOUS
10
119.64
20
-75.3716
11
119.654
21
-75.3666
0
LINE
8
BLACK
6
CONTINUOUS
10
119.654
20
-75.3666
11
119.668
21
-75.3643
0
LINE
8
BLACK
6
CONTINUOUS
10
119.668
20
-75.3643
11
119.683
21
-75.3649
0
LINE
8
BLACK
6
CONTINUOUS
10
118.865
20
-74.9533
11
118.87
21
-74.9532
0
LINE
8
BLACK
6
CONTINUOUS
10
118.87
20
-74.9532
11
118.976
21
-74.9596
0
LINE
8
BLACK
6
CONTINUOUS
10
118.976
20
-74.9596
11
118.977
21
-74.9596
0
LINE
8
BLACK
6
CONTINUOUS
10
118.977
20
-74.9596
11
118.979
21
-74.96
0
LINE
8
BLACK
6
CONTINUOUS
10
118.979
20
-74.96
11
118.981
21
-74.9601
0
LINE
8
BLACK
6
CONTINUOUS
10
118.981
20
-74.9601
11
118.986
21
-74.9613
0
LINE
8
BLACK
6
CONTINUOUS
10
118.986
20
-74.9613
11
118.991
21
-74.9621
0
LINE
8
BLACK
6
CONTINUOUS
10
118.991
20
-74.9621
11
118.993
21
-74.9629
0
LINE
8
BLACK
6
CONTINUOUS
10
118.993
20
-74.9629
11
118.996
21
-74.9634
0
LINE
8
BLACK
6
CONTINUOUS
10
118.996
20
-74.9634
11
119
21
-74.9656
0
LINE
8
BLACK
6
CONTINUOUS
10
119
20
-74.9656
11
119.005
21
-74.9674
0
LINE
8
BLACK
6
CONTINUOUS
10
119.005
20
-74.9674
11
119.007
21
-74.9686
0
LINE
8
BLACK
6
CONTINUOUS
10
119.007
20
-74.9686
11
119.009
21
-74.9695
0
LINE
8
BLACK
6
CONTINUOUS
10
119.009
20
-74.9695
11
119.215
21
-75.0885
0
LINE
8
BLACK
6
CONTINUOUS
10
119.215
20
-75.0885
11
119.216
21
-75.0891
0
LINE
8
BLACK
6
CONTINUOUS
10
119.216
20
-75.0891
11
119.218
21
-75.0904
0
LINE
8
BLACK
6
CONTINUOUS
10
119.218
20
-75.0904
11
119.22
21
-75.0914
0
LINE
8
BLACK
6
CONTINUOUS
10
119.22
20
-75.0914
11
119.224
21
-75.0947
0
LINE
8
BLACK
6
CONTINUOUS
10
119.224
20
-75.0947
11
119.228
21
-75.0977
0
LINE
8
BLACK
6
CONTINUOUS
10
119.228
20
-75.0977
11
119.229
21
-75.0994
0
LINE
8
BLACK
6
CONTINUOUS
10
119.229
20
-75.0994
11
119.231
21
-75.1008
0
LINE
8
BLACK
6
CONTINUOUS
10
119.231
20
-75.1008
11
119.234
21
-75.1048
0
LINE
8
BLACK
6
CONTINUOUS
10
119.234
20
-75.1048
11
119.238
21
-75.1086
0
LINE
8
BLACK
6
CONTINUOUS
10
119.238
20
-75.1086
11
119.239
21
-75.1104
0
LINE
8
BLACK
6
CONTINUOUS
10
119.239
20
-75.1104
11
119.24
21
-75.1122
0
LINE
8
BLACK
6
CONTINUOUS
10
119.24
20
-75.1122
11
119.299
21
-75.201
0
LINE
8
BLACK
6
CONTINUOUS
10
119.299
20
-75.201
11
119.299
21
-75.2019
0
LINE
8
BLACK
6
CONTINUOUS
10
119.299
20
-75.2019
11
119.301
21
-75.2056
0
LINE
8
BLACK
6
CONTINUOUS
10
119.301
20
-75.2056
11
119.304
21
-75.2092
0
LINE
8
BLACK
6
CONTINUOUS
10
119.304
20
-75.2092
11
119.305
21
-75.2122
0
LINE
8
BLACK
6
CONTINUOUS
10
119.305
20
-75.2122
11
119.306
21
-75.2149
0
LINE
8
BLACK
6
CONTINUOUS
10
119.306
20
-75.2149
11
119.307
21
-75.219
0
LINE
8
BLACK
6
CONTINUOUS
10
119.307
20
-75.219
11
119.309
21
-75.2229
0
LINE
8
BLACK
6
CONTINUOUS
10
119.309
20
-75.2229
11
119.326
21
-75.288
0
LINE
8
BLACK
6
CONTINUOUS
10
119.326
20
-75.288
11
119.326
21
-75.289
0
LINE
8
BLACK
6
CONTINUOUS
10
119.326
20
-75.289
11
119.329
21
-75.3035
0
LINE
8
BLACK
6
CONTINUOUS
10
119.329
20
-75.3035
11
119.328
21
-75.3181
0
LINE
8
BLACK
6
CONTINUOUS
10
119.328
20
-75.3181
11
119.324
21
-75.3323
0
LINE
8
BLACK
6
CONTINUOUS
10
119.324
20
-75.3323
11
119.318
21
-75.3456
0
LINE
8
BLACK
6
CONTINUOUS
10
119.318
20
-75.3456
11
119.31
21
-75.3574
0
LINE
8
BLACK
6
CONTINUOUS
10
119.31
20
-75.3574
11
119.299
21
-75.3673
0
LINE
8
BLACK
6
CONTINUOUS
10
119.299
20
-75.3673
11
119.286
21
-75.3749
0
LINE
8
BLACK
6
CONTINUOUS
10
119.286
20
-75.3749
11
119.273
21
-75.38
0
LINE
8
BLACK
6
CONTINUOUS
10
119.273
20
-75.38
11
119.258
21
-75.3823
0
LINE
8
BLACK
6
CONTINUOUS
10
119.258
20
-75.3823
11
119.244
21
-75.3817
0
LINE
8
BLACK
6
CONTINUOUS
10
119.244
20
-75.3817
11
119.229
21
-75.3783
0
LINE
8
BLACK
6
CONTINUOUS
10
119.229
20
-75.3783
11
119.216
21
-75.3722
0
LINE
8
BLACK
6
CONTINUOUS
10
119.216
20
-75.3722
11
119.204
21
-75.3636
0
LINE
8
BLACK
6
CONTINUOUS
10
119.204
20
-75.3636
11
119.194
21
-75.3529
0
LINE
8
BLACK
6
CONTINUOUS
10
119.194
20
-75.3529
11
119.186
21
-75.3405
0
LINE
8
BLACK
6
CONTINUOUS
10
119.186
20
-75.3405
11
119.181
21
-75.3268
0
LINE
8
BLACK
6
CONTINUOUS
10
119.181
20
-75.3268
11
119.167
21
-75.2735
0
LINE
8
BLACK
6
CONTINUOUS
10
119.167
20
-75.2735
11
119.125
21
-75.2096
0
LINE
8
BLACK
6
CONTINUOUS
10
119.125
20
-75.2096
11
118.949
21
-75.1082
0
LINE
8
BLACK
6
CONTINUOUS
10
118.949
20
-75.1082
11
118.873
21
-75.1036
0
LINE
8
BLACK
6
CONTINUOUS
10
118.873
20
-75.1036
11
118.831
21
-75.1148
0
LINE
8
BLACK
6
CONTINUOUS
10
118.831
20
-75.1148
11
118.767
21
-75.157
0
LINE
8
BLACK
6
CONTINUOUS
10
118.767
20
-75.157
11
118.735
21
-75.2136
0
LINE
8
BLACK
6
CONTINUOUS
10
118.735
20
-75.2136
11
118.71
21
-75.3318
0
LINE
8
BLACK
6
CONTINUOUS
10
118.71
20
-75.3318
11
118.915
21
-76.0953
0
LINE
8
BLACK
6
CONTINUOUS
10
118.915
20
-76.0953
11
118.915
21
-76.0963
0
LINE
8
BLACK
6
CONTINUOUS
10
118.915
20
-76.0963
11
118.916
21
-76.1038
0
LINE
8
BLACK
6
CONTINUOUS
10
118.916
20
-76.1038
11
118.917
21
-76.1106
0
LINE
8
BLACK
6
CONTINUOUS
10
118.917
20
-76.1106
11
118.917
21
-76.1107
0
LINE
8
BLACK
6
CONTINUOUS
10
118.917
20
-76.1107
11
118.917
21
-76.1108
0
LINE
8
BLACK
6
CONTINUOUS
10
118.917
20
-76.1108
11
118.917
21
-76.1181
0
LINE
8
BLACK
6
CONTINUOUS
10
118.917
20
-76.1181
11
118.917
21
-76.1252
0
LINE
8
BLACK
6
CONTINUOUS
10
118.917
20
-76.1252
11
118.917
21
-76.1253
0
LINE
8
BLACK
6
CONTINUOUS
10
118.917
20
-76.1253
11
118.917
21
-76.1254
0
LINE
8
BLACK
6
CONTINUOUS
10
118.917
20
-76.1254
11
118.915
21
-76.1323
0
LINE
8
BLACK
6
CONTINUOUS
10
118.915
20
-76.1323
11
118.913
21
-76.1394
0
LINE
8
BLACK
6
CONTINUOUS
10
118.913
20
-76.1394
11
118.913
21
-76.1395
0
LINE
8
BLACK
6
CONTINUOUS
10
118.913
20
-76.1395
11
118.913
21
-76.1397
0
LINE
8
BLACK
6
CONTINUOUS
10
118.913
20
-76.1397
11
118.91
21
-76.1461
0
LINE
8
BLACK
6
CONTINUOUS
10
118.91
20
-76.1461
11
118.907
21
-76.1527
0
LINE
8
BLACK
6
CONTINUOUS
10
118.907
20
-76.1527
11
118.907
21
-76.1528
0
LINE
8
BLACK
6
CONTINUOUS
10
118.907
20
-76.1528
11
118.907
21
-76.1529
0
LINE
8
BLACK
6
CONTINUOUS
10
118.907
20
-76.1529
11
118.903
21
-76.1587
0
LINE
8
BLACK
6
CONTINUOUS
10
118.903
20
-76.1587
11
118.899
21
-76.1645
0
LINE
8
BLACK
6
CONTINUOUS
10
118.899
20
-76.1645
11
118.899
21
-76.1646
0
LINE
8
BLACK
6
CONTINUOUS
10
118.899
20
-76.1646
11
118.898
21
-76.1647
0
LINE
8
BLACK
6
CONTINUOUS
10
118.898
20
-76.1647
11
118.893
21
-76.1696
0
LINE
8
BLACK
6
CONTINUOUS
10
118.893
20
-76.1696
11
118.888
21
-76.1745
0
LINE
8
BLACK
6
CONTINUOUS
10
118.888
20
-76.1745
11
118.888
21
-76.1746
0
LINE
8
BLACK
6
CONTINUOUS
10
118.888
20
-76.1746
11
118.888
21
-76.1746
0
LINE
8
BLACK
6
CONTINUOUS
10
118.888
20
-76.1746
11
118.881
21
-76.1784
0
LINE
8
BLACK
6
CONTINUOUS
10
118.881
20
-76.1784
11
118.875
21
-76.1822
0
LINE
8
BLACK
6
CONTINUOUS
10
118.875
20
-76.1822
11
118.875
21
-76.1822
0
LINE
8
BLACK
6
CONTINUOUS
10
118.875
20
-76.1822
11
118.875
21
-76.1823
0
LINE
8
BLACK
6
CONTINUOUS
10
118.875
20
-76.1823
11
118.868
21
-76.1848
0
LINE
8
BLACK
6
CONTINUOUS
10
118.868
20
-76.1848
11
118.862
21
-76.1873
0
LINE
8
BLACK
6
CONTINUOUS
10
118.862
20
-76.1873
11
118.862
21
-76.1873
0
LINE
8
BLACK
6
CONTINUOUS
10
118.862
20
-76.1873
11
118.861
21
-76.1873
0
LINE
8
BLACK
6
CONTINUOUS
10
118.861
20
-76.1873
11
118.854
21
-76.1884
0
LINE
8
BLACK
6
CONTINUOUS
10
118.854
20
-76.1884
11
118.847
21
-76.1896
0
LINE
8
BLACK
6
CONTINUOUS
10
118.847
20
-76.1896
11
118.847
21
-76.1896
0
LINE
8
BLACK
6
CONTINUOUS
10
118.847
20
-76.1896
11
118.847
21
-76.1896
0
LINE
8
BLACK
6
CONTINUOUS
10
118.847
20
-76.1896
11
118.84
21
-76.1893
0
LINE
8
BLACK
6
CONTINUOUS
10
118.84
20
-76.1893
11
118.833
21
-76.1891
0
LINE
8
BLACK
6
CONTINUOUS
10
118.833
20
-76.1891
11
118.833
21
-76.1891
0
LINE
8
BLACK
6
CONTINUOUS
10
118.833
20
-76.1891
11
118.832
21
-76.189
0
LINE
8
BLACK
6
CONTINUOUS
10
118.832
20
-76.189
11
118.825
21
-76.1874
0
LINE
8
BLACK
6
CONTINUOUS
10
118.825
20
-76.1874
11
118.818
21
-76.1857
0
LINE
8
BLACK
6
CONTINUOUS
10
118.818
20
-76.1857
11
118.818
21
-76.1857
0
LINE
8
BLACK
6
CONTINUOUS
10
118.818
20
-76.1857
11
118.818
21
-76.1857
0
LINE
8
BLACK
6
CONTINUOUS
10
118.818
20
-76.1857
11
118.812
21
-76.1827
0
LINE
8
BLACK
6
CONTINUOUS
10
118.812
20
-76.1827
11
118.805
21
-76.1797
0
LINE
8
BLACK
6
CONTINUOUS
10
118.805
20
-76.1797
11
118.269
21
-75.8702
0
LINE
8
BLACK
6
CONTINUOUS
10
118.269
20
-75.8702
11
118.268
21
-75.8696
0
LINE
8
BLACK
6
CONTINUOUS
10
118.268
20
-75.8696
11
118.256
21
-75.861
0
LINE
8
BLACK
6
CONTINUOUS
10
118.256
20
-75.861
11
118.246
21
-75.8501
0
LINE
8
BLACK
6
CONTINUOUS
10
118.246
20
-75.8501
11
118.239
21
-75.8376
0
LINE
8
BLACK
6
CONTINUOUS
10
118.239
20
-75.8376
11
118.234
21
-75.8239
0
LINE
8
BLACK
6
CONTINUOUS
10
118.234
20
-75.8239
11
118.232
21
-75.8094
0
LINE
8
BLACK
6
CONTINUOUS
10
118.232
20
-75.8094
11
118.232
21
-75.7948
0
LINE
8
BLACK
6
CONTINUOUS
10
118.232
20
-75.7948
11
118.236
21
-75.7806
0
LINE
8
BLACK
6
CONTINUOUS
10
118.236
20
-75.7806
11
118.242
21
-75.7673
0
LINE
8
BLACK
6
CONTINUOUS
10
118.242
20
-75.7673
11
118.25
21
-75.7554
0
LINE
8
BLACK
6
CONTINUOUS
10
118.25
20
-75.7554
11
118.261
21
-75.7455
0
LINE
8
BLACK
6
CONTINUOUS
10
118.261
20
-75.7455
11
118.274
21
-75.7378
0
LINE
8
BLACK
6
CONTINUOUS
10
118.274
20
-75.7378
11
118.287
21
-75.7327
0
LINE
8
BLACK
6
CONTINUOUS
10
118.287
20
-75.7327
11
118.302
21
-75.7304
0
LINE
8
BLACK
6
CONTINUOUS
10
118.302
20
-75.7304
11
118.316
21
-75.7309
0
LINE
8
BLACK
6
CONTINUOUS
10
118.316
20
-75.7309
11
118.331
21
-75.7342
0
LINE
8
BLACK
6
CONTINUOUS
10
118.331
20
-75.7342
11
118.344
21
-75.7403
0
LINE
8
BLACK
6
CONTINUOUS
10
118.344
20
-75.7403
11
118.723
21
-75.9593
0
LINE
8
BLACK
6
CONTINUOUS
10
118.723
20
-75.9593
11
118.561
21
-75.3536
0
LINE
8
BLACK
6
CONTINUOUS
10
118.561
20
-75.3536
11
118.561
21
-75.3526
0
LINE
8
BLACK
6
CONTINUOUS
10
118.561
20
-75.3526
11
118.56
21
-75.3504
0
LINE
8
BLACK
6
CONTINUOUS
10
118.56
20
-75.3504
11
118.56
21
-75.3483
0
LINE
8
BLACK
6
CONTINUOUS
10
118.56
20
-75.3483
11
118.559
21
-75.3432
0
LINE
8
BLACK
6
CONTINUOUS
10
118.559
20
-75.3432
11
118.559
21
-75.3381
0
LINE
8
BLACK
6
CONTINUOUS
10
118.559
20
-75.3381
11
118.559
21
-75.3359
0
LINE
8
BLACK
6
CONTINUOUS
10
118.559
20
-75.3359
11
118.558
21
-75.3337
0
LINE
8
BLACK
6
CONTINUOUS
10
118.558
20
-75.3337
11
118.559
21
-75.3286
0
LINE
8
BLACK
6
CONTINUOUS
10
118.559
20
-75.3286
11
118.559
21
-75.3235
0
LINE
8
BLACK
6
CONTINUOUS
10
118.559
20
-75.3235
11
118.56
21
-75.3213
0
LINE
8
BLACK
6
CONTINUOUS
10
118.56
20
-75.3213
11
118.56
21
-75.3191
0
LINE
8
BLACK
6
CONTINUOUS
10
118.56
20
-75.3191
11
118.59
21
-75.1716
0
LINE
8
BLACK
6
CONTINUOUS
10
118.59
20
-75.1716
11
118.59
21
-75.1706
0
LINE
8
BLACK
6
CONTINUOUS
10
118.59
20
-75.1706
11
118.592
21
-75.1666
0
LINE
8
BLACK
6
CONTINUOUS
10
118.592
20
-75.1666
11
118.593
21
-75.1625
0
LINE
8
BLACK
6
CONTINUOUS
10
118.593
20
-75.1625
11
118.594
21
-75.1596
0
LINE
8
BLACK
6
CONTINUOUS
10
118.594
20
-75.1596
11
118.595
21
-75.1566
0
LINE
8
BLACK
6
CONTINUOUS
10
118.595
20
-75.1566
11
118.597
21
-75.153
0
LINE
8
BLACK
6
CONTINUOUS
10
118.597
20
-75.153
11
118.599
21
-75.1491
0
LINE
8
BLACK
6
CONTINUOUS
10
118.599
20
-75.1491
11
118.646
21
-75.0667
0
LINE
8
BLACK
6
CONTINUOUS
10
118.646
20
-75.0667
11
118.647
21
-75.0657
0
LINE
8
BLACK
6
CONTINUOUS
10
118.647
20
-75.0657
11
118.648
21
-75.064
0
LINE
8
BLACK
6
CONTINUOUS
10
118.648
20
-75.064
11
118.649
21
-75.062
0
LINE
8
BLACK
6
CONTINUOUS
10
118.649
20
-75.062
11
118.652
21
-75.0581
0
LINE
8
BLACK
6
CONTINUOUS
10
118.652
20
-75.0581
11
118.655
21
-75.054
0
LINE
8
BLACK
6
CONTINUOUS
10
118.655
20
-75.054
11
118.657
21
-75.0525
0
LINE
8
BLACK
6
CONTINUOUS
10
118.657
20
-75.0525
11
118.659
21
-75.0508
0
LINE
8
BLACK
6
CONTINUOUS
10
118.659
20
-75.0508
11
118.663
21
-75.0476
0
LINE
8
BLACK
6
CONTINUOUS
10
118.663
20
-75.0476
11
118.666
21
-75.0441
0
LINE
8
BLACK
6
CONTINUOUS
10
118.666
20
-75.0441
11
118.668
21
-75.043
0
LINE
8
BLACK
6
CONTINUOUS
10
118.668
20
-75.043
11
118.67
21
-75.0416
0
LINE
8
BLACK
6
CONTINUOUS
10
118.67
20
-75.0416
11
118.759
21
-74.9829
0
LINE
8
BLACK
6
CONTINUOUS
10
118.759
20
-74.9829
11
118.76
21
-74.9823
0
LINE
8
BLACK
6
CONTINUOUS
10
118.76
20
-74.9823
11
118.763
21
-74.9804
0
LINE
8
BLACK
6
CONTINUOUS
10
118.763
20
-74.9804
11
118.767
21
-74.9782
0
LINE
8
BLACK
6
CONTINUOUS
10
118.767
20
-74.9782
11
118.77
21
-74.9771
0
LINE
8
BLACK
6
CONTINUOUS
10
118.77
20
-74.9771
11
118.773
21
-74.9757
0
LINE
8
BLACK
6
CONTINUOUS
10
118.773
20
-74.9757
11
118.777
21
-74.9745
0
LINE
8
BLACK
6
CONTINUOUS
10
118.777
20
-74.9745
11
118.781
21
-74.973
0
LINE
8
BLACK
6
CONTINUOUS
10
118.781
20
-74.973
11
118.846
21
-74.9556
0
LINE
8
BLACK
6
CONTINUOUS
10
118.846
20
-74.9556
11
118.847
21
-74.9553
0
LINE
8
BLACK
6
CONTINUOUS
10
118.847
20
-74.9553
11
118.851
21
-74.9547
0
LINE
8
BLACK
6
CONTINUOUS
10
118.851
20
-74.9547
11
118.855
21
-74.9537
0
LINE
8
BLACK
6
CONTINUOUS
10
118.855
20
-74.9537
11
118.858
21
-74.9536
0
LINE
8
BLACK
6
CONTINUOUS
10
118.858
20
-74.9536
11
118.861
21
-74.9532
0
LINE
8
BLACK
6
CONTINUOUS
10
118.861
20
-74.9532
11
118.865
21
-74.9533
0
LINE
8
BLACK
6
CONTINUOUS
10
123.293
20
-72.676
11
123.304
21
-72.6787
0
LINE
8
BLACK
6
CONTINUOUS
10
123.304
20
-72.6787
11
123.315
21
-72.6836
0
LINE
8
BLACK
6
CONTINUOUS
10
123.315
20
-72.6836
11
123.325
21
-72.6905
0
LINE
8
BLACK
6
CONTINUOUS
10
123.325
20
-72.6905
11
123.333
21
-72.6991
0
LINE
8
BLACK
6
CONTINUOUS
10
123.333
20
-72.6991
11
123.339
21
-72.7091
0
LINE
8
BLACK
6
CONTINUOUS
10
123.339
20
-72.7091
11
123.343
21
-72.7202
0
LINE
8
BLACK
6
CONTINUOUS
10
123.343
20
-72.7202
11
123.345
21
-72.7318
0
LINE
8
BLACK
6
CONTINUOUS
10
123.345
20
-72.7318
11
123.345
21
-72.7437
0
LINE
8
BLACK
6
CONTINUOUS
10
123.345
20
-72.7437
11
123.342
21
-72.7552
0
LINE
8
BLACK
6
CONTINUOUS
10
123.342
20
-72.7552
11
123.338
21
-72.7632
0
LINE
8
BLACK
6
CONTINUOUS
10
123.338
20
-72.7632
11
121.988
21
-75.1015
0
LINE
8
BLACK
6
CONTINUOUS
10
121.988
20
-75.1015
11
121.987
21
-75.1042
0
LINE
8
BLACK
6
CONTINUOUS
10
121.987
20
-75.1042
11
121.985
21
-75.1066
0
LINE
8
BLACK
6
CONTINUOUS
10
121.985
20
-75.1066
11
121.985
21
-75.1066
0
LINE
8
BLACK
6
CONTINUOUS
10
121.985
20
-75.1066
11
121.98
21
-75.1138
0
LINE
8
BLACK
6
CONTINUOUS
10
121.98
20
-75.1138
11
121.972
21
-75.1219
0
LINE
8
BLACK
6
CONTINUOUS
10
121.972
20
-75.1219
11
121.961
21
-75.1281
0
LINE
8
BLACK
6
CONTINUOUS
10
121.961
20
-75.1281
11
121.95
21
-75.1323
0
LINE
8
BLACK
6
CONTINUOUS
10
121.95
20
-75.1323
11
121.939
21
-75.1342
0
LINE
8
BLACK
6
CONTINUOUS
10
121.939
20
-75.1342
11
121.939
21
-75.1342
0
LINE
8
BLACK
6
CONTINUOUS
10
121.939
20
-75.1342
11
121.927
21
-75.1338
0
LINE
8
BLACK
6
CONTINUOUS
10
121.927
20
-75.1338
11
121.915
21
-75.1311
0
LINE
8
BLACK
6
CONTINUOUS
10
121.915
20
-75.1311
11
121.907
21
-75.1275
0
LINE
8
BLACK
6
CONTINUOUS
10
121.907
20
-75.1275
11
121.907
21
-75.1275
0
LINE
8
BLACK
6
CONTINUOUS
10
121.907
20
-75.1275
11
121.905
21
-75.1263
0
LINE
8
BLACK
6
CONTINUOUS
10
121.905
20
-75.1263
11
121.902
21
-75.1245
0
LINE
8
BLACK
6
CONTINUOUS
10
121.902
20
-75.1245
11
120.993
21
-74.5995
0
LINE
8
BLACK
6
CONTINUOUS
10
120.993
20
-74.5995
11
120.986
21
-74.5944
0
LINE
8
BLACK
6
CONTINUOUS
10
120.986
20
-74.5944
11
120.978
21
-74.5858
0
LINE
8
BLACK
6
CONTINUOUS
10
120.978
20
-74.5858
11
120.971
21
-74.5757
0
LINE
8
BLACK
6
CONTINUOUS
10
120.971
20
-74.5757
11
120.967
21
-74.5647
0
LINE
8
BLACK
6
CONTINUOUS
10
120.967
20
-74.5647
11
120.965
21
-74.553
0
LINE
8
BLACK
6
CONTINUOUS
10
120.965
20
-74.553
11
120.966
21
-74.5412
0
LINE
8
BLACK
6
CONTINUOUS
10
120.966
20
-74.5412
11
120.968
21
-74.5297
0
LINE
8
BLACK
6
CONTINUOUS
10
120.968
20
-74.5297
11
120.973
21
-74.5189
0
LINE
8
BLACK
6
CONTINUOUS
10
120.973
20
-74.5189
11
120.98
21
-74.5093
0
LINE
8
BLACK
6
CONTINUOUS
10
120.98
20
-74.5093
11
120.989
21
-74.5012
0
LINE
8
BLACK
6
CONTINUOUS
10
120.989
20
-74.5012
11
120.999
21
-74.495
0
LINE
8
BLACK
6
CONTINUOUS
10
120.999
20
-74.495
11
121.01
21
-74.4908
0
LINE
8
BLACK
6
CONTINUOUS
10
121.01
20
-74.4908
11
121.022
21
-74.4889
0
LINE
8
BLACK
6
CONTINUOUS
10
121.022
20
-74.4889
11
121.033
21
-74.4893
0
LINE
8
BLACK
6
CONTINUOUS
10
121.033
20
-74.4893
11
121.045
21
-74.492
0
LINE
8
BLACK
6
CONTINUOUS
10
121.045
20
-74.492
11
121.053
21
-74.4956
0
LINE
8
BLACK
6
CONTINUOUS
10
121.053
20
-74.4956
11
121.913
21
-74.9921
0
LINE
8
BLACK
6
CONTINUOUS
10
121.913
20
-74.9921
11
123.234
21
-72.7032
0
LINE
8
BLACK
6
CONTINUOUS
10
123.234
20
-72.7032
11
123.239
21
-72.696
0
LINE
8
BLACK
6
CONTINUOUS
10
123.239
20
-72.696
11
123.248
21
-72.688
0
LINE
8
BLACK
6
CONTINUOUS
10
123.248
20
-72.688
11
123.258
21
-72.6817
0
LINE
8
BLACK
6
CONTINUOUS
10
123.258
20
-72.6817
11
123.269
21
-72.6776
0
LINE
8
BLACK
6
CONTINUOUS
10
123.269
20
-72.6776
11
123.281
21
-72.6756
0
LINE
8
BLACK
6
CONTINUOUS
10
123.281
20
-72.6756
11
123.293
21
-72.676
0
LINE
8
BLACK
6
CONTINUOUS
10
119.638
20
-70.566
11
119.65
21
-70.5687
0
LINE
8
BLACK
6
CONTINUOUS
10
119.65
20
-70.5687
11
119.66
21
-70.5736
0
LINE
8
BLACK
6
CONTINUOUS
10
119.66
20
-70.5736
11
119.67
21
-70.5805
0
LINE
8
BLACK
6
CONTINUOUS
10
119.67
20
-70.5805
11
119.678
21
-70.5891
0
LINE
8
BLACK
6
CONTINUOUS
10
119.678
20
-70.5891
11
119.684
21
-70.5991
0
LINE
8
BLACK
6
CONTINUOUS
10
119.684
20
-70.5991
11
119.688
21
-70.6102
0
LINE
8
BLACK
6
CONTINUOUS
10
119.688
20
-70.6102
11
119.69
21
-70.6218
0
LINE
8
BLACK
6
CONTINUOUS
10
119.69
20
-70.6218
11
119.69
21
-70.6337
0
LINE
8
BLACK
6
CONTINUOUS
10
119.69
20
-70.6337
11
119.687
21
-70.6452
0
LINE
8
BLACK
6
CONTINUOUS
10
119.687
20
-70.6452
11
119.684
21
-70.6532
0
LINE
8
BLACK
6
CONTINUOUS
10
119.684
20
-70.6532
11
118.362
21
-72.9421
0
LINE
8
BLACK
6
CONTINUOUS
10
118.362
20
-72.9421
11
119.217
21
-73.4356
0
LINE
8
BLACK
6
CONTINUOUS
10
119.217
20
-73.4356
11
119.22
21
-73.4368
0
LINE
8
BLACK
6
CONTINUOUS
10
119.22
20
-73.4368
11
119.222
21
-73.4386
0
LINE
8
BLACK
6
CONTINUOUS
10
119.222
20
-73.4386
11
119.222
21
-73.4386
0
LINE
8
BLACK
6
CONTINUOUS
10
119.222
20
-73.4386
11
119.229
21
-73.4437
0
LINE
8
BLACK
6
CONTINUOUS
10
119.229
20
-73.4437
11
119.237
21
-73.4524
0
LINE
8
BLACK
6
CONTINUOUS
10
119.237
20
-73.4524
11
119.24
21
-73.4565
0
LINE
8
BLACK
6
CONTINUOUS
10
119.24
20
-73.4565
11
119.244
21
-73.4624
0
LINE
8
BLACK
6
CONTINUOUS
10
119.244
20
-73.4624
11
119.248
21
-73.4735
0
LINE
8
BLACK
6
CONTINUOUS
10
119.248
20
-73.4735
11
119.25
21
-73.4851
0
LINE
8
BLACK
6
CONTINUOUS
10
119.25
20
-73.4851
11
119.249
21
-73.4969
0
LINE
8
BLACK
6
CONTINUOUS
10
119.249
20
-73.4969
11
119.247
21
-73.5084
0
LINE
8
BLACK
6
CONTINUOUS
10
119.247
20
-73.5084
11
119.243
21
-73.5165
0
LINE
8
BLACK
6
CONTINUOUS
10
119.243
20
-73.5165
11
119.243
21
-73.5165
0
LINE
8
BLACK
6
CONTINUOUS
10
119.243
20
-73.5165
11
119.242
21
-73.5192
0
LINE
8
BLACK
6
CONTINUOUS
10
119.242
20
-73.5192
11
119.24
21
-73.5216
0
LINE
8
BLACK
6
CONTINUOUS
10
119.24
20
-73.5216
11
118.845
21
-74.2058
0
LINE
8
BLACK
6
CONTINUOUS
10
118.845
20
-74.2058
11
118.84
21
-74.213
0
LINE
8
BLACK
6
CONTINUOUS
10
118.84
20
-74.213
11
118.831
21
-74.2211
0
LINE
8
BLACK
6
CONTINUOUS
10
118.831
20
-74.2211
11
118.821
21
-74.2273
0
LINE
8
BLACK
6
CONTINUOUS
10
118.821
20
-74.2273
11
118.81
21
-74.2315
0
LINE
8
BLACK
6
CONTINUOUS
10
118.81
20
-74.2315
11
118.798
21
-74.2334
0
LINE
8
BLACK
6
CONTINUOUS
10
118.798
20
-74.2334
11
118.787
21
-74.233
0
LINE
8
BLACK
6
CONTINUOUS
10
118.787
20
-74.233
11
118.775
21
-74.2303
0
LINE
8
BLACK
6
CONTINUOUS
10
118.775
20
-74.2303
11
118.764
21
-74.2254
0
LINE
8
BLACK
6
CONTINUOUS
10
118.764
20
-74.2254
11
118.755
21
-74.2185
0
LINE
8
BLACK
6
CONTINUOUS
10
118.755
20
-74.2185
11
118.747
21
-74.2099
0
LINE
8
BLACK
6
CONTINUOUS
10
118.747
20
-74.2099
11
118.74
21
-74.1999
0
LINE
8
BLACK
6
CONTINUOUS
10
118.74
20
-74.1999
11
118.736
21
-74.1888
0
LINE
8
BLACK
6
CONTINUOUS
10
118.736
20
-74.1888
11
118.734
21
-74.1772
0
LINE
8
BLACK
6
CONTINUOUS
10
118.734
20
-74.1772
11
118.735
21
-74.1654
0
LINE
8
BLACK
6
CONTINUOUS
10
118.735
20
-74.1654
11
118.737
21
-74.1538
0
LINE
8
BLACK
6
CONTINUOUS
10
118.737
20
-74.1538
11
118.741
21
-74.1458
0
LINE
8
BLACK
6
CONTINUOUS
10
118.741
20
-74.1458
11
119.108
21
-73.511
0
LINE
8
BLACK
6
CONTINUOUS
10
119.108
20
-73.511
11
118.253
21
-73.0175
0
LINE
8
BLACK
6
CONTINUOUS
10
118.253
20
-73.0175
11
118.25
21
-73.0163
0
LINE
8
BLACK
6
CONTINUOUS
10
118.25
20
-73.0163
11
118.24
21
-73.0094
0
LINE
8
BLACK
6
CONTINUOUS
10
118.24
20
-73.0094
11
118.232
21
-73.0008
0
LINE
8
BLACK
6
CONTINUOUS
10
118.232
20
-73.0008
11
118.226
21
-72.9907
0
LINE
8
BLACK
6
CONTINUOUS
10
118.226
20
-72.9907
11
118.222
21
-72.9797
0
LINE
8
BLACK
6
CONTINUOUS
10
118.222
20
-72.9797
11
118.22
21
-72.968
0
LINE
8
BLACK
6
CONTINUOUS
10
118.22
20
-72.968
11
118.22
21
-72.9562
0
LINE
8
BLACK
6
CONTINUOUS
10
118.22
20
-72.9562
11
118.223
21
-72.9447
0
LINE
8
BLACK
6
CONTINUOUS
10
118.223
20
-72.9447
11
118.227
21
-72.9366
0
LINE
8
BLACK
6
CONTINUOUS
10
118.227
20
-72.9366
11
118.227
21
-72.9366
0
LINE
8
BLACK
6
CONTINUOUS
10
118.227
20
-72.9366
11
118.228
21
-72.9339
0
LINE
8
BLACK
6
CONTINUOUS
10
118.228
20
-72.9339
11
118.23
21
-72.9315
0
LINE
8
BLACK
6
CONTINUOUS
10
118.23
20
-72.9315
11
119.58
21
-70.5932
0
LINE
8
BLACK
6
CONTINUOUS
10
119.58
20
-70.5932
11
119.585
21
-70.586
0
LINE
8
BLACK
6
CONTINUOUS
10
119.585
20
-70.586
11
119.593
21
-70.578
0
LINE
8
BLACK
6
CONTINUOUS
10
119.593
20
-70.578
11
119.604
21
-70.5717
0
LINE
8
BLACK
6
CONTINUOUS
10
119.604
20
-70.5717
11
119.615
21
-70.5676
0
LINE
8
BLACK
6
CONTINUOUS
10
119.615
20
-70.5676
11
119.626
21
-70.5656
0
LINE
8
BLACK
6
CONTINUOUS
10
119.626
20
-70.5656
11
119.638
21
-70.566
0
LINE
8
BLACK
6
CONTINUOUS
10
121.073
20
-68.0805
11
121.085
21
-68.0832
0
LINE
8
BLACK
6
CONTINUOUS
10
121.085
20
-68.0832
11
121.093
21
-68.0869
0
LINE
8
BLACK
6
CONTINUOUS
10
121.093
20
-68.0869
11
121.093
21
-68.0869
0
LINE
8
BLACK
6
CONTINUOUS
10
121.093
20
-68.0869
11
121.095
21
-68.0881
0
LINE
8
BLACK
6
CONTINUOUS
10
121.095
20
-68.0881
11
121.098
21
-68.0898
0
LINE
8
BLACK
6
CONTINUOUS
10
121.098
20
-68.0898
11
124.747
21
-70.1969
0
LINE
8
BLACK
6
CONTINUOUS
10
124.747
20
-70.1969
11
124.75
21
-70.1981
0
LINE
8
BLACK
6
CONTINUOUS
10
124.75
20
-70.1981
11
124.752
21
-70.1998
0
LINE
8
BLACK
6
CONTINUOUS
10
124.752
20
-70.1998
11
124.752
21
-70.1998
0
LINE
8
BLACK
6
CONTINUOUS
10
124.752
20
-70.1998
11
124.76
21
-70.205
0
LINE
8
BLACK
6
CONTINUOUS
10
124.76
20
-70.205
11
124.768
21
-70.2136
0
LINE
8
BLACK
6
CONTINUOUS
10
124.768
20
-70.2136
11
124.774
21
-70.2236
0
LINE
8
BLACK
6
CONTINUOUS
10
124.774
20
-70.2236
11
124.778
21
-70.2347
0
LINE
8
BLACK
6
CONTINUOUS
10
124.778
20
-70.2347
11
124.78
21
-70.2464
0
LINE
8
BLACK
6
CONTINUOUS
10
124.78
20
-70.2464
11
124.78
21
-70.2582
0
LINE
8
BLACK
6
CONTINUOUS
10
124.78
20
-70.2582
11
124.777
21
-70.2697
0
LINE
8
BLACK
6
CONTINUOUS
10
124.777
20
-70.2697
11
124.772
21
-70.2804
0
LINE
8
BLACK
6
CONTINUOUS
10
124.772
20
-70.2804
11
124.77
21
-70.2828
0
LINE
8
BLACK
6
CONTINUOUS
10
124.77
20
-70.2828
11
124.495
21
-70.7592
0
LINE
8
BLACK
6
CONTINUOUS
10
124.495
20
-70.7592
11
124.49
21
-70.7664
0
LINE
8
BLACK
6
CONTINUOUS
10
124.49
20
-70.7664
11
124.482
21
-70.7744
0
LINE
8
BLACK
6
CONTINUOUS
10
124.482
20
-70.7744
11
124.471
21
-70.7807
0
LINE
8
BLACK
6
CONTINUOUS
10
124.471
20
-70.7807
11
124.46
21
-70.7848
0
LINE
8
BLACK
6
CONTINUOUS
10
124.46
20
-70.7848
11
124.449
21
-70.7868
0
LINE
8
BLACK
6
CONTINUOUS
10
124.449
20
-70.7868
11
124.437
21
-70.7864
0
LINE
8
BLACK
6
CONTINUOUS
10
124.437
20
-70.7864
11
124.425
21
-70.7837
0
LINE
8
BLACK
6
CONTINUOUS
10
124.425
20
-70.7837
11
124.415
21
-70.7788
0
LINE
8
BLACK
6
CONTINUOUS
10
124.415
20
-70.7788
11
124.405
21
-70.7719
0
LINE
8
BLACK
6
CONTINUOUS
10
124.405
20
-70.7719
11
124.397
21
-70.7633
0
LINE
8
BLACK
6
CONTINUOUS
10
124.397
20
-70.7633
11
124.391
21
-70.7533
0
LINE
8
BLACK
6
CONTINUOUS
10
124.391
20
-70.7533
11
124.387
21
-70.7422
0
LINE
8
BLACK
6
CONTINUOUS
10
124.387
20
-70.7422
11
124.385
21
-70.7306
0
LINE
8
BLACK
6
CONTINUOUS
10
124.385
20
-70.7306
11
124.385
21
-70.7187
0
LINE
8
BLACK
6
CONTINUOUS
10
124.385
20
-70.7187
11
124.388
21
-70.7072
0
LINE
8
BLACK
6
CONTINUOUS
10
124.388
20
-70.7072
11
124.391
21
-70.6992
0
LINE
8
BLACK
6
CONTINUOUS
10
124.391
20
-70.6992
11
124.638
21
-70.2723
0
LINE
8
BLACK
6
CONTINUOUS
10
124.638
20
-70.2723
11
121.087
21
-68.2223
0
LINE
8
BLACK
6
CONTINUOUS
10
121.087
20
-68.2223
11
120.841
21
-68.6492
0
LINE
8
BLACK
6
CONTINUOUS
10
120.841
20
-68.6492
11
120.836
21
-68.6564
0
LINE
8
BLACK
6
CONTINUOUS
10
120.836
20
-68.6564
11
120.827
21
-68.6644
0
LINE
8
BLACK
6
CONTINUOUS
10
120.827
20
-68.6644
11
120.817
21
-68.6707
0
LINE
8
BLACK
6
CONTINUOUS
10
120.817
20
-68.6707
11
120.806
21
-68.6748
0
LINE
8
BLACK
6
CONTINUOUS
10
120.806
20
-68.6748
11
120.794
21
-68.6768
0
LINE
8
BLACK
6
CONTINUOUS
10
120.794
20
-68.6768
11
120.782
21
-68.6764
0
LINE
8
BLACK
6
CONTINUOUS
10
120.782
20
-68.6764
11
120.771
21
-68.6737
0
LINE
8
BLACK
6
CONTINUOUS
10
120.771
20
-68.6737
11
120.76
21
-68.6688
0
LINE
8
BLACK
6
CONTINUOUS
10
120.76
20
-68.6688
11
120.75
21
-68.6619
0
LINE
8
BLACK
6
CONTINUOUS
10
120.75
20
-68.6619
11
120.742
21
-68.6533
0
LINE
8
BLACK
6
CONTINUOUS
10
120.742
20
-68.6533
11
120.736
21
-68.6433
0
LINE
8
BLACK
6
CONTINUOUS
10
120.736
20
-68.6433
11
120.732
21
-68.6322
0
LINE
8
BLACK
6
CONTINUOUS
10
120.732
20
-68.6322
11
120.73
21
-68.6206
0
LINE
8
BLACK
6
CONTINUOUS
10
120.73
20
-68.6206
11
120.73
21
-68.6087
0
LINE
8
BLACK
6
CONTINUOUS
10
120.73
20
-68.6087
11
120.733
21
-68.5972
0
LINE
8
BLACK
6
CONTINUOUS
10
120.733
20
-68.5972
11
120.737
21
-68.5892
0
LINE
8
BLACK
6
CONTINUOUS
10
120.737
20
-68.5892
11
121.012
21
-68.1128
0
LINE
8
BLACK
6
CONTINUOUS
10
121.012
20
-68.1128
11
121.013
21
-68.1102
0
LINE
8
BLACK
6
CONTINUOUS
10
121.013
20
-68.1102
11
121.015
21
-68.1078
0
LINE
8
BLACK
6
CONTINUOUS
10
121.015
20
-68.1078
11
121.015
21
-68.1077
0
LINE
8
BLACK
6
CONTINUOUS
10
121.015
20
-68.1077
11
121.02
21
-68.1005
0
LINE
8
BLACK
6
CONTINUOUS
10
121.02
20
-68.1005
11
121.028
21
-68.0925
0
LINE
8
BLACK
6
CONTINUOUS
10
121.028
20
-68.0925
11
121.037
21
-68.0869
0
LINE
8
BLACK
6
CONTINUOUS
10
121.037
20
-68.0869
11
121.039
21
-68.0862
0
LINE
8
BLACK
6
CONTINUOUS
10
121.039
20
-68.0862
11
121.045
21
-68.0836
0
LINE
8
BLACK
6
CONTINUOUS
10
121.045
20
-68.0836
11
121.05
21
-68.0821
0
LINE
8
BLACK
6
CONTINUOUS
10
121.05
20
-68.0821
11
121.061
21
-68.0801
0
LINE
8
BLACK
6
CONTINUOUS
10
121.061
20
-68.0801
11
121.061
21
-68.0801
0
LINE
8
BLACK
6
CONTINUOUS
10
121.061
20
-68.0801
11
121.073
21
-68.0805
0
LINE
8
BLACK
6
CONTINUOUS
10
119.072
20
-67.8774
11
119.072
21
-67.8774
0
LINE
8
BLACK
6
CONTINUOUS
10
119.072
20
-67.8774
11
119.072
21
-67.8774
0
LINE
8
BLACK
6
CONTINUOUS
10
119.072
20
-67.8774
11
119.072
21
-67.8774
0
LINE
8
BLACK
6
CONTINUOUS
10
119.072
20
-67.8774
11
119.08
21
-67.8782
0
LINE
8
BLACK
6
CONTINUOUS
10
119.08
20
-67.8782
11
119.087
21
-67.8789
0
LINE
8
BLACK
6
CONTINUOUS
10
119.087
20
-67.8789
11
119.087
21
-67.879
0
LINE
8
BLACK
6
CONTINUOUS
10
119.087
20
-67.879
11
119.087
21
-67.879
0
LINE
8
BLACK
6
CONTINUOUS
10
119.087
20
-67.879
11
119.094
21
-67.8811
0
LINE
8
BLACK
6
CONTINUOUS
10
119.094
20
-67.8811
11
119.1
21
-67.8832
0
LINE
8
BLACK
6
CONTINUOUS
10
119.1
20
-67.8832
11
119.101
21
-67.8834
0
LINE
8
BLACK
6
CONTINUOUS
10
119.101
20
-67.8834
11
119.101
21
-67.8834
0
LINE
8
BLACK
6
CONTINUOUS
10
119.101
20
-67.8834
11
119.107
21
-67.8869
0
LINE
8
BLACK
6
CONTINUOUS
10
119.107
20
-67.8869
11
119.113
21
-67.8902
0
LINE
8
BLACK
6
CONTINUOUS
10
119.113
20
-67.8902
11
119.114
21
-67.8904
0
LINE
8
BLACK
6
CONTINUOUS
10
119.114
20
-67.8904
11
119.114
21
-67.8905
0
LINE
8
BLACK
6
CONTINUOUS
10
119.114
20
-67.8905
11
119.119
21
-67.895
0
LINE
8
BLACK
6
CONTINUOUS
10
119.119
20
-67.895
11
119.125
21
-67.8995
0
LINE
8
BLACK
6
CONTINUOUS
10
119.125
20
-67.8995
11
119.125
21
-67.8997
0
LINE
8
BLACK
6
CONTINUOUS
10
119.125
20
-67.8997
11
119.125
21
-67.8999
0
LINE
8
BLACK
6
CONTINUOUS
10
119.125
20
-67.8999
11
119.129
21
-67.9054
0
LINE
8
BLACK
6
CONTINUOUS
10
119.129
20
-67.9054
11
119.134
21
-67.9109
0
LINE
8
BLACK
6
CONTINUOUS
10
119.134
20
-67.9109
11
119.134
21
-67.9111
0
LINE
8
BLACK
6
CONTINUOUS
10
119.134
20
-67.9111
11
119.134
21
-67.9113
0
LINE
8
BLACK
6
CONTINUOUS
10
119.134
20
-67.9113
11
119.137
21
-67.9176
0
LINE
8
BLACK
6
CONTINUOUS
10
119.137
20
-67.9176
11
119.141
21
-67.9238
0
LINE
8
BLACK
6
CONTINUOUS
10
119.141
20
-67.9238
11
119.141
21
-67.9241
0
LINE
8
BLACK
6
CONTINUOUS
10
119.141
20
-67.9241
11
119.141
21
-67.9243
0
LINE
8
BLACK
6
CONTINUOUS
10
119.141
20
-67.9243
11
119.143
21
-67.9311
0
LINE
8
BLACK
6
CONTINUOUS
10
119.143
20
-67.9311
11
119.145
21
-67.9378
0
LINE
8
BLACK
6
CONTINUOUS
10
119.145
20
-67.9378
11
119.145
21
-67.9381
0
LINE
8
BLACK
6
CONTINUOUS
10
119.145
20
-67.9381
11
119.145
21
-67.9383
0
LINE
8
BLACK
6
CONTINUOUS
10
119.145
20
-67.9383
11
119.146
21
-67.9453
0
LINE
8
BLACK
6
CONTINUOUS
10
119.146
20
-67.9453
11
119.146
21
-67.9524
0
LINE
8
BLACK
6
CONTINUOUS
10
119.146
20
-67.9524
11
119.146
21
-68.9524
0
LINE
8
BLACK
6
CONTINUOUS
10
119.146
20
-68.9524
11
119.146
21
-68.9529
0
LINE
8
BLACK
6
CONTINUOUS
10
119.146
20
-68.9529
11
119.146
21
-68.9529
0
LINE
8
BLACK
6
CONTINUOUS
10
119.146
20
-68.9529
11
119.146
21
-68.9529
0
LINE
8
BLACK
6
CONTINUOUS
10
119.146
20
-68.9529
11
119.146
21
-68.9534
0
LINE
8
BLACK
6
CONTINUOUS
10
119.146
20
-68.9534
11
119.146
21
-68.9605
0
LINE
8
BLACK
6
CONTINUOUS
10
119.146
20
-68.9605
11
119.145
21
-68.9675
0
LINE
8
BLACK
6
CONTINUOUS
10
119.145
20
-68.9675
11
119.145
21
-68.9677
0
LINE
8
BLACK
6
CONTINUOUS
10
119.145
20
-68.9677
11
119.145
21
-68.968
0
LINE
8
BLACK
6
CONTINUOUS
10
119.145
20
-68.968
11
119.143
21
-68.9747
0
LINE
8
BLACK
6
CONTINUOUS
10
119.143
20
-68.9747
11
119.141
21
-68.9814
0
LINE
8
BLACK
6
CONTINUOUS
10
119.141
20
-68.9814
11
119.14
21
-68.9817
0
LINE
8
BLACK
6
CONTINUOUS
10
119.14
20
-68.9817
11
119.14
21
-68.9819
0
LINE
8
BLACK
6
CONTINUOUS
10
119.14
20
-68.9819
11
119.137
21
-68.9881
0
LINE
8
BLACK
6
CONTINUOUS
10
119.137
20
-68.9881
11
119.134
21
-68.9943
0
LINE
8
BLACK
6
CONTINUOUS
10
119.134
20
-68.9943
11
119.133
21
-68.9945
0
LINE
8
BLACK
6
CONTINUOUS
10
119.133
20
-68.9945
11
119.133
21
-68.9948
0
LINE
8
BLACK
6
CONTINUOUS
10
119.133
20
-68.9948
11
119.129
21
-69.0002
0
LINE
8
BLACK
6
CONTINUOUS
10
119.129
20
-69.0002
11
119.124
21
-69.0056
0
LINE
8
BLACK
6
CONTINUOUS
10
119.124
20
-69.0056
11
119.124
21
-69.0058
0
LINE
8
BLACK
6
CONTINUOUS
10
119.124
20
-69.0058
11
119.124
21
-69.006
0
LINE
8
BLACK
6
CONTINUOUS
10
119.124
20
-69.006
11
119.118
21
-69.0104
0
LINE
8
BLACK
6
CONTINUOUS
10
119.118
20
-69.0104
11
119.113
21
-69.0148
0
LINE
8
BLACK
6
CONTINUOUS
10
119.113
20
-69.0148
11
119.113
21
-69.015
0
LINE
8
BLACK
6
CONTINUOUS
10
119.113
20
-69.015
11
119.112
21
-69.0151
0
LINE
8
BLACK
6
CONTINUOUS
10
119.112
20
-69.0151
11
119.106
21
-69.0184
0
LINE
8
BLACK
6
CONTINUOUS
10
119.106
20
-69.0184
11
119.1
21
-69.0217
0
LINE
8
BLACK
6
CONTINUOUS
10
119.1
20
-69.0217
11
119.1
21
-69.0218
0
LINE
8
BLACK
6
CONTINUOUS
10
119.1
20
-69.0218
11
119.1
21
-69.0219
0
LINE
8
BLACK
6
CONTINUOUS
10
119.1
20
-69.0219
11
119.093
21
-69.0239
0
LINE
8
BLACK
6
CONTINUOUS
10
119.093
20
-69.0239
11
119.086
21
-69.026
0
LINE
8
BLACK
6
CONTINUOUS
10
119.086
20
-69.026
11
119.086
21
-69.026
0
LINE
8
BLACK
6
CONTINUOUS
10
119.086
20
-69.026
11
119.085
21
-69.0261
0
LINE
8
BLACK
6
CONTINUOUS
10
119.085
20
-69.0261
11
119.078
21
-69.0267
0
LINE
8
BLACK
6
CONTINUOUS
10
119.078
20
-69.0267
11
119.071
21
-69.0274
0
LINE
8
BLACK
6
CONTINUOUS
10
119.071
20
-69.0274
11
118.69
21
-69.0274
0
LINE
8
BLACK
6
CONTINUOUS
10
118.69
20
-69.0274
11
118.689
21
-69.0274
0
LINE
8
BLACK
6
CONTINUOUS
10
118.689
20
-69.0274
11
118.687
21
-69.0271
0
LINE
8
BLACK
6
CONTINUOUS
10
118.687
20
-69.0271
11
118.685
21
-69.0272
0
LINE
8
BLACK
6
CONTINUOUS
10
118.685
20
-69.0272
11
118.68
21
-69.0263
0
LINE
8
BLACK
6
CONTINUOUS
10
118.68
20
-69.0263
11
118.675
21
-69.0257
0
LINE
8
BLACK
6
CONTINUOUS
10
118.675
20
-69.0257
11
118.673
21
-69.0251
0
LINE
8
BLACK
6
CONTINUOUS
10
118.673
20
-69.0251
11
118.671
21
-69.0247
0
LINE
8
BLACK
6
CONTINUOUS
10
118.671
20
-69.0247
11
118.666
21
-69.0229
0
LINE
8
BLACK
6
CONTINUOUS
10
118.666
20
-69.0229
11
118.661
21
-69.0213
0
LINE
8
BLACK
6
CONTINUOUS
10
118.661
20
-69.0213
11
118.659
21
-69.0203
0
LINE
8
BLACK
6
CONTINUOUS
10
118.659
20
-69.0203
11
118.657
21
-69.0195
0
LINE
8
BLACK
6
CONTINUOUS
10
118.657
20
-69.0195
11
118.562
21
-68.9718
0
LINE
8
BLACK
6
CONTINUOUS
10
118.562
20
-68.9718
11
118.561
21
-68.9714
0
LINE
8
BLACK
6
CONTINUOUS
10
118.561
20
-68.9714
11
118.557
21
-68.9691
0
LINE
8
BLACK
6
CONTINUOUS
10
118.557
20
-68.9691
11
118.554
21
-68.9671
0
LINE
8
BLACK
6
CONTINUOUS
10
118.554
20
-68.9671
11
118.551
21
-68.9651
0
LINE
8
BLACK
6
CONTINUOUS
10
118.551
20
-68.9651
11
118.548
21
-68.9634
0
LINE
8
BLACK
6
CONTINUOUS
10
118.548
20
-68.9634
11
118.545
21
-68.9605
0
LINE
8
BLACK
6
CONTINUOUS
10
118.545
20
-68.9605
11
118.542
21
-68.9578
0
LINE
8
BLACK
6
CONTINUOUS
10
118.542
20
-68.9578
11
118.495
21
-68.9102
0
LINE
8
BLACK
6
CONTINUOUS
10
118.495
20
-68.9102
11
118.494
21
-68.9094
0
LINE
8
BLACK
6
CONTINUOUS
10
118.494
20
-68.9094
11
118.491
21
-68.9061
0
LINE
8
BLACK
6
CONTINUOUS
10
118.491
20
-68.9061
11
118.488
21
-68.9031
0
LINE
8
BLACK
6
CONTINUOUS
10
118.488
20
-68.9031
11
118.487
21
-68.9004
0
LINE
8
BLACK
6
CONTINUOUS
10
118.487
20
-68.9004
11
118.485
21
-68.898
0
LINE
8
BLACK
6
CONTINUOUS
10
118.485
20
-68.898
11
118.483
21
-68.8943
0
LINE
8
BLACK
6
CONTINUOUS
10
118.483
20
-68.8943
11
118.481
21
-68.8907
0
LINE
8
BLACK
6
CONTINUOUS
10
118.481
20
-68.8907
11
118.433
21
-68.7954
0
LINE
8
BLACK
6
CONTINUOUS
10
118.433
20
-68.7954
11
118.432
21
-68.7945
0
LINE
8
BLACK
6
CONTINUOUS
10
118.432
20
-68.7945
11
118.432
21
-68.7924
0
LINE
8
BLACK
6
CONTINUOUS
10
118.432
20
-68.7924
11
118.431
21
-68.7905
0
LINE
8
BLACK
6
CONTINUOUS
10
118.431
20
-68.7905
11
118.429
21
-68.7856
0
LINE
8
BLACK
6
CONTINUOUS
10
118.429
20
-68.7856
11
118.427
21
-68.7808
0
LINE
8
BLACK
6
CONTINUOUS
10
118.427
20
-68.7808
11
118.427
21
-68.7786
0
LINE
8
BLACK
6
CONTINUOUS
10
118.427
20
-68.7786
11
118.426
21
-68.7765
0
LINE
8
BLACK
6
CONTINUOUS
10
118.426
20
-68.7765
11
118.426
21
-68.7714
0
LINE
8
BLACK
6
CONTINUOUS
10
118.426
20
-68.7714
11
118.425
21
-68.7663
0
LINE
8
BLACK
6
CONTINUOUS
10
118.425
20
-68.7663
11
118.425
21
-68.7641
0
LINE
8
BLACK
6
CONTINUOUS
10
118.425
20
-68.7641
11
118.425
21
-68.7619
0
LINE
8
BLACK
6
CONTINUOUS
10
118.425
20
-68.7619
11
118.425
21
-68.619
0
LINE
8
BLACK
6
CONTINUOUS
10
118.425
20
-68.619
11
118.425
21
-68.618
0
LINE
8
BLACK
6
CONTINUOUS
10
118.425
20
-68.618
11
118.425
21
-68.6158
0
LINE
8
BLACK
6
CONTINUOUS
10
118.425
20
-68.6158
11
118.425
21
-68.6136
0
LINE
8
BLACK
6
CONTINUOUS
10
118.425
20
-68.6136
11
118.426
21
-68.6085
0
LINE
8
BLACK
6
CONTINUOUS
10
118.426
20
-68.6085
11
118.427
21
-68.6035
0
LINE
8
BLACK
6
CONTINUOUS
10
118.427
20
-68.6035
11
118.427
21
-68.6014
0
LINE
8
BLACK
6
CONTINUOUS
10
118.427
20
-68.6014
11
118.428
21
-68.5992
0
LINE
8
BLACK
6
CONTINUOUS
10
118.428
20
-68.5992
11
118.43
21
-68.5944
0
LINE
8
BLACK
6
CONTINUOUS
10
118.43
20
-68.5944
11
118.431
21
-68.5895
0
LINE
8
BLACK
6
CONTINUOUS
10
118.431
20
-68.5895
11
118.432
21
-68.5876
0
LINE
8
BLACK
6
CONTINUOUS
10
118.432
20
-68.5876
11
118.433
21
-68.5855
0
LINE
8
BLACK
6
CONTINUOUS
10
118.433
20
-68.5855
11
118.481
21
-68.4903
0
LINE
8
BLACK
6
CONTINUOUS
10
118.481
20
-68.4903
11
118.481
21
-68.4893
0
LINE
8
BLACK
6
CONTINUOUS
10
118.481
20
-68.4893
11
118.483
21
-68.4858
0
LINE
8
BLACK
6
CONTINUOUS
10
118.483
20
-68.4858
11
118.485
21
-68.4821
0
LINE
8
BLACK
6
CONTINUOUS
10
118.485
20
-68.4821
11
118.487
21
-68.4797
0
LINE
8
BLACK
6
CONTINUOUS
10
118.487
20
-68.4797
11
118.489
21
-68.4771
0
LINE
8
BLACK
6
CONTINUOUS
10
118.489
20
-68.4771
11
118.492
21
-68.474
0
LINE
8
BLACK
6
CONTINUOUS
10
118.492
20
-68.474
11
118.495
21
-68.4708
0
LINE
8
BLACK
6
CONTINUOUS
10
118.495
20
-68.4708
11
118.542
21
-68.4232
0
LINE
8
BLACK
6
CONTINUOUS
10
118.542
20
-68.4232
11
118.543
21
-68.4224
0
LINE
8
BLACK
6
CONTINUOUS
10
118.543
20
-68.4224
11
118.545
21
-68.421
0
LINE
8
BLACK
6
CONTINUOUS
10
118.545
20
-68.421
11
118.546
21
-68.4194
0
LINE
8
BLACK
6
CONTINUOUS
10
118.546
20
-68.4194
11
118.55
21
-68.4165
0
LINE
8
BLACK
6
CONTINUOUS
10
118.55
20
-68.4165
11
118.554
21
-68.4133
0
LINE
8
BLACK
6
CONTINUOUS
10
118.554
20
-68.4133
11
118.556
21
-68.4123
0
LINE
8
BLACK
6
CONTINUOUS
10
118.556
20
-68.4123
11
118.558
21
-68.411
0
LINE
8
BLACK
6
CONTINUOUS
10
118.558
20
-68.411
11
118.563
21
-68.4089
0
LINE
8
BLACK
6
CONTINUOUS
10
118.563
20
-68.4089
11
118.564
21
-68.4083
0
LINE
8
BLACK
6
CONTINUOUS
10
118.564
20
-68.4083
11
118.542
21
-68.3864
0
LINE
8
BLACK
6
CONTINUOUS
10
118.542
20
-68.3864
11
118.541
21
-68.3856
0
LINE
8
BLACK
6
CONTINUOUS
10
118.541
20
-68.3856
11
118.539
21
-68.3823
0
LINE
8
BLACK
6
CONTINUOUS
10
118.539
20
-68.3823
11
118.536
21
-68.3793
0
LINE
8
BLACK
6
CONTINUOUS
10
118.536
20
-68.3793
11
118.534
21
-68.3766
0
LINE
8
BLACK
6
CONTINUOUS
10
118.534
20
-68.3766
11
118.532
21
-68.3742
0
LINE
8
BLACK
6
CONTINUOUS
10
118.532
20
-68.3742
11
118.53
21
-68.3704
0
LINE
8
BLACK
6
CONTINUOUS
10
118.53
20
-68.3704
11
118.528
21
-68.3669
0
LINE
8
BLACK
6
CONTINUOUS
10
118.528
20
-68.3669
11
118.481
21
-68.2716
0
LINE
8
BLACK
6
CONTINUOUS
10
118.481
20
-68.2716
11
118.48
21
-68.2707
0
LINE
8
BLACK
6
CONTINUOUS
10
118.48
20
-68.2707
11
118.479
21
-68.2686
0
LINE
8
BLACK
6
CONTINUOUS
10
118.479
20
-68.2686
11
118.478
21
-68.2667
0
LINE
8
BLACK
6
CONTINUOUS
10
118.478
20
-68.2667
11
118.477
21
-68.2618
0
LINE
8
BLACK
6
CONTINUOUS
10
118.477
20
-68.2618
11
118.475
21
-68.257
0
LINE
8
BLACK
6
CONTINUOUS
10
118.475
20
-68.257
11
118.475
21
-68.2548
0
LINE
8
BLACK
6
CONTINUOUS
10
118.475
20
-68.2548
11
118.474
21
-68.2527
0
LINE
8
BLACK
6
CONTINUOUS
10
118.474
20
-68.2527
11
118.474
21
-68.2476
0
LINE
8
BLACK
6
CONTINUOUS
10
118.474
20
-68.2476
11
118.473
21
-68.2425
0
LINE
8
BLACK
6
CONTINUOUS
10
118.473
20
-68.2425
11
118.473
21
-68.2403
0
LINE
8
BLACK
6
CONTINUOUS
10
118.473
20
-68.2403
11
118.473
21
-68.2381
0
LINE
8
BLACK
6
CONTINUOUS
10
118.473
20
-68.2381
11
118.473
21
-68.1429
0
LINE
8
BLACK
6
CONTINUOUS
10
118.473
20
-68.1429
11
118.473
21
-68.1418
0
LINE
8
BLACK
6
CONTINUOUS
10
118.473
20
-68.1418
11
118.473
21
-68.1396
0
LINE
8
BLACK
6
CONTINUOUS
10
118.473
20
-68.1396
11
118.473
21
-68.1374
0
LINE
8
BLACK
6
CONTINUOUS
10
118.473
20
-68.1374
11
118.474
21
-68.1324
0
LINE
8
BLACK
6
CONTINUOUS
10
118.474
20
-68.1324
11
118.474
21
-68.1273
0
LINE
8
BLACK
6
CONTINUOUS
10
118.474
20
-68.1273
11
118.475
21
-68.1252
0
LINE
8
BLACK
6
CONTINUOUS
10
118.475
20
-68.1252
11
118.475
21
-68.123
0
LINE
8
BLACK
6
CONTINUOUS
10
118.475
20
-68.123
11
118.477
21
-68.1182
0
LINE
8
BLACK
6
CONTINUOUS
10
118.477
20
-68.1182
11
118.479
21
-68.1133
0
LINE
8
BLACK
6
CONTINUOUS
10
118.479
20
-68.1133
11
118.48
21
-68.1114
0
LINE
8
BLACK
6
CONTINUOUS
10
118.48
20
-68.1114
11
118.481
21
-68.1093
0
LINE
8
BLACK
6
CONTINUOUS
10
118.481
20
-68.1093
11
118.528
21
-68.0141
0
LINE
8
BLACK
6
CONTINUOUS
10
118.528
20
-68.0141
11
118.529
21
-68.0131
0
LINE
8
BLACK
6
CONTINUOUS
10
118.529
20
-68.0131
11
118.531
21
-68.0096
0
LINE
8
BLACK
6
CONTINUOUS
10
118.531
20
-68.0096
11
118.533
21
-68.0059
0
LINE
8
BLACK
6
CONTINUOUS
10
118.533
20
-68.0059
11
118.535
21
-68.0035
0
LINE
8
BLACK
6
CONTINUOUS
10
118.535
20
-68.0035
11
118.537
21
-68.0009
0
LINE
8
BLACK
6
CONTINUOUS
10
118.537
20
-68.0009
11
118.54
21
-67.9978
0
LINE
8
BLACK
6
CONTINUOUS
10
118.54
20
-67.9978
11
118.542
21
-67.9946
0
LINE
8
BLACK
6
CONTINUOUS
10
118.542
20
-67.9946
11
118.59
21
-67.947
0
LINE
8
BLACK
6
CONTINUOUS
10
118.59
20
-67.947
11
118.591
21
-67.9462
0
LINE
8
BLACK
6
CONTINUOUS
10
118.591
20
-67.9462
11
118.594
21
-67.9436
0
LINE
8
BLACK
6
CONTINUOUS
10
118.594
20
-67.9436
11
118.597
21
-67.9407
0
LINE
8
BLACK
6
CONTINUOUS
10
118.597
20
-67.9407
11
118.6
21
-67.939
0
LINE
8
BLACK
6
CONTINUOUS
10
118.6
20
-67.939
11
118.602
21
-67.9371
0
LINE
8
BLACK
6
CONTINUOUS
10
118.602
20
-67.9371
11
118.606
21
-67.9352
0
LINE
8
BLACK
6
CONTINUOUS
10
118.606
20
-67.9352
11
118.609
21
-67.9329
0
LINE
8
BLACK
6
CONTINUOUS
10
118.609
20
-67.9329
11
118.705
21
-67.8853
0
LINE
8
BLACK
6
CONTINUOUS
10
118.705
20
-67.8853
11
118.705
21
-67.8848
0
LINE
8
BLACK
6
CONTINUOUS
10
118.705
20
-67.8848
11
118.708
21
-67.8841
0
LINE
8
BLACK
6
CONTINUOUS
10
118.708
20
-67.8841
11
118.71
21
-67.883
0
LINE
8
BLACK
6
CONTINUOUS
10
118.71
20
-67.883
11
118.714
21
-67.8816
0
LINE
8
BLACK
6
CONTINUOUS
10
118.714
20
-67.8816
11
118.719
21
-67.8798
0
LINE
8
BLACK
6
CONTINUOUS
10
118.719
20
-67.8798
11
118.721
21
-67.8794
0
LINE
8
BLACK
6
CONTINUOUS
10
118.721
20
-67.8794
11
118.724
21
-67.8788
0
LINE
8
BLACK
6
CONTINUOUS
10
118.724
20
-67.8788
11
118.729
21
-67.8783
0
LINE
8
BLACK
6
CONTINUOUS
10
118.729
20
-67.8783
11
118.734
21
-67.8775
0
LINE
8
BLACK
6
CONTINUOUS
10
118.734
20
-67.8775
11
118.736
21
-67.8776
0
LINE
8
BLACK
6
CONTINUOUS
10
118.736
20
-67.8776
11
118.738
21
-67.8774
0
LINE
8
BLACK
6
CONTINUOUS
10
118.738
20
-67.8774
11
119.071
21
-67.8774
0
LINE
8
BLACK
6
CONTINUOUS
10
119.071
20
-67.8774
11
119.072
21
-67.8774
0
LINE
8
BLACK
6
CONTINUOUS
10
118.75
20
-68.5036
11
118.636
21
-68.5417
0
LINE
8
BLACK
6
CONTINUOUS
10
118.636
20
-68.5417
11
118.609
21
-68.5682
0
LINE
8
BLACK
6
CONTINUOUS
10
118.609
20
-68.5682
11
118.575
21
-68.6368
0
LINE
8
BLACK
6
CONTINUOUS
10
118.575
20
-68.6368
11
118.575
21
-68.7442
0
LINE
8
BLACK
6
CONTINUOUS
10
118.575
20
-68.7442
11
118.609
21
-68.8127
0
LINE
8
BLACK
6
CONTINUOUS
10
118.609
20
-68.8127
11
118.64
21
-68.8431
0
LINE
8
BLACK
6
CONTINUOUS
10
118.64
20
-68.8431
11
118.708
21
-68.8774
0
LINE
8
BLACK
6
CONTINUOUS
10
118.708
20
-68.8774
11
118.996
21
-68.8774
0
LINE
8
BLACK
6
CONTINUOUS
10
118.996
20
-68.8774
11
118.996
21
-68.5036
0
LINE
8
BLACK
6
CONTINUOUS
10
118.996
20
-68.5036
11
118.75
21
-68.5036
0
LINE
8
BLACK
6
CONTINUOUS
10
118.756
20
-68.0274
11
118.687
21
-68.0616
0
LINE
8
BLACK
6
CONTINUOUS
10
118.687
20
-68.0616
11
118.657
21
-68.092
0
LINE
8
BLACK
6
CONTINUOUS
10
118.657
20
-68.092
11
118.623
21
-68.1606
0
LINE
8
BLACK
6
CONTINUOUS
10
118.623
20
-68.1606
11
118.623
21
-68.2204
0
LINE
8
BLACK
6
CONTINUOUS
10
118.623
20
-68.2204
11
118.657
21
-68.2889
0
LINE
8
BLACK
6
CONTINUOUS
10
118.657
20
-68.2889
11
118.687
21
-68.3193
0
LINE
8
BLACK
6
CONTINUOUS
10
118.687
20
-68.3193
11
118.756
21
-68.3536
0
LINE
8
BLACK
6
CONTINUOUS
10
118.756
20
-68.3536
11
118.996
21
-68.3536
0
LINE
8
BLACK
6
CONTINUOUS
10
118.996
20
-68.3536
11
118.996
21
-68.0274
0
LINE
8
BLACK
6
CONTINUOUS
10
118.996
20
-68.0274
11
118.756
21
-68.0274
0
LINE
8
BLACK
6
CONTINUOUS
10
117.358
20
-67.8774
11
117.373
21
-67.879
0
LINE
8
BLACK
6
CONTINUOUS
10
117.373
20
-67.879
11
117.387
21
-67.8834
0
LINE
8
BLACK
6
CONTINUOUS
10
117.387
20
-67.8834
11
117.4
21
-67.8905
0
LINE
8
BLACK
6
CONTINUOUS
10
117.4
20
-67.8905
11
117.411
21
-67.8999
0
LINE
8
BLACK
6
CONTINUOUS
10
117.411
20
-67.8999
11
117.42
21
-67.9113
0
LINE
8
BLACK
6
CONTINUOUS
10
117.42
20
-67.9113
11
117.427
21
-67.9243
0
LINE
8
BLACK
6
CONTINUOUS
10
117.427
20
-67.9243
11
117.431
21
-67.9383
0
LINE
8
BLACK
6
CONTINUOUS
10
117.431
20
-67.9383
11
117.432
21
-67.9529
0
LINE
8
BLACK
6
CONTINUOUS
10
117.432
20
-67.9529
11
117.431
21
-67.9675
0
LINE
8
BLACK
6
CONTINUOUS
10
117.431
20
-67.9675
11
117.426
21
-67.9814
0
LINE
8
BLACK
6
CONTINUOUS
10
117.426
20
-67.9814
11
117.419
21
-67.9943
0
LINE
8
BLACK
6
CONTINUOUS
10
117.419
20
-67.9943
11
117.41
21
-68.0056
0
LINE
8
BLACK
6
CONTINUOUS
10
117.41
20
-68.0056
11
117.399
21
-68.0148
0
LINE
8
BLACK
6
CONTINUOUS
10
117.399
20
-68.0148
11
117.386
21
-68.0217
0
LINE
8
BLACK
6
CONTINUOUS
10
117.386
20
-68.0217
11
117.372
21
-68.026
0
LINE
8
BLACK
6
CONTINUOUS
10
117.372
20
-68.026
11
117.357
21
-68.0274
0
LINE
8
BLACK
6
CONTINUOUS
10
117.357
20
-68.0274
11
117.146
21
-68.0274
0
LINE
8
BLACK
6
CONTINUOUS
10
117.146
20
-68.0274
11
117.146
21
-68.9524
0
LINE
8
BLACK
6
CONTINUOUS
10
117.146
20
-68.9524
11
117.146
21
-68.9534
0
LINE
8
BLACK
6
CONTINUOUS
10
117.146
20
-68.9534
11
117.145
21
-68.968
0
LINE
8
BLACK
6
CONTINUOUS
10
117.145
20
-68.968
11
117.14
21
-68.9819
0
LINE
8
BLACK
6
CONTINUOUS
10
117.14
20
-68.9819
11
117.133
21
-68.9948
0
LINE
8
BLACK
6
CONTINUOUS
10
117.133
20
-68.9948
11
117.124
21
-69.006
0
LINE
8
BLACK
6
CONTINUOUS
10
117.124
20
-69.006
11
117.112
21
-69.0151
0
LINE
8
BLACK
6
CONTINUOUS
10
117.112
20
-69.0151
11
117.1
21
-69.0219
0
LINE
8
BLACK
6
CONTINUOUS
10
117.1
20
-69.0219
11
117.085
21
-69.0261
0
LINE
8
BLACK
6
CONTINUOUS
10
117.085
20
-69.0261
11
117.071
21
-69.0274
0
LINE
8
BLACK
6
CONTINUOUS
10
117.071
20
-69.0274
11
117.056
21
-69.0258
0
LINE
8
BLACK
6
CONTINUOUS
10
117.056
20
-69.0258
11
117.042
21
-69.0215
0
LINE
8
BLACK
6
CONTINUOUS
10
117.042
20
-69.0215
11
117.029
21
-69.0146
0
LINE
8
BLACK
6
CONTINUOUS
10
117.029
20
-69.0146
11
117.018
21
-69.0052
0
LINE
8
BLACK
6
CONTINUOUS
10
117.018
20
-69.0052
11
117.009
21
-68.9939
0
LINE
8
BLACK
6
CONTINUOUS
10
117.009
20
-68.9939
11
117.002
21
-68.981
0
LINE
8
BLACK
6
CONTINUOUS
10
117.002
20
-68.981
11
116.998
21
-68.9669
0
LINE
8
BLACK
6
CONTINUOUS
10
116.998
20
-68.9669
11
116.996
21
-68.9524
0
LINE
8
BLACK
6
CONTINUOUS
10
116.996
20
-68.9524
11
116.996
21
-68.0274
0
LINE
8
BLACK
6
CONTINUOUS
10
116.996
20
-68.0274
11
116.786
21
-68.0274
0
LINE
8
BLACK
6
CONTINUOUS
10
116.786
20
-68.0274
11
116.785
21
-68.0274
0
LINE
8
BLACK
6
CONTINUOUS
10
116.785
20
-68.0274
11
116.77
21
-68.0257
0
LINE
8
BLACK
6
CONTINUOUS
10
116.77
20
-68.0257
11
116.756
21
-68.0213
0
LINE
8
BLACK
6
CONTINUOUS
10
116.756
20
-68.0213
11
116.743
21
-68.0143
0
LINE
8
BLACK
6
CONTINUOUS
10
116.743
20
-68.0143
11
116.732
21
-68.0049
0
LINE
8
BLACK
6
CONTINUOUS
10
116.732
20
-68.0049
11
116.723
21
-67.9934
0
LINE
8
BLACK
6
CONTINUOUS
10
116.723
20
-67.9934
11
116.716
21
-67.9805
0
LINE
8
BLACK
6
CONTINUOUS
10
116.716
20
-67.9805
11
116.712
21
-67.9664
0
LINE
8
BLACK
6
CONTINUOUS
10
116.712
20
-67.9664
11
116.711
21
-67.9519
0
LINE
8
BLACK
6
CONTINUOUS
10
116.711
20
-67.9519
11
116.712
21
-67.9373
0
LINE
8
BLACK
6
CONTINUOUS
10
116.712
20
-67.9373
11
116.717
21
-67.9233
0
LINE
8
BLACK
6
CONTINUOUS
10
116.717
20
-67.9233
11
116.724
21
-67.9104
0
LINE
8
BLACK
6
CONTINUOUS
10
116.724
20
-67.9104
11
116.733
21
-67.8992
0
LINE
8
BLACK
6
CONTINUOUS
10
116.733
20
-67.8992
11
116.744
21
-67.8899
0
LINE
8
BLACK
6
CONTINUOUS
10
116.744
20
-67.8899
11
116.757
21
-67.883
0
LINE
8
BLACK
6
CONTINUOUS
10
116.757
20
-67.883
11
116.771
21
-67.8788
0
LINE
8
BLACK
6
CONTINUOUS
10
116.771
20
-67.8788
11
116.786
21
-67.8774
0
LINE
8
BLACK
6
CONTINUOUS
10
116.786
20
-67.8774
11
117.357
21
-67.8774
0
LINE
8
BLACK
6
CONTINUOUS
10
117.357
20
-67.8774
11
117.358
21
-67.8774
0
LINE
8
BLACK
6
CONTINUOUS
10
117.881
20
-67.8777
11
117.887
21
-67.8776
0
LINE
8
BLACK
6
CONTINUOUS
10
117.887
20
-67.8776
11
117.889
21
-67.878
0
LINE
8
BLACK
6
CONTINUOUS
10
117.889
20
-67.878
11
117.891
21
-67.878
0
LINE
8
BLACK
6
CONTINUOUS
10
117.891
20
-67.878
11
117.896
21
-67.8792
0
LINE
8
BLACK
6
CONTINUOUS
10
117.896
20
-67.8792
11
117.901
21
-67.8801
0
LINE
8
BLACK
6
CONTINUOUS
10
117.901
20
-67.8801
11
117.903
21
-67.8809
0
LINE
8
BLACK
6
CONTINUOUS
10
117.903
20
-67.8809
11
117.905
21
-67.8814
0
LINE
8
BLACK
6
CONTINUOUS
10
117.905
20
-67.8814
11
117.91
21
-67.8835
0
LINE
8
BLACK
6
CONTINUOUS
10
117.91
20
-67.8835
11
117.915
21
-67.8854
0
LINE
8
BLACK
6
CONTINUOUS
10
117.915
20
-67.8854
11
117.917
21
-67.8866
0
LINE
8
BLACK
6
CONTINUOUS
10
117.917
20
-67.8866
11
117.918
21
-67.8875
0
LINE
8
BLACK
6
CONTINUOUS
10
117.918
20
-67.8875
11
117.923
21
-67.8905
0
LINE
8
BLACK
6
CONTINUOUS
10
117.923
20
-67.8905
11
117.927
21
-67.8933
0
LINE
8
BLACK
6
CONTINUOUS
10
117.927
20
-67.8933
11
117.929
21
-67.8947
0
LINE
8
BLACK
6
CONTINUOUS
10
117.929
20
-67.8947
11
117.93
21
-67.896
0
LINE
8
BLACK
6
CONTINUOUS
10
117.93
20
-67.896
11
117.934
21
-67.8998
0
LINE
8
BLACK
6
CONTINUOUS
10
117.934
20
-67.8998
11
117.938
21
-67.9033
0
LINE
8
BLACK
6
CONTINUOUS
10
117.938
20
-67.9033
11
117.939
21
-67.9051
0
LINE
8
BLACK
6
CONTINUOUS
10
117.939
20
-67.9051
11
117.94
21
-67.9067
0
LINE
8
BLACK
6
CONTINUOUS
10
117.94
20
-67.9067
11
117.943
21
-67.911
0
LINE
8
BLACK
6
CONTINUOUS
10
117.943
20
-67.911
11
117.946
21
-67.9153
0
LINE
8
BLACK
6
CONTINUOUS
10
117.946
20
-67.9153
11
117.947
21
-67.9173
0
LINE
8
BLACK
6
CONTINUOUS
10
117.947
20
-67.9173
11
117.948
21
-67.9191
0
LINE
8
BLACK
6
CONTINUOUS
10
117.948
20
-67.9191
11
117.95
21
-67.9239
0
LINE
8
BLACK
6
CONTINUOUS
10
117.95
20
-67.9239
11
117.952
21
-67.9287
0
LINE
8
BLACK
6
CONTINUOUS
10
117.952
20
-67.9287
11
118.285
21
-68.9287
0
LINE
8
BLACK
6
CONTINUOUS
10
118.285
20
-68.9287
11
118.286
21
-68.9297
0
LINE
8
BLACK
6
CONTINUOUS
10
118.286
20
-68.9297
11
118.289
21
-68.944
0
LINE
8
BLACK
6
CONTINUOUS
10
118.289
20
-68.944
11
118.289
21
-68.9586
0
LINE
8
BLACK
6
CONTINUOUS
10
118.289
20
-68.9586
11
118.286
21
-68.973
0
LINE
8
BLACK
6
CONTINUOUS
10
118.286
20
-68.973
11
118.281
21
-68.9866
0
LINE
8
BLACK
6
CONTINUOUS
10
118.281
20
-68.9866
11
118.273
21
-68.9989
0
LINE
8
BLACK
6
CONTINUOUS
10
118.273
20
-68.9989
11
118.263
21
-69.0095
0
LINE
8
BLACK
6
CONTINUOUS
10
118.263
20
-69.0095
11
118.251
21
-69.0178
0
LINE
8
BLACK
6
CONTINUOUS
10
118.251
20
-69.0178
11
118.238
21
-69.0237
0
LINE
8
BLACK
6
CONTINUOUS
10
118.238
20
-69.0237
11
118.223
21
-69.0268
0
LINE
8
BLACK
6
CONTINUOUS
10
118.223
20
-69.0268
11
118.209
21
-69.0272
0
LINE
8
BLACK
6
CONTINUOUS
10
118.209
20
-69.0272
11
118.194
21
-69.0246
0
LINE
8
BLACK
6
CONTINUOUS
10
118.194
20
-69.0246
11
118.181
21
-69.0193
0
LINE
8
BLACK
6
CONTINUOUS
10
118.181
20
-69.0193
11
118.168
21
-69.0115
0
LINE
8
BLACK
6
CONTINUOUS
10
118.168
20
-69.0115
11
118.158
21
-69.0014
0
LINE
8
BLACK
6
CONTINUOUS
10
118.158
20
-69.0014
11
118.149
21
-68.9895
0
LINE
8
BLACK
6
CONTINUOUS
10
118.149
20
-68.9895
11
118.143
21
-68.9761
0
LINE
8
BLACK
6
CONTINUOUS
10
118.143
20
-68.9761
11
118.065
21
-68.7417
0
LINE
8
BLACK
6
CONTINUOUS
10
118.065
20
-68.7417
11
117.697
21
-68.7417
0
LINE
8
BLACK
6
CONTINUOUS
10
117.697
20
-68.7417
11
117.619
21
-68.9761
0
LINE
8
BLACK
6
CONTINUOUS
10
117.619
20
-68.9761
11
117.618
21
-68.9771
0
LINE
8
BLACK
6
CONTINUOUS
10
117.618
20
-68.9771
11
117.612
21
-68.9904
0
LINE
8
BLACK
6
CONTINUOUS
10
117.612
20
-68.9904
11
117.604
21
-69.0022
0
LINE
8
BLACK
6
CONTINUOUS
10
117.604
20
-69.0022
11
117.593
21
-69.0121
0
LINE
8
BLACK
6
CONTINUOUS
10
117.593
20
-69.0121
11
117.58
21
-69.0198
0
LINE
8
BLACK
6
CONTINUOUS
10
117.58
20
-69.0198
11
117.567
21
-69.0249
0
LINE
8
BLACK
6
CONTINUOUS
10
117.567
20
-69.0249
11
117.552
21
-69.0272
0
LINE
8
BLACK
6
CONTINUOUS
10
117.552
20
-69.0272
11
117.538
21
-69.0267
0
LINE
8
BLACK
6
CONTINUOUS
10
117.538
20
-69.0267
11
117.523
21
-69.0234
0
LINE
8
BLACK
6
CONTINUOUS
10
117.523
20
-69.0234
11
117.51
21
-69.0173
0
LINE
8
BLACK
6
CONTINUOUS
10
117.51
20
-69.0173
11
117.498
21
-69.0088
0
LINE
8
BLACK
6
CONTINUOUS
10
117.498
20
-69.0088
11
117.488
21
-68.9981
0
LINE
8
BLACK
6
CONTINUOUS
10
117.488
20
-68.9981
11
117.48
21
-68.9857
0
LINE
8
BLACK
6
CONTINUOUS
10
117.48
20
-68.9857
11
117.475
21
-68.972
0
LINE
8
BLACK
6
CONTINUOUS
10
117.475
20
-68.972
11
117.473
21
-68.9576
0
LINE
8
BLACK
6
CONTINUOUS
10
117.473
20
-68.9576
11
117.473
21
-68.9429
0
LINE
8
BLACK
6
CONTINUOUS
10
117.473
20
-68.9429
11
117.476
21
-68.9287
0
LINE
8
BLACK
6
CONTINUOUS
10
117.476
20
-68.9287
11
117.81
21
-67.9287
0
LINE
8
BLACK
6
CONTINUOUS
10
117.81
20
-67.9287
11
117.81
21
-67.9277
0
LINE
8
BLACK
6
CONTINUOUS
10
117.81
20
-67.9277
11
117.812
21
-67.923
0
LINE
8
BLACK
6
CONTINUOUS
10
117.812
20
-67.923
11
117.814
21
-67.9181
0
LINE
8
BLACK
6
CONTINUOUS
10
117.814
20
-67.9181
11
117.815
21
-67.9163
0
LINE
8
BLACK
6
CONTINUOUS
10
117.815
20
-67.9163
11
117.816
21
-67.9144
0
LINE
8
BLACK
6
CONTINUOUS
10
117.816
20
-67.9144
11
117.819
21
-67.9102
0
LINE
8
BLACK
6
CONTINUOUS
10
117.819
20
-67.9102
11
117.822
21
-67.9058
0
LINE
8
BLACK
6
CONTINUOUS
10
117.822
20
-67.9058
11
117.824
21
-67.9043
0
LINE
8
BLACK
6
CONTINUOUS
10
117.824
20
-67.9043
11
117.825
21
-67.9026
0
LINE
8
BLACK
6
CONTINUOUS
10
117.825
20
-67.9026
11
117.829
21
-67.899
0
LINE
8
BLACK
6
CONTINUOUS
10
117.829
20
-67.899
11
117.832
21
-67.8953
0
LINE
8
BLACK
6
CONTINUOUS
10
117.832
20
-67.8953
11
117.834
21
-67.8941
0
LINE
8
BLACK
6
CONTINUOUS
10
117.834
20
-67.8941
11
117.836
21
-67.8926
0
LINE
8
BLACK
6
CONTINUOUS
10
117.836
20
-67.8926
11
117.84
21
-67.8899
0
LINE
8
BLACK
6
CONTINUOUS
10
117.84
20
-67.8899
11
117.844
21
-67.8869
0
LINE
8
BLACK
6
CONTINUOUS
10
117.844
20
-67.8869
11
117.846
21
-67.8861
0
LINE
8
BLACK
6
CONTINUOUS
10
117.846
20
-67.8861
11
117.848
21
-67.885
0
LINE
8
BLACK
6
CONTINUOUS
10
117.848
20
-67.885
11
117.853
21
-67.8831
0
LINE
8
BLACK
6
CONTINUOUS
10
117.853
20
-67.8831
11
117.858
21
-67.8811
0
LINE
8
BLACK
6
CONTINUOUS
10
117.858
20
-67.8811
11
117.86
21
-67.8806
0
LINE
8
BLACK
6
CONTINUOUS
10
117.86
20
-67.8806
11
117.862
21
-67.8799
0
LINE
8
BLACK
6
CONTINUOUS
10
117.862
20
-67.8799
11
117.867
21
-67.879
0
LINE
8
BLACK
6
CONTINUOUS
10
117.867
20
-67.879
11
117.872
21
-67.8779
0
LINE
8
BLACK
6
CONTINUOUS
10
117.872
20
-67.8779
11
117.874
21
-67.8779
0
LINE
8
BLACK
6
CONTINUOUS
10
117.874
20
-67.8779
11
117.876
21
-67.8775
0
LINE
8
BLACK
6
CONTINUOUS
10
117.876
20
-67.8775
11
117.881
21
-67.8777
0
LINE
8
BLACK
6
CONTINUOUS
10
117.747
20
-68.5917
11
118.015
21
-68.5917
0
LINE
8
BLACK
6
CONTINUOUS
10
118.015
20
-68.5917
11
117.881
21
-68.1895
0
LINE
8
BLACK
6
CONTINUOUS
10
117.881
20
-68.1895
11
117.747
21
-68.5917
  0
ENDSEC
  0
EOF
