G04 #@! TF.GenerationSoftware,KiCad,Pcbnew,(5.1.6)-1*
G04 #@! TF.CreationDate,2021-01-14T13:32:54+01:00*
G04 #@! TF.ProjectId,Power_module_v1,506f7765-725f-46d6-9f64-756c655f7631,rev?*
G04 #@! TF.SameCoordinates,Original*
G04 #@! TF.FileFunction,Legend,Top*
G04 #@! TF.FilePolarity,Positive*
%FSLAX46Y46*%
G04 Gerber Fmt 4.6, Leading zero omitted, Abs format (unit mm)*
G04 Created by KiCad (PCBNEW (5.1.6)-1) date 2021-01-14 13:32:54*
%MOMM*%
%LPD*%
G01*
G04 APERTURE LIST*
%ADD10C,0.125000*%
%ADD11C,0.150000*%
%ADD12C,0.120000*%
%ADD13C,0.010000*%
G04 APERTURE END LIST*
D10*
X105621309Y-103394095D02*
X106121309Y-103394095D01*
X105764166Y-103560761D01*
X106121309Y-103727428D01*
X105621309Y-103727428D01*
X105621309Y-103965523D02*
X105954642Y-103965523D01*
X106121309Y-103965523D02*
X106097500Y-103941714D01*
X106073690Y-103965523D01*
X106097500Y-103989333D01*
X106121309Y-103965523D01*
X106073690Y-103965523D01*
X105645119Y-104417904D02*
X105621309Y-104370285D01*
X105621309Y-104275047D01*
X105645119Y-104227428D01*
X105668928Y-104203619D01*
X105716547Y-104179809D01*
X105859404Y-104179809D01*
X105907023Y-104203619D01*
X105930833Y-104227428D01*
X105954642Y-104275047D01*
X105954642Y-104370285D01*
X105930833Y-104417904D01*
X105621309Y-104632190D02*
X105954642Y-104632190D01*
X105859404Y-104632190D02*
X105907023Y-104656000D01*
X105930833Y-104679809D01*
X105954642Y-104727428D01*
X105954642Y-104775047D01*
X105621309Y-105013142D02*
X105645119Y-104965523D01*
X105668928Y-104941714D01*
X105716547Y-104917904D01*
X105859404Y-104917904D01*
X105907023Y-104941714D01*
X105930833Y-104965523D01*
X105954642Y-105013142D01*
X105954642Y-105084571D01*
X105930833Y-105132190D01*
X105907023Y-105156000D01*
X105859404Y-105179809D01*
X105716547Y-105179809D01*
X105668928Y-105156000D01*
X105645119Y-105132190D01*
X105621309Y-105084571D01*
X105621309Y-105013142D01*
X106121309Y-105775047D02*
X105716547Y-105775047D01*
X105668928Y-105798857D01*
X105645119Y-105822666D01*
X105621309Y-105870285D01*
X105621309Y-105965523D01*
X105645119Y-106013142D01*
X105668928Y-106036952D01*
X105716547Y-106060761D01*
X106121309Y-106060761D01*
X105645119Y-106275047D02*
X105621309Y-106322666D01*
X105621309Y-106417904D01*
X105645119Y-106465523D01*
X105692738Y-106489333D01*
X105716547Y-106489333D01*
X105764166Y-106465523D01*
X105787976Y-106417904D01*
X105787976Y-106346476D01*
X105811785Y-106298857D01*
X105859404Y-106275047D01*
X105883214Y-106275047D01*
X105930833Y-106298857D01*
X105954642Y-106346476D01*
X105954642Y-106417904D01*
X105930833Y-106465523D01*
X105621309Y-106703619D02*
X106121309Y-106703619D01*
X105930833Y-106703619D02*
X105954642Y-106751238D01*
X105954642Y-106846476D01*
X105930833Y-106894095D01*
X105907023Y-106917904D01*
X105859404Y-106941714D01*
X105716547Y-106941714D01*
X105668928Y-106917904D01*
X105645119Y-106894095D01*
X105621309Y-106846476D01*
X105621309Y-106751238D01*
X105645119Y-106703619D01*
X104746309Y-104894095D02*
X105246309Y-104894095D01*
X104746309Y-105132190D02*
X105246309Y-105132190D01*
X104746309Y-105417904D01*
X105246309Y-105417904D01*
X104509238Y-100810190D02*
X104509238Y-100310190D01*
X104699714Y-100310190D01*
X104747333Y-100334000D01*
X104771142Y-100357809D01*
X104794952Y-100405428D01*
X104794952Y-100476857D01*
X104771142Y-100524476D01*
X104747333Y-100548285D01*
X104699714Y-100572095D01*
X104509238Y-100572095D01*
X105104476Y-100310190D02*
X105199714Y-100310190D01*
X105247333Y-100334000D01*
X105294952Y-100381619D01*
X105318761Y-100476857D01*
X105318761Y-100643523D01*
X105294952Y-100738761D01*
X105247333Y-100786380D01*
X105199714Y-100810190D01*
X105104476Y-100810190D01*
X105056857Y-100786380D01*
X105009238Y-100738761D01*
X104985428Y-100643523D01*
X104985428Y-100476857D01*
X105009238Y-100381619D01*
X105056857Y-100334000D01*
X105104476Y-100310190D01*
X105485428Y-100310190D02*
X105604476Y-100810190D01*
X105699714Y-100453047D01*
X105794952Y-100810190D01*
X105914000Y-100310190D01*
X106104476Y-100548285D02*
X106271142Y-100548285D01*
X106342571Y-100810190D02*
X106104476Y-100810190D01*
X106104476Y-100310190D01*
X106342571Y-100310190D01*
X106842571Y-100810190D02*
X106675904Y-100572095D01*
X106556857Y-100810190D02*
X106556857Y-100310190D01*
X106747333Y-100310190D01*
X106794952Y-100334000D01*
X106818761Y-100357809D01*
X106842571Y-100405428D01*
X106842571Y-100476857D01*
X106818761Y-100524476D01*
X106794952Y-100548285D01*
X106747333Y-100572095D01*
X106556857Y-100572095D01*
X115974857Y-100762571D02*
X115951047Y-100786380D01*
X115879619Y-100810190D01*
X115832000Y-100810190D01*
X115760571Y-100786380D01*
X115712952Y-100738761D01*
X115689142Y-100691142D01*
X115665333Y-100595904D01*
X115665333Y-100524476D01*
X115689142Y-100429238D01*
X115712952Y-100381619D01*
X115760571Y-100334000D01*
X115832000Y-100310190D01*
X115879619Y-100310190D01*
X115951047Y-100334000D01*
X115974857Y-100357809D01*
X116189142Y-100810190D02*
X116189142Y-100310190D01*
X116189142Y-100548285D02*
X116474857Y-100548285D01*
X116474857Y-100810190D02*
X116474857Y-100310190D01*
X116974857Y-100334000D02*
X116927238Y-100310190D01*
X116855809Y-100310190D01*
X116784380Y-100334000D01*
X116736761Y-100381619D01*
X116712952Y-100429238D01*
X116689142Y-100524476D01*
X116689142Y-100595904D01*
X116712952Y-100691142D01*
X116736761Y-100738761D01*
X116784380Y-100786380D01*
X116855809Y-100810190D01*
X116903428Y-100810190D01*
X116974857Y-100786380D01*
X116998666Y-100762571D01*
X116998666Y-100595904D01*
X116903428Y-100595904D01*
X99984761Y-94460190D02*
X99746666Y-94460190D01*
X99746666Y-93960190D01*
X100151428Y-94460190D02*
X100151428Y-93960190D01*
X100270476Y-93960190D01*
X100341904Y-93984000D01*
X100389523Y-94031619D01*
X100413333Y-94079238D01*
X100437142Y-94174476D01*
X100437142Y-94245904D01*
X100413333Y-94341142D01*
X100389523Y-94388761D01*
X100341904Y-94436380D01*
X100270476Y-94460190D01*
X100151428Y-94460190D01*
X100937142Y-94460190D02*
X100770476Y-94222095D01*
X100651428Y-94460190D02*
X100651428Y-93960190D01*
X100841904Y-93960190D01*
X100889523Y-93984000D01*
X100913333Y-94007809D01*
X100937142Y-94055428D01*
X100937142Y-94126857D01*
X100913333Y-94174476D01*
X100889523Y-94198285D01*
X100841904Y-94222095D01*
X100651428Y-94222095D01*
X137469714Y-104620190D02*
X137231619Y-104620190D01*
X137231619Y-104120190D01*
X137636380Y-104358285D02*
X137803047Y-104358285D01*
X137874476Y-104620190D02*
X137636380Y-104620190D01*
X137636380Y-104120190D01*
X137874476Y-104120190D01*
X138088761Y-104620190D02*
X138088761Y-104120190D01*
X138207809Y-104120190D01*
X138279238Y-104144000D01*
X138326857Y-104191619D01*
X138350666Y-104239238D01*
X138374476Y-104334476D01*
X138374476Y-104405904D01*
X138350666Y-104501142D01*
X138326857Y-104548761D01*
X138279238Y-104596380D01*
X138207809Y-104620190D01*
X138088761Y-104620190D01*
X139207809Y-104620190D02*
X138969714Y-104620190D01*
X138969714Y-104120190D01*
X139374476Y-104620190D02*
X139374476Y-104120190D01*
X139493523Y-104120190D01*
X139564952Y-104144000D01*
X139612571Y-104191619D01*
X139636380Y-104239238D01*
X139660190Y-104334476D01*
X139660190Y-104405904D01*
X139636380Y-104501142D01*
X139612571Y-104548761D01*
X139564952Y-104596380D01*
X139493523Y-104620190D01*
X139374476Y-104620190D01*
X140160190Y-104620190D02*
X139993523Y-104382095D01*
X139874476Y-104620190D02*
X139874476Y-104120190D01*
X140064952Y-104120190D01*
X140112571Y-104144000D01*
X140136380Y-104167809D01*
X140160190Y-104215428D01*
X140160190Y-104286857D01*
X140136380Y-104334476D01*
X140112571Y-104358285D01*
X140064952Y-104382095D01*
X139874476Y-104382095D01*
X137326857Y-102080190D02*
X137088761Y-102080190D01*
X137088761Y-101580190D01*
X137493523Y-101818285D02*
X137660190Y-101818285D01*
X137731619Y-102080190D02*
X137493523Y-102080190D01*
X137493523Y-101580190D01*
X137731619Y-101580190D01*
X137945904Y-102080190D02*
X137945904Y-101580190D01*
X138064952Y-101580190D01*
X138136380Y-101604000D01*
X138184000Y-101651619D01*
X138207809Y-101699238D01*
X138231619Y-101794476D01*
X138231619Y-101865904D01*
X138207809Y-101961142D01*
X138184000Y-102008761D01*
X138136380Y-102056380D01*
X138064952Y-102080190D01*
X137945904Y-102080190D01*
X138993523Y-101818285D02*
X139064952Y-101842095D01*
X139088761Y-101865904D01*
X139112571Y-101913523D01*
X139112571Y-101984952D01*
X139088761Y-102032571D01*
X139064952Y-102056380D01*
X139017333Y-102080190D01*
X138826857Y-102080190D01*
X138826857Y-101580190D01*
X138993523Y-101580190D01*
X139041142Y-101604000D01*
X139064952Y-101627809D01*
X139088761Y-101675428D01*
X139088761Y-101723047D01*
X139064952Y-101770666D01*
X139041142Y-101794476D01*
X138993523Y-101818285D01*
X138826857Y-101818285D01*
X139303047Y-101937333D02*
X139541142Y-101937333D01*
X139255428Y-102080190D02*
X139422095Y-101580190D01*
X139588761Y-102080190D01*
X139684000Y-101580190D02*
X139969714Y-101580190D01*
X139826857Y-102080190D02*
X139826857Y-101580190D01*
X140064952Y-101580190D02*
X140350666Y-101580190D01*
X140207809Y-102080190D02*
X140207809Y-101580190D01*
D11*
X129675428Y-107132380D02*
X129675428Y-106132380D01*
X130056380Y-106132380D01*
X130151619Y-106180000D01*
X130199238Y-106227619D01*
X130246857Y-106322857D01*
X130246857Y-106465714D01*
X130199238Y-106560952D01*
X130151619Y-106608571D01*
X130056380Y-106656190D01*
X129675428Y-106656190D01*
X130818285Y-107132380D02*
X130723047Y-107084761D01*
X130675428Y-107037142D01*
X130627809Y-106941904D01*
X130627809Y-106656190D01*
X130675428Y-106560952D01*
X130723047Y-106513333D01*
X130818285Y-106465714D01*
X130961142Y-106465714D01*
X131056380Y-106513333D01*
X131104000Y-106560952D01*
X131151619Y-106656190D01*
X131151619Y-106941904D01*
X131104000Y-107037142D01*
X131056380Y-107084761D01*
X130961142Y-107132380D01*
X130818285Y-107132380D01*
X131484952Y-106465714D02*
X131675428Y-107132380D01*
X131865904Y-106656190D01*
X132056380Y-107132380D01*
X132246857Y-106465714D01*
X133008761Y-107084761D02*
X132913523Y-107132380D01*
X132723047Y-107132380D01*
X132627809Y-107084761D01*
X132580190Y-106989523D01*
X132580190Y-106608571D01*
X132627809Y-106513333D01*
X132723047Y-106465714D01*
X132913523Y-106465714D01*
X133008761Y-106513333D01*
X133056380Y-106608571D01*
X133056380Y-106703809D01*
X132580190Y-106799047D01*
X133484952Y-107132380D02*
X133484952Y-106465714D01*
X133484952Y-106656190D02*
X133532571Y-106560952D01*
X133580190Y-106513333D01*
X133675428Y-106465714D01*
X133770666Y-106465714D01*
X134770666Y-106465714D02*
X135008761Y-107132380D01*
X135246857Y-106465714D01*
X135580190Y-106227619D02*
X135627809Y-106180000D01*
X135723047Y-106132380D01*
X135961142Y-106132380D01*
X136056380Y-106180000D01*
X136104000Y-106227619D01*
X136151619Y-106322857D01*
X136151619Y-106418095D01*
X136104000Y-106560952D01*
X135532571Y-107132380D01*
X136151619Y-107132380D01*
X136580190Y-107037142D02*
X136627809Y-107084761D01*
X136580190Y-107132380D01*
X136532571Y-107084761D01*
X136580190Y-107037142D01*
X136580190Y-107132380D01*
X137580190Y-107132380D02*
X137008761Y-107132380D01*
X137294476Y-107132380D02*
X137294476Y-106132380D01*
X137199238Y-106275238D01*
X137104000Y-106370476D01*
X137008761Y-106418095D01*
D10*
X146177047Y-71124000D02*
X146129428Y-71100190D01*
X146058000Y-71100190D01*
X145986571Y-71124000D01*
X145938952Y-71171619D01*
X145915142Y-71219238D01*
X145891333Y-71314476D01*
X145891333Y-71385904D01*
X145915142Y-71481142D01*
X145938952Y-71528761D01*
X145986571Y-71576380D01*
X146058000Y-71600190D01*
X146105619Y-71600190D01*
X146177047Y-71576380D01*
X146200857Y-71552571D01*
X146200857Y-71385904D01*
X146105619Y-71385904D01*
X146415142Y-71600190D02*
X146415142Y-71100190D01*
X146700857Y-71600190D01*
X146700857Y-71100190D01*
X146938952Y-71600190D02*
X146938952Y-71100190D01*
X147058000Y-71100190D01*
X147129428Y-71124000D01*
X147177047Y-71171619D01*
X147200857Y-71219238D01*
X147224666Y-71314476D01*
X147224666Y-71385904D01*
X147200857Y-71481142D01*
X147177047Y-71528761D01*
X147129428Y-71576380D01*
X147058000Y-71600190D01*
X146938952Y-71600190D01*
X147165333Y-80212380D02*
X147236761Y-80236190D01*
X147355809Y-80236190D01*
X147403428Y-80212380D01*
X147427238Y-80188571D01*
X147451047Y-80140952D01*
X147451047Y-80093333D01*
X147427238Y-80045714D01*
X147403428Y-80021904D01*
X147355809Y-79998095D01*
X147260571Y-79974285D01*
X147212952Y-79950476D01*
X147189142Y-79926666D01*
X147165333Y-79879047D01*
X147165333Y-79831428D01*
X147189142Y-79783809D01*
X147212952Y-79760000D01*
X147260571Y-79736190D01*
X147379619Y-79736190D01*
X147451047Y-79760000D01*
X147760571Y-79736190D02*
X147855809Y-79736190D01*
X147903428Y-79760000D01*
X147951047Y-79807619D01*
X147974857Y-79902857D01*
X147974857Y-80069523D01*
X147951047Y-80164761D01*
X147903428Y-80212380D01*
X147855809Y-80236190D01*
X147760571Y-80236190D01*
X147712952Y-80212380D01*
X147665333Y-80164761D01*
X147641523Y-80069523D01*
X147641523Y-79902857D01*
X147665333Y-79807619D01*
X147712952Y-79760000D01*
X147760571Y-79736190D01*
X148427238Y-80236190D02*
X148189142Y-80236190D01*
X148189142Y-79736190D01*
X148593904Y-80045714D02*
X148974857Y-80045714D01*
X148784380Y-80236190D02*
X148784380Y-79855238D01*
X147447047Y-82300000D02*
X147399428Y-82276190D01*
X147328000Y-82276190D01*
X147256571Y-82300000D01*
X147208952Y-82347619D01*
X147185142Y-82395238D01*
X147161333Y-82490476D01*
X147161333Y-82561904D01*
X147185142Y-82657142D01*
X147208952Y-82704761D01*
X147256571Y-82752380D01*
X147328000Y-82776190D01*
X147375619Y-82776190D01*
X147447047Y-82752380D01*
X147470857Y-82728571D01*
X147470857Y-82561904D01*
X147375619Y-82561904D01*
X147685142Y-82776190D02*
X147685142Y-82276190D01*
X147970857Y-82776190D01*
X147970857Y-82276190D01*
X148208952Y-82776190D02*
X148208952Y-82276190D01*
X148328000Y-82276190D01*
X148399428Y-82300000D01*
X148447047Y-82347619D01*
X148470857Y-82395238D01*
X148494666Y-82490476D01*
X148494666Y-82561904D01*
X148470857Y-82657142D01*
X148447047Y-82704761D01*
X148399428Y-82752380D01*
X148328000Y-82776190D01*
X148208952Y-82776190D01*
X143085428Y-71338285D02*
X143156857Y-71362095D01*
X143180666Y-71385904D01*
X143204476Y-71433523D01*
X143204476Y-71504952D01*
X143180666Y-71552571D01*
X143156857Y-71576380D01*
X143109238Y-71600190D01*
X142918761Y-71600190D01*
X142918761Y-71100190D01*
X143085428Y-71100190D01*
X143133047Y-71124000D01*
X143156857Y-71147809D01*
X143180666Y-71195428D01*
X143180666Y-71243047D01*
X143156857Y-71290666D01*
X143133047Y-71314476D01*
X143085428Y-71338285D01*
X142918761Y-71338285D01*
X143394952Y-71457333D02*
X143633047Y-71457333D01*
X143347333Y-71600190D02*
X143514000Y-71100190D01*
X143680666Y-71600190D01*
X143775904Y-71100190D02*
X144061619Y-71100190D01*
X143918761Y-71600190D02*
X143918761Y-71100190D01*
X144228285Y-71409714D02*
X144609238Y-71409714D01*
X144418761Y-71600190D02*
X144418761Y-71219238D01*
D12*
X93472000Y-84709000D02*
X93472000Y-83947000D01*
X94107000Y-84328000D02*
X93472000Y-84709000D01*
X93472000Y-83947000D02*
X94107000Y-84328000D01*
D10*
X124702142Y-98905190D02*
X124702142Y-98405190D01*
X124987857Y-98905190D01*
X124987857Y-98405190D01*
X125511666Y-98857571D02*
X125487857Y-98881380D01*
X125416428Y-98905190D01*
X125368809Y-98905190D01*
X125297380Y-98881380D01*
X125249761Y-98833761D01*
X125225952Y-98786142D01*
X125202142Y-98690904D01*
X125202142Y-98619476D01*
X125225952Y-98524238D01*
X125249761Y-98476619D01*
X125297380Y-98429000D01*
X125368809Y-98405190D01*
X125416428Y-98405190D01*
X125487857Y-98429000D01*
X125511666Y-98452809D01*
X122174047Y-98429000D02*
X122126428Y-98405190D01*
X122055000Y-98405190D01*
X121983571Y-98429000D01*
X121935952Y-98476619D01*
X121912142Y-98524238D01*
X121888333Y-98619476D01*
X121888333Y-98690904D01*
X121912142Y-98786142D01*
X121935952Y-98833761D01*
X121983571Y-98881380D01*
X122055000Y-98905190D01*
X122102619Y-98905190D01*
X122174047Y-98881380D01*
X122197857Y-98857571D01*
X122197857Y-98690904D01*
X122102619Y-98690904D01*
X122412142Y-98905190D02*
X122412142Y-98405190D01*
X122697857Y-98905190D01*
X122697857Y-98405190D01*
X122935952Y-98905190D02*
X122935952Y-98405190D01*
X123055000Y-98405190D01*
X123126428Y-98429000D01*
X123174047Y-98476619D01*
X123197857Y-98524238D01*
X123221666Y-98619476D01*
X123221666Y-98690904D01*
X123197857Y-98786142D01*
X123174047Y-98833761D01*
X123126428Y-98881380D01*
X123055000Y-98905190D01*
X122935952Y-98905190D01*
X119562619Y-98905190D02*
X119562619Y-98405190D01*
X119800714Y-98905190D02*
X119800714Y-98405190D01*
X120086428Y-98905190D01*
X120086428Y-98405190D01*
X120253095Y-98405190D02*
X120538809Y-98405190D01*
X120395952Y-98905190D02*
X120395952Y-98405190D01*
D13*
G36*
X130371850Y-73396472D02*
G01*
X130371849Y-73679044D01*
X122712162Y-73680634D01*
X115052475Y-73682225D01*
X115050879Y-76233337D01*
X115049284Y-78784450D01*
X114484150Y-78784450D01*
X114484150Y-73113900D01*
X130371850Y-73113900D01*
X130371850Y-73396472D01*
G37*
X130371850Y-73396472D02*
X130371849Y-73679044D01*
X122712162Y-73680634D01*
X115052475Y-73682225D01*
X115050879Y-76233337D01*
X115049284Y-78784450D01*
X114484150Y-78784450D01*
X114484150Y-73113900D01*
X130371850Y-73113900D01*
X130371850Y-73396472D01*
G36*
X118403763Y-75928537D02*
G01*
X118404193Y-76025750D01*
X118404622Y-76111100D01*
X118405068Y-76185424D01*
X118405550Y-76249561D01*
X118406087Y-76304348D01*
X118406696Y-76350621D01*
X118407397Y-76389218D01*
X118408208Y-76420978D01*
X118409147Y-76446736D01*
X118410234Y-76467330D01*
X118411486Y-76483599D01*
X118412922Y-76496378D01*
X118414561Y-76506506D01*
X118416421Y-76514820D01*
X118416760Y-76516112D01*
X118433709Y-76567335D01*
X118454774Y-76607908D01*
X118481187Y-76639549D01*
X118514180Y-76663975D01*
X118528129Y-76671444D01*
X118546258Y-76680077D01*
X118561246Y-76685897D01*
X118576346Y-76689455D01*
X118594809Y-76691305D01*
X118619888Y-76691998D01*
X118649645Y-76692091D01*
X118693455Y-76691006D01*
X118727584Y-76687167D01*
X118754923Y-76679632D01*
X118778360Y-76667461D01*
X118800786Y-76649713D01*
X118811619Y-76639356D01*
X118823734Y-76626682D01*
X118834547Y-76613633D01*
X118844133Y-76599452D01*
X118852564Y-76583381D01*
X118859916Y-76564661D01*
X118866262Y-76542535D01*
X118871676Y-76516245D01*
X118876232Y-76485032D01*
X118880004Y-76448139D01*
X118883065Y-76404808D01*
X118885490Y-76354281D01*
X118887353Y-76295800D01*
X118888726Y-76228606D01*
X118889685Y-76151943D01*
X118890304Y-76065051D01*
X118890655Y-75967174D01*
X118890813Y-75857553D01*
X118890832Y-75826937D01*
X118891050Y-75380850D01*
X119399050Y-75380850D01*
X119398995Y-75915837D01*
X119398910Y-76003037D01*
X119398678Y-76087022D01*
X119398312Y-76166769D01*
X119397822Y-76241252D01*
X119397218Y-76309449D01*
X119396511Y-76370334D01*
X119395712Y-76422884D01*
X119394833Y-76466073D01*
X119393883Y-76498878D01*
X119392873Y-76520274D01*
X119392601Y-76523850D01*
X119379221Y-76621744D01*
X119356815Y-76710720D01*
X119325322Y-76790843D01*
X119284680Y-76862176D01*
X119234827Y-76924784D01*
X119175703Y-76978733D01*
X119107245Y-77024086D01*
X119029392Y-77060909D01*
X118942082Y-77089265D01*
X118845253Y-77109220D01*
X118833085Y-77111039D01*
X118806497Y-77113846D01*
X118770595Y-77116195D01*
X118728164Y-77118041D01*
X118681988Y-77119340D01*
X118634850Y-77120050D01*
X118589535Y-77120126D01*
X118548825Y-77119525D01*
X118515507Y-77118203D01*
X118494175Y-77116364D01*
X118406228Y-77102097D01*
X118328458Y-77083353D01*
X118258972Y-77059609D01*
X118209514Y-77037383D01*
X118138601Y-76995519D01*
X118076935Y-76945513D01*
X118024267Y-76887028D01*
X117980347Y-76819728D01*
X117944927Y-76743274D01*
X117917757Y-76657329D01*
X117912275Y-76634542D01*
X117909864Y-76623739D01*
X117907736Y-76613345D01*
X117905872Y-76602521D01*
X117904250Y-76590429D01*
X117902849Y-76576231D01*
X117901647Y-76559087D01*
X117900625Y-76538160D01*
X117899760Y-76512611D01*
X117899032Y-76481602D01*
X117898420Y-76444293D01*
X117897903Y-76399848D01*
X117897460Y-76347426D01*
X117897069Y-76286190D01*
X117896710Y-76215302D01*
X117896361Y-76133922D01*
X117896003Y-76041212D01*
X117895760Y-75976162D01*
X117893552Y-75380850D01*
X118147501Y-75380850D01*
X118401450Y-75380849D01*
X118403763Y-75928537D01*
G37*
X118403763Y-75928537D02*
X118404193Y-76025750D01*
X118404622Y-76111100D01*
X118405068Y-76185424D01*
X118405550Y-76249561D01*
X118406087Y-76304348D01*
X118406696Y-76350621D01*
X118407397Y-76389218D01*
X118408208Y-76420978D01*
X118409147Y-76446736D01*
X118410234Y-76467330D01*
X118411486Y-76483599D01*
X118412922Y-76496378D01*
X118414561Y-76506506D01*
X118416421Y-76514820D01*
X118416760Y-76516112D01*
X118433709Y-76567335D01*
X118454774Y-76607908D01*
X118481187Y-76639549D01*
X118514180Y-76663975D01*
X118528129Y-76671444D01*
X118546258Y-76680077D01*
X118561246Y-76685897D01*
X118576346Y-76689455D01*
X118594809Y-76691305D01*
X118619888Y-76691998D01*
X118649645Y-76692091D01*
X118693455Y-76691006D01*
X118727584Y-76687167D01*
X118754923Y-76679632D01*
X118778360Y-76667461D01*
X118800786Y-76649713D01*
X118811619Y-76639356D01*
X118823734Y-76626682D01*
X118834547Y-76613633D01*
X118844133Y-76599452D01*
X118852564Y-76583381D01*
X118859916Y-76564661D01*
X118866262Y-76542535D01*
X118871676Y-76516245D01*
X118876232Y-76485032D01*
X118880004Y-76448139D01*
X118883065Y-76404808D01*
X118885490Y-76354281D01*
X118887353Y-76295800D01*
X118888726Y-76228606D01*
X118889685Y-76151943D01*
X118890304Y-76065051D01*
X118890655Y-75967174D01*
X118890813Y-75857553D01*
X118890832Y-75826937D01*
X118891050Y-75380850D01*
X119399050Y-75380850D01*
X119398995Y-75915837D01*
X119398910Y-76003037D01*
X119398678Y-76087022D01*
X119398312Y-76166769D01*
X119397822Y-76241252D01*
X119397218Y-76309449D01*
X119396511Y-76370334D01*
X119395712Y-76422884D01*
X119394833Y-76466073D01*
X119393883Y-76498878D01*
X119392873Y-76520274D01*
X119392601Y-76523850D01*
X119379221Y-76621744D01*
X119356815Y-76710720D01*
X119325322Y-76790843D01*
X119284680Y-76862176D01*
X119234827Y-76924784D01*
X119175703Y-76978733D01*
X119107245Y-77024086D01*
X119029392Y-77060909D01*
X118942082Y-77089265D01*
X118845253Y-77109220D01*
X118833085Y-77111039D01*
X118806497Y-77113846D01*
X118770595Y-77116195D01*
X118728164Y-77118041D01*
X118681988Y-77119340D01*
X118634850Y-77120050D01*
X118589535Y-77120126D01*
X118548825Y-77119525D01*
X118515507Y-77118203D01*
X118494175Y-77116364D01*
X118406228Y-77102097D01*
X118328458Y-77083353D01*
X118258972Y-77059609D01*
X118209514Y-77037383D01*
X118138601Y-76995519D01*
X118076935Y-76945513D01*
X118024267Y-76887028D01*
X117980347Y-76819728D01*
X117944927Y-76743274D01*
X117917757Y-76657329D01*
X117912275Y-76634542D01*
X117909864Y-76623739D01*
X117907736Y-76613345D01*
X117905872Y-76602521D01*
X117904250Y-76590429D01*
X117902849Y-76576231D01*
X117901647Y-76559087D01*
X117900625Y-76538160D01*
X117899760Y-76512611D01*
X117899032Y-76481602D01*
X117898420Y-76444293D01*
X117897903Y-76399848D01*
X117897460Y-76347426D01*
X117897069Y-76286190D01*
X117896710Y-76215302D01*
X117896361Y-76133922D01*
X117896003Y-76041212D01*
X117895760Y-75976162D01*
X117893552Y-75380850D01*
X118147501Y-75380850D01*
X118401450Y-75380849D01*
X118403763Y-75928537D01*
G36*
X124276508Y-75380850D02*
G01*
X124530456Y-75380850D01*
X124528096Y-75972987D01*
X124527689Y-76073257D01*
X124527301Y-76161667D01*
X124526914Y-76239057D01*
X124526507Y-76306269D01*
X124526060Y-76364141D01*
X124525552Y-76413514D01*
X124524965Y-76455229D01*
X124524277Y-76490125D01*
X124523469Y-76519042D01*
X124522520Y-76542822D01*
X124521411Y-76562304D01*
X124520122Y-76578328D01*
X124518632Y-76591735D01*
X124516921Y-76603364D01*
X124514970Y-76614056D01*
X124512758Y-76624652D01*
X124512509Y-76625796D01*
X124499054Y-76678264D01*
X124481743Y-76731795D01*
X124462072Y-76782319D01*
X124441537Y-76825764D01*
X124434072Y-76839142D01*
X124413510Y-76868736D01*
X124385199Y-76902261D01*
X124352086Y-76936808D01*
X124317118Y-76969464D01*
X124283245Y-76997319D01*
X124253625Y-77017340D01*
X124178059Y-77054316D01*
X124094184Y-77083868D01*
X124004524Y-77105197D01*
X123948825Y-77113738D01*
X123914690Y-77116738D01*
X123871641Y-77118752D01*
X123822663Y-77119806D01*
X123770739Y-77119926D01*
X123718856Y-77119136D01*
X123669999Y-77117462D01*
X123627152Y-77114930D01*
X123593301Y-77111564D01*
X123587039Y-77110665D01*
X123495223Y-77092596D01*
X123413640Y-77068290D01*
X123341190Y-77037247D01*
X123276774Y-76998964D01*
X123219294Y-76952940D01*
X123199525Y-76933809D01*
X123151410Y-76878272D01*
X123111972Y-76817702D01*
X123080258Y-76750243D01*
X123055317Y-76674038D01*
X123045232Y-76632721D01*
X123028915Y-76558775D01*
X123026548Y-75969812D01*
X123024181Y-75380850D01*
X123532070Y-75380850D01*
X123534599Y-75922187D01*
X123535077Y-76019464D01*
X123535557Y-76104879D01*
X123536057Y-76179267D01*
X123536596Y-76243468D01*
X123537191Y-76298317D01*
X123537862Y-76344651D01*
X123538625Y-76383309D01*
X123539500Y-76415127D01*
X123540505Y-76440942D01*
X123541658Y-76461591D01*
X123542977Y-76477912D01*
X123544481Y-76490742D01*
X123546188Y-76500918D01*
X123547351Y-76506239D01*
X123560684Y-76552544D01*
X123576843Y-76589578D01*
X123597449Y-76620716D01*
X123608679Y-76633783D01*
X123635781Y-76658444D01*
X123666076Y-76675847D01*
X123702218Y-76687011D01*
X123746862Y-76692957D01*
X123765439Y-76694013D01*
X123822151Y-76693083D01*
X123869431Y-76684755D01*
X123908577Y-76668424D01*
X123940888Y-76643483D01*
X123967665Y-76609326D01*
X123975474Y-76595990D01*
X123982562Y-76583022D01*
X123988808Y-76571047D01*
X123994269Y-76559213D01*
X123999002Y-76546664D01*
X124003063Y-76532550D01*
X124006510Y-76516015D01*
X124009400Y-76496207D01*
X124011789Y-76472272D01*
X124013734Y-76443357D01*
X124015292Y-76408610D01*
X124016519Y-76367176D01*
X124017474Y-76318202D01*
X124018212Y-76260835D01*
X124018791Y-76194222D01*
X124019266Y-76117509D01*
X124019696Y-76029843D01*
X124020137Y-75930372D01*
X124020159Y-75925362D01*
X124022561Y-75380849D01*
X124276508Y-75380850D01*
G37*
X124276508Y-75380850D02*
X124530456Y-75380850D01*
X124528096Y-75972987D01*
X124527689Y-76073257D01*
X124527301Y-76161667D01*
X124526914Y-76239057D01*
X124526507Y-76306269D01*
X124526060Y-76364141D01*
X124525552Y-76413514D01*
X124524965Y-76455229D01*
X124524277Y-76490125D01*
X124523469Y-76519042D01*
X124522520Y-76542822D01*
X124521411Y-76562304D01*
X124520122Y-76578328D01*
X124518632Y-76591735D01*
X124516921Y-76603364D01*
X124514970Y-76614056D01*
X124512758Y-76624652D01*
X124512509Y-76625796D01*
X124499054Y-76678264D01*
X124481743Y-76731795D01*
X124462072Y-76782319D01*
X124441537Y-76825764D01*
X124434072Y-76839142D01*
X124413510Y-76868736D01*
X124385199Y-76902261D01*
X124352086Y-76936808D01*
X124317118Y-76969464D01*
X124283245Y-76997319D01*
X124253625Y-77017340D01*
X124178059Y-77054316D01*
X124094184Y-77083868D01*
X124004524Y-77105197D01*
X123948825Y-77113738D01*
X123914690Y-77116738D01*
X123871641Y-77118752D01*
X123822663Y-77119806D01*
X123770739Y-77119926D01*
X123718856Y-77119136D01*
X123669999Y-77117462D01*
X123627152Y-77114930D01*
X123593301Y-77111564D01*
X123587039Y-77110665D01*
X123495223Y-77092596D01*
X123413640Y-77068290D01*
X123341190Y-77037247D01*
X123276774Y-76998964D01*
X123219294Y-76952940D01*
X123199525Y-76933809D01*
X123151410Y-76878272D01*
X123111972Y-76817702D01*
X123080258Y-76750243D01*
X123055317Y-76674038D01*
X123045232Y-76632721D01*
X123028915Y-76558775D01*
X123026548Y-75969812D01*
X123024181Y-75380850D01*
X123532070Y-75380850D01*
X123534599Y-75922187D01*
X123535077Y-76019464D01*
X123535557Y-76104879D01*
X123536057Y-76179267D01*
X123536596Y-76243468D01*
X123537191Y-76298317D01*
X123537862Y-76344651D01*
X123538625Y-76383309D01*
X123539500Y-76415127D01*
X123540505Y-76440942D01*
X123541658Y-76461591D01*
X123542977Y-76477912D01*
X123544481Y-76490742D01*
X123546188Y-76500918D01*
X123547351Y-76506239D01*
X123560684Y-76552544D01*
X123576843Y-76589578D01*
X123597449Y-76620716D01*
X123608679Y-76633783D01*
X123635781Y-76658444D01*
X123666076Y-76675847D01*
X123702218Y-76687011D01*
X123746862Y-76692957D01*
X123765439Y-76694013D01*
X123822151Y-76693083D01*
X123869431Y-76684755D01*
X123908577Y-76668424D01*
X123940888Y-76643483D01*
X123967665Y-76609326D01*
X123975474Y-76595990D01*
X123982562Y-76583022D01*
X123988808Y-76571047D01*
X123994269Y-76559213D01*
X123999002Y-76546664D01*
X124003063Y-76532550D01*
X124006510Y-76516015D01*
X124009400Y-76496207D01*
X124011789Y-76472272D01*
X124013734Y-76443357D01*
X124015292Y-76408610D01*
X124016519Y-76367176D01*
X124017474Y-76318202D01*
X124018212Y-76260835D01*
X124018791Y-76194222D01*
X124019266Y-76117509D01*
X124019696Y-76029843D01*
X124020137Y-75930372D01*
X124020159Y-75925362D01*
X124022561Y-75380849D01*
X124276508Y-75380850D01*
G36*
X116693950Y-75674361D02*
G01*
X116693962Y-75742941D01*
X116694027Y-75799852D01*
X116694190Y-75846125D01*
X116694496Y-75882790D01*
X116694987Y-75910879D01*
X116695709Y-75931421D01*
X116696706Y-75945448D01*
X116698022Y-75953991D01*
X116699700Y-75958081D01*
X116701786Y-75958747D01*
X116704324Y-75957022D01*
X116706004Y-75955348D01*
X116712095Y-75948032D01*
X116725157Y-75931621D01*
X116744428Y-75907094D01*
X116769146Y-75875430D01*
X116798549Y-75837609D01*
X116831876Y-75794610D01*
X116868364Y-75747412D01*
X116907252Y-75696993D01*
X116925766Y-75672950D01*
X116965453Y-75621434D01*
X117003047Y-75572728D01*
X117037792Y-75527807D01*
X117068933Y-75487641D01*
X117095714Y-75453205D01*
X117117379Y-75425469D01*
X117133173Y-75405408D01*
X117142340Y-75393994D01*
X117144136Y-75391901D01*
X117147252Y-75389348D01*
X117152015Y-75387227D01*
X117159504Y-75385505D01*
X117170798Y-75384152D01*
X117186978Y-75383134D01*
X117209122Y-75382419D01*
X117238311Y-75381977D01*
X117275624Y-75381773D01*
X117322139Y-75381778D01*
X117378938Y-75381958D01*
X117447099Y-75382281D01*
X117465166Y-75382376D01*
X117775532Y-75384025D01*
X117479011Y-75713874D01*
X117422540Y-75776867D01*
X117370988Y-75834723D01*
X117324807Y-75886922D01*
X117284449Y-75932942D01*
X117250363Y-75972262D01*
X117223003Y-76004361D01*
X117202819Y-76028718D01*
X117190263Y-76044811D01*
X117185786Y-76052121D01*
X117185807Y-76052366D01*
X117189744Y-76058771D01*
X117200268Y-76074985D01*
X117216888Y-76100272D01*
X117239115Y-76133898D01*
X117266460Y-76175124D01*
X117298432Y-76223216D01*
X117334543Y-76277436D01*
X117374302Y-76337049D01*
X117417219Y-76401318D01*
X117462806Y-76469508D01*
X117510572Y-76540881D01*
X117528911Y-76568264D01*
X117577282Y-76640511D01*
X117623596Y-76709759D01*
X117667372Y-76775282D01*
X117708125Y-76836354D01*
X117745373Y-76892246D01*
X117778631Y-76942234D01*
X117807418Y-76985589D01*
X117831249Y-77021586D01*
X117849641Y-77049498D01*
X117862111Y-77068598D01*
X117868175Y-77078159D01*
X117868700Y-77079144D01*
X117862551Y-77079823D01*
X117844908Y-77080397D01*
X117816979Y-77080856D01*
X117779968Y-77081194D01*
X117735082Y-77081403D01*
X117683527Y-77081476D01*
X117626510Y-77081404D01*
X117565235Y-77081181D01*
X117553252Y-77081121D01*
X117237804Y-77079475D01*
X117039258Y-76755743D01*
X117003497Y-76697551D01*
X116969623Y-76642656D01*
X116938230Y-76592003D01*
X116909909Y-76546539D01*
X116885255Y-76507210D01*
X116864860Y-76474962D01*
X116849318Y-76450741D01*
X116839221Y-76435493D01*
X116835187Y-76430170D01*
X116829307Y-76434043D01*
X116816623Y-76445933D01*
X116798672Y-76464283D01*
X116776995Y-76487537D01*
X116761806Y-76504354D01*
X116693950Y-76580380D01*
X116693950Y-77082650D01*
X116185950Y-77082650D01*
X116185950Y-75380850D01*
X116693950Y-75380850D01*
X116693950Y-75674361D01*
G37*
X116693950Y-75674361D02*
X116693962Y-75742941D01*
X116694027Y-75799852D01*
X116694190Y-75846125D01*
X116694496Y-75882790D01*
X116694987Y-75910879D01*
X116695709Y-75931421D01*
X116696706Y-75945448D01*
X116698022Y-75953991D01*
X116699700Y-75958081D01*
X116701786Y-75958747D01*
X116704324Y-75957022D01*
X116706004Y-75955348D01*
X116712095Y-75948032D01*
X116725157Y-75931621D01*
X116744428Y-75907094D01*
X116769146Y-75875430D01*
X116798549Y-75837609D01*
X116831876Y-75794610D01*
X116868364Y-75747412D01*
X116907252Y-75696993D01*
X116925766Y-75672950D01*
X116965453Y-75621434D01*
X117003047Y-75572728D01*
X117037792Y-75527807D01*
X117068933Y-75487641D01*
X117095714Y-75453205D01*
X117117379Y-75425469D01*
X117133173Y-75405408D01*
X117142340Y-75393994D01*
X117144136Y-75391901D01*
X117147252Y-75389348D01*
X117152015Y-75387227D01*
X117159504Y-75385505D01*
X117170798Y-75384152D01*
X117186978Y-75383134D01*
X117209122Y-75382419D01*
X117238311Y-75381977D01*
X117275624Y-75381773D01*
X117322139Y-75381778D01*
X117378938Y-75381958D01*
X117447099Y-75382281D01*
X117465166Y-75382376D01*
X117775532Y-75384025D01*
X117479011Y-75713874D01*
X117422540Y-75776867D01*
X117370988Y-75834723D01*
X117324807Y-75886922D01*
X117284449Y-75932942D01*
X117250363Y-75972262D01*
X117223003Y-76004361D01*
X117202819Y-76028718D01*
X117190263Y-76044811D01*
X117185786Y-76052121D01*
X117185807Y-76052366D01*
X117189744Y-76058771D01*
X117200268Y-76074985D01*
X117216888Y-76100272D01*
X117239115Y-76133898D01*
X117266460Y-76175124D01*
X117298432Y-76223216D01*
X117334543Y-76277436D01*
X117374302Y-76337049D01*
X117417219Y-76401318D01*
X117462806Y-76469508D01*
X117510572Y-76540881D01*
X117528911Y-76568264D01*
X117577282Y-76640511D01*
X117623596Y-76709759D01*
X117667372Y-76775282D01*
X117708125Y-76836354D01*
X117745373Y-76892246D01*
X117778631Y-76942234D01*
X117807418Y-76985589D01*
X117831249Y-77021586D01*
X117849641Y-77049498D01*
X117862111Y-77068598D01*
X117868175Y-77078159D01*
X117868700Y-77079144D01*
X117862551Y-77079823D01*
X117844908Y-77080397D01*
X117816979Y-77080856D01*
X117779968Y-77081194D01*
X117735082Y-77081403D01*
X117683527Y-77081476D01*
X117626510Y-77081404D01*
X117565235Y-77081181D01*
X117553252Y-77081121D01*
X117237804Y-77079475D01*
X117039258Y-76755743D01*
X117003497Y-76697551D01*
X116969623Y-76642656D01*
X116938230Y-76592003D01*
X116909909Y-76546539D01*
X116885255Y-76507210D01*
X116864860Y-76474962D01*
X116849318Y-76450741D01*
X116839221Y-76435493D01*
X116835187Y-76430170D01*
X116829307Y-76434043D01*
X116816623Y-76445933D01*
X116798672Y-76464283D01*
X116776995Y-76487537D01*
X116761806Y-76504354D01*
X116693950Y-76580380D01*
X116693950Y-77082650D01*
X116185950Y-77082650D01*
X116185950Y-75380850D01*
X116693950Y-75380850D01*
X116693950Y-75674361D01*
G36*
X120650000Y-76644394D02*
G01*
X121007187Y-76646034D01*
X121364375Y-76647675D01*
X121366045Y-76865162D01*
X121367716Y-77082650D01*
X120142000Y-77082650D01*
X120142000Y-75380850D01*
X120650000Y-75380850D01*
X120650000Y-76644394D01*
G37*
X120650000Y-76644394D02*
X121007187Y-76646034D01*
X121364375Y-76647675D01*
X121366045Y-76865162D01*
X121367716Y-77082650D01*
X120142000Y-77082650D01*
X120142000Y-75380850D01*
X120650000Y-75380850D01*
X120650000Y-76644394D01*
G36*
X122872500Y-75819000D02*
G01*
X122021600Y-75819000D01*
X122021600Y-76028550D01*
X122796300Y-76028550D01*
X122796300Y-76434950D01*
X122021600Y-76434950D01*
X122021600Y-76644500D01*
X122897900Y-76644500D01*
X122897900Y-77082650D01*
X121519950Y-77082650D01*
X121519950Y-75380850D01*
X122872500Y-75380850D01*
X122872500Y-75819000D01*
G37*
X122872500Y-75819000D02*
X122021600Y-75819000D01*
X122021600Y-76028550D01*
X122796300Y-76028550D01*
X122796300Y-76434950D01*
X122021600Y-76434950D01*
X122021600Y-76644500D01*
X122897900Y-76644500D01*
X122897900Y-77082650D01*
X121519950Y-77082650D01*
X121519950Y-75380850D01*
X122872500Y-75380850D01*
X122872500Y-75819000D01*
G36*
X125119803Y-75404662D02*
G01*
X125122366Y-75414453D01*
X125127887Y-75435547D01*
X125136108Y-75466962D01*
X125146773Y-75507716D01*
X125159623Y-75556825D01*
X125174403Y-75613307D01*
X125190854Y-75676180D01*
X125208719Y-75744460D01*
X125227743Y-75817165D01*
X125247666Y-75893312D01*
X125253975Y-75917425D01*
X125273979Y-75993807D01*
X125293077Y-76066583D01*
X125311022Y-76134826D01*
X125327569Y-76197608D01*
X125342472Y-76254001D01*
X125355486Y-76303078D01*
X125366365Y-76343911D01*
X125374863Y-76375571D01*
X125380734Y-76397132D01*
X125383733Y-76407666D01*
X125384062Y-76408580D01*
X125384749Y-76408848D01*
X125385668Y-76407849D01*
X125387020Y-76404829D01*
X125389002Y-76399038D01*
X125391815Y-76389723D01*
X125395658Y-76376132D01*
X125400730Y-76357513D01*
X125407231Y-76333115D01*
X125415359Y-76302185D01*
X125425313Y-76263971D01*
X125437294Y-76217721D01*
X125451501Y-76162684D01*
X125468132Y-76098106D01*
X125487387Y-76023237D01*
X125509466Y-75937324D01*
X125525997Y-75872975D01*
X125651602Y-75384025D01*
X125913051Y-75382367D01*
X125969281Y-75382055D01*
X126021363Y-75381855D01*
X126067974Y-75381763D01*
X126107788Y-75381779D01*
X126139481Y-75381901D01*
X126161727Y-75382128D01*
X126173203Y-75382459D01*
X126174500Y-75382643D01*
X126172695Y-75388839D01*
X126167420Y-75406498D01*
X126158883Y-75434931D01*
X126147293Y-75473445D01*
X126132859Y-75521351D01*
X126115789Y-75577955D01*
X126096292Y-75642569D01*
X126074575Y-75714499D01*
X126050849Y-75793055D01*
X126025322Y-75877546D01*
X125998201Y-75967281D01*
X125969697Y-76061568D01*
X125940017Y-76159717D01*
X125918145Y-76232026D01*
X125661791Y-77079475D01*
X125091155Y-77082777D01*
X124847671Y-76239751D01*
X124818631Y-76139219D01*
X124790537Y-76041992D01*
X124763592Y-75948774D01*
X124738001Y-75860270D01*
X124713968Y-75777182D01*
X124691696Y-75700214D01*
X124671388Y-75630070D01*
X124653249Y-75567453D01*
X124637482Y-75513066D01*
X124624291Y-75467615D01*
X124613880Y-75431801D01*
X124606453Y-75406329D01*
X124602212Y-75391902D01*
X124601264Y-75388787D01*
X124602967Y-75386742D01*
X124610354Y-75385058D01*
X124624370Y-75383704D01*
X124645962Y-75382651D01*
X124676076Y-75381870D01*
X124715659Y-75381331D01*
X124765658Y-75381005D01*
X124827017Y-75380862D01*
X124855950Y-75380850D01*
X125113560Y-75380850D01*
X125119803Y-75404662D01*
G37*
X125119803Y-75404662D02*
X125122366Y-75414453D01*
X125127887Y-75435547D01*
X125136108Y-75466962D01*
X125146773Y-75507716D01*
X125159623Y-75556825D01*
X125174403Y-75613307D01*
X125190854Y-75676180D01*
X125208719Y-75744460D01*
X125227743Y-75817165D01*
X125247666Y-75893312D01*
X125253975Y-75917425D01*
X125273979Y-75993807D01*
X125293077Y-76066583D01*
X125311022Y-76134826D01*
X125327569Y-76197608D01*
X125342472Y-76254001D01*
X125355486Y-76303078D01*
X125366365Y-76343911D01*
X125374863Y-76375571D01*
X125380734Y-76397132D01*
X125383733Y-76407666D01*
X125384062Y-76408580D01*
X125384749Y-76408848D01*
X125385668Y-76407849D01*
X125387020Y-76404829D01*
X125389002Y-76399038D01*
X125391815Y-76389723D01*
X125395658Y-76376132D01*
X125400730Y-76357513D01*
X125407231Y-76333115D01*
X125415359Y-76302185D01*
X125425313Y-76263971D01*
X125437294Y-76217721D01*
X125451501Y-76162684D01*
X125468132Y-76098106D01*
X125487387Y-76023237D01*
X125509466Y-75937324D01*
X125525997Y-75872975D01*
X125651602Y-75384025D01*
X125913051Y-75382367D01*
X125969281Y-75382055D01*
X126021363Y-75381855D01*
X126067974Y-75381763D01*
X126107788Y-75381779D01*
X126139481Y-75381901D01*
X126161727Y-75382128D01*
X126173203Y-75382459D01*
X126174500Y-75382643D01*
X126172695Y-75388839D01*
X126167420Y-75406498D01*
X126158883Y-75434931D01*
X126147293Y-75473445D01*
X126132859Y-75521351D01*
X126115789Y-75577955D01*
X126096292Y-75642569D01*
X126074575Y-75714499D01*
X126050849Y-75793055D01*
X126025322Y-75877546D01*
X125998201Y-75967281D01*
X125969697Y-76061568D01*
X125940017Y-76159717D01*
X125918145Y-76232026D01*
X125661791Y-77079475D01*
X125091155Y-77082777D01*
X124847671Y-76239751D01*
X124818631Y-76139219D01*
X124790537Y-76041992D01*
X124763592Y-75948774D01*
X124738001Y-75860270D01*
X124713968Y-75777182D01*
X124691696Y-75700214D01*
X124671388Y-75630070D01*
X124653249Y-75567453D01*
X124637482Y-75513066D01*
X124624291Y-75467615D01*
X124613880Y-75431801D01*
X124606453Y-75406329D01*
X124602212Y-75391902D01*
X124601264Y-75388787D01*
X124602967Y-75386742D01*
X124610354Y-75385058D01*
X124624370Y-75383704D01*
X124645962Y-75382651D01*
X124676076Y-75381870D01*
X124715659Y-75381331D01*
X124765658Y-75381005D01*
X124827017Y-75380862D01*
X124855950Y-75380850D01*
X125113560Y-75380850D01*
X125119803Y-75404662D01*
G36*
X127596900Y-75819000D02*
G01*
X126752350Y-75819000D01*
X126752350Y-76028550D01*
X127520700Y-76028550D01*
X127520700Y-76434950D01*
X126752350Y-76434950D01*
X126752350Y-76644500D01*
X127622300Y-76644500D01*
X127622300Y-77082650D01*
X126244350Y-77082650D01*
X126244350Y-75380850D01*
X127596900Y-75380850D01*
X127596900Y-75819000D01*
G37*
X127596900Y-75819000D02*
X126752350Y-75819000D01*
X126752350Y-76028550D01*
X127520700Y-76028550D01*
X127520700Y-76434950D01*
X126752350Y-76434950D01*
X126752350Y-76644500D01*
X127622300Y-76644500D01*
X127622300Y-77082650D01*
X126244350Y-77082650D01*
X126244350Y-75380850D01*
X127596900Y-75380850D01*
X127596900Y-75819000D01*
G36*
X129235200Y-77082650D02*
G01*
X128742061Y-77082650D01*
X128492746Y-76623862D01*
X128454317Y-76553201D01*
X128417561Y-76485719D01*
X128382936Y-76422256D01*
X128350904Y-76363651D01*
X128321925Y-76310743D01*
X128296459Y-76264370D01*
X128274967Y-76225372D01*
X128257908Y-76194586D01*
X128245744Y-76172853D01*
X128238935Y-76161011D01*
X128237665Y-76159042D01*
X128236603Y-76164128D01*
X128235627Y-76181247D01*
X128234746Y-76209735D01*
X128233968Y-76248925D01*
X128233301Y-76298151D01*
X128232753Y-76356747D01*
X128232334Y-76424048D01*
X128232051Y-76499387D01*
X128231912Y-76582100D01*
X128231900Y-76617829D01*
X128231900Y-77082650D01*
X127749253Y-77082650D01*
X127750864Y-76233337D01*
X127752475Y-75384025D01*
X128012825Y-75382458D01*
X128273175Y-75380892D01*
X128507021Y-75824819D01*
X128543873Y-75894713D01*
X128579159Y-75961515D01*
X128612412Y-76024347D01*
X128643165Y-76082332D01*
X128670951Y-76134595D01*
X128695304Y-76180258D01*
X128715755Y-76218443D01*
X128731839Y-76248276D01*
X128743087Y-76268878D01*
X128749034Y-76279373D01*
X128749707Y-76280411D01*
X128751416Y-76281269D01*
X128752897Y-76278491D01*
X128754166Y-76271285D01*
X128755240Y-76258856D01*
X128756134Y-76240414D01*
X128756865Y-76215165D01*
X128757449Y-76182317D01*
X128757901Y-76141077D01*
X128758239Y-76090653D01*
X128758478Y-76030253D01*
X128758635Y-75959082D01*
X128758725Y-75876351D01*
X128758748Y-75836462D01*
X128758950Y-75380850D01*
X129235200Y-75380850D01*
X129235200Y-77082650D01*
G37*
X129235200Y-77082650D02*
X128742061Y-77082650D01*
X128492746Y-76623862D01*
X128454317Y-76553201D01*
X128417561Y-76485719D01*
X128382936Y-76422256D01*
X128350904Y-76363651D01*
X128321925Y-76310743D01*
X128296459Y-76264370D01*
X128274967Y-76225372D01*
X128257908Y-76194586D01*
X128245744Y-76172853D01*
X128238935Y-76161011D01*
X128237665Y-76159042D01*
X128236603Y-76164128D01*
X128235627Y-76181247D01*
X128234746Y-76209735D01*
X128233968Y-76248925D01*
X128233301Y-76298151D01*
X128232753Y-76356747D01*
X128232334Y-76424048D01*
X128232051Y-76499387D01*
X128231912Y-76582100D01*
X128231900Y-76617829D01*
X128231900Y-77082650D01*
X127749253Y-77082650D01*
X127750864Y-76233337D01*
X127752475Y-75384025D01*
X128012825Y-75382458D01*
X128273175Y-75380892D01*
X128507021Y-75824819D01*
X128543873Y-75894713D01*
X128579159Y-75961515D01*
X128612412Y-76024347D01*
X128643165Y-76082332D01*
X128670951Y-76134595D01*
X128695304Y-76180258D01*
X128715755Y-76218443D01*
X128731839Y-76248276D01*
X128743087Y-76268878D01*
X128749034Y-76279373D01*
X128749707Y-76280411D01*
X128751416Y-76281269D01*
X128752897Y-76278491D01*
X128754166Y-76271285D01*
X128755240Y-76258856D01*
X128756134Y-76240414D01*
X128756865Y-76215165D01*
X128757449Y-76182317D01*
X128757901Y-76141077D01*
X128758239Y-76090653D01*
X128758478Y-76030253D01*
X128758635Y-75959082D01*
X128758725Y-75876351D01*
X128758748Y-75836462D01*
X128758950Y-75380850D01*
X129235200Y-75380850D01*
X129235200Y-77082650D01*
G36*
X145831686Y-91446295D02*
G01*
X145868102Y-91448633D01*
X145902462Y-91452833D01*
X145937058Y-91459168D01*
X145970236Y-91466907D01*
X145986247Y-91471307D01*
X146004107Y-91476794D01*
X146022471Y-91482887D01*
X146039993Y-91489105D01*
X146055329Y-91494968D01*
X146067133Y-91499994D01*
X146074060Y-91503702D01*
X146074762Y-91504262D01*
X146074425Y-91507982D01*
X146071861Y-91516266D01*
X146067712Y-91527542D01*
X146062618Y-91540239D01*
X146057222Y-91552785D01*
X146052166Y-91563609D01*
X146048091Y-91571140D01*
X146046611Y-91573192D01*
X146042440Y-91573334D01*
X146034387Y-91570743D01*
X146027373Y-91567547D01*
X146010074Y-91559768D01*
X145988169Y-91551393D01*
X145963703Y-91543106D01*
X145938724Y-91535590D01*
X145915275Y-91529528D01*
X145910010Y-91528345D01*
X145854198Y-91519066D01*
X145799033Y-91515378D01*
X145745049Y-91517135D01*
X145692781Y-91524191D01*
X145642764Y-91536402D01*
X145595533Y-91553620D01*
X145551623Y-91575700D01*
X145511568Y-91602496D01*
X145475904Y-91633862D01*
X145460051Y-91651020D01*
X145428164Y-91692583D01*
X145401457Y-91737279D01*
X145379834Y-91785417D01*
X145363194Y-91837305D01*
X145351439Y-91893253D01*
X145344469Y-91953568D01*
X145342186Y-92018160D01*
X145344630Y-92083901D01*
X145351902Y-92145508D01*
X145363910Y-92202851D01*
X145380563Y-92255799D01*
X145401769Y-92304220D01*
X145427438Y-92347983D01*
X145457476Y-92386959D01*
X145491794Y-92421016D01*
X145530300Y-92450023D01*
X145572902Y-92473849D01*
X145619510Y-92492363D01*
X145670030Y-92505435D01*
X145684240Y-92508000D01*
X145734069Y-92513805D01*
X145787940Y-92515683D01*
X145844439Y-92513720D01*
X145902152Y-92508003D01*
X145959663Y-92498616D01*
X146004355Y-92488578D01*
X146036453Y-92480428D01*
X146036453Y-92549839D01*
X146011900Y-92556937D01*
X145980333Y-92565504D01*
X145950508Y-92572298D01*
X145920948Y-92577513D01*
X145890176Y-92581340D01*
X145856714Y-92583974D01*
X145819087Y-92585608D01*
X145787533Y-92586289D01*
X145764036Y-92586563D01*
X145742187Y-92586689D01*
X145723101Y-92586672D01*
X145707891Y-92586516D01*
X145697671Y-92586224D01*
X145694400Y-92585985D01*
X145686103Y-92584742D01*
X145673164Y-92582573D01*
X145657594Y-92579822D01*
X145646427Y-92577775D01*
X145591504Y-92564349D01*
X145540218Y-92545293D01*
X145492712Y-92520780D01*
X145449128Y-92490982D01*
X145409608Y-92456071D01*
X145374295Y-92416220D01*
X145343330Y-92371600D01*
X145316856Y-92322384D01*
X145295015Y-92268745D01*
X145277950Y-92210855D01*
X145265802Y-92148885D01*
X145261056Y-92111047D01*
X145259118Y-92085070D01*
X145257972Y-92054809D01*
X145257600Y-92022169D01*
X145257985Y-91989053D01*
X145259109Y-91957364D01*
X145260954Y-91929007D01*
X145262910Y-91910210D01*
X145274021Y-91846966D01*
X145290439Y-91787665D01*
X145312011Y-91732473D01*
X145338580Y-91681554D01*
X145369992Y-91635072D01*
X145406089Y-91593192D01*
X145446717Y-91556079D01*
X145491721Y-91523897D01*
X145540944Y-91496811D01*
X145594232Y-91474985D01*
X145651428Y-91458584D01*
X145698026Y-91449758D01*
X145710914Y-91448363D01*
X145728821Y-91447166D01*
X145749992Y-91446247D01*
X145772672Y-91445685D01*
X145790920Y-91445547D01*
X145831686Y-91446295D01*
G37*
X145831686Y-91446295D02*
X145868102Y-91448633D01*
X145902462Y-91452833D01*
X145937058Y-91459168D01*
X145970236Y-91466907D01*
X145986247Y-91471307D01*
X146004107Y-91476794D01*
X146022471Y-91482887D01*
X146039993Y-91489105D01*
X146055329Y-91494968D01*
X146067133Y-91499994D01*
X146074060Y-91503702D01*
X146074762Y-91504262D01*
X146074425Y-91507982D01*
X146071861Y-91516266D01*
X146067712Y-91527542D01*
X146062618Y-91540239D01*
X146057222Y-91552785D01*
X146052166Y-91563609D01*
X146048091Y-91571140D01*
X146046611Y-91573192D01*
X146042440Y-91573334D01*
X146034387Y-91570743D01*
X146027373Y-91567547D01*
X146010074Y-91559768D01*
X145988169Y-91551393D01*
X145963703Y-91543106D01*
X145938724Y-91535590D01*
X145915275Y-91529528D01*
X145910010Y-91528345D01*
X145854198Y-91519066D01*
X145799033Y-91515378D01*
X145745049Y-91517135D01*
X145692781Y-91524191D01*
X145642764Y-91536402D01*
X145595533Y-91553620D01*
X145551623Y-91575700D01*
X145511568Y-91602496D01*
X145475904Y-91633862D01*
X145460051Y-91651020D01*
X145428164Y-91692583D01*
X145401457Y-91737279D01*
X145379834Y-91785417D01*
X145363194Y-91837305D01*
X145351439Y-91893253D01*
X145344469Y-91953568D01*
X145342186Y-92018160D01*
X145344630Y-92083901D01*
X145351902Y-92145508D01*
X145363910Y-92202851D01*
X145380563Y-92255799D01*
X145401769Y-92304220D01*
X145427438Y-92347983D01*
X145457476Y-92386959D01*
X145491794Y-92421016D01*
X145530300Y-92450023D01*
X145572902Y-92473849D01*
X145619510Y-92492363D01*
X145670030Y-92505435D01*
X145684240Y-92508000D01*
X145734069Y-92513805D01*
X145787940Y-92515683D01*
X145844439Y-92513720D01*
X145902152Y-92508003D01*
X145959663Y-92498616D01*
X146004355Y-92488578D01*
X146036453Y-92480428D01*
X146036453Y-92549839D01*
X146011900Y-92556937D01*
X145980333Y-92565504D01*
X145950508Y-92572298D01*
X145920948Y-92577513D01*
X145890176Y-92581340D01*
X145856714Y-92583974D01*
X145819087Y-92585608D01*
X145787533Y-92586289D01*
X145764036Y-92586563D01*
X145742187Y-92586689D01*
X145723101Y-92586672D01*
X145707891Y-92586516D01*
X145697671Y-92586224D01*
X145694400Y-92585985D01*
X145686103Y-92584742D01*
X145673164Y-92582573D01*
X145657594Y-92579822D01*
X145646427Y-92577775D01*
X145591504Y-92564349D01*
X145540218Y-92545293D01*
X145492712Y-92520780D01*
X145449128Y-92490982D01*
X145409608Y-92456071D01*
X145374295Y-92416220D01*
X145343330Y-92371600D01*
X145316856Y-92322384D01*
X145295015Y-92268745D01*
X145277950Y-92210855D01*
X145265802Y-92148885D01*
X145261056Y-92111047D01*
X145259118Y-92085070D01*
X145257972Y-92054809D01*
X145257600Y-92022169D01*
X145257985Y-91989053D01*
X145259109Y-91957364D01*
X145260954Y-91929007D01*
X145262910Y-91910210D01*
X145274021Y-91846966D01*
X145290439Y-91787665D01*
X145312011Y-91732473D01*
X145338580Y-91681554D01*
X145369992Y-91635072D01*
X145406089Y-91593192D01*
X145446717Y-91556079D01*
X145491721Y-91523897D01*
X145540944Y-91496811D01*
X145594232Y-91474985D01*
X145651428Y-91458584D01*
X145698026Y-91449758D01*
X145710914Y-91448363D01*
X145728821Y-91447166D01*
X145749992Y-91446247D01*
X145772672Y-91445685D01*
X145790920Y-91445547D01*
X145831686Y-91446295D01*
G36*
X146982371Y-91445363D02*
G01*
X147004952Y-91445761D01*
X147023200Y-91446542D01*
X147038333Y-91447774D01*
X147051569Y-91449524D01*
X147060920Y-91451206D01*
X147113395Y-91463962D01*
X147160867Y-91480570D01*
X147204182Y-91501466D01*
X147244187Y-91527087D01*
X147281728Y-91557870D01*
X147298079Y-91573557D01*
X147335302Y-91615678D01*
X147367378Y-91662162D01*
X147394309Y-91713017D01*
X147416099Y-91768255D01*
X147432751Y-91827885D01*
X147444268Y-91891917D01*
X147450655Y-91960360D01*
X147452080Y-92014269D01*
X147449490Y-92086099D01*
X147441728Y-92153673D01*
X147428803Y-92216962D01*
X147410726Y-92275937D01*
X147387507Y-92330568D01*
X147359157Y-92380827D01*
X147325685Y-92426685D01*
X147295823Y-92459586D01*
X147256137Y-92494784D01*
X147212903Y-92524304D01*
X147166067Y-92548167D01*
X147115573Y-92566393D01*
X147061366Y-92579002D01*
X147003392Y-92586014D01*
X146949248Y-92587572D01*
X146931086Y-92587300D01*
X146914563Y-92586910D01*
X146901262Y-92586449D01*
X146892763Y-92585964D01*
X146891586Y-92585846D01*
X146832696Y-92575877D01*
X146777994Y-92560590D01*
X146727451Y-92539963D01*
X146681036Y-92513975D01*
X146638719Y-92482607D01*
X146600469Y-92445838D01*
X146566255Y-92403646D01*
X146536047Y-92356013D01*
X146527520Y-92340192D01*
X146504822Y-92289853D01*
X146486365Y-92234924D01*
X146472290Y-92176208D01*
X146462737Y-92114504D01*
X146457845Y-92050613D01*
X146457797Y-92015733D01*
X146544453Y-92015733D01*
X146546373Y-92081559D01*
X146552200Y-92142081D01*
X146562032Y-92197597D01*
X146575969Y-92248406D01*
X146594109Y-92294805D01*
X146616553Y-92337092D01*
X146643399Y-92375566D01*
X146674746Y-92410525D01*
X146676216Y-92411973D01*
X146711784Y-92442613D01*
X146750356Y-92467598D01*
X146792387Y-92487145D01*
X146838331Y-92501470D01*
X146881426Y-92509795D01*
X146899818Y-92511639D01*
X146922952Y-92512720D01*
X146948845Y-92513056D01*
X146975511Y-92512665D01*
X147000965Y-92511563D01*
X147023221Y-92509770D01*
X147033768Y-92508437D01*
X147084451Y-92497842D01*
X147130954Y-92481938D01*
X147173332Y-92460683D01*
X147211644Y-92434030D01*
X147245947Y-92401935D01*
X147276297Y-92364354D01*
X147302751Y-92321241D01*
X147320917Y-92283280D01*
X147336871Y-92239378D01*
X147349530Y-92190632D01*
X147358838Y-92138147D01*
X147364735Y-92083028D01*
X147367163Y-92026381D01*
X147366064Y-91969313D01*
X147361379Y-91912928D01*
X147353050Y-91858333D01*
X147345227Y-91822601D01*
X147330139Y-91772060D01*
X147311155Y-91726584D01*
X147287889Y-91685445D01*
X147259955Y-91647915D01*
X147242361Y-91628444D01*
X147208812Y-91597590D01*
X147172696Y-91572156D01*
X147133570Y-91551974D01*
X147090990Y-91536876D01*
X147044511Y-91526695D01*
X146993688Y-91521262D01*
X146955933Y-91520194D01*
X146917818Y-91521095D01*
X146884259Y-91523991D01*
X146853255Y-91529174D01*
X146822808Y-91536937D01*
X146807052Y-91541915D01*
X146762461Y-91560305D01*
X146721354Y-91584390D01*
X146684005Y-91613896D01*
X146650693Y-91648553D01*
X146621691Y-91688089D01*
X146597278Y-91732232D01*
X146585126Y-91760357D01*
X146571170Y-91800469D01*
X146560337Y-91841868D01*
X146552451Y-91885670D01*
X146547332Y-91932992D01*
X146544804Y-91984951D01*
X146544453Y-92015733D01*
X146457797Y-92015733D01*
X146457755Y-91985337D01*
X146459624Y-91951482D01*
X146466915Y-91884874D01*
X146478532Y-91823292D01*
X146494580Y-91766462D01*
X146515166Y-91714111D01*
X146540396Y-91665966D01*
X146570377Y-91621753D01*
X146602674Y-91583863D01*
X146640343Y-91548174D01*
X146680766Y-91517999D01*
X146724561Y-91492999D01*
X146772347Y-91472838D01*
X146824741Y-91457178D01*
X146842480Y-91453085D01*
X146855361Y-91450479D01*
X146867438Y-91448523D01*
X146880028Y-91447125D01*
X146894450Y-91446193D01*
X146912022Y-91445635D01*
X146934063Y-91445359D01*
X146954240Y-91445281D01*
X146982371Y-91445363D01*
G37*
X146982371Y-91445363D02*
X147004952Y-91445761D01*
X147023200Y-91446542D01*
X147038333Y-91447774D01*
X147051569Y-91449524D01*
X147060920Y-91451206D01*
X147113395Y-91463962D01*
X147160867Y-91480570D01*
X147204182Y-91501466D01*
X147244187Y-91527087D01*
X147281728Y-91557870D01*
X147298079Y-91573557D01*
X147335302Y-91615678D01*
X147367378Y-91662162D01*
X147394309Y-91713017D01*
X147416099Y-91768255D01*
X147432751Y-91827885D01*
X147444268Y-91891917D01*
X147450655Y-91960360D01*
X147452080Y-92014269D01*
X147449490Y-92086099D01*
X147441728Y-92153673D01*
X147428803Y-92216962D01*
X147410726Y-92275937D01*
X147387507Y-92330568D01*
X147359157Y-92380827D01*
X147325685Y-92426685D01*
X147295823Y-92459586D01*
X147256137Y-92494784D01*
X147212903Y-92524304D01*
X147166067Y-92548167D01*
X147115573Y-92566393D01*
X147061366Y-92579002D01*
X147003392Y-92586014D01*
X146949248Y-92587572D01*
X146931086Y-92587300D01*
X146914563Y-92586910D01*
X146901262Y-92586449D01*
X146892763Y-92585964D01*
X146891586Y-92585846D01*
X146832696Y-92575877D01*
X146777994Y-92560590D01*
X146727451Y-92539963D01*
X146681036Y-92513975D01*
X146638719Y-92482607D01*
X146600469Y-92445838D01*
X146566255Y-92403646D01*
X146536047Y-92356013D01*
X146527520Y-92340192D01*
X146504822Y-92289853D01*
X146486365Y-92234924D01*
X146472290Y-92176208D01*
X146462737Y-92114504D01*
X146457845Y-92050613D01*
X146457797Y-92015733D01*
X146544453Y-92015733D01*
X146546373Y-92081559D01*
X146552200Y-92142081D01*
X146562032Y-92197597D01*
X146575969Y-92248406D01*
X146594109Y-92294805D01*
X146616553Y-92337092D01*
X146643399Y-92375566D01*
X146674746Y-92410525D01*
X146676216Y-92411973D01*
X146711784Y-92442613D01*
X146750356Y-92467598D01*
X146792387Y-92487145D01*
X146838331Y-92501470D01*
X146881426Y-92509795D01*
X146899818Y-92511639D01*
X146922952Y-92512720D01*
X146948845Y-92513056D01*
X146975511Y-92512665D01*
X147000965Y-92511563D01*
X147023221Y-92509770D01*
X147033768Y-92508437D01*
X147084451Y-92497842D01*
X147130954Y-92481938D01*
X147173332Y-92460683D01*
X147211644Y-92434030D01*
X147245947Y-92401935D01*
X147276297Y-92364354D01*
X147302751Y-92321241D01*
X147320917Y-92283280D01*
X147336871Y-92239378D01*
X147349530Y-92190632D01*
X147358838Y-92138147D01*
X147364735Y-92083028D01*
X147367163Y-92026381D01*
X147366064Y-91969313D01*
X147361379Y-91912928D01*
X147353050Y-91858333D01*
X147345227Y-91822601D01*
X147330139Y-91772060D01*
X147311155Y-91726584D01*
X147287889Y-91685445D01*
X147259955Y-91647915D01*
X147242361Y-91628444D01*
X147208812Y-91597590D01*
X147172696Y-91572156D01*
X147133570Y-91551974D01*
X147090990Y-91536876D01*
X147044511Y-91526695D01*
X146993688Y-91521262D01*
X146955933Y-91520194D01*
X146917818Y-91521095D01*
X146884259Y-91523991D01*
X146853255Y-91529174D01*
X146822808Y-91536937D01*
X146807052Y-91541915D01*
X146762461Y-91560305D01*
X146721354Y-91584390D01*
X146684005Y-91613896D01*
X146650693Y-91648553D01*
X146621691Y-91688089D01*
X146597278Y-91732232D01*
X146585126Y-91760357D01*
X146571170Y-91800469D01*
X146560337Y-91841868D01*
X146552451Y-91885670D01*
X146547332Y-91932992D01*
X146544804Y-91984951D01*
X146544453Y-92015733D01*
X146457797Y-92015733D01*
X146457755Y-91985337D01*
X146459624Y-91951482D01*
X146466915Y-91884874D01*
X146478532Y-91823292D01*
X146494580Y-91766462D01*
X146515166Y-91714111D01*
X146540396Y-91665966D01*
X146570377Y-91621753D01*
X146602674Y-91583863D01*
X146640343Y-91548174D01*
X146680766Y-91517999D01*
X146724561Y-91492999D01*
X146772347Y-91472838D01*
X146824741Y-91457178D01*
X146842480Y-91453085D01*
X146855361Y-91450479D01*
X146867438Y-91448523D01*
X146880028Y-91447125D01*
X146894450Y-91446193D01*
X146912022Y-91445635D01*
X146934063Y-91445359D01*
X146954240Y-91445281D01*
X146982371Y-91445363D01*
G36*
X140271500Y-91461242D02*
G01*
X140315747Y-91461590D01*
X140353894Y-91461960D01*
X140386613Y-91462402D01*
X140414575Y-91462963D01*
X140438454Y-91463692D01*
X140458921Y-91464638D01*
X140476650Y-91465847D01*
X140492311Y-91467370D01*
X140506579Y-91469254D01*
X140520125Y-91471547D01*
X140533622Y-91474297D01*
X140547741Y-91477554D01*
X140563156Y-91481365D01*
X140567760Y-91482529D01*
X140622293Y-91499500D01*
X140672732Y-91521662D01*
X140718892Y-91548874D01*
X140760588Y-91580992D01*
X140797635Y-91617872D01*
X140829849Y-91659372D01*
X140857045Y-91705348D01*
X140858161Y-91707546D01*
X140877828Y-91751129D01*
X140893445Y-91796199D01*
X140905199Y-91843678D01*
X140913281Y-91894488D01*
X140917881Y-91949549D01*
X140919199Y-92004186D01*
X140917495Y-92068217D01*
X140912278Y-92126984D01*
X140903392Y-92181110D01*
X140890679Y-92231214D01*
X140873982Y-92277917D01*
X140853146Y-92321839D01*
X140828647Y-92362652D01*
X140797128Y-92403966D01*
X140760395Y-92441216D01*
X140718832Y-92474157D01*
X140672820Y-92502540D01*
X140622744Y-92526119D01*
X140568985Y-92544646D01*
X140532653Y-92553775D01*
X140514608Y-92557578D01*
X140497842Y-92560816D01*
X140481603Y-92563541D01*
X140465137Y-92565808D01*
X140447691Y-92567667D01*
X140428513Y-92569171D01*
X140406849Y-92570374D01*
X140381946Y-92571328D01*
X140353051Y-92572085D01*
X140319412Y-92572699D01*
X140280275Y-92573221D01*
X140249486Y-92573557D01*
X140075920Y-92575341D01*
X140075920Y-92504094D01*
X140153813Y-92504094D01*
X140293513Y-92502428D01*
X140329221Y-92501970D01*
X140358950Y-92501497D01*
X140383494Y-92500972D01*
X140403649Y-92500355D01*
X140420208Y-92499608D01*
X140433965Y-92498691D01*
X140445717Y-92497567D01*
X140456255Y-92496196D01*
X140466377Y-92494540D01*
X140470466Y-92493793D01*
X140527620Y-92480626D01*
X140579391Y-92463445D01*
X140625954Y-92442102D01*
X140667487Y-92416451D01*
X140704164Y-92386346D01*
X140736163Y-92351641D01*
X140763659Y-92312188D01*
X140786829Y-92267843D01*
X140805849Y-92218459D01*
X140807245Y-92214134D01*
X140814946Y-92188270D01*
X140821013Y-92163666D01*
X140825613Y-92138989D01*
X140828915Y-92112911D01*
X140831086Y-92084099D01*
X140832295Y-92051224D01*
X140832708Y-92012954D01*
X140832709Y-92012346D01*
X140832624Y-91980500D01*
X140832175Y-91954076D01*
X140831229Y-91931727D01*
X140829652Y-91912105D01*
X140827311Y-91893864D01*
X140824073Y-91875655D01*
X140819803Y-91856131D01*
X140815501Y-91838441D01*
X140799550Y-91786894D01*
X140778669Y-91739872D01*
X140752923Y-91697461D01*
X140722375Y-91659745D01*
X140687090Y-91626809D01*
X140647132Y-91598739D01*
X140625336Y-91586512D01*
X140602416Y-91575152D01*
X140580244Y-91565403D01*
X140558073Y-91557138D01*
X140535157Y-91550228D01*
X140510746Y-91544547D01*
X140484093Y-91539967D01*
X140454450Y-91536361D01*
X140421071Y-91533600D01*
X140383206Y-91531559D01*
X140340108Y-91530108D01*
X140291030Y-91529121D01*
X140288433Y-91529082D01*
X140153813Y-91527085D01*
X140153813Y-92504094D01*
X140075920Y-92504094D01*
X140075920Y-91459792D01*
X140271500Y-91461242D01*
G37*
X140271500Y-91461242D02*
X140315747Y-91461590D01*
X140353894Y-91461960D01*
X140386613Y-91462402D01*
X140414575Y-91462963D01*
X140438454Y-91463692D01*
X140458921Y-91464638D01*
X140476650Y-91465847D01*
X140492311Y-91467370D01*
X140506579Y-91469254D01*
X140520125Y-91471547D01*
X140533622Y-91474297D01*
X140547741Y-91477554D01*
X140563156Y-91481365D01*
X140567760Y-91482529D01*
X140622293Y-91499500D01*
X140672732Y-91521662D01*
X140718892Y-91548874D01*
X140760588Y-91580992D01*
X140797635Y-91617872D01*
X140829849Y-91659372D01*
X140857045Y-91705348D01*
X140858161Y-91707546D01*
X140877828Y-91751129D01*
X140893445Y-91796199D01*
X140905199Y-91843678D01*
X140913281Y-91894488D01*
X140917881Y-91949549D01*
X140919199Y-92004186D01*
X140917495Y-92068217D01*
X140912278Y-92126984D01*
X140903392Y-92181110D01*
X140890679Y-92231214D01*
X140873982Y-92277917D01*
X140853146Y-92321839D01*
X140828647Y-92362652D01*
X140797128Y-92403966D01*
X140760395Y-92441216D01*
X140718832Y-92474157D01*
X140672820Y-92502540D01*
X140622744Y-92526119D01*
X140568985Y-92544646D01*
X140532653Y-92553775D01*
X140514608Y-92557578D01*
X140497842Y-92560816D01*
X140481603Y-92563541D01*
X140465137Y-92565808D01*
X140447691Y-92567667D01*
X140428513Y-92569171D01*
X140406849Y-92570374D01*
X140381946Y-92571328D01*
X140353051Y-92572085D01*
X140319412Y-92572699D01*
X140280275Y-92573221D01*
X140249486Y-92573557D01*
X140075920Y-92575341D01*
X140075920Y-92504094D01*
X140153813Y-92504094D01*
X140293513Y-92502428D01*
X140329221Y-92501970D01*
X140358950Y-92501497D01*
X140383494Y-92500972D01*
X140403649Y-92500355D01*
X140420208Y-92499608D01*
X140433965Y-92498691D01*
X140445717Y-92497567D01*
X140456255Y-92496196D01*
X140466377Y-92494540D01*
X140470466Y-92493793D01*
X140527620Y-92480626D01*
X140579391Y-92463445D01*
X140625954Y-92442102D01*
X140667487Y-92416451D01*
X140704164Y-92386346D01*
X140736163Y-92351641D01*
X140763659Y-92312188D01*
X140786829Y-92267843D01*
X140805849Y-92218459D01*
X140807245Y-92214134D01*
X140814946Y-92188270D01*
X140821013Y-92163666D01*
X140825613Y-92138989D01*
X140828915Y-92112911D01*
X140831086Y-92084099D01*
X140832295Y-92051224D01*
X140832708Y-92012954D01*
X140832709Y-92012346D01*
X140832624Y-91980500D01*
X140832175Y-91954076D01*
X140831229Y-91931727D01*
X140829652Y-91912105D01*
X140827311Y-91893864D01*
X140824073Y-91875655D01*
X140819803Y-91856131D01*
X140815501Y-91838441D01*
X140799550Y-91786894D01*
X140778669Y-91739872D01*
X140752923Y-91697461D01*
X140722375Y-91659745D01*
X140687090Y-91626809D01*
X140647132Y-91598739D01*
X140625336Y-91586512D01*
X140602416Y-91575152D01*
X140580244Y-91565403D01*
X140558073Y-91557138D01*
X140535157Y-91550228D01*
X140510746Y-91544547D01*
X140484093Y-91539967D01*
X140454450Y-91536361D01*
X140421071Y-91533600D01*
X140383206Y-91531559D01*
X140340108Y-91530108D01*
X140291030Y-91529121D01*
X140288433Y-91529082D01*
X140153813Y-91527085D01*
X140153813Y-92504094D01*
X140075920Y-92504094D01*
X140075920Y-91459792D01*
X140271500Y-91461242D01*
G36*
X141565206Y-91460331D02*
G01*
X141598637Y-91460413D01*
X141631362Y-91460644D01*
X141662467Y-91461005D01*
X141691039Y-91461481D01*
X141716162Y-91462055D01*
X141736923Y-91462709D01*
X141752406Y-91463427D01*
X141759093Y-91463910D01*
X141809306Y-91470379D01*
X141856034Y-91480171D01*
X141898485Y-91493064D01*
X141935869Y-91508836D01*
X141953323Y-91518267D01*
X141972032Y-91531092D01*
X141991771Y-91547656D01*
X142010931Y-91566353D01*
X142027905Y-91585573D01*
X142041084Y-91603709D01*
X142044409Y-91609333D01*
X142060199Y-91644466D01*
X142071505Y-91683421D01*
X142078269Y-91724891D01*
X142080433Y-91767568D01*
X142077938Y-91810148D01*
X142070726Y-91851323D01*
X142058739Y-91889786D01*
X142057102Y-91893855D01*
X142038100Y-91931182D01*
X142013449Y-91964959D01*
X141983395Y-91994967D01*
X141948184Y-92020993D01*
X141908062Y-92042819D01*
X141870169Y-92057947D01*
X141858604Y-92062389D01*
X141850208Y-92066573D01*
X141846472Y-92069729D01*
X141846425Y-92070215D01*
X141848270Y-92073644D01*
X141853335Y-92082455D01*
X141861365Y-92096217D01*
X141872105Y-92114500D01*
X141885301Y-92136872D01*
X141900696Y-92162902D01*
X141918037Y-92192158D01*
X141937068Y-92224210D01*
X141957535Y-92258626D01*
X141979182Y-92294975D01*
X141994591Y-92320820D01*
X142016883Y-92358230D01*
X142038148Y-92393997D01*
X142058135Y-92427689D01*
X142076589Y-92458877D01*
X142093258Y-92487131D01*
X142107890Y-92512020D01*
X142120230Y-92533115D01*
X142130026Y-92549985D01*
X142137024Y-92562199D01*
X142140973Y-92569329D01*
X142141786Y-92571058D01*
X142138485Y-92572589D01*
X142128904Y-92573701D01*
X142113525Y-92574359D01*
X142096858Y-92574533D01*
X142051930Y-92574533D01*
X141766370Y-92091933D01*
X141627265Y-92091049D01*
X141488160Y-92090164D01*
X141488160Y-92574533D01*
X141410266Y-92574533D01*
X141410266Y-91774715D01*
X141488160Y-91774715D01*
X141488190Y-91814706D01*
X141488279Y-91852710D01*
X141488421Y-91888185D01*
X141488610Y-91920591D01*
X141488843Y-91949384D01*
X141489114Y-91974024D01*
X141489418Y-91993970D01*
X141489750Y-92008679D01*
X141490106Y-92017609D01*
X141490417Y-92020248D01*
X141494459Y-92020979D01*
X141504354Y-92021555D01*
X141519186Y-92021982D01*
X141538036Y-92022264D01*
X141559988Y-92022403D01*
X141584123Y-92022406D01*
X141609524Y-92022274D01*
X141635273Y-92022014D01*
X141660453Y-92021628D01*
X141684146Y-92021121D01*
X141705434Y-92020497D01*
X141723401Y-92019761D01*
X141733729Y-92019165D01*
X141779904Y-92014227D01*
X141820636Y-92005975D01*
X141856502Y-91994191D01*
X141888084Y-91978656D01*
X141915961Y-91959153D01*
X141931959Y-91944654D01*
X141951871Y-91922586D01*
X141967026Y-91900153D01*
X141978743Y-91875103D01*
X141986617Y-91851361D01*
X141989750Y-91839506D01*
X141991923Y-91828299D01*
X141993296Y-91816064D01*
X141994031Y-91801123D01*
X141994291Y-91781799D01*
X141994297Y-91771893D01*
X141994105Y-91749958D01*
X141993500Y-91733103D01*
X141992318Y-91719641D01*
X141990394Y-91707883D01*
X141987563Y-91696140D01*
X141986529Y-91692425D01*
X141974565Y-91658882D01*
X141958904Y-91630075D01*
X141939097Y-91605619D01*
X141914700Y-91585126D01*
X141885264Y-91568209D01*
X141850344Y-91554482D01*
X141816666Y-91545183D01*
X141799345Y-91541544D01*
X141780829Y-91538556D01*
X141760319Y-91536167D01*
X141737017Y-91534327D01*
X141710126Y-91532986D01*
X141678847Y-91532092D01*
X141642383Y-91531594D01*
X141600766Y-91531442D01*
X141488160Y-91531440D01*
X141488160Y-91774715D01*
X141410266Y-91774715D01*
X141410266Y-91460320D01*
X141565206Y-91460331D01*
G37*
X141565206Y-91460331D02*
X141598637Y-91460413D01*
X141631362Y-91460644D01*
X141662467Y-91461005D01*
X141691039Y-91461481D01*
X141716162Y-91462055D01*
X141736923Y-91462709D01*
X141752406Y-91463427D01*
X141759093Y-91463910D01*
X141809306Y-91470379D01*
X141856034Y-91480171D01*
X141898485Y-91493064D01*
X141935869Y-91508836D01*
X141953323Y-91518267D01*
X141972032Y-91531092D01*
X141991771Y-91547656D01*
X142010931Y-91566353D01*
X142027905Y-91585573D01*
X142041084Y-91603709D01*
X142044409Y-91609333D01*
X142060199Y-91644466D01*
X142071505Y-91683421D01*
X142078269Y-91724891D01*
X142080433Y-91767568D01*
X142077938Y-91810148D01*
X142070726Y-91851323D01*
X142058739Y-91889786D01*
X142057102Y-91893855D01*
X142038100Y-91931182D01*
X142013449Y-91964959D01*
X141983395Y-91994967D01*
X141948184Y-92020993D01*
X141908062Y-92042819D01*
X141870169Y-92057947D01*
X141858604Y-92062389D01*
X141850208Y-92066573D01*
X141846472Y-92069729D01*
X141846425Y-92070215D01*
X141848270Y-92073644D01*
X141853335Y-92082455D01*
X141861365Y-92096217D01*
X141872105Y-92114500D01*
X141885301Y-92136872D01*
X141900696Y-92162902D01*
X141918037Y-92192158D01*
X141937068Y-92224210D01*
X141957535Y-92258626D01*
X141979182Y-92294975D01*
X141994591Y-92320820D01*
X142016883Y-92358230D01*
X142038148Y-92393997D01*
X142058135Y-92427689D01*
X142076589Y-92458877D01*
X142093258Y-92487131D01*
X142107890Y-92512020D01*
X142120230Y-92533115D01*
X142130026Y-92549985D01*
X142137024Y-92562199D01*
X142140973Y-92569329D01*
X142141786Y-92571058D01*
X142138485Y-92572589D01*
X142128904Y-92573701D01*
X142113525Y-92574359D01*
X142096858Y-92574533D01*
X142051930Y-92574533D01*
X141766370Y-92091933D01*
X141627265Y-92091049D01*
X141488160Y-92090164D01*
X141488160Y-92574533D01*
X141410266Y-92574533D01*
X141410266Y-91774715D01*
X141488160Y-91774715D01*
X141488190Y-91814706D01*
X141488279Y-91852710D01*
X141488421Y-91888185D01*
X141488610Y-91920591D01*
X141488843Y-91949384D01*
X141489114Y-91974024D01*
X141489418Y-91993970D01*
X141489750Y-92008679D01*
X141490106Y-92017609D01*
X141490417Y-92020248D01*
X141494459Y-92020979D01*
X141504354Y-92021555D01*
X141519186Y-92021982D01*
X141538036Y-92022264D01*
X141559988Y-92022403D01*
X141584123Y-92022406D01*
X141609524Y-92022274D01*
X141635273Y-92022014D01*
X141660453Y-92021628D01*
X141684146Y-92021121D01*
X141705434Y-92020497D01*
X141723401Y-92019761D01*
X141733729Y-92019165D01*
X141779904Y-92014227D01*
X141820636Y-92005975D01*
X141856502Y-91994191D01*
X141888084Y-91978656D01*
X141915961Y-91959153D01*
X141931959Y-91944654D01*
X141951871Y-91922586D01*
X141967026Y-91900153D01*
X141978743Y-91875103D01*
X141986617Y-91851361D01*
X141989750Y-91839506D01*
X141991923Y-91828299D01*
X141993296Y-91816064D01*
X141994031Y-91801123D01*
X141994291Y-91781799D01*
X141994297Y-91771893D01*
X141994105Y-91749958D01*
X141993500Y-91733103D01*
X141992318Y-91719641D01*
X141990394Y-91707883D01*
X141987563Y-91696140D01*
X141986529Y-91692425D01*
X141974565Y-91658882D01*
X141958904Y-91630075D01*
X141939097Y-91605619D01*
X141914700Y-91585126D01*
X141885264Y-91568209D01*
X141850344Y-91554482D01*
X141816666Y-91545183D01*
X141799345Y-91541544D01*
X141780829Y-91538556D01*
X141760319Y-91536167D01*
X141737017Y-91534327D01*
X141710126Y-91532986D01*
X141678847Y-91532092D01*
X141642383Y-91531594D01*
X141600766Y-91531442D01*
X141488160Y-91531440D01*
X141488160Y-91774715D01*
X141410266Y-91774715D01*
X141410266Y-91460320D01*
X141565206Y-91460331D01*
G36*
X142899262Y-91457451D02*
G01*
X142908324Y-91458973D01*
X142911483Y-91461227D01*
X142912876Y-91464789D01*
X142916617Y-91474332D01*
X142922578Y-91489535D01*
X142930633Y-91510073D01*
X142940654Y-91535623D01*
X142952516Y-91565863D01*
X142966091Y-91600470D01*
X142981253Y-91639119D01*
X142997874Y-91681488D01*
X143015828Y-91727253D01*
X143034989Y-91776092D01*
X143055229Y-91827681D01*
X143076421Y-91881697D01*
X143098439Y-91937817D01*
X143121157Y-91995717D01*
X143128535Y-92014523D01*
X143151457Y-92072944D01*
X143173725Y-92129701D01*
X143195212Y-92184468D01*
X143215791Y-92236922D01*
X143235335Y-92286739D01*
X143253716Y-92333594D01*
X143270808Y-92377163D01*
X143286483Y-92417122D01*
X143300614Y-92453147D01*
X143313074Y-92484913D01*
X143323735Y-92512098D01*
X143332472Y-92534376D01*
X143339156Y-92551423D01*
X143343660Y-92562916D01*
X143345858Y-92568529D01*
X143346052Y-92569028D01*
X143346277Y-92571282D01*
X143344256Y-92572827D01*
X143338994Y-92573794D01*
X143329497Y-92574312D01*
X143314771Y-92574511D01*
X143304029Y-92574533D01*
X143259893Y-92574533D01*
X143219495Y-92472086D01*
X143207273Y-92441077D01*
X143193679Y-92406562D01*
X143179499Y-92370538D01*
X143165519Y-92335001D01*
X143152524Y-92301947D01*
X143142195Y-92275652D01*
X143105293Y-92181664D01*
X142878983Y-92182518D01*
X142652674Y-92183373D01*
X142575725Y-92378106D01*
X142498776Y-92572840D01*
X142455345Y-92573790D01*
X142437544Y-92574118D01*
X142425493Y-92574098D01*
X142418172Y-92573603D01*
X142414560Y-92572509D01*
X142413638Y-92570690D01*
X142414121Y-92568710D01*
X142415593Y-92564972D01*
X142419450Y-92555267D01*
X142425563Y-92539916D01*
X142433804Y-92519242D01*
X142444043Y-92493568D01*
X142456153Y-92463214D01*
X142470005Y-92428504D01*
X142485470Y-92389759D01*
X142502419Y-92347303D01*
X142520725Y-92301456D01*
X142540257Y-92252542D01*
X142560889Y-92200882D01*
X142582491Y-92146799D01*
X142598835Y-92105882D01*
X142684490Y-92105882D01*
X142685421Y-92106943D01*
X142687846Y-92107830D01*
X142692271Y-92108560D01*
X142699200Y-92109147D01*
X142709139Y-92109607D01*
X142722593Y-92109956D01*
X142740067Y-92110208D01*
X142762067Y-92110378D01*
X142789097Y-92110484D01*
X142821664Y-92110538D01*
X142860272Y-92110558D01*
X142879685Y-92110560D01*
X142919555Y-92110507D01*
X142955921Y-92110356D01*
X142988341Y-92110111D01*
X143016378Y-92109781D01*
X143039590Y-92109372D01*
X143057537Y-92108892D01*
X143069781Y-92108346D01*
X143075881Y-92107742D01*
X143076506Y-92107465D01*
X143075340Y-92103863D01*
X143071969Y-92094434D01*
X143066582Y-92079688D01*
X143059367Y-92060132D01*
X143050515Y-92036276D01*
X143040214Y-92008630D01*
X143028654Y-91977701D01*
X143016023Y-91943999D01*
X143002512Y-91908033D01*
X142990575Y-91876325D01*
X142976107Y-91837871D01*
X142962095Y-91800515D01*
X142948762Y-91764860D01*
X142936332Y-91731508D01*
X142925027Y-91701060D01*
X142915071Y-91674120D01*
X142906687Y-91651289D01*
X142900098Y-91633168D01*
X142895528Y-91620361D01*
X142893655Y-91614897D01*
X142882666Y-91581514D01*
X142864790Y-91635217D01*
X142860347Y-91647988D01*
X142853685Y-91666335D01*
X142845078Y-91689537D01*
X142834802Y-91716872D01*
X142823129Y-91747617D01*
X142810334Y-91781052D01*
X142796692Y-91816453D01*
X142782476Y-91853101D01*
X142767960Y-91890272D01*
X142766573Y-91893813D01*
X142752661Y-91929316D01*
X142739462Y-91963048D01*
X142727187Y-91994466D01*
X142716047Y-92023026D01*
X142706254Y-92048185D01*
X142698020Y-92069398D01*
X142691557Y-92086121D01*
X142687075Y-92097811D01*
X142684787Y-92103924D01*
X142684547Y-92104633D01*
X142684490Y-92105882D01*
X142598835Y-92105882D01*
X142604934Y-92090614D01*
X142628090Y-92032651D01*
X142637197Y-92009856D01*
X142858066Y-91457032D01*
X142883950Y-91456982D01*
X142899262Y-91457451D01*
G37*
X142899262Y-91457451D02*
X142908324Y-91458973D01*
X142911483Y-91461227D01*
X142912876Y-91464789D01*
X142916617Y-91474332D01*
X142922578Y-91489535D01*
X142930633Y-91510073D01*
X142940654Y-91535623D01*
X142952516Y-91565863D01*
X142966091Y-91600470D01*
X142981253Y-91639119D01*
X142997874Y-91681488D01*
X143015828Y-91727253D01*
X143034989Y-91776092D01*
X143055229Y-91827681D01*
X143076421Y-91881697D01*
X143098439Y-91937817D01*
X143121157Y-91995717D01*
X143128535Y-92014523D01*
X143151457Y-92072944D01*
X143173725Y-92129701D01*
X143195212Y-92184468D01*
X143215791Y-92236922D01*
X143235335Y-92286739D01*
X143253716Y-92333594D01*
X143270808Y-92377163D01*
X143286483Y-92417122D01*
X143300614Y-92453147D01*
X143313074Y-92484913D01*
X143323735Y-92512098D01*
X143332472Y-92534376D01*
X143339156Y-92551423D01*
X143343660Y-92562916D01*
X143345858Y-92568529D01*
X143346052Y-92569028D01*
X143346277Y-92571282D01*
X143344256Y-92572827D01*
X143338994Y-92573794D01*
X143329497Y-92574312D01*
X143314771Y-92574511D01*
X143304029Y-92574533D01*
X143259893Y-92574533D01*
X143219495Y-92472086D01*
X143207273Y-92441077D01*
X143193679Y-92406562D01*
X143179499Y-92370538D01*
X143165519Y-92335001D01*
X143152524Y-92301947D01*
X143142195Y-92275652D01*
X143105293Y-92181664D01*
X142878983Y-92182518D01*
X142652674Y-92183373D01*
X142575725Y-92378106D01*
X142498776Y-92572840D01*
X142455345Y-92573790D01*
X142437544Y-92574118D01*
X142425493Y-92574098D01*
X142418172Y-92573603D01*
X142414560Y-92572509D01*
X142413638Y-92570690D01*
X142414121Y-92568710D01*
X142415593Y-92564972D01*
X142419450Y-92555267D01*
X142425563Y-92539916D01*
X142433804Y-92519242D01*
X142444043Y-92493568D01*
X142456153Y-92463214D01*
X142470005Y-92428504D01*
X142485470Y-92389759D01*
X142502419Y-92347303D01*
X142520725Y-92301456D01*
X142540257Y-92252542D01*
X142560889Y-92200882D01*
X142582491Y-92146799D01*
X142598835Y-92105882D01*
X142684490Y-92105882D01*
X142685421Y-92106943D01*
X142687846Y-92107830D01*
X142692271Y-92108560D01*
X142699200Y-92109147D01*
X142709139Y-92109607D01*
X142722593Y-92109956D01*
X142740067Y-92110208D01*
X142762067Y-92110378D01*
X142789097Y-92110484D01*
X142821664Y-92110538D01*
X142860272Y-92110558D01*
X142879685Y-92110560D01*
X142919555Y-92110507D01*
X142955921Y-92110356D01*
X142988341Y-92110111D01*
X143016378Y-92109781D01*
X143039590Y-92109372D01*
X143057537Y-92108892D01*
X143069781Y-92108346D01*
X143075881Y-92107742D01*
X143076506Y-92107465D01*
X143075340Y-92103863D01*
X143071969Y-92094434D01*
X143066582Y-92079688D01*
X143059367Y-92060132D01*
X143050515Y-92036276D01*
X143040214Y-92008630D01*
X143028654Y-91977701D01*
X143016023Y-91943999D01*
X143002512Y-91908033D01*
X142990575Y-91876325D01*
X142976107Y-91837871D01*
X142962095Y-91800515D01*
X142948762Y-91764860D01*
X142936332Y-91731508D01*
X142925027Y-91701060D01*
X142915071Y-91674120D01*
X142906687Y-91651289D01*
X142900098Y-91633168D01*
X142895528Y-91620361D01*
X142893655Y-91614897D01*
X142882666Y-91581514D01*
X142864790Y-91635217D01*
X142860347Y-91647988D01*
X142853685Y-91666335D01*
X142845078Y-91689537D01*
X142834802Y-91716872D01*
X142823129Y-91747617D01*
X142810334Y-91781052D01*
X142796692Y-91816453D01*
X142782476Y-91853101D01*
X142767960Y-91890272D01*
X142766573Y-91893813D01*
X142752661Y-91929316D01*
X142739462Y-91963048D01*
X142727187Y-91994466D01*
X142716047Y-92023026D01*
X142706254Y-92048185D01*
X142698020Y-92069398D01*
X142691557Y-92086121D01*
X142687075Y-92097811D01*
X142684787Y-92103924D01*
X142684547Y-92104633D01*
X142684490Y-92105882D01*
X142598835Y-92105882D01*
X142604934Y-92090614D01*
X142628090Y-92032651D01*
X142637197Y-92009856D01*
X142858066Y-91457032D01*
X142883950Y-91456982D01*
X142899262Y-91457451D01*
G36*
X143873375Y-91498420D02*
G01*
X143883253Y-91523067D01*
X143894836Y-91551925D01*
X143907957Y-91584581D01*
X143922450Y-91620622D01*
X143938149Y-91659635D01*
X143954886Y-91701207D01*
X143972496Y-91744926D01*
X143990811Y-91790379D01*
X144009665Y-91837154D01*
X144028892Y-91884838D01*
X144048324Y-91933017D01*
X144067795Y-91981280D01*
X144087140Y-92029213D01*
X144106190Y-92076404D01*
X144124779Y-92122441D01*
X144142742Y-92166910D01*
X144159911Y-92209398D01*
X144176119Y-92249494D01*
X144191201Y-92286784D01*
X144204989Y-92320856D01*
X144217317Y-92351297D01*
X144228018Y-92377694D01*
X144236926Y-92399634D01*
X144243875Y-92416706D01*
X144248697Y-92428495D01*
X144251226Y-92434590D01*
X144251565Y-92435355D01*
X144251905Y-92436397D01*
X144252077Y-92437683D01*
X144252198Y-92438937D01*
X144252381Y-92439879D01*
X144252743Y-92440230D01*
X144253399Y-92439713D01*
X144254464Y-92438048D01*
X144256053Y-92434956D01*
X144258283Y-92430159D01*
X144261268Y-92423379D01*
X144265124Y-92414336D01*
X144269965Y-92402752D01*
X144275908Y-92388348D01*
X144283068Y-92370845D01*
X144291559Y-92349966D01*
X144301498Y-92325431D01*
X144313000Y-92296961D01*
X144326180Y-92264278D01*
X144341153Y-92227104D01*
X144358035Y-92185159D01*
X144376941Y-92138164D01*
X144397986Y-92085842D01*
X144421287Y-92027914D01*
X144446957Y-91964100D01*
X144458525Y-91935347D01*
X144649613Y-91460414D01*
X144766453Y-91460320D01*
X144766453Y-92574533D01*
X144688560Y-92574533D01*
X144688560Y-92124895D01*
X144688585Y-92050547D01*
X144688663Y-91982687D01*
X144688799Y-91921027D01*
X144688996Y-91865284D01*
X144689259Y-91815170D01*
X144689592Y-91770400D01*
X144689999Y-91730687D01*
X144690486Y-91695747D01*
X144691054Y-91665293D01*
X144691710Y-91639039D01*
X144692458Y-91616700D01*
X144693300Y-91597989D01*
X144694243Y-91582621D01*
X144695289Y-91570310D01*
X144696444Y-91560770D01*
X144696981Y-91557414D01*
X144697206Y-91550580D01*
X144695060Y-91549028D01*
X144693413Y-91552246D01*
X144689362Y-91561413D01*
X144683044Y-91576199D01*
X144674596Y-91596273D01*
X144664152Y-91621304D01*
X144651849Y-91650963D01*
X144637824Y-91684918D01*
X144622211Y-91722840D01*
X144605149Y-91764398D01*
X144586771Y-91809262D01*
X144567215Y-91857100D01*
X144546616Y-91907584D01*
X144525111Y-91960382D01*
X144502836Y-92015164D01*
X144484009Y-92061534D01*
X144276557Y-92572840D01*
X144227733Y-92574834D01*
X144219927Y-92556904D01*
X144217799Y-92551783D01*
X144213282Y-92540731D01*
X144206519Y-92524099D01*
X144197653Y-92502239D01*
X144186825Y-92475502D01*
X144174177Y-92444241D01*
X144159852Y-92408806D01*
X144143992Y-92369550D01*
X144126738Y-92326824D01*
X144108233Y-92280980D01*
X144088618Y-92232370D01*
X144068037Y-92181344D01*
X144046631Y-92128255D01*
X144024541Y-92073455D01*
X144012881Y-92044520D01*
X143990607Y-91989259D01*
X143969008Y-91935703D01*
X143948221Y-91884189D01*
X143928383Y-91835056D01*
X143909629Y-91788640D01*
X143892096Y-91745279D01*
X143875922Y-91705310D01*
X143861243Y-91669070D01*
X143848195Y-91636898D01*
X143836915Y-91609130D01*
X143827540Y-91586104D01*
X143820207Y-91568157D01*
X143815051Y-91555628D01*
X143812211Y-91548852D01*
X143811680Y-91547694D01*
X143811464Y-91550747D01*
X143811268Y-91560207D01*
X143811093Y-91575710D01*
X143810940Y-91596889D01*
X143810808Y-91623379D01*
X143810699Y-91654815D01*
X143810614Y-91690831D01*
X143810552Y-91731061D01*
X143810516Y-91775139D01*
X143810504Y-91822701D01*
X143810519Y-91873381D01*
X143810560Y-91926813D01*
X143810629Y-91982631D01*
X143810725Y-92040470D01*
X143810763Y-92059928D01*
X143811807Y-92574533D01*
X143736906Y-92574533D01*
X143736906Y-91460320D01*
X143858121Y-91460320D01*
X143873375Y-91498420D01*
G37*
X143873375Y-91498420D02*
X143883253Y-91523067D01*
X143894836Y-91551925D01*
X143907957Y-91584581D01*
X143922450Y-91620622D01*
X143938149Y-91659635D01*
X143954886Y-91701207D01*
X143972496Y-91744926D01*
X143990811Y-91790379D01*
X144009665Y-91837154D01*
X144028892Y-91884838D01*
X144048324Y-91933017D01*
X144067795Y-91981280D01*
X144087140Y-92029213D01*
X144106190Y-92076404D01*
X144124779Y-92122441D01*
X144142742Y-92166910D01*
X144159911Y-92209398D01*
X144176119Y-92249494D01*
X144191201Y-92286784D01*
X144204989Y-92320856D01*
X144217317Y-92351297D01*
X144228018Y-92377694D01*
X144236926Y-92399634D01*
X144243875Y-92416706D01*
X144248697Y-92428495D01*
X144251226Y-92434590D01*
X144251565Y-92435355D01*
X144251905Y-92436397D01*
X144252077Y-92437683D01*
X144252198Y-92438937D01*
X144252381Y-92439879D01*
X144252743Y-92440230D01*
X144253399Y-92439713D01*
X144254464Y-92438048D01*
X144256053Y-92434956D01*
X144258283Y-92430159D01*
X144261268Y-92423379D01*
X144265124Y-92414336D01*
X144269965Y-92402752D01*
X144275908Y-92388348D01*
X144283068Y-92370845D01*
X144291559Y-92349966D01*
X144301498Y-92325431D01*
X144313000Y-92296961D01*
X144326180Y-92264278D01*
X144341153Y-92227104D01*
X144358035Y-92185159D01*
X144376941Y-92138164D01*
X144397986Y-92085842D01*
X144421287Y-92027914D01*
X144446957Y-91964100D01*
X144458525Y-91935347D01*
X144649613Y-91460414D01*
X144766453Y-91460320D01*
X144766453Y-92574533D01*
X144688560Y-92574533D01*
X144688560Y-92124895D01*
X144688585Y-92050547D01*
X144688663Y-91982687D01*
X144688799Y-91921027D01*
X144688996Y-91865284D01*
X144689259Y-91815170D01*
X144689592Y-91770400D01*
X144689999Y-91730687D01*
X144690486Y-91695747D01*
X144691054Y-91665293D01*
X144691710Y-91639039D01*
X144692458Y-91616700D01*
X144693300Y-91597989D01*
X144694243Y-91582621D01*
X144695289Y-91570310D01*
X144696444Y-91560770D01*
X144696981Y-91557414D01*
X144697206Y-91550580D01*
X144695060Y-91549028D01*
X144693413Y-91552246D01*
X144689362Y-91561413D01*
X144683044Y-91576199D01*
X144674596Y-91596273D01*
X144664152Y-91621304D01*
X144651849Y-91650963D01*
X144637824Y-91684918D01*
X144622211Y-91722840D01*
X144605149Y-91764398D01*
X144586771Y-91809262D01*
X144567215Y-91857100D01*
X144546616Y-91907584D01*
X144525111Y-91960382D01*
X144502836Y-92015164D01*
X144484009Y-92061534D01*
X144276557Y-92572840D01*
X144227733Y-92574834D01*
X144219927Y-92556904D01*
X144217799Y-92551783D01*
X144213282Y-92540731D01*
X144206519Y-92524099D01*
X144197653Y-92502239D01*
X144186825Y-92475502D01*
X144174177Y-92444241D01*
X144159852Y-92408806D01*
X144143992Y-92369550D01*
X144126738Y-92326824D01*
X144108233Y-92280980D01*
X144088618Y-92232370D01*
X144068037Y-92181344D01*
X144046631Y-92128255D01*
X144024541Y-92073455D01*
X144012881Y-92044520D01*
X143990607Y-91989259D01*
X143969008Y-91935703D01*
X143948221Y-91884189D01*
X143928383Y-91835056D01*
X143909629Y-91788640D01*
X143892096Y-91745279D01*
X143875922Y-91705310D01*
X143861243Y-91669070D01*
X143848195Y-91636898D01*
X143836915Y-91609130D01*
X143827540Y-91586104D01*
X143820207Y-91568157D01*
X143815051Y-91555628D01*
X143812211Y-91548852D01*
X143811680Y-91547694D01*
X143811464Y-91550747D01*
X143811268Y-91560207D01*
X143811093Y-91575710D01*
X143810940Y-91596889D01*
X143810808Y-91623379D01*
X143810699Y-91654815D01*
X143810614Y-91690831D01*
X143810552Y-91731061D01*
X143810516Y-91775139D01*
X143810504Y-91822701D01*
X143810519Y-91873381D01*
X143810560Y-91926813D01*
X143810629Y-91982631D01*
X143810725Y-92040470D01*
X143810763Y-92059928D01*
X143811807Y-92574533D01*
X143736906Y-92574533D01*
X143736906Y-91460320D01*
X143858121Y-91460320D01*
X143873375Y-91498420D01*
G36*
X145261837Y-85361500D02*
G01*
X145262667Y-85363406D01*
X145263851Y-85366960D01*
X145265465Y-85372468D01*
X145267583Y-85380239D01*
X145270281Y-85390580D01*
X145273635Y-85403799D01*
X145277719Y-85420204D01*
X145282608Y-85440102D01*
X145288379Y-85463800D01*
X145295105Y-85491608D01*
X145302863Y-85523832D01*
X145311727Y-85560780D01*
X145321772Y-85602759D01*
X145333075Y-85650079D01*
X145345710Y-85703045D01*
X145359752Y-85761966D01*
X145375276Y-85827150D01*
X145376355Y-85831680D01*
X145388301Y-85881777D01*
X145400545Y-85932976D01*
X145412900Y-85984503D01*
X145425178Y-86035584D01*
X145437193Y-86085446D01*
X145448757Y-86133314D01*
X145459684Y-86178414D01*
X145469787Y-86219973D01*
X145478878Y-86257217D01*
X145486772Y-86289372D01*
X145492936Y-86314280D01*
X145519809Y-86420680D01*
X145545857Y-86520531D01*
X145571141Y-86613997D01*
X145595720Y-86701243D01*
X145619654Y-86782436D01*
X145643003Y-86857739D01*
X145665826Y-86927319D01*
X145688184Y-86991340D01*
X145710137Y-87049968D01*
X145731744Y-87103368D01*
X145753065Y-87151706D01*
X145774160Y-87195147D01*
X145795089Y-87233855D01*
X145815912Y-87267997D01*
X145836688Y-87297738D01*
X145857478Y-87323242D01*
X145859027Y-87324975D01*
X145877860Y-87343406D01*
X145900319Y-87361460D01*
X145924146Y-87377508D01*
X145947083Y-87389925D01*
X145952413Y-87392271D01*
X145984690Y-87403622D01*
X146019167Y-87411502D01*
X146057141Y-87416131D01*
X146099912Y-87417731D01*
X146102493Y-87417735D01*
X146145222Y-87416331D01*
X146183003Y-87411972D01*
X146217084Y-87404443D01*
X146248713Y-87393525D01*
X146253670Y-87391432D01*
X146275088Y-87381258D01*
X146293660Y-87370163D01*
X146311314Y-87356774D01*
X146329979Y-87339721D01*
X146338822Y-87330895D01*
X146363136Y-87303304D01*
X146387196Y-87270219D01*
X146411138Y-87231402D01*
X146435092Y-87186615D01*
X146459194Y-87135620D01*
X146483576Y-87078179D01*
X146491266Y-87058889D01*
X146507438Y-87016633D01*
X146523731Y-86971789D01*
X146540223Y-86924075D01*
X146556993Y-86873208D01*
X146574121Y-86818907D01*
X146591684Y-86760890D01*
X146609763Y-86698874D01*
X146628435Y-86632578D01*
X146647780Y-86561719D01*
X146667876Y-86486016D01*
X146688803Y-86405187D01*
X146710639Y-86318949D01*
X146733463Y-86227021D01*
X146757355Y-86129121D01*
X146782392Y-86024966D01*
X146793337Y-85979000D01*
X146811822Y-85901189D01*
X146828812Y-85829739D01*
X146844363Y-85764415D01*
X146858532Y-85704984D01*
X146871375Y-85651213D01*
X146882950Y-85602868D01*
X146893313Y-85559717D01*
X146902521Y-85521526D01*
X146910631Y-85488061D01*
X146917699Y-85459090D01*
X146923782Y-85434378D01*
X146928937Y-85413694D01*
X146933220Y-85396802D01*
X146936689Y-85383471D01*
X146939400Y-85373466D01*
X146941409Y-85366555D01*
X146942774Y-85362504D01*
X146943551Y-85361080D01*
X146943595Y-85361073D01*
X146945539Y-85364041D01*
X146950062Y-85372405D01*
X146956808Y-85385459D01*
X146965418Y-85402494D01*
X146975533Y-85422805D01*
X146986796Y-85445685D01*
X146995497Y-85463520D01*
X147045221Y-85565826D01*
X147048868Y-85599693D01*
X147060205Y-85735517D01*
X147065227Y-85873129D01*
X147063990Y-86012017D01*
X147056549Y-86151669D01*
X147042960Y-86291572D01*
X147023279Y-86431215D01*
X146997562Y-86570085D01*
X146965864Y-86707671D01*
X146928241Y-86843459D01*
X146905626Y-86915413D01*
X146856411Y-87054827D01*
X146801091Y-87191408D01*
X146739796Y-87324980D01*
X146672652Y-87455365D01*
X146599786Y-87582386D01*
X146521326Y-87705868D01*
X146437399Y-87825632D01*
X146348132Y-87941504D01*
X146253653Y-88053305D01*
X146154088Y-88160860D01*
X146049566Y-88263991D01*
X145940213Y-88362521D01*
X145826156Y-88456275D01*
X145758746Y-88507764D01*
X145638502Y-88592954D01*
X145514767Y-88672396D01*
X145387767Y-88746005D01*
X145257725Y-88813695D01*
X145124868Y-88875382D01*
X144989418Y-88930981D01*
X144851602Y-88980408D01*
X144711643Y-89023576D01*
X144569767Y-89060402D01*
X144426197Y-89090800D01*
X144281159Y-89114686D01*
X144134877Y-89131975D01*
X144097586Y-89135302D01*
X144032271Y-89139980D01*
X143963961Y-89143449D01*
X143894707Y-89145658D01*
X143826562Y-89146554D01*
X143761576Y-89146084D01*
X143719973Y-89144949D01*
X143571047Y-89136143D01*
X143423335Y-89120725D01*
X143277008Y-89098747D01*
X143132236Y-89070259D01*
X142989193Y-89035311D01*
X142848048Y-88993954D01*
X142708974Y-88946240D01*
X142572142Y-88892218D01*
X142437722Y-88831939D01*
X142305887Y-88765455D01*
X142176807Y-88692815D01*
X142162106Y-88684044D01*
X142044231Y-88609909D01*
X141931008Y-88531701D01*
X141821744Y-88448876D01*
X141715744Y-88360892D01*
X141612315Y-88267204D01*
X141540543Y-88197408D01*
X141479968Y-88135529D01*
X141423883Y-88075430D01*
X141370906Y-88015516D01*
X141319657Y-87954189D01*
X141268754Y-87889851D01*
X141227711Y-87835621D01*
X141144071Y-87717564D01*
X141066015Y-87595983D01*
X140993618Y-87471147D01*
X140926955Y-87343326D01*
X140866101Y-87212790D01*
X140811131Y-87079806D01*
X140762120Y-86944644D01*
X140719143Y-86807575D01*
X140682275Y-86668865D01*
X140651591Y-86528786D01*
X140627166Y-86387606D01*
X140609075Y-86245594D01*
X140597394Y-86103019D01*
X140592196Y-85960151D01*
X140593558Y-85817259D01*
X140601554Y-85674612D01*
X140607409Y-85609853D01*
X140613583Y-85548893D01*
X140660043Y-85454066D01*
X140673330Y-85427077D01*
X140684018Y-85405702D01*
X140692396Y-85389425D01*
X140698753Y-85377734D01*
X140703379Y-85370114D01*
X140706562Y-85366052D01*
X140708591Y-85365033D01*
X140709555Y-85366013D01*
X140710498Y-85368627D01*
X140711947Y-85373498D01*
X140713975Y-85380932D01*
X140716658Y-85391236D01*
X140720070Y-85404719D01*
X140724286Y-85421686D01*
X140729380Y-85442446D01*
X140735428Y-85467304D01*
X140742504Y-85496569D01*
X140750683Y-85530548D01*
X140760040Y-85569548D01*
X140770648Y-85613875D01*
X140782583Y-85663837D01*
X140795920Y-85719742D01*
X140810733Y-85781896D01*
X140812508Y-85789346D01*
X140835090Y-85883992D01*
X140856256Y-85972374D01*
X140876096Y-86054830D01*
X140894696Y-86131699D01*
X140912148Y-86203323D01*
X140928538Y-86270038D01*
X140943955Y-86332186D01*
X140958490Y-86390105D01*
X140972229Y-86444135D01*
X140985262Y-86494615D01*
X140997677Y-86541884D01*
X141009563Y-86586282D01*
X141021009Y-86628148D01*
X141032104Y-86667821D01*
X141042935Y-86705642D01*
X141053593Y-86741948D01*
X141064164Y-86777081D01*
X141074739Y-86811378D01*
X141085406Y-86845179D01*
X141096253Y-86878824D01*
X141101019Y-86893400D01*
X141125323Y-86965199D01*
X141149015Y-87030527D01*
X141172246Y-87089640D01*
X141195163Y-87142799D01*
X141217917Y-87190260D01*
X141240655Y-87232282D01*
X141263526Y-87269124D01*
X141286681Y-87301044D01*
X141310267Y-87328300D01*
X141334433Y-87351152D01*
X141359328Y-87369856D01*
X141383820Y-87384034D01*
X141422864Y-87400124D01*
X141465793Y-87411460D01*
X141511495Y-87417864D01*
X141558859Y-87419153D01*
X141589007Y-87417264D01*
X141624512Y-87412738D01*
X141655379Y-87406342D01*
X141683611Y-87397547D01*
X141711208Y-87385823D01*
X141715066Y-87383952D01*
X141729810Y-87376331D01*
X141741916Y-87368958D01*
X141753184Y-87360486D01*
X141765416Y-87349566D01*
X141779609Y-87335658D01*
X141802347Y-87311090D01*
X141823333Y-87284512D01*
X141843366Y-87254742D01*
X141863248Y-87220599D01*
X141881924Y-87184653D01*
X141902722Y-87140835D01*
X141923531Y-87093050D01*
X141944453Y-87040994D01*
X141965592Y-86984361D01*
X141987051Y-86922849D01*
X142008933Y-86856150D01*
X142031340Y-86783962D01*
X142054375Y-86705979D01*
X142078143Y-86621896D01*
X142102674Y-86531676D01*
X142108812Y-86508382D01*
X142116372Y-86479160D01*
X142125193Y-86444663D01*
X142135110Y-86405548D01*
X142145963Y-86362472D01*
X142157589Y-86316088D01*
X142169825Y-86267054D01*
X142182508Y-86216025D01*
X142195477Y-86163657D01*
X142208568Y-86110605D01*
X142221619Y-86057525D01*
X142234469Y-86005074D01*
X142246953Y-85953906D01*
X142258910Y-85904678D01*
X142270178Y-85858045D01*
X142280594Y-85814663D01*
X142287438Y-85785960D01*
X142300699Y-85730243D01*
X142313378Y-85677126D01*
X142325394Y-85626946D01*
X142336664Y-85580045D01*
X142347105Y-85536761D01*
X142356634Y-85497434D01*
X142365169Y-85462405D01*
X142372626Y-85432012D01*
X142378924Y-85406595D01*
X142383979Y-85386495D01*
X142387709Y-85372051D01*
X142390031Y-85363602D01*
X142390803Y-85361401D01*
X142392705Y-85363928D01*
X142397344Y-85372264D01*
X142404565Y-85386092D01*
X142414213Y-85405095D01*
X142426134Y-85428958D01*
X142440173Y-85457363D01*
X142456176Y-85489994D01*
X142473989Y-85526534D01*
X142493456Y-85566667D01*
X142514424Y-85610076D01*
X142536738Y-85656444D01*
X142560243Y-85705454D01*
X142584785Y-85756791D01*
X142610210Y-85810137D01*
X142627697Y-85846920D01*
X142669512Y-85934751D01*
X142708766Y-86016752D01*
X142745641Y-86093284D01*
X142780317Y-86164710D01*
X142812977Y-86231392D01*
X142843802Y-86293693D01*
X142872972Y-86351976D01*
X142900669Y-86406602D01*
X142927075Y-86457934D01*
X142952371Y-86506335D01*
X142976737Y-86552167D01*
X143000356Y-86595792D01*
X143021201Y-86633606D01*
X143074591Y-86727254D01*
X143126922Y-86814252D01*
X143178222Y-86894635D01*
X143228517Y-86968438D01*
X143277837Y-87035696D01*
X143326208Y-87096444D01*
X143373658Y-87150718D01*
X143420215Y-87198552D01*
X143465907Y-87239982D01*
X143510761Y-87275044D01*
X143543215Y-87296776D01*
X143559411Y-87307728D01*
X143576708Y-87320844D01*
X143592073Y-87333787D01*
X143596079Y-87337504D01*
X143621883Y-87359986D01*
X143647479Y-87377365D01*
X143674892Y-87390931D01*
X143687481Y-87395820D01*
X143732185Y-87408715D01*
X143779894Y-87416447D01*
X143829160Y-87418953D01*
X143878534Y-87416175D01*
X143926568Y-87408053D01*
X143934714Y-87406081D01*
X143972822Y-87393493D01*
X144008234Y-87375996D01*
X144039729Y-87354275D01*
X144060333Y-87335325D01*
X144068804Y-87327610D01*
X144081235Y-87317751D01*
X144095806Y-87307137D01*
X144107746Y-87299061D01*
X144152802Y-87267273D01*
X144197804Y-87230545D01*
X144242899Y-87188695D01*
X144288236Y-87141543D01*
X144333964Y-87088905D01*
X144380230Y-87030600D01*
X144427183Y-86966446D01*
X144474973Y-86896262D01*
X144523746Y-86819865D01*
X144573651Y-86737074D01*
X144591670Y-86706107D01*
X144618226Y-86659321D01*
X144646497Y-86608059D01*
X144676566Y-86552154D01*
X144708517Y-86491441D01*
X144742434Y-86425755D01*
X144778401Y-86354928D01*
X144816501Y-86278796D01*
X144856818Y-86197193D01*
X144899436Y-86109953D01*
X144944439Y-86016910D01*
X144991911Y-85917899D01*
X145026523Y-85845226D01*
X145057436Y-85780218D01*
X145086504Y-85719216D01*
X145113643Y-85662392D01*
X145138771Y-85609915D01*
X145161805Y-85561958D01*
X145182661Y-85518691D01*
X145201258Y-85480285D01*
X145217511Y-85446911D01*
X145231339Y-85418741D01*
X145242658Y-85395944D01*
X145251386Y-85378693D01*
X145257439Y-85367157D01*
X145260735Y-85361509D01*
X145261287Y-85360933D01*
X145261837Y-85361500D01*
G37*
X145261837Y-85361500D02*
X145262667Y-85363406D01*
X145263851Y-85366960D01*
X145265465Y-85372468D01*
X145267583Y-85380239D01*
X145270281Y-85390580D01*
X145273635Y-85403799D01*
X145277719Y-85420204D01*
X145282608Y-85440102D01*
X145288379Y-85463800D01*
X145295105Y-85491608D01*
X145302863Y-85523832D01*
X145311727Y-85560780D01*
X145321772Y-85602759D01*
X145333075Y-85650079D01*
X145345710Y-85703045D01*
X145359752Y-85761966D01*
X145375276Y-85827150D01*
X145376355Y-85831680D01*
X145388301Y-85881777D01*
X145400545Y-85932976D01*
X145412900Y-85984503D01*
X145425178Y-86035584D01*
X145437193Y-86085446D01*
X145448757Y-86133314D01*
X145459684Y-86178414D01*
X145469787Y-86219973D01*
X145478878Y-86257217D01*
X145486772Y-86289372D01*
X145492936Y-86314280D01*
X145519809Y-86420680D01*
X145545857Y-86520531D01*
X145571141Y-86613997D01*
X145595720Y-86701243D01*
X145619654Y-86782436D01*
X145643003Y-86857739D01*
X145665826Y-86927319D01*
X145688184Y-86991340D01*
X145710137Y-87049968D01*
X145731744Y-87103368D01*
X145753065Y-87151706D01*
X145774160Y-87195147D01*
X145795089Y-87233855D01*
X145815912Y-87267997D01*
X145836688Y-87297738D01*
X145857478Y-87323242D01*
X145859027Y-87324975D01*
X145877860Y-87343406D01*
X145900319Y-87361460D01*
X145924146Y-87377508D01*
X145947083Y-87389925D01*
X145952413Y-87392271D01*
X145984690Y-87403622D01*
X146019167Y-87411502D01*
X146057141Y-87416131D01*
X146099912Y-87417731D01*
X146102493Y-87417735D01*
X146145222Y-87416331D01*
X146183003Y-87411972D01*
X146217084Y-87404443D01*
X146248713Y-87393525D01*
X146253670Y-87391432D01*
X146275088Y-87381258D01*
X146293660Y-87370163D01*
X146311314Y-87356774D01*
X146329979Y-87339721D01*
X146338822Y-87330895D01*
X146363136Y-87303304D01*
X146387196Y-87270219D01*
X146411138Y-87231402D01*
X146435092Y-87186615D01*
X146459194Y-87135620D01*
X146483576Y-87078179D01*
X146491266Y-87058889D01*
X146507438Y-87016633D01*
X146523731Y-86971789D01*
X146540223Y-86924075D01*
X146556993Y-86873208D01*
X146574121Y-86818907D01*
X146591684Y-86760890D01*
X146609763Y-86698874D01*
X146628435Y-86632578D01*
X146647780Y-86561719D01*
X146667876Y-86486016D01*
X146688803Y-86405187D01*
X146710639Y-86318949D01*
X146733463Y-86227021D01*
X146757355Y-86129121D01*
X146782392Y-86024966D01*
X146793337Y-85979000D01*
X146811822Y-85901189D01*
X146828812Y-85829739D01*
X146844363Y-85764415D01*
X146858532Y-85704984D01*
X146871375Y-85651213D01*
X146882950Y-85602868D01*
X146893313Y-85559717D01*
X146902521Y-85521526D01*
X146910631Y-85488061D01*
X146917699Y-85459090D01*
X146923782Y-85434378D01*
X146928937Y-85413694D01*
X146933220Y-85396802D01*
X146936689Y-85383471D01*
X146939400Y-85373466D01*
X146941409Y-85366555D01*
X146942774Y-85362504D01*
X146943551Y-85361080D01*
X146943595Y-85361073D01*
X146945539Y-85364041D01*
X146950062Y-85372405D01*
X146956808Y-85385459D01*
X146965418Y-85402494D01*
X146975533Y-85422805D01*
X146986796Y-85445685D01*
X146995497Y-85463520D01*
X147045221Y-85565826D01*
X147048868Y-85599693D01*
X147060205Y-85735517D01*
X147065227Y-85873129D01*
X147063990Y-86012017D01*
X147056549Y-86151669D01*
X147042960Y-86291572D01*
X147023279Y-86431215D01*
X146997562Y-86570085D01*
X146965864Y-86707671D01*
X146928241Y-86843459D01*
X146905626Y-86915413D01*
X146856411Y-87054827D01*
X146801091Y-87191408D01*
X146739796Y-87324980D01*
X146672652Y-87455365D01*
X146599786Y-87582386D01*
X146521326Y-87705868D01*
X146437399Y-87825632D01*
X146348132Y-87941504D01*
X146253653Y-88053305D01*
X146154088Y-88160860D01*
X146049566Y-88263991D01*
X145940213Y-88362521D01*
X145826156Y-88456275D01*
X145758746Y-88507764D01*
X145638502Y-88592954D01*
X145514767Y-88672396D01*
X145387767Y-88746005D01*
X145257725Y-88813695D01*
X145124868Y-88875382D01*
X144989418Y-88930981D01*
X144851602Y-88980408D01*
X144711643Y-89023576D01*
X144569767Y-89060402D01*
X144426197Y-89090800D01*
X144281159Y-89114686D01*
X144134877Y-89131975D01*
X144097586Y-89135302D01*
X144032271Y-89139980D01*
X143963961Y-89143449D01*
X143894707Y-89145658D01*
X143826562Y-89146554D01*
X143761576Y-89146084D01*
X143719973Y-89144949D01*
X143571047Y-89136143D01*
X143423335Y-89120725D01*
X143277008Y-89098747D01*
X143132236Y-89070259D01*
X142989193Y-89035311D01*
X142848048Y-88993954D01*
X142708974Y-88946240D01*
X142572142Y-88892218D01*
X142437722Y-88831939D01*
X142305887Y-88765455D01*
X142176807Y-88692815D01*
X142162106Y-88684044D01*
X142044231Y-88609909D01*
X141931008Y-88531701D01*
X141821744Y-88448876D01*
X141715744Y-88360892D01*
X141612315Y-88267204D01*
X141540543Y-88197408D01*
X141479968Y-88135529D01*
X141423883Y-88075430D01*
X141370906Y-88015516D01*
X141319657Y-87954189D01*
X141268754Y-87889851D01*
X141227711Y-87835621D01*
X141144071Y-87717564D01*
X141066015Y-87595983D01*
X140993618Y-87471147D01*
X140926955Y-87343326D01*
X140866101Y-87212790D01*
X140811131Y-87079806D01*
X140762120Y-86944644D01*
X140719143Y-86807575D01*
X140682275Y-86668865D01*
X140651591Y-86528786D01*
X140627166Y-86387606D01*
X140609075Y-86245594D01*
X140597394Y-86103019D01*
X140592196Y-85960151D01*
X140593558Y-85817259D01*
X140601554Y-85674612D01*
X140607409Y-85609853D01*
X140613583Y-85548893D01*
X140660043Y-85454066D01*
X140673330Y-85427077D01*
X140684018Y-85405702D01*
X140692396Y-85389425D01*
X140698753Y-85377734D01*
X140703379Y-85370114D01*
X140706562Y-85366052D01*
X140708591Y-85365033D01*
X140709555Y-85366013D01*
X140710498Y-85368627D01*
X140711947Y-85373498D01*
X140713975Y-85380932D01*
X140716658Y-85391236D01*
X140720070Y-85404719D01*
X140724286Y-85421686D01*
X140729380Y-85442446D01*
X140735428Y-85467304D01*
X140742504Y-85496569D01*
X140750683Y-85530548D01*
X140760040Y-85569548D01*
X140770648Y-85613875D01*
X140782583Y-85663837D01*
X140795920Y-85719742D01*
X140810733Y-85781896D01*
X140812508Y-85789346D01*
X140835090Y-85883992D01*
X140856256Y-85972374D01*
X140876096Y-86054830D01*
X140894696Y-86131699D01*
X140912148Y-86203323D01*
X140928538Y-86270038D01*
X140943955Y-86332186D01*
X140958490Y-86390105D01*
X140972229Y-86444135D01*
X140985262Y-86494615D01*
X140997677Y-86541884D01*
X141009563Y-86586282D01*
X141021009Y-86628148D01*
X141032104Y-86667821D01*
X141042935Y-86705642D01*
X141053593Y-86741948D01*
X141064164Y-86777081D01*
X141074739Y-86811378D01*
X141085406Y-86845179D01*
X141096253Y-86878824D01*
X141101019Y-86893400D01*
X141125323Y-86965199D01*
X141149015Y-87030527D01*
X141172246Y-87089640D01*
X141195163Y-87142799D01*
X141217917Y-87190260D01*
X141240655Y-87232282D01*
X141263526Y-87269124D01*
X141286681Y-87301044D01*
X141310267Y-87328300D01*
X141334433Y-87351152D01*
X141359328Y-87369856D01*
X141383820Y-87384034D01*
X141422864Y-87400124D01*
X141465793Y-87411460D01*
X141511495Y-87417864D01*
X141558859Y-87419153D01*
X141589007Y-87417264D01*
X141624512Y-87412738D01*
X141655379Y-87406342D01*
X141683611Y-87397547D01*
X141711208Y-87385823D01*
X141715066Y-87383952D01*
X141729810Y-87376331D01*
X141741916Y-87368958D01*
X141753184Y-87360486D01*
X141765416Y-87349566D01*
X141779609Y-87335658D01*
X141802347Y-87311090D01*
X141823333Y-87284512D01*
X141843366Y-87254742D01*
X141863248Y-87220599D01*
X141881924Y-87184653D01*
X141902722Y-87140835D01*
X141923531Y-87093050D01*
X141944453Y-87040994D01*
X141965592Y-86984361D01*
X141987051Y-86922849D01*
X142008933Y-86856150D01*
X142031340Y-86783962D01*
X142054375Y-86705979D01*
X142078143Y-86621896D01*
X142102674Y-86531676D01*
X142108812Y-86508382D01*
X142116372Y-86479160D01*
X142125193Y-86444663D01*
X142135110Y-86405548D01*
X142145963Y-86362472D01*
X142157589Y-86316088D01*
X142169825Y-86267054D01*
X142182508Y-86216025D01*
X142195477Y-86163657D01*
X142208568Y-86110605D01*
X142221619Y-86057525D01*
X142234469Y-86005074D01*
X142246953Y-85953906D01*
X142258910Y-85904678D01*
X142270178Y-85858045D01*
X142280594Y-85814663D01*
X142287438Y-85785960D01*
X142300699Y-85730243D01*
X142313378Y-85677126D01*
X142325394Y-85626946D01*
X142336664Y-85580045D01*
X142347105Y-85536761D01*
X142356634Y-85497434D01*
X142365169Y-85462405D01*
X142372626Y-85432012D01*
X142378924Y-85406595D01*
X142383979Y-85386495D01*
X142387709Y-85372051D01*
X142390031Y-85363602D01*
X142390803Y-85361401D01*
X142392705Y-85363928D01*
X142397344Y-85372264D01*
X142404565Y-85386092D01*
X142414213Y-85405095D01*
X142426134Y-85428958D01*
X142440173Y-85457363D01*
X142456176Y-85489994D01*
X142473989Y-85526534D01*
X142493456Y-85566667D01*
X142514424Y-85610076D01*
X142536738Y-85656444D01*
X142560243Y-85705454D01*
X142584785Y-85756791D01*
X142610210Y-85810137D01*
X142627697Y-85846920D01*
X142669512Y-85934751D01*
X142708766Y-86016752D01*
X142745641Y-86093284D01*
X142780317Y-86164710D01*
X142812977Y-86231392D01*
X142843802Y-86293693D01*
X142872972Y-86351976D01*
X142900669Y-86406602D01*
X142927075Y-86457934D01*
X142952371Y-86506335D01*
X142976737Y-86552167D01*
X143000356Y-86595792D01*
X143021201Y-86633606D01*
X143074591Y-86727254D01*
X143126922Y-86814252D01*
X143178222Y-86894635D01*
X143228517Y-86968438D01*
X143277837Y-87035696D01*
X143326208Y-87096444D01*
X143373658Y-87150718D01*
X143420215Y-87198552D01*
X143465907Y-87239982D01*
X143510761Y-87275044D01*
X143543215Y-87296776D01*
X143559411Y-87307728D01*
X143576708Y-87320844D01*
X143592073Y-87333787D01*
X143596079Y-87337504D01*
X143621883Y-87359986D01*
X143647479Y-87377365D01*
X143674892Y-87390931D01*
X143687481Y-87395820D01*
X143732185Y-87408715D01*
X143779894Y-87416447D01*
X143829160Y-87418953D01*
X143878534Y-87416175D01*
X143926568Y-87408053D01*
X143934714Y-87406081D01*
X143972822Y-87393493D01*
X144008234Y-87375996D01*
X144039729Y-87354275D01*
X144060333Y-87335325D01*
X144068804Y-87327610D01*
X144081235Y-87317751D01*
X144095806Y-87307137D01*
X144107746Y-87299061D01*
X144152802Y-87267273D01*
X144197804Y-87230545D01*
X144242899Y-87188695D01*
X144288236Y-87141543D01*
X144333964Y-87088905D01*
X144380230Y-87030600D01*
X144427183Y-86966446D01*
X144474973Y-86896262D01*
X144523746Y-86819865D01*
X144573651Y-86737074D01*
X144591670Y-86706107D01*
X144618226Y-86659321D01*
X144646497Y-86608059D01*
X144676566Y-86552154D01*
X144708517Y-86491441D01*
X144742434Y-86425755D01*
X144778401Y-86354928D01*
X144816501Y-86278796D01*
X144856818Y-86197193D01*
X144899436Y-86109953D01*
X144944439Y-86016910D01*
X144991911Y-85917899D01*
X145026523Y-85845226D01*
X145057436Y-85780218D01*
X145086504Y-85719216D01*
X145113643Y-85662392D01*
X145138771Y-85609915D01*
X145161805Y-85561958D01*
X145182661Y-85518691D01*
X145201258Y-85480285D01*
X145217511Y-85446911D01*
X145231339Y-85418741D01*
X145242658Y-85395944D01*
X145251386Y-85378693D01*
X145257439Y-85367157D01*
X145260735Y-85361509D01*
X145261287Y-85360933D01*
X145261837Y-85361500D01*
G36*
X143975897Y-82675327D02*
G01*
X144122621Y-82685371D01*
X144268316Y-82702022D01*
X144412782Y-82725213D01*
X144555816Y-82754874D01*
X144697217Y-82790936D01*
X144836784Y-82833332D01*
X144974315Y-82881993D01*
X145109609Y-82936851D01*
X145242465Y-82997836D01*
X145372681Y-83064881D01*
X145500055Y-83137917D01*
X145624386Y-83216875D01*
X145745473Y-83301687D01*
X145799386Y-83342156D01*
X145895365Y-83419049D01*
X145990416Y-83501675D01*
X146083468Y-83588994D01*
X146173454Y-83679965D01*
X146259302Y-83773549D01*
X146336134Y-83864026D01*
X146408218Y-83956060D01*
X146478722Y-84053393D01*
X146546663Y-84154578D01*
X146611062Y-84258168D01*
X146656388Y-84336466D01*
X146671266Y-84363710D01*
X146688114Y-84395754D01*
X146706230Y-84431177D01*
X146724912Y-84468555D01*
X146743458Y-84506465D01*
X146761165Y-84543485D01*
X146777331Y-84578193D01*
X146791254Y-84609164D01*
X146793193Y-84613601D01*
X146822413Y-84680763D01*
X146800872Y-84745247D01*
X146779331Y-84809732D01*
X146743506Y-84755979D01*
X146698961Y-84691123D01*
X146655633Y-84632136D01*
X146612985Y-84578345D01*
X146570482Y-84529078D01*
X146527588Y-84483662D01*
X146522563Y-84478614D01*
X146476923Y-84435498D01*
X146432245Y-84398457D01*
X146387849Y-84366994D01*
X146343054Y-84340614D01*
X146312466Y-84325530D01*
X146274612Y-84309563D01*
X146239004Y-84297565D01*
X146203099Y-84288857D01*
X146164352Y-84282759D01*
X146144440Y-84280601D01*
X146088111Y-84278579D01*
X146032171Y-84283317D01*
X145976633Y-84294810D01*
X145921514Y-84313055D01*
X145866828Y-84338048D01*
X145824786Y-84362036D01*
X145798710Y-84378917D01*
X145774472Y-84396222D01*
X145750786Y-84415006D01*
X145726364Y-84436324D01*
X145699919Y-84461232D01*
X145680670Y-84480212D01*
X145644649Y-84517555D01*
X145609811Y-84556475D01*
X145575420Y-84597896D01*
X145540735Y-84642744D01*
X145505018Y-84691944D01*
X145467531Y-84746420D01*
X145464696Y-84750642D01*
X145425331Y-84809356D01*
X145404480Y-84747325D01*
X145385272Y-84691462D01*
X145367041Y-84641201D01*
X145349374Y-84595516D01*
X145331856Y-84553378D01*
X145314075Y-84513760D01*
X145295617Y-84475637D01*
X145292894Y-84470240D01*
X145269212Y-84426145D01*
X145245892Y-84388244D01*
X145222479Y-84356003D01*
X145198517Y-84328893D01*
X145173550Y-84306382D01*
X145147124Y-84287938D01*
X145127133Y-84276976D01*
X145090813Y-84262277D01*
X145050925Y-84251835D01*
X145008642Y-84245608D01*
X144965136Y-84243553D01*
X144921579Y-84245629D01*
X144879142Y-84251794D01*
X144838998Y-84262005D01*
X144802318Y-84276221D01*
X144777785Y-84289487D01*
X144751712Y-84308500D01*
X144726123Y-84332810D01*
X144700906Y-84362606D01*
X144675947Y-84398073D01*
X144651131Y-84439400D01*
X144626345Y-84486772D01*
X144601476Y-84540378D01*
X144576409Y-84600404D01*
X144555529Y-84654813D01*
X144541499Y-84693421D01*
X144527488Y-84733538D01*
X144513410Y-84775476D01*
X144499180Y-84819546D01*
X144484714Y-84866062D01*
X144469926Y-84915335D01*
X144454731Y-84967679D01*
X144439044Y-85023405D01*
X144422780Y-85082827D01*
X144405855Y-85146255D01*
X144388182Y-85214004D01*
X144369677Y-85286385D01*
X144350255Y-85363710D01*
X144329830Y-85446293D01*
X144308319Y-85534445D01*
X144285635Y-85628479D01*
X144261693Y-85728707D01*
X144251718Y-85770720D01*
X144230715Y-85859189D01*
X144211121Y-85941446D01*
X144192835Y-86017882D01*
X144175760Y-86088889D01*
X144159797Y-86154858D01*
X144144846Y-86216180D01*
X144130808Y-86273248D01*
X144117585Y-86326452D01*
X144105078Y-86376183D01*
X144093188Y-86422833D01*
X144081815Y-86466794D01*
X144070861Y-86508457D01*
X144060228Y-86548214D01*
X144049815Y-86586455D01*
X144039524Y-86623572D01*
X144029257Y-86659956D01*
X144018913Y-86696000D01*
X144010748Y-86724066D01*
X143991516Y-86788112D01*
X143971904Y-86850186D01*
X143952124Y-86909723D01*
X143932384Y-86966158D01*
X143912895Y-87018927D01*
X143893867Y-87067463D01*
X143875511Y-87111202D01*
X143858037Y-87149578D01*
X143841655Y-87182026D01*
X143837696Y-87189251D01*
X143825673Y-87210782D01*
X143816948Y-87195895D01*
X143803543Y-87171207D01*
X143788758Y-87140697D01*
X143772887Y-87105106D01*
X143756223Y-87065174D01*
X143739060Y-87021642D01*
X143721691Y-86975250D01*
X143704410Y-86926741D01*
X143687510Y-86876855D01*
X143674265Y-86835826D01*
X143662486Y-86798081D01*
X143650810Y-86759794D01*
X143639139Y-86720591D01*
X143627377Y-86680094D01*
X143615425Y-86637927D01*
X143603185Y-86593715D01*
X143590559Y-86547080D01*
X143577451Y-86497647D01*
X143563761Y-86445040D01*
X143549392Y-86388882D01*
X143534247Y-86328797D01*
X143518228Y-86264409D01*
X143501236Y-86195342D01*
X143483175Y-86121219D01*
X143463946Y-86041665D01*
X143443451Y-85956302D01*
X143421593Y-85864756D01*
X143418542Y-85851944D01*
X143395498Y-85755349D01*
X143373842Y-85665025D01*
X143353485Y-85580631D01*
X143334338Y-85501827D01*
X143316311Y-85428275D01*
X143299315Y-85359634D01*
X143283261Y-85295564D01*
X143268058Y-85235725D01*
X143253619Y-85179778D01*
X143239854Y-85127383D01*
X143226673Y-85078200D01*
X143213987Y-85031889D01*
X143201706Y-84988110D01*
X143189742Y-84946524D01*
X143178006Y-84906790D01*
X143166407Y-84868570D01*
X143154856Y-84831522D01*
X143143265Y-84795308D01*
X143131544Y-84759586D01*
X143131052Y-84758106D01*
X143106602Y-84686774D01*
X143082769Y-84621915D01*
X143059393Y-84563273D01*
X143036314Y-84510595D01*
X143013373Y-84463623D01*
X142990411Y-84422103D01*
X142967268Y-84385779D01*
X142943785Y-84354396D01*
X142919801Y-84327699D01*
X142895158Y-84305432D01*
X142869697Y-84287339D01*
X142843256Y-84273166D01*
X142823208Y-84265134D01*
X142781675Y-84253632D01*
X142736952Y-84246534D01*
X142690693Y-84243855D01*
X142644550Y-84245612D01*
X142600178Y-84251822D01*
X142559259Y-84262491D01*
X142539821Y-84269356D01*
X142524401Y-84275942D01*
X142510432Y-84283570D01*
X142495350Y-84293560D01*
X142486346Y-84300033D01*
X142461748Y-84320563D01*
X142437562Y-84345991D01*
X142413675Y-84376527D01*
X142389973Y-84412381D01*
X142366342Y-84453764D01*
X142342670Y-84500884D01*
X142318842Y-84553952D01*
X142294745Y-84613177D01*
X142270266Y-84678770D01*
X142249994Y-84736965D01*
X142225615Y-84808957D01*
X142182797Y-84745432D01*
X142145624Y-84691475D01*
X142110352Y-84642846D01*
X142076243Y-84598633D01*
X142042561Y-84557925D01*
X142008568Y-84519811D01*
X141973529Y-84483379D01*
X141960161Y-84470154D01*
X141918198Y-84431106D01*
X141877788Y-84397639D01*
X141837943Y-84369056D01*
X141797673Y-84344661D01*
X141755989Y-84323755D01*
X141746048Y-84319346D01*
X141692034Y-84299558D01*
X141636680Y-84286270D01*
X141580497Y-84279466D01*
X141523997Y-84279130D01*
X141467691Y-84285248D01*
X141412090Y-84297803D01*
X141357706Y-84316779D01*
X141323906Y-84332221D01*
X141276261Y-84358932D01*
X141228702Y-84391306D01*
X141181092Y-84429484D01*
X141133295Y-84473602D01*
X141085175Y-84523800D01*
X141036595Y-84580217D01*
X140987419Y-84642989D01*
X140937511Y-84712257D01*
X140910428Y-84752081D01*
X140898855Y-84769360D01*
X140888666Y-84784450D01*
X140880413Y-84796542D01*
X140874648Y-84804830D01*
X140871923Y-84808507D01*
X140871781Y-84808601D01*
X140870747Y-84805105D01*
X140867877Y-84796228D01*
X140863511Y-84783001D01*
X140857989Y-84766455D01*
X140851827Y-84748140D01*
X140831879Y-84689068D01*
X140857259Y-84629607D01*
X140916484Y-84499402D01*
X140981930Y-84371549D01*
X141053357Y-84246368D01*
X141130526Y-84124175D01*
X141213197Y-84005291D01*
X141301131Y-83890032D01*
X141394087Y-83778719D01*
X141491827Y-83671669D01*
X141594110Y-83569200D01*
X141700696Y-83471632D01*
X141777720Y-83406436D01*
X141894208Y-83315348D01*
X142014221Y-83229957D01*
X142137554Y-83150339D01*
X142263998Y-83076567D01*
X142393349Y-83008715D01*
X142525399Y-82946858D01*
X142659942Y-82891068D01*
X142796772Y-82841421D01*
X142935683Y-82797989D01*
X143076468Y-82760847D01*
X143218920Y-82730068D01*
X143362833Y-82705728D01*
X143508002Y-82687899D01*
X143654218Y-82676655D01*
X143801277Y-82672071D01*
X143828346Y-82671959D01*
X143975897Y-82675327D01*
G37*
X143975897Y-82675327D02*
X144122621Y-82685371D01*
X144268316Y-82702022D01*
X144412782Y-82725213D01*
X144555816Y-82754874D01*
X144697217Y-82790936D01*
X144836784Y-82833332D01*
X144974315Y-82881993D01*
X145109609Y-82936851D01*
X145242465Y-82997836D01*
X145372681Y-83064881D01*
X145500055Y-83137917D01*
X145624386Y-83216875D01*
X145745473Y-83301687D01*
X145799386Y-83342156D01*
X145895365Y-83419049D01*
X145990416Y-83501675D01*
X146083468Y-83588994D01*
X146173454Y-83679965D01*
X146259302Y-83773549D01*
X146336134Y-83864026D01*
X146408218Y-83956060D01*
X146478722Y-84053393D01*
X146546663Y-84154578D01*
X146611062Y-84258168D01*
X146656388Y-84336466D01*
X146671266Y-84363710D01*
X146688114Y-84395754D01*
X146706230Y-84431177D01*
X146724912Y-84468555D01*
X146743458Y-84506465D01*
X146761165Y-84543485D01*
X146777331Y-84578193D01*
X146791254Y-84609164D01*
X146793193Y-84613601D01*
X146822413Y-84680763D01*
X146800872Y-84745247D01*
X146779331Y-84809732D01*
X146743506Y-84755979D01*
X146698961Y-84691123D01*
X146655633Y-84632136D01*
X146612985Y-84578345D01*
X146570482Y-84529078D01*
X146527588Y-84483662D01*
X146522563Y-84478614D01*
X146476923Y-84435498D01*
X146432245Y-84398457D01*
X146387849Y-84366994D01*
X146343054Y-84340614D01*
X146312466Y-84325530D01*
X146274612Y-84309563D01*
X146239004Y-84297565D01*
X146203099Y-84288857D01*
X146164352Y-84282759D01*
X146144440Y-84280601D01*
X146088111Y-84278579D01*
X146032171Y-84283317D01*
X145976633Y-84294810D01*
X145921514Y-84313055D01*
X145866828Y-84338048D01*
X145824786Y-84362036D01*
X145798710Y-84378917D01*
X145774472Y-84396222D01*
X145750786Y-84415006D01*
X145726364Y-84436324D01*
X145699919Y-84461232D01*
X145680670Y-84480212D01*
X145644649Y-84517555D01*
X145609811Y-84556475D01*
X145575420Y-84597896D01*
X145540735Y-84642744D01*
X145505018Y-84691944D01*
X145467531Y-84746420D01*
X145464696Y-84750642D01*
X145425331Y-84809356D01*
X145404480Y-84747325D01*
X145385272Y-84691462D01*
X145367041Y-84641201D01*
X145349374Y-84595516D01*
X145331856Y-84553378D01*
X145314075Y-84513760D01*
X145295617Y-84475637D01*
X145292894Y-84470240D01*
X145269212Y-84426145D01*
X145245892Y-84388244D01*
X145222479Y-84356003D01*
X145198517Y-84328893D01*
X145173550Y-84306382D01*
X145147124Y-84287938D01*
X145127133Y-84276976D01*
X145090813Y-84262277D01*
X145050925Y-84251835D01*
X145008642Y-84245608D01*
X144965136Y-84243553D01*
X144921579Y-84245629D01*
X144879142Y-84251794D01*
X144838998Y-84262005D01*
X144802318Y-84276221D01*
X144777785Y-84289487D01*
X144751712Y-84308500D01*
X144726123Y-84332810D01*
X144700906Y-84362606D01*
X144675947Y-84398073D01*
X144651131Y-84439400D01*
X144626345Y-84486772D01*
X144601476Y-84540378D01*
X144576409Y-84600404D01*
X144555529Y-84654813D01*
X144541499Y-84693421D01*
X144527488Y-84733538D01*
X144513410Y-84775476D01*
X144499180Y-84819546D01*
X144484714Y-84866062D01*
X144469926Y-84915335D01*
X144454731Y-84967679D01*
X144439044Y-85023405D01*
X144422780Y-85082827D01*
X144405855Y-85146255D01*
X144388182Y-85214004D01*
X144369677Y-85286385D01*
X144350255Y-85363710D01*
X144329830Y-85446293D01*
X144308319Y-85534445D01*
X144285635Y-85628479D01*
X144261693Y-85728707D01*
X144251718Y-85770720D01*
X144230715Y-85859189D01*
X144211121Y-85941446D01*
X144192835Y-86017882D01*
X144175760Y-86088889D01*
X144159797Y-86154858D01*
X144144846Y-86216180D01*
X144130808Y-86273248D01*
X144117585Y-86326452D01*
X144105078Y-86376183D01*
X144093188Y-86422833D01*
X144081815Y-86466794D01*
X144070861Y-86508457D01*
X144060228Y-86548214D01*
X144049815Y-86586455D01*
X144039524Y-86623572D01*
X144029257Y-86659956D01*
X144018913Y-86696000D01*
X144010748Y-86724066D01*
X143991516Y-86788112D01*
X143971904Y-86850186D01*
X143952124Y-86909723D01*
X143932384Y-86966158D01*
X143912895Y-87018927D01*
X143893867Y-87067463D01*
X143875511Y-87111202D01*
X143858037Y-87149578D01*
X143841655Y-87182026D01*
X143837696Y-87189251D01*
X143825673Y-87210782D01*
X143816948Y-87195895D01*
X143803543Y-87171207D01*
X143788758Y-87140697D01*
X143772887Y-87105106D01*
X143756223Y-87065174D01*
X143739060Y-87021642D01*
X143721691Y-86975250D01*
X143704410Y-86926741D01*
X143687510Y-86876855D01*
X143674265Y-86835826D01*
X143662486Y-86798081D01*
X143650810Y-86759794D01*
X143639139Y-86720591D01*
X143627377Y-86680094D01*
X143615425Y-86637927D01*
X143603185Y-86593715D01*
X143590559Y-86547080D01*
X143577451Y-86497647D01*
X143563761Y-86445040D01*
X143549392Y-86388882D01*
X143534247Y-86328797D01*
X143518228Y-86264409D01*
X143501236Y-86195342D01*
X143483175Y-86121219D01*
X143463946Y-86041665D01*
X143443451Y-85956302D01*
X143421593Y-85864756D01*
X143418542Y-85851944D01*
X143395498Y-85755349D01*
X143373842Y-85665025D01*
X143353485Y-85580631D01*
X143334338Y-85501827D01*
X143316311Y-85428275D01*
X143299315Y-85359634D01*
X143283261Y-85295564D01*
X143268058Y-85235725D01*
X143253619Y-85179778D01*
X143239854Y-85127383D01*
X143226673Y-85078200D01*
X143213987Y-85031889D01*
X143201706Y-84988110D01*
X143189742Y-84946524D01*
X143178006Y-84906790D01*
X143166407Y-84868570D01*
X143154856Y-84831522D01*
X143143265Y-84795308D01*
X143131544Y-84759586D01*
X143131052Y-84758106D01*
X143106602Y-84686774D01*
X143082769Y-84621915D01*
X143059393Y-84563273D01*
X143036314Y-84510595D01*
X143013373Y-84463623D01*
X142990411Y-84422103D01*
X142967268Y-84385779D01*
X142943785Y-84354396D01*
X142919801Y-84327699D01*
X142895158Y-84305432D01*
X142869697Y-84287339D01*
X142843256Y-84273166D01*
X142823208Y-84265134D01*
X142781675Y-84253632D01*
X142736952Y-84246534D01*
X142690693Y-84243855D01*
X142644550Y-84245612D01*
X142600178Y-84251822D01*
X142559259Y-84262491D01*
X142539821Y-84269356D01*
X142524401Y-84275942D01*
X142510432Y-84283570D01*
X142495350Y-84293560D01*
X142486346Y-84300033D01*
X142461748Y-84320563D01*
X142437562Y-84345991D01*
X142413675Y-84376527D01*
X142389973Y-84412381D01*
X142366342Y-84453764D01*
X142342670Y-84500884D01*
X142318842Y-84553952D01*
X142294745Y-84613177D01*
X142270266Y-84678770D01*
X142249994Y-84736965D01*
X142225615Y-84808957D01*
X142182797Y-84745432D01*
X142145624Y-84691475D01*
X142110352Y-84642846D01*
X142076243Y-84598633D01*
X142042561Y-84557925D01*
X142008568Y-84519811D01*
X141973529Y-84483379D01*
X141960161Y-84470154D01*
X141918198Y-84431106D01*
X141877788Y-84397639D01*
X141837943Y-84369056D01*
X141797673Y-84344661D01*
X141755989Y-84323755D01*
X141746048Y-84319346D01*
X141692034Y-84299558D01*
X141636680Y-84286270D01*
X141580497Y-84279466D01*
X141523997Y-84279130D01*
X141467691Y-84285248D01*
X141412090Y-84297803D01*
X141357706Y-84316779D01*
X141323906Y-84332221D01*
X141276261Y-84358932D01*
X141228702Y-84391306D01*
X141181092Y-84429484D01*
X141133295Y-84473602D01*
X141085175Y-84523800D01*
X141036595Y-84580217D01*
X140987419Y-84642989D01*
X140937511Y-84712257D01*
X140910428Y-84752081D01*
X140898855Y-84769360D01*
X140888666Y-84784450D01*
X140880413Y-84796542D01*
X140874648Y-84804830D01*
X140871923Y-84808507D01*
X140871781Y-84808601D01*
X140870747Y-84805105D01*
X140867877Y-84796228D01*
X140863511Y-84783001D01*
X140857989Y-84766455D01*
X140851827Y-84748140D01*
X140831879Y-84689068D01*
X140857259Y-84629607D01*
X140916484Y-84499402D01*
X140981930Y-84371549D01*
X141053357Y-84246368D01*
X141130526Y-84124175D01*
X141213197Y-84005291D01*
X141301131Y-83890032D01*
X141394087Y-83778719D01*
X141491827Y-83671669D01*
X141594110Y-83569200D01*
X141700696Y-83471632D01*
X141777720Y-83406436D01*
X141894208Y-83315348D01*
X142014221Y-83229957D01*
X142137554Y-83150339D01*
X142263998Y-83076567D01*
X142393349Y-83008715D01*
X142525399Y-82946858D01*
X142659942Y-82891068D01*
X142796772Y-82841421D01*
X142935683Y-82797989D01*
X143076468Y-82760847D01*
X143218920Y-82730068D01*
X143362833Y-82705728D01*
X143508002Y-82687899D01*
X143654218Y-82676655D01*
X143801277Y-82672071D01*
X143828346Y-82671959D01*
X143975897Y-82675327D01*
G36*
X146147648Y-84337100D02*
G01*
X146181289Y-84347191D01*
X146214253Y-84361354D01*
X146252168Y-84381512D01*
X146288719Y-84404751D01*
X146324884Y-84431816D01*
X146361644Y-84463451D01*
X146399979Y-84500400D01*
X146407379Y-84507936D01*
X146445367Y-84548515D01*
X146482847Y-84591842D01*
X146520233Y-84638480D01*
X146557937Y-84688992D01*
X146596372Y-84743942D01*
X146635952Y-84803892D01*
X146677089Y-84869406D01*
X146698731Y-84905024D01*
X146733119Y-84962195D01*
X146726646Y-84982917D01*
X146718956Y-85008496D01*
X146709838Y-85040559D01*
X146699325Y-85078977D01*
X146687449Y-85123621D01*
X146674243Y-85174360D01*
X146659739Y-85231065D01*
X146643969Y-85293607D01*
X146626968Y-85361856D01*
X146608766Y-85435682D01*
X146589397Y-85514956D01*
X146568894Y-85599549D01*
X146547288Y-85689330D01*
X146524613Y-85784171D01*
X146517331Y-85814746D01*
X146494543Y-85910314D01*
X146473140Y-85999619D01*
X146453031Y-86083007D01*
X146434125Y-86160827D01*
X146416330Y-86233424D01*
X146399557Y-86301148D01*
X146383715Y-86364344D01*
X146368711Y-86423360D01*
X146354456Y-86478544D01*
X146340859Y-86530242D01*
X146327828Y-86578802D01*
X146315273Y-86624570D01*
X146303103Y-86667895D01*
X146291227Y-86709124D01*
X146279554Y-86748603D01*
X146267994Y-86786680D01*
X146256454Y-86823702D01*
X146244845Y-86860017D01*
X146238939Y-86878160D01*
X146222983Y-86925555D01*
X146206437Y-86972205D01*
X146189637Y-87017272D01*
X146172921Y-87059915D01*
X146156624Y-87099297D01*
X146141085Y-87134577D01*
X146126640Y-87164916D01*
X146114680Y-87187612D01*
X146101600Y-87210892D01*
X146089536Y-87189306D01*
X146073488Y-87158536D01*
X146056288Y-87121723D01*
X146038156Y-87079456D01*
X146019314Y-87032325D01*
X145999982Y-86980919D01*
X145980380Y-86925828D01*
X145960731Y-86867641D01*
X145941254Y-86806947D01*
X145922171Y-86744336D01*
X145919681Y-86735920D01*
X145902285Y-86675694D01*
X145883734Y-86609155D01*
X145864118Y-86536645D01*
X145843530Y-86458510D01*
X145822063Y-86375092D01*
X145806272Y-86312586D01*
X145799512Y-86285598D01*
X145793105Y-86259941D01*
X145786926Y-86235093D01*
X145780849Y-86210532D01*
X145774747Y-86185735D01*
X145768494Y-86160181D01*
X145761964Y-86133347D01*
X145755032Y-86104711D01*
X145747570Y-86073751D01*
X145739454Y-86039944D01*
X145730556Y-86002768D01*
X145720751Y-85961702D01*
X145709913Y-85916222D01*
X145697916Y-85865807D01*
X145684633Y-85809935D01*
X145669939Y-85748083D01*
X145667272Y-85736853D01*
X145644865Y-85642848D01*
X145623792Y-85555147D01*
X145603970Y-85473427D01*
X145585319Y-85397367D01*
X145567758Y-85326646D01*
X145551207Y-85260942D01*
X145535584Y-85199934D01*
X145520809Y-85143302D01*
X145506802Y-85090722D01*
X145493481Y-85041874D01*
X145484714Y-85010413D01*
X145471378Y-84963000D01*
X145481886Y-84944373D01*
X145492442Y-84926165D01*
X145505963Y-84903622D01*
X145521643Y-84878035D01*
X145538675Y-84850693D01*
X145556255Y-84822889D01*
X145573576Y-84795913D01*
X145589832Y-84771057D01*
X145593932Y-84764880D01*
X145643041Y-84693812D01*
X145691550Y-84628936D01*
X145739387Y-84570329D01*
X145786480Y-84518069D01*
X145832755Y-84472236D01*
X145878142Y-84432908D01*
X145922569Y-84400164D01*
X145938240Y-84390048D01*
X145977773Y-84367324D01*
X146014459Y-84350263D01*
X146049043Y-84338788D01*
X146082271Y-84332820D01*
X146114891Y-84332284D01*
X146147648Y-84337100D01*
G37*
X146147648Y-84337100D02*
X146181289Y-84347191D01*
X146214253Y-84361354D01*
X146252168Y-84381512D01*
X146288719Y-84404751D01*
X146324884Y-84431816D01*
X146361644Y-84463451D01*
X146399979Y-84500400D01*
X146407379Y-84507936D01*
X146445367Y-84548515D01*
X146482847Y-84591842D01*
X146520233Y-84638480D01*
X146557937Y-84688992D01*
X146596372Y-84743942D01*
X146635952Y-84803892D01*
X146677089Y-84869406D01*
X146698731Y-84905024D01*
X146733119Y-84962195D01*
X146726646Y-84982917D01*
X146718956Y-85008496D01*
X146709838Y-85040559D01*
X146699325Y-85078977D01*
X146687449Y-85123621D01*
X146674243Y-85174360D01*
X146659739Y-85231065D01*
X146643969Y-85293607D01*
X146626968Y-85361856D01*
X146608766Y-85435682D01*
X146589397Y-85514956D01*
X146568894Y-85599549D01*
X146547288Y-85689330D01*
X146524613Y-85784171D01*
X146517331Y-85814746D01*
X146494543Y-85910314D01*
X146473140Y-85999619D01*
X146453031Y-86083007D01*
X146434125Y-86160827D01*
X146416330Y-86233424D01*
X146399557Y-86301148D01*
X146383715Y-86364344D01*
X146368711Y-86423360D01*
X146354456Y-86478544D01*
X146340859Y-86530242D01*
X146327828Y-86578802D01*
X146315273Y-86624570D01*
X146303103Y-86667895D01*
X146291227Y-86709124D01*
X146279554Y-86748603D01*
X146267994Y-86786680D01*
X146256454Y-86823702D01*
X146244845Y-86860017D01*
X146238939Y-86878160D01*
X146222983Y-86925555D01*
X146206437Y-86972205D01*
X146189637Y-87017272D01*
X146172921Y-87059915D01*
X146156624Y-87099297D01*
X146141085Y-87134577D01*
X146126640Y-87164916D01*
X146114680Y-87187612D01*
X146101600Y-87210892D01*
X146089536Y-87189306D01*
X146073488Y-87158536D01*
X146056288Y-87121723D01*
X146038156Y-87079456D01*
X146019314Y-87032325D01*
X145999982Y-86980919D01*
X145980380Y-86925828D01*
X145960731Y-86867641D01*
X145941254Y-86806947D01*
X145922171Y-86744336D01*
X145919681Y-86735920D01*
X145902285Y-86675694D01*
X145883734Y-86609155D01*
X145864118Y-86536645D01*
X145843530Y-86458510D01*
X145822063Y-86375092D01*
X145806272Y-86312586D01*
X145799512Y-86285598D01*
X145793105Y-86259941D01*
X145786926Y-86235093D01*
X145780849Y-86210532D01*
X145774747Y-86185735D01*
X145768494Y-86160181D01*
X145761964Y-86133347D01*
X145755032Y-86104711D01*
X145747570Y-86073751D01*
X145739454Y-86039944D01*
X145730556Y-86002768D01*
X145720751Y-85961702D01*
X145709913Y-85916222D01*
X145697916Y-85865807D01*
X145684633Y-85809935D01*
X145669939Y-85748083D01*
X145667272Y-85736853D01*
X145644865Y-85642848D01*
X145623792Y-85555147D01*
X145603970Y-85473427D01*
X145585319Y-85397367D01*
X145567758Y-85326646D01*
X145551207Y-85260942D01*
X145535584Y-85199934D01*
X145520809Y-85143302D01*
X145506802Y-85090722D01*
X145493481Y-85041874D01*
X145484714Y-85010413D01*
X145471378Y-84963000D01*
X145481886Y-84944373D01*
X145492442Y-84926165D01*
X145505963Y-84903622D01*
X145521643Y-84878035D01*
X145538675Y-84850693D01*
X145556255Y-84822889D01*
X145573576Y-84795913D01*
X145589832Y-84771057D01*
X145593932Y-84764880D01*
X145643041Y-84693812D01*
X145691550Y-84628936D01*
X145739387Y-84570329D01*
X145786480Y-84518069D01*
X145832755Y-84472236D01*
X145878142Y-84432908D01*
X145922569Y-84400164D01*
X145938240Y-84390048D01*
X145977773Y-84367324D01*
X146014459Y-84350263D01*
X146049043Y-84338788D01*
X146082271Y-84332820D01*
X146114891Y-84332284D01*
X146147648Y-84337100D01*
G36*
X141587610Y-84335656D02*
G01*
X141623167Y-84345092D01*
X141660183Y-84360317D01*
X141699327Y-84381307D01*
X141713373Y-84389835D01*
X141756757Y-84419863D01*
X141801223Y-84456500D01*
X141846713Y-84499675D01*
X141893167Y-84549321D01*
X141940529Y-84605368D01*
X141988741Y-84667747D01*
X142037744Y-84736389D01*
X142087480Y-84811226D01*
X142137891Y-84892188D01*
X142142076Y-84899135D01*
X142180003Y-84962248D01*
X142170728Y-84994797D01*
X142160114Y-85032547D01*
X142148929Y-85073322D01*
X142137100Y-85117414D01*
X142124554Y-85165114D01*
X142111218Y-85216714D01*
X142097019Y-85272507D01*
X142081884Y-85332784D01*
X142065739Y-85397837D01*
X142048511Y-85467957D01*
X142030128Y-85543437D01*
X142010516Y-85624568D01*
X141989602Y-85711643D01*
X141967312Y-85804952D01*
X141960544Y-85833373D01*
X141937710Y-85929085D01*
X141916247Y-86018536D01*
X141896063Y-86102074D01*
X141877065Y-86180052D01*
X141859162Y-86252820D01*
X141842261Y-86320729D01*
X141826270Y-86384131D01*
X141811095Y-86443375D01*
X141796645Y-86498812D01*
X141782828Y-86550794D01*
X141769550Y-86599672D01*
X141756720Y-86645796D01*
X141744245Y-86689517D01*
X141732033Y-86731186D01*
X141719992Y-86771153D01*
X141708028Y-86809771D01*
X141696050Y-86847389D01*
X141683966Y-86884359D01*
X141683215Y-86886626D01*
X141673738Y-86914758D01*
X141663485Y-86944406D01*
X141653044Y-86973923D01*
X141643003Y-87001660D01*
X141633952Y-87025968D01*
X141627591Y-87042413D01*
X141618646Y-87064358D01*
X141608870Y-87087309D01*
X141598664Y-87110423D01*
X141588429Y-87132862D01*
X141578565Y-87153784D01*
X141569474Y-87172348D01*
X141561556Y-87187714D01*
X141555212Y-87199041D01*
X141550842Y-87205488D01*
X141549295Y-87206666D01*
X141546607Y-87203797D01*
X141541600Y-87195907D01*
X141534901Y-87184078D01*
X141527138Y-87169386D01*
X141523906Y-87163012D01*
X141509830Y-87134111D01*
X141495880Y-87103776D01*
X141481987Y-87071759D01*
X141468077Y-87037811D01*
X141454079Y-87001685D01*
X141439920Y-86963132D01*
X141425529Y-86921905D01*
X141410834Y-86877755D01*
X141395763Y-86830434D01*
X141380243Y-86779694D01*
X141364203Y-86725287D01*
X141347571Y-86666966D01*
X141330275Y-86604480D01*
X141312243Y-86537584D01*
X141293403Y-86466028D01*
X141273683Y-86389564D01*
X141253011Y-86307945D01*
X141231315Y-86220922D01*
X141208523Y-86128247D01*
X141184563Y-86029672D01*
X141159363Y-85924949D01*
X141134277Y-85819826D01*
X141109745Y-85717021D01*
X141086363Y-85619777D01*
X141064162Y-85528217D01*
X141043171Y-85442462D01*
X141023420Y-85362635D01*
X141004940Y-85288855D01*
X140987762Y-85221245D01*
X140971914Y-85159926D01*
X140957428Y-85105021D01*
X140947622Y-85068666D01*
X140918261Y-84960972D01*
X140956517Y-84897639D01*
X141006267Y-84817518D01*
X141054807Y-84743914D01*
X141102241Y-84676699D01*
X141148675Y-84615746D01*
X141194214Y-84560926D01*
X141238966Y-84512113D01*
X141283035Y-84469180D01*
X141326526Y-84431998D01*
X141367373Y-84401908D01*
X141408251Y-84376121D01*
X141446567Y-84356264D01*
X141482990Y-84342312D01*
X141518192Y-84334243D01*
X141552842Y-84332032D01*
X141587610Y-84335656D01*
G37*
X141587610Y-84335656D02*
X141623167Y-84345092D01*
X141660183Y-84360317D01*
X141699327Y-84381307D01*
X141713373Y-84389835D01*
X141756757Y-84419863D01*
X141801223Y-84456500D01*
X141846713Y-84499675D01*
X141893167Y-84549321D01*
X141940529Y-84605368D01*
X141988741Y-84667747D01*
X142037744Y-84736389D01*
X142087480Y-84811226D01*
X142137891Y-84892188D01*
X142142076Y-84899135D01*
X142180003Y-84962248D01*
X142170728Y-84994797D01*
X142160114Y-85032547D01*
X142148929Y-85073322D01*
X142137100Y-85117414D01*
X142124554Y-85165114D01*
X142111218Y-85216714D01*
X142097019Y-85272507D01*
X142081884Y-85332784D01*
X142065739Y-85397837D01*
X142048511Y-85467957D01*
X142030128Y-85543437D01*
X142010516Y-85624568D01*
X141989602Y-85711643D01*
X141967312Y-85804952D01*
X141960544Y-85833373D01*
X141937710Y-85929085D01*
X141916247Y-86018536D01*
X141896063Y-86102074D01*
X141877065Y-86180052D01*
X141859162Y-86252820D01*
X141842261Y-86320729D01*
X141826270Y-86384131D01*
X141811095Y-86443375D01*
X141796645Y-86498812D01*
X141782828Y-86550794D01*
X141769550Y-86599672D01*
X141756720Y-86645796D01*
X141744245Y-86689517D01*
X141732033Y-86731186D01*
X141719992Y-86771153D01*
X141708028Y-86809771D01*
X141696050Y-86847389D01*
X141683966Y-86884359D01*
X141683215Y-86886626D01*
X141673738Y-86914758D01*
X141663485Y-86944406D01*
X141653044Y-86973923D01*
X141643003Y-87001660D01*
X141633952Y-87025968D01*
X141627591Y-87042413D01*
X141618646Y-87064358D01*
X141608870Y-87087309D01*
X141598664Y-87110423D01*
X141588429Y-87132862D01*
X141578565Y-87153784D01*
X141569474Y-87172348D01*
X141561556Y-87187714D01*
X141555212Y-87199041D01*
X141550842Y-87205488D01*
X141549295Y-87206666D01*
X141546607Y-87203797D01*
X141541600Y-87195907D01*
X141534901Y-87184078D01*
X141527138Y-87169386D01*
X141523906Y-87163012D01*
X141509830Y-87134111D01*
X141495880Y-87103776D01*
X141481987Y-87071759D01*
X141468077Y-87037811D01*
X141454079Y-87001685D01*
X141439920Y-86963132D01*
X141425529Y-86921905D01*
X141410834Y-86877755D01*
X141395763Y-86830434D01*
X141380243Y-86779694D01*
X141364203Y-86725287D01*
X141347571Y-86666966D01*
X141330275Y-86604480D01*
X141312243Y-86537584D01*
X141293403Y-86466028D01*
X141273683Y-86389564D01*
X141253011Y-86307945D01*
X141231315Y-86220922D01*
X141208523Y-86128247D01*
X141184563Y-86029672D01*
X141159363Y-85924949D01*
X141134277Y-85819826D01*
X141109745Y-85717021D01*
X141086363Y-85619777D01*
X141064162Y-85528217D01*
X141043171Y-85442462D01*
X141023420Y-85362635D01*
X141004940Y-85288855D01*
X140987762Y-85221245D01*
X140971914Y-85159926D01*
X140957428Y-85105021D01*
X140947622Y-85068666D01*
X140918261Y-84960972D01*
X140956517Y-84897639D01*
X141006267Y-84817518D01*
X141054807Y-84743914D01*
X141102241Y-84676699D01*
X141148675Y-84615746D01*
X141194214Y-84560926D01*
X141238966Y-84512113D01*
X141283035Y-84469180D01*
X141326526Y-84431998D01*
X141367373Y-84401908D01*
X141408251Y-84376121D01*
X141446567Y-84356264D01*
X141482990Y-84342312D01*
X141518192Y-84334243D01*
X141552842Y-84332032D01*
X141587610Y-84335656D01*
G36*
X142689810Y-84456268D02*
G01*
X142694674Y-84464552D01*
X142701362Y-84477262D01*
X142709450Y-84493496D01*
X142718510Y-84512358D01*
X142728119Y-84532947D01*
X142737849Y-84554364D01*
X142747277Y-84575711D01*
X142755975Y-84596089D01*
X142763316Y-84614086D01*
X142776710Y-84648535D01*
X142789933Y-84683831D01*
X142803068Y-84720276D01*
X142816198Y-84758174D01*
X142829406Y-84797826D01*
X142842777Y-84839533D01*
X142856393Y-84883598D01*
X142870338Y-84930322D01*
X142884694Y-84980007D01*
X142899547Y-85032957D01*
X142914978Y-85089471D01*
X142931072Y-85149852D01*
X142947911Y-85214403D01*
X142965580Y-85283425D01*
X142984160Y-85357220D01*
X143003737Y-85436090D01*
X143024393Y-85520336D01*
X143046212Y-85610262D01*
X143069277Y-85706168D01*
X143093671Y-85808357D01*
X143096802Y-85821520D01*
X143118817Y-85913926D01*
X143139443Y-86000099D01*
X143158778Y-86080414D01*
X143176917Y-86155246D01*
X143193959Y-86224971D01*
X143209999Y-86289963D01*
X143225135Y-86350599D01*
X143239464Y-86407253D01*
X143253082Y-86460300D01*
X143266086Y-86510116D01*
X143278574Y-86557075D01*
X143290642Y-86601554D01*
X143302387Y-86643928D01*
X143313906Y-86684570D01*
X143325296Y-86723858D01*
X143336654Y-86762166D01*
X143348076Y-86799869D01*
X143356498Y-86827183D01*
X143365500Y-86855723D01*
X143375238Y-86885807D01*
X143385340Y-86916344D01*
X143395433Y-86946245D01*
X143405142Y-86974419D01*
X143414097Y-86999777D01*
X143421923Y-87021229D01*
X143428247Y-87037685D01*
X143430047Y-87042086D01*
X143433147Y-87050522D01*
X143434334Y-87055944D01*
X143434154Y-87056734D01*
X143431789Y-87054605D01*
X143426050Y-87047828D01*
X143417579Y-87037211D01*
X143407019Y-87023558D01*
X143395011Y-87007678D01*
X143393952Y-87006261D01*
X143368810Y-86972047D01*
X143343853Y-86936911D01*
X143318932Y-86900580D01*
X143293899Y-86862779D01*
X143268605Y-86823233D01*
X143242901Y-86781667D01*
X143216638Y-86737806D01*
X143189667Y-86691377D01*
X143161839Y-86642104D01*
X143133006Y-86589712D01*
X143103018Y-86533927D01*
X143071727Y-86474475D01*
X143038984Y-86411080D01*
X143004640Y-86343468D01*
X142968546Y-86271364D01*
X142930554Y-86194494D01*
X142890514Y-86112583D01*
X142848277Y-86025356D01*
X142803695Y-85932538D01*
X142756619Y-85833855D01*
X142742710Y-85804586D01*
X142721232Y-85759484D01*
X142698363Y-85711694D01*
X142674592Y-85662228D01*
X142650410Y-85612097D01*
X142626307Y-85562313D01*
X142602774Y-85513886D01*
X142580301Y-85467830D01*
X142559379Y-85425155D01*
X142540497Y-85386873D01*
X142528498Y-85362711D01*
X142435702Y-85176529D01*
X142456808Y-85098551D01*
X142483885Y-85000874D01*
X142510431Y-84909895D01*
X142536461Y-84825561D01*
X142561994Y-84747818D01*
X142587046Y-84676614D01*
X142608070Y-84620946D01*
X142614466Y-84605209D01*
X142622322Y-84586830D01*
X142631206Y-84566725D01*
X142640686Y-84545810D01*
X142650331Y-84525002D01*
X142659706Y-84505216D01*
X142668381Y-84487367D01*
X142675922Y-84472373D01*
X142681898Y-84461149D01*
X142685876Y-84454610D01*
X142687196Y-84453306D01*
X142689810Y-84456268D01*
G37*
X142689810Y-84456268D02*
X142694674Y-84464552D01*
X142701362Y-84477262D01*
X142709450Y-84493496D01*
X142718510Y-84512358D01*
X142728119Y-84532947D01*
X142737849Y-84554364D01*
X142747277Y-84575711D01*
X142755975Y-84596089D01*
X142763316Y-84614086D01*
X142776710Y-84648535D01*
X142789933Y-84683831D01*
X142803068Y-84720276D01*
X142816198Y-84758174D01*
X142829406Y-84797826D01*
X142842777Y-84839533D01*
X142856393Y-84883598D01*
X142870338Y-84930322D01*
X142884694Y-84980007D01*
X142899547Y-85032957D01*
X142914978Y-85089471D01*
X142931072Y-85149852D01*
X142947911Y-85214403D01*
X142965580Y-85283425D01*
X142984160Y-85357220D01*
X143003737Y-85436090D01*
X143024393Y-85520336D01*
X143046212Y-85610262D01*
X143069277Y-85706168D01*
X143093671Y-85808357D01*
X143096802Y-85821520D01*
X143118817Y-85913926D01*
X143139443Y-86000099D01*
X143158778Y-86080414D01*
X143176917Y-86155246D01*
X143193959Y-86224971D01*
X143209999Y-86289963D01*
X143225135Y-86350599D01*
X143239464Y-86407253D01*
X143253082Y-86460300D01*
X143266086Y-86510116D01*
X143278574Y-86557075D01*
X143290642Y-86601554D01*
X143302387Y-86643928D01*
X143313906Y-86684570D01*
X143325296Y-86723858D01*
X143336654Y-86762166D01*
X143348076Y-86799869D01*
X143356498Y-86827183D01*
X143365500Y-86855723D01*
X143375238Y-86885807D01*
X143385340Y-86916344D01*
X143395433Y-86946245D01*
X143405142Y-86974419D01*
X143414097Y-86999777D01*
X143421923Y-87021229D01*
X143428247Y-87037685D01*
X143430047Y-87042086D01*
X143433147Y-87050522D01*
X143434334Y-87055944D01*
X143434154Y-87056734D01*
X143431789Y-87054605D01*
X143426050Y-87047828D01*
X143417579Y-87037211D01*
X143407019Y-87023558D01*
X143395011Y-87007678D01*
X143393952Y-87006261D01*
X143368810Y-86972047D01*
X143343853Y-86936911D01*
X143318932Y-86900580D01*
X143293899Y-86862779D01*
X143268605Y-86823233D01*
X143242901Y-86781667D01*
X143216638Y-86737806D01*
X143189667Y-86691377D01*
X143161839Y-86642104D01*
X143133006Y-86589712D01*
X143103018Y-86533927D01*
X143071727Y-86474475D01*
X143038984Y-86411080D01*
X143004640Y-86343468D01*
X142968546Y-86271364D01*
X142930554Y-86194494D01*
X142890514Y-86112583D01*
X142848277Y-86025356D01*
X142803695Y-85932538D01*
X142756619Y-85833855D01*
X142742710Y-85804586D01*
X142721232Y-85759484D01*
X142698363Y-85711694D01*
X142674592Y-85662228D01*
X142650410Y-85612097D01*
X142626307Y-85562313D01*
X142602774Y-85513886D01*
X142580301Y-85467830D01*
X142559379Y-85425155D01*
X142540497Y-85386873D01*
X142528498Y-85362711D01*
X142435702Y-85176529D01*
X142456808Y-85098551D01*
X142483885Y-85000874D01*
X142510431Y-84909895D01*
X142536461Y-84825561D01*
X142561994Y-84747818D01*
X142587046Y-84676614D01*
X142608070Y-84620946D01*
X142614466Y-84605209D01*
X142622322Y-84586830D01*
X142631206Y-84566725D01*
X142640686Y-84545810D01*
X142650331Y-84525002D01*
X142659706Y-84505216D01*
X142668381Y-84487367D01*
X142675922Y-84472373D01*
X142681898Y-84461149D01*
X142685876Y-84454610D01*
X142687196Y-84453306D01*
X142689810Y-84456268D01*
G36*
X144969034Y-84461558D02*
G01*
X144974300Y-84470242D01*
X144981266Y-84483870D01*
X144983980Y-84489228D01*
X145004637Y-84531841D01*
X145025384Y-84578800D01*
X145046322Y-84630396D01*
X145067552Y-84686919D01*
X145089176Y-84748659D01*
X145111295Y-84815909D01*
X145134011Y-84888957D01*
X145157425Y-84968096D01*
X145181637Y-85053615D01*
X145185045Y-85065927D01*
X145192045Y-85091489D01*
X145198420Y-85115167D01*
X145203950Y-85136113D01*
X145208417Y-85153483D01*
X145211601Y-85166432D01*
X145213283Y-85174113D01*
X145213493Y-85175687D01*
X145211989Y-85180355D01*
X145207743Y-85190189D01*
X145201154Y-85204351D01*
X145192620Y-85222007D01*
X145182539Y-85242319D01*
X145171310Y-85264452D01*
X145169779Y-85267433D01*
X145155936Y-85294541D01*
X145141098Y-85323950D01*
X145125102Y-85356003D01*
X145107779Y-85391043D01*
X145088966Y-85429411D01*
X145068494Y-85471449D01*
X145046200Y-85517500D01*
X145021916Y-85567904D01*
X144995477Y-85623006D01*
X144966716Y-85683146D01*
X144935469Y-85748666D01*
X144901568Y-85819909D01*
X144893559Y-85836760D01*
X144848495Y-85931333D01*
X144805977Y-86020011D01*
X144765841Y-86103107D01*
X144727922Y-86180932D01*
X144692056Y-86253798D01*
X144658079Y-86322019D01*
X144625826Y-86385907D01*
X144595133Y-86445773D01*
X144565837Y-86501931D01*
X144537772Y-86554692D01*
X144510775Y-86604369D01*
X144484681Y-86651274D01*
X144459326Y-86695720D01*
X144434545Y-86738019D01*
X144410175Y-86778483D01*
X144386051Y-86817424D01*
X144362010Y-86855156D01*
X144341439Y-86886626D01*
X144325029Y-86911145D01*
X144308379Y-86935480D01*
X144291916Y-86959051D01*
X144276071Y-86981278D01*
X144261275Y-87001582D01*
X144247957Y-87019382D01*
X144236547Y-87034098D01*
X144227475Y-87045151D01*
X144221171Y-87051961D01*
X144218065Y-87053948D01*
X144217813Y-87053351D01*
X144218931Y-87049888D01*
X144222016Y-87041202D01*
X144226661Y-87028416D01*
X144232460Y-87012649D01*
X144235964Y-87003197D01*
X144248073Y-86970058D01*
X144260111Y-86935944D01*
X144272157Y-86900561D01*
X144284289Y-86863616D01*
X144296587Y-86824815D01*
X144309129Y-86783864D01*
X144321994Y-86740469D01*
X144335262Y-86694337D01*
X144349011Y-86645175D01*
X144363319Y-86592688D01*
X144378267Y-86536583D01*
X144393933Y-86476566D01*
X144410395Y-86412344D01*
X144427733Y-86343623D01*
X144446026Y-86270109D01*
X144465353Y-86191508D01*
X144485792Y-86107528D01*
X144507423Y-86017873D01*
X144530324Y-85922251D01*
X144554574Y-85820369D01*
X144559925Y-85797813D01*
X144577753Y-85722893D01*
X144595388Y-85649300D01*
X144612697Y-85577574D01*
X144629546Y-85508256D01*
X144645802Y-85441886D01*
X144661331Y-85379007D01*
X144676000Y-85320158D01*
X144689676Y-85265880D01*
X144702224Y-85216715D01*
X144713512Y-85173203D01*
X144721183Y-85144186D01*
X144747786Y-85046582D01*
X144773693Y-84955658D01*
X144798924Y-84871360D01*
X144823496Y-84793631D01*
X144847429Y-84722418D01*
X144870740Y-84657665D01*
X144893449Y-84599317D01*
X144915574Y-84547318D01*
X144937133Y-84501614D01*
X144938987Y-84497925D01*
X144948274Y-84479475D01*
X144955087Y-84466774D01*
X144960262Y-84459662D01*
X144964632Y-84457977D01*
X144969034Y-84461558D01*
G37*
X144969034Y-84461558D02*
X144974300Y-84470242D01*
X144981266Y-84483870D01*
X144983980Y-84489228D01*
X145004637Y-84531841D01*
X145025384Y-84578800D01*
X145046322Y-84630396D01*
X145067552Y-84686919D01*
X145089176Y-84748659D01*
X145111295Y-84815909D01*
X145134011Y-84888957D01*
X145157425Y-84968096D01*
X145181637Y-85053615D01*
X145185045Y-85065927D01*
X145192045Y-85091489D01*
X145198420Y-85115167D01*
X145203950Y-85136113D01*
X145208417Y-85153483D01*
X145211601Y-85166432D01*
X145213283Y-85174113D01*
X145213493Y-85175687D01*
X145211989Y-85180355D01*
X145207743Y-85190189D01*
X145201154Y-85204351D01*
X145192620Y-85222007D01*
X145182539Y-85242319D01*
X145171310Y-85264452D01*
X145169779Y-85267433D01*
X145155936Y-85294541D01*
X145141098Y-85323950D01*
X145125102Y-85356003D01*
X145107779Y-85391043D01*
X145088966Y-85429411D01*
X145068494Y-85471449D01*
X145046200Y-85517500D01*
X145021916Y-85567904D01*
X144995477Y-85623006D01*
X144966716Y-85683146D01*
X144935469Y-85748666D01*
X144901568Y-85819909D01*
X144893559Y-85836760D01*
X144848495Y-85931333D01*
X144805977Y-86020011D01*
X144765841Y-86103107D01*
X144727922Y-86180932D01*
X144692056Y-86253798D01*
X144658079Y-86322019D01*
X144625826Y-86385907D01*
X144595133Y-86445773D01*
X144565837Y-86501931D01*
X144537772Y-86554692D01*
X144510775Y-86604369D01*
X144484681Y-86651274D01*
X144459326Y-86695720D01*
X144434545Y-86738019D01*
X144410175Y-86778483D01*
X144386051Y-86817424D01*
X144362010Y-86855156D01*
X144341439Y-86886626D01*
X144325029Y-86911145D01*
X144308379Y-86935480D01*
X144291916Y-86959051D01*
X144276071Y-86981278D01*
X144261275Y-87001582D01*
X144247957Y-87019382D01*
X144236547Y-87034098D01*
X144227475Y-87045151D01*
X144221171Y-87051961D01*
X144218065Y-87053948D01*
X144217813Y-87053351D01*
X144218931Y-87049888D01*
X144222016Y-87041202D01*
X144226661Y-87028416D01*
X144232460Y-87012649D01*
X144235964Y-87003197D01*
X144248073Y-86970058D01*
X144260111Y-86935944D01*
X144272157Y-86900561D01*
X144284289Y-86863616D01*
X144296587Y-86824815D01*
X144309129Y-86783864D01*
X144321994Y-86740469D01*
X144335262Y-86694337D01*
X144349011Y-86645175D01*
X144363319Y-86592688D01*
X144378267Y-86536583D01*
X144393933Y-86476566D01*
X144410395Y-86412344D01*
X144427733Y-86343623D01*
X144446026Y-86270109D01*
X144465353Y-86191508D01*
X144485792Y-86107528D01*
X144507423Y-86017873D01*
X144530324Y-85922251D01*
X144554574Y-85820369D01*
X144559925Y-85797813D01*
X144577753Y-85722893D01*
X144595388Y-85649300D01*
X144612697Y-85577574D01*
X144629546Y-85508256D01*
X144645802Y-85441886D01*
X144661331Y-85379007D01*
X144676000Y-85320158D01*
X144689676Y-85265880D01*
X144702224Y-85216715D01*
X144713512Y-85173203D01*
X144721183Y-85144186D01*
X144747786Y-85046582D01*
X144773693Y-84955658D01*
X144798924Y-84871360D01*
X144823496Y-84793631D01*
X144847429Y-84722418D01*
X144870740Y-84657665D01*
X144893449Y-84599317D01*
X144915574Y-84547318D01*
X144937133Y-84501614D01*
X144938987Y-84497925D01*
X144948274Y-84479475D01*
X144955087Y-84466774D01*
X144960262Y-84459662D01*
X144964632Y-84457977D01*
X144969034Y-84461558D01*
D12*
X149546000Y-83880000D02*
X152206000Y-83880000D01*
X149546000Y-81280000D02*
X149546000Y-83880000D01*
X152206000Y-81280000D02*
X152206000Y-83880000D01*
X149546000Y-81280000D02*
X152206000Y-81280000D01*
X149546000Y-80010000D02*
X149546000Y-78680000D01*
X149546000Y-78680000D02*
X150876000Y-78680000D01*
X110220000Y-99370000D02*
X107360000Y-99370000D01*
X107360000Y-99370000D02*
X107360000Y-101290000D01*
X107360000Y-101290000D02*
X110220000Y-101290000D01*
X112284000Y-101290000D02*
X115144000Y-101290000D01*
X115144000Y-101290000D02*
X115144000Y-99370000D01*
X115144000Y-99370000D02*
X112284000Y-99370000D01*
X135718000Y-103180000D02*
X132858000Y-103180000D01*
X135718000Y-105100000D02*
X135718000Y-103180000D01*
X132858000Y-105100000D02*
X135718000Y-105100000D01*
X135718000Y-100894000D02*
X132858000Y-100894000D01*
X135718000Y-102814000D02*
X135718000Y-100894000D01*
X132858000Y-102814000D02*
X135718000Y-102814000D01*
X109488900Y-102046740D02*
X110288900Y-102046740D01*
X107038900Y-105296740D02*
X107338900Y-105296740D01*
X109888900Y-102496740D02*
X109488900Y-102046740D01*
X110288900Y-102046740D02*
X109888900Y-102496740D01*
X115038900Y-108096740D02*
X115038900Y-105296740D01*
X107338900Y-108096740D02*
X107338900Y-105296740D01*
X115338900Y-105296740D02*
X115338900Y-103746740D01*
X115038900Y-105296740D02*
X115338900Y-105296740D01*
X107038900Y-105296740D02*
X107038900Y-103746740D01*
X142434000Y-74990000D02*
X142434000Y-73660000D01*
X143764000Y-74990000D02*
X142434000Y-74990000D01*
X145034000Y-74990000D02*
X145034000Y-72330000D01*
X145034000Y-72330000D02*
X147634000Y-72330000D01*
X145034000Y-74990000D02*
X147634000Y-74990000D01*
X147634000Y-74990000D02*
X147634000Y-72330000D01*
X97596000Y-70298000D02*
X94936000Y-70298000D01*
X97596000Y-83058000D02*
X97596000Y-70298000D01*
X94936000Y-83058000D02*
X94936000Y-70298000D01*
X97596000Y-83058000D02*
X94936000Y-83058000D01*
X97596000Y-84328000D02*
X97596000Y-85658000D01*
X97596000Y-85658000D02*
X96266000Y-85658000D01*
X101533000Y-85658000D02*
X100203000Y-85658000D01*
X101533000Y-84328000D02*
X101533000Y-85658000D01*
X101533000Y-83058000D02*
X98873000Y-83058000D01*
X98873000Y-83058000D02*
X98873000Y-70298000D01*
X101533000Y-83058000D02*
X101533000Y-70298000D01*
X101533000Y-70298000D02*
X98873000Y-70298000D01*
X126636780Y-99372420D02*
X118381780Y-99372420D01*
X126636780Y-99372420D02*
X126636780Y-112453420D01*
X118381780Y-99372420D02*
X118381780Y-112453420D01*
X126636780Y-104452420D02*
X118381780Y-104452420D01*
X126636780Y-112453420D02*
X118381780Y-112453420D01*
X101450000Y-89290000D02*
X98400000Y-89290000D01*
X101450000Y-93590000D02*
X98400000Y-93590000D01*
X101428234Y-93605526D02*
G75*
G03*
X101450000Y-89290000I-1528234J2165526D01*
G01*
X98355487Y-89321751D02*
G75*
G03*
X98400000Y-93590000I1544513J-2118249D01*
G01*
D10*
X153503333Y-80752190D02*
X153503333Y-81109333D01*
X153479523Y-81180761D01*
X153431904Y-81228380D01*
X153360476Y-81252190D01*
X153312857Y-81252190D01*
X154003333Y-81252190D02*
X153717619Y-81252190D01*
X153860476Y-81252190D02*
X153860476Y-80752190D01*
X153812857Y-80823619D01*
X153765238Y-80871238D01*
X153717619Y-80895047D01*
X108850952Y-99032190D02*
X108850952Y-98532190D01*
X108970000Y-98532190D01*
X109041428Y-98556000D01*
X109089047Y-98603619D01*
X109112857Y-98651238D01*
X109136666Y-98746476D01*
X109136666Y-98817904D01*
X109112857Y-98913142D01*
X109089047Y-98960761D01*
X109041428Y-99008380D01*
X108970000Y-99032190D01*
X108850952Y-99032190D01*
X109612857Y-99032190D02*
X109327142Y-99032190D01*
X109470000Y-99032190D02*
X109470000Y-98532190D01*
X109422380Y-98603619D01*
X109374761Y-98651238D01*
X109327142Y-98675047D01*
X112914952Y-99032190D02*
X112914952Y-98532190D01*
X113034000Y-98532190D01*
X113105428Y-98556000D01*
X113153047Y-98603619D01*
X113176857Y-98651238D01*
X113200666Y-98746476D01*
X113200666Y-98817904D01*
X113176857Y-98913142D01*
X113153047Y-98960761D01*
X113105428Y-99008380D01*
X113034000Y-99032190D01*
X112914952Y-99032190D01*
X113391142Y-98579809D02*
X113414952Y-98556000D01*
X113462571Y-98532190D01*
X113581619Y-98532190D01*
X113629238Y-98556000D01*
X113653047Y-98579809D01*
X113676857Y-98627428D01*
X113676857Y-98675047D01*
X113653047Y-98746476D01*
X113367333Y-99032190D01*
X113676857Y-99032190D01*
X129678952Y-104493190D02*
X129678952Y-103993190D01*
X129798000Y-103993190D01*
X129869428Y-104017000D01*
X129917047Y-104064619D01*
X129940857Y-104112238D01*
X129964666Y-104207476D01*
X129964666Y-104278904D01*
X129940857Y-104374142D01*
X129917047Y-104421761D01*
X129869428Y-104469380D01*
X129798000Y-104493190D01*
X129678952Y-104493190D01*
X130131333Y-103993190D02*
X130440857Y-103993190D01*
X130274190Y-104183666D01*
X130345619Y-104183666D01*
X130393238Y-104207476D01*
X130417047Y-104231285D01*
X130440857Y-104278904D01*
X130440857Y-104397952D01*
X130417047Y-104445571D01*
X130393238Y-104469380D01*
X130345619Y-104493190D01*
X130202761Y-104493190D01*
X130155142Y-104469380D01*
X130131333Y-104445571D01*
X129678952Y-102080190D02*
X129678952Y-101580190D01*
X129798000Y-101580190D01*
X129869428Y-101604000D01*
X129917047Y-101651619D01*
X129940857Y-101699238D01*
X129964666Y-101794476D01*
X129964666Y-101865904D01*
X129940857Y-101961142D01*
X129917047Y-102008761D01*
X129869428Y-102056380D01*
X129798000Y-102080190D01*
X129678952Y-102080190D01*
X130393238Y-101746857D02*
X130393238Y-102080190D01*
X130274190Y-101556380D02*
X130155142Y-101913523D01*
X130464666Y-101913523D01*
X115911333Y-104882190D02*
X115911333Y-105239333D01*
X115887523Y-105310761D01*
X115839904Y-105358380D01*
X115768476Y-105382190D01*
X115720857Y-105382190D01*
X116101809Y-104882190D02*
X116411333Y-104882190D01*
X116244666Y-105072666D01*
X116316095Y-105072666D01*
X116363714Y-105096476D01*
X116387523Y-105120285D01*
X116411333Y-105167904D01*
X116411333Y-105286952D01*
X116387523Y-105334571D01*
X116363714Y-105358380D01*
X116316095Y-105382190D01*
X116173238Y-105382190D01*
X116125619Y-105358380D01*
X116101809Y-105334571D01*
X141267333Y-73386190D02*
X141267333Y-73743333D01*
X141243523Y-73814761D01*
X141195904Y-73862380D01*
X141124476Y-73886190D01*
X141076857Y-73886190D01*
X141719714Y-73552857D02*
X141719714Y-73886190D01*
X141600666Y-73362380D02*
X141481619Y-73719523D01*
X141791142Y-73719523D01*
X96099333Y-86384190D02*
X96099333Y-86741333D01*
X96075523Y-86812761D01*
X96027904Y-86860380D01*
X95956476Y-86884190D01*
X95908857Y-86884190D01*
X96575523Y-86384190D02*
X96337428Y-86384190D01*
X96313619Y-86622285D01*
X96337428Y-86598476D01*
X96385047Y-86574666D01*
X96504095Y-86574666D01*
X96551714Y-86598476D01*
X96575523Y-86622285D01*
X96599333Y-86669904D01*
X96599333Y-86788952D01*
X96575523Y-86836571D01*
X96551714Y-86860380D01*
X96504095Y-86884190D01*
X96385047Y-86884190D01*
X96337428Y-86860380D01*
X96313619Y-86836571D01*
X100036333Y-86384190D02*
X100036333Y-86741333D01*
X100012523Y-86812761D01*
X99964904Y-86860380D01*
X99893476Y-86884190D01*
X99845857Y-86884190D01*
X100488714Y-86384190D02*
X100393476Y-86384190D01*
X100345857Y-86408000D01*
X100322047Y-86431809D01*
X100274428Y-86503238D01*
X100250619Y-86598476D01*
X100250619Y-86788952D01*
X100274428Y-86836571D01*
X100298238Y-86860380D01*
X100345857Y-86884190D01*
X100441095Y-86884190D01*
X100488714Y-86860380D01*
X100512523Y-86836571D01*
X100536333Y-86788952D01*
X100536333Y-86669904D01*
X100512523Y-86622285D01*
X100488714Y-86598476D01*
X100441095Y-86574666D01*
X100345857Y-86574666D01*
X100298238Y-86598476D01*
X100274428Y-86622285D01*
X100250619Y-86669904D01*
X127087333Y-103485190D02*
X127087333Y-103842333D01*
X127063523Y-103913761D01*
X127015904Y-103961380D01*
X126944476Y-103985190D01*
X126896857Y-103985190D01*
X127301619Y-103532809D02*
X127325428Y-103509000D01*
X127373047Y-103485190D01*
X127492095Y-103485190D01*
X127539714Y-103509000D01*
X127563523Y-103532809D01*
X127587333Y-103580428D01*
X127587333Y-103628047D01*
X127563523Y-103699476D01*
X127277809Y-103985190D01*
X127587333Y-103985190D01*
X96084666Y-91666190D02*
X95918000Y-91428095D01*
X95798952Y-91666190D02*
X95798952Y-91166190D01*
X95989428Y-91166190D01*
X96037047Y-91190000D01*
X96060857Y-91213809D01*
X96084666Y-91261428D01*
X96084666Y-91332857D01*
X96060857Y-91380476D01*
X96037047Y-91404285D01*
X95989428Y-91428095D01*
X95798952Y-91428095D01*
X96370380Y-91380476D02*
X96322761Y-91356666D01*
X96298952Y-91332857D01*
X96275142Y-91285238D01*
X96275142Y-91261428D01*
X96298952Y-91213809D01*
X96322761Y-91190000D01*
X96370380Y-91166190D01*
X96465619Y-91166190D01*
X96513238Y-91190000D01*
X96537047Y-91213809D01*
X96560857Y-91261428D01*
X96560857Y-91285238D01*
X96537047Y-91332857D01*
X96513238Y-91356666D01*
X96465619Y-91380476D01*
X96370380Y-91380476D01*
X96322761Y-91404285D01*
X96298952Y-91428095D01*
X96275142Y-91475714D01*
X96275142Y-91570952D01*
X96298952Y-91618571D01*
X96322761Y-91642380D01*
X96370380Y-91666190D01*
X96465619Y-91666190D01*
X96513238Y-91642380D01*
X96537047Y-91618571D01*
X96560857Y-91570952D01*
X96560857Y-91475714D01*
X96537047Y-91428095D01*
X96513238Y-91404285D01*
X96465619Y-91380476D01*
M02*
