M48
METRIC,TZ
T1C0.400
T2C1.000
%
G90
G05
T1
X113800Y-114312
X118910Y-120548
X118950Y-123148
X118950Y-128988
X123610Y-133488
X124430Y-120248
X124873Y-109636
X128000Y-112060
X128300Y-128528
X128600Y-112926
X129960Y-119308
X136142Y-108770
X138000Y-115498
X138050Y-113368
X142770Y-113838
T2
X150100Y-108770
X150100Y-111310
X150100Y-113850
X150100Y-116390
X150100Y-118930
X150100Y-121470
T0
M30
