G04 #@! TF.GenerationSoftware,KiCad,Pcbnew,(5.1.4)-1*
G04 #@! TF.CreationDate,2019-11-25T22:35:39+01:00*
G04 #@! TF.ProjectId,BME680,424d4536-3830-42e6-9b69-6361645f7063,A*
G04 #@! TF.SameCoordinates,Original*
G04 #@! TF.FileFunction,Legend,Bot*
G04 #@! TF.FilePolarity,Positive*
%FSLAX46Y46*%
G04 Gerber Fmt 4.6, Leading zero omitted, Abs format (unit mm)*
G04 Created by KiCad (PCBNEW (5.1.4)-1) date 2019-11-25 22:35:39*
%MOMM*%
%LPD*%
G04 APERTURE LIST*
%ADD10C,0.125000*%
G04 APERTURE END LIST*
D10*
X119716190Y-134146571D02*
X120216190Y-134313238D01*
X119716190Y-134479904D01*
X119954285Y-134813238D02*
X119978095Y-134884666D01*
X120001904Y-134908476D01*
X120049523Y-134932285D01*
X120120952Y-134932285D01*
X120168571Y-134908476D01*
X120192380Y-134884666D01*
X120216190Y-134837047D01*
X120216190Y-134646571D01*
X119716190Y-134646571D01*
X119716190Y-134813238D01*
X119740000Y-134860857D01*
X119763809Y-134884666D01*
X119811428Y-134908476D01*
X119859047Y-134908476D01*
X119906666Y-134884666D01*
X119930476Y-134860857D01*
X119954285Y-134813238D01*
X119954285Y-134646571D01*
X120073333Y-135122761D02*
X120073333Y-135360857D01*
X120216190Y-135075142D02*
X119716190Y-135241809D01*
X120216190Y-135408476D01*
X119716190Y-135503714D02*
X119716190Y-135789428D01*
X120216190Y-135646571D02*
X119716190Y-135646571D01*
X125302380Y-134560857D02*
X125326190Y-134632285D01*
X125326190Y-134751333D01*
X125302380Y-134798952D01*
X125278571Y-134822761D01*
X125230952Y-134846571D01*
X125183333Y-134846571D01*
X125135714Y-134822761D01*
X125111904Y-134798952D01*
X125088095Y-134751333D01*
X125064285Y-134656095D01*
X125040476Y-134608476D01*
X125016666Y-134584666D01*
X124969047Y-134560857D01*
X124921428Y-134560857D01*
X124873809Y-134584666D01*
X124850000Y-134608476D01*
X124826190Y-134656095D01*
X124826190Y-134775142D01*
X124850000Y-134846571D01*
X125326190Y-135060857D02*
X124826190Y-135060857D01*
X124826190Y-135179904D01*
X124850000Y-135251333D01*
X124897619Y-135298952D01*
X124945238Y-135322761D01*
X125040476Y-135346571D01*
X125111904Y-135346571D01*
X125207142Y-135322761D01*
X125254761Y-135298952D01*
X125302380Y-135251333D01*
X125326190Y-135179904D01*
X125326190Y-135060857D01*
X125183333Y-135537047D02*
X125183333Y-135775142D01*
X125326190Y-135489428D02*
X124826190Y-135656095D01*
X125326190Y-135822761D01*
X122732380Y-134592761D02*
X122756190Y-134664190D01*
X122756190Y-134783238D01*
X122732380Y-134830857D01*
X122708571Y-134854666D01*
X122660952Y-134878476D01*
X122613333Y-134878476D01*
X122565714Y-134854666D01*
X122541904Y-134830857D01*
X122518095Y-134783238D01*
X122494285Y-134688000D01*
X122470476Y-134640380D01*
X122446666Y-134616571D01*
X122399047Y-134592761D01*
X122351428Y-134592761D01*
X122303809Y-134616571D01*
X122280000Y-134640380D01*
X122256190Y-134688000D01*
X122256190Y-134807047D01*
X122280000Y-134878476D01*
X122708571Y-135378476D02*
X122732380Y-135354666D01*
X122756190Y-135283238D01*
X122756190Y-135235619D01*
X122732380Y-135164190D01*
X122684761Y-135116571D01*
X122637142Y-135092761D01*
X122541904Y-135068952D01*
X122470476Y-135068952D01*
X122375238Y-135092761D01*
X122327619Y-135116571D01*
X122280000Y-135164190D01*
X122256190Y-135235619D01*
X122256190Y-135283238D01*
X122280000Y-135354666D01*
X122303809Y-135378476D01*
X122756190Y-135830857D02*
X122756190Y-135592761D01*
X122256190Y-135592761D01*
M02*
